<?xml version="1.0" encoding="utf-8"?>
<svg xmlns="http://www.w3.org/2000/svg" xmlns:xlink="http://www.w3.org/1999/xlink" width="600" height="400" viewBox="0 0 2400 1600">
<defs>
  <clipPath id="clip710">
    <rect x="0" y="0" width="2400" height="1600"/>
  </clipPath>
</defs>
<path clip-path="url(#clip710)" d="M0 1600 L2400 1600 L2400 0 L0 0  Z" fill="#ffffff" fill-rule="evenodd" fill-opacity="1"/>
<defs>
  <clipPath id="clip711">
    <rect x="202" y="47" width="2152" height="1377"/>
  </clipPath>
</defs>
<path clip-path="url(#clip710)" d="M202.227 1423.18 L2352.76 1423.18 L2352.76 47.2441 L202.227 47.2441  Z" fill="#ffffff" fill-rule="evenodd" fill-opacity="1"/>
<polyline clip-path="url(#clip711)" style="stroke:#000000; stroke-linecap:round; stroke-linejoin:round; stroke-width:2; stroke-opacity:0.1; fill:none" points="263.091,1423.18 263.091,47.2441 "/>
<polyline clip-path="url(#clip711)" style="stroke:#000000; stroke-linecap:round; stroke-linejoin:round; stroke-width:2; stroke-opacity:0.1; fill:none" points="939.358,1423.18 939.358,47.2441 "/>
<polyline clip-path="url(#clip711)" style="stroke:#000000; stroke-linecap:round; stroke-linejoin:round; stroke-width:2; stroke-opacity:0.1; fill:none" points="1615.63,1423.18 1615.63,47.2441 "/>
<polyline clip-path="url(#clip711)" style="stroke:#000000; stroke-linecap:round; stroke-linejoin:round; stroke-width:2; stroke-opacity:0.1; fill:none" points="2291.89,1423.18 2291.89,47.2441 "/>
<polyline clip-path="url(#clip711)" style="stroke:#000000; stroke-linecap:round; stroke-linejoin:round; stroke-width:2; stroke-opacity:0.1; fill:none" points="202.227,1151.46 2352.76,1151.46 "/>
<polyline clip-path="url(#clip711)" style="stroke:#000000; stroke-linecap:round; stroke-linejoin:round; stroke-width:2; stroke-opacity:0.1; fill:none" points="202.227,796.369 2352.76,796.369 "/>
<polyline clip-path="url(#clip711)" style="stroke:#000000; stroke-linecap:round; stroke-linejoin:round; stroke-width:2; stroke-opacity:0.1; fill:none" points="202.227,441.277 2352.76,441.277 "/>
<polyline clip-path="url(#clip711)" style="stroke:#000000; stroke-linecap:round; stroke-linejoin:round; stroke-width:2; stroke-opacity:0.1; fill:none" points="202.227,86.1857 2352.76,86.1857 "/>
<polyline clip-path="url(#clip710)" style="stroke:#000000; stroke-linecap:round; stroke-linejoin:round; stroke-width:4; stroke-opacity:1; fill:none" points="202.227,1423.18 2352.76,1423.18 "/>
<polyline clip-path="url(#clip710)" style="stroke:#000000; stroke-linecap:round; stroke-linejoin:round; stroke-width:4; stroke-opacity:1; fill:none" points="263.091,1423.18 263.091,1404.28 "/>
<polyline clip-path="url(#clip710)" style="stroke:#000000; stroke-linecap:round; stroke-linejoin:round; stroke-width:4; stroke-opacity:1; fill:none" points="939.358,1423.18 939.358,1404.28 "/>
<polyline clip-path="url(#clip710)" style="stroke:#000000; stroke-linecap:round; stroke-linejoin:round; stroke-width:4; stroke-opacity:1; fill:none" points="1615.63,1423.18 1615.63,1404.28 "/>
<polyline clip-path="url(#clip710)" style="stroke:#000000; stroke-linecap:round; stroke-linejoin:round; stroke-width:4; stroke-opacity:1; fill:none" points="2291.89,1423.18 2291.89,1404.28 "/>
<path clip-path="url(#clip710)" d="M253.473 1481.64 L261.112 1481.64 L261.112 1455.28 L252.802 1456.95 L252.802 1452.69 L261.066 1451.02 L265.742 1451.02 L265.742 1481.64 L273.381 1481.64 L273.381 1485.58 L253.473 1485.58 L253.473 1481.64 Z" fill="#000000" fill-rule="nonzero" fill-opacity="1" /><path clip-path="url(#clip710)" d="M934.011 1481.64 L950.33 1481.64 L950.33 1485.58 L928.386 1485.58 L928.386 1481.64 Q931.048 1478.89 935.631 1474.26 Q940.238 1469.61 941.418 1468.27 Q943.664 1465.74 944.543 1464.01 Q945.446 1462.25 945.446 1460.56 Q945.446 1457.8 943.502 1456.07 Q941.58 1454.33 938.479 1454.33 Q936.28 1454.33 933.826 1455.09 Q931.395 1455.86 928.618 1457.41 L928.618 1452.69 Q931.442 1451.55 933.895 1450.97 Q936.349 1450.39 938.386 1450.39 Q943.756 1450.39 946.951 1453.08 Q950.145 1455.77 950.145 1460.26 Q950.145 1462.39 949.335 1464.31 Q948.548 1466.2 946.442 1468.8 Q945.863 1469.47 942.761 1472.69 Q939.659 1475.88 934.011 1481.64 Z" fill="#000000" fill-rule="nonzero" fill-opacity="1" /><path clip-path="url(#clip710)" d="M1619.87 1466.95 Q1623.23 1467.66 1625.1 1469.93 Q1627 1472.2 1627 1475.53 Q1627 1480.65 1623.48 1483.45 Q1619.97 1486.25 1613.48 1486.25 Q1611.31 1486.25 1608.99 1485.81 Q1606.7 1485.39 1604.25 1484.54 L1604.25 1480.02 Q1606.19 1481.16 1608.51 1481.74 Q1610.82 1482.32 1613.35 1482.32 Q1617.74 1482.32 1620.03 1480.58 Q1622.35 1478.84 1622.35 1475.53 Q1622.35 1472.48 1620.2 1470.77 Q1618.07 1469.03 1614.25 1469.03 L1610.22 1469.03 L1610.22 1465.19 L1614.43 1465.19 Q1617.88 1465.19 1619.71 1463.82 Q1621.54 1462.43 1621.54 1459.84 Q1621.54 1457.18 1619.64 1455.77 Q1617.77 1454.33 1614.25 1454.33 Q1612.33 1454.33 1610.13 1454.75 Q1607.93 1455.16 1605.29 1456.04 L1605.29 1451.88 Q1607.95 1451.14 1610.27 1450.77 Q1612.6 1450.39 1614.66 1450.39 Q1619.99 1450.39 1623.09 1452.83 Q1626.19 1455.23 1626.19 1459.35 Q1626.19 1462.22 1624.55 1464.21 Q1622.91 1466.18 1619.87 1466.95 Z" fill="#000000" fill-rule="nonzero" fill-opacity="1" /><path clip-path="url(#clip710)" d="M2294.9 1455.09 L2283.1 1473.54 L2294.9 1473.54 L2294.9 1455.09 M2293.67 1451.02 L2299.55 1451.02 L2299.55 1473.54 L2304.48 1473.54 L2304.48 1477.43 L2299.55 1477.43 L2299.55 1485.58 L2294.9 1485.58 L2294.9 1477.43 L2279.3 1477.43 L2279.3 1472.92 L2293.67 1451.02 Z" fill="#000000" fill-rule="nonzero" fill-opacity="1" /><path clip-path="url(#clip710)" d="M1294.11 1532.4 L1281.22 1549.74 L1294.77 1568.04 L1287.87 1568.04 L1277.49 1554.04 L1267.12 1568.04 L1260.21 1568.04 L1274.05 1549.39 L1261.39 1532.4 L1268.29 1532.4 L1277.75 1545.1 L1287.2 1532.4 L1294.11 1532.4 Z" fill="#000000" fill-rule="nonzero" fill-opacity="1" /><polyline clip-path="url(#clip710)" style="stroke:#000000; stroke-linecap:round; stroke-linejoin:round; stroke-width:4; stroke-opacity:1; fill:none" points="202.227,1423.18 202.227,47.2441 "/>
<polyline clip-path="url(#clip710)" style="stroke:#000000; stroke-linecap:round; stroke-linejoin:round; stroke-width:4; stroke-opacity:1; fill:none" points="202.227,1151.46 221.125,1151.46 "/>
<polyline clip-path="url(#clip710)" style="stroke:#000000; stroke-linecap:round; stroke-linejoin:round; stroke-width:4; stroke-opacity:1; fill:none" points="202.227,796.369 221.125,796.369 "/>
<polyline clip-path="url(#clip710)" style="stroke:#000000; stroke-linecap:round; stroke-linejoin:round; stroke-width:4; stroke-opacity:1; fill:none" points="202.227,441.277 221.125,441.277 "/>
<polyline clip-path="url(#clip710)" style="stroke:#000000; stroke-linecap:round; stroke-linejoin:round; stroke-width:4; stroke-opacity:1; fill:none" points="202.227,86.1857 221.125,86.1857 "/>
<path clip-path="url(#clip710)" d="M156.644 1138.25 L144.839 1156.7 L156.644 1156.7 L156.644 1138.25 M155.417 1134.18 L161.297 1134.18 L161.297 1156.7 L166.227 1156.7 L166.227 1160.59 L161.297 1160.59 L161.297 1168.74 L156.644 1168.74 L156.644 1160.59 L141.042 1160.59 L141.042 1156.08 L155.417 1134.18 Z" fill="#000000" fill-rule="nonzero" fill-opacity="1" /><path clip-path="url(#clip710)" d="M154.7 794.505 Q151.552 794.505 149.7 796.658 Q147.871 798.811 147.871 802.561 Q147.871 806.288 149.7 808.464 Q151.552 810.616 154.7 810.616 Q157.848 810.616 159.677 808.464 Q161.528 806.288 161.528 802.561 Q161.528 798.811 159.677 796.658 Q157.848 794.505 154.7 794.505 M163.982 779.853 L163.982 784.112 Q162.223 783.278 160.417 782.839 Q158.635 782.399 156.876 782.399 Q152.246 782.399 149.792 785.524 Q147.362 788.649 147.015 794.968 Q148.38 792.954 150.441 791.89 Q152.501 790.802 154.978 790.802 Q160.186 790.802 163.195 793.973 Q166.227 797.121 166.227 802.561 Q166.227 807.885 163.079 811.102 Q159.931 814.32 154.7 814.32 Q148.704 814.32 145.533 809.737 Q142.362 805.13 142.362 796.403 Q142.362 788.209 146.251 783.348 Q150.14 778.464 156.69 778.464 Q158.45 778.464 160.232 778.811 Q162.038 779.158 163.982 779.853 Z" fill="#000000" fill-rule="nonzero" fill-opacity="1" /><path clip-path="url(#clip710)" d="M154.376 442.145 Q151.042 442.145 149.121 443.928 Q147.223 445.71 147.223 448.835 Q147.223 451.96 149.121 453.742 Q151.042 455.525 154.376 455.525 Q157.709 455.525 159.63 453.742 Q161.552 451.937 161.552 448.835 Q161.552 445.71 159.63 443.928 Q157.732 442.145 154.376 442.145 M149.7 440.155 Q146.691 439.414 145.001 437.354 Q143.334 435.293 143.334 432.33 Q143.334 428.187 146.274 425.78 Q149.237 423.372 154.376 423.372 Q159.538 423.372 162.477 425.78 Q165.417 428.187 165.417 432.33 Q165.417 435.293 163.727 437.354 Q162.061 439.414 159.075 440.155 Q162.454 440.942 164.329 443.233 Q166.227 445.525 166.227 448.835 Q166.227 453.858 163.149 456.543 Q160.093 459.228 154.376 459.228 Q148.658 459.228 145.579 456.543 Q142.524 453.858 142.524 448.835 Q142.524 445.525 144.422 443.233 Q146.32 440.942 149.7 440.155 M147.987 432.77 Q147.987 435.455 149.653 436.96 Q151.343 438.465 154.376 438.465 Q157.385 438.465 159.075 436.96 Q160.788 435.455 160.788 432.77 Q160.788 430.085 159.075 428.58 Q157.385 427.076 154.376 427.076 Q151.343 427.076 149.653 428.58 Q147.987 430.085 147.987 432.77 Z" fill="#000000" fill-rule="nonzero" fill-opacity="1" /><path clip-path="url(#clip710)" d="M114.931 99.5305 L122.57 99.5305 L122.57 73.1649 L114.26 74.8316 L114.26 70.5723 L122.524 68.9057 L127.2 68.9057 L127.2 99.5305 L134.839 99.5305 L134.839 103.466 L114.931 103.466 L114.931 99.5305 Z" fill="#000000" fill-rule="nonzero" fill-opacity="1" /><path clip-path="url(#clip710)" d="M154.283 71.9844 Q150.672 71.9844 148.843 75.5492 Q147.038 79.0908 147.038 86.2204 Q147.038 93.3268 148.843 96.8916 Q150.672 100.433 154.283 100.433 Q157.917 100.433 159.723 96.8916 Q161.552 93.3268 161.552 86.2204 Q161.552 79.0908 159.723 75.5492 Q157.917 71.9844 154.283 71.9844 M154.283 68.2807 Q160.093 68.2807 163.149 72.8871 Q166.227 77.4704 166.227 86.2204 Q166.227 94.9472 163.149 99.5537 Q160.093 104.137 154.283 104.137 Q148.473 104.137 145.394 99.5537 Q142.339 94.9472 142.339 86.2204 Q142.339 77.4704 145.394 72.8871 Q148.473 68.2807 154.283 68.2807 Z" fill="#000000" fill-rule="nonzero" fill-opacity="1" /><path clip-path="url(#clip710)" d="M67.3143 733.525 Q73.68 736.008 75.6216 738.363 Q77.5631 740.718 77.5631 744.665 L77.5631 749.344 L72.6615 749.344 L72.6615 745.906 Q72.6615 743.487 71.5157 742.151 Q70.3699 740.814 66.1048 739.191 L63.4312 738.14 L28.3562 752.559 L28.3562 746.352 L56.238 735.212 L28.3562 724.072 L28.3562 717.865 L67.3143 733.525 Z" fill="#000000" fill-rule="nonzero" fill-opacity="1" /><polyline clip-path="url(#clip711)" style="stroke:#000000; stroke-linecap:round; stroke-linejoin:round; stroke-width:4; stroke-opacity:0.8; fill:none" points="263.091,1240.23 263.091,1062.69 "/>
<polyline clip-path="url(#clip711)" style="stroke:#000000; stroke-linecap:round; stroke-linejoin:round; stroke-width:4; stroke-opacity:0.8; fill:none" points="939.358,1053.81 939.358,894.019 "/>
<polyline clip-path="url(#clip711)" style="stroke:#000000; stroke-linecap:round; stroke-linejoin:round; stroke-width:4; stroke-opacity:0.8; fill:none" points="1615.63,814.123 1615.63,601.068 "/>
<polyline clip-path="url(#clip711)" style="stroke:#000000; stroke-linecap:round; stroke-linejoin:round; stroke-width:4; stroke-opacity:0.8; fill:none" points="2291.89,441.277 2291.89,86.1857 "/>
<line clip-path="url(#clip711)" x1="279.091" y1="1240.23" x2="247.091" y2="1240.23" style="stroke:#000000; stroke-width:4; stroke-opacity:1"/>
<line clip-path="url(#clip711)" x1="279.091" y1="1062.69" x2="247.091" y2="1062.69" style="stroke:#000000; stroke-width:4; stroke-opacity:1"/>
<line clip-path="url(#clip711)" x1="955.358" y1="1053.81" x2="923.358" y2="1053.81" style="stroke:#000000; stroke-width:4; stroke-opacity:1"/>
<line clip-path="url(#clip711)" x1="955.358" y1="894.019" x2="923.358" y2="894.019" style="stroke:#000000; stroke-width:4; stroke-opacity:1"/>
<line clip-path="url(#clip711)" x1="1631.63" y1="814.123" x2="1599.63" y2="814.123" style="stroke:#000000; stroke-width:4; stroke-opacity:1"/>
<line clip-path="url(#clip711)" x1="1631.63" y1="601.068" x2="1599.63" y2="601.068" style="stroke:#000000; stroke-width:4; stroke-opacity:1"/>
<line clip-path="url(#clip711)" x1="2307.89" y1="441.277" x2="2275.89" y2="441.277" style="stroke:#000000; stroke-width:4; stroke-opacity:1"/>
<line clip-path="url(#clip711)" x1="2307.89" y1="86.1857" x2="2275.89" y2="86.1857" style="stroke:#000000; stroke-width:4; stroke-opacity:1"/>
<circle clip-path="url(#clip711)" cx="263.091" cy="1151.46" r="14.4" fill="#009af9" fill-rule="evenodd" fill-opacity="1" stroke="#000000" stroke-opacity="1" stroke-width="3.2"/>
<circle clip-path="url(#clip711)" cx="939.358" cy="973.914" r="14.4" fill="#009af9" fill-rule="evenodd" fill-opacity="1" stroke="#000000" stroke-opacity="1" stroke-width="3.2"/>
<circle clip-path="url(#clip711)" cx="1615.63" cy="707.596" r="14.4" fill="#009af9" fill-rule="evenodd" fill-opacity="1" stroke="#000000" stroke-opacity="1" stroke-width="3.2"/>
<circle clip-path="url(#clip711)" cx="2291.89" cy="263.731" r="14.4" fill="#009af9" fill-rule="evenodd" fill-opacity="1" stroke="#000000" stroke-opacity="1" stroke-width="3.2"/>
<polyline clip-path="url(#clip711)" style="stroke:#009af9; stroke-linecap:round; stroke-linejoin:round; stroke-width:8; stroke-opacity:1; fill:none" points="263.091,1195.12 268.163,1193.15 273.235,1191.17 278.307,1189.2 283.379,1187.23 288.451,1185.25 293.523,1183.28 298.595,1181.3 303.667,1179.33 308.739,1177.35 313.811,1175.38 318.883,1173.4 323.955,1171.43 329.027,1169.45 334.099,1167.48 339.171,1165.5 344.244,1163.53 349.316,1161.56 354.388,1159.58 359.46,1157.61 364.532,1155.63 369.604,1153.66 374.676,1151.68 379.748,1149.71 384.82,1147.73 389.892,1145.76 394.964,1143.78 400.036,1141.81 405.108,1139.83 410.18,1137.86 415.252,1135.89 420.324,1133.91 425.396,1131.94 430.468,1129.96 435.54,1127.99 440.612,1126.01 445.684,1124.04 450.756,1122.06 455.828,1120.09 460.9,1118.11 465.972,1116.14 471.044,1114.16 476.116,1112.19 481.188,1110.22 486.26,1108.24 491.332,1106.27 496.404,1104.29 501.476,1102.32 506.548,1100.34 511.62,1098.37 516.692,1096.39 521.764,1094.42 526.836,1092.44 531.908,1090.47 536.98,1088.49 542.052,1086.52 547.124,1084.55 552.196,1082.57 557.268,1080.6 562.34,1078.62 567.412,1076.65 572.484,1074.67 577.556,1072.7 582.628,1070.72 587.7,1068.75 592.772,1066.77 597.844,1064.8 602.916,1062.82 607.988,1060.85 613.06,1058.88 618.132,1056.9 623.204,1054.93 628.276,1052.95 633.348,1050.98 638.42,1049 643.492,1047.03 648.564,1045.05 653.636,1043.08 658.708,1041.1 663.78,1039.13 668.852,1037.15 673.924,1035.18 678.996,1033.21 684.068,1031.23 689.14,1029.26 694.212,1027.28 699.284,1025.31 704.356,1023.33 709.428,1021.36 714.5,1019.38 719.572,1017.41 724.644,1015.43 729.716,1013.46 734.788,1011.48 739.86,1009.51 744.932,1007.54 750.004,1005.56 755.076,1003.59 760.148,1001.61 765.22,999.637 770.292,997.662 775.364,995.688 780.436,993.713 785.508,991.738 790.58,989.764 795.652,987.789 800.724,985.815 805.796,983.84 810.868,981.865 815.94,979.891 821.012,977.916 826.084,975.942 831.156,973.967 836.228,971.992 841.3,970.018 846.372,968.043 851.444,966.068 856.516,964.094 861.588,962.119 866.66,960.145 871.732,958.17 876.804,956.195 881.876,954.221 886.948,952.246 892.02,950.272 897.092,948.297 902.164,946.322 907.236,944.348 912.308,942.373 917.38,940.398 922.452,938.424 927.524,936.449 932.596,934.475 937.668,932.5 942.74,930.525 947.812,928.551 952.884,926.576 957.956,924.601 963.028,922.627 968.1,920.652 973.172,918.678 978.244,916.703 983.316,914.728 988.388,912.754 993.46,910.779 998.532,908.805 1003.6,906.83 1008.68,904.855 1013.75,902.881 1018.82,900.906 1023.89,898.931 1028.96,896.957 1034.04,894.982 1039.11,893.008 1044.18,891.033 1049.25,889.058 1054.32,887.084 1059.4,885.109 1064.47,883.134 1069.54,881.16 1074.61,879.185 1079.68,877.211 1084.76,875.236 1089.83,873.261 1094.9,871.287 1099.97,869.312 1105.04,867.338 1110.12,865.363 1115.19,863.388 1120.26,861.414 1125.33,859.439 1130.4,857.464 1135.48,855.49 1140.55,853.515 1145.62,851.541 1150.69,849.566 1155.76,847.591 1160.84,845.617 1165.91,843.642 1170.98,841.667 1176.05,839.693 1181.12,837.718 1186.2,835.744 1191.27,833.769 1196.34,831.794 1201.41,829.82 1206.48,827.845 1211.56,825.871 1216.63,823.896 1221.7,821.921 1226.77,819.947 1231.84,817.972 1236.92,815.997 1241.99,814.023 1247.06,812.048 1252.13,810.074 1257.2,808.099 1262.28,806.124 1267.35,804.15 1272.42,802.175 1277.49,800.201 1282.56,798.226 1287.64,796.251 1292.71,794.277 1297.78,792.302 1302.85,790.327 1307.92,788.353 1313,786.378 1318.07,784.404 1323.14,782.429 1328.21,780.454 1333.28,778.48 1338.36,776.505 1343.43,774.53 1348.5,772.556 1353.57,770.581 1358.64,768.607 1363.72,766.632 1368.79,764.657 1373.86,762.683 1378.93,760.708 1384,758.734 1389.08,756.759 1394.15,754.784 1399.22,752.81 1404.29,750.835 1409.36,748.86 1414.44,746.886 1419.51,744.911 1424.58,742.937 1429.65,740.962 1434.72,738.987 1439.8,737.013 1444.87,735.038 1449.94,733.063 1455.01,731.089 1460.08,729.114 1465.16,727.14 1470.23,725.165 1475.3,723.19 1480.37,721.216 1485.44,719.241 1490.52,717.267 1495.59,715.292 1500.66,713.317 1505.73,711.343 1510.8,709.368 1515.88,707.393 1520.95,705.419 1526.02,703.444 1531.09,701.47 1536.16,699.495 1541.24,697.52 1546.31,695.546 1551.38,693.571 1556.45,691.596 1561.52,689.622 1566.6,687.647 1571.67,685.673 1576.74,683.698 1581.81,681.723 1586.88,679.749 1591.96,677.774 1597.03,675.8 1602.1,673.825 1607.17,671.85 1612.24,669.876 1617.32,667.901 1622.39,665.926 1627.46,663.952 1632.53,661.977 1637.6,660.003 1642.68,658.028 1647.75,656.053 1652.82,654.079 1657.89,652.104 1662.96,650.13 1668.04,648.155 1673.11,646.18 1678.18,644.206 1683.25,642.231 1688.32,640.256 1693.4,638.282 1698.47,636.307 1703.54,634.333 1708.61,632.358 1713.68,630.383 1718.76,628.409 1723.83,626.434 1728.9,624.459 1733.97,622.485 1739.04,620.51 1744.12,618.536 1749.19,616.561 1754.26,614.586 1759.33,612.612 1764.4,610.637 1769.48,608.663 1774.55,606.688 1779.62,604.713 1784.69,602.739 1789.76,600.764 1794.84,598.789 1799.91,596.815 1804.98,594.84 1810.05,592.866 1815.12,590.891 1820.2,588.916 1825.27,586.942 1830.34,584.967 1835.41,582.992 1840.48,581.018 1845.56,579.043 1850.63,577.069 1855.7,575.094 1860.77,573.119 1865.84,571.145 1870.92,569.17 1875.99,567.196 1881.06,565.221 1886.13,563.246 1891.2,561.272 1896.28,559.297 1901.35,557.322 1906.42,555.348 1911.49,553.373 1916.56,551.399 1921.64,549.424 1926.71,547.449 1931.78,545.475 1936.85,543.5 1941.92,541.525 1947,539.551 1952.07,537.576 1957.14,535.602 1962.21,533.627 1967.28,531.652 1972.36,529.678 1977.43,527.703 1982.5,525.729 1987.57,523.754 1992.64,521.779 1997.72,519.805 2002.79,517.83 2007.86,515.855 2012.93,513.881 2018,511.906 2023.08,509.932 2028.15,507.957 2033.22,505.982 2038.29,504.008 2043.36,502.033 2048.44,500.059 2053.51,498.084 2058.58,496.109 2063.65,494.135 2068.72,492.16 2073.8,490.185 2078.87,488.211 2083.94,486.236 2089.01,484.262 2094.08,482.287 2099.16,480.312 2104.23,478.338 2109.3,476.363 2114.37,474.388 2119.44,472.414 2124.52,470.439 2129.59,468.465 2134.66,466.49 2139.73,464.515 2144.8,462.541 2149.88,460.566 2154.95,458.592 2160.02,456.617 2165.09,454.642 2170.16,452.668 2175.24,450.693 2180.31,448.718 2185.38,446.744 2190.45,444.769 2195.52,442.795 2200.6,440.82 2205.67,438.845 2210.74,436.871 2215.81,434.896 2220.88,432.921 2225.96,430.947 2231.03,428.972 2236.1,426.998 2241.17,425.023 2246.24,423.048 2251.32,421.074 2256.39,419.099 2261.46,417.125 2266.53,415.15 2271.6,413.175 2276.68,411.201 2281.75,409.226 2286.82,407.251 2291.89,405.277 "/>
<polyline clip-path="url(#clip711)" style="stroke:#e26f46; stroke-linecap:round; stroke-linejoin:round; stroke-width:4; stroke-opacity:1; fill:none" points="263.091,1384.24 269.877,1380.57 276.662,1376.91 283.447,1373.26 290.233,1369.62 297.018,1365.97 303.803,1362.33 310.588,1358.69 317.374,1355.06 324.159,1351.44 330.944,1347.82 337.73,1344.2 344.515,1340.58 351.3,1336.98 358.085,1333.38 364.871,1329.79 371.656,1326.19 378.441,1322.61 385.227,1319.03 392.012,1315.46 398.797,1311.88 405.582,1308.32 412.368,1304.77 419.153,1301.22 425.938,1297.66 432.724,1294.13 439.509,1290.6 446.294,1287.07 453.079,1283.55 459.865,1280.04 466.65,1276.53 473.435,1273.03 480.221,1269.54 487.006,1266.05 493.791,1262.57 500.576,1259.1 507.362,1255.64 514.147,1252.18 520.932,1248.73 527.718,1245.29 534.503,1241.85 541.288,1238.43 548.073,1235.01 554.859,1231.6 561.644,1228.2 568.429,1224.8 575.215,1221.42 582,1218.04 588.785,1214.67 595.57,1211.32 602.356,1207.96 609.141,1204.63 615.926,1201.29 622.712,1197.98 629.497,1194.66 636.282,1191.36 643.067,1188.07 649.853,1184.78 656.638,1181.51 663.423,1178.25 670.209,1175 676.994,1171.76 683.779,1168.53 690.564,1165.31 697.35,1162.1 704.135,1158.9 710.92,1155.72 717.706,1152.54 724.491,1149.38 731.276,1146.23 738.061,1143.09 744.847,1139.96 751.632,1136.85 758.417,1133.74 765.203,1130.65 771.988,1127.57 778.773,1124.51 785.558,1121.46 792.344,1118.42 799.129,1115.39 805.914,1112.37 812.7,1109.37 819.485,1106.38 826.27,1103.41 833.055,1100.45 839.841,1097.5 846.626,1094.57 853.411,1091.65 860.197,1088.74 866.982,1085.85 873.767,1082.97 880.552,1080.1 887.338,1077.26 894.123,1074.42 900.908,1071.6 907.694,1068.79 914.479,1066 921.264,1063.23 928.049,1060.46 934.835,1057.71 941.62,1054.98 948.405,1052.26 955.191,1049.55 961.976,1046.87 968.761,1044.19 975.546,1041.53 982.332,1038.88 989.117,1036.25 995.902,1033.64 1002.69,1031.03 1009.47,1028.45 1016.26,1025.87 1023.04,1023.32 1029.83,1020.77 1036.61,1018.25 1043.4,1015.73 1050.18,1013.24 1056.97,1010.75 1063.76,1008.29 1070.54,1005.83 1077.33,1003.39 1084.11,1000.96 1090.9,998.551 1097.68,996.147 1104.47,993.768 1111.25,991.391 1118.04,989.041 1124.82,986.691 1131.61,984.369 1138.39,982.048 1145.18,979.75 1151.96,977.459 1158.75,975.184 1165.53,972.922 1172.32,970.669 1179.11,968.437 1185.89,966.205 1192.68,964.001 1199.46,961.799 1206.25,959.613 1213.03,957.441 1219.82,955.272 1226.6,953.13 1233.39,950.987 1240.17,948.862 1246.96,946.75 1253.74,944.638 1260.53,942.554 1267.31,940.472 1274.1,938.396 1280.88,936.345 1287.67,934.294 1294.45,932.254 1301.24,930.233 1308.03,928.212 1314.81,926.204 1321.6,924.214 1328.38,922.223 1335.17,920.243 1341.95,918.284 1348.74,916.324 1355.52,914.368 1362.31,912.439 1369.09,910.51 1375.88,908.581 1382.66,906.674 1389.45,904.776 1396.23,902.877 1403.02,900.984 1409.8,899.116 1416.59,897.249 1423.38,895.381 1430.16,893.525 1436.95,891.688 1443.73,889.851 1450.52,888.014 1457.3,886.189 1464.09,884.383 1470.87,882.576 1477.66,880.77 1484.44,878.967 1491.23,877.191 1498.01,875.416 1504.8,873.64 1511.58,871.865 1518.37,870.104 1525.15,868.36 1531.94,866.615 1538.73,864.87 1545.51,863.125 1552.3,861.397 1559.08,859.683 1565.87,857.968 1572.65,856.253 1579.44,854.539 1586.22,852.831 1593.01,851.147 1599.79,849.463 1606.58,847.779 1613.36,846.095 1620.15,844.41 1626.93,842.738 1633.72,841.084 1640.5,839.43 1647.29,837.776 1654.08,836.122 1660.86,834.468 1667.65,832.814 1674.43,831.19 1681.22,829.566 1688,827.942 1694.79,826.318 1701.57,824.694 1708.36,823.07 1715.14,821.446 1721.93,819.848 1728.71,818.254 1735.5,816.66 1742.28,815.065 1749.07,813.471 1755.85,811.877 1762.64,810.283 1769.42,808.688 1776.21,807.121 1783,805.557 1789.78,803.992 1796.57,802.427 1803.35,800.862 1810.14,799.298 1816.92,797.733 1823.71,796.168 1830.49,794.604 1837.28,793.065 1844.06,791.53 1850.85,789.994 1857.63,788.459 1864.42,786.923 1871.2,785.388 1877.99,783.852 1884.77,782.317 1891.56,780.781 1898.35,779.246 1905.13,777.725 1911.92,776.219 1918.7,774.712 1925.49,773.205 1932.27,771.698 1939.06,770.192 1945.84,768.685 1952.63,767.178 1959.41,765.672 1966.2,764.165 1972.98,762.658 1979.77,761.152 1986.55,759.657 1993.34,758.178 2000.12,756.7 2006.91,755.222 2013.7,753.743 2020.48,752.265 2027.27,750.787 2034.05,749.308 2040.84,747.83 2047.62,746.352 2054.41,744.873 2061.19,743.395 2067.98,741.917 2074.76,740.438 2081.55,738.96 2088.33,737.508 2095.12,736.058 2101.9,734.607 2108.69,733.157 2115.47,731.706 2122.26,730.256 2129.05,728.805 2135.83,727.355 2142.62,725.904 2149.4,724.454 2156.19,723.003 2162.97,721.552 2169.76,720.102 2176.54,718.651 2183.33,717.201 2190.11,715.75 2196.9,714.3 2203.68,712.857 2210.47,711.434 2217.25,710.01 2224.04,708.587 2230.82,707.163 2237.61,705.74 2244.39,704.316 2251.18,702.893 2257.97,701.47 2264.75,700.046 2271.54,698.623 2278.32,697.199 2285.11,695.776 2291.89,694.352 "/>
<polyline clip-path="url(#clip711)" style="stroke:#e26f46; stroke-linecap:round; stroke-linejoin:round; stroke-width:4; stroke-opacity:1; fill:none" points="263.091,1006.03 269.877,1004.4 276.662,1002.77 283.447,1001.13 290.233,999.498 297.018,997.864 303.803,996.231 310.588,994.597 317.374,992.963 324.159,991.329 330.944,989.68 337.73,987.987 344.515,986.293 351.3,984.6 358.085,982.906 364.871,981.212 371.656,979.519 378.441,977.825 385.227,976.132 392.012,974.438 398.797,972.744 405.582,971.042 412.368,969.29 419.153,967.539 425.938,965.787 432.724,964.035 439.509,962.283 446.294,960.531 453.079,958.779 459.865,957.028 466.65,955.276 473.435,953.47 480.221,951.661 487.006,949.852 493.791,948.043 500.576,946.234 507.362,944.425 514.147,942.616 520.932,940.803 527.718,938.938 534.503,937.073 541.288,935.207 548.073,933.342 554.859,931.477 561.644,929.612 568.429,927.737 575.215,925.817 582,923.896 588.785,921.976 595.57,920.056 602.356,918.135 609.141,916.213 615.926,914.239 622.712,912.264 629.497,910.289 636.282,908.314 643.067,906.339 649.853,904.34 656.638,902.311 663.423,900.283 670.209,898.255 676.994,896.226 683.779,894.179 690.564,892.098 697.35,890.016 704.135,887.935 710.92,885.854 717.706,883.739 724.491,881.606 731.276,879.472 738.061,877.339 744.847,875.194 751.632,873.009 758.417,870.824 765.203,868.639 771.988,866.451 778.773,864.215 785.558,861.98 792.344,859.744 799.129,857.501 805.914,855.216 812.7,852.931 819.485,850.645 826.27,848.34 833.055,846.005 839.841,843.671 846.626,841.336 853.411,838.961 860.197,836.578 866.982,834.195 873.767,831.794 880.552,829.363 887.338,826.933 894.123,824.499 900.908,822.021 907.694,819.544 914.479,817.066 921.264,814.55 928.049,812.026 934.835,809.503 941.62,806.947 948.405,804.378 955.191,801.809 961.976,799.211 968.761,796.597 975.546,793.984 982.332,791.342 989.117,788.684 995.902,786.027 1002.69,783.339 1009.47,780.638 1016.26,777.938 1023.04,775.203 1029.83,772.46 1036.61,769.718 1043.4,766.936 1050.18,764.151 1056.97,761.362 1063.76,758.537 1070.54,755.712 1077.33,752.875 1084.11,750.01 1090.9,747.145 1097.68,744.26 1104.47,741.356 1111.25,738.452 1118.04,735.519 1124.82,732.577 1131.61,729.635 1138.39,726.656 1145.18,723.676 1151.96,720.689 1158.75,717.672 1165.53,714.656 1172.32,711.624 1179.11,708.572 1185.89,705.519 1192.68,702.444 1199.46,699.356 1206.25,696.269 1213.03,693.152 1219.82,690.03 1226.6,686.907 1233.39,683.751 1240.17,680.596 1246.96,677.434 1253.74,674.246 1260.53,671.058 1267.31,667.858 1274.1,664.638 1280.88,661.418 1287.67,658.184 1294.45,654.933 1301.24,651.682 1308.03,648.415 1314.81,645.133 1321.6,641.851 1328.38,638.554 1335.17,635.243 1341.95,631.931 1348.74,628.605 1355.52,625.265 1362.31,621.924 1369.09,618.572 1375.88,615.204 1382.66,611.835 1389.45,608.459 1396.23,605.063 1403.02,601.667 1409.8,598.269 1416.59,594.847 1423.38,591.424 1430.16,588.001 1436.95,584.558 1443.73,581.109 1450.52,577.66 1457.3,574.202 1464.09,570.727 1470.87,567.253 1477.66,563.779 1484.44,560.282 1491.23,556.783 1498.01,553.284 1504.8,549.776 1511.58,546.253 1518.37,542.731 1525.15,539.208 1531.94,535.668 1538.73,532.122 1545.51,528.576 1552.3,525.03 1559.08,521.463 1565.87,517.894 1572.65,514.326 1579.44,510.756 1586.22,507.166 1593.01,503.576 1599.79,499.985 1606.58,496.395 1613.36,492.783 1620.15,489.171 1626.93,485.56 1633.72,481.948 1640.5,478.32 1647.29,474.687 1654.08,471.055 1660.86,467.423 1667.65,463.781 1674.43,460.129 1681.22,456.477 1688,452.825 1694.79,449.172 1701.57,445.503 1708.36,441.831 1715.14,438.159 1721.93,434.488 1728.71,430.813 1735.5,427.123 1742.28,423.433 1749.07,419.742 1755.85,416.052 1762.64,412.358 1769.42,408.649 1776.21,404.941 1783,401.233 1789.78,397.525 1796.57,393.815 1803.35,390.09 1810.14,386.364 1816.92,382.638 1823.71,378.912 1830.49,375.187 1837.28,371.451 1844.06,367.708 1850.85,363.966 1857.63,360.223 1864.42,356.48 1871.2,352.738 1877.99,348.981 1884.77,345.222 1891.56,341.463 1898.35,337.705 1905.13,333.946 1911.92,330.187 1918.7,326.415 1925.49,322.641 1932.27,318.866 1939.06,315.092 1945.84,311.317 1952.63,307.543 1959.41,303.762 1966.2,299.973 1972.98,296.183 1979.77,292.393 1986.55,288.604 1993.34,284.814 2000.12,281.025 2006.91,277.226 2013.7,273.422 2020.48,269.618 2027.27,265.814 2034.05,262.01 2040.84,258.206 2047.62,254.402 2054.41,250.593 2061.19,246.775 2067.98,242.957 2074.76,239.138 2081.55,235.32 2088.33,231.502 2095.12,227.684 2101.9,223.866 2108.69,220.04 2115.47,216.209 2122.26,212.377 2129.05,208.546 2135.83,204.714 2142.62,200.883 2149.4,197.051 2156.19,193.22 2162.97,189.385 2169.76,185.54 2176.54,181.696 2183.33,177.852 2190.11,174.007 2196.9,170.163 2203.68,166.319 2210.47,162.474 2217.25,158.63 2224.04,154.781 2230.82,150.925 2237.61,147.068 2244.39,143.211 2251.18,139.355 2257.97,135.498 2264.75,131.641 2271.54,127.785 2278.32,123.928 2285.11,120.071 2291.89,116.207 "/>
<path clip-path="url(#clip710)" d="M273.912 300.469 L935.235 300.469 L935.235 93.1086 L273.912 93.1086  Z" fill="#ffffff" fill-rule="evenodd" fill-opacity="1"/>
<polyline clip-path="url(#clip710)" style="stroke:#000000; stroke-linecap:round; stroke-linejoin:round; stroke-width:4; stroke-opacity:1; fill:none" points="273.912,300.469 935.235,300.469 935.235,93.1086 273.912,93.1086 273.912,300.469 "/>
<circle clip-path="url(#clip710)" cx="369.491" cy="144.949" r="20.48" fill="#009af9" fill-rule="evenodd" fill-opacity="1" stroke="#000000" stroke-opacity="1" stroke-width="4.55111"/>
<path clip-path="url(#clip710)" d="M469.746 131.511 L469.746 158.386 L475.394 158.386 Q482.547 158.386 485.857 155.145 Q489.19 151.905 489.19 144.914 Q489.19 137.969 485.857 134.752 Q482.547 131.511 475.394 131.511 L469.746 131.511 M465.07 127.669 L474.676 127.669 Q484.723 127.669 489.422 131.858 Q494.121 136.025 494.121 144.914 Q494.121 153.849 489.398 158.039 Q484.676 162.229 474.676 162.229 L465.07 162.229 L465.07 127.669 Z" fill="#000000" fill-rule="nonzero" fill-opacity="1" /><path clip-path="url(#clip710)" d="M513.171 149.196 Q508.009 149.196 506.019 150.377 Q504.028 151.557 504.028 154.405 Q504.028 156.673 505.509 158.016 Q507.014 159.335 509.583 159.335 Q513.125 159.335 515.255 156.835 Q517.408 154.312 517.408 150.145 L517.408 149.196 L513.171 149.196 M521.667 147.437 L521.667 162.229 L517.408 162.229 L517.408 158.293 Q515.949 160.655 513.773 161.789 Q511.597 162.9 508.449 162.9 Q504.468 162.9 502.107 160.678 Q499.769 158.432 499.769 154.682 Q499.769 150.307 502.685 148.085 Q505.625 145.863 511.435 145.863 L517.408 145.863 L517.408 145.446 Q517.408 142.507 515.463 140.909 Q513.542 139.289 510.046 139.289 Q507.824 139.289 505.718 139.821 Q503.611 140.354 501.667 141.419 L501.667 137.483 Q504.005 136.581 506.204 136.141 Q508.403 135.678 510.486 135.678 Q516.111 135.678 518.889 138.594 Q521.667 141.511 521.667 147.437 Z" fill="#000000" fill-rule="nonzero" fill-opacity="1" /><path clip-path="url(#clip710)" d="M534.653 128.942 L534.653 136.303 L543.426 136.303 L543.426 139.613 L534.653 139.613 L534.653 153.687 Q534.653 156.858 535.509 157.761 Q536.389 158.664 539.051 158.664 L543.426 158.664 L543.426 162.229 L539.051 162.229 Q534.12 162.229 532.245 160.4 Q530.37 158.548 530.37 153.687 L530.37 139.613 L527.245 139.613 L527.245 136.303 L530.37 136.303 L530.37 128.942 L534.653 128.942 Z" fill="#000000" fill-rule="nonzero" fill-opacity="1" /><path clip-path="url(#clip710)" d="M560.81 149.196 Q555.648 149.196 553.657 150.377 Q551.667 151.557 551.667 154.405 Q551.667 156.673 553.148 158.016 Q554.653 159.335 557.222 159.335 Q560.764 159.335 562.893 156.835 Q565.046 154.312 565.046 150.145 L565.046 149.196 L560.81 149.196 M569.305 147.437 L569.305 162.229 L565.046 162.229 L565.046 158.293 Q563.588 160.655 561.412 161.789 Q559.236 162.9 556.088 162.9 Q552.106 162.9 549.745 160.678 Q547.407 158.432 547.407 154.682 Q547.407 150.307 550.324 148.085 Q553.264 145.863 559.074 145.863 L565.046 145.863 L565.046 145.446 Q565.046 142.507 563.102 140.909 Q561.18 139.289 557.685 139.289 Q555.463 139.289 553.356 139.821 Q551.25 140.354 549.305 141.419 L549.305 137.483 Q551.643 136.581 553.843 136.141 Q556.042 135.678 558.125 135.678 Q563.75 135.678 566.528 138.594 Q569.305 141.511 569.305 147.437 Z" fill="#000000" fill-rule="nonzero" fill-opacity="1" /><polyline clip-path="url(#clip710)" style="stroke:#009af9; stroke-linecap:round; stroke-linejoin:round; stroke-width:8; stroke-opacity:1; fill:none" points="297.807,196.789 441.175,196.789 "/>
<path clip-path="url(#clip710)" d="M465.07 179.509 L484.931 179.509 L484.931 183.444 L469.746 183.444 L469.746 193.629 L483.449 193.629 L483.449 197.564 L469.746 197.564 L469.746 214.069 L465.07 214.069 L465.07 179.509 Z" fill="#000000" fill-rule="nonzero" fill-opacity="1" /><path clip-path="url(#clip710)" d="M488.704 188.143 L492.963 188.143 L492.963 214.069 L488.704 214.069 L488.704 188.143 M488.704 178.05 L492.963 178.05 L492.963 183.444 L488.704 183.444 L488.704 178.05 Z" fill="#000000" fill-rule="nonzero" fill-opacity="1" /><path clip-path="url(#clip710)" d="M506.088 180.782 L506.088 188.143 L514.861 188.143 L514.861 191.453 L506.088 191.453 L506.088 205.527 Q506.088 208.698 506.945 209.601 Q507.824 210.504 510.486 210.504 L514.861 210.504 L514.861 214.069 L510.486 214.069 Q505.556 214.069 503.681 212.24 Q501.806 210.388 501.806 205.527 L501.806 191.453 L498.681 191.453 L498.681 188.143 L501.806 188.143 L501.806 180.782 L506.088 180.782 Z" fill="#000000" fill-rule="nonzero" fill-opacity="1" /><path clip-path="url(#clip710)" d="M533.056 188.143 L537.315 188.143 L542.639 208.374 L547.94 188.143 L552.963 188.143 L558.287 208.374 L563.588 188.143 L567.847 188.143 L561.065 214.069 L556.042 214.069 L550.463 192.819 L544.861 214.069 L539.838 214.069 L533.056 188.143 Z" fill="#000000" fill-rule="nonzero" fill-opacity="1" /><path clip-path="url(#clip710)" d="M574.305 188.143 L578.565 188.143 L578.565 214.069 L574.305 214.069 L574.305 188.143 M574.305 178.05 L578.565 178.05 L578.565 183.444 L574.305 183.444 L574.305 178.05 Z" fill="#000000" fill-rule="nonzero" fill-opacity="1" /><path clip-path="url(#clip710)" d="M591.69 180.782 L591.69 188.143 L600.463 188.143 L600.463 191.453 L591.69 191.453 L591.69 205.527 Q591.69 208.698 592.546 209.601 Q593.426 210.504 596.088 210.504 L600.463 210.504 L600.463 214.069 L596.088 214.069 Q591.157 214.069 589.282 212.24 Q587.407 210.388 587.407 205.527 L587.407 191.453 L584.282 191.453 L584.282 188.143 L587.407 188.143 L587.407 180.782 L591.69 180.782 Z" fill="#000000" fill-rule="nonzero" fill-opacity="1" /><path clip-path="url(#clip710)" d="M627.615 198.421 L627.615 214.069 L623.356 214.069 L623.356 198.559 Q623.356 194.879 621.921 193.05 Q620.486 191.222 617.615 191.222 Q614.166 191.222 612.176 193.421 Q610.185 195.62 610.185 199.416 L610.185 214.069 L605.902 214.069 L605.902 178.05 L610.185 178.05 L610.185 192.171 Q611.713 189.833 613.773 188.675 Q615.856 187.518 618.564 187.518 Q623.032 187.518 625.324 190.296 Q627.615 193.05 627.615 198.421 Z" fill="#000000" fill-rule="nonzero" fill-opacity="1" /><path clip-path="url(#clip710)" d="M667.754 197.865 Q669.259 198.374 670.671 200.041 Q672.106 201.708 673.541 204.624 L678.286 214.069 L673.263 214.069 L668.842 205.203 Q667.129 201.731 665.509 200.596 Q663.911 199.462 661.134 199.462 L656.041 199.462 L656.041 214.069 L651.365 214.069 L651.365 179.509 L661.921 179.509 Q667.847 179.509 670.763 181.985 Q673.68 184.462 673.68 189.462 Q673.68 192.726 672.152 194.879 Q670.647 197.032 667.754 197.865 M656.041 183.351 L656.041 195.62 L661.921 195.62 Q665.3 195.62 667.013 194.069 Q668.749 192.495 668.749 189.462 Q668.749 186.43 667.013 184.902 Q665.3 183.351 661.921 183.351 L656.041 183.351 Z" fill="#000000" fill-rule="nonzero" fill-opacity="1" /><path clip-path="url(#clip710)" d="M705.022 180.643 L705.022 185.203 Q702.36 183.93 699.999 183.305 Q697.638 182.68 695.439 182.68 Q691.62 182.68 689.536 184.161 Q687.476 185.643 687.476 188.374 Q687.476 190.666 688.842 191.847 Q690.231 193.004 694.073 193.722 L696.897 194.3 Q702.129 195.296 704.606 197.819 Q707.106 200.319 707.106 204.532 Q707.106 209.555 703.726 212.147 Q700.37 214.74 693.865 214.74 Q691.411 214.74 688.633 214.184 Q685.879 213.629 682.916 212.541 L682.916 207.726 Q685.763 209.323 688.495 210.133 Q691.226 210.944 693.865 210.944 Q697.87 210.944 700.045 209.37 Q702.221 207.796 702.221 204.879 Q702.221 202.333 700.647 200.897 Q699.096 199.462 695.532 198.745 L692.684 198.189 Q687.453 197.147 685.115 194.925 Q682.777 192.703 682.777 188.745 Q682.777 184.161 685.995 181.522 Q689.235 178.884 694.907 178.884 Q697.337 178.884 699.86 179.323 Q702.383 179.763 705.022 180.643 Z" fill="#000000" fill-rule="nonzero" fill-opacity="1" /><path clip-path="url(#clip710)" d="M714.397 179.509 L736.249 179.509 L736.249 183.444 L719.073 183.444 L719.073 193.675 L735.531 193.675 L735.531 197.61 L719.073 197.61 L719.073 210.133 L736.666 210.133 L736.666 214.069 L714.397 214.069 L714.397 179.509 Z" fill="#000000" fill-rule="nonzero" fill-opacity="1" /><path clip-path="url(#clip710)" d="M774.397 199.647 L774.397 203.791 Q771.966 205.596 769.883 206.407 Q767.823 207.194 765.577 207.194 Q763.031 207.194 759.652 205.828 Q759.42 205.735 759.258 205.666 Q759.119 205.62 758.772 205.481 Q755.184 204.069 753.008 204.069 Q750.971 204.069 748.98 204.948 Q746.99 205.828 744.721 207.772 L744.721 203.629 Q747.152 201.823 749.212 201.036 Q751.295 200.226 753.541 200.226 Q756.087 200.226 759.49 201.592 Q759.744 201.708 759.86 201.754 Q759.999 201.8 760.346 201.939 Q763.934 203.351 766.11 203.351 Q768.101 203.351 770.045 202.495 Q772.013 201.615 774.397 199.647 M774.397 190.643 L774.397 194.763 Q771.966 196.592 769.883 197.402 Q767.823 198.189 765.577 198.189 Q763.031 198.189 759.652 196.823 Q759.42 196.731 759.258 196.661 Q759.119 196.615 758.772 196.476 Q755.184 195.064 753.008 195.064 Q750.971 195.064 748.98 195.944 Q746.99 196.823 744.721 198.745 L744.721 194.624 Q747.152 192.819 749.212 192.032 Q751.295 191.222 753.541 191.222 Q756.087 191.222 759.49 192.587 Q759.721 192.68 759.837 192.726 Q759.999 192.796 760.346 192.934 Q763.934 194.347 766.11 194.347 Q768.101 194.347 770.045 193.49 Q772.013 192.61 774.397 190.643 Z" fill="#000000" fill-rule="nonzero" fill-opacity="1" /><path clip-path="url(#clip710)" d="M794.489 182.587 Q790.878 182.587 789.05 186.152 Q787.244 189.694 787.244 196.823 Q787.244 203.93 789.05 207.495 Q790.878 211.036 794.489 211.036 Q798.124 211.036 799.929 207.495 Q801.758 203.93 801.758 196.823 Q801.758 189.694 799.929 186.152 Q798.124 182.587 794.489 182.587 M794.489 178.884 Q800.3 178.884 803.355 183.49 Q806.434 188.073 806.434 196.823 Q806.434 205.55 803.355 210.157 Q800.3 214.74 794.489 214.74 Q788.679 214.74 785.601 210.157 Q782.545 205.55 782.545 196.823 Q782.545 188.073 785.601 183.49 Q788.679 178.884 794.489 178.884 Z" fill="#000000" fill-rule="nonzero" fill-opacity="1" /><path clip-path="url(#clip710)" d="M814.651 208.189 L819.536 208.189 L819.536 214.069 L814.651 214.069 L814.651 208.189 Z" fill="#000000" fill-rule="nonzero" fill-opacity="1" /><path clip-path="url(#clip710)" d="M840.299 194.925 Q837.151 194.925 835.299 197.078 Q833.471 199.231 833.471 202.981 Q833.471 206.708 835.299 208.883 Q837.151 211.036 840.299 211.036 Q843.447 211.036 845.276 208.883 Q847.128 206.708 847.128 202.981 Q847.128 199.231 845.276 197.078 Q843.447 194.925 840.299 194.925 M849.582 180.273 L849.582 184.532 Q847.822 183.698 846.017 183.259 Q844.234 182.819 842.475 182.819 Q837.846 182.819 835.392 185.944 Q832.961 189.069 832.614 195.388 Q833.98 193.374 836.04 192.309 Q838.1 191.222 840.577 191.222 Q845.785 191.222 848.795 194.393 Q851.827 197.541 851.827 202.981 Q851.827 208.305 848.679 211.522 Q845.531 214.74 840.299 214.74 Q834.304 214.74 831.133 210.157 Q827.961 205.55 827.961 196.823 Q827.961 188.629 831.85 183.768 Q835.739 178.884 842.29 178.884 Q844.049 178.884 845.832 179.231 Q847.637 179.578 849.582 180.273 Z" fill="#000000" fill-rule="nonzero" fill-opacity="1" /><path clip-path="url(#clip710)" d="M874.049 195.434 Q877.406 196.152 879.281 198.421 Q881.179 200.689 881.179 204.022 Q881.179 209.138 877.66 211.939 Q874.142 214.74 867.66 214.74 Q865.484 214.74 863.17 214.3 Q860.878 213.883 858.424 213.027 L858.424 208.513 Q860.369 209.647 862.683 210.226 Q864.998 210.805 867.521 210.805 Q871.92 210.805 874.211 209.069 Q876.526 207.333 876.526 204.022 Q876.526 200.967 874.373 199.254 Q872.244 197.518 868.424 197.518 L864.396 197.518 L864.396 193.675 L868.609 193.675 Q872.058 193.675 873.887 192.309 Q875.716 190.921 875.716 188.328 Q875.716 185.666 873.818 184.254 Q871.943 182.819 868.424 182.819 Q866.503 182.819 864.304 183.235 Q862.105 183.652 859.466 184.532 L859.466 180.365 Q862.128 179.624 864.443 179.254 Q866.781 178.884 868.841 178.884 Q874.165 178.884 877.267 181.314 Q880.369 183.722 880.369 187.842 Q880.369 190.712 878.725 192.703 Q877.082 194.671 874.049 195.434 Z" fill="#000000" fill-rule="nonzero" fill-opacity="1" /><path clip-path="url(#clip710)" d="M904.211 195.434 Q907.567 196.152 909.442 198.421 Q911.341 200.689 911.341 204.022 Q911.341 209.138 907.822 211.939 Q904.304 214.74 897.822 214.74 Q895.646 214.74 893.331 214.3 Q891.04 213.883 888.586 213.027 L888.586 208.513 Q890.531 209.647 892.845 210.226 Q895.16 210.805 897.683 210.805 Q902.081 210.805 904.373 209.069 Q906.688 207.333 906.688 204.022 Q906.688 200.967 904.535 199.254 Q902.405 197.518 898.586 197.518 L894.558 197.518 L894.558 193.675 L898.771 193.675 Q902.22 193.675 904.049 192.309 Q905.878 190.921 905.878 188.328 Q905.878 185.666 903.98 184.254 Q902.105 182.819 898.586 182.819 Q896.665 182.819 894.466 183.235 Q892.267 183.652 889.628 184.532 L889.628 180.365 Q892.29 179.624 894.605 179.254 Q896.943 178.884 899.003 178.884 Q904.327 178.884 907.429 181.314 Q910.53 183.722 910.53 187.842 Q910.53 190.712 908.887 192.703 Q907.243 194.671 904.211 195.434 Z" fill="#000000" fill-rule="nonzero" fill-opacity="1" /><polyline clip-path="url(#clip710)" style="stroke:#e26f46; stroke-linecap:round; stroke-linejoin:round; stroke-width:4; stroke-opacity:1; fill:none" points="297.807,248.629 441.175,248.629 "/>
<path clip-path="url(#clip710)" d="M470.695 261.973 L487.014 261.973 L487.014 265.909 L465.07 265.909 L465.07 261.973 Q467.732 259.219 472.315 254.589 Q476.922 249.936 478.102 248.594 Q480.348 246.071 481.227 244.335 Q482.13 242.575 482.13 240.886 Q482.13 238.131 480.185 236.395 Q478.264 234.659 475.162 234.659 Q472.963 234.659 470.51 235.423 Q468.079 236.187 465.301 237.737 L465.301 233.015 Q468.125 231.881 470.579 231.302 Q473.033 230.724 475.07 230.724 Q480.44 230.724 483.635 233.409 Q486.829 236.094 486.829 240.585 Q486.829 242.714 486.019 244.636 Q485.232 246.534 483.125 249.126 Q482.547 249.798 479.445 253.015 Q476.343 256.21 470.695 261.973 Z" fill="#000000" fill-rule="nonzero" fill-opacity="1" /><path clip-path="url(#clip710)" d="M496.829 260.029 L501.713 260.029 L501.713 265.909 L496.829 265.909 L496.829 260.029 Z" fill="#000000" fill-rule="nonzero" fill-opacity="1" /><path clip-path="url(#clip710)" d="M521.898 234.427 Q518.287 234.427 516.458 237.992 Q514.653 241.534 514.653 248.663 Q514.653 255.77 516.458 259.335 Q518.287 262.876 521.898 262.876 Q525.532 262.876 527.338 259.335 Q529.167 255.77 529.167 248.663 Q529.167 241.534 527.338 237.992 Q525.532 234.427 521.898 234.427 M521.898 230.724 Q527.708 230.724 530.764 235.33 Q533.843 239.913 533.843 248.663 Q533.843 257.39 530.764 261.997 Q527.708 266.58 521.898 266.58 Q516.088 266.58 513.009 261.997 Q509.954 257.39 509.954 248.663 Q509.954 239.913 513.009 235.33 Q516.088 230.724 521.898 230.724 Z" fill="#000000" fill-rule="nonzero" fill-opacity="1" /><path clip-path="url(#clip710)" d="M551.505 243.362 Q547.986 243.362 546.088 245.909 Q544.097 248.571 544.097 252.969 Q544.097 257.622 546.065 260.307 Q548.056 262.969 551.505 262.969 Q554.907 262.969 556.898 260.284 Q558.889 257.598 558.889 252.969 Q558.889 248.733 556.898 245.909 Q555.069 243.362 551.505 243.362 M551.505 239.983 L565.648 239.983 L565.648 244.242 L560.88 244.242 Q563.403 247.853 563.403 252.969 Q563.403 259.335 560.231 262.946 Q557.06 266.58 551.505 266.58 Q545.926 266.58 542.778 262.946 Q539.606 259.335 539.606 252.969 Q539.606 246.557 542.778 242.969 Q545.393 239.983 551.505 239.983 Z" fill="#000000" fill-rule="nonzero" fill-opacity="1" /><path clip-path="url(#clip710)" d="M612.638 234.011 L612.638 238.941 Q610.277 236.742 607.592 235.654 Q604.93 234.566 601.921 234.566 Q595.995 234.566 592.847 238.2 Q589.699 241.812 589.699 248.663 Q589.699 255.492 592.847 259.126 Q595.995 262.737 601.921 262.737 Q604.93 262.737 607.592 261.649 Q610.277 260.561 612.638 258.362 L612.638 263.247 Q610.185 264.913 607.43 265.747 Q604.699 266.58 601.643 266.58 Q593.796 266.58 589.282 261.788 Q584.768 256.973 584.768 248.663 Q584.768 240.33 589.282 235.538 Q593.796 230.724 601.643 230.724 Q604.745 230.724 607.476 231.557 Q610.231 232.367 612.638 234.011 Z" fill="#000000" fill-rule="nonzero" fill-opacity="1" /><path clip-path="url(#clip710)" d="M629.722 242.969 Q626.296 242.969 624.305 245.654 Q622.314 248.316 622.314 252.969 Q622.314 257.622 624.282 260.307 Q626.273 262.969 629.722 262.969 Q633.124 262.969 635.115 260.284 Q637.106 257.598 637.106 252.969 Q637.106 248.362 635.115 245.677 Q633.124 242.969 629.722 242.969 M629.722 239.358 Q635.277 239.358 638.449 242.969 Q641.62 246.58 641.62 252.969 Q641.62 259.335 638.449 262.969 Q635.277 266.58 629.722 266.58 Q624.143 266.58 620.972 262.969 Q617.824 259.335 617.824 252.969 Q617.824 246.58 620.972 242.969 Q624.143 239.358 629.722 239.358 Z" fill="#000000" fill-rule="nonzero" fill-opacity="1" /><path clip-path="url(#clip710)" d="M670.231 250.261 L670.231 265.909 L665.972 265.909 L665.972 250.399 Q665.972 246.719 664.536 244.89 Q663.101 243.062 660.231 243.062 Q656.782 243.062 654.791 245.261 Q652.8 247.46 652.8 251.256 L652.8 265.909 L648.518 265.909 L648.518 239.983 L652.8 239.983 L652.8 244.011 Q654.328 241.673 656.388 240.515 Q658.472 239.358 661.18 239.358 Q665.647 239.358 667.939 242.136 Q670.231 244.89 670.231 250.261 Z" fill="#000000" fill-rule="nonzero" fill-opacity="1" /><path clip-path="url(#clip710)" d="M691.851 229.89 L691.851 233.432 L687.777 233.432 Q685.485 233.432 684.583 234.358 Q683.703 235.284 683.703 237.691 L683.703 239.983 L690.717 239.983 L690.717 243.293 L683.703 243.293 L683.703 265.909 L679.421 265.909 L679.421 243.293 L675.346 243.293 L675.346 239.983 L679.421 239.983 L679.421 238.177 Q679.421 233.849 681.434 231.881 Q683.448 229.89 687.823 229.89 L691.851 229.89 Z" fill="#000000" fill-rule="nonzero" fill-opacity="1" /><path clip-path="url(#clip710)" d="M692.569 260.029 L697.453 260.029 L697.453 265.909 L692.569 265.909 L692.569 260.029 Z" fill="#000000" fill-rule="nonzero" fill-opacity="1" /><path clip-path="url(#clip710)" d="M726.967 249.404 L726.967 262.066 L734.467 262.066 Q738.24 262.066 740.045 260.515 Q741.874 258.941 741.874 255.723 Q741.874 252.483 740.045 250.955 Q738.24 249.404 734.467 249.404 L726.967 249.404 M726.967 235.191 L726.967 245.608 L733.888 245.608 Q737.314 245.608 738.98 244.335 Q740.67 243.038 740.67 240.399 Q740.67 237.784 738.98 236.487 Q737.314 235.191 733.888 235.191 L726.967 235.191 M722.291 231.349 L734.235 231.349 Q739.582 231.349 742.476 233.571 Q745.369 235.793 745.369 239.89 Q745.369 243.062 743.888 244.937 Q742.406 246.811 739.536 247.274 Q742.985 248.015 744.883 250.376 Q746.804 252.714 746.804 256.233 Q746.804 260.862 743.656 263.385 Q740.508 265.909 734.698 265.909 L722.291 265.909 L722.291 231.349 Z" fill="#000000" fill-rule="nonzero" fill-opacity="1" /><path clip-path="url(#clip710)" d="M766.411 252.876 Q761.249 252.876 759.258 254.057 Q757.267 255.237 757.267 258.085 Q757.267 260.353 758.749 261.696 Q760.253 263.015 762.823 263.015 Q766.365 263.015 768.494 260.515 Q770.647 257.992 770.647 253.825 L770.647 252.876 L766.411 252.876 M774.906 251.117 L774.906 265.909 L770.647 265.909 L770.647 261.973 Q769.189 264.335 767.013 265.469 Q764.837 266.58 761.689 266.58 Q757.707 266.58 755.346 264.358 Q753.008 262.112 753.008 258.362 Q753.008 253.987 755.925 251.765 Q758.865 249.543 764.675 249.543 L770.647 249.543 L770.647 249.126 Q770.647 246.187 768.702 244.589 Q766.781 242.969 763.286 242.969 Q761.064 242.969 758.957 243.501 Q756.851 244.034 754.906 245.099 L754.906 241.163 Q757.244 240.261 759.443 239.821 Q761.642 239.358 763.726 239.358 Q769.351 239.358 772.128 242.274 Q774.906 245.191 774.906 251.117 Z" fill="#000000" fill-rule="nonzero" fill-opacity="1" /><path clip-path="url(#clip710)" d="M805.23 250.261 L805.23 265.909 L800.971 265.909 L800.971 250.399 Q800.971 246.719 799.536 244.89 Q798.1 243.062 795.23 243.062 Q791.781 243.062 789.79 245.261 Q787.8 247.46 787.8 251.256 L787.8 265.909 L783.517 265.909 L783.517 239.983 L787.8 239.983 L787.8 244.011 Q789.327 241.673 791.388 240.515 Q793.471 239.358 796.179 239.358 Q800.647 239.358 802.938 242.136 Q805.23 244.89 805.23 250.261 Z" fill="#000000" fill-rule="nonzero" fill-opacity="1" /><path clip-path="url(#clip710)" d="M830.785 243.918 L830.785 229.89 L835.045 229.89 L835.045 265.909 L830.785 265.909 L830.785 262.02 Q829.443 264.335 827.383 265.469 Q825.346 266.58 822.475 266.58 Q817.776 266.58 814.813 262.83 Q811.874 259.08 811.874 252.969 Q811.874 246.858 814.813 243.108 Q817.776 239.358 822.475 239.358 Q825.346 239.358 827.383 240.492 Q829.443 241.603 830.785 243.918 M816.272 252.969 Q816.272 257.668 818.193 260.353 Q820.137 263.015 823.517 263.015 Q826.897 263.015 828.841 260.353 Q830.785 257.668 830.785 252.969 Q830.785 248.27 828.841 245.608 Q826.897 242.923 823.517 242.923 Q820.137 242.923 818.193 245.608 Q816.272 248.27 816.272 252.969 Z" fill="#000000" fill-rule="nonzero" fill-opacity="1" /></svg>
