<?xml version="1.0" encoding="utf-8"?>
<svg xmlns="http://www.w3.org/2000/svg" xmlns:xlink="http://www.w3.org/1999/xlink" width="600" height="400" viewBox="0 0 2400 1600">
<defs>
  <clipPath id="clip650">
    <rect x="0" y="0" width="2400" height="1600"/>
  </clipPath>
</defs>
<path clip-path="url(#clip650)" d="M0 1600 L2400 1600 L2400 0 L0 0  Z" fill="#ffffff" fill-rule="evenodd" fill-opacity="1"/>
<defs>
  <clipPath id="clip651">
    <rect x="480" y="0" width="1681" height="1600"/>
  </clipPath>
</defs>
<path clip-path="url(#clip650)" d="M175.445 1423.18 L2352.76 1423.18 L2352.76 123.472 L175.445 123.472  Z" fill="#ffffff" fill-rule="evenodd" fill-opacity="1"/>
<defs>
  <clipPath id="clip652">
    <rect x="175" y="123" width="2178" height="1301"/>
  </clipPath>
</defs>
<polyline clip-path="url(#clip652)" style="stroke:#000000; stroke-linecap:round; stroke-linejoin:round; stroke-width:2; stroke-opacity:0.1; fill:none" points="223.282,1423.18 223.282,123.472 "/>
<polyline clip-path="url(#clip652)" style="stroke:#000000; stroke-linecap:round; stroke-linejoin:round; stroke-width:2; stroke-opacity:0.1; fill:none" points="912.566,1423.18 912.566,123.472 "/>
<polyline clip-path="url(#clip652)" style="stroke:#000000; stroke-linecap:round; stroke-linejoin:round; stroke-width:2; stroke-opacity:0.1; fill:none" points="1601.85,1423.18 1601.85,123.472 "/>
<polyline clip-path="url(#clip652)" style="stroke:#000000; stroke-linecap:round; stroke-linejoin:round; stroke-width:2; stroke-opacity:0.1; fill:none" points="2291.13,1423.18 2291.13,123.472 "/>
<polyline clip-path="url(#clip652)" style="stroke:#000000; stroke-linecap:round; stroke-linejoin:round; stroke-width:2; stroke-opacity:0.1; fill:none" points="175.445,1260.29 2352.76,1260.29 "/>
<polyline clip-path="url(#clip652)" style="stroke:#000000; stroke-linecap:round; stroke-linejoin:round; stroke-width:2; stroke-opacity:0.1; fill:none" points="175.445,993.392 2352.76,993.392 "/>
<polyline clip-path="url(#clip652)" style="stroke:#000000; stroke-linecap:round; stroke-linejoin:round; stroke-width:2; stroke-opacity:0.1; fill:none" points="175.445,726.493 2352.76,726.493 "/>
<polyline clip-path="url(#clip652)" style="stroke:#000000; stroke-linecap:round; stroke-linejoin:round; stroke-width:2; stroke-opacity:0.1; fill:none" points="175.445,459.594 2352.76,459.594 "/>
<polyline clip-path="url(#clip652)" style="stroke:#000000; stroke-linecap:round; stroke-linejoin:round; stroke-width:2; stroke-opacity:0.1; fill:none" points="175.445,192.695 2352.76,192.695 "/>
<polyline clip-path="url(#clip650)" style="stroke:#000000; stroke-linecap:round; stroke-linejoin:round; stroke-width:4; stroke-opacity:1; fill:none" points="175.445,1423.18 2352.76,1423.18 "/>
<polyline clip-path="url(#clip650)" style="stroke:#000000; stroke-linecap:round; stroke-linejoin:round; stroke-width:4; stroke-opacity:1; fill:none" points="223.282,1423.18 223.282,1404.28 "/>
<polyline clip-path="url(#clip650)" style="stroke:#000000; stroke-linecap:round; stroke-linejoin:round; stroke-width:4; stroke-opacity:1; fill:none" points="912.566,1423.18 912.566,1404.28 "/>
<polyline clip-path="url(#clip650)" style="stroke:#000000; stroke-linecap:round; stroke-linejoin:round; stroke-width:4; stroke-opacity:1; fill:none" points="1601.85,1423.18 1601.85,1404.28 "/>
<polyline clip-path="url(#clip650)" style="stroke:#000000; stroke-linecap:round; stroke-linejoin:round; stroke-width:4; stroke-opacity:1; fill:none" points="2291.13,1423.18 2291.13,1404.28 "/>
<path clip-path="url(#clip650)" d="M223.282 1454.1 Q219.67 1454.1 217.842 1457.66 Q216.036 1461.2 216.036 1468.33 Q216.036 1475.44 217.842 1479.01 Q219.67 1482.55 223.282 1482.55 Q226.916 1482.55 228.721 1479.01 Q230.55 1475.44 230.55 1468.33 Q230.55 1461.2 228.721 1457.66 Q226.916 1454.1 223.282 1454.1 M223.282 1450.39 Q229.092 1450.39 232.147 1455 Q235.226 1459.58 235.226 1468.33 Q235.226 1477.06 232.147 1481.67 Q229.092 1486.25 223.282 1486.25 Q217.471 1486.25 214.393 1481.67 Q211.337 1477.06 211.337 1468.33 Q211.337 1459.58 214.393 1455 Q217.471 1450.39 223.282 1450.39 Z" fill="#000000" fill-rule="nonzero" fill-opacity="1" /><path clip-path="url(#clip650)" d="M887.265 1451.02 L905.621 1451.02 L905.621 1454.96 L891.547 1454.96 L891.547 1463.43 Q892.566 1463.08 893.584 1462.92 Q894.603 1462.73 895.621 1462.73 Q901.408 1462.73 904.788 1465.9 Q908.168 1469.08 908.168 1474.49 Q908.168 1480.07 904.695 1483.17 Q901.223 1486.25 894.904 1486.25 Q892.728 1486.25 890.459 1485.88 Q888.214 1485.51 885.807 1484.77 L885.807 1480.07 Q887.89 1481.2 890.112 1481.76 Q892.334 1482.32 894.811 1482.32 Q898.816 1482.32 901.154 1480.21 Q903.492 1478.1 903.492 1474.49 Q903.492 1470.88 901.154 1468.77 Q898.816 1466.67 894.811 1466.67 Q892.936 1466.67 891.061 1467.08 Q889.209 1467.5 887.265 1468.38 L887.265 1451.02 Z" fill="#000000" fill-rule="nonzero" fill-opacity="1" /><path clip-path="url(#clip650)" d="M927.38 1454.1 Q923.769 1454.1 921.941 1457.66 Q920.135 1461.2 920.135 1468.33 Q920.135 1475.44 921.941 1479.01 Q923.769 1482.55 927.38 1482.55 Q931.015 1482.55 932.82 1479.01 Q934.649 1475.44 934.649 1468.33 Q934.649 1461.2 932.82 1457.66 Q931.015 1454.1 927.38 1454.1 M927.38 1450.39 Q933.191 1450.39 936.246 1455 Q939.325 1459.58 939.325 1468.33 Q939.325 1477.06 936.246 1481.67 Q933.191 1486.25 927.38 1486.25 Q921.57 1486.25 918.492 1481.67 Q915.436 1477.06 915.436 1468.33 Q915.436 1459.58 918.492 1455 Q921.57 1450.39 927.38 1450.39 Z" fill="#000000" fill-rule="nonzero" fill-opacity="1" /><path clip-path="url(#clip650)" d="M1561.46 1481.64 L1569.1 1481.64 L1569.1 1455.28 L1560.79 1456.95 L1560.79 1452.69 L1569.05 1451.02 L1573.72 1451.02 L1573.72 1481.64 L1581.36 1481.64 L1581.36 1485.58 L1561.46 1485.58 L1561.46 1481.64 Z" fill="#000000" fill-rule="nonzero" fill-opacity="1" /><path clip-path="url(#clip650)" d="M1600.81 1454.1 Q1597.2 1454.1 1595.37 1457.66 Q1593.56 1461.2 1593.56 1468.33 Q1593.56 1475.44 1595.37 1479.01 Q1597.2 1482.55 1600.81 1482.55 Q1604.44 1482.55 1606.25 1479.01 Q1608.08 1475.44 1608.08 1468.33 Q1608.08 1461.2 1606.25 1457.66 Q1604.44 1454.1 1600.81 1454.1 M1600.81 1450.39 Q1606.62 1450.39 1609.67 1455 Q1612.75 1459.58 1612.75 1468.33 Q1612.75 1477.06 1609.67 1481.67 Q1606.62 1486.25 1600.81 1486.25 Q1595 1486.25 1591.92 1481.67 Q1588.86 1477.06 1588.86 1468.33 Q1588.86 1459.58 1591.92 1455 Q1595 1450.39 1600.81 1450.39 Z" fill="#000000" fill-rule="nonzero" fill-opacity="1" /><path clip-path="url(#clip650)" d="M1630.97 1454.1 Q1627.36 1454.1 1625.53 1457.66 Q1623.72 1461.2 1623.72 1468.33 Q1623.72 1475.44 1625.53 1479.01 Q1627.36 1482.55 1630.97 1482.55 Q1634.6 1482.55 1636.41 1479.01 Q1638.24 1475.44 1638.24 1468.33 Q1638.24 1461.2 1636.41 1457.66 Q1634.6 1454.1 1630.97 1454.1 M1630.97 1450.39 Q1636.78 1450.39 1639.84 1455 Q1642.91 1459.58 1642.91 1468.33 Q1642.91 1477.06 1639.84 1481.67 Q1636.78 1486.25 1630.97 1486.25 Q1625.16 1486.25 1622.08 1481.67 Q1619.03 1477.06 1619.03 1468.33 Q1619.03 1459.58 1622.08 1455 Q1625.16 1450.39 1630.97 1450.39 Z" fill="#000000" fill-rule="nonzero" fill-opacity="1" /><path clip-path="url(#clip650)" d="M2250.74 1481.64 L2258.38 1481.64 L2258.38 1455.28 L2250.07 1456.95 L2250.07 1452.69 L2258.33 1451.02 L2263.01 1451.02 L2263.01 1481.64 L2270.65 1481.64 L2270.65 1485.58 L2250.74 1485.58 L2250.74 1481.64 Z" fill="#000000" fill-rule="nonzero" fill-opacity="1" /><path clip-path="url(#clip650)" d="M2280.14 1451.02 L2298.49 1451.02 L2298.49 1454.96 L2284.42 1454.96 L2284.42 1463.43 Q2285.44 1463.08 2286.46 1462.92 Q2287.48 1462.73 2288.5 1462.73 Q2294.28 1462.73 2297.66 1465.9 Q2301.04 1469.08 2301.04 1474.49 Q2301.04 1480.07 2297.57 1483.17 Q2294.1 1486.25 2287.78 1486.25 Q2285.6 1486.25 2283.33 1485.88 Q2281.09 1485.51 2278.68 1484.77 L2278.68 1480.07 Q2280.76 1481.2 2282.99 1481.76 Q2285.21 1482.32 2287.68 1482.32 Q2291.69 1482.32 2294.03 1480.21 Q2296.37 1478.1 2296.37 1474.49 Q2296.37 1470.88 2294.03 1468.77 Q2291.69 1466.67 2287.68 1466.67 Q2285.81 1466.67 2283.93 1467.08 Q2282.08 1467.5 2280.14 1468.38 L2280.14 1451.02 Z" fill="#000000" fill-rule="nonzero" fill-opacity="1" /><path clip-path="url(#clip650)" d="M2320.25 1454.1 Q2316.64 1454.1 2314.81 1457.66 Q2313.01 1461.2 2313.01 1468.33 Q2313.01 1475.44 2314.81 1479.01 Q2316.64 1482.55 2320.25 1482.55 Q2323.89 1482.55 2325.69 1479.01 Q2327.52 1475.44 2327.52 1468.33 Q2327.52 1461.2 2325.69 1457.66 Q2323.89 1454.1 2320.25 1454.1 M2320.25 1450.39 Q2326.06 1450.39 2329.12 1455 Q2332.2 1459.58 2332.2 1468.33 Q2332.2 1477.06 2329.12 1481.67 Q2326.06 1486.25 2320.25 1486.25 Q2314.44 1486.25 2311.37 1481.67 Q2308.31 1477.06 2308.31 1468.33 Q2308.31 1459.58 2311.37 1455 Q2314.44 1450.39 2320.25 1450.39 Z" fill="#000000" fill-rule="nonzero" fill-opacity="1" /><path clip-path="url(#clip650)" d="M716.125 1545.76 Q718.193 1546.46 720.135 1548.76 Q722.108 1551.05 724.082 1555.06 L730.607 1568.04 L723.7 1568.04 L717.621 1555.85 Q715.265 1551.08 713.037 1549.52 Q710.841 1547.96 707.022 1547.96 L700.019 1547.96 L700.019 1568.04 L693.59 1568.04 L693.59 1520.52 L708.104 1520.52 Q716.252 1520.52 720.262 1523.93 Q724.273 1527.34 724.273 1534.21 Q724.273 1538.7 722.172 1541.66 Q720.103 1544.62 716.125 1545.76 M700.019 1525.81 L700.019 1542.68 L708.104 1542.68 Q712.751 1542.68 715.106 1540.54 Q717.493 1538.38 717.493 1534.21 Q717.493 1530.04 715.106 1527.94 Q712.751 1525.81 708.104 1525.81 L700.019 1525.81 Z" fill="#000000" fill-rule="nonzero" fill-opacity="1" /><path clip-path="url(#clip650)" d="M735.094 1553.98 L735.094 1532.4 L740.951 1532.4 L740.951 1553.75 Q740.951 1558.81 742.924 1561.36 Q744.898 1563.87 748.844 1563.87 Q753.587 1563.87 756.324 1560.85 Q759.093 1557.83 759.093 1552.61 L759.093 1532.4 L764.95 1532.4 L764.95 1568.04 L759.093 1568.04 L759.093 1562.57 Q756.961 1565.82 754.128 1567.41 Q751.327 1568.97 747.603 1568.97 Q741.46 1568.97 738.277 1565.15 Q735.094 1561.33 735.094 1553.98 M749.831 1531.54 L749.831 1531.54 Z" fill="#000000" fill-rule="nonzero" fill-opacity="1" /><path clip-path="url(#clip650)" d="M806.645 1546.53 L806.645 1568.04 L800.789 1568.04 L800.789 1546.72 Q800.789 1541.66 798.815 1539.14 Q796.842 1536.63 792.895 1536.63 Q788.153 1536.63 785.415 1539.65 Q782.678 1542.68 782.678 1547.9 L782.678 1568.04 L776.79 1568.04 L776.79 1532.4 L782.678 1532.4 L782.678 1537.93 Q784.779 1534.72 787.612 1533.13 Q790.476 1531.54 794.2 1531.54 Q800.343 1531.54 803.494 1535.36 Q806.645 1539.14 806.645 1546.53 Z" fill="#000000" fill-rule="nonzero" fill-opacity="1" /><path clip-path="url(#clip650)" d="M853.115 1518.58 Q848.85 1525.9 846.781 1533.06 Q844.712 1540.23 844.712 1547.58 Q844.712 1554.93 846.781 1562.16 Q848.881 1569.35 853.115 1576.64 L848.022 1576.64 Q843.248 1569.16 840.861 1561.93 Q838.505 1554.71 838.505 1547.58 Q838.505 1540.48 840.861 1533.29 Q843.216 1526.09 848.022 1518.58 L853.115 1518.58 Z" fill="#000000" fill-rule="nonzero" fill-opacity="1" /><path clip-path="url(#clip650)" d="M887.203 1533.45 L887.203 1538.98 Q884.72 1537.71 882.047 1537.07 Q879.373 1536.44 876.509 1536.44 Q872.148 1536.44 869.952 1537.77 Q867.788 1539.11 867.788 1541.79 Q867.788 1543.82 869.347 1545 Q870.907 1546.15 875.617 1547.2 L877.623 1547.64 Q883.861 1548.98 886.471 1551.43 Q889.113 1553.85 889.113 1558.21 Q889.113 1563.17 885.166 1566.07 Q881.251 1568.97 874.376 1568.97 Q871.512 1568.97 868.392 1568.39 Q865.305 1567.85 861.867 1566.74 L861.867 1560.69 Q865.114 1562.38 868.265 1563.24 Q871.416 1564.07 874.503 1564.07 Q878.641 1564.07 880.869 1562.66 Q883.097 1561.23 883.097 1558.65 Q883.097 1556.27 881.474 1554.99 Q879.882 1553.72 874.44 1552.54 L872.403 1552.07 Q866.96 1550.92 864.541 1548.56 Q862.122 1546.18 862.122 1542.04 Q862.122 1537.01 865.687 1534.27 Q869.252 1531.54 875.808 1531.54 Q879.055 1531.54 881.919 1532.01 Q884.784 1532.49 887.203 1533.45 Z" fill="#000000" fill-rule="nonzero" fill-opacity="1" /><path clip-path="url(#clip650)" d="M912.252 1536.5 Q907.541 1536.5 904.804 1540.19 Q902.067 1543.85 902.067 1550.25 Q902.067 1556.65 904.772 1560.34 Q907.51 1564 912.252 1564 Q916.931 1564 919.668 1560.31 Q922.405 1556.62 922.405 1550.25 Q922.405 1543.92 919.668 1540.23 Q916.931 1536.5 912.252 1536.5 M912.252 1531.54 Q919.891 1531.54 924.251 1536.5 Q928.612 1541.47 928.612 1550.25 Q928.612 1559 924.251 1564 Q919.891 1568.97 912.252 1568.97 Q904.581 1568.97 900.221 1564 Q895.892 1559 895.892 1550.25 Q895.892 1541.47 900.221 1536.5 Q904.581 1531.54 912.252 1531.54 Z" fill="#000000" fill-rule="nonzero" fill-opacity="1" /><path clip-path="url(#clip650)" d="M958.976 1537.87 Q957.99 1537.3 956.812 1537.04 Q955.666 1536.76 954.266 1536.76 Q949.3 1536.76 946.627 1540 Q943.985 1543.22 943.985 1549.27 L943.985 1568.04 L938.097 1568.04 L938.097 1532.4 L943.985 1532.4 L943.985 1537.93 Q945.831 1534.69 948.791 1533.13 Q951.751 1531.54 955.984 1531.54 Q956.589 1531.54 957.321 1531.63 Q958.053 1531.7 958.944 1531.85 L958.976 1537.87 Z" fill="#000000" fill-rule="nonzero" fill-opacity="1" /><path clip-path="url(#clip650)" d="M970.912 1522.27 L970.912 1532.4 L982.975 1532.4 L982.975 1536.95 L970.912 1536.95 L970.912 1556.3 Q970.912 1560.66 972.09 1561.9 Q973.299 1563.14 976.959 1563.14 L982.975 1563.14 L982.975 1568.04 L976.959 1568.04 Q970.18 1568.04 967.602 1565.53 Q965.024 1562.98 965.024 1556.3 L965.024 1536.95 L960.727 1536.95 L960.727 1532.4 L965.024 1532.4 L965.024 1522.27 L970.912 1522.27 Z" fill="#000000" fill-rule="nonzero" fill-opacity="1" /><path clip-path="url(#clip650)" d="M1021.17 1548.76 L1021.17 1551.62 L994.242 1551.62 Q994.624 1557.67 997.871 1560.85 Q1001.15 1564 1006.97 1564 Q1010.35 1564 1013.5 1563.17 Q1016.68 1562.35 1019.8 1560.69 L1019.8 1566.23 Q1016.65 1567.57 1013.34 1568.27 Q1010.03 1568.97 1006.62 1568.97 Q998.094 1568.97 993.097 1564 Q988.131 1559.04 988.131 1550.57 Q988.131 1541.82 992.842 1536.69 Q997.584 1531.54 1005.61 1531.54 Q1012.8 1531.54 1016.97 1536.18 Q1021.17 1540.8 1021.17 1548.76 M1015.31 1547.04 Q1015.25 1542.23 1012.61 1539.37 Q1010 1536.5 1005.67 1536.5 Q1000.77 1536.5 997.807 1539.27 Q994.879 1542.04 994.433 1547.07 L1015.31 1547.04 Z" fill="#000000" fill-rule="nonzero" fill-opacity="1" /><path clip-path="url(#clip650)" d="M1054.24 1537.81 L1054.24 1518.52 L1060.1 1518.52 L1060.1 1568.04 L1054.24 1568.04 L1054.24 1562.7 Q1052.39 1565.88 1049.56 1567.44 Q1046.76 1568.97 1042.81 1568.97 Q1036.35 1568.97 1032.28 1563.81 Q1028.24 1558.65 1028.24 1550.25 Q1028.24 1541.85 1032.28 1536.69 Q1036.35 1531.54 1042.81 1531.54 Q1046.76 1531.54 1049.56 1533.1 Q1052.39 1534.62 1054.24 1537.81 M1034.28 1550.25 Q1034.28 1556.71 1036.92 1560.4 Q1039.6 1564.07 1044.24 1564.07 Q1048.89 1564.07 1051.57 1560.4 Q1054.24 1556.71 1054.24 1550.25 Q1054.24 1543.79 1051.57 1540.13 Q1048.89 1536.44 1044.24 1536.44 Q1039.6 1536.44 1036.92 1540.13 Q1034.28 1543.79 1034.28 1550.25 Z" fill="#000000" fill-rule="nonzero" fill-opacity="1" /><path clip-path="url(#clip650)" d="M1118.47 1550.25 Q1118.47 1543.79 1115.8 1540.13 Q1113.15 1536.44 1108.51 1536.44 Q1103.86 1536.44 1101.19 1540.13 Q1098.54 1543.79 1098.54 1550.25 Q1098.54 1556.71 1101.19 1560.4 Q1103.86 1564.07 1108.51 1564.07 Q1113.15 1564.07 1115.8 1560.4 Q1118.47 1556.71 1118.47 1550.25 M1098.54 1537.81 Q1100.39 1534.62 1103.19 1533.1 Q1106.02 1531.54 1109.94 1531.54 Q1116.43 1531.54 1120.47 1536.69 Q1124.55 1541.85 1124.55 1550.25 Q1124.55 1558.65 1120.47 1563.81 Q1116.43 1568.97 1109.94 1568.97 Q1106.02 1568.97 1103.19 1567.44 Q1100.39 1565.88 1098.54 1562.7 L1098.54 1568.04 L1092.66 1568.04 L1092.66 1518.52 L1098.54 1518.52 L1098.54 1537.81 Z" fill="#000000" fill-rule="nonzero" fill-opacity="1" /><path clip-path="url(#clip650)" d="M1149.09 1571.35 Q1146.61 1577.72 1144.25 1579.66 Q1141.89 1581.6 1137.95 1581.6 L1133.27 1581.6 L1133.27 1576.7 L1136.71 1576.7 Q1139.13 1576.7 1140.46 1575.56 Q1141.8 1574.41 1143.42 1570.14 L1144.47 1567.47 L1130.05 1532.4 L1136.26 1532.4 L1147.4 1560.28 L1158.54 1532.4 L1164.75 1532.4 L1149.09 1571.35 Z" fill="#000000" fill-rule="nonzero" fill-opacity="1" /><path clip-path="url(#clip650)" d="M1219.21 1533.76 L1219.21 1539.24 Q1216.72 1537.87 1214.21 1537.2 Q1211.73 1536.5 1209.18 1536.5 Q1203.48 1536.5 1200.33 1540.13 Q1197.18 1543.73 1197.18 1550.25 Q1197.18 1556.78 1200.33 1560.4 Q1203.48 1564 1209.18 1564 Q1211.73 1564 1214.21 1563.33 Q1216.72 1562.63 1219.21 1561.26 L1219.21 1566.68 Q1216.76 1567.82 1214.11 1568.39 Q1211.5 1568.97 1208.54 1568.97 Q1200.49 1568.97 1195.75 1563.91 Q1191.01 1558.85 1191.01 1550.25 Q1191.01 1541.53 1195.78 1536.53 Q1200.59 1531.54 1208.93 1531.54 Q1211.63 1531.54 1214.21 1532.11 Q1216.79 1532.65 1219.21 1533.76 Z" fill="#000000" fill-rule="nonzero" fill-opacity="1" /><path clip-path="url(#clip650)" d="M1243.21 1536.5 Q1238.49 1536.5 1235.76 1540.19 Q1233.02 1543.85 1233.02 1550.25 Q1233.02 1556.65 1235.73 1560.34 Q1238.46 1564 1243.21 1564 Q1247.88 1564 1250.62 1560.31 Q1253.36 1556.62 1253.36 1550.25 Q1253.36 1543.92 1250.62 1540.23 Q1247.88 1536.5 1243.21 1536.5 M1243.21 1531.54 Q1250.84 1531.54 1255.2 1536.5 Q1259.56 1541.47 1259.56 1550.25 Q1259.56 1559 1255.2 1564 Q1250.84 1568.97 1243.21 1568.97 Q1235.53 1568.97 1231.17 1564 Q1226.85 1559 1226.85 1550.25 Q1226.85 1541.47 1231.17 1536.5 Q1235.53 1531.54 1243.21 1531.54 Z" fill="#000000" fill-rule="nonzero" fill-opacity="1" /><path clip-path="url(#clip650)" d="M1292 1533.45 L1292 1538.98 Q1289.52 1537.71 1286.84 1537.07 Q1284.17 1536.44 1281.3 1536.44 Q1276.94 1536.44 1274.75 1537.77 Q1272.58 1539.11 1272.58 1541.79 Q1272.58 1543.82 1274.14 1545 Q1275.7 1546.15 1280.41 1547.2 L1282.42 1547.64 Q1288.66 1548.98 1291.27 1551.43 Q1293.91 1553.85 1293.91 1558.21 Q1293.91 1563.17 1289.96 1566.07 Q1286.05 1568.97 1279.17 1568.97 Q1276.31 1568.97 1273.19 1568.39 Q1270.1 1567.85 1266.66 1566.74 L1266.66 1560.69 Q1269.91 1562.38 1273.06 1563.24 Q1276.21 1564.07 1279.3 1564.07 Q1283.44 1564.07 1285.66 1562.66 Q1287.89 1561.23 1287.89 1558.65 Q1287.89 1556.27 1286.27 1554.99 Q1284.68 1553.72 1279.24 1552.54 L1277.2 1552.07 Q1271.76 1550.92 1269.34 1548.56 Q1266.92 1546.18 1266.92 1542.04 Q1266.92 1537.01 1270.48 1534.27 Q1274.05 1531.54 1280.6 1531.54 Q1283.85 1531.54 1286.71 1532.01 Q1289.58 1532.49 1292 1533.45 Z" fill="#000000" fill-rule="nonzero" fill-opacity="1" /><path clip-path="url(#clip650)" d="M1309.03 1522.27 L1309.03 1532.4 L1321.09 1532.4 L1321.09 1536.95 L1309.03 1536.95 L1309.03 1556.3 Q1309.03 1560.66 1310.2 1561.9 Q1311.41 1563.14 1315.07 1563.14 L1321.09 1563.14 L1321.09 1568.04 L1315.07 1568.04 Q1308.29 1568.04 1305.72 1565.53 Q1303.14 1562.98 1303.14 1556.3 L1303.14 1536.95 L1298.84 1536.95 L1298.84 1532.4 L1303.14 1532.4 L1303.14 1522.27 L1309.03 1522.27 Z" fill="#000000" fill-rule="nonzero" fill-opacity="1" /><path clip-path="url(#clip650)" d="M1367.56 1518.52 L1367.56 1523.39 L1361.96 1523.39 Q1358.81 1523.39 1357.57 1524.66 Q1356.36 1525.93 1356.36 1529.24 L1356.36 1532.4 L1366 1532.4 L1366 1536.95 L1356.36 1536.95 L1356.36 1568.04 L1350.47 1568.04 L1350.47 1536.95 L1344.87 1536.95 L1344.87 1532.4 L1350.47 1532.4 L1350.47 1529.91 Q1350.47 1523.96 1353.24 1521.26 Q1356.01 1518.52 1362.02 1518.52 L1367.56 1518.52 Z" fill="#000000" fill-rule="nonzero" fill-opacity="1" /><path clip-path="url(#clip650)" d="M1371.86 1553.98 L1371.86 1532.4 L1377.71 1532.4 L1377.71 1553.75 Q1377.71 1558.81 1379.69 1561.36 Q1381.66 1563.87 1385.61 1563.87 Q1390.35 1563.87 1393.09 1560.85 Q1395.85 1557.83 1395.85 1552.61 L1395.85 1532.4 L1401.71 1532.4 L1401.71 1568.04 L1395.85 1568.04 L1395.85 1562.57 Q1393.72 1565.82 1390.89 1567.41 Q1388.09 1568.97 1384.36 1568.97 Q1378.22 1568.97 1375.04 1565.15 Q1371.86 1561.33 1371.86 1553.98 M1386.59 1531.54 L1386.59 1531.54 Z" fill="#000000" fill-rule="nonzero" fill-opacity="1" /><path clip-path="url(#clip650)" d="M1443.41 1546.53 L1443.41 1568.04 L1437.55 1568.04 L1437.55 1546.72 Q1437.55 1541.66 1435.58 1539.14 Q1433.6 1536.63 1429.66 1536.63 Q1424.91 1536.63 1422.18 1539.65 Q1419.44 1542.68 1419.44 1547.9 L1419.44 1568.04 L1413.55 1568.04 L1413.55 1532.4 L1419.44 1532.4 L1419.44 1537.93 Q1421.54 1534.72 1424.37 1533.13 Q1427.24 1531.54 1430.96 1531.54 Q1437.1 1531.54 1440.26 1535.36 Q1443.41 1539.14 1443.41 1546.53 Z" fill="#000000" fill-rule="nonzero" fill-opacity="1" /><path clip-path="url(#clip650)" d="M1480.74 1533.76 L1480.74 1539.24 Q1478.26 1537.87 1475.74 1537.2 Q1473.26 1536.5 1470.72 1536.5 Q1465.02 1536.5 1461.87 1540.13 Q1458.72 1543.73 1458.72 1550.25 Q1458.72 1556.78 1461.87 1560.4 Q1465.02 1564 1470.72 1564 Q1473.26 1564 1475.74 1563.33 Q1478.26 1562.63 1480.74 1561.26 L1480.74 1566.68 Q1478.29 1567.82 1475.65 1568.39 Q1473.04 1568.97 1470.08 1568.97 Q1462.03 1568.97 1457.28 1563.91 Q1452.54 1558.85 1452.54 1550.25 Q1452.54 1541.53 1457.32 1536.53 Q1462.12 1531.54 1470.46 1531.54 Q1473.17 1531.54 1475.74 1532.11 Q1478.32 1532.65 1480.74 1533.76 Z" fill="#000000" fill-rule="nonzero" fill-opacity="1" /><path clip-path="url(#clip650)" d="M1496.72 1522.27 L1496.72 1532.4 L1508.78 1532.4 L1508.78 1536.95 L1496.72 1536.95 L1496.72 1556.3 Q1496.72 1560.66 1497.9 1561.9 Q1499.11 1563.14 1502.77 1563.14 L1508.78 1563.14 L1508.78 1568.04 L1502.77 1568.04 Q1495.99 1568.04 1493.41 1565.53 Q1490.83 1562.98 1490.83 1556.3 L1490.83 1536.95 L1486.53 1536.95 L1486.53 1532.4 L1490.83 1532.4 L1490.83 1522.27 L1496.72 1522.27 Z" fill="#000000" fill-rule="nonzero" fill-opacity="1" /><path clip-path="url(#clip650)" d="M1516.48 1532.4 L1522.34 1532.4 L1522.34 1568.04 L1516.48 1568.04 L1516.48 1532.4 M1516.48 1518.52 L1522.34 1518.52 L1522.34 1525.93 L1516.48 1525.93 L1516.48 1518.52 Z" fill="#000000" fill-rule="nonzero" fill-opacity="1" /><path clip-path="url(#clip650)" d="M1548.41 1536.5 Q1543.7 1536.5 1540.96 1540.19 Q1538.22 1543.85 1538.22 1550.25 Q1538.22 1556.65 1540.93 1560.34 Q1543.67 1564 1548.41 1564 Q1553.09 1564 1555.82 1560.31 Q1558.56 1556.62 1558.56 1550.25 Q1558.56 1543.92 1555.82 1540.23 Q1553.09 1536.5 1548.41 1536.5 M1548.41 1531.54 Q1556.05 1531.54 1560.41 1536.5 Q1564.77 1541.47 1564.77 1550.25 Q1564.77 1559 1560.41 1564 Q1556.05 1568.97 1548.41 1568.97 Q1540.74 1568.97 1536.38 1564 Q1532.05 1559 1532.05 1550.25 Q1532.05 1541.47 1536.38 1536.5 Q1540.74 1531.54 1548.41 1531.54 Z" fill="#000000" fill-rule="nonzero" fill-opacity="1" /><path clip-path="url(#clip650)" d="M1604.11 1546.53 L1604.11 1568.04 L1598.25 1568.04 L1598.25 1546.72 Q1598.25 1541.66 1596.28 1539.14 Q1594.31 1536.63 1590.36 1536.63 Q1585.62 1536.63 1582.88 1539.65 Q1580.14 1542.68 1580.14 1547.9 L1580.14 1568.04 L1574.25 1568.04 L1574.25 1532.4 L1580.14 1532.4 L1580.14 1537.93 Q1582.24 1534.72 1585.08 1533.13 Q1587.94 1531.54 1591.66 1531.54 Q1597.81 1531.54 1600.96 1535.36 Q1604.11 1539.14 1604.11 1546.53 Z" fill="#000000" fill-rule="nonzero" fill-opacity="1" /><path clip-path="url(#clip650)" d="M1657.17 1537.87 Q1656.18 1537.3 1655 1537.04 Q1653.86 1536.76 1652.46 1536.76 Q1647.49 1536.76 1644.82 1540 Q1642.18 1543.22 1642.18 1549.27 L1642.18 1568.04 L1636.29 1568.04 L1636.29 1532.4 L1642.18 1532.4 L1642.18 1537.93 Q1644.02 1534.69 1646.98 1533.13 Q1649.94 1531.54 1654.18 1531.54 Q1654.78 1531.54 1655.51 1531.63 Q1656.24 1531.7 1657.14 1531.85 L1657.17 1537.87 Z" fill="#000000" fill-rule="nonzero" fill-opacity="1" /><path clip-path="url(#clip650)" d="M1692.37 1548.76 L1692.37 1551.62 L1665.44 1551.62 Q1665.82 1557.67 1669.07 1560.85 Q1672.35 1564 1678.17 1564 Q1681.55 1564 1684.7 1563.17 Q1687.88 1562.35 1691 1560.69 L1691 1566.23 Q1687.85 1567.57 1684.54 1568.27 Q1681.23 1568.97 1677.82 1568.97 Q1669.29 1568.97 1664.3 1564 Q1659.33 1559.04 1659.33 1550.57 Q1659.33 1541.82 1664.04 1536.69 Q1668.78 1531.54 1676.81 1531.54 Q1684 1531.54 1688.17 1536.18 Q1692.37 1540.8 1692.37 1548.76 M1686.51 1547.04 Q1686.45 1542.23 1683.81 1539.37 Q1681.2 1536.5 1676.87 1536.5 Q1671.97 1536.5 1669.01 1539.27 Q1666.08 1542.04 1665.63 1547.07 L1686.51 1547.04 Z" fill="#000000" fill-rule="nonzero" fill-opacity="1" /><path clip-path="url(#clip650)" d="M1724.71 1533.45 L1724.71 1538.98 Q1722.22 1537.71 1719.55 1537.07 Q1716.88 1536.44 1714.01 1536.44 Q1709.65 1536.44 1707.46 1537.77 Q1705.29 1539.11 1705.29 1541.79 Q1705.29 1543.82 1706.85 1545 Q1708.41 1546.15 1713.12 1547.2 L1715.13 1547.64 Q1721.37 1548.98 1723.98 1551.43 Q1726.62 1553.85 1726.62 1558.21 Q1726.62 1563.17 1722.67 1566.07 Q1718.76 1568.97 1711.88 1568.97 Q1709.02 1568.97 1705.9 1568.39 Q1702.81 1567.85 1699.37 1566.74 L1699.37 1560.69 Q1702.62 1562.38 1705.77 1563.24 Q1708.92 1564.07 1712.01 1564.07 Q1716.15 1564.07 1718.37 1562.66 Q1720.6 1561.23 1720.6 1558.65 Q1720.6 1556.27 1718.98 1554.99 Q1717.39 1553.72 1711.94 1552.54 L1709.91 1552.07 Q1704.46 1550.92 1702.05 1548.56 Q1699.63 1546.18 1699.63 1542.04 Q1699.63 1537.01 1703.19 1534.27 Q1706.76 1531.54 1713.31 1531.54 Q1716.56 1531.54 1719.42 1532.01 Q1722.29 1532.49 1724.71 1533.45 Z" fill="#000000" fill-rule="nonzero" fill-opacity="1" /><path clip-path="url(#clip650)" d="M1735.34 1553.98 L1735.34 1532.4 L1741.19 1532.4 L1741.19 1553.75 Q1741.19 1558.81 1743.17 1561.36 Q1745.14 1563.87 1749.09 1563.87 Q1753.83 1563.87 1756.57 1560.85 Q1759.34 1557.83 1759.34 1552.61 L1759.34 1532.4 L1765.19 1532.4 L1765.19 1568.04 L1759.34 1568.04 L1759.34 1562.57 Q1757.2 1565.82 1754.37 1567.41 Q1751.57 1568.97 1747.85 1568.97 Q1741.7 1568.97 1738.52 1565.15 Q1735.34 1561.33 1735.34 1553.98 M1750.07 1531.54 L1750.07 1531.54 Z" fill="#000000" fill-rule="nonzero" fill-opacity="1" /><path clip-path="url(#clip650)" d="M1777.26 1518.52 L1783.11 1518.52 L1783.11 1568.04 L1777.26 1568.04 L1777.26 1518.52 Z" fill="#000000" fill-rule="nonzero" fill-opacity="1" /><path clip-path="url(#clip650)" d="M1801.16 1522.27 L1801.16 1532.4 L1813.22 1532.4 L1813.22 1536.95 L1801.16 1536.95 L1801.16 1556.3 Q1801.16 1560.66 1802.34 1561.9 Q1803.55 1563.14 1807.21 1563.14 L1813.22 1563.14 L1813.22 1568.04 L1807.21 1568.04 Q1800.43 1568.04 1797.85 1565.53 Q1795.27 1562.98 1795.27 1556.3 L1795.27 1536.95 L1790.97 1536.95 L1790.97 1532.4 L1795.27 1532.4 L1795.27 1522.27 L1801.16 1522.27 Z" fill="#000000" fill-rule="nonzero" fill-opacity="1" /><path clip-path="url(#clip650)" d="M1820 1518.58 L1825.09 1518.58 Q1829.87 1526.09 1832.22 1533.29 Q1834.61 1540.48 1834.61 1547.58 Q1834.61 1554.71 1832.22 1561.93 Q1829.87 1569.16 1825.09 1576.64 L1820 1576.64 Q1824.23 1569.35 1826.3 1562.16 Q1828.4 1554.93 1828.4 1547.58 Q1828.4 1540.23 1826.3 1533.06 Q1824.23 1525.9 1820 1518.58 Z" fill="#000000" fill-rule="nonzero" fill-opacity="1" /><polyline clip-path="url(#clip650)" style="stroke:#000000; stroke-linecap:round; stroke-linejoin:round; stroke-width:4; stroke-opacity:1; fill:none" points="175.445,1423.18 175.445,123.472 "/>
<polyline clip-path="url(#clip650)" style="stroke:#000000; stroke-linecap:round; stroke-linejoin:round; stroke-width:4; stroke-opacity:1; fill:none" points="175.445,1260.29 194.343,1260.29 "/>
<polyline clip-path="url(#clip650)" style="stroke:#000000; stroke-linecap:round; stroke-linejoin:round; stroke-width:4; stroke-opacity:1; fill:none" points="175.445,993.392 194.343,993.392 "/>
<polyline clip-path="url(#clip650)" style="stroke:#000000; stroke-linecap:round; stroke-linejoin:round; stroke-width:4; stroke-opacity:1; fill:none" points="175.445,726.493 194.343,726.493 "/>
<polyline clip-path="url(#clip650)" style="stroke:#000000; stroke-linecap:round; stroke-linejoin:round; stroke-width:4; stroke-opacity:1; fill:none" points="175.445,459.594 194.343,459.594 "/>
<polyline clip-path="url(#clip650)" style="stroke:#000000; stroke-linecap:round; stroke-linejoin:round; stroke-width:4; stroke-opacity:1; fill:none" points="175.445,192.695 194.343,192.695 "/>
<path clip-path="url(#clip650)" d="M119.538 1273.64 L127.177 1273.64 L127.177 1247.27 L118.867 1248.94 L118.867 1244.68 L127.13 1243.01 L131.806 1243.01 L131.806 1273.64 L139.445 1273.64 L139.445 1277.57 L119.538 1277.57 L119.538 1273.64 Z" fill="#000000" fill-rule="nonzero" fill-opacity="1" /><path clip-path="url(#clip650)" d="M123.126 1006.74 L139.445 1006.74 L139.445 1010.67 L117.501 1010.67 L117.501 1006.74 Q120.163 1003.98 124.746 999.353 Q129.353 994.7 130.533 993.358 Q132.779 990.835 133.658 989.099 Q134.561 987.339 134.561 985.649 Q134.561 982.895 132.617 981.159 Q130.695 979.423 127.593 979.423 Q125.394 979.423 122.941 980.187 Q120.51 980.95 117.732 982.501 L117.732 977.779 Q120.556 976.645 123.01 976.066 Q125.464 975.487 127.501 975.487 Q132.871 975.487 136.066 978.173 Q139.26 980.858 139.26 985.349 Q139.26 987.478 138.45 989.399 Q137.663 991.298 135.556 993.89 Q134.978 994.561 131.876 997.779 Q128.774 1000.97 123.126 1006.74 Z" fill="#000000" fill-rule="nonzero" fill-opacity="1" /><path clip-path="url(#clip650)" d="M132.316 725.139 Q135.672 725.857 137.547 728.125 Q139.445 730.394 139.445 733.727 Q139.445 738.843 135.927 741.644 Q132.408 744.445 125.927 744.445 Q123.751 744.445 121.436 744.005 Q119.144 743.588 116.691 742.732 L116.691 738.218 Q118.635 739.352 120.95 739.931 Q123.265 740.51 125.788 740.51 Q130.186 740.51 132.478 738.773 Q134.792 737.037 134.792 733.727 Q134.792 730.672 132.64 728.959 Q130.51 727.223 126.691 727.223 L122.663 727.223 L122.663 723.38 L126.876 723.38 Q130.325 723.38 132.154 722.014 Q133.982 720.625 133.982 718.033 Q133.982 715.371 132.084 713.959 Q130.209 712.524 126.691 712.524 Q124.769 712.524 122.57 712.94 Q120.371 713.357 117.732 714.237 L117.732 710.07 Q120.394 709.329 122.709 708.959 Q125.047 708.588 127.107 708.588 Q132.431 708.588 135.533 711.019 Q138.635 713.426 138.635 717.547 Q138.635 720.417 136.992 722.408 Q135.348 724.375 132.316 725.139 Z" fill="#000000" fill-rule="nonzero" fill-opacity="1" /><path clip-path="url(#clip650)" d="M129.862 446.388 L118.056 464.837 L129.862 464.837 L129.862 446.388 M128.635 442.314 L134.515 442.314 L134.515 464.837 L139.445 464.837 L139.445 468.726 L134.515 468.726 L134.515 476.874 L129.862 476.874 L129.862 468.726 L114.26 468.726 L114.26 464.212 L128.635 442.314 Z" fill="#000000" fill-rule="nonzero" fill-opacity="1" /><path clip-path="url(#clip650)" d="M118.543 175.415 L136.899 175.415 L136.899 179.35 L122.825 179.35 L122.825 187.823 Q123.843 187.475 124.862 187.313 Q125.88 187.128 126.899 187.128 Q132.686 187.128 136.066 190.299 Q139.445 193.471 139.445 198.887 Q139.445 204.466 135.973 207.568 Q132.501 210.647 126.181 210.647 Q124.005 210.647 121.737 210.276 Q119.492 209.906 117.084 209.165 L117.084 204.466 Q119.168 205.6 121.39 206.156 Q123.612 206.711 126.089 206.711 Q130.093 206.711 132.431 204.605 Q134.769 202.498 134.769 198.887 Q134.769 195.276 132.431 193.17 Q130.093 191.063 126.089 191.063 Q124.214 191.063 122.339 191.48 Q120.487 191.897 118.543 192.776 L118.543 175.415 Z" fill="#000000" fill-rule="nonzero" fill-opacity="1" /><path clip-path="url(#clip650)" d="M41.3104 1133.75 L58.7206 1133.75 L58.7206 1123.44 Q58.7206 1118.25 56.5881 1115.77 Q54.4238 1113.25 49.9996 1113.25 Q45.5436 1113.25 43.4429 1115.77 Q41.3104 1118.25 41.3104 1123.44 L41.3104 1133.75 M21.7677 1133.75 L36.0905 1133.75 L36.0905 1124.24 Q36.0905 1119.52 34.34 1117.23 Q32.5576 1114.91 28.9291 1114.91 Q25.3325 1114.91 23.5501 1117.23 Q21.7677 1119.52 21.7677 1124.24 L21.7677 1133.75 M16.4842 1140.18 L16.4842 1123.76 Q16.4842 1116.41 19.5397 1112.43 Q22.5952 1108.45 28.2289 1108.45 Q32.5894 1108.45 35.1675 1110.49 Q37.7456 1112.52 38.3822 1116.47 Q39.4007 1111.73 42.6472 1109.12 Q45.8619 1106.48 50.6998 1106.48 Q57.0655 1106.48 60.5348 1110.8 Q64.0042 1115.13 64.0042 1123.12 L64.0042 1140.18 L16.4842 1140.18 Z" fill="#000000" fill-rule="nonzero" fill-opacity="1" /><path clip-path="url(#clip650)" d="M28.3562 1095.72 L28.3562 1089.86 L64.0042 1089.86 L64.0042 1095.72 L28.3562 1095.72 M14.479 1095.72 L14.479 1089.86 L21.895 1089.86 L21.895 1095.72 L14.479 1095.72 Z" fill="#000000" fill-rule="nonzero" fill-opacity="1" /><path clip-path="url(#clip650)" d="M16.4842 1077.35 L16.4842 1070.92 L58.5933 1070.92 L58.5933 1047.78 L64.0042 1047.78 L64.0042 1077.35 L16.4842 1077.35 Z" fill="#000000" fill-rule="nonzero" fill-opacity="1" /><path clip-path="url(#clip650)" d="M32.4621 1028.62 Q32.4621 1033.33 36.1542 1036.07 Q39.8145 1038.81 46.212 1038.81 Q52.6095 1038.81 56.3017 1036.1 Q59.9619 1033.37 59.9619 1028.62 Q59.9619 1023.94 56.2698 1021.21 Q52.5777 1018.47 46.212 1018.47 Q39.8781 1018.47 36.186 1021.21 Q32.4621 1023.94 32.4621 1028.62 M27.4968 1028.62 Q27.4968 1020.98 32.4621 1016.62 Q37.4273 1012.26 46.212 1012.26 Q54.9649 1012.26 59.9619 1016.62 Q64.9272 1020.98 64.9272 1028.62 Q64.9272 1036.29 59.9619 1040.65 Q54.9649 1044.98 46.212 1044.98 Q37.4273 1044.98 32.4621 1040.65 Q27.4968 1036.29 27.4968 1028.62 Z" fill="#000000" fill-rule="nonzero" fill-opacity="1" /><path clip-path="url(#clip650)" d="M45.7664 979.097 Q39.4007 979.097 35.8996 981.739 Q32.3984 984.349 32.3984 989.092 Q32.3984 993.802 35.8996 996.444 Q39.4007 999.054 45.7664 999.054 Q52.1003 999.054 55.6014 996.444 Q59.1026 993.802 59.1026 989.092 Q59.1026 984.349 55.6014 981.739 Q52.1003 979.097 45.7664 979.097 M59.58 973.241 Q68.683 973.241 73.1071 977.283 Q77.5631 981.325 77.5631 989.665 Q77.5631 992.752 77.0857 995.489 Q76.6401 998.226 75.6852 1000.8 L69.9879 1000.8 Q71.3884 998.226 72.0568 995.712 Q72.7252 993.197 72.7252 990.588 Q72.7252 984.827 69.7015 981.962 Q66.7096 979.097 60.6303 979.097 L57.7339 979.097 Q60.885 980.912 62.4446 983.744 Q64.0042 986.577 64.0042 990.524 Q64.0042 997.081 59.0071 1001.09 Q54.01 1005.1 45.7664 1005.1 Q37.491 1005.1 32.4939 1001.09 Q27.4968 997.081 27.4968 990.524 Q27.4968 986.577 29.0564 983.744 Q30.616 980.912 33.7671 979.097 L28.3562 979.097 L28.3562 973.241 L59.58 973.241 Z" fill="#000000" fill-rule="nonzero" fill-opacity="1" /><path clip-path="url(#clip650)" d="M14.5426 947.11 Q21.8632 951.375 29.0246 953.444 Q36.186 955.513 43.5384 955.513 Q50.8908 955.513 58.1159 953.444 Q65.3091 951.343 72.5979 947.11 L72.5979 952.202 Q65.1182 956.977 57.8931 959.364 Q50.668 961.719 43.5384 961.719 Q36.4406 961.719 29.2474 959.364 Q22.0542 957.008 14.5426 952.202 L14.5426 947.11 Z" fill="#000000" fill-rule="nonzero" fill-opacity="1" /><path clip-path="url(#clip650)" d="M16.4842 935.492 L16.4842 908.183 L21.895 908.183 L21.895 929.063 L35.8996 929.063 L35.8996 910.221 L41.3104 910.221 L41.3104 929.063 L64.0042 929.063 L64.0042 935.492 L16.4842 935.492 Z" fill="#000000" fill-rule="nonzero" fill-opacity="1" /><path clip-path="url(#clip650)" d="M28.3562 902.995 L28.3562 897.139 L64.0042 897.139 L64.0042 902.995 L28.3562 902.995 M14.479 902.995 L14.479 897.139 L21.895 897.139 L21.895 902.995 L14.479 902.995 Z" fill="#000000" fill-rule="nonzero" fill-opacity="1" /><path clip-path="url(#clip650)" d="M42.4881 855.253 L64.0042 855.253 L64.0042 861.109 L42.679 861.109 Q37.6183 861.109 35.1038 863.082 Q32.5894 865.056 32.5894 869.003 Q32.5894 873.745 35.6131 876.482 Q38.6368 879.22 43.8567 879.22 L64.0042 879.22 L64.0042 885.108 L28.3562 885.108 L28.3562 879.22 L33.8944 879.22 Q30.6797 877.119 29.0883 874.286 Q27.4968 871.422 27.4968 867.698 Q27.4968 861.555 31.3163 858.404 Q35.1038 855.253 42.4881 855.253 Z" fill="#000000" fill-rule="nonzero" fill-opacity="1" /><path clip-path="url(#clip650)" d="M46.0847 827.371 Q46.0847 834.469 47.7079 837.206 Q49.3312 839.943 53.2461 839.943 Q56.3653 839.943 58.2114 837.906 Q60.0256 835.837 60.0256 832.304 Q60.0256 827.434 56.5881 824.506 Q53.1188 821.546 47.3897 821.546 L46.0847 821.546 L46.0847 827.371 M43.6657 815.69 L64.0042 815.69 L64.0042 821.546 L58.5933 821.546 Q61.8398 823.551 63.3994 826.543 Q64.9272 829.535 64.9272 833.864 Q64.9272 839.338 61.8716 842.585 Q58.7843 845.8 53.6281 845.8 Q47.6125 845.8 44.5569 841.789 Q41.5014 837.747 41.5014 829.758 L41.5014 821.546 L40.9285 821.546 Q36.8862 821.546 34.6901 824.22 Q32.4621 826.862 32.4621 831.668 Q32.4621 834.723 33.1941 837.62 Q33.9262 840.516 35.3903 843.19 L29.9795 843.19 Q28.7381 839.975 28.1334 836.951 Q27.4968 833.928 27.4968 831.063 Q27.4968 823.329 31.5072 819.509 Q35.5176 815.69 43.6657 815.69 Z" fill="#000000" fill-rule="nonzero" fill-opacity="1" /><path clip-path="url(#clip650)" d="M14.479 803.627 L14.479 797.77 L64.0042 797.77 L64.0042 803.627 L14.479 803.627 Z" fill="#000000" fill-rule="nonzero" fill-opacity="1" /><path clip-path="url(#clip650)" d="M20.1444 728.957 L26.9239 728.957 Q23.9002 732.204 22.4043 735.896 Q20.9083 739.556 20.9083 743.694 Q20.9083 751.842 25.9054 756.17 Q30.8707 760.499 40.2919 760.499 Q49.6813 760.499 54.6784 756.17 Q59.6436 751.842 59.6436 743.694 Q59.6436 739.556 58.1477 735.896 Q56.6518 732.204 53.6281 728.957 L60.3439 728.957 Q62.6355 732.331 63.7814 736.118 Q64.9272 739.874 64.9272 744.076 Q64.9272 754.865 58.3387 761.072 Q51.7183 767.279 40.2919 767.279 Q28.8336 767.279 22.2451 761.072 Q15.6248 754.865 15.6248 744.076 Q15.6248 739.811 16.7706 736.055 Q17.8846 732.267 20.1444 728.957 Z" fill="#000000" fill-rule="nonzero" fill-opacity="1" /><path clip-path="url(#clip650)" d="M32.4621 705.468 Q32.4621 710.178 36.1542 712.915 Q39.8145 715.653 46.212 715.653 Q52.6095 715.653 56.3017 712.947 Q59.9619 710.21 59.9619 705.468 Q59.9619 700.789 56.2698 698.052 Q52.5777 695.314 46.212 695.314 Q39.8781 695.314 36.186 698.052 Q32.4621 700.789 32.4621 705.468 M27.4968 705.468 Q27.4968 697.829 32.4621 693.468 Q37.4273 689.108 46.212 689.108 Q54.9649 689.108 59.9619 693.468 Q64.9272 697.829 64.9272 705.468 Q64.9272 713.138 59.9619 717.499 Q54.9649 721.827 46.212 721.827 Q37.4273 721.827 32.4621 717.499 Q27.4968 713.138 27.4968 705.468 Z" fill="#000000" fill-rule="nonzero" fill-opacity="1" /><path clip-path="url(#clip650)" d="M29.4065 656.674 L34.9447 656.674 Q33.6716 659.157 33.035 661.831 Q32.3984 664.504 32.3984 667.369 Q32.3984 671.729 33.7352 673.925 Q35.072 676.09 37.7456 676.09 Q39.7826 676.09 40.9603 674.53 Q42.1061 672.971 43.1565 668.26 L43.6021 666.255 Q44.9389 660.016 47.3897 657.406 Q49.8086 654.765 54.1691 654.765 Q59.1344 654.765 62.0308 658.711 Q64.9272 662.626 64.9272 669.501 Q64.9272 672.366 64.3543 675.485 Q63.8132 678.572 62.6992 682.01 L56.6518 682.01 Q58.3387 678.763 59.198 675.612 Q60.0256 672.461 60.0256 669.374 Q60.0256 665.236 58.6251 663.008 Q57.1929 660.78 54.6147 660.78 Q52.2276 660.78 50.9545 662.404 Q49.6813 663.995 48.5037 669.438 L48.0262 671.475 Q46.8804 676.917 44.5251 679.336 Q42.138 681.755 38.0002 681.755 Q32.9713 681.755 30.2341 678.19 Q27.4968 674.626 27.4968 668.069 Q27.4968 664.823 27.9743 661.958 Q28.4517 659.093 29.4065 656.674 Z" fill="#000000" fill-rule="nonzero" fill-opacity="1" /><path clip-path="url(#clip650)" d="M18.2347 639.646 L28.3562 639.646 L28.3562 627.583 L32.9077 627.583 L32.9077 639.646 L52.2594 639.646 Q56.6199 639.646 57.8613 638.468 Q59.1026 637.259 59.1026 633.599 L59.1026 627.583 L64.0042 627.583 L64.0042 633.599 Q64.0042 640.378 61.4897 642.956 Q58.9434 645.534 52.2594 645.534 L32.9077 645.534 L32.9077 649.831 L28.3562 649.831 L28.3562 645.534 L18.2347 645.534 L18.2347 639.646 Z" fill="#000000" fill-rule="nonzero" fill-opacity="1" /><path clip-path="url(#clip650)" d="M64.0042 586.652 L16.4842 604.794 L16.4842 598.078 L56.4926 583.023 L16.4842 567.936 L16.4842 561.252 L64.0042 579.363 L64.0042 586.652 Z" fill="#000000" fill-rule="nonzero" fill-opacity="1" /><path clip-path="url(#clip650)" d="M46.0847 543.428 Q46.0847 550.526 47.7079 553.264 Q49.3312 556.001 53.2461 556.001 Q56.3653 556.001 58.2114 553.964 Q60.0256 551.895 60.0256 548.362 Q60.0256 543.492 56.5881 540.564 Q53.1188 537.604 47.3897 537.604 L46.0847 537.604 L46.0847 543.428 M43.6657 531.747 L64.0042 531.747 L64.0042 537.604 L58.5933 537.604 Q61.8398 539.609 63.3994 542.601 Q64.9272 545.593 64.9272 549.922 Q64.9272 555.396 61.8716 558.643 Q58.7843 561.857 53.6281 561.857 Q47.6125 561.857 44.5569 557.847 Q41.5014 553.805 41.5014 545.816 L41.5014 537.604 L40.9285 537.604 Q36.8862 537.604 34.6901 540.277 Q32.4621 542.919 32.4621 547.725 Q32.4621 550.781 33.1941 553.677 Q33.9262 556.574 35.3903 559.247 L29.9795 559.247 Q28.7381 556.033 28.1334 553.009 Q27.4968 549.985 27.4968 547.121 Q27.4968 539.386 31.5072 535.567 Q35.5176 531.747 43.6657 531.747 Z" fill="#000000" fill-rule="nonzero" fill-opacity="1" /><path clip-path="url(#clip650)" d="M14.479 519.684 L14.479 513.828 L64.0042 513.828 L64.0042 519.684 L14.479 519.684 Z" fill="#000000" fill-rule="nonzero" fill-opacity="1" /><path clip-path="url(#clip650)" d="M49.9359 502.179 L28.3562 502.179 L28.3562 496.322 L49.7131 496.322 Q54.7739 496.322 57.3202 494.349 Q59.8346 492.376 59.8346 488.429 Q59.8346 483.686 56.8109 480.949 Q53.7872 478.18 48.5673 478.18 L28.3562 478.18 L28.3562 472.324 L64.0042 472.324 L64.0042 478.18 L58.5296 478.18 Q61.7762 480.313 63.3676 483.145 Q64.9272 485.946 64.9272 489.67 Q64.9272 495.813 61.1078 498.996 Q57.2883 502.179 49.9359 502.179 M27.4968 487.442 L27.4968 487.442 Z" fill="#000000" fill-rule="nonzero" fill-opacity="1" /><path clip-path="url(#clip650)" d="M44.7161 429.769 L47.5806 429.769 L47.5806 456.696 Q53.6281 456.314 56.8109 453.067 Q59.9619 449.789 59.9619 443.964 Q59.9619 440.59 59.1344 437.439 Q58.3069 434.257 56.6518 431.137 L62.1899 431.137 Q63.5267 434.288 64.227 437.599 Q64.9272 440.909 64.9272 444.314 Q64.9272 452.844 59.9619 457.842 Q54.9967 462.807 46.5303 462.807 Q37.7774 462.807 32.6531 458.096 Q27.4968 453.354 27.4968 445.333 Q27.4968 438.14 32.1438 433.97 Q36.7589 429.769 44.7161 429.769 M42.9973 435.625 Q38.1912 435.689 35.3266 438.331 Q32.4621 440.941 32.4621 445.269 Q32.4621 450.171 35.2312 453.131 Q38.0002 456.059 43.0292 456.505 L42.9973 435.625 Z" fill="#000000" fill-rule="nonzero" fill-opacity="1" /><path clip-path="url(#clip650)" d="M14.5426 421.08 L14.5426 415.987 Q22.0542 411.213 29.2474 408.857 Q36.4406 406.47 43.5384 406.47 Q50.668 406.47 57.8931 408.857 Q65.1182 411.213 72.5979 415.987 L72.5979 421.08 Q65.3091 416.846 58.1159 414.778 Q50.8908 412.677 43.5384 412.677 Q36.186 412.677 29.0246 414.778 Q21.8632 416.846 14.5426 421.08 Z" fill="#000000" fill-rule="nonzero" fill-opacity="1" /><path clip-path="url(#clip650)" d="M804.91 12.096 L813.174 12.096 L825.894 63.2184 L838.573 12.096 L847.769 12.096 L860.489 63.2184 L873.168 12.096 L881.472 12.096 L866.282 72.576 L855.992 72.576 L843.232 20.0763 L830.35 72.576 L820.061 72.576 L804.91 12.096 Z" fill="#000000" fill-rule="nonzero" fill-opacity="1" /><path clip-path="url(#clip650)" d="M907.317 49.7694 Q898.284 49.7694 894.8 51.8354 Q891.316 53.9013 891.316 58.8839 Q891.316 62.8538 893.909 65.2034 Q896.542 67.5124 901.038 67.5124 Q907.236 67.5124 910.963 63.1374 Q914.73 58.7219 914.73 51.4303 L914.73 49.7694 L907.317 49.7694 M922.184 46.6907 L922.184 72.576 L914.73 72.576 L914.73 65.6895 Q912.178 69.8214 908.37 71.8063 Q904.563 73.7508 899.053 73.7508 Q892.086 73.7508 887.954 69.8619 Q883.862 65.9325 883.862 59.3701 Q883.862 51.7138 888.967 47.825 Q894.111 43.9361 904.279 43.9361 L914.73 43.9361 L914.73 43.2069 Q914.73 38.0623 911.328 35.2672 Q907.965 32.4315 901.848 32.4315 Q897.96 32.4315 894.273 33.3632 Q890.587 34.295 887.184 36.1584 L887.184 29.2718 Q891.276 27.692 895.124 26.9223 Q898.972 26.1121 902.618 26.1121 Q912.462 26.1121 917.323 31.2163 Q922.184 36.3204 922.184 46.6907 Z" fill="#000000" fill-rule="nonzero" fill-opacity="1" /><path clip-path="url(#clip650)" d="M944.91 14.324 L944.91 27.2059 L960.262 27.2059 L960.262 32.9987 L944.91 32.9987 L944.91 57.6282 Q944.91 63.1779 946.408 64.7578 Q947.948 66.3376 952.606 66.3376 L960.262 66.3376 L960.262 72.576 L952.606 72.576 Q943.978 72.576 940.697 69.3758 Q937.415 66.1351 937.415 57.6282 L937.415 32.9987 L931.947 32.9987 L931.947 27.2059 L937.415 27.2059 L937.415 14.324 L944.91 14.324 Z" fill="#000000" fill-rule="nonzero" fill-opacity="1" /><path clip-path="url(#clip650)" d="M1008.87 48.0275 L1008.87 51.6733 L974.603 51.6733 Q975.089 59.3701 979.221 63.421 Q983.393 67.4314 990.806 67.4314 Q995.1 67.4314 999.111 66.3781 Q1003.16 65.3249 1007.13 63.2184 L1007.13 70.267 Q1003.12 71.9684 998.908 72.8596 Q994.695 73.7508 990.361 73.7508 Q979.504 73.7508 973.144 67.4314 Q966.825 61.1119 966.825 50.3365 Q966.825 39.1965 972.82 32.6746 Q978.856 26.1121 989.064 26.1121 Q998.219 26.1121 1003.53 32.0264 Q1008.87 37.9003 1008.87 48.0275 M1001.42 45.84 Q1001.34 39.7232 997.976 36.0774 Q994.655 32.4315 989.145 32.4315 Q982.907 32.4315 979.14 35.9558 Q975.413 39.4801 974.846 45.8805 L1001.42 45.84 Z" fill="#000000" fill-rule="nonzero" fill-opacity="1" /><path clip-path="url(#clip650)" d="M1047.4 34.1734 Q1046.14 33.4443 1044.64 33.1202 Q1043.18 32.7556 1041.4 32.7556 Q1035.08 32.7556 1031.68 36.8875 Q1028.32 40.9789 1028.32 48.6757 L1028.32 72.576 L1020.82 72.576 L1020.82 27.2059 L1028.32 27.2059 L1028.32 34.2544 Q1030.67 30.1225 1034.43 28.1376 Q1038.2 26.1121 1043.59 26.1121 Q1044.36 26.1121 1045.29 26.2337 Q1046.22 26.3147 1047.36 26.5172 L1047.4 34.1734 Z" fill="#000000" fill-rule="nonzero" fill-opacity="1" /><path clip-path="url(#clip650)" d="M1078.18 9.54393 L1078.18 15.7418 L1071.05 15.7418 Q1067.04 15.7418 1065.46 17.3622 Q1063.93 18.9825 1063.93 23.1955 L1063.93 27.2059 L1076.2 27.2059 L1076.2 32.9987 L1063.93 32.9987 L1063.93 72.576 L1056.43 72.576 L1056.43 32.9987 L1049.3 32.9987 L1049.3 27.2059 L1056.43 27.2059 L1056.43 24.0462 Q1056.43 16.471 1059.96 13.0277 Q1063.48 9.54393 1071.14 9.54393 L1078.18 9.54393 Z" fill="#000000" fill-rule="nonzero" fill-opacity="1" /><path clip-path="url(#clip650)" d="M1105.04 49.7694 Q1096.01 49.7694 1092.52 51.8354 Q1089.04 53.9013 1089.04 58.8839 Q1089.04 62.8538 1091.63 65.2034 Q1094.27 67.5124 1098.76 67.5124 Q1104.96 67.5124 1108.69 63.1374 Q1112.45 58.7219 1112.45 51.4303 L1112.45 49.7694 L1105.04 49.7694 M1119.91 46.6907 L1119.91 72.576 L1112.45 72.576 L1112.45 65.6895 Q1109.9 69.8214 1106.1 71.8063 Q1102.29 73.7508 1096.78 73.7508 Q1089.81 73.7508 1085.68 69.8619 Q1081.59 65.9325 1081.59 59.3701 Q1081.59 51.7138 1086.69 47.825 Q1091.84 43.9361 1102 43.9361 L1112.45 43.9361 L1112.45 43.2069 Q1112.45 38.0623 1109.05 35.2672 Q1105.69 32.4315 1099.57 32.4315 Q1095.68 32.4315 1092 33.3632 Q1088.31 34.295 1084.91 36.1584 L1084.91 29.2718 Q1089 27.692 1092.85 26.9223 Q1096.7 26.1121 1100.34 26.1121 Q1110.19 26.1121 1115.05 31.2163 Q1119.91 36.3204 1119.91 46.6907 Z" fill="#000000" fill-rule="nonzero" fill-opacity="1" /><path clip-path="url(#clip650)" d="M1135.26 9.54393 L1142.72 9.54393 L1142.72 72.576 L1135.26 72.576 L1135.26 9.54393 Z" fill="#000000" fill-rule="nonzero" fill-opacity="1" /><path clip-path="url(#clip650)" d="M1158.31 9.54393 L1165.76 9.54393 L1165.76 72.576 L1158.31 72.576 L1158.31 9.54393 Z" fill="#000000" fill-rule="nonzero" fill-opacity="1" /><path clip-path="url(#clip650)" d="M1214.94 65.7705 L1214.94 89.8329 L1207.45 89.8329 L1207.45 27.2059 L1214.94 27.2059 L1214.94 34.0924 Q1217.29 30.0415 1220.86 28.0971 Q1224.46 26.1121 1229.45 26.1121 Q1237.71 26.1121 1242.85 32.6746 Q1248.04 39.2371 1248.04 49.9314 Q1248.04 60.6258 1242.85 67.1883 Q1237.71 73.7508 1229.45 73.7508 Q1224.46 73.7508 1220.86 71.8063 Q1217.29 69.8214 1214.94 65.7705 M1240.3 49.9314 Q1240.3 41.7081 1236.9 37.0496 Q1233.54 32.3505 1227.62 32.3505 Q1221.71 32.3505 1218.31 37.0496 Q1214.94 41.7081 1214.94 49.9314 Q1214.94 58.1548 1218.31 62.8538 Q1221.71 67.5124 1227.62 67.5124 Q1233.54 67.5124 1236.9 62.8538 Q1240.3 58.1548 1240.3 49.9314 Z" fill="#000000" fill-rule="nonzero" fill-opacity="1" /><path clip-path="url(#clip650)" d="M1260.39 9.54393 L1267.85 9.54393 L1267.85 72.576 L1260.39 72.576 L1260.39 9.54393 Z" fill="#000000" fill-rule="nonzero" fill-opacity="1" /><path clip-path="url(#clip650)" d="M1301.02 32.4315 Q1295.03 32.4315 1291.55 37.1306 Q1288.06 41.7891 1288.06 49.9314 Q1288.06 58.0738 1291.5 62.7728 Q1294.99 67.4314 1301.02 67.4314 Q1306.98 67.4314 1310.46 62.7323 Q1313.95 58.0333 1313.95 49.9314 Q1313.95 41.8701 1310.46 37.1711 Q1306.98 32.4315 1301.02 32.4315 M1301.02 26.1121 Q1310.75 26.1121 1316.3 32.4315 Q1321.85 38.7509 1321.85 49.9314 Q1321.85 61.0714 1316.3 67.4314 Q1310.75 73.7508 1301.02 73.7508 Q1291.26 73.7508 1285.71 67.4314 Q1280.2 61.0714 1280.2 49.9314 Q1280.2 38.7509 1285.71 32.4315 Q1291.26 26.1121 1301.02 26.1121 Z" fill="#000000" fill-rule="nonzero" fill-opacity="1" /><path clip-path="url(#clip650)" d="M1341.57 14.324 L1341.57 27.2059 L1356.93 27.2059 L1356.93 32.9987 L1341.57 32.9987 L1341.57 57.6282 Q1341.57 63.1779 1343.07 64.7578 Q1344.61 66.3376 1349.27 66.3376 L1356.93 66.3376 L1356.93 72.576 L1349.27 72.576 Q1340.64 72.576 1337.36 69.3758 Q1334.08 66.1351 1334.08 57.6282 L1334.08 32.9987 L1328.61 32.9987 L1328.61 27.2059 L1334.08 27.2059 L1334.08 14.324 L1341.57 14.324 Z" fill="#000000" fill-rule="nonzero" fill-opacity="1" /><path clip-path="url(#clip650)" d="M1395.57 65.6895 L1408.94 65.6895 L1408.94 19.5497 L1394.4 22.4663 L1394.4 15.0127 L1408.86 12.096 L1417.04 12.096 L1417.04 65.6895 L1430.41 65.6895 L1430.41 72.576 L1395.57 72.576 L1395.57 65.6895 Z" fill="#000000" fill-rule="nonzero" fill-opacity="1" /><path clip-path="url(#clip650)" d="M1447.02 12.096 L1479.14 12.096 L1479.14 18.9825 L1454.51 18.9825 L1454.51 33.8088 Q1456.3 33.2012 1458.08 32.9176 Q1459.86 32.5936 1461.64 32.5936 Q1471.77 32.5936 1477.68 38.1433 Q1483.6 43.6931 1483.6 53.1722 Q1483.6 62.9348 1477.52 68.3631 Q1471.45 73.7508 1460.39 73.7508 Q1456.58 73.7508 1452.61 73.1026 Q1448.68 72.4545 1444.47 71.1582 L1444.47 62.9348 Q1448.11 64.9198 1452 65.892 Q1455.89 66.8642 1460.23 66.8642 Q1467.23 66.8642 1471.32 63.1779 Q1475.42 59.4916 1475.42 53.1722 Q1475.42 46.8528 1471.32 43.1664 Q1467.23 39.4801 1460.23 39.4801 Q1456.94 39.4801 1453.66 40.2093 Q1450.42 40.9384 1447.02 42.4778 L1447.02 12.096 Z" fill="#000000" fill-rule="nonzero" fill-opacity="1" /><path clip-path="url(#clip650)" d="M1517.22 17.4837 Q1510.9 17.4837 1507.7 23.7221 Q1504.54 29.92 1504.54 42.3968 Q1504.54 54.833 1507.7 61.0714 Q1510.9 67.2693 1517.22 67.2693 Q1523.58 67.2693 1526.74 61.0714 Q1529.94 54.833 1529.94 42.3968 Q1529.94 29.92 1526.74 23.7221 Q1523.58 17.4837 1517.22 17.4837 M1517.22 11.0023 Q1527.39 11.0023 1532.74 19.0636 Q1538.12 27.0843 1538.12 42.3968 Q1538.12 57.6687 1532.74 65.73 Q1527.39 73.7508 1517.22 73.7508 Q1507.05 73.7508 1501.67 65.73 Q1496.32 57.6687 1496.32 42.3968 Q1496.32 27.0843 1501.67 19.0636 Q1507.05 11.0023 1517.22 11.0023 Z" fill="#000000" fill-rule="nonzero" fill-opacity="1" /><path clip-path="url(#clip650)" d="M1564.7 12.096 L1571.58 12.096 L1550.52 80.2727 L1543.63 80.2727 L1564.7 12.096 Z" fill="#000000" fill-rule="nonzero" fill-opacity="1" /><path clip-path="url(#clip650)" d="M1587.5 65.6895 L1616.06 65.6895 L1616.06 72.576 L1577.66 72.576 L1577.66 65.6895 Q1582.32 60.8689 1590.34 52.7671 Q1598.4 44.6248 1600.47 42.2752 Q1604.4 37.8598 1605.94 34.8216 Q1607.52 31.7429 1607.52 28.7857 Q1607.52 23.9651 1604.11 20.927 Q1600.75 17.8888 1595.32 17.8888 Q1591.47 17.8888 1587.18 19.2256 Q1582.93 20.5624 1578.07 23.2765 L1578.07 15.0127 Q1583.01 13.0277 1587.3 12.015 Q1591.6 11.0023 1595.16 11.0023 Q1604.56 11.0023 1610.15 15.7013 Q1615.74 20.4004 1615.74 28.2591 Q1615.74 31.9859 1614.32 35.3482 Q1612.94 38.6699 1609.26 43.2069 Q1608.25 44.3817 1602.82 50.0125 Q1597.39 55.6027 1587.5 65.6895 Z" fill="#000000" fill-rule="nonzero" fill-opacity="1" /><path clip-path="url(#clip650)" d="M1633.32 12.096 L1665.44 12.096 L1665.44 18.9825 L1640.81 18.9825 L1640.81 33.8088 Q1642.6 33.2012 1644.38 32.9176 Q1646.16 32.5936 1647.94 32.5936 Q1658.07 32.5936 1663.99 38.1433 Q1669.9 43.6931 1669.9 53.1722 Q1669.9 62.9348 1663.82 68.3631 Q1657.75 73.7508 1646.69 73.7508 Q1642.88 73.7508 1638.91 73.1026 Q1634.98 72.4545 1630.77 71.1582 L1630.77 62.9348 Q1634.41 64.9198 1638.3 65.892 Q1642.19 66.8642 1646.53 66.8642 Q1653.53 66.8642 1657.63 63.1779 Q1661.72 59.4916 1661.72 53.1722 Q1661.72 46.8528 1657.63 43.1664 Q1653.53 39.4801 1646.53 39.4801 Q1643.24 39.4801 1639.96 40.2093 Q1636.72 40.9384 1633.32 42.4778 L1633.32 12.096 Z" fill="#000000" fill-rule="nonzero" fill-opacity="1" /><path clip-path="url(#clip650)" d="M1710.81 39.9662 Q1716.69 41.222 1719.97 45.1919 Q1723.29 49.1618 1723.29 54.9951 Q1723.29 63.9476 1717.13 68.8492 Q1710.98 73.7508 1699.63 73.7508 Q1695.83 73.7508 1691.77 72.9811 Q1687.76 72.2519 1683.47 70.7531 L1683.47 62.8538 Q1686.87 64.8388 1690.92 65.8515 Q1694.97 66.8642 1699.39 66.8642 Q1707.09 66.8642 1711.1 63.826 Q1715.15 60.7879 1715.15 54.9951 Q1715.15 49.6479 1711.38 46.6502 Q1707.65 43.612 1700.97 43.612 L1693.92 43.612 L1693.92 36.8875 L1701.29 36.8875 Q1707.33 36.8875 1710.53 34.4975 Q1713.73 32.067 1713.73 27.5299 Q1713.73 22.8714 1710.41 20.4004 Q1707.13 17.8888 1700.97 17.8888 Q1697.61 17.8888 1693.76 18.618 Q1689.91 19.3471 1685.29 20.8865 L1685.29 13.5948 Q1689.95 12.2985 1694 11.6504 Q1698.09 11.0023 1701.7 11.0023 Q1711.02 11.0023 1716.44 15.2557 Q1721.87 19.4686 1721.87 26.6793 Q1721.87 31.7024 1719 35.1862 Q1716.12 38.6294 1710.81 39.9662 Z" fill="#000000" fill-rule="nonzero" fill-opacity="1" /><circle clip-path="url(#clip652)" cx="237.067" cy="1364.1" r="5.87878" fill="#4c02a0" fill-rule="evenodd" fill-opacity="1" stroke="none"/>
<circle clip-path="url(#clip652)" cx="250.853" cy="1364.1" r="5.87878" fill="#310496" fill-rule="evenodd" fill-opacity="1" stroke="none"/>
<circle clip-path="url(#clip652)" cx="264.639" cy="1364.1" r="5.87878" fill="#310496" fill-rule="evenodd" fill-opacity="1" stroke="none"/>
<circle clip-path="url(#clip652)" cx="278.424" cy="1364.1" r="5.87878" fill="#0c0786" fill-rule="evenodd" fill-opacity="1" stroke="none"/>
<circle clip-path="url(#clip652)" cx="292.21" cy="1364.1" r="5.87878" fill="#310496" fill-rule="evenodd" fill-opacity="1" stroke="none"/>
<circle clip-path="url(#clip652)" cx="305.996" cy="1364.1" r="5.87878" fill="#6500a7" fill-rule="evenodd" fill-opacity="1" stroke="none"/>
<circle clip-path="url(#clip652)" cx="319.781" cy="1364.1" r="5.87878" fill="#0c0786" fill-rule="evenodd" fill-opacity="1" stroke="none"/>
<circle clip-path="url(#clip652)" cx="333.567" cy="1364.1" r="5.87878" fill="#310496" fill-rule="evenodd" fill-opacity="1" stroke="none"/>
<circle clip-path="url(#clip652)" cx="347.353" cy="1364.1" r="5.87878" fill="#4c02a0" fill-rule="evenodd" fill-opacity="1" stroke="none"/>
<circle clip-path="url(#clip652)" cx="361.138" cy="1364.1" r="5.87878" fill="#6500a7" fill-rule="evenodd" fill-opacity="1" stroke="none"/>
<circle clip-path="url(#clip652)" cx="374.924" cy="1364.1" r="5.87878" fill="#310496" fill-rule="evenodd" fill-opacity="1" stroke="none"/>
<circle clip-path="url(#clip652)" cx="388.71" cy="986.323" r="5.87878" fill="#f8dd24" fill-rule="evenodd" fill-opacity="1" stroke="none"/>
<circle clip-path="url(#clip652)" cx="402.495" cy="986.323" r="5.87878" fill="#f8dd24" fill-rule="evenodd" fill-opacity="1" stroke="none"/>
<circle clip-path="url(#clip652)" cx="416.281" cy="986.323" r="5.87878" fill="#f8dd24" fill-rule="evenodd" fill-opacity="1" stroke="none"/>
<circle clip-path="url(#clip652)" cx="430.067" cy="986.323" r="5.87878" fill="#f8dd24" fill-rule="evenodd" fill-opacity="1" stroke="none"/>
<circle clip-path="url(#clip652)" cx="443.852" cy="986.323" r="5.87878" fill="#f8dd24" fill-rule="evenodd" fill-opacity="1" stroke="none"/>
<circle clip-path="url(#clip652)" cx="457.638" cy="986.323" r="5.87878" fill="#f8dd24" fill-rule="evenodd" fill-opacity="1" stroke="none"/>
<circle clip-path="url(#clip652)" cx="471.424" cy="986.323" r="5.87878" fill="#f8dd24" fill-rule="evenodd" fill-opacity="1" stroke="none"/>
<circle clip-path="url(#clip652)" cx="485.209" cy="986.323" r="5.87878" fill="#f8dd24" fill-rule="evenodd" fill-opacity="1" stroke="none"/>
<circle clip-path="url(#clip652)" cx="498.995" cy="986.323" r="5.87878" fill="#f8dd24" fill-rule="evenodd" fill-opacity="1" stroke="none"/>
<circle clip-path="url(#clip652)" cx="512.781" cy="986.323" r="5.87878" fill="#f8dd24" fill-rule="evenodd" fill-opacity="1" stroke="none"/>
<circle clip-path="url(#clip652)" cx="526.567" cy="986.323" r="5.87878" fill="#f8dd24" fill-rule="evenodd" fill-opacity="1" stroke="none"/>
<circle clip-path="url(#clip652)" cx="540.352" cy="986.323" r="5.87878" fill="#f8dd24" fill-rule="evenodd" fill-opacity="1" stroke="none"/>
<circle clip-path="url(#clip652)" cx="554.138" cy="986.323" r="5.87878" fill="#f8dd24" fill-rule="evenodd" fill-opacity="1" stroke="none"/>
<circle clip-path="url(#clip652)" cx="567.924" cy="986.323" r="5.87878" fill="#f8dd24" fill-rule="evenodd" fill-opacity="1" stroke="none"/>
<circle clip-path="url(#clip652)" cx="581.709" cy="986.323" r="5.87878" fill="#f8dd24" fill-rule="evenodd" fill-opacity="1" stroke="none"/>
<circle clip-path="url(#clip652)" cx="595.495" cy="986.323" r="5.87878" fill="#f8dd24" fill-rule="evenodd" fill-opacity="1" stroke="none"/>
<circle clip-path="url(#clip652)" cx="609.281" cy="986.323" r="5.87878" fill="#f8dd24" fill-rule="evenodd" fill-opacity="1" stroke="none"/>
<circle clip-path="url(#clip652)" cx="623.066" cy="986.323" r="5.87878" fill="#f8dd24" fill-rule="evenodd" fill-opacity="1" stroke="none"/>
<circle clip-path="url(#clip652)" cx="636.852" cy="986.323" r="5.87878" fill="#f8dd24" fill-rule="evenodd" fill-opacity="1" stroke="none"/>
<circle clip-path="url(#clip652)" cx="650.638" cy="986.323" r="5.87878" fill="#f8dd24" fill-rule="evenodd" fill-opacity="1" stroke="none"/>
<circle clip-path="url(#clip652)" cx="664.423" cy="986.323" r="5.87878" fill="#f8dd24" fill-rule="evenodd" fill-opacity="1" stroke="none"/>
<circle clip-path="url(#clip652)" cx="678.209" cy="986.323" r="5.87878" fill="#f8dd24" fill-rule="evenodd" fill-opacity="1" stroke="none"/>
<circle clip-path="url(#clip652)" cx="691.995" cy="986.323" r="5.87878" fill="#f8dd24" fill-rule="evenodd" fill-opacity="1" stroke="none"/>
<circle clip-path="url(#clip652)" cx="705.78" cy="986.323" r="5.87878" fill="#f8dd24" fill-rule="evenodd" fill-opacity="1" stroke="none"/>
<circle clip-path="url(#clip652)" cx="719.566" cy="986.323" r="5.87878" fill="#f8dd24" fill-rule="evenodd" fill-opacity="1" stroke="none"/>
<circle clip-path="url(#clip652)" cx="733.352" cy="986.323" r="5.87878" fill="#f8dd24" fill-rule="evenodd" fill-opacity="1" stroke="none"/>
<circle clip-path="url(#clip652)" cx="747.137" cy="986.323" r="5.87878" fill="#f8dd24" fill-rule="evenodd" fill-opacity="1" stroke="none"/>
<circle clip-path="url(#clip652)" cx="760.923" cy="986.323" r="5.87878" fill="#f8dd24" fill-rule="evenodd" fill-opacity="1" stroke="none"/>
<circle clip-path="url(#clip652)" cx="774.709" cy="986.323" r="5.87878" fill="#f8dd24" fill-rule="evenodd" fill-opacity="1" stroke="none"/>
<circle clip-path="url(#clip652)" cx="788.495" cy="986.323" r="5.87878" fill="#f8dd24" fill-rule="evenodd" fill-opacity="1" stroke="none"/>
<circle clip-path="url(#clip652)" cx="802.28" cy="986.323" r="5.87878" fill="#f8dd24" fill-rule="evenodd" fill-opacity="1" stroke="none"/>
<circle clip-path="url(#clip652)" cx="816.066" cy="986.323" r="5.87878" fill="#f8dd24" fill-rule="evenodd" fill-opacity="1" stroke="none"/>
<circle clip-path="url(#clip652)" cx="829.852" cy="986.323" r="5.87878" fill="#f8dd24" fill-rule="evenodd" fill-opacity="1" stroke="none"/>
<circle clip-path="url(#clip652)" cx="843.637" cy="986.323" r="5.87878" fill="#f8dd24" fill-rule="evenodd" fill-opacity="1" stroke="none"/>
<circle clip-path="url(#clip652)" cx="857.423" cy="986.323" r="5.87878" fill="#f8dd24" fill-rule="evenodd" fill-opacity="1" stroke="none"/>
<circle clip-path="url(#clip652)" cx="871.209" cy="986.323" r="5.87878" fill="#f8dd24" fill-rule="evenodd" fill-opacity="1" stroke="none"/>
<circle clip-path="url(#clip652)" cx="884.994" cy="986.323" r="5.87878" fill="#f8dd24" fill-rule="evenodd" fill-opacity="1" stroke="none"/>
<circle clip-path="url(#clip652)" cx="898.78" cy="986.323" r="5.87878" fill="#f8dd24" fill-rule="evenodd" fill-opacity="1" stroke="none"/>
<circle clip-path="url(#clip652)" cx="912.566" cy="986.323" r="5.87878" fill="#f8dd24" fill-rule="evenodd" fill-opacity="1" stroke="none"/>
<circle clip-path="url(#clip652)" cx="926.351" cy="986.323" r="5.87878" fill="#f8dd24" fill-rule="evenodd" fill-opacity="1" stroke="none"/>
<circle clip-path="url(#clip652)" cx="940.137" cy="986.323" r="5.87878" fill="#f8dd24" fill-rule="evenodd" fill-opacity="1" stroke="none"/>
<circle clip-path="url(#clip652)" cx="953.923" cy="986.323" r="5.87878" fill="#f8dd24" fill-rule="evenodd" fill-opacity="1" stroke="none"/>
<circle clip-path="url(#clip652)" cx="967.708" cy="986.323" r="5.87878" fill="#f8dd24" fill-rule="evenodd" fill-opacity="1" stroke="none"/>
<circle clip-path="url(#clip652)" cx="981.494" cy="986.323" r="5.87878" fill="#f8dd24" fill-rule="evenodd" fill-opacity="1" stroke="none"/>
<circle clip-path="url(#clip652)" cx="995.28" cy="986.323" r="5.87878" fill="#f8dd24" fill-rule="evenodd" fill-opacity="1" stroke="none"/>
<circle clip-path="url(#clip652)" cx="1009.07" cy="986.323" r="5.87878" fill="#f8dd24" fill-rule="evenodd" fill-opacity="1" stroke="none"/>
<circle clip-path="url(#clip652)" cx="1022.85" cy="986.323" r="5.87878" fill="#f8dd24" fill-rule="evenodd" fill-opacity="1" stroke="none"/>
<circle clip-path="url(#clip652)" cx="1036.64" cy="986.323" r="5.87878" fill="#f8dd24" fill-rule="evenodd" fill-opacity="1" stroke="none"/>
<circle clip-path="url(#clip652)" cx="1050.42" cy="986.323" r="5.87878" fill="#f8dd24" fill-rule="evenodd" fill-opacity="1" stroke="none"/>
<circle clip-path="url(#clip652)" cx="1064.21" cy="986.323" r="5.87878" fill="#f8dd24" fill-rule="evenodd" fill-opacity="1" stroke="none"/>
<circle clip-path="url(#clip652)" cx="1077.99" cy="986.323" r="5.87878" fill="#f8dd24" fill-rule="evenodd" fill-opacity="1" stroke="none"/>
<circle clip-path="url(#clip652)" cx="1091.78" cy="986.323" r="5.87878" fill="#f8dd24" fill-rule="evenodd" fill-opacity="1" stroke="none"/>
<circle clip-path="url(#clip652)" cx="1105.57" cy="986.323" r="5.87878" fill="#f8dd24" fill-rule="evenodd" fill-opacity="1" stroke="none"/>
<circle clip-path="url(#clip652)" cx="1119.35" cy="986.323" r="5.87878" fill="#f8dd24" fill-rule="evenodd" fill-opacity="1" stroke="none"/>
<circle clip-path="url(#clip652)" cx="1133.14" cy="986.323" r="5.87878" fill="#f8dd24" fill-rule="evenodd" fill-opacity="1" stroke="none"/>
<circle clip-path="url(#clip652)" cx="1146.92" cy="986.323" r="5.87878" fill="#f8dd24" fill-rule="evenodd" fill-opacity="1" stroke="none"/>
<circle clip-path="url(#clip652)" cx="1160.71" cy="986.323" r="5.87878" fill="#f8dd24" fill-rule="evenodd" fill-opacity="1" stroke="none"/>
<circle clip-path="url(#clip652)" cx="1174.49" cy="986.323" r="5.87878" fill="#f8dd24" fill-rule="evenodd" fill-opacity="1" stroke="none"/>
<circle clip-path="url(#clip652)" cx="1188.28" cy="986.323" r="5.87878" fill="#f8dd24" fill-rule="evenodd" fill-opacity="1" stroke="none"/>
<circle clip-path="url(#clip652)" cx="1202.06" cy="986.323" r="5.87878" fill="#f8dd24" fill-rule="evenodd" fill-opacity="1" stroke="none"/>
<circle clip-path="url(#clip652)" cx="1215.85" cy="986.323" r="5.87878" fill="#f8dd24" fill-rule="evenodd" fill-opacity="1" stroke="none"/>
<circle clip-path="url(#clip652)" cx="1229.64" cy="986.323" r="5.87878" fill="#f8dd24" fill-rule="evenodd" fill-opacity="1" stroke="none"/>
<circle clip-path="url(#clip652)" cx="1243.42" cy="986.323" r="5.87878" fill="#f8dd24" fill-rule="evenodd" fill-opacity="1" stroke="none"/>
<circle clip-path="url(#clip652)" cx="1257.21" cy="986.323" r="5.87878" fill="#f8dd24" fill-rule="evenodd" fill-opacity="1" stroke="none"/>
<circle clip-path="url(#clip652)" cx="1270.99" cy="986.323" r="5.87878" fill="#f8dd24" fill-rule="evenodd" fill-opacity="1" stroke="none"/>
<circle clip-path="url(#clip652)" cx="1284.78" cy="986.323" r="5.87878" fill="#f8dd24" fill-rule="evenodd" fill-opacity="1" stroke="none"/>
<circle clip-path="url(#clip652)" cx="1298.56" cy="986.323" r="5.87878" fill="#f8dd24" fill-rule="evenodd" fill-opacity="1" stroke="none"/>
<circle clip-path="url(#clip652)" cx="1312.35" cy="986.323" r="5.87878" fill="#f8dd24" fill-rule="evenodd" fill-opacity="1" stroke="none"/>
<circle clip-path="url(#clip652)" cx="1326.14" cy="986.323" r="5.87878" fill="#f8dd24" fill-rule="evenodd" fill-opacity="1" stroke="none"/>
<circle clip-path="url(#clip652)" cx="1339.92" cy="986.323" r="5.87878" fill="#f8dd24" fill-rule="evenodd" fill-opacity="1" stroke="none"/>
<circle clip-path="url(#clip652)" cx="1353.71" cy="986.323" r="5.87878" fill="#f8dd24" fill-rule="evenodd" fill-opacity="1" stroke="none"/>
<circle clip-path="url(#clip652)" cx="1367.49" cy="986.323" r="5.87878" fill="#f8dd24" fill-rule="evenodd" fill-opacity="1" stroke="none"/>
<circle clip-path="url(#clip652)" cx="1381.28" cy="986.323" r="5.87878" fill="#f8dd24" fill-rule="evenodd" fill-opacity="1" stroke="none"/>
<circle clip-path="url(#clip652)" cx="1395.06" cy="986.323" r="5.87878" fill="#f8dd24" fill-rule="evenodd" fill-opacity="1" stroke="none"/>
<circle clip-path="url(#clip652)" cx="1408.85" cy="986.323" r="5.87878" fill="#f8dd24" fill-rule="evenodd" fill-opacity="1" stroke="none"/>
<circle clip-path="url(#clip652)" cx="1422.64" cy="986.323" r="5.87878" fill="#f8dd24" fill-rule="evenodd" fill-opacity="1" stroke="none"/>
<circle clip-path="url(#clip652)" cx="1436.42" cy="986.323" r="5.87878" fill="#f8dd24" fill-rule="evenodd" fill-opacity="1" stroke="none"/>
<circle clip-path="url(#clip652)" cx="1450.21" cy="986.323" r="5.87878" fill="#f8dd24" fill-rule="evenodd" fill-opacity="1" stroke="none"/>
<circle clip-path="url(#clip652)" cx="1463.99" cy="986.323" r="5.87878" fill="#f8dd24" fill-rule="evenodd" fill-opacity="1" stroke="none"/>
<circle clip-path="url(#clip652)" cx="1477.78" cy="986.323" r="5.87878" fill="#f8dd24" fill-rule="evenodd" fill-opacity="1" stroke="none"/>
<circle clip-path="url(#clip652)" cx="1491.56" cy="986.323" r="5.87878" fill="#f8dd24" fill-rule="evenodd" fill-opacity="1" stroke="none"/>
<circle clip-path="url(#clip652)" cx="1505.35" cy="986.323" r="5.87878" fill="#f8dd24" fill-rule="evenodd" fill-opacity="1" stroke="none"/>
<circle clip-path="url(#clip652)" cx="1519.14" cy="986.323" r="5.87878" fill="#f8dd24" fill-rule="evenodd" fill-opacity="1" stroke="none"/>
<circle clip-path="url(#clip652)" cx="1532.92" cy="986.323" r="5.87878" fill="#f8dd24" fill-rule="evenodd" fill-opacity="1" stroke="none"/>
<circle clip-path="url(#clip652)" cx="1546.71" cy="986.323" r="5.87878" fill="#f8dd24" fill-rule="evenodd" fill-opacity="1" stroke="none"/>
<circle clip-path="url(#clip652)" cx="1560.49" cy="986.323" r="5.87878" fill="#f8dd24" fill-rule="evenodd" fill-opacity="1" stroke="none"/>
<circle clip-path="url(#clip652)" cx="1574.28" cy="986.323" r="5.87878" fill="#f8dd24" fill-rule="evenodd" fill-opacity="1" stroke="none"/>
<circle clip-path="url(#clip652)" cx="1588.06" cy="986.323" r="5.87878" fill="#f8dd24" fill-rule="evenodd" fill-opacity="1" stroke="none"/>
<circle clip-path="url(#clip652)" cx="1601.85" cy="986.323" r="5.87878" fill="#f8dd24" fill-rule="evenodd" fill-opacity="1" stroke="none"/>
<circle clip-path="url(#clip652)" cx="1615.64" cy="986.323" r="5.87878" fill="#f8dd24" fill-rule="evenodd" fill-opacity="1" stroke="none"/>
<circle clip-path="url(#clip652)" cx="1629.42" cy="986.323" r="5.87878" fill="#f8dd24" fill-rule="evenodd" fill-opacity="1" stroke="none"/>
<circle clip-path="url(#clip652)" cx="1643.21" cy="986.323" r="5.87878" fill="#f8dd24" fill-rule="evenodd" fill-opacity="1" stroke="none"/>
<circle clip-path="url(#clip652)" cx="1656.99" cy="986.323" r="5.87878" fill="#f8dd24" fill-rule="evenodd" fill-opacity="1" stroke="none"/>
<circle clip-path="url(#clip652)" cx="1670.78" cy="986.323" r="5.87878" fill="#f8dd24" fill-rule="evenodd" fill-opacity="1" stroke="none"/>
<circle clip-path="url(#clip652)" cx="1684.56" cy="986.323" r="5.87878" fill="#f8dd24" fill-rule="evenodd" fill-opacity="1" stroke="none"/>
<circle clip-path="url(#clip652)" cx="1698.35" cy="986.323" r="5.87878" fill="#f8dd24" fill-rule="evenodd" fill-opacity="1" stroke="none"/>
<circle clip-path="url(#clip652)" cx="1712.14" cy="986.323" r="5.87878" fill="#f8dd24" fill-rule="evenodd" fill-opacity="1" stroke="none"/>
<circle clip-path="url(#clip652)" cx="1725.92" cy="986.323" r="5.87878" fill="#f8dd24" fill-rule="evenodd" fill-opacity="1" stroke="none"/>
<circle clip-path="url(#clip652)" cx="1739.71" cy="986.323" r="5.87878" fill="#f8dd24" fill-rule="evenodd" fill-opacity="1" stroke="none"/>
<circle clip-path="url(#clip652)" cx="1753.49" cy="986.323" r="5.87878" fill="#f8dd24" fill-rule="evenodd" fill-opacity="1" stroke="none"/>
<circle clip-path="url(#clip652)" cx="1767.28" cy="986.323" r="5.87878" fill="#f8dd24" fill-rule="evenodd" fill-opacity="1" stroke="none"/>
<circle clip-path="url(#clip652)" cx="1781.06" cy="986.323" r="5.87878" fill="#f8dd24" fill-rule="evenodd" fill-opacity="1" stroke="none"/>
<circle clip-path="url(#clip652)" cx="1794.85" cy="986.323" r="5.87878" fill="#f8dd24" fill-rule="evenodd" fill-opacity="1" stroke="none"/>
<circle clip-path="url(#clip652)" cx="1808.64" cy="986.323" r="5.87878" fill="#f8dd24" fill-rule="evenodd" fill-opacity="1" stroke="none"/>
<circle clip-path="url(#clip652)" cx="1822.42" cy="986.323" r="5.87878" fill="#f8dd24" fill-rule="evenodd" fill-opacity="1" stroke="none"/>
<circle clip-path="url(#clip652)" cx="1836.21" cy="986.323" r="5.87878" fill="#f8dd24" fill-rule="evenodd" fill-opacity="1" stroke="none"/>
<circle clip-path="url(#clip652)" cx="1849.99" cy="986.323" r="5.87878" fill="#f8dd24" fill-rule="evenodd" fill-opacity="1" stroke="none"/>
<circle clip-path="url(#clip652)" cx="1863.78" cy="986.323" r="5.87878" fill="#f8dd24" fill-rule="evenodd" fill-opacity="1" stroke="none"/>
<circle clip-path="url(#clip652)" cx="1877.56" cy="986.323" r="5.87878" fill="#f8dd24" fill-rule="evenodd" fill-opacity="1" stroke="none"/>
<circle clip-path="url(#clip652)" cx="1891.35" cy="986.323" r="5.87878" fill="#f8dd24" fill-rule="evenodd" fill-opacity="1" stroke="none"/>
<circle clip-path="url(#clip652)" cx="1905.13" cy="986.323" r="5.87878" fill="#f79440" fill-rule="evenodd" fill-opacity="1" stroke="none"/>
<circle clip-path="url(#clip652)" cx="1918.92" cy="986.323" r="5.87878" fill="#f79440" fill-rule="evenodd" fill-opacity="1" stroke="none"/>
<circle clip-path="url(#clip652)" cx="1932.71" cy="986.323" r="5.87878" fill="#f79440" fill-rule="evenodd" fill-opacity="1" stroke="none"/>
<circle clip-path="url(#clip652)" cx="1946.49" cy="986.323" r="5.87878" fill="#fcab33" fill-rule="evenodd" fill-opacity="1" stroke="none"/>
<circle clip-path="url(#clip652)" cx="1960.28" cy="986.323" r="5.87878" fill="#fcab33" fill-rule="evenodd" fill-opacity="1" stroke="none"/>
<circle clip-path="url(#clip652)" cx="1974.06" cy="986.323" r="5.87878" fill="#f79440" fill-rule="evenodd" fill-opacity="1" stroke="none"/>
<circle clip-path="url(#clip652)" cx="1987.85" cy="986.323" r="5.87878" fill="#f79440" fill-rule="evenodd" fill-opacity="1" stroke="none"/>
<circle clip-path="url(#clip652)" cx="2001.63" cy="986.323" r="5.87878" fill="#fcab33" fill-rule="evenodd" fill-opacity="1" stroke="none"/>
<path clip-path="url(#clip652)" d="M2015.42 176.018 L2008.89 189.082 L2021.95 189.082 L2015.42 176.018 Z" fill="#fdc327" fill-rule="evenodd" fill-opacity="1" stroke="none"/>
<path clip-path="url(#clip652)" d="M2029.21 176.018 L2022.67 189.082 L2035.74 189.082 L2029.21 176.018 Z" fill="#fdc327" fill-rule="evenodd" fill-opacity="1" stroke="none"/>
<path clip-path="url(#clip652)" d="M2042.99 176.018 L2036.46 189.082 L2049.52 189.082 L2042.99 176.018 Z" fill="#fdc327" fill-rule="evenodd" fill-opacity="1" stroke="none"/>
<path clip-path="url(#clip652)" d="M2056.78 176.018 L2050.25 189.082 L2063.31 189.082 L2056.78 176.018 Z" fill="#fdc327" fill-rule="evenodd" fill-opacity="1" stroke="none"/>
<path clip-path="url(#clip652)" d="M2070.56 176.018 L2064.03 189.082 L2077.09 189.082 L2070.56 176.018 Z" fill="#fdc327" fill-rule="evenodd" fill-opacity="1" stroke="none"/>
<path clip-path="url(#clip652)" d="M2084.35 176.018 L2077.82 189.082 L2090.88 189.082 L2084.35 176.018 Z" fill="#fdc327" fill-rule="evenodd" fill-opacity="1" stroke="none"/>
<path clip-path="url(#clip652)" d="M2098.13 176.018 L2091.6 189.082 L2104.67 189.082 L2098.13 176.018 Z" fill="#fdc327" fill-rule="evenodd" fill-opacity="1" stroke="none"/>
<path clip-path="url(#clip652)" d="M2111.92 176.018 L2105.39 189.082 L2118.45 189.082 L2111.92 176.018 Z" fill="#fdc327" fill-rule="evenodd" fill-opacity="1" stroke="none"/>
<path clip-path="url(#clip652)" d="M2125.71 176.018 L2119.17 189.082 L2132.24 189.082 L2125.71 176.018 Z" fill="#fdc327" fill-rule="evenodd" fill-opacity="1" stroke="none"/>
<path clip-path="url(#clip652)" d="M2139.49 176.018 L2132.96 189.082 L2146.02 189.082 L2139.49 176.018 Z" fill="#fcab33" fill-rule="evenodd" fill-opacity="1" stroke="none"/>
<path clip-path="url(#clip652)" d="M2153.28 176.018 L2146.75 189.082 L2159.81 189.082 L2153.28 176.018 Z" fill="#fcab33" fill-rule="evenodd" fill-opacity="1" stroke="none"/>
<path clip-path="url(#clip652)" d="M2167.06 176.018 L2160.53 189.082 L2173.59 189.082 L2167.06 176.018 Z" fill="#fcab33" fill-rule="evenodd" fill-opacity="1" stroke="none"/>
<path clip-path="url(#clip652)" d="M2180.85 176.018 L2174.32 189.082 L2187.38 189.082 L2180.85 176.018 Z" fill="#fcab33" fill-rule="evenodd" fill-opacity="1" stroke="none"/>
<path clip-path="url(#clip652)" d="M2194.63 176.018 L2188.1 189.082 L2201.17 189.082 L2194.63 176.018 Z" fill="#f79440" fill-rule="evenodd" fill-opacity="1" stroke="none"/>
<path clip-path="url(#clip652)" d="M2208.42 176.018 L2201.89 189.082 L2214.95 189.082 L2208.42 176.018 Z" fill="#fcab33" fill-rule="evenodd" fill-opacity="1" stroke="none"/>
<path clip-path="url(#clip652)" d="M2222.21 176.018 L2215.67 189.082 L2228.74 189.082 L2222.21 176.018 Z" fill="#fcab33" fill-rule="evenodd" fill-opacity="1" stroke="none"/>
<path clip-path="url(#clip652)" d="M2235.99 176.018 L2229.46 189.082 L2242.52 189.082 L2235.99 176.018 Z" fill="#fcab33" fill-rule="evenodd" fill-opacity="1" stroke="none"/>
<path clip-path="url(#clip652)" d="M2249.78 176.018 L2243.24 189.082 L2256.31 189.082 L2249.78 176.018 Z" fill="#fcab33" fill-rule="evenodd" fill-opacity="1" stroke="none"/>
<path clip-path="url(#clip652)" d="M2263.56 176.018 L2257.03 189.082 L2270.09 189.082 L2263.56 176.018 Z" fill="#f79440" fill-rule="evenodd" fill-opacity="1" stroke="none"/>
<path clip-path="url(#clip652)" d="M2277.35 176.018 L2270.82 189.082 L2283.88 189.082 L2277.35 176.018 Z" fill="#fcab33" fill-rule="evenodd" fill-opacity="1" stroke="none"/>
<path clip-path="url(#clip652)" d="M2291.13 176.018 L2284.6 189.082 L2297.67 189.082 L2291.13 176.018 Z" fill="#fdc327" fill-rule="evenodd" fill-opacity="1" stroke="none"/>
<polyline clip-path="url(#clip652)" style="stroke:#808080; stroke-linecap:round; stroke-linejoin:round; stroke-width:4; stroke-opacity:1; fill:none" stroke-dasharray="16, 10" points="381.817,2722.89 381.817,-1176.24 "/>
</svg>
