<?xml version="1.0" encoding="utf-8"?>
<svg xmlns="http://www.w3.org/2000/svg" xmlns:xlink="http://www.w3.org/1999/xlink" width="600" height="400" viewBox="0 0 2400 1600">
<defs>
  <clipPath id="clip510">
    <rect x="0" y="0" width="2400" height="1600"/>
  </clipPath>
</defs>
<path clip-path="url(#clip510)" d="M0 1600 L2400 1600 L2400 0 L0 0  Z" fill="#ffffff" fill-rule="evenodd" fill-opacity="1"/>
<defs>
  <clipPath id="clip511">
    <rect x="480" y="0" width="1681" height="1600"/>
  </clipPath>
</defs>
<path clip-path="url(#clip510)" d="M242.135 1423.18 L2352.76 1423.18 L2352.76 47.2441 L242.135 47.2441  Z" fill="#ffffff" fill-rule="evenodd" fill-opacity="1"/>
<defs>
  <clipPath id="clip512">
    <rect x="242" y="47" width="2112" height="1377"/>
  </clipPath>
</defs>
<polyline clip-path="url(#clip512)" style="stroke:#000000; stroke-linecap:round; stroke-linejoin:round; stroke-width:2; stroke-opacity:0.1; fill:none" points="719.095,1423.18 719.095,47.2441 "/>
<polyline clip-path="url(#clip512)" style="stroke:#000000; stroke-linecap:round; stroke-linejoin:round; stroke-width:2; stroke-opacity:0.1; fill:none" points="1949.43,1423.18 1949.43,47.2441 "/>
<polyline clip-path="url(#clip512)" style="stroke:#000000; stroke-linecap:round; stroke-linejoin:round; stroke-width:2; stroke-opacity:0.1; fill:none" points="242.135,1263.14 2352.76,1263.14 "/>
<polyline clip-path="url(#clip512)" style="stroke:#000000; stroke-linecap:round; stroke-linejoin:round; stroke-width:2; stroke-opacity:0.1; fill:none" points="242.135,999.174 2352.76,999.174 "/>
<polyline clip-path="url(#clip512)" style="stroke:#000000; stroke-linecap:round; stroke-linejoin:round; stroke-width:2; stroke-opacity:0.1; fill:none" points="242.135,735.212 2352.76,735.212 "/>
<polyline clip-path="url(#clip512)" style="stroke:#000000; stroke-linecap:round; stroke-linejoin:round; stroke-width:2; stroke-opacity:0.1; fill:none" points="242.135,471.25 2352.76,471.25 "/>
<polyline clip-path="url(#clip512)" style="stroke:#000000; stroke-linecap:round; stroke-linejoin:round; stroke-width:2; stroke-opacity:0.1; fill:none" points="242.135,207.287 2352.76,207.287 "/>
<polyline clip-path="url(#clip510)" style="stroke:#000000; stroke-linecap:round; stroke-linejoin:round; stroke-width:4; stroke-opacity:1; fill:none" points="242.135,1423.18 2352.76,1423.18 "/>
<polyline clip-path="url(#clip510)" style="stroke:#000000; stroke-linecap:round; stroke-linejoin:round; stroke-width:4; stroke-opacity:1; fill:none" points="719.095,1423.18 719.095,1404.28 "/>
<polyline clip-path="url(#clip510)" style="stroke:#000000; stroke-linecap:round; stroke-linejoin:round; stroke-width:4; stroke-opacity:1; fill:none" points="1949.43,1423.18 1949.43,1404.28 "/>
<path clip-path="url(#clip510)" d="M716.954 1469.14 L702.209 1469.14 Q702.556 1476.07 704.153 1479.01 Q706.144 1482.62 709.593 1482.62 Q713.065 1482.62 714.987 1478.98 Q716.676 1475.79 716.954 1469.14 M716.885 1465.21 Q716.237 1458.64 714.987 1456.32 Q712.996 1452.66 709.593 1452.66 Q706.051 1452.66 704.176 1456.27 Q702.695 1459.19 702.255 1465.21 L716.885 1465.21 M709.593 1449.19 Q715.149 1449.19 718.32 1454.1 Q721.491 1458.98 721.491 1467.64 Q721.491 1476.27 718.32 1481.18 Q715.149 1486.11 709.593 1486.11 Q704.014 1486.11 700.866 1481.18 Q697.695 1476.27 697.695 1467.64 Q697.695 1458.98 700.866 1454.1 Q704.014 1449.19 709.593 1449.19 Z" fill="#000000" fill-rule="nonzero" fill-opacity="1" /><path clip-path="url(#clip510)" d="M727.695 1483.03 L732.417 1483.03 L732.417 1468.89 L727.255 1469.84 L727.255 1467.15 L732.579 1466.25 L735.75 1466.25 L735.75 1483.03 L740.496 1483.03 L740.496 1485.58 L727.695 1485.58 L727.695 1483.03 Z" fill="#000000" fill-rule="nonzero" fill-opacity="1" /><path clip-path="url(#clip510)" d="M1947.48 1469.14 L1932.74 1469.14 Q1933.09 1476.07 1934.68 1479.01 Q1936.67 1482.62 1940.12 1482.62 Q1943.6 1482.62 1945.52 1478.98 Q1947.21 1475.79 1947.48 1469.14 M1947.41 1465.21 Q1946.77 1458.64 1945.52 1456.32 Q1943.53 1452.66 1940.12 1452.66 Q1936.58 1452.66 1934.71 1456.27 Q1933.23 1459.19 1932.79 1465.21 L1947.41 1465.21 M1940.12 1449.19 Q1945.68 1449.19 1948.85 1454.1 Q1952.02 1458.98 1952.02 1467.64 Q1952.02 1476.27 1948.85 1481.18 Q1945.68 1486.11 1940.12 1486.11 Q1934.54 1486.11 1931.4 1481.18 Q1928.23 1476.27 1928.23 1467.64 Q1928.23 1458.98 1931.4 1454.1 Q1934.54 1449.19 1940.12 1449.19 Z" fill="#000000" fill-rule="nonzero" fill-opacity="1" /><path clip-path="url(#clip510)" d="M1960.82 1482.94 L1970.63 1482.94 L1970.63 1485.58 L1956.79 1485.58 L1956.79 1483.03 Q1957.58 1482.32 1959.04 1481.02 Q1967 1473.96 1967 1471.78 Q1967 1470.26 1965.79 1469.33 Q1964.59 1468.38 1962.62 1468.38 Q1961.42 1468.38 1960.01 1468.8 Q1958.6 1469.19 1956.93 1470 L1956.93 1467.15 Q1958.71 1466.51 1960.24 1466.18 Q1961.79 1465.86 1963.11 1465.86 Q1966.47 1465.86 1968.48 1467.39 Q1970.49 1468.91 1970.49 1471.41 Q1970.49 1474.63 1962.83 1481.2 Q1961.54 1482.32 1960.82 1482.94 Z" fill="#000000" fill-rule="nonzero" fill-opacity="1" /><path clip-path="url(#clip510)" d="M1137.51 1525.81 L1137.51 1543.66 L1145.59 1543.66 Q1150.08 1543.66 1152.53 1541.34 Q1154.98 1539.02 1154.98 1534.72 Q1154.98 1530.45 1152.53 1528.13 Q1150.08 1525.81 1145.59 1525.81 L1137.51 1525.81 M1131.08 1520.52 L1145.59 1520.52 Q1153.58 1520.52 1157.65 1524.15 Q1161.76 1527.75 1161.76 1534.72 Q1161.76 1541.75 1157.65 1545.35 Q1153.58 1548.95 1145.59 1548.95 L1137.51 1548.95 L1137.51 1568.04 L1131.08 1568.04 L1131.08 1520.52 Z" fill="#000000" fill-rule="nonzero" fill-opacity="1" /><path clip-path="url(#clip510)" d="M1183.4 1550.12 Q1176.31 1550.12 1173.57 1551.75 Q1170.83 1553.37 1170.83 1557.29 Q1170.83 1560.4 1172.87 1562.25 Q1174.94 1564.07 1178.47 1564.07 Q1183.34 1564.07 1186.27 1560.63 Q1189.23 1557.16 1189.23 1551.43 L1189.23 1550.12 L1183.4 1550.12 M1195.08 1547.71 L1195.08 1568.04 L1189.23 1568.04 L1189.23 1562.63 Q1187.22 1565.88 1184.23 1567.44 Q1181.24 1568.97 1176.91 1568.97 Q1171.44 1568.97 1168.19 1565.91 Q1164.97 1562.82 1164.97 1557.67 Q1164.97 1551.65 1168.99 1548.6 Q1173.03 1545.54 1181.02 1545.54 L1189.23 1545.54 L1189.23 1544.97 Q1189.23 1540.93 1186.55 1538.73 Q1183.91 1536.5 1179.11 1536.5 Q1176.05 1536.5 1173.15 1537.23 Q1170.26 1537.97 1167.58 1539.43 L1167.58 1534.02 Q1170.8 1532.78 1173.82 1532.17 Q1176.85 1531.54 1179.71 1531.54 Q1187.45 1531.54 1191.27 1535.55 Q1195.08 1539.56 1195.08 1547.71 Z" fill="#000000" fill-rule="nonzero" fill-opacity="1" /><path clip-path="url(#clip510)" d="M1227.8 1537.87 Q1226.82 1537.3 1225.64 1537.04 Q1224.49 1536.76 1223.09 1536.76 Q1218.13 1536.76 1215.45 1540 Q1212.81 1543.22 1212.81 1549.27 L1212.81 1568.04 L1206.92 1568.04 L1206.92 1532.4 L1212.81 1532.4 L1212.81 1537.93 Q1214.66 1534.69 1217.62 1533.13 Q1220.58 1531.54 1224.81 1531.54 Q1225.42 1531.54 1226.15 1531.63 Q1226.88 1531.7 1227.77 1531.85 L1227.8 1537.87 Z" fill="#000000" fill-rule="nonzero" fill-opacity="1" /><path clip-path="url(#clip510)" d="M1250.15 1550.12 Q1243.05 1550.12 1240.31 1551.75 Q1237.58 1553.37 1237.58 1557.29 Q1237.58 1560.4 1239.61 1562.25 Q1241.68 1564.07 1245.21 1564.07 Q1250.08 1564.07 1253.01 1560.63 Q1255.97 1557.16 1255.97 1551.43 L1255.97 1550.12 L1250.15 1550.12 M1261.83 1547.71 L1261.83 1568.04 L1255.97 1568.04 L1255.97 1562.63 Q1253.97 1565.88 1250.98 1567.44 Q1247.98 1568.97 1243.66 1568.97 Q1238.18 1568.97 1234.93 1565.91 Q1231.72 1562.82 1231.72 1557.67 Q1231.72 1551.65 1235.73 1548.6 Q1239.77 1545.54 1247.76 1545.54 L1255.97 1545.54 L1255.97 1544.97 Q1255.97 1540.93 1253.3 1538.73 Q1250.66 1536.5 1245.85 1536.5 Q1242.8 1536.5 1239.9 1537.23 Q1237 1537.97 1234.33 1539.43 L1234.33 1534.02 Q1237.54 1532.78 1240.57 1532.17 Q1243.59 1531.54 1246.46 1531.54 Q1254.19 1531.54 1258.01 1535.55 Q1261.83 1539.56 1261.83 1547.71 Z" fill="#000000" fill-rule="nonzero" fill-opacity="1" /><path clip-path="url(#clip510)" d="M1301.65 1539.24 Q1303.84 1535.29 1306.9 1533.41 Q1309.95 1531.54 1314.09 1531.54 Q1319.66 1531.54 1322.69 1535.45 Q1325.71 1539.33 1325.71 1546.53 L1325.71 1568.04 L1319.82 1568.04 L1319.82 1546.72 Q1319.82 1541.59 1318.01 1539.11 Q1316.19 1536.63 1312.47 1536.63 Q1307.92 1536.63 1305.28 1539.65 Q1302.63 1542.68 1302.63 1547.9 L1302.63 1568.04 L1296.75 1568.04 L1296.75 1546.72 Q1296.75 1541.56 1294.93 1539.11 Q1293.12 1536.63 1289.33 1536.63 Q1284.84 1536.63 1282.2 1539.68 Q1279.56 1542.71 1279.56 1547.9 L1279.56 1568.04 L1273.67 1568.04 L1273.67 1532.4 L1279.56 1532.4 L1279.56 1537.93 Q1281.56 1534.66 1284.36 1533.1 Q1287.16 1531.54 1291.02 1531.54 Q1294.9 1531.54 1297.6 1533.51 Q1300.34 1535.48 1301.65 1539.24 Z" fill="#000000" fill-rule="nonzero" fill-opacity="1" /><path clip-path="url(#clip510)" d="M1367.88 1548.76 L1367.88 1551.62 L1340.95 1551.62 Q1341.34 1557.67 1344.58 1560.85 Q1347.86 1564 1353.69 1564 Q1357.06 1564 1360.21 1563.17 Q1363.39 1562.35 1366.51 1560.69 L1366.51 1566.23 Q1363.36 1567.57 1360.05 1568.27 Q1356.74 1568.97 1353.34 1568.97 Q1344.81 1568.97 1339.81 1564 Q1334.84 1559.04 1334.84 1550.57 Q1334.84 1541.82 1339.55 1536.69 Q1344.3 1531.54 1352.32 1531.54 Q1359.51 1531.54 1363.68 1536.18 Q1367.88 1540.8 1367.88 1548.76 M1362.03 1547.04 Q1361.96 1542.23 1359.32 1539.37 Q1356.71 1536.5 1352.38 1536.5 Q1347.48 1536.5 1344.52 1539.27 Q1341.59 1542.04 1341.15 1547.07 L1362.03 1547.04 Z" fill="#000000" fill-rule="nonzero" fill-opacity="1" /><path clip-path="url(#clip510)" d="M1383.29 1522.27 L1383.29 1532.4 L1395.35 1532.4 L1395.35 1536.95 L1383.29 1536.95 L1383.29 1556.3 Q1383.29 1560.66 1384.46 1561.9 Q1385.67 1563.14 1389.33 1563.14 L1395.35 1563.14 L1395.35 1568.04 L1389.33 1568.04 Q1382.55 1568.04 1379.98 1565.53 Q1377.4 1562.98 1377.4 1556.3 L1377.4 1536.95 L1373.1 1536.95 L1373.1 1532.4 L1377.4 1532.4 L1377.4 1522.27 L1383.29 1522.27 Z" fill="#000000" fill-rule="nonzero" fill-opacity="1" /><path clip-path="url(#clip510)" d="M1433.54 1548.76 L1433.54 1551.62 L1406.62 1551.62 Q1407 1557.67 1410.25 1560.85 Q1413.52 1564 1419.35 1564 Q1422.72 1564 1425.87 1563.17 Q1429.06 1562.35 1432.18 1560.69 L1432.18 1566.23 Q1429.02 1567.57 1425.71 1568.27 Q1422.4 1568.97 1419 1568.97 Q1410.47 1568.97 1405.47 1564 Q1400.51 1559.04 1400.51 1550.57 Q1400.51 1541.82 1405.22 1536.69 Q1409.96 1531.54 1417.98 1531.54 Q1425.17 1531.54 1429.34 1536.18 Q1433.54 1540.8 1433.54 1548.76 M1427.69 1547.04 Q1427.62 1542.23 1424.98 1539.37 Q1422.37 1536.5 1418.04 1536.5 Q1413.14 1536.5 1410.18 1539.27 Q1407.25 1542.04 1406.81 1547.07 L1427.69 1547.04 Z" fill="#000000" fill-rule="nonzero" fill-opacity="1" /><path clip-path="url(#clip510)" d="M1463.81 1537.87 Q1462.83 1537.3 1461.65 1537.04 Q1460.5 1536.76 1459.1 1536.76 Q1454.14 1536.76 1451.46 1540 Q1448.82 1543.22 1448.82 1549.27 L1448.82 1568.04 L1442.93 1568.04 L1442.93 1532.4 L1448.82 1532.4 L1448.82 1537.93 Q1450.67 1534.69 1453.63 1533.13 Q1456.59 1531.54 1460.82 1531.54 Q1461.43 1531.54 1462.16 1531.63 Q1462.89 1531.7 1463.78 1531.85 L1463.81 1537.87 Z" fill="#000000" fill-rule="nonzero" fill-opacity="1" /><polyline clip-path="url(#clip510)" style="stroke:#000000; stroke-linecap:round; stroke-linejoin:round; stroke-width:4; stroke-opacity:1; fill:none" points="242.135,1423.18 242.135,47.2441 "/>
<polyline clip-path="url(#clip510)" style="stroke:#000000; stroke-linecap:round; stroke-linejoin:round; stroke-width:4; stroke-opacity:1; fill:none" points="242.135,1263.14 261.032,1263.14 "/>
<polyline clip-path="url(#clip510)" style="stroke:#000000; stroke-linecap:round; stroke-linejoin:round; stroke-width:4; stroke-opacity:1; fill:none" points="242.135,999.174 261.032,999.174 "/>
<polyline clip-path="url(#clip510)" style="stroke:#000000; stroke-linecap:round; stroke-linejoin:round; stroke-width:4; stroke-opacity:1; fill:none" points="242.135,735.212 261.032,735.212 "/>
<polyline clip-path="url(#clip510)" style="stroke:#000000; stroke-linecap:round; stroke-linejoin:round; stroke-width:4; stroke-opacity:1; fill:none" points="242.135,471.25 261.032,471.25 "/>
<polyline clip-path="url(#clip510)" style="stroke:#000000; stroke-linecap:round; stroke-linejoin:round; stroke-width:4; stroke-opacity:1; fill:none" points="242.135,207.287 261.032,207.287 "/>
<path clip-path="url(#clip510)" d="M114.26 1263.59 L143.936 1263.59 L143.936 1267.52 L114.26 1267.52 L114.26 1263.59 Z" fill="#000000" fill-rule="nonzero" fill-opacity="1" /><path clip-path="url(#clip510)" d="M166.876 1249.93 L155.07 1268.38 L166.876 1268.38 L166.876 1249.93 M165.649 1245.86 L171.528 1245.86 L171.528 1268.38 L176.459 1268.38 L176.459 1272.27 L171.528 1272.27 L171.528 1280.42 L166.876 1280.42 L166.876 1272.27 L151.274 1272.27 L151.274 1267.75 L165.649 1245.86 Z" fill="#000000" fill-rule="nonzero" fill-opacity="1" /><path clip-path="url(#clip510)" d="M194.19 1248.94 Q190.579 1248.94 188.75 1252.5 Q186.945 1256.04 186.945 1263.17 Q186.945 1270.28 188.75 1273.84 Q190.579 1277.38 194.19 1277.38 Q197.825 1277.38 199.63 1273.84 Q201.459 1270.28 201.459 1263.17 Q201.459 1256.04 199.63 1252.5 Q197.825 1248.94 194.19 1248.94 M194.19 1245.23 Q200 1245.23 203.056 1249.84 Q206.135 1254.42 206.135 1263.17 Q206.135 1271.9 203.056 1276.5 Q200 1281.09 194.19 1281.09 Q188.38 1281.09 185.301 1276.5 Q182.246 1271.9 182.246 1263.17 Q182.246 1254.42 185.301 1249.84 Q188.38 1245.23 194.19 1245.23 Z" fill="#000000" fill-rule="nonzero" fill-opacity="1" /><path clip-path="url(#clip510)" d="M114.26 999.626 L143.936 999.626 L143.936 1003.56 L114.26 1003.56 L114.26 999.626 Z" fill="#000000" fill-rule="nonzero" fill-opacity="1" /><path clip-path="url(#clip510)" d="M158.056 1012.52 L174.376 1012.52 L174.376 1016.45 L152.431 1016.45 L152.431 1012.52 Q155.093 1009.76 159.677 1005.13 Q164.283 1000.48 165.464 999.14 Q167.709 996.616 168.589 994.88 Q169.491 993.121 169.491 991.431 Q169.491 988.677 167.547 986.941 Q165.626 985.204 162.524 985.204 Q160.325 985.204 157.871 985.968 Q155.44 986.732 152.663 988.283 L152.663 983.561 Q155.487 982.427 157.94 981.848 Q160.394 981.269 162.431 981.269 Q167.802 981.269 170.996 983.954 Q174.19 986.64 174.19 991.13 Q174.19 993.26 173.38 995.181 Q172.593 997.079 170.487 999.672 Q169.908 1000.34 166.806 1003.56 Q163.704 1006.76 158.056 1012.52 Z" fill="#000000" fill-rule="nonzero" fill-opacity="1" /><path clip-path="url(#clip510)" d="M194.19 984.973 Q190.579 984.973 188.75 988.538 Q186.945 992.079 186.945 999.209 Q186.945 1006.32 188.75 1009.88 Q190.579 1013.42 194.19 1013.42 Q197.825 1013.42 199.63 1009.88 Q201.459 1006.32 201.459 999.209 Q201.459 992.079 199.63 988.538 Q197.825 984.973 194.19 984.973 M194.19 981.269 Q200 981.269 203.056 985.876 Q206.135 990.459 206.135 999.209 Q206.135 1007.94 203.056 1012.54 Q200 1017.13 194.19 1017.13 Q188.38 1017.13 185.301 1012.54 Q182.246 1007.94 182.246 999.209 Q182.246 990.459 185.301 985.876 Q188.38 981.269 194.19 981.269 Z" fill="#000000" fill-rule="nonzero" fill-opacity="1" /><path clip-path="url(#clip510)" d="M194.19 721.011 Q190.579 721.011 188.75 724.575 Q186.945 728.117 186.945 735.247 Q186.945 742.353 188.75 745.918 Q190.579 749.46 194.19 749.46 Q197.825 749.46 199.63 745.918 Q201.459 742.353 201.459 735.247 Q201.459 728.117 199.63 724.575 Q197.825 721.011 194.19 721.011 M194.19 717.307 Q200 717.307 203.056 721.913 Q206.135 726.497 206.135 735.247 Q206.135 743.973 203.056 748.58 Q200 753.163 194.19 753.163 Q188.38 753.163 185.301 748.58 Q182.246 743.973 182.246 735.247 Q182.246 726.497 185.301 721.913 Q188.38 717.307 194.19 717.307 Z" fill="#000000" fill-rule="nonzero" fill-opacity="1" /><path clip-path="url(#clip510)" d="M158.056 484.594 L174.376 484.594 L174.376 488.53 L152.431 488.53 L152.431 484.594 Q155.093 481.84 159.677 477.21 Q164.283 472.557 165.464 471.215 Q167.709 468.692 168.589 466.956 Q169.491 465.196 169.491 463.507 Q169.491 460.752 167.547 459.016 Q165.626 457.28 162.524 457.28 Q160.325 457.28 157.871 458.044 Q155.44 458.808 152.663 460.358 L152.663 455.636 Q155.487 454.502 157.94 453.923 Q160.394 453.345 162.431 453.345 Q167.802 453.345 170.996 456.03 Q174.19 458.715 174.19 463.206 Q174.19 465.335 173.38 467.257 Q172.593 469.155 170.487 471.747 Q169.908 472.419 166.806 475.636 Q163.704 478.831 158.056 484.594 Z" fill="#000000" fill-rule="nonzero" fill-opacity="1" /><path clip-path="url(#clip510)" d="M194.19 457.048 Q190.579 457.048 188.75 460.613 Q186.945 464.155 186.945 471.284 Q186.945 478.391 188.75 481.956 Q190.579 485.497 194.19 485.497 Q197.825 485.497 199.63 481.956 Q201.459 478.391 201.459 471.284 Q201.459 464.155 199.63 460.613 Q197.825 457.048 194.19 457.048 M194.19 453.345 Q200 453.345 203.056 457.951 Q206.135 462.534 206.135 471.284 Q206.135 480.011 203.056 484.618 Q200 489.201 194.19 489.201 Q188.38 489.201 185.301 484.618 Q182.246 480.011 182.246 471.284 Q182.246 462.534 185.301 457.951 Q188.38 453.345 194.19 453.345 Z" fill="#000000" fill-rule="nonzero" fill-opacity="1" /><path clip-path="url(#clip510)" d="M166.876 194.081 L155.07 212.53 L166.876 212.53 L166.876 194.081 M165.649 190.007 L171.528 190.007 L171.528 212.53 L176.459 212.53 L176.459 216.419 L171.528 216.419 L171.528 224.567 L166.876 224.567 L166.876 216.419 L151.274 216.419 L151.274 211.905 L165.649 190.007 Z" fill="#000000" fill-rule="nonzero" fill-opacity="1" /><path clip-path="url(#clip510)" d="M194.19 193.086 Q190.579 193.086 188.75 196.651 Q186.945 200.192 186.945 207.322 Q186.945 214.428 188.75 217.993 Q190.579 221.535 194.19 221.535 Q197.825 221.535 199.63 217.993 Q201.459 214.428 201.459 207.322 Q201.459 200.192 199.63 196.651 Q197.825 193.086 194.19 193.086 M194.19 189.382 Q200 189.382 203.056 193.989 Q206.135 198.572 206.135 207.322 Q206.135 216.049 203.056 220.655 Q200 225.239 194.19 225.239 Q188.38 225.239 185.301 220.655 Q182.246 216.049 182.246 207.322 Q182.246 198.572 185.301 193.989 Q188.38 189.382 194.19 189.382 Z" fill="#000000" fill-rule="nonzero" fill-opacity="1" /><path clip-path="url(#clip510)" d="M41.3104 1107.27 L58.7206 1107.27 L58.7206 1096.96 Q58.7206 1091.77 56.5881 1089.29 Q54.4238 1086.77 49.9996 1086.77 Q45.5436 1086.77 43.4429 1089.29 Q41.3104 1091.77 41.3104 1096.96 L41.3104 1107.27 M21.7677 1107.27 L36.0905 1107.27 L36.0905 1097.75 Q36.0905 1093.04 34.34 1090.75 Q32.5576 1088.43 28.9291 1088.43 Q25.3325 1088.43 23.5501 1090.75 Q21.7677 1093.04 21.7677 1097.75 L21.7677 1107.27 M16.4842 1113.7 L16.4842 1097.28 Q16.4842 1089.93 19.5397 1085.95 Q22.5952 1081.97 28.2289 1081.97 Q32.5894 1081.97 35.1675 1084 Q37.7456 1086.04 38.3822 1089.99 Q39.4007 1085.25 42.6472 1082.64 Q45.8619 1079.99 50.6998 1079.99 Q57.0655 1079.99 60.5348 1084.32 Q64.0042 1088.65 64.0042 1096.64 L64.0042 1113.7 L16.4842 1113.7 Z" fill="#000000" fill-rule="nonzero" fill-opacity="1" /><path clip-path="url(#clip510)" d="M28.3562 1069.24 L28.3562 1063.38 L64.0042 1063.38 L64.0042 1069.24 L28.3562 1069.24 M14.479 1069.24 L14.479 1063.38 L21.895 1063.38 L21.895 1069.24 L14.479 1069.24 Z" fill="#000000" fill-rule="nonzero" fill-opacity="1" /><path clip-path="url(#clip510)" d="M16.4842 1050.87 L16.4842 1044.44 L58.5933 1044.44 L58.5933 1021.3 L64.0042 1021.3 L64.0042 1050.87 L16.4842 1050.87 Z" fill="#000000" fill-rule="nonzero" fill-opacity="1" /><path clip-path="url(#clip510)" d="M32.4621 1002.14 Q32.4621 1006.85 36.1542 1009.59 Q39.8145 1012.33 46.212 1012.33 Q52.6095 1012.33 56.3017 1009.62 Q59.9619 1006.88 59.9619 1002.14 Q59.9619 997.463 56.2698 994.726 Q52.5777 991.989 46.212 991.989 Q39.8781 991.989 36.186 994.726 Q32.4621 997.463 32.4621 1002.14 M27.4968 1002.14 Q27.4968 994.503 32.4621 990.143 Q37.4273 985.782 46.212 985.782 Q54.9649 985.782 59.9619 990.143 Q64.9272 994.503 64.9272 1002.14 Q64.9272 1009.81 59.9619 1014.17 Q54.9649 1018.5 46.212 1018.5 Q37.4273 1018.5 32.4621 1014.17 Q27.4968 1009.81 27.4968 1002.14 Z" fill="#000000" fill-rule="nonzero" fill-opacity="1" /><path clip-path="url(#clip510)" d="M45.7664 952.617 Q39.4007 952.617 35.8996 955.259 Q32.3984 957.868 32.3984 962.611 Q32.3984 967.322 35.8996 969.963 Q39.4007 972.573 45.7664 972.573 Q52.1003 972.573 55.6014 969.963 Q59.1026 967.322 59.1026 962.611 Q59.1026 957.868 55.6014 955.259 Q52.1003 952.617 45.7664 952.617 M59.58 946.76 Q68.683 946.76 73.1071 950.803 Q77.5631 954.845 77.5631 963.184 Q77.5631 966.271 77.0857 969.008 Q76.6401 971.746 75.6852 974.324 L69.9879 974.324 Q71.3884 971.746 72.0568 969.231 Q72.7252 966.717 72.7252 964.107 Q72.7252 958.346 69.7015 955.481 Q66.7096 952.617 60.6303 952.617 L57.7339 952.617 Q60.885 954.431 62.4446 957.264 Q64.0042 960.096 64.0042 964.043 Q64.0042 970.6 59.0071 974.61 Q54.01 978.621 45.7664 978.621 Q37.491 978.621 32.4939 974.61 Q27.4968 970.6 27.4968 964.043 Q27.4968 960.096 29.0564 957.264 Q30.616 954.431 33.7671 952.617 L28.3562 952.617 L28.3562 946.76 L59.58 946.76 Z" fill="#000000" fill-rule="nonzero" fill-opacity="1" /><path clip-path="url(#clip510)" d="M14.5426 920.629 Q21.8632 924.894 29.0246 926.963 Q36.186 929.032 43.5384 929.032 Q50.8908 929.032 58.1159 926.963 Q65.3091 924.862 72.5979 920.629 L72.5979 925.722 Q65.1182 930.496 57.8931 932.883 Q50.668 935.238 43.5384 935.238 Q36.4406 935.238 29.2474 932.883 Q22.0542 930.528 14.5426 925.722 L14.5426 920.629 Z" fill="#000000" fill-rule="nonzero" fill-opacity="1" /><path clip-path="url(#clip510)" d="M21.7677 902.582 L39.6235 902.582 L39.6235 894.498 Q39.6235 890.01 37.3 887.559 Q34.9765 885.108 30.6797 885.108 Q26.4147 885.108 24.0912 887.559 Q21.7677 890.01 21.7677 894.498 L21.7677 902.582 M16.4842 909.012 L16.4842 894.498 Q16.4842 886.509 20.1126 882.435 Q23.7092 878.329 30.6797 878.329 Q37.7138 878.329 41.3104 882.435 Q44.907 886.509 44.907 894.498 L44.907 902.582 L64.0042 902.582 L64.0042 909.012 L16.4842 909.012 Z" fill="#000000" fill-rule="nonzero" fill-opacity="1" /><path clip-path="url(#clip510)" d="M46.0847 856.686 Q46.0847 863.783 47.7079 866.521 Q49.3312 869.258 53.2461 869.258 Q56.3653 869.258 58.2114 867.221 Q60.0256 865.152 60.0256 861.619 Q60.0256 856.749 56.5881 853.821 Q53.1188 850.861 47.3897 850.861 L46.0847 850.861 L46.0847 856.686 M43.6657 845.004 L64.0042 845.004 L64.0042 850.861 L58.5933 850.861 Q61.8398 852.866 63.3994 855.858 Q64.9272 858.85 64.9272 863.179 Q64.9272 868.653 61.8716 871.9 Q58.7843 875.114 53.6281 875.114 Q47.6125 875.114 44.5569 871.104 Q41.5014 867.062 41.5014 859.073 L41.5014 850.861 L40.9285 850.861 Q36.8862 850.861 34.6901 853.535 Q32.4621 856.176 32.4621 860.982 Q32.4621 864.038 33.1941 866.934 Q33.9262 869.831 35.3903 872.504 L29.9795 872.504 Q28.7381 869.29 28.1334 866.266 Q27.4968 863.242 27.4968 860.378 Q27.4968 852.643 31.5072 848.824 Q35.5176 845.004 43.6657 845.004 Z" fill="#000000" fill-rule="nonzero" fill-opacity="1" /><path clip-path="url(#clip510)" d="M33.8307 812.285 Q33.2578 813.271 33.0032 814.449 Q32.7167 815.595 32.7167 816.995 Q32.7167 821.961 35.9632 824.634 Q39.1779 827.276 45.2253 827.276 L64.0042 827.276 L64.0042 833.164 L28.3562 833.164 L28.3562 827.276 L33.8944 827.276 Q30.6479 825.43 29.0883 822.47 Q27.4968 819.51 27.4968 815.277 Q27.4968 814.672 27.5923 813.94 Q27.656 813.208 27.8151 812.317 L33.8307 812.285 Z" fill="#000000" fill-rule="nonzero" fill-opacity="1" /><path clip-path="url(#clip510)" d="M46.0847 789.941 Q46.0847 797.039 47.7079 799.776 Q49.3312 802.513 53.2461 802.513 Q56.3653 802.513 58.2114 800.476 Q60.0256 798.408 60.0256 794.875 Q60.0256 790.005 56.5881 787.077 Q53.1188 784.117 47.3897 784.117 L46.0847 784.117 L46.0847 789.941 M43.6657 778.26 L64.0042 778.26 L64.0042 784.117 L58.5933 784.117 Q61.8398 786.122 63.3994 789.114 Q64.9272 792.105 64.9272 796.434 Q64.9272 801.909 61.8716 805.155 Q58.7843 808.37 53.6281 808.37 Q47.6125 808.37 44.5569 804.359 Q41.5014 800.317 41.5014 792.328 L41.5014 784.117 L40.9285 784.117 Q36.8862 784.117 34.6901 786.79 Q32.4621 789.432 32.4621 794.238 Q32.4621 797.294 33.1941 800.19 Q33.9262 803.086 35.3903 805.76 L29.9795 805.76 Q28.7381 802.545 28.1334 799.522 Q27.4968 796.498 27.4968 793.633 Q27.4968 785.899 31.5072 782.079 Q35.5176 778.26 43.6657 778.26 Z" fill="#000000" fill-rule="nonzero" fill-opacity="1" /><path clip-path="url(#clip510)" d="M35.1993 738.443 Q31.2526 736.246 29.3747 733.191 Q27.4968 730.135 27.4968 725.998 Q27.4968 720.428 31.4117 717.404 Q35.2948 714.38 42.4881 714.38 L64.0042 714.38 L64.0042 720.268 L42.679 720.268 Q37.5546 720.268 35.072 722.083 Q32.5894 723.897 32.5894 727.621 Q32.5894 732.172 35.6131 734.814 Q38.6368 737.456 43.8567 737.456 L64.0042 737.456 L64.0042 743.344 L42.679 743.344 Q37.5228 743.344 35.072 745.158 Q32.5894 746.973 32.5894 750.76 Q32.5894 755.248 35.6449 757.89 Q38.6686 760.532 43.8567 760.532 L64.0042 760.532 L64.0042 766.42 L28.3562 766.42 L28.3562 760.532 L33.8944 760.532 Q30.616 758.526 29.0564 755.725 Q27.4968 752.925 27.4968 749.073 Q27.4968 745.19 29.4702 742.485 Q31.4436 739.748 35.1993 738.443 Z" fill="#000000" fill-rule="nonzero" fill-opacity="1" /><path clip-path="url(#clip510)" d="M44.7161 672.207 L47.5806 672.207 L47.5806 699.134 Q53.6281 698.752 56.8109 695.506 Q59.9619 692.228 59.9619 686.403 Q59.9619 683.029 59.1344 679.878 Q58.3069 676.695 56.6518 673.576 L62.1899 673.576 Q63.5267 676.727 64.227 680.037 Q64.9272 683.347 64.9272 686.753 Q64.9272 695.283 59.9619 700.28 Q54.9967 705.245 46.5303 705.245 Q37.7774 705.245 32.6531 700.535 Q27.4968 695.792 27.4968 687.772 Q27.4968 680.578 32.1438 676.409 Q36.7589 672.207 44.7161 672.207 M42.9973 678.064 Q38.1912 678.127 35.3266 680.769 Q32.4621 683.379 32.4621 687.708 Q32.4621 692.609 35.2312 695.57 Q38.0002 698.498 43.0292 698.943 L42.9973 678.064 Z" fill="#000000" fill-rule="nonzero" fill-opacity="1" /><path clip-path="url(#clip510)" d="M18.2347 656.802 L28.3562 656.802 L28.3562 644.739 L32.9077 644.739 L32.9077 656.802 L52.2594 656.802 Q56.6199 656.802 57.8613 655.625 Q59.1026 654.415 59.1026 650.755 L59.1026 644.739 L64.0042 644.739 L64.0042 650.755 Q64.0042 657.534 61.4897 660.113 Q58.9434 662.691 52.2594 662.691 L32.9077 662.691 L32.9077 666.988 L28.3562 666.988 L28.3562 662.691 L18.2347 662.691 L18.2347 656.802 Z" fill="#000000" fill-rule="nonzero" fill-opacity="1" /><path clip-path="url(#clip510)" d="M44.7161 606.545 L47.5806 606.545 L47.5806 633.472 Q53.6281 633.09 56.8109 629.844 Q59.9619 626.565 59.9619 620.741 Q59.9619 617.367 59.1344 614.216 Q58.3069 611.033 56.6518 607.914 L62.1899 607.914 Q63.5267 611.065 64.227 614.375 Q64.9272 617.685 64.9272 621.091 Q64.9272 629.621 59.9619 634.618 Q54.9967 639.583 46.5303 639.583 Q37.7774 639.583 32.6531 634.873 Q27.4968 630.13 27.4968 622.109 Q27.4968 614.916 32.1438 610.746 Q36.7589 606.545 44.7161 606.545 M42.9973 612.402 Q38.1912 612.465 35.3266 615.107 Q32.4621 617.717 32.4621 622.046 Q32.4621 626.947 35.2312 629.907 Q38.0002 632.835 43.0292 633.281 L42.9973 612.402 Z" fill="#000000" fill-rule="nonzero" fill-opacity="1" /><path clip-path="url(#clip510)" d="M33.8307 576.276 Q33.2578 577.263 33.0032 578.441 Q32.7167 579.586 32.7167 580.987 Q32.7167 585.952 35.9632 588.626 Q39.1779 591.267 45.2253 591.267 L64.0042 591.267 L64.0042 597.156 L28.3562 597.156 L28.3562 591.267 L33.8944 591.267 Q30.6479 589.421 29.0883 586.461 Q27.4968 583.501 27.4968 579.268 Q27.4968 578.663 27.5923 577.931 Q27.656 577.199 27.8151 576.308 L33.8307 576.276 Z" fill="#000000" fill-rule="nonzero" fill-opacity="1" /><path clip-path="url(#clip510)" d="M64.0042 536.904 L16.4842 555.047 L16.4842 548.331 L56.4926 533.276 L16.4842 518.189 L16.4842 511.505 L64.0042 529.616 L64.0042 536.904 Z" fill="#000000" fill-rule="nonzero" fill-opacity="1" /><path clip-path="url(#clip510)" d="M46.0847 493.681 Q46.0847 500.779 47.7079 503.516 Q49.3312 506.253 53.2461 506.253 Q56.3653 506.253 58.2114 504.216 Q60.0256 502.148 60.0256 498.615 Q60.0256 493.745 56.5881 490.817 Q53.1188 487.857 47.3897 487.857 L46.0847 487.857 L46.0847 493.681 M43.6657 482 L64.0042 482 L64.0042 487.857 L58.5933 487.857 Q61.8398 489.862 63.3994 492.854 Q64.9272 495.845 64.9272 500.174 Q64.9272 505.649 61.8716 508.895 Q58.7843 512.11 53.6281 512.11 Q47.6125 512.11 44.5569 508.099 Q41.5014 504.057 41.5014 496.068 L41.5014 487.857 L40.9285 487.857 Q36.8862 487.857 34.6901 490.53 Q32.4621 493.172 32.4621 497.978 Q32.4621 501.034 33.1941 503.93 Q33.9262 506.826 35.3903 509.5 L29.9795 509.5 Q28.7381 506.285 28.1334 503.262 Q27.4968 500.238 27.4968 497.373 Q27.4968 489.639 31.5072 485.819 Q35.5176 482 43.6657 482 Z" fill="#000000" fill-rule="nonzero" fill-opacity="1" /><path clip-path="url(#clip510)" d="M14.479 469.937 L14.479 464.081 L64.0042 464.081 L64.0042 469.937 L14.479 469.937 Z" fill="#000000" fill-rule="nonzero" fill-opacity="1" /><path clip-path="url(#clip510)" d="M49.9359 452.431 L28.3562 452.431 L28.3562 446.575 L49.7131 446.575 Q54.7739 446.575 57.3202 444.602 Q59.8346 442.628 59.8346 438.681 Q59.8346 433.939 56.8109 431.202 Q53.7872 428.433 48.5673 428.433 L28.3562 428.433 L28.3562 422.576 L64.0042 422.576 L64.0042 428.433 L58.5296 428.433 Q61.7762 430.565 63.3676 433.398 Q64.9272 436.199 64.9272 439.923 Q64.9272 446.066 61.1078 449.249 Q57.2883 452.431 49.9359 452.431 M27.4968 437.695 L27.4968 437.695 Z" fill="#000000" fill-rule="nonzero" fill-opacity="1" /><path clip-path="url(#clip510)" d="M44.7161 380.021 L47.5806 380.021 L47.5806 406.948 Q53.6281 406.566 56.8109 403.32 Q59.9619 400.042 59.9619 394.217 Q59.9619 390.843 59.1344 387.692 Q58.3069 384.509 56.6518 381.39 L62.1899 381.39 Q63.5267 384.541 64.227 387.851 Q64.9272 391.161 64.9272 394.567 Q64.9272 403.097 59.9619 408.094 Q54.9967 413.059 46.5303 413.059 Q37.7774 413.059 32.6531 408.349 Q27.4968 403.606 27.4968 395.586 Q27.4968 388.392 32.1438 384.223 Q36.7589 380.021 44.7161 380.021 M42.9973 385.878 Q38.1912 385.942 35.3266 388.583 Q32.4621 391.193 32.4621 395.522 Q32.4621 400.424 35.2312 403.384 Q38.0002 406.312 43.0292 406.757 L42.9973 385.878 Z" fill="#000000" fill-rule="nonzero" fill-opacity="1" /><path clip-path="url(#clip510)" d="M14.5426 371.332 L14.5426 366.24 Q22.0542 361.465 29.2474 359.11 Q36.4406 356.723 43.5384 356.723 Q50.668 356.723 57.8931 359.11 Q65.1182 361.465 72.5979 366.24 L72.5979 371.332 Q65.3091 367.099 58.1159 365.03 Q50.8908 362.93 43.5384 362.93 Q36.186 362.93 29.0246 365.03 Q21.8632 367.099 14.5426 371.332 Z" fill="#000000" fill-rule="nonzero" fill-opacity="1" /><circle clip-path="url(#clip512)" cx="406.02" cy="770.656" r="14.4" fill="#009af9" fill-rule="evenodd" fill-opacity="1" stroke="#000000" stroke-opacity="1" stroke-width="3.2"/>
<circle clip-path="url(#clip512)" cx="428.105" cy="770.656" r="14.4" fill="#009af9" fill-rule="evenodd" fill-opacity="1" stroke="#000000" stroke-opacity="1" stroke-width="3.2"/>
<circle clip-path="url(#clip512)" cx="434.447" cy="770.656" r="14.4" fill="#009af9" fill-rule="evenodd" fill-opacity="1" stroke="#000000" stroke-opacity="1" stroke-width="3.2"/>
<circle clip-path="url(#clip512)" cx="391.721" cy="770.656" r="14.4" fill="#009af9" fill-rule="evenodd" fill-opacity="1" stroke="#000000" stroke-opacity="1" stroke-width="3.2"/>
<circle clip-path="url(#clip512)" cx="408.143" cy="770.656" r="14.4" fill="#009af9" fill-rule="evenodd" fill-opacity="1" stroke="#000000" stroke-opacity="1" stroke-width="3.2"/>
<circle clip-path="url(#clip512)" cx="387.184" cy="770.656" r="14.4" fill="#009af9" fill-rule="evenodd" fill-opacity="1" stroke="#000000" stroke-opacity="1" stroke-width="3.2"/>
<circle clip-path="url(#clip512)" cx="412.281" cy="770.656" r="14.4" fill="#009af9" fill-rule="evenodd" fill-opacity="1" stroke="#000000" stroke-opacity="1" stroke-width="3.2"/>
<circle clip-path="url(#clip512)" cx="425.506" cy="770.656" r="14.4" fill="#009af9" fill-rule="evenodd" fill-opacity="1" stroke="#000000" stroke-opacity="1" stroke-width="3.2"/>
<circle clip-path="url(#clip512)" cx="389.795" cy="770.656" r="14.4" fill="#009af9" fill-rule="evenodd" fill-opacity="1" stroke="#000000" stroke-opacity="1" stroke-width="3.2"/>
<circle clip-path="url(#clip512)" cx="428.526" cy="780.229" r="14.4" fill="#009af9" fill-rule="evenodd" fill-opacity="1" stroke="#000000" stroke-opacity="1" stroke-width="3.2"/>
<circle clip-path="url(#clip512)" cx="423.826" cy="785.719" r="14.4" fill="#009af9" fill-rule="evenodd" fill-opacity="1" stroke="#000000" stroke-opacity="1" stroke-width="3.2"/>
<circle clip-path="url(#clip512)" cx="439.338" cy="814.074" r="14.4" fill="#009af9" fill-rule="evenodd" fill-opacity="1" stroke="#000000" stroke-opacity="1" stroke-width="3.2"/>
<circle clip-path="url(#clip512)" cx="473.378" cy="795.004" r="14.4" fill="#009af9" fill-rule="evenodd" fill-opacity="1" stroke="#000000" stroke-opacity="1" stroke-width="3.2"/>
<circle clip-path="url(#clip512)" cx="391.809" cy="795.004" r="14.4" fill="#009af9" fill-rule="evenodd" fill-opacity="1" stroke="#000000" stroke-opacity="1" stroke-width="3.2"/>
<circle clip-path="url(#clip512)" cx="370.352" cy="812.251" r="14.4" fill="#009af9" fill-rule="evenodd" fill-opacity="1" stroke="#000000" stroke-opacity="1" stroke-width="3.2"/>
<circle clip-path="url(#clip512)" cx="395.119" cy="806.265" r="14.4" fill="#009af9" fill-rule="evenodd" fill-opacity="1" stroke="#000000" stroke-opacity="1" stroke-width="3.2"/>
<circle clip-path="url(#clip512)" cx="376.24" cy="795.004" r="14.4" fill="#009af9" fill-rule="evenodd" fill-opacity="1" stroke="#000000" stroke-opacity="1" stroke-width="3.2"/>
<circle clip-path="url(#clip512)" cx="443.889" cy="795.004" r="14.4" fill="#009af9" fill-rule="evenodd" fill-opacity="1" stroke="#000000" stroke-opacity="1" stroke-width="3.2"/>
<circle clip-path="url(#clip512)" cx="461.752" cy="795.004" r="14.4" fill="#009af9" fill-rule="evenodd" fill-opacity="1" stroke="#000000" stroke-opacity="1" stroke-width="3.2"/>
<circle clip-path="url(#clip512)" cx="347.59" cy="812.251" r="14.4" fill="#009af9" fill-rule="evenodd" fill-opacity="1" stroke="#000000" stroke-opacity="1" stroke-width="3.2"/>
<circle clip-path="url(#clip512)" cx="412.508" cy="795.004" r="14.4" fill="#009af9" fill-rule="evenodd" fill-opacity="1" stroke="#000000" stroke-opacity="1" stroke-width="3.2"/>
<circle clip-path="url(#clip512)" cx="481.557" cy="795.004" r="14.4" fill="#009af9" fill-rule="evenodd" fill-opacity="1" stroke="#000000" stroke-opacity="1" stroke-width="3.2"/>
<circle clip-path="url(#clip512)" cx="378.471" cy="795.004" r="14.4" fill="#009af9" fill-rule="evenodd" fill-opacity="1" stroke="#000000" stroke-opacity="1" stroke-width="3.2"/>
<circle clip-path="url(#clip512)" cx="366.892" cy="812.251" r="14.4" fill="#009af9" fill-rule="evenodd" fill-opacity="1" stroke="#000000" stroke-opacity="1" stroke-width="3.2"/>
<circle clip-path="url(#clip512)" cx="440.747" cy="806.265" r="14.4" fill="#009af9" fill-rule="evenodd" fill-opacity="1" stroke="#000000" stroke-opacity="1" stroke-width="3.2"/>
<circle clip-path="url(#clip512)" cx="387.975" cy="795.004" r="14.4" fill="#009af9" fill-rule="evenodd" fill-opacity="1" stroke="#000000" stroke-opacity="1" stroke-width="3.2"/>
<circle clip-path="url(#clip512)" cx="458.878" cy="795.004" r="14.4" fill="#009af9" fill-rule="evenodd" fill-opacity="1" stroke="#000000" stroke-opacity="1" stroke-width="3.2"/>
<circle clip-path="url(#clip512)" cx="477.528" cy="812.251" r="14.4" fill="#009af9" fill-rule="evenodd" fill-opacity="1" stroke="#000000" stroke-opacity="1" stroke-width="3.2"/>
<circle clip-path="url(#clip512)" cx="448.673" cy="805.282" r="14.4" fill="#009af9" fill-rule="evenodd" fill-opacity="1" stroke="#000000" stroke-opacity="1" stroke-width="3.2"/>
<circle clip-path="url(#clip512)" cx="313.635" cy="805.282" r="14.4" fill="#009af9" fill-rule="evenodd" fill-opacity="1" stroke="#000000" stroke-opacity="1" stroke-width="3.2"/>
<circle clip-path="url(#clip512)" cx="425.128" cy="805.282" r="14.4" fill="#009af9" fill-rule="evenodd" fill-opacity="1" stroke="#000000" stroke-opacity="1" stroke-width="3.2"/>
<circle clip-path="url(#clip512)" cx="482.689" cy="811.635" r="14.4" fill="#009af9" fill-rule="evenodd" fill-opacity="1" stroke="#000000" stroke-opacity="1" stroke-width="3.2"/>
<circle clip-path="url(#clip512)" cx="302.826" cy="805.282" r="14.4" fill="#009af9" fill-rule="evenodd" fill-opacity="1" stroke="#000000" stroke-opacity="1" stroke-width="3.2"/>
<circle clip-path="url(#clip512)" cx="407.94" cy="805.282" r="14.4" fill="#009af9" fill-rule="evenodd" fill-opacity="1" stroke="#000000" stroke-opacity="1" stroke-width="3.2"/>
<circle clip-path="url(#clip512)" cx="301.869" cy="807.179" r="14.4" fill="#009af9" fill-rule="evenodd" fill-opacity="1" stroke="#000000" stroke-opacity="1" stroke-width="3.2"/>
<circle clip-path="url(#clip512)" cx="425.924" cy="807.179" r="14.4" fill="#009af9" fill-rule="evenodd" fill-opacity="1" stroke="#000000" stroke-opacity="1" stroke-width="3.2"/>
<circle clip-path="url(#clip512)" cx="339.011" cy="797.058" r="14.4" fill="#009af9" fill-rule="evenodd" fill-opacity="1" stroke="#000000" stroke-opacity="1" stroke-width="3.2"/>
<circle clip-path="url(#clip512)" cx="389.056" cy="797.058" r="14.4" fill="#009af9" fill-rule="evenodd" fill-opacity="1" stroke="#000000" stroke-opacity="1" stroke-width="3.2"/>
<circle clip-path="url(#clip512)" cx="426.675" cy="797.058" r="14.4" fill="#009af9" fill-rule="evenodd" fill-opacity="1" stroke="#000000" stroke-opacity="1" stroke-width="3.2"/>
<circle clip-path="url(#clip512)" cx="415.796" cy="816.788" r="14.4" fill="#009af9" fill-rule="evenodd" fill-opacity="1" stroke="#000000" stroke-opacity="1" stroke-width="3.2"/>
<circle clip-path="url(#clip512)" cx="310.046" cy="801.8" r="14.4" fill="#009af9" fill-rule="evenodd" fill-opacity="1" stroke="#000000" stroke-opacity="1" stroke-width="3.2"/>
<circle clip-path="url(#clip512)" cx="518.297" cy="801.8" r="14.4" fill="#009af9" fill-rule="evenodd" fill-opacity="1" stroke="#000000" stroke-opacity="1" stroke-width="3.2"/>
<circle clip-path="url(#clip512)" cx="436.716" cy="801.8" r="14.4" fill="#009af9" fill-rule="evenodd" fill-opacity="1" stroke="#000000" stroke-opacity="1" stroke-width="3.2"/>
<circle clip-path="url(#clip512)" cx="427.733" cy="814.461" r="14.4" fill="#009af9" fill-rule="evenodd" fill-opacity="1" stroke="#000000" stroke-opacity="1" stroke-width="3.2"/>
<circle clip-path="url(#clip512)" cx="436.891" cy="801.8" r="14.4" fill="#009af9" fill-rule="evenodd" fill-opacity="1" stroke="#000000" stroke-opacity="1" stroke-width="3.2"/>
<circle clip-path="url(#clip512)" cx="397.876" cy="809.594" r="14.4" fill="#009af9" fill-rule="evenodd" fill-opacity="1" stroke="#000000" stroke-opacity="1" stroke-width="3.2"/>
<circle clip-path="url(#clip512)" cx="435.93" cy="780.229" r="14.4" fill="#009af9" fill-rule="evenodd" fill-opacity="1" stroke="#000000" stroke-opacity="1" stroke-width="3.2"/>
<circle clip-path="url(#clip512)" cx="450.156" cy="809.594" r="14.4" fill="#009af9" fill-rule="evenodd" fill-opacity="1" stroke="#000000" stroke-opacity="1" stroke-width="3.2"/>
<circle clip-path="url(#clip512)" cx="306.719" cy="801.8" r="14.4" fill="#009af9" fill-rule="evenodd" fill-opacity="1" stroke="#000000" stroke-opacity="1" stroke-width="3.2"/>
<circle clip-path="url(#clip512)" cx="486.026" cy="801.8" r="14.4" fill="#009af9" fill-rule="evenodd" fill-opacity="1" stroke="#000000" stroke-opacity="1" stroke-width="3.2"/>
<circle clip-path="url(#clip512)" cx="340.656" cy="801.8" r="14.4" fill="#009af9" fill-rule="evenodd" fill-opacity="1" stroke="#000000" stroke-opacity="1" stroke-width="3.2"/>
<circle clip-path="url(#clip512)" cx="483.189" cy="801.8" r="14.4" fill="#009af9" fill-rule="evenodd" fill-opacity="1" stroke="#000000" stroke-opacity="1" stroke-width="3.2"/>
<circle clip-path="url(#clip512)" cx="370.327" cy="814.461" r="14.4" fill="#009af9" fill-rule="evenodd" fill-opacity="1" stroke="#000000" stroke-opacity="1" stroke-width="3.2"/>
<circle clip-path="url(#clip512)" cx="490.785" cy="808.837" r="14.4" fill="#009af9" fill-rule="evenodd" fill-opacity="1" stroke="#000000" stroke-opacity="1" stroke-width="3.2"/>
<circle clip-path="url(#clip512)" cx="347.706" cy="808.837" r="14.4" fill="#009af9" fill-rule="evenodd" fill-opacity="1" stroke="#000000" stroke-opacity="1" stroke-width="3.2"/>
<circle clip-path="url(#clip512)" cx="484.703" cy="813.943" r="14.4" fill="#009af9" fill-rule="evenodd" fill-opacity="1" stroke="#000000" stroke-opacity="1" stroke-width="3.2"/>
<circle clip-path="url(#clip512)" cx="494.992" cy="803.066" r="14.4" fill="#009af9" fill-rule="evenodd" fill-opacity="1" stroke="#000000" stroke-opacity="1" stroke-width="3.2"/>
<circle clip-path="url(#clip512)" cx="356.283" cy="803.066" r="14.4" fill="#009af9" fill-rule="evenodd" fill-opacity="1" stroke="#000000" stroke-opacity="1" stroke-width="3.2"/>
<circle clip-path="url(#clip512)" cx="501.545" cy="803.066" r="14.4" fill="#009af9" fill-rule="evenodd" fill-opacity="1" stroke="#000000" stroke-opacity="1" stroke-width="3.2"/>
<circle clip-path="url(#clip512)" cx="310.144" cy="810.31" r="14.4" fill="#009af9" fill-rule="evenodd" fill-opacity="1" stroke="#000000" stroke-opacity="1" stroke-width="3.2"/>
<circle clip-path="url(#clip512)" cx="415.713" cy="785.719" r="14.4" fill="#009af9" fill-rule="evenodd" fill-opacity="1" stroke="#000000" stroke-opacity="1" stroke-width="3.2"/>
<circle clip-path="url(#clip512)" cx="413.079" cy="785.719" r="14.4" fill="#009af9" fill-rule="evenodd" fill-opacity="1" stroke="#000000" stroke-opacity="1" stroke-width="3.2"/>
<circle clip-path="url(#clip512)" cx="512.929" cy="810.31" r="14.4" fill="#009af9" fill-rule="evenodd" fill-opacity="1" stroke="#000000" stroke-opacity="1" stroke-width="3.2"/>
<circle clip-path="url(#clip512)" cx="373.234" cy="785.719" r="14.4" fill="#009af9" fill-rule="evenodd" fill-opacity="1" stroke="#000000" stroke-opacity="1" stroke-width="3.2"/>
<circle clip-path="url(#clip512)" cx="345.251" cy="810.31" r="14.4" fill="#009af9" fill-rule="evenodd" fill-opacity="1" stroke="#000000" stroke-opacity="1" stroke-width="3.2"/>
<circle clip-path="url(#clip512)" cx="481.125" cy="803.066" r="14.4" fill="#009af9" fill-rule="evenodd" fill-opacity="1" stroke="#000000" stroke-opacity="1" stroke-width="3.2"/>
<circle clip-path="url(#clip512)" cx="373.547" cy="803.066" r="14.4" fill="#009af9" fill-rule="evenodd" fill-opacity="1" stroke="#000000" stroke-opacity="1" stroke-width="3.2"/>
<circle clip-path="url(#clip512)" cx="513.945" cy="803.066" r="14.4" fill="#009af9" fill-rule="evenodd" fill-opacity="1" stroke="#000000" stroke-opacity="1" stroke-width="3.2"/>
<circle clip-path="url(#clip512)" cx="357.596" cy="814.961" r="14.4" fill="#009af9" fill-rule="evenodd" fill-opacity="1" stroke="#000000" stroke-opacity="1" stroke-width="3.2"/>
<circle clip-path="url(#clip512)" cx="521.661" cy="803.066" r="14.4" fill="#009af9" fill-rule="evenodd" fill-opacity="1" stroke="#000000" stroke-opacity="1" stroke-width="3.2"/>
<circle clip-path="url(#clip512)" cx="437.84" cy="785.719" r="14.4" fill="#009af9" fill-rule="evenodd" fill-opacity="1" stroke="#000000" stroke-opacity="1" stroke-width="3.2"/>
<circle clip-path="url(#clip512)" cx="321.709" cy="810.31" r="14.4" fill="#009af9" fill-rule="evenodd" fill-opacity="1" stroke="#000000" stroke-opacity="1" stroke-width="3.2"/>
<circle clip-path="url(#clip512)" cx="522.001" cy="808.837" r="14.4" fill="#009af9" fill-rule="evenodd" fill-opacity="1" stroke="#000000" stroke-opacity="1" stroke-width="3.2"/>
<circle clip-path="url(#clip512)" cx="359.706" cy="800.401" r="14.4" fill="#009af9" fill-rule="evenodd" fill-opacity="1" stroke="#000000" stroke-opacity="1" stroke-width="3.2"/>
<circle clip-path="url(#clip512)" cx="435.464" cy="800.401" r="14.4" fill="#009af9" fill-rule="evenodd" fill-opacity="1" stroke="#000000" stroke-opacity="1" stroke-width="3.2"/>
<circle clip-path="url(#clip512)" cx="374.533" cy="800.401" r="14.4" fill="#009af9" fill-rule="evenodd" fill-opacity="1" stroke="#000000" stroke-opacity="1" stroke-width="3.2"/>
<circle clip-path="url(#clip512)" cx="347.875" cy="800.401" r="14.4" fill="#009af9" fill-rule="evenodd" fill-opacity="1" stroke="#000000" stroke-opacity="1" stroke-width="3.2"/>
<circle clip-path="url(#clip512)" cx="442.238" cy="813.943" r="14.4" fill="#009af9" fill-rule="evenodd" fill-opacity="1" stroke="#000000" stroke-opacity="1" stroke-width="3.2"/>
<circle clip-path="url(#clip512)" cx="383.678" cy="780.229" r="14.4" fill="#009af9" fill-rule="evenodd" fill-opacity="1" stroke="#000000" stroke-opacity="1" stroke-width="3.2"/>
<circle clip-path="url(#clip512)" cx="397.674" cy="780.229" r="14.4" fill="#009af9" fill-rule="evenodd" fill-opacity="1" stroke="#000000" stroke-opacity="1" stroke-width="3.2"/>
<circle clip-path="url(#clip512)" cx="442.26" cy="809.594" r="14.4" fill="#009af9" fill-rule="evenodd" fill-opacity="1" stroke="#000000" stroke-opacity="1" stroke-width="3.2"/>
<circle clip-path="url(#clip512)" cx="460.34" cy="780.229" r="14.4" fill="#009af9" fill-rule="evenodd" fill-opacity="1" stroke="#000000" stroke-opacity="1" stroke-width="3.2"/>
<circle clip-path="url(#clip512)" cx="377.455" cy="780.229" r="14.4" fill="#009af9" fill-rule="evenodd" fill-opacity="1" stroke="#000000" stroke-opacity="1" stroke-width="3.2"/>
<circle clip-path="url(#clip512)" cx="446.844" cy="809.594" r="14.4" fill="#009af9" fill-rule="evenodd" fill-opacity="1" stroke="#000000" stroke-opacity="1" stroke-width="3.2"/>
<circle clip-path="url(#clip512)" cx="427.41" cy="780.229" r="14.4" fill="#009af9" fill-rule="evenodd" fill-opacity="1" stroke="#000000" stroke-opacity="1" stroke-width="3.2"/>
<circle clip-path="url(#clip512)" cx="434.679" cy="780.229" r="14.4" fill="#009af9" fill-rule="evenodd" fill-opacity="1" stroke="#000000" stroke-opacity="1" stroke-width="3.2"/>
<circle clip-path="url(#clip512)" cx="474.239" cy="814.461" r="14.4" fill="#009af9" fill-rule="evenodd" fill-opacity="1" stroke="#000000" stroke-opacity="1" stroke-width="3.2"/>
<circle clip-path="url(#clip512)" cx="367.932" cy="801.8" r="14.4" fill="#009af9" fill-rule="evenodd" fill-opacity="1" stroke="#000000" stroke-opacity="1" stroke-width="3.2"/>
<circle clip-path="url(#clip512)" cx="492.59" cy="801.8" r="14.4" fill="#009af9" fill-rule="evenodd" fill-opacity="1" stroke="#000000" stroke-opacity="1" stroke-width="3.2"/>
<circle clip-path="url(#clip512)" cx="450.396" cy="801.8" r="14.4" fill="#009af9" fill-rule="evenodd" fill-opacity="1" stroke="#000000" stroke-opacity="1" stroke-width="3.2"/>
<circle clip-path="url(#clip512)" cx="417.955" cy="809.594" r="14.4" fill="#009af9" fill-rule="evenodd" fill-opacity="1" stroke="#000000" stroke-opacity="1" stroke-width="3.2"/>
<circle clip-path="url(#clip512)" cx="425.09" cy="780.229" r="14.4" fill="#009af9" fill-rule="evenodd" fill-opacity="1" stroke="#000000" stroke-opacity="1" stroke-width="3.2"/>
<circle clip-path="url(#clip512)" cx="374.074" cy="780.229" r="14.4" fill="#009af9" fill-rule="evenodd" fill-opacity="1" stroke="#000000" stroke-opacity="1" stroke-width="3.2"/>
<circle clip-path="url(#clip512)" cx="441.173" cy="809.594" r="14.4" fill="#009af9" fill-rule="evenodd" fill-opacity="1" stroke="#000000" stroke-opacity="1" stroke-width="3.2"/>
<circle clip-path="url(#clip512)" cx="406.255" cy="780.229" r="14.4" fill="#009af9" fill-rule="evenodd" fill-opacity="1" stroke="#000000" stroke-opacity="1" stroke-width="3.2"/>
<circle clip-path="url(#clip512)" cx="398.425" cy="780.229" r="14.4" fill="#009af9" fill-rule="evenodd" fill-opacity="1" stroke="#000000" stroke-opacity="1" stroke-width="3.2"/>
<circle clip-path="url(#clip512)" cx="321.758" cy="809.594" r="14.4" fill="#009af9" fill-rule="evenodd" fill-opacity="1" stroke="#000000" stroke-opacity="1" stroke-width="3.2"/>
<circle clip-path="url(#clip512)" cx="371.913" cy="797.058" r="14.4" fill="#009af9" fill-rule="evenodd" fill-opacity="1" stroke="#000000" stroke-opacity="1" stroke-width="3.2"/>
<circle clip-path="url(#clip512)" cx="476.068" cy="797.058" r="14.4" fill="#009af9" fill-rule="evenodd" fill-opacity="1" stroke="#000000" stroke-opacity="1" stroke-width="3.2"/>
<circle clip-path="url(#clip512)" cx="493.611" cy="812.839" r="14.4" fill="#009af9" fill-rule="evenodd" fill-opacity="1" stroke="#000000" stroke-opacity="1" stroke-width="3.2"/>
<circle clip-path="url(#clip512)" cx="453.948" cy="807.179" r="14.4" fill="#009af9" fill-rule="evenodd" fill-opacity="1" stroke="#000000" stroke-opacity="1" stroke-width="3.2"/>
<circle clip-path="url(#clip512)" cx="349.434" cy="797.058" r="14.4" fill="#009af9" fill-rule="evenodd" fill-opacity="1" stroke="#000000" stroke-opacity="1" stroke-width="3.2"/>
<circle clip-path="url(#clip512)" cx="328.994" cy="797.058" r="14.4" fill="#009af9" fill-rule="evenodd" fill-opacity="1" stroke="#000000" stroke-opacity="1" stroke-width="3.2"/>
<circle clip-path="url(#clip512)" cx="430.617" cy="797.058" r="14.4" fill="#009af9" fill-rule="evenodd" fill-opacity="1" stroke="#000000" stroke-opacity="1" stroke-width="3.2"/>
<circle clip-path="url(#clip512)" cx="500.352" cy="812.839" r="14.4" fill="#009af9" fill-rule="evenodd" fill-opacity="1" stroke="#000000" stroke-opacity="1" stroke-width="3.2"/>
<circle clip-path="url(#clip512)" cx="468.54" cy="792.571" r="14.4" fill="#009af9" fill-rule="evenodd" fill-opacity="1" stroke="#000000" stroke-opacity="1" stroke-width="3.2"/>
<circle clip-path="url(#clip512)" cx="371.959" cy="792.571" r="14.4" fill="#009af9" fill-rule="evenodd" fill-opacity="1" stroke="#000000" stroke-opacity="1" stroke-width="3.2"/>
<circle clip-path="url(#clip512)" cx="372.563" cy="792.571" r="14.4" fill="#009af9" fill-rule="evenodd" fill-opacity="1" stroke="#000000" stroke-opacity="1" stroke-width="3.2"/>
<circle clip-path="url(#clip512)" cx="382.674" cy="811.635" r="14.4" fill="#009af9" fill-rule="evenodd" fill-opacity="1" stroke="#000000" stroke-opacity="1" stroke-width="3.2"/>
<circle clip-path="url(#clip512)" cx="412.74" cy="805.282" r="14.4" fill="#009af9" fill-rule="evenodd" fill-opacity="1" stroke="#000000" stroke-opacity="1" stroke-width="3.2"/>
<circle clip-path="url(#clip512)" cx="388.981" cy="792.571" r="14.4" fill="#009af9" fill-rule="evenodd" fill-opacity="1" stroke="#000000" stroke-opacity="1" stroke-width="3.2"/>
<circle clip-path="url(#clip512)" cx="456.296" cy="792.571" r="14.4" fill="#009af9" fill-rule="evenodd" fill-opacity="1" stroke="#000000" stroke-opacity="1" stroke-width="3.2"/>
<circle clip-path="url(#clip512)" cx="399.103" cy="811.635" r="14.4" fill="#009af9" fill-rule="evenodd" fill-opacity="1" stroke="#000000" stroke-opacity="1" stroke-width="3.2"/>
<circle clip-path="url(#clip512)" cx="410.283" cy="806.265" r="14.4" fill="#009af9" fill-rule="evenodd" fill-opacity="1" stroke="#000000" stroke-opacity="1" stroke-width="3.2"/>
<circle clip-path="url(#clip512)" cx="504.316" cy="806.265" r="14.4" fill="#009af9" fill-rule="evenodd" fill-opacity="1" stroke="#000000" stroke-opacity="1" stroke-width="3.2"/>
<circle clip-path="url(#clip512)" cx="524.411" cy="806.265" r="14.4" fill="#009af9" fill-rule="evenodd" fill-opacity="1" stroke="#000000" stroke-opacity="1" stroke-width="3.2"/>
<circle clip-path="url(#clip512)" cx="366.818" cy="812.251" r="14.4" fill="#009af9" fill-rule="evenodd" fill-opacity="1" stroke="#000000" stroke-opacity="1" stroke-width="3.2"/>
<circle clip-path="url(#clip512)" cx="510.867" cy="806.265" r="14.4" fill="#009af9" fill-rule="evenodd" fill-opacity="1" stroke="#000000" stroke-opacity="1" stroke-width="3.2"/>
<circle clip-path="url(#clip512)" cx="302.752" cy="806.265" r="14.4" fill="#009af9" fill-rule="evenodd" fill-opacity="1" stroke="#000000" stroke-opacity="1" stroke-width="3.2"/>
<circle clip-path="url(#clip512)" cx="482.579" cy="806.265" r="14.4" fill="#009af9" fill-rule="evenodd" fill-opacity="1" stroke="#000000" stroke-opacity="1" stroke-width="3.2"/>
<circle clip-path="url(#clip512)" cx="370.416" cy="780.229" r="14.4" fill="#009af9" fill-rule="evenodd" fill-opacity="1" stroke="#000000" stroke-opacity="1" stroke-width="3.2"/>
<circle clip-path="url(#clip512)" cx="390.685" cy="780.229" r="14.4" fill="#009af9" fill-rule="evenodd" fill-opacity="1" stroke="#000000" stroke-opacity="1" stroke-width="3.2"/>
<circle clip-path="url(#clip512)" cx="433.155" cy="785.719" r="14.4" fill="#009af9" fill-rule="evenodd" fill-opacity="1" stroke="#000000" stroke-opacity="1" stroke-width="3.2"/>
<circle clip-path="url(#clip512)" cx="418.616" cy="780.229" r="14.4" fill="#009af9" fill-rule="evenodd" fill-opacity="1" stroke="#000000" stroke-opacity="1" stroke-width="3.2"/>
<circle clip-path="url(#clip512)" cx="1640.99" cy="697.727" r="14.4" fill="#009af9" fill-rule="evenodd" fill-opacity="1" stroke="#000000" stroke-opacity="1" stroke-width="3.2"/>
<circle clip-path="url(#clip512)" cx="1663.53" cy="697.727" r="14.4" fill="#009af9" fill-rule="evenodd" fill-opacity="1" stroke="#000000" stroke-opacity="1" stroke-width="3.2"/>
<circle clip-path="url(#clip512)" cx="1616.16" cy="697.727" r="14.4" fill="#009af9" fill-rule="evenodd" fill-opacity="1" stroke="#000000" stroke-opacity="1" stroke-width="3.2"/>
<circle clip-path="url(#clip512)" cx="1653.5" cy="697.727" r="14.4" fill="#009af9" fill-rule="evenodd" fill-opacity="1" stroke="#000000" stroke-opacity="1" stroke-width="3.2"/>
<circle clip-path="url(#clip512)" cx="1660.21" cy="697.727" r="14.4" fill="#009af9" fill-rule="evenodd" fill-opacity="1" stroke="#000000" stroke-opacity="1" stroke-width="3.2"/>
<circle clip-path="url(#clip512)" cx="1616.61" cy="697.727" r="14.4" fill="#009af9" fill-rule="evenodd" fill-opacity="1" stroke="#000000" stroke-opacity="1" stroke-width="3.2"/>
<circle clip-path="url(#clip512)" cx="1646.83" cy="697.727" r="14.4" fill="#009af9" fill-rule="evenodd" fill-opacity="1" stroke="#000000" stroke-opacity="1" stroke-width="3.2"/>
<circle clip-path="url(#clip512)" cx="1622.99" cy="697.727" r="14.4" fill="#009af9" fill-rule="evenodd" fill-opacity="1" stroke="#000000" stroke-opacity="1" stroke-width="3.2"/>
<circle clip-path="url(#clip512)" cx="1617.03" cy="697.727" r="14.4" fill="#009af9" fill-rule="evenodd" fill-opacity="1" stroke="#000000" stroke-opacity="1" stroke-width="3.2"/>
<circle clip-path="url(#clip512)" cx="1685.11" cy="689.168" r="14.4" fill="#009af9" fill-rule="evenodd" fill-opacity="1" stroke="#000000" stroke-opacity="1" stroke-width="3.2"/>
<circle clip-path="url(#clip512)" cx="1606.8" cy="684.018" r="14.4" fill="#009af9" fill-rule="evenodd" fill-opacity="1" stroke="#000000" stroke-opacity="1" stroke-width="3.2"/>
<circle clip-path="url(#clip512)" cx="1650.65" cy="656.268" r="14.4" fill="#009af9" fill-rule="evenodd" fill-opacity="1" stroke="#000000" stroke-opacity="1" stroke-width="3.2"/>
<circle clip-path="url(#clip512)" cx="1639.96" cy="675.076" r="14.4" fill="#009af9" fill-rule="evenodd" fill-opacity="1" stroke="#000000" stroke-opacity="1" stroke-width="3.2"/>
<circle clip-path="url(#clip512)" cx="1658.92" cy="675.076" r="14.4" fill="#009af9" fill-rule="evenodd" fill-opacity="1" stroke="#000000" stroke-opacity="1" stroke-width="3.2"/>
<circle clip-path="url(#clip512)" cx="1642.49" cy="658.079" r="14.4" fill="#009af9" fill-rule="evenodd" fill-opacity="1" stroke="#000000" stroke-opacity="1" stroke-width="3.2"/>
<circle clip-path="url(#clip512)" cx="1554.18" cy="664.012" r="14.4" fill="#009af9" fill-rule="evenodd" fill-opacity="1" stroke="#000000" stroke-opacity="1" stroke-width="3.2"/>
<circle clip-path="url(#clip512)" cx="1660.86" cy="675.076" r="14.4" fill="#009af9" fill-rule="evenodd" fill-opacity="1" stroke="#000000" stroke-opacity="1" stroke-width="3.2"/>
<circle clip-path="url(#clip512)" cx="1578.05" cy="675.076" r="14.4" fill="#009af9" fill-rule="evenodd" fill-opacity="1" stroke="#000000" stroke-opacity="1" stroke-width="3.2"/>
<circle clip-path="url(#clip512)" cx="1568.37" cy="675.076" r="14.4" fill="#009af9" fill-rule="evenodd" fill-opacity="1" stroke="#000000" stroke-opacity="1" stroke-width="3.2"/>
<circle clip-path="url(#clip512)" cx="1578.19" cy="658.079" r="14.4" fill="#009af9" fill-rule="evenodd" fill-opacity="1" stroke="#000000" stroke-opacity="1" stroke-width="3.2"/>
<circle clip-path="url(#clip512)" cx="1702.59" cy="675.076" r="14.4" fill="#009af9" fill-rule="evenodd" fill-opacity="1" stroke="#000000" stroke-opacity="1" stroke-width="3.2"/>
<circle clip-path="url(#clip512)" cx="1669.81" cy="675.076" r="14.4" fill="#009af9" fill-rule="evenodd" fill-opacity="1" stroke="#000000" stroke-opacity="1" stroke-width="3.2"/>
<circle clip-path="url(#clip512)" cx="1624.74" cy="675.076" r="14.4" fill="#009af9" fill-rule="evenodd" fill-opacity="1" stroke="#000000" stroke-opacity="1" stroke-width="3.2"/>
<circle clip-path="url(#clip512)" cx="1564" cy="658.079" r="14.4" fill="#009af9" fill-rule="evenodd" fill-opacity="1" stroke="#000000" stroke-opacity="1" stroke-width="3.2"/>
<circle clip-path="url(#clip512)" cx="1556.3" cy="664.012" r="14.4" fill="#009af9" fill-rule="evenodd" fill-opacity="1" stroke="#000000" stroke-opacity="1" stroke-width="3.2"/>
<circle clip-path="url(#clip512)" cx="1692.24" cy="675.076" r="14.4" fill="#009af9" fill-rule="evenodd" fill-opacity="1" stroke="#000000" stroke-opacity="1" stroke-width="3.2"/>
<circle clip-path="url(#clip512)" cx="1715.52" cy="675.076" r="14.4" fill="#009af9" fill-rule="evenodd" fill-opacity="1" stroke="#000000" stroke-opacity="1" stroke-width="3.2"/>
<circle clip-path="url(#clip512)" cx="1645.16" cy="658.079" r="14.4" fill="#009af9" fill-rule="evenodd" fill-opacity="1" stroke="#000000" stroke-opacity="1" stroke-width="3.2"/>
<circle clip-path="url(#clip512)" cx="1579.99" cy="664.983" r="14.4" fill="#009af9" fill-rule="evenodd" fill-opacity="1" stroke="#000000" stroke-opacity="1" stroke-width="3.2"/>
<circle clip-path="url(#clip512)" cx="1614.78" cy="664.983" r="14.4" fill="#009af9" fill-rule="evenodd" fill-opacity="1" stroke="#000000" stroke-opacity="1" stroke-width="3.2"/>
<circle clip-path="url(#clip512)" cx="1625.15" cy="664.983" r="14.4" fill="#009af9" fill-rule="evenodd" fill-opacity="1" stroke="#000000" stroke-opacity="1" stroke-width="3.2"/>
<circle clip-path="url(#clip512)" cx="1604.92" cy="658.69" r="14.4" fill="#009af9" fill-rule="evenodd" fill-opacity="1" stroke="#000000" stroke-opacity="1" stroke-width="3.2"/>
<circle clip-path="url(#clip512)" cx="1596.82" cy="664.983" r="14.4" fill="#009af9" fill-rule="evenodd" fill-opacity="1" stroke="#000000" stroke-opacity="1" stroke-width="3.2"/>
<circle clip-path="url(#clip512)" cx="1652.84" cy="664.983" r="14.4" fill="#009af9" fill-rule="evenodd" fill-opacity="1" stroke="#000000" stroke-opacity="1" stroke-width="3.2"/>
<circle clip-path="url(#clip512)" cx="1689.43" cy="663.107" r="14.4" fill="#009af9" fill-rule="evenodd" fill-opacity="1" stroke="#000000" stroke-opacity="1" stroke-width="3.2"/>
<circle clip-path="url(#clip512)" cx="1754.94" cy="663.107" r="14.4" fill="#009af9" fill-rule="evenodd" fill-opacity="1" stroke="#000000" stroke-opacity="1" stroke-width="3.2"/>
<circle clip-path="url(#clip512)" cx="1583.25" cy="673.071" r="14.4" fill="#009af9" fill-rule="evenodd" fill-opacity="1" stroke="#000000" stroke-opacity="1" stroke-width="3.2"/>
<circle clip-path="url(#clip512)" cx="1730.74" cy="673.071" r="14.4" fill="#009af9" fill-rule="evenodd" fill-opacity="1" stroke="#000000" stroke-opacity="1" stroke-width="3.2"/>
<circle clip-path="url(#clip512)" cx="1662.2" cy="673.071" r="14.4" fill="#009af9" fill-rule="evenodd" fill-opacity="1" stroke="#000000" stroke-opacity="1" stroke-width="3.2"/>
<circle clip-path="url(#clip512)" cx="1650.8" cy="653.569" r="14.4" fill="#009af9" fill-rule="evenodd" fill-opacity="1" stroke="#000000" stroke-opacity="1" stroke-width="3.2"/>
<circle clip-path="url(#clip512)" cx="1536.54" cy="668.417" r="14.4" fill="#009af9" fill-rule="evenodd" fill-opacity="1" stroke="#000000" stroke-opacity="1" stroke-width="3.2"/>
<circle clip-path="url(#clip512)" cx="1548.45" cy="668.417" r="14.4" fill="#009af9" fill-rule="evenodd" fill-opacity="1" stroke="#000000" stroke-opacity="1" stroke-width="3.2"/>
<circle clip-path="url(#clip512)" cx="1711.49" cy="668.417" r="14.4" fill="#009af9" fill-rule="evenodd" fill-opacity="1" stroke="#000000" stroke-opacity="1" stroke-width="3.2"/>
<circle clip-path="url(#clip512)" cx="1627.82" cy="655.883" r="14.4" fill="#009af9" fill-rule="evenodd" fill-opacity="1" stroke="#000000" stroke-opacity="1" stroke-width="3.2"/>
<circle clip-path="url(#clip512)" cx="1618.27" cy="668.417" r="14.4" fill="#009af9" fill-rule="evenodd" fill-opacity="1" stroke="#000000" stroke-opacity="1" stroke-width="3.2"/>
<circle clip-path="url(#clip512)" cx="1594.98" cy="660.715" r="14.4" fill="#009af9" fill-rule="evenodd" fill-opacity="1" stroke="#000000" stroke-opacity="1" stroke-width="3.2"/>
<circle clip-path="url(#clip512)" cx="1636.96" cy="689.168" r="14.4" fill="#009af9" fill-rule="evenodd" fill-opacity="1" stroke="#000000" stroke-opacity="1" stroke-width="3.2"/>
<circle clip-path="url(#clip512)" cx="1714.72" cy="660.715" r="14.4" fill="#009af9" fill-rule="evenodd" fill-opacity="1" stroke="#000000" stroke-opacity="1" stroke-width="3.2"/>
<circle clip-path="url(#clip512)" cx="1684.88" cy="668.417" r="14.4" fill="#009af9" fill-rule="evenodd" fill-opacity="1" stroke="#000000" stroke-opacity="1" stroke-width="3.2"/>
<circle clip-path="url(#clip512)" cx="1608.67" cy="668.417" r="14.4" fill="#009af9" fill-rule="evenodd" fill-opacity="1" stroke="#000000" stroke-opacity="1" stroke-width="3.2"/>
<circle clip-path="url(#clip512)" cx="1640.68" cy="668.417" r="14.4" fill="#009af9" fill-rule="evenodd" fill-opacity="1" stroke="#000000" stroke-opacity="1" stroke-width="3.2"/>
<circle clip-path="url(#clip512)" cx="1694.47" cy="668.417" r="14.4" fill="#009af9" fill-rule="evenodd" fill-opacity="1" stroke="#000000" stroke-opacity="1" stroke-width="3.2"/>
<circle clip-path="url(#clip512)" cx="1643.16" cy="655.883" r="14.4" fill="#009af9" fill-rule="evenodd" fill-opacity="1" stroke="#000000" stroke-opacity="1" stroke-width="3.2"/>
<circle clip-path="url(#clip512)" cx="1600.4" cy="661.465" r="14.4" fill="#009af9" fill-rule="evenodd" fill-opacity="1" stroke="#000000" stroke-opacity="1" stroke-width="3.2"/>
<circle clip-path="url(#clip512)" cx="1532.51" cy="661.465" r="14.4" fill="#009af9" fill-rule="evenodd" fill-opacity="1" stroke="#000000" stroke-opacity="1" stroke-width="3.2"/>
<circle clip-path="url(#clip512)" cx="1619.4" cy="656.399" r="14.4" fill="#009af9" fill-rule="evenodd" fill-opacity="1" stroke="#000000" stroke-opacity="1" stroke-width="3.2"/>
<circle clip-path="url(#clip512)" cx="1632.99" cy="667.17" r="14.4" fill="#009af9" fill-rule="evenodd" fill-opacity="1" stroke="#000000" stroke-opacity="1" stroke-width="3.2"/>
<circle clip-path="url(#clip512)" cx="1736.59" cy="667.17" r="14.4" fill="#009af9" fill-rule="evenodd" fill-opacity="1" stroke="#000000" stroke-opacity="1" stroke-width="3.2"/>
<circle clip-path="url(#clip512)" cx="1692.41" cy="667.17" r="14.4" fill="#009af9" fill-rule="evenodd" fill-opacity="1" stroke="#000000" stroke-opacity="1" stroke-width="3.2"/>
<circle clip-path="url(#clip512)" cx="1748.72" cy="660.005" r="14.4" fill="#009af9" fill-rule="evenodd" fill-opacity="1" stroke="#000000" stroke-opacity="1" stroke-width="3.2"/>
<circle clip-path="url(#clip512)" cx="1640.85" cy="684.018" r="14.4" fill="#009af9" fill-rule="evenodd" fill-opacity="1" stroke="#000000" stroke-opacity="1" stroke-width="3.2"/>
<circle clip-path="url(#clip512)" cx="1614.8" cy="684.018" r="14.4" fill="#009af9" fill-rule="evenodd" fill-opacity="1" stroke="#000000" stroke-opacity="1" stroke-width="3.2"/>
<circle clip-path="url(#clip512)" cx="1621.39" cy="660.005" r="14.4" fill="#009af9" fill-rule="evenodd" fill-opacity="1" stroke="#000000" stroke-opacity="1" stroke-width="3.2"/>
<circle clip-path="url(#clip512)" cx="1651.29" cy="684.018" r="14.4" fill="#009af9" fill-rule="evenodd" fill-opacity="1" stroke="#000000" stroke-opacity="1" stroke-width="3.2"/>
<circle clip-path="url(#clip512)" cx="1739.62" cy="660.005" r="14.4" fill="#009af9" fill-rule="evenodd" fill-opacity="1" stroke="#000000" stroke-opacity="1" stroke-width="3.2"/>
<circle clip-path="url(#clip512)" cx="1651.13" cy="667.17" r="14.4" fill="#009af9" fill-rule="evenodd" fill-opacity="1" stroke="#000000" stroke-opacity="1" stroke-width="3.2"/>
<circle clip-path="url(#clip512)" cx="1682.62" cy="667.17" r="14.4" fill="#009af9" fill-rule="evenodd" fill-opacity="1" stroke="#000000" stroke-opacity="1" stroke-width="3.2"/>
<circle clip-path="url(#clip512)" cx="1708.66" cy="667.17" r="14.4" fill="#009af9" fill-rule="evenodd" fill-opacity="1" stroke="#000000" stroke-opacity="1" stroke-width="3.2"/>
<circle clip-path="url(#clip512)" cx="1578.82" cy="655.387" r="14.4" fill="#009af9" fill-rule="evenodd" fill-opacity="1" stroke="#000000" stroke-opacity="1" stroke-width="3.2"/>
<circle clip-path="url(#clip512)" cx="1706.54" cy="667.17" r="14.4" fill="#009af9" fill-rule="evenodd" fill-opacity="1" stroke="#000000" stroke-opacity="1" stroke-width="3.2"/>
<circle clip-path="url(#clip512)" cx="1659.41" cy="684.018" r="14.4" fill="#009af9" fill-rule="evenodd" fill-opacity="1" stroke="#000000" stroke-opacity="1" stroke-width="3.2"/>
<circle clip-path="url(#clip512)" cx="1625.74" cy="660.005" r="14.4" fill="#009af9" fill-rule="evenodd" fill-opacity="1" stroke="#000000" stroke-opacity="1" stroke-width="3.2"/>
<circle clip-path="url(#clip512)" cx="1599.41" cy="661.465" r="14.4" fill="#009af9" fill-rule="evenodd" fill-opacity="1" stroke="#000000" stroke-opacity="1" stroke-width="3.2"/>
<circle clip-path="url(#clip512)" cx="1700.1" cy="669.793" r="14.4" fill="#009af9" fill-rule="evenodd" fill-opacity="1" stroke="#000000" stroke-opacity="1" stroke-width="3.2"/>
<circle clip-path="url(#clip512)" cx="1611.55" cy="669.793" r="14.4" fill="#009af9" fill-rule="evenodd" fill-opacity="1" stroke="#000000" stroke-opacity="1" stroke-width="3.2"/>
<circle clip-path="url(#clip512)" cx="1571.97" cy="669.793" r="14.4" fill="#009af9" fill-rule="evenodd" fill-opacity="1" stroke="#000000" stroke-opacity="1" stroke-width="3.2"/>
<circle clip-path="url(#clip512)" cx="1595.73" cy="669.793" r="14.4" fill="#009af9" fill-rule="evenodd" fill-opacity="1" stroke="#000000" stroke-opacity="1" stroke-width="3.2"/>
<circle clip-path="url(#clip512)" cx="1710.17" cy="656.399" r="14.4" fill="#009af9" fill-rule="evenodd" fill-opacity="1" stroke="#000000" stroke-opacity="1" stroke-width="3.2"/>
<circle clip-path="url(#clip512)" cx="1656.86" cy="689.168" r="14.4" fill="#009af9" fill-rule="evenodd" fill-opacity="1" stroke="#000000" stroke-opacity="1" stroke-width="3.2"/>
<circle clip-path="url(#clip512)" cx="1651.42" cy="689.168" r="14.4" fill="#009af9" fill-rule="evenodd" fill-opacity="1" stroke="#000000" stroke-opacity="1" stroke-width="3.2"/>
<circle clip-path="url(#clip512)" cx="1642.07" cy="660.715" r="14.4" fill="#009af9" fill-rule="evenodd" fill-opacity="1" stroke="#000000" stroke-opacity="1" stroke-width="3.2"/>
<circle clip-path="url(#clip512)" cx="1688.51" cy="689.168" r="14.4" fill="#009af9" fill-rule="evenodd" fill-opacity="1" stroke="#000000" stroke-opacity="1" stroke-width="3.2"/>
<circle clip-path="url(#clip512)" cx="1646.34" cy="689.168" r="14.4" fill="#009af9" fill-rule="evenodd" fill-opacity="1" stroke="#000000" stroke-opacity="1" stroke-width="3.2"/>
<circle clip-path="url(#clip512)" cx="1713.47" cy="660.715" r="14.4" fill="#009af9" fill-rule="evenodd" fill-opacity="1" stroke="#000000" stroke-opacity="1" stroke-width="3.2"/>
<circle clip-path="url(#clip512)" cx="1664.56" cy="689.168" r="14.4" fill="#009af9" fill-rule="evenodd" fill-opacity="1" stroke="#000000" stroke-opacity="1" stroke-width="3.2"/>
<circle clip-path="url(#clip512)" cx="1668.54" cy="689.168" r="14.4" fill="#009af9" fill-rule="evenodd" fill-opacity="1" stroke="#000000" stroke-opacity="1" stroke-width="3.2"/>
<circle clip-path="url(#clip512)" cx="1575.92" cy="655.883" r="14.4" fill="#009af9" fill-rule="evenodd" fill-opacity="1" stroke="#000000" stroke-opacity="1" stroke-width="3.2"/>
<circle clip-path="url(#clip512)" cx="1636.79" cy="668.417" r="14.4" fill="#009af9" fill-rule="evenodd" fill-opacity="1" stroke="#000000" stroke-opacity="1" stroke-width="3.2"/>
<circle clip-path="url(#clip512)" cx="1591.72" cy="668.417" r="14.4" fill="#009af9" fill-rule="evenodd" fill-opacity="1" stroke="#000000" stroke-opacity="1" stroke-width="3.2"/>
<circle clip-path="url(#clip512)" cx="1563.33" cy="668.417" r="14.4" fill="#009af9" fill-rule="evenodd" fill-opacity="1" stroke="#000000" stroke-opacity="1" stroke-width="3.2"/>
<circle clip-path="url(#clip512)" cx="1535.46" cy="660.715" r="14.4" fill="#009af9" fill-rule="evenodd" fill-opacity="1" stroke="#000000" stroke-opacity="1" stroke-width="3.2"/>
<circle clip-path="url(#clip512)" cx="1690.1" cy="689.168" r="14.4" fill="#009af9" fill-rule="evenodd" fill-opacity="1" stroke="#000000" stroke-opacity="1" stroke-width="3.2"/>
<circle clip-path="url(#clip512)" cx="1690.88" cy="689.168" r="14.4" fill="#009af9" fill-rule="evenodd" fill-opacity="1" stroke="#000000" stroke-opacity="1" stroke-width="3.2"/>
<circle clip-path="url(#clip512)" cx="1730.25" cy="660.715" r="14.4" fill="#009af9" fill-rule="evenodd" fill-opacity="1" stroke="#000000" stroke-opacity="1" stroke-width="3.2"/>
<circle clip-path="url(#clip512)" cx="1610.79" cy="689.168" r="14.4" fill="#009af9" fill-rule="evenodd" fill-opacity="1" stroke="#000000" stroke-opacity="1" stroke-width="3.2"/>
<circle clip-path="url(#clip512)" cx="1595.58" cy="689.168" r="14.4" fill="#009af9" fill-rule="evenodd" fill-opacity="1" stroke="#000000" stroke-opacity="1" stroke-width="3.2"/>
<circle clip-path="url(#clip512)" cx="1690.34" cy="660.715" r="14.4" fill="#009af9" fill-rule="evenodd" fill-opacity="1" stroke="#000000" stroke-opacity="1" stroke-width="3.2"/>
<circle clip-path="url(#clip512)" cx="1721.56" cy="673.071" r="14.4" fill="#009af9" fill-rule="evenodd" fill-opacity="1" stroke="#000000" stroke-opacity="1" stroke-width="3.2"/>
<circle clip-path="url(#clip512)" cx="1570.3" cy="673.071" r="14.4" fill="#009af9" fill-rule="evenodd" fill-opacity="1" stroke="#000000" stroke-opacity="1" stroke-width="3.2"/>
<circle clip-path="url(#clip512)" cx="1670.14" cy="657.495" r="14.4" fill="#009af9" fill-rule="evenodd" fill-opacity="1" stroke="#000000" stroke-opacity="1" stroke-width="3.2"/>
<circle clip-path="url(#clip512)" cx="1670.27" cy="663.107" r="14.4" fill="#009af9" fill-rule="evenodd" fill-opacity="1" stroke="#000000" stroke-opacity="1" stroke-width="3.2"/>
<circle clip-path="url(#clip512)" cx="1563.66" cy="673.071" r="14.4" fill="#009af9" fill-rule="evenodd" fill-opacity="1" stroke="#000000" stroke-opacity="1" stroke-width="3.2"/>
<circle clip-path="url(#clip512)" cx="1617.89" cy="673.071" r="14.4" fill="#009af9" fill-rule="evenodd" fill-opacity="1" stroke="#000000" stroke-opacity="1" stroke-width="3.2"/>
<circle clip-path="url(#clip512)" cx="1560.24" cy="673.071" r="14.4" fill="#009af9" fill-rule="evenodd" fill-opacity="1" stroke="#000000" stroke-opacity="1" stroke-width="3.2"/>
<circle clip-path="url(#clip512)" cx="1626.42" cy="657.495" r="14.4" fill="#009af9" fill-rule="evenodd" fill-opacity="1" stroke="#000000" stroke-opacity="1" stroke-width="3.2"/>
<circle clip-path="url(#clip512)" cx="1606.98" cy="677.441" r="14.4" fill="#009af9" fill-rule="evenodd" fill-opacity="1" stroke="#000000" stroke-opacity="1" stroke-width="3.2"/>
<circle clip-path="url(#clip512)" cx="1683.58" cy="677.441" r="14.4" fill="#009af9" fill-rule="evenodd" fill-opacity="1" stroke="#000000" stroke-opacity="1" stroke-width="3.2"/>
<circle clip-path="url(#clip512)" cx="1687.07" cy="677.441" r="14.4" fill="#009af9" fill-rule="evenodd" fill-opacity="1" stroke="#000000" stroke-opacity="1" stroke-width="3.2"/>
<circle clip-path="url(#clip512)" cx="1622.59" cy="658.69" r="14.4" fill="#009af9" fill-rule="evenodd" fill-opacity="1" stroke="#000000" stroke-opacity="1" stroke-width="3.2"/>
<circle clip-path="url(#clip512)" cx="1699.2" cy="664.983" r="14.4" fill="#009af9" fill-rule="evenodd" fill-opacity="1" stroke="#000000" stroke-opacity="1" stroke-width="3.2"/>
<circle clip-path="url(#clip512)" cx="1582.29" cy="677.441" r="14.4" fill="#009af9" fill-rule="evenodd" fill-opacity="1" stroke="#000000" stroke-opacity="1" stroke-width="3.2"/>
<circle clip-path="url(#clip512)" cx="1665.31" cy="677.441" r="14.4" fill="#009af9" fill-rule="evenodd" fill-opacity="1" stroke="#000000" stroke-opacity="1" stroke-width="3.2"/>
<circle clip-path="url(#clip512)" cx="1741.63" cy="658.69" r="14.4" fill="#009af9" fill-rule="evenodd" fill-opacity="1" stroke="#000000" stroke-opacity="1" stroke-width="3.2"/>
<circle clip-path="url(#clip512)" cx="1633.56" cy="664.012" r="14.4" fill="#009af9" fill-rule="evenodd" fill-opacity="1" stroke="#000000" stroke-opacity="1" stroke-width="3.2"/>
<circle clip-path="url(#clip512)" cx="1741.29" cy="664.012" r="14.4" fill="#009af9" fill-rule="evenodd" fill-opacity="1" stroke="#000000" stroke-opacity="1" stroke-width="3.2"/>
<circle clip-path="url(#clip512)" cx="1701.57" cy="664.012" r="14.4" fill="#009af9" fill-rule="evenodd" fill-opacity="1" stroke="#000000" stroke-opacity="1" stroke-width="3.2"/>
<circle clip-path="url(#clip512)" cx="1551.03" cy="658.079" r="14.4" fill="#009af9" fill-rule="evenodd" fill-opacity="1" stroke="#000000" stroke-opacity="1" stroke-width="3.2"/>
<circle clip-path="url(#clip512)" cx="1662.91" cy="664.012" r="14.4" fill="#009af9" fill-rule="evenodd" fill-opacity="1" stroke="#000000" stroke-opacity="1" stroke-width="3.2"/>
<circle clip-path="url(#clip512)" cx="1710.08" cy="664.012" r="14.4" fill="#009af9" fill-rule="evenodd" fill-opacity="1" stroke="#000000" stroke-opacity="1" stroke-width="3.2"/>
<circle clip-path="url(#clip512)" cx="1687.21" cy="664.012" r="14.4" fill="#009af9" fill-rule="evenodd" fill-opacity="1" stroke="#000000" stroke-opacity="1" stroke-width="3.2"/>
<circle clip-path="url(#clip512)" cx="1641.36" cy="689.168" r="14.4" fill="#009af9" fill-rule="evenodd" fill-opacity="1" stroke="#000000" stroke-opacity="1" stroke-width="3.2"/>
<circle clip-path="url(#clip512)" cx="1640.78" cy="689.168" r="14.4" fill="#009af9" fill-rule="evenodd" fill-opacity="1" stroke="#000000" stroke-opacity="1" stroke-width="3.2"/>
<circle clip-path="url(#clip512)" cx="1630.75" cy="684.018" r="14.4" fill="#009af9" fill-rule="evenodd" fill-opacity="1" stroke="#000000" stroke-opacity="1" stroke-width="3.2"/>
<circle clip-path="url(#clip512)" cx="1642.01" cy="689.168" r="14.4" fill="#009af9" fill-rule="evenodd" fill-opacity="1" stroke="#000000" stroke-opacity="1" stroke-width="3.2"/>
<circle clip-path="url(#clip512)" cx="990.342" cy="1365.94" r="14.4" fill="#e26f46" fill-rule="evenodd" fill-opacity="1" stroke="#000000" stroke-opacity="1" stroke-width="3.2"/>
<circle clip-path="url(#clip512)" cx="1094.03" cy="1338.49" r="14.4" fill="#e26f46" fill-rule="evenodd" fill-opacity="1" stroke="#000000" stroke-opacity="1" stroke-width="3.2"/>
<circle clip-path="url(#clip512)" cx="1084.32" cy="1347.53" r="14.4" fill="#e26f46" fill-rule="evenodd" fill-opacity="1" stroke="#000000" stroke-opacity="1" stroke-width="3.2"/>
<circle clip-path="url(#clip512)" cx="1094.27" cy="1347.5" r="14.4" fill="#e26f46" fill-rule="evenodd" fill-opacity="1" stroke="#000000" stroke-opacity="1" stroke-width="3.2"/>
<circle clip-path="url(#clip512)" cx="1001.77" cy="1384.24" r="14.4" fill="#e26f46" fill-rule="evenodd" fill-opacity="1" stroke="#000000" stroke-opacity="1" stroke-width="3.2"/>
<circle clip-path="url(#clip512)" cx="1059.52" cy="1338.18" r="14.4" fill="#e26f46" fill-rule="evenodd" fill-opacity="1" stroke="#000000" stroke-opacity="1" stroke-width="3.2"/>
<circle clip-path="url(#clip512)" cx="2208.11" cy="104.486" r="14.4" fill="#e26f46" fill-rule="evenodd" fill-opacity="1" stroke="#000000" stroke-opacity="1" stroke-width="3.2"/>
<circle clip-path="url(#clip512)" cx="2195.97" cy="131.933" r="14.4" fill="#e26f46" fill-rule="evenodd" fill-opacity="1" stroke="#000000" stroke-opacity="1" stroke-width="3.2"/>
<circle clip-path="url(#clip512)" cx="2172.2" cy="122.898" r="14.4" fill="#e26f46" fill-rule="evenodd" fill-opacity="1" stroke="#000000" stroke-opacity="1" stroke-width="3.2"/>
<circle clip-path="url(#clip512)" cx="2175.72" cy="122.926" r="14.4" fill="#e26f46" fill-rule="evenodd" fill-opacity="1" stroke="#000000" stroke-opacity="1" stroke-width="3.2"/>
<circle clip-path="url(#clip512)" cx="2263.94" cy="86.1857" r="14.4" fill="#e26f46" fill-rule="evenodd" fill-opacity="1" stroke="#000000" stroke-opacity="1" stroke-width="3.2"/>
<circle clip-path="url(#clip512)" cx="2293.02" cy="132.241" r="14.4" fill="#e26f46" fill-rule="evenodd" fill-opacity="1" stroke="#000000" stroke-opacity="1" stroke-width="3.2"/>
<polyline clip-path="url(#clip512)" style="stroke:#808080; stroke-linecap:round; stroke-linejoin:round; stroke-width:4; stroke-opacity:1; fill:none" stroke-dasharray="16, 10" points="1334.26,2799.12 1334.26,-1328.69 "/>
<path clip-path="url(#clip510)" d="M312.489 248.629 L669.221 248.629 L669.221 93.1086 L312.489 93.1086  Z" fill="#ffffff" fill-rule="evenodd" fill-opacity="1"/>
<polyline clip-path="url(#clip510)" style="stroke:#000000; stroke-linecap:round; stroke-linejoin:round; stroke-width:4; stroke-opacity:1; fill:none" points="312.489,248.629 669.221,248.629 669.221,93.1086 312.489,93.1086 312.489,248.629 "/>
<circle clip-path="url(#clip510)" cx="406.294" cy="144.949" r="20.48" fill="#009af9" fill-rule="evenodd" fill-opacity="1" stroke="#000000" stroke-opacity="1" stroke-width="4.55111"/>
<path clip-path="url(#clip510)" d="M522.345 128.803 L522.345 133.363 Q519.683 132.09 517.322 131.465 Q514.961 130.84 512.761 130.84 Q508.942 130.84 506.859 132.321 Q504.799 133.803 504.799 136.534 Q504.799 138.826 506.164 140.007 Q507.553 141.164 511.396 141.882 L514.22 142.46 Q519.451 143.456 521.928 145.979 Q524.428 148.479 524.428 152.692 Q524.428 157.715 521.048 160.307 Q517.692 162.9 511.187 162.9 Q508.734 162.9 505.956 162.344 Q503.201 161.789 500.238 160.701 L500.238 155.886 Q503.086 157.483 505.817 158.293 Q508.549 159.104 511.187 159.104 Q515.192 159.104 517.368 157.53 Q519.544 155.956 519.544 153.039 Q519.544 150.493 517.97 149.057 Q516.419 147.622 512.854 146.905 L510.007 146.349 Q504.775 145.307 502.437 143.085 Q500.099 140.863 500.099 136.905 Q500.099 132.321 503.317 129.682 Q506.558 127.044 512.229 127.044 Q514.66 127.044 517.183 127.483 Q519.706 127.923 522.345 128.803 Z" fill="#000000" fill-rule="nonzero" fill-opacity="1" /><path clip-path="url(#clip510)" d="M535.747 128.942 L535.747 136.303 L544.521 136.303 L544.521 139.613 L535.747 139.613 L535.747 153.687 Q535.747 156.858 536.604 157.761 Q537.484 158.664 540.146 158.664 L544.521 158.664 L544.521 162.229 L540.146 162.229 Q535.215 162.229 533.34 160.4 Q531.465 158.548 531.465 153.687 L531.465 139.613 L528.34 139.613 L528.34 136.303 L531.465 136.303 L531.465 128.942 L535.747 128.942 Z" fill="#000000" fill-rule="nonzero" fill-opacity="1" /><path clip-path="url(#clip510)" d="M572.298 148.201 L572.298 150.284 L552.715 150.284 Q552.993 154.682 555.354 156.997 Q557.738 159.289 561.974 159.289 Q564.428 159.289 566.719 158.687 Q569.034 158.085 571.303 156.881 L571.303 160.909 Q569.011 161.881 566.604 162.391 Q564.196 162.9 561.72 162.9 Q555.516 162.9 551.882 159.289 Q548.271 155.678 548.271 149.52 Q548.271 143.155 551.696 139.428 Q555.145 135.678 560.979 135.678 Q566.21 135.678 569.243 139.057 Q572.298 142.414 572.298 148.201 M568.039 146.951 Q567.993 143.456 566.071 141.372 Q564.173 139.289 561.025 139.289 Q557.46 139.289 555.308 141.303 Q553.178 143.317 552.854 146.974 L568.039 146.951 Z" fill="#000000" fill-rule="nonzero" fill-opacity="1" /><path clip-path="url(#clip510)" d="M583.409 158.34 L583.409 172.09 L579.127 172.09 L579.127 136.303 L583.409 136.303 L583.409 140.238 Q584.752 137.923 586.789 136.812 Q588.849 135.678 591.696 135.678 Q596.418 135.678 599.358 139.428 Q602.321 143.178 602.321 149.289 Q602.321 155.4 599.358 159.15 Q596.418 162.9 591.696 162.9 Q588.849 162.9 586.789 161.789 Q584.752 160.655 583.409 158.34 M597.9 149.289 Q597.9 144.59 595.955 141.928 Q594.034 139.243 590.655 139.243 Q587.275 139.243 585.331 141.928 Q583.409 144.59 583.409 149.289 Q583.409 153.988 585.331 156.673 Q587.275 159.335 590.655 159.335 Q594.034 159.335 595.955 156.673 Q597.9 153.988 597.9 149.289 Z" fill="#000000" fill-rule="nonzero" fill-opacity="1" /><path clip-path="url(#clip510)" d="M625.863 158.293 L633.502 158.293 L633.502 131.928 L625.191 133.595 L625.191 129.335 L633.455 127.669 L638.131 127.669 L638.131 158.293 L645.77 158.293 L645.77 162.229 L625.863 162.229 L625.863 158.293 Z" fill="#000000" fill-rule="nonzero" fill-opacity="1" /><circle clip-path="url(#clip510)" cx="406.294" cy="196.789" r="20.48" fill="#e26f46" fill-rule="evenodd" fill-opacity="1" stroke="#000000" stroke-opacity="1" stroke-width="4.55111"/>
<path clip-path="url(#clip510)" d="M522.345 180.643 L522.345 185.203 Q519.683 183.93 517.322 183.305 Q514.961 182.68 512.761 182.68 Q508.942 182.68 506.859 184.161 Q504.799 185.643 504.799 188.374 Q504.799 190.666 506.164 191.847 Q507.553 193.004 511.396 193.722 L514.22 194.3 Q519.451 195.296 521.928 197.819 Q524.428 200.319 524.428 204.532 Q524.428 209.555 521.048 212.147 Q517.692 214.74 511.187 214.74 Q508.734 214.74 505.956 214.184 Q503.201 213.629 500.238 212.541 L500.238 207.726 Q503.086 209.323 505.817 210.133 Q508.549 210.944 511.187 210.944 Q515.192 210.944 517.368 209.37 Q519.544 207.796 519.544 204.879 Q519.544 202.333 517.97 200.897 Q516.419 199.462 512.854 198.745 L510.007 198.189 Q504.775 197.147 502.437 194.925 Q500.099 192.703 500.099 188.745 Q500.099 184.161 503.317 181.522 Q506.558 178.884 512.229 178.884 Q514.66 178.884 517.183 179.323 Q519.706 179.763 522.345 180.643 Z" fill="#000000" fill-rule="nonzero" fill-opacity="1" /><path clip-path="url(#clip510)" d="M535.747 180.782 L535.747 188.143 L544.521 188.143 L544.521 191.453 L535.747 191.453 L535.747 205.527 Q535.747 208.698 536.604 209.601 Q537.484 210.504 540.146 210.504 L544.521 210.504 L544.521 214.069 L540.146 214.069 Q535.215 214.069 533.34 212.24 Q531.465 210.388 531.465 205.527 L531.465 191.453 L528.34 191.453 L528.34 188.143 L531.465 188.143 L531.465 180.782 L535.747 180.782 Z" fill="#000000" fill-rule="nonzero" fill-opacity="1" /><path clip-path="url(#clip510)" d="M572.298 200.041 L572.298 202.124 L552.715 202.124 Q552.993 206.522 555.354 208.837 Q557.738 211.129 561.974 211.129 Q564.428 211.129 566.719 210.527 Q569.034 209.925 571.303 208.721 L571.303 212.749 Q569.011 213.721 566.604 214.231 Q564.196 214.74 561.72 214.74 Q555.516 214.74 551.882 211.129 Q548.271 207.518 548.271 201.36 Q548.271 194.995 551.696 191.268 Q555.145 187.518 560.979 187.518 Q566.21 187.518 569.243 190.897 Q572.298 194.254 572.298 200.041 M568.039 198.791 Q567.993 195.296 566.071 193.212 Q564.173 191.129 561.025 191.129 Q557.46 191.129 555.308 193.143 Q553.178 195.157 552.854 198.814 L568.039 198.791 Z" fill="#000000" fill-rule="nonzero" fill-opacity="1" /><path clip-path="url(#clip510)" d="M583.409 210.18 L583.409 223.93 L579.127 223.93 L579.127 188.143 L583.409 188.143 L583.409 192.078 Q584.752 189.763 586.789 188.652 Q588.849 187.518 591.696 187.518 Q596.418 187.518 599.358 191.268 Q602.321 195.018 602.321 201.129 Q602.321 207.24 599.358 210.99 Q596.418 214.74 591.696 214.74 Q588.849 214.74 586.789 213.629 Q584.752 212.495 583.409 210.18 M597.9 201.129 Q597.9 196.43 595.955 193.768 Q594.034 191.083 590.655 191.083 Q587.275 191.083 585.331 193.768 Q583.409 196.43 583.409 201.129 Q583.409 205.828 585.331 208.513 Q587.275 211.175 590.655 211.175 Q594.034 211.175 595.955 208.513 Q597.9 205.828 597.9 201.129 Z" fill="#000000" fill-rule="nonzero" fill-opacity="1" /><path clip-path="url(#clip510)" d="M629.08 210.133 L645.4 210.133 L645.4 214.069 L623.455 214.069 L623.455 210.133 Q626.117 207.379 630.701 202.749 Q635.307 198.096 636.488 196.754 Q638.733 194.231 639.613 192.495 Q640.515 190.735 640.515 189.046 Q640.515 186.291 638.571 184.555 Q636.65 182.819 633.548 182.819 Q631.349 182.819 628.895 183.583 Q626.465 184.347 623.687 185.897 L623.687 181.175 Q626.511 180.041 628.965 179.462 Q631.418 178.884 633.455 178.884 Q638.826 178.884 642.02 181.569 Q645.214 184.254 645.214 188.745 Q645.214 190.874 644.404 192.796 Q643.617 194.694 641.511 197.286 Q640.932 197.958 637.83 201.175 Q634.728 204.37 629.08 210.133 Z" fill="#000000" fill-rule="nonzero" fill-opacity="1" /></svg>
