<?xml version="1.0" encoding="utf-8"?>
<svg xmlns="http://www.w3.org/2000/svg" xmlns:xlink="http://www.w3.org/1999/xlink" width="600" height="400" viewBox="0 0 2400 1600">
<defs>
  <clipPath id="clip210">
    <rect x="0" y="0" width="2400" height="1600"/>
  </clipPath>
</defs>
<path clip-path="url(#clip210)" d="M0 1600 L2400 1600 L2400 0 L0 0  Z" fill="#ffffff" fill-rule="evenodd" fill-opacity="1"/>
<defs>
  <clipPath id="clip211">
    <rect x="250" y="47" width="2104" height="1377"/>
  </clipPath>
</defs>
<path clip-path="url(#clip210)" d="M250.028 1423.18 L2352.76 1423.18 L2352.76 47.2441 L250.028 47.2441  Z" fill="#ffffff" fill-rule="evenodd" fill-opacity="1"/>
<polyline clip-path="url(#clip211)" style="stroke:#000000; stroke-linecap:round; stroke-linejoin:round; stroke-width:2; stroke-opacity:0.1; fill:none" points="363.704,1423.18 363.704,47.2441 "/>
<polyline clip-path="url(#clip211)" style="stroke:#000000; stroke-linecap:round; stroke-linejoin:round; stroke-width:2; stroke-opacity:0.1; fill:none" points="661.196,1423.18 661.196,47.2441 "/>
<polyline clip-path="url(#clip211)" style="stroke:#000000; stroke-linecap:round; stroke-linejoin:round; stroke-width:2; stroke-opacity:0.1; fill:none" points="958.687,1423.18 958.687,47.2441 "/>
<polyline clip-path="url(#clip211)" style="stroke:#000000; stroke-linecap:round; stroke-linejoin:round; stroke-width:2; stroke-opacity:0.1; fill:none" points="1256.18,1423.18 1256.18,47.2441 "/>
<polyline clip-path="url(#clip211)" style="stroke:#000000; stroke-linecap:round; stroke-linejoin:round; stroke-width:2; stroke-opacity:0.1; fill:none" points="1553.67,1423.18 1553.67,47.2441 "/>
<polyline clip-path="url(#clip211)" style="stroke:#000000; stroke-linecap:round; stroke-linejoin:round; stroke-width:2; stroke-opacity:0.1; fill:none" points="1851.16,1423.18 1851.16,47.2441 "/>
<polyline clip-path="url(#clip211)" style="stroke:#000000; stroke-linecap:round; stroke-linejoin:round; stroke-width:2; stroke-opacity:0.1; fill:none" points="2148.65,1423.18 2148.65,47.2441 "/>
<polyline clip-path="url(#clip211)" style="stroke:#000000; stroke-linecap:round; stroke-linejoin:round; stroke-width:2; stroke-opacity:0.1; fill:none" points="250.028,1334.85 2352.76,1334.85 "/>
<polyline clip-path="url(#clip211)" style="stroke:#000000; stroke-linecap:round; stroke-linejoin:round; stroke-width:2; stroke-opacity:0.1; fill:none" points="250.028,1128.1 2352.76,1128.1 "/>
<polyline clip-path="url(#clip211)" style="stroke:#000000; stroke-linecap:round; stroke-linejoin:round; stroke-width:2; stroke-opacity:0.1; fill:none" points="250.028,921.35 2352.76,921.35 "/>
<polyline clip-path="url(#clip211)" style="stroke:#000000; stroke-linecap:round; stroke-linejoin:round; stroke-width:2; stroke-opacity:0.1; fill:none" points="250.028,714.598 2352.76,714.598 "/>
<polyline clip-path="url(#clip211)" style="stroke:#000000; stroke-linecap:round; stroke-linejoin:round; stroke-width:2; stroke-opacity:0.1; fill:none" points="250.028,507.846 2352.76,507.846 "/>
<polyline clip-path="url(#clip211)" style="stroke:#000000; stroke-linecap:round; stroke-linejoin:round; stroke-width:2; stroke-opacity:0.1; fill:none" points="250.028,301.094 2352.76,301.094 "/>
<polyline clip-path="url(#clip211)" style="stroke:#000000; stroke-linecap:round; stroke-linejoin:round; stroke-width:2; stroke-opacity:0.1; fill:none" points="250.028,94.3414 2352.76,94.3414 "/>
<polyline clip-path="url(#clip210)" style="stroke:#000000; stroke-linecap:round; stroke-linejoin:round; stroke-width:4; stroke-opacity:1; fill:none" points="250.028,1423.18 2352.76,1423.18 "/>
<polyline clip-path="url(#clip210)" style="stroke:#000000; stroke-linecap:round; stroke-linejoin:round; stroke-width:4; stroke-opacity:1; fill:none" points="363.704,1423.18 363.704,1404.28 "/>
<polyline clip-path="url(#clip210)" style="stroke:#000000; stroke-linecap:round; stroke-linejoin:round; stroke-width:4; stroke-opacity:1; fill:none" points="661.196,1423.18 661.196,1404.28 "/>
<polyline clip-path="url(#clip210)" style="stroke:#000000; stroke-linecap:round; stroke-linejoin:round; stroke-width:4; stroke-opacity:1; fill:none" points="958.687,1423.18 958.687,1404.28 "/>
<polyline clip-path="url(#clip210)" style="stroke:#000000; stroke-linecap:round; stroke-linejoin:round; stroke-width:4; stroke-opacity:1; fill:none" points="1256.18,1423.18 1256.18,1404.28 "/>
<polyline clip-path="url(#clip210)" style="stroke:#000000; stroke-linecap:round; stroke-linejoin:round; stroke-width:4; stroke-opacity:1; fill:none" points="1553.67,1423.18 1553.67,1404.28 "/>
<polyline clip-path="url(#clip210)" style="stroke:#000000; stroke-linecap:round; stroke-linejoin:round; stroke-width:4; stroke-opacity:1; fill:none" points="1851.16,1423.18 1851.16,1404.28 "/>
<polyline clip-path="url(#clip210)" style="stroke:#000000; stroke-linecap:round; stroke-linejoin:round; stroke-width:4; stroke-opacity:1; fill:none" points="2148.65,1423.18 2148.65,1404.28 "/>
<path clip-path="url(#clip210)" d="M281.564 1454.1 Q277.953 1454.1 276.124 1457.66 Q274.318 1461.2 274.318 1468.33 Q274.318 1475.44 276.124 1479.01 Q277.953 1482.55 281.564 1482.55 Q285.198 1482.55 287.003 1479.01 Q288.832 1475.44 288.832 1468.33 Q288.832 1461.2 287.003 1457.66 Q285.198 1454.1 281.564 1454.1 M281.564 1450.39 Q287.374 1450.39 290.429 1455 Q293.508 1459.58 293.508 1468.33 Q293.508 1477.06 290.429 1481.67 Q287.374 1486.25 281.564 1486.25 Q275.754 1486.25 272.675 1481.67 Q269.619 1477.06 269.619 1468.33 Q269.619 1459.58 272.675 1455 Q275.754 1450.39 281.564 1450.39 Z" fill="#000000" fill-rule="nonzero" fill-opacity="1" /><path clip-path="url(#clip210)" d="M301.726 1479.7 L306.61 1479.7 L306.61 1485.58 L301.726 1485.58 L301.726 1479.7 Z" fill="#000000" fill-rule="nonzero" fill-opacity="1" /><path clip-path="url(#clip210)" d="M326.795 1454.1 Q323.184 1454.1 321.355 1457.66 Q319.55 1461.2 319.55 1468.33 Q319.55 1475.44 321.355 1479.01 Q323.184 1482.55 326.795 1482.55 Q330.429 1482.55 332.235 1479.01 Q334.063 1475.44 334.063 1468.33 Q334.063 1461.2 332.235 1457.66 Q330.429 1454.1 326.795 1454.1 M326.795 1450.39 Q332.605 1450.39 335.661 1455 Q338.739 1459.58 338.739 1468.33 Q338.739 1477.06 335.661 1481.67 Q332.605 1486.25 326.795 1486.25 Q320.985 1486.25 317.906 1481.67 Q314.851 1477.06 314.851 1468.33 Q314.851 1459.58 317.906 1455 Q320.985 1450.39 326.795 1450.39 Z" fill="#000000" fill-rule="nonzero" fill-opacity="1" /><path clip-path="url(#clip210)" d="M356.957 1454.1 Q353.346 1454.1 351.517 1457.66 Q349.711 1461.2 349.711 1468.33 Q349.711 1475.44 351.517 1479.01 Q353.346 1482.55 356.957 1482.55 Q360.591 1482.55 362.397 1479.01 Q364.225 1475.44 364.225 1468.33 Q364.225 1461.2 362.397 1457.66 Q360.591 1454.1 356.957 1454.1 M356.957 1450.39 Q362.767 1450.39 365.823 1455 Q368.901 1459.58 368.901 1468.33 Q368.901 1477.06 365.823 1481.67 Q362.767 1486.25 356.957 1486.25 Q351.147 1486.25 348.068 1481.67 Q345.012 1477.06 345.012 1468.33 Q345.012 1459.58 348.068 1455 Q351.147 1450.39 356.957 1450.39 Z" fill="#000000" fill-rule="nonzero" fill-opacity="1" /><path clip-path="url(#clip210)" d="M381.147 1481.64 L397.466 1481.64 L397.466 1485.58 L375.522 1485.58 L375.522 1481.64 Q378.184 1478.89 382.767 1474.26 Q387.373 1469.61 388.554 1468.27 Q390.799 1465.74 391.679 1464.01 Q392.582 1462.25 392.582 1460.56 Q392.582 1457.8 390.637 1456.07 Q388.716 1454.33 385.614 1454.33 Q383.415 1454.33 380.961 1455.09 Q378.531 1455.86 375.753 1457.41 L375.753 1452.69 Q378.577 1451.55 381.031 1450.97 Q383.484 1450.39 385.521 1450.39 Q390.892 1450.39 394.086 1453.08 Q397.281 1455.77 397.281 1460.26 Q397.281 1462.39 396.471 1464.31 Q395.683 1466.2 393.577 1468.8 Q392.998 1469.47 389.896 1472.69 Q386.795 1475.88 381.147 1481.64 Z" fill="#000000" fill-rule="nonzero" fill-opacity="1" /><path clip-path="url(#clip210)" d="M408.091 1481.64 L415.73 1481.64 L415.73 1455.28 L407.42 1456.95 L407.42 1452.69 L415.683 1451.02 L420.359 1451.02 L420.359 1481.64 L427.998 1481.64 L427.998 1485.58 L408.091 1485.58 L408.091 1481.64 Z" fill="#000000" fill-rule="nonzero" fill-opacity="1" /><path clip-path="url(#clip210)" d="M441.47 1481.64 L457.79 1481.64 L457.79 1485.58 L435.845 1485.58 L435.845 1481.64 Q438.507 1478.89 443.091 1474.26 Q447.697 1469.61 448.878 1468.27 Q451.123 1465.74 452.003 1464.01 Q452.905 1462.25 452.905 1460.56 Q452.905 1457.8 450.961 1456.07 Q449.04 1454.33 445.938 1454.33 Q443.739 1454.33 441.285 1455.09 Q438.855 1455.86 436.077 1457.41 L436.077 1452.69 Q438.901 1451.55 441.355 1450.97 Q443.808 1450.39 445.845 1450.39 Q451.216 1450.39 454.41 1453.08 Q457.604 1455.77 457.604 1460.26 Q457.604 1462.39 456.794 1464.31 Q456.007 1466.2 453.901 1468.8 Q453.322 1469.47 450.22 1472.69 Q447.118 1475.88 441.47 1481.64 Z" fill="#000000" fill-rule="nonzero" fill-opacity="1" /><path clip-path="url(#clip210)" d="M578.013 1454.1 Q574.402 1454.1 572.574 1457.66 Q570.768 1461.2 570.768 1468.33 Q570.768 1475.44 572.574 1479.01 Q574.402 1482.55 578.013 1482.55 Q581.648 1482.55 583.453 1479.01 Q585.282 1475.44 585.282 1468.33 Q585.282 1461.2 583.453 1457.66 Q581.648 1454.1 578.013 1454.1 M578.013 1450.39 Q583.824 1450.39 586.879 1455 Q589.958 1459.58 589.958 1468.33 Q589.958 1477.06 586.879 1481.67 Q583.824 1486.25 578.013 1486.25 Q572.203 1486.25 569.125 1481.67 Q566.069 1477.06 566.069 1468.33 Q566.069 1459.58 569.125 1455 Q572.203 1450.39 578.013 1450.39 Z" fill="#000000" fill-rule="nonzero" fill-opacity="1" /><path clip-path="url(#clip210)" d="M598.175 1479.7 L603.06 1479.7 L603.06 1485.58 L598.175 1485.58 L598.175 1479.7 Z" fill="#000000" fill-rule="nonzero" fill-opacity="1" /><path clip-path="url(#clip210)" d="M623.245 1454.1 Q619.634 1454.1 617.805 1457.66 Q615.999 1461.2 615.999 1468.33 Q615.999 1475.44 617.805 1479.01 Q619.634 1482.55 623.245 1482.55 Q626.879 1482.55 628.684 1479.01 Q630.513 1475.44 630.513 1468.33 Q630.513 1461.2 628.684 1457.66 Q626.879 1454.1 623.245 1454.1 M623.245 1450.39 Q629.055 1450.39 632.11 1455 Q635.189 1459.58 635.189 1468.33 Q635.189 1477.06 632.11 1481.67 Q629.055 1486.25 623.245 1486.25 Q617.435 1486.25 614.356 1481.67 Q611.3 1477.06 611.3 1468.33 Q611.3 1459.58 614.356 1455 Q617.435 1450.39 623.245 1450.39 Z" fill="#000000" fill-rule="nonzero" fill-opacity="1" /><path clip-path="url(#clip210)" d="M653.407 1454.1 Q649.795 1454.1 647.967 1457.66 Q646.161 1461.2 646.161 1468.33 Q646.161 1475.44 647.967 1479.01 Q649.795 1482.55 653.407 1482.55 Q657.041 1482.55 658.846 1479.01 Q660.675 1475.44 660.675 1468.33 Q660.675 1461.2 658.846 1457.66 Q657.041 1454.1 653.407 1454.1 M653.407 1450.39 Q659.217 1450.39 662.272 1455 Q665.351 1459.58 665.351 1468.33 Q665.351 1477.06 662.272 1481.67 Q659.217 1486.25 653.407 1486.25 Q647.596 1486.25 644.518 1481.67 Q641.462 1477.06 641.462 1468.33 Q641.462 1459.58 644.518 1455 Q647.596 1450.39 653.407 1450.39 Z" fill="#000000" fill-rule="nonzero" fill-opacity="1" /><path clip-path="url(#clip210)" d="M677.596 1481.64 L693.916 1481.64 L693.916 1485.58 L671.971 1485.58 L671.971 1481.64 Q674.633 1478.89 679.217 1474.26 Q683.823 1469.61 685.004 1468.27 Q687.249 1465.74 688.129 1464.01 Q689.031 1462.25 689.031 1460.56 Q689.031 1457.8 687.087 1456.07 Q685.166 1454.33 682.064 1454.33 Q679.865 1454.33 677.411 1455.09 Q674.981 1455.86 672.203 1457.41 L672.203 1452.69 Q675.027 1451.55 677.48 1450.97 Q679.934 1450.39 681.971 1450.39 Q687.342 1450.39 690.536 1453.08 Q693.73 1455.77 693.73 1460.26 Q693.73 1462.39 692.92 1464.31 Q692.133 1466.2 690.027 1468.8 Q689.448 1469.47 686.346 1472.69 Q683.244 1475.88 677.596 1481.64 Z" fill="#000000" fill-rule="nonzero" fill-opacity="1" /><path clip-path="url(#clip210)" d="M704.541 1481.64 L712.179 1481.64 L712.179 1455.28 L703.869 1456.95 L703.869 1452.69 L712.133 1451.02 L716.809 1451.02 L716.809 1481.64 L724.448 1481.64 L724.448 1485.58 L704.541 1485.58 L704.541 1481.64 Z" fill="#000000" fill-rule="nonzero" fill-opacity="1" /><path clip-path="url(#clip210)" d="M746.739 1455.09 L734.934 1473.54 L746.739 1473.54 L746.739 1455.09 M745.513 1451.02 L751.392 1451.02 L751.392 1473.54 L756.323 1473.54 L756.323 1477.43 L751.392 1477.43 L751.392 1485.58 L746.739 1485.58 L746.739 1477.43 L731.138 1477.43 L731.138 1472.92 L745.513 1451.02 Z" fill="#000000" fill-rule="nonzero" fill-opacity="1" /><path clip-path="url(#clip210)" d="M875.667 1454.1 Q872.056 1454.1 870.227 1457.66 Q868.422 1461.2 868.422 1468.33 Q868.422 1475.44 870.227 1479.01 Q872.056 1482.55 875.667 1482.55 Q879.301 1482.55 881.107 1479.01 Q882.935 1475.44 882.935 1468.33 Q882.935 1461.2 881.107 1457.66 Q879.301 1454.1 875.667 1454.1 M875.667 1450.39 Q881.477 1450.39 884.533 1455 Q887.611 1459.58 887.611 1468.33 Q887.611 1477.06 884.533 1481.67 Q881.477 1486.25 875.667 1486.25 Q869.857 1486.25 866.778 1481.67 Q863.722 1477.06 863.722 1468.33 Q863.722 1459.58 866.778 1455 Q869.857 1450.39 875.667 1450.39 Z" fill="#000000" fill-rule="nonzero" fill-opacity="1" /><path clip-path="url(#clip210)" d="M895.829 1479.7 L900.713 1479.7 L900.713 1485.58 L895.829 1485.58 L895.829 1479.7 Z" fill="#000000" fill-rule="nonzero" fill-opacity="1" /><path clip-path="url(#clip210)" d="M920.898 1454.1 Q917.287 1454.1 915.458 1457.66 Q913.653 1461.2 913.653 1468.33 Q913.653 1475.44 915.458 1479.01 Q917.287 1482.55 920.898 1482.55 Q924.532 1482.55 926.338 1479.01 Q928.167 1475.44 928.167 1468.33 Q928.167 1461.2 926.338 1457.66 Q924.532 1454.1 920.898 1454.1 M920.898 1450.39 Q926.708 1450.39 929.764 1455 Q932.842 1459.58 932.842 1468.33 Q932.842 1477.06 929.764 1481.67 Q926.708 1486.25 920.898 1486.25 Q915.088 1486.25 912.009 1481.67 Q908.954 1477.06 908.954 1468.33 Q908.954 1459.58 912.009 1455 Q915.088 1450.39 920.898 1450.39 Z" fill="#000000" fill-rule="nonzero" fill-opacity="1" /><path clip-path="url(#clip210)" d="M951.06 1454.1 Q947.449 1454.1 945.62 1457.66 Q943.815 1461.2 943.815 1468.33 Q943.815 1475.44 945.62 1479.01 Q947.449 1482.55 951.06 1482.55 Q954.694 1482.55 956.5 1479.01 Q958.328 1475.44 958.328 1468.33 Q958.328 1461.2 956.5 1457.66 Q954.694 1454.1 951.06 1454.1 M951.06 1450.39 Q956.87 1450.39 959.926 1455 Q963.004 1459.58 963.004 1468.33 Q963.004 1477.06 959.926 1481.67 Q956.87 1486.25 951.06 1486.25 Q945.25 1486.25 942.171 1481.67 Q939.116 1477.06 939.116 1468.33 Q939.116 1459.58 942.171 1455 Q945.25 1450.39 951.06 1450.39 Z" fill="#000000" fill-rule="nonzero" fill-opacity="1" /><path clip-path="url(#clip210)" d="M975.25 1481.64 L991.569 1481.64 L991.569 1485.58 L969.625 1485.58 L969.625 1481.64 Q972.287 1478.89 976.87 1474.26 Q981.476 1469.61 982.657 1468.27 Q984.902 1465.74 985.782 1464.01 Q986.685 1462.25 986.685 1460.56 Q986.685 1457.8 984.74 1456.07 Q982.819 1454.33 979.717 1454.33 Q977.518 1454.33 975.064 1455.09 Q972.634 1455.86 969.856 1457.41 L969.856 1452.69 Q972.68 1451.55 975.134 1450.97 Q977.588 1450.39 979.625 1450.39 Q984.995 1450.39 988.189 1453.08 Q991.384 1455.77 991.384 1460.26 Q991.384 1462.39 990.574 1464.31 Q989.787 1466.2 987.68 1468.8 Q987.101 1469.47 984 1472.69 Q980.898 1475.88 975.25 1481.64 Z" fill="#000000" fill-rule="nonzero" fill-opacity="1" /><path clip-path="url(#clip210)" d="M1002.19 1481.64 L1009.83 1481.64 L1009.83 1455.28 L1001.52 1456.95 L1001.52 1452.69 L1009.79 1451.02 L1014.46 1451.02 L1014.46 1481.64 L1022.1 1481.64 L1022.1 1485.58 L1002.19 1485.58 L1002.19 1481.64 Z" fill="#000000" fill-rule="nonzero" fill-opacity="1" /><path clip-path="url(#clip210)" d="M1042.12 1466.44 Q1038.98 1466.44 1037.12 1468.59 Q1035.3 1470.74 1035.3 1474.49 Q1035.3 1478.22 1037.12 1480.39 Q1038.98 1482.55 1042.12 1482.55 Q1045.27 1482.55 1047.1 1480.39 Q1048.95 1478.22 1048.95 1474.49 Q1048.95 1470.74 1047.1 1468.59 Q1045.27 1466.44 1042.12 1466.44 M1051.41 1451.78 L1051.41 1456.04 Q1049.65 1455.21 1047.84 1454.77 Q1046.06 1454.33 1044.3 1454.33 Q1039.67 1454.33 1037.22 1457.45 Q1034.79 1460.58 1034.44 1466.9 Q1035.8 1464.89 1037.87 1463.82 Q1039.93 1462.73 1042.4 1462.73 Q1047.61 1462.73 1050.62 1465.9 Q1053.65 1469.05 1053.65 1474.49 Q1053.65 1479.82 1050.5 1483.03 Q1047.36 1486.25 1042.12 1486.25 Q1036.13 1486.25 1032.96 1481.67 Q1029.79 1477.06 1029.79 1468.33 Q1029.79 1460.14 1033.68 1455.28 Q1037.56 1450.39 1044.12 1450.39 Q1045.87 1450.39 1047.66 1450.74 Q1049.46 1451.09 1051.41 1451.78 Z" fill="#000000" fill-rule="nonzero" fill-opacity="1" /><path clip-path="url(#clip210)" d="M1173.29 1454.1 Q1169.67 1454.1 1167.85 1457.66 Q1166.04 1461.2 1166.04 1468.33 Q1166.04 1475.44 1167.85 1479.01 Q1169.67 1482.55 1173.29 1482.55 Q1176.92 1482.55 1178.73 1479.01 Q1180.55 1475.44 1180.55 1468.33 Q1180.55 1461.2 1178.73 1457.66 Q1176.92 1454.1 1173.29 1454.1 M1173.29 1450.39 Q1179.1 1450.39 1182.15 1455 Q1185.23 1459.58 1185.23 1468.33 Q1185.23 1477.06 1182.15 1481.67 Q1179.1 1486.25 1173.29 1486.25 Q1167.48 1486.25 1164.4 1481.67 Q1161.34 1477.06 1161.34 1468.33 Q1161.34 1459.58 1164.4 1455 Q1167.48 1450.39 1173.29 1450.39 Z" fill="#000000" fill-rule="nonzero" fill-opacity="1" /><path clip-path="url(#clip210)" d="M1193.45 1479.7 L1198.33 1479.7 L1198.33 1485.58 L1193.45 1485.58 L1193.45 1479.7 Z" fill="#000000" fill-rule="nonzero" fill-opacity="1" /><path clip-path="url(#clip210)" d="M1218.52 1454.1 Q1214.91 1454.1 1213.08 1457.66 Q1211.27 1461.2 1211.27 1468.33 Q1211.27 1475.44 1213.08 1479.01 Q1214.91 1482.55 1218.52 1482.55 Q1222.15 1482.55 1223.96 1479.01 Q1225.79 1475.44 1225.79 1468.33 Q1225.79 1461.2 1223.96 1457.66 Q1222.15 1454.1 1218.52 1454.1 M1218.52 1450.39 Q1224.33 1450.39 1227.38 1455 Q1230.46 1459.58 1230.46 1468.33 Q1230.46 1477.06 1227.38 1481.67 Q1224.33 1486.25 1218.52 1486.25 Q1212.71 1486.25 1209.63 1481.67 Q1206.57 1477.06 1206.57 1468.33 Q1206.57 1459.58 1209.63 1455 Q1212.71 1450.39 1218.52 1450.39 Z" fill="#000000" fill-rule="nonzero" fill-opacity="1" /><path clip-path="url(#clip210)" d="M1248.68 1454.1 Q1245.07 1454.1 1243.24 1457.66 Q1241.43 1461.2 1241.43 1468.33 Q1241.43 1475.44 1243.24 1479.01 Q1245.07 1482.55 1248.68 1482.55 Q1252.31 1482.55 1254.12 1479.01 Q1255.95 1475.44 1255.95 1468.33 Q1255.95 1461.2 1254.12 1457.66 Q1252.31 1454.1 1248.68 1454.1 M1248.68 1450.39 Q1254.49 1450.39 1257.54 1455 Q1260.62 1459.58 1260.62 1468.33 Q1260.62 1477.06 1257.54 1481.67 Q1254.49 1486.25 1248.68 1486.25 Q1242.87 1486.25 1239.79 1481.67 Q1236.73 1477.06 1236.73 1468.33 Q1236.73 1459.58 1239.79 1455 Q1242.87 1450.39 1248.68 1450.39 Z" fill="#000000" fill-rule="nonzero" fill-opacity="1" /><path clip-path="url(#clip210)" d="M1272.87 1481.64 L1289.19 1481.64 L1289.19 1485.58 L1267.24 1485.58 L1267.24 1481.64 Q1269.91 1478.89 1274.49 1474.26 Q1279.1 1469.61 1280.28 1468.27 Q1282.52 1465.74 1283.4 1464.01 Q1284.3 1462.25 1284.3 1460.56 Q1284.3 1457.8 1282.36 1456.07 Q1280.44 1454.33 1277.34 1454.33 Q1275.14 1454.33 1272.68 1455.09 Q1270.25 1455.86 1267.47 1457.41 L1267.47 1452.69 Q1270.3 1451.55 1272.75 1450.97 Q1275.21 1450.39 1277.24 1450.39 Q1282.61 1450.39 1285.81 1453.08 Q1289 1455.77 1289 1460.26 Q1289 1462.39 1288.19 1464.31 Q1287.41 1466.2 1285.3 1468.8 Q1284.72 1469.47 1281.62 1472.69 Q1278.52 1475.88 1272.87 1481.64 Z" fill="#000000" fill-rule="nonzero" fill-opacity="1" /><path clip-path="url(#clip210)" d="M1299.81 1481.64 L1307.45 1481.64 L1307.45 1455.28 L1299.14 1456.95 L1299.14 1452.69 L1307.41 1451.02 L1312.08 1451.02 L1312.08 1481.64 L1319.72 1481.64 L1319.72 1485.58 L1299.81 1485.58 L1299.81 1481.64 Z" fill="#000000" fill-rule="nonzero" fill-opacity="1" /><path clip-path="url(#clip210)" d="M1339.16 1469.17 Q1335.83 1469.17 1333.91 1470.95 Q1332.01 1472.73 1332.01 1475.86 Q1332.01 1478.98 1333.91 1480.77 Q1335.83 1482.55 1339.16 1482.55 Q1342.5 1482.55 1344.42 1480.77 Q1346.34 1478.96 1346.34 1475.86 Q1346.34 1472.73 1344.42 1470.95 Q1342.52 1469.17 1339.16 1469.17 M1334.49 1467.18 Q1331.48 1466.44 1329.79 1464.38 Q1328.12 1462.32 1328.12 1459.35 Q1328.12 1455.21 1331.06 1452.8 Q1334.03 1450.39 1339.16 1450.39 Q1344.33 1450.39 1347.27 1452.8 Q1350.21 1455.21 1350.21 1459.35 Q1350.21 1462.32 1348.52 1464.38 Q1346.85 1466.44 1343.86 1467.18 Q1347.24 1467.96 1349.12 1470.26 Q1351.02 1472.55 1351.02 1475.86 Q1351.02 1480.88 1347.94 1483.57 Q1344.88 1486.25 1339.16 1486.25 Q1333.45 1486.25 1330.37 1483.57 Q1327.31 1480.88 1327.31 1475.86 Q1327.31 1472.55 1329.21 1470.26 Q1331.11 1467.96 1334.49 1467.18 M1332.78 1459.79 Q1332.78 1462.48 1334.44 1463.98 Q1336.13 1465.49 1339.16 1465.49 Q1342.17 1465.49 1343.86 1463.98 Q1345.58 1462.48 1345.58 1459.79 Q1345.58 1457.11 1343.86 1455.6 Q1342.17 1454.1 1339.16 1454.1 Q1336.13 1454.1 1334.44 1455.6 Q1332.78 1457.11 1332.78 1459.79 Z" fill="#000000" fill-rule="nonzero" fill-opacity="1" /><path clip-path="url(#clip210)" d="M1470.73 1454.1 Q1467.12 1454.1 1465.29 1457.66 Q1463.49 1461.2 1463.49 1468.33 Q1463.49 1475.44 1465.29 1479.01 Q1467.12 1482.55 1470.73 1482.55 Q1474.36 1482.55 1476.17 1479.01 Q1478 1475.44 1478 1468.33 Q1478 1461.2 1476.17 1457.66 Q1474.36 1454.1 1470.73 1454.1 M1470.73 1450.39 Q1476.54 1450.39 1479.6 1455 Q1482.68 1459.58 1482.68 1468.33 Q1482.68 1477.06 1479.6 1481.67 Q1476.54 1486.25 1470.73 1486.25 Q1464.92 1486.25 1461.84 1481.67 Q1458.79 1477.06 1458.79 1468.33 Q1458.79 1459.58 1461.84 1455 Q1464.92 1450.39 1470.73 1450.39 Z" fill="#000000" fill-rule="nonzero" fill-opacity="1" /><path clip-path="url(#clip210)" d="M1490.89 1479.7 L1495.78 1479.7 L1495.78 1485.58 L1490.89 1485.58 L1490.89 1479.7 Z" fill="#000000" fill-rule="nonzero" fill-opacity="1" /><path clip-path="url(#clip210)" d="M1515.96 1454.1 Q1512.35 1454.1 1510.52 1457.66 Q1508.72 1461.2 1508.72 1468.33 Q1508.72 1475.44 1510.52 1479.01 Q1512.35 1482.55 1515.96 1482.55 Q1519.6 1482.55 1521.4 1479.01 Q1523.23 1475.44 1523.23 1468.33 Q1523.23 1461.2 1521.4 1457.66 Q1519.6 1454.1 1515.96 1454.1 M1515.96 1450.39 Q1521.77 1450.39 1524.83 1455 Q1527.91 1459.58 1527.91 1468.33 Q1527.91 1477.06 1524.83 1481.67 Q1521.77 1486.25 1515.96 1486.25 Q1510.15 1486.25 1507.07 1481.67 Q1504.02 1477.06 1504.02 1468.33 Q1504.02 1459.58 1507.07 1455 Q1510.15 1450.39 1515.96 1450.39 Z" fill="#000000" fill-rule="nonzero" fill-opacity="1" /><path clip-path="url(#clip210)" d="M1546.12 1454.1 Q1542.51 1454.1 1540.68 1457.66 Q1538.88 1461.2 1538.88 1468.33 Q1538.88 1475.44 1540.68 1479.01 Q1542.51 1482.55 1546.12 1482.55 Q1549.76 1482.55 1551.56 1479.01 Q1553.39 1475.44 1553.39 1468.33 Q1553.39 1461.2 1551.56 1457.66 Q1549.76 1454.1 1546.12 1454.1 M1546.12 1450.39 Q1551.93 1450.39 1554.99 1455 Q1558.07 1459.58 1558.07 1468.33 Q1558.07 1477.06 1554.99 1481.67 Q1551.93 1486.25 1546.12 1486.25 Q1540.31 1486.25 1537.23 1481.67 Q1534.18 1477.06 1534.18 1468.33 Q1534.18 1459.58 1537.23 1455 Q1540.31 1450.39 1546.12 1450.39 Z" fill="#000000" fill-rule="nonzero" fill-opacity="1" /><path clip-path="url(#clip210)" d="M1570.31 1481.64 L1586.63 1481.64 L1586.63 1485.58 L1564.69 1485.58 L1564.69 1481.64 Q1567.35 1478.89 1571.93 1474.26 Q1576.54 1469.61 1577.72 1468.27 Q1579.97 1465.74 1580.85 1464.01 Q1581.75 1462.25 1581.75 1460.56 Q1581.75 1457.8 1579.8 1456.07 Q1577.88 1454.33 1574.78 1454.33 Q1572.58 1454.33 1570.13 1455.09 Q1567.7 1455.86 1564.92 1457.41 L1564.92 1452.69 Q1567.74 1451.55 1570.2 1450.97 Q1572.65 1450.39 1574.69 1450.39 Q1580.06 1450.39 1583.25 1453.08 Q1586.45 1455.77 1586.45 1460.26 Q1586.45 1462.39 1585.64 1464.31 Q1584.85 1466.2 1582.74 1468.8 Q1582.17 1469.47 1579.06 1472.69 Q1575.96 1475.88 1570.31 1481.64 Z" fill="#000000" fill-rule="nonzero" fill-opacity="1" /><path clip-path="url(#clip210)" d="M1600.48 1481.64 L1616.79 1481.64 L1616.79 1485.58 L1594.85 1485.58 L1594.85 1481.64 Q1597.51 1478.89 1602.1 1474.26 Q1606.7 1469.61 1607.88 1468.27 Q1610.13 1465.74 1611.01 1464.01 Q1611.91 1462.25 1611.91 1460.56 Q1611.91 1457.8 1609.97 1456.07 Q1608.04 1454.33 1604.94 1454.33 Q1602.74 1454.33 1600.29 1455.09 Q1597.86 1455.86 1595.08 1457.41 L1595.08 1452.69 Q1597.91 1451.55 1600.36 1450.97 Q1602.81 1450.39 1604.85 1450.39 Q1610.22 1450.39 1613.42 1453.08 Q1616.61 1455.77 1616.61 1460.26 Q1616.61 1462.39 1615.8 1464.31 Q1615.01 1466.2 1612.91 1468.8 Q1612.33 1469.47 1609.23 1472.69 Q1606.12 1475.88 1600.48 1481.64 Z" fill="#000000" fill-rule="nonzero" fill-opacity="1" /><path clip-path="url(#clip210)" d="M1636.61 1454.1 Q1633 1454.1 1631.17 1457.66 Q1629.36 1461.2 1629.36 1468.33 Q1629.36 1475.44 1631.17 1479.01 Q1633 1482.55 1636.61 1482.55 Q1640.24 1482.55 1642.05 1479.01 Q1643.88 1475.44 1643.88 1468.33 Q1643.88 1461.2 1642.05 1457.66 Q1640.24 1454.1 1636.61 1454.1 M1636.61 1450.39 Q1642.42 1450.39 1645.48 1455 Q1648.55 1459.58 1648.55 1468.33 Q1648.55 1477.06 1645.48 1481.67 Q1642.42 1486.25 1636.61 1486.25 Q1630.8 1486.25 1627.72 1481.67 Q1624.66 1477.06 1624.66 1468.33 Q1624.66 1459.58 1627.72 1455 Q1630.8 1450.39 1636.61 1450.39 Z" fill="#000000" fill-rule="nonzero" fill-opacity="1" /><path clip-path="url(#clip210)" d="M1769.02 1454.1 Q1765.41 1454.1 1763.58 1457.66 Q1761.78 1461.2 1761.78 1468.33 Q1761.78 1475.44 1763.58 1479.01 Q1765.41 1482.55 1769.02 1482.55 Q1772.65 1482.55 1774.46 1479.01 Q1776.29 1475.44 1776.29 1468.33 Q1776.29 1461.2 1774.46 1457.66 Q1772.65 1454.1 1769.02 1454.1 M1769.02 1450.39 Q1774.83 1450.39 1777.89 1455 Q1780.96 1459.58 1780.96 1468.33 Q1780.96 1477.06 1777.89 1481.67 Q1774.83 1486.25 1769.02 1486.25 Q1763.21 1486.25 1760.13 1481.67 Q1757.08 1477.06 1757.08 1468.33 Q1757.08 1459.58 1760.13 1455 Q1763.21 1450.39 1769.02 1450.39 Z" fill="#000000" fill-rule="nonzero" fill-opacity="1" /><path clip-path="url(#clip210)" d="M1789.18 1479.7 L1794.07 1479.7 L1794.07 1485.58 L1789.18 1485.58 L1789.18 1479.7 Z" fill="#000000" fill-rule="nonzero" fill-opacity="1" /><path clip-path="url(#clip210)" d="M1814.25 1454.1 Q1810.64 1454.1 1808.81 1457.66 Q1807.01 1461.2 1807.01 1468.33 Q1807.01 1475.44 1808.81 1479.01 Q1810.64 1482.55 1814.25 1482.55 Q1817.89 1482.55 1819.69 1479.01 Q1821.52 1475.44 1821.52 1468.33 Q1821.52 1461.2 1819.69 1457.66 Q1817.89 1454.1 1814.25 1454.1 M1814.25 1450.39 Q1820.06 1450.39 1823.12 1455 Q1826.2 1459.58 1826.2 1468.33 Q1826.2 1477.06 1823.12 1481.67 Q1820.06 1486.25 1814.25 1486.25 Q1808.44 1486.25 1805.36 1481.67 Q1802.31 1477.06 1802.31 1468.33 Q1802.31 1459.58 1805.36 1455 Q1808.44 1450.39 1814.25 1450.39 Z" fill="#000000" fill-rule="nonzero" fill-opacity="1" /><path clip-path="url(#clip210)" d="M1844.41 1454.1 Q1840.8 1454.1 1838.97 1457.66 Q1837.17 1461.2 1837.17 1468.33 Q1837.17 1475.44 1838.97 1479.01 Q1840.8 1482.55 1844.41 1482.55 Q1848.05 1482.55 1849.85 1479.01 Q1851.68 1475.44 1851.68 1468.33 Q1851.68 1461.2 1849.85 1457.66 Q1848.05 1454.1 1844.41 1454.1 M1844.41 1450.39 Q1850.22 1450.39 1853.28 1455 Q1856.36 1459.58 1856.36 1468.33 Q1856.36 1477.06 1853.28 1481.67 Q1850.22 1486.25 1844.41 1486.25 Q1838.6 1486.25 1835.52 1481.67 Q1832.47 1477.06 1832.47 1468.33 Q1832.47 1459.58 1835.52 1455 Q1838.6 1450.39 1844.41 1450.39 Z" fill="#000000" fill-rule="nonzero" fill-opacity="1" /><path clip-path="url(#clip210)" d="M1868.6 1481.64 L1884.92 1481.64 L1884.92 1485.58 L1862.98 1485.58 L1862.98 1481.64 Q1865.64 1478.89 1870.22 1474.26 Q1874.83 1469.61 1876.01 1468.27 Q1878.26 1465.74 1879.14 1464.01 Q1880.04 1462.25 1880.04 1460.56 Q1880.04 1457.8 1878.09 1456.07 Q1876.17 1454.33 1873.07 1454.33 Q1870.87 1454.33 1868.42 1455.09 Q1865.99 1455.86 1863.21 1457.41 L1863.21 1452.69 Q1866.03 1451.55 1868.49 1450.97 Q1870.94 1450.39 1872.98 1450.39 Q1878.35 1450.39 1881.54 1453.08 Q1884.74 1455.77 1884.74 1460.26 Q1884.74 1462.39 1883.93 1464.31 Q1883.14 1466.2 1881.03 1468.8 Q1880.46 1469.47 1877.35 1472.69 Q1874.25 1475.88 1868.6 1481.64 Z" fill="#000000" fill-rule="nonzero" fill-opacity="1" /><path clip-path="url(#clip210)" d="M1898.77 1481.64 L1915.08 1481.64 L1915.08 1485.58 L1893.14 1485.58 L1893.14 1481.64 Q1895.8 1478.89 1900.39 1474.26 Q1904.99 1469.61 1906.17 1468.27 Q1908.42 1465.74 1909.3 1464.01 Q1910.2 1462.25 1910.2 1460.56 Q1910.2 1457.8 1908.26 1456.07 Q1906.33 1454.33 1903.23 1454.33 Q1901.03 1454.33 1898.58 1455.09 Q1896.15 1455.86 1893.37 1457.41 L1893.37 1452.69 Q1896.2 1451.55 1898.65 1450.97 Q1901.1 1450.39 1903.14 1450.39 Q1908.51 1450.39 1911.71 1453.08 Q1914.9 1455.77 1914.9 1460.26 Q1914.9 1462.39 1914.09 1464.31 Q1913.3 1466.2 1911.2 1468.8 Q1910.62 1469.47 1907.52 1472.69 Q1904.41 1475.88 1898.77 1481.64 Z" fill="#000000" fill-rule="nonzero" fill-opacity="1" /><path clip-path="url(#clip210)" d="M1928.93 1481.64 L1945.25 1481.64 L1945.25 1485.58 L1923.3 1485.58 L1923.3 1481.64 Q1925.96 1478.89 1930.55 1474.26 Q1935.15 1469.61 1936.33 1468.27 Q1938.58 1465.74 1939.46 1464.01 Q1940.36 1462.25 1940.36 1460.56 Q1940.36 1457.8 1938.42 1456.07 Q1936.5 1454.33 1933.39 1454.33 Q1931.2 1454.33 1928.74 1455.09 Q1926.31 1455.86 1923.53 1457.41 L1923.53 1452.69 Q1926.36 1451.55 1928.81 1450.97 Q1931.27 1450.39 1933.3 1450.39 Q1938.67 1450.39 1941.87 1453.08 Q1945.06 1455.77 1945.06 1460.26 Q1945.06 1462.39 1944.25 1464.31 Q1943.46 1466.2 1941.36 1468.8 Q1940.78 1469.47 1937.68 1472.69 Q1934.58 1475.88 1928.93 1481.64 Z" fill="#000000" fill-rule="nonzero" fill-opacity="1" /><path clip-path="url(#clip210)" d="M2065.47 1454.1 Q2061.86 1454.1 2060.03 1457.66 Q2058.23 1461.2 2058.23 1468.33 Q2058.23 1475.44 2060.03 1479.01 Q2061.86 1482.55 2065.47 1482.55 Q2069.1 1482.55 2070.91 1479.01 Q2072.74 1475.44 2072.74 1468.33 Q2072.74 1461.2 2070.91 1457.66 Q2069.1 1454.1 2065.47 1454.1 M2065.47 1450.39 Q2071.28 1450.39 2074.34 1455 Q2077.41 1459.58 2077.41 1468.33 Q2077.41 1477.06 2074.34 1481.67 Q2071.28 1486.25 2065.47 1486.25 Q2059.66 1486.25 2056.58 1481.67 Q2053.53 1477.06 2053.53 1468.33 Q2053.53 1459.58 2056.58 1455 Q2059.66 1450.39 2065.47 1450.39 Z" fill="#000000" fill-rule="nonzero" fill-opacity="1" /><path clip-path="url(#clip210)" d="M2085.63 1479.7 L2090.52 1479.7 L2090.52 1485.58 L2085.63 1485.58 L2085.63 1479.7 Z" fill="#000000" fill-rule="nonzero" fill-opacity="1" /><path clip-path="url(#clip210)" d="M2110.7 1454.1 Q2107.09 1454.1 2105.26 1457.66 Q2103.46 1461.2 2103.46 1468.33 Q2103.46 1475.44 2105.26 1479.01 Q2107.09 1482.55 2110.7 1482.55 Q2114.34 1482.55 2116.14 1479.01 Q2117.97 1475.44 2117.97 1468.33 Q2117.97 1461.2 2116.14 1457.66 Q2114.34 1454.1 2110.7 1454.1 M2110.7 1450.39 Q2116.51 1450.39 2119.57 1455 Q2122.65 1459.58 2122.65 1468.33 Q2122.65 1477.06 2119.57 1481.67 Q2116.51 1486.25 2110.7 1486.25 Q2104.89 1486.25 2101.81 1481.67 Q2098.76 1477.06 2098.76 1468.33 Q2098.76 1459.58 2101.81 1455 Q2104.89 1450.39 2110.7 1450.39 Z" fill="#000000" fill-rule="nonzero" fill-opacity="1" /><path clip-path="url(#clip210)" d="M2140.86 1454.1 Q2137.25 1454.1 2135.42 1457.66 Q2133.62 1461.2 2133.62 1468.33 Q2133.62 1475.44 2135.42 1479.01 Q2137.25 1482.55 2140.86 1482.55 Q2144.5 1482.55 2146.3 1479.01 Q2148.13 1475.44 2148.13 1468.33 Q2148.13 1461.2 2146.3 1457.66 Q2144.5 1454.1 2140.86 1454.1 M2140.86 1450.39 Q2146.67 1450.39 2149.73 1455 Q2152.81 1459.58 2152.81 1468.33 Q2152.81 1477.06 2149.73 1481.67 Q2146.67 1486.25 2140.86 1486.25 Q2135.05 1486.25 2131.97 1481.67 Q2128.92 1477.06 2128.92 1468.33 Q2128.92 1459.58 2131.97 1455 Q2135.05 1450.39 2140.86 1450.39 Z" fill="#000000" fill-rule="nonzero" fill-opacity="1" /><path clip-path="url(#clip210)" d="M2165.05 1481.64 L2181.37 1481.64 L2181.37 1485.58 L2159.43 1485.58 L2159.43 1481.64 Q2162.09 1478.89 2166.67 1474.26 Q2171.28 1469.61 2172.46 1468.27 Q2174.71 1465.74 2175.59 1464.01 Q2176.49 1462.25 2176.49 1460.56 Q2176.49 1457.8 2174.54 1456.07 Q2172.62 1454.33 2169.52 1454.33 Q2167.32 1454.33 2164.87 1455.09 Q2162.44 1455.86 2159.66 1457.41 L2159.66 1452.69 Q2162.48 1451.55 2164.94 1450.97 Q2167.39 1450.39 2169.43 1450.39 Q2174.8 1450.39 2177.99 1453.08 Q2181.19 1455.77 2181.19 1460.26 Q2181.19 1462.39 2180.38 1464.31 Q2179.59 1466.2 2177.48 1468.8 Q2176.9 1469.47 2173.8 1472.69 Q2170.7 1475.88 2165.05 1481.64 Z" fill="#000000" fill-rule="nonzero" fill-opacity="1" /><path clip-path="url(#clip210)" d="M2195.22 1481.64 L2211.53 1481.64 L2211.53 1485.58 L2189.59 1485.58 L2189.59 1481.64 Q2192.25 1478.89 2196.84 1474.26 Q2201.44 1469.61 2202.62 1468.27 Q2204.87 1465.74 2205.75 1464.01 Q2206.65 1462.25 2206.65 1460.56 Q2206.65 1457.8 2204.71 1456.07 Q2202.78 1454.33 2199.68 1454.33 Q2197.48 1454.33 2195.03 1455.09 Q2192.6 1455.86 2189.82 1457.41 L2189.82 1452.69 Q2192.65 1451.55 2195.1 1450.97 Q2197.55 1450.39 2199.59 1450.39 Q2204.96 1450.39 2208.15 1453.08 Q2211.35 1455.77 2211.35 1460.26 Q2211.35 1462.39 2210.54 1464.31 Q2209.75 1466.2 2207.65 1468.8 Q2207.07 1469.47 2203.96 1472.69 Q2200.86 1475.88 2195.22 1481.64 Z" fill="#000000" fill-rule="nonzero" fill-opacity="1" /><path clip-path="url(#clip210)" d="M2234.2 1455.09 L2222.39 1473.54 L2234.2 1473.54 L2234.2 1455.09 M2232.97 1451.02 L2238.85 1451.02 L2238.85 1473.54 L2243.78 1473.54 L2243.78 1477.43 L2238.85 1477.43 L2238.85 1485.58 L2234.2 1485.58 L2234.2 1477.43 L2218.59 1477.43 L2218.59 1472.92 L2232.97 1451.02 Z" fill="#000000" fill-rule="nonzero" fill-opacity="1" /><path clip-path="url(#clip210)" d="M1291.88 1565.85 L1291.88 1581.6 L1285.99 1581.6 L1285.99 1532.62 Q1285.99 1518.1 1299.55 1518.1 Q1313.36 1518.1 1313.36 1530.36 Q1313.36 1539.08 1307.89 1542.26 Q1316.8 1545.13 1316.8 1553.63 Q1316.8 1568.71 1301.46 1568.71 Q1294.71 1568.71 1291.88 1565.85 M1291.88 1558.21 Q1295.41 1563.72 1301.68 1563.72 Q1310.85 1563.72 1310.85 1553.72 Q1310.85 1544.75 1296.08 1545.45 L1296.08 1540.03 Q1307.63 1540.03 1307.63 1529.85 Q1307.63 1522.88 1300.18 1522.88 Q1291.88 1522.88 1291.88 1532.81 L1291.88 1558.21 Z" fill="#000000" fill-rule="nonzero" fill-opacity="1" /><polyline clip-path="url(#clip210)" style="stroke:#000000; stroke-linecap:round; stroke-linejoin:round; stroke-width:4; stroke-opacity:1; fill:none" points="250.028,1423.18 250.028,47.2441 "/>
<polyline clip-path="url(#clip210)" style="stroke:#000000; stroke-linecap:round; stroke-linejoin:round; stroke-width:4; stroke-opacity:1; fill:none" points="250.028,1334.85 268.926,1334.85 "/>
<polyline clip-path="url(#clip210)" style="stroke:#000000; stroke-linecap:round; stroke-linejoin:round; stroke-width:4; stroke-opacity:1; fill:none" points="250.028,1128.1 268.926,1128.1 "/>
<polyline clip-path="url(#clip210)" style="stroke:#000000; stroke-linecap:round; stroke-linejoin:round; stroke-width:4; stroke-opacity:1; fill:none" points="250.028,921.35 268.926,921.35 "/>
<polyline clip-path="url(#clip210)" style="stroke:#000000; stroke-linecap:round; stroke-linejoin:round; stroke-width:4; stroke-opacity:1; fill:none" points="250.028,714.598 268.926,714.598 "/>
<polyline clip-path="url(#clip210)" style="stroke:#000000; stroke-linecap:round; stroke-linejoin:round; stroke-width:4; stroke-opacity:1; fill:none" points="250.028,507.846 268.926,507.846 "/>
<polyline clip-path="url(#clip210)" style="stroke:#000000; stroke-linecap:round; stroke-linejoin:round; stroke-width:4; stroke-opacity:1; fill:none" points="250.028,301.094 268.926,301.094 "/>
<polyline clip-path="url(#clip210)" style="stroke:#000000; stroke-linecap:round; stroke-linejoin:round; stroke-width:4; stroke-opacity:1; fill:none" points="250.028,94.3414 268.926,94.3414 "/>
<path clip-path="url(#clip210)" d="M128.288 1320.65 Q124.677 1320.65 122.848 1324.22 Q121.043 1327.76 121.043 1334.89 Q121.043 1342 122.848 1345.56 Q124.677 1349.1 128.288 1349.1 Q131.922 1349.1 133.728 1345.56 Q135.556 1342 135.556 1334.89 Q135.556 1327.76 133.728 1324.22 Q131.922 1320.65 128.288 1320.65 M128.288 1316.95 Q134.098 1316.95 137.154 1321.56 Q140.232 1326.14 140.232 1334.89 Q140.232 1343.62 137.154 1348.22 Q134.098 1352.81 128.288 1352.81 Q122.478 1352.81 119.399 1348.22 Q116.343 1343.62 116.343 1334.89 Q116.343 1326.14 119.399 1321.56 Q122.478 1316.95 128.288 1316.95 Z" fill="#000000" fill-rule="nonzero" fill-opacity="1" /><path clip-path="url(#clip210)" d="M148.45 1346.25 L153.334 1346.25 L153.334 1352.13 L148.45 1352.13 L148.45 1346.25 Z" fill="#000000" fill-rule="nonzero" fill-opacity="1" /><path clip-path="url(#clip210)" d="M176.366 1321.65 L164.561 1340.1 L176.366 1340.1 L176.366 1321.65 M175.139 1317.57 L181.019 1317.57 L181.019 1340.1 L185.95 1340.1 L185.95 1343.99 L181.019 1343.99 L181.019 1352.13 L176.366 1352.13 L176.366 1343.99 L160.765 1343.99 L160.765 1339.47 L175.139 1317.57 Z" fill="#000000" fill-rule="nonzero" fill-opacity="1" /><path clip-path="url(#clip210)" d="M197.709 1348.2 L214.028 1348.2 L214.028 1352.13 L192.084 1352.13 L192.084 1348.2 Q194.746 1345.44 199.329 1340.81 Q203.936 1336.16 205.116 1334.82 Q207.362 1332.3 208.241 1330.56 Q209.144 1328.8 209.144 1327.11 Q209.144 1324.36 207.199 1322.62 Q205.278 1320.88 202.176 1320.88 Q199.977 1320.88 197.524 1321.65 Q195.093 1322.41 192.315 1323.96 L192.315 1319.24 Q195.139 1318.11 197.593 1317.53 Q200.047 1316.95 202.084 1316.95 Q207.454 1316.95 210.649 1319.63 Q213.843 1322.32 213.843 1326.81 Q213.843 1328.94 213.033 1330.86 Q212.246 1332.76 210.139 1335.35 Q209.561 1336.02 206.459 1339.24 Q203.357 1342.44 197.709 1348.2 Z" fill="#000000" fill-rule="nonzero" fill-opacity="1" /><path clip-path="url(#clip210)" d="M127.339 1113.9 Q123.728 1113.9 121.899 1117.47 Q120.093 1121.01 120.093 1128.14 Q120.093 1135.24 121.899 1138.81 Q123.728 1142.35 127.339 1142.35 Q130.973 1142.35 132.779 1138.81 Q134.607 1135.24 134.607 1128.14 Q134.607 1121.01 132.779 1117.47 Q130.973 1113.9 127.339 1113.9 M127.339 1110.2 Q133.149 1110.2 136.204 1114.8 Q139.283 1119.39 139.283 1128.14 Q139.283 1136.86 136.204 1141.47 Q133.149 1146.05 127.339 1146.05 Q121.529 1146.05 118.45 1141.47 Q115.394 1136.86 115.394 1128.14 Q115.394 1119.39 118.45 1114.8 Q121.529 1110.2 127.339 1110.2 Z" fill="#000000" fill-rule="nonzero" fill-opacity="1" /><path clip-path="url(#clip210)" d="M147.501 1139.5 L152.385 1139.5 L152.385 1145.38 L147.501 1145.38 L147.501 1139.5 Z" fill="#000000" fill-rule="nonzero" fill-opacity="1" /><path clip-path="url(#clip210)" d="M175.417 1114.9 L163.612 1133.35 L175.417 1133.35 L175.417 1114.9 M174.19 1110.82 L180.07 1110.82 L180.07 1133.35 L185.001 1133.35 L185.001 1137.23 L180.07 1137.23 L180.07 1145.38 L175.417 1145.38 L175.417 1137.23 L159.815 1137.23 L159.815 1132.72 L174.19 1110.82 Z" fill="#000000" fill-rule="nonzero" fill-opacity="1" /><path clip-path="url(#clip210)" d="M206.899 1126.75 Q210.255 1127.47 212.13 1129.73 Q214.028 1132 214.028 1135.34 Q214.028 1140.45 210.51 1143.25 Q206.991 1146.05 200.51 1146.05 Q198.334 1146.05 196.019 1145.61 Q193.727 1145.2 191.274 1144.34 L191.274 1139.83 Q193.218 1140.96 195.533 1141.54 Q197.848 1142.12 200.371 1142.12 Q204.769 1142.12 207.061 1140.38 Q209.375 1138.65 209.375 1135.34 Q209.375 1132.28 207.223 1130.57 Q205.093 1128.83 201.274 1128.83 L197.246 1128.83 L197.246 1124.99 L201.459 1124.99 Q204.908 1124.99 206.737 1123.62 Q208.565 1122.23 208.565 1119.64 Q208.565 1116.98 206.667 1115.57 Q204.792 1114.13 201.274 1114.13 Q199.352 1114.13 197.153 1114.55 Q194.954 1114.97 192.315 1115.85 L192.315 1111.68 Q194.977 1110.94 197.292 1110.57 Q199.63 1110.2 201.69 1110.2 Q207.014 1110.2 210.116 1112.63 Q213.218 1115.03 213.218 1119.16 Q213.218 1122.03 211.574 1124.02 Q209.931 1125.98 206.899 1126.75 Z" fill="#000000" fill-rule="nonzero" fill-opacity="1" /><path clip-path="url(#clip210)" d="M126.205 907.149 Q122.593 907.149 120.765 910.713 Q118.959 914.255 118.959 921.385 Q118.959 928.491 120.765 932.056 Q122.593 935.598 126.205 935.598 Q129.839 935.598 131.644 932.056 Q133.473 928.491 133.473 921.385 Q133.473 914.255 131.644 910.713 Q129.839 907.149 126.205 907.149 M126.205 903.445 Q132.015 903.445 135.07 908.051 Q138.149 912.635 138.149 921.385 Q138.149 930.111 135.07 934.718 Q132.015 939.301 126.205 939.301 Q120.394 939.301 117.316 934.718 Q114.26 930.111 114.26 921.385 Q114.26 912.635 117.316 908.051 Q120.394 903.445 126.205 903.445 Z" fill="#000000" fill-rule="nonzero" fill-opacity="1" /><path clip-path="url(#clip210)" d="M146.366 932.75 L151.251 932.75 L151.251 938.63 L146.366 938.63 L146.366 932.75 Z" fill="#000000" fill-rule="nonzero" fill-opacity="1" /><path clip-path="url(#clip210)" d="M174.283 908.144 L162.477 926.593 L174.283 926.593 L174.283 908.144 M173.056 904.07 L178.936 904.07 L178.936 926.593 L183.866 926.593 L183.866 930.482 L178.936 930.482 L178.936 938.63 L174.283 938.63 L174.283 930.482 L158.681 930.482 L158.681 925.968 L173.056 904.07 Z" fill="#000000" fill-rule="nonzero" fill-opacity="1" /><path clip-path="url(#clip210)" d="M204.445 908.144 L192.639 926.593 L204.445 926.593 L204.445 908.144 M203.218 904.07 L209.098 904.07 L209.098 926.593 L214.028 926.593 L214.028 930.482 L209.098 930.482 L209.098 938.63 L204.445 938.63 L204.445 930.482 L188.843 930.482 L188.843 925.968 L203.218 904.07 Z" fill="#000000" fill-rule="nonzero" fill-opacity="1" /><path clip-path="url(#clip210)" d="M127.686 700.396 Q124.075 700.396 122.246 703.961 Q120.441 707.503 120.441 714.632 Q120.441 721.739 122.246 725.304 Q124.075 728.845 127.686 728.845 Q131.32 728.845 133.126 725.304 Q134.954 721.739 134.954 714.632 Q134.954 707.503 133.126 703.961 Q131.32 700.396 127.686 700.396 M127.686 696.693 Q133.496 696.693 136.552 701.299 Q139.63 705.883 139.63 714.632 Q139.63 723.359 136.552 727.966 Q133.496 732.549 127.686 732.549 Q121.876 732.549 118.797 727.966 Q115.742 723.359 115.742 714.632 Q115.742 705.883 118.797 701.299 Q121.876 696.693 127.686 696.693 Z" fill="#000000" fill-rule="nonzero" fill-opacity="1" /><path clip-path="url(#clip210)" d="M147.848 725.998 L152.732 725.998 L152.732 731.878 L147.848 731.878 L147.848 725.998 Z" fill="#000000" fill-rule="nonzero" fill-opacity="1" /><path clip-path="url(#clip210)" d="M175.764 701.392 L163.959 719.841 L175.764 719.841 L175.764 701.392 M174.538 697.318 L180.417 697.318 L180.417 719.841 L185.348 719.841 L185.348 723.73 L180.417 723.73 L180.417 731.878 L175.764 731.878 L175.764 723.73 L160.163 723.73 L160.163 719.216 L174.538 697.318 Z" fill="#000000" fill-rule="nonzero" fill-opacity="1" /><path clip-path="url(#clip210)" d="M193.125 697.318 L211.482 697.318 L211.482 701.253 L197.408 701.253 L197.408 709.725 Q198.426 709.378 199.445 709.216 Q200.463 709.031 201.482 709.031 Q207.269 709.031 210.649 712.202 Q214.028 715.373 214.028 720.79 Q214.028 726.369 210.556 729.47 Q207.084 732.549 200.764 732.549 Q198.588 732.549 196.32 732.179 Q194.075 731.808 191.667 731.068 L191.667 726.369 Q193.75 727.503 195.973 728.058 Q198.195 728.614 200.672 728.614 Q204.676 728.614 207.014 726.507 Q209.352 724.401 209.352 720.79 Q209.352 717.179 207.014 715.072 Q204.676 712.966 200.672 712.966 Q198.797 712.966 196.922 713.383 Q195.07 713.799 193.125 714.679 L193.125 697.318 Z" fill="#000000" fill-rule="nonzero" fill-opacity="1" /><path clip-path="url(#clip210)" d="M126.529 493.644 Q122.918 493.644 121.089 497.209 Q119.283 500.751 119.283 507.88 Q119.283 514.987 121.089 518.552 Q122.918 522.093 126.529 522.093 Q130.163 522.093 131.968 518.552 Q133.797 514.987 133.797 507.88 Q133.797 500.751 131.968 497.209 Q130.163 493.644 126.529 493.644 M126.529 489.941 Q132.339 489.941 135.394 494.547 Q138.473 499.13 138.473 507.88 Q138.473 516.607 135.394 521.214 Q132.339 525.797 126.529 525.797 Q120.718 525.797 117.64 521.214 Q114.584 516.607 114.584 507.88 Q114.584 499.13 117.64 494.547 Q120.718 489.941 126.529 489.941 Z" fill="#000000" fill-rule="nonzero" fill-opacity="1" /><path clip-path="url(#clip210)" d="M146.691 519.246 L151.575 519.246 L151.575 525.126 L146.691 525.126 L146.691 519.246 Z" fill="#000000" fill-rule="nonzero" fill-opacity="1" /><path clip-path="url(#clip210)" d="M174.607 494.64 L162.802 513.089 L174.607 513.089 L174.607 494.64 M173.38 490.566 L179.26 490.566 L179.26 513.089 L184.19 513.089 L184.19 516.978 L179.26 516.978 L179.26 525.126 L174.607 525.126 L174.607 516.978 L159.005 516.978 L159.005 512.464 L173.38 490.566 Z" fill="#000000" fill-rule="nonzero" fill-opacity="1" /><path clip-path="url(#clip210)" d="M202.5 505.982 Q199.352 505.982 197.5 508.135 Q195.672 510.288 195.672 514.038 Q195.672 517.765 197.5 519.94 Q199.352 522.093 202.5 522.093 Q205.649 522.093 207.477 519.94 Q209.329 517.765 209.329 514.038 Q209.329 510.288 207.477 508.135 Q205.649 505.982 202.5 505.982 M211.783 491.33 L211.783 495.589 Q210.024 494.755 208.218 494.316 Q206.436 493.876 204.676 493.876 Q200.047 493.876 197.593 497.001 Q195.163 500.126 194.815 506.445 Q196.181 504.431 198.241 503.367 Q200.301 502.279 202.778 502.279 Q207.987 502.279 210.996 505.45 Q214.028 508.598 214.028 514.038 Q214.028 519.362 210.88 522.579 Q207.732 525.797 202.5 525.797 Q196.505 525.797 193.334 521.214 Q190.163 516.607 190.163 507.88 Q190.163 499.686 194.051 494.825 Q197.94 489.941 204.491 489.941 Q206.25 489.941 208.033 490.288 Q209.838 490.635 211.783 491.33 Z" fill="#000000" fill-rule="nonzero" fill-opacity="1" /><path clip-path="url(#clip210)" d="M127.593 286.892 Q123.982 286.892 122.154 290.457 Q120.348 293.999 120.348 301.128 Q120.348 308.235 122.154 311.799 Q123.982 315.341 127.593 315.341 Q131.228 315.341 133.033 311.799 Q134.862 308.235 134.862 301.128 Q134.862 293.999 133.033 290.457 Q131.228 286.892 127.593 286.892 M127.593 283.189 Q133.404 283.189 136.459 287.795 Q139.538 292.378 139.538 301.128 Q139.538 309.855 136.459 314.461 Q133.404 319.045 127.593 319.045 Q121.783 319.045 118.705 314.461 Q115.649 309.855 115.649 301.128 Q115.649 292.378 118.705 287.795 Q121.783 283.189 127.593 283.189 Z" fill="#000000" fill-rule="nonzero" fill-opacity="1" /><path clip-path="url(#clip210)" d="M147.755 312.494 L152.64 312.494 L152.64 318.374 L147.755 318.374 L147.755 312.494 Z" fill="#000000" fill-rule="nonzero" fill-opacity="1" /><path clip-path="url(#clip210)" d="M175.672 287.888 L163.866 306.337 L175.672 306.337 L175.672 287.888 M174.445 283.814 L180.325 283.814 L180.325 306.337 L185.255 306.337 L185.255 310.225 L180.325 310.225 L180.325 318.374 L175.672 318.374 L175.672 310.225 L160.07 310.225 L160.07 305.712 L174.445 283.814 Z" fill="#000000" fill-rule="nonzero" fill-opacity="1" /><path clip-path="url(#clip210)" d="M191.806 283.814 L214.028 283.814 L214.028 285.804 L201.482 318.374 L196.598 318.374 L208.403 287.749 L191.806 287.749 L191.806 283.814 Z" fill="#000000" fill-rule="nonzero" fill-opacity="1" /><path clip-path="url(#clip210)" d="M126.783 80.1401 Q123.172 80.1401 121.343 83.7049 Q119.538 87.2465 119.538 94.3761 Q119.538 101.483 121.343 105.047 Q123.172 108.589 126.783 108.589 Q130.417 108.589 132.223 105.047 Q134.052 101.483 134.052 94.3761 Q134.052 87.2465 132.223 83.7049 Q130.417 80.1401 126.783 80.1401 M126.783 76.4364 Q132.593 76.4364 135.649 81.0428 Q138.728 85.6261 138.728 94.3761 Q138.728 103.103 135.649 107.709 Q132.593 112.293 126.783 112.293 Q120.973 112.293 117.894 107.709 Q114.839 103.103 114.839 94.3761 Q114.839 85.6261 117.894 81.0428 Q120.973 76.4364 126.783 76.4364 Z" fill="#000000" fill-rule="nonzero" fill-opacity="1" /><path clip-path="url(#clip210)" d="M146.945 105.742 L151.829 105.742 L151.829 111.621 L146.945 111.621 L146.945 105.742 Z" fill="#000000" fill-rule="nonzero" fill-opacity="1" /><path clip-path="url(#clip210)" d="M174.862 81.1354 L163.056 99.5844 L174.862 99.5844 L174.862 81.1354 M173.635 77.0614 L179.514 77.0614 L179.514 99.5844 L184.445 99.5844 L184.445 103.473 L179.514 103.473 L179.514 111.621 L174.862 111.621 L174.862 103.473 L159.26 103.473 L159.26 98.9594 L173.635 77.0614 Z" fill="#000000" fill-rule="nonzero" fill-opacity="1" /><path clip-path="url(#clip210)" d="M202.176 95.2094 Q198.843 95.2094 196.922 96.9918 Q195.024 98.7742 195.024 101.899 Q195.024 105.024 196.922 106.807 Q198.843 108.589 202.176 108.589 Q205.51 108.589 207.431 106.807 Q209.352 105.001 209.352 101.899 Q209.352 98.7742 207.431 96.9918 Q205.533 95.2094 202.176 95.2094 M197.5 93.2187 Q194.491 92.478 192.801 90.4178 Q191.135 88.3576 191.135 85.3947 Q191.135 81.2512 194.075 78.8438 Q197.037 76.4364 202.176 76.4364 Q207.338 76.4364 210.278 78.8438 Q213.218 81.2512 213.218 85.3947 Q213.218 88.3576 211.528 90.4178 Q209.861 92.478 206.875 93.2187 Q210.255 94.0057 212.13 96.2974 Q214.028 98.589 214.028 101.899 Q214.028 106.922 210.949 109.607 Q207.894 112.293 202.176 112.293 Q196.459 112.293 193.38 109.607 Q190.325 106.922 190.325 101.899 Q190.325 98.589 192.223 96.2974 Q194.121 94.0057 197.5 93.2187 M195.787 85.8345 Q195.787 88.5196 197.454 90.0243 Q199.144 91.5289 202.176 91.5289 Q205.186 91.5289 206.875 90.0243 Q208.588 88.5196 208.588 85.8345 Q208.588 83.1493 206.875 81.6447 Q205.186 80.1401 202.176 80.1401 Q199.144 80.1401 197.454 81.6447 Q195.787 83.1493 195.787 85.8345 Z" fill="#000000" fill-rule="nonzero" fill-opacity="1" /><path clip-path="url(#clip210)" d="M33.958 742.548 L55.9834 734.75 L28.3562 723.61 L28.3562 717.404 L64.0042 731.822 L77.5631 731.822 L77.5631 737.679 L64.0042 737.679 L37.3955 747.036 Q33.3851 748.437 33.3851 751.46 L33.3851 753.02 L28.3562 753.02 L28.3562 750.792 Q28.3562 744.522 33.958 742.548 Z" fill="#000000" fill-rule="nonzero" fill-opacity="1" /><circle clip-path="url(#clip211)" cx="1282.03" cy="769.346" r="7.2" fill="#009af9" fill-rule="evenodd" fill-opacity="1" stroke="#000000" stroke-opacity="1" stroke-width="3.2"/>
<polyline clip-path="url(#clip211)" style="stroke:#e26f46; stroke-linecap:round; stroke-linejoin:round; stroke-width:4; stroke-opacity:1; fill:none" points="1845.75,769.346 1846.65,767.81 1847.54,766.273 1848.43,764.737 1849.3,763.2 1850.17,761.664 1851.03,760.127 1851.88,758.591 1852.73,757.054 1853.56,755.518 1854.39,753.982 1855.2,752.445 1856.01,750.909 1856.81,749.372 1857.6,747.836 1858.39,746.299 1859.16,744.763 1859.93,743.226 1860.69,741.69 1861.44,740.153 1862.18,738.617 1862.91,737.081 1863.64,735.544 1864.36,734.008 1865.06,732.471 1865.76,730.935 1866.45,729.398 1867.14,727.862 1867.81,726.325 1868.48,724.789 1869.13,723.252 1869.78,721.716 1870.42,720.18 1871.05,718.643 1871.68,717.107 1872.29,715.57 1872.9,714.034 1873.49,712.497 1874.08,710.961 1874.66,709.424 1875.24,707.888 1875.8,706.351 1876.35,704.815 1876.9,703.279 1877.44,701.742 1877.97,700.206 1878.49,698.669 1879,697.133 1879.5,695.596 1880,694.06 1880.48,692.523 1880.96,690.987 1881.43,689.45 1881.89,687.914 1882.34,686.377 1882.78,684.841 1883.21,683.305 1883.64,681.768 1884.06,680.232 1884.46,678.695 1884.86,677.159 1885.25,675.622 1885.63,674.086 1886,672.549 1886.37,671.013 1886.72,669.476 1887.06,667.94 1887.4,666.404 1887.73,664.867 1888.04,663.331 1888.35,661.794 1888.65,660.258 1888.94,658.721 1889.23,657.185 1889.5,655.648 1889.76,654.112 1890.02,652.575 1890.26,651.039 1890.5,649.503 1890.72,647.966 1890.94,646.43 1891.15,644.893 1891.35,643.357 1891.53,641.82 1891.71,640.284 1891.88,638.747 1892.04,637.211 1892.2,635.674 1892.34,634.138 1892.47,632.602 1892.59,631.065 1892.7,629.529 1892.81,627.992 1892.9,626.456 1892.98,624.919 1893.06,623.383 1893.12,621.846 1893.17,620.31 1893.22,618.773 1893.25,617.237 1893.27,615.701 1893.29,614.164 1893.29,612.628 1893.28,611.091 1893.27,609.555 1893.24,608.018 1893.2,606.482 1893.15,604.945 1893.09,603.409 1893.02,601.872 1892.94,600.336 1892.85,598.799 1892.75,597.263 1892.64,595.727 1892.52,594.19 1892.38,592.654 1892.24,591.117 1892.08,589.581 1891.92,588.044 1891.74,586.508 1891.55,584.971 1891.35,583.435 1891.14,581.898 1890.92,580.362 1890.68,578.826 1890.44,577.289 1890.18,575.753 1889.91,574.216 1889.63,572.68 1889.34,571.143 1889.04,569.607 1888.72,568.07 1888.39,566.534 1888.05,564.997 1887.7,563.461 1887.33,561.925 1886.96,560.388 1886.57,558.852 1886.16,557.315 1885.75,555.779 1885.32,554.242 1884.88,552.706 1884.43,551.169 1883.96,549.633 1883.48,548.096 1882.99,546.56 1882.48,545.024 1881.96,543.487 1881.42,541.951 1880.88,540.414 1880.31,538.878 1879.74,537.341 1879.15,535.805 1878.54,534.268 1877.92,532.732 1877.29,531.195 1876.64,529.659 1875.98,528.123 1875.3,526.586 1874.61,525.05 1873.9,523.513 1873.17,521.977 1872.43,520.44 1871.68,518.904 1870.9,517.367 1870.12,515.831 1869.31,514.294 1868.49,512.758 1867.65,511.221 1866.8,509.685 1865.92,508.149 1865.03,506.612 1864.13,505.076 1863.2,503.539 1862.26,502.003 1861.29,500.466 1860.31,498.93 1859.31,497.393 1858.29,495.857 1857.25,494.32 1856.19,492.784 1855.11,491.248 1854.02,489.711 1852.9,488.175 1851.76,486.638 1850.6,485.102 1849.42,483.565 1848.22,482.029 1847,480.492 1845.76,478.956 1844.49,477.419 1843.2,475.883 1841.89,474.347 1840.56,472.81 1839.2,471.274 1837.82,469.737 1836.41,468.201 1834.98,466.664 1833.52,465.128 1832.03,463.591 1830.52,462.055 1828.98,460.518 1827.41,458.982 1825.81,457.446 1824.18,455.909 1822.52,454.373 1820.84,452.836 1819.12,451.3 1817.36,449.763 1815.58,448.227 1813.76,446.69 1811.9,445.154 1810.01,443.617 1808.08,442.081 1806.12,440.545 1804.11,439.008 1802.07,437.472 1799.99,435.935 1797.86,434.399 1795.7,432.862 1793.49,431.326 1791.24,429.789 1788.94,428.253 1786.6,426.716 1784.2,425.18 1781.76,423.644 1779.26,422.107 1776.71,420.571 1774.1,419.034 1771.44,417.498 1768.72,415.961 1765.93,414.425 1763.08,412.888 1760.16,411.352 1757.17,409.816 1754.1,408.279 1750.95,406.743 1747.73,405.206 1744.41,403.67 1741.01,402.133 1737.51,400.597 1733.91,399.06 1730.2,397.524 1726.38,395.987 1722.44,394.451 1718.37,392.915 1714.17,391.378 1709.82,389.842 1705.31,388.305 1700.62,386.769 1695.75,385.232 1690.66,383.696 1685.35,382.159 1679.77,380.623 1673.89,379.087 1667.72,377.55 1661.21,376.014 1654.29,374.477 1646.86,372.941 1638.79,371.404 1629.93,369.868 1620.09,368.332 1608.96,366.795 1595.88,365.259 1579.41,363.723 1554.52,362.187 1486.71,362.384 1461.84,363.92 1444.18,365.457 1429.62,366.993 1416.91,368.529 1405.46,370.066 1394.96,371.602 1385.19,373.138 1376.01,374.675 1367.32,376.211 1359.05,377.748 1351.15,379.284 1343.56,380.82 1336.25,382.357 1329.19,383.893 1322.35,385.43 1315.72,386.966 1309.28,388.503 1303,390.039 1296.89,391.575 1290.92,393.112 1285.09,394.648 1279.39,396.185 1273.8,397.721 1268.33,399.258 1262.97,400.794 1257.7,402.33 1252.53,403.867 1247.44,405.403 1242.45,406.94 1237.53,408.476 1232.69,410.013 1227.93,411.549 1223.24,413.086 1218.61,414.622 1214.05,416.158 1209.55,417.695 1205.11,419.231 1200.73,420.768 1196.41,422.304 1192.14,423.841 1187.92,425.377 1183.76,426.914 1179.64,428.45 1175.57,429.986 1171.54,431.523 1167.56,433.059 1163.63,434.596 1159.73,436.132 1155.88,437.669 1152.06,439.205 1148.29,440.742 1144.55,442.278 1140.85,443.814 1137.18,445.351 1133.55,446.887 1129.96,448.424 1126.39,449.96 1122.86,451.497 1119.37,453.033 1115.9,454.57 1112.46,456.106 1109.05,457.642 1105.68,459.179 1102.33,460.715 1099,462.252 1095.71,463.788 1092.44,465.325 1089.2,466.861 1085.99,468.398 1082.8,469.934 1079.64,471.471 1076.5,473.007 1073.38,474.543 1070.29,476.08 1067.22,477.616 1064.18,479.153 1061.15,480.689 1058.15,482.226 1055.18,483.762 1052.22,485.299 1049.28,486.835 1046.37,488.371 1043.47,489.908 1040.6,491.444 1037.75,492.981 1034.91,494.517 1032.1,496.054 1029.3,497.59 1026.53,499.127 1023.77,500.663 1021.03,502.2 1018.31,503.736 1015.61,505.272 1012.92,506.809 1010.25,508.345 1007.6,509.882 1004.97,511.418 1002.35,512.955 999.753,514.491 997.169,516.028 994.603,517.564 992.052,519.101 989.517,520.637 986.999,522.173 984.495,523.71 982.008,525.246 979.535,526.783 977.078,528.319 974.636,529.856 972.209,531.392 969.796,532.929 967.398,534.465 965.015,536.002 962.645,537.538 960.29,539.074 957.949,540.611 955.622,542.147 953.309,543.684 951.009,545.22 948.723,546.757 946.451,548.293 944.192,549.83 941.946,551.366 939.713,552.902 937.493,554.439 935.286,555.975 933.091,557.512 930.91,559.048 928.741,560.585 926.584,562.121 924.44,563.658 922.308,565.194 920.189,566.731 918.081,568.267 915.986,569.803 913.902,571.34 911.831,572.876 909.771,574.413 907.723,575.949 905.687,577.486 903.662,579.022 901.649,580.559 899.647,582.095 897.657,583.632 895.677,585.168 893.709,586.704 891.753,588.241 889.807,589.777 887.872,591.314 885.948,592.85 884.035,594.387 882.133,595.923 880.242,597.46 878.362,598.996 876.492,600.533 874.632,602.069 872.784,603.605 870.945,605.142 869.117,606.678 867.3,608.215 865.493,609.751 863.696,611.288 861.909,612.824 860.133,614.361 858.367,615.897 856.61,617.434 854.864,618.97 853.128,620.506 851.402,622.043 849.685,623.579 847.979,625.116 846.282,626.652 844.595,628.189 842.918,629.725 841.251,631.262 839.593,632.798 837.945,634.335 836.306,635.871 834.677,637.407 833.058,638.944 831.448,640.48 829.847,642.017 828.256,643.553 826.675,645.09 825.102,646.626 823.539,648.163 821.986,649.699 820.441,651.236 818.906,652.772 817.38,654.308 815.864,655.845 814.356,657.381 812.857,658.918 811.368,660.454 809.888,661.991 808.417,663.527 806.954,665.064 805.501,666.6 804.057,668.137 802.622,669.673 801.195,671.209 799.778,672.746 798.37,674.282 796.97,675.819 795.579,677.355 794.197,678.892 792.824,680.428 791.46,681.965 790.104,683.501 788.757,685.038 787.419,686.574 786.09,688.11 784.769,689.647 783.457,691.183 782.154,692.72 780.859,694.256 779.573,695.793 778.296,697.329 777.027,698.866 775.767,700.402 774.516,701.939 773.273,703.475 772.038,705.011 770.813,706.548 769.596,708.084 768.387,709.621 767.187,711.157 765.995,712.694 764.812,714.23 763.637,715.767 762.471,717.303 761.314,718.84 760.165,720.376 759.024,721.912 757.892,723.449 756.768,724.985 755.653,726.522 754.546,728.058 753.447,729.595 752.357,731.131 751.276,732.668 750.203,734.204 749.138,735.741 748.082,737.277 747.034,738.813 745.995,740.35 744.964,741.886 743.941,743.423 742.927,744.959 741.921,746.496 740.924,748.032 739.935,749.569 738.955,751.105 737.983,752.642 737.019,754.178 736.064,755.714 735.117,757.251 734.179,758.787 733.249,760.324 732.327,761.86 731.414,763.397 730.51,764.933 729.613,766.47 728.726,768.006 727.846,769.543 726.975,771.079 726.113,772.616 725.259,774.152 724.414,775.688 723.577,777.225 722.748,778.761 721.928,780.298 721.117,781.834 720.314,783.371 719.519,784.907 718.733,786.444 717.956,787.98 717.187,789.517 716.427,791.053 715.675,792.589 714.932,794.126 714.197,795.662 713.471,797.199 712.754,798.735 712.046,800.272 711.346,801.808 710.654,803.345 709.972,804.881 709.298,806.418 708.633,807.954 707.976,809.49 707.329,811.027 706.69,812.563 706.059,814.1 705.438,815.636 704.825,817.173 704.222,818.709 703.627,820.246 703.04,821.782 702.463,823.319 701.895,824.855 701.335,826.391 700.785,827.928 700.243,829.464 699.711,831.001 699.187,832.537 698.673,834.074 698.167,835.61 697.671,837.147 697.183,838.683 696.705,840.22 696.236,841.756 695.776,843.292 695.325,844.829 694.884,846.365 694.451,847.902 694.028,849.438 693.615,850.975 693.21,852.511 692.816,854.048 692.43,855.584 692.054,857.121 691.687,858.657 691.33,860.193 690.983,861.73 690.645,863.266 690.317,864.803 689.998,866.339 689.689,867.876 689.39,869.412 689.1,870.949 688.821,872.485 688.551,874.022 688.291,875.558 688.041,877.095 687.801,878.631 687.571,880.167 687.351,881.704 687.141,883.24 686.941,884.777 686.752,886.313 686.572,887.85 686.403,889.386 686.245,890.923 686.096,892.459 685.959,893.996 685.831,895.532 685.714,897.068 685.608,898.605 685.512,900.141 685.427,901.678 685.353,903.214 685.289,904.751 685.236,906.287 685.195,907.824 685.164,909.36 685.144,910.897 685.135,912.433 685.137,913.969 685.151,915.506 685.176,917.042 685.213,918.579 685.261,920.115 685.321,921.652 685.392,923.188 685.475,924.725 685.57,926.261 685.676,927.798 685.795,929.334 685.925,930.87 686.067,932.407 686.221,933.943 686.387,935.48 686.565,937.016 686.756,938.553 686.958,940.089 687.174,941.626 687.401,943.162 687.641,944.699 687.894,946.235 688.16,947.771 688.438,949.308 688.729,950.844 689.033,952.381 689.351,953.917 689.681,955.454 690.025,956.99 690.383,958.527 690.754,960.063 691.139,961.6 691.537,963.136 691.95,964.673 692.377,966.209 692.818,967.745 693.273,969.282 693.743,970.818 694.227,972.355 694.726,973.891 695.241,975.428 695.77,976.964 696.314,978.501 696.874,980.037 697.45,981.574 698.041,983.11 698.649,984.646 699.272,986.183 699.912,987.719 700.568,989.256 701.24,990.792 701.93,992.329 702.636,993.865 703.36,995.402 704.101,996.938 704.859,998.475 705.636,1000.01 706.43,1001.55 707.243,1003.08 708.073,1004.62 708.923,1006.16 709.791,1007.69 710.679,1009.23 711.585,1010.77 712.511,1012.3 713.457,1013.84 714.423,1015.38 715.409,1016.91 716.415,1018.45 717.442,1019.98 718.49,1021.52 719.559,1023.06 720.649,1024.59 721.761,1026.13 722.896,1027.67 724.056,1029.2 725.241,1030.74 726.449,1032.28 727.682,1033.81 728.94,1035.35 730.221,1036.89 731.528,1038.42 732.859,1039.96 734.216,1041.5 735.598,1043.03 737.005,1044.57 738.439,1046.1 739.899,1047.64 741.386,1049.18 742.901,1050.71 744.444,1052.25 746.015,1053.79 747.615,1055.32 749.246,1056.86 750.907,1058.4 752.6,1059.93 754.325,1061.47 756.083,1063.01 757.876,1064.54 759.703,1066.08 761.567,1067.62 763.467,1069.15 765.406,1070.69 767.384,1072.22 769.403,1073.76 771.464,1075.3 773.567,1076.83 775.715,1078.37 777.909,1079.91 780.15,1081.44 782.44,1082.98 784.779,1084.52 787.171,1086.05 789.615,1087.59 792.115,1089.13 794.671,1090.66 797.285,1092.2 799.96,1093.73 802.696,1095.27 805.497,1096.81 808.363,1098.34 811.296,1099.88 814.299,1101.42 817.374,1102.95 820.523,1104.49 823.752,1106.03 827.067,1107.56 830.47,1109.1 833.967,1110.64 837.562,1112.17 841.262,1113.71 845.071,1115.25 848.998,1116.78 853.063,1118.32 857.282,1119.85 861.645,1121.39 866.15,1122.93 870.799,1124.46 875.603,1126 880.575,1127.54 885.739,1129.07 891.121,1130.61 896.757,1132.15 902.686,1133.68 908.955,1135.22 915.616,1136.76 922.728,1138.29 930.357,1139.83 938.573,1141.36 947.46,1142.9 957.226,1144.44 968.176,1145.97 980.804,1147.51 996.107,1149.05 1016.46,1150.58 1077.12,1151.92 1117.39,1150.38 1138.67,1148.85 1155.3,1147.31 1169.46,1145.78 1182.03,1144.24 1193.46,1142.7 1204.01,1141.17 1213.88,1139.63 1223.17,1138.09 1231.99,1136.56 1240.39,1135.02 1248.44,1133.48 1256.18,1131.95 1263.63,1130.41 1270.84,1128.88 1277.81,1127.34 1284.59,1125.8 1291.17,1124.27 1297.57,1122.73 1303.82,1121.19 1309.91,1119.66 1315.87,1118.12 1321.69,1116.58 1327.39,1115.05 1332.97,1113.51 1338.45,1111.97 1343.82,1110.44 1349.09,1108.9 1354.28,1107.37 1359.37,1105.83 1364.38,1104.29 1369.3,1102.76 1374.15,1101.22 1378.93,1099.68 1383.63,1098.15 1388.27,1096.61 1392.84,1095.07 1397.35,1093.54 1401.8,1092 1406.18,1090.46 1410.52,1088.93 1414.79,1087.39 1419.02,1085.86 1423.19,1084.32 1427.31,1082.78 1431.38,1081.25 1435.41,1079.71 1439.39,1078.17 1443.33,1076.64 1447.22,1075.1 1451.08,1073.56 1454.89,1072.03 1458.66,1070.49 1462.39,1068.95 1466.08,1067.42 1469.74,1065.88 1473.36,1064.35 1476.95,1062.81 1480.5,1061.27 1484.02,1059.74 1487.5,1058.2 1490.95,1056.66 1494.37,1055.13 1497.76,1053.59 1501.12,1052.05 1504.45,1050.52 1507.75,1048.98 1511.02,1047.44 1514.27,1045.91 1517.48,1044.37 1520.67,1042.83 1523.83,1041.3 1526.97,1039.76 1530.08,1038.23 1533.16,1036.69 1536.22,1035.15 1539.26,1033.62 1542.27,1032.08 1545.25,1030.54 1548.22,1029.01 1551.16,1027.47 1554.08,1025.93 1556.97,1024.4 1559.85,1022.86 1562.7,1021.32 1565.53,1019.79 1568.34,1018.25 1571.13,1016.72 1573.9,1015.18 1576.65,1013.64 1579.38,1012.11 1582.09,1010.57 1584.78,1009.03 1587.45,1007.5 1590.1,1005.96 1592.73,1004.42 1595.35,1002.89 1597.94,1001.35 1600.52,999.814 1603.08,998.278 1605.62,996.741 1608.15,995.205 1610.66,993.668 1613.15,992.132 1615.62,990.596 1618.08,989.059 1620.52,987.523 1622.95,985.986 1625.35,984.45 1627.75,982.913 1630.12,981.377 1632.48,979.84 1634.83,978.304 1637.16,976.767 1639.47,975.231 1641.77,973.695 1644.06,972.158 1646.33,970.622 1648.58,969.085 1650.82,967.549 1653.05,966.012 1655.26,964.476 1657.46,962.939 1659.64,961.403 1661.81,959.867 1663.97,958.33 1666.11,956.794 1668.24,955.257 1670.36,953.721 1672.46,952.184 1674.55,950.648 1676.62,949.111 1678.69,947.575 1680.73,946.038 1682.77,944.502 1684.79,942.966 1686.81,941.429 1688.8,939.893 1690.79,938.356 1692.76,936.82 1694.73,935.283 1696.67,933.747 1698.61,932.21 1700.54,930.674 1702.45,929.137 1704.35,927.601 1706.24,926.065 1708.12,924.528 1709.98,922.992 1711.84,921.455 1713.68,919.919 1715.51,918.382 1717.33,916.846 1719.14,915.309 1720.93,913.773 1722.72,912.236 1724.49,910.7 1726.26,909.164 1728.01,907.627 1729.75,906.091 1731.48,904.554 1733.2,903.018 1734.91,901.481 1736.6,899.945 1738.29,898.408 1739.97,896.872 1741.63,895.335 1743.29,893.799 1744.94,892.263 1746.57,890.726 1748.19,889.19 1749.81,887.653 1751.41,886.117 1753,884.58 1754.59,883.044 1756.16,881.507 1757.72,879.971 1759.28,878.434 1760.82,876.898 1762.35,875.362 1763.88,873.825 1765.39,872.289 1766.89,870.752 1768.38,869.216 1769.87,867.679 1771.34,866.143 1772.81,864.606 1774.26,863.07 1775.71,861.533 1777.14,859.997 1778.57,858.461 1779.98,856.924 1781.39,855.388 1782.79,853.851 1784.17,852.315 1785.55,850.778 1786.92,849.242 1788.28,847.705 1789.63,846.169 1790.97,844.632 1792.3,843.096 1793.62,841.56 1794.94,840.023 1796.24,838.487 1797.54,836.95 1798.82,835.414 1800.1,833.877 1801.37,832.341 1802.63,830.804 1803.88,829.268 1805.12,827.731 1806.35,826.195 1807.57,824.659 1808.78,823.122 1809.99,821.586 1811.18,820.049 1812.37,818.513 1813.55,816.976 1814.72,815.44 1815.88,813.903 1817.03,812.367 1818.17,810.83 1819.31,809.294 1820.43,807.758 1821.55,806.221 1822.66,804.685 1823.76,803.148 1824.85,801.612 1825.93,800.075 1827,798.539 1828.07,797.002 1829.12,795.466 1830.17,793.929 1831.21,792.393 1832.24,790.856 1833.26,789.32 1834.27,787.784 1835.27,786.247 1836.27,784.711 1837.26,783.174 1838.24,781.638 1839.21,780.101 1840.17,778.565 1841.12,777.028 1842.06,775.492 1843,773.955 1843.93,772.419 1844.85,770.883 1845.76,769.346 "/>
<polyline clip-path="url(#clip211)" style="stroke:#3da44d; stroke-linecap:round; stroke-linejoin:round; stroke-width:4; stroke-opacity:1; fill:none" points="2212.53,769.346 2213.96,766.938 2215.38,764.53 2216.78,762.121 2218.17,759.713 2219.55,757.305 2220.92,754.896 2222.27,752.488 2223.61,750.08 2224.94,747.672 2226.26,745.263 2227.56,742.855 2228.85,740.447 2230.13,738.039 2231.39,735.63 2232.64,733.222 2233.89,730.814 2235.11,728.405 2236.33,725.997 2237.53,723.589 2238.72,721.181 2239.9,718.772 2241.06,716.364 2242.21,713.956 2243.35,711.548 2244.48,709.139 2245.6,706.731 2246.7,704.323 2247.79,701.914 2248.86,699.506 2249.93,697.098 2250.98,694.69 2252.02,692.281 2253.05,689.873 2254.06,687.465 2255.06,685.057 2256.05,682.648 2257.03,680.24 2257.99,677.832 2258.94,675.423 2259.88,673.015 2260.81,670.607 2261.72,668.199 2262.62,665.79 2263.51,663.382 2264.39,660.974 2265.25,658.565 2266.1,656.157 2266.94,653.749 2267.77,651.341 2268.58,648.932 2269.38,646.524 2270.16,644.116 2270.94,641.708 2271.7,639.299 2272.45,636.891 2273.18,634.483 2273.91,632.074 2274.62,629.666 2275.32,627.258 2276,624.85 2276.67,622.441 2277.33,620.033 2277.98,617.625 2278.61,615.217 2279.23,612.808 2279.84,610.4 2280.43,607.992 2281.01,605.583 2281.58,603.175 2282.14,600.767 2282.68,598.359 2283.21,595.95 2283.72,593.542 2284.23,591.134 2284.72,588.726 2285.19,586.317 2285.66,583.909 2286.1,581.501 2286.54,579.092 2286.96,576.684 2287.37,574.276 2287.77,571.868 2288.15,569.459 2288.52,567.051 2288.88,564.643 2289.22,562.234 2289.55,559.826 2289.86,557.418 2290.16,555.01 2290.45,552.601 2290.72,550.193 2290.98,547.785 2291.23,545.377 2291.46,542.968 2291.68,540.56 2291.88,538.152 2292.07,535.743 2292.25,533.335 2292.41,530.927 2292.56,528.519 2292.69,526.11 2292.81,523.702 2292.92,521.294 2293.01,518.886 2293.08,516.477 2293.14,514.069 2293.19,511.661 2293.22,509.252 2293.24,506.844 2293.24,504.436 2293.23,502.028 2293.21,499.619 2293.16,497.211 2293.11,494.803 2293.04,492.395 2292.95,489.986 2292.85,487.578 2292.73,485.17 2292.6,482.761 2292.45,480.353 2292.29,477.945 2292.11,475.537 2291.91,473.128 2291.7,470.72 2291.48,468.312 2291.23,465.903 2290.98,463.495 2290.7,461.087 2290.41,458.679 2290.11,456.27 2289.78,453.862 2289.44,451.454 2289.09,449.046 2288.72,446.637 2288.33,444.229 2287.92,441.821 2287.5,439.412 2287.06,437.004 2286.61,434.596 2286.13,432.188 2285.64,429.779 2285.13,427.371 2284.61,424.963 2284.06,422.555 2283.5,420.146 2282.92,417.738 2282.33,415.33 2281.71,412.921 2281.08,410.513 2280.42,408.105 2279.75,405.697 2279.06,403.288 2278.35,400.88 2277.63,398.472 2276.88,396.064 2276.12,393.655 2275.33,391.247 2274.53,388.839 2273.7,386.43 2272.86,384.022 2271.99,381.614 2271.11,379.206 2270.2,376.797 2269.28,374.389 2268.33,371.981 2267.36,369.573 2266.37,367.164 2265.36,364.756 2264.33,362.348 2263.28,359.939 2262.2,357.531 2261.1,355.123 2259.98,352.715 2258.84,350.306 2257.68,347.898 2256.49,345.49 2255.28,343.081 2254.05,340.673 2252.79,338.265 2251.51,335.857 2250.2,333.448 2248.87,331.04 2247.52,328.632 2246.14,326.224 2244.73,323.815 2243.3,321.407 2241.85,318.999 2240.36,316.59 2238.86,314.182 2237.32,311.774 2235.76,309.366 2234.16,306.957 2232.55,304.549 2230.9,302.141 2229.22,299.733 2227.52,297.324 2225.78,294.916 2224.01,292.508 2222.22,290.099 2220.39,287.691 2218.53,285.283 2216.64,282.875 2214.72,280.466 2212.76,278.058 2210.77,275.65 2208.75,273.242 2206.69,270.833 2204.6,268.425 2202.47,266.017 2200.31,263.608 2198.1,261.2 2195.87,258.792 2193.59,256.384 2191.28,253.975 2188.92,251.567 2186.53,249.159 2184.09,246.751 2181.61,244.342 2179.09,241.934 2176.52,239.526 2173.91,237.117 2171.26,234.709 2168.56,232.301 2165.81,229.893 2163.02,227.484 2160.18,225.076 2157.29,222.668 2154.35,220.26 2151.36,217.851 2148.31,215.443 2145.22,213.035 2142.06,210.626 2138.85,208.218 2135.58,205.81 2132.25,203.402 2128.85,200.993 2125.39,198.585 2121.87,196.177 2118.27,193.769 2114.6,191.36 2110.86,188.952 2107.04,186.544 2103.14,184.135 2099.16,181.727 2095.09,179.319 2090.93,176.911 2086.68,174.502 2082.34,172.094 2077.9,169.686 2073.36,167.278 2068.71,164.869 2063.96,162.461 2059.09,160.053 2054.11,157.645 2049,155.236 2043.76,152.828 2038.38,150.42 2032.86,148.012 2027.18,145.603 2021.34,143.195 2015.33,140.787 2009.12,138.378 2002.71,135.97 1996.09,133.562 1989.27,131.154 1982.2,128.745 1974.89,126.337 1967.29,123.929 1959.37,121.521 1951.11,119.112 1942.45,116.704 1933.36,114.296 1923.77,111.888 1913.63,109.479 1902.88,107.071 1891.38,104.663 1879.02,102.255 1865.57,99.8466 1850.73,97.4384 1834.05,95.0303 1814.77,92.6221 1791.37,90.2141 1759.4,87.8062 1660.65,86.1857 1608.05,88.5928 1576.99,91.0006 1552.38,93.4087 1531.28,95.8168 1512.48,98.2249 1495.34,100.633 1479.47,103.041 1464.61,105.449 1450.58,107.858 1437.25,110.266 1424.53,112.674 1412.33,115.082 1400.59,117.49 1389.27,119.899 1378.31,122.307 1367.68,124.715 1357.36,127.123 1347.32,129.532 1337.54,131.94 1327.99,134.348 1318.66,136.756 1309.54,139.165 1300.61,141.573 1291.86,143.981 1283.28,146.389 1274.86,148.798 1266.59,151.206 1258.46,153.614 1250.48,156.022 1242.62,158.431 1234.88,160.839 1227.26,163.247 1219.76,165.655 1212.36,168.064 1205.07,170.472 1197.87,172.88 1190.77,175.288 1183.77,177.697 1176.85,180.105 1170.02,182.513 1163.27,184.921 1156.6,187.33 1150.01,189.738 1143.49,192.146 1137.05,194.554 1130.67,196.963 1124.37,199.371 1118.13,201.779 1111.95,204.187 1105.84,206.596 1099.79,209.004 1093.79,211.412 1087.86,213.82 1081.98,216.229 1076.16,218.637 1070.38,221.045 1064.67,223.453 1059,225.862 1053.38,228.27 1047.82,230.678 1042.29,233.087 1036.82,235.495 1031.39,237.903 1026.01,240.311 1020.67,242.72 1015.38,245.128 1010.12,247.536 1004.91,249.944 999.738,252.353 994.606,254.761 989.513,257.169 984.458,259.577 979.441,261.986 974.461,264.394 969.518,266.802 964.61,269.211 959.738,271.619 954.901,274.027 950.097,276.435 945.327,278.844 940.591,281.252 935.886,283.66 931.214,286.068 926.574,288.477 921.964,290.885 917.385,293.293 912.837,295.701 908.318,298.11 903.829,300.518 899.369,302.926 894.937,305.334 890.533,307.743 886.158,310.151 881.81,312.559 877.489,314.968 873.195,317.376 868.928,319.784 864.687,322.192 860.472,324.601 856.282,327.009 852.118,329.417 847.979,331.825 843.864,334.234 839.774,336.642 835.709,339.05 831.667,341.459 827.649,343.867 823.654,346.275 819.683,348.683 815.734,351.092 811.808,353.5 807.905,355.908 804.024,358.316 800.165,360.725 796.328,363.133 792.512,365.541 788.718,367.949 784.946,370.358 781.194,372.766 777.463,375.174 773.753,377.583 770.063,379.991 766.394,382.399 762.745,384.807 759.116,387.216 755.507,389.624 751.917,392.032 748.347,394.44 744.797,396.849 741.265,399.257 737.753,401.665 734.26,404.074 730.785,406.482 727.329,408.89 723.891,411.298 720.472,413.707 717.071,416.115 713.689,418.523 710.324,420.931 706.977,423.34 703.648,425.748 700.336,428.156 697.042,430.564 693.765,432.973 690.506,435.381 687.264,437.789 684.038,440.198 680.83,442.606 677.639,445.014 674.464,447.422 671.306,449.831 668.165,452.239 665.04,454.647 661.931,457.055 658.839,459.464 655.763,461.872 652.703,464.28 649.659,466.689 646.631,469.097 643.619,471.505 640.622,473.913 637.641,476.322 634.676,478.73 631.726,481.138 628.792,483.546 625.873,485.955 622.97,488.363 620.082,490.771 617.209,493.18 614.351,495.588 611.508,497.996 608.68,500.404 605.866,502.813 603.068,505.221 600.284,507.629 597.516,510.037 594.761,512.446 592.022,514.854 589.297,517.262 586.586,519.671 583.89,522.079 581.208,524.487 578.54,526.895 575.887,529.304 573.248,531.712 570.623,534.12 568.012,536.528 565.415,538.937 562.832,541.345 560.263,543.753 557.708,546.162 555.167,548.57 552.64,550.978 550.126,553.386 547.627,555.795 545.141,558.203 542.668,560.611 540.209,563.019 537.764,565.428 535.332,567.836 532.914,570.244 530.51,572.653 528.118,575.061 525.74,577.469 523.376,579.877 521.025,582.286 518.687,584.694 516.362,587.102 514.051,589.51 511.753,591.919 509.468,594.327 507.196,596.735 504.937,599.144 502.692,601.552 500.459,603.96 498.24,606.368 496.033,608.777 493.84,611.185 491.659,613.593 489.491,616.001 487.337,618.41 485.195,620.818 483.066,623.226 480.95,625.635 478.847,628.043 476.756,630.451 474.679,632.859 472.614,635.268 470.562,637.676 468.522,640.084 466.496,642.492 464.482,644.901 462.481,647.309 460.492,649.717 458.516,652.126 456.553,654.534 454.603,656.942 452.665,659.35 450.739,661.759 448.827,664.167 446.927,666.575 445.039,668.983 443.164,671.392 441.302,673.8 439.452,676.208 437.615,678.617 435.79,681.025 433.978,683.433 432.178,685.841 430.391,688.25 428.617,690.658 426.855,693.066 425.105,695.474 423.368,697.883 421.644,700.291 419.932,702.699 418.232,705.108 416.545,707.516 414.871,709.924 413.209,712.332 411.559,714.741 409.922,717.149 408.298,719.557 406.686,721.965 405.086,724.374 403.499,726.782 401.925,729.19 400.363,731.599 398.813,734.007 397.276,736.415 395.752,738.823 394.24,741.232 392.741,743.64 391.254,746.048 389.78,748.456 388.318,750.865 386.869,753.273 385.433,755.681 384.009,758.09 382.598,760.498 381.199,762.906 379.813,765.314 378.44,767.723 377.079,770.131 375.731,772.539 374.396,774.948 373.073,777.356 371.763,779.764 370.466,782.172 369.181,784.581 367.909,786.989 366.65,789.397 365.404,791.805 364.171,794.214 362.95,796.622 361.742,799.03 360.548,801.439 359.366,803.847 358.197,806.255 357.04,808.663 355.897,811.072 354.767,813.48 353.65,815.888 352.546,818.296 351.455,820.705 350.377,823.113 349.312,825.521 348.26,827.93 347.221,830.338 346.196,832.746 345.184,835.154 344.185,837.563 343.199,839.971 342.226,842.379 341.267,844.787 340.321,847.196 339.388,849.604 338.469,852.012 337.563,854.421 336.671,856.829 335.792,859.237 334.927,861.645 334.075,864.054 333.237,866.462 332.413,868.87 331.602,871.278 330.805,873.687 330.021,876.095 329.252,878.503 328.496,880.912 327.754,883.32 327.027,885.728 326.313,888.136 325.613,890.545 324.927,892.953 324.255,895.361 323.598,897.77 322.954,900.178 322.325,902.586 321.71,904.994 321.11,907.403 320.524,909.811 319.952,912.219 319.395,914.627 318.853,917.036 318.325,919.444 317.812,921.852 317.314,924.261 316.83,926.669 316.361,929.077 315.908,931.485 315.469,933.894 315.045,936.302 314.637,938.71 314.243,941.118 313.865,943.527 313.502,945.935 313.155,948.343 312.823,950.752 312.506,953.16 312.205,955.568 311.92,957.976 311.65,960.385 311.396,962.793 311.159,965.201 310.937,967.609 310.731,970.018 310.541,972.426 310.367,974.834 310.21,977.243 310.069,979.651 309.944,982.059 309.836,984.467 309.744,986.876 309.669,989.284 309.611,991.692 309.57,994.101 309.546,996.509 309.539,998.917 309.55,1001.33 309.578,1003.73 309.623,1006.14 309.686,1008.55 309.766,1010.96 309.865,1013.37 309.98,1015.77 310.114,1018.18 310.266,1020.59 310.436,1023 310.623,1025.41 310.83,1027.82 311.054,1030.22 311.297,1032.63 311.559,1035.04 311.839,1037.45 312.138,1039.86 312.457,1042.27 312.794,1044.67 313.15,1047.08 313.526,1049.49 313.922,1051.9 314.337,1054.31 314.772,1056.72 315.227,1059.12 315.702,1061.53 316.198,1063.94 316.714,1066.35 317.251,1068.76 317.808,1071.17 318.387,1073.57 318.987,1075.98 319.608,1078.39 320.251,1080.8 320.916,1083.21 321.602,1085.61 322.311,1088.02 323.042,1090.43 323.796,1092.84 324.573,1095.25 325.373,1097.66 326.196,1100.06 327.042,1102.47 327.912,1104.88 328.807,1107.29 329.725,1109.7 330.668,1112.11 331.635,1114.51 332.628,1116.92 333.645,1119.33 334.688,1121.74 335.757,1124.15 336.852,1126.56 337.973,1128.96 339.121,1131.37 340.295,1133.78 341.496,1136.19 342.725,1138.6 343.981,1141.01 345.266,1143.41 346.578,1145.82 347.919,1148.23 349.289,1150.64 350.688,1153.05 352.117,1155.45 353.575,1157.86 355.063,1160.27 356.582,1162.68 358.134,1165.09 359.717,1167.5 361.334,1169.9 362.984,1172.31 364.666,1174.72 366.383,1177.13 368.133,1179.54 369.917,1181.95 371.735,1184.35 373.588,1186.76 375.477,1189.17 377.401,1191.58 379.361,1193.99 381.358,1196.4 383.392,1198.8 385.465,1201.21 387.576,1203.62 389.726,1206.03 391.916,1208.44 394.147,1210.85 396.419,1213.25 398.734,1215.66 401.092,1218.07 403.494,1220.48 405.942,1222.89 408.435,1225.29 410.976,1227.7 413.564,1230.11 416.202,1232.52 418.89,1234.93 421.63,1237.34 424.423,1239.74 427.269,1242.15 430.171,1244.56 433.129,1246.97 436.145,1249.38 439.221,1251.79 442.357,1254.19 445.555,1256.6 448.817,1259.01 452.144,1261.42 455.538,1263.83 459,1266.24 462.532,1268.64 466.136,1271.05 469.813,1273.46 473.565,1275.87 477.394,1278.28 481.301,1280.69 485.29,1283.09 489.364,1285.5 493.526,1287.91 497.78,1290.32 502.128,1292.73 506.574,1295.13 511.121,1297.54 515.774,1299.95 520.536,1302.36 525.413,1304.77 530.409,1307.18 535.529,1309.58 540.78,1311.99 546.167,1314.4 551.696,1316.81 557.376,1319.22 563.223,1321.63 569.239,1324.03 575.429,1326.44 581.798,1328.85 588.356,1331.26 595.114,1333.67 602.09,1336.08 609.3,1338.48 616.766,1340.89 624.513,1343.3 632.568,1345.71 640.962,1348.12 649.728,1350.52 658.902,1352.93 668.525,1355.34 678.639,1357.75 689.298,1360.16 700.597,1362.57 712.643,1364.97 725.62,1367.38 739.641,1369.79 754.889,1372.2 771.839,1374.61 791.263,1377.01 814.245,1379.42 843.635,1381.83 889.255,1384.24 1004.17,1383.45 1044.6,1381.04 1074.01,1378.64 1098.41,1376.23 1119.76,1373.82 1139.01,1371.41 1156.68,1369 1173.13,1366.6 1188.57,1364.19 1203.18,1361.78 1217.08,1359.37 1230.36,1356.96 1243.11,1354.55 1255.38,1352.15 1267.22,1349.74 1278.68,1347.33 1289.79,1344.92 1300.58,1342.51 1311.07,1340.11 1321.29,1337.7 1331.27,1335.29 1341,1332.88 1350.52,1330.47 1359.83,1328.06 1368.95,1325.66 1377.89,1323.25 1386.65,1320.84 1395.25,1318.43 1403.7,1316.02 1412,1313.61 1420.15,1311.21 1428.18,1308.8 1436.08,1306.39 1443.85,1303.98 1451.51,1301.57 1459.05,1299.17 1466.48,1296.76 1473.81,1294.35 1481.04,1291.94 1488.18,1289.53 1495.22,1287.12 1502.16,1284.72 1509.03,1282.31 1515.8,1279.9 1522.5,1277.49 1529.11,1275.08 1535.65,1272.67 1542.11,1270.27 1548.5,1267.86 1554.81,1265.45 1561.06,1263.04 1567.25,1260.63 1573.36,1258.23 1579.41,1255.82 1585.4,1253.41 1591.33,1251 1597.2,1248.59 1603.01,1246.18 1608.77,1243.78 1614.47,1241.37 1620.11,1238.96 1625.71,1236.55 1631.25,1234.14 1636.74,1231.73 1642.18,1229.33 1647.57,1226.92 1652.91,1224.51 1658.21,1222.1 1663.46,1219.69 1668.66,1217.28 1673.82,1214.88 1678.94,1212.47 1684.02,1210.06 1689.05,1207.65 1694.04,1205.24 1698.99,1202.83 1703.9,1200.43 1708.77,1198.02 1713.61,1195.61 1718.4,1193.2 1723.16,1190.79 1727.88,1188.39 1732.56,1185.98 1737.21,1183.57 1741.82,1181.16 1746.4,1178.75 1750.95,1176.34 1755.46,1173.94 1759.93,1171.53 1764.38,1169.12 1768.79,1166.71 1773.17,1164.3 1777.52,1161.89 1781.84,1159.49 1786.12,1157.08 1790.38,1154.67 1794.6,1152.26 1798.8,1149.85 1802.97,1147.44 1807.11,1145.04 1811.22,1142.63 1815.3,1140.22 1819.35,1137.81 1823.38,1135.4 1827.37,1133 1831.35,1130.59 1835.29,1128.18 1839.21,1125.77 1843.1,1123.36 1846.97,1120.95 1850.81,1118.55 1854.62,1116.14 1858.42,1113.73 1862.18,1111.32 1865.92,1108.91 1869.64,1106.5 1873.33,1104.1 1877,1101.69 1880.65,1099.28 1884.27,1096.87 1887.87,1094.46 1891.44,1092.05 1894.99,1089.65 1898.52,1087.24 1902.03,1084.83 1905.52,1082.42 1908.98,1080.01 1912.42,1077.61 1915.84,1075.2 1919.24,1072.79 1922.62,1070.38 1925.97,1067.97 1929.31,1065.56 1932.62,1063.16 1935.92,1060.75 1939.19,1058.34 1942.44,1055.93 1945.67,1053.52 1948.89,1051.11 1952.08,1048.71 1955.25,1046.3 1958.41,1043.89 1961.54,1041.48 1964.66,1039.07 1967.75,1036.66 1970.83,1034.26 1973.89,1031.85 1976.92,1029.44 1979.95,1027.03 1982.95,1024.62 1985.93,1022.21 1988.9,1019.81 1991.84,1017.4 1994.77,1014.99 1997.68,1012.58 2000.57,1010.17 2003.45,1007.77 2006.31,1005.36 2009.15,1002.95 2011.97,1000.54 2014.78,998.132 2017.56,995.724 2020.33,993.316 2023.09,990.907 2025.83,988.499 2028.55,986.091 2031.25,983.682 2033.94,981.274 2036.61,978.866 2039.26,976.458 2041.9,974.049 2044.52,971.641 2047.12,969.233 2049.71,966.825 2052.28,964.416 2054.84,962.008 2057.38,959.6 2059.91,957.191 2062.41,954.783 2064.91,952.375 2067.39,949.967 2069.85,947.558 2072.29,945.15 2074.73,942.742 2077.14,940.334 2079.54,937.925 2081.93,935.517 2084.3,933.109 2086.65,930.7 2088.99,928.292 2091.32,925.884 2093.63,923.476 2095.92,921.067 2098.2,918.659 2100.47,916.251 2102.72,913.843 2104.96,911.434 2107.18,909.026 2109.39,906.618 2111.58,904.209 2113.76,901.801 2115.92,899.393 2118.07,896.985 2120.21,894.576 2122.33,892.168 2124.44,889.76 2126.53,887.352 2128.61,884.943 2130.67,882.535 2132.72,880.127 2134.76,877.718 2136.78,875.31 2138.79,872.902 2140.79,870.494 2142.77,868.085 2144.74,865.677 2146.69,863.269 2148.63,860.861 2150.56,858.452 2152.47,856.044 2154.37,853.636 2156.26,851.227 2158.13,848.819 2159.99,846.411 2161.84,844.003 2163.67,841.594 2165.49,839.186 2167.29,836.778 2169.09,834.37 2170.86,831.961 2172.63,829.553 2174.38,827.145 2176.12,824.736 2177.85,822.328 2179.56,819.92 2181.26,817.512 2182.95,815.103 2184.62,812.695 2186.28,810.287 2187.93,807.878 2189.57,805.47 2191.19,803.062 2192.8,800.654 2194.39,798.245 2195.97,795.837 2197.55,793.429 2199.1,791.021 2200.65,788.612 2202.18,786.204 2203.7,783.796 2205.2,781.387 2206.7,778.979 2208.18,776.571 2209.64,774.163 2211.1,771.754 2212.54,769.346 "/>
</svg>
