<?xml version="1.0" encoding="utf-8"?>
<svg xmlns="http://www.w3.org/2000/svg" xmlns:xlink="http://www.w3.org/1999/xlink" width="600" height="400" viewBox="0 0 2400 1600">
<defs>
  <clipPath id="clip680">
    <rect x="0" y="0" width="2400" height="1600"/>
  </clipPath>
</defs>
<path clip-path="url(#clip680)" d="M0 1600 L2400 1600 L2400 0 L0 0  Z" fill="#ffffff" fill-rule="evenodd" fill-opacity="1"/>
<defs>
  <clipPath id="clip681">
    <rect x="480" y="0" width="1681" height="1600"/>
  </clipPath>
</defs>
<path clip-path="url(#clip680)" d="M242.135 1423.18 L2352.76 1423.18 L2352.76 47.2441 L242.135 47.2441  Z" fill="#ffffff" fill-rule="evenodd" fill-opacity="1"/>
<defs>
  <clipPath id="clip682">
    <rect x="242" y="47" width="2112" height="1377"/>
  </clipPath>
</defs>
<polyline clip-path="url(#clip682)" style="stroke:#000000; stroke-linecap:round; stroke-linejoin:round; stroke-width:2; stroke-opacity:0.1; fill:none" points="739.279,1423.18 739.279,47.2441 "/>
<polyline clip-path="url(#clip682)" style="stroke:#000000; stroke-linecap:round; stroke-linejoin:round; stroke-width:2; stroke-opacity:0.1; fill:none" points="1871.95,1423.18 1871.95,47.2441 "/>
<polyline clip-path="url(#clip682)" style="stroke:#000000; stroke-linecap:round; stroke-linejoin:round; stroke-width:2; stroke-opacity:0.1; fill:none" points="242.135,1308.7 2352.76,1308.7 "/>
<polyline clip-path="url(#clip682)" style="stroke:#000000; stroke-linecap:round; stroke-linejoin:round; stroke-width:2; stroke-opacity:0.1; fill:none" points="242.135,1021.96 2352.76,1021.96 "/>
<polyline clip-path="url(#clip682)" style="stroke:#000000; stroke-linecap:round; stroke-linejoin:round; stroke-width:2; stroke-opacity:0.1; fill:none" points="242.135,735.212 2352.76,735.212 "/>
<polyline clip-path="url(#clip682)" style="stroke:#000000; stroke-linecap:round; stroke-linejoin:round; stroke-width:2; stroke-opacity:0.1; fill:none" points="242.135,448.468 2352.76,448.468 "/>
<polyline clip-path="url(#clip682)" style="stroke:#000000; stroke-linecap:round; stroke-linejoin:round; stroke-width:2; stroke-opacity:0.1; fill:none" points="242.135,161.725 2352.76,161.725 "/>
<polyline clip-path="url(#clip680)" style="stroke:#000000; stroke-linecap:round; stroke-linejoin:round; stroke-width:4; stroke-opacity:1; fill:none" points="242.135,1423.18 2352.76,1423.18 "/>
<polyline clip-path="url(#clip680)" style="stroke:#000000; stroke-linecap:round; stroke-linejoin:round; stroke-width:4; stroke-opacity:1; fill:none" points="739.279,1423.18 739.279,1404.28 "/>
<polyline clip-path="url(#clip680)" style="stroke:#000000; stroke-linecap:round; stroke-linejoin:round; stroke-width:4; stroke-opacity:1; fill:none" points="1871.95,1423.18 1871.95,1404.28 "/>
<path clip-path="url(#clip680)" d="M737.138 1469.14 L722.393 1469.14 Q722.74 1476.07 724.337 1479.01 Q726.328 1482.62 729.777 1482.62 Q733.249 1482.62 735.17 1478.98 Q736.86 1475.79 737.138 1469.14 M737.068 1465.21 Q736.42 1458.64 735.17 1456.32 Q733.18 1452.66 729.777 1452.66 Q726.235 1452.66 724.36 1456.27 Q722.879 1459.19 722.439 1465.21 L737.068 1465.21 M729.777 1449.19 Q735.332 1449.19 738.504 1454.1 Q741.675 1458.98 741.675 1467.64 Q741.675 1476.27 738.504 1481.18 Q735.332 1486.11 729.777 1486.11 Q724.198 1486.11 721.05 1481.18 Q717.879 1476.27 717.879 1467.64 Q717.879 1458.98 721.05 1454.1 Q724.198 1449.19 729.777 1449.19 Z" fill="#000000" fill-rule="nonzero" fill-opacity="1" /><path clip-path="url(#clip680)" d="M747.879 1483.03 L752.601 1483.03 L752.601 1468.89 L747.439 1469.84 L747.439 1467.15 L752.763 1466.25 L755.934 1466.25 L755.934 1483.03 L760.679 1483.03 L760.679 1485.58 L747.879 1485.58 L747.879 1483.03 Z" fill="#000000" fill-rule="nonzero" fill-opacity="1" /><path clip-path="url(#clip680)" d="M1870.01 1469.14 L1855.26 1469.14 Q1855.61 1476.07 1857.21 1479.01 Q1859.2 1482.62 1862.65 1482.62 Q1866.12 1482.62 1868.04 1478.98 Q1869.73 1475.79 1870.01 1469.14 M1869.94 1465.21 Q1869.29 1458.64 1868.04 1456.32 Q1866.05 1452.66 1862.65 1452.66 Q1859.11 1452.66 1857.23 1456.27 Q1855.75 1459.19 1855.31 1465.21 L1869.94 1465.21 M1862.65 1449.19 Q1868.2 1449.19 1871.38 1454.1 Q1874.55 1458.98 1874.55 1467.64 Q1874.55 1476.27 1871.38 1481.18 Q1868.2 1486.11 1862.65 1486.11 Q1857.07 1486.11 1853.92 1481.18 Q1850.75 1476.27 1850.75 1467.64 Q1850.75 1458.98 1853.92 1454.1 Q1857.07 1449.19 1862.65 1449.19 Z" fill="#000000" fill-rule="nonzero" fill-opacity="1" /><path clip-path="url(#clip680)" d="M1883.34 1482.94 L1893.16 1482.94 L1893.16 1485.58 L1879.32 1485.58 L1879.32 1483.03 Q1880.1 1482.32 1881.56 1481.02 Q1889.52 1473.96 1889.52 1471.78 Q1889.52 1470.26 1888.32 1469.33 Q1887.12 1468.38 1885.15 1468.38 Q1883.95 1468.38 1882.53 1468.8 Q1881.12 1469.19 1879.45 1470 L1879.45 1467.15 Q1881.24 1466.51 1882.76 1466.18 Q1884.32 1465.86 1885.63 1465.86 Q1888.99 1465.86 1891.01 1467.39 Q1893.02 1468.91 1893.02 1471.41 Q1893.02 1474.63 1885.36 1481.2 Q1884.06 1482.32 1883.34 1482.94 Z" fill="#000000" fill-rule="nonzero" fill-opacity="1" /><path clip-path="url(#clip680)" d="M1137.51 1525.81 L1137.51 1543.66 L1145.59 1543.66 Q1150.08 1543.66 1152.53 1541.34 Q1154.98 1539.02 1154.98 1534.72 Q1154.98 1530.45 1152.53 1528.13 Q1150.08 1525.81 1145.59 1525.81 L1137.51 1525.81 M1131.08 1520.52 L1145.59 1520.52 Q1153.58 1520.52 1157.65 1524.15 Q1161.76 1527.75 1161.76 1534.72 Q1161.76 1541.75 1157.65 1545.35 Q1153.58 1548.95 1145.59 1548.95 L1137.51 1548.95 L1137.51 1568.04 L1131.08 1568.04 L1131.08 1520.52 Z" fill="#000000" fill-rule="nonzero" fill-opacity="1" /><path clip-path="url(#clip680)" d="M1183.4 1550.12 Q1176.31 1550.12 1173.57 1551.75 Q1170.83 1553.37 1170.83 1557.29 Q1170.83 1560.4 1172.87 1562.25 Q1174.94 1564.07 1178.47 1564.07 Q1183.34 1564.07 1186.27 1560.63 Q1189.23 1557.16 1189.23 1551.43 L1189.23 1550.12 L1183.4 1550.12 M1195.08 1547.71 L1195.08 1568.04 L1189.23 1568.04 L1189.23 1562.63 Q1187.22 1565.88 1184.23 1567.44 Q1181.24 1568.97 1176.91 1568.97 Q1171.44 1568.97 1168.19 1565.91 Q1164.97 1562.82 1164.97 1557.67 Q1164.97 1551.65 1168.99 1548.6 Q1173.03 1545.54 1181.02 1545.54 L1189.23 1545.54 L1189.23 1544.97 Q1189.23 1540.93 1186.55 1538.73 Q1183.91 1536.5 1179.11 1536.5 Q1176.05 1536.5 1173.15 1537.23 Q1170.26 1537.97 1167.58 1539.43 L1167.58 1534.02 Q1170.8 1532.78 1173.82 1532.17 Q1176.85 1531.54 1179.71 1531.54 Q1187.45 1531.54 1191.27 1535.55 Q1195.08 1539.56 1195.08 1547.71 Z" fill="#000000" fill-rule="nonzero" fill-opacity="1" /><path clip-path="url(#clip680)" d="M1227.8 1537.87 Q1226.82 1537.3 1225.64 1537.04 Q1224.49 1536.76 1223.09 1536.76 Q1218.13 1536.76 1215.45 1540 Q1212.81 1543.22 1212.81 1549.27 L1212.81 1568.04 L1206.92 1568.04 L1206.92 1532.4 L1212.81 1532.4 L1212.81 1537.93 Q1214.66 1534.69 1217.62 1533.13 Q1220.58 1531.54 1224.81 1531.54 Q1225.42 1531.54 1226.15 1531.63 Q1226.88 1531.7 1227.77 1531.85 L1227.8 1537.87 Z" fill="#000000" fill-rule="nonzero" fill-opacity="1" /><path clip-path="url(#clip680)" d="M1250.15 1550.12 Q1243.05 1550.12 1240.31 1551.75 Q1237.58 1553.37 1237.58 1557.29 Q1237.58 1560.4 1239.61 1562.25 Q1241.68 1564.07 1245.21 1564.07 Q1250.08 1564.07 1253.01 1560.63 Q1255.97 1557.16 1255.97 1551.43 L1255.97 1550.12 L1250.15 1550.12 M1261.83 1547.71 L1261.83 1568.04 L1255.97 1568.04 L1255.97 1562.63 Q1253.97 1565.88 1250.98 1567.44 Q1247.98 1568.97 1243.66 1568.97 Q1238.18 1568.97 1234.93 1565.91 Q1231.72 1562.82 1231.72 1557.67 Q1231.72 1551.65 1235.73 1548.6 Q1239.77 1545.54 1247.76 1545.54 L1255.97 1545.54 L1255.97 1544.97 Q1255.97 1540.93 1253.3 1538.73 Q1250.66 1536.5 1245.85 1536.5 Q1242.8 1536.5 1239.9 1537.23 Q1237 1537.97 1234.33 1539.43 L1234.33 1534.02 Q1237.54 1532.78 1240.57 1532.17 Q1243.59 1531.54 1246.46 1531.54 Q1254.19 1531.54 1258.01 1535.55 Q1261.83 1539.56 1261.83 1547.71 Z" fill="#000000" fill-rule="nonzero" fill-opacity="1" /><path clip-path="url(#clip680)" d="M1301.65 1539.24 Q1303.84 1535.29 1306.9 1533.41 Q1309.95 1531.54 1314.09 1531.54 Q1319.66 1531.54 1322.69 1535.45 Q1325.71 1539.33 1325.71 1546.53 L1325.71 1568.04 L1319.82 1568.04 L1319.82 1546.72 Q1319.82 1541.59 1318.01 1539.11 Q1316.19 1536.63 1312.47 1536.63 Q1307.92 1536.63 1305.28 1539.65 Q1302.63 1542.68 1302.63 1547.9 L1302.63 1568.04 L1296.75 1568.04 L1296.75 1546.72 Q1296.75 1541.56 1294.93 1539.11 Q1293.12 1536.63 1289.33 1536.63 Q1284.84 1536.63 1282.2 1539.68 Q1279.56 1542.71 1279.56 1547.9 L1279.56 1568.04 L1273.67 1568.04 L1273.67 1532.4 L1279.56 1532.4 L1279.56 1537.93 Q1281.56 1534.66 1284.36 1533.1 Q1287.16 1531.54 1291.02 1531.54 Q1294.9 1531.54 1297.6 1533.51 Q1300.34 1535.48 1301.65 1539.24 Z" fill="#000000" fill-rule="nonzero" fill-opacity="1" /><path clip-path="url(#clip680)" d="M1367.88 1548.76 L1367.88 1551.62 L1340.95 1551.62 Q1341.34 1557.67 1344.58 1560.85 Q1347.86 1564 1353.69 1564 Q1357.06 1564 1360.21 1563.17 Q1363.39 1562.35 1366.51 1560.69 L1366.51 1566.23 Q1363.36 1567.57 1360.05 1568.27 Q1356.74 1568.97 1353.34 1568.97 Q1344.81 1568.97 1339.81 1564 Q1334.84 1559.04 1334.84 1550.57 Q1334.84 1541.82 1339.55 1536.69 Q1344.3 1531.54 1352.32 1531.54 Q1359.51 1531.54 1363.68 1536.18 Q1367.88 1540.8 1367.88 1548.76 M1362.03 1547.04 Q1361.96 1542.23 1359.32 1539.37 Q1356.71 1536.5 1352.38 1536.5 Q1347.48 1536.5 1344.52 1539.27 Q1341.59 1542.04 1341.15 1547.07 L1362.03 1547.04 Z" fill="#000000" fill-rule="nonzero" fill-opacity="1" /><path clip-path="url(#clip680)" d="M1383.29 1522.27 L1383.29 1532.4 L1395.35 1532.4 L1395.35 1536.95 L1383.29 1536.95 L1383.29 1556.3 Q1383.29 1560.66 1384.46 1561.9 Q1385.67 1563.14 1389.33 1563.14 L1395.35 1563.14 L1395.35 1568.04 L1389.33 1568.04 Q1382.55 1568.04 1379.98 1565.53 Q1377.4 1562.98 1377.4 1556.3 L1377.4 1536.95 L1373.1 1536.95 L1373.1 1532.4 L1377.4 1532.4 L1377.4 1522.27 L1383.29 1522.27 Z" fill="#000000" fill-rule="nonzero" fill-opacity="1" /><path clip-path="url(#clip680)" d="M1433.54 1548.76 L1433.54 1551.62 L1406.62 1551.62 Q1407 1557.67 1410.25 1560.85 Q1413.52 1564 1419.35 1564 Q1422.72 1564 1425.87 1563.17 Q1429.06 1562.35 1432.18 1560.69 L1432.18 1566.23 Q1429.02 1567.57 1425.71 1568.27 Q1422.4 1568.97 1419 1568.97 Q1410.47 1568.97 1405.47 1564 Q1400.51 1559.04 1400.51 1550.57 Q1400.51 1541.82 1405.22 1536.69 Q1409.96 1531.54 1417.98 1531.54 Q1425.17 1531.54 1429.34 1536.18 Q1433.54 1540.8 1433.54 1548.76 M1427.69 1547.04 Q1427.62 1542.23 1424.98 1539.37 Q1422.37 1536.5 1418.04 1536.5 Q1413.14 1536.5 1410.18 1539.27 Q1407.25 1542.04 1406.81 1547.07 L1427.69 1547.04 Z" fill="#000000" fill-rule="nonzero" fill-opacity="1" /><path clip-path="url(#clip680)" d="M1463.81 1537.87 Q1462.83 1537.3 1461.65 1537.04 Q1460.5 1536.76 1459.1 1536.76 Q1454.14 1536.76 1451.46 1540 Q1448.82 1543.22 1448.82 1549.27 L1448.82 1568.04 L1442.93 1568.04 L1442.93 1532.4 L1448.82 1532.4 L1448.82 1537.93 Q1450.67 1534.69 1453.63 1533.13 Q1456.59 1531.54 1460.82 1531.54 Q1461.43 1531.54 1462.16 1531.63 Q1462.89 1531.7 1463.78 1531.85 L1463.81 1537.87 Z" fill="#000000" fill-rule="nonzero" fill-opacity="1" /><polyline clip-path="url(#clip680)" style="stroke:#000000; stroke-linecap:round; stroke-linejoin:round; stroke-width:4; stroke-opacity:1; fill:none" points="242.135,1423.18 242.135,47.2441 "/>
<polyline clip-path="url(#clip680)" style="stroke:#000000; stroke-linecap:round; stroke-linejoin:round; stroke-width:4; stroke-opacity:1; fill:none" points="242.135,1308.7 261.032,1308.7 "/>
<polyline clip-path="url(#clip680)" style="stroke:#000000; stroke-linecap:round; stroke-linejoin:round; stroke-width:4; stroke-opacity:1; fill:none" points="242.135,1021.96 261.032,1021.96 "/>
<polyline clip-path="url(#clip680)" style="stroke:#000000; stroke-linecap:round; stroke-linejoin:round; stroke-width:4; stroke-opacity:1; fill:none" points="242.135,735.212 261.032,735.212 "/>
<polyline clip-path="url(#clip680)" style="stroke:#000000; stroke-linecap:round; stroke-linejoin:round; stroke-width:4; stroke-opacity:1; fill:none" points="242.135,448.468 261.032,448.468 "/>
<polyline clip-path="url(#clip680)" style="stroke:#000000; stroke-linecap:round; stroke-linejoin:round; stroke-width:4; stroke-opacity:1; fill:none" points="242.135,161.725 261.032,161.725 "/>
<path clip-path="url(#clip680)" d="M114.26 1309.15 L143.936 1309.15 L143.936 1313.09 L114.26 1313.09 L114.26 1309.15 Z" fill="#000000" fill-rule="nonzero" fill-opacity="1" /><path clip-path="url(#clip680)" d="M166.876 1295.49 L155.07 1313.94 L166.876 1313.94 L166.876 1295.49 M165.649 1291.42 L171.528 1291.42 L171.528 1313.94 L176.459 1313.94 L176.459 1317.83 L171.528 1317.83 L171.528 1325.98 L166.876 1325.98 L166.876 1317.83 L151.274 1317.83 L151.274 1313.32 L165.649 1291.42 Z" fill="#000000" fill-rule="nonzero" fill-opacity="1" /><path clip-path="url(#clip680)" d="M194.19 1294.5 Q190.579 1294.5 188.75 1298.06 Q186.945 1301.6 186.945 1308.73 Q186.945 1315.84 188.75 1319.4 Q190.579 1322.95 194.19 1322.95 Q197.825 1322.95 199.63 1319.4 Q201.459 1315.84 201.459 1308.73 Q201.459 1301.6 199.63 1298.06 Q197.825 1294.5 194.19 1294.5 M194.19 1290.79 Q200 1290.79 203.056 1295.4 Q206.135 1299.98 206.135 1308.73 Q206.135 1317.46 203.056 1322.07 Q200 1326.65 194.19 1326.65 Q188.38 1326.65 185.301 1322.07 Q182.246 1317.46 182.246 1308.73 Q182.246 1299.98 185.301 1295.4 Q188.38 1290.79 194.19 1290.79 Z" fill="#000000" fill-rule="nonzero" fill-opacity="1" /><path clip-path="url(#clip680)" d="M114.26 1022.41 L143.936 1022.41 L143.936 1026.34 L114.26 1026.34 L114.26 1022.41 Z" fill="#000000" fill-rule="nonzero" fill-opacity="1" /><path clip-path="url(#clip680)" d="M158.056 1035.3 L174.376 1035.3 L174.376 1039.24 L152.431 1039.24 L152.431 1035.3 Q155.093 1032.55 159.677 1027.92 Q164.283 1023.26 165.464 1021.92 Q167.709 1019.4 168.589 1017.66 Q169.491 1015.9 169.491 1014.21 Q169.491 1011.46 167.547 1009.72 Q165.626 1007.99 162.524 1007.99 Q160.325 1007.99 157.871 1008.75 Q155.44 1009.51 152.663 1011.06 L152.663 1006.34 Q155.487 1005.21 157.94 1004.63 Q160.394 1004.05 162.431 1004.05 Q167.802 1004.05 170.996 1006.74 Q174.19 1009.42 174.19 1013.91 Q174.19 1016.04 173.38 1017.96 Q172.593 1019.86 170.487 1022.45 Q169.908 1023.12 166.806 1026.34 Q163.704 1029.54 158.056 1035.3 Z" fill="#000000" fill-rule="nonzero" fill-opacity="1" /><path clip-path="url(#clip680)" d="M194.19 1007.75 Q190.579 1007.75 188.75 1011.32 Q186.945 1014.86 186.945 1021.99 Q186.945 1029.1 188.75 1032.66 Q190.579 1036.2 194.19 1036.2 Q197.825 1036.2 199.63 1032.66 Q201.459 1029.1 201.459 1021.99 Q201.459 1014.86 199.63 1011.32 Q197.825 1007.75 194.19 1007.75 M194.19 1004.05 Q200 1004.05 203.056 1008.66 Q206.135 1013.24 206.135 1021.99 Q206.135 1030.72 203.056 1035.32 Q200 1039.91 194.19 1039.91 Q188.38 1039.91 185.301 1035.32 Q182.246 1030.72 182.246 1021.99 Q182.246 1013.24 185.301 1008.66 Q188.38 1004.05 194.19 1004.05 Z" fill="#000000" fill-rule="nonzero" fill-opacity="1" /><path clip-path="url(#clip680)" d="M194.19 721.011 Q190.579 721.011 188.75 724.575 Q186.945 728.117 186.945 735.247 Q186.945 742.353 188.75 745.918 Q190.579 749.46 194.19 749.46 Q197.825 749.46 199.63 745.918 Q201.459 742.353 201.459 735.247 Q201.459 728.117 199.63 724.575 Q197.825 721.011 194.19 721.011 M194.19 717.307 Q200 717.307 203.056 721.913 Q206.135 726.497 206.135 735.247 Q206.135 743.973 203.056 748.58 Q200 753.163 194.19 753.163 Q188.38 753.163 185.301 748.58 Q182.246 743.973 182.246 735.247 Q182.246 726.497 185.301 721.913 Q188.38 717.307 194.19 717.307 Z" fill="#000000" fill-rule="nonzero" fill-opacity="1" /><path clip-path="url(#clip680)" d="M158.056 461.813 L174.376 461.813 L174.376 465.748 L152.431 465.748 L152.431 461.813 Q155.093 459.059 159.677 454.429 Q164.283 449.776 165.464 448.434 Q167.709 445.911 168.589 444.174 Q169.491 442.415 169.491 440.725 Q169.491 437.971 167.547 436.235 Q165.626 434.499 162.524 434.499 Q160.325 434.499 157.871 435.262 Q155.44 436.026 152.663 437.577 L152.663 432.855 Q155.487 431.721 157.94 431.142 Q160.394 430.563 162.431 430.563 Q167.802 430.563 170.996 433.249 Q174.19 435.934 174.19 440.424 Q174.19 442.554 173.38 444.475 Q172.593 446.374 170.487 448.966 Q169.908 449.637 166.806 452.855 Q163.704 456.049 158.056 461.813 Z" fill="#000000" fill-rule="nonzero" fill-opacity="1" /><path clip-path="url(#clip680)" d="M194.19 434.267 Q190.579 434.267 188.75 437.832 Q186.945 441.374 186.945 448.503 Q186.945 455.61 188.75 459.174 Q190.579 462.716 194.19 462.716 Q197.825 462.716 199.63 459.174 Q201.459 455.61 201.459 448.503 Q201.459 441.374 199.63 437.832 Q197.825 434.267 194.19 434.267 M194.19 430.563 Q200 430.563 203.056 435.17 Q206.135 439.753 206.135 448.503 Q206.135 457.23 203.056 461.836 Q200 466.42 194.19 466.42 Q188.38 466.42 185.301 461.836 Q182.246 457.23 182.246 448.503 Q182.246 439.753 185.301 435.17 Q188.38 430.563 194.19 430.563 Z" fill="#000000" fill-rule="nonzero" fill-opacity="1" /><path clip-path="url(#clip680)" d="M166.876 148.519 L155.07 166.968 L166.876 166.968 L166.876 148.519 M165.649 144.445 L171.528 144.445 L171.528 166.968 L176.459 166.968 L176.459 170.857 L171.528 170.857 L171.528 179.005 L166.876 179.005 L166.876 170.857 L151.274 170.857 L151.274 166.343 L165.649 144.445 Z" fill="#000000" fill-rule="nonzero" fill-opacity="1" /><path clip-path="url(#clip680)" d="M194.19 147.524 Q190.579 147.524 188.75 151.088 Q186.945 154.63 186.945 161.76 Q186.945 168.866 188.75 172.431 Q190.579 175.973 194.19 175.973 Q197.825 175.973 199.63 172.431 Q201.459 168.866 201.459 161.76 Q201.459 154.63 199.63 151.088 Q197.825 147.524 194.19 147.524 M194.19 143.82 Q200 143.82 203.056 148.426 Q206.135 153.01 206.135 161.76 Q206.135 170.486 203.056 175.093 Q200 179.676 194.19 179.676 Q188.38 179.676 185.301 175.093 Q182.246 170.486 182.246 161.76 Q182.246 153.01 185.301 148.426 Q188.38 143.82 194.19 143.82 Z" fill="#000000" fill-rule="nonzero" fill-opacity="1" /><path clip-path="url(#clip680)" d="M41.3104 1107.27 L58.7206 1107.27 L58.7206 1096.96 Q58.7206 1091.77 56.5881 1089.29 Q54.4238 1086.77 49.9996 1086.77 Q45.5436 1086.77 43.4429 1089.29 Q41.3104 1091.77 41.3104 1096.96 L41.3104 1107.27 M21.7677 1107.27 L36.0905 1107.27 L36.0905 1097.75 Q36.0905 1093.04 34.34 1090.75 Q32.5576 1088.43 28.9291 1088.43 Q25.3325 1088.43 23.5501 1090.75 Q21.7677 1093.04 21.7677 1097.75 L21.7677 1107.27 M16.4842 1113.7 L16.4842 1097.28 Q16.4842 1089.93 19.5397 1085.95 Q22.5952 1081.97 28.2289 1081.97 Q32.5894 1081.97 35.1675 1084 Q37.7456 1086.04 38.3822 1089.99 Q39.4007 1085.25 42.6472 1082.64 Q45.8619 1079.99 50.6998 1079.99 Q57.0655 1079.99 60.5348 1084.32 Q64.0042 1088.65 64.0042 1096.64 L64.0042 1113.7 L16.4842 1113.7 Z" fill="#000000" fill-rule="nonzero" fill-opacity="1" /><path clip-path="url(#clip680)" d="M28.3562 1069.24 L28.3562 1063.38 L64.0042 1063.38 L64.0042 1069.24 L28.3562 1069.24 M14.479 1069.24 L14.479 1063.38 L21.895 1063.38 L21.895 1069.24 L14.479 1069.24 Z" fill="#000000" fill-rule="nonzero" fill-opacity="1" /><path clip-path="url(#clip680)" d="M16.4842 1050.87 L16.4842 1044.44 L58.5933 1044.44 L58.5933 1021.3 L64.0042 1021.3 L64.0042 1050.87 L16.4842 1050.87 Z" fill="#000000" fill-rule="nonzero" fill-opacity="1" /><path clip-path="url(#clip680)" d="M32.4621 1002.14 Q32.4621 1006.85 36.1542 1009.59 Q39.8145 1012.33 46.212 1012.33 Q52.6095 1012.33 56.3017 1009.62 Q59.9619 1006.88 59.9619 1002.14 Q59.9619 997.463 56.2698 994.726 Q52.5777 991.989 46.212 991.989 Q39.8781 991.989 36.186 994.726 Q32.4621 997.463 32.4621 1002.14 M27.4968 1002.14 Q27.4968 994.503 32.4621 990.143 Q37.4273 985.782 46.212 985.782 Q54.9649 985.782 59.9619 990.143 Q64.9272 994.503 64.9272 1002.14 Q64.9272 1009.81 59.9619 1014.17 Q54.9649 1018.5 46.212 1018.5 Q37.4273 1018.5 32.4621 1014.17 Q27.4968 1009.81 27.4968 1002.14 Z" fill="#000000" fill-rule="nonzero" fill-opacity="1" /><path clip-path="url(#clip680)" d="M45.7664 952.617 Q39.4007 952.617 35.8996 955.259 Q32.3984 957.868 32.3984 962.611 Q32.3984 967.322 35.8996 969.963 Q39.4007 972.573 45.7664 972.573 Q52.1003 972.573 55.6014 969.963 Q59.1026 967.322 59.1026 962.611 Q59.1026 957.868 55.6014 955.259 Q52.1003 952.617 45.7664 952.617 M59.58 946.76 Q68.683 946.76 73.1071 950.803 Q77.5631 954.845 77.5631 963.184 Q77.5631 966.271 77.0857 969.008 Q76.6401 971.746 75.6852 974.324 L69.9879 974.324 Q71.3884 971.746 72.0568 969.231 Q72.7252 966.717 72.7252 964.107 Q72.7252 958.346 69.7015 955.481 Q66.7096 952.617 60.6303 952.617 L57.7339 952.617 Q60.885 954.431 62.4446 957.264 Q64.0042 960.096 64.0042 964.043 Q64.0042 970.6 59.0071 974.61 Q54.01 978.621 45.7664 978.621 Q37.491 978.621 32.4939 974.61 Q27.4968 970.6 27.4968 964.043 Q27.4968 960.096 29.0564 957.264 Q30.616 954.431 33.7671 952.617 L28.3562 952.617 L28.3562 946.76 L59.58 946.76 Z" fill="#000000" fill-rule="nonzero" fill-opacity="1" /><path clip-path="url(#clip680)" d="M14.5426 920.629 Q21.8632 924.894 29.0246 926.963 Q36.186 929.032 43.5384 929.032 Q50.8908 929.032 58.1159 926.963 Q65.3091 924.862 72.5979 920.629 L72.5979 925.722 Q65.1182 930.496 57.8931 932.883 Q50.668 935.238 43.5384 935.238 Q36.4406 935.238 29.2474 932.883 Q22.0542 930.528 14.5426 925.722 L14.5426 920.629 Z" fill="#000000" fill-rule="nonzero" fill-opacity="1" /><path clip-path="url(#clip680)" d="M21.7677 902.582 L39.6235 902.582 L39.6235 894.498 Q39.6235 890.01 37.3 887.559 Q34.9765 885.108 30.6797 885.108 Q26.4147 885.108 24.0912 887.559 Q21.7677 890.01 21.7677 894.498 L21.7677 902.582 M16.4842 909.012 L16.4842 894.498 Q16.4842 886.509 20.1126 882.435 Q23.7092 878.329 30.6797 878.329 Q37.7138 878.329 41.3104 882.435 Q44.907 886.509 44.907 894.498 L44.907 902.582 L64.0042 902.582 L64.0042 909.012 L16.4842 909.012 Z" fill="#000000" fill-rule="nonzero" fill-opacity="1" /><path clip-path="url(#clip680)" d="M46.0847 856.686 Q46.0847 863.783 47.7079 866.521 Q49.3312 869.258 53.2461 869.258 Q56.3653 869.258 58.2114 867.221 Q60.0256 865.152 60.0256 861.619 Q60.0256 856.749 56.5881 853.821 Q53.1188 850.861 47.3897 850.861 L46.0847 850.861 L46.0847 856.686 M43.6657 845.004 L64.0042 845.004 L64.0042 850.861 L58.5933 850.861 Q61.8398 852.866 63.3994 855.858 Q64.9272 858.85 64.9272 863.179 Q64.9272 868.653 61.8716 871.9 Q58.7843 875.114 53.6281 875.114 Q47.6125 875.114 44.5569 871.104 Q41.5014 867.062 41.5014 859.073 L41.5014 850.861 L40.9285 850.861 Q36.8862 850.861 34.6901 853.535 Q32.4621 856.176 32.4621 860.982 Q32.4621 864.038 33.1941 866.934 Q33.9262 869.831 35.3903 872.504 L29.9795 872.504 Q28.7381 869.29 28.1334 866.266 Q27.4968 863.242 27.4968 860.378 Q27.4968 852.643 31.5072 848.824 Q35.5176 845.004 43.6657 845.004 Z" fill="#000000" fill-rule="nonzero" fill-opacity="1" /><path clip-path="url(#clip680)" d="M33.8307 812.285 Q33.2578 813.271 33.0032 814.449 Q32.7167 815.595 32.7167 816.995 Q32.7167 821.961 35.9632 824.634 Q39.1779 827.276 45.2253 827.276 L64.0042 827.276 L64.0042 833.164 L28.3562 833.164 L28.3562 827.276 L33.8944 827.276 Q30.6479 825.43 29.0883 822.47 Q27.4968 819.51 27.4968 815.277 Q27.4968 814.672 27.5923 813.94 Q27.656 813.208 27.8151 812.317 L33.8307 812.285 Z" fill="#000000" fill-rule="nonzero" fill-opacity="1" /><path clip-path="url(#clip680)" d="M46.0847 789.941 Q46.0847 797.039 47.7079 799.776 Q49.3312 802.513 53.2461 802.513 Q56.3653 802.513 58.2114 800.476 Q60.0256 798.408 60.0256 794.875 Q60.0256 790.005 56.5881 787.077 Q53.1188 784.117 47.3897 784.117 L46.0847 784.117 L46.0847 789.941 M43.6657 778.26 L64.0042 778.26 L64.0042 784.117 L58.5933 784.117 Q61.8398 786.122 63.3994 789.114 Q64.9272 792.105 64.9272 796.434 Q64.9272 801.909 61.8716 805.155 Q58.7843 808.37 53.6281 808.37 Q47.6125 808.37 44.5569 804.359 Q41.5014 800.317 41.5014 792.328 L41.5014 784.117 L40.9285 784.117 Q36.8862 784.117 34.6901 786.79 Q32.4621 789.432 32.4621 794.238 Q32.4621 797.294 33.1941 800.19 Q33.9262 803.086 35.3903 805.76 L29.9795 805.76 Q28.7381 802.545 28.1334 799.522 Q27.4968 796.498 27.4968 793.633 Q27.4968 785.899 31.5072 782.079 Q35.5176 778.26 43.6657 778.26 Z" fill="#000000" fill-rule="nonzero" fill-opacity="1" /><path clip-path="url(#clip680)" d="M35.1993 738.443 Q31.2526 736.246 29.3747 733.191 Q27.4968 730.135 27.4968 725.998 Q27.4968 720.428 31.4117 717.404 Q35.2948 714.38 42.4881 714.38 L64.0042 714.38 L64.0042 720.268 L42.679 720.268 Q37.5546 720.268 35.072 722.083 Q32.5894 723.897 32.5894 727.621 Q32.5894 732.172 35.6131 734.814 Q38.6368 737.456 43.8567 737.456 L64.0042 737.456 L64.0042 743.344 L42.679 743.344 Q37.5228 743.344 35.072 745.158 Q32.5894 746.973 32.5894 750.76 Q32.5894 755.248 35.6449 757.89 Q38.6686 760.532 43.8567 760.532 L64.0042 760.532 L64.0042 766.42 L28.3562 766.42 L28.3562 760.532 L33.8944 760.532 Q30.616 758.526 29.0564 755.725 Q27.4968 752.925 27.4968 749.073 Q27.4968 745.19 29.4702 742.485 Q31.4436 739.748 35.1993 738.443 Z" fill="#000000" fill-rule="nonzero" fill-opacity="1" /><path clip-path="url(#clip680)" d="M44.7161 672.207 L47.5806 672.207 L47.5806 699.134 Q53.6281 698.752 56.8109 695.506 Q59.9619 692.228 59.9619 686.403 Q59.9619 683.029 59.1344 679.878 Q58.3069 676.695 56.6518 673.576 L62.1899 673.576 Q63.5267 676.727 64.227 680.037 Q64.9272 683.347 64.9272 686.753 Q64.9272 695.283 59.9619 700.28 Q54.9967 705.245 46.5303 705.245 Q37.7774 705.245 32.6531 700.535 Q27.4968 695.792 27.4968 687.772 Q27.4968 680.578 32.1438 676.409 Q36.7589 672.207 44.7161 672.207 M42.9973 678.064 Q38.1912 678.127 35.3266 680.769 Q32.4621 683.379 32.4621 687.708 Q32.4621 692.609 35.2312 695.57 Q38.0002 698.498 43.0292 698.943 L42.9973 678.064 Z" fill="#000000" fill-rule="nonzero" fill-opacity="1" /><path clip-path="url(#clip680)" d="M18.2347 656.802 L28.3562 656.802 L28.3562 644.739 L32.9077 644.739 L32.9077 656.802 L52.2594 656.802 Q56.6199 656.802 57.8613 655.625 Q59.1026 654.415 59.1026 650.755 L59.1026 644.739 L64.0042 644.739 L64.0042 650.755 Q64.0042 657.534 61.4897 660.113 Q58.9434 662.691 52.2594 662.691 L32.9077 662.691 L32.9077 666.988 L28.3562 666.988 L28.3562 662.691 L18.2347 662.691 L18.2347 656.802 Z" fill="#000000" fill-rule="nonzero" fill-opacity="1" /><path clip-path="url(#clip680)" d="M44.7161 606.545 L47.5806 606.545 L47.5806 633.472 Q53.6281 633.09 56.8109 629.844 Q59.9619 626.565 59.9619 620.741 Q59.9619 617.367 59.1344 614.216 Q58.3069 611.033 56.6518 607.914 L62.1899 607.914 Q63.5267 611.065 64.227 614.375 Q64.9272 617.685 64.9272 621.091 Q64.9272 629.621 59.9619 634.618 Q54.9967 639.583 46.5303 639.583 Q37.7774 639.583 32.6531 634.873 Q27.4968 630.13 27.4968 622.109 Q27.4968 614.916 32.1438 610.746 Q36.7589 606.545 44.7161 606.545 M42.9973 612.402 Q38.1912 612.465 35.3266 615.107 Q32.4621 617.717 32.4621 622.046 Q32.4621 626.947 35.2312 629.907 Q38.0002 632.835 43.0292 633.281 L42.9973 612.402 Z" fill="#000000" fill-rule="nonzero" fill-opacity="1" /><path clip-path="url(#clip680)" d="M33.8307 576.276 Q33.2578 577.263 33.0032 578.441 Q32.7167 579.586 32.7167 580.987 Q32.7167 585.952 35.9632 588.626 Q39.1779 591.267 45.2253 591.267 L64.0042 591.267 L64.0042 597.156 L28.3562 597.156 L28.3562 591.267 L33.8944 591.267 Q30.6479 589.421 29.0883 586.461 Q27.4968 583.501 27.4968 579.268 Q27.4968 578.663 27.5923 577.931 Q27.656 577.199 27.8151 576.308 L33.8307 576.276 Z" fill="#000000" fill-rule="nonzero" fill-opacity="1" /><path clip-path="url(#clip680)" d="M64.0042 536.904 L16.4842 555.047 L16.4842 548.331 L56.4926 533.276 L16.4842 518.189 L16.4842 511.505 L64.0042 529.616 L64.0042 536.904 Z" fill="#000000" fill-rule="nonzero" fill-opacity="1" /><path clip-path="url(#clip680)" d="M46.0847 493.681 Q46.0847 500.779 47.7079 503.516 Q49.3312 506.253 53.2461 506.253 Q56.3653 506.253 58.2114 504.216 Q60.0256 502.148 60.0256 498.615 Q60.0256 493.745 56.5881 490.817 Q53.1188 487.857 47.3897 487.857 L46.0847 487.857 L46.0847 493.681 M43.6657 482 L64.0042 482 L64.0042 487.857 L58.5933 487.857 Q61.8398 489.862 63.3994 492.854 Q64.9272 495.845 64.9272 500.174 Q64.9272 505.649 61.8716 508.895 Q58.7843 512.11 53.6281 512.11 Q47.6125 512.11 44.5569 508.099 Q41.5014 504.057 41.5014 496.068 L41.5014 487.857 L40.9285 487.857 Q36.8862 487.857 34.6901 490.53 Q32.4621 493.172 32.4621 497.978 Q32.4621 501.034 33.1941 503.93 Q33.9262 506.826 35.3903 509.5 L29.9795 509.5 Q28.7381 506.285 28.1334 503.262 Q27.4968 500.238 27.4968 497.373 Q27.4968 489.639 31.5072 485.819 Q35.5176 482 43.6657 482 Z" fill="#000000" fill-rule="nonzero" fill-opacity="1" /><path clip-path="url(#clip680)" d="M14.479 469.937 L14.479 464.081 L64.0042 464.081 L64.0042 469.937 L14.479 469.937 Z" fill="#000000" fill-rule="nonzero" fill-opacity="1" /><path clip-path="url(#clip680)" d="M49.9359 452.431 L28.3562 452.431 L28.3562 446.575 L49.7131 446.575 Q54.7739 446.575 57.3202 444.602 Q59.8346 442.628 59.8346 438.681 Q59.8346 433.939 56.8109 431.202 Q53.7872 428.433 48.5673 428.433 L28.3562 428.433 L28.3562 422.576 L64.0042 422.576 L64.0042 428.433 L58.5296 428.433 Q61.7762 430.565 63.3676 433.398 Q64.9272 436.199 64.9272 439.923 Q64.9272 446.066 61.1078 449.249 Q57.2883 452.431 49.9359 452.431 M27.4968 437.695 L27.4968 437.695 Z" fill="#000000" fill-rule="nonzero" fill-opacity="1" /><path clip-path="url(#clip680)" d="M44.7161 380.021 L47.5806 380.021 L47.5806 406.948 Q53.6281 406.566 56.8109 403.32 Q59.9619 400.042 59.9619 394.217 Q59.9619 390.843 59.1344 387.692 Q58.3069 384.509 56.6518 381.39 L62.1899 381.39 Q63.5267 384.541 64.227 387.851 Q64.9272 391.161 64.9272 394.567 Q64.9272 403.097 59.9619 408.094 Q54.9967 413.059 46.5303 413.059 Q37.7774 413.059 32.6531 408.349 Q27.4968 403.606 27.4968 395.586 Q27.4968 388.392 32.1438 384.223 Q36.7589 380.021 44.7161 380.021 M42.9973 385.878 Q38.1912 385.942 35.3266 388.583 Q32.4621 391.193 32.4621 395.522 Q32.4621 400.424 35.2312 403.384 Q38.0002 406.312 43.0292 406.757 L42.9973 385.878 Z" fill="#000000" fill-rule="nonzero" fill-opacity="1" /><path clip-path="url(#clip680)" d="M14.5426 371.332 L14.5426 366.24 Q22.0542 361.465 29.2474 359.11 Q36.4406 356.723 43.5384 356.723 Q50.668 356.723 57.8931 359.11 Q65.1182 361.465 72.5979 366.24 L72.5979 371.332 Q65.3091 367.099 58.1159 365.03 Q50.8908 362.93 43.5384 362.93 Q36.186 362.93 29.0246 365.03 Q21.8632 367.099 14.5426 371.332 Z" fill="#000000" fill-rule="nonzero" fill-opacity="1" /><circle clip-path="url(#clip682)" cx="343.057" cy="724.517" r="14.4" fill="#009af9" fill-rule="evenodd" fill-opacity="1" stroke="#000000" stroke-opacity="1" stroke-width="3.2"/>
<circle clip-path="url(#clip682)" cx="336.08" cy="724.517" r="14.4" fill="#009af9" fill-rule="evenodd" fill-opacity="1" stroke="#000000" stroke-opacity="1" stroke-width="3.2"/>
<circle clip-path="url(#clip682)" cx="340.638" cy="724.517" r="14.4" fill="#009af9" fill-rule="evenodd" fill-opacity="1" stroke="#000000" stroke-opacity="1" stroke-width="3.2"/>
<circle clip-path="url(#clip682)" cx="301.869" cy="724.517" r="14.4" fill="#009af9" fill-rule="evenodd" fill-opacity="1" stroke="#000000" stroke-opacity="1" stroke-width="3.2"/>
<circle clip-path="url(#clip682)" cx="377.311" cy="724.517" r="14.4" fill="#009af9" fill-rule="evenodd" fill-opacity="1" stroke="#000000" stroke-opacity="1" stroke-width="3.2"/>
<circle clip-path="url(#clip682)" cx="1467.42" cy="733.56" r="14.4" fill="#009af9" fill-rule="evenodd" fill-opacity="1" stroke="#000000" stroke-opacity="1" stroke-width="3.2"/>
<circle clip-path="url(#clip682)" cx="1464.33" cy="733.56" r="14.4" fill="#009af9" fill-rule="evenodd" fill-opacity="1" stroke="#000000" stroke-opacity="1" stroke-width="3.2"/>
<circle clip-path="url(#clip682)" cx="1514.21" cy="733.56" r="14.4" fill="#009af9" fill-rule="evenodd" fill-opacity="1" stroke="#000000" stroke-opacity="1" stroke-width="3.2"/>
<circle clip-path="url(#clip682)" cx="1470.64" cy="733.56" r="14.4" fill="#009af9" fill-rule="evenodd" fill-opacity="1" stroke="#000000" stroke-opacity="1" stroke-width="3.2"/>
<circle clip-path="url(#clip682)" cx="1557.83" cy="733.56" r="14.4" fill="#009af9" fill-rule="evenodd" fill-opacity="1" stroke="#000000" stroke-opacity="1" stroke-width="3.2"/>
<circle clip-path="url(#clip682)" cx="745.069" cy="774.64" r="14.4" fill="#e26f46" fill-rule="evenodd" fill-opacity="1" stroke="#000000" stroke-opacity="1" stroke-width="3.2"/>
<circle clip-path="url(#clip682)" cx="740.583" cy="774.64" r="14.4" fill="#e26f46" fill-rule="evenodd" fill-opacity="1" stroke="#000000" stroke-opacity="1" stroke-width="3.2"/>
<circle clip-path="url(#clip682)" cx="737.58" cy="781.594" r="14.4" fill="#e26f46" fill-rule="evenodd" fill-opacity="1" stroke="#000000" stroke-opacity="1" stroke-width="3.2"/>
<circle clip-path="url(#clip682)" cx="734.256" cy="781.594" r="14.4" fill="#e26f46" fill-rule="evenodd" fill-opacity="1" stroke="#000000" stroke-opacity="1" stroke-width="3.2"/>
<circle clip-path="url(#clip682)" cx="753.529" cy="782.656" r="14.4" fill="#e26f46" fill-rule="evenodd" fill-opacity="1" stroke="#000000" stroke-opacity="1" stroke-width="3.2"/>
<circle clip-path="url(#clip682)" cx="718.499" cy="804.88" r="14.4" fill="#e26f46" fill-rule="evenodd" fill-opacity="1" stroke="#000000" stroke-opacity="1" stroke-width="3.2"/>
<circle clip-path="url(#clip682)" cx="770.61" cy="804.88" r="14.4" fill="#e26f46" fill-rule="evenodd" fill-opacity="1" stroke="#000000" stroke-opacity="1" stroke-width="3.2"/>
<circle clip-path="url(#clip682)" cx="732.739" cy="800.315" r="14.4" fill="#e26f46" fill-rule="evenodd" fill-opacity="1" stroke="#000000" stroke-opacity="1" stroke-width="3.2"/>
<circle clip-path="url(#clip682)" cx="776.647" cy="809.796" r="14.4" fill="#e26f46" fill-rule="evenodd" fill-opacity="1" stroke="#000000" stroke-opacity="1" stroke-width="3.2"/>
<circle clip-path="url(#clip682)" cx="737.018" cy="793.092" r="14.4" fill="#e26f46" fill-rule="evenodd" fill-opacity="1" stroke="#000000" stroke-opacity="1" stroke-width="3.2"/>
<circle clip-path="url(#clip682)" cx="689.438" cy="817.303" r="14.4" fill="#e26f46" fill-rule="evenodd" fill-opacity="1" stroke="#000000" stroke-opacity="1" stroke-width="3.2"/>
<circle clip-path="url(#clip682)" cx="671.593" cy="809.796" r="14.4" fill="#e26f46" fill-rule="evenodd" fill-opacity="1" stroke="#000000" stroke-opacity="1" stroke-width="3.2"/>
<circle clip-path="url(#clip682)" cx="722.385" cy="809.796" r="14.4" fill="#e26f46" fill-rule="evenodd" fill-opacity="1" stroke="#000000" stroke-opacity="1" stroke-width="3.2"/>
<circle clip-path="url(#clip682)" cx="711.221" cy="809.796" r="14.4" fill="#e26f46" fill-rule="evenodd" fill-opacity="1" stroke="#000000" stroke-opacity="1" stroke-width="3.2"/>
<circle clip-path="url(#clip682)" cx="680.033" cy="817.303" r="14.4" fill="#e26f46" fill-rule="evenodd" fill-opacity="1" stroke="#000000" stroke-opacity="1" stroke-width="3.2"/>
<circle clip-path="url(#clip682)" cx="722.618" cy="814.035" r="14.4" fill="#e26f46" fill-rule="evenodd" fill-opacity="1" stroke="#000000" stroke-opacity="1" stroke-width="3.2"/>
<circle clip-path="url(#clip682)" cx="728.808" cy="814.035" r="14.4" fill="#e26f46" fill-rule="evenodd" fill-opacity="1" stroke="#000000" stroke-opacity="1" stroke-width="3.2"/>
<circle clip-path="url(#clip682)" cx="725.517" cy="781.594" r="14.4" fill="#e26f46" fill-rule="evenodd" fill-opacity="1" stroke="#000000" stroke-opacity="1" stroke-width="3.2"/>
<circle clip-path="url(#clip682)" cx="734.098" cy="781.594" r="14.4" fill="#e26f46" fill-rule="evenodd" fill-opacity="1" stroke="#000000" stroke-opacity="1" stroke-width="3.2"/>
<circle clip-path="url(#clip682)" cx="676.956" cy="815.762" r="14.4" fill="#e26f46" fill-rule="evenodd" fill-opacity="1" stroke="#000000" stroke-opacity="1" stroke-width="3.2"/>
<circle clip-path="url(#clip682)" cx="720.942" cy="815.762" r="14.4" fill="#e26f46" fill-rule="evenodd" fill-opacity="1" stroke="#000000" stroke-opacity="1" stroke-width="3.2"/>
<circle clip-path="url(#clip682)" cx="772.345" cy="799.389" r="14.4" fill="#e26f46" fill-rule="evenodd" fill-opacity="1" stroke="#000000" stroke-opacity="1" stroke-width="3.2"/>
<circle clip-path="url(#clip682)" cx="783.45" cy="799.389" r="14.4" fill="#e26f46" fill-rule="evenodd" fill-opacity="1" stroke="#000000" stroke-opacity="1" stroke-width="3.2"/>
<circle clip-path="url(#clip682)" cx="769.716" cy="799.389" r="14.4" fill="#e26f46" fill-rule="evenodd" fill-opacity="1" stroke="#000000" stroke-opacity="1" stroke-width="3.2"/>
<circle clip-path="url(#clip682)" cx="737.189" cy="823.207" r="14.4" fill="#e26f46" fill-rule="evenodd" fill-opacity="1" stroke="#000000" stroke-opacity="1" stroke-width="3.2"/>
<circle clip-path="url(#clip682)" cx="677.084" cy="812.203" r="14.4" fill="#e26f46" fill-rule="evenodd" fill-opacity="1" stroke="#000000" stroke-opacity="1" stroke-width="3.2"/>
<circle clip-path="url(#clip682)" cx="702.37" cy="812.203" r="14.4" fill="#e26f46" fill-rule="evenodd" fill-opacity="1" stroke="#000000" stroke-opacity="1" stroke-width="3.2"/>
<circle clip-path="url(#clip682)" cx="666.948" cy="812.203" r="14.4" fill="#e26f46" fill-rule="evenodd" fill-opacity="1" stroke="#000000" stroke-opacity="1" stroke-width="3.2"/>
<circle clip-path="url(#clip682)" cx="743.998" cy="818.777" r="14.4" fill="#e26f46" fill-rule="evenodd" fill-opacity="1" stroke="#000000" stroke-opacity="1" stroke-width="3.2"/>
<circle clip-path="url(#clip682)" cx="748.806" cy="782.656" r="14.4" fill="#e26f46" fill-rule="evenodd" fill-opacity="1" stroke="#000000" stroke-opacity="1" stroke-width="3.2"/>
<circle clip-path="url(#clip682)" cx="754.901" cy="815.863" r="14.4" fill="#e26f46" fill-rule="evenodd" fill-opacity="1" stroke="#000000" stroke-opacity="1" stroke-width="3.2"/>
<circle clip-path="url(#clip682)" cx="724.193" cy="782.656" r="14.4" fill="#e26f46" fill-rule="evenodd" fill-opacity="1" stroke="#000000" stroke-opacity="1" stroke-width="3.2"/>
<circle clip-path="url(#clip682)" cx="699.562" cy="815.863" r="14.4" fill="#e26f46" fill-rule="evenodd" fill-opacity="1" stroke="#000000" stroke-opacity="1" stroke-width="3.2"/>
<circle clip-path="url(#clip682)" cx="740.65" cy="895.636" r="14.4" fill="#e26f46" fill-rule="evenodd" fill-opacity="1" stroke="#000000" stroke-opacity="1" stroke-width="3.2"/>
<circle clip-path="url(#clip682)" cx="675.053" cy="814.149" r="14.4" fill="#e26f46" fill-rule="evenodd" fill-opacity="1" stroke="#000000" stroke-opacity="1" stroke-width="3.2"/>
<circle clip-path="url(#clip682)" cx="740.562" cy="909.802" r="14.4" fill="#e26f46" fill-rule="evenodd" fill-opacity="1" stroke="#000000" stroke-opacity="1" stroke-width="3.2"/>
<circle clip-path="url(#clip682)" cx="737.767" cy="918.152" r="14.4" fill="#e26f46" fill-rule="evenodd" fill-opacity="1" stroke="#000000" stroke-opacity="1" stroke-width="3.2"/>
<circle clip-path="url(#clip682)" cx="795.389" cy="814.149" r="14.4" fill="#e26f46" fill-rule="evenodd" fill-opacity="1" stroke="#000000" stroke-opacity="1" stroke-width="3.2"/>
<circle clip-path="url(#clip682)" cx="742.721" cy="793.578" r="14.4" fill="#e26f46" fill-rule="evenodd" fill-opacity="1" stroke="#000000" stroke-opacity="1" stroke-width="3.2"/>
<circle clip-path="url(#clip682)" cx="771.157" cy="793.578" r="14.4" fill="#e26f46" fill-rule="evenodd" fill-opacity="1" stroke="#000000" stroke-opacity="1" stroke-width="3.2"/>
<circle clip-path="url(#clip682)" cx="754.654" cy="822.269" r="14.4" fill="#e26f46" fill-rule="evenodd" fill-opacity="1" stroke="#000000" stroke-opacity="1" stroke-width="3.2"/>
<circle clip-path="url(#clip682)" cx="764.307" cy="793.578" r="14.4" fill="#e26f46" fill-rule="evenodd" fill-opacity="1" stroke="#000000" stroke-opacity="1" stroke-width="3.2"/>
<circle clip-path="url(#clip682)" cx="727.064" cy="793.578" r="14.4" fill="#e26f46" fill-rule="evenodd" fill-opacity="1" stroke="#000000" stroke-opacity="1" stroke-width="3.2"/>
<circle clip-path="url(#clip682)" cx="713.376" cy="817.394" r="14.4" fill="#e26f46" fill-rule="evenodd" fill-opacity="1" stroke="#000000" stroke-opacity="1" stroke-width="3.2"/>
<circle clip-path="url(#clip682)" cx="681.883" cy="809.949" r="14.4" fill="#e26f46" fill-rule="evenodd" fill-opacity="1" stroke="#000000" stroke-opacity="1" stroke-width="3.2"/>
<circle clip-path="url(#clip682)" cx="743.804" cy="803.983" r="14.4" fill="#e26f46" fill-rule="evenodd" fill-opacity="1" stroke="#000000" stroke-opacity="1" stroke-width="3.2"/>
<circle clip-path="url(#clip682)" cx="689.122" cy="803.983" r="14.4" fill="#e26f46" fill-rule="evenodd" fill-opacity="1" stroke="#000000" stroke-opacity="1" stroke-width="3.2"/>
<circle clip-path="url(#clip682)" cx="722.828" cy="803.983" r="14.4" fill="#e26f46" fill-rule="evenodd" fill-opacity="1" stroke="#000000" stroke-opacity="1" stroke-width="3.2"/>
<circle clip-path="url(#clip682)" cx="733.65" cy="820.038" r="14.4" fill="#e26f46" fill-rule="evenodd" fill-opacity="1" stroke="#000000" stroke-opacity="1" stroke-width="3.2"/>
<circle clip-path="url(#clip682)" cx="685.38" cy="803.983" r="14.4" fill="#e26f46" fill-rule="evenodd" fill-opacity="1" stroke="#000000" stroke-opacity="1" stroke-width="3.2"/>
<circle clip-path="url(#clip682)" cx="690.442" cy="803.983" r="14.4" fill="#e26f46" fill-rule="evenodd" fill-opacity="1" stroke="#000000" stroke-opacity="1" stroke-width="3.2"/>
<circle clip-path="url(#clip682)" cx="705.307" cy="803.983" r="14.4" fill="#e26f46" fill-rule="evenodd" fill-opacity="1" stroke="#000000" stroke-opacity="1" stroke-width="3.2"/>
<circle clip-path="url(#clip682)" cx="768.802" cy="820.038" r="14.4" fill="#e26f46" fill-rule="evenodd" fill-opacity="1" stroke="#000000" stroke-opacity="1" stroke-width="3.2"/>
<circle clip-path="url(#clip682)" cx="776.573" cy="809.949" r="14.4" fill="#e26f46" fill-rule="evenodd" fill-opacity="1" stroke="#000000" stroke-opacity="1" stroke-width="3.2"/>
<circle clip-path="url(#clip682)" cx="723.205" cy="793.578" r="14.4" fill="#e26f46" fill-rule="evenodd" fill-opacity="1" stroke="#000000" stroke-opacity="1" stroke-width="3.2"/>
<circle clip-path="url(#clip682)" cx="770.529" cy="817.394" r="14.4" fill="#e26f46" fill-rule="evenodd" fill-opacity="1" stroke="#000000" stroke-opacity="1" stroke-width="3.2"/>
<circle clip-path="url(#clip682)" cx="775.174" cy="814.597" r="14.4" fill="#e26f46" fill-rule="evenodd" fill-opacity="1" stroke="#000000" stroke-opacity="1" stroke-width="3.2"/>
<circle clip-path="url(#clip682)" cx="721.133" cy="814.597" r="14.4" fill="#e26f46" fill-rule="evenodd" fill-opacity="1" stroke="#000000" stroke-opacity="1" stroke-width="3.2"/>
<circle clip-path="url(#clip682)" cx="775.982" cy="795.372" r="14.4" fill="#e26f46" fill-rule="evenodd" fill-opacity="1" stroke="#000000" stroke-opacity="1" stroke-width="3.2"/>
<circle clip-path="url(#clip682)" cx="768.847" cy="795.372" r="14.4" fill="#e26f46" fill-rule="evenodd" fill-opacity="1" stroke="#000000" stroke-opacity="1" stroke-width="3.2"/>
<circle clip-path="url(#clip682)" cx="755.817" cy="795.372" r="14.4" fill="#e26f46" fill-rule="evenodd" fill-opacity="1" stroke="#000000" stroke-opacity="1" stroke-width="3.2"/>
<circle clip-path="url(#clip682)" cx="757.651" cy="822.525" r="14.4" fill="#e26f46" fill-rule="evenodd" fill-opacity="1" stroke="#000000" stroke-opacity="1" stroke-width="3.2"/>
<circle clip-path="url(#clip682)" cx="763.542" cy="807.991" r="14.4" fill="#e26f46" fill-rule="evenodd" fill-opacity="1" stroke="#000000" stroke-opacity="1" stroke-width="3.2"/>
<circle clip-path="url(#clip682)" cx="736.825" cy="807.991" r="14.4" fill="#e26f46" fill-rule="evenodd" fill-opacity="1" stroke="#000000" stroke-opacity="1" stroke-width="3.2"/>
<circle clip-path="url(#clip682)" cx="745.728" cy="807.991" r="14.4" fill="#e26f46" fill-rule="evenodd" fill-opacity="1" stroke="#000000" stroke-opacity="1" stroke-width="3.2"/>
<circle clip-path="url(#clip682)" cx="696.297" cy="816.261" r="14.4" fill="#e26f46" fill-rule="evenodd" fill-opacity="1" stroke="#000000" stroke-opacity="1" stroke-width="3.2"/>
<circle clip-path="url(#clip682)" cx="675.175" cy="812.715" r="14.4" fill="#e26f46" fill-rule="evenodd" fill-opacity="1" stroke="#000000" stroke-opacity="1" stroke-width="3.2"/>
<circle clip-path="url(#clip682)" cx="730.904" cy="812.715" r="14.4" fill="#e26f46" fill-rule="evenodd" fill-opacity="1" stroke="#000000" stroke-opacity="1" stroke-width="3.2"/>
<circle clip-path="url(#clip682)" cx="757.554" cy="804.88" r="14.4" fill="#e26f46" fill-rule="evenodd" fill-opacity="1" stroke="#000000" stroke-opacity="1" stroke-width="3.2"/>
<circle clip-path="url(#clip682)" cx="773.552" cy="804.88" r="14.4" fill="#e26f46" fill-rule="evenodd" fill-opacity="1" stroke="#000000" stroke-opacity="1" stroke-width="3.2"/>
<circle clip-path="url(#clip682)" cx="763.463" cy="820.337" r="14.4" fill="#e26f46" fill-rule="evenodd" fill-opacity="1" stroke="#000000" stroke-opacity="1" stroke-width="3.2"/>
<circle clip-path="url(#clip682)" cx="678.103" cy="810.547" r="14.4" fill="#e26f46" fill-rule="evenodd" fill-opacity="1" stroke="#000000" stroke-opacity="1" stroke-width="3.2"/>
<circle clip-path="url(#clip682)" cx="709.226" cy="795.372" r="14.4" fill="#e26f46" fill-rule="evenodd" fill-opacity="1" stroke="#000000" stroke-opacity="1" stroke-width="3.2"/>
<circle clip-path="url(#clip682)" cx="716.193" cy="795.372" r="14.4" fill="#e26f46" fill-rule="evenodd" fill-opacity="1" stroke="#000000" stroke-opacity="1" stroke-width="3.2"/>
<circle clip-path="url(#clip682)" cx="727.045" cy="817.752" r="14.4" fill="#e26f46" fill-rule="evenodd" fill-opacity="1" stroke="#000000" stroke-opacity="1" stroke-width="3.2"/>
<circle clip-path="url(#clip682)" cx="750.187" cy="795.372" r="14.4" fill="#e26f46" fill-rule="evenodd" fill-opacity="1" stroke="#000000" stroke-opacity="1" stroke-width="3.2"/>
<circle clip-path="url(#clip682)" cx="730.632" cy="795.372" r="14.4" fill="#e26f46" fill-rule="evenodd" fill-opacity="1" stroke="#000000" stroke-opacity="1" stroke-width="3.2"/>
<circle clip-path="url(#clip682)" cx="787.781" cy="817.752" r="14.4" fill="#e26f46" fill-rule="evenodd" fill-opacity="1" stroke="#000000" stroke-opacity="1" stroke-width="3.2"/>
<circle clip-path="url(#clip682)" cx="698.687" cy="810.547" r="14.4" fill="#e26f46" fill-rule="evenodd" fill-opacity="1" stroke="#000000" stroke-opacity="1" stroke-width="3.2"/>
<circle clip-path="url(#clip682)" cx="765.218" cy="804.88" r="14.4" fill="#e26f46" fill-rule="evenodd" fill-opacity="1" stroke="#000000" stroke-opacity="1" stroke-width="3.2"/>
<circle clip-path="url(#clip682)" cx="761.593" cy="804.88" r="14.4" fill="#e26f46" fill-rule="evenodd" fill-opacity="1" stroke="#000000" stroke-opacity="1" stroke-width="3.2"/>
<circle clip-path="url(#clip682)" cx="727.676" cy="820.337" r="14.4" fill="#e26f46" fill-rule="evenodd" fill-opacity="1" stroke="#000000" stroke-opacity="1" stroke-width="3.2"/>
<circle clip-path="url(#clip682)" cx="719.19" cy="802.524" r="14.4" fill="#e26f46" fill-rule="evenodd" fill-opacity="1" stroke="#000000" stroke-opacity="1" stroke-width="3.2"/>
<circle clip-path="url(#clip682)" cx="789.56" cy="802.524" r="14.4" fill="#e26f46" fill-rule="evenodd" fill-opacity="1" stroke="#000000" stroke-opacity="1" stroke-width="3.2"/>
<circle clip-path="url(#clip682)" cx="707.694" cy="819.578" r="14.4" fill="#e26f46" fill-rule="evenodd" fill-opacity="1" stroke="#000000" stroke-opacity="1" stroke-width="3.2"/>
<circle clip-path="url(#clip682)" cx="778.772" cy="813.45" r="14.4" fill="#e26f46" fill-rule="evenodd" fill-opacity="1" stroke="#000000" stroke-opacity="1" stroke-width="3.2"/>
<circle clip-path="url(#clip682)" cx="686.727" cy="802.524" r="14.4" fill="#e26f46" fill-rule="evenodd" fill-opacity="1" stroke="#000000" stroke-opacity="1" stroke-width="3.2"/>
<circle clip-path="url(#clip682)" cx="738.067" cy="802.524" r="14.4" fill="#e26f46" fill-rule="evenodd" fill-opacity="1" stroke="#000000" stroke-opacity="1" stroke-width="3.2"/>
<circle clip-path="url(#clip682)" cx="742.611" cy="802.524" r="14.4" fill="#e26f46" fill-rule="evenodd" fill-opacity="1" stroke="#000000" stroke-opacity="1" stroke-width="3.2"/>
<circle clip-path="url(#clip682)" cx="718.125" cy="819.578" r="14.4" fill="#e26f46" fill-rule="evenodd" fill-opacity="1" stroke="#000000" stroke-opacity="1" stroke-width="3.2"/>
<circle clip-path="url(#clip682)" cx="735.355" cy="797.701" r="14.4" fill="#e26f46" fill-rule="evenodd" fill-opacity="1" stroke="#000000" stroke-opacity="1" stroke-width="3.2"/>
<circle clip-path="url(#clip682)" cx="710.542" cy="797.701" r="14.4" fill="#e26f46" fill-rule="evenodd" fill-opacity="1" stroke="#000000" stroke-opacity="1" stroke-width="3.2"/>
<circle clip-path="url(#clip682)" cx="725.603" cy="797.701" r="14.4" fill="#e26f46" fill-rule="evenodd" fill-opacity="1" stroke="#000000" stroke-opacity="1" stroke-width="3.2"/>
<circle clip-path="url(#clip682)" cx="696.577" cy="818.274" r="14.4" fill="#e26f46" fill-rule="evenodd" fill-opacity="1" stroke="#000000" stroke-opacity="1" stroke-width="3.2"/>
<circle clip-path="url(#clip682)" cx="668.485" cy="811.398" r="14.4" fill="#e26f46" fill-rule="evenodd" fill-opacity="1" stroke="#000000" stroke-opacity="1" stroke-width="3.2"/>
<circle clip-path="url(#clip682)" cx="724.378" cy="797.701" r="14.4" fill="#e26f46" fill-rule="evenodd" fill-opacity="1" stroke="#000000" stroke-opacity="1" stroke-width="3.2"/>
<circle clip-path="url(#clip682)" cx="725.547" cy="797.701" r="14.4" fill="#e26f46" fill-rule="evenodd" fill-opacity="1" stroke="#000000" stroke-opacity="1" stroke-width="3.2"/>
<circle clip-path="url(#clip682)" cx="779.995" cy="818.274" r="14.4" fill="#e26f46" fill-rule="evenodd" fill-opacity="1" stroke="#000000" stroke-opacity="1" stroke-width="3.2"/>
<circle clip-path="url(#clip682)" cx="695.33" cy="812.461" r="14.4" fill="#e26f46" fill-rule="evenodd" fill-opacity="1" stroke="#000000" stroke-opacity="1" stroke-width="3.2"/>
<circle clip-path="url(#clip682)" cx="768.872" cy="812.461" r="14.4" fill="#e26f46" fill-rule="evenodd" fill-opacity="1" stroke="#000000" stroke-opacity="1" stroke-width="3.2"/>
<circle clip-path="url(#clip682)" cx="671.739" cy="812.461" r="14.4" fill="#e26f46" fill-rule="evenodd" fill-opacity="1" stroke="#000000" stroke-opacity="1" stroke-width="3.2"/>
<circle clip-path="url(#clip682)" cx="708.614" cy="818.941" r="14.4" fill="#e26f46" fill-rule="evenodd" fill-opacity="1" stroke="#000000" stroke-opacity="1" stroke-width="3.2"/>
<circle clip-path="url(#clip682)" cx="776.185" cy="812.461" r="14.4" fill="#e26f46" fill-rule="evenodd" fill-opacity="1" stroke="#000000" stroke-opacity="1" stroke-width="3.2"/>
<circle clip-path="url(#clip682)" cx="745.258" cy="812.461" r="14.4" fill="#e26f46" fill-rule="evenodd" fill-opacity="1" stroke="#000000" stroke-opacity="1" stroke-width="3.2"/>
<circle clip-path="url(#clip682)" cx="666.006" cy="812.461" r="14.4" fill="#e26f46" fill-rule="evenodd" fill-opacity="1" stroke="#000000" stroke-opacity="1" stroke-width="3.2"/>
<circle clip-path="url(#clip682)" cx="786.58" cy="812.461" r="14.4" fill="#e26f46" fill-rule="evenodd" fill-opacity="1" stroke="#000000" stroke-opacity="1" stroke-width="3.2"/>
<circle clip-path="url(#clip682)" cx="785.442" cy="800.315" r="14.4" fill="#e26f46" fill-rule="evenodd" fill-opacity="1" stroke="#000000" stroke-opacity="1" stroke-width="3.2"/>
<circle clip-path="url(#clip682)" cx="693.06" cy="800.315" r="14.4" fill="#e26f46" fill-rule="evenodd" fill-opacity="1" stroke="#000000" stroke-opacity="1" stroke-width="3.2"/>
<circle clip-path="url(#clip682)" cx="716.525" cy="823.387" r="14.4" fill="#e26f46" fill-rule="evenodd" fill-opacity="1" stroke="#000000" stroke-opacity="1" stroke-width="3.2"/>
<circle clip-path="url(#clip682)" cx="743.756" cy="809.004" r="14.4" fill="#e26f46" fill-rule="evenodd" fill-opacity="1" stroke="#000000" stroke-opacity="1" stroke-width="3.2"/>
<circle clip-path="url(#clip682)" cx="693.288" cy="809.004" r="14.4" fill="#e26f46" fill-rule="evenodd" fill-opacity="1" stroke="#000000" stroke-opacity="1" stroke-width="3.2"/>
<circle clip-path="url(#clip682)" cx="695.909" cy="809.004" r="14.4" fill="#e26f46" fill-rule="evenodd" fill-opacity="1" stroke="#000000" stroke-opacity="1" stroke-width="3.2"/>
<circle clip-path="url(#clip682)" cx="709.513" cy="821.877" r="14.4" fill="#e26f46" fill-rule="evenodd" fill-opacity="1" stroke="#000000" stroke-opacity="1" stroke-width="3.2"/>
<circle clip-path="url(#clip682)" cx="798.627" cy="809.004" r="14.4" fill="#e26f46" fill-rule="evenodd" fill-opacity="1" stroke="#000000" stroke-opacity="1" stroke-width="3.2"/>
<circle clip-path="url(#clip682)" cx="725.891" cy="790.38" r="14.4" fill="#e26f46" fill-rule="evenodd" fill-opacity="1" stroke="#000000" stroke-opacity="1" stroke-width="3.2"/>
<circle clip-path="url(#clip682)" cx="766.463" cy="790.38" r="14.4" fill="#e26f46" fill-rule="evenodd" fill-opacity="1" stroke="#000000" stroke-opacity="1" stroke-width="3.2"/>
<circle clip-path="url(#clip682)" cx="763.094" cy="816.839" r="14.4" fill="#e26f46" fill-rule="evenodd" fill-opacity="1" stroke="#000000" stroke-opacity="1" stroke-width="3.2"/>
<circle clip-path="url(#clip682)" cx="729.186" cy="815.244" r="14.4" fill="#e26f46" fill-rule="evenodd" fill-opacity="1" stroke="#000000" stroke-opacity="1" stroke-width="3.2"/>
<circle clip-path="url(#clip682)" cx="756.056" cy="793.092" r="14.4" fill="#e26f46" fill-rule="evenodd" fill-opacity="1" stroke="#000000" stroke-opacity="1" stroke-width="3.2"/>
<circle clip-path="url(#clip682)" cx="751.185" cy="782.656" r="14.4" fill="#e26f46" fill-rule="evenodd" fill-opacity="1" stroke="#000000" stroke-opacity="1" stroke-width="3.2"/>
<circle clip-path="url(#clip682)" cx="764.419" cy="793.578" r="14.4" fill="#e26f46" fill-rule="evenodd" fill-opacity="1" stroke="#000000" stroke-opacity="1" stroke-width="3.2"/>
<circle clip-path="url(#clip682)" cx="704.696" cy="793.578" r="14.4" fill="#e26f46" fill-rule="evenodd" fill-opacity="1" stroke="#000000" stroke-opacity="1" stroke-width="3.2"/>
<circle clip-path="url(#clip682)" cx="742.737" cy="1022.93" r="14.4" fill="#e26f46" fill-rule="evenodd" fill-opacity="1" stroke="#000000" stroke-opacity="1" stroke-width="3.2"/>
<circle clip-path="url(#clip682)" cx="739.027" cy="1021.64" r="14.4" fill="#e26f46" fill-rule="evenodd" fill-opacity="1" stroke="#000000" stroke-opacity="1" stroke-width="3.2"/>
<circle clip-path="url(#clip682)" cx="739.774" cy="1023.17" r="14.4" fill="#e26f46" fill-rule="evenodd" fill-opacity="1" stroke="#000000" stroke-opacity="1" stroke-width="3.2"/>
<circle clip-path="url(#clip682)" cx="737.562" cy="1020.27" r="14.4" fill="#e26f46" fill-rule="evenodd" fill-opacity="1" stroke="#000000" stroke-opacity="1" stroke-width="3.2"/>
<circle clip-path="url(#clip682)" cx="1872.2" cy="693.697" r="14.4" fill="#e26f46" fill-rule="evenodd" fill-opacity="1" stroke="#000000" stroke-opacity="1" stroke-width="3.2"/>
<circle clip-path="url(#clip682)" cx="1878.2" cy="693.697" r="14.4" fill="#e26f46" fill-rule="evenodd" fill-opacity="1" stroke="#000000" stroke-opacity="1" stroke-width="3.2"/>
<circle clip-path="url(#clip682)" cx="1870.71" cy="687.509" r="14.4" fill="#e26f46" fill-rule="evenodd" fill-opacity="1" stroke="#000000" stroke-opacity="1" stroke-width="3.2"/>
<circle clip-path="url(#clip682)" cx="1880.46" cy="687.509" r="14.4" fill="#e26f46" fill-rule="evenodd" fill-opacity="1" stroke="#000000" stroke-opacity="1" stroke-width="3.2"/>
<circle clip-path="url(#clip682)" cx="1884.12" cy="686.538" r="14.4" fill="#e26f46" fill-rule="evenodd" fill-opacity="1" stroke="#000000" stroke-opacity="1" stroke-width="3.2"/>
<circle clip-path="url(#clip682)" cx="1872.7" cy="665.274" r="14.4" fill="#e26f46" fill-rule="evenodd" fill-opacity="1" stroke="#000000" stroke-opacity="1" stroke-width="3.2"/>
<circle clip-path="url(#clip682)" cx="1847.74" cy="665.274" r="14.4" fill="#e26f46" fill-rule="evenodd" fill-opacity="1" stroke="#000000" stroke-opacity="1" stroke-width="3.2"/>
<circle clip-path="url(#clip682)" cx="1900.52" cy="669.739" r="14.4" fill="#e26f46" fill-rule="evenodd" fill-opacity="1" stroke="#000000" stroke-opacity="1" stroke-width="3.2"/>
<circle clip-path="url(#clip682)" cx="1856.99" cy="660.436" r="14.4" fill="#e26f46" fill-rule="evenodd" fill-opacity="1" stroke="#000000" stroke-opacity="1" stroke-width="3.2"/>
<circle clip-path="url(#clip682)" cx="1884.6" cy="676.725" r="14.4" fill="#e26f46" fill-rule="evenodd" fill-opacity="1" stroke="#000000" stroke-opacity="1" stroke-width="3.2"/>
<circle clip-path="url(#clip682)" cx="1923.44" cy="653.007" r="14.4" fill="#e26f46" fill-rule="evenodd" fill-opacity="1" stroke="#000000" stroke-opacity="1" stroke-width="3.2"/>
<circle clip-path="url(#clip682)" cx="1927.7" cy="660.436" r="14.4" fill="#e26f46" fill-rule="evenodd" fill-opacity="1" stroke="#000000" stroke-opacity="1" stroke-width="3.2"/>
<circle clip-path="url(#clip682)" cx="1902.16" cy="660.436" r="14.4" fill="#e26f46" fill-rule="evenodd" fill-opacity="1" stroke="#000000" stroke-opacity="1" stroke-width="3.2"/>
<circle clip-path="url(#clip682)" cx="1905.68" cy="660.436" r="14.4" fill="#e26f46" fill-rule="evenodd" fill-opacity="1" stroke="#000000" stroke-opacity="1" stroke-width="3.2"/>
<circle clip-path="url(#clip682)" cx="1876.5" cy="653.007" r="14.4" fill="#e26f46" fill-rule="evenodd" fill-opacity="1" stroke="#000000" stroke-opacity="1" stroke-width="3.2"/>
<circle clip-path="url(#clip682)" cx="1922.29" cy="656.246" r="14.4" fill="#e26f46" fill-rule="evenodd" fill-opacity="1" stroke="#000000" stroke-opacity="1" stroke-width="3.2"/>
<circle clip-path="url(#clip682)" cx="1891.09" cy="656.246" r="14.4" fill="#e26f46" fill-rule="evenodd" fill-opacity="1" stroke="#000000" stroke-opacity="1" stroke-width="3.2"/>
<circle clip-path="url(#clip682)" cx="1870.84" cy="687.509" r="14.4" fill="#e26f46" fill-rule="evenodd" fill-opacity="1" stroke="#000000" stroke-opacity="1" stroke-width="3.2"/>
<circle clip-path="url(#clip682)" cx="1869.25" cy="687.509" r="14.4" fill="#e26f46" fill-rule="evenodd" fill-opacity="1" stroke="#000000" stroke-opacity="1" stroke-width="3.2"/>
<circle clip-path="url(#clip682)" cx="1907.19" cy="654.535" r="14.4" fill="#e26f46" fill-rule="evenodd" fill-opacity="1" stroke="#000000" stroke-opacity="1" stroke-width="3.2"/>
<circle clip-path="url(#clip682)" cx="1877.42" cy="654.535" r="14.4" fill="#e26f46" fill-rule="evenodd" fill-opacity="1" stroke="#000000" stroke-opacity="1" stroke-width="3.2"/>
<circle clip-path="url(#clip682)" cx="1893.38" cy="670.64" r="14.4" fill="#e26f46" fill-rule="evenodd" fill-opacity="1" stroke="#000000" stroke-opacity="1" stroke-width="3.2"/>
<circle clip-path="url(#clip682)" cx="1838.03" cy="670.64" r="14.4" fill="#e26f46" fill-rule="evenodd" fill-opacity="1" stroke="#000000" stroke-opacity="1" stroke-width="3.2"/>
<circle clip-path="url(#clip682)" cx="1827.25" cy="670.64" r="14.4" fill="#e26f46" fill-rule="evenodd" fill-opacity="1" stroke="#000000" stroke-opacity="1" stroke-width="3.2"/>
<circle clip-path="url(#clip682)" cx="1865.35" cy="647.141" r="14.4" fill="#e26f46" fill-rule="evenodd" fill-opacity="1" stroke="#000000" stroke-opacity="1" stroke-width="3.2"/>
<circle clip-path="url(#clip682)" cx="1921.67" cy="658.059" r="14.4" fill="#e26f46" fill-rule="evenodd" fill-opacity="1" stroke="#000000" stroke-opacity="1" stroke-width="3.2"/>
<circle clip-path="url(#clip682)" cx="1826.15" cy="658.059" r="14.4" fill="#e26f46" fill-rule="evenodd" fill-opacity="1" stroke="#000000" stroke-opacity="1" stroke-width="3.2"/>
<circle clip-path="url(#clip682)" cx="1824.38" cy="658.059" r="14.4" fill="#e26f46" fill-rule="evenodd" fill-opacity="1" stroke="#000000" stroke-opacity="1" stroke-width="3.2"/>
<circle clip-path="url(#clip682)" cx="1847.6" cy="651.544" r="14.4" fill="#e26f46" fill-rule="evenodd" fill-opacity="1" stroke="#000000" stroke-opacity="1" stroke-width="3.2"/>
<circle clip-path="url(#clip682)" cx="1865.1" cy="686.538" r="14.4" fill="#e26f46" fill-rule="evenodd" fill-opacity="1" stroke="#000000" stroke-opacity="1" stroke-width="3.2"/>
<circle clip-path="url(#clip682)" cx="1886.08" cy="654.435" r="14.4" fill="#e26f46" fill-rule="evenodd" fill-opacity="1" stroke="#000000" stroke-opacity="1" stroke-width="3.2"/>
<circle clip-path="url(#clip682)" cx="1859.25" cy="686.538" r="14.4" fill="#e26f46" fill-rule="evenodd" fill-opacity="1" stroke="#000000" stroke-opacity="1" stroke-width="3.2"/>
<circle clip-path="url(#clip682)" cx="1869.9" cy="654.435" r="14.4" fill="#e26f46" fill-rule="evenodd" fill-opacity="1" stroke="#000000" stroke-opacity="1" stroke-width="3.2"/>
<circle clip-path="url(#clip682)" cx="1871.7" cy="574.787" r="14.4" fill="#e26f46" fill-rule="evenodd" fill-opacity="1" stroke="#000000" stroke-opacity="1" stroke-width="3.2"/>
<circle clip-path="url(#clip682)" cx="1859" cy="656.132" r="14.4" fill="#e26f46" fill-rule="evenodd" fill-opacity="1" stroke="#000000" stroke-opacity="1" stroke-width="3.2"/>
<circle clip-path="url(#clip682)" cx="1871.88" cy="560.622" r="14.4" fill="#e26f46" fill-rule="evenodd" fill-opacity="1" stroke="#000000" stroke-opacity="1" stroke-width="3.2"/>
<circle clip-path="url(#clip682)" cx="1873.17" cy="552.271" r="14.4" fill="#e26f46" fill-rule="evenodd" fill-opacity="1" stroke="#000000" stroke-opacity="1" stroke-width="3.2"/>
<circle clip-path="url(#clip682)" cx="1912.07" cy="656.132" r="14.4" fill="#e26f46" fill-rule="evenodd" fill-opacity="1" stroke="#000000" stroke-opacity="1" stroke-width="3.2"/>
<circle clip-path="url(#clip682)" cx="1841.72" cy="676.259" r="14.4" fill="#e26f46" fill-rule="evenodd" fill-opacity="1" stroke="#000000" stroke-opacity="1" stroke-width="3.2"/>
<circle clip-path="url(#clip682)" cx="1896.35" cy="676.259" r="14.4" fill="#e26f46" fill-rule="evenodd" fill-opacity="1" stroke="#000000" stroke-opacity="1" stroke-width="3.2"/>
<circle clip-path="url(#clip682)" cx="1889.85" cy="648.074" r="14.4" fill="#e26f46" fill-rule="evenodd" fill-opacity="1" stroke="#000000" stroke-opacity="1" stroke-width="3.2"/>
<circle clip-path="url(#clip682)" cx="1901.74" cy="676.259" r="14.4" fill="#e26f46" fill-rule="evenodd" fill-opacity="1" stroke="#000000" stroke-opacity="1" stroke-width="3.2"/>
<circle clip-path="url(#clip682)" cx="1897.14" cy="676.259" r="14.4" fill="#e26f46" fill-rule="evenodd" fill-opacity="1" stroke="#000000" stroke-opacity="1" stroke-width="3.2"/>
<circle clip-path="url(#clip682)" cx="1824.34" cy="652.917" r="14.4" fill="#e26f46" fill-rule="evenodd" fill-opacity="1" stroke="#000000" stroke-opacity="1" stroke-width="3.2"/>
<circle clip-path="url(#clip682)" cx="1883.58" cy="660.285" r="14.4" fill="#e26f46" fill-rule="evenodd" fill-opacity="1" stroke="#000000" stroke-opacity="1" stroke-width="3.2"/>
<circle clip-path="url(#clip682)" cx="1874.2" cy="666.153" r="14.4" fill="#e26f46" fill-rule="evenodd" fill-opacity="1" stroke="#000000" stroke-opacity="1" stroke-width="3.2"/>
<circle clip-path="url(#clip682)" cx="1837.03" cy="666.153" r="14.4" fill="#e26f46" fill-rule="evenodd" fill-opacity="1" stroke="#000000" stroke-opacity="1" stroke-width="3.2"/>
<circle clip-path="url(#clip682)" cx="1865.52" cy="666.153" r="14.4" fill="#e26f46" fill-rule="evenodd" fill-opacity="1" stroke="#000000" stroke-opacity="1" stroke-width="3.2"/>
<circle clip-path="url(#clip682)" cx="1903.29" cy="650.292" r="14.4" fill="#e26f46" fill-rule="evenodd" fill-opacity="1" stroke="#000000" stroke-opacity="1" stroke-width="3.2"/>
<circle clip-path="url(#clip682)" cx="1859.07" cy="666.153" r="14.4" fill="#e26f46" fill-rule="evenodd" fill-opacity="1" stroke="#000000" stroke-opacity="1" stroke-width="3.2"/>
<circle clip-path="url(#clip682)" cx="1848.55" cy="666.153" r="14.4" fill="#e26f46" fill-rule="evenodd" fill-opacity="1" stroke="#000000" stroke-opacity="1" stroke-width="3.2"/>
<circle clip-path="url(#clip682)" cx="1888.09" cy="666.153" r="14.4" fill="#e26f46" fill-rule="evenodd" fill-opacity="1" stroke="#000000" stroke-opacity="1" stroke-width="3.2"/>
<circle clip-path="url(#clip682)" cx="1824.41" cy="650.292" r="14.4" fill="#e26f46" fill-rule="evenodd" fill-opacity="1" stroke="#000000" stroke-opacity="1" stroke-width="3.2"/>
<circle clip-path="url(#clip682)" cx="1941.84" cy="660.285" r="14.4" fill="#e26f46" fill-rule="evenodd" fill-opacity="1" stroke="#000000" stroke-opacity="1" stroke-width="3.2"/>
<circle clip-path="url(#clip682)" cx="1831.65" cy="676.259" r="14.4" fill="#e26f46" fill-rule="evenodd" fill-opacity="1" stroke="#000000" stroke-opacity="1" stroke-width="3.2"/>
<circle clip-path="url(#clip682)" cx="1912.61" cy="652.917" r="14.4" fill="#e26f46" fill-rule="evenodd" fill-opacity="1" stroke="#000000" stroke-opacity="1" stroke-width="3.2"/>
<circle clip-path="url(#clip682)" cx="1944.2" cy="655.689" r="14.4" fill="#e26f46" fill-rule="evenodd" fill-opacity="1" stroke="#000000" stroke-opacity="1" stroke-width="3.2"/>
<circle clip-path="url(#clip682)" cx="1855.31" cy="655.689" r="14.4" fill="#e26f46" fill-rule="evenodd" fill-opacity="1" stroke="#000000" stroke-opacity="1" stroke-width="3.2"/>
<circle clip-path="url(#clip682)" cx="1915.37" cy="674.533" r="14.4" fill="#e26f46" fill-rule="evenodd" fill-opacity="1" stroke="#000000" stroke-opacity="1" stroke-width="3.2"/>
<circle clip-path="url(#clip682)" cx="1911.17" cy="674.533" r="14.4" fill="#e26f46" fill-rule="evenodd" fill-opacity="1" stroke="#000000" stroke-opacity="1" stroke-width="3.2"/>
<circle clip-path="url(#clip682)" cx="1896.79" cy="674.533" r="14.4" fill="#e26f46" fill-rule="evenodd" fill-opacity="1" stroke="#000000" stroke-opacity="1" stroke-width="3.2"/>
<circle clip-path="url(#clip682)" cx="1868.84" cy="647.819" r="14.4" fill="#e26f46" fill-rule="evenodd" fill-opacity="1" stroke="#000000" stroke-opacity="1" stroke-width="3.2"/>
<circle clip-path="url(#clip682)" cx="1883.91" cy="662.215" r="14.4" fill="#e26f46" fill-rule="evenodd" fill-opacity="1" stroke="#000000" stroke-opacity="1" stroke-width="3.2"/>
<circle clip-path="url(#clip682)" cx="1911.91" cy="662.215" r="14.4" fill="#e26f46" fill-rule="evenodd" fill-opacity="1" stroke="#000000" stroke-opacity="1" stroke-width="3.2"/>
<circle clip-path="url(#clip682)" cx="1875.45" cy="662.215" r="14.4" fill="#e26f46" fill-rule="evenodd" fill-opacity="1" stroke="#000000" stroke-opacity="1" stroke-width="3.2"/>
<circle clip-path="url(#clip682)" cx="1804" cy="654.04" r="14.4" fill="#e26f46" fill-rule="evenodd" fill-opacity="1" stroke="#000000" stroke-opacity="1" stroke-width="3.2"/>
<circle clip-path="url(#clip682)" cx="1859.57" cy="657.552" r="14.4" fill="#e26f46" fill-rule="evenodd" fill-opacity="1" stroke="#000000" stroke-opacity="1" stroke-width="3.2"/>
<circle clip-path="url(#clip682)" cx="1854.99" cy="657.552" r="14.4" fill="#e26f46" fill-rule="evenodd" fill-opacity="1" stroke="#000000" stroke-opacity="1" stroke-width="3.2"/>
<circle clip-path="url(#clip682)" cx="1850.36" cy="665.274" r="14.4" fill="#e26f46" fill-rule="evenodd" fill-opacity="1" stroke="#000000" stroke-opacity="1" stroke-width="3.2"/>
<circle clip-path="url(#clip682)" cx="1827.08" cy="665.274" r="14.4" fill="#e26f46" fill-rule="evenodd" fill-opacity="1" stroke="#000000" stroke-opacity="1" stroke-width="3.2"/>
<circle clip-path="url(#clip682)" cx="1863.7" cy="649.995" r="14.4" fill="#e26f46" fill-rule="evenodd" fill-opacity="1" stroke="#000000" stroke-opacity="1" stroke-width="3.2"/>
<circle clip-path="url(#clip682)" cx="1910.48" cy="659.695" r="14.4" fill="#e26f46" fill-rule="evenodd" fill-opacity="1" stroke="#000000" stroke-opacity="1" stroke-width="3.2"/>
<circle clip-path="url(#clip682)" cx="1911.91" cy="674.533" r="14.4" fill="#e26f46" fill-rule="evenodd" fill-opacity="1" stroke="#000000" stroke-opacity="1" stroke-width="3.2"/>
<circle clip-path="url(#clip682)" cx="1844.99" cy="674.533" r="14.4" fill="#e26f46" fill-rule="evenodd" fill-opacity="1" stroke="#000000" stroke-opacity="1" stroke-width="3.2"/>
<circle clip-path="url(#clip682)" cx="1853.3" cy="652.561" r="14.4" fill="#e26f46" fill-rule="evenodd" fill-opacity="1" stroke="#000000" stroke-opacity="1" stroke-width="3.2"/>
<circle clip-path="url(#clip682)" cx="1882.26" cy="674.533" r="14.4" fill="#e26f46" fill-rule="evenodd" fill-opacity="1" stroke="#000000" stroke-opacity="1" stroke-width="3.2"/>
<circle clip-path="url(#clip682)" cx="1906.71" cy="674.533" r="14.4" fill="#e26f46" fill-rule="evenodd" fill-opacity="1" stroke="#000000" stroke-opacity="1" stroke-width="3.2"/>
<circle clip-path="url(#clip682)" cx="1909.14" cy="652.561" r="14.4" fill="#e26f46" fill-rule="evenodd" fill-opacity="1" stroke="#000000" stroke-opacity="1" stroke-width="3.2"/>
<circle clip-path="url(#clip682)" cx="1903.85" cy="659.695" r="14.4" fill="#e26f46" fill-rule="evenodd" fill-opacity="1" stroke="#000000" stroke-opacity="1" stroke-width="3.2"/>
<circle clip-path="url(#clip682)" cx="1886.74" cy="665.274" r="14.4" fill="#e26f46" fill-rule="evenodd" fill-opacity="1" stroke="#000000" stroke-opacity="1" stroke-width="3.2"/>
<circle clip-path="url(#clip682)" cx="1826.71" cy="665.274" r="14.4" fill="#e26f46" fill-rule="evenodd" fill-opacity="1" stroke="#000000" stroke-opacity="1" stroke-width="3.2"/>
<circle clip-path="url(#clip682)" cx="1833.44" cy="649.995" r="14.4" fill="#e26f46" fill-rule="evenodd" fill-opacity="1" stroke="#000000" stroke-opacity="1" stroke-width="3.2"/>
<circle clip-path="url(#clip682)" cx="1914.2" cy="667.582" r="14.4" fill="#e26f46" fill-rule="evenodd" fill-opacity="1" stroke="#000000" stroke-opacity="1" stroke-width="3.2"/>
<circle clip-path="url(#clip682)" cx="1902.67" cy="667.582" r="14.4" fill="#e26f46" fill-rule="evenodd" fill-opacity="1" stroke="#000000" stroke-opacity="1" stroke-width="3.2"/>
<circle clip-path="url(#clip682)" cx="1888.48" cy="650.749" r="14.4" fill="#e26f46" fill-rule="evenodd" fill-opacity="1" stroke="#000000" stroke-opacity="1" stroke-width="3.2"/>
<circle clip-path="url(#clip682)" cx="1808.56" cy="656.825" r="14.4" fill="#e26f46" fill-rule="evenodd" fill-opacity="1" stroke="#000000" stroke-opacity="1" stroke-width="3.2"/>
<circle clip-path="url(#clip682)" cx="1822.01" cy="667.582" r="14.4" fill="#e26f46" fill-rule="evenodd" fill-opacity="1" stroke="#000000" stroke-opacity="1" stroke-width="3.2"/>
<circle clip-path="url(#clip682)" cx="1858.11" cy="667.582" r="14.4" fill="#e26f46" fill-rule="evenodd" fill-opacity="1" stroke="#000000" stroke-opacity="1" stroke-width="3.2"/>
<circle clip-path="url(#clip682)" cx="1848.7" cy="667.582" r="14.4" fill="#e26f46" fill-rule="evenodd" fill-opacity="1" stroke="#000000" stroke-opacity="1" stroke-width="3.2"/>
<circle clip-path="url(#clip682)" cx="1879.1" cy="650.749" r="14.4" fill="#e26f46" fill-rule="evenodd" fill-opacity="1" stroke="#000000" stroke-opacity="1" stroke-width="3.2"/>
<circle clip-path="url(#clip682)" cx="1825.69" cy="672.28" r="14.4" fill="#e26f46" fill-rule="evenodd" fill-opacity="1" stroke="#000000" stroke-opacity="1" stroke-width="3.2"/>
<circle clip-path="url(#clip682)" cx="1906.24" cy="672.28" r="14.4" fill="#e26f46" fill-rule="evenodd" fill-opacity="1" stroke="#000000" stroke-opacity="1" stroke-width="3.2"/>
<circle clip-path="url(#clip682)" cx="1862.29" cy="672.28" r="14.4" fill="#e26f46" fill-rule="evenodd" fill-opacity="1" stroke="#000000" stroke-opacity="1" stroke-width="3.2"/>
<circle clip-path="url(#clip682)" cx="1892.96" cy="652.044" r="14.4" fill="#e26f46" fill-rule="evenodd" fill-opacity="1" stroke="#000000" stroke-opacity="1" stroke-width="3.2"/>
<circle clip-path="url(#clip682)" cx="1846.04" cy="658.853" r="14.4" fill="#e26f46" fill-rule="evenodd" fill-opacity="1" stroke="#000000" stroke-opacity="1" stroke-width="3.2"/>
<circle clip-path="url(#clip682)" cx="1887.18" cy="672.28" r="14.4" fill="#e26f46" fill-rule="evenodd" fill-opacity="1" stroke="#000000" stroke-opacity="1" stroke-width="3.2"/>
<circle clip-path="url(#clip682)" cx="1913.32" cy="672.28" r="14.4" fill="#e26f46" fill-rule="evenodd" fill-opacity="1" stroke="#000000" stroke-opacity="1" stroke-width="3.2"/>
<circle clip-path="url(#clip682)" cx="1914.11" cy="652.044" r="14.4" fill="#e26f46" fill-rule="evenodd" fill-opacity="1" stroke="#000000" stroke-opacity="1" stroke-width="3.2"/>
<circle clip-path="url(#clip682)" cx="1945.42" cy="657.803" r="14.4" fill="#e26f46" fill-rule="evenodd" fill-opacity="1" stroke="#000000" stroke-opacity="1" stroke-width="3.2"/>
<circle clip-path="url(#clip682)" cx="1942.15" cy="657.803" r="14.4" fill="#e26f46" fill-rule="evenodd" fill-opacity="1" stroke="#000000" stroke-opacity="1" stroke-width="3.2"/>
<circle clip-path="url(#clip682)" cx="1871.78" cy="657.803" r="14.4" fill="#e26f46" fill-rule="evenodd" fill-opacity="1" stroke="#000000" stroke-opacity="1" stroke-width="3.2"/>
<circle clip-path="url(#clip682)" cx="1869.71" cy="651.381" r="14.4" fill="#e26f46" fill-rule="evenodd" fill-opacity="1" stroke="#000000" stroke-opacity="1" stroke-width="3.2"/>
<circle clip-path="url(#clip682)" cx="1876.4" cy="657.803" r="14.4" fill="#e26f46" fill-rule="evenodd" fill-opacity="1" stroke="#000000" stroke-opacity="1" stroke-width="3.2"/>
<circle clip-path="url(#clip682)" cx="1798.93" cy="657.803" r="14.4" fill="#e26f46" fill-rule="evenodd" fill-opacity="1" stroke="#000000" stroke-opacity="1" stroke-width="3.2"/>
<circle clip-path="url(#clip682)" cx="1836.29" cy="657.803" r="14.4" fill="#e26f46" fill-rule="evenodd" fill-opacity="1" stroke="#000000" stroke-opacity="1" stroke-width="3.2"/>
<circle clip-path="url(#clip682)" cx="1924.21" cy="657.803" r="14.4" fill="#e26f46" fill-rule="evenodd" fill-opacity="1" stroke="#000000" stroke-opacity="1" stroke-width="3.2"/>
<circle clip-path="url(#clip682)" cx="1909.84" cy="669.739" r="14.4" fill="#e26f46" fill-rule="evenodd" fill-opacity="1" stroke="#000000" stroke-opacity="1" stroke-width="3.2"/>
<circle clip-path="url(#clip682)" cx="1831.79" cy="669.739" r="14.4" fill="#e26f46" fill-rule="evenodd" fill-opacity="1" stroke="#000000" stroke-opacity="1" stroke-width="3.2"/>
<circle clip-path="url(#clip682)" cx="1897.59" cy="646.962" r="14.4" fill="#e26f46" fill-rule="evenodd" fill-opacity="1" stroke="#000000" stroke-opacity="1" stroke-width="3.2"/>
<circle clip-path="url(#clip682)" cx="1859.27" cy="661.217" r="14.4" fill="#e26f46" fill-rule="evenodd" fill-opacity="1" stroke="#000000" stroke-opacity="1" stroke-width="3.2"/>
<circle clip-path="url(#clip682)" cx="1858.84" cy="661.217" r="14.4" fill="#e26f46" fill-rule="evenodd" fill-opacity="1" stroke="#000000" stroke-opacity="1" stroke-width="3.2"/>
<circle clip-path="url(#clip682)" cx="1841.55" cy="661.217" r="14.4" fill="#e26f46" fill-rule="evenodd" fill-opacity="1" stroke="#000000" stroke-opacity="1" stroke-width="3.2"/>
<circle clip-path="url(#clip682)" cx="1896.85" cy="648.464" r="14.4" fill="#e26f46" fill-rule="evenodd" fill-opacity="1" stroke="#000000" stroke-opacity="1" stroke-width="3.2"/>
<circle clip-path="url(#clip682)" cx="1904.21" cy="661.217" r="14.4" fill="#e26f46" fill-rule="evenodd" fill-opacity="1" stroke="#000000" stroke-opacity="1" stroke-width="3.2"/>
<circle clip-path="url(#clip682)" cx="1855.81" cy="679.314" r="14.4" fill="#e26f46" fill-rule="evenodd" fill-opacity="1" stroke="#000000" stroke-opacity="1" stroke-width="3.2"/>
<circle clip-path="url(#clip682)" cx="1873.21" cy="679.314" r="14.4" fill="#e26f46" fill-rule="evenodd" fill-opacity="1" stroke="#000000" stroke-opacity="1" stroke-width="3.2"/>
<circle clip-path="url(#clip682)" cx="1893.84" cy="653.467" r="14.4" fill="#e26f46" fill-rule="evenodd" fill-opacity="1" stroke="#000000" stroke-opacity="1" stroke-width="3.2"/>
<circle clip-path="url(#clip682)" cx="1849.62" cy="655.048" r="14.4" fill="#e26f46" fill-rule="evenodd" fill-opacity="1" stroke="#000000" stroke-opacity="1" stroke-width="3.2"/>
<circle clip-path="url(#clip682)" cx="1883.44" cy="676.725" r="14.4" fill="#e26f46" fill-rule="evenodd" fill-opacity="1" stroke="#000000" stroke-opacity="1" stroke-width="3.2"/>
<circle clip-path="url(#clip682)" cx="1869.43" cy="686.538" r="14.4" fill="#e26f46" fill-rule="evenodd" fill-opacity="1" stroke="#000000" stroke-opacity="1" stroke-width="3.2"/>
<circle clip-path="url(#clip682)" cx="1841.97" cy="676.259" r="14.4" fill="#e26f46" fill-rule="evenodd" fill-opacity="1" stroke="#000000" stroke-opacity="1" stroke-width="3.2"/>
<circle clip-path="url(#clip682)" cx="1871.48" cy="676.259" r="14.4" fill="#e26f46" fill-rule="evenodd" fill-opacity="1" stroke="#000000" stroke-opacity="1" stroke-width="3.2"/>
<circle clip-path="url(#clip682)" cx="1871.41" cy="447.497" r="14.4" fill="#e26f46" fill-rule="evenodd" fill-opacity="1" stroke="#000000" stroke-opacity="1" stroke-width="3.2"/>
<circle clip-path="url(#clip682)" cx="1877.55" cy="448.784" r="14.4" fill="#e26f46" fill-rule="evenodd" fill-opacity="1" stroke="#000000" stroke-opacity="1" stroke-width="3.2"/>
<circle clip-path="url(#clip682)" cx="1866.02" cy="447.258" r="14.4" fill="#e26f46" fill-rule="evenodd" fill-opacity="1" stroke="#000000" stroke-opacity="1" stroke-width="3.2"/>
<circle clip-path="url(#clip682)" cx="1877.4" cy="450.153" r="14.4" fill="#e26f46" fill-rule="evenodd" fill-opacity="1" stroke="#000000" stroke-opacity="1" stroke-width="3.2"/>
<circle clip-path="url(#clip682)" cx="1090.46" cy="1384.24" r="14.4" fill="#3da44d" fill-rule="evenodd" fill-opacity="1" stroke="#000000" stroke-opacity="1" stroke-width="3.2"/>
<circle clip-path="url(#clip682)" cx="1168.93" cy="1364.27" r="14.4" fill="#3da44d" fill-rule="evenodd" fill-opacity="1" stroke="#000000" stroke-opacity="1" stroke-width="3.2"/>
<circle clip-path="url(#clip682)" cx="2293.02" cy="86.1857" r="14.4" fill="#3da44d" fill-rule="evenodd" fill-opacity="1" stroke="#000000" stroke-opacity="1" stroke-width="3.2"/>
<circle clip-path="url(#clip682)" cx="2232.6" cy="106.151" r="14.4" fill="#3da44d" fill-rule="evenodd" fill-opacity="1" stroke="#000000" stroke-opacity="1" stroke-width="3.2"/>
<polyline clip-path="url(#clip682)" style="stroke:#808080; stroke-linecap:round; stroke-linejoin:round; stroke-width:4; stroke-opacity:1; fill:none" stroke-dasharray="16, 10" points="1305.62,2799.12 1305.62,-1328.69 "/>
<path clip-path="url(#clip680)" d="M312.489 300.469 L669.8 300.469 L669.8 93.1086 L312.489 93.1086  Z" fill="#ffffff" fill-rule="evenodd" fill-opacity="1"/>
<polyline clip-path="url(#clip680)" style="stroke:#000000; stroke-linecap:round; stroke-linejoin:round; stroke-width:4; stroke-opacity:1; fill:none" points="312.489,300.469 669.8,300.469 669.8,93.1086 312.489,93.1086 312.489,300.469 "/>
<circle clip-path="url(#clip680)" cx="406.294" cy="144.949" r="20.48" fill="#009af9" fill-rule="evenodd" fill-opacity="1" stroke="#000000" stroke-opacity="1" stroke-width="4.55111"/>
<path clip-path="url(#clip680)" d="M522.345 128.803 L522.345 133.363 Q519.683 132.09 517.322 131.465 Q514.961 130.84 512.761 130.84 Q508.942 130.84 506.859 132.321 Q504.799 133.803 504.799 136.534 Q504.799 138.826 506.164 140.007 Q507.553 141.164 511.396 141.882 L514.22 142.46 Q519.451 143.456 521.928 145.979 Q524.428 148.479 524.428 152.692 Q524.428 157.715 521.048 160.307 Q517.692 162.9 511.187 162.9 Q508.734 162.9 505.956 162.344 Q503.201 161.789 500.238 160.701 L500.238 155.886 Q503.086 157.483 505.817 158.293 Q508.549 159.104 511.187 159.104 Q515.192 159.104 517.368 157.53 Q519.544 155.956 519.544 153.039 Q519.544 150.493 517.97 149.057 Q516.419 147.622 512.854 146.905 L510.007 146.349 Q504.775 145.307 502.437 143.085 Q500.099 140.863 500.099 136.905 Q500.099 132.321 503.317 129.682 Q506.558 127.044 512.229 127.044 Q514.66 127.044 517.183 127.483 Q519.706 127.923 522.345 128.803 Z" fill="#000000" fill-rule="nonzero" fill-opacity="1" /><path clip-path="url(#clip680)" d="M535.747 128.942 L535.747 136.303 L544.521 136.303 L544.521 139.613 L535.747 139.613 L535.747 153.687 Q535.747 156.858 536.604 157.761 Q537.484 158.664 540.146 158.664 L544.521 158.664 L544.521 162.229 L540.146 162.229 Q535.215 162.229 533.34 160.4 Q531.465 158.548 531.465 153.687 L531.465 139.613 L528.34 139.613 L528.34 136.303 L531.465 136.303 L531.465 128.942 L535.747 128.942 Z" fill="#000000" fill-rule="nonzero" fill-opacity="1" /><path clip-path="url(#clip680)" d="M572.298 148.201 L572.298 150.284 L552.715 150.284 Q552.993 154.682 555.354 156.997 Q557.738 159.289 561.974 159.289 Q564.428 159.289 566.719 158.687 Q569.034 158.085 571.303 156.881 L571.303 160.909 Q569.011 161.881 566.604 162.391 Q564.196 162.9 561.72 162.9 Q555.516 162.9 551.882 159.289 Q548.271 155.678 548.271 149.52 Q548.271 143.155 551.696 139.428 Q555.145 135.678 560.979 135.678 Q566.21 135.678 569.243 139.057 Q572.298 142.414 572.298 148.201 M568.039 146.951 Q567.993 143.456 566.071 141.372 Q564.173 139.289 561.025 139.289 Q557.46 139.289 555.308 141.303 Q553.178 143.317 552.854 146.974 L568.039 146.951 Z" fill="#000000" fill-rule="nonzero" fill-opacity="1" /><path clip-path="url(#clip680)" d="M583.409 158.34 L583.409 172.09 L579.127 172.09 L579.127 136.303 L583.409 136.303 L583.409 140.238 Q584.752 137.923 586.789 136.812 Q588.849 135.678 591.696 135.678 Q596.418 135.678 599.358 139.428 Q602.321 143.178 602.321 149.289 Q602.321 155.4 599.358 159.15 Q596.418 162.9 591.696 162.9 Q588.849 162.9 586.789 161.789 Q584.752 160.655 583.409 158.34 M597.9 149.289 Q597.9 144.59 595.955 141.928 Q594.034 139.243 590.655 139.243 Q587.275 139.243 585.331 141.928 Q583.409 144.59 583.409 149.289 Q583.409 153.988 585.331 156.673 Q587.275 159.335 590.655 159.335 Q594.034 159.335 595.955 156.673 Q597.9 153.988 597.9 149.289 Z" fill="#000000" fill-rule="nonzero" fill-opacity="1" /><path clip-path="url(#clip680)" d="M625.863 158.293 L633.502 158.293 L633.502 131.928 L625.191 133.595 L625.191 129.335 L633.455 127.669 L638.131 127.669 L638.131 158.293 L645.77 158.293 L645.77 162.229 L625.863 162.229 L625.863 158.293 Z" fill="#000000" fill-rule="nonzero" fill-opacity="1" /><circle clip-path="url(#clip680)" cx="406.294" cy="196.789" r="20.48" fill="#e26f46" fill-rule="evenodd" fill-opacity="1" stroke="#000000" stroke-opacity="1" stroke-width="4.55111"/>
<path clip-path="url(#clip680)" d="M522.345 180.643 L522.345 185.203 Q519.683 183.93 517.322 183.305 Q514.961 182.68 512.761 182.68 Q508.942 182.68 506.859 184.161 Q504.799 185.643 504.799 188.374 Q504.799 190.666 506.164 191.847 Q507.553 193.004 511.396 193.722 L514.22 194.3 Q519.451 195.296 521.928 197.819 Q524.428 200.319 524.428 204.532 Q524.428 209.555 521.048 212.147 Q517.692 214.74 511.187 214.74 Q508.734 214.74 505.956 214.184 Q503.201 213.629 500.238 212.541 L500.238 207.726 Q503.086 209.323 505.817 210.133 Q508.549 210.944 511.187 210.944 Q515.192 210.944 517.368 209.37 Q519.544 207.796 519.544 204.879 Q519.544 202.333 517.97 200.897 Q516.419 199.462 512.854 198.745 L510.007 198.189 Q504.775 197.147 502.437 194.925 Q500.099 192.703 500.099 188.745 Q500.099 184.161 503.317 181.522 Q506.558 178.884 512.229 178.884 Q514.66 178.884 517.183 179.323 Q519.706 179.763 522.345 180.643 Z" fill="#000000" fill-rule="nonzero" fill-opacity="1" /><path clip-path="url(#clip680)" d="M535.747 180.782 L535.747 188.143 L544.521 188.143 L544.521 191.453 L535.747 191.453 L535.747 205.527 Q535.747 208.698 536.604 209.601 Q537.484 210.504 540.146 210.504 L544.521 210.504 L544.521 214.069 L540.146 214.069 Q535.215 214.069 533.34 212.24 Q531.465 210.388 531.465 205.527 L531.465 191.453 L528.34 191.453 L528.34 188.143 L531.465 188.143 L531.465 180.782 L535.747 180.782 Z" fill="#000000" fill-rule="nonzero" fill-opacity="1" /><path clip-path="url(#clip680)" d="M572.298 200.041 L572.298 202.124 L552.715 202.124 Q552.993 206.522 555.354 208.837 Q557.738 211.129 561.974 211.129 Q564.428 211.129 566.719 210.527 Q569.034 209.925 571.303 208.721 L571.303 212.749 Q569.011 213.721 566.604 214.231 Q564.196 214.74 561.72 214.74 Q555.516 214.74 551.882 211.129 Q548.271 207.518 548.271 201.36 Q548.271 194.995 551.696 191.268 Q555.145 187.518 560.979 187.518 Q566.21 187.518 569.243 190.897 Q572.298 194.254 572.298 200.041 M568.039 198.791 Q567.993 195.296 566.071 193.212 Q564.173 191.129 561.025 191.129 Q557.46 191.129 555.308 193.143 Q553.178 195.157 552.854 198.814 L568.039 198.791 Z" fill="#000000" fill-rule="nonzero" fill-opacity="1" /><path clip-path="url(#clip680)" d="M583.409 210.18 L583.409 223.93 L579.127 223.93 L579.127 188.143 L583.409 188.143 L583.409 192.078 Q584.752 189.763 586.789 188.652 Q588.849 187.518 591.696 187.518 Q596.418 187.518 599.358 191.268 Q602.321 195.018 602.321 201.129 Q602.321 207.24 599.358 210.99 Q596.418 214.74 591.696 214.74 Q588.849 214.74 586.789 213.629 Q584.752 212.495 583.409 210.18 M597.9 201.129 Q597.9 196.43 595.955 193.768 Q594.034 191.083 590.655 191.083 Q587.275 191.083 585.331 193.768 Q583.409 196.43 583.409 201.129 Q583.409 205.828 585.331 208.513 Q587.275 211.175 590.655 211.175 Q594.034 211.175 595.955 208.513 Q597.9 205.828 597.9 201.129 Z" fill="#000000" fill-rule="nonzero" fill-opacity="1" /><path clip-path="url(#clip680)" d="M629.08 210.133 L645.4 210.133 L645.4 214.069 L623.455 214.069 L623.455 210.133 Q626.117 207.379 630.701 202.749 Q635.307 198.096 636.488 196.754 Q638.733 194.231 639.613 192.495 Q640.515 190.735 640.515 189.046 Q640.515 186.291 638.571 184.555 Q636.65 182.819 633.548 182.819 Q631.349 182.819 628.895 183.583 Q626.465 184.347 623.687 185.897 L623.687 181.175 Q626.511 180.041 628.965 179.462 Q631.418 178.884 633.455 178.884 Q638.826 178.884 642.02 181.569 Q645.214 184.254 645.214 188.745 Q645.214 190.874 644.404 192.796 Q643.617 194.694 641.511 197.286 Q640.932 197.958 637.83 201.175 Q634.728 204.37 629.08 210.133 Z" fill="#000000" fill-rule="nonzero" fill-opacity="1" /><circle clip-path="url(#clip680)" cx="406.294" cy="248.629" r="20.48" fill="#3da44d" fill-rule="evenodd" fill-opacity="1" stroke="#000000" stroke-opacity="1" stroke-width="4.55111"/>
<path clip-path="url(#clip680)" d="M522.345 232.483 L522.345 237.043 Q519.683 235.77 517.322 235.145 Q514.961 234.52 512.761 234.52 Q508.942 234.52 506.859 236.001 Q504.799 237.483 504.799 240.214 Q504.799 242.506 506.164 243.687 Q507.553 244.844 511.396 245.562 L514.22 246.14 Q519.451 247.136 521.928 249.659 Q524.428 252.159 524.428 256.372 Q524.428 261.395 521.048 263.987 Q517.692 266.58 511.187 266.58 Q508.734 266.58 505.956 266.024 Q503.201 265.469 500.238 264.381 L500.238 259.566 Q503.086 261.163 505.817 261.973 Q508.549 262.784 511.187 262.784 Q515.192 262.784 517.368 261.21 Q519.544 259.636 519.544 256.719 Q519.544 254.173 517.97 252.737 Q516.419 251.302 512.854 250.585 L510.007 250.029 Q504.775 248.987 502.437 246.765 Q500.099 244.543 500.099 240.585 Q500.099 236.001 503.317 233.362 Q506.558 230.724 512.229 230.724 Q514.66 230.724 517.183 231.163 Q519.706 231.603 522.345 232.483 Z" fill="#000000" fill-rule="nonzero" fill-opacity="1" /><path clip-path="url(#clip680)" d="M535.747 232.622 L535.747 239.983 L544.521 239.983 L544.521 243.293 L535.747 243.293 L535.747 257.367 Q535.747 260.538 536.604 261.441 Q537.484 262.344 540.146 262.344 L544.521 262.344 L544.521 265.909 L540.146 265.909 Q535.215 265.909 533.34 264.08 Q531.465 262.228 531.465 257.367 L531.465 243.293 L528.34 243.293 L528.34 239.983 L531.465 239.983 L531.465 232.622 L535.747 232.622 Z" fill="#000000" fill-rule="nonzero" fill-opacity="1" /><path clip-path="url(#clip680)" d="M572.298 251.881 L572.298 253.964 L552.715 253.964 Q552.993 258.362 555.354 260.677 Q557.738 262.969 561.974 262.969 Q564.428 262.969 566.719 262.367 Q569.034 261.765 571.303 260.561 L571.303 264.589 Q569.011 265.561 566.604 266.071 Q564.196 266.58 561.72 266.58 Q555.516 266.58 551.882 262.969 Q548.271 259.358 548.271 253.2 Q548.271 246.835 551.696 243.108 Q555.145 239.358 560.979 239.358 Q566.21 239.358 569.243 242.737 Q572.298 246.094 572.298 251.881 M568.039 250.631 Q567.993 247.136 566.071 245.052 Q564.173 242.969 561.025 242.969 Q557.46 242.969 555.308 244.983 Q553.178 246.997 552.854 250.654 L568.039 250.631 Z" fill="#000000" fill-rule="nonzero" fill-opacity="1" /><path clip-path="url(#clip680)" d="M583.409 262.02 L583.409 275.77 L579.127 275.77 L579.127 239.983 L583.409 239.983 L583.409 243.918 Q584.752 241.603 586.789 240.492 Q588.849 239.358 591.696 239.358 Q596.418 239.358 599.358 243.108 Q602.321 246.858 602.321 252.969 Q602.321 259.08 599.358 262.83 Q596.418 266.58 591.696 266.58 Q588.849 266.58 586.789 265.469 Q584.752 264.335 583.409 262.02 M597.9 252.969 Q597.9 248.27 595.955 245.608 Q594.034 242.923 590.655 242.923 Q587.275 242.923 585.331 245.608 Q583.409 248.27 583.409 252.969 Q583.409 257.668 585.331 260.353 Q587.275 263.015 590.655 263.015 Q594.034 263.015 595.955 260.353 Q597.9 257.668 597.9 252.969 Z" fill="#000000" fill-rule="nonzero" fill-opacity="1" /><path clip-path="url(#clip680)" d="M639.219 247.274 Q642.576 247.992 644.451 250.261 Q646.349 252.529 646.349 255.862 Q646.349 260.978 642.83 263.779 Q639.312 266.58 632.83 266.58 Q630.654 266.58 628.34 266.14 Q626.048 265.723 623.594 264.867 L623.594 260.353 Q625.539 261.487 627.853 262.066 Q630.168 262.645 632.691 262.645 Q637.089 262.645 639.381 260.909 Q641.696 259.173 641.696 255.862 Q641.696 252.807 639.543 251.094 Q637.414 249.358 633.594 249.358 L629.566 249.358 L629.566 245.515 L633.779 245.515 Q637.228 245.515 639.057 244.149 Q640.886 242.761 640.886 240.168 Q640.886 237.506 638.988 236.094 Q637.113 234.659 633.594 234.659 Q631.673 234.659 629.474 235.075 Q627.275 235.492 624.636 236.372 L624.636 232.205 Q627.298 231.464 629.613 231.094 Q631.951 230.724 634.011 230.724 Q639.335 230.724 642.437 233.154 Q645.539 235.562 645.539 239.682 Q645.539 242.552 643.895 244.543 Q642.251 246.511 639.219 247.274 Z" fill="#000000" fill-rule="nonzero" fill-opacity="1" /></svg>
