<?xml version="1.0" encoding="utf-8"?>
<svg xmlns="http://www.w3.org/2000/svg" xmlns:xlink="http://www.w3.org/1999/xlink" width="600" height="400" viewBox="0 0 2400 1600">
<defs>
  <clipPath id="clip320">
    <rect x="0" y="0" width="2400" height="1600"/>
  </clipPath>
</defs>
<path clip-path="url(#clip320)" d="M0 1600 L2400 1600 L2400 0 L0 0  Z" fill="#ffffff" fill-rule="evenodd" fill-opacity="1"/>
<defs>
  <clipPath id="clip321">
    <rect x="480" y="0" width="1681" height="1600"/>
  </clipPath>
</defs>
<path clip-path="url(#clip320)" d="M175.445 1423.18 L2352.76 1423.18 L2352.76 123.472 L175.445 123.472  Z" fill="#ffffff" fill-rule="evenodd" fill-opacity="1"/>
<defs>
  <clipPath id="clip322">
    <rect x="175" y="123" width="2178" height="1301"/>
  </clipPath>
</defs>
<polyline clip-path="url(#clip322)" style="stroke:#000000; stroke-linecap:round; stroke-linejoin:round; stroke-width:2; stroke-opacity:0.1; fill:none" points="221.02,1423.18 221.02,123.472 "/>
<polyline clip-path="url(#clip322)" style="stroke:#000000; stroke-linecap:round; stroke-linejoin:round; stroke-width:2; stroke-opacity:0.1; fill:none" points="541.968,1423.18 541.968,123.472 "/>
<polyline clip-path="url(#clip322)" style="stroke:#000000; stroke-linecap:round; stroke-linejoin:round; stroke-width:2; stroke-opacity:0.1; fill:none" points="862.916,1423.18 862.916,123.472 "/>
<polyline clip-path="url(#clip322)" style="stroke:#000000; stroke-linecap:round; stroke-linejoin:round; stroke-width:2; stroke-opacity:0.1; fill:none" points="1183.86,1423.18 1183.86,123.472 "/>
<polyline clip-path="url(#clip322)" style="stroke:#000000; stroke-linecap:round; stroke-linejoin:round; stroke-width:2; stroke-opacity:0.1; fill:none" points="1504.81,1423.18 1504.81,123.472 "/>
<polyline clip-path="url(#clip322)" style="stroke:#000000; stroke-linecap:round; stroke-linejoin:round; stroke-width:2; stroke-opacity:0.1; fill:none" points="1825.76,1423.18 1825.76,123.472 "/>
<polyline clip-path="url(#clip322)" style="stroke:#000000; stroke-linecap:round; stroke-linejoin:round; stroke-width:2; stroke-opacity:0.1; fill:none" points="2146.71,1423.18 2146.71,123.472 "/>
<polyline clip-path="url(#clip322)" style="stroke:#000000; stroke-linecap:round; stroke-linejoin:round; stroke-width:2; stroke-opacity:0.1; fill:none" points="175.445,1374.49 2352.76,1374.49 "/>
<polyline clip-path="url(#clip322)" style="stroke:#000000; stroke-linecap:round; stroke-linejoin:round; stroke-width:2; stroke-opacity:0.1; fill:none" points="175.445,982.151 2352.76,982.151 "/>
<polyline clip-path="url(#clip322)" style="stroke:#000000; stroke-linecap:round; stroke-linejoin:round; stroke-width:2; stroke-opacity:0.1; fill:none" points="175.445,589.807 2352.76,589.807 "/>
<polyline clip-path="url(#clip322)" style="stroke:#000000; stroke-linecap:round; stroke-linejoin:round; stroke-width:2; stroke-opacity:0.1; fill:none" points="175.445,197.464 2352.76,197.464 "/>
<polyline clip-path="url(#clip320)" style="stroke:#000000; stroke-linecap:round; stroke-linejoin:round; stroke-width:4; stroke-opacity:1; fill:none" points="175.445,1423.18 2352.76,1423.18 "/>
<polyline clip-path="url(#clip320)" style="stroke:#000000; stroke-linecap:round; stroke-linejoin:round; stroke-width:4; stroke-opacity:1; fill:none" points="221.02,1423.18 221.02,1404.28 "/>
<polyline clip-path="url(#clip320)" style="stroke:#000000; stroke-linecap:round; stroke-linejoin:round; stroke-width:4; stroke-opacity:1; fill:none" points="541.968,1423.18 541.968,1404.28 "/>
<polyline clip-path="url(#clip320)" style="stroke:#000000; stroke-linecap:round; stroke-linejoin:round; stroke-width:4; stroke-opacity:1; fill:none" points="862.916,1423.18 862.916,1404.28 "/>
<polyline clip-path="url(#clip320)" style="stroke:#000000; stroke-linecap:round; stroke-linejoin:round; stroke-width:4; stroke-opacity:1; fill:none" points="1183.86,1423.18 1183.86,1404.28 "/>
<polyline clip-path="url(#clip320)" style="stroke:#000000; stroke-linecap:round; stroke-linejoin:round; stroke-width:4; stroke-opacity:1; fill:none" points="1504.81,1423.18 1504.81,1404.28 "/>
<polyline clip-path="url(#clip320)" style="stroke:#000000; stroke-linecap:round; stroke-linejoin:round; stroke-width:4; stroke-opacity:1; fill:none" points="1825.76,1423.18 1825.76,1404.28 "/>
<polyline clip-path="url(#clip320)" style="stroke:#000000; stroke-linecap:round; stroke-linejoin:round; stroke-width:4; stroke-opacity:1; fill:none" points="2146.71,1423.18 2146.71,1404.28 "/>
<path clip-path="url(#clip320)" d="M221.02 1454.1 Q217.409 1454.1 215.58 1457.66 Q213.774 1461.2 213.774 1468.33 Q213.774 1475.44 215.58 1479.01 Q217.409 1482.55 221.02 1482.55 Q224.654 1482.55 226.46 1479.01 Q228.288 1475.44 228.288 1468.33 Q228.288 1461.2 226.46 1457.66 Q224.654 1454.1 221.02 1454.1 M221.02 1450.39 Q226.83 1450.39 229.886 1455 Q232.964 1459.58 232.964 1468.33 Q232.964 1477.06 229.886 1481.67 Q226.83 1486.25 221.02 1486.25 Q215.21 1486.25 212.131 1481.67 Q209.075 1477.06 209.075 1468.33 Q209.075 1459.58 212.131 1455 Q215.21 1450.39 221.02 1450.39 Z" fill="#000000" fill-rule="nonzero" fill-opacity="1" /><path clip-path="url(#clip320)" d="M520.741 1481.64 L537.06 1481.64 L537.06 1485.58 L515.116 1485.58 L515.116 1481.64 Q517.778 1478.89 522.361 1474.26 Q526.968 1469.61 528.148 1468.27 Q530.394 1465.74 531.273 1464.01 Q532.176 1462.25 532.176 1460.56 Q532.176 1457.8 530.232 1456.07 Q528.31 1454.33 525.209 1454.33 Q523.01 1454.33 520.556 1455.09 Q518.125 1455.86 515.348 1457.41 L515.348 1452.69 Q518.172 1451.55 520.625 1450.97 Q523.079 1450.39 525.116 1450.39 Q530.486 1450.39 533.681 1453.08 Q536.875 1455.77 536.875 1460.26 Q536.875 1462.39 536.065 1464.31 Q535.278 1466.2 533.171 1468.8 Q532.593 1469.47 529.491 1472.69 Q526.389 1475.88 520.741 1481.64 Z" fill="#000000" fill-rule="nonzero" fill-opacity="1" /><path clip-path="url(#clip320)" d="M556.875 1454.1 Q553.264 1454.1 551.435 1457.66 Q549.63 1461.2 549.63 1468.33 Q549.63 1475.44 551.435 1479.01 Q553.264 1482.55 556.875 1482.55 Q560.509 1482.55 562.315 1479.01 Q564.144 1475.44 564.144 1468.33 Q564.144 1461.2 562.315 1457.66 Q560.509 1454.1 556.875 1454.1 M556.875 1450.39 Q562.685 1450.39 565.741 1455 Q568.819 1459.58 568.819 1468.33 Q568.819 1477.06 565.741 1481.67 Q562.685 1486.25 556.875 1486.25 Q551.065 1486.25 547.986 1481.67 Q544.931 1477.06 544.931 1468.33 Q544.931 1459.58 547.986 1455 Q551.065 1450.39 556.875 1450.39 Z" fill="#000000" fill-rule="nonzero" fill-opacity="1" /><path clip-path="url(#clip320)" d="M851.087 1455.09 L839.282 1473.54 L851.087 1473.54 L851.087 1455.09 M849.86 1451.02 L855.74 1451.02 L855.74 1473.54 L860.67 1473.54 L860.67 1477.43 L855.74 1477.43 L855.74 1485.58 L851.087 1485.58 L851.087 1477.43 L835.485 1477.43 L835.485 1472.92 L849.86 1451.02 Z" fill="#000000" fill-rule="nonzero" fill-opacity="1" /><path clip-path="url(#clip320)" d="M878.402 1454.1 Q874.791 1454.1 872.962 1457.66 Q871.156 1461.2 871.156 1468.33 Q871.156 1475.44 872.962 1479.01 Q874.791 1482.55 878.402 1482.55 Q882.036 1482.55 883.841 1479.01 Q885.67 1475.44 885.67 1468.33 Q885.67 1461.2 883.841 1457.66 Q882.036 1454.1 878.402 1454.1 M878.402 1450.39 Q884.212 1450.39 887.267 1455 Q890.346 1459.58 890.346 1468.33 Q890.346 1477.06 887.267 1481.67 Q884.212 1486.25 878.402 1486.25 Q872.592 1486.25 869.513 1481.67 Q866.457 1477.06 866.457 1468.33 Q866.457 1459.58 869.513 1455 Q872.592 1450.39 878.402 1450.39 Z" fill="#000000" fill-rule="nonzero" fill-opacity="1" /><path clip-path="url(#clip320)" d="M1169.27 1466.44 Q1166.12 1466.44 1164.27 1468.59 Q1162.44 1470.74 1162.44 1474.49 Q1162.44 1478.22 1164.27 1480.39 Q1166.12 1482.55 1169.27 1482.55 Q1172.42 1482.55 1174.25 1480.39 Q1176.1 1478.22 1176.1 1474.49 Q1176.1 1470.74 1174.25 1468.59 Q1172.42 1466.44 1169.27 1466.44 M1178.55 1451.78 L1178.55 1456.04 Q1176.79 1455.21 1174.99 1454.77 Q1173.2 1454.33 1171.44 1454.33 Q1166.82 1454.33 1164.36 1457.45 Q1161.93 1460.58 1161.58 1466.9 Q1162.95 1464.89 1165.01 1463.82 Q1167.07 1462.73 1169.55 1462.73 Q1174.75 1462.73 1177.76 1465.9 Q1180.8 1469.05 1180.8 1474.49 Q1180.8 1479.82 1177.65 1483.03 Q1174.5 1486.25 1169.27 1486.25 Q1163.27 1486.25 1160.1 1481.67 Q1156.93 1477.06 1156.93 1468.33 Q1156.93 1460.14 1160.82 1455.28 Q1164.71 1450.39 1171.26 1450.39 Q1173.02 1450.39 1174.8 1450.74 Q1176.61 1451.09 1178.55 1451.78 Z" fill="#000000" fill-rule="nonzero" fill-opacity="1" /><path clip-path="url(#clip320)" d="M1198.85 1454.1 Q1195.24 1454.1 1193.41 1457.66 Q1191.61 1461.2 1191.61 1468.33 Q1191.61 1475.44 1193.41 1479.01 Q1195.24 1482.55 1198.85 1482.55 Q1202.49 1482.55 1204.29 1479.01 Q1206.12 1475.44 1206.12 1468.33 Q1206.12 1461.2 1204.29 1457.66 Q1202.49 1454.1 1198.85 1454.1 M1198.85 1450.39 Q1204.66 1450.39 1207.72 1455 Q1210.8 1459.58 1210.8 1468.33 Q1210.8 1477.06 1207.72 1481.67 Q1204.66 1486.25 1198.85 1486.25 Q1193.04 1486.25 1189.96 1481.67 Q1186.91 1477.06 1186.91 1468.33 Q1186.91 1459.58 1189.96 1455 Q1193.04 1450.39 1198.85 1450.39 Z" fill="#000000" fill-rule="nonzero" fill-opacity="1" /><path clip-path="url(#clip320)" d="M1489.68 1469.17 Q1486.35 1469.17 1484.43 1470.95 Q1482.53 1472.73 1482.53 1475.86 Q1482.53 1478.98 1484.43 1480.77 Q1486.35 1482.55 1489.68 1482.55 Q1493.02 1482.55 1494.94 1480.77 Q1496.86 1478.96 1496.86 1475.86 Q1496.86 1472.73 1494.94 1470.95 Q1493.04 1469.17 1489.68 1469.17 M1485.01 1467.18 Q1482 1466.44 1480.31 1464.38 Q1478.64 1462.32 1478.64 1459.35 Q1478.64 1455.21 1481.58 1452.8 Q1484.55 1450.39 1489.68 1450.39 Q1494.85 1450.39 1497.79 1452.8 Q1500.73 1455.21 1500.73 1459.35 Q1500.73 1462.32 1499.04 1464.38 Q1497.37 1466.44 1494.38 1467.18 Q1497.76 1467.96 1499.64 1470.26 Q1501.54 1472.55 1501.54 1475.86 Q1501.54 1480.88 1498.46 1483.57 Q1495.4 1486.25 1489.68 1486.25 Q1483.97 1486.25 1480.89 1483.57 Q1477.83 1480.88 1477.83 1475.86 Q1477.83 1472.55 1479.73 1470.26 Q1481.63 1467.96 1485.01 1467.18 M1483.3 1459.79 Q1483.3 1462.48 1484.96 1463.98 Q1486.65 1465.49 1489.68 1465.49 Q1492.69 1465.49 1494.38 1463.98 Q1496.1 1462.48 1496.1 1459.79 Q1496.1 1457.11 1494.38 1455.6 Q1492.69 1454.1 1489.68 1454.1 Q1486.65 1454.1 1484.96 1455.6 Q1483.3 1457.11 1483.3 1459.79 Z" fill="#000000" fill-rule="nonzero" fill-opacity="1" /><path clip-path="url(#clip320)" d="M1519.85 1454.1 Q1516.24 1454.1 1514.41 1457.66 Q1512.6 1461.2 1512.6 1468.33 Q1512.6 1475.44 1514.41 1479.01 Q1516.24 1482.55 1519.85 1482.55 Q1523.48 1482.55 1525.29 1479.01 Q1527.11 1475.44 1527.11 1468.33 Q1527.11 1461.2 1525.29 1457.66 Q1523.48 1454.1 1519.85 1454.1 M1519.85 1450.39 Q1525.66 1450.39 1528.71 1455 Q1531.79 1459.58 1531.79 1468.33 Q1531.79 1477.06 1528.71 1481.67 Q1525.66 1486.25 1519.85 1486.25 Q1514.04 1486.25 1510.96 1481.67 Q1507.9 1477.06 1507.9 1468.33 Q1507.9 1459.58 1510.96 1455 Q1514.04 1450.39 1519.85 1450.39 Z" fill="#000000" fill-rule="nonzero" fill-opacity="1" /><path clip-path="url(#clip320)" d="M1785.37 1481.64 L1793 1481.64 L1793 1455.28 L1784.69 1456.95 L1784.69 1452.69 L1792.96 1451.02 L1797.63 1451.02 L1797.63 1481.64 L1805.27 1481.64 L1805.27 1485.58 L1785.37 1485.58 L1785.37 1481.64 Z" fill="#000000" fill-rule="nonzero" fill-opacity="1" /><path clip-path="url(#clip320)" d="M1824.72 1454.1 Q1821.11 1454.1 1819.28 1457.66 Q1817.47 1461.2 1817.47 1468.33 Q1817.47 1475.44 1819.28 1479.01 Q1821.11 1482.55 1824.72 1482.55 Q1828.35 1482.55 1830.16 1479.01 Q1831.99 1475.44 1831.99 1468.33 Q1831.99 1461.2 1830.16 1457.66 Q1828.35 1454.1 1824.72 1454.1 M1824.72 1450.39 Q1830.53 1450.39 1833.58 1455 Q1836.66 1459.58 1836.66 1468.33 Q1836.66 1477.06 1833.58 1481.67 Q1830.53 1486.25 1824.72 1486.25 Q1818.91 1486.25 1815.83 1481.67 Q1812.77 1477.06 1812.77 1468.33 Q1812.77 1459.58 1815.83 1455 Q1818.91 1450.39 1824.72 1450.39 Z" fill="#000000" fill-rule="nonzero" fill-opacity="1" /><path clip-path="url(#clip320)" d="M1854.88 1454.1 Q1851.27 1454.1 1849.44 1457.66 Q1847.63 1461.2 1847.63 1468.33 Q1847.63 1475.44 1849.44 1479.01 Q1851.27 1482.55 1854.88 1482.55 Q1858.51 1482.55 1860.32 1479.01 Q1862.15 1475.44 1862.15 1468.33 Q1862.15 1461.2 1860.32 1457.66 Q1858.51 1454.1 1854.88 1454.1 M1854.88 1450.39 Q1860.69 1450.39 1863.75 1455 Q1866.82 1459.58 1866.82 1468.33 Q1866.82 1477.06 1863.75 1481.67 Q1860.69 1486.25 1854.88 1486.25 Q1849.07 1486.25 1845.99 1481.67 Q1842.94 1477.06 1842.94 1468.33 Q1842.94 1459.58 1845.99 1455 Q1849.07 1450.39 1854.88 1450.39 Z" fill="#000000" fill-rule="nonzero" fill-opacity="1" /><path clip-path="url(#clip320)" d="M2106.31 1481.64 L2113.95 1481.64 L2113.95 1455.28 L2105.64 1456.95 L2105.64 1452.69 L2113.91 1451.02 L2118.58 1451.02 L2118.58 1481.64 L2126.22 1481.64 L2126.22 1485.58 L2106.31 1485.58 L2106.31 1481.64 Z" fill="#000000" fill-rule="nonzero" fill-opacity="1" /><path clip-path="url(#clip320)" d="M2139.69 1481.64 L2156.01 1481.64 L2156.01 1485.58 L2134.07 1485.58 L2134.07 1481.64 Q2136.73 1478.89 2141.31 1474.26 Q2145.92 1469.61 2147.1 1468.27 Q2149.35 1465.74 2150.23 1464.01 Q2151.13 1462.25 2151.13 1460.56 Q2151.13 1457.8 2149.18 1456.07 Q2147.26 1454.33 2144.16 1454.33 Q2141.96 1454.33 2139.51 1455.09 Q2137.08 1455.86 2134.3 1457.41 L2134.3 1452.69 Q2137.12 1451.55 2139.58 1450.97 Q2142.03 1450.39 2144.07 1450.39 Q2149.44 1450.39 2152.63 1453.08 Q2155.83 1455.77 2155.83 1460.26 Q2155.83 1462.39 2155.02 1464.31 Q2154.23 1466.2 2152.12 1468.8 Q2151.55 1469.47 2148.44 1472.69 Q2145.34 1475.88 2139.69 1481.64 Z" fill="#000000" fill-rule="nonzero" fill-opacity="1" /><path clip-path="url(#clip320)" d="M2175.83 1454.1 Q2172.22 1454.1 2170.39 1457.66 Q2168.58 1461.2 2168.58 1468.33 Q2168.58 1475.44 2170.39 1479.01 Q2172.22 1482.55 2175.83 1482.55 Q2179.46 1482.55 2181.27 1479.01 Q2183.1 1475.44 2183.1 1468.33 Q2183.1 1461.2 2181.27 1457.66 Q2179.46 1454.1 2175.83 1454.1 M2175.83 1450.39 Q2181.64 1450.39 2184.69 1455 Q2187.77 1459.58 2187.77 1468.33 Q2187.77 1477.06 2184.69 1481.67 Q2181.64 1486.25 2175.83 1486.25 Q2170.02 1486.25 2166.94 1481.67 Q2163.88 1477.06 2163.88 1468.33 Q2163.88 1459.58 2166.94 1455 Q2170.02 1450.39 2175.83 1450.39 Z" fill="#000000" fill-rule="nonzero" fill-opacity="1" /><path clip-path="url(#clip320)" d="M716.125 1545.76 Q718.193 1546.46 720.135 1548.76 Q722.108 1551.05 724.082 1555.06 L730.607 1568.04 L723.7 1568.04 L717.621 1555.85 Q715.265 1551.08 713.037 1549.52 Q710.841 1547.96 707.022 1547.96 L700.019 1547.96 L700.019 1568.04 L693.59 1568.04 L693.59 1520.52 L708.104 1520.52 Q716.252 1520.52 720.262 1523.93 Q724.273 1527.34 724.273 1534.21 Q724.273 1538.7 722.172 1541.66 Q720.103 1544.62 716.125 1545.76 M700.019 1525.81 L700.019 1542.68 L708.104 1542.68 Q712.751 1542.68 715.106 1540.54 Q717.493 1538.38 717.493 1534.21 Q717.493 1530.04 715.106 1527.94 Q712.751 1525.81 708.104 1525.81 L700.019 1525.81 Z" fill="#000000" fill-rule="nonzero" fill-opacity="1" /><path clip-path="url(#clip320)" d="M735.094 1553.98 L735.094 1532.4 L740.951 1532.4 L740.951 1553.75 Q740.951 1558.81 742.924 1561.36 Q744.898 1563.87 748.844 1563.87 Q753.587 1563.87 756.324 1560.85 Q759.093 1557.83 759.093 1552.61 L759.093 1532.4 L764.95 1532.4 L764.95 1568.04 L759.093 1568.04 L759.093 1562.57 Q756.961 1565.82 754.128 1567.41 Q751.327 1568.97 747.603 1568.97 Q741.46 1568.97 738.277 1565.15 Q735.094 1561.33 735.094 1553.98 M749.831 1531.54 L749.831 1531.54 Z" fill="#000000" fill-rule="nonzero" fill-opacity="1" /><path clip-path="url(#clip320)" d="M806.645 1546.53 L806.645 1568.04 L800.789 1568.04 L800.789 1546.72 Q800.789 1541.66 798.815 1539.14 Q796.842 1536.63 792.895 1536.63 Q788.153 1536.63 785.415 1539.65 Q782.678 1542.68 782.678 1547.9 L782.678 1568.04 L776.79 1568.04 L776.79 1532.4 L782.678 1532.4 L782.678 1537.93 Q784.779 1534.72 787.612 1533.13 Q790.476 1531.54 794.2 1531.54 Q800.343 1531.54 803.494 1535.36 Q806.645 1539.14 806.645 1546.53 Z" fill="#000000" fill-rule="nonzero" fill-opacity="1" /><path clip-path="url(#clip320)" d="M853.115 1518.58 Q848.85 1525.9 846.781 1533.06 Q844.712 1540.23 844.712 1547.58 Q844.712 1554.93 846.781 1562.16 Q848.881 1569.35 853.115 1576.64 L848.022 1576.64 Q843.248 1569.16 840.861 1561.93 Q838.505 1554.71 838.505 1547.58 Q838.505 1540.48 840.861 1533.29 Q843.216 1526.09 848.022 1518.58 L853.115 1518.58 Z" fill="#000000" fill-rule="nonzero" fill-opacity="1" /><path clip-path="url(#clip320)" d="M887.203 1533.45 L887.203 1538.98 Q884.72 1537.71 882.047 1537.07 Q879.373 1536.44 876.509 1536.44 Q872.148 1536.44 869.952 1537.77 Q867.788 1539.11 867.788 1541.79 Q867.788 1543.82 869.347 1545 Q870.907 1546.15 875.617 1547.2 L877.623 1547.64 Q883.861 1548.98 886.471 1551.43 Q889.113 1553.85 889.113 1558.21 Q889.113 1563.17 885.166 1566.07 Q881.251 1568.97 874.376 1568.97 Q871.512 1568.97 868.392 1568.39 Q865.305 1567.85 861.867 1566.74 L861.867 1560.69 Q865.114 1562.38 868.265 1563.24 Q871.416 1564.07 874.503 1564.07 Q878.641 1564.07 880.869 1562.66 Q883.097 1561.23 883.097 1558.65 Q883.097 1556.27 881.474 1554.99 Q879.882 1553.72 874.44 1552.54 L872.403 1552.07 Q866.96 1550.92 864.541 1548.56 Q862.122 1546.18 862.122 1542.04 Q862.122 1537.01 865.687 1534.27 Q869.252 1531.54 875.808 1531.54 Q879.055 1531.54 881.919 1532.01 Q884.784 1532.49 887.203 1533.45 Z" fill="#000000" fill-rule="nonzero" fill-opacity="1" /><path clip-path="url(#clip320)" d="M912.252 1536.5 Q907.541 1536.5 904.804 1540.19 Q902.067 1543.85 902.067 1550.25 Q902.067 1556.65 904.772 1560.34 Q907.51 1564 912.252 1564 Q916.931 1564 919.668 1560.31 Q922.405 1556.62 922.405 1550.25 Q922.405 1543.92 919.668 1540.23 Q916.931 1536.5 912.252 1536.5 M912.252 1531.54 Q919.891 1531.54 924.251 1536.5 Q928.612 1541.47 928.612 1550.25 Q928.612 1559 924.251 1564 Q919.891 1568.97 912.252 1568.97 Q904.581 1568.97 900.221 1564 Q895.892 1559 895.892 1550.25 Q895.892 1541.47 900.221 1536.5 Q904.581 1531.54 912.252 1531.54 Z" fill="#000000" fill-rule="nonzero" fill-opacity="1" /><path clip-path="url(#clip320)" d="M958.976 1537.87 Q957.99 1537.3 956.812 1537.04 Q955.666 1536.76 954.266 1536.76 Q949.3 1536.76 946.627 1540 Q943.985 1543.22 943.985 1549.27 L943.985 1568.04 L938.097 1568.04 L938.097 1532.4 L943.985 1532.4 L943.985 1537.93 Q945.831 1534.69 948.791 1533.13 Q951.751 1531.54 955.984 1531.54 Q956.589 1531.54 957.321 1531.63 Q958.053 1531.7 958.944 1531.85 L958.976 1537.87 Z" fill="#000000" fill-rule="nonzero" fill-opacity="1" /><path clip-path="url(#clip320)" d="M970.912 1522.27 L970.912 1532.4 L982.975 1532.4 L982.975 1536.95 L970.912 1536.95 L970.912 1556.3 Q970.912 1560.66 972.09 1561.9 Q973.299 1563.14 976.959 1563.14 L982.975 1563.14 L982.975 1568.04 L976.959 1568.04 Q970.18 1568.04 967.602 1565.53 Q965.024 1562.98 965.024 1556.3 L965.024 1536.95 L960.727 1536.95 L960.727 1532.4 L965.024 1532.4 L965.024 1522.27 L970.912 1522.27 Z" fill="#000000" fill-rule="nonzero" fill-opacity="1" /><path clip-path="url(#clip320)" d="M1021.17 1548.76 L1021.17 1551.62 L994.242 1551.62 Q994.624 1557.67 997.871 1560.85 Q1001.15 1564 1006.97 1564 Q1010.35 1564 1013.5 1563.17 Q1016.68 1562.35 1019.8 1560.69 L1019.8 1566.23 Q1016.65 1567.57 1013.34 1568.27 Q1010.03 1568.97 1006.62 1568.97 Q998.094 1568.97 993.097 1564 Q988.131 1559.04 988.131 1550.57 Q988.131 1541.82 992.842 1536.69 Q997.584 1531.54 1005.61 1531.54 Q1012.8 1531.54 1016.97 1536.18 Q1021.17 1540.8 1021.17 1548.76 M1015.31 1547.04 Q1015.25 1542.23 1012.61 1539.37 Q1010 1536.5 1005.67 1536.5 Q1000.77 1536.5 997.807 1539.27 Q994.879 1542.04 994.433 1547.07 L1015.31 1547.04 Z" fill="#000000" fill-rule="nonzero" fill-opacity="1" /><path clip-path="url(#clip320)" d="M1054.24 1537.81 L1054.24 1518.52 L1060.1 1518.52 L1060.1 1568.04 L1054.24 1568.04 L1054.24 1562.7 Q1052.39 1565.88 1049.56 1567.44 Q1046.76 1568.97 1042.81 1568.97 Q1036.35 1568.97 1032.28 1563.81 Q1028.24 1558.65 1028.24 1550.25 Q1028.24 1541.85 1032.28 1536.69 Q1036.35 1531.54 1042.81 1531.54 Q1046.76 1531.54 1049.56 1533.1 Q1052.39 1534.62 1054.24 1537.81 M1034.28 1550.25 Q1034.28 1556.71 1036.92 1560.4 Q1039.6 1564.07 1044.24 1564.07 Q1048.89 1564.07 1051.57 1560.4 Q1054.24 1556.71 1054.24 1550.25 Q1054.24 1543.79 1051.57 1540.13 Q1048.89 1536.44 1044.24 1536.44 Q1039.6 1536.44 1036.92 1540.13 Q1034.28 1543.79 1034.28 1550.25 Z" fill="#000000" fill-rule="nonzero" fill-opacity="1" /><path clip-path="url(#clip320)" d="M1118.47 1550.25 Q1118.47 1543.79 1115.8 1540.13 Q1113.15 1536.44 1108.51 1536.44 Q1103.86 1536.44 1101.19 1540.13 Q1098.54 1543.79 1098.54 1550.25 Q1098.54 1556.71 1101.19 1560.4 Q1103.86 1564.07 1108.51 1564.07 Q1113.15 1564.07 1115.8 1560.4 Q1118.47 1556.71 1118.47 1550.25 M1098.54 1537.81 Q1100.39 1534.62 1103.19 1533.1 Q1106.02 1531.54 1109.94 1531.54 Q1116.43 1531.54 1120.47 1536.69 Q1124.55 1541.85 1124.55 1550.25 Q1124.55 1558.65 1120.47 1563.81 Q1116.43 1568.97 1109.94 1568.97 Q1106.02 1568.97 1103.19 1567.44 Q1100.39 1565.88 1098.54 1562.7 L1098.54 1568.04 L1092.66 1568.04 L1092.66 1518.52 L1098.54 1518.52 L1098.54 1537.81 Z" fill="#000000" fill-rule="nonzero" fill-opacity="1" /><path clip-path="url(#clip320)" d="M1149.09 1571.35 Q1146.61 1577.72 1144.25 1579.66 Q1141.89 1581.6 1137.95 1581.6 L1133.27 1581.6 L1133.27 1576.7 L1136.71 1576.7 Q1139.13 1576.7 1140.46 1575.56 Q1141.8 1574.41 1143.42 1570.14 L1144.47 1567.47 L1130.05 1532.4 L1136.26 1532.4 L1147.4 1560.28 L1158.54 1532.4 L1164.75 1532.4 L1149.09 1571.35 Z" fill="#000000" fill-rule="nonzero" fill-opacity="1" /><path clip-path="url(#clip320)" d="M1219.21 1533.76 L1219.21 1539.24 Q1216.72 1537.87 1214.21 1537.2 Q1211.73 1536.5 1209.18 1536.5 Q1203.48 1536.5 1200.33 1540.13 Q1197.18 1543.73 1197.18 1550.25 Q1197.18 1556.78 1200.33 1560.4 Q1203.48 1564 1209.18 1564 Q1211.73 1564 1214.21 1563.33 Q1216.72 1562.63 1219.21 1561.26 L1219.21 1566.68 Q1216.76 1567.82 1214.11 1568.39 Q1211.5 1568.97 1208.54 1568.97 Q1200.49 1568.97 1195.75 1563.91 Q1191.01 1558.85 1191.01 1550.25 Q1191.01 1541.53 1195.78 1536.53 Q1200.59 1531.54 1208.93 1531.54 Q1211.63 1531.54 1214.21 1532.11 Q1216.79 1532.65 1219.21 1533.76 Z" fill="#000000" fill-rule="nonzero" fill-opacity="1" /><path clip-path="url(#clip320)" d="M1243.21 1536.5 Q1238.49 1536.5 1235.76 1540.19 Q1233.02 1543.85 1233.02 1550.25 Q1233.02 1556.65 1235.73 1560.34 Q1238.46 1564 1243.21 1564 Q1247.88 1564 1250.62 1560.31 Q1253.36 1556.62 1253.36 1550.25 Q1253.36 1543.92 1250.62 1540.23 Q1247.88 1536.5 1243.21 1536.5 M1243.21 1531.54 Q1250.84 1531.54 1255.2 1536.5 Q1259.56 1541.47 1259.56 1550.25 Q1259.56 1559 1255.2 1564 Q1250.84 1568.97 1243.21 1568.97 Q1235.53 1568.97 1231.17 1564 Q1226.85 1559 1226.85 1550.25 Q1226.85 1541.47 1231.17 1536.5 Q1235.53 1531.54 1243.21 1531.54 Z" fill="#000000" fill-rule="nonzero" fill-opacity="1" /><path clip-path="url(#clip320)" d="M1292 1533.45 L1292 1538.98 Q1289.52 1537.71 1286.84 1537.07 Q1284.17 1536.44 1281.3 1536.44 Q1276.94 1536.44 1274.75 1537.77 Q1272.58 1539.11 1272.58 1541.79 Q1272.58 1543.82 1274.14 1545 Q1275.7 1546.15 1280.41 1547.2 L1282.42 1547.64 Q1288.66 1548.98 1291.27 1551.43 Q1293.91 1553.85 1293.91 1558.21 Q1293.91 1563.17 1289.96 1566.07 Q1286.05 1568.97 1279.17 1568.97 Q1276.31 1568.97 1273.19 1568.39 Q1270.1 1567.85 1266.66 1566.74 L1266.66 1560.69 Q1269.91 1562.38 1273.06 1563.24 Q1276.21 1564.07 1279.3 1564.07 Q1283.44 1564.07 1285.66 1562.66 Q1287.89 1561.23 1287.89 1558.65 Q1287.89 1556.27 1286.27 1554.99 Q1284.68 1553.72 1279.24 1552.54 L1277.2 1552.07 Q1271.76 1550.92 1269.34 1548.56 Q1266.92 1546.18 1266.92 1542.04 Q1266.92 1537.01 1270.48 1534.27 Q1274.05 1531.54 1280.6 1531.54 Q1283.85 1531.54 1286.71 1532.01 Q1289.58 1532.49 1292 1533.45 Z" fill="#000000" fill-rule="nonzero" fill-opacity="1" /><path clip-path="url(#clip320)" d="M1309.03 1522.27 L1309.03 1532.4 L1321.09 1532.4 L1321.09 1536.95 L1309.03 1536.95 L1309.03 1556.3 Q1309.03 1560.66 1310.2 1561.9 Q1311.41 1563.14 1315.07 1563.14 L1321.09 1563.14 L1321.09 1568.04 L1315.07 1568.04 Q1308.29 1568.04 1305.72 1565.53 Q1303.14 1562.98 1303.14 1556.3 L1303.14 1536.95 L1298.84 1536.95 L1298.84 1532.4 L1303.14 1532.4 L1303.14 1522.27 L1309.03 1522.27 Z" fill="#000000" fill-rule="nonzero" fill-opacity="1" /><path clip-path="url(#clip320)" d="M1367.56 1518.52 L1367.56 1523.39 L1361.96 1523.39 Q1358.81 1523.39 1357.57 1524.66 Q1356.36 1525.93 1356.36 1529.24 L1356.36 1532.4 L1366 1532.4 L1366 1536.95 L1356.36 1536.95 L1356.36 1568.04 L1350.47 1568.04 L1350.47 1536.95 L1344.87 1536.95 L1344.87 1532.4 L1350.47 1532.4 L1350.47 1529.91 Q1350.47 1523.96 1353.24 1521.26 Q1356.01 1518.52 1362.02 1518.52 L1367.56 1518.52 Z" fill="#000000" fill-rule="nonzero" fill-opacity="1" /><path clip-path="url(#clip320)" d="M1371.86 1553.98 L1371.86 1532.4 L1377.71 1532.4 L1377.71 1553.75 Q1377.71 1558.81 1379.69 1561.36 Q1381.66 1563.87 1385.61 1563.87 Q1390.35 1563.87 1393.09 1560.85 Q1395.85 1557.83 1395.85 1552.61 L1395.85 1532.4 L1401.71 1532.4 L1401.71 1568.04 L1395.85 1568.04 L1395.85 1562.57 Q1393.72 1565.82 1390.89 1567.41 Q1388.09 1568.97 1384.36 1568.97 Q1378.22 1568.97 1375.04 1565.15 Q1371.86 1561.33 1371.86 1553.98 M1386.59 1531.54 L1386.59 1531.54 Z" fill="#000000" fill-rule="nonzero" fill-opacity="1" /><path clip-path="url(#clip320)" d="M1443.41 1546.53 L1443.41 1568.04 L1437.55 1568.04 L1437.55 1546.72 Q1437.55 1541.66 1435.58 1539.14 Q1433.6 1536.63 1429.66 1536.63 Q1424.91 1536.63 1422.18 1539.65 Q1419.44 1542.68 1419.44 1547.9 L1419.44 1568.04 L1413.55 1568.04 L1413.55 1532.4 L1419.44 1532.4 L1419.44 1537.93 Q1421.54 1534.72 1424.37 1533.13 Q1427.24 1531.54 1430.96 1531.54 Q1437.1 1531.54 1440.26 1535.36 Q1443.41 1539.14 1443.41 1546.53 Z" fill="#000000" fill-rule="nonzero" fill-opacity="1" /><path clip-path="url(#clip320)" d="M1480.74 1533.76 L1480.74 1539.24 Q1478.26 1537.87 1475.74 1537.2 Q1473.26 1536.5 1470.72 1536.5 Q1465.02 1536.5 1461.87 1540.13 Q1458.72 1543.73 1458.72 1550.25 Q1458.72 1556.78 1461.87 1560.4 Q1465.02 1564 1470.72 1564 Q1473.26 1564 1475.74 1563.33 Q1478.26 1562.63 1480.74 1561.26 L1480.74 1566.68 Q1478.29 1567.82 1475.65 1568.39 Q1473.04 1568.97 1470.08 1568.97 Q1462.03 1568.97 1457.28 1563.91 Q1452.54 1558.85 1452.54 1550.25 Q1452.54 1541.53 1457.32 1536.53 Q1462.12 1531.54 1470.46 1531.54 Q1473.17 1531.54 1475.74 1532.11 Q1478.32 1532.65 1480.74 1533.76 Z" fill="#000000" fill-rule="nonzero" fill-opacity="1" /><path clip-path="url(#clip320)" d="M1496.72 1522.27 L1496.72 1532.4 L1508.78 1532.4 L1508.78 1536.95 L1496.72 1536.95 L1496.72 1556.3 Q1496.72 1560.66 1497.9 1561.9 Q1499.11 1563.14 1502.77 1563.14 L1508.78 1563.14 L1508.78 1568.04 L1502.77 1568.04 Q1495.99 1568.04 1493.41 1565.53 Q1490.83 1562.98 1490.83 1556.3 L1490.83 1536.95 L1486.53 1536.95 L1486.53 1532.4 L1490.83 1532.4 L1490.83 1522.27 L1496.72 1522.27 Z" fill="#000000" fill-rule="nonzero" fill-opacity="1" /><path clip-path="url(#clip320)" d="M1516.48 1532.4 L1522.34 1532.4 L1522.34 1568.04 L1516.48 1568.04 L1516.48 1532.4 M1516.48 1518.52 L1522.34 1518.52 L1522.34 1525.93 L1516.48 1525.93 L1516.48 1518.52 Z" fill="#000000" fill-rule="nonzero" fill-opacity="1" /><path clip-path="url(#clip320)" d="M1548.41 1536.5 Q1543.7 1536.5 1540.96 1540.19 Q1538.22 1543.85 1538.22 1550.25 Q1538.22 1556.65 1540.93 1560.34 Q1543.67 1564 1548.41 1564 Q1553.09 1564 1555.82 1560.31 Q1558.56 1556.62 1558.56 1550.25 Q1558.56 1543.92 1555.82 1540.23 Q1553.09 1536.5 1548.41 1536.5 M1548.41 1531.54 Q1556.05 1531.54 1560.41 1536.5 Q1564.77 1541.47 1564.77 1550.25 Q1564.77 1559 1560.41 1564 Q1556.05 1568.97 1548.41 1568.97 Q1540.74 1568.97 1536.38 1564 Q1532.05 1559 1532.05 1550.25 Q1532.05 1541.47 1536.38 1536.5 Q1540.74 1531.54 1548.41 1531.54 Z" fill="#000000" fill-rule="nonzero" fill-opacity="1" /><path clip-path="url(#clip320)" d="M1604.11 1546.53 L1604.11 1568.04 L1598.25 1568.04 L1598.25 1546.72 Q1598.25 1541.66 1596.28 1539.14 Q1594.31 1536.63 1590.36 1536.63 Q1585.62 1536.63 1582.88 1539.65 Q1580.14 1542.68 1580.14 1547.9 L1580.14 1568.04 L1574.25 1568.04 L1574.25 1532.4 L1580.14 1532.4 L1580.14 1537.93 Q1582.24 1534.72 1585.08 1533.13 Q1587.94 1531.54 1591.66 1531.54 Q1597.81 1531.54 1600.96 1535.36 Q1604.11 1539.14 1604.11 1546.53 Z" fill="#000000" fill-rule="nonzero" fill-opacity="1" /><path clip-path="url(#clip320)" d="M1657.17 1537.87 Q1656.18 1537.3 1655 1537.04 Q1653.86 1536.76 1652.46 1536.76 Q1647.49 1536.76 1644.82 1540 Q1642.18 1543.22 1642.18 1549.27 L1642.18 1568.04 L1636.29 1568.04 L1636.29 1532.4 L1642.18 1532.4 L1642.18 1537.93 Q1644.02 1534.69 1646.98 1533.13 Q1649.94 1531.54 1654.18 1531.54 Q1654.78 1531.54 1655.51 1531.63 Q1656.24 1531.7 1657.14 1531.85 L1657.17 1537.87 Z" fill="#000000" fill-rule="nonzero" fill-opacity="1" /><path clip-path="url(#clip320)" d="M1692.37 1548.76 L1692.37 1551.62 L1665.44 1551.62 Q1665.82 1557.67 1669.07 1560.85 Q1672.35 1564 1678.17 1564 Q1681.55 1564 1684.7 1563.17 Q1687.88 1562.35 1691 1560.69 L1691 1566.23 Q1687.85 1567.57 1684.54 1568.27 Q1681.23 1568.97 1677.82 1568.97 Q1669.29 1568.97 1664.3 1564 Q1659.33 1559.04 1659.33 1550.57 Q1659.33 1541.82 1664.04 1536.69 Q1668.78 1531.54 1676.81 1531.54 Q1684 1531.54 1688.17 1536.18 Q1692.37 1540.8 1692.37 1548.76 M1686.51 1547.04 Q1686.45 1542.23 1683.81 1539.37 Q1681.2 1536.5 1676.87 1536.5 Q1671.97 1536.5 1669.01 1539.27 Q1666.08 1542.04 1665.63 1547.07 L1686.51 1547.04 Z" fill="#000000" fill-rule="nonzero" fill-opacity="1" /><path clip-path="url(#clip320)" d="M1724.71 1533.45 L1724.71 1538.98 Q1722.22 1537.71 1719.55 1537.07 Q1716.88 1536.44 1714.01 1536.44 Q1709.65 1536.44 1707.46 1537.77 Q1705.29 1539.11 1705.29 1541.79 Q1705.29 1543.82 1706.85 1545 Q1708.41 1546.15 1713.12 1547.2 L1715.13 1547.64 Q1721.37 1548.98 1723.98 1551.43 Q1726.62 1553.85 1726.62 1558.21 Q1726.62 1563.17 1722.67 1566.07 Q1718.76 1568.97 1711.88 1568.97 Q1709.02 1568.97 1705.9 1568.39 Q1702.81 1567.85 1699.37 1566.74 L1699.37 1560.69 Q1702.62 1562.38 1705.77 1563.24 Q1708.92 1564.07 1712.01 1564.07 Q1716.15 1564.07 1718.37 1562.66 Q1720.6 1561.23 1720.6 1558.65 Q1720.6 1556.27 1718.98 1554.99 Q1717.39 1553.72 1711.94 1552.54 L1709.91 1552.07 Q1704.46 1550.92 1702.05 1548.56 Q1699.63 1546.18 1699.63 1542.04 Q1699.63 1537.01 1703.19 1534.27 Q1706.76 1531.54 1713.31 1531.54 Q1716.56 1531.54 1719.42 1532.01 Q1722.29 1532.49 1724.71 1533.45 Z" fill="#000000" fill-rule="nonzero" fill-opacity="1" /><path clip-path="url(#clip320)" d="M1735.34 1553.98 L1735.34 1532.4 L1741.19 1532.4 L1741.19 1553.75 Q1741.19 1558.81 1743.17 1561.36 Q1745.14 1563.87 1749.09 1563.87 Q1753.83 1563.87 1756.57 1560.85 Q1759.34 1557.83 1759.34 1552.61 L1759.34 1532.4 L1765.19 1532.4 L1765.19 1568.04 L1759.34 1568.04 L1759.34 1562.57 Q1757.2 1565.82 1754.37 1567.41 Q1751.57 1568.97 1747.85 1568.97 Q1741.7 1568.97 1738.52 1565.15 Q1735.34 1561.33 1735.34 1553.98 M1750.07 1531.54 L1750.07 1531.54 Z" fill="#000000" fill-rule="nonzero" fill-opacity="1" /><path clip-path="url(#clip320)" d="M1777.26 1518.52 L1783.11 1518.52 L1783.11 1568.04 L1777.26 1568.04 L1777.26 1518.52 Z" fill="#000000" fill-rule="nonzero" fill-opacity="1" /><path clip-path="url(#clip320)" d="M1801.16 1522.27 L1801.16 1532.4 L1813.22 1532.4 L1813.22 1536.95 L1801.16 1536.95 L1801.16 1556.3 Q1801.16 1560.66 1802.34 1561.9 Q1803.55 1563.14 1807.21 1563.14 L1813.22 1563.14 L1813.22 1568.04 L1807.21 1568.04 Q1800.43 1568.04 1797.85 1565.53 Q1795.27 1562.98 1795.27 1556.3 L1795.27 1536.95 L1790.97 1536.95 L1790.97 1532.4 L1795.27 1532.4 L1795.27 1522.27 L1801.16 1522.27 Z" fill="#000000" fill-rule="nonzero" fill-opacity="1" /><path clip-path="url(#clip320)" d="M1820 1518.58 L1825.09 1518.58 Q1829.87 1526.09 1832.22 1533.29 Q1834.61 1540.48 1834.61 1547.58 Q1834.61 1554.71 1832.22 1561.93 Q1829.87 1569.16 1825.09 1576.64 L1820 1576.64 Q1824.23 1569.35 1826.3 1562.16 Q1828.4 1554.93 1828.4 1547.58 Q1828.4 1540.23 1826.3 1533.06 Q1824.23 1525.9 1820 1518.58 Z" fill="#000000" fill-rule="nonzero" fill-opacity="1" /><polyline clip-path="url(#clip320)" style="stroke:#000000; stroke-linecap:round; stroke-linejoin:round; stroke-width:4; stroke-opacity:1; fill:none" points="175.445,1423.18 175.445,123.472 "/>
<polyline clip-path="url(#clip320)" style="stroke:#000000; stroke-linecap:round; stroke-linejoin:round; stroke-width:4; stroke-opacity:1; fill:none" points="175.445,1374.49 194.343,1374.49 "/>
<polyline clip-path="url(#clip320)" style="stroke:#000000; stroke-linecap:round; stroke-linejoin:round; stroke-width:4; stroke-opacity:1; fill:none" points="175.445,982.151 194.343,982.151 "/>
<polyline clip-path="url(#clip320)" style="stroke:#000000; stroke-linecap:round; stroke-linejoin:round; stroke-width:4; stroke-opacity:1; fill:none" points="175.445,589.807 194.343,589.807 "/>
<polyline clip-path="url(#clip320)" style="stroke:#000000; stroke-linecap:round; stroke-linejoin:round; stroke-width:4; stroke-opacity:1; fill:none" points="175.445,197.464 194.343,197.464 "/>
<path clip-path="url(#clip320)" d="M123.126 1387.84 L139.445 1387.84 L139.445 1391.77 L117.501 1391.77 L117.501 1387.84 Q120.163 1385.08 124.746 1380.45 Q129.353 1375.8 130.533 1374.46 Q132.779 1371.94 133.658 1370.2 Q134.561 1368.44 134.561 1366.75 Q134.561 1364 132.617 1362.26 Q130.695 1360.52 127.593 1360.52 Q125.394 1360.52 122.941 1361.29 Q120.51 1362.05 117.732 1363.6 L117.732 1358.88 Q120.556 1357.75 123.01 1357.17 Q125.464 1356.59 127.501 1356.59 Q132.871 1356.59 136.066 1359.27 Q139.26 1361.96 139.26 1366.45 Q139.26 1368.58 138.45 1370.5 Q137.663 1372.4 135.556 1374.99 Q134.978 1375.66 131.876 1378.88 Q128.774 1382.08 123.126 1387.84 Z" fill="#000000" fill-rule="nonzero" fill-opacity="1" /><path clip-path="url(#clip320)" d="M132.316 980.797 Q135.672 981.514 137.547 983.783 Q139.445 986.051 139.445 989.385 Q139.445 994.5 135.927 997.301 Q132.408 1000.1 125.927 1000.1 Q123.751 1000.1 121.436 999.662 Q119.144 999.246 116.691 998.389 L116.691 993.875 Q118.635 995.009 120.95 995.588 Q123.265 996.167 125.788 996.167 Q130.186 996.167 132.478 994.431 Q134.792 992.695 134.792 989.385 Q134.792 986.329 132.64 984.616 Q130.51 982.88 126.691 982.88 L122.663 982.88 L122.663 979.037 L126.876 979.037 Q130.325 979.037 132.154 977.672 Q133.982 976.283 133.982 973.69 Q133.982 971.028 132.084 969.616 Q130.209 968.181 126.691 968.181 Q124.769 968.181 122.57 968.598 Q120.371 969.014 117.732 969.894 L117.732 965.727 Q120.394 964.987 122.709 964.616 Q125.047 964.246 127.107 964.246 Q132.431 964.246 135.533 966.676 Q138.635 969.084 138.635 973.204 Q138.635 976.074 136.992 978.065 Q135.348 980.033 132.316 980.797 Z" fill="#000000" fill-rule="nonzero" fill-opacity="1" /><path clip-path="url(#clip320)" d="M129.862 576.601 L118.056 595.05 L129.862 595.05 L129.862 576.601 M128.635 572.527 L134.515 572.527 L134.515 595.05 L139.445 595.05 L139.445 598.939 L134.515 598.939 L134.515 607.087 L129.862 607.087 L129.862 598.939 L114.26 598.939 L114.26 594.425 L128.635 572.527 Z" fill="#000000" fill-rule="nonzero" fill-opacity="1" /><path clip-path="url(#clip320)" d="M118.543 180.184 L136.899 180.184 L136.899 184.119 L122.825 184.119 L122.825 192.591 Q123.843 192.244 124.862 192.082 Q125.88 191.897 126.899 191.897 Q132.686 191.897 136.066 195.068 Q139.445 198.239 139.445 203.656 Q139.445 209.234 135.973 212.336 Q132.501 215.415 126.181 215.415 Q124.005 215.415 121.737 215.045 Q119.492 214.674 117.084 213.933 L117.084 209.234 Q119.168 210.369 121.39 210.924 Q123.612 211.48 126.089 211.48 Q130.093 211.48 132.431 209.373 Q134.769 207.267 134.769 203.656 Q134.769 200.045 132.431 197.938 Q130.093 195.832 126.089 195.832 Q124.214 195.832 122.339 196.248 Q120.487 196.665 118.543 197.545 L118.543 180.184 Z" fill="#000000" fill-rule="nonzero" fill-opacity="1" /><path clip-path="url(#clip320)" d="M41.3104 1133.75 L58.7206 1133.75 L58.7206 1123.44 Q58.7206 1118.25 56.5881 1115.77 Q54.4238 1113.25 49.9996 1113.25 Q45.5436 1113.25 43.4429 1115.77 Q41.3104 1118.25 41.3104 1123.44 L41.3104 1133.75 M21.7677 1133.75 L36.0905 1133.75 L36.0905 1124.24 Q36.0905 1119.52 34.34 1117.23 Q32.5576 1114.91 28.9291 1114.91 Q25.3325 1114.91 23.5501 1117.23 Q21.7677 1119.52 21.7677 1124.24 L21.7677 1133.75 M16.4842 1140.18 L16.4842 1123.76 Q16.4842 1116.41 19.5397 1112.43 Q22.5952 1108.45 28.2289 1108.45 Q32.5894 1108.45 35.1675 1110.49 Q37.7456 1112.52 38.3822 1116.47 Q39.4007 1111.73 42.6472 1109.12 Q45.8619 1106.48 50.6998 1106.48 Q57.0655 1106.48 60.5348 1110.8 Q64.0042 1115.13 64.0042 1123.12 L64.0042 1140.18 L16.4842 1140.18 Z" fill="#000000" fill-rule="nonzero" fill-opacity="1" /><path clip-path="url(#clip320)" d="M28.3562 1095.72 L28.3562 1089.86 L64.0042 1089.86 L64.0042 1095.72 L28.3562 1095.72 M14.479 1095.72 L14.479 1089.86 L21.895 1089.86 L21.895 1095.72 L14.479 1095.72 Z" fill="#000000" fill-rule="nonzero" fill-opacity="1" /><path clip-path="url(#clip320)" d="M16.4842 1077.35 L16.4842 1070.92 L58.5933 1070.92 L58.5933 1047.78 L64.0042 1047.78 L64.0042 1077.35 L16.4842 1077.35 Z" fill="#000000" fill-rule="nonzero" fill-opacity="1" /><path clip-path="url(#clip320)" d="M32.4621 1028.62 Q32.4621 1033.33 36.1542 1036.07 Q39.8145 1038.81 46.212 1038.81 Q52.6095 1038.81 56.3017 1036.1 Q59.9619 1033.37 59.9619 1028.62 Q59.9619 1023.94 56.2698 1021.21 Q52.5777 1018.47 46.212 1018.47 Q39.8781 1018.47 36.186 1021.21 Q32.4621 1023.94 32.4621 1028.62 M27.4968 1028.62 Q27.4968 1020.98 32.4621 1016.62 Q37.4273 1012.26 46.212 1012.26 Q54.9649 1012.26 59.9619 1016.62 Q64.9272 1020.98 64.9272 1028.62 Q64.9272 1036.29 59.9619 1040.65 Q54.9649 1044.98 46.212 1044.98 Q37.4273 1044.98 32.4621 1040.65 Q27.4968 1036.29 27.4968 1028.62 Z" fill="#000000" fill-rule="nonzero" fill-opacity="1" /><path clip-path="url(#clip320)" d="M45.7664 979.097 Q39.4007 979.097 35.8996 981.739 Q32.3984 984.349 32.3984 989.092 Q32.3984 993.802 35.8996 996.444 Q39.4007 999.054 45.7664 999.054 Q52.1003 999.054 55.6014 996.444 Q59.1026 993.802 59.1026 989.092 Q59.1026 984.349 55.6014 981.739 Q52.1003 979.097 45.7664 979.097 M59.58 973.241 Q68.683 973.241 73.1071 977.283 Q77.5631 981.325 77.5631 989.665 Q77.5631 992.752 77.0857 995.489 Q76.6401 998.226 75.6852 1000.8 L69.9879 1000.8 Q71.3884 998.226 72.0568 995.712 Q72.7252 993.197 72.7252 990.588 Q72.7252 984.827 69.7015 981.962 Q66.7096 979.097 60.6303 979.097 L57.7339 979.097 Q60.885 980.912 62.4446 983.744 Q64.0042 986.577 64.0042 990.524 Q64.0042 997.081 59.0071 1001.09 Q54.01 1005.1 45.7664 1005.1 Q37.491 1005.1 32.4939 1001.09 Q27.4968 997.081 27.4968 990.524 Q27.4968 986.577 29.0564 983.744 Q30.616 980.912 33.7671 979.097 L28.3562 979.097 L28.3562 973.241 L59.58 973.241 Z" fill="#000000" fill-rule="nonzero" fill-opacity="1" /><path clip-path="url(#clip320)" d="M14.5426 947.11 Q21.8632 951.375 29.0246 953.444 Q36.186 955.513 43.5384 955.513 Q50.8908 955.513 58.1159 953.444 Q65.3091 951.343 72.5979 947.11 L72.5979 952.202 Q65.1182 956.977 57.8931 959.364 Q50.668 961.719 43.5384 961.719 Q36.4406 961.719 29.2474 959.364 Q22.0542 957.008 14.5426 952.202 L14.5426 947.11 Z" fill="#000000" fill-rule="nonzero" fill-opacity="1" /><path clip-path="url(#clip320)" d="M16.4842 935.492 L16.4842 908.183 L21.895 908.183 L21.895 929.063 L35.8996 929.063 L35.8996 910.221 L41.3104 910.221 L41.3104 929.063 L64.0042 929.063 L64.0042 935.492 L16.4842 935.492 Z" fill="#000000" fill-rule="nonzero" fill-opacity="1" /><path clip-path="url(#clip320)" d="M28.3562 902.995 L28.3562 897.139 L64.0042 897.139 L64.0042 902.995 L28.3562 902.995 M14.479 902.995 L14.479 897.139 L21.895 897.139 L21.895 902.995 L14.479 902.995 Z" fill="#000000" fill-rule="nonzero" fill-opacity="1" /><path clip-path="url(#clip320)" d="M42.4881 855.253 L64.0042 855.253 L64.0042 861.109 L42.679 861.109 Q37.6183 861.109 35.1038 863.082 Q32.5894 865.056 32.5894 869.003 Q32.5894 873.745 35.6131 876.482 Q38.6368 879.22 43.8567 879.22 L64.0042 879.22 L64.0042 885.108 L28.3562 885.108 L28.3562 879.22 L33.8944 879.22 Q30.6797 877.119 29.0883 874.286 Q27.4968 871.422 27.4968 867.698 Q27.4968 861.555 31.3163 858.404 Q35.1038 855.253 42.4881 855.253 Z" fill="#000000" fill-rule="nonzero" fill-opacity="1" /><path clip-path="url(#clip320)" d="M46.0847 827.371 Q46.0847 834.469 47.7079 837.206 Q49.3312 839.943 53.2461 839.943 Q56.3653 839.943 58.2114 837.906 Q60.0256 835.837 60.0256 832.304 Q60.0256 827.434 56.5881 824.506 Q53.1188 821.546 47.3897 821.546 L46.0847 821.546 L46.0847 827.371 M43.6657 815.69 L64.0042 815.69 L64.0042 821.546 L58.5933 821.546 Q61.8398 823.551 63.3994 826.543 Q64.9272 829.535 64.9272 833.864 Q64.9272 839.338 61.8716 842.585 Q58.7843 845.8 53.6281 845.8 Q47.6125 845.8 44.5569 841.789 Q41.5014 837.747 41.5014 829.758 L41.5014 821.546 L40.9285 821.546 Q36.8862 821.546 34.6901 824.22 Q32.4621 826.862 32.4621 831.668 Q32.4621 834.723 33.1941 837.62 Q33.9262 840.516 35.3903 843.19 L29.9795 843.19 Q28.7381 839.975 28.1334 836.951 Q27.4968 833.928 27.4968 831.063 Q27.4968 823.329 31.5072 819.509 Q35.5176 815.69 43.6657 815.69 Z" fill="#000000" fill-rule="nonzero" fill-opacity="1" /><path clip-path="url(#clip320)" d="M14.479 803.627 L14.479 797.77 L64.0042 797.77 L64.0042 803.627 L14.479 803.627 Z" fill="#000000" fill-rule="nonzero" fill-opacity="1" /><path clip-path="url(#clip320)" d="M20.1444 728.957 L26.9239 728.957 Q23.9002 732.204 22.4043 735.896 Q20.9083 739.556 20.9083 743.694 Q20.9083 751.842 25.9054 756.17 Q30.8707 760.499 40.2919 760.499 Q49.6813 760.499 54.6784 756.17 Q59.6436 751.842 59.6436 743.694 Q59.6436 739.556 58.1477 735.896 Q56.6518 732.204 53.6281 728.957 L60.3439 728.957 Q62.6355 732.331 63.7814 736.118 Q64.9272 739.874 64.9272 744.076 Q64.9272 754.865 58.3387 761.072 Q51.7183 767.279 40.2919 767.279 Q28.8336 767.279 22.2451 761.072 Q15.6248 754.865 15.6248 744.076 Q15.6248 739.811 16.7706 736.055 Q17.8846 732.267 20.1444 728.957 Z" fill="#000000" fill-rule="nonzero" fill-opacity="1" /><path clip-path="url(#clip320)" d="M32.4621 705.468 Q32.4621 710.178 36.1542 712.915 Q39.8145 715.653 46.212 715.653 Q52.6095 715.653 56.3017 712.947 Q59.9619 710.21 59.9619 705.468 Q59.9619 700.789 56.2698 698.052 Q52.5777 695.314 46.212 695.314 Q39.8781 695.314 36.186 698.052 Q32.4621 700.789 32.4621 705.468 M27.4968 705.468 Q27.4968 697.829 32.4621 693.468 Q37.4273 689.108 46.212 689.108 Q54.9649 689.108 59.9619 693.468 Q64.9272 697.829 64.9272 705.468 Q64.9272 713.138 59.9619 717.499 Q54.9649 721.827 46.212 721.827 Q37.4273 721.827 32.4621 717.499 Q27.4968 713.138 27.4968 705.468 Z" fill="#000000" fill-rule="nonzero" fill-opacity="1" /><path clip-path="url(#clip320)" d="M29.4065 656.674 L34.9447 656.674 Q33.6716 659.157 33.035 661.831 Q32.3984 664.504 32.3984 667.369 Q32.3984 671.729 33.7352 673.925 Q35.072 676.09 37.7456 676.09 Q39.7826 676.09 40.9603 674.53 Q42.1061 672.971 43.1565 668.26 L43.6021 666.255 Q44.9389 660.016 47.3897 657.406 Q49.8086 654.765 54.1691 654.765 Q59.1344 654.765 62.0308 658.711 Q64.9272 662.626 64.9272 669.501 Q64.9272 672.366 64.3543 675.485 Q63.8132 678.572 62.6992 682.01 L56.6518 682.01 Q58.3387 678.763 59.198 675.612 Q60.0256 672.461 60.0256 669.374 Q60.0256 665.236 58.6251 663.008 Q57.1929 660.78 54.6147 660.78 Q52.2276 660.78 50.9545 662.404 Q49.6813 663.995 48.5037 669.438 L48.0262 671.475 Q46.8804 676.917 44.5251 679.336 Q42.138 681.755 38.0002 681.755 Q32.9713 681.755 30.2341 678.19 Q27.4968 674.626 27.4968 668.069 Q27.4968 664.823 27.9743 661.958 Q28.4517 659.093 29.4065 656.674 Z" fill="#000000" fill-rule="nonzero" fill-opacity="1" /><path clip-path="url(#clip320)" d="M18.2347 639.646 L28.3562 639.646 L28.3562 627.583 L32.9077 627.583 L32.9077 639.646 L52.2594 639.646 Q56.6199 639.646 57.8613 638.468 Q59.1026 637.259 59.1026 633.599 L59.1026 627.583 L64.0042 627.583 L64.0042 633.599 Q64.0042 640.378 61.4897 642.956 Q58.9434 645.534 52.2594 645.534 L32.9077 645.534 L32.9077 649.831 L28.3562 649.831 L28.3562 645.534 L18.2347 645.534 L18.2347 639.646 Z" fill="#000000" fill-rule="nonzero" fill-opacity="1" /><path clip-path="url(#clip320)" d="M64.0042 586.652 L16.4842 604.794 L16.4842 598.078 L56.4926 583.023 L16.4842 567.936 L16.4842 561.252 L64.0042 579.363 L64.0042 586.652 Z" fill="#000000" fill-rule="nonzero" fill-opacity="1" /><path clip-path="url(#clip320)" d="M46.0847 543.428 Q46.0847 550.526 47.7079 553.264 Q49.3312 556.001 53.2461 556.001 Q56.3653 556.001 58.2114 553.964 Q60.0256 551.895 60.0256 548.362 Q60.0256 543.492 56.5881 540.564 Q53.1188 537.604 47.3897 537.604 L46.0847 537.604 L46.0847 543.428 M43.6657 531.747 L64.0042 531.747 L64.0042 537.604 L58.5933 537.604 Q61.8398 539.609 63.3994 542.601 Q64.9272 545.593 64.9272 549.922 Q64.9272 555.396 61.8716 558.643 Q58.7843 561.857 53.6281 561.857 Q47.6125 561.857 44.5569 557.847 Q41.5014 553.805 41.5014 545.816 L41.5014 537.604 L40.9285 537.604 Q36.8862 537.604 34.6901 540.277 Q32.4621 542.919 32.4621 547.725 Q32.4621 550.781 33.1941 553.677 Q33.9262 556.574 35.3903 559.247 L29.9795 559.247 Q28.7381 556.033 28.1334 553.009 Q27.4968 549.985 27.4968 547.121 Q27.4968 539.386 31.5072 535.567 Q35.5176 531.747 43.6657 531.747 Z" fill="#000000" fill-rule="nonzero" fill-opacity="1" /><path clip-path="url(#clip320)" d="M14.479 519.684 L14.479 513.828 L64.0042 513.828 L64.0042 519.684 L14.479 519.684 Z" fill="#000000" fill-rule="nonzero" fill-opacity="1" /><path clip-path="url(#clip320)" d="M49.9359 502.179 L28.3562 502.179 L28.3562 496.322 L49.7131 496.322 Q54.7739 496.322 57.3202 494.349 Q59.8346 492.376 59.8346 488.429 Q59.8346 483.686 56.8109 480.949 Q53.7872 478.18 48.5673 478.18 L28.3562 478.18 L28.3562 472.324 L64.0042 472.324 L64.0042 478.18 L58.5296 478.18 Q61.7762 480.313 63.3676 483.145 Q64.9272 485.946 64.9272 489.67 Q64.9272 495.813 61.1078 498.996 Q57.2883 502.179 49.9359 502.179 M27.4968 487.442 L27.4968 487.442 Z" fill="#000000" fill-rule="nonzero" fill-opacity="1" /><path clip-path="url(#clip320)" d="M44.7161 429.769 L47.5806 429.769 L47.5806 456.696 Q53.6281 456.314 56.8109 453.067 Q59.9619 449.789 59.9619 443.964 Q59.9619 440.59 59.1344 437.439 Q58.3069 434.257 56.6518 431.137 L62.1899 431.137 Q63.5267 434.288 64.227 437.599 Q64.9272 440.909 64.9272 444.314 Q64.9272 452.844 59.9619 457.842 Q54.9967 462.807 46.5303 462.807 Q37.7774 462.807 32.6531 458.096 Q27.4968 453.354 27.4968 445.333 Q27.4968 438.14 32.1438 433.97 Q36.7589 429.769 44.7161 429.769 M42.9973 435.625 Q38.1912 435.689 35.3266 438.331 Q32.4621 440.941 32.4621 445.269 Q32.4621 450.171 35.2312 453.131 Q38.0002 456.059 43.0292 456.505 L42.9973 435.625 Z" fill="#000000" fill-rule="nonzero" fill-opacity="1" /><path clip-path="url(#clip320)" d="M14.5426 421.08 L14.5426 415.987 Q22.0542 411.213 29.2474 408.857 Q36.4406 406.47 43.5384 406.47 Q50.668 406.47 57.8931 408.857 Q65.1182 411.213 72.5979 415.987 L72.5979 421.08 Q65.3091 416.846 58.1159 414.778 Q50.8908 412.677 43.5384 412.677 Q36.186 412.677 29.0246 414.778 Q21.8632 416.846 14.5426 421.08 Z" fill="#000000" fill-rule="nonzero" fill-opacity="1" /><path clip-path="url(#clip320)" d="M804.424 12.096 L812.688 12.096 L825.408 63.2184 L838.087 12.096 L847.283 12.096 L860.003 63.2184 L872.682 12.096 L880.986 12.096 L865.795 72.576 L855.506 72.576 L842.746 20.0763 L829.864 72.576 L819.575 72.576 L804.424 12.096 Z" fill="#000000" fill-rule="nonzero" fill-opacity="1" /><path clip-path="url(#clip320)" d="M906.831 49.7694 Q897.798 49.7694 894.314 51.8354 Q890.83 53.9013 890.83 58.8839 Q890.83 62.8538 893.423 65.2034 Q896.056 67.5124 900.552 67.5124 Q906.75 67.5124 910.477 63.1374 Q914.244 58.7219 914.244 51.4303 L914.244 49.7694 L906.831 49.7694 M921.698 46.6907 L921.698 72.576 L914.244 72.576 L914.244 65.6895 Q911.692 69.8214 907.884 71.8063 Q904.076 73.7508 898.567 73.7508 Q891.6 73.7508 887.468 69.8619 Q883.376 65.9325 883.376 59.3701 Q883.376 51.7138 888.48 47.825 Q893.625 43.9361 903.793 43.9361 L914.244 43.9361 L914.244 43.2069 Q914.244 38.0623 910.841 35.2672 Q907.479 32.4315 901.362 32.4315 Q897.473 32.4315 893.787 33.3632 Q890.101 34.295 886.698 36.1584 L886.698 29.2718 Q890.789 27.692 894.638 26.9223 Q898.486 26.1121 902.132 26.1121 Q911.976 26.1121 916.837 31.2163 Q921.698 36.3204 921.698 46.6907 Z" fill="#000000" fill-rule="nonzero" fill-opacity="1" /><path clip-path="url(#clip320)" d="M944.423 14.324 L944.423 27.2059 L959.776 27.2059 L959.776 32.9987 L944.423 32.9987 L944.423 57.6282 Q944.423 63.1779 945.922 64.7578 Q947.462 66.3376 952.12 66.3376 L959.776 66.3376 L959.776 72.576 L952.12 72.576 Q943.492 72.576 940.211 69.3758 Q936.929 66.1351 936.929 57.6282 L936.929 32.9987 L931.461 32.9987 L931.461 27.2059 L936.929 27.2059 L936.929 14.324 L944.423 14.324 Z" fill="#000000" fill-rule="nonzero" fill-opacity="1" /><path clip-path="url(#clip320)" d="M1008.39 48.0275 L1008.39 51.6733 L974.117 51.6733 Q974.603 59.3701 978.735 63.421 Q982.907 67.4314 990.32 67.4314 Q994.614 67.4314 998.625 66.3781 Q1002.68 65.3249 1006.65 63.2184 L1006.65 70.267 Q1002.63 71.9684 998.422 72.8596 Q994.209 73.7508 989.875 73.7508 Q979.018 73.7508 972.658 67.4314 Q966.339 61.1119 966.339 50.3365 Q966.339 39.1965 972.334 32.6746 Q978.37 26.1121 988.578 26.1121 Q997.733 26.1121 1003.04 32.0264 Q1008.39 37.9003 1008.39 48.0275 M1000.93 45.84 Q1000.85 39.7232 997.49 36.0774 Q994.169 32.4315 988.659 32.4315 Q982.421 32.4315 978.654 35.9558 Q974.927 39.4801 974.36 45.8805 L1000.93 45.84 Z" fill="#000000" fill-rule="nonzero" fill-opacity="1" /><path clip-path="url(#clip320)" d="M1046.91 34.1734 Q1045.66 33.4443 1044.16 33.1202 Q1042.7 32.7556 1040.92 32.7556 Q1034.6 32.7556 1031.19 36.8875 Q1027.83 40.9789 1027.83 48.6757 L1027.83 72.576 L1020.34 72.576 L1020.34 27.2059 L1027.83 27.2059 L1027.83 34.2544 Q1030.18 30.1225 1033.95 28.1376 Q1037.72 26.1121 1043.1 26.1121 Q1043.87 26.1121 1044.8 26.2337 Q1045.74 26.3147 1046.87 26.5172 L1046.91 34.1734 Z" fill="#000000" fill-rule="nonzero" fill-opacity="1" /><path clip-path="url(#clip320)" d="M1077.7 9.54393 L1077.7 15.7418 L1070.57 15.7418 Q1066.56 15.7418 1064.98 17.3622 Q1063.44 18.9825 1063.44 23.1955 L1063.44 27.2059 L1075.71 27.2059 L1075.71 32.9987 L1063.44 32.9987 L1063.44 72.576 L1055.94 72.576 L1055.94 32.9987 L1048.82 32.9987 L1048.82 27.2059 L1055.94 27.2059 L1055.94 24.0462 Q1055.94 16.471 1059.47 13.0277 Q1062.99 9.54393 1070.65 9.54393 L1077.7 9.54393 Z" fill="#000000" fill-rule="nonzero" fill-opacity="1" /><path clip-path="url(#clip320)" d="M1104.56 49.7694 Q1095.52 49.7694 1092.04 51.8354 Q1088.55 53.9013 1088.55 58.8839 Q1088.55 62.8538 1091.15 65.2034 Q1093.78 67.5124 1098.28 67.5124 Q1104.47 67.5124 1108.2 63.1374 Q1111.97 58.7219 1111.97 51.4303 L1111.97 49.7694 L1104.56 49.7694 M1119.42 46.6907 L1119.42 72.576 L1111.97 72.576 L1111.97 65.6895 Q1109.42 69.8214 1105.61 71.8063 Q1101.8 73.7508 1096.29 73.7508 Q1089.32 73.7508 1085.19 69.8619 Q1081.1 65.9325 1081.1 59.3701 Q1081.1 51.7138 1086.21 47.825 Q1091.35 43.9361 1101.52 43.9361 L1111.97 43.9361 L1111.97 43.2069 Q1111.97 38.0623 1108.57 35.2672 Q1105.2 32.4315 1099.09 32.4315 Q1095.2 32.4315 1091.51 33.3632 Q1087.83 34.295 1084.42 36.1584 L1084.42 29.2718 Q1088.51 27.692 1092.36 26.9223 Q1096.21 26.1121 1099.86 26.1121 Q1109.7 26.1121 1114.56 31.2163 Q1119.42 36.3204 1119.42 46.6907 Z" fill="#000000" fill-rule="nonzero" fill-opacity="1" /><path clip-path="url(#clip320)" d="M1134.78 9.54393 L1142.23 9.54393 L1142.23 72.576 L1134.78 72.576 L1134.78 9.54393 Z" fill="#000000" fill-rule="nonzero" fill-opacity="1" /><path clip-path="url(#clip320)" d="M1157.83 9.54393 L1165.28 9.54393 L1165.28 72.576 L1157.83 72.576 L1157.83 9.54393 Z" fill="#000000" fill-rule="nonzero" fill-opacity="1" /><path clip-path="url(#clip320)" d="M1214.46 65.7705 L1214.46 89.8329 L1206.96 89.8329 L1206.96 27.2059 L1214.46 27.2059 L1214.46 34.0924 Q1216.81 30.0415 1220.37 28.0971 Q1223.98 26.1121 1228.96 26.1121 Q1237.22 26.1121 1242.37 32.6746 Q1247.55 39.2371 1247.55 49.9314 Q1247.55 60.6258 1242.37 67.1883 Q1237.22 73.7508 1228.96 73.7508 Q1223.98 73.7508 1220.37 71.8063 Q1216.81 69.8214 1214.46 65.7705 M1239.82 49.9314 Q1239.82 41.7081 1236.41 37.0496 Q1233.05 32.3505 1227.14 32.3505 Q1221.22 32.3505 1217.82 37.0496 Q1214.46 41.7081 1214.46 49.9314 Q1214.46 58.1548 1217.82 62.8538 Q1221.22 67.5124 1227.14 67.5124 Q1233.05 67.5124 1236.41 62.8538 Q1239.82 58.1548 1239.82 49.9314 Z" fill="#000000" fill-rule="nonzero" fill-opacity="1" /><path clip-path="url(#clip320)" d="M1259.91 9.54393 L1267.36 9.54393 L1267.36 72.576 L1259.91 72.576 L1259.91 9.54393 Z" fill="#000000" fill-rule="nonzero" fill-opacity="1" /><path clip-path="url(#clip320)" d="M1300.54 32.4315 Q1294.54 32.4315 1291.06 37.1306 Q1287.58 41.7891 1287.58 49.9314 Q1287.58 58.0738 1291.02 62.7728 Q1294.5 67.4314 1300.54 67.4314 Q1306.49 67.4314 1309.98 62.7323 Q1313.46 58.0333 1313.46 49.9314 Q1313.46 41.8701 1309.98 37.1711 Q1306.49 32.4315 1300.54 32.4315 M1300.54 26.1121 Q1310.26 26.1121 1315.81 32.4315 Q1321.36 38.7509 1321.36 49.9314 Q1321.36 61.0714 1315.81 67.4314 Q1310.26 73.7508 1300.54 73.7508 Q1290.78 73.7508 1285.23 67.4314 Q1279.72 61.0714 1279.72 49.9314 Q1279.72 38.7509 1285.23 32.4315 Q1290.78 26.1121 1300.54 26.1121 Z" fill="#000000" fill-rule="nonzero" fill-opacity="1" /><path clip-path="url(#clip320)" d="M1341.09 14.324 L1341.09 27.2059 L1356.44 27.2059 L1356.44 32.9987 L1341.09 32.9987 L1341.09 57.6282 Q1341.09 63.1779 1342.59 64.7578 Q1344.13 66.3376 1348.78 66.3376 L1356.44 66.3376 L1356.44 72.576 L1348.78 72.576 Q1340.16 72.576 1336.88 69.3758 Q1333.59 66.1351 1333.59 57.6282 L1333.59 32.9987 L1328.13 32.9987 L1328.13 27.2059 L1333.59 27.2059 L1333.59 14.324 L1341.09 14.324 Z" fill="#000000" fill-rule="nonzero" fill-opacity="1" /><path clip-path="url(#clip320)" d="M1395.09 65.6895 L1408.45 65.6895 L1408.45 19.5497 L1393.91 22.4663 L1393.91 15.0127 L1408.37 12.096 L1416.56 12.096 L1416.56 65.6895 L1429.92 65.6895 L1429.92 72.576 L1395.09 72.576 L1395.09 65.6895 Z" fill="#000000" fill-rule="nonzero" fill-opacity="1" /><path clip-path="url(#clip320)" d="M1453.5 65.6895 L1482.06 65.6895 L1482.06 72.576 L1443.66 72.576 L1443.66 65.6895 Q1448.32 60.8689 1456.34 52.7671 Q1464.4 44.6248 1466.46 42.2752 Q1470.39 37.8598 1471.93 34.8216 Q1473.51 31.7429 1473.51 28.7857 Q1473.51 23.9651 1470.11 20.927 Q1466.75 17.8888 1461.32 17.8888 Q1457.47 17.8888 1453.18 19.2256 Q1448.92 20.5624 1444.06 23.2765 L1444.06 15.0127 Q1449 13.0277 1453.3 12.015 Q1457.59 11.0023 1461.16 11.0023 Q1470.55 11.0023 1476.15 15.7013 Q1481.74 20.4004 1481.74 28.2591 Q1481.74 31.9859 1480.32 35.3482 Q1478.94 38.6699 1475.25 43.2069 Q1474.24 44.3817 1468.81 50.0125 Q1463.38 55.6027 1453.5 65.6895 Z" fill="#000000" fill-rule="nonzero" fill-opacity="1" /><path clip-path="url(#clip320)" d="M1499.48 71.3202 L1499.48 63.8666 Q1502.56 65.3249 1505.72 66.0946 Q1508.88 66.8642 1511.91 66.8642 Q1520.02 66.8642 1524.27 61.436 Q1528.56 55.9673 1529.17 44.8678 Q1526.82 48.3516 1523.22 50.215 Q1519.61 52.0784 1515.24 52.0784 Q1506.16 52.0784 1500.86 46.6097 Q1495.59 41.1005 1495.59 31.5808 Q1495.59 22.2638 1501.1 16.633 Q1506.61 11.0023 1515.76 11.0023 Q1526.25 11.0023 1531.76 19.0636 Q1537.31 27.0843 1537.31 42.3968 Q1537.31 56.6965 1530.51 65.2439 Q1523.74 73.7508 1512.28 73.7508 Q1509.2 73.7508 1506.04 73.1431 Q1502.88 72.5355 1499.48 71.3202 M1515.76 45.678 Q1521.27 45.678 1524.47 41.9107 Q1527.71 38.1433 1527.71 31.5808 Q1527.71 25.0589 1524.47 21.2916 Q1521.27 17.4837 1515.76 17.4837 Q1510.25 17.4837 1507.01 21.2916 Q1503.81 25.0589 1503.81 31.5808 Q1503.81 38.1433 1507.01 41.9107 Q1510.25 45.678 1515.76 45.678 Z" fill="#000000" fill-rule="nonzero" fill-opacity="1" /><path clip-path="url(#clip320)" d="M1564.21 12.096 L1571.1 12.096 L1550.03 80.2727 L1543.15 80.2727 L1564.21 12.096 Z" fill="#000000" fill-rule="nonzero" fill-opacity="1" /><path clip-path="url(#clip320)" d="M1587.02 65.6895 L1615.58 65.6895 L1615.58 72.576 L1577.17 72.576 L1577.17 65.6895 Q1581.83 60.8689 1589.85 52.7671 Q1597.92 44.6248 1599.98 42.2752 Q1603.91 37.8598 1605.45 34.8216 Q1607.03 31.7429 1607.03 28.7857 Q1607.03 23.9651 1603.63 20.927 Q1600.26 17.8888 1594.84 17.8888 Q1590.99 17.8888 1586.69 19.2256 Q1582.44 20.5624 1577.58 23.2765 L1577.58 15.0127 Q1582.52 13.0277 1586.82 12.015 Q1591.11 11.0023 1594.67 11.0023 Q1604.07 11.0023 1609.66 15.7013 Q1615.25 20.4004 1615.25 28.2591 Q1615.25 31.9859 1613.84 35.3482 Q1612.46 38.6699 1608.77 43.2069 Q1607.76 44.3817 1602.33 50.0125 Q1596.9 55.6027 1587.02 65.6895 Z" fill="#000000" fill-rule="nonzero" fill-opacity="1" /><path clip-path="url(#clip320)" d="M1655.24 19.2256 L1634.58 51.5113 L1655.24 51.5113 L1655.24 19.2256 M1653.09 12.096 L1663.38 12.096 L1663.38 51.5113 L1672.01 51.5113 L1672.01 58.3168 L1663.38 58.3168 L1663.38 72.576 L1655.24 72.576 L1655.24 58.3168 L1627.93 58.3168 L1627.93 50.4176 L1653.09 12.096 Z" fill="#000000" fill-rule="nonzero" fill-opacity="1" /><path clip-path="url(#clip320)" d="M1703.04 43.8551 Q1697.2 43.8551 1693.84 46.9743 Q1690.52 50.0935 1690.52 55.5622 Q1690.52 61.0309 1693.84 64.1501 Q1697.2 67.2693 1703.04 67.2693 Q1708.87 67.2693 1712.23 64.1501 Q1715.59 60.9904 1715.59 55.5622 Q1715.59 50.0935 1712.23 46.9743 Q1708.91 43.8551 1703.04 43.8551 M1694.85 40.3713 Q1689.59 39.075 1686.63 35.4697 Q1683.71 31.8644 1683.71 26.6793 Q1683.71 19.4281 1688.86 15.2152 Q1694.04 11.0023 1703.04 11.0023 Q1712.07 11.0023 1717.21 15.2152 Q1722.36 19.4281 1722.36 26.6793 Q1722.36 31.8644 1719.4 35.4697 Q1716.49 39.075 1711.26 40.3713 Q1717.17 41.7486 1720.46 45.759 Q1723.78 49.7694 1723.78 55.5622 Q1723.78 64.3527 1718.39 69.0517 Q1713.04 73.7508 1703.04 73.7508 Q1693.03 73.7508 1687.64 69.0517 Q1682.3 64.3527 1682.3 55.5622 Q1682.3 49.7694 1685.62 45.759 Q1688.94 41.7486 1694.85 40.3713 M1691.86 27.4489 Q1691.86 32.148 1694.77 34.7811 Q1697.73 37.4142 1703.04 37.4142 Q1708.3 37.4142 1711.26 34.7811 Q1714.26 32.148 1714.26 27.4489 Q1714.26 22.7499 1711.26 20.1168 Q1708.3 17.4837 1703.04 17.4837 Q1697.73 17.4837 1694.77 20.1168 Q1691.86 22.7499 1691.86 27.4489 Z" fill="#000000" fill-rule="nonzero" fill-opacity="1" /><circle clip-path="url(#clip322)" cx="237.067" cy="1364.1" r="6.33925" fill="#cb4678" fill-rule="evenodd" fill-opacity="1" stroke="none"/>
<circle clip-path="url(#clip322)" cx="253.115" cy="1364.1" r="6.33925" fill="#cb4678" fill-rule="evenodd" fill-opacity="1" stroke="none"/>
<circle clip-path="url(#clip322)" cx="269.162" cy="1364.1" r="6.33925" fill="#cb4678" fill-rule="evenodd" fill-opacity="1" stroke="none"/>
<circle clip-path="url(#clip322)" cx="285.209" cy="1364.1" r="6.33925" fill="#cb4678" fill-rule="evenodd" fill-opacity="1" stroke="none"/>
<circle clip-path="url(#clip322)" cx="301.257" cy="1364.1" r="6.33925" fill="#cb4678" fill-rule="evenodd" fill-opacity="1" stroke="none"/>
<circle clip-path="url(#clip322)" cx="317.304" cy="1364.1" r="6.33925" fill="#cb4678" fill-rule="evenodd" fill-opacity="1" stroke="none"/>
<circle clip-path="url(#clip322)" cx="333.352" cy="1364.1" r="6.33925" fill="#cb4678" fill-rule="evenodd" fill-opacity="1" stroke="none"/>
<circle clip-path="url(#clip322)" cx="349.399" cy="1364.1" r="6.33925" fill="#cb4678" fill-rule="evenodd" fill-opacity="1" stroke="none"/>
<circle clip-path="url(#clip322)" cx="365.446" cy="1364.1" r="6.33925" fill="#cb4678" fill-rule="evenodd" fill-opacity="1" stroke="none"/>
<circle clip-path="url(#clip322)" cx="381.494" cy="1364.1" r="6.33925" fill="#cb4678" fill-rule="evenodd" fill-opacity="1" stroke="none"/>
<circle clip-path="url(#clip322)" cx="397.541" cy="1364.1" r="6.33925" fill="#cb4678" fill-rule="evenodd" fill-opacity="1" stroke="none"/>
<circle clip-path="url(#clip322)" cx="413.589" cy="1364.1" r="6.33925" fill="#cb4678" fill-rule="evenodd" fill-opacity="1" stroke="none"/>
<circle clip-path="url(#clip322)" cx="429.636" cy="1364.1" r="6.33925" fill="#cb4678" fill-rule="evenodd" fill-opacity="1" stroke="none"/>
<circle clip-path="url(#clip322)" cx="445.683" cy="1364.1" r="6.33925" fill="#cb4678" fill-rule="evenodd" fill-opacity="1" stroke="none"/>
<circle clip-path="url(#clip322)" cx="461.731" cy="1364.1" r="6.33925" fill="#cb4678" fill-rule="evenodd" fill-opacity="1" stroke="none"/>
<circle clip-path="url(#clip322)" cx="477.778" cy="1364.1" r="6.33925" fill="#cb4678" fill-rule="evenodd" fill-opacity="1" stroke="none"/>
<circle clip-path="url(#clip322)" cx="493.826" cy="1364.1" r="6.33925" fill="#cb4678" fill-rule="evenodd" fill-opacity="1" stroke="none"/>
<circle clip-path="url(#clip322)" cx="509.873" cy="1364.1" r="6.33925" fill="#cb4678" fill-rule="evenodd" fill-opacity="1" stroke="none"/>
<circle clip-path="url(#clip322)" cx="525.92" cy="1364.1" r="6.33925" fill="#cb4678" fill-rule="evenodd" fill-opacity="1" stroke="none"/>
<circle clip-path="url(#clip322)" cx="541.968" cy="1364.1" r="6.33925" fill="#cb4678" fill-rule="evenodd" fill-opacity="1" stroke="none"/>
<circle clip-path="url(#clip322)" cx="558.015" cy="1364.1" r="6.33925" fill="#cb4678" fill-rule="evenodd" fill-opacity="1" stroke="none"/>
<circle clip-path="url(#clip322)" cx="574.063" cy="1364.1" r="6.33925" fill="#cb4678" fill-rule="evenodd" fill-opacity="1" stroke="none"/>
<circle clip-path="url(#clip322)" cx="590.11" cy="1364.1" r="6.33925" fill="#cb4678" fill-rule="evenodd" fill-opacity="1" stroke="none"/>
<circle clip-path="url(#clip322)" cx="606.157" cy="1364.1" r="6.33925" fill="#cb4678" fill-rule="evenodd" fill-opacity="1" stroke="none"/>
<circle clip-path="url(#clip322)" cx="622.205" cy="1364.1" r="6.33925" fill="#cb4678" fill-rule="evenodd" fill-opacity="1" stroke="none"/>
<circle clip-path="url(#clip322)" cx="638.252" cy="1364.1" r="6.33925" fill="#cb4678" fill-rule="evenodd" fill-opacity="1" stroke="none"/>
<circle clip-path="url(#clip322)" cx="654.3" cy="1364.1" r="6.33925" fill="#cb4678" fill-rule="evenodd" fill-opacity="1" stroke="none"/>
<circle clip-path="url(#clip322)" cx="670.347" cy="1364.1" r="6.33925" fill="#cb4678" fill-rule="evenodd" fill-opacity="1" stroke="none"/>
<circle clip-path="url(#clip322)" cx="686.394" cy="1364.1" r="6.33925" fill="#cb4678" fill-rule="evenodd" fill-opacity="1" stroke="none"/>
<circle clip-path="url(#clip322)" cx="702.442" cy="1364.1" r="6.33925" fill="#cb4678" fill-rule="evenodd" fill-opacity="1" stroke="none"/>
<circle clip-path="url(#clip322)" cx="718.489" cy="1364.1" r="6.33925" fill="#cb4678" fill-rule="evenodd" fill-opacity="1" stroke="none"/>
<circle clip-path="url(#clip322)" cx="734.536" cy="1364.1" r="6.33925" fill="#cb4678" fill-rule="evenodd" fill-opacity="1" stroke="none"/>
<circle clip-path="url(#clip322)" cx="750.584" cy="1364.1" r="6.33925" fill="#cb4678" fill-rule="evenodd" fill-opacity="1" stroke="none"/>
<circle clip-path="url(#clip322)" cx="766.631" cy="1364.1" r="6.33925" fill="#cb4678" fill-rule="evenodd" fill-opacity="1" stroke="none"/>
<circle clip-path="url(#clip322)" cx="782.679" cy="1364.1" r="6.33925" fill="#cb4678" fill-rule="evenodd" fill-opacity="1" stroke="none"/>
<circle clip-path="url(#clip322)" cx="798.726" cy="1364.1" r="6.33925" fill="#cb4678" fill-rule="evenodd" fill-opacity="1" stroke="none"/>
<circle clip-path="url(#clip322)" cx="814.773" cy="1364.1" r="6.33925" fill="#cb4678" fill-rule="evenodd" fill-opacity="1" stroke="none"/>
<circle clip-path="url(#clip322)" cx="830.821" cy="1364.1" r="6.33925" fill="#cb4678" fill-rule="evenodd" fill-opacity="1" stroke="none"/>
<circle clip-path="url(#clip322)" cx="846.868" cy="1364.1" r="6.33925" fill="#cb4678" fill-rule="evenodd" fill-opacity="1" stroke="none"/>
<circle clip-path="url(#clip322)" cx="862.916" cy="1364.1" r="6.33925" fill="#cb4678" fill-rule="evenodd" fill-opacity="1" stroke="none"/>
<circle clip-path="url(#clip322)" cx="878.963" cy="1364.1" r="6.33925" fill="#cb4678" fill-rule="evenodd" fill-opacity="1" stroke="none"/>
<circle clip-path="url(#clip322)" cx="895.01" cy="1364.1" r="6.33925" fill="#cb4678" fill-rule="evenodd" fill-opacity="1" stroke="none"/>
<circle clip-path="url(#clip322)" cx="911.058" cy="1364.1" r="6.33925" fill="#cb4678" fill-rule="evenodd" fill-opacity="1" stroke="none"/>
<circle clip-path="url(#clip322)" cx="927.105" cy="1364.1" r="6.33925" fill="#cb4678" fill-rule="evenodd" fill-opacity="1" stroke="none"/>
<circle clip-path="url(#clip322)" cx="943.153" cy="1364.1" r="6.33925" fill="#cb4678" fill-rule="evenodd" fill-opacity="1" stroke="none"/>
<circle clip-path="url(#clip322)" cx="959.2" cy="1364.1" r="6.33925" fill="#cb4678" fill-rule="evenodd" fill-opacity="1" stroke="none"/>
<circle clip-path="url(#clip322)" cx="975.247" cy="1364.1" r="6.33925" fill="#cb4678" fill-rule="evenodd" fill-opacity="1" stroke="none"/>
<circle clip-path="url(#clip322)" cx="991.295" cy="1364.1" r="6.33925" fill="#cb4678" fill-rule="evenodd" fill-opacity="1" stroke="none"/>
<circle clip-path="url(#clip322)" cx="1007.34" cy="1364.1" r="6.33925" fill="#cb4678" fill-rule="evenodd" fill-opacity="1" stroke="none"/>
<circle clip-path="url(#clip322)" cx="1023.39" cy="1364.1" r="6.33925" fill="#cb4678" fill-rule="evenodd" fill-opacity="1" stroke="none"/>
<circle clip-path="url(#clip322)" cx="1039.44" cy="1364.1" r="6.33925" fill="#cb4678" fill-rule="evenodd" fill-opacity="1" stroke="none"/>
<circle clip-path="url(#clip322)" cx="1055.48" cy="1364.1" r="6.33925" fill="#cb4678" fill-rule="evenodd" fill-opacity="1" stroke="none"/>
<circle clip-path="url(#clip322)" cx="1071.53" cy="1364.1" r="6.33925" fill="#cb4678" fill-rule="evenodd" fill-opacity="1" stroke="none"/>
<circle clip-path="url(#clip322)" cx="1087.58" cy="1364.1" r="6.33925" fill="#cb4678" fill-rule="evenodd" fill-opacity="1" stroke="none"/>
<circle clip-path="url(#clip322)" cx="1103.63" cy="1364.1" r="6.33925" fill="#cb4678" fill-rule="evenodd" fill-opacity="1" stroke="none"/>
<circle clip-path="url(#clip322)" cx="1119.67" cy="1364.1" r="6.33925" fill="#cb4678" fill-rule="evenodd" fill-opacity="1" stroke="none"/>
<circle clip-path="url(#clip322)" cx="1135.72" cy="1364.1" r="6.33925" fill="#cb4678" fill-rule="evenodd" fill-opacity="1" stroke="none"/>
<circle clip-path="url(#clip322)" cx="1151.77" cy="1364.1" r="6.33925" fill="#cb4678" fill-rule="evenodd" fill-opacity="1" stroke="none"/>
<circle clip-path="url(#clip322)" cx="1167.82" cy="1364.1" r="6.33925" fill="#cb4678" fill-rule="evenodd" fill-opacity="1" stroke="none"/>
<circle clip-path="url(#clip322)" cx="1183.86" cy="1364.1" r="6.33925" fill="#cb4678" fill-rule="evenodd" fill-opacity="1" stroke="none"/>
<circle clip-path="url(#clip322)" cx="1199.91" cy="1364.1" r="6.33925" fill="#cb4678" fill-rule="evenodd" fill-opacity="1" stroke="none"/>
<circle clip-path="url(#clip322)" cx="1215.96" cy="1364.1" r="6.33925" fill="#cb4678" fill-rule="evenodd" fill-opacity="1" stroke="none"/>
<circle clip-path="url(#clip322)" cx="1232.01" cy="1364.1" r="6.33925" fill="#cb4678" fill-rule="evenodd" fill-opacity="1" stroke="none"/>
<circle clip-path="url(#clip322)" cx="1248.05" cy="1364.1" r="6.33925" fill="#cb4678" fill-rule="evenodd" fill-opacity="1" stroke="none"/>
<circle clip-path="url(#clip322)" cx="1264.1" cy="1364.1" r="6.33925" fill="#cb4678" fill-rule="evenodd" fill-opacity="1" stroke="none"/>
<circle clip-path="url(#clip322)" cx="1280.15" cy="1364.1" r="6.33925" fill="#cb4678" fill-rule="evenodd" fill-opacity="1" stroke="none"/>
<circle clip-path="url(#clip322)" cx="1296.2" cy="1364.1" r="6.33925" fill="#cb4678" fill-rule="evenodd" fill-opacity="1" stroke="none"/>
<circle clip-path="url(#clip322)" cx="1312.24" cy="1364.1" r="6.33925" fill="#cb4678" fill-rule="evenodd" fill-opacity="1" stroke="none"/>
<circle clip-path="url(#clip322)" cx="1328.29" cy="1364.1" r="6.33925" fill="#cb4678" fill-rule="evenodd" fill-opacity="1" stroke="none"/>
<circle clip-path="url(#clip322)" cx="1344.34" cy="1364.1" r="6.33925" fill="#cb4678" fill-rule="evenodd" fill-opacity="1" stroke="none"/>
<circle clip-path="url(#clip322)" cx="1360.38" cy="1364.1" r="6.33925" fill="#cb4678" fill-rule="evenodd" fill-opacity="1" stroke="none"/>
<circle clip-path="url(#clip322)" cx="1376.43" cy="1364.1" r="6.33925" fill="#cb4678" fill-rule="evenodd" fill-opacity="1" stroke="none"/>
<circle clip-path="url(#clip322)" cx="1392.48" cy="1364.1" r="6.33925" fill="#cb4678" fill-rule="evenodd" fill-opacity="1" stroke="none"/>
<circle clip-path="url(#clip322)" cx="1408.53" cy="1364.1" r="6.33925" fill="#cb4678" fill-rule="evenodd" fill-opacity="1" stroke="none"/>
<circle clip-path="url(#clip322)" cx="1424.57" cy="1364.1" r="6.33925" fill="#cb4678" fill-rule="evenodd" fill-opacity="1" stroke="none"/>
<circle clip-path="url(#clip322)" cx="1440.62" cy="1364.1" r="6.33925" fill="#cb4678" fill-rule="evenodd" fill-opacity="1" stroke="none"/>
<circle clip-path="url(#clip322)" cx="1456.67" cy="1364.1" r="6.33925" fill="#cb4678" fill-rule="evenodd" fill-opacity="1" stroke="none"/>
<circle clip-path="url(#clip322)" cx="1472.72" cy="1364.1" r="6.33925" fill="#cb4678" fill-rule="evenodd" fill-opacity="1" stroke="none"/>
<circle clip-path="url(#clip322)" cx="1488.76" cy="1364.1" r="6.33925" fill="#cb4678" fill-rule="evenodd" fill-opacity="1" stroke="none"/>
<circle clip-path="url(#clip322)" cx="1504.81" cy="1364.1" r="6.33925" fill="#cb4678" fill-rule="evenodd" fill-opacity="1" stroke="none"/>
<circle clip-path="url(#clip322)" cx="1520.86" cy="1364.1" r="6.33925" fill="#cb4678" fill-rule="evenodd" fill-opacity="1" stroke="none"/>
<circle clip-path="url(#clip322)" cx="1536.91" cy="1364.1" r="6.33925" fill="#cb4678" fill-rule="evenodd" fill-opacity="1" stroke="none"/>
<circle clip-path="url(#clip322)" cx="1552.95" cy="1364.1" r="6.33925" fill="#cb4678" fill-rule="evenodd" fill-opacity="1" stroke="none"/>
<circle clip-path="url(#clip322)" cx="1569" cy="1364.1" r="6.33925" fill="#cb4678" fill-rule="evenodd" fill-opacity="1" stroke="none"/>
<circle clip-path="url(#clip322)" cx="1585.05" cy="1364.1" r="6.33925" fill="#cb4678" fill-rule="evenodd" fill-opacity="1" stroke="none"/>
<circle clip-path="url(#clip322)" cx="1601.1" cy="1364.1" r="6.33925" fill="#cb4678" fill-rule="evenodd" fill-opacity="1" stroke="none"/>
<circle clip-path="url(#clip322)" cx="1617.14" cy="1364.1" r="6.33925" fill="#cb4678" fill-rule="evenodd" fill-opacity="1" stroke="none"/>
<circle clip-path="url(#clip322)" cx="1633.19" cy="1364.1" r="6.33925" fill="#cb4678" fill-rule="evenodd" fill-opacity="1" stroke="none"/>
<circle clip-path="url(#clip322)" cx="1649.24" cy="1364.1" r="6.33925" fill="#cb4678" fill-rule="evenodd" fill-opacity="1" stroke="none"/>
<circle clip-path="url(#clip322)" cx="1665.29" cy="1364.1" r="6.33925" fill="#cb4678" fill-rule="evenodd" fill-opacity="1" stroke="none"/>
<circle clip-path="url(#clip322)" cx="1681.33" cy="1364.1" r="6.33925" fill="#cb4678" fill-rule="evenodd" fill-opacity="1" stroke="none"/>
<circle clip-path="url(#clip322)" cx="1697.38" cy="1364.1" r="6.33925" fill="#cb4678" fill-rule="evenodd" fill-opacity="1" stroke="none"/>
<circle clip-path="url(#clip322)" cx="1713.43" cy="1364.1" r="6.33925" fill="#cb4678" fill-rule="evenodd" fill-opacity="1" stroke="none"/>
<circle clip-path="url(#clip322)" cx="1729.48" cy="1364.1" r="6.33925" fill="#cb4678" fill-rule="evenodd" fill-opacity="1" stroke="none"/>
<circle clip-path="url(#clip322)" cx="1745.52" cy="1364.1" r="6.33925" fill="#cb4678" fill-rule="evenodd" fill-opacity="1" stroke="none"/>
<circle clip-path="url(#clip322)" cx="1761.57" cy="1364.1" r="6.33925" fill="#cb4678" fill-rule="evenodd" fill-opacity="1" stroke="none"/>
<circle clip-path="url(#clip322)" cx="1777.62" cy="1364.1" r="6.33925" fill="#cb4678" fill-rule="evenodd" fill-opacity="1" stroke="none"/>
<circle clip-path="url(#clip322)" cx="1793.66" cy="1364.1" r="6.33925" fill="#cb4678" fill-rule="evenodd" fill-opacity="1" stroke="none"/>
<circle clip-path="url(#clip322)" cx="1809.71" cy="1364.1" r="6.33925" fill="#cb4678" fill-rule="evenodd" fill-opacity="1" stroke="none"/>
<circle clip-path="url(#clip322)" cx="1825.76" cy="1364.1" r="6.33925" fill="#cb4678" fill-rule="evenodd" fill-opacity="1" stroke="none"/>
<circle clip-path="url(#clip322)" cx="1841.81" cy="1364.1" r="6.33925" fill="#cb4678" fill-rule="evenodd" fill-opacity="1" stroke="none"/>
<circle clip-path="url(#clip322)" cx="1857.85" cy="1364.1" r="6.33925" fill="#cb4678" fill-rule="evenodd" fill-opacity="1" stroke="none"/>
<circle clip-path="url(#clip322)" cx="1873.9" cy="1364.1" r="6.33925" fill="#cb4678" fill-rule="evenodd" fill-opacity="1" stroke="none"/>
<circle clip-path="url(#clip322)" cx="1889.95" cy="1364.1" r="6.33925" fill="#cb4678" fill-rule="evenodd" fill-opacity="1" stroke="none"/>
<circle clip-path="url(#clip322)" cx="1906" cy="1364.1" r="6.33925" fill="#cb4678" fill-rule="evenodd" fill-opacity="1" stroke="none"/>
<circle clip-path="url(#clip322)" cx="1922.04" cy="1364.1" r="6.33925" fill="#cb4678" fill-rule="evenodd" fill-opacity="1" stroke="none"/>
<circle clip-path="url(#clip322)" cx="1938.09" cy="1364.1" r="6.33925" fill="#cb4678" fill-rule="evenodd" fill-opacity="1" stroke="none"/>
<circle clip-path="url(#clip322)" cx="1954.14" cy="1364.1" r="6.33925" fill="#cb4678" fill-rule="evenodd" fill-opacity="1" stroke="none"/>
<circle clip-path="url(#clip322)" cx="1970.19" cy="1364.1" r="6.33925" fill="#cb4678" fill-rule="evenodd" fill-opacity="1" stroke="none"/>
<circle clip-path="url(#clip322)" cx="1986.23" cy="1364.1" r="6.33925" fill="#cb4678" fill-rule="evenodd" fill-opacity="1" stroke="none"/>
<circle clip-path="url(#clip322)" cx="2002.28" cy="1364.1" r="6.33925" fill="#cb4678" fill-rule="evenodd" fill-opacity="1" stroke="none"/>
<circle clip-path="url(#clip322)" cx="2018.33" cy="1364.1" r="6.33925" fill="#cb4678" fill-rule="evenodd" fill-opacity="1" stroke="none"/>
<circle clip-path="url(#clip322)" cx="2034.38" cy="1364.1" r="6.33925" fill="#cb4678" fill-rule="evenodd" fill-opacity="1" stroke="none"/>
<circle clip-path="url(#clip322)" cx="2050.42" cy="1364.1" r="6.33925" fill="#cb4678" fill-rule="evenodd" fill-opacity="1" stroke="none"/>
<circle clip-path="url(#clip322)" cx="2066.47" cy="1364.1" r="6.33925" fill="#cb4678" fill-rule="evenodd" fill-opacity="1" stroke="none"/>
<circle clip-path="url(#clip322)" cx="2082.52" cy="1364.1" r="6.33925" fill="#cb4678" fill-rule="evenodd" fill-opacity="1" stroke="none"/>
<circle clip-path="url(#clip322)" cx="2098.57" cy="1364.1" r="6.33925" fill="#cb4678" fill-rule="evenodd" fill-opacity="1" stroke="none"/>
<circle clip-path="url(#clip322)" cx="2114.61" cy="1364.1" r="6.33925" fill="#cb4678" fill-rule="evenodd" fill-opacity="1" stroke="none"/>
<circle clip-path="url(#clip322)" cx="2130.66" cy="1361.23" r="6.33925" fill="#7d02a7" fill-rule="evenodd" fill-opacity="1" stroke="none"/>
<path clip-path="url(#clip322)" d="M2146.71 1354.18 L2139.66 1368.27 L2153.75 1368.27 L2146.71 1354.18 Z" fill="#0c0786" fill-rule="evenodd" fill-opacity="1" stroke="none"/>
<circle clip-path="url(#clip322)" cx="2162.75" cy="1361.23" r="6.33925" fill="#7d02a7" fill-rule="evenodd" fill-opacity="1" stroke="none"/>
<circle clip-path="url(#clip322)" cx="2178.8" cy="1166.02" r="6.33925" fill="#0c0786" fill-rule="evenodd" fill-opacity="1" stroke="none"/>
<circle clip-path="url(#clip322)" cx="2194.85" cy="1099.21" r="6.33925" fill="#7d02a7" fill-rule="evenodd" fill-opacity="1" stroke="none"/>
<circle clip-path="url(#clip322)" cx="2210.9" cy="1099.21" r="6.33925" fill="#7d02a7" fill-rule="evenodd" fill-opacity="1" stroke="none"/>
<path clip-path="url(#clip322)" d="M2226.94 175.506 L2219.9 189.593 L2233.99 189.593 L2226.94 175.506 Z" fill="#7d02a7" fill-rule="evenodd" fill-opacity="1" stroke="none"/>
<path clip-path="url(#clip322)" d="M2242.99 175.506 L2235.95 189.593 L2250.04 189.593 L2242.99 175.506 Z" fill="#7d02a7" fill-rule="evenodd" fill-opacity="1" stroke="none"/>
<path clip-path="url(#clip322)" d="M2259.04 175.506 L2252 189.593 L2266.08 189.593 L2259.04 175.506 Z" fill="#7d02a7" fill-rule="evenodd" fill-opacity="1" stroke="none"/>
<path clip-path="url(#clip322)" d="M2275.09 175.506 L2268.04 189.593 L2282.13 189.593 L2275.09 175.506 Z" fill="#7d02a7" fill-rule="evenodd" fill-opacity="1" stroke="none"/>
<path clip-path="url(#clip322)" d="M2291.13 175.506 L2284.09 189.593 L2298.18 189.593 L2291.13 175.506 Z" fill="#7d02a7" fill-rule="evenodd" fill-opacity="1" stroke="none"/>
<line clip-path="url(#clip322)" x1="718.489" y1="558.522" x2="718.489" y2="542.522" style="stroke:#e26f46; stroke-width:3.2; stroke-opacity:1"/>
<line clip-path="url(#clip322)" x1="718.489" y1="558.522" x2="702.489" y2="558.522" style="stroke:#e26f46; stroke-width:3.2; stroke-opacity:1"/>
<line clip-path="url(#clip322)" x1="718.489" y1="558.522" x2="718.489" y2="574.522" style="stroke:#e26f46; stroke-width:3.2; stroke-opacity:1"/>
<line clip-path="url(#clip322)" x1="718.489" y1="558.522" x2="734.489" y2="558.522" style="stroke:#e26f46; stroke-width:3.2; stroke-opacity:1"/>
<line clip-path="url(#clip322)" x1="734.536" y1="558.522" x2="734.536" y2="542.522" style="stroke:#e26f46; stroke-width:3.2; stroke-opacity:1"/>
<line clip-path="url(#clip322)" x1="734.536" y1="558.522" x2="718.536" y2="558.522" style="stroke:#e26f46; stroke-width:3.2; stroke-opacity:1"/>
<line clip-path="url(#clip322)" x1="734.536" y1="558.522" x2="734.536" y2="574.522" style="stroke:#e26f46; stroke-width:3.2; stroke-opacity:1"/>
<line clip-path="url(#clip322)" x1="734.536" y1="558.522" x2="750.536" y2="558.522" style="stroke:#e26f46; stroke-width:3.2; stroke-opacity:1"/>
<polyline clip-path="url(#clip322)" style="stroke:#808080; stroke-linecap:round; stroke-linejoin:round; stroke-width:4; stroke-opacity:1; fill:none" stroke-dasharray="16, 10" points="2122.64,2722.89 2122.64,-1176.24 "/>
<polyline clip-path="url(#clip322)" style="stroke:#808080; stroke-linecap:round; stroke-linejoin:round; stroke-width:4; stroke-opacity:1; fill:none" stroke-dasharray="16, 10" points="2170.78,2722.89 2170.78,-1176.24 "/>
<polyline clip-path="url(#clip322)" style="stroke:#808080; stroke-linecap:round; stroke-linejoin:round; stroke-width:4; stroke-opacity:1; fill:none" stroke-dasharray="16, 10" points="2186.83,2722.89 2186.83,-1176.24 "/>
</svg>
