<?xml version="1.0" encoding="utf-8"?>
<svg xmlns="http://www.w3.org/2000/svg" xmlns:xlink="http://www.w3.org/1999/xlink" width="600" height="400" viewBox="0 0 2400 1600">
<defs>
  <clipPath id="clip380">
    <rect x="0" y="0" width="2400" height="1600"/>
  </clipPath>
</defs>
<path clip-path="url(#clip380)" d="M0 1600 L2400 1600 L2400 0 L0 0  Z" fill="#ffffff" fill-rule="evenodd" fill-opacity="1"/>
<defs>
  <clipPath id="clip381">
    <rect x="480" y="0" width="1681" height="1600"/>
  </clipPath>
</defs>
<path clip-path="url(#clip380)" d="M242.135 1423.18 L2352.76 1423.18 L2352.76 47.2441 L242.135 47.2441  Z" fill="#ffffff" fill-rule="evenodd" fill-opacity="1"/>
<defs>
  <clipPath id="clip382">
    <rect x="242" y="47" width="2112" height="1377"/>
  </clipPath>
</defs>
<polyline clip-path="url(#clip382)" style="stroke:#000000; stroke-linecap:round; stroke-linejoin:round; stroke-width:2; stroke-opacity:0.1; fill:none" points="771.876,1423.18 771.876,47.2441 "/>
<polyline clip-path="url(#clip382)" style="stroke:#000000; stroke-linecap:round; stroke-linejoin:round; stroke-width:2; stroke-opacity:0.1; fill:none" points="1844.69,1423.18 1844.69,47.2441 "/>
<polyline clip-path="url(#clip382)" style="stroke:#000000; stroke-linecap:round; stroke-linejoin:round; stroke-width:2; stroke-opacity:0.1; fill:none" points="242.135,1325.12 2352.76,1325.12 "/>
<polyline clip-path="url(#clip382)" style="stroke:#000000; stroke-linecap:round; stroke-linejoin:round; stroke-width:2; stroke-opacity:0.1; fill:none" points="242.135,1030.16 2352.76,1030.16 "/>
<polyline clip-path="url(#clip382)" style="stroke:#000000; stroke-linecap:round; stroke-linejoin:round; stroke-width:2; stroke-opacity:0.1; fill:none" points="242.135,735.212 2352.76,735.212 "/>
<polyline clip-path="url(#clip382)" style="stroke:#000000; stroke-linecap:round; stroke-linejoin:round; stroke-width:2; stroke-opacity:0.1; fill:none" points="242.135,440.259 2352.76,440.259 "/>
<polyline clip-path="url(#clip382)" style="stroke:#000000; stroke-linecap:round; stroke-linejoin:round; stroke-width:2; stroke-opacity:0.1; fill:none" points="242.135,145.306 2352.76,145.306 "/>
<polyline clip-path="url(#clip380)" style="stroke:#000000; stroke-linecap:round; stroke-linejoin:round; stroke-width:4; stroke-opacity:1; fill:none" points="242.135,1423.18 2352.76,1423.18 "/>
<polyline clip-path="url(#clip380)" style="stroke:#000000; stroke-linecap:round; stroke-linejoin:round; stroke-width:4; stroke-opacity:1; fill:none" points="771.876,1423.18 771.876,1404.28 "/>
<polyline clip-path="url(#clip380)" style="stroke:#000000; stroke-linecap:round; stroke-linejoin:round; stroke-width:4; stroke-opacity:1; fill:none" points="1844.69,1423.18 1844.69,1404.28 "/>
<path clip-path="url(#clip380)" d="M769.734 1469.14 L754.989 1469.14 Q755.336 1476.07 756.934 1479.01 Q758.924 1482.62 762.373 1482.62 Q765.846 1482.62 767.767 1478.98 Q769.457 1475.79 769.734 1469.14 M769.665 1465.21 Q769.017 1458.64 767.767 1456.32 Q765.776 1452.66 762.373 1452.66 Q758.832 1452.66 756.957 1456.27 Q755.475 1459.19 755.035 1465.21 L769.665 1465.21 M762.373 1449.19 Q767.929 1449.19 771.1 1454.1 Q774.271 1458.98 774.271 1467.64 Q774.271 1476.27 771.1 1481.18 Q767.929 1486.11 762.373 1486.11 Q756.795 1486.11 753.646 1481.18 Q750.475 1476.27 750.475 1467.64 Q750.475 1458.98 753.646 1454.1 Q756.795 1449.19 762.373 1449.19 Z" fill="#000000" fill-rule="nonzero" fill-opacity="1" /><path clip-path="url(#clip380)" d="M780.475 1483.03 L785.197 1483.03 L785.197 1468.89 L780.035 1469.84 L780.035 1467.15 L785.359 1466.25 L788.531 1466.25 L788.531 1483.03 L793.276 1483.03 L793.276 1485.58 L780.475 1485.58 L780.475 1483.03 Z" fill="#000000" fill-rule="nonzero" fill-opacity="1" /><path clip-path="url(#clip380)" d="M1842.75 1469.14 L1828 1469.14 Q1828.35 1476.07 1829.95 1479.01 Q1831.94 1482.62 1835.39 1482.62 Q1838.86 1482.62 1840.78 1478.98 Q1842.47 1475.79 1842.75 1469.14 M1842.68 1465.21 Q1842.03 1458.64 1840.78 1456.32 Q1838.79 1452.66 1835.39 1452.66 Q1831.85 1452.66 1829.97 1456.27 Q1828.49 1459.19 1828.05 1465.21 L1842.68 1465.21 M1835.39 1449.19 Q1840.94 1449.19 1844.12 1454.1 Q1847.29 1458.98 1847.29 1467.64 Q1847.29 1476.27 1844.12 1481.18 Q1840.94 1486.11 1835.39 1486.11 Q1829.81 1486.11 1826.66 1481.18 Q1823.49 1476.27 1823.49 1467.64 Q1823.49 1458.98 1826.66 1454.1 Q1829.81 1449.19 1835.39 1449.19 Z" fill="#000000" fill-rule="nonzero" fill-opacity="1" /><path clip-path="url(#clip380)" d="M1856.08 1482.94 L1865.9 1482.94 L1865.9 1485.58 L1852.06 1485.58 L1852.06 1483.03 Q1852.84 1482.32 1854.3 1481.02 Q1862.26 1473.96 1862.26 1471.78 Q1862.26 1470.26 1861.06 1469.33 Q1859.86 1468.38 1857.89 1468.38 Q1856.68 1468.38 1855.27 1468.8 Q1853.86 1469.19 1852.19 1470 L1852.19 1467.15 Q1853.98 1466.51 1855.5 1466.18 Q1857.06 1465.86 1858.37 1465.86 Q1861.73 1465.86 1863.74 1467.39 Q1865.76 1468.91 1865.76 1471.41 Q1865.76 1474.63 1858.1 1481.2 Q1856.8 1482.32 1856.08 1482.94 Z" fill="#000000" fill-rule="nonzero" fill-opacity="1" /><path clip-path="url(#clip380)" d="M1137.51 1525.81 L1137.51 1543.66 L1145.59 1543.66 Q1150.08 1543.66 1152.53 1541.34 Q1154.98 1539.02 1154.98 1534.72 Q1154.98 1530.45 1152.53 1528.13 Q1150.08 1525.81 1145.59 1525.81 L1137.51 1525.81 M1131.08 1520.52 L1145.59 1520.52 Q1153.58 1520.52 1157.65 1524.15 Q1161.76 1527.75 1161.76 1534.72 Q1161.76 1541.75 1157.65 1545.35 Q1153.58 1548.95 1145.59 1548.95 L1137.51 1548.95 L1137.51 1568.04 L1131.08 1568.04 L1131.08 1520.52 Z" fill="#000000" fill-rule="nonzero" fill-opacity="1" /><path clip-path="url(#clip380)" d="M1183.4 1550.12 Q1176.31 1550.12 1173.57 1551.75 Q1170.83 1553.37 1170.83 1557.29 Q1170.83 1560.4 1172.87 1562.25 Q1174.94 1564.07 1178.47 1564.07 Q1183.34 1564.07 1186.27 1560.63 Q1189.23 1557.16 1189.23 1551.43 L1189.23 1550.12 L1183.4 1550.12 M1195.08 1547.71 L1195.08 1568.04 L1189.23 1568.04 L1189.23 1562.63 Q1187.22 1565.88 1184.23 1567.44 Q1181.24 1568.97 1176.91 1568.97 Q1171.44 1568.97 1168.19 1565.91 Q1164.97 1562.82 1164.97 1557.67 Q1164.97 1551.65 1168.99 1548.6 Q1173.03 1545.54 1181.02 1545.54 L1189.23 1545.54 L1189.23 1544.97 Q1189.23 1540.93 1186.55 1538.73 Q1183.91 1536.5 1179.11 1536.5 Q1176.05 1536.5 1173.15 1537.23 Q1170.26 1537.97 1167.58 1539.43 L1167.58 1534.02 Q1170.8 1532.78 1173.82 1532.17 Q1176.85 1531.54 1179.71 1531.54 Q1187.45 1531.54 1191.27 1535.55 Q1195.08 1539.56 1195.08 1547.71 Z" fill="#000000" fill-rule="nonzero" fill-opacity="1" /><path clip-path="url(#clip380)" d="M1227.8 1537.87 Q1226.82 1537.3 1225.64 1537.04 Q1224.49 1536.76 1223.09 1536.76 Q1218.13 1536.76 1215.45 1540 Q1212.81 1543.22 1212.81 1549.27 L1212.81 1568.04 L1206.92 1568.04 L1206.92 1532.4 L1212.81 1532.4 L1212.81 1537.93 Q1214.66 1534.69 1217.62 1533.13 Q1220.58 1531.54 1224.81 1531.54 Q1225.42 1531.54 1226.15 1531.63 Q1226.88 1531.7 1227.77 1531.85 L1227.8 1537.87 Z" fill="#000000" fill-rule="nonzero" fill-opacity="1" /><path clip-path="url(#clip380)" d="M1250.15 1550.12 Q1243.05 1550.12 1240.31 1551.75 Q1237.58 1553.37 1237.58 1557.29 Q1237.58 1560.4 1239.61 1562.25 Q1241.68 1564.07 1245.21 1564.07 Q1250.08 1564.07 1253.01 1560.63 Q1255.97 1557.16 1255.97 1551.43 L1255.97 1550.12 L1250.15 1550.12 M1261.83 1547.71 L1261.83 1568.04 L1255.97 1568.04 L1255.97 1562.63 Q1253.97 1565.88 1250.98 1567.44 Q1247.98 1568.97 1243.66 1568.97 Q1238.18 1568.97 1234.93 1565.91 Q1231.72 1562.82 1231.72 1557.67 Q1231.72 1551.65 1235.73 1548.6 Q1239.77 1545.54 1247.76 1545.54 L1255.97 1545.54 L1255.97 1544.97 Q1255.97 1540.93 1253.3 1538.73 Q1250.66 1536.5 1245.85 1536.5 Q1242.8 1536.5 1239.9 1537.23 Q1237 1537.97 1234.33 1539.43 L1234.33 1534.02 Q1237.54 1532.78 1240.57 1532.17 Q1243.59 1531.54 1246.46 1531.54 Q1254.19 1531.54 1258.01 1535.55 Q1261.83 1539.56 1261.83 1547.71 Z" fill="#000000" fill-rule="nonzero" fill-opacity="1" /><path clip-path="url(#clip380)" d="M1301.65 1539.24 Q1303.84 1535.29 1306.9 1533.41 Q1309.95 1531.54 1314.09 1531.54 Q1319.66 1531.54 1322.69 1535.45 Q1325.71 1539.33 1325.71 1546.53 L1325.71 1568.04 L1319.82 1568.04 L1319.82 1546.72 Q1319.82 1541.59 1318.01 1539.11 Q1316.19 1536.63 1312.47 1536.63 Q1307.92 1536.63 1305.28 1539.65 Q1302.63 1542.68 1302.63 1547.9 L1302.63 1568.04 L1296.75 1568.04 L1296.75 1546.72 Q1296.75 1541.56 1294.93 1539.11 Q1293.12 1536.63 1289.33 1536.63 Q1284.84 1536.63 1282.2 1539.68 Q1279.56 1542.71 1279.56 1547.9 L1279.56 1568.04 L1273.67 1568.04 L1273.67 1532.4 L1279.56 1532.4 L1279.56 1537.93 Q1281.56 1534.66 1284.36 1533.1 Q1287.16 1531.54 1291.02 1531.54 Q1294.9 1531.54 1297.6 1533.51 Q1300.34 1535.48 1301.65 1539.24 Z" fill="#000000" fill-rule="nonzero" fill-opacity="1" /><path clip-path="url(#clip380)" d="M1367.88 1548.76 L1367.88 1551.62 L1340.95 1551.62 Q1341.34 1557.67 1344.58 1560.85 Q1347.86 1564 1353.69 1564 Q1357.06 1564 1360.21 1563.17 Q1363.39 1562.35 1366.51 1560.69 L1366.51 1566.23 Q1363.36 1567.57 1360.05 1568.27 Q1356.74 1568.97 1353.34 1568.97 Q1344.81 1568.97 1339.81 1564 Q1334.84 1559.04 1334.84 1550.57 Q1334.84 1541.82 1339.55 1536.69 Q1344.3 1531.54 1352.32 1531.54 Q1359.51 1531.54 1363.68 1536.18 Q1367.88 1540.8 1367.88 1548.76 M1362.03 1547.04 Q1361.96 1542.23 1359.32 1539.37 Q1356.71 1536.5 1352.38 1536.5 Q1347.48 1536.5 1344.52 1539.27 Q1341.59 1542.04 1341.15 1547.07 L1362.03 1547.04 Z" fill="#000000" fill-rule="nonzero" fill-opacity="1" /><path clip-path="url(#clip380)" d="M1383.29 1522.27 L1383.29 1532.4 L1395.35 1532.4 L1395.35 1536.95 L1383.29 1536.95 L1383.29 1556.3 Q1383.29 1560.66 1384.46 1561.9 Q1385.67 1563.14 1389.33 1563.14 L1395.35 1563.14 L1395.35 1568.04 L1389.33 1568.04 Q1382.55 1568.04 1379.98 1565.53 Q1377.4 1562.98 1377.4 1556.3 L1377.4 1536.95 L1373.1 1536.95 L1373.1 1532.4 L1377.4 1532.4 L1377.4 1522.27 L1383.29 1522.27 Z" fill="#000000" fill-rule="nonzero" fill-opacity="1" /><path clip-path="url(#clip380)" d="M1433.54 1548.76 L1433.54 1551.62 L1406.62 1551.62 Q1407 1557.67 1410.25 1560.85 Q1413.52 1564 1419.35 1564 Q1422.72 1564 1425.87 1563.17 Q1429.06 1562.35 1432.18 1560.69 L1432.18 1566.23 Q1429.02 1567.57 1425.71 1568.27 Q1422.4 1568.97 1419 1568.97 Q1410.47 1568.97 1405.47 1564 Q1400.51 1559.04 1400.51 1550.57 Q1400.51 1541.82 1405.22 1536.69 Q1409.96 1531.54 1417.98 1531.54 Q1425.17 1531.54 1429.34 1536.18 Q1433.54 1540.8 1433.54 1548.76 M1427.69 1547.04 Q1427.62 1542.23 1424.98 1539.37 Q1422.37 1536.5 1418.04 1536.5 Q1413.14 1536.5 1410.18 1539.27 Q1407.25 1542.04 1406.81 1547.07 L1427.69 1547.04 Z" fill="#000000" fill-rule="nonzero" fill-opacity="1" /><path clip-path="url(#clip380)" d="M1463.81 1537.87 Q1462.83 1537.3 1461.65 1537.04 Q1460.5 1536.76 1459.1 1536.76 Q1454.14 1536.76 1451.46 1540 Q1448.82 1543.22 1448.82 1549.27 L1448.82 1568.04 L1442.93 1568.04 L1442.93 1532.4 L1448.82 1532.4 L1448.82 1537.93 Q1450.67 1534.69 1453.63 1533.13 Q1456.59 1531.54 1460.82 1531.54 Q1461.43 1531.54 1462.16 1531.63 Q1462.89 1531.7 1463.78 1531.85 L1463.81 1537.87 Z" fill="#000000" fill-rule="nonzero" fill-opacity="1" /><polyline clip-path="url(#clip380)" style="stroke:#000000; stroke-linecap:round; stroke-linejoin:round; stroke-width:4; stroke-opacity:1; fill:none" points="242.135,1423.18 242.135,47.2441 "/>
<polyline clip-path="url(#clip380)" style="stroke:#000000; stroke-linecap:round; stroke-linejoin:round; stroke-width:4; stroke-opacity:1; fill:none" points="242.135,1325.12 261.032,1325.12 "/>
<polyline clip-path="url(#clip380)" style="stroke:#000000; stroke-linecap:round; stroke-linejoin:round; stroke-width:4; stroke-opacity:1; fill:none" points="242.135,1030.16 261.032,1030.16 "/>
<polyline clip-path="url(#clip380)" style="stroke:#000000; stroke-linecap:round; stroke-linejoin:round; stroke-width:4; stroke-opacity:1; fill:none" points="242.135,735.212 261.032,735.212 "/>
<polyline clip-path="url(#clip380)" style="stroke:#000000; stroke-linecap:round; stroke-linejoin:round; stroke-width:4; stroke-opacity:1; fill:none" points="242.135,440.259 261.032,440.259 "/>
<polyline clip-path="url(#clip380)" style="stroke:#000000; stroke-linecap:round; stroke-linejoin:round; stroke-width:4; stroke-opacity:1; fill:none" points="242.135,145.306 261.032,145.306 "/>
<path clip-path="url(#clip380)" d="M114.26 1325.57 L143.936 1325.57 L143.936 1329.5 L114.26 1329.5 L114.26 1325.57 Z" fill="#000000" fill-rule="nonzero" fill-opacity="1" /><path clip-path="url(#clip380)" d="M166.876 1311.91 L155.07 1330.36 L166.876 1330.36 L166.876 1311.91 M165.649 1307.84 L171.528 1307.84 L171.528 1330.36 L176.459 1330.36 L176.459 1334.25 L171.528 1334.25 L171.528 1342.4 L166.876 1342.4 L166.876 1334.25 L151.274 1334.25 L151.274 1329.74 L165.649 1307.84 Z" fill="#000000" fill-rule="nonzero" fill-opacity="1" /><path clip-path="url(#clip380)" d="M194.19 1310.92 Q190.579 1310.92 188.75 1314.48 Q186.945 1318.02 186.945 1325.15 Q186.945 1332.26 188.75 1335.82 Q190.579 1339.37 194.19 1339.37 Q197.825 1339.37 199.63 1335.82 Q201.459 1332.26 201.459 1325.15 Q201.459 1318.02 199.63 1314.48 Q197.825 1310.92 194.19 1310.92 M194.19 1307.21 Q200 1307.21 203.056 1311.82 Q206.135 1316.4 206.135 1325.15 Q206.135 1333.88 203.056 1338.49 Q200 1343.07 194.19 1343.07 Q188.38 1343.07 185.301 1338.49 Q182.246 1333.88 182.246 1325.15 Q182.246 1316.4 185.301 1311.82 Q188.38 1307.21 194.19 1307.21 Z" fill="#000000" fill-rule="nonzero" fill-opacity="1" /><path clip-path="url(#clip380)" d="M114.26 1030.62 L143.936 1030.62 L143.936 1034.55 L114.26 1034.55 L114.26 1030.62 Z" fill="#000000" fill-rule="nonzero" fill-opacity="1" /><path clip-path="url(#clip380)" d="M158.056 1043.51 L174.376 1043.51 L174.376 1047.44 L152.431 1047.44 L152.431 1043.51 Q155.093 1040.76 159.677 1036.13 Q164.283 1031.47 165.464 1030.13 Q167.709 1027.61 168.589 1025.87 Q169.491 1024.11 169.491 1022.42 Q169.491 1019.67 167.547 1017.93 Q165.626 1016.2 162.524 1016.2 Q160.325 1016.2 157.871 1016.96 Q155.44 1017.72 152.663 1019.27 L152.663 1014.55 Q155.487 1013.42 157.94 1012.84 Q160.394 1012.26 162.431 1012.26 Q167.802 1012.26 170.996 1014.95 Q174.19 1017.63 174.19 1022.12 Q174.19 1024.25 173.38 1026.17 Q172.593 1028.07 170.487 1030.66 Q169.908 1031.33 166.806 1034.55 Q163.704 1037.75 158.056 1043.51 Z" fill="#000000" fill-rule="nonzero" fill-opacity="1" /><path clip-path="url(#clip380)" d="M194.19 1015.96 Q190.579 1015.96 188.75 1019.53 Q186.945 1023.07 186.945 1030.2 Q186.945 1037.31 188.75 1040.87 Q190.579 1044.41 194.19 1044.41 Q197.825 1044.41 199.63 1040.87 Q201.459 1037.31 201.459 1030.2 Q201.459 1023.07 199.63 1019.53 Q197.825 1015.96 194.19 1015.96 M194.19 1012.26 Q200 1012.26 203.056 1016.87 Q206.135 1021.45 206.135 1030.2 Q206.135 1038.93 203.056 1043.53 Q200 1048.12 194.19 1048.12 Q188.38 1048.12 185.301 1043.53 Q182.246 1038.93 182.246 1030.2 Q182.246 1021.45 185.301 1016.87 Q188.38 1012.26 194.19 1012.26 Z" fill="#000000" fill-rule="nonzero" fill-opacity="1" /><path clip-path="url(#clip380)" d="M194.19 721.011 Q190.579 721.011 188.75 724.575 Q186.945 728.117 186.945 735.247 Q186.945 742.353 188.75 745.918 Q190.579 749.46 194.19 749.46 Q197.825 749.46 199.63 745.918 Q201.459 742.353 201.459 735.247 Q201.459 728.117 199.63 724.575 Q197.825 721.011 194.19 721.011 M194.19 717.307 Q200 717.307 203.056 721.913 Q206.135 726.497 206.135 735.247 Q206.135 743.973 203.056 748.58 Q200 753.163 194.19 753.163 Q188.38 753.163 185.301 748.58 Q182.246 743.973 182.246 735.247 Q182.246 726.497 185.301 721.913 Q188.38 717.307 194.19 717.307 Z" fill="#000000" fill-rule="nonzero" fill-opacity="1" /><path clip-path="url(#clip380)" d="M158.056 453.604 L174.376 453.604 L174.376 457.539 L152.431 457.539 L152.431 453.604 Q155.093 450.849 159.677 446.22 Q164.283 441.567 165.464 440.224 Q167.709 437.701 168.589 435.965 Q169.491 434.206 169.491 432.516 Q169.491 429.761 167.547 428.025 Q165.626 426.289 162.524 426.289 Q160.325 426.289 157.871 427.053 Q155.44 427.817 152.663 429.368 L152.663 424.646 Q155.487 423.511 157.94 422.933 Q160.394 422.354 162.431 422.354 Q167.802 422.354 170.996 425.039 Q174.19 427.724 174.19 432.215 Q174.19 434.345 173.38 436.266 Q172.593 438.164 170.487 440.757 Q169.908 441.428 166.806 444.646 Q163.704 447.84 158.056 453.604 Z" fill="#000000" fill-rule="nonzero" fill-opacity="1" /><path clip-path="url(#clip380)" d="M194.19 426.058 Q190.579 426.058 188.75 429.622 Q186.945 433.164 186.945 440.294 Q186.945 447.4 188.75 450.965 Q190.579 454.507 194.19 454.507 Q197.825 454.507 199.63 450.965 Q201.459 447.4 201.459 440.294 Q201.459 433.164 199.63 429.622 Q197.825 426.058 194.19 426.058 M194.19 422.354 Q200 422.354 203.056 426.96 Q206.135 431.544 206.135 440.294 Q206.135 449.02 203.056 453.627 Q200 458.21 194.19 458.21 Q188.38 458.21 185.301 453.627 Q182.246 449.02 182.246 440.294 Q182.246 431.544 185.301 426.96 Q188.38 422.354 194.19 422.354 Z" fill="#000000" fill-rule="nonzero" fill-opacity="1" /><path clip-path="url(#clip380)" d="M166.876 132.1 L155.07 150.549 L166.876 150.549 L166.876 132.1 M165.649 128.026 L171.528 128.026 L171.528 150.549 L176.459 150.549 L176.459 154.438 L171.528 154.438 L171.528 162.586 L166.876 162.586 L166.876 154.438 L151.274 154.438 L151.274 149.924 L165.649 128.026 Z" fill="#000000" fill-rule="nonzero" fill-opacity="1" /><path clip-path="url(#clip380)" d="M194.19 131.105 Q190.579 131.105 188.75 134.669 Q186.945 138.211 186.945 145.341 Q186.945 152.447 188.75 156.012 Q190.579 159.554 194.19 159.554 Q197.825 159.554 199.63 156.012 Q201.459 152.447 201.459 145.341 Q201.459 138.211 199.63 134.669 Q197.825 131.105 194.19 131.105 M194.19 127.401 Q200 127.401 203.056 132.007 Q206.135 136.591 206.135 145.341 Q206.135 154.068 203.056 158.674 Q200 163.257 194.19 163.257 Q188.38 163.257 185.301 158.674 Q182.246 154.068 182.246 145.341 Q182.246 136.591 185.301 132.007 Q188.38 127.401 194.19 127.401 Z" fill="#000000" fill-rule="nonzero" fill-opacity="1" /><path clip-path="url(#clip380)" d="M41.3104 1107.27 L58.7206 1107.27 L58.7206 1096.96 Q58.7206 1091.77 56.5881 1089.29 Q54.4238 1086.77 49.9996 1086.77 Q45.5436 1086.77 43.4429 1089.29 Q41.3104 1091.77 41.3104 1096.96 L41.3104 1107.27 M21.7677 1107.27 L36.0905 1107.27 L36.0905 1097.75 Q36.0905 1093.04 34.34 1090.75 Q32.5576 1088.43 28.9291 1088.43 Q25.3325 1088.43 23.5501 1090.75 Q21.7677 1093.04 21.7677 1097.75 L21.7677 1107.27 M16.4842 1113.7 L16.4842 1097.28 Q16.4842 1089.93 19.5397 1085.95 Q22.5952 1081.97 28.2289 1081.97 Q32.5894 1081.97 35.1675 1084 Q37.7456 1086.04 38.3822 1089.99 Q39.4007 1085.25 42.6472 1082.64 Q45.8619 1079.99 50.6998 1079.99 Q57.0655 1079.99 60.5348 1084.32 Q64.0042 1088.65 64.0042 1096.64 L64.0042 1113.7 L16.4842 1113.7 Z" fill="#000000" fill-rule="nonzero" fill-opacity="1" /><path clip-path="url(#clip380)" d="M28.3562 1069.24 L28.3562 1063.38 L64.0042 1063.38 L64.0042 1069.24 L28.3562 1069.24 M14.479 1069.24 L14.479 1063.38 L21.895 1063.38 L21.895 1069.24 L14.479 1069.24 Z" fill="#000000" fill-rule="nonzero" fill-opacity="1" /><path clip-path="url(#clip380)" d="M16.4842 1050.87 L16.4842 1044.44 L58.5933 1044.44 L58.5933 1021.3 L64.0042 1021.3 L64.0042 1050.87 L16.4842 1050.87 Z" fill="#000000" fill-rule="nonzero" fill-opacity="1" /><path clip-path="url(#clip380)" d="M32.4621 1002.14 Q32.4621 1006.85 36.1542 1009.59 Q39.8145 1012.33 46.212 1012.33 Q52.6095 1012.33 56.3017 1009.62 Q59.9619 1006.88 59.9619 1002.14 Q59.9619 997.463 56.2698 994.726 Q52.5777 991.989 46.212 991.989 Q39.8781 991.989 36.186 994.726 Q32.4621 997.463 32.4621 1002.14 M27.4968 1002.14 Q27.4968 994.503 32.4621 990.143 Q37.4273 985.782 46.212 985.782 Q54.9649 985.782 59.9619 990.143 Q64.9272 994.503 64.9272 1002.14 Q64.9272 1009.81 59.9619 1014.17 Q54.9649 1018.5 46.212 1018.5 Q37.4273 1018.5 32.4621 1014.17 Q27.4968 1009.81 27.4968 1002.14 Z" fill="#000000" fill-rule="nonzero" fill-opacity="1" /><path clip-path="url(#clip380)" d="M45.7664 952.617 Q39.4007 952.617 35.8996 955.259 Q32.3984 957.868 32.3984 962.611 Q32.3984 967.322 35.8996 969.963 Q39.4007 972.573 45.7664 972.573 Q52.1003 972.573 55.6014 969.963 Q59.1026 967.322 59.1026 962.611 Q59.1026 957.868 55.6014 955.259 Q52.1003 952.617 45.7664 952.617 M59.58 946.76 Q68.683 946.76 73.1071 950.803 Q77.5631 954.845 77.5631 963.184 Q77.5631 966.271 77.0857 969.008 Q76.6401 971.746 75.6852 974.324 L69.9879 974.324 Q71.3884 971.746 72.0568 969.231 Q72.7252 966.717 72.7252 964.107 Q72.7252 958.346 69.7015 955.481 Q66.7096 952.617 60.6303 952.617 L57.7339 952.617 Q60.885 954.431 62.4446 957.264 Q64.0042 960.096 64.0042 964.043 Q64.0042 970.6 59.0071 974.61 Q54.01 978.621 45.7664 978.621 Q37.491 978.621 32.4939 974.61 Q27.4968 970.6 27.4968 964.043 Q27.4968 960.096 29.0564 957.264 Q30.616 954.431 33.7671 952.617 L28.3562 952.617 L28.3562 946.76 L59.58 946.76 Z" fill="#000000" fill-rule="nonzero" fill-opacity="1" /><path clip-path="url(#clip380)" d="M14.5426 920.629 Q21.8632 924.894 29.0246 926.963 Q36.186 929.032 43.5384 929.032 Q50.8908 929.032 58.1159 926.963 Q65.3091 924.862 72.5979 920.629 L72.5979 925.722 Q65.1182 930.496 57.8931 932.883 Q50.668 935.238 43.5384 935.238 Q36.4406 935.238 29.2474 932.883 Q22.0542 930.528 14.5426 925.722 L14.5426 920.629 Z" fill="#000000" fill-rule="nonzero" fill-opacity="1" /><path clip-path="url(#clip380)" d="M21.7677 902.582 L39.6235 902.582 L39.6235 894.498 Q39.6235 890.01 37.3 887.559 Q34.9765 885.108 30.6797 885.108 Q26.4147 885.108 24.0912 887.559 Q21.7677 890.01 21.7677 894.498 L21.7677 902.582 M16.4842 909.012 L16.4842 894.498 Q16.4842 886.509 20.1126 882.435 Q23.7092 878.329 30.6797 878.329 Q37.7138 878.329 41.3104 882.435 Q44.907 886.509 44.907 894.498 L44.907 902.582 L64.0042 902.582 L64.0042 909.012 L16.4842 909.012 Z" fill="#000000" fill-rule="nonzero" fill-opacity="1" /><path clip-path="url(#clip380)" d="M46.0847 856.686 Q46.0847 863.783 47.7079 866.521 Q49.3312 869.258 53.2461 869.258 Q56.3653 869.258 58.2114 867.221 Q60.0256 865.152 60.0256 861.619 Q60.0256 856.749 56.5881 853.821 Q53.1188 850.861 47.3897 850.861 L46.0847 850.861 L46.0847 856.686 M43.6657 845.004 L64.0042 845.004 L64.0042 850.861 L58.5933 850.861 Q61.8398 852.866 63.3994 855.858 Q64.9272 858.85 64.9272 863.179 Q64.9272 868.653 61.8716 871.9 Q58.7843 875.114 53.6281 875.114 Q47.6125 875.114 44.5569 871.104 Q41.5014 867.062 41.5014 859.073 L41.5014 850.861 L40.9285 850.861 Q36.8862 850.861 34.6901 853.535 Q32.4621 856.176 32.4621 860.982 Q32.4621 864.038 33.1941 866.934 Q33.9262 869.831 35.3903 872.504 L29.9795 872.504 Q28.7381 869.29 28.1334 866.266 Q27.4968 863.242 27.4968 860.378 Q27.4968 852.643 31.5072 848.824 Q35.5176 845.004 43.6657 845.004 Z" fill="#000000" fill-rule="nonzero" fill-opacity="1" /><path clip-path="url(#clip380)" d="M33.8307 812.285 Q33.2578 813.271 33.0032 814.449 Q32.7167 815.595 32.7167 816.995 Q32.7167 821.961 35.9632 824.634 Q39.1779 827.276 45.2253 827.276 L64.0042 827.276 L64.0042 833.164 L28.3562 833.164 L28.3562 827.276 L33.8944 827.276 Q30.6479 825.43 29.0883 822.47 Q27.4968 819.51 27.4968 815.277 Q27.4968 814.672 27.5923 813.94 Q27.656 813.208 27.8151 812.317 L33.8307 812.285 Z" fill="#000000" fill-rule="nonzero" fill-opacity="1" /><path clip-path="url(#clip380)" d="M46.0847 789.941 Q46.0847 797.039 47.7079 799.776 Q49.3312 802.513 53.2461 802.513 Q56.3653 802.513 58.2114 800.476 Q60.0256 798.408 60.0256 794.875 Q60.0256 790.005 56.5881 787.077 Q53.1188 784.117 47.3897 784.117 L46.0847 784.117 L46.0847 789.941 M43.6657 778.26 L64.0042 778.26 L64.0042 784.117 L58.5933 784.117 Q61.8398 786.122 63.3994 789.114 Q64.9272 792.105 64.9272 796.434 Q64.9272 801.909 61.8716 805.155 Q58.7843 808.37 53.6281 808.37 Q47.6125 808.37 44.5569 804.359 Q41.5014 800.317 41.5014 792.328 L41.5014 784.117 L40.9285 784.117 Q36.8862 784.117 34.6901 786.79 Q32.4621 789.432 32.4621 794.238 Q32.4621 797.294 33.1941 800.19 Q33.9262 803.086 35.3903 805.76 L29.9795 805.76 Q28.7381 802.545 28.1334 799.522 Q27.4968 796.498 27.4968 793.633 Q27.4968 785.899 31.5072 782.079 Q35.5176 778.26 43.6657 778.26 Z" fill="#000000" fill-rule="nonzero" fill-opacity="1" /><path clip-path="url(#clip380)" d="M35.1993 738.443 Q31.2526 736.246 29.3747 733.191 Q27.4968 730.135 27.4968 725.998 Q27.4968 720.428 31.4117 717.404 Q35.2948 714.38 42.4881 714.38 L64.0042 714.38 L64.0042 720.268 L42.679 720.268 Q37.5546 720.268 35.072 722.083 Q32.5894 723.897 32.5894 727.621 Q32.5894 732.172 35.6131 734.814 Q38.6368 737.456 43.8567 737.456 L64.0042 737.456 L64.0042 743.344 L42.679 743.344 Q37.5228 743.344 35.072 745.158 Q32.5894 746.973 32.5894 750.76 Q32.5894 755.248 35.6449 757.89 Q38.6686 760.532 43.8567 760.532 L64.0042 760.532 L64.0042 766.42 L28.3562 766.42 L28.3562 760.532 L33.8944 760.532 Q30.616 758.526 29.0564 755.725 Q27.4968 752.925 27.4968 749.073 Q27.4968 745.19 29.4702 742.485 Q31.4436 739.748 35.1993 738.443 Z" fill="#000000" fill-rule="nonzero" fill-opacity="1" /><path clip-path="url(#clip380)" d="M44.7161 672.207 L47.5806 672.207 L47.5806 699.134 Q53.6281 698.752 56.8109 695.506 Q59.9619 692.228 59.9619 686.403 Q59.9619 683.029 59.1344 679.878 Q58.3069 676.695 56.6518 673.576 L62.1899 673.576 Q63.5267 676.727 64.227 680.037 Q64.9272 683.347 64.9272 686.753 Q64.9272 695.283 59.9619 700.28 Q54.9967 705.245 46.5303 705.245 Q37.7774 705.245 32.6531 700.535 Q27.4968 695.792 27.4968 687.772 Q27.4968 680.578 32.1438 676.409 Q36.7589 672.207 44.7161 672.207 M42.9973 678.064 Q38.1912 678.127 35.3266 680.769 Q32.4621 683.379 32.4621 687.708 Q32.4621 692.609 35.2312 695.57 Q38.0002 698.498 43.0292 698.943 L42.9973 678.064 Z" fill="#000000" fill-rule="nonzero" fill-opacity="1" /><path clip-path="url(#clip380)" d="M18.2347 656.802 L28.3562 656.802 L28.3562 644.739 L32.9077 644.739 L32.9077 656.802 L52.2594 656.802 Q56.6199 656.802 57.8613 655.625 Q59.1026 654.415 59.1026 650.755 L59.1026 644.739 L64.0042 644.739 L64.0042 650.755 Q64.0042 657.534 61.4897 660.113 Q58.9434 662.691 52.2594 662.691 L32.9077 662.691 L32.9077 666.988 L28.3562 666.988 L28.3562 662.691 L18.2347 662.691 L18.2347 656.802 Z" fill="#000000" fill-rule="nonzero" fill-opacity="1" /><path clip-path="url(#clip380)" d="M44.7161 606.545 L47.5806 606.545 L47.5806 633.472 Q53.6281 633.09 56.8109 629.844 Q59.9619 626.565 59.9619 620.741 Q59.9619 617.367 59.1344 614.216 Q58.3069 611.033 56.6518 607.914 L62.1899 607.914 Q63.5267 611.065 64.227 614.375 Q64.9272 617.685 64.9272 621.091 Q64.9272 629.621 59.9619 634.618 Q54.9967 639.583 46.5303 639.583 Q37.7774 639.583 32.6531 634.873 Q27.4968 630.13 27.4968 622.109 Q27.4968 614.916 32.1438 610.746 Q36.7589 606.545 44.7161 606.545 M42.9973 612.402 Q38.1912 612.465 35.3266 615.107 Q32.4621 617.717 32.4621 622.046 Q32.4621 626.947 35.2312 629.907 Q38.0002 632.835 43.0292 633.281 L42.9973 612.402 Z" fill="#000000" fill-rule="nonzero" fill-opacity="1" /><path clip-path="url(#clip380)" d="M33.8307 576.276 Q33.2578 577.263 33.0032 578.441 Q32.7167 579.586 32.7167 580.987 Q32.7167 585.952 35.9632 588.626 Q39.1779 591.267 45.2253 591.267 L64.0042 591.267 L64.0042 597.156 L28.3562 597.156 L28.3562 591.267 L33.8944 591.267 Q30.6479 589.421 29.0883 586.461 Q27.4968 583.501 27.4968 579.268 Q27.4968 578.663 27.5923 577.931 Q27.656 577.199 27.8151 576.308 L33.8307 576.276 Z" fill="#000000" fill-rule="nonzero" fill-opacity="1" /><path clip-path="url(#clip380)" d="M64.0042 536.904 L16.4842 555.047 L16.4842 548.331 L56.4926 533.276 L16.4842 518.189 L16.4842 511.505 L64.0042 529.616 L64.0042 536.904 Z" fill="#000000" fill-rule="nonzero" fill-opacity="1" /><path clip-path="url(#clip380)" d="M46.0847 493.681 Q46.0847 500.779 47.7079 503.516 Q49.3312 506.253 53.2461 506.253 Q56.3653 506.253 58.2114 504.216 Q60.0256 502.148 60.0256 498.615 Q60.0256 493.745 56.5881 490.817 Q53.1188 487.857 47.3897 487.857 L46.0847 487.857 L46.0847 493.681 M43.6657 482 L64.0042 482 L64.0042 487.857 L58.5933 487.857 Q61.8398 489.862 63.3994 492.854 Q64.9272 495.845 64.9272 500.174 Q64.9272 505.649 61.8716 508.895 Q58.7843 512.11 53.6281 512.11 Q47.6125 512.11 44.5569 508.099 Q41.5014 504.057 41.5014 496.068 L41.5014 487.857 L40.9285 487.857 Q36.8862 487.857 34.6901 490.53 Q32.4621 493.172 32.4621 497.978 Q32.4621 501.034 33.1941 503.93 Q33.9262 506.826 35.3903 509.5 L29.9795 509.5 Q28.7381 506.285 28.1334 503.262 Q27.4968 500.238 27.4968 497.373 Q27.4968 489.639 31.5072 485.819 Q35.5176 482 43.6657 482 Z" fill="#000000" fill-rule="nonzero" fill-opacity="1" /><path clip-path="url(#clip380)" d="M14.479 469.937 L14.479 464.081 L64.0042 464.081 L64.0042 469.937 L14.479 469.937 Z" fill="#000000" fill-rule="nonzero" fill-opacity="1" /><path clip-path="url(#clip380)" d="M49.9359 452.431 L28.3562 452.431 L28.3562 446.575 L49.7131 446.575 Q54.7739 446.575 57.3202 444.602 Q59.8346 442.628 59.8346 438.681 Q59.8346 433.939 56.8109 431.202 Q53.7872 428.433 48.5673 428.433 L28.3562 428.433 L28.3562 422.576 L64.0042 422.576 L64.0042 428.433 L58.5296 428.433 Q61.7762 430.565 63.3676 433.398 Q64.9272 436.199 64.9272 439.923 Q64.9272 446.066 61.1078 449.249 Q57.2883 452.431 49.9359 452.431 M27.4968 437.695 L27.4968 437.695 Z" fill="#000000" fill-rule="nonzero" fill-opacity="1" /><path clip-path="url(#clip380)" d="M44.7161 380.021 L47.5806 380.021 L47.5806 406.948 Q53.6281 406.566 56.8109 403.32 Q59.9619 400.042 59.9619 394.217 Q59.9619 390.843 59.1344 387.692 Q58.3069 384.509 56.6518 381.39 L62.1899 381.39 Q63.5267 384.541 64.227 387.851 Q64.9272 391.161 64.9272 394.567 Q64.9272 403.097 59.9619 408.094 Q54.9967 413.059 46.5303 413.059 Q37.7774 413.059 32.6531 408.349 Q27.4968 403.606 27.4968 395.586 Q27.4968 388.392 32.1438 384.223 Q36.7589 380.021 44.7161 380.021 M42.9973 385.878 Q38.1912 385.942 35.3266 388.583 Q32.4621 391.193 32.4621 395.522 Q32.4621 400.424 35.2312 403.384 Q38.0002 406.312 43.0292 406.757 L42.9973 385.878 Z" fill="#000000" fill-rule="nonzero" fill-opacity="1" /><path clip-path="url(#clip380)" d="M14.5426 371.332 L14.5426 366.24 Q22.0542 361.465 29.2474 359.11 Q36.4406 356.723 43.5384 356.723 Q50.668 356.723 57.8931 359.11 Q65.1182 361.465 72.5979 366.24 L72.5979 371.332 Q65.3091 367.099 58.1159 365.03 Q50.8908 362.93 43.5384 362.93 Q36.186 362.93 29.0246 365.03 Q21.8632 367.099 14.5426 371.332 Z" fill="#000000" fill-rule="nonzero" fill-opacity="1" /><circle clip-path="url(#clip382)" cx="344.46" cy="776.222" r="14.4" fill="#009af9" fill-rule="evenodd" fill-opacity="1" stroke="#000000" stroke-opacity="1" stroke-width="3.2"/>
<circle clip-path="url(#clip382)" cx="341.668" cy="776.222" r="14.4" fill="#009af9" fill-rule="evenodd" fill-opacity="1" stroke="#000000" stroke-opacity="1" stroke-width="3.2"/>
<circle clip-path="url(#clip382)" cx="342.747" cy="776.222" r="14.4" fill="#009af9" fill-rule="evenodd" fill-opacity="1" stroke="#000000" stroke-opacity="1" stroke-width="3.2"/>
<circle clip-path="url(#clip382)" cx="338.331" cy="776.222" r="14.4" fill="#009af9" fill-rule="evenodd" fill-opacity="1" stroke="#000000" stroke-opacity="1" stroke-width="3.2"/>
<circle clip-path="url(#clip382)" cx="338.16" cy="802.255" r="14.4" fill="#009af9" fill-rule="evenodd" fill-opacity="1" stroke="#000000" stroke-opacity="1" stroke-width="3.2"/>
<circle clip-path="url(#clip382)" cx="343.606" cy="792.112" r="14.4" fill="#009af9" fill-rule="evenodd" fill-opacity="1" stroke="#000000" stroke-opacity="1" stroke-width="3.2"/>
<circle clip-path="url(#clip382)" cx="340.437" cy="786.211" r="14.4" fill="#009af9" fill-rule="evenodd" fill-opacity="1" stroke="#000000" stroke-opacity="1" stroke-width="3.2"/>
<circle clip-path="url(#clip382)" cx="355.031" cy="793.28" r="14.4" fill="#009af9" fill-rule="evenodd" fill-opacity="1" stroke="#000000" stroke-opacity="1" stroke-width="3.2"/>
<circle clip-path="url(#clip382)" cx="368.256" cy="818.455" r="14.4" fill="#009af9" fill-rule="evenodd" fill-opacity="1" stroke="#000000" stroke-opacity="1" stroke-width="3.2"/>
<circle clip-path="url(#clip382)" cx="349.154" cy="786.657" r="14.4" fill="#009af9" fill-rule="evenodd" fill-opacity="1" stroke="#000000" stroke-opacity="1" stroke-width="3.2"/>
<circle clip-path="url(#clip382)" cx="334.736" cy="786.657" r="14.4" fill="#009af9" fill-rule="evenodd" fill-opacity="1" stroke="#000000" stroke-opacity="1" stroke-width="3.2"/>
<circle clip-path="url(#clip382)" cx="381.843" cy="818.455" r="14.4" fill="#009af9" fill-rule="evenodd" fill-opacity="1" stroke="#000000" stroke-opacity="1" stroke-width="3.2"/>
<circle clip-path="url(#clip382)" cx="340.768" cy="804.648" r="14.4" fill="#009af9" fill-rule="evenodd" fill-opacity="1" stroke="#000000" stroke-opacity="1" stroke-width="3.2"/>
<circle clip-path="url(#clip382)" cx="362.396" cy="804.648" r="14.4" fill="#009af9" fill-rule="evenodd" fill-opacity="1" stroke="#000000" stroke-opacity="1" stroke-width="3.2"/>
<circle clip-path="url(#clip382)" cx="367.744" cy="822.053" r="14.4" fill="#009af9" fill-rule="evenodd" fill-opacity="1" stroke="#000000" stroke-opacity="1" stroke-width="3.2"/>
<circle clip-path="url(#clip382)" cx="371.973" cy="815.782" r="14.4" fill="#009af9" fill-rule="evenodd" fill-opacity="1" stroke="#000000" stroke-opacity="1" stroke-width="3.2"/>
<circle clip-path="url(#clip382)" cx="338.252" cy="804.648" r="14.4" fill="#009af9" fill-rule="evenodd" fill-opacity="1" stroke="#000000" stroke-opacity="1" stroke-width="3.2"/>
<circle clip-path="url(#clip382)" cx="317.221" cy="804.648" r="14.4" fill="#009af9" fill-rule="evenodd" fill-opacity="1" stroke="#000000" stroke-opacity="1" stroke-width="3.2"/>
<circle clip-path="url(#clip382)" cx="332.996" cy="804.648" r="14.4" fill="#009af9" fill-rule="evenodd" fill-opacity="1" stroke="#000000" stroke-opacity="1" stroke-width="3.2"/>
<circle clip-path="url(#clip382)" cx="348.102" cy="822.053" r="14.4" fill="#009af9" fill-rule="evenodd" fill-opacity="1" stroke="#000000" stroke-opacity="1" stroke-width="3.2"/>
<circle clip-path="url(#clip382)" cx="314.808" cy="799.764" r="14.4" fill="#009af9" fill-rule="evenodd" fill-opacity="1" stroke="#000000" stroke-opacity="1" stroke-width="3.2"/>
<circle clip-path="url(#clip382)" cx="320.297" cy="799.764" r="14.4" fill="#009af9" fill-rule="evenodd" fill-opacity="1" stroke="#000000" stroke-opacity="1" stroke-width="3.2"/>
<circle clip-path="url(#clip382)" cx="349.837" cy="799.764" r="14.4" fill="#009af9" fill-rule="evenodd" fill-opacity="1" stroke="#000000" stroke-opacity="1" stroke-width="3.2"/>
<circle clip-path="url(#clip382)" cx="371.402" cy="820.717" r="14.4" fill="#009af9" fill-rule="evenodd" fill-opacity="1" stroke="#000000" stroke-opacity="1" stroke-width="3.2"/>
<circle clip-path="url(#clip382)" cx="301.869" cy="813.686" r="14.4" fill="#009af9" fill-rule="evenodd" fill-opacity="1" stroke="#000000" stroke-opacity="1" stroke-width="3.2"/>
<circle clip-path="url(#clip382)" cx="330.944" cy="799.764" r="14.4" fill="#009af9" fill-rule="evenodd" fill-opacity="1" stroke="#000000" stroke-opacity="1" stroke-width="3.2"/>
<circle clip-path="url(#clip382)" cx="367.55" cy="799.764" r="14.4" fill="#009af9" fill-rule="evenodd" fill-opacity="1" stroke="#000000" stroke-opacity="1" stroke-width="3.2"/>
<circle clip-path="url(#clip382)" cx="313.939" cy="820.717" r="14.4" fill="#009af9" fill-rule="evenodd" fill-opacity="1" stroke="#000000" stroke-opacity="1" stroke-width="3.2"/>
<circle clip-path="url(#clip382)" cx="371.222" cy="814.771" r="14.4" fill="#009af9" fill-rule="evenodd" fill-opacity="1" stroke="#000000" stroke-opacity="1" stroke-width="3.2"/>
<circle clip-path="url(#clip382)" cx="335.021" cy="814.771" r="14.4" fill="#009af9" fill-rule="evenodd" fill-opacity="1" stroke="#000000" stroke-opacity="1" stroke-width="3.2"/>
<circle clip-path="url(#clip382)" cx="307.345" cy="814.771" r="14.4" fill="#009af9" fill-rule="evenodd" fill-opacity="1" stroke="#000000" stroke-opacity="1" stroke-width="3.2"/>
<circle clip-path="url(#clip382)" cx="317.894" cy="821.4" r="14.4" fill="#009af9" fill-rule="evenodd" fill-opacity="1" stroke="#000000" stroke-opacity="1" stroke-width="3.2"/>
<circle clip-path="url(#clip382)" cx="355.828" cy="814.771" r="14.4" fill="#009af9" fill-rule="evenodd" fill-opacity="1" stroke="#000000" stroke-opacity="1" stroke-width="3.2"/>
<circle clip-path="url(#clip382)" cx="367.692" cy="814.771" r="14.4" fill="#009af9" fill-rule="evenodd" fill-opacity="1" stroke="#000000" stroke-opacity="1" stroke-width="3.2"/>
<circle clip-path="url(#clip382)" cx="375.273" cy="814.771" r="14.4" fill="#009af9" fill-rule="evenodd" fill-opacity="1" stroke="#000000" stroke-opacity="1" stroke-width="3.2"/>
<circle clip-path="url(#clip382)" cx="357.717" cy="814.771" r="14.4" fill="#009af9" fill-rule="evenodd" fill-opacity="1" stroke="#000000" stroke-opacity="1" stroke-width="3.2"/>
<circle clip-path="url(#clip382)" cx="308.041" cy="802.407" r="14.4" fill="#009af9" fill-rule="evenodd" fill-opacity="1" stroke="#000000" stroke-opacity="1" stroke-width="3.2"/>
<circle clip-path="url(#clip382)" cx="339.308" cy="802.407" r="14.4" fill="#009af9" fill-rule="evenodd" fill-opacity="1" stroke="#000000" stroke-opacity="1" stroke-width="3.2"/>
<circle clip-path="url(#clip382)" cx="352.571" cy="802.407" r="14.4" fill="#009af9" fill-rule="evenodd" fill-opacity="1" stroke="#000000" stroke-opacity="1" stroke-width="3.2"/>
<circle clip-path="url(#clip382)" cx="354.336" cy="825.958" r="14.4" fill="#009af9" fill-rule="evenodd" fill-opacity="1" stroke="#000000" stroke-opacity="1" stroke-width="3.2"/>
<circle clip-path="url(#clip382)" cx="371.529" cy="815.721" r="14.4" fill="#009af9" fill-rule="evenodd" fill-opacity="1" stroke="#000000" stroke-opacity="1" stroke-width="3.2"/>
<circle clip-path="url(#clip382)" cx="313.378" cy="815.721" r="14.4" fill="#009af9" fill-rule="evenodd" fill-opacity="1" stroke="#000000" stroke-opacity="1" stroke-width="3.2"/>
<circle clip-path="url(#clip382)" cx="343.882" cy="815.721" r="14.4" fill="#009af9" fill-rule="evenodd" fill-opacity="1" stroke="#000000" stroke-opacity="1" stroke-width="3.2"/>
<circle clip-path="url(#clip382)" cx="365.54" cy="822.013" r="14.4" fill="#009af9" fill-rule="evenodd" fill-opacity="1" stroke="#000000" stroke-opacity="1" stroke-width="3.2"/>
<circle clip-path="url(#clip382)" cx="304.256" cy="815.721" r="14.4" fill="#009af9" fill-rule="evenodd" fill-opacity="1" stroke="#000000" stroke-opacity="1" stroke-width="3.2"/>
<circle clip-path="url(#clip382)" cx="377.476" cy="815.721" r="14.4" fill="#009af9" fill-rule="evenodd" fill-opacity="1" stroke="#000000" stroke-opacity="1" stroke-width="3.2"/>
<circle clip-path="url(#clip382)" cx="338.953" cy="813.615" r="14.4" fill="#009af9" fill-rule="evenodd" fill-opacity="1" stroke="#000000" stroke-opacity="1" stroke-width="3.2"/>
<circle clip-path="url(#clip382)" cx="343.475" cy="813.615" r="14.4" fill="#009af9" fill-rule="evenodd" fill-opacity="1" stroke="#000000" stroke-opacity="1" stroke-width="3.2"/>
<circle clip-path="url(#clip382)" cx="360.871" cy="799.582" r="14.4" fill="#009af9" fill-rule="evenodd" fill-opacity="1" stroke="#000000" stroke-opacity="1" stroke-width="3.2"/>
<circle clip-path="url(#clip382)" cx="341.222" cy="799.582" r="14.4" fill="#009af9" fill-rule="evenodd" fill-opacity="1" stroke="#000000" stroke-opacity="1" stroke-width="3.2"/>
<circle clip-path="url(#clip382)" cx="351.412" cy="799.582" r="14.4" fill="#009af9" fill-rule="evenodd" fill-opacity="1" stroke="#000000" stroke-opacity="1" stroke-width="3.2"/>
<circle clip-path="url(#clip382)" cx="333.696" cy="825.428" r="14.4" fill="#009af9" fill-rule="evenodd" fill-opacity="1" stroke="#000000" stroke-opacity="1" stroke-width="3.2"/>
<circle clip-path="url(#clip382)" cx="314.011" cy="802.255" r="14.4" fill="#009af9" fill-rule="evenodd" fill-opacity="1" stroke="#000000" stroke-opacity="1" stroke-width="3.2"/>
<circle clip-path="url(#clip382)" cx="362.055" cy="802.255" r="14.4" fill="#009af9" fill-rule="evenodd" fill-opacity="1" stroke="#000000" stroke-opacity="1" stroke-width="3.2"/>
<circle clip-path="url(#clip382)" cx="319.052" cy="821.359" r="14.4" fill="#009af9" fill-rule="evenodd" fill-opacity="1" stroke="#000000" stroke-opacity="1" stroke-width="3.2"/>
<circle clip-path="url(#clip382)" cx="342.769" cy="814.705" r="14.4" fill="#009af9" fill-rule="evenodd" fill-opacity="1" stroke="#000000" stroke-opacity="1" stroke-width="3.2"/>
<circle clip-path="url(#clip382)" cx="311.891" cy="802.255" r="14.4" fill="#009af9" fill-rule="evenodd" fill-opacity="1" stroke="#000000" stroke-opacity="1" stroke-width="3.2"/>
<circle clip-path="url(#clip382)" cx="357.356" cy="802.255" r="14.4" fill="#009af9" fill-rule="evenodd" fill-opacity="1" stroke="#000000" stroke-opacity="1" stroke-width="3.2"/>
<circle clip-path="url(#clip382)" cx="376.396" cy="802.255" r="14.4" fill="#009af9" fill-rule="evenodd" fill-opacity="1" stroke="#000000" stroke-opacity="1" stroke-width="3.2"/>
<circle clip-path="url(#clip382)" cx="312.911" cy="821.359" r="14.4" fill="#009af9" fill-rule="evenodd" fill-opacity="1" stroke="#000000" stroke-opacity="1" stroke-width="3.2"/>
<circle clip-path="url(#clip382)" cx="371.943" cy="802.255" r="14.4" fill="#009af9" fill-rule="evenodd" fill-opacity="1" stroke="#000000" stroke-opacity="1" stroke-width="3.2"/>
<circle clip-path="url(#clip382)" cx="374.525" cy="802.255" r="14.4" fill="#009af9" fill-rule="evenodd" fill-opacity="1" stroke="#000000" stroke-opacity="1" stroke-width="3.2"/>
<circle clip-path="url(#clip382)" cx="353.105" cy="821.359" r="14.4" fill="#009af9" fill-rule="evenodd" fill-opacity="1" stroke="#000000" stroke-opacity="1" stroke-width="3.2"/>
<circle clip-path="url(#clip382)" cx="381.533" cy="814.705" r="14.4" fill="#009af9" fill-rule="evenodd" fill-opacity="1" stroke="#000000" stroke-opacity="1" stroke-width="3.2"/>
<circle clip-path="url(#clip382)" cx="358.498" cy="802.255" r="14.4" fill="#009af9" fill-rule="evenodd" fill-opacity="1" stroke="#000000" stroke-opacity="1" stroke-width="3.2"/>
<circle clip-path="url(#clip382)" cx="354.845" cy="802.255" r="14.4" fill="#009af9" fill-rule="evenodd" fill-opacity="1" stroke="#000000" stroke-opacity="1" stroke-width="3.2"/>
<circle clip-path="url(#clip382)" cx="313.991" cy="821.359" r="14.4" fill="#009af9" fill-rule="evenodd" fill-opacity="1" stroke="#000000" stroke-opacity="1" stroke-width="3.2"/>
<circle clip-path="url(#clip382)" cx="349.02" cy="792.112" r="14.4" fill="#009af9" fill-rule="evenodd" fill-opacity="1" stroke="#000000" stroke-opacity="1" stroke-width="3.2"/>
<circle clip-path="url(#clip382)" cx="353.784" cy="792.112" r="14.4" fill="#009af9" fill-rule="evenodd" fill-opacity="1" stroke="#000000" stroke-opacity="1" stroke-width="3.2"/>
<circle clip-path="url(#clip382)" cx="308.903" cy="819.2" r="14.4" fill="#009af9" fill-rule="evenodd" fill-opacity="1" stroke="#000000" stroke-opacity="1" stroke-width="3.2"/>
<circle clip-path="url(#clip382)" cx="329.765" cy="792.112" r="14.4" fill="#009af9" fill-rule="evenodd" fill-opacity="1" stroke="#000000" stroke-opacity="1" stroke-width="3.2"/>
<circle clip-path="url(#clip382)" cx="324.034" cy="819.2" r="14.4" fill="#009af9" fill-rule="evenodd" fill-opacity="1" stroke="#000000" stroke-opacity="1" stroke-width="3.2"/>
<circle clip-path="url(#clip382)" cx="342.887" cy="792.112" r="14.4" fill="#009af9" fill-rule="evenodd" fill-opacity="1" stroke="#000000" stroke-opacity="1" stroke-width="3.2"/>
<circle clip-path="url(#clip382)" cx="349.559" cy="792.112" r="14.4" fill="#009af9" fill-rule="evenodd" fill-opacity="1" stroke="#000000" stroke-opacity="1" stroke-width="3.2"/>
<circle clip-path="url(#clip382)" cx="335.025" cy="792.112" r="14.4" fill="#009af9" fill-rule="evenodd" fill-opacity="1" stroke="#000000" stroke-opacity="1" stroke-width="3.2"/>
<circle clip-path="url(#clip382)" cx="338.72" cy="824.375" r="14.4" fill="#009af9" fill-rule="evenodd" fill-opacity="1" stroke="#000000" stroke-opacity="1" stroke-width="3.2"/>
<circle clip-path="url(#clip382)" cx="323.594" cy="808.208" r="14.4" fill="#009af9" fill-rule="evenodd" fill-opacity="1" stroke="#000000" stroke-opacity="1" stroke-width="3.2"/>
<circle clip-path="url(#clip382)" cx="348.499" cy="808.208" r="14.4" fill="#009af9" fill-rule="evenodd" fill-opacity="1" stroke="#000000" stroke-opacity="1" stroke-width="3.2"/>
<circle clip-path="url(#clip382)" cx="326.482" cy="808.208" r="14.4" fill="#009af9" fill-rule="evenodd" fill-opacity="1" stroke="#000000" stroke-opacity="1" stroke-width="3.2"/>
<circle clip-path="url(#clip382)" cx="308.626" cy="817.563" r="14.4" fill="#009af9" fill-rule="evenodd" fill-opacity="1" stroke="#000000" stroke-opacity="1" stroke-width="3.2"/>
<circle clip-path="url(#clip382)" cx="369.284" cy="817.563" r="14.4" fill="#009af9" fill-rule="evenodd" fill-opacity="1" stroke="#000000" stroke-opacity="1" stroke-width="3.2"/>
<circle clip-path="url(#clip382)" cx="367.978" cy="817.563" r="14.4" fill="#009af9" fill-rule="evenodd" fill-opacity="1" stroke="#000000" stroke-opacity="1" stroke-width="3.2"/>
<circle clip-path="url(#clip382)" cx="322.459" cy="809.757" r="14.4" fill="#009af9" fill-rule="evenodd" fill-opacity="1" stroke="#000000" stroke-opacity="1" stroke-width="3.2"/>
<circle clip-path="url(#clip382)" cx="313.451" cy="809.757" r="14.4" fill="#009af9" fill-rule="evenodd" fill-opacity="1" stroke="#000000" stroke-opacity="1" stroke-width="3.2"/>
<circle clip-path="url(#clip382)" cx="330.84" cy="809.757" r="14.4" fill="#009af9" fill-rule="evenodd" fill-opacity="1" stroke="#000000" stroke-opacity="1" stroke-width="3.2"/>
<circle clip-path="url(#clip382)" cx="327.991" cy="823.819" r="14.4" fill="#009af9" fill-rule="evenodd" fill-opacity="1" stroke="#000000" stroke-opacity="1" stroke-width="3.2"/>
<circle clip-path="url(#clip382)" cx="364.241" cy="809.757" r="14.4" fill="#009af9" fill-rule="evenodd" fill-opacity="1" stroke="#000000" stroke-opacity="1" stroke-width="3.2"/>
<circle clip-path="url(#clip382)" cx="333.34" cy="786.211" r="14.4" fill="#009af9" fill-rule="evenodd" fill-opacity="1" stroke="#000000" stroke-opacity="1" stroke-width="3.2"/>
<circle clip-path="url(#clip382)" cx="332.438" cy="818.404" r="14.4" fill="#009af9" fill-rule="evenodd" fill-opacity="1" stroke="#000000" stroke-opacity="1" stroke-width="3.2"/>
<circle clip-path="url(#clip382)" cx="336.574" cy="786.211" r="14.4" fill="#009af9" fill-rule="evenodd" fill-opacity="1" stroke="#000000" stroke-opacity="1" stroke-width="3.2"/>
<circle clip-path="url(#clip382)" cx="311.11" cy="818.404" r="14.4" fill="#009af9" fill-rule="evenodd" fill-opacity="1" stroke="#000000" stroke-opacity="1" stroke-width="3.2"/>
<circle clip-path="url(#clip382)" cx="358.072" cy="809.757" r="14.4" fill="#009af9" fill-rule="evenodd" fill-opacity="1" stroke="#000000" stroke-opacity="1" stroke-width="3.2"/>
<circle clip-path="url(#clip382)" cx="327.823" cy="809.757" r="14.4" fill="#009af9" fill-rule="evenodd" fill-opacity="1" stroke="#000000" stroke-opacity="1" stroke-width="3.2"/>
<circle clip-path="url(#clip382)" cx="350.499" cy="809.757" r="14.4" fill="#009af9" fill-rule="evenodd" fill-opacity="1" stroke="#000000" stroke-opacity="1" stroke-width="3.2"/>
<circle clip-path="url(#clip382)" cx="368.747" cy="809.757" r="14.4" fill="#009af9" fill-rule="evenodd" fill-opacity="1" stroke="#000000" stroke-opacity="1" stroke-width="3.2"/>
<circle clip-path="url(#clip382)" cx="325.984" cy="823.819" r="14.4" fill="#009af9" fill-rule="evenodd" fill-opacity="1" stroke="#000000" stroke-opacity="1" stroke-width="3.2"/>
<circle clip-path="url(#clip382)" cx="314.037" cy="800.297" r="14.4" fill="#009af9" fill-rule="evenodd" fill-opacity="1" stroke="#000000" stroke-opacity="1" stroke-width="3.2"/>
<circle clip-path="url(#clip382)" cx="330.482" cy="800.297" r="14.4" fill="#009af9" fill-rule="evenodd" fill-opacity="1" stroke="#000000" stroke-opacity="1" stroke-width="3.2"/>
<circle clip-path="url(#clip382)" cx="343.742" cy="820.848" r="14.4" fill="#009af9" fill-rule="evenodd" fill-opacity="1" stroke="#000000" stroke-opacity="1" stroke-width="3.2"/>
<circle clip-path="url(#clip382)" cx="373.725" cy="813.895" r="14.4" fill="#009af9" fill-rule="evenodd" fill-opacity="1" stroke="#000000" stroke-opacity="1" stroke-width="3.2"/>
<circle clip-path="url(#clip382)" cx="314.65" cy="808.611" r="14.4" fill="#009af9" fill-rule="evenodd" fill-opacity="1" stroke="#000000" stroke-opacity="1" stroke-width="3.2"/>
<circle clip-path="url(#clip382)" cx="316.442" cy="808.611" r="14.4" fill="#009af9" fill-rule="evenodd" fill-opacity="1" stroke="#000000" stroke-opacity="1" stroke-width="3.2"/>
<circle clip-path="url(#clip382)" cx="341.418" cy="808.611" r="14.4" fill="#009af9" fill-rule="evenodd" fill-opacity="1" stroke="#000000" stroke-opacity="1" stroke-width="3.2"/>
<circle clip-path="url(#clip382)" cx="321.965" cy="823.388" r="14.4" fill="#009af9" fill-rule="evenodd" fill-opacity="1" stroke="#000000" stroke-opacity="1" stroke-width="3.2"/>
<circle clip-path="url(#clip382)" cx="337.863" cy="805.032" r="14.4" fill="#009af9" fill-rule="evenodd" fill-opacity="1" stroke="#000000" stroke-opacity="1" stroke-width="3.2"/>
<circle clip-path="url(#clip382)" cx="373.739" cy="805.032" r="14.4" fill="#009af9" fill-rule="evenodd" fill-opacity="1" stroke="#000000" stroke-opacity="1" stroke-width="3.2"/>
<circle clip-path="url(#clip382)" cx="324.23" cy="805.032" r="14.4" fill="#009af9" fill-rule="evenodd" fill-opacity="1" stroke="#000000" stroke-opacity="1" stroke-width="3.2"/>
<circle clip-path="url(#clip382)" cx="354.68" cy="822.173" r="14.4" fill="#009af9" fill-rule="evenodd" fill-opacity="1" stroke="#000000" stroke-opacity="1" stroke-width="3.2"/>
<circle clip-path="url(#clip382)" cx="364.138" cy="811.489" r="14.4" fill="#009af9" fill-rule="evenodd" fill-opacity="1" stroke="#000000" stroke-opacity="1" stroke-width="3.2"/>
<circle clip-path="url(#clip382)" cx="346.425" cy="793.28" r="14.4" fill="#009af9" fill-rule="evenodd" fill-opacity="1" stroke="#000000" stroke-opacity="1" stroke-width="3.2"/>
<circle clip-path="url(#clip382)" cx="354.507" cy="819.393" r="14.4" fill="#009af9" fill-rule="evenodd" fill-opacity="1" stroke="#000000" stroke-opacity="1" stroke-width="3.2"/>
<circle clip-path="url(#clip382)" cx="370.119" cy="811.489" r="14.4" fill="#009af9" fill-rule="evenodd" fill-opacity="1" stroke="#000000" stroke-opacity="1" stroke-width="3.2"/>
<circle clip-path="url(#clip382)" cx="331.165" cy="811.489" r="14.4" fill="#009af9" fill-rule="evenodd" fill-opacity="1" stroke="#000000" stroke-opacity="1" stroke-width="3.2"/>
<circle clip-path="url(#clip382)" cx="334.087" cy="811.489" r="14.4" fill="#009af9" fill-rule="evenodd" fill-opacity="1" stroke="#000000" stroke-opacity="1" stroke-width="3.2"/>
<circle clip-path="url(#clip382)" cx="329.186" cy="819.393" r="14.4" fill="#009af9" fill-rule="evenodd" fill-opacity="1" stroke="#000000" stroke-opacity="1" stroke-width="3.2"/>
<circle clip-path="url(#clip382)" cx="358.399" cy="815.964" r="14.4" fill="#009af9" fill-rule="evenodd" fill-opacity="1" stroke="#000000" stroke-opacity="1" stroke-width="3.2"/>
<circle clip-path="url(#clip382)" cx="323.181" cy="815.964" r="14.4" fill="#009af9" fill-rule="evenodd" fill-opacity="1" stroke="#000000" stroke-opacity="1" stroke-width="3.2"/>
<circle clip-path="url(#clip382)" cx="338.138" cy="786.211" r="14.4" fill="#009af9" fill-rule="evenodd" fill-opacity="1" stroke="#000000" stroke-opacity="1" stroke-width="3.2"/>
<circle clip-path="url(#clip382)" cx="1413.2" cy="692.115" r="14.4" fill="#009af9" fill-rule="evenodd" fill-opacity="1" stroke="#000000" stroke-opacity="1" stroke-width="3.2"/>
<circle clip-path="url(#clip382)" cx="1411.75" cy="692.115" r="14.4" fill="#009af9" fill-rule="evenodd" fill-opacity="1" stroke="#000000" stroke-opacity="1" stroke-width="3.2"/>
<circle clip-path="url(#clip382)" cx="1419.41" cy="692.115" r="14.4" fill="#009af9" fill-rule="evenodd" fill-opacity="1" stroke="#000000" stroke-opacity="1" stroke-width="3.2"/>
<circle clip-path="url(#clip382)" cx="1414.21" cy="692.115" r="14.4" fill="#009af9" fill-rule="evenodd" fill-opacity="1" stroke="#000000" stroke-opacity="1" stroke-width="3.2"/>
<circle clip-path="url(#clip382)" cx="1392.2" cy="667.79" r="14.4" fill="#009af9" fill-rule="evenodd" fill-opacity="1" stroke="#000000" stroke-opacity="1" stroke-width="3.2"/>
<circle clip-path="url(#clip382)" cx="1425.93" cy="677.568" r="14.4" fill="#009af9" fill-rule="evenodd" fill-opacity="1" stroke="#000000" stroke-opacity="1" stroke-width="3.2"/>
<circle clip-path="url(#clip382)" cx="1410.18" cy="683.116" r="14.4" fill="#009af9" fill-rule="evenodd" fill-opacity="1" stroke="#000000" stroke-opacity="1" stroke-width="3.2"/>
<circle clip-path="url(#clip382)" cx="1411.79" cy="676.455" r="14.4" fill="#009af9" fill-rule="evenodd" fill-opacity="1" stroke="#000000" stroke-opacity="1" stroke-width="3.2"/>
<circle clip-path="url(#clip382)" cx="1417.64" cy="651.841" r="14.4" fill="#009af9" fill-rule="evenodd" fill-opacity="1" stroke="#000000" stroke-opacity="1" stroke-width="3.2"/>
<circle clip-path="url(#clip382)" cx="1419.89" cy="682.701" r="14.4" fill="#009af9" fill-rule="evenodd" fill-opacity="1" stroke="#000000" stroke-opacity="1" stroke-width="3.2"/>
<circle clip-path="url(#clip382)" cx="1406.85" cy="682.701" r="14.4" fill="#009af9" fill-rule="evenodd" fill-opacity="1" stroke="#000000" stroke-opacity="1" stroke-width="3.2"/>
<circle clip-path="url(#clip382)" cx="1422.62" cy="651.841" r="14.4" fill="#009af9" fill-rule="evenodd" fill-opacity="1" stroke="#000000" stroke-opacity="1" stroke-width="3.2"/>
<circle clip-path="url(#clip382)" cx="1445.03" cy="665.454" r="14.4" fill="#009af9" fill-rule="evenodd" fill-opacity="1" stroke="#000000" stroke-opacity="1" stroke-width="3.2"/>
<circle clip-path="url(#clip382)" cx="1441.3" cy="665.454" r="14.4" fill="#009af9" fill-rule="evenodd" fill-opacity="1" stroke="#000000" stroke-opacity="1" stroke-width="3.2"/>
<circle clip-path="url(#clip382)" cx="1426.5" cy="648.271" r="14.4" fill="#009af9" fill-rule="evenodd" fill-opacity="1" stroke="#000000" stroke-opacity="1" stroke-width="3.2"/>
<circle clip-path="url(#clip382)" cx="1422.2" cy="654.49" r="14.4" fill="#009af9" fill-rule="evenodd" fill-opacity="1" stroke="#000000" stroke-opacity="1" stroke-width="3.2"/>
<circle clip-path="url(#clip382)" cx="1394.49" cy="665.454" r="14.4" fill="#009af9" fill-rule="evenodd" fill-opacity="1" stroke="#000000" stroke-opacity="1" stroke-width="3.2"/>
<circle clip-path="url(#clip382)" cx="1403.41" cy="665.454" r="14.4" fill="#009af9" fill-rule="evenodd" fill-opacity="1" stroke="#000000" stroke-opacity="1" stroke-width="3.2"/>
<circle clip-path="url(#clip382)" cx="1394.94" cy="665.454" r="14.4" fill="#009af9" fill-rule="evenodd" fill-opacity="1" stroke="#000000" stroke-opacity="1" stroke-width="3.2"/>
<circle clip-path="url(#clip382)" cx="1393.08" cy="648.271" r="14.4" fill="#009af9" fill-rule="evenodd" fill-opacity="1" stroke="#000000" stroke-opacity="1" stroke-width="3.2"/>
<circle clip-path="url(#clip382)" cx="1402.58" cy="670.212" r="14.4" fill="#009af9" fill-rule="evenodd" fill-opacity="1" stroke="#000000" stroke-opacity="1" stroke-width="3.2"/>
<circle clip-path="url(#clip382)" cx="1402.53" cy="670.212" r="14.4" fill="#009af9" fill-rule="evenodd" fill-opacity="1" stroke="#000000" stroke-opacity="1" stroke-width="3.2"/>
<circle clip-path="url(#clip382)" cx="1401.44" cy="670.212" r="14.4" fill="#009af9" fill-rule="evenodd" fill-opacity="1" stroke="#000000" stroke-opacity="1" stroke-width="3.2"/>
<circle clip-path="url(#clip382)" cx="1407.78" cy="649.597" r="14.4" fill="#009af9" fill-rule="evenodd" fill-opacity="1" stroke="#000000" stroke-opacity="1" stroke-width="3.2"/>
<circle clip-path="url(#clip382)" cx="1436.98" cy="656.563" r="14.4" fill="#009af9" fill-rule="evenodd" fill-opacity="1" stroke="#000000" stroke-opacity="1" stroke-width="3.2"/>
<circle clip-path="url(#clip382)" cx="1433.35" cy="670.212" r="14.4" fill="#009af9" fill-rule="evenodd" fill-opacity="1" stroke="#000000" stroke-opacity="1" stroke-width="3.2"/>
<circle clip-path="url(#clip382)" cx="1415.82" cy="670.212" r="14.4" fill="#009af9" fill-rule="evenodd" fill-opacity="1" stroke="#000000" stroke-opacity="1" stroke-width="3.2"/>
<circle clip-path="url(#clip382)" cx="1397.49" cy="649.597" r="14.4" fill="#009af9" fill-rule="evenodd" fill-opacity="1" stroke="#000000" stroke-opacity="1" stroke-width="3.2"/>
<circle clip-path="url(#clip382)" cx="1452.81" cy="655.49" r="14.4" fill="#009af9" fill-rule="evenodd" fill-opacity="1" stroke="#000000" stroke-opacity="1" stroke-width="3.2"/>
<circle clip-path="url(#clip382)" cx="1425.05" cy="655.49" r="14.4" fill="#009af9" fill-rule="evenodd" fill-opacity="1" stroke="#000000" stroke-opacity="1" stroke-width="3.2"/>
<circle clip-path="url(#clip382)" cx="1415.11" cy="655.49" r="14.4" fill="#009af9" fill-rule="evenodd" fill-opacity="1" stroke="#000000" stroke-opacity="1" stroke-width="3.2"/>
<circle clip-path="url(#clip382)" cx="1419.39" cy="648.919" r="14.4" fill="#009af9" fill-rule="evenodd" fill-opacity="1" stroke="#000000" stroke-opacity="1" stroke-width="3.2"/>
<circle clip-path="url(#clip382)" cx="1424.56" cy="655.49" r="14.4" fill="#009af9" fill-rule="evenodd" fill-opacity="1" stroke="#000000" stroke-opacity="1" stroke-width="3.2"/>
<circle clip-path="url(#clip382)" cx="1441.07" cy="655.49" r="14.4" fill="#009af9" fill-rule="evenodd" fill-opacity="1" stroke="#000000" stroke-opacity="1" stroke-width="3.2"/>
<circle clip-path="url(#clip382)" cx="1374.14" cy="655.49" r="14.4" fill="#009af9" fill-rule="evenodd" fill-opacity="1" stroke="#000000" stroke-opacity="1" stroke-width="3.2"/>
<circle clip-path="url(#clip382)" cx="1399.28" cy="655.49" r="14.4" fill="#009af9" fill-rule="evenodd" fill-opacity="1" stroke="#000000" stroke-opacity="1" stroke-width="3.2"/>
<circle clip-path="url(#clip382)" cx="1395.03" cy="667.642" r="14.4" fill="#009af9" fill-rule="evenodd" fill-opacity="1" stroke="#000000" stroke-opacity="1" stroke-width="3.2"/>
<circle clip-path="url(#clip382)" cx="1431.01" cy="667.642" r="14.4" fill="#009af9" fill-rule="evenodd" fill-opacity="1" stroke="#000000" stroke-opacity="1" stroke-width="3.2"/>
<circle clip-path="url(#clip382)" cx="1444.04" cy="667.642" r="14.4" fill="#009af9" fill-rule="evenodd" fill-opacity="1" stroke="#000000" stroke-opacity="1" stroke-width="3.2"/>
<circle clip-path="url(#clip382)" cx="1404.18" cy="644.39" r="14.4" fill="#009af9" fill-rule="evenodd" fill-opacity="1" stroke="#000000" stroke-opacity="1" stroke-width="3.2"/>
<circle clip-path="url(#clip382)" cx="1374.3" cy="654.55" r="14.4" fill="#009af9" fill-rule="evenodd" fill-opacity="1" stroke="#000000" stroke-opacity="1" stroke-width="3.2"/>
<circle clip-path="url(#clip382)" cx="1439.73" cy="654.55" r="14.4" fill="#009af9" fill-rule="evenodd" fill-opacity="1" stroke="#000000" stroke-opacity="1" stroke-width="3.2"/>
<circle clip-path="url(#clip382)" cx="1422.14" cy="654.55" r="14.4" fill="#009af9" fill-rule="evenodd" fill-opacity="1" stroke="#000000" stroke-opacity="1" stroke-width="3.2"/>
<circle clip-path="url(#clip382)" cx="1397.3" cy="648.31" r="14.4" fill="#009af9" fill-rule="evenodd" fill-opacity="1" stroke="#000000" stroke-opacity="1" stroke-width="3.2"/>
<circle clip-path="url(#clip382)" cx="1377.75" cy="654.55" r="14.4" fill="#009af9" fill-rule="evenodd" fill-opacity="1" stroke="#000000" stroke-opacity="1" stroke-width="3.2"/>
<circle clip-path="url(#clip382)" cx="1435.18" cy="654.55" r="14.4" fill="#009af9" fill-rule="evenodd" fill-opacity="1" stroke="#000000" stroke-opacity="1" stroke-width="3.2"/>
<circle clip-path="url(#clip382)" cx="1443.11" cy="656.632" r="14.4" fill="#009af9" fill-rule="evenodd" fill-opacity="1" stroke="#000000" stroke-opacity="1" stroke-width="3.2"/>
<circle clip-path="url(#clip382)" cx="1378.34" cy="656.632" r="14.4" fill="#009af9" fill-rule="evenodd" fill-opacity="1" stroke="#000000" stroke-opacity="1" stroke-width="3.2"/>
<circle clip-path="url(#clip382)" cx="1435.65" cy="670.389" r="14.4" fill="#009af9" fill-rule="evenodd" fill-opacity="1" stroke="#000000" stroke-opacity="1" stroke-width="3.2"/>
<circle clip-path="url(#clip382)" cx="1433.88" cy="670.389" r="14.4" fill="#009af9" fill-rule="evenodd" fill-opacity="1" stroke="#000000" stroke-opacity="1" stroke-width="3.2"/>
<circle clip-path="url(#clip382)" cx="1403.28" cy="670.389" r="14.4" fill="#009af9" fill-rule="evenodd" fill-opacity="1" stroke="#000000" stroke-opacity="1" stroke-width="3.2"/>
<circle clip-path="url(#clip382)" cx="1427.93" cy="644.917" r="14.4" fill="#009af9" fill-rule="evenodd" fill-opacity="1" stroke="#000000" stroke-opacity="1" stroke-width="3.2"/>
<circle clip-path="url(#clip382)" cx="1402.93" cy="667.79" r="14.4" fill="#009af9" fill-rule="evenodd" fill-opacity="1" stroke="#000000" stroke-opacity="1" stroke-width="3.2"/>
<circle clip-path="url(#clip382)" cx="1401.53" cy="667.79" r="14.4" fill="#009af9" fill-rule="evenodd" fill-opacity="1" stroke="#000000" stroke-opacity="1" stroke-width="3.2"/>
<circle clip-path="url(#clip382)" cx="1447.58" cy="648.961" r="14.4" fill="#009af9" fill-rule="evenodd" fill-opacity="1" stroke="#000000" stroke-opacity="1" stroke-width="3.2"/>
<circle clip-path="url(#clip382)" cx="1450.9" cy="655.555" r="14.4" fill="#009af9" fill-rule="evenodd" fill-opacity="1" stroke="#000000" stroke-opacity="1" stroke-width="3.2"/>
<circle clip-path="url(#clip382)" cx="1438.35" cy="667.79" r="14.4" fill="#009af9" fill-rule="evenodd" fill-opacity="1" stroke="#000000" stroke-opacity="1" stroke-width="3.2"/>
<circle clip-path="url(#clip382)" cx="1446.37" cy="667.79" r="14.4" fill="#009af9" fill-rule="evenodd" fill-opacity="1" stroke="#000000" stroke-opacity="1" stroke-width="3.2"/>
<circle clip-path="url(#clip382)" cx="1447.44" cy="667.79" r="14.4" fill="#009af9" fill-rule="evenodd" fill-opacity="1" stroke="#000000" stroke-opacity="1" stroke-width="3.2"/>
<circle clip-path="url(#clip382)" cx="1427.05" cy="648.961" r="14.4" fill="#009af9" fill-rule="evenodd" fill-opacity="1" stroke="#000000" stroke-opacity="1" stroke-width="3.2"/>
<circle clip-path="url(#clip382)" cx="1441.48" cy="667.79" r="14.4" fill="#009af9" fill-rule="evenodd" fill-opacity="1" stroke="#000000" stroke-opacity="1" stroke-width="3.2"/>
<circle clip-path="url(#clip382)" cx="1386.78" cy="667.79" r="14.4" fill="#009af9" fill-rule="evenodd" fill-opacity="1" stroke="#000000" stroke-opacity="1" stroke-width="3.2"/>
<circle clip-path="url(#clip382)" cx="1389.51" cy="648.961" r="14.4" fill="#009af9" fill-rule="evenodd" fill-opacity="1" stroke="#000000" stroke-opacity="1" stroke-width="3.2"/>
<circle clip-path="url(#clip382)" cx="1439.88" cy="655.555" r="14.4" fill="#009af9" fill-rule="evenodd" fill-opacity="1" stroke="#000000" stroke-opacity="1" stroke-width="3.2"/>
<circle clip-path="url(#clip382)" cx="1443.79" cy="667.79" r="14.4" fill="#009af9" fill-rule="evenodd" fill-opacity="1" stroke="#000000" stroke-opacity="1" stroke-width="3.2"/>
<circle clip-path="url(#clip382)" cx="1440.2" cy="667.79" r="14.4" fill="#009af9" fill-rule="evenodd" fill-opacity="1" stroke="#000000" stroke-opacity="1" stroke-width="3.2"/>
<circle clip-path="url(#clip382)" cx="1448.68" cy="648.961" r="14.4" fill="#009af9" fill-rule="evenodd" fill-opacity="1" stroke="#000000" stroke-opacity="1" stroke-width="3.2"/>
<circle clip-path="url(#clip382)" cx="1402.09" cy="677.568" r="14.4" fill="#009af9" fill-rule="evenodd" fill-opacity="1" stroke="#000000" stroke-opacity="1" stroke-width="3.2"/>
<circle clip-path="url(#clip382)" cx="1407.4" cy="677.568" r="14.4" fill="#009af9" fill-rule="evenodd" fill-opacity="1" stroke="#000000" stroke-opacity="1" stroke-width="3.2"/>
<circle clip-path="url(#clip382)" cx="1447.67" cy="651.103" r="14.4" fill="#009af9" fill-rule="evenodd" fill-opacity="1" stroke="#000000" stroke-opacity="1" stroke-width="3.2"/>
<circle clip-path="url(#clip382)" cx="1414.99" cy="677.568" r="14.4" fill="#009af9" fill-rule="evenodd" fill-opacity="1" stroke="#000000" stroke-opacity="1" stroke-width="3.2"/>
<circle clip-path="url(#clip382)" cx="1402.94" cy="651.103" r="14.4" fill="#009af9" fill-rule="evenodd" fill-opacity="1" stroke="#000000" stroke-opacity="1" stroke-width="3.2"/>
<circle clip-path="url(#clip382)" cx="1411.5" cy="677.568" r="14.4" fill="#009af9" fill-rule="evenodd" fill-opacity="1" stroke="#000000" stroke-opacity="1" stroke-width="3.2"/>
<circle clip-path="url(#clip382)" cx="1423.02" cy="677.568" r="14.4" fill="#009af9" fill-rule="evenodd" fill-opacity="1" stroke="#000000" stroke-opacity="1" stroke-width="3.2"/>
<circle clip-path="url(#clip382)" cx="1417.11" cy="677.568" r="14.4" fill="#009af9" fill-rule="evenodd" fill-opacity="1" stroke="#000000" stroke-opacity="1" stroke-width="3.2"/>
<circle clip-path="url(#clip382)" cx="1416.36" cy="645.964" r="14.4" fill="#009af9" fill-rule="evenodd" fill-opacity="1" stroke="#000000" stroke-opacity="1" stroke-width="3.2"/>
<circle clip-path="url(#clip382)" cx="1419.06" cy="661.962" r="14.4" fill="#009af9" fill-rule="evenodd" fill-opacity="1" stroke="#000000" stroke-opacity="1" stroke-width="3.2"/>
<circle clip-path="url(#clip382)" cx="1433.3" cy="661.962" r="14.4" fill="#009af9" fill-rule="evenodd" fill-opacity="1" stroke="#000000" stroke-opacity="1" stroke-width="3.2"/>
<circle clip-path="url(#clip382)" cx="1426.03" cy="661.962" r="14.4" fill="#009af9" fill-rule="evenodd" fill-opacity="1" stroke="#000000" stroke-opacity="1" stroke-width="3.2"/>
<circle clip-path="url(#clip382)" cx="1380.3" cy="652.726" r="14.4" fill="#009af9" fill-rule="evenodd" fill-opacity="1" stroke="#000000" stroke-opacity="1" stroke-width="3.2"/>
<circle clip-path="url(#clip382)" cx="1422.59" cy="652.726" r="14.4" fill="#009af9" fill-rule="evenodd" fill-opacity="1" stroke="#000000" stroke-opacity="1" stroke-width="3.2"/>
<circle clip-path="url(#clip382)" cx="1395.63" cy="652.726" r="14.4" fill="#009af9" fill-rule="evenodd" fill-opacity="1" stroke="#000000" stroke-opacity="1" stroke-width="3.2"/>
<circle clip-path="url(#clip382)" cx="1383.62" cy="660.438" r="14.4" fill="#009af9" fill-rule="evenodd" fill-opacity="1" stroke="#000000" stroke-opacity="1" stroke-width="3.2"/>
<circle clip-path="url(#clip382)" cx="1412.5" cy="660.438" r="14.4" fill="#009af9" fill-rule="evenodd" fill-opacity="1" stroke="#000000" stroke-opacity="1" stroke-width="3.2"/>
<circle clip-path="url(#clip382)" cx="1418.62" cy="660.438" r="14.4" fill="#009af9" fill-rule="evenodd" fill-opacity="1" stroke="#000000" stroke-opacity="1" stroke-width="3.2"/>
<circle clip-path="url(#clip382)" cx="1411.94" cy="646.516" r="14.4" fill="#009af9" fill-rule="evenodd" fill-opacity="1" stroke="#000000" stroke-opacity="1" stroke-width="3.2"/>
<circle clip-path="url(#clip382)" cx="1406.98" cy="660.438" r="14.4" fill="#009af9" fill-rule="evenodd" fill-opacity="1" stroke="#000000" stroke-opacity="1" stroke-width="3.2"/>
<circle clip-path="url(#clip382)" cx="1412.79" cy="683.116" r="14.4" fill="#009af9" fill-rule="evenodd" fill-opacity="1" stroke="#000000" stroke-opacity="1" stroke-width="3.2"/>
<circle clip-path="url(#clip382)" cx="1422.32" cy="651.892" r="14.4" fill="#009af9" fill-rule="evenodd" fill-opacity="1" stroke="#000000" stroke-opacity="1" stroke-width="3.2"/>
<circle clip-path="url(#clip382)" cx="1417.89" cy="683.116" r="14.4" fill="#009af9" fill-rule="evenodd" fill-opacity="1" stroke="#000000" stroke-opacity="1" stroke-width="3.2"/>
<circle clip-path="url(#clip382)" cx="1396.47" cy="651.892" r="14.4" fill="#009af9" fill-rule="evenodd" fill-opacity="1" stroke="#000000" stroke-opacity="1" stroke-width="3.2"/>
<circle clip-path="url(#clip382)" cx="1405.19" cy="660.438" r="14.4" fill="#009af9" fill-rule="evenodd" fill-opacity="1" stroke="#000000" stroke-opacity="1" stroke-width="3.2"/>
<circle clip-path="url(#clip382)" cx="1408.57" cy="660.438" r="14.4" fill="#009af9" fill-rule="evenodd" fill-opacity="1" stroke="#000000" stroke-opacity="1" stroke-width="3.2"/>
<circle clip-path="url(#clip382)" cx="1401.21" cy="660.438" r="14.4" fill="#009af9" fill-rule="evenodd" fill-opacity="1" stroke="#000000" stroke-opacity="1" stroke-width="3.2"/>
<circle clip-path="url(#clip382)" cx="1405.47" cy="660.438" r="14.4" fill="#009af9" fill-rule="evenodd" fill-opacity="1" stroke="#000000" stroke-opacity="1" stroke-width="3.2"/>
<circle clip-path="url(#clip382)" cx="1401.7" cy="646.516" r="14.4" fill="#009af9" fill-rule="evenodd" fill-opacity="1" stroke="#000000" stroke-opacity="1" stroke-width="3.2"/>
<circle clip-path="url(#clip382)" cx="1387.53" cy="669.695" r="14.4" fill="#009af9" fill-rule="evenodd" fill-opacity="1" stroke="#000000" stroke-opacity="1" stroke-width="3.2"/>
<circle clip-path="url(#clip382)" cx="1420.98" cy="669.695" r="14.4" fill="#009af9" fill-rule="evenodd" fill-opacity="1" stroke="#000000" stroke-opacity="1" stroke-width="3.2"/>
<circle clip-path="url(#clip382)" cx="1415.98" cy="649.468" r="14.4" fill="#009af9" fill-rule="evenodd" fill-opacity="1" stroke="#000000" stroke-opacity="1" stroke-width="3.2"/>
<circle clip-path="url(#clip382)" cx="1445.86" cy="656.355" r="14.4" fill="#009af9" fill-rule="evenodd" fill-opacity="1" stroke="#000000" stroke-opacity="1" stroke-width="3.2"/>
<circle clip-path="url(#clip382)" cx="1411.89" cy="661.566" r="14.4" fill="#009af9" fill-rule="evenodd" fill-opacity="1" stroke="#000000" stroke-opacity="1" stroke-width="3.2"/>
<circle clip-path="url(#clip382)" cx="1445.31" cy="661.566" r="14.4" fill="#009af9" fill-rule="evenodd" fill-opacity="1" stroke="#000000" stroke-opacity="1" stroke-width="3.2"/>
<circle clip-path="url(#clip382)" cx="1400.83" cy="661.566" r="14.4" fill="#009af9" fill-rule="evenodd" fill-opacity="1" stroke="#000000" stroke-opacity="1" stroke-width="3.2"/>
<circle clip-path="url(#clip382)" cx="1429.44" cy="646.945" r="14.4" fill="#009af9" fill-rule="evenodd" fill-opacity="1" stroke="#000000" stroke-opacity="1" stroke-width="3.2"/>
<circle clip-path="url(#clip382)" cx="1428.17" cy="665.077" r="14.4" fill="#009af9" fill-rule="evenodd" fill-opacity="1" stroke="#000000" stroke-opacity="1" stroke-width="3.2"/>
<circle clip-path="url(#clip382)" cx="1420.6" cy="665.077" r="14.4" fill="#009af9" fill-rule="evenodd" fill-opacity="1" stroke="#000000" stroke-opacity="1" stroke-width="3.2"/>
<circle clip-path="url(#clip382)" cx="1443.38" cy="665.077" r="14.4" fill="#009af9" fill-rule="evenodd" fill-opacity="1" stroke="#000000" stroke-opacity="1" stroke-width="3.2"/>
<circle clip-path="url(#clip382)" cx="1389.34" cy="648.152" r="14.4" fill="#009af9" fill-rule="evenodd" fill-opacity="1" stroke="#000000" stroke-opacity="1" stroke-width="3.2"/>
<circle clip-path="url(#clip382)" cx="1391.91" cy="658.732" r="14.4" fill="#009af9" fill-rule="evenodd" fill-opacity="1" stroke="#000000" stroke-opacity="1" stroke-width="3.2"/>
<circle clip-path="url(#clip382)" cx="1426.69" cy="676.455" r="14.4" fill="#009af9" fill-rule="evenodd" fill-opacity="1" stroke="#000000" stroke-opacity="1" stroke-width="3.2"/>
<circle clip-path="url(#clip382)" cx="1451.67" cy="650.912" r="14.4" fill="#009af9" fill-rule="evenodd" fill-opacity="1" stroke="#000000" stroke-opacity="1" stroke-width="3.2"/>
<circle clip-path="url(#clip382)" cx="1405.96" cy="658.732" r="14.4" fill="#009af9" fill-rule="evenodd" fill-opacity="1" stroke="#000000" stroke-opacity="1" stroke-width="3.2"/>
<circle clip-path="url(#clip382)" cx="1403.26" cy="658.732" r="14.4" fill="#009af9" fill-rule="evenodd" fill-opacity="1" stroke="#000000" stroke-opacity="1" stroke-width="3.2"/>
<circle clip-path="url(#clip382)" cx="1384.24" cy="658.732" r="14.4" fill="#009af9" fill-rule="evenodd" fill-opacity="1" stroke="#000000" stroke-opacity="1" stroke-width="3.2"/>
<circle clip-path="url(#clip382)" cx="1382.23" cy="650.912" r="14.4" fill="#009af9" fill-rule="evenodd" fill-opacity="1" stroke="#000000" stroke-opacity="1" stroke-width="3.2"/>
<circle clip-path="url(#clip382)" cx="1435.39" cy="654.309" r="14.4" fill="#009af9" fill-rule="evenodd" fill-opacity="1" stroke="#000000" stroke-opacity="1" stroke-width="3.2"/>
<circle clip-path="url(#clip382)" cx="1449.41" cy="654.309" r="14.4" fill="#009af9" fill-rule="evenodd" fill-opacity="1" stroke="#000000" stroke-opacity="1" stroke-width="3.2"/>
<circle clip-path="url(#clip382)" cx="1408.93" cy="683.116" r="14.4" fill="#009af9" fill-rule="evenodd" fill-opacity="1" stroke="#000000" stroke-opacity="1" stroke-width="3.2"/>
<circle clip-path="url(#clip382)" cx="529.177" cy="1266.25" r="14.4" fill="#e26f46" fill-rule="evenodd" fill-opacity="1" stroke="#000000" stroke-opacity="1" stroke-width="3.2"/>
<circle clip-path="url(#clip382)" cx="520.615" cy="1266.19" r="14.4" fill="#e26f46" fill-rule="evenodd" fill-opacity="1" stroke="#000000" stroke-opacity="1" stroke-width="3.2"/>
<circle clip-path="url(#clip382)" cx="543.461" cy="1256.03" r="14.4" fill="#e26f46" fill-rule="evenodd" fill-opacity="1" stroke="#000000" stroke-opacity="1" stroke-width="3.2"/>
<circle clip-path="url(#clip382)" cx="1612.43" cy="204.175" r="14.4" fill="#e26f46" fill-rule="evenodd" fill-opacity="1" stroke="#000000" stroke-opacity="1" stroke-width="3.2"/>
<circle clip-path="url(#clip382)" cx="1616.74" cy="204.23" r="14.4" fill="#e26f46" fill-rule="evenodd" fill-opacity="1" stroke="#000000" stroke-opacity="1" stroke-width="3.2"/>
<circle clip-path="url(#clip382)" cx="1638.53" cy="214.389" r="14.4" fill="#e26f46" fill-rule="evenodd" fill-opacity="1" stroke="#000000" stroke-opacity="1" stroke-width="3.2"/>
<circle clip-path="url(#clip382)" cx="767.257" cy="1286.71" r="14.4" fill="#3da44d" fill-rule="evenodd" fill-opacity="1" stroke="#000000" stroke-opacity="1" stroke-width="3.2"/>
<circle clip-path="url(#clip382)" cx="1811.31" cy="183.719" r="14.4" fill="#3da44d" fill-rule="evenodd" fill-opacity="1" stroke="#000000" stroke-opacity="1" stroke-width="3.2"/>
<circle clip-path="url(#clip382)" cx="1006.12" cy="1266.23" r="14.4" fill="#c271d2" fill-rule="evenodd" fill-opacity="1" stroke="#000000" stroke-opacity="1" stroke-width="3.2"/>
<circle clip-path="url(#clip382)" cx="996.102" cy="1276.47" r="14.4" fill="#c271d2" fill-rule="evenodd" fill-opacity="1" stroke="#000000" stroke-opacity="1" stroke-width="3.2"/>
<circle clip-path="url(#clip382)" cx="2028.08" cy="204.197" r="14.4" fill="#c271d2" fill-rule="evenodd" fill-opacity="1" stroke="#000000" stroke-opacity="1" stroke-width="3.2"/>
<circle clip-path="url(#clip382)" cx="2045.99" cy="193.951" r="14.4" fill="#c271d2" fill-rule="evenodd" fill-opacity="1" stroke="#000000" stroke-opacity="1" stroke-width="3.2"/>
<circle clip-path="url(#clip382)" cx="1219.74" cy="1357.31" r="14.4" fill="#ac8d18" fill-rule="evenodd" fill-opacity="1" stroke="#000000" stroke-opacity="1" stroke-width="3.2"/>
<circle clip-path="url(#clip382)" cx="1209.05" cy="1347" r="14.4" fill="#ac8d18" fill-rule="evenodd" fill-opacity="1" stroke="#000000" stroke-opacity="1" stroke-width="3.2"/>
<circle clip-path="url(#clip382)" cx="1192.71" cy="1373.93" r="14.4" fill="#ac8d18" fill-rule="evenodd" fill-opacity="1" stroke="#000000" stroke-opacity="1" stroke-width="3.2"/>
<circle clip-path="url(#clip382)" cx="1174.7" cy="1384.24" r="14.4" fill="#ac8d18" fill-rule="evenodd" fill-opacity="1" stroke="#000000" stroke-opacity="1" stroke-width="3.2"/>
<circle clip-path="url(#clip382)" cx="1164.14" cy="1374.03" r="14.4" fill="#ac8d18" fill-rule="evenodd" fill-opacity="1" stroke="#000000" stroke-opacity="1" stroke-width="3.2"/>
<circle clip-path="url(#clip382)" cx="2257.97" cy="113.118" r="14.4" fill="#ac8d18" fill-rule="evenodd" fill-opacity="1" stroke="#000000" stroke-opacity="1" stroke-width="3.2"/>
<circle clip-path="url(#clip382)" cx="2293.02" cy="123.425" r="14.4" fill="#ac8d18" fill-rule="evenodd" fill-opacity="1" stroke="#000000" stroke-opacity="1" stroke-width="3.2"/>
<circle clip-path="url(#clip382)" cx="2271.25" cy="96.4944" r="14.4" fill="#ac8d18" fill-rule="evenodd" fill-opacity="1" stroke="#000000" stroke-opacity="1" stroke-width="3.2"/>
<circle clip-path="url(#clip382)" cx="2276.21" cy="86.1857" r="14.4" fill="#ac8d18" fill-rule="evenodd" fill-opacity="1" stroke="#000000" stroke-opacity="1" stroke-width="3.2"/>
<circle clip-path="url(#clip382)" cx="2259.37" cy="96.3984" r="14.4" fill="#ac8d18" fill-rule="evenodd" fill-opacity="1" stroke="#000000" stroke-opacity="1" stroke-width="3.2"/>
<polyline clip-path="url(#clip382)" style="stroke:#808080; stroke-linecap:round; stroke-linejoin:round; stroke-width:4; stroke-opacity:1; fill:none" stroke-dasharray="16, 10" points="1308.28,2799.12 1308.28,-1328.69 "/>
<path clip-path="url(#clip380)" d="M312.489 404.149 L670.934 404.149 L670.934 93.1086 L312.489 93.1086  Z" fill="#ffffff" fill-rule="evenodd" fill-opacity="1"/>
<polyline clip-path="url(#clip380)" style="stroke:#000000; stroke-linecap:round; stroke-linejoin:round; stroke-width:4; stroke-opacity:1; fill:none" points="312.489,404.149 670.934,404.149 670.934,93.1086 312.489,93.1086 312.489,404.149 "/>
<circle clip-path="url(#clip380)" cx="406.294" cy="144.949" r="20.48" fill="#009af9" fill-rule="evenodd" fill-opacity="1" stroke="#000000" stroke-opacity="1" stroke-width="4.55111"/>
<path clip-path="url(#clip380)" d="M522.345 128.803 L522.345 133.363 Q519.683 132.09 517.322 131.465 Q514.961 130.84 512.761 130.84 Q508.942 130.84 506.859 132.321 Q504.799 133.803 504.799 136.534 Q504.799 138.826 506.164 140.007 Q507.553 141.164 511.396 141.882 L514.22 142.46 Q519.451 143.456 521.928 145.979 Q524.428 148.479 524.428 152.692 Q524.428 157.715 521.048 160.307 Q517.692 162.9 511.187 162.9 Q508.734 162.9 505.956 162.344 Q503.201 161.789 500.238 160.701 L500.238 155.886 Q503.086 157.483 505.817 158.293 Q508.549 159.104 511.187 159.104 Q515.192 159.104 517.368 157.53 Q519.544 155.956 519.544 153.039 Q519.544 150.493 517.97 149.057 Q516.419 147.622 512.854 146.905 L510.007 146.349 Q504.775 145.307 502.437 143.085 Q500.099 140.863 500.099 136.905 Q500.099 132.321 503.317 129.682 Q506.558 127.044 512.229 127.044 Q514.66 127.044 517.183 127.483 Q519.706 127.923 522.345 128.803 Z" fill="#000000" fill-rule="nonzero" fill-opacity="1" /><path clip-path="url(#clip380)" d="M535.747 128.942 L535.747 136.303 L544.521 136.303 L544.521 139.613 L535.747 139.613 L535.747 153.687 Q535.747 156.858 536.604 157.761 Q537.484 158.664 540.146 158.664 L544.521 158.664 L544.521 162.229 L540.146 162.229 Q535.215 162.229 533.34 160.4 Q531.465 158.548 531.465 153.687 L531.465 139.613 L528.34 139.613 L528.34 136.303 L531.465 136.303 L531.465 128.942 L535.747 128.942 Z" fill="#000000" fill-rule="nonzero" fill-opacity="1" /><path clip-path="url(#clip380)" d="M572.298 148.201 L572.298 150.284 L552.715 150.284 Q552.993 154.682 555.354 156.997 Q557.738 159.289 561.974 159.289 Q564.428 159.289 566.719 158.687 Q569.034 158.085 571.303 156.881 L571.303 160.909 Q569.011 161.881 566.604 162.391 Q564.196 162.9 561.72 162.9 Q555.516 162.9 551.882 159.289 Q548.271 155.678 548.271 149.52 Q548.271 143.155 551.696 139.428 Q555.145 135.678 560.979 135.678 Q566.21 135.678 569.243 139.057 Q572.298 142.414 572.298 148.201 M568.039 146.951 Q567.993 143.456 566.071 141.372 Q564.173 139.289 561.025 139.289 Q557.46 139.289 555.308 141.303 Q553.178 143.317 552.854 146.974 L568.039 146.951 Z" fill="#000000" fill-rule="nonzero" fill-opacity="1" /><path clip-path="url(#clip380)" d="M583.409 158.34 L583.409 172.09 L579.127 172.09 L579.127 136.303 L583.409 136.303 L583.409 140.238 Q584.752 137.923 586.789 136.812 Q588.849 135.678 591.696 135.678 Q596.418 135.678 599.358 139.428 Q602.321 143.178 602.321 149.289 Q602.321 155.4 599.358 159.15 Q596.418 162.9 591.696 162.9 Q588.849 162.9 586.789 161.789 Q584.752 160.655 583.409 158.34 M597.9 149.289 Q597.9 144.59 595.955 141.928 Q594.034 139.243 590.655 139.243 Q587.275 139.243 585.331 141.928 Q583.409 144.59 583.409 149.289 Q583.409 153.988 585.331 156.673 Q587.275 159.335 590.655 159.335 Q594.034 159.335 595.955 156.673 Q597.9 153.988 597.9 149.289 Z" fill="#000000" fill-rule="nonzero" fill-opacity="1" /><path clip-path="url(#clip380)" d="M625.863 158.293 L633.502 158.293 L633.502 131.928 L625.191 133.595 L625.191 129.335 L633.455 127.669 L638.131 127.669 L638.131 158.293 L645.77 158.293 L645.77 162.229 L625.863 162.229 L625.863 158.293 Z" fill="#000000" fill-rule="nonzero" fill-opacity="1" /><circle clip-path="url(#clip380)" cx="406.294" cy="196.789" r="20.48" fill="#e26f46" fill-rule="evenodd" fill-opacity="1" stroke="#000000" stroke-opacity="1" stroke-width="4.55111"/>
<path clip-path="url(#clip380)" d="M522.345 180.643 L522.345 185.203 Q519.683 183.93 517.322 183.305 Q514.961 182.68 512.761 182.68 Q508.942 182.68 506.859 184.161 Q504.799 185.643 504.799 188.374 Q504.799 190.666 506.164 191.847 Q507.553 193.004 511.396 193.722 L514.22 194.3 Q519.451 195.296 521.928 197.819 Q524.428 200.319 524.428 204.532 Q524.428 209.555 521.048 212.147 Q517.692 214.74 511.187 214.74 Q508.734 214.74 505.956 214.184 Q503.201 213.629 500.238 212.541 L500.238 207.726 Q503.086 209.323 505.817 210.133 Q508.549 210.944 511.187 210.944 Q515.192 210.944 517.368 209.37 Q519.544 207.796 519.544 204.879 Q519.544 202.333 517.97 200.897 Q516.419 199.462 512.854 198.745 L510.007 198.189 Q504.775 197.147 502.437 194.925 Q500.099 192.703 500.099 188.745 Q500.099 184.161 503.317 181.522 Q506.558 178.884 512.229 178.884 Q514.66 178.884 517.183 179.323 Q519.706 179.763 522.345 180.643 Z" fill="#000000" fill-rule="nonzero" fill-opacity="1" /><path clip-path="url(#clip380)" d="M535.747 180.782 L535.747 188.143 L544.521 188.143 L544.521 191.453 L535.747 191.453 L535.747 205.527 Q535.747 208.698 536.604 209.601 Q537.484 210.504 540.146 210.504 L544.521 210.504 L544.521 214.069 L540.146 214.069 Q535.215 214.069 533.34 212.24 Q531.465 210.388 531.465 205.527 L531.465 191.453 L528.34 191.453 L528.34 188.143 L531.465 188.143 L531.465 180.782 L535.747 180.782 Z" fill="#000000" fill-rule="nonzero" fill-opacity="1" /><path clip-path="url(#clip380)" d="M572.298 200.041 L572.298 202.124 L552.715 202.124 Q552.993 206.522 555.354 208.837 Q557.738 211.129 561.974 211.129 Q564.428 211.129 566.719 210.527 Q569.034 209.925 571.303 208.721 L571.303 212.749 Q569.011 213.721 566.604 214.231 Q564.196 214.74 561.72 214.74 Q555.516 214.74 551.882 211.129 Q548.271 207.518 548.271 201.36 Q548.271 194.995 551.696 191.268 Q555.145 187.518 560.979 187.518 Q566.21 187.518 569.243 190.897 Q572.298 194.254 572.298 200.041 M568.039 198.791 Q567.993 195.296 566.071 193.212 Q564.173 191.129 561.025 191.129 Q557.46 191.129 555.308 193.143 Q553.178 195.157 552.854 198.814 L568.039 198.791 Z" fill="#000000" fill-rule="nonzero" fill-opacity="1" /><path clip-path="url(#clip380)" d="M583.409 210.18 L583.409 223.93 L579.127 223.93 L579.127 188.143 L583.409 188.143 L583.409 192.078 Q584.752 189.763 586.789 188.652 Q588.849 187.518 591.696 187.518 Q596.418 187.518 599.358 191.268 Q602.321 195.018 602.321 201.129 Q602.321 207.24 599.358 210.99 Q596.418 214.74 591.696 214.74 Q588.849 214.74 586.789 213.629 Q584.752 212.495 583.409 210.18 M597.9 201.129 Q597.9 196.43 595.955 193.768 Q594.034 191.083 590.655 191.083 Q587.275 191.083 585.331 193.768 Q583.409 196.43 583.409 201.129 Q583.409 205.828 585.331 208.513 Q587.275 211.175 590.655 211.175 Q594.034 211.175 595.955 208.513 Q597.9 205.828 597.9 201.129 Z" fill="#000000" fill-rule="nonzero" fill-opacity="1" /><path clip-path="url(#clip380)" d="M629.08 210.133 L645.4 210.133 L645.4 214.069 L623.455 214.069 L623.455 210.133 Q626.117 207.379 630.701 202.749 Q635.307 198.096 636.488 196.754 Q638.733 194.231 639.613 192.495 Q640.515 190.735 640.515 189.046 Q640.515 186.291 638.571 184.555 Q636.65 182.819 633.548 182.819 Q631.349 182.819 628.895 183.583 Q626.465 184.347 623.687 185.897 L623.687 181.175 Q626.511 180.041 628.965 179.462 Q631.418 178.884 633.455 178.884 Q638.826 178.884 642.02 181.569 Q645.214 184.254 645.214 188.745 Q645.214 190.874 644.404 192.796 Q643.617 194.694 641.511 197.286 Q640.932 197.958 637.83 201.175 Q634.728 204.37 629.08 210.133 Z" fill="#000000" fill-rule="nonzero" fill-opacity="1" /><circle clip-path="url(#clip380)" cx="406.294" cy="248.629" r="20.48" fill="#3da44d" fill-rule="evenodd" fill-opacity="1" stroke="#000000" stroke-opacity="1" stroke-width="4.55111"/>
<path clip-path="url(#clip380)" d="M522.345 232.483 L522.345 237.043 Q519.683 235.77 517.322 235.145 Q514.961 234.52 512.761 234.52 Q508.942 234.52 506.859 236.001 Q504.799 237.483 504.799 240.214 Q504.799 242.506 506.164 243.687 Q507.553 244.844 511.396 245.562 L514.22 246.14 Q519.451 247.136 521.928 249.659 Q524.428 252.159 524.428 256.372 Q524.428 261.395 521.048 263.987 Q517.692 266.58 511.187 266.58 Q508.734 266.58 505.956 266.024 Q503.201 265.469 500.238 264.381 L500.238 259.566 Q503.086 261.163 505.817 261.973 Q508.549 262.784 511.187 262.784 Q515.192 262.784 517.368 261.21 Q519.544 259.636 519.544 256.719 Q519.544 254.173 517.97 252.737 Q516.419 251.302 512.854 250.585 L510.007 250.029 Q504.775 248.987 502.437 246.765 Q500.099 244.543 500.099 240.585 Q500.099 236.001 503.317 233.362 Q506.558 230.724 512.229 230.724 Q514.66 230.724 517.183 231.163 Q519.706 231.603 522.345 232.483 Z" fill="#000000" fill-rule="nonzero" fill-opacity="1" /><path clip-path="url(#clip380)" d="M535.747 232.622 L535.747 239.983 L544.521 239.983 L544.521 243.293 L535.747 243.293 L535.747 257.367 Q535.747 260.538 536.604 261.441 Q537.484 262.344 540.146 262.344 L544.521 262.344 L544.521 265.909 L540.146 265.909 Q535.215 265.909 533.34 264.08 Q531.465 262.228 531.465 257.367 L531.465 243.293 L528.34 243.293 L528.34 239.983 L531.465 239.983 L531.465 232.622 L535.747 232.622 Z" fill="#000000" fill-rule="nonzero" fill-opacity="1" /><path clip-path="url(#clip380)" d="M572.298 251.881 L572.298 253.964 L552.715 253.964 Q552.993 258.362 555.354 260.677 Q557.738 262.969 561.974 262.969 Q564.428 262.969 566.719 262.367 Q569.034 261.765 571.303 260.561 L571.303 264.589 Q569.011 265.561 566.604 266.071 Q564.196 266.58 561.72 266.58 Q555.516 266.58 551.882 262.969 Q548.271 259.358 548.271 253.2 Q548.271 246.835 551.696 243.108 Q555.145 239.358 560.979 239.358 Q566.21 239.358 569.243 242.737 Q572.298 246.094 572.298 251.881 M568.039 250.631 Q567.993 247.136 566.071 245.052 Q564.173 242.969 561.025 242.969 Q557.46 242.969 555.308 244.983 Q553.178 246.997 552.854 250.654 L568.039 250.631 Z" fill="#000000" fill-rule="nonzero" fill-opacity="1" /><path clip-path="url(#clip380)" d="M583.409 262.02 L583.409 275.77 L579.127 275.77 L579.127 239.983 L583.409 239.983 L583.409 243.918 Q584.752 241.603 586.789 240.492 Q588.849 239.358 591.696 239.358 Q596.418 239.358 599.358 243.108 Q602.321 246.858 602.321 252.969 Q602.321 259.08 599.358 262.83 Q596.418 266.58 591.696 266.58 Q588.849 266.58 586.789 265.469 Q584.752 264.335 583.409 262.02 M597.9 252.969 Q597.9 248.27 595.955 245.608 Q594.034 242.923 590.655 242.923 Q587.275 242.923 585.331 245.608 Q583.409 248.27 583.409 252.969 Q583.409 257.668 585.331 260.353 Q587.275 263.015 590.655 263.015 Q594.034 263.015 595.955 260.353 Q597.9 257.668 597.9 252.969 Z" fill="#000000" fill-rule="nonzero" fill-opacity="1" /><path clip-path="url(#clip380)" d="M639.219 247.274 Q642.576 247.992 644.451 250.261 Q646.349 252.529 646.349 255.862 Q646.349 260.978 642.83 263.779 Q639.312 266.58 632.83 266.58 Q630.654 266.58 628.34 266.14 Q626.048 265.723 623.594 264.867 L623.594 260.353 Q625.539 261.487 627.853 262.066 Q630.168 262.645 632.691 262.645 Q637.089 262.645 639.381 260.909 Q641.696 259.173 641.696 255.862 Q641.696 252.807 639.543 251.094 Q637.414 249.358 633.594 249.358 L629.566 249.358 L629.566 245.515 L633.779 245.515 Q637.228 245.515 639.057 244.149 Q640.886 242.761 640.886 240.168 Q640.886 237.506 638.988 236.094 Q637.113 234.659 633.594 234.659 Q631.673 234.659 629.474 235.075 Q627.275 235.492 624.636 236.372 L624.636 232.205 Q627.298 231.464 629.613 231.094 Q631.951 230.724 634.011 230.724 Q639.335 230.724 642.437 233.154 Q645.539 235.562 645.539 239.682 Q645.539 242.552 643.895 244.543 Q642.251 246.511 639.219 247.274 Z" fill="#000000" fill-rule="nonzero" fill-opacity="1" /><circle clip-path="url(#clip380)" cx="406.294" cy="300.469" r="20.48" fill="#c271d2" fill-rule="evenodd" fill-opacity="1" stroke="#000000" stroke-opacity="1" stroke-width="4.55111"/>
<path clip-path="url(#clip380)" d="M522.345 284.323 L522.345 288.883 Q519.683 287.61 517.322 286.985 Q514.961 286.36 512.761 286.36 Q508.942 286.36 506.859 287.841 Q504.799 289.323 504.799 292.054 Q504.799 294.346 506.164 295.527 Q507.553 296.684 511.396 297.402 L514.22 297.98 Q519.451 298.976 521.928 301.499 Q524.428 303.999 524.428 308.212 Q524.428 313.235 521.048 315.827 Q517.692 318.42 511.187 318.42 Q508.734 318.42 505.956 317.864 Q503.201 317.309 500.238 316.221 L500.238 311.406 Q503.086 313.003 505.817 313.813 Q508.549 314.624 511.187 314.624 Q515.192 314.624 517.368 313.05 Q519.544 311.476 519.544 308.559 Q519.544 306.013 517.97 304.577 Q516.419 303.142 512.854 302.425 L510.007 301.869 Q504.775 300.827 502.437 298.605 Q500.099 296.383 500.099 292.425 Q500.099 287.841 503.317 285.202 Q506.558 282.564 512.229 282.564 Q514.66 282.564 517.183 283.003 Q519.706 283.443 522.345 284.323 Z" fill="#000000" fill-rule="nonzero" fill-opacity="1" /><path clip-path="url(#clip380)" d="M535.747 284.462 L535.747 291.823 L544.521 291.823 L544.521 295.133 L535.747 295.133 L535.747 309.207 Q535.747 312.378 536.604 313.281 Q537.484 314.184 540.146 314.184 L544.521 314.184 L544.521 317.749 L540.146 317.749 Q535.215 317.749 533.34 315.92 Q531.465 314.068 531.465 309.207 L531.465 295.133 L528.34 295.133 L528.34 291.823 L531.465 291.823 L531.465 284.462 L535.747 284.462 Z" fill="#000000" fill-rule="nonzero" fill-opacity="1" /><path clip-path="url(#clip380)" d="M572.298 303.721 L572.298 305.804 L552.715 305.804 Q552.993 310.202 555.354 312.517 Q557.738 314.809 561.974 314.809 Q564.428 314.809 566.719 314.207 Q569.034 313.605 571.303 312.401 L571.303 316.429 Q569.011 317.401 566.604 317.911 Q564.196 318.42 561.72 318.42 Q555.516 318.42 551.882 314.809 Q548.271 311.198 548.271 305.04 Q548.271 298.675 551.696 294.948 Q555.145 291.198 560.979 291.198 Q566.21 291.198 569.243 294.577 Q572.298 297.934 572.298 303.721 M568.039 302.471 Q567.993 298.976 566.071 296.892 Q564.173 294.809 561.025 294.809 Q557.46 294.809 555.308 296.823 Q553.178 298.837 552.854 302.494 L568.039 302.471 Z" fill="#000000" fill-rule="nonzero" fill-opacity="1" /><path clip-path="url(#clip380)" d="M583.409 313.86 L583.409 327.61 L579.127 327.61 L579.127 291.823 L583.409 291.823 L583.409 295.758 Q584.752 293.443 586.789 292.332 Q588.849 291.198 591.696 291.198 Q596.418 291.198 599.358 294.948 Q602.321 298.698 602.321 304.809 Q602.321 310.92 599.358 314.67 Q596.418 318.42 591.696 318.42 Q588.849 318.42 586.789 317.309 Q584.752 316.175 583.409 313.86 M597.9 304.809 Q597.9 300.11 595.955 297.448 Q594.034 294.763 590.655 294.763 Q587.275 294.763 585.331 297.448 Q583.409 300.11 583.409 304.809 Q583.409 309.508 585.331 312.193 Q587.275 314.855 590.655 314.855 Q594.034 314.855 595.955 312.193 Q597.9 309.508 597.9 304.809 Z" fill="#000000" fill-rule="nonzero" fill-opacity="1" /><path clip-path="url(#clip380)" d="M637.9 287.263 L626.094 305.712 L637.9 305.712 L637.9 287.263 M636.673 283.189 L642.552 283.189 L642.552 305.712 L647.483 305.712 L647.483 309.601 L642.552 309.601 L642.552 317.749 L637.9 317.749 L637.9 309.601 L622.298 309.601 L622.298 305.087 L636.673 283.189 Z" fill="#000000" fill-rule="nonzero" fill-opacity="1" /><circle clip-path="url(#clip380)" cx="406.294" cy="352.309" r="20.48" fill="#ac8d18" fill-rule="evenodd" fill-opacity="1" stroke="#000000" stroke-opacity="1" stroke-width="4.55111"/>
<path clip-path="url(#clip380)" d="M522.345 336.163 L522.345 340.723 Q519.683 339.45 517.322 338.825 Q514.961 338.2 512.761 338.2 Q508.942 338.2 506.859 339.681 Q504.799 341.163 504.799 343.894 Q504.799 346.186 506.164 347.367 Q507.553 348.524 511.396 349.242 L514.22 349.82 Q519.451 350.816 521.928 353.339 Q524.428 355.839 524.428 360.052 Q524.428 365.075 521.048 367.667 Q517.692 370.26 511.187 370.26 Q508.734 370.26 505.956 369.704 Q503.201 369.149 500.238 368.061 L500.238 363.246 Q503.086 364.843 505.817 365.653 Q508.549 366.464 511.187 366.464 Q515.192 366.464 517.368 364.89 Q519.544 363.316 519.544 360.399 Q519.544 357.853 517.97 356.417 Q516.419 354.982 512.854 354.265 L510.007 353.709 Q504.775 352.667 502.437 350.445 Q500.099 348.223 500.099 344.265 Q500.099 339.681 503.317 337.042 Q506.558 334.404 512.229 334.404 Q514.66 334.404 517.183 334.843 Q519.706 335.283 522.345 336.163 Z" fill="#000000" fill-rule="nonzero" fill-opacity="1" /><path clip-path="url(#clip380)" d="M535.747 336.302 L535.747 343.663 L544.521 343.663 L544.521 346.973 L535.747 346.973 L535.747 361.047 Q535.747 364.218 536.604 365.121 Q537.484 366.024 540.146 366.024 L544.521 366.024 L544.521 369.589 L540.146 369.589 Q535.215 369.589 533.34 367.76 Q531.465 365.908 531.465 361.047 L531.465 346.973 L528.34 346.973 L528.34 343.663 L531.465 343.663 L531.465 336.302 L535.747 336.302 Z" fill="#000000" fill-rule="nonzero" fill-opacity="1" /><path clip-path="url(#clip380)" d="M572.298 355.561 L572.298 357.644 L552.715 357.644 Q552.993 362.042 555.354 364.357 Q557.738 366.649 561.974 366.649 Q564.428 366.649 566.719 366.047 Q569.034 365.445 571.303 364.241 L571.303 368.269 Q569.011 369.241 566.604 369.751 Q564.196 370.26 561.72 370.26 Q555.516 370.26 551.882 366.649 Q548.271 363.038 548.271 356.88 Q548.271 350.515 551.696 346.788 Q555.145 343.038 560.979 343.038 Q566.21 343.038 569.243 346.417 Q572.298 349.774 572.298 355.561 M568.039 354.311 Q567.993 350.816 566.071 348.732 Q564.173 346.649 561.025 346.649 Q557.46 346.649 555.308 348.663 Q553.178 350.677 552.854 354.334 L568.039 354.311 Z" fill="#000000" fill-rule="nonzero" fill-opacity="1" /><path clip-path="url(#clip380)" d="M583.409 365.7 L583.409 379.45 L579.127 379.45 L579.127 343.663 L583.409 343.663 L583.409 347.598 Q584.752 345.283 586.789 344.172 Q588.849 343.038 591.696 343.038 Q596.418 343.038 599.358 346.788 Q602.321 350.538 602.321 356.649 Q602.321 362.76 599.358 366.51 Q596.418 370.26 591.696 370.26 Q588.849 370.26 586.789 369.149 Q584.752 368.015 583.409 365.7 M597.9 356.649 Q597.9 351.95 595.955 349.288 Q594.034 346.603 590.655 346.603 Q587.275 346.603 585.331 349.288 Q583.409 351.95 583.409 356.649 Q583.409 361.348 585.331 364.033 Q587.275 366.695 590.655 366.695 Q594.034 366.695 595.955 364.033 Q597.9 361.348 597.9 356.649 Z" fill="#000000" fill-rule="nonzero" fill-opacity="1" /><path clip-path="url(#clip380)" d="M625.099 335.029 L643.455 335.029 L643.455 338.964 L629.381 338.964 L629.381 347.436 Q630.4 347.089 631.418 346.927 Q632.437 346.742 633.455 346.742 Q639.242 346.742 642.622 349.913 Q646.001 353.084 646.001 358.501 Q646.001 364.079 642.529 367.181 Q639.057 370.26 632.738 370.26 Q630.562 370.26 628.293 369.89 Q626.048 369.519 623.64 368.778 L623.64 364.079 Q625.724 365.214 627.946 365.769 Q630.168 366.325 632.645 366.325 Q636.65 366.325 638.988 364.218 Q641.326 362.112 641.326 358.501 Q641.326 354.89 638.988 352.783 Q636.65 350.677 632.645 350.677 Q630.77 350.677 628.895 351.093 Q627.043 351.51 625.099 352.39 L625.099 335.029 Z" fill="#000000" fill-rule="nonzero" fill-opacity="1" /></svg>
