<?xml version="1.0" encoding="utf-8"?>
<svg xmlns="http://www.w3.org/2000/svg" xmlns:xlink="http://www.w3.org/1999/xlink" width="600" height="400" viewBox="0 0 2400 1600">
<defs>
  <clipPath id="clip290">
    <rect x="0" y="0" width="2400" height="1600"/>
  </clipPath>
</defs>
<path clip-path="url(#clip290)" d="M0 1600 L2400 1600 L2400 0 L0 0  Z" fill="#ffffff" fill-rule="evenodd" fill-opacity="1"/>
<defs>
  <clipPath id="clip291">
    <rect x="257" y="47" width="2097" height="1377"/>
  </clipPath>
</defs>
<path clip-path="url(#clip290)" d="M257.204 1423.18 L2352.76 1423.18 L2352.76 47.2441 L257.204 47.2441  Z" fill="#ffffff" fill-rule="evenodd" fill-opacity="1"/>
<polyline clip-path="url(#clip291)" style="stroke:#000000; stroke-linecap:round; stroke-linejoin:round; stroke-width:2; stroke-opacity:0.1; fill:none" points="326.452,1423.18 326.452,47.2441 "/>
<polyline clip-path="url(#clip291)" style="stroke:#000000; stroke-linecap:round; stroke-linejoin:round; stroke-width:2; stroke-opacity:0.1; fill:none" points="807.639,1423.18 807.639,47.2441 "/>
<polyline clip-path="url(#clip291)" style="stroke:#000000; stroke-linecap:round; stroke-linejoin:round; stroke-width:2; stroke-opacity:0.1; fill:none" points="1288.83,1423.18 1288.83,47.2441 "/>
<polyline clip-path="url(#clip291)" style="stroke:#000000; stroke-linecap:round; stroke-linejoin:round; stroke-width:2; stroke-opacity:0.1; fill:none" points="1770.01,1423.18 1770.01,47.2441 "/>
<polyline clip-path="url(#clip291)" style="stroke:#000000; stroke-linecap:round; stroke-linejoin:round; stroke-width:2; stroke-opacity:0.1; fill:none" points="2251.2,1423.18 2251.2,47.2441 "/>
<polyline clip-path="url(#clip291)" style="stroke:#000000; stroke-linecap:round; stroke-linejoin:round; stroke-width:2; stroke-opacity:0.1; fill:none" points="257.204,1175.04 2352.76,1175.04 "/>
<polyline clip-path="url(#clip291)" style="stroke:#000000; stroke-linecap:round; stroke-linejoin:round; stroke-width:2; stroke-opacity:0.1; fill:none" points="257.204,898.467 2352.76,898.467 "/>
<polyline clip-path="url(#clip291)" style="stroke:#000000; stroke-linecap:round; stroke-linejoin:round; stroke-width:2; stroke-opacity:0.1; fill:none" points="257.204,621.893 2352.76,621.893 "/>
<polyline clip-path="url(#clip291)" style="stroke:#000000; stroke-linecap:round; stroke-linejoin:round; stroke-width:2; stroke-opacity:0.1; fill:none" points="257.204,345.318 2352.76,345.318 "/>
<polyline clip-path="url(#clip291)" style="stroke:#000000; stroke-linecap:round; stroke-linejoin:round; stroke-width:2; stroke-opacity:0.1; fill:none" points="257.204,68.744 2352.76,68.744 "/>
<polyline clip-path="url(#clip290)" style="stroke:#000000; stroke-linecap:round; stroke-linejoin:round; stroke-width:4; stroke-opacity:1; fill:none" points="257.204,1423.18 2352.76,1423.18 "/>
<polyline clip-path="url(#clip290)" style="stroke:#000000; stroke-linecap:round; stroke-linejoin:round; stroke-width:4; stroke-opacity:1; fill:none" points="326.452,1423.18 326.452,1404.28 "/>
<polyline clip-path="url(#clip290)" style="stroke:#000000; stroke-linecap:round; stroke-linejoin:round; stroke-width:4; stroke-opacity:1; fill:none" points="807.639,1423.18 807.639,1404.28 "/>
<polyline clip-path="url(#clip290)" style="stroke:#000000; stroke-linecap:round; stroke-linejoin:round; stroke-width:4; stroke-opacity:1; fill:none" points="1288.83,1423.18 1288.83,1404.28 "/>
<polyline clip-path="url(#clip290)" style="stroke:#000000; stroke-linecap:round; stroke-linejoin:round; stroke-width:4; stroke-opacity:1; fill:none" points="1770.01,1423.18 1770.01,1404.28 "/>
<polyline clip-path="url(#clip290)" style="stroke:#000000; stroke-linecap:round; stroke-linejoin:round; stroke-width:4; stroke-opacity:1; fill:none" points="2251.2,1423.18 2251.2,1404.28 "/>
<path clip-path="url(#clip290)" d="M303.929 1454.1 Q300.317 1454.1 298.489 1457.66 Q296.683 1461.2 296.683 1468.33 Q296.683 1475.44 298.489 1479.01 Q300.317 1482.55 303.929 1482.55 Q307.563 1482.55 309.368 1479.01 Q311.197 1475.44 311.197 1468.33 Q311.197 1461.2 309.368 1457.66 Q307.563 1454.1 303.929 1454.1 M303.929 1450.39 Q309.739 1450.39 312.794 1455 Q315.873 1459.58 315.873 1468.33 Q315.873 1477.06 312.794 1481.67 Q309.739 1486.25 303.929 1486.25 Q298.118 1486.25 295.04 1481.67 Q291.984 1477.06 291.984 1468.33 Q291.984 1459.58 295.04 1455 Q298.118 1450.39 303.929 1450.39 Z" fill="#000000" fill-rule="nonzero" fill-opacity="1" /><path clip-path="url(#clip290)" d="M324.09 1479.7 L328.975 1479.7 L328.975 1485.58 L324.09 1485.58 L324.09 1479.7 Z" fill="#000000" fill-rule="nonzero" fill-opacity="1" /><path clip-path="url(#clip290)" d="M339.299 1484.86 L339.299 1480.6 Q341.058 1481.44 342.864 1481.88 Q344.669 1482.32 346.405 1482.32 Q351.035 1482.32 353.465 1479.21 Q355.919 1476.09 356.266 1469.75 Q354.924 1471.74 352.863 1472.8 Q350.803 1473.87 348.303 1473.87 Q343.118 1473.87 340.086 1470.74 Q337.077 1467.59 337.077 1462.15 Q337.077 1456.83 340.225 1453.61 Q343.373 1450.39 348.604 1450.39 Q354.6 1450.39 357.748 1455 Q360.919 1459.58 360.919 1468.33 Q360.919 1476.51 357.03 1481.39 Q353.164 1486.25 346.614 1486.25 Q344.854 1486.25 343.049 1485.9 Q341.243 1485.56 339.299 1484.86 M348.604 1470.21 Q351.752 1470.21 353.581 1468.06 Q355.433 1465.9 355.433 1462.15 Q355.433 1458.43 353.581 1456.27 Q351.752 1454.1 348.604 1454.1 Q345.456 1454.1 343.604 1456.27 Q341.776 1458.43 341.776 1462.15 Q341.776 1465.9 343.604 1468.06 Q345.456 1470.21 348.604 1470.21 Z" fill="#000000" fill-rule="nonzero" fill-opacity="1" /><path clip-path="url(#clip290)" d="M774.792 1481.64 L782.431 1481.64 L782.431 1455.28 L774.121 1456.95 L774.121 1452.69 L782.385 1451.02 L787.061 1451.02 L787.061 1481.64 L794.699 1481.64 L794.699 1485.58 L774.792 1485.58 L774.792 1481.64 Z" fill="#000000" fill-rule="nonzero" fill-opacity="1" /><path clip-path="url(#clip290)" d="M804.144 1479.7 L809.028 1479.7 L809.028 1485.58 L804.144 1485.58 L804.144 1479.7 Z" fill="#000000" fill-rule="nonzero" fill-opacity="1" /><path clip-path="url(#clip290)" d="M829.213 1454.1 Q825.602 1454.1 823.773 1457.66 Q821.968 1461.2 821.968 1468.33 Q821.968 1475.44 823.773 1479.01 Q825.602 1482.55 829.213 1482.55 Q832.847 1482.55 834.653 1479.01 Q836.482 1475.44 836.482 1468.33 Q836.482 1461.2 834.653 1457.66 Q832.847 1454.1 829.213 1454.1 M829.213 1450.39 Q835.023 1450.39 838.079 1455 Q841.157 1459.58 841.157 1468.33 Q841.157 1477.06 838.079 1481.67 Q835.023 1486.25 829.213 1486.25 Q823.403 1486.25 820.324 1481.67 Q817.269 1477.06 817.269 1468.33 Q817.269 1459.58 820.324 1455 Q823.403 1450.39 829.213 1450.39 Z" fill="#000000" fill-rule="nonzero" fill-opacity="1" /><path clip-path="url(#clip290)" d="M1256.59 1481.64 L1264.23 1481.64 L1264.23 1455.28 L1255.92 1456.95 L1255.92 1452.69 L1264.19 1451.02 L1268.86 1451.02 L1268.86 1481.64 L1276.5 1481.64 L1276.5 1485.58 L1256.59 1485.58 L1256.59 1481.64 Z" fill="#000000" fill-rule="nonzero" fill-opacity="1" /><path clip-path="url(#clip290)" d="M1285.94 1479.7 L1290.83 1479.7 L1290.83 1485.58 L1285.94 1485.58 L1285.94 1479.7 Z" fill="#000000" fill-rule="nonzero" fill-opacity="1" /><path clip-path="url(#clip290)" d="M1301.82 1481.64 L1309.46 1481.64 L1309.46 1455.28 L1301.15 1456.95 L1301.15 1452.69 L1309.42 1451.02 L1314.09 1451.02 L1314.09 1481.64 L1321.73 1481.64 L1321.73 1485.58 L1301.82 1485.58 L1301.82 1481.64 Z" fill="#000000" fill-rule="nonzero" fill-opacity="1" /><path clip-path="url(#clip290)" d="M1737.97 1481.64 L1745.6 1481.64 L1745.6 1455.28 L1737.29 1456.95 L1737.29 1452.69 L1745.56 1451.02 L1750.23 1451.02 L1750.23 1481.64 L1757.87 1481.64 L1757.87 1485.58 L1737.97 1485.58 L1737.97 1481.64 Z" fill="#000000" fill-rule="nonzero" fill-opacity="1" /><path clip-path="url(#clip290)" d="M1767.32 1479.7 L1772.2 1479.7 L1772.2 1485.58 L1767.32 1485.58 L1767.32 1479.7 Z" fill="#000000" fill-rule="nonzero" fill-opacity="1" /><path clip-path="url(#clip290)" d="M1786.41 1481.64 L1802.73 1481.64 L1802.73 1485.58 L1780.79 1485.58 L1780.79 1481.64 Q1783.45 1478.89 1788.03 1474.26 Q1792.64 1469.61 1793.82 1468.27 Q1796.07 1465.74 1796.95 1464.01 Q1797.85 1462.25 1797.85 1460.56 Q1797.85 1457.8 1795.91 1456.07 Q1793.98 1454.33 1790.88 1454.33 Q1788.68 1454.33 1786.23 1455.09 Q1783.8 1455.86 1781.02 1457.41 L1781.02 1452.69 Q1783.85 1451.55 1786.3 1450.97 Q1788.75 1450.39 1790.79 1450.39 Q1796.16 1450.39 1799.35 1453.08 Q1802.55 1455.77 1802.55 1460.26 Q1802.55 1462.39 1801.74 1464.31 Q1800.95 1466.2 1798.85 1468.8 Q1798.27 1469.47 1795.16 1472.69 Q1792.06 1475.88 1786.41 1481.64 Z" fill="#000000" fill-rule="nonzero" fill-opacity="1" /><path clip-path="url(#clip290)" d="M2218.68 1481.64 L2226.32 1481.64 L2226.32 1455.28 L2218.01 1456.95 L2218.01 1452.69 L2226.27 1451.02 L2230.95 1451.02 L2230.95 1481.64 L2238.59 1481.64 L2238.59 1485.58 L2218.68 1485.58 L2218.68 1481.64 Z" fill="#000000" fill-rule="nonzero" fill-opacity="1" /><path clip-path="url(#clip290)" d="M2248.03 1479.7 L2252.91 1479.7 L2252.91 1485.58 L2248.03 1485.58 L2248.03 1479.7 Z" fill="#000000" fill-rule="nonzero" fill-opacity="1" /><path clip-path="url(#clip290)" d="M2277.27 1466.95 Q2280.62 1467.66 2282.5 1469.93 Q2284.4 1472.2 2284.4 1475.53 Q2284.4 1480.65 2280.88 1483.45 Q2277.36 1486.25 2270.88 1486.25 Q2268.7 1486.25 2266.39 1485.81 Q2264.1 1485.39 2261.64 1484.54 L2261.64 1480.02 Q2263.59 1481.16 2265.9 1481.74 Q2268.22 1482.32 2270.74 1482.32 Q2275.14 1482.32 2277.43 1480.58 Q2279.74 1478.84 2279.74 1475.53 Q2279.74 1472.48 2277.59 1470.77 Q2275.46 1469.03 2271.64 1469.03 L2267.61 1469.03 L2267.61 1465.19 L2271.83 1465.19 Q2275.28 1465.19 2277.1 1463.82 Q2278.93 1462.43 2278.93 1459.84 Q2278.93 1457.18 2277.03 1455.77 Q2275.16 1454.33 2271.64 1454.33 Q2269.72 1454.33 2267.52 1454.75 Q2265.32 1455.16 2262.68 1456.04 L2262.68 1451.88 Q2265.35 1451.14 2267.66 1450.77 Q2270 1450.39 2272.06 1450.39 Q2277.38 1450.39 2280.48 1452.83 Q2283.59 1455.23 2283.59 1459.35 Q2283.59 1462.22 2281.94 1464.21 Q2280.3 1466.18 2277.27 1466.95 Z" fill="#000000" fill-rule="nonzero" fill-opacity="1" /><path clip-path="url(#clip290)" d="M1302.04 1545.45 L1281.76 1545.45 Q1282.24 1554.96 1284.43 1559 Q1287.17 1563.97 1291.91 1563.97 Q1296.69 1563.97 1299.33 1558.97 Q1301.65 1554.58 1302.04 1545.45 M1301.94 1540.03 Q1301.05 1531 1299.33 1527.81 Q1296.59 1522.78 1291.91 1522.78 Q1287.04 1522.78 1284.47 1527.75 Q1282.43 1531.76 1281.82 1540.03 L1301.94 1540.03 M1291.91 1518.01 Q1299.55 1518.01 1303.91 1524.76 Q1308.27 1531.47 1308.27 1543.38 Q1308.27 1555.25 1303.91 1562 Q1299.55 1568.78 1291.91 1568.78 Q1284.24 1568.78 1279.91 1562 Q1275.55 1555.25 1275.55 1543.38 Q1275.55 1531.47 1279.91 1524.76 Q1284.24 1518.01 1291.91 1518.01 Z" fill="#000000" fill-rule="nonzero" fill-opacity="1" /><path clip-path="url(#clip290)" d="M1316.8 1564.54 L1323.3 1564.54 L1323.3 1545.1 L1316.2 1546.4 L1316.2 1542.71 L1323.52 1541.47 L1327.88 1541.47 L1327.88 1564.54 L1334.41 1564.54 L1334.41 1568.04 L1316.8 1568.04 L1316.8 1564.54 Z" fill="#000000" fill-rule="nonzero" fill-opacity="1" /><polyline clip-path="url(#clip290)" style="stroke:#000000; stroke-linecap:round; stroke-linejoin:round; stroke-width:4; stroke-opacity:1; fill:none" points="257.204,1423.18 257.204,47.2441 "/>
<polyline clip-path="url(#clip290)" style="stroke:#000000; stroke-linecap:round; stroke-linejoin:round; stroke-width:4; stroke-opacity:1; fill:none" points="257.204,1175.04 276.102,1175.04 "/>
<polyline clip-path="url(#clip290)" style="stroke:#000000; stroke-linecap:round; stroke-linejoin:round; stroke-width:4; stroke-opacity:1; fill:none" points="257.204,898.467 276.102,898.467 "/>
<polyline clip-path="url(#clip290)" style="stroke:#000000; stroke-linecap:round; stroke-linejoin:round; stroke-width:4; stroke-opacity:1; fill:none" points="257.204,621.893 276.102,621.893 "/>
<polyline clip-path="url(#clip290)" style="stroke:#000000; stroke-linecap:round; stroke-linejoin:round; stroke-width:4; stroke-opacity:1; fill:none" points="257.204,345.318 276.102,345.318 "/>
<polyline clip-path="url(#clip290)" style="stroke:#000000; stroke-linecap:round; stroke-linejoin:round; stroke-width:4; stroke-opacity:1; fill:none" points="257.204,68.744 276.102,68.744 "/>
<path clip-path="url(#clip290)" d="M115.256 1175.49 L144.931 1175.49 L144.931 1179.43 L115.256 1179.43 L115.256 1175.49 Z" fill="#000000" fill-rule="nonzero" fill-opacity="1" /><path clip-path="url(#clip290)" d="M155.834 1188.39 L163.473 1188.39 L163.473 1162.02 L155.163 1163.69 L155.163 1159.43 L163.427 1157.76 L168.102 1157.76 L168.102 1188.39 L175.741 1188.39 L175.741 1192.32 L155.834 1192.32 L155.834 1188.39 Z" fill="#000000" fill-rule="nonzero" fill-opacity="1" /><path clip-path="url(#clip290)" d="M185.186 1186.44 L190.07 1186.44 L190.07 1192.32 L185.186 1192.32 L185.186 1186.44 Z" fill="#000000" fill-rule="nonzero" fill-opacity="1" /><path clip-path="url(#clip290)" d="M200.301 1157.76 L218.658 1157.76 L218.658 1161.7 L204.584 1161.7 L204.584 1170.17 Q205.602 1169.82 206.621 1169.66 Q207.639 1169.47 208.658 1169.47 Q214.445 1169.47 217.824 1172.65 Q221.204 1175.82 221.204 1181.23 Q221.204 1186.81 217.732 1189.91 Q214.26 1192.99 207.94 1192.99 Q205.764 1192.99 203.496 1192.62 Q201.25 1192.25 198.843 1191.51 L198.843 1186.81 Q200.926 1187.95 203.149 1188.5 Q205.371 1189.06 207.848 1189.06 Q211.852 1189.06 214.19 1186.95 Q216.528 1184.84 216.528 1181.23 Q216.528 1177.62 214.19 1175.52 Q211.852 1173.41 207.848 1173.41 Q205.973 1173.41 204.098 1173.83 Q202.246 1174.24 200.301 1175.12 L200.301 1157.76 Z" fill="#000000" fill-rule="nonzero" fill-opacity="1" /><path clip-path="url(#clip290)" d="M114.26 898.918 L143.936 898.918 L143.936 902.853 L114.26 902.853 L114.26 898.918 Z" fill="#000000" fill-rule="nonzero" fill-opacity="1" /><path clip-path="url(#clip290)" d="M154.839 911.812 L162.477 911.812 L162.477 885.446 L154.167 887.113 L154.167 882.853 L162.431 881.187 L167.107 881.187 L167.107 911.812 L174.746 911.812 L174.746 915.747 L154.839 915.747 L154.839 911.812 Z" fill="#000000" fill-rule="nonzero" fill-opacity="1" /><path clip-path="url(#clip290)" d="M184.19 909.867 L189.075 909.867 L189.075 915.747 L184.19 915.747 L184.19 909.867 Z" fill="#000000" fill-rule="nonzero" fill-opacity="1" /><path clip-path="url(#clip290)" d="M209.26 884.266 Q205.649 884.266 203.82 887.83 Q202.014 891.372 202.014 898.502 Q202.014 905.608 203.82 909.173 Q205.649 912.714 209.26 912.714 Q212.894 912.714 214.699 909.173 Q216.528 905.608 216.528 898.502 Q216.528 891.372 214.699 887.83 Q212.894 884.266 209.26 884.266 M209.26 880.562 Q215.07 880.562 218.125 885.168 Q221.204 889.752 221.204 898.502 Q221.204 907.228 218.125 911.835 Q215.07 916.418 209.26 916.418 Q203.449 916.418 200.371 911.835 Q197.315 907.228 197.315 898.502 Q197.315 889.752 200.371 885.168 Q203.449 880.562 209.26 880.562 Z" fill="#000000" fill-rule="nonzero" fill-opacity="1" /><path clip-path="url(#clip290)" d="M115.256 622.344 L144.931 622.344 L144.931 626.279 L115.256 626.279 L115.256 622.344 Z" fill="#000000" fill-rule="nonzero" fill-opacity="1" /><path clip-path="url(#clip290)" d="M165.024 607.691 Q161.413 607.691 159.584 611.256 Q157.778 614.798 157.778 621.927 Q157.778 629.034 159.584 632.599 Q161.413 636.14 165.024 636.14 Q168.658 636.14 170.464 632.599 Q172.292 629.034 172.292 621.927 Q172.292 614.798 170.464 611.256 Q168.658 607.691 165.024 607.691 M165.024 603.988 Q170.834 603.988 173.889 608.594 Q176.968 613.177 176.968 621.927 Q176.968 630.654 173.889 635.261 Q170.834 639.844 165.024 639.844 Q159.214 639.844 156.135 635.261 Q153.079 630.654 153.079 621.927 Q153.079 613.177 156.135 608.594 Q159.214 603.988 165.024 603.988 Z" fill="#000000" fill-rule="nonzero" fill-opacity="1" /><path clip-path="url(#clip290)" d="M185.186 633.293 L190.07 633.293 L190.07 639.173 L185.186 639.173 L185.186 633.293 Z" fill="#000000" fill-rule="nonzero" fill-opacity="1" /><path clip-path="url(#clip290)" d="M200.301 604.613 L218.658 604.613 L218.658 608.548 L204.584 608.548 L204.584 617.02 Q205.602 616.673 206.621 616.511 Q207.639 616.325 208.658 616.325 Q214.445 616.325 217.824 619.497 Q221.204 622.668 221.204 628.085 Q221.204 633.663 217.732 636.765 Q214.26 639.844 207.94 639.844 Q205.764 639.844 203.496 639.473 Q201.25 639.103 198.843 638.362 L198.843 633.663 Q200.926 634.798 203.149 635.353 Q205.371 635.909 207.848 635.909 Q211.852 635.909 214.19 633.802 Q216.528 631.696 216.528 628.085 Q216.528 624.474 214.19 622.367 Q211.852 620.261 207.848 620.261 Q205.973 620.261 204.098 620.677 Q202.246 621.094 200.301 621.974 L200.301 604.613 Z" fill="#000000" fill-rule="nonzero" fill-opacity="1" /><path clip-path="url(#clip290)" d="M164.028 331.117 Q160.417 331.117 158.589 334.682 Q156.783 338.223 156.783 345.353 Q156.783 352.459 158.589 356.024 Q160.417 359.566 164.028 359.566 Q167.663 359.566 169.468 356.024 Q171.297 352.459 171.297 345.353 Q171.297 338.223 169.468 334.682 Q167.663 331.117 164.028 331.117 M164.028 327.413 Q169.839 327.413 172.894 332.02 Q175.973 336.603 175.973 345.353 Q175.973 354.08 172.894 358.686 Q169.839 363.27 164.028 363.27 Q158.218 363.27 155.14 358.686 Q152.084 354.08 152.084 345.353 Q152.084 336.603 155.14 332.02 Q158.218 327.413 164.028 327.413 Z" fill="#000000" fill-rule="nonzero" fill-opacity="1" /><path clip-path="url(#clip290)" d="M184.19 356.719 L189.075 356.719 L189.075 362.598 L184.19 362.598 L184.19 356.719 Z" fill="#000000" fill-rule="nonzero" fill-opacity="1" /><path clip-path="url(#clip290)" d="M209.26 331.117 Q205.649 331.117 203.82 334.682 Q202.014 338.223 202.014 345.353 Q202.014 352.459 203.82 356.024 Q205.649 359.566 209.26 359.566 Q212.894 359.566 214.699 356.024 Q216.528 352.459 216.528 345.353 Q216.528 338.223 214.699 334.682 Q212.894 331.117 209.26 331.117 M209.26 327.413 Q215.07 327.413 218.125 332.02 Q221.204 336.603 221.204 345.353 Q221.204 354.08 218.125 358.686 Q215.07 363.27 209.26 363.27 Q203.449 363.27 200.371 358.686 Q197.315 354.08 197.315 345.353 Q197.315 336.603 200.371 332.02 Q203.449 327.413 209.26 327.413 Z" fill="#000000" fill-rule="nonzero" fill-opacity="1" /><path clip-path="url(#clip290)" d="M165.024 54.5427 Q161.413 54.5427 159.584 58.1075 Q157.778 61.6491 157.778 68.7787 Q157.778 75.8852 159.584 79.45 Q161.413 82.9916 165.024 82.9916 Q168.658 82.9916 170.464 79.45 Q172.292 75.8852 172.292 68.7787 Q172.292 61.6491 170.464 58.1075 Q168.658 54.5427 165.024 54.5427 M165.024 50.839 Q170.834 50.839 173.889 55.4455 Q176.968 60.0288 176.968 68.7787 Q176.968 77.5055 173.889 82.112 Q170.834 86.6953 165.024 86.6953 Q159.214 86.6953 156.135 82.112 Q153.079 77.5055 153.079 68.7787 Q153.079 60.0288 156.135 55.4455 Q159.214 50.839 165.024 50.839 Z" fill="#000000" fill-rule="nonzero" fill-opacity="1" /><path clip-path="url(#clip290)" d="M185.186 80.1444 L190.07 80.1444 L190.07 86.024 L185.186 86.024 L185.186 80.1444 Z" fill="#000000" fill-rule="nonzero" fill-opacity="1" /><path clip-path="url(#clip290)" d="M200.301 51.464 L218.658 51.464 L218.658 55.3992 L204.584 55.3992 L204.584 63.8713 Q205.602 63.5241 206.621 63.3621 Q207.639 63.1769 208.658 63.1769 Q214.445 63.1769 217.824 66.3482 Q221.204 69.5195 221.204 74.9361 Q221.204 80.5148 217.732 83.6166 Q214.26 86.6953 207.94 86.6953 Q205.764 86.6953 203.496 86.3249 Q201.25 85.9546 198.843 85.2138 L198.843 80.5148 Q200.926 81.649 203.149 82.2046 Q205.371 82.7601 207.848 82.7601 Q211.852 82.7601 214.19 80.6537 Q216.528 78.5472 216.528 74.9361 Q216.528 71.325 214.19 69.2185 Q211.852 67.1121 207.848 67.1121 Q205.973 67.1121 204.098 67.5287 Q202.246 67.9454 200.301 68.825 L200.301 51.464 Z" fill="#000000" fill-rule="nonzero" fill-opacity="1" /><path clip-path="url(#clip290)" d="M41.4059 737.886 L41.4059 758.16 Q50.9226 757.683 54.9649 755.487 Q59.9301 752.749 59.9301 748.007 Q59.9301 743.233 54.933 740.591 Q50.5407 738.268 41.4059 737.886 M35.995 737.981 Q26.9557 738.872 23.7729 740.591 Q18.744 743.328 18.744 748.007 Q18.744 752.877 23.7092 755.455 Q27.7196 757.492 35.995 758.097 L35.995 737.981 M13.9697 748.007 Q13.9697 740.368 20.7174 736.008 Q27.4332 731.647 39.337 731.647 Q51.2091 731.647 57.9567 736.008 Q64.7362 740.368 64.7362 748.007 Q64.7362 755.678 57.9567 760.006 Q51.2091 764.367 39.337 764.367 Q27.4332 764.367 20.7174 760.006 Q13.9697 755.678 13.9697 748.007 Z" fill="#000000" fill-rule="nonzero" fill-opacity="1" /><path clip-path="url(#clip290)" d="M60.3757 719.552 L60.3757 706.057 L64.0042 706.057 L64.0042 725.09 L60.503 725.09 Q59.5163 724.008 57.7339 722.003 Q48.0262 711.054 45.0344 711.054 Q42.9337 711.054 41.6605 712.709 Q40.3556 714.364 40.3556 717.07 Q40.3556 718.725 40.9285 720.666 Q41.4696 722.608 42.5836 724.9 L38.6686 724.9 Q37.7774 722.449 37.3318 720.348 Q36.8862 718.216 36.8862 716.401 Q36.8862 711.786 38.9869 709.017 Q41.0876 706.248 44.5251 706.248 Q48.9493 706.248 57.9886 716.783 Q59.5163 718.566 60.3757 719.552 Z" fill="#000000" fill-rule="nonzero" fill-opacity="1" /><circle clip-path="url(#clip291)" cx="1482.97" cy="522.355" r="7.2" fill="#009af9" fill-rule="evenodd" fill-opacity="1" stroke="#000000" stroke-opacity="1" stroke-width="3.2"/>
<polyline clip-path="url(#clip291)" style="stroke:#e26f46; stroke-linecap:round; stroke-linejoin:round; stroke-width:4; stroke-opacity:1; fill:none" points="1664.68,522.355 1663.17,521.448 1661.65,520.542 1660.12,519.636 1658.59,518.73 1657.06,517.823 1655.52,516.917 1653.99,516.012 1652.44,515.106 1650.89,514.2 1649.34,513.294 1647.79,512.389 1646.23,511.483 1644.67,510.578 1643.1,509.672 1641.53,508.767 1639.96,507.862 1638.38,506.957 1636.8,506.052 1635.21,505.147 1633.62,504.242 1632.03,503.338 1630.43,502.433 1628.83,501.529 1627.23,500.624 1625.62,499.72 1624.01,498.815 1622.39,497.911 1620.77,497.007 1619.14,496.103 1617.52,495.199 1615.88,494.296 1614.25,493.392 1612.61,492.488 1610.96,491.585 1609.31,490.681 1607.66,489.778 1606.01,488.875 1604.35,487.972 1602.68,487.069 1601.01,486.166 1599.34,485.263 1597.66,484.36 1595.98,483.458 1594.3,482.555 1592.61,481.653 1590.92,480.751 1589.22,479.848 1587.52,478.946 1585.82,478.044 1584.11,477.142 1582.39,476.241 1580.68,475.339 1578.95,474.437 1577.23,473.536 1575.5,472.634 1573.76,471.733 1572.03,470.832 1570.28,469.931 1568.54,469.03 1566.79,468.129 1565.03,467.228 1563.27,466.328 1561.51,465.427 1559.74,464.527 1557.97,463.627 1556.19,462.726 1554.41,461.826 1552.63,460.926 1550.84,460.026 1549.04,459.127 1547.25,458.227 1545.44,457.328 1543.64,456.428 1541.83,455.529 1540.01,454.63 1538.19,453.731 1536.37,452.832 1534.54,451.933 1532.71,451.034 1530.87,450.136 1529.03,449.237 1527.18,448.339 1525.33,447.441 1523.47,446.543 1521.61,445.645 1519.75,444.747 1517.88,443.849 1516.01,442.952 1514.13,442.054 1512.25,441.157 1510.36,440.26 1508.47,439.363 1506.57,438.466 1504.67,437.569 1502.77,436.672 1500.86,435.775 1498.94,434.879 1497.02,433.983 1495.1,433.087 1493.17,432.191 1491.24,431.295 1489.3,430.399 1487.36,429.503 1485.41,428.608 1483.46,427.712 1481.5,426.817 1479.54,425.922 1477.57,425.027 1475.6,424.132 1473.63,423.238 1471.65,422.343 1469.66,421.449 1467.67,420.554 1465.68,419.66 1463.68,418.766 1461.67,417.873 1459.66,416.979 1457.65,416.085 1455.63,415.192 1453.6,414.299 1451.57,413.406 1449.54,412.513 1447.5,411.62 1445.45,410.727 1443.4,409.835 1441.35,408.943 1439.29,408.05 1437.22,407.158 1435.15,406.267 1433.08,405.375 1431,404.483 1428.91,403.592 1426.82,402.701 1424.72,401.81 1422.62,400.919 1420.52,400.028 1418.4,399.137 1416.29,398.247 1414.17,397.357 1412.04,396.467 1409.91,395.577 1407.77,394.687 1405.62,393.798 1403.48,392.908 1401.32,392.019 1399.16,391.13 1397,390.241 1394.83,389.352 1392.65,388.464 1390.47,387.576 1388.28,386.687 1386.09,385.799 1383.89,384.912 1381.69,384.024 1379.48,383.137 1377.26,382.249 1375.04,381.362 1372.81,380.475 1370.58,379.589 1368.34,378.702 1366.1,377.816 1363.85,376.93 1361.6,376.044 1359.33,375.158 1357.07,374.273 1354.79,373.387 1352.52,372.502 1350.23,371.617 1347.94,370.733 1345.64,369.848 1343.34,368.964 1341.03,368.08 1338.72,367.196 1336.4,366.312 1334.07,365.429 1331.74,364.546 1329.4,363.663 1327.05,362.78 1324.7,361.897 1322.34,361.015 1319.98,360.133 1317.61,359.251 1315.23,358.369 1312.85,357.488 1310.46,356.607 1308.06,355.726 1305.66,354.845 1303.25,353.964 1300.83,353.084 1298.41,352.204 1295.98,351.324 1293.55,350.445 1291.1,349.565 1288.65,348.686 1286.2,347.807 1283.73,346.929 1281.26,346.051 1278.79,345.173 1276.3,344.295 1273.81,343.417 1271.31,342.54 1268.81,341.663 1266.3,340.786 1263.78,339.91 1261.25,339.034 1258.72,338.158 1256.17,337.282 1253.62,336.407 1251.07,335.532 1248.5,334.657 1245.93,333.783 1243.35,332.909 1240.77,332.035 1238.17,331.161 1235.57,330.288 1232.96,329.415 1230.34,328.542 1227.72,327.67 1225.08,326.798 1222.44,325.926 1219.79,325.055 1217.13,324.184 1214.47,323.313 1211.79,322.443 1209.11,321.573 1206.42,320.704 1203.71,319.834 1201.01,318.965 1198.29,318.097 1195.56,317.229 1192.82,316.361 1190.08,315.493 1187.33,314.626 1184.56,313.759 1181.79,312.893 1179.01,312.027 1176.22,311.162 1173.42,310.297 1170.61,309.432 1167.79,308.568 1164.96,307.704 1162.12,306.841 1159.27,305.978 1156.41,305.115 1153.53,304.253 1150.65,303.392 1147.76,302.53 1144.86,301.67 1141.95,300.81 1139.02,299.95 1136.08,299.091 1133.14,298.232 1130.18,297.374 1127.21,296.517 1124.23,295.66 1121.23,294.803 1118.23,293.947 1115.21,293.092 1112.17,292.237 1109.13,291.383 1106.07,290.529 1103,289.677 1099.92,288.824 1096.82,287.973 1093.71,287.122 1090.58,286.272 1087.44,285.422 1084.28,284.573 1081.11,283.725 1077.93,282.878 1074.73,282.031 1071.51,281.186 1068.27,280.341 1065.02,279.497 1061.75,278.654 1058.47,277.812 1055.16,276.97 1051.84,276.13 1048.49,275.291 1045.13,274.453 1041.75,273.615 1038.35,272.779 1034.92,271.945 1031.47,271.111 1028,270.278 1024.51,269.447 1020.99,268.618 1017.45,267.789 1013.88,266.963 1010.28,266.137 1006.65,265.314 1003,264.492 999.31,263.672 995.59,262.854 991.836,262.038 988.046,261.224 984.219,260.413 980.351,259.604 976.441,258.798 972.487,257.994 968.484,257.194 964.431,256.397 960.323,255.604 956.155,254.815 951.924,254.031 947.624,253.251 943.247,252.477 938.786,251.71 934.232,250.95 929.573,250.198 924.796,249.456 919.884,248.726 914.815,248.01 909.559,247.312 904.081,246.637 898.327,245.994 892.225,245.394 885.672,244.861 878.538,244.44 870.764,244.224 862.9,244.365 856.391,244.893 851.729,245.642 848.42,246.482 846.007,247.362 844.212,248.262 842.866,249.171 841.862,250.087 841.129,251.006 840.615,251.927 840.283,252.85 840.106,253.773 840.061,254.696 840.133,255.619 840.305,256.541 840.568,257.464 840.912,258.386 841.329,259.308 841.812,260.229 842.355,261.15 842.953,262.071 843.603,262.991 844.299,263.91 845.038,264.83 845.818,265.748 846.636,266.666 847.489,267.584 848.376,268.502 849.293,269.419 850.24,270.335 851.214,271.252 852.215,272.167 853.24,273.083 854.289,273.998 855.359,274.913 856.452,275.827 857.564,276.742 858.696,277.655 859.845,278.569 861.013,279.482 862.197,280.395 863.397,281.308 864.613,282.22 865.844,283.132 867.088,284.044 868.346,284.956 869.618,285.867 870.901,286.779 872.197,287.689 873.505,288.6 874.824,289.511 876.153,290.421 877.493,291.331 878.844,292.241 880.203,293.151 881.573,294.06 882.951,294.97 884.338,295.879 885.734,296.788 887.138,297.697 888.549,298.605 889.969,299.514 891.396,300.422 892.83,301.33 894.271,302.239 895.719,303.146 897.174,304.054 898.635,304.962 900.102,305.869 901.575,306.777 903.054,307.684 904.539,308.591 906.029,309.498 907.525,310.405 909.025,311.312 910.531,312.219 912.042,313.125 913.557,314.032 915.077,314.938 916.602,315.844 918.131,316.75 919.664,317.657 921.201,318.562 922.743,319.468 924.288,320.374 925.837,321.28 927.39,322.186 928.946,323.091 930.506,323.997 932.069,324.902 933.636,325.807 935.206,326.712 936.779,327.618 938.355,328.523 939.934,329.428 941.516,330.333 943.101,331.238 944.688,332.142 946.278,333.047 947.871,333.952 949.466,334.857 951.064,335.761 952.664,336.666 954.267,337.57 955.872,338.475 957.479,339.379 959.088,340.283 960.699,341.188 962.312,342.092 963.927,342.996 965.544,343.9 967.163,344.804 968.784,345.708 970.407,346.612 972.031,347.516 973.657,348.42 975.284,349.324 976.913,350.228 978.544,351.132 980.176,352.036 981.81,352.939 983.444,353.843 985.081,354.747 986.718,355.65 988.357,356.554 989.997,357.458 991.639,358.361 993.281,359.265 994.924,360.168 996.569,361.072 998.215,361.975 999.861,362.879 1001.51,363.782 1003.16,364.686 1004.81,365.589 1006.46,366.492 1008.11,367.396 1009.76,368.299 1011.41,369.202 1013.07,370.105 1014.72,371.009 1016.38,371.912 1018.03,372.815 1019.69,373.718 1021.35,374.622 1023,375.525 1024.66,376.428 1026.32,377.331 1027.98,378.234 1029.64,379.137 1031.3,380.04 1032.96,380.943 1034.62,381.847 1036.28,382.75 1037.94,383.653 1039.61,384.556 1041.27,385.459 1042.93,386.362 1044.6,387.265 1046.26,388.168 1047.92,389.071 1049.59,389.974 1051.25,390.877 1052.91,391.78 1054.58,392.683 1056.24,393.586 1057.91,394.489 1059.57,395.392 1061.24,396.295 1062.9,397.198 1064.57,398.101 1066.23,399.004 1067.9,399.907 1069.56,400.81 1071.23,401.713 1072.9,402.616 1074.56,403.519 1076.23,404.422 1077.89,405.325 1079.56,406.228 1081.22,407.131 1082.89,408.034 1084.55,408.937 1086.22,409.84 1087.88,410.743 1089.54,411.646 1091.21,412.549 1092.87,413.452 1094.54,414.355 1096.2,415.258 1097.86,416.161 1099.53,417.064 1101.19,417.967 1102.85,418.87 1104.51,419.773 1106.18,420.676 1107.84,421.579 1109.5,422.482 1111.16,423.385 1112.82,424.289 1114.48,425.192 1116.14,426.095 1117.8,426.998 1119.46,427.901 1121.12,428.804 1122.78,429.707 1124.44,430.61 1126.1,431.514 1127.75,432.417 1129.41,433.32 1131.07,434.223 1132.72,435.126 1134.38,436.03 1136.04,436.933 1137.69,437.836 1139.34,438.739 1141,439.643 1142.65,440.546 1144.31,441.449 1145.96,442.352 1147.61,443.256 1149.26,444.159 1150.91,445.062 1152.56,445.966 1154.21,446.869 1155.86,447.772 1157.51,448.676 1159.16,449.579 1160.81,450.483 1162.45,451.386 1164.1,452.29 1165.75,453.193 1167.39,454.096 1169.04,455 1170.68,455.903 1172.32,456.807 1173.97,457.71 1175.61,458.614 1177.25,459.518 1178.89,460.421 1180.53,461.325 1182.17,462.228 1183.81,463.132 1185.45,464.036 1187.09,464.939 1188.72,465.843 1190.36,466.747 1192,467.65 1193.63,468.554 1195.26,469.458 1196.9,470.362 1198.53,471.265 1200.16,472.169 1201.8,473.073 1203.43,473.977 1205.06,474.881 1206.69,475.784 1208.31,476.688 1209.94,477.592 1211.57,478.496 1213.2,479.4 1214.82,480.304 1216.45,481.208 1218.07,482.112 1219.69,483.016 1221.32,483.92 1222.94,484.824 1224.56,485.728 1226.18,486.632 1227.8,487.536 1229.42,488.44 1231.04,489.344 1232.65,490.248 1234.27,491.153 1235.88,492.057 1237.5,492.961 1239.11,493.865 1240.73,494.769 1242.34,495.674 1243.95,496.578 1245.56,497.482 1247.17,498.387 1248.78,499.291 1250.39,500.195 1252,501.1 1253.6,502.004 1255.21,502.908 1256.81,503.813 1258.42,504.717 1260.02,505.622 1261.62,506.526 1263.23,507.431 1264.83,508.335 1266.43,509.24 1268.03,510.144 1269.62,511.049 1271.22,511.954 1272.82,512.858 1274.41,513.763 1276.01,514.667 1277.6,515.572 1279.19,516.477 1280.79,517.382 1282.38,518.286 1283.97,519.191 1285.56,520.096 1287.15,521.001 1288.74,521.906 1290.32,522.81 1291.91,523.715 1293.49,524.62 1295.08,525.525 1296.66,526.43 1298.24,527.335 1299.83,528.24 1301.41,529.145 1302.99,530.05 1304.57,530.955 1306.14,531.86 1307.72,532.765 1309.3,533.67 1310.87,534.575 1312.45,535.48 1314.02,536.386 1315.59,537.291 1317.17,538.196 1318.74,539.101 1320.31,540.006 1321.88,540.912 1323.44,541.817 1325.01,542.722 1326.58,543.628 1328.14,544.533 1329.71,545.438 1331.27,546.344 1332.83,547.249 1334.4,548.154 1335.96,549.06 1337.52,549.965 1339.08,550.871 1340.63,551.776 1342.19,552.682 1343.75,553.587 1345.3,554.493 1346.86,555.399 1348.41,556.304 1349.97,557.21 1351.52,558.115 1353.07,559.021 1354.62,559.927 1356.17,560.833 1357.72,561.738 1359.26,562.644 1360.81,563.55 1362.35,564.456 1363.9,565.361 1365.44,566.267 1366.99,567.173 1368.53,568.079 1370.07,568.985 1371.61,569.891 1373.15,570.797 1374.69,571.703 1376.22,572.609 1377.76,573.515 1379.29,574.421 1380.83,575.327 1382.36,576.233 1383.9,577.139 1385.43,578.045 1386.96,578.951 1388.49,579.857 1390.02,580.763 1391.54,581.67 1393.07,582.576 1394.6,583.482 1396.12,584.388 1397.65,585.295 1399.17,586.201 1400.69,587.107 1402.22,588.014 1403.74,588.92 1405.26,589.826 1406.78,590.733 1408.29,591.639 1409.81,592.545 1411.33,593.452 1412.84,594.358 1414.36,595.265 1415.87,596.171 1417.38,597.078 1418.9,597.984 1420.41,598.891 1421.92,599.798 1423.42,600.704 1424.93,601.611 1426.44,602.517 1427.95,603.424 1429.45,604.331 1430.96,605.238 1432.46,606.144 1433.96,607.051 1435.47,607.958 1436.97,608.865 1438.47,609.771 1439.97,610.678 1441.46,611.585 1442.96,612.492 1444.46,613.399 1445.95,614.306 1447.45,615.213 1448.94,616.12 1450.44,617.026 1451.93,617.933 1453.42,618.84 1454.91,619.747 1456.4,620.655 1457.89,621.562 1459.38,622.469 1460.86,623.376 1462.35,624.283 1463.84,625.19 1465.32,626.097 1466.8,627.004 1468.29,627.911 1469.77,628.819 1471.25,629.726 1472.73,630.633 1474.21,631.54 1475.69,632.448 1477.16,633.355 1478.64,634.262 1480.12,635.17 1481.59,636.077 1483.07,636.984 1484.54,637.892 1486.01,638.799 1487.48,639.706 1488.96,640.614 1490.43,641.521 1491.9,642.429 1493.36,643.336 1494.83,644.244 1496.3,645.151 1497.76,646.059 1499.23,646.966 1500.69,647.874 1502.16,648.782 1503.62,649.689 1505.08,650.597 1506.54,651.504 1508,652.412 1509.46,653.32 1510.92,654.227 1512.38,655.135 1513.84,656.043 1515.29,656.951 1516.75,657.858 1518.2,658.766 1519.66,659.674 1521.11,660.582 1522.57,661.49 1524.02,662.397 1525.47,663.305 1526.92,664.213 1528.37,665.121 1529.82,666.029 1531.26,666.937 1532.71,667.845 1534.16,668.753 1535.6,669.661 1537.05,670.569 1538.49,671.477 1539.94,672.385 1541.38,673.293 1542.82,674.201 1544.26,675.109 1545.7,676.017 1547.14,676.925 1548.58,677.833 1550.02,678.741 1551.46,679.649 1552.9,680.558 1554.33,681.466 1555.77,682.374 1557.21,683.282 1558.64,684.19 1560.07,685.099 1561.51,686.007 1562.94,686.915 1564.37,687.823 1565.8,688.732 1567.23,689.64 1568.66,690.548 1570.09,691.456 1571.52,692.365 1572.95,693.273 1574.37,694.182 1575.8,695.09 1577.23,695.998 1578.65,696.907 1580.08,697.815 1581.5,698.724 1582.92,699.632 1584.35,700.54 1585.77,701.449 1587.19,702.357 1588.61,703.266 1590.03,704.174 1591.45,705.083 1592.87,705.991 1594.29,706.9 1595.71,707.808 1597.13,708.717 1598.54,709.626 1599.96,710.534 1601.37,711.443 1602.79,712.351 1604.2,713.26 1605.62,714.169 1607.03,715.077 1608.45,715.986 1609.86,716.895 1611.27,717.803 1612.68,718.712 1614.09,719.621 1615.5,720.529 1616.91,721.438 1618.32,722.347 1619.73,723.255 1621.14,724.164 1622.55,725.073 1623.96,725.982 1625.36,726.89 1626.77,727.799 1628.18,728.708 1629.58,729.617 1630.99,730.526 1632.39,731.434 1633.8,732.343 1635.2,733.252 1636.61,734.161 1638.01,735.07 1639.41,735.979 1640.82,736.887 1642.22,737.796 1643.62,738.705 1645.02,739.614 1646.42,740.523 1647.83,741.432 1649.23,742.341 1650.63,743.25 1652.03,744.159 1653.43,745.067 1654.83,745.976 1656.23,746.885 1657.62,747.794 1659.02,748.703 1660.42,749.612 1661.82,750.521 1663.22,751.43 1664.61,752.339 1666.01,753.248 1667.41,754.157 1668.81,755.066 1670.2,755.975 1671.6,756.884 1673,757.793 1674.39,758.702 1675.79,759.611 1677.18,760.52 1678.58,761.429 1679.97,762.338 1681.37,763.247 1682.76,764.156 1684.16,765.065 1685.56,765.974 1686.95,766.883 1688.35,767.792 1689.74,768.701 1691.13,769.61 1692.53,770.519 1693.92,771.428 1695.32,772.337 1696.71,773.246 1698.11,774.155 1699.5,775.064 1700.9,775.973 1702.29,776.882 1703.69,777.791 1705.08,778.7 1706.48,779.609 1707.87,780.518 1709.27,781.427 1710.66,782.336 1712.06,783.245 1713.46,784.154 1714.85,785.063 1716.25,785.972 1717.64,786.881 1719.04,787.79 1720.44,788.699 1721.84,789.608 1723.23,790.517 1724.63,791.426 1726.03,792.335 1727.43,793.244 1728.83,794.153 1730.22,795.062 1731.62,795.971 1733.02,796.88 1734.42,797.789 1735.82,798.698 1737.23,799.607 1738.63,800.515 1740.03,801.424 1741.43,802.333 1742.83,803.242 1744.24,804.151 1745.64,805.06 1747.05,805.969 1748.45,806.877 1749.86,807.786 1751.27,808.695 1752.67,809.604 1754.08,810.512 1755.49,811.421 1756.9,812.33 1758.31,813.239 1759.72,814.147 1761.13,815.056 1762.55,815.965 1763.96,816.873 1765.38,817.782 1766.79,818.69 1768.21,819.599 1769.63,820.508 1771.05,821.416 1772.47,822.325 1773.89,823.233 1775.31,824.142 1776.73,825.05 1778.16,825.958 1779.58,826.867 1781.01,827.775 1782.44,828.683 1783.87,829.592 1785.3,830.5 1786.73,831.408 1788.17,832.316 1789.6,833.225 1791.04,834.133 1792.48,835.041 1793.92,835.949 1795.37,836.857 1796.81,837.765 1798.26,838.673 1799.7,839.581 1801.15,840.489 1802.61,841.397 1804.06,842.304 1805.52,843.212 1806.98,844.12 1808.44,845.027 1809.9,845.935 1811.37,846.843 1812.83,847.75 1814.3,848.658 1815.78,849.565 1817.25,850.472 1818.73,851.38 1820.21,852.287 1821.7,853.194 1823.18,854.101 1824.67,855.008 1826.17,855.915 1827.66,856.822 1829.16,857.729 1830.67,858.635 1832.17,859.542 1833.68,860.449 1835.2,861.355 1836.72,862.262 1838.24,863.168 1839.76,864.074 1841.29,864.98 1842.83,865.886 1844.37,866.792 1845.91,867.698 1847.46,868.604 1849.02,869.509 1850.58,870.415 1852.14,871.32 1853.71,872.225 1855.29,873.13 1856.87,874.035 1858.46,874.94 1860.05,875.845 1861.65,876.749 1863.26,877.654 1864.88,878.558 1866.5,879.462 1868.13,880.366 1869.77,881.269 1871.42,882.173 1873.07,883.076 1874.74,883.979 1876.41,884.882 1878.1,885.784 1879.79,886.687 1881.5,887.589 1883.21,888.49 1884.94,889.392 1886.69,890.293 1888.44,891.194 1890.21,892.094 1891.99,892.994 1893.79,893.893 1895.61,894.793 1897.44,895.691 1899.29,896.59 1901.16,897.487 1903.05,898.384 1904.97,899.281 1906.91,900.176 1908.87,901.071 1910.86,901.966 1912.88,902.859 1914.94,903.751 1917.03,904.642 1919.16,905.532 1921.34,906.421 1923.56,907.308 1925.83,908.193 1928.17,909.076 1930.58,909.957 1933.06,910.835 1935.64,911.709 1938.33,912.578 1941.16,913.443 1944.15,914.299 1947.36,915.145 1950.87,915.975 1954.82,916.779 1959.49,917.529 1965.56,918.123 1973.21,918.095 1978.48,917.41 1981.92,916.577 1984.49,915.703 1986.55,914.811 1988.28,913.909 1989.76,913.002 1991.05,912.091 1992.2,911.178 1993.23,910.262 1994.15,909.345 1994.99,908.427 1995.74,907.508 1996.44,906.589 1997.07,905.669 1997.65,904.748 1998.18,903.827 1998.67,902.906 1999.12,901.984 1999.53,901.062 1999.91,900.14 2000.25,899.218 2000.57,898.295 2000.85,897.373 2001.12,896.45 2001.35,895.528 2001.57,894.605 2001.76,893.682 2001.94,892.759 2002.09,891.837 2002.22,890.914 2002.34,889.991 2002.44,889.068 2002.52,888.145 2002.59,887.222 2002.64,886.299 2002.68,885.376 2002.71,884.453 2002.72,883.53 2002.71,882.606 2002.7,881.683 2002.67,880.76 2002.64,879.837 2002.59,878.914 2002.53,877.991 2002.46,877.068 2002.37,876.145 2002.28,875.222 2002.18,874.299 2002.07,873.376 2001.95,872.453 2001.82,871.53 2001.68,870.607 2001.54,869.685 2001.38,868.762 2001.22,867.839 2001.05,866.916 2000.87,865.993 2000.68,865.07 2000.48,864.148 2000.28,863.225 2000.07,862.302 1999.86,861.379 1999.63,860.457 1999.4,859.534 1999.17,858.611 1998.92,857.689 1998.67,856.766 1998.41,855.843 1998.15,854.921 1997.88,853.998 1997.61,853.076 1997.32,852.153 1997.04,851.231 1996.74,850.308 1996.44,849.386 1996.14,848.464 1995.83,847.541 1995.51,846.619 1995.19,845.697 1994.86,844.774 1994.53,843.852 1994.2,842.93 1993.85,842.008 1993.5,841.085 1993.15,840.163 1992.79,839.241 1992.43,838.319 1992.06,837.397 1991.69,836.475 1991.31,835.553 1990.93,834.631 1990.54,833.709 1990.15,832.787 1989.75,831.865 1989.35,830.943 1988.95,830.021 1988.54,829.099 1988.12,828.178 1987.7,827.256 1987.28,826.334 1986.85,825.412 1986.42,824.491 1985.98,823.569 1985.54,822.647 1985.1,821.726 1984.65,820.804 1984.2,819.882 1983.74,818.961 1983.28,818.039 1982.81,817.118 1982.34,816.196 1981.87,815.275 1981.39,814.353 1980.91,813.432 1980.43,812.511 1979.94,811.589 1979.44,810.668 1978.95,809.747 1978.45,808.825 1977.94,807.904 1977.43,806.983 1976.92,806.062 1976.41,805.141 1975.89,804.22 1975.36,803.298 1974.84,802.377 1974.31,801.456 1973.77,800.535 1973.23,799.614 1972.69,798.693 1972.15,797.773 1971.6,796.852 1971.05,795.931 1970.49,795.01 1969.93,794.089 1969.37,793.168 1968.8,792.248 1968.23,791.327 1967.66,790.406 1967.08,789.485 1966.5,788.565 1965.92,787.644 1965.33,786.724 1964.74,785.803 1964.14,784.883 1963.55,783.962 1962.95,783.042 1962.34,782.121 1961.73,781.201 1961.12,780.28 1960.51,779.36 1959.89,778.44 1959.27,777.519 1958.65,776.599 1958.02,775.679 1957.39,774.759 1956.76,773.838 1956.12,772.918 1955.48,771.998 1954.83,771.078 1954.19,770.158 1953.54,769.238 1952.88,768.318 1952.23,767.398 1951.57,766.478 1950.9,765.558 1950.24,764.638 1949.57,763.719 1948.9,762.799 1948.22,761.879 1947.54,760.959 1946.86,760.04 1946.17,759.12 1945.49,758.2 1944.79,757.281 1944.1,756.361 1943.4,755.441 1942.7,754.522 1942,753.602 1941.29,752.683 1940.58,751.763 1939.87,750.844 1939.15,749.925 1938.43,749.005 1937.71,748.086 1936.98,747.167 1936.25,746.247 1935.52,745.328 1934.79,744.409 1934.05,743.49 1933.31,742.571 1932.56,741.652 1931.82,740.733 1931.07,739.814 1930.31,738.895 1929.56,737.976 1928.8,737.057 1928.04,736.138 1927.27,735.219 1926.5,734.3 1925.73,733.381 1924.96,732.463 1924.18,731.544 1923.4,730.625 1922.61,729.707 1921.83,728.788 1921.04,727.869 1920.24,726.951 1919.45,726.032 1918.65,725.114 1917.85,724.196 1917.04,723.277 1916.24,722.359 1915.43,721.44 1914.61,720.522 1913.79,719.604 1912.98,718.686 1912.15,717.767 1911.33,716.849 1910.5,715.931 1909.67,715.013 1908.83,714.095 1907.99,713.177 1907.15,712.259 1906.31,711.341 1905.46,710.423 1904.61,709.505 1903.76,708.587 1902.9,707.67 1902.05,706.752 1901.18,705.834 1900.32,704.916 1899.45,703.999 1898.58,703.081 1897.71,702.164 1896.83,701.246 1895.95,700.329 1895.07,699.411 1894.18,698.494 1893.3,697.576 1892.4,696.659 1891.51,695.742 1890.61,694.824 1889.71,693.907 1888.81,692.99 1887.9,692.073 1886.99,691.156 1886.08,690.239 1885.16,689.322 1884.25,688.405 1883.32,687.488 1882.4,686.571 1881.47,685.654 1880.54,684.737 1879.61,683.82 1878.67,682.903 1877.73,681.987 1876.79,681.07 1875.84,680.153 1874.9,679.237 1873.95,678.32 1872.99,677.404 1872.03,676.487 1871.07,675.571 1870.11,674.654 1869.14,673.738 1868.17,672.822 1867.2,671.906 1866.23,670.989 1865.25,670.073 1864.27,669.157 1863.28,668.241 1862.29,667.325 1861.3,666.409 1860.31,665.493 1859.31,664.577 1858.31,663.661 1857.31,662.745 1856.3,661.829 1855.3,660.914 1854.28,659.998 1853.27,659.082 1852.25,658.167 1851.23,657.251 1850.21,656.336 1849.18,655.42 1848.15,654.505 1847.12,653.589 1846.08,652.674 1845.04,651.759 1844,650.844 1842.95,649.928 1841.9,649.013 1840.85,648.098 1839.8,647.183 1838.74,646.268 1837.68,645.353 1836.62,644.438 1835.55,643.523 1834.48,642.608 1833.41,641.694 1832.33,640.779 1831.25,639.864 1830.17,638.95 1829.08,638.035 1827.99,637.12 1826.9,636.206 1825.81,635.292 1824.71,634.377 1823.61,633.463 1822.51,632.549 1821.4,631.634 1820.29,630.72 1819.17,629.806 1818.06,628.892 1816.94,627.978 1815.82,627.064 1814.69,626.15 1813.56,625.236 1812.43,624.322 1811.29,623.408 1810.15,622.495 1809.01,621.581 1807.87,620.667 1806.72,619.754 1805.57,618.84 1804.41,617.927 1803.26,617.013 1802.1,616.1 1800.93,615.187 1799.77,614.274 1798.59,613.36 1797.42,612.447 1796.24,611.534 1795.06,610.621 1793.88,609.708 1792.7,608.795 1791.51,607.882 1790.31,606.969 1789.12,606.057 1787.92,605.144 1786.72,604.231 1785.51,603.319 1784.3,602.406 1783.09,601.494 1781.87,600.581 1780.66,599.669 1779.43,598.757 1778.21,597.844 1776.98,596.932 1775.75,596.02 1774.51,595.108 1773.28,594.196 1772.03,593.284 1770.79,592.372 1769.54,591.46 1768.29,590.549 1767.04,589.637 1765.78,588.725 1764.52,587.814 1763.25,586.902 1761.98,585.991 1760.71,585.079 1759.44,584.168 1758.16,583.256 1756.88,582.345 1755.59,581.434 1754.31,580.523 1753.02,579.612 1751.72,578.701 1750.42,577.79 1749.12,576.879 1747.82,575.968 1746.51,575.058 1745.2,574.147 1743.88,573.236 1742.57,572.326 1741.24,571.415 1739.92,570.505 1738.59,569.595 1737.26,568.684 1735.92,567.774 1734.58,566.864 1733.24,565.954 1731.9,565.044 1730.55,564.134 1729.2,563.224 1727.84,562.314 1726.48,561.405 1725.12,560.495 1723.75,559.585 1722.38,558.676 1721.01,557.766 1719.63,556.857 1718.25,555.948 1716.87,555.038 1715.48,554.129 1714.09,553.22 1712.7,552.311 1711.3,551.402 1709.9,550.493 1708.49,549.584 1707.09,548.676 1705.67,547.767 1704.26,546.858 1702.84,545.95 1701.42,545.041 1699.99,544.133 1698.56,543.225 1697.13,542.316 1695.69,541.408 1694.25,540.5 1692.81,539.592 1691.36,538.684 1689.91,537.776 1688.46,536.869 1687,535.961 1685.53,535.053 1684.07,534.146 1682.6,533.238 1681.13,532.331 1679.65,531.424 1678.17,530.516 1676.69,529.609 1675.2,528.702 1673.71,527.795 1672.21,526.888 1670.71,525.981 1669.21,525.075 1667.71,524.168 1666.2,523.261 1664.68,522.355 "/>
<polyline clip-path="url(#clip291)" style="stroke:#3da44d; stroke-linecap:round; stroke-linejoin:round; stroke-width:4; stroke-opacity:1; fill:none" points="1775.69,522.355 1773.09,520.78 1770.48,519.205 1767.85,517.63 1765.22,516.056 1762.58,514.482 1759.93,512.908 1757.27,511.334 1754.6,509.761 1751.92,508.187 1749.23,506.614 1746.53,505.041 1743.82,503.469 1741.1,501.896 1738.37,500.324 1735.63,498.752 1732.89,497.18 1730.13,495.609 1727.36,494.037 1724.58,492.466 1721.79,490.895 1719,489.325 1716.19,487.754 1713.37,486.184 1710.54,484.614 1707.71,483.045 1704.86,481.475 1702,479.906 1699.13,478.337 1696.25,476.768 1693.36,475.2 1690.46,473.632 1687.56,472.064 1684.64,470.496 1681.71,468.929 1678.77,467.361 1675.81,465.795 1672.85,464.228 1669.88,462.662 1666.9,461.095 1663.91,459.53 1660.9,457.964 1657.89,456.399 1654.86,454.834 1651.83,453.269 1648.78,451.704 1645.72,450.14 1642.66,448.576 1639.58,447.013 1636.49,445.449 1633.39,443.886 1630.28,442.323 1627.16,440.761 1624.02,439.199 1620.88,437.637 1617.72,436.075 1614.56,434.514 1611.38,432.953 1608.19,431.392 1604.99,429.831 1601.78,428.271 1598.56,426.711 1595.32,425.152 1592.08,423.593 1588.82,422.034 1585.55,420.475 1582.27,418.917 1578.98,417.359 1575.68,415.801 1572.37,414.244 1569.04,412.687 1565.71,411.131 1562.36,409.574 1559,408.018 1555.62,406.463 1552.24,404.907 1548.84,403.352 1545.44,401.798 1542.02,400.243 1538.59,398.69 1535.14,397.136 1531.69,395.583 1528.22,394.03 1524.74,392.477 1521.25,390.925 1517.75,389.373 1514.23,387.822 1510.7,386.271 1507.16,384.72 1503.61,383.17 1500.04,381.62 1496.47,380.07 1492.88,378.521 1489.27,376.972 1485.66,375.424 1482.03,373.876 1478.39,372.328 1474.74,370.781 1471.07,369.234 1467.39,367.688 1463.7,366.142 1460,364.596 1456.28,363.051 1452.55,361.506 1448.81,359.962 1445.05,358.418 1441.29,356.874 1437.5,355.331 1433.71,353.788 1429.9,352.246 1426.08,350.704 1422.25,349.163 1418.4,347.622 1414.54,346.081 1410.66,344.541 1406.77,343.001 1402.87,341.462 1398.96,339.924 1395.03,338.385 1391.09,336.847 1387.13,335.31 1383.16,333.773 1379.18,332.237 1375.18,330.701 1371.17,329.165 1367.14,327.63 1363.1,326.096 1359.05,324.562 1354.98,323.028 1350.9,321.495 1346.81,319.963 1342.7,318.431 1338.57,316.899 1334.43,315.368 1330.28,313.838 1326.11,312.308 1321.93,310.778 1317.73,309.25 1313.52,307.721 1309.3,306.193 1305.06,304.666 1300.8,303.139 1296.53,301.613 1292.24,300.088 1287.94,298.562 1283.63,297.038 1279.3,295.514 1274.95,293.991 1270.59,292.468 1266.22,290.946 1261.82,289.424 1257.42,287.903 1252.99,286.382 1248.56,284.862 1244.1,283.343 1239.63,281.825 1235.15,280.307 1230.65,278.789 1226.13,277.272 1221.6,275.756 1217.05,274.241 1212.48,272.726 1207.9,271.212 1203.3,269.698 1198.69,268.185 1194.06,266.673 1189.41,265.161 1184.75,263.65 1180.07,262.14 1175.37,260.631 1170.66,259.122 1165.92,257.613 1161.18,256.106 1156.41,254.599 1151.63,253.093 1146.83,251.588 1142.01,250.083 1137.18,248.58 1132.33,247.077 1127.46,245.574 1122.57,244.073 1117.67,242.572 1112.75,241.072 1107.81,239.573 1102.85,238.074 1097.87,236.576 1092.88,235.08 1087.86,233.584 1082.83,232.088 1077.78,230.594 1072.71,229.1 1067.62,227.608 1062.52,226.116 1057.39,224.625 1052.24,223.135 1047.08,221.646 1041.89,220.157 1036.69,218.67 1031.47,217.183 1026.22,215.698 1020.96,214.213 1015.68,212.729 1010.37,211.247 1005.05,209.765 999.703,208.284 994.338,206.804 988.951,205.325 983.544,203.848 978.115,202.371 972.665,200.895 967.194,199.421 961.7,197.947 956.185,196.474 950.648,195.003 945.088,193.533 939.506,192.063 933.902,190.595 928.274,189.129 922.623,187.663 916.949,186.198 911.252,184.735 905.531,183.273 899.785,181.812 894.016,180.352 888.222,178.894 882.403,177.437 876.559,175.981 870.69,174.527 864.796,173.074 858.875,171.623 852.928,170.172 846.955,168.724 840.955,167.276 834.928,165.831 828.873,164.386 822.79,162.944 816.679,161.503 810.539,160.063 804.37,158.625 798.171,157.189 791.943,155.755 785.684,154.322 779.394,152.891 773.072,151.462 766.719,150.035 760.333,148.61 753.913,147.186 747.46,145.765 740.973,144.346 734.45,142.929 727.892,141.514 721.297,140.101 714.665,138.691 707.994,137.283 701.284,135.878 694.535,134.475 687.744,133.074 680.911,131.677 674.035,130.282 667.114,128.89 660.148,127.501 653.134,126.116 646.072,124.733 638.96,123.354 631.795,121.978 624.578,120.607 617.304,119.239 609.972,117.875 602.58,116.516 595.126,115.161 587.605,113.81 580.016,112.465 572.355,111.126 564.618,109.792 556.8,108.464 548.898,107.143 540.906,105.829 532.818,104.523 524.626,103.226 516.325,101.938 507.903,100.66 499.352,99.3931 490.659,98.1395 481.81,96.9004 472.786,95.678 463.568,94.475 454.128,93.2949 444.435,92.1423 434.447,91.0235 424.108,89.9476 413.347,88.9282 402.063,87.9866 390.124,87.1593 377.372,86.5142 363.764,86.1857 350.049,86.4019 338.51,87.2792 330.439,88.5798 325.078,90.0577 321.51,91.6068 319.157,93.1866 317.672,94.7805 316.838,96.3807 316.512,97.9834 316.594,99.5866 317.012,101.189 317.711,102.79 318.65,104.39 319.797,105.988 321.125,107.583 322.613,109.177 324.242,110.77 325.999,112.36 327.871,113.949 329.846,115.536 331.916,117.121 334.073,118.705 336.309,120.288 338.618,121.869 340.994,123.449 343.433,125.027 345.931,126.604 348.482,128.18 351.084,129.756 353.733,131.33 356.427,132.903 359.162,134.475 361.936,136.046 364.747,137.616 367.593,139.186 370.471,140.754 373.38,142.322 376.318,143.889 379.284,145.456 382.276,147.022 385.293,148.587 388.333,150.152 391.396,151.716 394.48,153.279 397.584,154.842 400.707,156.405 403.849,157.967 407.007,159.528 410.183,161.09 413.374,162.65 416.579,164.21 419.8,165.77 423.033,167.33 426.28,168.889 429.539,170.448 432.81,172.006 436.092,173.565 439.385,175.122 442.687,176.68 446,178.237 449.322,179.794 452.652,181.351 455.991,182.908 459.338,184.464 462.693,186.02 466.054,187.576 469.423,189.132 472.798,190.688 476.179,192.243 479.566,193.798 482.959,195.353 486.357,196.908 489.76,198.463 493.168,200.017 496.58,201.572 499.996,203.126 503.417,204.68 506.841,206.235 510.268,207.789 513.699,209.343 517.133,210.896 520.57,212.45 524.009,214.004 527.451,215.558 530.895,217.111 534.342,218.665 537.79,220.218 541.24,221.771 544.692,223.325 548.145,224.878 551.599,226.431 555.054,227.984 558.511,229.538 561.968,231.091 565.426,232.644 568.885,234.197 572.344,235.75 575.803,237.303 579.263,238.856 582.723,240.409 586.182,241.963 589.642,243.516 593.101,245.069 596.56,246.622 600.019,248.175 603.476,249.728 606.934,251.281 610.39,252.835 613.846,254.388 617.301,255.941 620.754,257.494 624.207,259.048 627.658,260.601 631.108,262.154 634.557,263.708 638.004,265.261 641.45,266.815 644.894,268.368 648.337,269.922 651.778,271.475 655.217,273.029 658.654,274.583 662.089,276.137 665.523,277.691 668.954,279.245 672.383,280.799 675.81,282.353 679.235,283.907 682.657,285.461 686.077,287.015 689.495,288.569 692.91,290.124 696.323,291.678 699.733,293.233 703.14,294.787 706.545,296.342 709.948,297.897 713.347,299.452 716.744,301.007 720.138,302.562 723.529,304.117 726.917,305.672 730.302,307.227 733.684,308.783 737.063,310.338 740.439,311.894 743.812,313.449 747.182,315.005 750.548,316.561 753.912,318.117 757.272,319.673 760.629,321.229 763.982,322.785 767.332,324.341 770.679,325.897 774.022,327.454 777.362,329.01 780.699,330.567 784.032,332.124 787.361,333.681 790.687,335.238 794.009,336.795 797.328,338.352 800.643,339.909 803.954,341.467 807.262,343.024 810.566,344.582 813.866,346.139 817.162,347.697 820.455,349.255 823.744,350.813 827.029,352.371 830.31,353.929 833.587,355.487 836.861,357.046 840.13,358.604 843.396,360.163 846.657,361.722 849.915,363.281 853.169,364.84 856.418,366.399 859.664,367.958 862.906,369.517 866.143,371.077 869.377,372.636 872.606,374.196 875.832,375.756 879.053,377.315 882.27,378.875 885.483,380.435 888.692,381.996 891.896,383.556 895.097,385.116 898.293,386.677 901.485,388.238 904.673,389.798 907.856,391.359 911.036,392.92 914.211,394.481 917.382,396.043 920.548,397.604 923.71,399.165 926.868,400.727 930.022,402.289 933.171,403.85 936.316,405.412 939.457,406.974 942.593,408.536 945.725,410.099 948.853,411.661 951.976,413.224 955.095,414.786 958.209,416.349 961.319,417.912 964.425,419.475 967.526,421.038 970.623,422.601 973.715,424.164 976.803,425.728 979.886,427.291 982.965,428.855 986.04,430.419 989.11,431.982 992.175,433.546 995.237,435.111 998.293,436.675 1001.35,438.239 1004.39,439.804 1007.44,441.368 1010.48,442.933 1013.51,444.498 1016.54,446.063 1019.56,447.628 1022.58,449.193 1025.6,450.758 1028.61,452.323 1031.62,453.889 1034.62,455.455 1037.62,457.02 1040.61,458.586 1043.6,460.152 1046.59,461.718 1049.57,463.284 1052.54,464.851 1055.51,466.417 1058.48,467.984 1061.44,469.55 1064.4,471.117 1067.35,472.684 1070.3,474.251 1073.24,475.818 1076.18,477.385 1079.12,478.952 1082.05,480.52 1084.97,482.087 1087.89,483.655 1090.81,485.223 1093.72,486.791 1096.63,488.359 1099.53,489.927 1102.43,491.495 1105.32,493.063 1108.21,494.632 1111.09,496.2 1113.97,497.769 1116.85,499.338 1119.72,500.907 1122.58,502.476 1125.44,504.045 1128.3,505.614 1131.15,507.183 1134,508.753 1136.84,510.322 1139.68,511.892 1142.52,513.462 1145.35,515.032 1148.17,516.602 1150.99,518.172 1153.81,519.742 1156.62,521.312 1159.42,522.883 1162.23,524.453 1165.02,526.024 1167.82,527.594 1170.6,529.165 1173.39,530.736 1176.17,532.307 1178.94,533.878 1181.71,535.45 1184.48,537.021 1187.24,538.592 1190,540.164 1192.75,541.736 1195.49,543.308 1198.24,544.879 1200.98,546.451 1203.71,548.024 1206.44,549.596 1209.16,551.168 1211.88,552.74 1214.6,554.313 1217.31,555.886 1220.02,557.458 1222.72,559.031 1225.42,560.604 1228.11,562.177 1230.8,563.75 1233.49,565.323 1236.16,566.897 1238.84,568.47 1241.51,570.044 1244.18,571.617 1246.84,573.191 1249.5,574.765 1252.15,576.339 1254.8,577.913 1257.44,579.487 1260.08,581.061 1262.72,582.636 1265.35,584.21 1267.97,585.785 1270.6,587.359 1273.21,588.934 1275.83,590.509 1278.44,592.084 1281.04,593.659 1283.64,595.234 1286.24,596.809 1288.83,598.384 1291.41,599.96 1293.99,601.535 1296.57,603.111 1299.15,604.686 1301.71,606.262 1304.28,607.838 1306.84,609.414 1309.4,610.99 1311.95,612.566 1314.49,614.142 1317.04,615.719 1319.58,617.295 1322.11,618.872 1324.64,620.448 1327.17,622.025 1329.69,623.602 1332.2,625.179 1334.72,626.756 1337.22,628.333 1339.73,629.91 1342.23,631.487 1344.72,633.065 1347.21,634.642 1349.7,636.219 1352.18,637.797 1354.66,639.375 1357.13,640.953 1359.6,642.53 1362.07,644.108 1364.53,645.686 1366.99,647.265 1369.44,648.843 1371.89,650.421 1374.33,651.999 1376.77,653.578 1379.21,655.157 1381.64,656.735 1384.07,658.314 1386.49,659.893 1388.91,661.472 1391.32,663.051 1393.73,664.63 1396.14,666.209 1398.54,667.788 1400.94,669.367 1403.33,670.947 1405.72,672.526 1408.11,674.106 1410.49,675.686 1412.87,677.265 1415.24,678.845 1417.61,680.425 1419.98,682.005 1422.34,683.585 1424.69,685.165 1427.05,686.746 1429.39,688.326 1431.74,689.906 1434.08,691.487 1436.41,693.067 1438.75,694.648 1441.08,696.229 1443.4,697.809 1445.72,699.39 1448.04,700.971 1450.35,702.552 1452.66,704.133 1454.96,705.715 1457.26,707.296 1459.56,708.877 1461.85,710.459 1464.14,712.04 1466.42,713.622 1468.7,715.203 1470.98,716.785 1473.25,718.367 1475.52,719.949 1477.78,721.531 1480.04,723.113 1482.3,724.695 1484.55,726.277 1486.8,727.859 1489.04,729.441 1491.28,731.024 1493.52,732.606 1495.75,734.189 1497.98,735.771 1500.21,737.354 1502.43,738.937 1504.64,740.52 1506.86,742.102 1509.07,743.685 1511.27,745.268 1513.47,746.852 1515.67,748.435 1517.87,750.018 1520.06,751.601 1522.24,753.185 1524.43,754.768 1526.61,756.352 1528.78,757.935 1530.95,759.519 1533.12,761.103 1535.28,762.686 1537.44,764.27 1539.6,765.854 1541.75,767.438 1543.9,769.022 1546.05,770.606 1548.19,772.191 1550.33,773.775 1552.46,775.359 1554.59,776.943 1556.72,778.528 1558.84,780.112 1560.96,781.697 1563.07,783.282 1565.19,784.866 1567.29,786.451 1569.4,788.036 1571.5,789.621 1573.6,791.206 1575.69,792.791 1577.78,794.376 1579.87,795.961 1581.95,797.546 1584.03,799.132 1586.11,800.717 1588.18,802.303 1590.25,803.888 1592.31,805.474 1594.37,807.059 1596.43,808.645 1598.49,810.231 1600.54,811.816 1602.58,813.402 1604.63,814.988 1606.67,816.574 1608.7,818.16 1610.74,819.746 1612.77,821.332 1614.79,822.918 1616.82,824.505 1618.84,826.091 1620.85,827.677 1622.86,829.264 1624.87,830.85 1626.88,832.437 1628.88,834.023 1630.88,835.61 1632.88,837.197 1634.87,838.784 1636.86,840.37 1638.84,841.957 1640.82,843.544 1642.8,845.131 1644.78,846.718 1646.75,848.305 1648.72,849.893 1650.68,851.48 1652.64,853.067 1654.6,854.654 1656.56,856.242 1658.51,857.829 1660.46,859.417 1662.4,861.004 1664.34,862.592 1666.28,864.179 1668.22,865.767 1670.15,867.355 1672.08,868.943 1674.01,870.53 1675.93,872.118 1677.85,873.706 1679.76,875.294 1681.68,876.882 1683.59,878.47 1685.49,880.059 1687.4,881.647 1689.3,883.235 1691.19,884.823 1693.09,886.412 1694.98,888 1696.86,889.589 1698.75,891.177 1700.63,892.766 1702.51,894.354 1704.38,895.943 1706.26,897.532 1708.12,899.12 1709.99,900.709 1711.85,902.298 1713.71,903.887 1715.57,905.476 1717.42,907.065 1719.27,908.654 1721.12,910.243 1722.97,911.832 1724.81,913.421 1726.65,915.01 1728.48,916.6 1730.31,918.189 1732.14,919.778 1733.97,921.368 1735.79,922.957 1737.62,924.547 1739.43,926.136 1741.25,927.726 1743.06,929.315 1744.87,930.905 1746.68,932.495 1748.48,934.085 1750.28,935.674 1752.08,937.264 1753.87,938.854 1755.66,940.444 1757.45,942.034 1759.24,943.624 1761.02,945.214 1762.8,946.804 1764.58,948.394 1766.36,949.984 1768.13,951.575 1769.9,953.165 1771.66,954.755 1773.43,956.345 1775.19,957.936 1776.95,959.526 1778.7,961.117 1780.46,962.707 1782.21,964.298 1783.95,965.888 1785.7,967.479 1787.44,969.07 1789.18,970.66 1790.92,972.251 1792.65,973.842 1794.38,975.433 1796.11,977.023 1797.84,978.614 1799.56,980.205 1801.28,981.796 1803,983.387 1804.72,984.978 1806.43,986.569 1808.14,988.16 1809.85,989.751 1811.56,991.343 1813.26,992.934 1814.96,994.525 1816.66,996.116 1818.35,997.708 1820.05,999.299 1821.74,1000.89 1823.43,1002.48 1825.11,1004.07 1826.79,1005.66 1828.48,1007.26 1830.15,1008.85 1831.83,1010.44 1833.5,1012.03 1835.17,1013.62 1836.84,1015.21 1838.51,1016.81 1840.17,1018.4 1841.84,1019.99 1843.49,1021.58 1845.15,1023.17 1846.81,1024.77 1848.46,1026.36 1850.11,1027.95 1851.76,1029.54 1853.4,1031.13 1855.05,1032.73 1856.69,1034.32 1858.33,1035.91 1859.96,1037.5 1861.6,1039.09 1863.23,1040.69 1864.86,1042.28 1866.49,1043.87 1868.11,1045.46 1869.74,1047.05 1871.36,1048.65 1872.98,1050.24 1874.59,1051.83 1876.21,1053.42 1877.82,1055.02 1879.43,1056.61 1881.04,1058.2 1882.65,1059.79 1884.25,1061.39 1885.85,1062.98 1887.45,1064.57 1889.05,1066.16 1890.65,1067.76 1892.24,1069.35 1893.84,1070.94 1895.43,1072.54 1897.02,1074.13 1898.6,1075.72 1900.19,1077.31 1901.77,1078.91 1903.35,1080.5 1904.93,1082.09 1906.51,1083.69 1908.08,1085.28 1909.66,1086.87 1911.23,1088.46 1912.8,1090.06 1914.37,1091.65 1915.93,1093.24 1917.5,1094.84 1919.06,1096.43 1920.62,1098.02 1922.18,1099.62 1923.74,1101.21 1925.3,1102.8 1926.85,1104.4 1928.4,1105.99 1929.95,1107.58 1931.5,1109.18 1933.05,1110.77 1934.6,1112.36 1936.14,1113.96 1937.68,1115.55 1939.23,1117.14 1940.77,1118.74 1942.31,1120.33 1943.84,1121.92 1945.38,1123.52 1946.91,1125.11 1948.44,1126.7 1949.98,1128.3 1951.51,1129.89 1953.03,1131.48 1954.56,1133.08 1956.09,1134.67 1957.61,1136.26 1959.13,1137.86 1960.66,1139.45 1962.18,1141.04 1963.7,1142.64 1965.21,1144.23 1966.73,1145.83 1968.25,1147.42 1969.76,1149.01 1971.27,1150.61 1972.79,1152.2 1974.3,1153.79 1975.81,1155.39 1977.32,1156.98 1978.83,1158.58 1980.33,1160.17 1981.84,1161.76 1983.34,1163.36 1984.85,1164.95 1986.35,1166.55 1987.85,1168.14 1989.35,1169.73 1990.85,1171.33 1992.35,1172.92 1993.85,1174.51 1995.35,1176.11 1996.85,1177.7 1998.34,1179.3 1999.84,1180.89 2001.33,1182.48 2002.83,1184.08 2004.32,1185.67 2005.82,1187.27 2007.31,1188.86 2008.8,1190.45 2010.29,1192.05 2011.78,1193.64 2013.28,1195.24 2014.77,1196.83 2016.26,1198.42 2017.75,1200.02 2019.23,1201.61 2020.72,1203.21 2022.21,1204.8 2023.7,1206.39 2025.19,1207.99 2026.68,1209.58 2028.17,1211.18 2029.66,1212.77 2031.14,1214.37 2032.63,1215.96 2034.12,1217.55 2035.61,1219.15 2037.1,1220.74 2038.59,1222.34 2040.08,1223.93 2041.57,1225.52 2043.06,1227.12 2044.55,1228.71 2046.04,1230.31 2047.53,1231.9 2049.02,1233.49 2050.51,1235.09 2052.01,1236.68 2053.5,1238.28 2054.99,1239.87 2056.49,1241.46 2057.99,1243.06 2059.48,1244.65 2060.98,1246.25 2062.48,1247.84 2063.98,1249.43 2065.48,1251.03 2066.98,1252.62 2068.49,1254.21 2069.99,1255.81 2071.5,1257.4 2073.01,1259 2074.52,1260.59 2076.03,1262.18 2077.55,1263.78 2079.06,1265.37 2080.58,1266.96 2082.1,1268.56 2083.62,1270.15 2085.15,1271.75 2086.67,1273.34 2088.2,1274.93 2089.74,1276.53 2091.27,1278.12 2092.81,1279.71 2094.35,1281.31 2095.89,1282.9 2097.44,1284.49 2098.99,1286.09 2100.54,1287.68 2102.1,1289.27 2103.66,1290.87 2105.23,1292.46 2106.8,1294.05 2108.37,1295.65 2109.95,1297.24 2111.53,1298.83 2113.12,1300.42 2114.72,1302.02 2116.31,1303.61 2117.92,1305.2 2119.53,1306.79 2121.14,1308.39 2122.77,1309.98 2124.4,1311.57 2126.03,1313.16 2127.68,1314.76 2129.33,1316.35 2130.99,1317.94 2132.65,1319.53 2134.33,1321.12 2136.01,1322.71 2137.71,1324.31 2139.41,1325.9 2141.13,1327.49 2142.86,1329.08 2144.59,1330.67 2146.34,1332.26 2148.11,1333.85 2149.88,1335.44 2151.68,1337.03 2153.48,1338.62 2155.31,1340.21 2157.15,1341.8 2159.01,1343.39 2160.88,1344.98 2162.78,1346.56 2164.71,1348.15 2166.65,1349.74 2168.62,1351.33 2170.62,1352.91 2172.65,1354.5 2174.71,1356.08 2176.81,1357.67 2178.95,1359.25 2181.13,1360.84 2183.35,1362.42 2185.63,1364 2187.97,1365.58 2190.38,1367.16 2192.86,1368.74 2195.43,1370.31 2198.1,1371.89 2200.89,1373.46 2203.84,1375.03 2206.96,1376.59 2210.33,1378.14 2214.04,1379.69 2218.23,1381.22 2223.26,1382.71 2230.24,1384.1 2241.99,1384.24 2248.57,1382.83 2252.65,1381.3 2255.77,1379.74 2258.34,1378.16 2260.55,1376.58 2262.5,1374.99 2264.24,1373.4 2265.83,1371.81 2267.29,1370.22 2268.63,1368.62 2269.89,1367.02 2271.05,1365.43 2272.15,1363.83 2273.18,1362.23 2274.16,1360.63 2275.08,1359.03 2275.95,1357.43 2276.78,1355.83 2277.58,1354.23 2278.33,1352.63 2279.05,1351.03 2279.74,1349.43 2280.39,1347.82 2281.02,1346.22 2281.62,1344.62 2282.2,1343.02 2282.76,1341.42 2283.29,1339.82 2283.8,1338.21 2284.29,1336.61 2284.76,1335.01 2285.21,1333.41 2285.64,1331.8 2286.06,1330.2 2286.46,1328.6 2286.85,1327 2287.22,1325.39 2287.57,1323.79 2287.91,1322.19 2288.24,1320.59 2288.56,1318.98 2288.86,1317.38 2289.15,1315.78 2289.43,1314.17 2289.69,1312.57 2289.95,1310.97 2290.19,1309.37 2290.42,1307.76 2290.65,1306.16 2290.86,1304.56 2291.06,1302.95 2291.26,1301.35 2291.44,1299.75 2291.61,1298.14 2291.78,1296.54 2291.93,1294.94 2292.08,1293.33 2292.22,1291.73 2292.35,1290.13 2292.48,1288.53 2292.59,1286.92 2292.7,1285.32 2292.8,1283.72 2292.89,1282.11 2292.97,1280.51 2293.05,1278.91 2293.12,1277.3 2293.18,1275.7 2293.24,1274.1 2293.29,1272.49 2293.33,1270.89 2293.37,1269.29 2293.4,1267.68 2293.42,1266.08 2293.43,1264.48 2293.44,1262.87 2293.45,1261.27 2293.45,1259.67 2293.44,1258.06 2293.42,1256.46 2293.4,1254.86 2293.38,1253.26 2293.34,1251.65 2293.31,1250.05 2293.26,1248.45 2293.21,1246.84 2293.16,1245.24 2293.1,1243.64 2293.03,1242.03 2292.96,1240.43 2292.88,1238.83 2292.8,1237.22 2292.72,1235.62 2292.62,1234.02 2292.53,1232.41 2292.42,1230.81 2292.32,1229.21 2292.2,1227.6 2292.09,1226 2291.96,1224.4 2291.84,1222.79 2291.7,1221.19 2291.57,1219.59 2291.42,1217.99 2291.28,1216.38 2291.13,1214.78 2290.97,1213.18 2290.81,1211.57 2290.64,1209.97 2290.47,1208.37 2290.3,1206.76 2290.12,1205.16 2289.93,1203.56 2289.75,1201.95 2289.55,1200.35 2289.35,1198.75 2289.15,1197.15 2288.94,1195.54 2288.73,1193.94 2288.52,1192.34 2288.3,1190.73 2288.07,1189.13 2287.84,1187.53 2287.61,1185.92 2287.37,1184.32 2287.13,1182.72 2286.89,1181.12 2286.64,1179.51 2286.38,1177.91 2286.12,1176.31 2285.86,1174.7 2285.59,1173.1 2285.32,1171.5 2285.04,1169.89 2284.76,1168.29 2284.48,1166.69 2284.19,1165.09 2283.9,1163.48 2283.6,1161.88 2283.3,1160.28 2283,1158.67 2282.69,1157.07 2282.38,1155.47 2282.06,1153.87 2281.74,1152.26 2281.41,1150.66 2281.08,1149.06 2280.75,1147.46 2280.41,1145.85 2280.07,1144.25 2279.72,1142.65 2279.37,1141.04 2279.02,1139.44 2278.66,1137.84 2278.3,1136.24 2277.93,1134.63 2277.56,1133.03 2277.19,1131.43 2276.81,1129.83 2276.43,1128.22 2276.04,1126.62 2275.65,1125.02 2275.26,1123.42 2274.86,1121.81 2274.46,1120.21 2274.05,1118.61 2273.64,1117.01 2273.23,1115.4 2272.81,1113.8 2272.39,1112.2 2271.97,1110.6 2271.54,1108.99 2271.1,1107.39 2270.66,1105.79 2270.22,1104.19 2269.78,1102.58 2269.33,1100.98 2268.87,1099.38 2268.42,1097.78 2267.96,1096.17 2267.49,1094.57 2267.02,1092.97 2266.55,1091.37 2266.07,1089.76 2265.59,1088.16 2265.1,1086.56 2264.61,1084.96 2264.12,1083.36 2263.62,1081.75 2263.12,1080.15 2262.62,1078.55 2262.11,1076.95 2261.6,1075.35 2261.08,1073.74 2260.56,1072.14 2260.03,1070.54 2259.5,1068.94 2258.97,1067.33 2258.43,1065.73 2257.89,1064.13 2257.35,1062.53 2256.8,1060.93 2256.24,1059.33 2255.69,1057.72 2255.13,1056.12 2254.56,1054.52 2253.99,1052.92 2253.42,1051.32 2252.84,1049.71 2252.26,1048.11 2251.68,1046.51 2251.09,1044.91 2250.49,1043.31 2249.9,1041.7 2249.29,1040.1 2248.69,1038.5 2248.08,1036.9 2247.47,1035.3 2246.85,1033.7 2246.23,1032.09 2245.6,1030.49 2244.97,1028.89 2244.34,1027.29 2243.7,1025.69 2243.06,1024.09 2242.41,1022.49 2241.76,1020.88 2241.1,1019.28 2240.45,1017.68 2239.78,1016.08 2239.12,1014.48 2238.44,1012.88 2237.77,1011.28 2237.09,1009.67 2236.41,1008.07 2235.72,1006.47 2235.03,1004.87 2234.33,1003.27 2233.63,1001.67 2232.93,1000.07 2232.22,998.466 2231.5,996.865 2230.79,995.264 2230.06,993.663 2229.34,992.062 2228.61,990.461 2227.87,988.86 2227.14,987.259 2226.39,985.658 2225.65,984.057 2224.89,982.456 2224.14,980.855 2223.38,979.254 2222.61,977.654 2221.85,976.053 2221.07,974.452 2220.3,972.851 2219.51,971.251 2218.73,969.65 2217.94,968.049 2217.14,966.449 2216.34,964.848 2215.54,963.248 2214.73,961.647 2213.92,960.047 2213.1,958.446 2212.28,956.846 2211.46,955.245 2210.63,953.645 2209.79,952.045 2208.95,950.444 2208.11,948.844 2207.26,947.244 2206.41,945.644 2205.55,944.044 2204.69,942.443 2203.82,940.843 2202.95,939.243 2202.08,937.643 2201.2,936.043 2200.32,934.443 2199.43,932.843 2198.53,931.243 2197.64,929.643 2196.73,928.044 2195.83,926.444 2194.91,924.844 2194,923.244 2193.08,921.645 2192.15,920.045 2191.22,918.445 2190.29,916.846 2189.35,915.246 2188.4,913.647 2187.45,912.047 2186.5,910.448 2185.54,908.848 2184.58,907.249 2183.61,905.649 2182.63,904.05 2181.66,902.451 2180.67,900.852 2179.69,899.252 2178.7,897.653 2177.7,896.054 2176.7,894.455 2175.69,892.856 2174.68,891.257 2173.66,889.658 2172.64,888.059 2171.61,886.46 2170.58,884.862 2169.55,883.263 2168.51,881.664 2167.46,880.065 2166.41,878.467 2165.35,876.868 2164.29,875.27 2163.23,873.671 2162.16,872.073 2161.08,870.474 2160,868.876 2158.91,867.277 2157.82,865.679 2156.73,864.081 2155.63,862.483 2154.52,860.885 2153.41,859.286 2152.29,857.688 2151.17,856.09 2150.04,854.492 2148.91,852.894 2147.77,851.297 2146.63,849.699 2145.48,848.101 2144.33,846.503 2143.17,844.906 2142.01,843.308 2140.84,841.71 2139.67,840.113 2138.49,838.515 2137.3,836.918 2136.11,835.321 2134.92,833.723 2133.72,832.126 2132.51,830.529 2131.3,828.932 2130.09,827.335 2128.86,825.738 2127.64,824.141 2126.4,822.544 2125.17,820.947 2123.92,819.35 2122.67,817.753 2121.42,816.157 2120.16,814.56 2118.89,812.963 2117.62,811.367 2116.34,809.77 2115.06,808.174 2113.77,806.577 2112.48,804.981 2111.18,803.385 2109.88,801.789 2108.57,800.193 2107.25,798.597 2105.93,797.001 2104.6,795.405 2103.27,793.809 2101.93,792.213 2100.58,790.617 2099.23,789.022 2097.88,787.426 2096.51,785.83 2095.15,784.235 2093.77,782.64 2092.39,781.044 2091.01,779.449 2089.62,777.854 2088.22,776.259 2086.82,774.664 2085.41,773.069 2083.99,771.474 2082.57,769.879 2081.14,768.284 2079.71,766.689 2078.27,765.095 2076.83,763.5 2075.38,761.905 2073.92,760.311 2072.46,758.717 2070.99,757.122 2069.51,755.528 2068.03,753.934 2066.55,752.34 2065.05,750.746 2063.55,749.152 2062.05,747.558 2060.53,745.964 2059.02,744.371 2057.49,742.777 2055.96,741.184 2054.42,739.59 2052.88,737.997 2051.33,736.404 2049.77,734.81 2048.21,733.217 2046.64,731.624 2045.07,730.031 2043.49,728.438 2041.9,726.846 2040.3,725.253 2038.7,723.66 2037.09,722.068 2035.48,720.475 2033.86,718.883 2032.23,717.291 2030.6,715.699 2028.96,714.107 2027.31,712.515 2025.66,710.923 2024,709.331 2022.33,707.739 2020.66,706.147 2018.98,704.556 2017.29,702.964 2015.6,701.373 2013.9,699.782 2012.19,698.191 2010.48,696.6 2008.76,695.009 2007.03,693.418 2005.3,691.827 2003.56,690.236 2001.81,688.646 2000.05,687.055 1998.29,685.465 1996.52,683.875 1994.75,682.285 1992.97,680.695 1991.18,679.105 1989.38,677.515 1987.58,675.925 1985.77,674.335 1983.95,672.746 1982.12,671.156 1980.29,669.567 1978.45,667.978 1976.61,666.389 1974.75,664.8 1972.89,663.211 1971.02,661.622 1969.15,660.033 1967.27,658.445 1965.38,656.857 1963.48,655.268 1961.58,653.68 1959.66,652.092 1957.75,650.504 1955.82,648.916 1953.88,647.328 1951.94,645.741 1949.99,644.153 1948.04,642.566 1946.07,640.979 1944.1,639.392 1942.12,637.805 1940.14,636.218 1938.14,634.631 1936.14,633.044 1934.13,631.458 1932.12,629.872 1930.09,628.285 1928.06,626.699 1926.02,625.113 1923.97,623.528 1921.92,621.942 1919.85,620.356 1917.78,618.771 1915.7,617.186 1913.61,615.6 1911.52,614.015 1909.42,612.43 1907.31,610.846 1905.19,609.261 1903.06,607.677 1900.93,606.092 1898.78,604.508 1896.63,602.924 1894.47,601.34 1892.31,599.757 1890.13,598.173 1887.95,596.589 1885.76,595.006 1883.56,593.423 1881.35,591.84 1879.14,590.257 1876.91,588.675 1874.68,587.092 1872.44,585.51 1870.19,583.927 1867.93,582.345 1865.66,580.763 1863.39,579.182 1861.11,577.6 1858.82,576.019 1856.52,574.437 1854.21,572.856 1851.89,571.275 1849.57,569.695 1847.23,568.114 1844.89,566.534 1842.54,564.953 1840.18,563.373 1837.81,561.793 1835.43,560.214 1833.05,558.634 1830.65,557.055 1828.25,555.475 1825.84,553.896 1823.41,552.318 1820.98,550.739 1818.55,549.16 1816.1,547.582 1813.64,546.004 1811.17,544.426 1808.7,542.848 1806.22,541.271 1803.72,539.693 1801.22,538.116 1798.71,536.539 1796.19,534.962 1793.66,533.386 1791.12,531.809 1788.57,530.233 1786.02,528.657 1783.45,527.081 1780.87,525.505 1778.29,523.93 1775.69,522.355 "/>
</svg>
