<?xml version="1.0" encoding="utf-8"?>
<svg xmlns="http://www.w3.org/2000/svg" xmlns:xlink="http://www.w3.org/1999/xlink" width="600" height="400" viewBox="0 0 2400 1600">
<defs>
  <clipPath id="clip160">
    <rect x="0" y="0" width="2400" height="1600"/>
  </clipPath>
</defs>
<path clip-path="url(#clip160)" d="M0 1600 L2400 1600 L2400 0 L0 0  Z" fill="#ffffff" fill-rule="evenodd" fill-opacity="1"/>
<defs>
  <clipPath id="clip161">
    <rect x="257" y="47" width="2097" height="1377"/>
  </clipPath>
</defs>
<path clip-path="url(#clip160)" d="M257.204 1423.18 L2352.76 1423.18 L2352.76 47.2441 L257.204 47.2441  Z" fill="#ffffff" fill-rule="evenodd" fill-opacity="1"/>
<polyline clip-path="url(#clip161)" style="stroke:#000000; stroke-linecap:round; stroke-linejoin:round; stroke-width:2; stroke-opacity:0.1; fill:none" points="326.452,1423.18 326.452,47.2441 "/>
<polyline clip-path="url(#clip161)" style="stroke:#000000; stroke-linecap:round; stroke-linejoin:round; stroke-width:2; stroke-opacity:0.1; fill:none" points="807.639,1423.18 807.639,47.2441 "/>
<polyline clip-path="url(#clip161)" style="stroke:#000000; stroke-linecap:round; stroke-linejoin:round; stroke-width:2; stroke-opacity:0.1; fill:none" points="1288.83,1423.18 1288.83,47.2441 "/>
<polyline clip-path="url(#clip161)" style="stroke:#000000; stroke-linecap:round; stroke-linejoin:round; stroke-width:2; stroke-opacity:0.1; fill:none" points="1770.01,1423.18 1770.01,47.2441 "/>
<polyline clip-path="url(#clip161)" style="stroke:#000000; stroke-linecap:round; stroke-linejoin:round; stroke-width:2; stroke-opacity:0.1; fill:none" points="2251.2,1423.18 2251.2,47.2441 "/>
<polyline clip-path="url(#clip161)" style="stroke:#000000; stroke-linecap:round; stroke-linejoin:round; stroke-width:2; stroke-opacity:0.1; fill:none" points="257.204,1175.04 2352.76,1175.04 "/>
<polyline clip-path="url(#clip161)" style="stroke:#000000; stroke-linecap:round; stroke-linejoin:round; stroke-width:2; stroke-opacity:0.1; fill:none" points="257.204,898.467 2352.76,898.467 "/>
<polyline clip-path="url(#clip161)" style="stroke:#000000; stroke-linecap:round; stroke-linejoin:round; stroke-width:2; stroke-opacity:0.1; fill:none" points="257.204,621.893 2352.76,621.893 "/>
<polyline clip-path="url(#clip161)" style="stroke:#000000; stroke-linecap:round; stroke-linejoin:round; stroke-width:2; stroke-opacity:0.1; fill:none" points="257.204,345.318 2352.76,345.318 "/>
<polyline clip-path="url(#clip161)" style="stroke:#000000; stroke-linecap:round; stroke-linejoin:round; stroke-width:2; stroke-opacity:0.1; fill:none" points="257.204,68.744 2352.76,68.744 "/>
<polyline clip-path="url(#clip160)" style="stroke:#000000; stroke-linecap:round; stroke-linejoin:round; stroke-width:4; stroke-opacity:1; fill:none" points="257.204,1423.18 2352.76,1423.18 "/>
<polyline clip-path="url(#clip160)" style="stroke:#000000; stroke-linecap:round; stroke-linejoin:round; stroke-width:4; stroke-opacity:1; fill:none" points="326.452,1423.18 326.452,1404.28 "/>
<polyline clip-path="url(#clip160)" style="stroke:#000000; stroke-linecap:round; stroke-linejoin:round; stroke-width:4; stroke-opacity:1; fill:none" points="807.639,1423.18 807.639,1404.28 "/>
<polyline clip-path="url(#clip160)" style="stroke:#000000; stroke-linecap:round; stroke-linejoin:round; stroke-width:4; stroke-opacity:1; fill:none" points="1288.83,1423.18 1288.83,1404.28 "/>
<polyline clip-path="url(#clip160)" style="stroke:#000000; stroke-linecap:round; stroke-linejoin:round; stroke-width:4; stroke-opacity:1; fill:none" points="1770.01,1423.18 1770.01,1404.28 "/>
<polyline clip-path="url(#clip160)" style="stroke:#000000; stroke-linecap:round; stroke-linejoin:round; stroke-width:4; stroke-opacity:1; fill:none" points="2251.2,1423.18 2251.2,1404.28 "/>
<path clip-path="url(#clip160)" d="M303.929 1454.1 Q300.317 1454.1 298.489 1457.66 Q296.683 1461.2 296.683 1468.33 Q296.683 1475.44 298.489 1479.01 Q300.317 1482.55 303.929 1482.55 Q307.563 1482.55 309.368 1479.01 Q311.197 1475.44 311.197 1468.33 Q311.197 1461.2 309.368 1457.66 Q307.563 1454.1 303.929 1454.1 M303.929 1450.39 Q309.739 1450.39 312.794 1455 Q315.873 1459.58 315.873 1468.33 Q315.873 1477.06 312.794 1481.67 Q309.739 1486.25 303.929 1486.25 Q298.118 1486.25 295.04 1481.67 Q291.984 1477.06 291.984 1468.33 Q291.984 1459.58 295.04 1455 Q298.118 1450.39 303.929 1450.39 Z" fill="#000000" fill-rule="nonzero" fill-opacity="1" /><path clip-path="url(#clip160)" d="M324.09 1479.7 L328.975 1479.7 L328.975 1485.58 L324.09 1485.58 L324.09 1479.7 Z" fill="#000000" fill-rule="nonzero" fill-opacity="1" /><path clip-path="url(#clip160)" d="M339.299 1484.86 L339.299 1480.6 Q341.058 1481.44 342.864 1481.88 Q344.669 1482.32 346.405 1482.32 Q351.035 1482.32 353.465 1479.21 Q355.919 1476.09 356.266 1469.75 Q354.924 1471.74 352.863 1472.8 Q350.803 1473.87 348.303 1473.87 Q343.118 1473.87 340.086 1470.74 Q337.077 1467.59 337.077 1462.15 Q337.077 1456.83 340.225 1453.61 Q343.373 1450.39 348.604 1450.39 Q354.6 1450.39 357.748 1455 Q360.919 1459.58 360.919 1468.33 Q360.919 1476.51 357.03 1481.39 Q353.164 1486.25 346.614 1486.25 Q344.854 1486.25 343.049 1485.9 Q341.243 1485.56 339.299 1484.86 M348.604 1470.21 Q351.752 1470.21 353.581 1468.06 Q355.433 1465.9 355.433 1462.15 Q355.433 1458.43 353.581 1456.27 Q351.752 1454.1 348.604 1454.1 Q345.456 1454.1 343.604 1456.27 Q341.776 1458.43 341.776 1462.15 Q341.776 1465.9 343.604 1468.06 Q345.456 1470.21 348.604 1470.21 Z" fill="#000000" fill-rule="nonzero" fill-opacity="1" /><path clip-path="url(#clip160)" d="M774.792 1481.64 L782.431 1481.64 L782.431 1455.28 L774.121 1456.95 L774.121 1452.69 L782.385 1451.02 L787.061 1451.02 L787.061 1481.64 L794.699 1481.64 L794.699 1485.58 L774.792 1485.58 L774.792 1481.64 Z" fill="#000000" fill-rule="nonzero" fill-opacity="1" /><path clip-path="url(#clip160)" d="M804.144 1479.7 L809.028 1479.7 L809.028 1485.58 L804.144 1485.58 L804.144 1479.7 Z" fill="#000000" fill-rule="nonzero" fill-opacity="1" /><path clip-path="url(#clip160)" d="M829.213 1454.1 Q825.602 1454.1 823.773 1457.66 Q821.968 1461.2 821.968 1468.33 Q821.968 1475.44 823.773 1479.01 Q825.602 1482.55 829.213 1482.55 Q832.847 1482.55 834.653 1479.01 Q836.482 1475.44 836.482 1468.33 Q836.482 1461.2 834.653 1457.66 Q832.847 1454.1 829.213 1454.1 M829.213 1450.39 Q835.023 1450.39 838.079 1455 Q841.157 1459.58 841.157 1468.33 Q841.157 1477.06 838.079 1481.67 Q835.023 1486.25 829.213 1486.25 Q823.403 1486.25 820.324 1481.67 Q817.269 1477.06 817.269 1468.33 Q817.269 1459.58 820.324 1455 Q823.403 1450.39 829.213 1450.39 Z" fill="#000000" fill-rule="nonzero" fill-opacity="1" /><path clip-path="url(#clip160)" d="M1256.59 1481.64 L1264.23 1481.64 L1264.23 1455.28 L1255.92 1456.95 L1255.92 1452.69 L1264.19 1451.02 L1268.86 1451.02 L1268.86 1481.64 L1276.5 1481.64 L1276.5 1485.58 L1256.59 1485.58 L1256.59 1481.64 Z" fill="#000000" fill-rule="nonzero" fill-opacity="1" /><path clip-path="url(#clip160)" d="M1285.94 1479.7 L1290.83 1479.7 L1290.83 1485.58 L1285.94 1485.58 L1285.94 1479.7 Z" fill="#000000" fill-rule="nonzero" fill-opacity="1" /><path clip-path="url(#clip160)" d="M1301.82 1481.64 L1309.46 1481.64 L1309.46 1455.28 L1301.15 1456.95 L1301.15 1452.69 L1309.42 1451.02 L1314.09 1451.02 L1314.09 1481.64 L1321.73 1481.64 L1321.73 1485.58 L1301.82 1485.58 L1301.82 1481.64 Z" fill="#000000" fill-rule="nonzero" fill-opacity="1" /><path clip-path="url(#clip160)" d="M1737.97 1481.64 L1745.6 1481.64 L1745.6 1455.28 L1737.29 1456.95 L1737.29 1452.69 L1745.56 1451.02 L1750.23 1451.02 L1750.23 1481.64 L1757.87 1481.64 L1757.87 1485.58 L1737.97 1485.58 L1737.97 1481.64 Z" fill="#000000" fill-rule="nonzero" fill-opacity="1" /><path clip-path="url(#clip160)" d="M1767.32 1479.7 L1772.2 1479.7 L1772.2 1485.58 L1767.32 1485.58 L1767.32 1479.7 Z" fill="#000000" fill-rule="nonzero" fill-opacity="1" /><path clip-path="url(#clip160)" d="M1786.41 1481.64 L1802.73 1481.64 L1802.73 1485.58 L1780.79 1485.58 L1780.79 1481.64 Q1783.45 1478.89 1788.03 1474.26 Q1792.64 1469.61 1793.82 1468.27 Q1796.07 1465.74 1796.95 1464.01 Q1797.85 1462.25 1797.85 1460.56 Q1797.85 1457.8 1795.91 1456.07 Q1793.98 1454.33 1790.88 1454.33 Q1788.68 1454.33 1786.23 1455.09 Q1783.8 1455.86 1781.02 1457.41 L1781.02 1452.69 Q1783.85 1451.55 1786.3 1450.97 Q1788.75 1450.39 1790.79 1450.39 Q1796.16 1450.39 1799.35 1453.08 Q1802.55 1455.77 1802.55 1460.26 Q1802.55 1462.39 1801.74 1464.31 Q1800.95 1466.2 1798.85 1468.8 Q1798.27 1469.47 1795.16 1472.69 Q1792.06 1475.88 1786.41 1481.64 Z" fill="#000000" fill-rule="nonzero" fill-opacity="1" /><path clip-path="url(#clip160)" d="M2218.68 1481.64 L2226.32 1481.64 L2226.32 1455.28 L2218.01 1456.95 L2218.01 1452.69 L2226.27 1451.02 L2230.95 1451.02 L2230.95 1481.64 L2238.59 1481.64 L2238.59 1485.58 L2218.68 1485.58 L2218.68 1481.64 Z" fill="#000000" fill-rule="nonzero" fill-opacity="1" /><path clip-path="url(#clip160)" d="M2248.03 1479.7 L2252.91 1479.7 L2252.91 1485.58 L2248.03 1485.58 L2248.03 1479.7 Z" fill="#000000" fill-rule="nonzero" fill-opacity="1" /><path clip-path="url(#clip160)" d="M2277.27 1466.95 Q2280.62 1467.66 2282.5 1469.93 Q2284.4 1472.2 2284.4 1475.53 Q2284.4 1480.65 2280.88 1483.45 Q2277.36 1486.25 2270.88 1486.25 Q2268.7 1486.25 2266.39 1485.81 Q2264.1 1485.39 2261.64 1484.54 L2261.64 1480.02 Q2263.59 1481.16 2265.9 1481.74 Q2268.22 1482.32 2270.74 1482.32 Q2275.14 1482.32 2277.43 1480.58 Q2279.74 1478.84 2279.74 1475.53 Q2279.74 1472.48 2277.59 1470.77 Q2275.46 1469.03 2271.64 1469.03 L2267.61 1469.03 L2267.61 1465.19 L2271.83 1465.19 Q2275.28 1465.19 2277.1 1463.82 Q2278.93 1462.43 2278.93 1459.84 Q2278.93 1457.18 2277.03 1455.77 Q2275.16 1454.33 2271.64 1454.33 Q2269.72 1454.33 2267.52 1454.75 Q2265.32 1455.16 2262.68 1456.04 L2262.68 1451.88 Q2265.35 1451.14 2267.66 1450.77 Q2270 1450.39 2272.06 1450.39 Q2277.38 1450.39 2280.48 1452.83 Q2283.59 1455.23 2283.59 1459.35 Q2283.59 1462.22 2281.94 1464.21 Q2280.3 1466.18 2277.27 1466.95 Z" fill="#000000" fill-rule="nonzero" fill-opacity="1" /><path clip-path="url(#clip160)" d="M1302.04 1545.45 L1281.76 1545.45 Q1282.24 1554.96 1284.43 1559 Q1287.17 1563.97 1291.91 1563.97 Q1296.69 1563.97 1299.33 1558.97 Q1301.65 1554.58 1302.04 1545.45 M1301.94 1540.03 Q1301.05 1531 1299.33 1527.81 Q1296.59 1522.78 1291.91 1522.78 Q1287.04 1522.78 1284.47 1527.75 Q1282.43 1531.76 1281.82 1540.03 L1301.94 1540.03 M1291.91 1518.01 Q1299.55 1518.01 1303.91 1524.76 Q1308.27 1531.47 1308.27 1543.38 Q1308.27 1555.25 1303.91 1562 Q1299.55 1568.78 1291.91 1568.78 Q1284.24 1568.78 1279.91 1562 Q1275.55 1555.25 1275.55 1543.38 Q1275.55 1531.47 1279.91 1524.76 Q1284.24 1518.01 1291.91 1518.01 Z" fill="#000000" fill-rule="nonzero" fill-opacity="1" /><path clip-path="url(#clip160)" d="M1316.8 1564.54 L1323.3 1564.54 L1323.3 1545.1 L1316.2 1546.4 L1316.2 1542.71 L1323.52 1541.47 L1327.88 1541.47 L1327.88 1564.54 L1334.41 1564.54 L1334.41 1568.04 L1316.8 1568.04 L1316.8 1564.54 Z" fill="#000000" fill-rule="nonzero" fill-opacity="1" /><polyline clip-path="url(#clip160)" style="stroke:#000000; stroke-linecap:round; stroke-linejoin:round; stroke-width:4; stroke-opacity:1; fill:none" points="257.204,1423.18 257.204,47.2441 "/>
<polyline clip-path="url(#clip160)" style="stroke:#000000; stroke-linecap:round; stroke-linejoin:round; stroke-width:4; stroke-opacity:1; fill:none" points="257.204,1175.04 276.102,1175.04 "/>
<polyline clip-path="url(#clip160)" style="stroke:#000000; stroke-linecap:round; stroke-linejoin:round; stroke-width:4; stroke-opacity:1; fill:none" points="257.204,898.467 276.102,898.467 "/>
<polyline clip-path="url(#clip160)" style="stroke:#000000; stroke-linecap:round; stroke-linejoin:round; stroke-width:4; stroke-opacity:1; fill:none" points="257.204,621.893 276.102,621.893 "/>
<polyline clip-path="url(#clip160)" style="stroke:#000000; stroke-linecap:round; stroke-linejoin:round; stroke-width:4; stroke-opacity:1; fill:none" points="257.204,345.318 276.102,345.318 "/>
<polyline clip-path="url(#clip160)" style="stroke:#000000; stroke-linecap:round; stroke-linejoin:round; stroke-width:4; stroke-opacity:1; fill:none" points="257.204,68.744 276.102,68.744 "/>
<path clip-path="url(#clip160)" d="M115.256 1175.49 L144.931 1175.49 L144.931 1179.43 L115.256 1179.43 L115.256 1175.49 Z" fill="#000000" fill-rule="nonzero" fill-opacity="1" /><path clip-path="url(#clip160)" d="M155.834 1188.39 L163.473 1188.39 L163.473 1162.02 L155.163 1163.69 L155.163 1159.43 L163.427 1157.76 L168.102 1157.76 L168.102 1188.39 L175.741 1188.39 L175.741 1192.32 L155.834 1192.32 L155.834 1188.39 Z" fill="#000000" fill-rule="nonzero" fill-opacity="1" /><path clip-path="url(#clip160)" d="M185.186 1186.44 L190.07 1186.44 L190.07 1192.32 L185.186 1192.32 L185.186 1186.44 Z" fill="#000000" fill-rule="nonzero" fill-opacity="1" /><path clip-path="url(#clip160)" d="M200.301 1157.76 L218.658 1157.76 L218.658 1161.7 L204.584 1161.7 L204.584 1170.17 Q205.602 1169.82 206.621 1169.66 Q207.639 1169.47 208.658 1169.47 Q214.445 1169.47 217.824 1172.65 Q221.204 1175.82 221.204 1181.23 Q221.204 1186.81 217.732 1189.91 Q214.26 1192.99 207.94 1192.99 Q205.764 1192.99 203.496 1192.62 Q201.25 1192.25 198.843 1191.51 L198.843 1186.81 Q200.926 1187.95 203.149 1188.5 Q205.371 1189.06 207.848 1189.06 Q211.852 1189.06 214.19 1186.95 Q216.528 1184.84 216.528 1181.23 Q216.528 1177.62 214.19 1175.52 Q211.852 1173.41 207.848 1173.41 Q205.973 1173.41 204.098 1173.83 Q202.246 1174.24 200.301 1175.12 L200.301 1157.76 Z" fill="#000000" fill-rule="nonzero" fill-opacity="1" /><path clip-path="url(#clip160)" d="M114.26 898.918 L143.936 898.918 L143.936 902.853 L114.26 902.853 L114.26 898.918 Z" fill="#000000" fill-rule="nonzero" fill-opacity="1" /><path clip-path="url(#clip160)" d="M154.839 911.812 L162.477 911.812 L162.477 885.446 L154.167 887.113 L154.167 882.853 L162.431 881.187 L167.107 881.187 L167.107 911.812 L174.746 911.812 L174.746 915.747 L154.839 915.747 L154.839 911.812 Z" fill="#000000" fill-rule="nonzero" fill-opacity="1" /><path clip-path="url(#clip160)" d="M184.19 909.867 L189.075 909.867 L189.075 915.747 L184.19 915.747 L184.19 909.867 Z" fill="#000000" fill-rule="nonzero" fill-opacity="1" /><path clip-path="url(#clip160)" d="M209.26 884.266 Q205.649 884.266 203.82 887.83 Q202.014 891.372 202.014 898.502 Q202.014 905.608 203.82 909.173 Q205.649 912.714 209.26 912.714 Q212.894 912.714 214.699 909.173 Q216.528 905.608 216.528 898.502 Q216.528 891.372 214.699 887.83 Q212.894 884.266 209.26 884.266 M209.26 880.562 Q215.07 880.562 218.125 885.168 Q221.204 889.752 221.204 898.502 Q221.204 907.228 218.125 911.835 Q215.07 916.418 209.26 916.418 Q203.449 916.418 200.371 911.835 Q197.315 907.228 197.315 898.502 Q197.315 889.752 200.371 885.168 Q203.449 880.562 209.26 880.562 Z" fill="#000000" fill-rule="nonzero" fill-opacity="1" /><path clip-path="url(#clip160)" d="M115.256 622.344 L144.931 622.344 L144.931 626.279 L115.256 626.279 L115.256 622.344 Z" fill="#000000" fill-rule="nonzero" fill-opacity="1" /><path clip-path="url(#clip160)" d="M165.024 607.691 Q161.413 607.691 159.584 611.256 Q157.778 614.798 157.778 621.927 Q157.778 629.034 159.584 632.599 Q161.413 636.14 165.024 636.14 Q168.658 636.14 170.464 632.599 Q172.292 629.034 172.292 621.927 Q172.292 614.798 170.464 611.256 Q168.658 607.691 165.024 607.691 M165.024 603.988 Q170.834 603.988 173.889 608.594 Q176.968 613.177 176.968 621.927 Q176.968 630.654 173.889 635.261 Q170.834 639.844 165.024 639.844 Q159.214 639.844 156.135 635.261 Q153.079 630.654 153.079 621.927 Q153.079 613.177 156.135 608.594 Q159.214 603.988 165.024 603.988 Z" fill="#000000" fill-rule="nonzero" fill-opacity="1" /><path clip-path="url(#clip160)" d="M185.186 633.293 L190.07 633.293 L190.07 639.173 L185.186 639.173 L185.186 633.293 Z" fill="#000000" fill-rule="nonzero" fill-opacity="1" /><path clip-path="url(#clip160)" d="M200.301 604.613 L218.658 604.613 L218.658 608.548 L204.584 608.548 L204.584 617.02 Q205.602 616.673 206.621 616.511 Q207.639 616.325 208.658 616.325 Q214.445 616.325 217.824 619.497 Q221.204 622.668 221.204 628.085 Q221.204 633.663 217.732 636.765 Q214.26 639.844 207.94 639.844 Q205.764 639.844 203.496 639.473 Q201.25 639.103 198.843 638.362 L198.843 633.663 Q200.926 634.798 203.149 635.353 Q205.371 635.909 207.848 635.909 Q211.852 635.909 214.19 633.802 Q216.528 631.696 216.528 628.085 Q216.528 624.474 214.19 622.367 Q211.852 620.261 207.848 620.261 Q205.973 620.261 204.098 620.677 Q202.246 621.094 200.301 621.974 L200.301 604.613 Z" fill="#000000" fill-rule="nonzero" fill-opacity="1" /><path clip-path="url(#clip160)" d="M164.028 331.117 Q160.417 331.117 158.589 334.682 Q156.783 338.223 156.783 345.353 Q156.783 352.459 158.589 356.024 Q160.417 359.566 164.028 359.566 Q167.663 359.566 169.468 356.024 Q171.297 352.459 171.297 345.353 Q171.297 338.223 169.468 334.682 Q167.663 331.117 164.028 331.117 M164.028 327.413 Q169.839 327.413 172.894 332.02 Q175.973 336.603 175.973 345.353 Q175.973 354.08 172.894 358.686 Q169.839 363.27 164.028 363.27 Q158.218 363.27 155.14 358.686 Q152.084 354.08 152.084 345.353 Q152.084 336.603 155.14 332.02 Q158.218 327.413 164.028 327.413 Z" fill="#000000" fill-rule="nonzero" fill-opacity="1" /><path clip-path="url(#clip160)" d="M184.19 356.719 L189.075 356.719 L189.075 362.598 L184.19 362.598 L184.19 356.719 Z" fill="#000000" fill-rule="nonzero" fill-opacity="1" /><path clip-path="url(#clip160)" d="M209.26 331.117 Q205.649 331.117 203.82 334.682 Q202.014 338.223 202.014 345.353 Q202.014 352.459 203.82 356.024 Q205.649 359.566 209.26 359.566 Q212.894 359.566 214.699 356.024 Q216.528 352.459 216.528 345.353 Q216.528 338.223 214.699 334.682 Q212.894 331.117 209.26 331.117 M209.26 327.413 Q215.07 327.413 218.125 332.02 Q221.204 336.603 221.204 345.353 Q221.204 354.08 218.125 358.686 Q215.07 363.27 209.26 363.27 Q203.449 363.27 200.371 358.686 Q197.315 354.08 197.315 345.353 Q197.315 336.603 200.371 332.02 Q203.449 327.413 209.26 327.413 Z" fill="#000000" fill-rule="nonzero" fill-opacity="1" /><path clip-path="url(#clip160)" d="M165.024 54.5427 Q161.413 54.5427 159.584 58.1075 Q157.778 61.6491 157.778 68.7787 Q157.778 75.8852 159.584 79.45 Q161.413 82.9916 165.024 82.9916 Q168.658 82.9916 170.464 79.45 Q172.292 75.8852 172.292 68.7787 Q172.292 61.6491 170.464 58.1075 Q168.658 54.5427 165.024 54.5427 M165.024 50.839 Q170.834 50.839 173.889 55.4455 Q176.968 60.0288 176.968 68.7787 Q176.968 77.5055 173.889 82.112 Q170.834 86.6953 165.024 86.6953 Q159.214 86.6953 156.135 82.112 Q153.079 77.5055 153.079 68.7787 Q153.079 60.0288 156.135 55.4455 Q159.214 50.839 165.024 50.839 Z" fill="#000000" fill-rule="nonzero" fill-opacity="1" /><path clip-path="url(#clip160)" d="M185.186 80.1444 L190.07 80.1444 L190.07 86.024 L185.186 86.024 L185.186 80.1444 Z" fill="#000000" fill-rule="nonzero" fill-opacity="1" /><path clip-path="url(#clip160)" d="M200.301 51.464 L218.658 51.464 L218.658 55.3992 L204.584 55.3992 L204.584 63.8713 Q205.602 63.5241 206.621 63.3621 Q207.639 63.1769 208.658 63.1769 Q214.445 63.1769 217.824 66.3482 Q221.204 69.5195 221.204 74.9361 Q221.204 80.5148 217.732 83.6166 Q214.26 86.6953 207.94 86.6953 Q205.764 86.6953 203.496 86.3249 Q201.25 85.9546 198.843 85.2138 L198.843 80.5148 Q200.926 81.649 203.149 82.2046 Q205.371 82.7601 207.848 82.7601 Q211.852 82.7601 214.19 80.6537 Q216.528 78.5472 216.528 74.9361 Q216.528 71.325 214.19 69.2185 Q211.852 67.1121 207.848 67.1121 Q205.973 67.1121 204.098 67.5287 Q202.246 67.9454 200.301 68.825 L200.301 51.464 Z" fill="#000000" fill-rule="nonzero" fill-opacity="1" /><path clip-path="url(#clip160)" d="M41.4059 737.886 L41.4059 758.16 Q50.9226 757.683 54.9649 755.487 Q59.9301 752.749 59.9301 748.007 Q59.9301 743.233 54.933 740.591 Q50.5407 738.268 41.4059 737.886 M35.995 737.981 Q26.9557 738.872 23.7729 740.591 Q18.744 743.328 18.744 748.007 Q18.744 752.877 23.7092 755.455 Q27.7196 757.492 35.995 758.097 L35.995 737.981 M13.9697 748.007 Q13.9697 740.368 20.7174 736.008 Q27.4332 731.647 39.337 731.647 Q51.2091 731.647 57.9567 736.008 Q64.7362 740.368 64.7362 748.007 Q64.7362 755.678 57.9567 760.006 Q51.2091 764.367 39.337 764.367 Q27.4332 764.367 20.7174 760.006 Q13.9697 755.678 13.9697 748.007 Z" fill="#000000" fill-rule="nonzero" fill-opacity="1" /><path clip-path="url(#clip160)" d="M60.3757 719.552 L60.3757 706.057 L64.0042 706.057 L64.0042 725.09 L60.503 725.09 Q59.5163 724.008 57.7339 722.003 Q48.0262 711.054 45.0344 711.054 Q42.9337 711.054 41.6605 712.709 Q40.3556 714.364 40.3556 717.07 Q40.3556 718.725 40.9285 720.666 Q41.4696 722.608 42.5836 724.9 L38.6686 724.9 Q37.7774 722.449 37.3318 720.348 Q36.8862 718.216 36.8862 716.401 Q36.8862 711.786 38.9869 709.017 Q41.0876 706.248 44.5251 706.248 Q48.9493 706.248 57.9886 716.783 Q59.5163 718.566 60.3757 719.552 Z" fill="#000000" fill-rule="nonzero" fill-opacity="1" /><circle clip-path="url(#clip161)" cx="1482.97" cy="522.355" r="7.2" fill="#009af9" fill-rule="evenodd" fill-opacity="1" stroke="#000000" stroke-opacity="1" stroke-width="3.2"/>
<polyline clip-path="url(#clip161)" style="stroke:#e26f46; stroke-linecap:round; stroke-linejoin:round; stroke-width:4; stroke-opacity:1; fill:none" points="1664.68,522.355 1663.18,521.454 1661.67,520.554 1660.15,519.654 1658.63,518.754 1657.11,517.854 1655.59,516.953 1654.06,516.054 1652.52,515.154 1650.99,514.254 1649.45,513.354 1647.9,512.455 1646.35,511.555 1644.8,510.656 1643.25,509.756 1641.69,508.857 1640.12,507.958 1638.56,507.059 1636.99,506.16 1635.41,505.261 1633.83,504.362 1632.25,503.464 1630.67,502.565 1629.08,501.666 1627.48,500.768 1625.89,499.87 1624.28,498.971 1622.68,498.073 1621.07,497.175 1619.46,496.277 1617.84,495.379 1616.22,494.481 1614.6,493.584 1612.97,492.686 1611.33,491.788 1609.7,490.891 1608.06,489.994 1606.41,489.096 1604.76,488.199 1603.11,487.302 1601.46,486.405 1599.8,485.508 1598.13,484.612 1596.46,483.715 1594.79,482.818 1593.12,481.922 1591.43,481.026 1589.75,480.129 1588.06,479.233 1586.37,478.337 1584.67,477.441 1582.97,476.545 1581.27,475.65 1579.56,474.754 1577.85,473.858 1576.13,472.963 1574.41,472.068 1572.68,471.172 1570.95,470.277 1569.22,469.382 1567.48,468.487 1565.74,467.592 1564,466.698 1562.25,465.803 1560.49,464.909 1558.73,464.014 1556.97,463.12 1555.2,462.226 1553.43,461.332 1551.66,460.438 1549.88,459.544 1548.09,458.65 1546.3,457.757 1544.51,456.863 1542.71,455.97 1540.91,455.077 1539.11,454.184 1537.3,453.29 1535.48,452.398 1533.67,451.505 1531.84,450.612 1530.02,449.72 1528.18,448.827 1526.35,447.935 1524.51,447.043 1522.66,446.151 1520.81,445.259 1518.96,444.367 1517.1,443.475 1515.24,442.583 1513.37,441.692 1511.5,440.801 1509.62,439.909 1507.74,439.018 1505.86,438.127 1503.97,437.237 1502.07,436.346 1500.17,435.455 1498.27,434.565 1496.36,433.675 1494.45,432.784 1492.53,431.894 1490.61,431.004 1488.69,430.115 1486.75,429.225 1484.82,428.335 1482.88,427.446 1480.93,426.557 1478.98,425.668 1477.03,424.779 1475.07,423.89 1473.1,423.001 1471.14,422.112 1469.16,421.224 1467.18,420.336 1465.2,419.448 1463.21,418.56 1461.22,417.672 1459.22,416.784 1457.22,415.896 1455.21,415.009 1453.2,414.122 1451.18,413.235 1449.16,412.348 1447.13,411.461 1445.1,410.574 1443.06,409.688 1441.02,408.801 1438.97,407.915 1436.92,407.029 1434.86,406.143 1432.8,405.257 1430.74,404.372 1428.66,403.486 1426.59,402.601 1424.5,401.716 1422.42,400.831 1420.32,399.946 1418.22,399.061 1416.12,398.177 1414.01,397.293 1411.9,396.408 1409.78,395.524 1407.66,394.641 1405.53,393.757 1403.39,392.873 1401.25,391.99 1399.11,391.107 1396.95,390.224 1394.8,389.341 1392.64,388.459 1390.47,387.576 1388.3,386.694 1386.12,385.812 1383.93,384.93 1381.75,384.048 1379.55,383.167 1377.35,382.285 1375.14,381.404 1372.93,380.523 1370.72,379.642 1368.49,378.762 1366.27,377.881 1364.03,377.001 1361.79,376.121 1359.55,375.241 1357.29,374.361 1355.04,373.482 1352.77,372.603 1350.51,371.724 1348.23,370.845 1345.95,369.966 1343.66,369.088 1341.37,368.209 1339.07,367.331 1336.77,366.453 1334.46,365.576 1332.14,364.698 1329.82,363.821 1327.49,362.944 1325.16,362.067 1322.81,361.191 1320.47,360.315 1318.11,359.438 1315.75,358.563 1313.39,357.687 1311.01,356.812 1308.64,355.936 1306.25,355.061 1303.86,354.187 1301.46,353.312 1299.05,352.438 1296.64,351.564 1294.23,350.69 1291.8,349.816 1289.37,348.943 1286.93,348.07 1284.49,347.197 1282.03,346.325 1279.58,345.452 1277.11,344.58 1274.64,343.709 1272.16,342.837 1269.67,341.966 1267.18,341.095 1264.68,340.224 1262.17,339.354 1259.66,338.483 1257.14,337.614 1254.61,336.744 1252.07,335.875 1249.53,335.006 1246.98,334.137 1244.42,333.268 1241.85,332.4 1239.28,331.532 1236.69,330.665 1234.11,329.797 1231.51,328.93 1228.9,328.064 1226.29,327.197 1223.67,326.331 1221.04,325.466 1218.4,324.6 1215.76,323.735 1213.11,322.87 1210.44,322.006 1207.77,321.142 1205.1,320.278 1202.41,319.415 1199.71,318.552 1197.01,317.689 1194.3,316.827 1191.57,315.965 1188.84,315.104 1186.1,314.242 1183.36,313.382 1180.6,312.521 1177.83,311.661 1175.05,310.802 1172.27,309.943 1169.47,309.084 1166.67,308.225 1163.85,307.367 1161.03,306.51 1158.19,305.653 1155.35,304.796 1152.49,303.94 1149.62,303.084 1146.75,302.229 1143.86,301.374 1140.96,300.52 1138.05,299.666 1135.13,298.813 1132.2,297.96 1129.26,297.108 1126.3,296.256 1123.34,295.405 1120.36,294.555 1117.37,293.704 1114.37,292.855 1111.35,292.006 1108.32,291.158 1105.28,290.31 1102.23,289.463 1099.16,288.617 1096.08,287.771 1092.99,286.926 1089.88,286.081 1086.76,285.237 1083.62,284.394 1080.46,283.552 1077.3,282.711 1074.11,281.87 1070.91,281.03 1067.7,280.191 1064.46,279.353 1061.21,278.515 1057.95,277.679 1054.66,276.843 1051.36,276.009 1048.03,275.175 1044.69,274.343 1041.33,273.511 1037.94,272.681 1034.54,271.852 1031.11,271.024 1027.66,270.197 1024.19,269.371 1020.69,268.547 1017.17,267.725 1013.62,266.903 1010.04,266.084 1006.44,265.266 1002.81,264.45 999.143,263.635 995.446,262.823 991.716,262.012 987.95,261.204 984.147,260.398 980.305,259.594 976.42,258.793 972.492,257.995 968.516,257.2 964.49,256.409 960.41,255.621 956.272,254.837 952.071,254.058 947.802,253.283 943.457,252.514 939.031,251.751 934.512,250.996 929.892,250.248 925.155,249.51 920.287,248.784 915.265,248.072 910.063,247.377 904.644,246.704 898.96,246.061 892.941,245.459 886.491,244.921 879.482,244.485 871.833,244.236 863.956,244.319 857.226,244.797 852.344,245.519 848.881,246.344 846.362,247.213 844.488,248.104 843.081,249.007 842.027,249.916 841.252,250.828 840.702,251.743 840.338,252.659 840.132,253.576 840.061,254.492 840.107,255.409 840.257,256.326 840.498,257.243 840.821,258.159 841.217,259.075 841.681,259.99 842.205,260.905 842.785,261.82 843.416,262.734 844.095,263.647 844.817,264.56 845.581,265.473 846.382,266.385 847.219,267.297 848.089,268.209 848.991,269.12 849.922,270.03 850.881,270.941 851.866,271.851 852.876,272.76 853.909,273.669 854.965,274.578 856.042,275.487 857.14,276.395 858.257,277.303 859.392,278.211 860.545,279.118 861.715,280.025 862.901,280.932 864.102,281.838 865.318,282.744 866.549,283.65 867.793,284.556 869.05,285.462 870.32,286.367 871.602,287.272 872.895,288.177 874.2,289.081 875.516,289.986 876.842,290.89 878.178,291.794 879.525,292.697 880.88,293.601 882.245,294.504 883.618,295.408 885,296.311 886.391,297.214 887.789,298.116 889.195,299.019 890.608,299.921 892.029,300.824 893.457,301.726 894.891,302.628 896.333,303.53 897.78,304.431 899.234,305.333 900.694,306.234 902.16,307.136 903.631,308.037 905.108,308.938 906.59,309.839 908.078,310.74 909.57,311.641 911.068,312.541 912.57,313.442 914.077,314.342 915.589,315.242 917.105,316.143 918.625,317.043 920.149,317.943 921.678,318.843 923.21,319.743 924.746,320.642 926.286,321.542 927.83,322.442 929.377,323.341 930.927,324.241 932.481,325.14 934.038,326.039 935.598,326.939 937.162,327.838 938.728,328.737 940.297,329.636 941.87,330.535 943.444,331.434 945.022,332.333 946.602,333.231 948.185,334.13 949.77,335.029 951.358,335.927 952.948,336.826 954.54,337.724 956.134,338.623 957.731,339.521 959.33,340.419 960.931,341.318 962.533,342.216 964.138,343.114 965.745,344.012 967.353,344.91 968.964,345.808 970.575,346.706 972.189,347.604 973.804,348.502 975.421,349.4 977.04,350.298 978.66,351.196 980.281,352.094 981.904,352.992 983.528,353.889 985.153,354.787 986.78,355.685 988.408,356.582 990.037,357.48 991.668,358.377 993.299,359.275 994.932,360.173 996.566,361.07 998.201,361.968 999.836,362.865 1001.47,363.762 1003.11,364.66 1004.75,365.557 1006.39,366.455 1008.03,367.352 1009.67,368.249 1011.31,369.146 1012.95,370.044 1014.6,370.941 1016.24,371.838 1017.89,372.736 1019.53,373.633 1021.18,374.53 1022.82,375.427 1024.47,376.324 1026.12,377.221 1027.77,378.119 1029.42,379.016 1031.07,379.913 1032.71,380.81 1034.36,381.707 1036.02,382.604 1037.67,383.501 1039.32,384.398 1040.97,385.295 1042.62,386.193 1044.27,387.09 1045.92,387.987 1047.58,388.884 1049.23,389.781 1050.88,390.678 1052.54,391.575 1054.19,392.472 1055.84,393.369 1057.5,394.266 1059.15,395.163 1060.8,396.06 1062.46,396.957 1064.11,397.854 1065.77,398.751 1067.42,399.648 1069.08,400.545 1070.73,401.442 1072.38,402.339 1074.04,403.236 1075.69,404.133 1077.35,405.03 1079,405.927 1080.65,406.824 1082.31,407.721 1083.96,408.618 1085.62,409.515 1087.27,410.412 1088.92,411.309 1090.58,412.206 1092.23,413.103 1093.88,414 1095.53,414.897 1097.19,415.794 1098.84,416.691 1100.49,417.588 1102.14,418.485 1103.79,419.382 1105.45,420.279 1107.1,421.177 1108.75,422.074 1110.4,422.971 1112.05,423.868 1113.7,424.765 1115.35,425.662 1117,426.559 1118.64,427.456 1120.29,428.353 1121.94,429.251 1123.59,430.148 1125.24,431.045 1126.88,431.942 1128.53,432.839 1130.18,433.737 1131.82,434.634 1133.47,435.531 1135.11,436.428 1136.75,437.325 1138.4,438.223 1140.04,439.12 1141.68,440.017 1143.33,440.915 1144.97,441.812 1146.61,442.709 1148.25,443.607 1149.89,444.504 1151.53,445.401 1153.17,446.299 1154.81,447.196 1156.45,448.093 1158.09,448.991 1159.72,449.888 1161.36,450.786 1162.99,451.683 1164.63,452.58 1166.27,453.478 1167.9,454.375 1169.53,455.273 1171.17,456.17 1172.8,457.068 1174.43,457.966 1176.06,458.863 1177.69,459.761 1179.32,460.658 1180.95,461.556 1182.58,462.453 1184.21,463.351 1185.84,464.249 1187.46,465.146 1189.09,466.044 1190.71,466.942 1192.34,467.84 1193.96,468.737 1195.59,469.635 1197.21,470.533 1198.83,471.431 1200.45,472.328 1202.07,473.226 1203.69,474.124 1205.31,475.022 1206.93,475.92 1208.55,476.818 1210.16,477.716 1211.78,478.613 1213.4,479.511 1215.01,480.409 1216.62,481.307 1218.24,482.205 1219.85,483.103 1221.46,484.001 1223.07,484.899 1224.68,485.797 1226.29,486.695 1227.9,487.594 1229.51,488.492 1231.12,489.39 1232.72,490.288 1234.33,491.186 1235.93,492.084 1237.54,492.983 1239.14,493.881 1240.74,494.779 1242.35,495.677 1243.95,496.576 1245.55,497.474 1247.15,498.372 1248.74,499.27 1250.34,500.169 1251.94,501.067 1253.53,501.966 1255.13,502.864 1256.72,503.762 1258.32,504.661 1259.91,505.559 1261.5,506.458 1263.09,507.356 1264.68,508.255 1266.27,509.153 1267.86,510.052 1269.45,510.951 1271.04,511.849 1272.62,512.748 1274.21,513.647 1275.79,514.545 1277.38,515.444 1278.96,516.343 1280.54,517.241 1282.12,518.14 1283.7,519.039 1285.28,519.938 1286.86,520.836 1288.44,521.735 1290.01,522.634 1291.59,523.533 1293.16,524.432 1294.74,525.331 1296.31,526.23 1297.88,527.129 1299.45,528.028 1301.03,528.927 1302.59,529.826 1304.16,530.725 1305.73,531.624 1307.3,532.523 1308.86,533.422 1310.43,534.321 1311.99,535.22 1313.56,536.119 1315.12,537.018 1316.68,537.918 1318.24,538.817 1319.8,539.716 1321.36,540.615 1322.92,541.515 1324.48,542.414 1326.03,543.313 1327.59,544.212 1329.14,545.112 1330.7,546.011 1332.25,546.911 1333.8,547.81 1335.35,548.709 1336.9,549.609 1338.45,550.508 1340,551.408 1341.55,552.307 1343.09,553.207 1344.64,554.107 1346.19,555.006 1347.73,555.906 1349.27,556.805 1350.81,557.705 1352.36,558.605 1353.9,559.504 1355.43,560.404 1356.97,561.304 1358.51,562.203 1360.05,563.103 1361.58,564.003 1363.12,564.903 1364.65,565.803 1366.18,566.702 1367.72,567.602 1369.25,568.502 1370.78,569.402 1372.31,570.302 1373.84,571.202 1375.36,572.102 1376.89,573.002 1378.42,573.902 1379.94,574.802 1381.46,575.702 1382.99,576.602 1384.51,577.502 1386.03,578.402 1387.55,579.302 1389.07,580.203 1390.59,581.103 1392.11,582.003 1393.62,582.903 1395.14,583.803 1396.65,584.704 1398.17,585.604 1399.68,586.504 1401.19,587.405 1402.7,588.305 1404.22,589.205 1405.72,590.106 1407.23,591.006 1408.74,591.906 1410.25,592.807 1411.75,593.707 1413.26,594.608 1414.76,595.508 1416.27,596.409 1417.77,597.309 1419.27,598.21 1420.77,599.11 1422.27,600.011 1423.77,600.912 1425.27,601.812 1426.76,602.713 1428.26,603.613 1429.76,604.514 1431.25,605.415 1432.74,606.316 1434.24,607.216 1435.73,608.117 1437.22,609.018 1438.71,609.919 1440.2,610.819 1441.69,611.72 1443.17,612.621 1444.66,613.522 1446.15,614.423 1447.63,615.324 1449.12,616.225 1450.6,617.126 1452.08,618.027 1453.56,618.928 1455.04,619.829 1456.52,620.73 1458,621.631 1459.48,622.532 1460.96,623.433 1462.43,624.334 1463.91,625.235 1465.38,626.136 1466.86,627.037 1468.33,627.938 1469.8,628.84 1471.27,629.741 1472.74,630.642 1474.21,631.543 1475.68,632.445 1477.15,633.346 1478.62,634.247 1480.08,635.148 1481.55,636.05 1483.01,636.951 1484.48,637.853 1485.94,638.754 1487.4,639.655 1488.86,640.557 1490.32,641.458 1491.78,642.36 1493.24,643.261 1494.7,644.163 1496.16,645.064 1497.61,645.966 1499.07,646.867 1500.52,647.769 1501.98,648.67 1503.43,649.572 1504.88,650.474 1506.34,651.375 1507.79,652.277 1509.24,653.178 1510.69,654.08 1512.13,654.982 1513.58,655.884 1515.03,656.785 1516.48,657.687 1517.92,658.589 1519.37,659.491 1520.81,660.392 1522.25,661.294 1523.69,662.196 1525.14,663.098 1526.58,664 1528.02,664.901 1529.46,665.803 1530.9,666.705 1532.33,667.607 1533.77,668.509 1535.21,669.411 1536.64,670.313 1538.08,671.215 1539.51,672.117 1540.95,673.019 1542.38,673.921 1543.81,674.823 1545.24,675.725 1546.67,676.627 1548.1,677.529 1549.53,678.431 1550.96,679.333 1552.39,680.236 1553.82,681.138 1555.24,682.04 1556.67,682.942 1558.09,683.844 1559.52,684.746 1560.94,685.649 1562.36,686.551 1563.79,687.453 1565.21,688.355 1566.63,689.258 1568.05,690.16 1569.47,691.062 1570.89,691.965 1572.31,692.867 1573.73,693.769 1575.14,694.672 1576.56,695.574 1577.98,696.476 1579.39,697.379 1580.81,698.281 1582.22,699.183 1583.63,700.086 1585.05,700.988 1586.46,701.891 1587.87,702.793 1589.28,703.696 1590.69,704.598 1592.1,705.501 1593.51,706.403 1594.92,707.306 1596.33,708.208 1597.74,709.111 1599.15,710.013 1600.55,710.916 1601.96,711.818 1603.37,712.721 1604.77,713.624 1606.18,714.526 1607.58,715.429 1608.98,716.331 1610.39,717.234 1611.79,718.137 1613.19,719.039 1614.59,719.942 1615.99,720.845 1617.39,721.747 1618.79,722.65 1620.19,723.553 1621.59,724.456 1622.99,725.358 1624.39,726.261 1625.79,727.164 1627.19,728.067 1628.58,728.969 1629.98,729.872 1631.38,730.775 1632.77,731.678 1634.17,732.581 1635.56,733.483 1636.96,734.386 1638.35,735.289 1639.74,736.192 1641.14,737.095 1642.53,737.997 1643.92,738.9 1645.32,739.803 1646.71,740.706 1648.1,741.609 1649.49,742.512 1650.88,743.415 1652.27,744.318 1653.66,745.22 1655.05,746.123 1656.44,747.026 1657.83,747.929 1659.22,748.832 1660.61,749.735 1662,750.638 1663.39,751.541 1664.78,752.444 1666.16,753.347 1667.55,754.25 1668.94,755.153 1670.33,756.056 1671.71,756.959 1673.1,757.862 1674.49,758.765 1675.87,759.668 1677.26,760.571 1678.65,761.474 1680.03,762.377 1681.42,763.28 1682.81,764.183 1684.19,765.086 1685.58,765.988 1686.96,766.891 1688.35,767.794 1689.73,768.697 1691.12,769.6 1692.51,770.503 1693.89,771.406 1695.28,772.309 1696.66,773.212 1698.05,774.115 1699.43,775.018 1700.82,775.921 1702.2,776.824 1703.59,777.727 1704.98,778.63 1706.36,779.533 1707.75,780.436 1709.13,781.339 1710.52,782.242 1711.91,783.145 1713.29,784.048 1714.68,784.951 1716.07,785.854 1717.45,786.757 1718.84,787.66 1720.23,788.563 1721.62,789.466 1723,790.369 1724.39,791.272 1725.78,792.175 1727.17,793.078 1728.56,793.981 1729.95,794.884 1731.34,795.787 1732.73,796.69 1734.12,797.592 1735.51,798.495 1736.9,799.398 1738.3,800.301 1739.69,801.204 1741.08,802.107 1742.48,803.01 1743.87,803.912 1745.26,804.815 1746.66,805.718 1748.06,806.621 1749.45,807.524 1750.85,808.426 1752.25,809.329 1753.65,810.232 1755.05,811.135 1756.45,812.037 1757.85,812.94 1759.25,813.843 1760.65,814.745 1762.05,815.648 1763.46,816.551 1764.86,817.453 1766.27,818.356 1767.68,819.258 1769.09,820.161 1770.49,821.063 1771.9,821.966 1773.32,822.868 1774.73,823.771 1776.14,824.673 1777.56,825.576 1778.97,826.478 1780.39,827.38 1781.81,828.283 1783.23,829.185 1784.65,830.087 1786.07,830.989 1787.5,831.892 1788.92,832.794 1790.35,833.696 1791.78,834.598 1793.21,835.5 1794.64,836.402 1796.08,837.304 1797.51,838.206 1798.95,839.108 1800.39,840.01 1801.83,840.912 1803.27,841.813 1804.72,842.715 1806.17,843.617 1807.62,844.519 1809.07,845.42 1810.52,846.322 1811.98,847.223 1813.44,848.125 1814.9,849.026 1816.37,849.928 1817.83,850.829 1819.3,851.73 1820.78,852.631 1822.25,853.532 1823.73,854.433 1825.21,855.334 1826.69,856.235 1828.18,857.136 1829.67,858.037 1831.17,858.938 1832.67,859.838 1834.17,860.739 1835.67,861.639 1837.18,862.54 1838.7,863.44 1840.21,864.34 1841.73,865.24 1843.26,866.14 1844.79,867.04 1846.33,867.94 1847.87,868.84 1849.41,869.739 1850.96,870.639 1852.52,871.538 1854.08,872.437 1855.65,873.336 1857.22,874.235 1858.8,875.134 1860.38,876.033 1861.98,876.931 1863.58,877.829 1865.18,878.728 1866.8,879.626 1868.42,880.523 1870.05,881.421 1871.68,882.318 1873.33,883.216 1874.98,884.112 1876.65,885.009 1878.32,885.906 1880.01,886.802 1881.7,887.698 1883.41,888.594 1885.13,889.489 1886.86,890.384 1888.61,891.279 1890.37,892.173 1892.14,893.067 1893.93,893.961 1895.73,894.854 1897.55,895.747 1899.39,896.639 1901.25,897.531 1903.13,898.422 1905.04,899.312 1906.96,900.202 1908.91,901.091 1910.89,901.979 1912.9,902.867 1914.94,903.753 1917.02,904.638 1919.14,905.522 1921.3,906.405 1923.5,907.286 1925.76,908.166 1928.08,909.043 1930.47,909.918 1932.93,910.79 1935.49,911.659 1938.15,912.523 1940.95,913.381 1943.91,914.233 1947.08,915.074 1950.54,915.901 1954.41,916.702 1958.95,917.455 1964.78,918.074 1972.38,918.147 1977.96,917.508 1981.53,916.689 1984.17,915.824 1986.28,914.94 1988.03,914.045 1989.54,913.145 1990.85,912.241 1992.02,911.333 1993.05,910.424 1993.99,909.514 1994.83,908.602 1995.6,907.689 1996.3,906.776 1996.94,905.862 1997.53,904.947 1998.07,904.033 1998.56,903.117 1999.01,902.202 1999.43,901.286 1999.81,900.37 2000.16,899.454 2000.49,898.538 2000.78,897.622 2001.05,896.705 2001.29,895.789 2001.51,894.872 2001.71,893.956 2001.89,893.039 2002.04,892.122 2002.18,891.205 2002.3,890.289 2002.41,889.372 2002.5,888.455 2002.57,887.538 2002.63,886.621 2002.67,885.704 2002.7,884.787 2002.71,883.87 2002.72,882.953 2002.71,882.036 2002.69,881.119 2002.65,880.202 2002.61,879.286 2002.55,878.369 2002.49,877.452 2002.41,876.535 2002.32,875.618 2002.23,874.701 2002.12,873.784 2002,872.867 2001.88,871.951 2001.75,871.034 2001.61,870.117 2001.46,869.2 2001.3,868.283 2001.13,867.367 2000.96,866.45 2000.77,865.533 2000.58,864.617 2000.39,863.7 2000.18,862.783 1999.97,861.867 1999.75,860.95 1999.53,860.034 1999.3,859.117 1999.06,858.2 1998.81,857.284 1998.56,856.367 1998.3,855.451 1998.04,854.535 1997.77,853.618 1997.49,852.702 1997.21,851.785 1996.92,850.869 1996.63,849.953 1996.33,849.036 1996.02,848.12 1995.71,847.204 1995.4,846.288 1995.08,845.372 1994.75,844.455 1994.42,843.539 1994.08,842.623 1993.74,841.707 1993.39,840.791 1993.04,839.875 1992.68,838.959 1992.32,838.043 1991.95,837.127 1991.58,836.211 1991.21,835.295 1990.82,834.379 1990.44,833.463 1990.05,832.547 1989.65,831.632 1989.25,830.716 1988.85,829.8 1988.44,828.884 1988.03,827.969 1987.61,827.053 1987.19,826.137 1986.76,825.222 1986.33,824.306 1985.9,823.39 1985.46,822.475 1985.02,821.559 1984.57,820.644 1984.12,819.728 1983.67,818.813 1983.21,817.898 1982.74,816.982 1982.28,816.067 1981.81,815.151 1981.33,814.236 1980.85,813.321 1980.37,812.406 1979.88,811.49 1979.39,810.575 1978.9,809.66 1978.4,808.745 1977.9,807.83 1977.4,806.915 1976.89,806 1976.37,805.085 1975.86,804.17 1975.34,803.255 1974.81,802.34 1974.29,801.425 1973.76,800.51 1973.22,799.595 1972.68,798.68 1972.14,797.765 1971.6,796.85 1971.05,795.936 1970.5,795.021 1969.94,794.106 1969.38,793.191 1968.82,792.277 1968.25,791.362 1967.68,790.448 1967.11,789.533 1966.53,788.618 1965.95,787.704 1965.37,786.789 1964.78,785.875 1964.19,784.961 1963.6,784.046 1963.01,783.132 1962.41,782.218 1961.8,781.303 1961.2,780.389 1960.59,779.475 1959.97,778.56 1959.36,777.646 1958.74,776.732 1958.12,775.818 1957.49,774.904 1956.86,773.99 1956.23,773.076 1955.59,772.162 1954.95,771.248 1954.31,770.334 1953.67,769.42 1953.02,768.506 1952.37,767.592 1951.71,766.678 1951.05,765.764 1950.39,764.851 1949.73,763.937 1949.06,763.023 1948.39,762.109 1947.72,761.196 1947.04,760.282 1946.36,759.368 1945.68,758.455 1944.99,757.541 1944.3,756.628 1943.61,755.714 1942.91,754.801 1942.22,753.888 1941.51,752.974 1940.81,752.061 1940.1,751.147 1939.39,750.234 1938.68,749.321 1937.96,748.408 1937.24,747.494 1936.52,746.581 1935.79,745.668 1935.06,744.755 1934.33,743.842 1933.6,742.929 1932.86,742.016 1932.12,741.103 1931.37,740.19 1930.63,739.277 1929.88,738.364 1929.12,737.451 1928.37,736.539 1927.61,735.626 1926.85,734.713 1926.08,733.8 1925.31,732.888 1924.54,731.975 1923.77,731.062 1922.99,730.15 1922.21,729.237 1921.43,728.325 1920.64,727.412 1919.85,726.5 1919.06,725.587 1918.27,724.675 1917.47,723.763 1916.67,722.85 1915.87,721.938 1915.06,721.026 1914.25,720.114 1913.44,719.202 1912.62,718.289 1911.8,717.377 1910.98,716.465 1910.16,715.553 1909.33,714.641 1908.5,713.729 1907.66,712.817 1906.83,711.906 1905.99,710.994 1905.15,710.082 1904.3,709.17 1903.45,708.258 1902.6,707.347 1901.75,706.435 1900.89,705.523 1900.03,704.612 1899.17,703.7 1898.3,702.789 1897.43,701.877 1896.56,700.966 1895.69,700.054 1894.81,699.143 1893.93,698.232 1893.05,697.32 1892.16,696.409 1891.27,695.498 1890.38,694.587 1889.48,693.676 1888.59,692.764 1887.68,691.853 1886.78,690.942 1885.87,690.031 1884.96,689.12 1884.05,688.209 1883.13,687.299 1882.21,686.388 1881.29,685.477 1880.37,684.566 1879.44,683.656 1878.51,682.745 1877.58,681.834 1876.64,680.924 1875.7,680.013 1874.76,679.103 1873.81,678.192 1872.86,677.282 1871.91,676.371 1870.96,675.461 1870,674.551 1869.04,673.64 1868.08,672.73 1867.11,671.82 1866.14,670.91 1865.17,670 1864.19,669.09 1863.21,668.18 1862.23,667.27 1861.25,666.36 1860.26,665.45 1859.27,664.54 1858.28,663.63 1857.28,662.72 1856.28,661.811 1855.28,660.901 1854.28,659.991 1853.27,659.082 1852.26,658.172 1851.24,657.263 1850.23,656.353 1849.21,655.444 1848.18,654.535 1847.16,653.625 1846.13,652.716 1845.1,651.807 1844.06,650.898 1843.02,649.988 1841.98,649.079 1840.94,648.17 1839.89,647.261 1838.84,646.352 1837.78,645.443 1836.73,644.535 1835.67,643.626 1834.61,642.717 1833.54,641.808 1832.47,640.9 1831.4,639.991 1830.33,639.082 1829.25,638.174 1828.17,637.265 1827.08,636.357 1826,635.449 1824.91,634.54 1823.81,633.632 1822.72,632.724 1821.62,631.815 1820.52,630.907 1819.41,629.999 1818.3,629.091 1817.19,628.183 1816.08,627.275 1814.96,626.367 1813.84,625.46 1812.71,624.552 1811.59,623.644 1810.46,622.736 1809.32,621.829 1808.19,620.921 1807.05,620.014 1805.9,619.106 1804.76,618.199 1803.61,617.291 1802.46,616.384 1801.3,615.477 1800.14,614.569 1798.98,613.662 1797.82,612.755 1796.65,611.848 1795.48,610.941 1794.3,610.034 1793.13,609.127 1791.95,608.22 1790.76,607.314 1789.58,606.407 1788.39,605.5 1787.19,604.594 1786,603.687 1784.8,602.781 1783.59,601.874 1782.39,600.968 1781.18,600.061 1779.97,599.155 1778.75,598.249 1777.53,597.343 1776.31,596.437 1775.09,595.53 1773.86,594.624 1772.63,593.719 1771.39,592.813 1770.15,591.907 1768.91,591.001 1767.67,590.095 1766.42,589.19 1765.17,588.284 1763.91,587.379 1762.66,586.473 1761.39,585.568 1760.13,584.662 1758.86,583.757 1757.59,582.852 1756.32,581.947 1755.04,581.042 1753.76,580.137 1752.48,579.232 1751.19,578.327 1749.9,577.422 1748.6,576.517 1747.31,575.612 1746.01,574.708 1744.7,573.803 1743.39,572.898 1742.08,571.994 1740.77,571.09 1739.45,570.185 1738.13,569.281 1736.81,568.377 1735.48,567.473 1734.15,566.569 1732.82,565.665 1731.48,564.761 1730.14,563.857 1728.79,562.953 1727.44,562.049 1726.09,561.145 1724.74,560.242 1723.38,559.338 1722.02,558.435 1720.65,557.531 1719.29,556.628 1717.91,555.725 1716.54,554.822 1715.16,553.918 1713.78,553.015 1712.39,552.112 1711,551.209 1709.61,550.307 1708.21,549.404 1706.81,548.501 1705.41,547.598 1704.01,546.696 1702.6,545.793 1701.18,544.891 1699.76,543.989 1698.34,543.086 1696.92,542.184 1695.49,541.282 1694.06,540.38 1692.63,539.478 1691.19,538.576 1689.75,537.674 1688.3,536.772 1686.85,535.871 1685.4,534.969 1683.94,534.068 1682.48,533.166 1681.02,532.265 1679.55,531.363 1678.08,530.462 1676.61,529.561 1675.13,528.66 1673.65,527.759 1672.16,526.858 1670.68,525.957 1669.18,525.057 1667.69,524.156 1666.19,523.255 1664.68,522.355 "/>
<polyline clip-path="url(#clip161)" style="stroke:#3da44d; stroke-linecap:round; stroke-linejoin:round; stroke-width:4; stroke-opacity:1; fill:none" points="1775.69,522.355 1773.09,520.78 1770.48,519.205 1767.85,517.63 1765.22,516.056 1762.58,514.482 1759.93,512.908 1757.27,511.334 1754.6,509.761 1751.92,508.187 1749.23,506.614 1746.53,505.041 1743.82,503.469 1741.1,501.896 1738.37,500.324 1735.63,498.752 1732.89,497.18 1730.13,495.609 1727.36,494.037 1724.58,492.466 1721.79,490.895 1719,489.325 1716.19,487.754 1713.37,486.184 1710.54,484.614 1707.71,483.045 1704.86,481.475 1702,479.906 1699.13,478.337 1696.25,476.768 1693.36,475.2 1690.46,473.632 1687.56,472.064 1684.64,470.496 1681.71,468.929 1678.77,467.361 1675.81,465.795 1672.85,464.228 1669.88,462.662 1666.9,461.095 1663.91,459.53 1660.9,457.964 1657.89,456.399 1654.86,454.834 1651.83,453.269 1648.78,451.704 1645.72,450.14 1642.66,448.576 1639.58,447.013 1636.49,445.449 1633.39,443.886 1630.28,442.323 1627.16,440.761 1624.02,439.199 1620.88,437.637 1617.72,436.075 1614.56,434.514 1611.38,432.953 1608.19,431.392 1604.99,429.831 1601.78,428.271 1598.56,426.711 1595.32,425.152 1592.08,423.593 1588.82,422.034 1585.55,420.475 1582.27,418.917 1578.98,417.359 1575.68,415.801 1572.37,414.244 1569.04,412.687 1565.71,411.131 1562.36,409.574 1559,408.018 1555.62,406.463 1552.24,404.907 1548.84,403.352 1545.44,401.798 1542.02,400.243 1538.59,398.69 1535.14,397.136 1531.69,395.583 1528.22,394.03 1524.74,392.477 1521.25,390.925 1517.75,389.373 1514.23,387.822 1510.7,386.271 1507.16,384.72 1503.61,383.17 1500.04,381.62 1496.47,380.07 1492.88,378.521 1489.27,376.972 1485.66,375.424 1482.03,373.876 1478.39,372.328 1474.74,370.781 1471.07,369.234 1467.39,367.688 1463.7,366.142 1460,364.596 1456.28,363.051 1452.55,361.506 1448.81,359.962 1445.05,358.418 1441.29,356.874 1437.5,355.331 1433.71,353.788 1429.9,352.246 1426.08,350.704 1422.25,349.163 1418.4,347.622 1414.54,346.081 1410.66,344.541 1406.77,343.001 1402.87,341.462 1398.96,339.924 1395.03,338.385 1391.09,336.847 1387.13,335.31 1383.16,333.773 1379.18,332.237 1375.18,330.701 1371.17,329.165 1367.14,327.63 1363.1,326.096 1359.05,324.562 1354.98,323.028 1350.9,321.495 1346.81,319.963 1342.7,318.431 1338.57,316.899 1334.43,315.368 1330.28,313.838 1326.11,312.308 1321.93,310.778 1317.73,309.25 1313.52,307.721 1309.3,306.193 1305.06,304.666 1300.8,303.139 1296.53,301.613 1292.24,300.088 1287.94,298.562 1283.63,297.038 1279.3,295.514 1274.95,293.991 1270.59,292.468 1266.22,290.946 1261.82,289.424 1257.42,287.903 1252.99,286.382 1248.56,284.862 1244.1,283.343 1239.63,281.825 1235.15,280.307 1230.65,278.789 1226.13,277.272 1221.6,275.756 1217.05,274.241 1212.48,272.726 1207.9,271.212 1203.3,269.698 1198.69,268.185 1194.06,266.673 1189.41,265.161 1184.75,263.65 1180.07,262.14 1175.37,260.631 1170.66,259.122 1165.92,257.613 1161.18,256.106 1156.41,254.599 1151.63,253.093 1146.83,251.588 1142.01,250.083 1137.18,248.58 1132.33,247.077 1127.46,245.574 1122.57,244.073 1117.67,242.572 1112.75,241.072 1107.81,239.573 1102.85,238.074 1097.87,236.576 1092.88,235.08 1087.86,233.584 1082.83,232.088 1077.78,230.594 1072.71,229.1 1067.62,227.608 1062.52,226.116 1057.39,224.625 1052.24,223.135 1047.08,221.646 1041.89,220.157 1036.69,218.67 1031.47,217.183 1026.22,215.698 1020.96,214.213 1015.68,212.729 1010.37,211.247 1005.05,209.765 999.703,208.284 994.338,206.804 988.951,205.325 983.544,203.848 978.115,202.371 972.665,200.895 967.194,199.421 961.7,197.947 956.185,196.474 950.648,195.003 945.088,193.533 939.506,192.063 933.902,190.595 928.274,189.129 922.623,187.663 916.949,186.198 911.252,184.735 905.531,183.273 899.785,181.812 894.016,180.352 888.222,178.894 882.403,177.437 876.559,175.981 870.69,174.527 864.796,173.074 858.875,171.623 852.928,170.172 846.955,168.724 840.955,167.276 834.928,165.831 828.873,164.386 822.79,162.944 816.679,161.503 810.539,160.063 804.37,158.625 798.171,157.189 791.943,155.755 785.684,154.322 779.394,152.891 773.072,151.462 766.719,150.035 760.333,148.61 753.913,147.186 747.46,145.765 740.973,144.346 734.45,142.929 727.892,141.514 721.297,140.101 714.665,138.691 707.994,137.283 701.284,135.878 694.535,134.475 687.744,133.074 680.911,131.677 674.035,130.282 667.114,128.89 660.148,127.501 653.134,126.116 646.072,124.733 638.96,123.354 631.795,121.978 624.578,120.607 617.304,119.239 609.972,117.875 602.58,116.516 595.126,115.161 587.605,113.81 580.016,112.465 572.355,111.126 564.618,109.792 556.8,108.464 548.898,107.143 540.906,105.829 532.818,104.523 524.626,103.226 516.325,101.938 507.903,100.66 499.352,99.3931 490.659,98.1395 481.81,96.9004 472.786,95.678 463.568,94.475 454.128,93.2949 444.435,92.1423 434.447,91.0235 424.108,89.9476 413.347,88.9282 402.063,87.9866 390.124,87.1593 377.372,86.5142 363.764,86.1857 350.049,86.4019 338.51,87.2792 330.439,88.5798 325.078,90.0577 321.51,91.6068 319.157,93.1866 317.672,94.7805 316.838,96.3807 316.512,97.9834 316.594,99.5866 317.012,101.189 317.711,102.79 318.65,104.39 319.797,105.988 321.125,107.583 322.613,109.177 324.242,110.77 325.999,112.36 327.871,113.949 329.846,115.536 331.916,117.121 334.073,118.705 336.309,120.288 338.618,121.869 340.994,123.449 343.433,125.027 345.931,126.604 348.482,128.18 351.084,129.756 353.733,131.33 356.427,132.903 359.162,134.475 361.936,136.046 364.747,137.616 367.593,139.186 370.471,140.754 373.38,142.322 376.318,143.889 379.284,145.456 382.276,147.022 385.293,148.587 388.333,150.152 391.396,151.716 394.48,153.279 397.584,154.842 400.707,156.405 403.849,157.967 407.007,159.528 410.183,161.09 413.374,162.65 416.579,164.21 419.8,165.77 423.033,167.33 426.28,168.889 429.539,170.448 432.81,172.006 436.092,173.565 439.385,175.122 442.687,176.68 446,178.237 449.322,179.794 452.652,181.351 455.991,182.908 459.338,184.464 462.693,186.02 466.054,187.576 469.423,189.132 472.798,190.688 476.179,192.243 479.566,193.798 482.959,195.353 486.357,196.908 489.76,198.463 493.168,200.017 496.58,201.572 499.996,203.126 503.417,204.68 506.841,206.235 510.268,207.789 513.699,209.343 517.133,210.896 520.57,212.45 524.009,214.004 527.451,215.558 530.895,217.111 534.342,218.665 537.79,220.218 541.24,221.771 544.692,223.325 548.145,224.878 551.599,226.431 555.054,227.984 558.511,229.538 561.968,231.091 565.426,232.644 568.885,234.197 572.344,235.75 575.803,237.303 579.263,238.856 582.723,240.409 586.182,241.963 589.642,243.516 593.101,245.069 596.56,246.622 600.019,248.175 603.476,249.728 606.934,251.281 610.39,252.835 613.846,254.388 617.301,255.941 620.754,257.494 624.207,259.048 627.658,260.601 631.108,262.154 634.557,263.708 638.004,265.261 641.45,266.815 644.894,268.368 648.337,269.922 651.778,271.475 655.217,273.029 658.654,274.583 662.089,276.137 665.523,277.691 668.954,279.245 672.383,280.799 675.81,282.353 679.235,283.907 682.657,285.461 686.077,287.015 689.495,288.569 692.91,290.124 696.323,291.678 699.733,293.233 703.14,294.787 706.545,296.342 709.948,297.897 713.347,299.452 716.744,301.007 720.138,302.562 723.529,304.117 726.917,305.672 730.302,307.227 733.684,308.783 737.063,310.338 740.439,311.894 743.812,313.449 747.182,315.005 750.548,316.561 753.912,318.117 757.272,319.673 760.629,321.229 763.982,322.785 767.332,324.341 770.679,325.897 774.022,327.454 777.362,329.01 780.699,330.567 784.032,332.124 787.361,333.681 790.687,335.238 794.009,336.795 797.328,338.352 800.643,339.909 803.954,341.467 807.262,343.024 810.566,344.582 813.866,346.139 817.162,347.697 820.455,349.255 823.744,350.813 827.029,352.371 830.31,353.929 833.587,355.487 836.861,357.046 840.13,358.604 843.396,360.163 846.657,361.722 849.915,363.281 853.169,364.84 856.418,366.399 859.664,367.958 862.906,369.517 866.143,371.077 869.377,372.636 872.606,374.196 875.832,375.756 879.053,377.315 882.27,378.875 885.483,380.435 888.692,381.996 891.896,383.556 895.097,385.116 898.293,386.677 901.485,388.238 904.673,389.798 907.856,391.359 911.036,392.92 914.211,394.481 917.382,396.043 920.548,397.604 923.71,399.165 926.868,400.727 930.022,402.289 933.171,403.85 936.316,405.412 939.457,406.974 942.593,408.536 945.725,410.099 948.853,411.661 951.976,413.224 955.095,414.786 958.209,416.349 961.319,417.912 964.425,419.475 967.526,421.038 970.623,422.601 973.715,424.164 976.803,425.728 979.886,427.291 982.965,428.855 986.04,430.419 989.11,431.982 992.175,433.546 995.237,435.111 998.293,436.675 1001.35,438.239 1004.39,439.804 1007.44,441.368 1010.48,442.933 1013.51,444.498 1016.54,446.063 1019.56,447.628 1022.58,449.193 1025.6,450.758 1028.61,452.323 1031.62,453.889 1034.62,455.455 1037.62,457.02 1040.61,458.586 1043.6,460.152 1046.59,461.718 1049.57,463.284 1052.54,464.851 1055.51,466.417 1058.48,467.984 1061.44,469.55 1064.4,471.117 1067.35,472.684 1070.3,474.251 1073.24,475.818 1076.18,477.385 1079.12,478.952 1082.05,480.52 1084.97,482.087 1087.89,483.655 1090.81,485.223 1093.72,486.791 1096.63,488.359 1099.53,489.927 1102.43,491.495 1105.32,493.063 1108.21,494.632 1111.09,496.2 1113.97,497.769 1116.85,499.338 1119.72,500.907 1122.58,502.476 1125.44,504.045 1128.3,505.614 1131.15,507.183 1134,508.753 1136.84,510.322 1139.68,511.892 1142.52,513.462 1145.35,515.032 1148.17,516.602 1150.99,518.172 1153.81,519.742 1156.62,521.312 1159.42,522.883 1162.23,524.453 1165.02,526.024 1167.82,527.594 1170.6,529.165 1173.39,530.736 1176.17,532.307 1178.94,533.878 1181.71,535.45 1184.48,537.021 1187.24,538.592 1190,540.164 1192.75,541.736 1195.49,543.308 1198.24,544.879 1200.98,546.451 1203.71,548.024 1206.44,549.596 1209.16,551.168 1211.88,552.74 1214.6,554.313 1217.31,555.886 1220.02,557.458 1222.72,559.031 1225.42,560.604 1228.11,562.177 1230.8,563.75 1233.49,565.323 1236.16,566.897 1238.84,568.47 1241.51,570.044 1244.18,571.617 1246.84,573.191 1249.5,574.765 1252.15,576.339 1254.8,577.913 1257.44,579.487 1260.08,581.061 1262.72,582.636 1265.35,584.21 1267.97,585.785 1270.6,587.359 1273.21,588.934 1275.83,590.509 1278.44,592.084 1281.04,593.659 1283.64,595.234 1286.24,596.809 1288.83,598.384 1291.41,599.96 1293.99,601.535 1296.57,603.111 1299.15,604.686 1301.71,606.262 1304.28,607.838 1306.84,609.414 1309.4,610.99 1311.95,612.566 1314.49,614.142 1317.04,615.719 1319.58,617.295 1322.11,618.872 1324.64,620.448 1327.17,622.025 1329.69,623.602 1332.2,625.179 1334.72,626.756 1337.22,628.333 1339.73,629.91 1342.23,631.487 1344.72,633.065 1347.21,634.642 1349.7,636.219 1352.18,637.797 1354.66,639.375 1357.13,640.953 1359.6,642.53 1362.07,644.108 1364.53,645.686 1366.99,647.265 1369.44,648.843 1371.89,650.421 1374.33,651.999 1376.77,653.578 1379.21,655.157 1381.64,656.735 1384.07,658.314 1386.49,659.893 1388.91,661.472 1391.32,663.051 1393.73,664.63 1396.14,666.209 1398.54,667.788 1400.94,669.367 1403.33,670.947 1405.72,672.526 1408.11,674.106 1410.49,675.686 1412.87,677.265 1415.24,678.845 1417.61,680.425 1419.98,682.005 1422.34,683.585 1424.69,685.165 1427.05,686.746 1429.39,688.326 1431.74,689.906 1434.08,691.487 1436.41,693.067 1438.75,694.648 1441.08,696.229 1443.4,697.809 1445.72,699.39 1448.04,700.971 1450.35,702.552 1452.66,704.133 1454.96,705.715 1457.26,707.296 1459.56,708.877 1461.85,710.459 1464.14,712.04 1466.42,713.622 1468.7,715.203 1470.98,716.785 1473.25,718.367 1475.52,719.949 1477.78,721.531 1480.04,723.113 1482.3,724.695 1484.55,726.277 1486.8,727.859 1489.04,729.441 1491.28,731.024 1493.52,732.606 1495.75,734.189 1497.98,735.771 1500.21,737.354 1502.43,738.937 1504.64,740.52 1506.86,742.102 1509.07,743.685 1511.27,745.268 1513.47,746.852 1515.67,748.435 1517.87,750.018 1520.06,751.601 1522.24,753.185 1524.43,754.768 1526.61,756.352 1528.78,757.935 1530.95,759.519 1533.12,761.103 1535.28,762.686 1537.44,764.27 1539.6,765.854 1541.75,767.438 1543.9,769.022 1546.05,770.606 1548.19,772.191 1550.33,773.775 1552.46,775.359 1554.59,776.943 1556.72,778.528 1558.84,780.112 1560.96,781.697 1563.07,783.282 1565.19,784.866 1567.29,786.451 1569.4,788.036 1571.5,789.621 1573.6,791.206 1575.69,792.791 1577.78,794.376 1579.87,795.961 1581.95,797.546 1584.03,799.132 1586.11,800.717 1588.18,802.303 1590.25,803.888 1592.31,805.474 1594.37,807.059 1596.43,808.645 1598.49,810.231 1600.54,811.816 1602.58,813.402 1604.63,814.988 1606.67,816.574 1608.7,818.16 1610.74,819.746 1612.77,821.332 1614.79,822.918 1616.82,824.505 1618.84,826.091 1620.85,827.677 1622.86,829.264 1624.87,830.85 1626.88,832.437 1628.88,834.023 1630.88,835.61 1632.88,837.197 1634.87,838.784 1636.86,840.37 1638.84,841.957 1640.82,843.544 1642.8,845.131 1644.78,846.718 1646.75,848.305 1648.72,849.893 1650.68,851.48 1652.64,853.067 1654.6,854.654 1656.56,856.242 1658.51,857.829 1660.46,859.417 1662.4,861.004 1664.34,862.592 1666.28,864.179 1668.22,865.767 1670.15,867.355 1672.08,868.943 1674.01,870.53 1675.93,872.118 1677.85,873.706 1679.76,875.294 1681.68,876.882 1683.59,878.47 1685.49,880.059 1687.4,881.647 1689.3,883.235 1691.19,884.823 1693.09,886.412 1694.98,888 1696.86,889.589 1698.75,891.177 1700.63,892.766 1702.51,894.354 1704.38,895.943 1706.26,897.532 1708.12,899.12 1709.99,900.709 1711.85,902.298 1713.71,903.887 1715.57,905.476 1717.42,907.065 1719.27,908.654 1721.12,910.243 1722.97,911.832 1724.81,913.421 1726.65,915.01 1728.48,916.6 1730.31,918.189 1732.14,919.778 1733.97,921.368 1735.79,922.957 1737.62,924.547 1739.43,926.136 1741.25,927.726 1743.06,929.315 1744.87,930.905 1746.68,932.495 1748.48,934.085 1750.28,935.674 1752.08,937.264 1753.87,938.854 1755.66,940.444 1757.45,942.034 1759.24,943.624 1761.02,945.214 1762.8,946.804 1764.58,948.394 1766.36,949.984 1768.13,951.575 1769.9,953.165 1771.66,954.755 1773.43,956.345 1775.19,957.936 1776.95,959.526 1778.7,961.117 1780.46,962.707 1782.21,964.298 1783.95,965.888 1785.7,967.479 1787.44,969.07 1789.18,970.66 1790.92,972.251 1792.65,973.842 1794.38,975.433 1796.11,977.023 1797.84,978.614 1799.56,980.205 1801.28,981.796 1803,983.387 1804.72,984.978 1806.43,986.569 1808.14,988.16 1809.85,989.751 1811.56,991.343 1813.26,992.934 1814.96,994.525 1816.66,996.116 1818.35,997.708 1820.05,999.299 1821.74,1000.89 1823.43,1002.48 1825.11,1004.07 1826.79,1005.66 1828.48,1007.26 1830.15,1008.85 1831.83,1010.44 1833.5,1012.03 1835.17,1013.62 1836.84,1015.21 1838.51,1016.81 1840.17,1018.4 1841.84,1019.99 1843.49,1021.58 1845.15,1023.17 1846.81,1024.77 1848.46,1026.36 1850.11,1027.95 1851.76,1029.54 1853.4,1031.13 1855.05,1032.73 1856.69,1034.32 1858.33,1035.91 1859.96,1037.5 1861.6,1039.09 1863.23,1040.69 1864.86,1042.28 1866.49,1043.87 1868.11,1045.46 1869.74,1047.05 1871.36,1048.65 1872.98,1050.24 1874.59,1051.83 1876.21,1053.42 1877.82,1055.02 1879.43,1056.61 1881.04,1058.2 1882.65,1059.79 1884.25,1061.39 1885.85,1062.98 1887.45,1064.57 1889.05,1066.16 1890.65,1067.76 1892.24,1069.35 1893.84,1070.94 1895.43,1072.54 1897.02,1074.13 1898.6,1075.72 1900.19,1077.31 1901.77,1078.91 1903.35,1080.5 1904.93,1082.09 1906.51,1083.69 1908.08,1085.28 1909.66,1086.87 1911.23,1088.46 1912.8,1090.06 1914.37,1091.65 1915.93,1093.24 1917.5,1094.84 1919.06,1096.43 1920.62,1098.02 1922.18,1099.62 1923.74,1101.21 1925.3,1102.8 1926.85,1104.4 1928.4,1105.99 1929.95,1107.58 1931.5,1109.18 1933.05,1110.77 1934.6,1112.36 1936.14,1113.96 1937.68,1115.55 1939.23,1117.14 1940.77,1118.74 1942.31,1120.33 1943.84,1121.92 1945.38,1123.52 1946.91,1125.11 1948.44,1126.7 1949.98,1128.3 1951.51,1129.89 1953.03,1131.48 1954.56,1133.08 1956.09,1134.67 1957.61,1136.26 1959.13,1137.86 1960.66,1139.45 1962.18,1141.04 1963.7,1142.64 1965.21,1144.23 1966.73,1145.83 1968.25,1147.42 1969.76,1149.01 1971.27,1150.61 1972.79,1152.2 1974.3,1153.79 1975.81,1155.39 1977.32,1156.98 1978.83,1158.58 1980.33,1160.17 1981.84,1161.76 1983.34,1163.36 1984.85,1164.95 1986.35,1166.55 1987.85,1168.14 1989.35,1169.73 1990.85,1171.33 1992.35,1172.92 1993.85,1174.51 1995.35,1176.11 1996.85,1177.7 1998.34,1179.3 1999.84,1180.89 2001.33,1182.48 2002.83,1184.08 2004.32,1185.67 2005.82,1187.27 2007.31,1188.86 2008.8,1190.45 2010.29,1192.05 2011.78,1193.64 2013.28,1195.24 2014.77,1196.83 2016.26,1198.42 2017.75,1200.02 2019.23,1201.61 2020.72,1203.21 2022.21,1204.8 2023.7,1206.39 2025.19,1207.99 2026.68,1209.58 2028.17,1211.18 2029.66,1212.77 2031.14,1214.37 2032.63,1215.96 2034.12,1217.55 2035.61,1219.15 2037.1,1220.74 2038.59,1222.34 2040.08,1223.93 2041.57,1225.52 2043.06,1227.12 2044.55,1228.71 2046.04,1230.31 2047.53,1231.9 2049.02,1233.49 2050.51,1235.09 2052.01,1236.68 2053.5,1238.28 2054.99,1239.87 2056.49,1241.46 2057.99,1243.06 2059.48,1244.65 2060.98,1246.25 2062.48,1247.84 2063.98,1249.43 2065.48,1251.03 2066.98,1252.62 2068.49,1254.21 2069.99,1255.81 2071.5,1257.4 2073.01,1259 2074.52,1260.59 2076.03,1262.18 2077.55,1263.78 2079.06,1265.37 2080.58,1266.96 2082.1,1268.56 2083.62,1270.15 2085.15,1271.75 2086.67,1273.34 2088.2,1274.93 2089.74,1276.53 2091.27,1278.12 2092.81,1279.71 2094.35,1281.31 2095.89,1282.9 2097.44,1284.49 2098.99,1286.09 2100.54,1287.68 2102.1,1289.27 2103.66,1290.87 2105.23,1292.46 2106.8,1294.05 2108.37,1295.65 2109.95,1297.24 2111.53,1298.83 2113.12,1300.42 2114.72,1302.02 2116.31,1303.61 2117.92,1305.2 2119.53,1306.79 2121.14,1308.39 2122.77,1309.98 2124.4,1311.57 2126.03,1313.16 2127.68,1314.76 2129.33,1316.35 2130.99,1317.94 2132.65,1319.53 2134.33,1321.12 2136.01,1322.71 2137.71,1324.31 2139.41,1325.9 2141.13,1327.49 2142.86,1329.08 2144.59,1330.67 2146.34,1332.26 2148.11,1333.85 2149.88,1335.44 2151.68,1337.03 2153.48,1338.62 2155.31,1340.21 2157.15,1341.8 2159.01,1343.39 2160.88,1344.98 2162.78,1346.56 2164.71,1348.15 2166.65,1349.74 2168.62,1351.33 2170.62,1352.91 2172.65,1354.5 2174.71,1356.08 2176.81,1357.67 2178.95,1359.25 2181.13,1360.84 2183.35,1362.42 2185.63,1364 2187.97,1365.58 2190.38,1367.16 2192.86,1368.74 2195.43,1370.31 2198.1,1371.89 2200.89,1373.46 2203.84,1375.03 2206.96,1376.59 2210.33,1378.14 2214.04,1379.69 2218.23,1381.22 2223.26,1382.71 2230.24,1384.1 2241.99,1384.24 2248.57,1382.83 2252.65,1381.3 2255.77,1379.74 2258.34,1378.16 2260.55,1376.58 2262.5,1374.99 2264.24,1373.4 2265.83,1371.81 2267.29,1370.22 2268.63,1368.62 2269.89,1367.02 2271.05,1365.43 2272.15,1363.83 2273.18,1362.23 2274.16,1360.63 2275.08,1359.03 2275.95,1357.43 2276.78,1355.83 2277.58,1354.23 2278.33,1352.63 2279.05,1351.03 2279.74,1349.43 2280.39,1347.82 2281.02,1346.22 2281.62,1344.62 2282.2,1343.02 2282.76,1341.42 2283.29,1339.82 2283.8,1338.21 2284.29,1336.61 2284.76,1335.01 2285.21,1333.41 2285.64,1331.8 2286.06,1330.2 2286.46,1328.6 2286.85,1327 2287.22,1325.39 2287.57,1323.79 2287.91,1322.19 2288.24,1320.59 2288.56,1318.98 2288.86,1317.38 2289.15,1315.78 2289.43,1314.17 2289.69,1312.57 2289.95,1310.97 2290.19,1309.37 2290.42,1307.76 2290.65,1306.16 2290.86,1304.56 2291.06,1302.95 2291.26,1301.35 2291.44,1299.75 2291.61,1298.14 2291.78,1296.54 2291.93,1294.94 2292.08,1293.33 2292.22,1291.73 2292.35,1290.13 2292.48,1288.53 2292.59,1286.92 2292.7,1285.32 2292.8,1283.72 2292.89,1282.11 2292.97,1280.51 2293.05,1278.91 2293.12,1277.3 2293.18,1275.7 2293.24,1274.1 2293.29,1272.49 2293.33,1270.89 2293.37,1269.29 2293.4,1267.68 2293.42,1266.08 2293.43,1264.48 2293.44,1262.87 2293.45,1261.27 2293.45,1259.67 2293.44,1258.06 2293.42,1256.46 2293.4,1254.86 2293.38,1253.26 2293.34,1251.65 2293.31,1250.05 2293.26,1248.45 2293.21,1246.84 2293.16,1245.24 2293.1,1243.64 2293.03,1242.03 2292.96,1240.43 2292.88,1238.83 2292.8,1237.22 2292.72,1235.62 2292.62,1234.02 2292.53,1232.41 2292.42,1230.81 2292.32,1229.21 2292.2,1227.6 2292.09,1226 2291.96,1224.4 2291.84,1222.79 2291.7,1221.19 2291.57,1219.59 2291.42,1217.99 2291.28,1216.38 2291.13,1214.78 2290.97,1213.18 2290.81,1211.57 2290.64,1209.97 2290.47,1208.37 2290.3,1206.76 2290.12,1205.16 2289.93,1203.56 2289.75,1201.95 2289.55,1200.35 2289.35,1198.75 2289.15,1197.15 2288.94,1195.54 2288.73,1193.94 2288.52,1192.34 2288.3,1190.73 2288.07,1189.13 2287.84,1187.53 2287.61,1185.92 2287.37,1184.32 2287.13,1182.72 2286.89,1181.12 2286.64,1179.51 2286.38,1177.91 2286.12,1176.31 2285.86,1174.7 2285.59,1173.1 2285.32,1171.5 2285.04,1169.89 2284.76,1168.29 2284.48,1166.69 2284.19,1165.09 2283.9,1163.48 2283.6,1161.88 2283.3,1160.28 2283,1158.67 2282.69,1157.07 2282.38,1155.47 2282.06,1153.87 2281.74,1152.26 2281.41,1150.66 2281.08,1149.06 2280.75,1147.46 2280.41,1145.85 2280.07,1144.25 2279.72,1142.65 2279.37,1141.04 2279.02,1139.44 2278.66,1137.84 2278.3,1136.24 2277.93,1134.63 2277.56,1133.03 2277.19,1131.43 2276.81,1129.83 2276.43,1128.22 2276.04,1126.62 2275.65,1125.02 2275.26,1123.42 2274.86,1121.81 2274.46,1120.21 2274.05,1118.61 2273.64,1117.01 2273.23,1115.4 2272.81,1113.8 2272.39,1112.2 2271.97,1110.6 2271.54,1108.99 2271.1,1107.39 2270.66,1105.79 2270.22,1104.19 2269.78,1102.58 2269.33,1100.98 2268.87,1099.38 2268.42,1097.78 2267.96,1096.17 2267.49,1094.57 2267.02,1092.97 2266.55,1091.37 2266.07,1089.76 2265.59,1088.16 2265.1,1086.56 2264.61,1084.96 2264.12,1083.36 2263.62,1081.75 2263.12,1080.15 2262.62,1078.55 2262.11,1076.95 2261.6,1075.35 2261.08,1073.74 2260.56,1072.14 2260.03,1070.54 2259.5,1068.94 2258.97,1067.33 2258.43,1065.73 2257.89,1064.13 2257.35,1062.53 2256.8,1060.93 2256.24,1059.33 2255.69,1057.72 2255.13,1056.12 2254.56,1054.52 2253.99,1052.92 2253.42,1051.32 2252.84,1049.71 2252.26,1048.11 2251.68,1046.51 2251.09,1044.91 2250.49,1043.31 2249.9,1041.7 2249.29,1040.1 2248.69,1038.5 2248.08,1036.9 2247.47,1035.3 2246.85,1033.7 2246.23,1032.09 2245.6,1030.49 2244.97,1028.89 2244.34,1027.29 2243.7,1025.69 2243.06,1024.09 2242.41,1022.49 2241.76,1020.88 2241.1,1019.28 2240.45,1017.68 2239.78,1016.08 2239.12,1014.48 2238.44,1012.88 2237.77,1011.28 2237.09,1009.67 2236.41,1008.07 2235.72,1006.47 2235.03,1004.87 2234.33,1003.27 2233.63,1001.67 2232.93,1000.07 2232.22,998.466 2231.5,996.865 2230.79,995.264 2230.06,993.663 2229.34,992.062 2228.61,990.461 2227.87,988.86 2227.14,987.259 2226.39,985.658 2225.65,984.057 2224.89,982.456 2224.14,980.855 2223.38,979.254 2222.61,977.654 2221.85,976.053 2221.07,974.452 2220.3,972.851 2219.51,971.251 2218.73,969.65 2217.94,968.049 2217.14,966.449 2216.34,964.848 2215.54,963.248 2214.73,961.647 2213.92,960.047 2213.1,958.446 2212.28,956.846 2211.46,955.245 2210.63,953.645 2209.79,952.045 2208.95,950.444 2208.11,948.844 2207.26,947.244 2206.41,945.644 2205.55,944.044 2204.69,942.443 2203.82,940.843 2202.95,939.243 2202.08,937.643 2201.2,936.043 2200.32,934.443 2199.43,932.843 2198.53,931.243 2197.64,929.643 2196.73,928.044 2195.83,926.444 2194.91,924.844 2194,923.244 2193.08,921.645 2192.15,920.045 2191.22,918.445 2190.29,916.846 2189.35,915.246 2188.4,913.647 2187.45,912.047 2186.5,910.448 2185.54,908.848 2184.58,907.249 2183.61,905.649 2182.63,904.05 2181.66,902.451 2180.67,900.852 2179.69,899.252 2178.7,897.653 2177.7,896.054 2176.7,894.455 2175.69,892.856 2174.68,891.257 2173.66,889.658 2172.64,888.059 2171.61,886.46 2170.58,884.862 2169.55,883.263 2168.51,881.664 2167.46,880.065 2166.41,878.467 2165.35,876.868 2164.29,875.27 2163.23,873.671 2162.16,872.073 2161.08,870.474 2160,868.876 2158.91,867.277 2157.82,865.679 2156.73,864.081 2155.63,862.483 2154.52,860.885 2153.41,859.286 2152.29,857.688 2151.17,856.09 2150.04,854.492 2148.91,852.894 2147.77,851.297 2146.63,849.699 2145.48,848.101 2144.33,846.503 2143.17,844.906 2142.01,843.308 2140.84,841.71 2139.67,840.113 2138.49,838.515 2137.3,836.918 2136.11,835.321 2134.92,833.723 2133.72,832.126 2132.51,830.529 2131.3,828.932 2130.09,827.335 2128.86,825.738 2127.64,824.141 2126.4,822.544 2125.17,820.947 2123.92,819.35 2122.67,817.753 2121.42,816.157 2120.16,814.56 2118.89,812.963 2117.62,811.367 2116.34,809.77 2115.06,808.174 2113.77,806.577 2112.48,804.981 2111.18,803.385 2109.88,801.789 2108.57,800.193 2107.25,798.597 2105.93,797.001 2104.6,795.405 2103.27,793.809 2101.93,792.213 2100.58,790.617 2099.23,789.022 2097.88,787.426 2096.51,785.83 2095.15,784.235 2093.77,782.64 2092.39,781.044 2091.01,779.449 2089.62,777.854 2088.22,776.259 2086.82,774.664 2085.41,773.069 2083.99,771.474 2082.57,769.879 2081.14,768.284 2079.71,766.689 2078.27,765.095 2076.83,763.5 2075.38,761.905 2073.92,760.311 2072.46,758.717 2070.99,757.122 2069.51,755.528 2068.03,753.934 2066.55,752.34 2065.05,750.746 2063.55,749.152 2062.05,747.558 2060.53,745.964 2059.02,744.371 2057.49,742.777 2055.96,741.184 2054.42,739.59 2052.88,737.997 2051.33,736.404 2049.77,734.81 2048.21,733.217 2046.64,731.624 2045.07,730.031 2043.49,728.438 2041.9,726.846 2040.3,725.253 2038.7,723.66 2037.09,722.068 2035.48,720.475 2033.86,718.883 2032.23,717.291 2030.6,715.699 2028.96,714.107 2027.31,712.515 2025.66,710.923 2024,709.331 2022.33,707.739 2020.66,706.147 2018.98,704.556 2017.29,702.964 2015.6,701.373 2013.9,699.782 2012.19,698.191 2010.48,696.6 2008.76,695.009 2007.03,693.418 2005.3,691.827 2003.56,690.236 2001.81,688.646 2000.05,687.055 1998.29,685.465 1996.52,683.875 1994.75,682.285 1992.97,680.695 1991.18,679.105 1989.38,677.515 1987.58,675.925 1985.77,674.335 1983.95,672.746 1982.12,671.156 1980.29,669.567 1978.45,667.978 1976.61,666.389 1974.75,664.8 1972.89,663.211 1971.02,661.622 1969.15,660.033 1967.27,658.445 1965.38,656.857 1963.48,655.268 1961.58,653.68 1959.66,652.092 1957.75,650.504 1955.82,648.916 1953.88,647.328 1951.94,645.741 1949.99,644.153 1948.04,642.566 1946.07,640.979 1944.1,639.392 1942.12,637.805 1940.14,636.218 1938.14,634.631 1936.14,633.044 1934.13,631.458 1932.12,629.872 1930.09,628.285 1928.06,626.699 1926.02,625.113 1923.97,623.528 1921.92,621.942 1919.85,620.356 1917.78,618.771 1915.7,617.186 1913.61,615.6 1911.52,614.015 1909.42,612.43 1907.31,610.846 1905.19,609.261 1903.06,607.677 1900.93,606.092 1898.78,604.508 1896.63,602.924 1894.47,601.34 1892.31,599.757 1890.13,598.173 1887.95,596.589 1885.76,595.006 1883.56,593.423 1881.35,591.84 1879.14,590.257 1876.91,588.675 1874.68,587.092 1872.44,585.51 1870.19,583.927 1867.93,582.345 1865.66,580.763 1863.39,579.182 1861.11,577.6 1858.82,576.019 1856.52,574.437 1854.21,572.856 1851.89,571.275 1849.57,569.695 1847.23,568.114 1844.89,566.534 1842.54,564.953 1840.18,563.373 1837.81,561.793 1835.43,560.214 1833.05,558.634 1830.65,557.055 1828.25,555.475 1825.84,553.896 1823.41,552.318 1820.98,550.739 1818.55,549.16 1816.1,547.582 1813.64,546.004 1811.17,544.426 1808.7,542.848 1806.22,541.271 1803.72,539.693 1801.22,538.116 1798.71,536.539 1796.19,534.962 1793.66,533.386 1791.12,531.809 1788.57,530.233 1786.02,528.657 1783.45,527.081 1780.87,525.505 1778.29,523.93 1775.69,522.355 "/>
</svg>
