<?xml version="1.0" encoding="utf-8"?>
<svg xmlns="http://www.w3.org/2000/svg" xmlns:xlink="http://www.w3.org/1999/xlink" width="600" height="400" viewBox="0 0 2400 1600">
<defs>
  <clipPath id="clip080">
    <rect x="0" y="0" width="2400" height="1600"/>
  </clipPath>
</defs>
<path clip-path="url(#clip080)" d="M0 1600 L2400 1600 L2400 0 L0 0  Z" fill="#ffffff" fill-rule="evenodd" fill-opacity="1"/>
<defs>
  <clipPath id="clip081">
    <rect x="250" y="47" width="2104" height="1377"/>
  </clipPath>
</defs>
<path clip-path="url(#clip080)" d="M250.028 1423.18 L2352.76 1423.18 L2352.76 47.2441 L250.028 47.2441  Z" fill="#ffffff" fill-rule="evenodd" fill-opacity="1"/>
<polyline clip-path="url(#clip081)" style="stroke:#000000; stroke-linecap:round; stroke-linejoin:round; stroke-width:2; stroke-opacity:0.1; fill:none" points="363.701,1423.18 363.701,47.2441 "/>
<polyline clip-path="url(#clip081)" style="stroke:#000000; stroke-linecap:round; stroke-linejoin:round; stroke-width:2; stroke-opacity:0.1; fill:none" points="661.193,1423.18 661.193,47.2441 "/>
<polyline clip-path="url(#clip081)" style="stroke:#000000; stroke-linecap:round; stroke-linejoin:round; stroke-width:2; stroke-opacity:0.1; fill:none" points="958.685,1423.18 958.685,47.2441 "/>
<polyline clip-path="url(#clip081)" style="stroke:#000000; stroke-linecap:round; stroke-linejoin:round; stroke-width:2; stroke-opacity:0.1; fill:none" points="1256.18,1423.18 1256.18,47.2441 "/>
<polyline clip-path="url(#clip081)" style="stroke:#000000; stroke-linecap:round; stroke-linejoin:round; stroke-width:2; stroke-opacity:0.1; fill:none" points="1553.67,1423.18 1553.67,47.2441 "/>
<polyline clip-path="url(#clip081)" style="stroke:#000000; stroke-linecap:round; stroke-linejoin:round; stroke-width:2; stroke-opacity:0.1; fill:none" points="1851.16,1423.18 1851.16,47.2441 "/>
<polyline clip-path="url(#clip081)" style="stroke:#000000; stroke-linecap:round; stroke-linejoin:round; stroke-width:2; stroke-opacity:0.1; fill:none" points="2148.65,1423.18 2148.65,47.2441 "/>
<polyline clip-path="url(#clip081)" style="stroke:#000000; stroke-linecap:round; stroke-linejoin:round; stroke-width:2; stroke-opacity:0.1; fill:none" points="250.028,1334.86 2352.76,1334.86 "/>
<polyline clip-path="url(#clip081)" style="stroke:#000000; stroke-linecap:round; stroke-linejoin:round; stroke-width:2; stroke-opacity:0.1; fill:none" points="250.028,1128.1 2352.76,1128.1 "/>
<polyline clip-path="url(#clip081)" style="stroke:#000000; stroke-linecap:round; stroke-linejoin:round; stroke-width:2; stroke-opacity:0.1; fill:none" points="250.028,921.352 2352.76,921.352 "/>
<polyline clip-path="url(#clip081)" style="stroke:#000000; stroke-linecap:round; stroke-linejoin:round; stroke-width:2; stroke-opacity:0.1; fill:none" points="250.028,714.599 2352.76,714.599 "/>
<polyline clip-path="url(#clip081)" style="stroke:#000000; stroke-linecap:round; stroke-linejoin:round; stroke-width:2; stroke-opacity:0.1; fill:none" points="250.028,507.847 2352.76,507.847 "/>
<polyline clip-path="url(#clip081)" style="stroke:#000000; stroke-linecap:round; stroke-linejoin:round; stroke-width:2; stroke-opacity:0.1; fill:none" points="250.028,301.095 2352.76,301.095 "/>
<polyline clip-path="url(#clip081)" style="stroke:#000000; stroke-linecap:round; stroke-linejoin:round; stroke-width:2; stroke-opacity:0.1; fill:none" points="250.028,94.3422 2352.76,94.3422 "/>
<polyline clip-path="url(#clip080)" style="stroke:#000000; stroke-linecap:round; stroke-linejoin:round; stroke-width:4; stroke-opacity:1; fill:none" points="250.028,1423.18 2352.76,1423.18 "/>
<polyline clip-path="url(#clip080)" style="stroke:#000000; stroke-linecap:round; stroke-linejoin:round; stroke-width:4; stroke-opacity:1; fill:none" points="363.701,1423.18 363.701,1404.28 "/>
<polyline clip-path="url(#clip080)" style="stroke:#000000; stroke-linecap:round; stroke-linejoin:round; stroke-width:4; stroke-opacity:1; fill:none" points="661.193,1423.18 661.193,1404.28 "/>
<polyline clip-path="url(#clip080)" style="stroke:#000000; stroke-linecap:round; stroke-linejoin:round; stroke-width:4; stroke-opacity:1; fill:none" points="958.685,1423.18 958.685,1404.28 "/>
<polyline clip-path="url(#clip080)" style="stroke:#000000; stroke-linecap:round; stroke-linejoin:round; stroke-width:4; stroke-opacity:1; fill:none" points="1256.18,1423.18 1256.18,1404.28 "/>
<polyline clip-path="url(#clip080)" style="stroke:#000000; stroke-linecap:round; stroke-linejoin:round; stroke-width:4; stroke-opacity:1; fill:none" points="1553.67,1423.18 1553.67,1404.28 "/>
<polyline clip-path="url(#clip080)" style="stroke:#000000; stroke-linecap:round; stroke-linejoin:round; stroke-width:4; stroke-opacity:1; fill:none" points="1851.16,1423.18 1851.16,1404.28 "/>
<polyline clip-path="url(#clip080)" style="stroke:#000000; stroke-linecap:round; stroke-linejoin:round; stroke-width:4; stroke-opacity:1; fill:none" points="2148.65,1423.18 2148.65,1404.28 "/>
<path clip-path="url(#clip080)" d="M281.561 1454.1 Q277.949 1454.1 276.121 1457.66 Q274.315 1461.2 274.315 1468.33 Q274.315 1475.44 276.121 1479.01 Q277.949 1482.55 281.561 1482.55 Q285.195 1482.55 287 1479.01 Q288.829 1475.44 288.829 1468.33 Q288.829 1461.2 287 1457.66 Q285.195 1454.1 281.561 1454.1 M281.561 1450.39 Q287.371 1450.39 290.426 1455 Q293.505 1459.58 293.505 1468.33 Q293.505 1477.06 290.426 1481.67 Q287.371 1486.25 281.561 1486.25 Q275.75 1486.25 272.672 1481.67 Q269.616 1477.06 269.616 1468.33 Q269.616 1459.58 272.672 1455 Q275.75 1450.39 281.561 1450.39 Z" fill="#000000" fill-rule="nonzero" fill-opacity="1" /><path clip-path="url(#clip080)" d="M301.722 1479.7 L306.607 1479.7 L306.607 1485.58 L301.722 1485.58 L301.722 1479.7 Z" fill="#000000" fill-rule="nonzero" fill-opacity="1" /><path clip-path="url(#clip080)" d="M326.792 1454.1 Q323.181 1454.1 321.352 1457.66 Q319.546 1461.2 319.546 1468.33 Q319.546 1475.44 321.352 1479.01 Q323.181 1482.55 326.792 1482.55 Q330.426 1482.55 332.232 1479.01 Q334.06 1475.44 334.06 1468.33 Q334.06 1461.2 332.232 1457.66 Q330.426 1454.1 326.792 1454.1 M326.792 1450.39 Q332.602 1450.39 335.657 1455 Q338.736 1459.58 338.736 1468.33 Q338.736 1477.06 335.657 1481.67 Q332.602 1486.25 326.792 1486.25 Q320.982 1486.25 317.903 1481.67 Q314.847 1477.06 314.847 1468.33 Q314.847 1459.58 317.903 1455 Q320.982 1450.39 326.792 1450.39 Z" fill="#000000" fill-rule="nonzero" fill-opacity="1" /><path clip-path="url(#clip080)" d="M356.954 1454.1 Q353.343 1454.1 351.514 1457.66 Q349.708 1461.2 349.708 1468.33 Q349.708 1475.44 351.514 1479.01 Q353.343 1482.55 356.954 1482.55 Q360.588 1482.55 362.393 1479.01 Q364.222 1475.44 364.222 1468.33 Q364.222 1461.2 362.393 1457.66 Q360.588 1454.1 356.954 1454.1 M356.954 1450.39 Q362.764 1450.39 365.819 1455 Q368.898 1459.58 368.898 1468.33 Q368.898 1477.06 365.819 1481.67 Q362.764 1486.25 356.954 1486.25 Q351.143 1486.25 348.065 1481.67 Q345.009 1477.06 345.009 1468.33 Q345.009 1459.58 348.065 1455 Q351.143 1450.39 356.954 1450.39 Z" fill="#000000" fill-rule="nonzero" fill-opacity="1" /><path clip-path="url(#clip080)" d="M381.143 1481.64 L397.463 1481.64 L397.463 1485.58 L375.518 1485.58 L375.518 1481.64 Q378.18 1478.89 382.764 1474.26 Q387.37 1469.61 388.551 1468.27 Q390.796 1465.74 391.676 1464.01 Q392.578 1462.25 392.578 1460.56 Q392.578 1457.8 390.634 1456.07 Q388.713 1454.33 385.611 1454.33 Q383.412 1454.33 380.958 1455.09 Q378.528 1455.86 375.75 1457.41 L375.75 1452.69 Q378.574 1451.55 381.028 1450.97 Q383.481 1450.39 385.518 1450.39 Q390.889 1450.39 394.083 1453.08 Q397.277 1455.77 397.277 1460.26 Q397.277 1462.39 396.467 1464.31 Q395.68 1466.2 393.574 1468.8 Q392.995 1469.47 389.893 1472.69 Q386.791 1475.88 381.143 1481.64 Z" fill="#000000" fill-rule="nonzero" fill-opacity="1" /><path clip-path="url(#clip080)" d="M408.088 1481.64 L415.726 1481.64 L415.726 1455.28 L407.416 1456.95 L407.416 1452.69 L415.68 1451.02 L420.356 1451.02 L420.356 1481.64 L427.995 1481.64 L427.995 1485.58 L408.088 1485.58 L408.088 1481.64 Z" fill="#000000" fill-rule="nonzero" fill-opacity="1" /><path clip-path="url(#clip080)" d="M441.467 1481.64 L457.786 1481.64 L457.786 1485.58 L435.842 1485.58 L435.842 1481.64 Q438.504 1478.89 443.087 1474.26 Q447.694 1469.61 448.874 1468.27 Q451.12 1465.74 451.999 1464.01 Q452.902 1462.25 452.902 1460.56 Q452.902 1457.8 450.958 1456.07 Q449.036 1454.33 445.935 1454.33 Q443.736 1454.33 441.282 1455.09 Q438.851 1455.86 436.074 1457.41 L436.074 1452.69 Q438.898 1451.55 441.351 1450.97 Q443.805 1450.39 445.842 1450.39 Q451.212 1450.39 454.407 1453.08 Q457.601 1455.77 457.601 1460.26 Q457.601 1462.39 456.791 1464.31 Q456.004 1466.2 453.898 1468.8 Q453.319 1469.47 450.217 1472.69 Q447.115 1475.88 441.467 1481.64 Z" fill="#000000" fill-rule="nonzero" fill-opacity="1" /><path clip-path="url(#clip080)" d="M578.011 1454.1 Q574.4 1454.1 572.571 1457.66 Q570.765 1461.2 570.765 1468.33 Q570.765 1475.44 572.571 1479.01 Q574.4 1482.55 578.011 1482.55 Q581.645 1482.55 583.451 1479.01 Q585.279 1475.44 585.279 1468.33 Q585.279 1461.2 583.451 1457.66 Q581.645 1454.1 578.011 1454.1 M578.011 1450.39 Q583.821 1450.39 586.876 1455 Q589.955 1459.58 589.955 1468.33 Q589.955 1477.06 586.876 1481.67 Q583.821 1486.25 578.011 1486.25 Q572.201 1486.25 569.122 1481.67 Q566.066 1477.06 566.066 1468.33 Q566.066 1459.58 569.122 1455 Q572.201 1450.39 578.011 1450.39 Z" fill="#000000" fill-rule="nonzero" fill-opacity="1" /><path clip-path="url(#clip080)" d="M598.173 1479.7 L603.057 1479.7 L603.057 1485.58 L598.173 1485.58 L598.173 1479.7 Z" fill="#000000" fill-rule="nonzero" fill-opacity="1" /><path clip-path="url(#clip080)" d="M623.242 1454.1 Q619.631 1454.1 617.802 1457.66 Q615.997 1461.2 615.997 1468.33 Q615.997 1475.44 617.802 1479.01 Q619.631 1482.55 623.242 1482.55 Q626.876 1482.55 628.682 1479.01 Q630.51 1475.44 630.51 1468.33 Q630.51 1461.2 628.682 1457.66 Q626.876 1454.1 623.242 1454.1 M623.242 1450.39 Q629.052 1450.39 632.108 1455 Q635.186 1459.58 635.186 1468.33 Q635.186 1477.06 632.108 1481.67 Q629.052 1486.25 623.242 1486.25 Q617.432 1486.25 614.353 1481.67 Q611.298 1477.06 611.298 1468.33 Q611.298 1459.58 614.353 1455 Q617.432 1450.39 623.242 1450.39 Z" fill="#000000" fill-rule="nonzero" fill-opacity="1" /><path clip-path="url(#clip080)" d="M653.404 1454.1 Q649.793 1454.1 647.964 1457.66 Q646.158 1461.2 646.158 1468.33 Q646.158 1475.44 647.964 1479.01 Q649.793 1482.55 653.404 1482.55 Q657.038 1482.55 658.844 1479.01 Q660.672 1475.44 660.672 1468.33 Q660.672 1461.2 658.844 1457.66 Q657.038 1454.1 653.404 1454.1 M653.404 1450.39 Q659.214 1450.39 662.27 1455 Q665.348 1459.58 665.348 1468.33 Q665.348 1477.06 662.27 1481.67 Q659.214 1486.25 653.404 1486.25 Q647.594 1486.25 644.515 1481.67 Q641.459 1477.06 641.459 1468.33 Q641.459 1459.58 644.515 1455 Q647.594 1450.39 653.404 1450.39 Z" fill="#000000" fill-rule="nonzero" fill-opacity="1" /><path clip-path="url(#clip080)" d="M677.594 1481.64 L693.913 1481.64 L693.913 1485.58 L671.969 1485.58 L671.969 1481.64 Q674.631 1478.89 679.214 1474.26 Q683.82 1469.61 685.001 1468.27 Q687.246 1465.74 688.126 1464.01 Q689.029 1462.25 689.029 1460.56 Q689.029 1457.8 687.084 1456.07 Q685.163 1454.33 682.061 1454.33 Q679.862 1454.33 677.408 1455.09 Q674.978 1455.86 672.2 1457.41 L672.2 1452.69 Q675.024 1451.55 677.478 1450.97 Q679.931 1450.39 681.968 1450.39 Q687.339 1450.39 690.533 1453.08 Q693.728 1455.77 693.728 1460.26 Q693.728 1462.39 692.918 1464.31 Q692.13 1466.2 690.024 1468.8 Q689.445 1469.47 686.343 1472.69 Q683.242 1475.88 677.594 1481.64 Z" fill="#000000" fill-rule="nonzero" fill-opacity="1" /><path clip-path="url(#clip080)" d="M704.538 1481.64 L712.177 1481.64 L712.177 1455.28 L703.867 1456.95 L703.867 1452.69 L712.13 1451.02 L716.806 1451.02 L716.806 1481.64 L724.445 1481.64 L724.445 1485.58 L704.538 1485.58 L704.538 1481.64 Z" fill="#000000" fill-rule="nonzero" fill-opacity="1" /><path clip-path="url(#clip080)" d="M746.737 1455.09 L734.931 1473.54 L746.737 1473.54 L746.737 1455.09 M745.51 1451.02 L751.389 1451.02 L751.389 1473.54 L756.32 1473.54 L756.32 1477.43 L751.389 1477.43 L751.389 1485.58 L746.737 1485.58 L746.737 1477.43 L731.135 1477.43 L731.135 1472.92 L745.51 1451.02 Z" fill="#000000" fill-rule="nonzero" fill-opacity="1" /><path clip-path="url(#clip080)" d="M875.665 1454.1 Q872.054 1454.1 870.225 1457.66 Q868.419 1461.2 868.419 1468.33 Q868.419 1475.44 870.225 1479.01 Q872.054 1482.55 875.665 1482.55 Q879.299 1482.55 881.104 1479.01 Q882.933 1475.44 882.933 1468.33 Q882.933 1461.2 881.104 1457.66 Q879.299 1454.1 875.665 1454.1 M875.665 1450.39 Q881.475 1450.39 884.53 1455 Q887.609 1459.58 887.609 1468.33 Q887.609 1477.06 884.53 1481.67 Q881.475 1486.25 875.665 1486.25 Q869.854 1486.25 866.776 1481.67 Q863.72 1477.06 863.72 1468.33 Q863.72 1459.58 866.776 1455 Q869.854 1450.39 875.665 1450.39 Z" fill="#000000" fill-rule="nonzero" fill-opacity="1" /><path clip-path="url(#clip080)" d="M895.827 1479.7 L900.711 1479.7 L900.711 1485.58 L895.827 1485.58 L895.827 1479.7 Z" fill="#000000" fill-rule="nonzero" fill-opacity="1" /><path clip-path="url(#clip080)" d="M920.896 1454.1 Q917.285 1454.1 915.456 1457.66 Q913.651 1461.2 913.651 1468.33 Q913.651 1475.44 915.456 1479.01 Q917.285 1482.55 920.896 1482.55 Q924.53 1482.55 926.336 1479.01 Q928.164 1475.44 928.164 1468.33 Q928.164 1461.2 926.336 1457.66 Q924.53 1454.1 920.896 1454.1 M920.896 1450.39 Q926.706 1450.39 929.762 1455 Q932.84 1459.58 932.84 1468.33 Q932.84 1477.06 929.762 1481.67 Q926.706 1486.25 920.896 1486.25 Q915.086 1486.25 912.007 1481.67 Q908.951 1477.06 908.951 1468.33 Q908.951 1459.58 912.007 1455 Q915.086 1450.39 920.896 1450.39 Z" fill="#000000" fill-rule="nonzero" fill-opacity="1" /><path clip-path="url(#clip080)" d="M951.058 1454.1 Q947.447 1454.1 945.618 1457.66 Q943.812 1461.2 943.812 1468.33 Q943.812 1475.44 945.618 1479.01 Q947.447 1482.55 951.058 1482.55 Q954.692 1482.55 956.498 1479.01 Q958.326 1475.44 958.326 1468.33 Q958.326 1461.2 956.498 1457.66 Q954.692 1454.1 951.058 1454.1 M951.058 1450.39 Q956.868 1450.39 959.923 1455 Q963.002 1459.58 963.002 1468.33 Q963.002 1477.06 959.923 1481.67 Q956.868 1486.25 951.058 1486.25 Q945.248 1486.25 942.169 1481.67 Q939.113 1477.06 939.113 1468.33 Q939.113 1459.58 942.169 1455 Q945.248 1450.39 951.058 1450.39 Z" fill="#000000" fill-rule="nonzero" fill-opacity="1" /><path clip-path="url(#clip080)" d="M975.247 1481.64 L991.567 1481.64 L991.567 1485.58 L969.622 1485.58 L969.622 1481.64 Q972.284 1478.89 976.868 1474.26 Q981.474 1469.61 982.655 1468.27 Q984.9 1465.74 985.78 1464.01 Q986.683 1462.25 986.683 1460.56 Q986.683 1457.8 984.738 1456.07 Q982.817 1454.33 979.715 1454.33 Q977.516 1454.33 975.062 1455.09 Q972.632 1455.86 969.854 1457.41 L969.854 1452.69 Q972.678 1451.55 975.132 1450.97 Q977.585 1450.39 979.622 1450.39 Q984.993 1450.39 988.187 1453.08 Q991.382 1455.77 991.382 1460.26 Q991.382 1462.39 990.571 1464.31 Q989.784 1466.2 987.678 1468.8 Q987.099 1469.47 983.997 1472.69 Q980.896 1475.88 975.247 1481.64 Z" fill="#000000" fill-rule="nonzero" fill-opacity="1" /><path clip-path="url(#clip080)" d="M1002.19 1481.64 L1009.83 1481.64 L1009.83 1455.28 L1001.52 1456.95 L1001.52 1452.69 L1009.78 1451.02 L1014.46 1451.02 L1014.46 1481.64 L1022.1 1481.64 L1022.1 1485.58 L1002.19 1485.58 L1002.19 1481.64 Z" fill="#000000" fill-rule="nonzero" fill-opacity="1" /><path clip-path="url(#clip080)" d="M1042.12 1466.44 Q1038.97 1466.44 1037.12 1468.59 Q1035.29 1470.74 1035.29 1474.49 Q1035.29 1478.22 1037.12 1480.39 Q1038.97 1482.55 1042.12 1482.55 Q1045.27 1482.55 1047.1 1480.39 Q1048.95 1478.22 1048.95 1474.49 Q1048.95 1470.74 1047.1 1468.59 Q1045.27 1466.44 1042.12 1466.44 M1051.4 1451.78 L1051.4 1456.04 Q1049.65 1455.21 1047.84 1454.77 Q1046.06 1454.33 1044.3 1454.33 Q1039.67 1454.33 1037.21 1457.45 Q1034.78 1460.58 1034.44 1466.9 Q1035.8 1464.89 1037.86 1463.82 Q1039.92 1462.73 1042.4 1462.73 Q1047.61 1462.73 1050.62 1465.9 Q1053.65 1469.05 1053.65 1474.49 Q1053.65 1479.82 1050.5 1483.03 Q1047.35 1486.25 1042.12 1486.25 Q1036.13 1486.25 1032.96 1481.67 Q1029.78 1477.06 1029.78 1468.33 Q1029.78 1460.14 1033.67 1455.28 Q1037.56 1450.39 1044.11 1450.39 Q1045.87 1450.39 1047.65 1450.74 Q1049.46 1451.09 1051.4 1451.78 Z" fill="#000000" fill-rule="nonzero" fill-opacity="1" /><path clip-path="url(#clip080)" d="M1173.28 1454.1 Q1169.67 1454.1 1167.84 1457.66 Q1166.04 1461.2 1166.04 1468.33 Q1166.04 1475.44 1167.84 1479.01 Q1169.67 1482.55 1173.28 1482.55 Q1176.92 1482.55 1178.72 1479.01 Q1180.55 1475.44 1180.55 1468.33 Q1180.55 1461.2 1178.72 1457.66 Q1176.92 1454.1 1173.28 1454.1 M1173.28 1450.39 Q1179.09 1450.39 1182.15 1455 Q1185.23 1459.58 1185.23 1468.33 Q1185.23 1477.06 1182.15 1481.67 Q1179.09 1486.25 1173.28 1486.25 Q1167.47 1486.25 1164.39 1481.67 Q1161.34 1477.06 1161.34 1468.33 Q1161.34 1459.58 1164.39 1455 Q1167.47 1450.39 1173.28 1450.39 Z" fill="#000000" fill-rule="nonzero" fill-opacity="1" /><path clip-path="url(#clip080)" d="M1193.45 1479.7 L1198.33 1479.7 L1198.33 1485.58 L1193.45 1485.58 L1193.45 1479.7 Z" fill="#000000" fill-rule="nonzero" fill-opacity="1" /><path clip-path="url(#clip080)" d="M1218.52 1454.1 Q1214.9 1454.1 1213.08 1457.66 Q1211.27 1461.2 1211.27 1468.33 Q1211.27 1475.44 1213.08 1479.01 Q1214.9 1482.55 1218.52 1482.55 Q1222.15 1482.55 1223.95 1479.01 Q1225.78 1475.44 1225.78 1468.33 Q1225.78 1461.2 1223.95 1457.66 Q1222.15 1454.1 1218.52 1454.1 M1218.52 1450.39 Q1224.33 1450.39 1227.38 1455 Q1230.46 1459.58 1230.46 1468.33 Q1230.46 1477.06 1227.38 1481.67 Q1224.33 1486.25 1218.52 1486.25 Q1212.7 1486.25 1209.63 1481.67 Q1206.57 1477.06 1206.57 1468.33 Q1206.57 1459.58 1209.63 1455 Q1212.7 1450.39 1218.52 1450.39 Z" fill="#000000" fill-rule="nonzero" fill-opacity="1" /><path clip-path="url(#clip080)" d="M1248.68 1454.1 Q1245.07 1454.1 1243.24 1457.66 Q1241.43 1461.2 1241.43 1468.33 Q1241.43 1475.44 1243.24 1479.01 Q1245.07 1482.55 1248.68 1482.55 Q1252.31 1482.55 1254.12 1479.01 Q1255.95 1475.44 1255.95 1468.33 Q1255.95 1461.2 1254.12 1457.66 Q1252.31 1454.1 1248.68 1454.1 M1248.68 1450.39 Q1254.49 1450.39 1257.54 1455 Q1260.62 1459.58 1260.62 1468.33 Q1260.62 1477.06 1257.54 1481.67 Q1254.49 1486.25 1248.68 1486.25 Q1242.87 1486.25 1239.79 1481.67 Q1236.73 1477.06 1236.73 1468.33 Q1236.73 1459.58 1239.79 1455 Q1242.87 1450.39 1248.68 1450.39 Z" fill="#000000" fill-rule="nonzero" fill-opacity="1" /><path clip-path="url(#clip080)" d="M1272.87 1481.64 L1289.19 1481.64 L1289.19 1485.58 L1267.24 1485.58 L1267.24 1481.64 Q1269.9 1478.89 1274.49 1474.26 Q1279.09 1469.61 1280.27 1468.27 Q1282.52 1465.74 1283.4 1464.01 Q1284.3 1462.25 1284.3 1460.56 Q1284.3 1457.8 1282.36 1456.07 Q1280.44 1454.33 1277.33 1454.33 Q1275.14 1454.33 1272.68 1455.09 Q1270.25 1455.86 1267.47 1457.41 L1267.47 1452.69 Q1270.3 1451.55 1272.75 1450.97 Q1275.2 1450.39 1277.24 1450.39 Q1282.61 1450.39 1285.81 1453.08 Q1289 1455.77 1289 1460.26 Q1289 1462.39 1288.19 1464.31 Q1287.4 1466.2 1285.3 1468.8 Q1284.72 1469.47 1281.62 1472.69 Q1278.51 1475.88 1272.87 1481.64 Z" fill="#000000" fill-rule="nonzero" fill-opacity="1" /><path clip-path="url(#clip080)" d="M1299.81 1481.64 L1307.45 1481.64 L1307.45 1455.28 L1299.14 1456.95 L1299.14 1452.69 L1307.4 1451.02 L1312.08 1451.02 L1312.08 1481.64 L1319.72 1481.64 L1319.72 1485.58 L1299.81 1485.58 L1299.81 1481.64 Z" fill="#000000" fill-rule="nonzero" fill-opacity="1" /><path clip-path="url(#clip080)" d="M1339.16 1469.17 Q1335.83 1469.17 1333.91 1470.95 Q1332.01 1472.73 1332.01 1475.86 Q1332.01 1478.98 1333.91 1480.77 Q1335.83 1482.55 1339.16 1482.55 Q1342.5 1482.55 1344.42 1480.77 Q1346.34 1478.96 1346.34 1475.86 Q1346.34 1472.73 1344.42 1470.95 Q1342.52 1469.17 1339.16 1469.17 M1334.49 1467.18 Q1331.48 1466.44 1329.79 1464.38 Q1328.12 1462.32 1328.12 1459.35 Q1328.12 1455.21 1331.06 1452.8 Q1334.02 1450.39 1339.16 1450.39 Q1344.32 1450.39 1347.26 1452.8 Q1350.2 1455.21 1350.2 1459.35 Q1350.2 1462.32 1348.51 1464.38 Q1346.85 1466.44 1343.86 1467.18 Q1347.24 1467.96 1349.12 1470.26 Q1351.01 1472.55 1351.01 1475.86 Q1351.01 1480.88 1347.94 1483.57 Q1344.88 1486.25 1339.16 1486.25 Q1333.44 1486.25 1330.37 1483.57 Q1327.31 1480.88 1327.31 1475.86 Q1327.31 1472.55 1329.21 1470.26 Q1331.11 1467.96 1334.49 1467.18 M1332.77 1459.79 Q1332.77 1462.48 1334.44 1463.98 Q1336.13 1465.49 1339.16 1465.49 Q1342.17 1465.49 1343.86 1463.98 Q1345.57 1462.48 1345.57 1459.79 Q1345.57 1457.11 1343.86 1455.6 Q1342.17 1454.1 1339.16 1454.1 Q1336.13 1454.1 1334.44 1455.6 Q1332.77 1457.11 1332.77 1459.79 Z" fill="#000000" fill-rule="nonzero" fill-opacity="1" /><path clip-path="url(#clip080)" d="M1470.73 1454.1 Q1467.12 1454.1 1465.29 1457.66 Q1463.48 1461.2 1463.48 1468.33 Q1463.48 1475.44 1465.29 1479.01 Q1467.12 1482.55 1470.73 1482.55 Q1474.36 1482.55 1476.17 1479.01 Q1478 1475.44 1478 1468.33 Q1478 1461.2 1476.17 1457.66 Q1474.36 1454.1 1470.73 1454.1 M1470.73 1450.39 Q1476.54 1450.39 1479.6 1455 Q1482.67 1459.58 1482.67 1468.33 Q1482.67 1477.06 1479.6 1481.67 Q1476.54 1486.25 1470.73 1486.25 Q1464.92 1486.25 1461.84 1481.67 Q1458.79 1477.06 1458.79 1468.33 Q1458.79 1459.58 1461.84 1455 Q1464.92 1450.39 1470.73 1450.39 Z" fill="#000000" fill-rule="nonzero" fill-opacity="1" /><path clip-path="url(#clip080)" d="M1490.89 1479.7 L1495.78 1479.7 L1495.78 1485.58 L1490.89 1485.58 L1490.89 1479.7 Z" fill="#000000" fill-rule="nonzero" fill-opacity="1" /><path clip-path="url(#clip080)" d="M1515.96 1454.1 Q1512.35 1454.1 1510.52 1457.66 Q1508.72 1461.2 1508.72 1468.33 Q1508.72 1475.44 1510.52 1479.01 Q1512.35 1482.55 1515.96 1482.55 Q1519.59 1482.55 1521.4 1479.01 Q1523.23 1475.44 1523.23 1468.33 Q1523.23 1461.2 1521.4 1457.66 Q1519.59 1454.1 1515.96 1454.1 M1515.96 1450.39 Q1521.77 1450.39 1524.83 1455 Q1527.91 1459.58 1527.91 1468.33 Q1527.91 1477.06 1524.83 1481.67 Q1521.77 1486.25 1515.96 1486.25 Q1510.15 1486.25 1507.07 1481.67 Q1504.02 1477.06 1504.02 1468.33 Q1504.02 1459.58 1507.07 1455 Q1510.15 1450.39 1515.96 1450.39 Z" fill="#000000" fill-rule="nonzero" fill-opacity="1" /><path clip-path="url(#clip080)" d="M1546.12 1454.1 Q1542.51 1454.1 1540.68 1457.66 Q1538.88 1461.2 1538.88 1468.33 Q1538.88 1475.44 1540.68 1479.01 Q1542.51 1482.55 1546.12 1482.55 Q1549.76 1482.55 1551.56 1479.01 Q1553.39 1475.44 1553.39 1468.33 Q1553.39 1461.2 1551.56 1457.66 Q1549.76 1454.1 1546.12 1454.1 M1546.12 1450.39 Q1551.93 1450.39 1554.99 1455 Q1558.07 1459.58 1558.07 1468.33 Q1558.07 1477.06 1554.99 1481.67 Q1551.93 1486.25 1546.12 1486.25 Q1540.31 1486.25 1537.23 1481.67 Q1534.18 1477.06 1534.18 1468.33 Q1534.18 1459.58 1537.23 1455 Q1540.31 1450.39 1546.12 1450.39 Z" fill="#000000" fill-rule="nonzero" fill-opacity="1" /><path clip-path="url(#clip080)" d="M1570.31 1481.64 L1586.63 1481.64 L1586.63 1485.58 L1564.69 1485.58 L1564.69 1481.64 Q1567.35 1478.89 1571.93 1474.26 Q1576.54 1469.61 1577.72 1468.27 Q1579.96 1465.74 1580.84 1464.01 Q1581.75 1462.25 1581.75 1460.56 Q1581.75 1457.8 1579.8 1456.07 Q1577.88 1454.33 1574.78 1454.33 Q1572.58 1454.33 1570.13 1455.09 Q1567.7 1455.86 1564.92 1457.41 L1564.92 1452.69 Q1567.74 1451.55 1570.2 1450.97 Q1572.65 1450.39 1574.69 1450.39 Q1580.06 1450.39 1583.25 1453.08 Q1586.45 1455.77 1586.45 1460.26 Q1586.45 1462.39 1585.64 1464.31 Q1584.85 1466.2 1582.74 1468.8 Q1582.16 1469.47 1579.06 1472.69 Q1575.96 1475.88 1570.31 1481.64 Z" fill="#000000" fill-rule="nonzero" fill-opacity="1" /><path clip-path="url(#clip080)" d="M1600.47 1481.64 L1616.79 1481.64 L1616.79 1485.58 L1594.85 1485.58 L1594.85 1481.64 Q1597.51 1478.89 1602.09 1474.26 Q1606.7 1469.61 1607.88 1468.27 Q1610.13 1465.74 1611.01 1464.01 Q1611.91 1462.25 1611.91 1460.56 Q1611.91 1457.8 1609.96 1456.07 Q1608.04 1454.33 1604.94 1454.33 Q1602.74 1454.33 1600.29 1455.09 Q1597.86 1455.86 1595.08 1457.41 L1595.08 1452.69 Q1597.9 1451.55 1600.36 1450.97 Q1602.81 1450.39 1604.85 1450.39 Q1610.22 1450.39 1613.41 1453.08 Q1616.61 1455.77 1616.61 1460.26 Q1616.61 1462.39 1615.8 1464.31 Q1615.01 1466.2 1612.9 1468.8 Q1612.33 1469.47 1609.22 1472.69 Q1606.12 1475.88 1600.47 1481.64 Z" fill="#000000" fill-rule="nonzero" fill-opacity="1" /><path clip-path="url(#clip080)" d="M1636.61 1454.1 Q1633 1454.1 1631.17 1457.66 Q1629.36 1461.2 1629.36 1468.33 Q1629.36 1475.44 1631.17 1479.01 Q1633 1482.55 1636.61 1482.55 Q1640.24 1482.55 1642.05 1479.01 Q1643.88 1475.44 1643.88 1468.33 Q1643.88 1461.2 1642.05 1457.66 Q1640.24 1454.1 1636.61 1454.1 M1636.61 1450.39 Q1642.42 1450.39 1645.47 1455 Q1648.55 1459.58 1648.55 1468.33 Q1648.55 1477.06 1645.47 1481.67 Q1642.42 1486.25 1636.61 1486.25 Q1630.8 1486.25 1627.72 1481.67 Q1624.66 1477.06 1624.66 1468.33 Q1624.66 1459.58 1627.72 1455 Q1630.8 1450.39 1636.61 1450.39 Z" fill="#000000" fill-rule="nonzero" fill-opacity="1" /><path clip-path="url(#clip080)" d="M1769.02 1454.1 Q1765.41 1454.1 1763.58 1457.66 Q1761.77 1461.2 1761.77 1468.33 Q1761.77 1475.44 1763.58 1479.01 Q1765.41 1482.55 1769.02 1482.55 Q1772.65 1482.55 1774.46 1479.01 Q1776.29 1475.44 1776.29 1468.33 Q1776.29 1461.2 1774.46 1457.66 Q1772.65 1454.1 1769.02 1454.1 M1769.02 1450.39 Q1774.83 1450.39 1777.89 1455 Q1780.96 1459.58 1780.96 1468.33 Q1780.96 1477.06 1777.89 1481.67 Q1774.83 1486.25 1769.02 1486.25 Q1763.21 1486.25 1760.13 1481.67 Q1757.08 1477.06 1757.08 1468.33 Q1757.08 1459.58 1760.13 1455 Q1763.21 1450.39 1769.02 1450.39 Z" fill="#000000" fill-rule="nonzero" fill-opacity="1" /><path clip-path="url(#clip080)" d="M1789.18 1479.7 L1794.07 1479.7 L1794.07 1485.58 L1789.18 1485.58 L1789.18 1479.7 Z" fill="#000000" fill-rule="nonzero" fill-opacity="1" /><path clip-path="url(#clip080)" d="M1814.25 1454.1 Q1810.64 1454.1 1808.81 1457.66 Q1807.01 1461.2 1807.01 1468.33 Q1807.01 1475.44 1808.81 1479.01 Q1810.64 1482.55 1814.25 1482.55 Q1817.89 1482.55 1819.69 1479.01 Q1821.52 1475.44 1821.52 1468.33 Q1821.52 1461.2 1819.69 1457.66 Q1817.89 1454.1 1814.25 1454.1 M1814.25 1450.39 Q1820.06 1450.39 1823.12 1455 Q1826.2 1459.58 1826.2 1468.33 Q1826.2 1477.06 1823.12 1481.67 Q1820.06 1486.25 1814.25 1486.25 Q1808.44 1486.25 1805.36 1481.67 Q1802.31 1477.06 1802.31 1468.33 Q1802.31 1459.58 1805.36 1455 Q1808.44 1450.39 1814.25 1450.39 Z" fill="#000000" fill-rule="nonzero" fill-opacity="1" /><path clip-path="url(#clip080)" d="M1844.41 1454.1 Q1840.8 1454.1 1838.97 1457.66 Q1837.17 1461.2 1837.17 1468.33 Q1837.17 1475.44 1838.97 1479.01 Q1840.8 1482.55 1844.41 1482.55 Q1848.05 1482.55 1849.85 1479.01 Q1851.68 1475.44 1851.68 1468.33 Q1851.68 1461.2 1849.85 1457.66 Q1848.05 1454.1 1844.41 1454.1 M1844.41 1450.39 Q1850.22 1450.39 1853.28 1455 Q1856.36 1459.58 1856.36 1468.33 Q1856.36 1477.06 1853.28 1481.67 Q1850.22 1486.25 1844.41 1486.25 Q1838.6 1486.25 1835.52 1481.67 Q1832.47 1477.06 1832.47 1468.33 Q1832.47 1459.58 1835.52 1455 Q1838.6 1450.39 1844.41 1450.39 Z" fill="#000000" fill-rule="nonzero" fill-opacity="1" /><path clip-path="url(#clip080)" d="M1868.6 1481.64 L1884.92 1481.64 L1884.92 1485.58 L1862.98 1485.58 L1862.98 1481.64 Q1865.64 1478.89 1870.22 1474.26 Q1874.83 1469.61 1876.01 1468.27 Q1878.26 1465.74 1879.14 1464.01 Q1880.04 1462.25 1880.04 1460.56 Q1880.04 1457.8 1878.09 1456.07 Q1876.17 1454.33 1873.07 1454.33 Q1870.87 1454.33 1868.42 1455.09 Q1865.99 1455.86 1863.21 1457.41 L1863.21 1452.69 Q1866.03 1451.55 1868.49 1450.97 Q1870.94 1450.39 1872.98 1450.39 Q1878.35 1450.39 1881.54 1453.08 Q1884.74 1455.77 1884.74 1460.26 Q1884.74 1462.39 1883.93 1464.31 Q1883.14 1466.2 1881.03 1468.8 Q1880.45 1469.47 1877.35 1472.69 Q1874.25 1475.88 1868.6 1481.64 Z" fill="#000000" fill-rule="nonzero" fill-opacity="1" /><path clip-path="url(#clip080)" d="M1898.76 1481.64 L1915.08 1481.64 L1915.08 1485.58 L1893.14 1485.58 L1893.14 1481.64 Q1895.8 1478.89 1900.38 1474.26 Q1904.99 1469.61 1906.17 1468.27 Q1908.42 1465.74 1909.3 1464.01 Q1910.2 1462.25 1910.2 1460.56 Q1910.2 1457.8 1908.26 1456.07 Q1906.33 1454.33 1903.23 1454.33 Q1901.03 1454.33 1898.58 1455.09 Q1896.15 1455.86 1893.37 1457.41 L1893.37 1452.69 Q1896.2 1451.55 1898.65 1450.97 Q1901.1 1450.39 1903.14 1450.39 Q1908.51 1450.39 1911.7 1453.08 Q1914.9 1455.77 1914.9 1460.26 Q1914.9 1462.39 1914.09 1464.31 Q1913.3 1466.2 1911.2 1468.8 Q1910.62 1469.47 1907.51 1472.69 Q1904.41 1475.88 1898.76 1481.64 Z" fill="#000000" fill-rule="nonzero" fill-opacity="1" /><path clip-path="url(#clip080)" d="M1928.93 1481.64 L1945.25 1481.64 L1945.25 1485.58 L1923.3 1485.58 L1923.3 1481.64 Q1925.96 1478.89 1930.55 1474.26 Q1935.15 1469.61 1936.33 1468.27 Q1938.58 1465.74 1939.46 1464.01 Q1940.36 1462.25 1940.36 1460.56 Q1940.36 1457.8 1938.42 1456.07 Q1936.5 1454.33 1933.39 1454.33 Q1931.19 1454.33 1928.74 1455.09 Q1926.31 1455.86 1923.53 1457.41 L1923.53 1452.69 Q1926.36 1451.55 1928.81 1450.97 Q1931.26 1450.39 1933.3 1450.39 Q1938.67 1450.39 1941.87 1453.08 Q1945.06 1455.77 1945.06 1460.26 Q1945.06 1462.39 1944.25 1464.31 Q1943.46 1466.2 1941.36 1468.8 Q1940.78 1469.47 1937.68 1472.69 Q1934.57 1475.88 1928.93 1481.64 Z" fill="#000000" fill-rule="nonzero" fill-opacity="1" /><path clip-path="url(#clip080)" d="M2065.47 1454.1 Q2061.86 1454.1 2060.03 1457.66 Q2058.22 1461.2 2058.22 1468.33 Q2058.22 1475.44 2060.03 1479.01 Q2061.86 1482.55 2065.47 1482.55 Q2069.1 1482.55 2070.91 1479.01 Q2072.74 1475.44 2072.74 1468.33 Q2072.74 1461.2 2070.91 1457.66 Q2069.1 1454.1 2065.47 1454.1 M2065.47 1450.39 Q2071.28 1450.39 2074.34 1455 Q2077.41 1459.58 2077.41 1468.33 Q2077.41 1477.06 2074.34 1481.67 Q2071.28 1486.25 2065.47 1486.25 Q2059.66 1486.25 2056.58 1481.67 Q2053.53 1477.06 2053.53 1468.33 Q2053.53 1459.58 2056.58 1455 Q2059.66 1450.39 2065.47 1450.39 Z" fill="#000000" fill-rule="nonzero" fill-opacity="1" /><path clip-path="url(#clip080)" d="M2085.63 1479.7 L2090.52 1479.7 L2090.52 1485.58 L2085.63 1485.58 L2085.63 1479.7 Z" fill="#000000" fill-rule="nonzero" fill-opacity="1" /><path clip-path="url(#clip080)" d="M2110.7 1454.1 Q2107.09 1454.1 2105.26 1457.66 Q2103.46 1461.2 2103.46 1468.33 Q2103.46 1475.44 2105.26 1479.01 Q2107.09 1482.55 2110.7 1482.55 Q2114.34 1482.55 2116.14 1479.01 Q2117.97 1475.44 2117.97 1468.33 Q2117.97 1461.2 2116.14 1457.66 Q2114.34 1454.1 2110.7 1454.1 M2110.7 1450.39 Q2116.51 1450.39 2119.57 1455 Q2122.65 1459.58 2122.65 1468.33 Q2122.65 1477.06 2119.57 1481.67 Q2116.51 1486.25 2110.7 1486.25 Q2104.89 1486.25 2101.81 1481.67 Q2098.76 1477.06 2098.76 1468.33 Q2098.76 1459.58 2101.81 1455 Q2104.89 1450.39 2110.7 1450.39 Z" fill="#000000" fill-rule="nonzero" fill-opacity="1" /><path clip-path="url(#clip080)" d="M2140.86 1454.1 Q2137.25 1454.1 2135.42 1457.66 Q2133.62 1461.2 2133.62 1468.33 Q2133.62 1475.44 2135.42 1479.01 Q2137.25 1482.55 2140.86 1482.55 Q2144.5 1482.55 2146.3 1479.01 Q2148.13 1475.44 2148.13 1468.33 Q2148.13 1461.2 2146.3 1457.66 Q2144.5 1454.1 2140.86 1454.1 M2140.86 1450.39 Q2146.67 1450.39 2149.73 1455 Q2152.81 1459.58 2152.81 1468.33 Q2152.81 1477.06 2149.73 1481.67 Q2146.67 1486.25 2140.86 1486.25 Q2135.05 1486.25 2131.97 1481.67 Q2128.92 1477.06 2128.92 1468.33 Q2128.92 1459.58 2131.97 1455 Q2135.05 1450.39 2140.86 1450.39 Z" fill="#000000" fill-rule="nonzero" fill-opacity="1" /><path clip-path="url(#clip080)" d="M2165.05 1481.64 L2181.37 1481.64 L2181.37 1485.58 L2159.43 1485.58 L2159.43 1481.64 Q2162.09 1478.89 2166.67 1474.26 Q2171.28 1469.61 2172.46 1468.27 Q2174.71 1465.74 2175.59 1464.01 Q2176.49 1462.25 2176.49 1460.56 Q2176.49 1457.8 2174.54 1456.07 Q2172.62 1454.33 2169.52 1454.33 Q2167.32 1454.33 2164.87 1455.09 Q2162.44 1455.86 2159.66 1457.41 L2159.66 1452.69 Q2162.48 1451.55 2164.94 1450.97 Q2167.39 1450.39 2169.43 1450.39 Q2174.8 1450.39 2177.99 1453.08 Q2181.19 1455.77 2181.19 1460.26 Q2181.19 1462.39 2180.38 1464.31 Q2179.59 1466.2 2177.48 1468.8 Q2176.9 1469.47 2173.8 1472.69 Q2170.7 1475.88 2165.05 1481.64 Z" fill="#000000" fill-rule="nonzero" fill-opacity="1" /><path clip-path="url(#clip080)" d="M2195.21 1481.64 L2211.53 1481.64 L2211.53 1485.58 L2189.59 1485.58 L2189.59 1481.64 Q2192.25 1478.89 2196.84 1474.26 Q2201.44 1469.61 2202.62 1468.27 Q2204.87 1465.74 2205.75 1464.01 Q2206.65 1462.25 2206.65 1460.56 Q2206.65 1457.8 2204.71 1456.07 Q2202.78 1454.33 2199.68 1454.33 Q2197.48 1454.33 2195.03 1455.09 Q2192.6 1455.86 2189.82 1457.41 L2189.82 1452.69 Q2192.65 1451.55 2195.1 1450.97 Q2197.55 1450.39 2199.59 1450.39 Q2204.96 1450.39 2208.15 1453.08 Q2211.35 1455.77 2211.35 1460.26 Q2211.35 1462.39 2210.54 1464.31 Q2209.75 1466.2 2207.65 1468.8 Q2207.07 1469.47 2203.96 1472.69 Q2200.86 1475.88 2195.21 1481.64 Z" fill="#000000" fill-rule="nonzero" fill-opacity="1" /><path clip-path="url(#clip080)" d="M2234.2 1455.09 L2222.39 1473.54 L2234.2 1473.54 L2234.2 1455.09 M2232.97 1451.02 L2238.85 1451.02 L2238.85 1473.54 L2243.78 1473.54 L2243.78 1477.43 L2238.85 1477.43 L2238.85 1485.58 L2234.2 1485.58 L2234.2 1477.43 L2218.59 1477.43 L2218.59 1472.92 L2232.97 1451.02 Z" fill="#000000" fill-rule="nonzero" fill-opacity="1" /><path clip-path="url(#clip080)" d="M1291.88 1565.85 L1291.88 1581.6 L1285.99 1581.6 L1285.99 1532.62 Q1285.99 1518.1 1299.55 1518.1 Q1313.36 1518.1 1313.36 1530.36 Q1313.36 1539.08 1307.89 1542.26 Q1316.8 1545.13 1316.8 1553.63 Q1316.8 1568.71 1301.46 1568.71 Q1294.71 1568.71 1291.88 1565.85 M1291.88 1558.21 Q1295.41 1563.72 1301.68 1563.72 Q1310.85 1563.72 1310.85 1553.72 Q1310.85 1544.75 1296.08 1545.45 L1296.08 1540.03 Q1307.63 1540.03 1307.63 1529.85 Q1307.63 1522.88 1300.18 1522.88 Q1291.88 1522.88 1291.88 1532.81 L1291.88 1558.21 Z" fill="#000000" fill-rule="nonzero" fill-opacity="1" /><polyline clip-path="url(#clip080)" style="stroke:#000000; stroke-linecap:round; stroke-linejoin:round; stroke-width:4; stroke-opacity:1; fill:none" points="250.028,1423.18 250.028,47.2441 "/>
<polyline clip-path="url(#clip080)" style="stroke:#000000; stroke-linecap:round; stroke-linejoin:round; stroke-width:4; stroke-opacity:1; fill:none" points="250.028,1334.86 268.926,1334.86 "/>
<polyline clip-path="url(#clip080)" style="stroke:#000000; stroke-linecap:round; stroke-linejoin:round; stroke-width:4; stroke-opacity:1; fill:none" points="250.028,1128.1 268.926,1128.1 "/>
<polyline clip-path="url(#clip080)" style="stroke:#000000; stroke-linecap:round; stroke-linejoin:round; stroke-width:4; stroke-opacity:1; fill:none" points="250.028,921.352 268.926,921.352 "/>
<polyline clip-path="url(#clip080)" style="stroke:#000000; stroke-linecap:round; stroke-linejoin:round; stroke-width:4; stroke-opacity:1; fill:none" points="250.028,714.599 268.926,714.599 "/>
<polyline clip-path="url(#clip080)" style="stroke:#000000; stroke-linecap:round; stroke-linejoin:round; stroke-width:4; stroke-opacity:1; fill:none" points="250.028,507.847 268.926,507.847 "/>
<polyline clip-path="url(#clip080)" style="stroke:#000000; stroke-linecap:round; stroke-linejoin:round; stroke-width:4; stroke-opacity:1; fill:none" points="250.028,301.095 268.926,301.095 "/>
<polyline clip-path="url(#clip080)" style="stroke:#000000; stroke-linecap:round; stroke-linejoin:round; stroke-width:4; stroke-opacity:1; fill:none" points="250.028,94.3422 268.926,94.3422 "/>
<path clip-path="url(#clip080)" d="M128.288 1320.66 Q124.677 1320.66 122.848 1324.22 Q121.043 1327.76 121.043 1334.89 Q121.043 1342 122.848 1345.56 Q124.677 1349.1 128.288 1349.1 Q131.922 1349.1 133.728 1345.56 Q135.556 1342 135.556 1334.89 Q135.556 1327.76 133.728 1324.22 Q131.922 1320.66 128.288 1320.66 M128.288 1316.95 Q134.098 1316.95 137.154 1321.56 Q140.232 1326.14 140.232 1334.89 Q140.232 1343.62 137.154 1348.22 Q134.098 1352.81 128.288 1352.81 Q122.478 1352.81 119.399 1348.22 Q116.343 1343.62 116.343 1334.89 Q116.343 1326.14 119.399 1321.56 Q122.478 1316.95 128.288 1316.95 Z" fill="#000000" fill-rule="nonzero" fill-opacity="1" /><path clip-path="url(#clip080)" d="M148.45 1346.26 L153.334 1346.26 L153.334 1352.14 L148.45 1352.14 L148.45 1346.26 Z" fill="#000000" fill-rule="nonzero" fill-opacity="1" /><path clip-path="url(#clip080)" d="M176.366 1321.65 L164.561 1340.1 L176.366 1340.1 L176.366 1321.65 M175.139 1317.58 L181.019 1317.58 L181.019 1340.1 L185.95 1340.1 L185.95 1343.99 L181.019 1343.99 L181.019 1352.14 L176.366 1352.14 L176.366 1343.99 L160.765 1343.99 L160.765 1339.47 L175.139 1317.58 Z" fill="#000000" fill-rule="nonzero" fill-opacity="1" /><path clip-path="url(#clip080)" d="M197.709 1348.2 L214.028 1348.2 L214.028 1352.14 L192.084 1352.14 L192.084 1348.2 Q194.746 1345.45 199.329 1340.82 Q203.936 1336.16 205.116 1334.82 Q207.362 1332.3 208.241 1330.56 Q209.144 1328.8 209.144 1327.11 Q209.144 1324.36 207.199 1322.62 Q205.278 1320.89 202.176 1320.89 Q199.977 1320.89 197.524 1321.65 Q195.093 1322.41 192.315 1323.97 L192.315 1319.24 Q195.139 1318.11 197.593 1317.53 Q200.047 1316.95 202.084 1316.95 Q207.454 1316.95 210.649 1319.64 Q213.843 1322.32 213.843 1326.81 Q213.843 1328.94 213.033 1330.86 Q212.246 1332.76 210.139 1335.35 Q209.561 1336.03 206.459 1339.24 Q203.357 1342.44 197.709 1348.2 Z" fill="#000000" fill-rule="nonzero" fill-opacity="1" /><path clip-path="url(#clip080)" d="M127.339 1113.9 Q123.728 1113.9 121.899 1117.47 Q120.093 1121.01 120.093 1128.14 Q120.093 1135.25 121.899 1138.81 Q123.728 1142.35 127.339 1142.35 Q130.973 1142.35 132.779 1138.81 Q134.607 1135.25 134.607 1128.14 Q134.607 1121.01 132.779 1117.47 Q130.973 1113.9 127.339 1113.9 M127.339 1110.2 Q133.149 1110.2 136.204 1114.81 Q139.283 1119.39 139.283 1128.14 Q139.283 1136.87 136.204 1141.47 Q133.149 1146.06 127.339 1146.06 Q121.529 1146.06 118.45 1141.47 Q115.394 1136.87 115.394 1128.14 Q115.394 1119.39 118.45 1114.81 Q121.529 1110.2 127.339 1110.2 Z" fill="#000000" fill-rule="nonzero" fill-opacity="1" /><path clip-path="url(#clip080)" d="M147.501 1139.5 L152.385 1139.5 L152.385 1145.38 L147.501 1145.38 L147.501 1139.5 Z" fill="#000000" fill-rule="nonzero" fill-opacity="1" /><path clip-path="url(#clip080)" d="M175.417 1114.9 L163.612 1133.35 L175.417 1133.35 L175.417 1114.9 M174.19 1110.82 L180.07 1110.82 L180.07 1133.35 L185.001 1133.35 L185.001 1137.24 L180.07 1137.24 L180.07 1145.38 L175.417 1145.38 L175.417 1137.24 L159.815 1137.24 L159.815 1132.72 L174.19 1110.82 Z" fill="#000000" fill-rule="nonzero" fill-opacity="1" /><path clip-path="url(#clip080)" d="M206.899 1126.75 Q210.255 1127.47 212.13 1129.74 Q214.028 1132 214.028 1135.34 Q214.028 1140.45 210.51 1143.25 Q206.991 1146.06 200.51 1146.06 Q198.334 1146.06 196.019 1145.62 Q193.727 1145.2 191.274 1144.34 L191.274 1139.83 Q193.218 1140.96 195.533 1141.54 Q197.848 1142.12 200.371 1142.12 Q204.769 1142.12 207.061 1140.38 Q209.375 1138.65 209.375 1135.34 Q209.375 1132.28 207.223 1130.57 Q205.093 1128.83 201.274 1128.83 L197.246 1128.83 L197.246 1124.99 L201.459 1124.99 Q204.908 1124.99 206.737 1123.63 Q208.565 1122.24 208.565 1119.64 Q208.565 1116.98 206.667 1115.57 Q204.792 1114.13 201.274 1114.13 Q199.352 1114.13 197.153 1114.55 Q194.954 1114.97 192.315 1115.85 L192.315 1111.68 Q194.977 1110.94 197.292 1110.57 Q199.63 1110.2 201.69 1110.2 Q207.014 1110.2 210.116 1112.63 Q213.218 1115.04 213.218 1119.16 Q213.218 1122.03 211.574 1124.02 Q209.931 1125.99 206.899 1126.75 Z" fill="#000000" fill-rule="nonzero" fill-opacity="1" /><path clip-path="url(#clip080)" d="M126.205 907.15 Q122.593 907.15 120.765 910.715 Q118.959 914.257 118.959 921.387 Q118.959 928.493 120.765 932.058 Q122.593 935.599 126.205 935.599 Q129.839 935.599 131.644 932.058 Q133.473 928.493 133.473 921.387 Q133.473 914.257 131.644 910.715 Q129.839 907.15 126.205 907.15 M126.205 903.447 Q132.015 903.447 135.07 908.053 Q138.149 912.637 138.149 921.387 Q138.149 930.113 135.07 934.72 Q132.015 939.303 126.205 939.303 Q120.394 939.303 117.316 934.72 Q114.26 930.113 114.26 921.387 Q114.26 912.637 117.316 908.053 Q120.394 903.447 126.205 903.447 Z" fill="#000000" fill-rule="nonzero" fill-opacity="1" /><path clip-path="url(#clip080)" d="M146.366 932.752 L151.251 932.752 L151.251 938.632 L146.366 938.632 L146.366 932.752 Z" fill="#000000" fill-rule="nonzero" fill-opacity="1" /><path clip-path="url(#clip080)" d="M174.283 908.146 L162.477 926.595 L174.283 926.595 L174.283 908.146 M173.056 904.072 L178.936 904.072 L178.936 926.595 L183.866 926.595 L183.866 930.484 L178.936 930.484 L178.936 938.632 L174.283 938.632 L174.283 930.484 L158.681 930.484 L158.681 925.97 L173.056 904.072 Z" fill="#000000" fill-rule="nonzero" fill-opacity="1" /><path clip-path="url(#clip080)" d="M204.445 908.146 L192.639 926.595 L204.445 926.595 L204.445 908.146 M203.218 904.072 L209.098 904.072 L209.098 926.595 L214.028 926.595 L214.028 930.484 L209.098 930.484 L209.098 938.632 L204.445 938.632 L204.445 930.484 L188.843 930.484 L188.843 925.97 L203.218 904.072 Z" fill="#000000" fill-rule="nonzero" fill-opacity="1" /><path clip-path="url(#clip080)" d="M127.686 700.398 Q124.075 700.398 122.246 703.963 Q120.441 707.505 120.441 714.634 Q120.441 721.741 122.246 725.305 Q124.075 728.847 127.686 728.847 Q131.32 728.847 133.126 725.305 Q134.954 721.741 134.954 714.634 Q134.954 707.505 133.126 703.963 Q131.32 700.398 127.686 700.398 M127.686 696.694 Q133.496 696.694 136.552 701.301 Q139.63 705.884 139.63 714.634 Q139.63 723.361 136.552 727.967 Q133.496 732.551 127.686 732.551 Q121.876 732.551 118.797 727.967 Q115.742 723.361 115.742 714.634 Q115.742 705.884 118.797 701.301 Q121.876 696.694 127.686 696.694 Z" fill="#000000" fill-rule="nonzero" fill-opacity="1" /><path clip-path="url(#clip080)" d="M147.848 726 L152.732 726 L152.732 731.879 L147.848 731.879 L147.848 726 Z" fill="#000000" fill-rule="nonzero" fill-opacity="1" /><path clip-path="url(#clip080)" d="M175.764 701.393 L163.959 719.842 L175.764 719.842 L175.764 701.393 M174.538 697.319 L180.417 697.319 L180.417 719.842 L185.348 719.842 L185.348 723.731 L180.417 723.731 L180.417 731.879 L175.764 731.879 L175.764 723.731 L160.163 723.731 L160.163 719.217 L174.538 697.319 Z" fill="#000000" fill-rule="nonzero" fill-opacity="1" /><path clip-path="url(#clip080)" d="M193.125 697.319 L211.482 697.319 L211.482 701.255 L197.408 701.255 L197.408 709.727 Q198.426 709.38 199.445 709.217 Q200.463 709.032 201.482 709.032 Q207.269 709.032 210.649 712.204 Q214.028 715.375 214.028 720.792 Q214.028 726.37 210.556 729.472 Q207.084 732.551 200.764 732.551 Q198.588 732.551 196.32 732.18 Q194.075 731.81 191.667 731.069 L191.667 726.37 Q193.75 727.504 195.973 728.06 Q198.195 728.616 200.672 728.616 Q204.676 728.616 207.014 726.509 Q209.352 724.403 209.352 720.792 Q209.352 717.18 207.014 715.074 Q204.676 712.967 200.672 712.967 Q198.797 712.967 196.922 713.384 Q195.07 713.801 193.125 714.68 L193.125 697.319 Z" fill="#000000" fill-rule="nonzero" fill-opacity="1" /><path clip-path="url(#clip080)" d="M126.529 493.646 Q122.918 493.646 121.089 497.211 Q119.283 500.752 119.283 507.882 Q119.283 514.988 121.089 518.553 Q122.918 522.095 126.529 522.095 Q130.163 522.095 131.968 518.553 Q133.797 514.988 133.797 507.882 Q133.797 500.752 131.968 497.211 Q130.163 493.646 126.529 493.646 M126.529 489.942 Q132.339 489.942 135.394 494.548 Q138.473 499.132 138.473 507.882 Q138.473 516.609 135.394 521.215 Q132.339 525.798 126.529 525.798 Q120.718 525.798 117.64 521.215 Q114.584 516.609 114.584 507.882 Q114.584 499.132 117.64 494.548 Q120.718 489.942 126.529 489.942 Z" fill="#000000" fill-rule="nonzero" fill-opacity="1" /><path clip-path="url(#clip080)" d="M146.691 519.247 L151.575 519.247 L151.575 525.127 L146.691 525.127 L146.691 519.247 Z" fill="#000000" fill-rule="nonzero" fill-opacity="1" /><path clip-path="url(#clip080)" d="M174.607 494.641 L162.802 513.09 L174.607 513.09 L174.607 494.641 M173.38 490.567 L179.26 490.567 L179.26 513.09 L184.19 513.09 L184.19 516.979 L179.26 516.979 L179.26 525.127 L174.607 525.127 L174.607 516.979 L159.005 516.979 L159.005 512.465 L173.38 490.567 Z" fill="#000000" fill-rule="nonzero" fill-opacity="1" /><path clip-path="url(#clip080)" d="M202.5 505.984 Q199.352 505.984 197.5 508.136 Q195.672 510.289 195.672 514.039 Q195.672 517.766 197.5 519.942 Q199.352 522.095 202.5 522.095 Q205.649 522.095 207.477 519.942 Q209.329 517.766 209.329 514.039 Q209.329 510.289 207.477 508.136 Q205.649 505.984 202.5 505.984 M211.783 491.331 L211.783 495.59 Q210.024 494.757 208.218 494.317 Q206.436 493.877 204.676 493.877 Q200.047 493.877 197.593 497.002 Q195.163 500.127 194.815 506.447 Q196.181 504.433 198.241 503.368 Q200.301 502.28 202.778 502.28 Q207.987 502.28 210.996 505.451 Q214.028 508.599 214.028 514.039 Q214.028 519.363 210.88 522.581 Q207.732 525.798 202.5 525.798 Q196.505 525.798 193.334 521.215 Q190.163 516.609 190.163 507.882 Q190.163 499.687 194.051 494.826 Q197.94 489.942 204.491 489.942 Q206.25 489.942 208.033 490.289 Q209.838 490.636 211.783 491.331 Z" fill="#000000" fill-rule="nonzero" fill-opacity="1" /><path clip-path="url(#clip080)" d="M127.593 286.893 Q123.982 286.893 122.154 290.458 Q120.348 294 120.348 301.129 Q120.348 308.236 122.154 311.801 Q123.982 315.342 127.593 315.342 Q131.228 315.342 133.033 311.801 Q134.862 308.236 134.862 301.129 Q134.862 294 133.033 290.458 Q131.228 286.893 127.593 286.893 M127.593 283.19 Q133.404 283.19 136.459 287.796 Q139.538 292.379 139.538 301.129 Q139.538 309.856 136.459 314.463 Q133.404 319.046 127.593 319.046 Q121.783 319.046 118.705 314.463 Q115.649 309.856 115.649 301.129 Q115.649 292.379 118.705 287.796 Q121.783 283.19 127.593 283.19 Z" fill="#000000" fill-rule="nonzero" fill-opacity="1" /><path clip-path="url(#clip080)" d="M147.755 312.495 L152.64 312.495 L152.64 318.375 L147.755 318.375 L147.755 312.495 Z" fill="#000000" fill-rule="nonzero" fill-opacity="1" /><path clip-path="url(#clip080)" d="M175.672 287.889 L163.866 306.338 L175.672 306.338 L175.672 287.889 M174.445 283.815 L180.325 283.815 L180.325 306.338 L185.255 306.338 L185.255 310.227 L180.325 310.227 L180.325 318.375 L175.672 318.375 L175.672 310.227 L160.07 310.227 L160.07 305.713 L174.445 283.815 Z" fill="#000000" fill-rule="nonzero" fill-opacity="1" /><path clip-path="url(#clip080)" d="M191.806 283.815 L214.028 283.815 L214.028 285.805 L201.482 318.375 L196.598 318.375 L208.403 287.75 L191.806 287.75 L191.806 283.815 Z" fill="#000000" fill-rule="nonzero" fill-opacity="1" /><path clip-path="url(#clip080)" d="M126.783 80.1409 Q123.172 80.1409 121.343 83.7057 Q119.538 87.2474 119.538 94.377 Q119.538 101.483 121.343 105.048 Q123.172 108.59 126.783 108.59 Q130.417 108.59 132.223 105.048 Q134.052 101.483 134.052 94.377 Q134.052 87.2474 132.223 83.7057 Q130.417 80.1409 126.783 80.1409 M126.783 76.4372 Q132.593 76.4372 135.649 81.0437 Q138.728 85.627 138.728 94.377 Q138.728 103.104 135.649 107.71 Q132.593 112.294 126.783 112.294 Q120.973 112.294 117.894 107.71 Q114.839 103.104 114.839 94.377 Q114.839 85.627 117.894 81.0437 Q120.973 76.4372 126.783 76.4372 Z" fill="#000000" fill-rule="nonzero" fill-opacity="1" /><path clip-path="url(#clip080)" d="M146.945 105.743 L151.829 105.743 L151.829 111.622 L146.945 111.622 L146.945 105.743 Z" fill="#000000" fill-rule="nonzero" fill-opacity="1" /><path clip-path="url(#clip080)" d="M174.862 81.1363 L163.056 99.5853 L174.862 99.5853 L174.862 81.1363 M173.635 77.0622 L179.514 77.0622 L179.514 99.5853 L184.445 99.5853 L184.445 103.474 L179.514 103.474 L179.514 111.622 L174.862 111.622 L174.862 103.474 L159.26 103.474 L159.26 98.9603 L173.635 77.0622 Z" fill="#000000" fill-rule="nonzero" fill-opacity="1" /><path clip-path="url(#clip080)" d="M202.176 95.2103 Q198.843 95.2103 196.922 96.9927 Q195.024 98.7751 195.024 101.9 Q195.024 105.025 196.922 106.807 Q198.843 108.59 202.176 108.59 Q205.51 108.59 207.431 106.807 Q209.352 105.002 209.352 101.9 Q209.352 98.7751 207.431 96.9927 Q205.533 95.2103 202.176 95.2103 M197.5 93.2196 Q194.491 92.4788 192.801 90.4186 Q191.135 88.3585 191.135 85.3955 Q191.135 81.252 194.075 78.8446 Q197.037 76.4372 202.176 76.4372 Q207.338 76.4372 210.278 78.8446 Q213.218 81.252 213.218 85.3955 Q213.218 88.3585 211.528 90.4186 Q209.861 92.4788 206.875 93.2196 Q210.255 94.0066 212.13 96.2982 Q214.028 98.5899 214.028 101.9 Q214.028 106.923 210.949 109.608 Q207.894 112.294 202.176 112.294 Q196.459 112.294 193.38 109.608 Q190.325 106.923 190.325 101.9 Q190.325 98.5899 192.223 96.2982 Q194.121 94.0066 197.5 93.2196 M195.787 85.8353 Q195.787 88.5205 197.454 90.0251 Q199.144 91.5297 202.176 91.5297 Q205.186 91.5297 206.875 90.0251 Q208.588 88.5205 208.588 85.8353 Q208.588 83.1502 206.875 81.6455 Q205.186 80.1409 202.176 80.1409 Q199.144 80.1409 197.454 81.6455 Q195.787 83.1502 195.787 85.8353 Z" fill="#000000" fill-rule="nonzero" fill-opacity="1" /><path clip-path="url(#clip080)" d="M33.958 742.548 L55.9834 734.75 L28.3562 723.61 L28.3562 717.404 L64.0042 731.822 L77.5631 731.822 L77.5631 737.679 L64.0042 737.679 L37.3955 747.036 Q33.3851 748.437 33.3851 751.46 L33.3851 753.02 L28.3562 753.02 L28.3562 750.792 Q28.3562 744.522 33.958 742.548 Z" fill="#000000" fill-rule="nonzero" fill-opacity="1" /><circle clip-path="url(#clip081)" cx="1282.03" cy="769.348" r="7.2" fill="#009af9" fill-rule="evenodd" fill-opacity="1" stroke="#000000" stroke-opacity="1" stroke-width="3.2"/>
<polyline clip-path="url(#clip081)" style="stroke:#e26f46; stroke-linecap:round; stroke-linejoin:round; stroke-width:4; stroke-opacity:1; fill:none" points="1845.75,769.348 1846.65,767.811 1847.54,766.275 1848.43,764.738 1849.3,763.202 1850.17,761.666 1851.03,760.129 1851.88,758.593 1852.72,757.056 1853.56,755.52 1854.38,753.983 1855.2,752.447 1856.01,750.91 1856.81,749.374 1857.6,747.837 1858.39,746.301 1859.16,744.765 1859.93,743.228 1860.69,741.692 1861.44,740.155 1862.18,738.619 1862.91,737.082 1863.64,735.546 1864.35,734.009 1865.06,732.473 1865.76,730.936 1866.45,729.4 1867.13,727.864 1867.81,726.327 1868.47,724.791 1869.13,723.254 1869.78,721.718 1870.42,720.181 1871.05,718.645 1871.67,717.108 1872.29,715.572 1872.9,714.035 1873.49,712.499 1874.08,710.963 1874.66,709.426 1875.23,707.89 1875.8,706.353 1876.35,704.817 1876.9,703.28 1877.44,701.744 1877.97,700.207 1878.49,698.671 1879,697.134 1879.5,695.598 1880,694.062 1880.48,692.525 1880.96,690.989 1881.43,689.452 1881.89,687.916 1882.34,686.379 1882.78,684.843 1883.21,683.306 1883.64,681.77 1884.05,680.233 1884.46,678.697 1884.86,677.161 1885.25,675.624 1885.63,674.088 1886,672.551 1886.36,671.015 1886.72,669.478 1887.06,667.942 1887.4,666.405 1887.73,664.869 1888.04,663.332 1888.35,661.796 1888.65,660.26 1888.94,658.723 1889.23,657.187 1889.5,655.65 1889.76,654.114 1890.01,652.577 1890.26,651.041 1890.5,649.504 1890.72,647.968 1890.94,646.431 1891.15,644.895 1891.34,643.358 1891.53,641.822 1891.71,640.286 1891.88,638.749 1892.04,637.213 1892.19,635.676 1892.34,634.14 1892.47,632.603 1892.59,631.067 1892.7,629.53 1892.81,627.994 1892.9,626.457 1892.98,624.921 1893.06,623.385 1893.12,621.848 1893.17,620.312 1893.22,618.775 1893.25,617.239 1893.27,615.702 1893.29,614.166 1893.29,612.629 1893.28,611.093 1893.27,609.556 1893.24,608.02 1893.2,606.484 1893.15,604.947 1893.09,603.411 1893.02,601.874 1892.94,600.338 1892.85,598.801 1892.75,597.265 1892.64,595.728 1892.52,594.192 1892.38,592.655 1892.24,591.119 1892.08,589.583 1891.92,588.046 1891.74,586.51 1891.55,584.973 1891.35,583.437 1891.14,581.9 1890.92,580.364 1890.68,578.827 1890.44,577.291 1890.18,575.754 1889.91,574.218 1889.63,572.682 1889.34,571.145 1889.03,569.609 1888.72,568.072 1888.39,566.536 1888.05,564.999 1887.7,563.463 1887.33,561.926 1886.95,560.39 1886.57,558.853 1886.16,557.317 1885.75,555.781 1885.32,554.244 1884.88,552.708 1884.43,551.171 1883.96,549.635 1883.48,548.098 1882.99,546.562 1882.48,545.025 1881.96,543.489 1881.42,541.952 1880.88,540.416 1880.31,538.88 1879.74,537.343 1879.15,535.807 1878.54,534.27 1877.92,532.734 1877.29,531.197 1876.64,529.661 1875.98,528.124 1875.3,526.588 1874.61,525.051 1873.9,523.515 1873.17,521.979 1872.43,520.442 1871.68,518.906 1870.9,517.369 1870.11,515.833 1869.31,514.296 1868.49,512.76 1867.65,511.223 1866.8,509.687 1865.92,508.15 1865.03,506.614 1864.13,505.078 1863.2,503.541 1862.26,502.005 1861.29,500.468 1860.31,498.932 1859.31,497.395 1858.29,495.859 1857.25,494.322 1856.19,492.786 1855.11,491.249 1854.02,489.713 1852.9,488.177 1851.76,486.64 1850.6,485.104 1849.42,483.567 1848.22,482.031 1847,480.494 1845.76,478.958 1844.49,477.421 1843.2,475.885 1841.89,474.348 1840.56,472.812 1839.2,471.276 1837.82,469.739 1836.41,468.203 1834.98,466.666 1833.52,465.13 1832.03,463.593 1830.52,462.057 1828.98,460.52 1827.41,458.984 1825.81,457.447 1824.18,455.911 1822.52,454.375 1820.84,452.838 1819.12,451.302 1817.36,449.765 1815.58,448.229 1813.76,446.692 1811.9,445.156 1810.01,443.619 1808.08,442.083 1806.12,440.546 1804.11,439.01 1802.07,437.474 1799.99,435.937 1797.86,434.401 1795.7,432.864 1793.49,431.328 1791.24,429.791 1788.94,428.255 1786.6,426.718 1784.2,425.182 1781.76,423.645 1779.26,422.109 1776.71,420.573 1774.1,419.036 1771.44,417.5 1768.72,415.963 1765.93,414.427 1763.08,412.89 1760.16,411.354 1757.17,409.817 1754.1,408.281 1750.95,406.744 1747.73,405.208 1744.41,403.672 1741.01,402.135 1737.51,400.599 1733.91,399.062 1730.2,397.526 1726.38,395.989 1722.44,394.453 1718.38,392.916 1714.17,391.38 1709.82,389.844 1705.31,388.307 1700.62,386.771 1695.75,385.234 1690.66,383.698 1685.35,382.161 1679.77,380.625 1673.9,379.089 1667.72,377.552 1661.21,376.016 1654.29,374.479 1646.86,372.943 1638.79,371.406 1629.93,369.87 1620.09,368.334 1608.97,366.797 1595.88,365.261 1579.41,363.725 1554.54,362.189 1486.71,362.385 1461.84,363.921 1444.18,365.457 1429.62,366.993 1416.9,368.53 1405.46,370.066 1394.96,371.602 1385.18,373.139 1376.01,374.675 1367.32,376.212 1359.05,377.748 1351.15,379.285 1343.56,380.821 1336.25,382.357 1329.18,383.894 1322.35,385.43 1315.72,386.967 1309.28,388.503 1303,390.04 1296.89,391.576 1290.92,393.112 1285.09,394.649 1279.39,396.185 1273.8,397.722 1268.33,399.258 1262.96,400.795 1257.7,402.331 1252.53,403.867 1247.44,405.404 1242.45,406.94 1237.53,408.477 1232.69,410.013 1227.93,411.55 1223.23,413.086 1218.61,414.623 1214.05,416.159 1209.55,417.695 1205.11,419.232 1200.73,420.768 1196.41,422.305 1192.14,423.841 1187.92,425.378 1183.76,426.914 1179.64,428.451 1175.57,429.987 1171.54,431.523 1167.56,433.06 1163.63,434.596 1159.73,436.133 1155.88,437.669 1152.06,439.206 1148.29,440.742 1144.55,442.279 1140.85,443.815 1137.18,445.351 1133.55,446.888 1129.96,448.424 1126.39,449.961 1122.86,451.497 1119.36,453.034 1115.9,454.57 1112.46,456.107 1109.05,457.643 1105.67,459.179 1102.32,460.716 1099,462.252 1095.71,463.789 1092.44,465.325 1089.2,466.862 1085.99,468.398 1082.8,469.935 1079.63,471.471 1076.49,473.007 1073.38,474.544 1070.29,476.08 1067.22,477.617 1064.17,479.153 1061.15,480.69 1058.15,482.226 1055.17,483.763 1052.22,485.299 1049.28,486.836 1046.37,488.372 1043.47,489.908 1040.6,491.445 1037.74,492.981 1034.91,494.518 1032.1,496.054 1029.3,497.591 1026.52,499.127 1023.77,500.664 1021.03,502.2 1018.31,503.736 1015.6,505.273 1012.92,506.809 1010.25,508.346 1007.6,509.882 1004.97,511.419 1002.35,512.955 999.751,514.492 997.168,516.028 994.601,517.565 992.05,519.101 989.516,520.637 986.997,522.174 984.494,523.71 982.006,525.247 979.534,526.783 977.076,528.32 974.634,529.856 972.207,531.393 969.794,532.929 967.396,534.466 965.013,536.002 962.644,537.538 960.289,539.075 957.948,540.611 955.621,542.148 953.307,543.684 951.008,545.221 948.722,546.757 946.449,548.294 944.19,549.83 941.944,551.366 939.711,552.903 937.491,554.439 935.284,555.976 933.089,557.512 930.908,559.049 928.739,560.585 926.582,562.122 924.438,563.658 922.306,565.195 920.187,566.731 918.079,568.267 915.984,569.804 913.9,571.34 911.829,572.877 909.769,574.413 907.721,575.95 905.685,577.486 903.66,579.023 901.647,580.559 899.645,582.096 897.655,583.632 895.675,585.168 893.707,586.705 891.751,588.241 889.805,589.778 887.87,591.314 885.946,592.851 884.034,594.387 882.132,595.924 880.24,597.46 878.36,598.997 876.49,600.533 874.63,602.069 872.782,603.606 870.943,605.142 869.115,606.679 867.298,608.215 865.491,609.752 863.694,611.288 861.907,612.825 860.131,614.361 858.364,615.898 856.608,617.434 854.862,618.97 853.126,620.507 851.399,622.043 849.683,623.58 847.977,625.116 846.28,626.653 844.593,628.189 842.916,629.726 841.248,631.262 839.591,632.799 837.943,634.335 836.304,635.871 834.675,637.408 833.056,638.944 831.446,640.481 829.845,642.017 828.254,643.554 826.673,645.09 825.1,646.627 823.537,648.163 821.984,649.7 820.439,651.236 818.904,652.772 817.378,654.309 815.861,655.845 814.354,657.382 812.855,658.918 811.366,660.455 809.886,661.991 808.415,663.528 806.952,665.064 805.499,666.601 804.055,668.137 802.62,669.673 801.193,671.21 799.776,672.746 798.367,674.283 796.968,675.819 795.577,677.356 794.195,678.892 792.822,680.429 791.457,681.965 790.102,683.502 788.755,685.038 787.417,686.574 786.087,688.111 784.767,689.647 783.455,691.184 782.151,692.72 780.857,694.257 779.571,695.793 778.294,697.33 777.025,698.866 775.765,700.403 774.513,701.939 773.27,703.475 772.036,705.012 770.81,706.548 769.593,708.085 768.384,709.621 767.184,711.158 765.993,712.694 764.809,714.231 763.635,715.767 762.469,717.304 761.311,718.84 760.162,720.376 759.021,721.913 757.889,723.449 756.765,724.986 755.65,726.522 754.543,728.059 753.445,729.595 752.355,731.132 751.273,732.668 750.2,734.205 749.136,735.741 748.08,737.277 747.032,738.814 745.992,740.35 744.961,741.887 743.939,743.423 742.925,744.96 741.919,746.496 740.922,748.033 739.933,749.569 738.952,751.106 737.98,752.642 737.017,754.178 736.061,755.715 735.115,757.251 734.176,758.788 733.246,760.324 732.325,761.861 731.412,763.397 730.507,764.934 729.611,766.47 728.723,768.007 727.844,769.543 726.973,771.079 726.11,772.616 725.256,774.152 724.411,775.689 723.574,777.225 722.745,778.762 721.925,780.298 721.114,781.835 720.311,783.371 719.517,784.908 718.731,786.444 717.953,787.98 717.185,789.517 716.424,791.053 715.673,792.59 714.93,794.126 714.195,795.663 713.469,797.199 712.752,798.736 712.043,800.272 711.343,801.809 710.652,803.345 709.969,804.881 709.295,806.418 708.63,807.954 707.973,809.491 707.326,811.027 706.686,812.564 706.056,814.1 705.435,815.637 704.822,817.173 704.218,818.71 703.623,820.246 703.036,821.782 702.459,823.319 701.891,824.855 701.331,826.392 700.78,827.928 700.239,829.465 699.706,831.001 699.182,832.538 698.668,834.074 698.162,835.611 697.666,837.147 697.178,838.683 696.7,840.22 696.231,841.756 695.771,843.293 695.32,844.829 694.879,846.366 694.447,847.902 694.024,849.439 693.61,850.975 693.206,852.512 692.811,854.048 692.426,855.584 692.05,857.121 691.684,858.657 691.327,860.194 690.98,861.73 690.642,863.267 690.314,864.803 689.995,866.34 689.686,867.876 689.387,869.413 689.098,870.949 688.818,872.485 688.549,874.022 688.289,875.558 688.039,877.095 687.799,878.631 687.569,880.168 687.349,881.704 687.139,883.241 686.94,884.777 686.75,886.314 686.571,887.85 686.402,889.386 686.244,890.923 686.096,892.459 685.959,893.996 685.832,895.532 685.716,897.069 685.61,898.605 685.515,900.142 685.431,901.678 685.357,903.215 685.294,904.751 685.242,906.287 685.2,907.824 685.17,909.36 685.151,910.897 685.142,912.433 685.145,913.97 685.158,915.506 685.183,917.043 685.219,918.579 685.267,920.116 685.326,921.652 685.396,923.189 685.478,924.725 685.571,926.261 685.676,927.798 685.793,929.334 685.922,930.871 686.062,932.407 686.215,933.944 686.379,935.48 686.556,937.017 686.745,938.553 686.946,940.09 687.16,941.626 687.386,943.162 687.625,944.699 687.877,946.235 688.141,947.772 688.419,949.308 688.709,950.845 689.013,952.381 689.33,953.918 689.66,955.454 690.004,956.991 690.362,958.527 690.733,960.063 691.118,961.6 691.517,963.136 691.93,964.673 692.357,966.209 692.799,967.746 693.255,969.282 693.726,970.819 694.212,972.355 694.712,973.892 695.228,975.428 695.759,976.964 696.305,978.501 696.866,980.037 697.443,981.574 698.036,983.11 698.645,984.647 699.27,986.183 699.911,987.72 700.569,989.256 701.243,990.793 701.934,992.329 702.641,993.865 703.366,995.402 704.108,996.938 704.867,998.475 705.644,1000.01 706.439,1001.55 707.252,1003.08 708.082,1004.62 708.931,1006.16 709.799,1007.69 710.685,1009.23 711.592,1010.77 712.52,1012.3 713.467,1013.84 714.435,1015.38 715.424,1016.91 716.433,1018.45 717.462,1019.99 718.513,1021.52 719.585,1023.06 720.677,1024.59 721.792,1026.13 722.928,1027.67 724.086,1029.2 725.266,1030.74 726.47,1032.28 727.696,1033.81 728.945,1035.35 730.219,1036.89 731.516,1038.42 732.838,1039.96 734.186,1041.5 735.559,1043.03 736.958,1044.57 738.384,1046.1 739.838,1047.64 741.319,1049.18 742.829,1050.71 744.368,1052.25 745.937,1053.79 747.536,1055.32 749.167,1056.86 750.83,1058.4 752.525,1059.93 754.254,1061.47 756.018,1063.01 757.817,1064.54 759.652,1066.08 761.524,1067.62 763.434,1069.15 765.383,1070.69 767.372,1072.22 769.401,1073.76 771.473,1075.3 773.588,1076.83 775.746,1078.37 777.95,1079.91 780.199,1081.44 782.496,1082.98 784.842,1084.52 787.237,1086.05 789.683,1087.59 792.182,1089.13 794.733,1090.66 797.34,1092.2 800.006,1093.73 802.733,1095.27 805.523,1096.81 808.379,1098.34 811.303,1099.88 814.299,1101.42 817.37,1102.95 820.517,1104.49 823.747,1106.03 827.069,1107.56 830.486,1109.1 833.996,1110.64 837.603,1112.17 841.308,1113.71 845.116,1115.25 849.034,1116.78 853.07,1118.32 857.234,1119.85 861.535,1121.39 865.988,1122.93 870.606,1124.46 875.406,1126 880.405,1127.54 885.623,1129.07 891.08,1130.61 896.799,1132.15 902.804,1133.68 909.12,1135.22 915.786,1136.76 922.87,1138.29 930.442,1139.83 938.665,1141.36 947.562,1142.9 957.236,1144.44 968.062,1145.97 980.692,1147.51 996.055,1149.05 1016.5,1150.58 1077.08,1151.92 1117.38,1150.39 1138.66,1148.85 1155.29,1147.31 1169.45,1145.78 1182.02,1144.24 1193.45,1142.7 1204.01,1141.17 1213.87,1139.63 1223.17,1138.1 1231.98,1136.56 1240.39,1135.02 1248.44,1133.49 1256.17,1131.95 1263.63,1130.41 1270.83,1128.88 1277.81,1127.34 1284.58,1125.8 1291.16,1124.27 1297.57,1122.73 1303.81,1121.2 1309.91,1119.66 1315.86,1118.12 1321.68,1116.59 1327.38,1115.05 1332.97,1113.51 1338.45,1111.98 1343.82,1110.44 1349.09,1108.9 1354.27,1107.37 1359.36,1105.83 1364.37,1104.29 1369.3,1102.76 1374.15,1101.22 1378.93,1099.69 1383.63,1098.15 1388.27,1096.61 1392.84,1095.08 1397.35,1093.54 1401.79,1092 1406.18,1090.47 1410.51,1088.93 1414.79,1087.39 1419.01,1085.86 1423.19,1084.32 1427.31,1082.78 1431.38,1081.25 1435.41,1079.71 1439.39,1078.17 1443.33,1076.64 1447.22,1075.1 1451.07,1073.57 1454.88,1072.03 1458.65,1070.49 1462.39,1068.96 1466.08,1067.42 1469.74,1065.88 1473.36,1064.35 1476.94,1062.81 1480.5,1061.27 1484.01,1059.74 1487.5,1058.2 1490.95,1056.66 1494.37,1055.13 1497.76,1053.59 1501.12,1052.06 1504.45,1050.52 1507.75,1048.98 1511.02,1047.45 1514.26,1045.91 1517.48,1044.37 1520.67,1042.84 1523.83,1041.3 1526.96,1039.76 1530.07,1038.23 1533.16,1036.69 1536.22,1035.15 1539.25,1033.62 1542.26,1032.08 1545.25,1030.54 1548.22,1029.01 1551.16,1027.47 1554.08,1025.94 1556.97,1024.4 1559.85,1022.86 1562.7,1021.33 1565.53,1019.79 1568.34,1018.25 1571.13,1016.72 1573.9,1015.18 1576.65,1013.64 1579.38,1012.11 1582.09,1010.57 1584.77,1009.03 1587.45,1007.5 1590.1,1005.96 1592.73,1004.43 1595.34,1002.89 1597.94,1001.35 1600.52,999.816 1603.08,998.279 1605.62,996.743 1608.15,995.207 1610.66,993.67 1613.15,992.134 1615.62,990.597 1618.08,989.061 1620.52,987.524 1622.94,985.988 1625.35,984.451 1627.74,982.915 1630.12,981.378 1632.48,979.842 1634.83,978.306 1637.16,976.769 1639.47,975.233 1641.77,973.696 1644.06,972.16 1646.33,970.623 1648.58,969.087 1650.82,967.55 1653.05,966.014 1655.26,964.478 1657.46,962.941 1659.64,961.405 1661.81,959.868 1663.97,958.332 1666.11,956.795 1668.24,955.259 1670.35,953.722 1672.46,952.186 1674.54,950.649 1676.62,949.113 1678.68,947.577 1680.73,946.04 1682.77,944.504 1684.79,942.967 1686.8,941.431 1688.8,939.894 1690.79,938.358 1692.76,936.821 1694.72,935.285 1696.67,933.748 1698.61,932.212 1700.53,930.676 1702.45,929.139 1704.35,927.603 1706.24,926.066 1708.11,924.53 1709.98,922.993 1711.83,921.457 1713.67,919.92 1715.51,918.384 1717.32,916.847 1719.13,915.311 1720.93,913.775 1722.71,912.238 1724.49,910.702 1726.25,909.165 1728,907.629 1729.75,906.092 1731.48,904.556 1733.2,903.019 1734.9,901.483 1736.6,899.946 1738.29,898.41 1739.97,896.874 1741.63,895.337 1743.29,893.801 1744.93,892.264 1746.57,890.728 1748.19,889.191 1749.81,887.655 1751.41,886.118 1753,884.582 1754.59,883.045 1756.16,881.509 1757.72,879.973 1759.27,878.436 1760.82,876.9 1762.35,875.363 1763.87,873.827 1765.39,872.29 1766.89,870.754 1768.38,869.217 1769.87,867.681 1771.34,866.144 1772.8,864.608 1774.26,863.072 1775.7,861.535 1777.14,859.999 1778.56,858.462 1779.98,856.926 1781.39,855.389 1782.78,853.853 1784.17,852.316 1785.55,850.78 1786.92,849.243 1788.28,847.707 1789.63,846.171 1790.97,844.634 1792.3,843.098 1793.62,841.561 1794.94,840.025 1796.24,838.488 1797.53,836.952 1798.82,835.415 1800.1,833.879 1801.36,832.342 1802.62,830.806 1803.87,829.27 1805.11,827.733 1806.34,826.197 1807.57,824.66 1808.78,823.124 1809.99,821.587 1811.18,820.051 1812.37,818.514 1813.55,816.978 1814.72,815.441 1815.88,813.905 1817.03,812.369 1818.17,810.832 1819.3,809.296 1820.43,807.759 1821.55,806.223 1822.65,804.686 1823.75,803.15 1824.84,801.613 1825.92,800.077 1827,798.54 1828.06,797.004 1829.12,795.468 1830.17,793.931 1831.2,792.395 1832.23,790.858 1833.25,789.322 1834.27,787.785 1835.27,786.249 1836.27,784.712 1837.25,783.176 1838.23,781.639 1839.2,780.103 1840.16,778.567 1841.12,777.03 1842.06,775.494 1843,773.957 1843.93,772.421 1844.84,770.884 1845.75,769.348 "/>
<polyline clip-path="url(#clip081)" style="stroke:#3da44d; stroke-linecap:round; stroke-linejoin:round; stroke-width:4; stroke-opacity:1; fill:none" points="2212.53,769.348 2213.96,766.94 2215.38,764.531 2216.78,762.123 2218.17,759.715 2219.55,757.306 2220.92,754.898 2222.27,752.49 2223.61,750.082 2224.94,747.673 2226.26,745.265 2227.56,742.857 2228.85,740.449 2230.13,738.04 2231.39,735.632 2232.64,733.224 2233.88,730.815 2235.11,728.407 2236.33,725.999 2237.53,723.591 2238.72,721.182 2239.9,718.774 2241.06,716.366 2242.21,713.958 2243.35,711.549 2244.48,709.141 2245.6,706.733 2246.7,704.324 2247.79,701.916 2248.86,699.508 2249.93,697.1 2250.98,694.691 2252.02,692.283 2253.05,689.875 2254.06,687.467 2255.06,685.058 2256.05,682.65 2257.03,680.242 2257.99,677.833 2258.94,675.425 2259.88,673.017 2260.81,670.609 2261.72,668.2 2262.62,665.792 2263.51,663.384 2264.39,660.975 2265.25,658.567 2266.1,656.159 2266.94,653.751 2267.77,651.342 2268.58,648.934 2269.38,646.526 2270.16,644.118 2270.94,641.709 2271.7,639.301 2272.45,636.893 2273.18,634.484 2273.91,632.076 2274.62,629.668 2275.32,627.26 2276,624.851 2276.67,622.443 2277.33,620.035 2277.98,617.627 2278.61,615.218 2279.23,612.81 2279.84,610.402 2280.43,607.993 2281.01,605.585 2281.58,603.177 2282.14,600.769 2282.68,598.36 2283.21,595.952 2283.72,593.544 2284.23,591.136 2284.72,588.727 2285.19,586.319 2285.66,583.911 2286.1,581.502 2286.54,579.094 2286.96,576.686 2287.37,574.278 2287.77,571.869 2288.15,569.461 2288.52,567.053 2288.88,564.644 2289.22,562.236 2289.55,559.828 2289.86,557.42 2290.16,555.011 2290.45,552.603 2290.72,550.195 2290.98,547.787 2291.23,545.378 2291.46,542.97 2291.68,540.562 2291.88,538.153 2292.07,535.745 2292.25,533.337 2292.41,530.929 2292.56,528.52 2292.69,526.112 2292.81,523.704 2292.92,521.296 2293.01,518.887 2293.08,516.479 2293.14,514.071 2293.19,511.662 2293.22,509.254 2293.24,506.846 2293.24,504.438 2293.23,502.029 2293.21,499.621 2293.16,497.213 2293.11,494.805 2293.04,492.396 2292.95,489.988 2292.85,487.58 2292.73,485.171 2292.6,482.763 2292.45,480.355 2292.29,477.947 2292.11,475.538 2291.91,473.13 2291.7,470.722 2291.48,468.313 2291.23,465.905 2290.98,463.497 2290.7,461.089 2290.41,458.68 2290.11,456.272 2289.78,453.864 2289.44,451.456 2289.09,449.047 2288.72,446.639 2288.33,444.231 2287.92,441.822 2287.5,439.414 2287.06,437.006 2286.61,434.598 2286.13,432.189 2285.64,429.781 2285.13,427.373 2284.61,424.965 2284.06,422.556 2283.5,420.148 2282.92,417.74 2282.33,415.331 2281.71,412.923 2281.08,410.515 2280.42,408.107 2279.75,405.698 2279.06,403.29 2278.35,400.882 2277.63,398.474 2276.88,396.065 2276.12,393.657 2275.33,391.249 2274.53,388.84 2273.7,386.432 2272.86,384.024 2271.99,381.616 2271.11,379.207 2270.2,376.799 2269.28,374.391 2268.33,371.983 2267.36,369.574 2266.37,367.166 2265.36,364.758 2264.33,362.349 2263.28,359.941 2262.2,357.533 2261.1,355.125 2259.98,352.716 2258.84,350.308 2257.68,347.9 2256.49,345.491 2255.28,343.083 2254.05,340.675 2252.79,338.267 2251.51,335.858 2250.2,333.45 2248.87,331.042 2247.52,328.634 2246.14,326.225 2244.73,323.817 2243.3,321.409 2241.85,319 2240.36,316.592 2238.86,314.184 2237.32,311.776 2235.76,309.367 2234.17,306.959 2232.55,304.551 2230.9,302.143 2229.22,299.734 2227.52,297.326 2225.78,294.918 2224.01,292.509 2222.22,290.101 2220.39,287.693 2218.53,285.285 2216.64,282.876 2214.72,280.468 2212.76,278.06 2210.77,275.652 2208.75,273.243 2206.69,270.835 2204.6,268.427 2202.47,266.018 2200.31,263.61 2198.1,261.202 2195.87,258.794 2193.59,256.385 2191.28,253.977 2188.92,251.569 2186.53,249.161 2184.09,246.752 2181.61,244.344 2179.09,241.936 2176.52,239.527 2173.91,237.119 2171.26,234.711 2168.56,232.303 2165.81,229.894 2163.02,227.486 2160.18,225.078 2157.29,222.67 2154.35,220.261 2151.36,217.853 2148.31,215.445 2145.22,213.036 2142.06,210.628 2138.85,208.22 2135.58,205.812 2132.25,203.403 2128.85,200.995 2125.4,198.587 2121.87,196.179 2118.27,193.77 2114.6,191.362 2110.86,188.954 2107.04,186.545 2103.14,184.137 2099.16,181.729 2095.09,179.321 2090.93,176.912 2086.69,174.504 2082.34,172.096 2077.9,169.688 2073.36,167.279 2068.72,164.871 2063.96,162.463 2059.09,160.055 2054.11,157.646 2049,155.238 2043.76,152.83 2038.39,150.421 2032.86,148.013 2027.19,145.605 2021.34,143.197 2015.33,140.788 2009.12,138.38 2002.71,135.972 1996.1,133.564 1989.27,131.155 1982.21,128.747 1974.89,126.339 1967.29,123.931 1959.38,121.522 1951.11,119.114 1942.46,116.706 1933.36,114.298 1923.77,111.889 1913.64,109.481 1902.88,107.073 1891.38,104.665 1879.02,102.257 1865.58,99.8483 1850.74,97.4401 1834.06,95.032 1814.77,92.6239 1791.38,90.2158 1759.41,87.8079 1660.66,86.1857 1608.05,88.5928 1576.99,91.0006 1552.38,93.4087 1531.28,95.8168 1512.48,98.2249 1495.34,100.633 1479.47,103.041 1464.61,105.449 1450.58,107.858 1437.25,110.266 1424.53,112.674 1412.33,115.082 1400.59,117.49 1389.27,119.899 1378.31,122.307 1367.68,124.715 1357.36,127.123 1347.32,129.532 1337.54,131.94 1327.99,134.348 1318.66,136.756 1309.54,139.165 1300.61,141.573 1291.86,143.981 1283.28,146.389 1274.86,148.798 1266.59,151.206 1258.46,153.614 1250.48,156.022 1242.62,158.431 1234.88,160.839 1227.26,163.247 1219.76,165.655 1212.36,168.064 1205.07,170.472 1197.87,172.88 1190.77,175.288 1183.77,177.697 1176.85,180.105 1170.02,182.513 1163.27,184.921 1156.6,187.33 1150.01,189.738 1143.49,192.146 1137.05,194.554 1130.67,196.963 1124.37,199.371 1118.13,201.779 1111.95,204.187 1105.84,206.596 1099.78,209.004 1093.79,211.412 1087.86,213.82 1081.98,216.229 1076.15,218.637 1070.38,221.045 1064.67,223.453 1059,225.862 1053.38,228.27 1047.81,230.678 1042.29,233.087 1036.82,235.495 1031.39,237.903 1026.01,240.311 1020.67,242.72 1015.37,245.128 1010.12,247.536 1004.91,249.944 999.737,252.353 994.605,254.761 989.512,257.169 984.457,259.577 979.44,261.986 974.46,264.394 969.517,266.802 964.609,269.21 959.737,271.619 954.899,274.027 950.096,276.435 945.326,278.844 940.589,281.252 935.885,283.66 931.213,286.068 926.572,288.477 921.963,290.885 917.384,293.293 912.836,295.701 908.317,298.11 903.827,300.518 899.367,302.926 894.936,305.334 890.532,307.743 886.157,310.151 881.809,312.559 877.488,314.968 873.194,317.376 868.927,319.784 864.686,322.192 860.47,324.601 856.281,327.009 852.117,329.417 847.977,331.825 843.863,334.234 839.773,336.642 835.707,339.05 831.665,341.459 827.647,343.867 823.653,346.275 819.681,348.683 815.733,351.092 811.807,353.5 807.903,355.908 804.022,358.316 800.163,360.725 796.326,363.133 792.511,365.541 788.717,367.949 784.944,370.358 781.192,372.766 777.461,375.174 773.751,377.583 770.062,379.991 766.393,382.399 762.743,384.807 759.114,387.216 755.505,389.624 751.916,392.032 748.346,394.44 744.795,396.849 741.264,399.257 737.751,401.665 734.258,404.074 730.783,406.482 727.327,408.89 723.89,411.298 720.471,413.707 717.07,416.115 713.687,418.523 710.322,420.931 706.975,423.34 703.646,425.748 700.334,428.156 697.04,430.564 693.764,432.973 690.504,435.381 687.262,437.789 684.037,440.198 680.828,442.606 677.637,445.014 674.462,447.422 671.304,449.831 668.163,452.239 665.038,454.647 661.929,457.055 658.837,459.464 655.761,461.872 652.701,464.28 649.657,466.689 646.629,469.097 643.617,471.505 640.62,473.913 637.639,476.322 634.674,478.73 631.725,481.138 628.79,483.546 625.872,485.955 622.968,488.363 620.08,490.771 617.207,493.18 614.349,495.588 611.506,497.996 608.678,500.404 605.864,502.813 603.066,505.221 600.282,507.629 597.514,510.037 594.759,512.446 592.02,514.854 589.295,517.262 586.584,519.671 583.888,522.079 581.206,524.487 578.538,526.895 575.885,529.304 573.246,531.712 570.621,534.12 568.01,536.528 565.413,538.937 562.83,541.345 560.261,543.753 557.706,546.162 555.165,548.57 552.638,550.978 550.124,553.386 547.624,555.795 545.138,558.203 542.666,560.611 540.207,563.019 537.762,565.428 535.33,567.836 532.912,570.244 530.507,572.653 528.116,575.061 525.738,577.469 523.374,579.877 521.023,582.286 518.685,584.694 516.36,587.102 514.049,589.51 511.751,591.919 509.466,594.327 507.194,596.735 504.935,599.144 502.689,601.552 500.457,603.96 498.237,606.368 496.031,608.777 493.837,611.185 491.657,613.593 489.489,616.001 487.334,618.41 485.193,620.818 483.064,623.226 480.948,625.635 478.844,628.043 476.754,630.451 474.676,632.859 472.611,635.268 470.559,637.676 468.52,640.084 466.493,642.492 464.479,644.901 462.478,647.309 460.49,649.717 458.514,652.126 456.551,654.534 454.6,656.942 452.662,659.35 450.737,661.759 448.824,664.167 446.924,666.575 445.037,668.983 443.162,671.392 441.299,673.8 439.449,676.208 437.612,678.617 435.788,681.025 433.975,683.433 432.176,685.841 430.389,688.25 428.614,690.658 426.852,693.066 425.102,695.474 423.365,697.883 421.641,700.291 419.929,702.699 418.229,705.108 416.542,707.516 414.868,709.924 413.206,712.332 411.556,714.741 409.919,717.149 408.295,719.557 406.683,721.965 405.083,724.374 403.496,726.782 401.922,729.19 400.36,731.599 398.81,734.007 397.274,736.415 395.749,738.823 394.237,741.232 392.738,743.64 391.251,746.048 389.777,748.456 388.315,750.865 386.866,753.273 385.43,755.681 384.006,758.09 382.595,760.498 381.196,762.906 379.81,765.314 378.437,767.723 377.076,770.131 375.728,772.539 374.393,774.947 373.07,777.356 371.76,779.764 370.463,782.172 369.178,784.581 367.906,786.989 366.647,789.397 365.401,791.805 364.168,794.214 362.947,796.622 361.739,799.03 360.545,801.439 359.363,803.847 358.194,806.255 357.038,808.663 355.894,811.072 354.764,813.48 353.647,815.888 352.543,818.296 351.452,820.705 350.374,823.113 349.309,825.521 348.257,827.93 347.218,830.338 346.193,832.746 345.18,835.154 344.181,837.563 343.195,839.971 342.223,842.379 341.263,844.787 340.317,847.196 339.385,849.604 338.465,852.012 337.56,854.421 336.667,856.829 335.788,859.237 334.923,861.645 334.071,864.054 333.233,866.462 332.408,868.87 331.598,871.278 330.8,873.687 330.017,876.095 329.248,878.503 328.492,880.912 327.75,883.32 327.022,885.728 326.308,888.136 325.608,890.545 324.922,892.953 324.251,895.361 323.593,897.769 322.95,900.178 322.321,902.586 321.706,904.994 321.106,907.403 320.52,909.811 319.948,912.219 319.391,914.627 318.849,917.036 318.321,919.444 317.808,921.852 317.31,924.261 316.827,926.669 316.358,929.077 315.904,931.485 315.466,933.894 315.042,936.302 314.633,938.71 314.24,941.118 313.862,943.527 313.499,945.935 313.152,948.343 312.82,950.752 312.503,953.16 312.202,955.568 311.917,957.976 311.647,960.385 311.394,962.793 311.156,965.201 310.934,967.609 310.728,970.018 310.538,972.426 310.364,974.834 310.206,977.243 310.065,979.651 309.941,982.059 309.833,984.467 309.742,986.876 309.667,989.284 309.61,991.692 309.569,994.1 309.546,996.509 309.539,998.917 309.55,1001.33 309.578,1003.73 309.623,1006.14 309.686,1008.55 309.766,1010.96 309.864,1013.37 309.979,1015.77 310.113,1018.18 310.264,1020.59 310.433,1023 310.62,1025.41 310.826,1027.82 311.05,1030.22 311.292,1032.63 311.553,1035.04 311.833,1037.45 312.132,1039.86 312.449,1042.27 312.786,1044.67 313.142,1047.08 313.518,1049.49 313.913,1051.9 314.328,1054.31 314.762,1056.72 315.217,1059.12 315.692,1061.53 316.188,1063.94 316.704,1066.35 317.24,1068.76 317.798,1071.17 318.377,1073.57 318.977,1075.98 319.598,1078.39 320.241,1080.8 320.906,1083.21 321.593,1085.61 322.302,1088.02 323.034,1090.43 323.788,1092.84 324.565,1095.25 325.366,1097.66 326.189,1100.06 327.036,1102.47 327.907,1104.88 328.802,1107.29 329.721,1109.7 330.664,1112.11 331.632,1114.51 332.625,1116.92 333.643,1119.33 334.687,1121.74 335.756,1124.15 336.851,1126.56 337.973,1128.96 339.12,1131.37 340.295,1133.78 341.496,1136.19 342.725,1138.6 343.981,1141.01 345.265,1143.41 346.577,1145.82 347.918,1148.23 349.287,1150.64 350.685,1153.05 352.113,1155.45 353.573,1157.86 355.064,1160.27 356.586,1162.68 358.14,1165.09 359.725,1167.5 361.342,1169.9 362.991,1172.31 364.673,1174.72 366.388,1177.13 368.137,1179.54 369.919,1181.95 371.735,1184.35 373.585,1186.76 375.471,1189.17 377.393,1191.58 379.351,1193.99 381.345,1196.4 383.377,1198.8 385.447,1201.21 387.556,1203.62 389.705,1206.03 391.893,1208.44 394.123,1210.85 396.395,1213.25 398.709,1215.66 401.067,1218.07 403.47,1220.48 405.918,1222.89 408.412,1225.29 410.954,1227.7 413.544,1230.11 416.184,1232.52 418.874,1234.93 421.616,1237.34 424.411,1239.74 427.26,1242.15 430.164,1244.56 433.125,1246.97 436.144,1249.38 439.222,1251.79 442.36,1254.19 445.56,1256.6 448.824,1259.01 452.152,1261.42 455.546,1263.83 459.008,1266.24 462.539,1268.64 466.141,1271.05 469.816,1273.46 473.564,1275.87 477.389,1278.28 481.295,1280.69 485.284,1283.09 489.358,1285.5 493.52,1287.91 497.773,1290.32 502.12,1292.73 506.565,1295.13 511.112,1297.54 515.764,1299.95 520.525,1302.36 525.402,1304.77 530.398,1307.18 535.518,1309.58 540.769,1311.99 546.157,1314.4 551.686,1316.81 557.365,1319.22 563.211,1321.63 569.229,1324.03 575.421,1326.44 581.792,1328.85 588.352,1331.26 595.111,1333.67 602.086,1336.08 609.294,1338.48 616.758,1340.89 624.5,1343.3 632.551,1345.71 640.94,1348.12 649.702,1350.52 658.874,1352.93 668.498,1355.34 678.617,1357.75 689.281,1360.16 700.579,1362.57 712.624,1364.97 725.58,1367.38 739.656,1369.79 754.925,1372.2 771.815,1374.61 791.158,1377.01 814.198,1379.42 843.294,1381.83 889.152,1384.24 1004.14,1383.45 1044.59,1381.05 1074,1378.64 1098.4,1376.23 1119.75,1373.82 1139,1371.41 1156.68,1369.01 1173.12,1366.6 1188.56,1364.19 1203.17,1361.78 1217.07,1359.37 1230.36,1356.96 1243.1,1354.56 1255.37,1352.15 1267.22,1349.74 1278.68,1347.33 1289.78,1344.92 1300.57,1342.52 1311.07,1340.11 1321.29,1337.7 1331.26,1335.29 1341,1332.88 1350.51,1330.47 1359.83,1328.07 1368.94,1325.66 1377.88,1323.25 1386.64,1320.84 1395.25,1318.43 1403.69,1316.02 1411.99,1313.62 1420.15,1311.21 1428.17,1308.8 1436.07,1306.39 1443.84,1303.98 1451.5,1301.58 1459.04,1299.17 1466.48,1296.76 1473.81,1294.35 1481.04,1291.94 1488.17,1289.53 1495.21,1287.13 1502.16,1284.72 1509.02,1282.31 1515.8,1279.9 1522.49,1277.49 1529.11,1275.08 1535.64,1272.68 1542.1,1270.27 1548.49,1267.86 1554.81,1265.45 1561.06,1263.04 1567.24,1260.63 1573.36,1258.23 1579.41,1255.82 1585.4,1253.41 1591.33,1251 1597.2,1248.59 1603.01,1246.19 1608.76,1243.78 1614.46,1241.37 1620.11,1238.96 1625.7,1236.55 1631.24,1234.14 1636.73,1231.74 1642.17,1229.33 1647.56,1226.92 1652.91,1224.51 1658.2,1222.1 1663.45,1219.69 1668.66,1217.29 1673.82,1214.88 1678.94,1212.47 1684.01,1210.06 1689.05,1207.65 1694.04,1205.24 1698.99,1202.84 1703.9,1200.43 1708.77,1198.02 1713.6,1195.61 1718.4,1193.2 1723.16,1190.8 1727.88,1188.39 1732.56,1185.98 1737.21,1183.57 1741.82,1181.16 1746.4,1178.75 1750.94,1176.35 1755.45,1173.94 1759.93,1171.53 1764.38,1169.12 1768.79,1166.71 1773.17,1164.3 1777.52,1161.9 1781.83,1159.49 1786.12,1157.08 1790.37,1154.67 1794.6,1152.26 1798.8,1149.85 1802.96,1147.45 1807.1,1145.04 1811.21,1142.63 1815.29,1140.22 1819.35,1137.81 1823.37,1135.41 1827.37,1133 1831.34,1130.59 1835.29,1128.18 1839.21,1125.77 1843.1,1123.36 1846.97,1120.96 1850.81,1118.55 1854.62,1116.14 1858.41,1113.73 1862.18,1111.32 1865.92,1108.91 1869.64,1106.51 1873.33,1104.1 1877,1101.69 1880.64,1099.28 1884.26,1096.87 1887.86,1094.46 1891.44,1092.06 1894.99,1089.65 1898.52,1087.24 1902.03,1084.83 1905.51,1082.42 1908.98,1080.02 1912.42,1077.61 1915.84,1075.2 1919.24,1072.79 1922.61,1070.38 1925.97,1067.97 1929.31,1065.57 1932.62,1063.16 1935.91,1060.75 1939.19,1058.34 1942.44,1055.93 1945.67,1053.52 1948.88,1051.12 1952.08,1048.71 1955.25,1046.3 1958.4,1043.89 1961.54,1041.48 1964.65,1039.07 1967.75,1036.67 1970.83,1034.26 1973.88,1031.85 1976.92,1029.44 1979.94,1027.03 1982.94,1024.62 1985.93,1022.22 1988.89,1019.81 1991.84,1017.4 1994.77,1014.99 1997.68,1012.58 2000.57,1010.18 2003.45,1007.77 2006.3,1005.36 2009.14,1002.95 2011.97,1000.54 2014.77,998.134 2017.56,995.726 2020.33,993.317 2023.09,990.909 2025.82,988.501 2028.54,986.092 2031.25,983.684 2033.93,981.276 2036.6,978.868 2039.26,976.459 2041.89,974.051 2044.51,971.643 2047.12,969.235 2049.71,966.826 2052.28,964.418 2054.84,962.01 2057.38,959.601 2059.9,957.193 2062.41,954.785 2064.9,952.377 2067.38,949.968 2069.84,947.56 2072.29,945.152 2074.72,942.744 2077.14,940.335 2079.54,937.927 2081.92,935.519 2084.29,933.11 2086.65,930.702 2088.99,928.294 2091.31,925.886 2093.62,923.477 2095.92,921.069 2098.2,918.661 2100.47,916.253 2102.72,913.844 2104.95,911.436 2107.18,909.028 2109.38,906.619 2111.58,904.211 2113.75,901.803 2115.92,899.395 2118.07,896.986 2120.2,894.578 2122.33,892.17 2124.43,889.762 2126.53,887.353 2128.6,884.945 2130.67,882.537 2132.72,880.128 2134.76,877.72 2136.78,875.312 2138.79,872.904 2140.79,870.495 2142.77,868.087 2144.74,865.679 2146.69,863.271 2148.63,860.862 2150.56,858.454 2152.47,856.046 2154.37,853.637 2156.26,851.229 2158.13,848.821 2159.99,846.413 2161.83,844.004 2163.67,841.596 2165.48,839.188 2167.29,836.78 2169.08,834.371 2170.86,831.963 2172.63,829.555 2174.38,827.146 2176.12,824.738 2177.85,822.33 2179.56,819.922 2181.26,817.513 2182.95,815.105 2184.62,812.697 2186.28,810.288 2187.93,807.88 2189.56,805.472 2191.18,803.064 2192.79,800.655 2194.39,798.247 2195.97,795.839 2197.54,793.431 2199.1,791.022 2200.64,788.614 2202.18,786.206 2203.69,783.797 2205.2,781.389 2206.69,778.981 2208.17,776.573 2209.64,774.164 2211.1,771.756 2212.54,769.348 "/>
</svg>
