<?xml version="1.0" encoding="utf-8"?>
<svg xmlns="http://www.w3.org/2000/svg" xmlns:xlink="http://www.w3.org/1999/xlink" width="600" height="400" viewBox="0 0 2400 1600">
<defs>
  <clipPath id="clip520">
    <rect x="0" y="0" width="2400" height="1600"/>
  </clipPath>
</defs>
<path clip-path="url(#clip520)" d="M0 1600 L2400 1600 L2400 0 L0 0  Z" fill="#ffffff" fill-rule="evenodd" fill-opacity="1"/>
<defs>
  <clipPath id="clip521">
    <rect x="175" y="123" width="2178" height="1301"/>
  </clipPath>
</defs>
<path clip-path="url(#clip520)" d="M175.445 1423.18 L2352.76 1423.18 L2352.76 123.472 L175.445 123.472  Z" fill="#ffffff" fill-rule="evenodd" fill-opacity="1"/>
<polyline clip-path="url(#clip521)" style="stroke:#000000; stroke-linecap:round; stroke-linejoin:round; stroke-width:2; stroke-opacity:0.1; fill:none" points="223.9,1423.18 223.9,123.472 "/>
<polyline clip-path="url(#clip521)" style="stroke:#000000; stroke-linecap:round; stroke-linejoin:round; stroke-width:2; stroke-opacity:0.1; fill:none" points="882.255,1423.18 882.255,123.472 "/>
<polyline clip-path="url(#clip521)" style="stroke:#000000; stroke-linecap:round; stroke-linejoin:round; stroke-width:2; stroke-opacity:0.1; fill:none" points="1540.61,1423.18 1540.61,123.472 "/>
<polyline clip-path="url(#clip521)" style="stroke:#000000; stroke-linecap:round; stroke-linejoin:round; stroke-width:2; stroke-opacity:0.1; fill:none" points="2198.96,1423.18 2198.96,123.472 "/>
<polyline clip-path="url(#clip521)" style="stroke:#000000; stroke-linecap:round; stroke-linejoin:round; stroke-width:2; stroke-opacity:0.1; fill:none" points="175.445,1374.49 2352.76,1374.49 "/>
<polyline clip-path="url(#clip521)" style="stroke:#000000; stroke-linecap:round; stroke-linejoin:round; stroke-width:2; stroke-opacity:0.1; fill:none" points="175.445,982.151 2352.76,982.151 "/>
<polyline clip-path="url(#clip521)" style="stroke:#000000; stroke-linecap:round; stroke-linejoin:round; stroke-width:2; stroke-opacity:0.1; fill:none" points="175.445,589.807 2352.76,589.807 "/>
<polyline clip-path="url(#clip521)" style="stroke:#000000; stroke-linecap:round; stroke-linejoin:round; stroke-width:2; stroke-opacity:0.1; fill:none" points="175.445,197.464 2352.76,197.464 "/>
<polyline clip-path="url(#clip520)" style="stroke:#000000; stroke-linecap:round; stroke-linejoin:round; stroke-width:4; stroke-opacity:1; fill:none" points="175.445,1423.18 2352.76,1423.18 "/>
<polyline clip-path="url(#clip520)" style="stroke:#000000; stroke-linecap:round; stroke-linejoin:round; stroke-width:4; stroke-opacity:1; fill:none" points="223.9,1423.18 223.9,1404.28 "/>
<polyline clip-path="url(#clip520)" style="stroke:#000000; stroke-linecap:round; stroke-linejoin:round; stroke-width:4; stroke-opacity:1; fill:none" points="882.255,1423.18 882.255,1404.28 "/>
<polyline clip-path="url(#clip520)" style="stroke:#000000; stroke-linecap:round; stroke-linejoin:round; stroke-width:4; stroke-opacity:1; fill:none" points="1540.61,1423.18 1540.61,1404.28 "/>
<polyline clip-path="url(#clip520)" style="stroke:#000000; stroke-linecap:round; stroke-linejoin:round; stroke-width:4; stroke-opacity:1; fill:none" points="2198.96,1423.18 2198.96,1404.28 "/>
<path clip-path="url(#clip520)" d="M223.9 1454.1 Q220.289 1454.1 218.46 1457.66 Q216.655 1461.2 216.655 1468.33 Q216.655 1475.44 218.46 1479.01 Q220.289 1482.55 223.9 1482.55 Q227.534 1482.55 229.34 1479.01 Q231.169 1475.44 231.169 1468.33 Q231.169 1461.2 229.34 1457.66 Q227.534 1454.1 223.9 1454.1 M223.9 1450.39 Q229.71 1450.39 232.766 1455 Q235.844 1459.58 235.844 1468.33 Q235.844 1477.06 232.766 1481.67 Q229.71 1486.25 223.9 1486.25 Q218.09 1486.25 215.011 1481.67 Q211.956 1477.06 211.956 1468.33 Q211.956 1459.58 215.011 1455 Q218.09 1450.39 223.9 1450.39 Z" fill="#000000" fill-rule="nonzero" fill-opacity="1" /><path clip-path="url(#clip520)" d="M856.954 1451.02 L875.31 1451.02 L875.31 1454.96 L861.236 1454.96 L861.236 1463.43 Q862.255 1463.08 863.273 1462.92 Q864.292 1462.73 865.31 1462.73 Q871.097 1462.73 874.477 1465.9 Q877.857 1469.08 877.857 1474.49 Q877.857 1480.07 874.384 1483.17 Q870.912 1486.25 864.593 1486.25 Q862.417 1486.25 860.148 1485.88 Q857.903 1485.51 855.496 1484.77 L855.496 1480.07 Q857.579 1481.2 859.801 1481.76 Q862.023 1482.32 864.5 1482.32 Q868.505 1482.32 870.843 1480.21 Q873.181 1478.1 873.181 1474.49 Q873.181 1470.88 870.843 1468.77 Q868.505 1466.67 864.5 1466.67 Q862.625 1466.67 860.75 1467.08 Q858.898 1467.5 856.954 1468.38 L856.954 1451.02 Z" fill="#000000" fill-rule="nonzero" fill-opacity="1" /><path clip-path="url(#clip520)" d="M897.07 1454.1 Q893.458 1454.1 891.63 1457.66 Q889.824 1461.2 889.824 1468.33 Q889.824 1475.44 891.63 1479.01 Q893.458 1482.55 897.07 1482.55 Q900.704 1482.55 902.509 1479.01 Q904.338 1475.44 904.338 1468.33 Q904.338 1461.2 902.509 1457.66 Q900.704 1454.1 897.07 1454.1 M897.07 1450.39 Q902.88 1450.39 905.935 1455 Q909.014 1459.58 909.014 1468.33 Q909.014 1477.06 905.935 1481.67 Q902.88 1486.25 897.07 1486.25 Q891.259 1486.25 888.181 1481.67 Q885.125 1477.06 885.125 1468.33 Q885.125 1459.58 888.181 1455 Q891.259 1450.39 897.07 1450.39 Z" fill="#000000" fill-rule="nonzero" fill-opacity="1" /><path clip-path="url(#clip520)" d="M1500.22 1481.64 L1507.86 1481.64 L1507.86 1455.28 L1499.54 1456.95 L1499.54 1452.69 L1507.81 1451.02 L1512.48 1451.02 L1512.48 1481.64 L1520.12 1481.64 L1520.12 1485.58 L1500.22 1485.58 L1500.22 1481.64 Z" fill="#000000" fill-rule="nonzero" fill-opacity="1" /><path clip-path="url(#clip520)" d="M1539.57 1454.1 Q1535.96 1454.1 1534.13 1457.66 Q1532.32 1461.2 1532.32 1468.33 Q1532.32 1475.44 1534.13 1479.01 Q1535.96 1482.55 1539.57 1482.55 Q1543.2 1482.55 1545.01 1479.01 Q1546.84 1475.44 1546.84 1468.33 Q1546.84 1461.2 1545.01 1457.66 Q1543.2 1454.1 1539.57 1454.1 M1539.57 1450.39 Q1545.38 1450.39 1548.43 1455 Q1551.51 1459.58 1551.51 1468.33 Q1551.51 1477.06 1548.43 1481.67 Q1545.38 1486.25 1539.57 1486.25 Q1533.76 1486.25 1530.68 1481.67 Q1527.62 1477.06 1527.62 1468.33 Q1527.62 1459.58 1530.68 1455 Q1533.76 1450.39 1539.57 1450.39 Z" fill="#000000" fill-rule="nonzero" fill-opacity="1" /><path clip-path="url(#clip520)" d="M1569.73 1454.1 Q1566.12 1454.1 1564.29 1457.66 Q1562.48 1461.2 1562.48 1468.33 Q1562.48 1475.44 1564.29 1479.01 Q1566.12 1482.55 1569.73 1482.55 Q1573.36 1482.55 1575.17 1479.01 Q1577 1475.44 1577 1468.33 Q1577 1461.2 1575.17 1457.66 Q1573.36 1454.1 1569.73 1454.1 M1569.73 1450.39 Q1575.54 1450.39 1578.6 1455 Q1581.67 1459.58 1581.67 1468.33 Q1581.67 1477.06 1578.6 1481.67 Q1575.54 1486.25 1569.73 1486.25 Q1563.92 1486.25 1560.84 1481.67 Q1557.79 1477.06 1557.79 1468.33 Q1557.79 1459.58 1560.84 1455 Q1563.92 1450.39 1569.73 1450.39 Z" fill="#000000" fill-rule="nonzero" fill-opacity="1" /><path clip-path="url(#clip520)" d="M2158.57 1481.64 L2166.21 1481.64 L2166.21 1455.28 L2157.9 1456.95 L2157.9 1452.69 L2166.16 1451.02 L2170.84 1451.02 L2170.84 1481.64 L2178.48 1481.64 L2178.48 1485.58 L2158.57 1485.58 L2158.57 1481.64 Z" fill="#000000" fill-rule="nonzero" fill-opacity="1" /><path clip-path="url(#clip520)" d="M2187.97 1451.02 L2206.33 1451.02 L2206.33 1454.96 L2192.25 1454.96 L2192.25 1463.43 Q2193.27 1463.08 2194.29 1462.92 Q2195.31 1462.73 2196.33 1462.73 Q2202.11 1462.73 2205.49 1465.9 Q2208.87 1469.08 2208.87 1474.49 Q2208.87 1480.07 2205.4 1483.17 Q2201.93 1486.25 2195.61 1486.25 Q2193.43 1486.25 2191.16 1485.88 Q2188.92 1485.51 2186.51 1484.77 L2186.51 1480.07 Q2188.59 1481.2 2190.82 1481.76 Q2193.04 1482.32 2195.52 1482.32 Q2199.52 1482.32 2201.86 1480.21 Q2204.2 1478.1 2204.2 1474.49 Q2204.2 1470.88 2201.86 1468.77 Q2199.52 1466.67 2195.52 1466.67 Q2193.64 1466.67 2191.77 1467.08 Q2189.91 1467.5 2187.97 1468.38 L2187.97 1451.02 Z" fill="#000000" fill-rule="nonzero" fill-opacity="1" /><path clip-path="url(#clip520)" d="M2228.08 1454.1 Q2224.47 1454.1 2222.64 1457.66 Q2220.84 1461.2 2220.84 1468.33 Q2220.84 1475.44 2222.64 1479.01 Q2224.47 1482.55 2228.08 1482.55 Q2231.72 1482.55 2233.52 1479.01 Q2235.35 1475.44 2235.35 1468.33 Q2235.35 1461.2 2233.52 1457.66 Q2231.72 1454.1 2228.08 1454.1 M2228.08 1450.39 Q2233.89 1450.39 2236.95 1455 Q2240.03 1459.58 2240.03 1468.33 Q2240.03 1477.06 2236.95 1481.67 Q2233.89 1486.25 2228.08 1486.25 Q2222.27 1486.25 2219.2 1481.67 Q2216.14 1477.06 2216.14 1468.33 Q2216.14 1459.58 2219.2 1455 Q2222.27 1450.39 2228.08 1450.39 Z" fill="#000000" fill-rule="nonzero" fill-opacity="1" /><path clip-path="url(#clip520)" d="M716.125 1545.76 Q718.193 1546.46 720.135 1548.76 Q722.108 1551.05 724.082 1555.06 L730.607 1568.04 L723.7 1568.04 L717.621 1555.85 Q715.265 1551.08 713.037 1549.52 Q710.841 1547.96 707.022 1547.96 L700.019 1547.96 L700.019 1568.04 L693.59 1568.04 L693.59 1520.52 L708.104 1520.52 Q716.252 1520.52 720.262 1523.93 Q724.273 1527.34 724.273 1534.21 Q724.273 1538.7 722.172 1541.66 Q720.103 1544.62 716.125 1545.76 M700.019 1525.81 L700.019 1542.68 L708.104 1542.68 Q712.751 1542.68 715.106 1540.54 Q717.493 1538.38 717.493 1534.21 Q717.493 1530.04 715.106 1527.94 Q712.751 1525.81 708.104 1525.81 L700.019 1525.81 Z" fill="#000000" fill-rule="nonzero" fill-opacity="1" /><path clip-path="url(#clip520)" d="M735.094 1553.98 L735.094 1532.4 L740.951 1532.4 L740.951 1553.75 Q740.951 1558.81 742.924 1561.36 Q744.898 1563.87 748.844 1563.87 Q753.587 1563.87 756.324 1560.85 Q759.093 1557.83 759.093 1552.61 L759.093 1532.4 L764.95 1532.4 L764.95 1568.04 L759.093 1568.04 L759.093 1562.57 Q756.961 1565.82 754.128 1567.41 Q751.327 1568.97 747.603 1568.97 Q741.46 1568.97 738.277 1565.15 Q735.094 1561.33 735.094 1553.98 M749.831 1531.54 L749.831 1531.54 Z" fill="#000000" fill-rule="nonzero" fill-opacity="1" /><path clip-path="url(#clip520)" d="M806.645 1546.53 L806.645 1568.04 L800.789 1568.04 L800.789 1546.72 Q800.789 1541.66 798.815 1539.14 Q796.842 1536.63 792.895 1536.63 Q788.153 1536.63 785.415 1539.65 Q782.678 1542.68 782.678 1547.9 L782.678 1568.04 L776.79 1568.04 L776.79 1532.4 L782.678 1532.4 L782.678 1537.93 Q784.779 1534.72 787.612 1533.13 Q790.476 1531.54 794.2 1531.54 Q800.343 1531.54 803.494 1535.36 Q806.645 1539.14 806.645 1546.53 Z" fill="#000000" fill-rule="nonzero" fill-opacity="1" /><path clip-path="url(#clip520)" d="M853.115 1518.58 Q848.85 1525.9 846.781 1533.06 Q844.712 1540.23 844.712 1547.58 Q844.712 1554.93 846.781 1562.16 Q848.881 1569.35 853.115 1576.64 L848.022 1576.64 Q843.248 1569.16 840.861 1561.93 Q838.505 1554.71 838.505 1547.58 Q838.505 1540.48 840.861 1533.29 Q843.216 1526.09 848.022 1518.58 L853.115 1518.58 Z" fill="#000000" fill-rule="nonzero" fill-opacity="1" /><path clip-path="url(#clip520)" d="M887.203 1533.45 L887.203 1538.98 Q884.72 1537.71 882.047 1537.07 Q879.373 1536.44 876.509 1536.44 Q872.148 1536.44 869.952 1537.77 Q867.788 1539.11 867.788 1541.79 Q867.788 1543.82 869.347 1545 Q870.907 1546.15 875.617 1547.2 L877.623 1547.64 Q883.861 1548.98 886.471 1551.43 Q889.113 1553.85 889.113 1558.21 Q889.113 1563.17 885.166 1566.07 Q881.251 1568.97 874.376 1568.97 Q871.512 1568.97 868.392 1568.39 Q865.305 1567.85 861.867 1566.74 L861.867 1560.69 Q865.114 1562.38 868.265 1563.24 Q871.416 1564.07 874.503 1564.07 Q878.641 1564.07 880.869 1562.66 Q883.097 1561.23 883.097 1558.65 Q883.097 1556.27 881.474 1554.99 Q879.882 1553.72 874.44 1552.54 L872.403 1552.07 Q866.96 1550.92 864.541 1548.56 Q862.122 1546.18 862.122 1542.04 Q862.122 1537.01 865.687 1534.27 Q869.252 1531.54 875.808 1531.54 Q879.055 1531.54 881.919 1532.01 Q884.784 1532.49 887.203 1533.45 Z" fill="#000000" fill-rule="nonzero" fill-opacity="1" /><path clip-path="url(#clip520)" d="M912.252 1536.5 Q907.541 1536.5 904.804 1540.19 Q902.067 1543.85 902.067 1550.25 Q902.067 1556.65 904.772 1560.34 Q907.51 1564 912.252 1564 Q916.931 1564 919.668 1560.31 Q922.405 1556.62 922.405 1550.25 Q922.405 1543.92 919.668 1540.23 Q916.931 1536.5 912.252 1536.5 M912.252 1531.54 Q919.891 1531.54 924.251 1536.5 Q928.612 1541.47 928.612 1550.25 Q928.612 1559 924.251 1564 Q919.891 1568.97 912.252 1568.97 Q904.581 1568.97 900.221 1564 Q895.892 1559 895.892 1550.25 Q895.892 1541.47 900.221 1536.5 Q904.581 1531.54 912.252 1531.54 Z" fill="#000000" fill-rule="nonzero" fill-opacity="1" /><path clip-path="url(#clip520)" d="M958.976 1537.87 Q957.99 1537.3 956.812 1537.04 Q955.666 1536.76 954.266 1536.76 Q949.3 1536.76 946.627 1540 Q943.985 1543.22 943.985 1549.27 L943.985 1568.04 L938.097 1568.04 L938.097 1532.4 L943.985 1532.4 L943.985 1537.93 Q945.831 1534.69 948.791 1533.13 Q951.751 1531.54 955.984 1531.54 Q956.589 1531.54 957.321 1531.63 Q958.053 1531.7 958.944 1531.85 L958.976 1537.87 Z" fill="#000000" fill-rule="nonzero" fill-opacity="1" /><path clip-path="url(#clip520)" d="M970.912 1522.27 L970.912 1532.4 L982.975 1532.4 L982.975 1536.95 L970.912 1536.95 L970.912 1556.3 Q970.912 1560.66 972.09 1561.9 Q973.299 1563.14 976.959 1563.14 L982.975 1563.14 L982.975 1568.04 L976.959 1568.04 Q970.18 1568.04 967.602 1565.53 Q965.024 1562.98 965.024 1556.3 L965.024 1536.95 L960.727 1536.95 L960.727 1532.4 L965.024 1532.4 L965.024 1522.27 L970.912 1522.27 Z" fill="#000000" fill-rule="nonzero" fill-opacity="1" /><path clip-path="url(#clip520)" d="M1021.17 1548.76 L1021.17 1551.62 L994.242 1551.62 Q994.624 1557.67 997.871 1560.85 Q1001.15 1564 1006.97 1564 Q1010.35 1564 1013.5 1563.17 Q1016.68 1562.35 1019.8 1560.69 L1019.8 1566.23 Q1016.65 1567.57 1013.34 1568.27 Q1010.03 1568.97 1006.62 1568.97 Q998.094 1568.97 993.097 1564 Q988.131 1559.04 988.131 1550.57 Q988.131 1541.82 992.842 1536.69 Q997.584 1531.54 1005.61 1531.54 Q1012.8 1531.54 1016.97 1536.18 Q1021.17 1540.8 1021.17 1548.76 M1015.31 1547.04 Q1015.25 1542.23 1012.61 1539.37 Q1010 1536.5 1005.67 1536.5 Q1000.77 1536.5 997.807 1539.27 Q994.879 1542.04 994.433 1547.07 L1015.31 1547.04 Z" fill="#000000" fill-rule="nonzero" fill-opacity="1" /><path clip-path="url(#clip520)" d="M1054.24 1537.81 L1054.24 1518.52 L1060.1 1518.52 L1060.1 1568.04 L1054.24 1568.04 L1054.24 1562.7 Q1052.39 1565.88 1049.56 1567.44 Q1046.76 1568.97 1042.81 1568.97 Q1036.35 1568.97 1032.28 1563.81 Q1028.24 1558.65 1028.24 1550.25 Q1028.24 1541.85 1032.28 1536.69 Q1036.35 1531.54 1042.81 1531.54 Q1046.76 1531.54 1049.56 1533.1 Q1052.39 1534.62 1054.24 1537.81 M1034.28 1550.25 Q1034.28 1556.71 1036.92 1560.4 Q1039.6 1564.07 1044.24 1564.07 Q1048.89 1564.07 1051.57 1560.4 Q1054.24 1556.71 1054.24 1550.25 Q1054.24 1543.79 1051.57 1540.13 Q1048.89 1536.44 1044.24 1536.44 Q1039.6 1536.44 1036.92 1540.13 Q1034.28 1543.79 1034.28 1550.25 Z" fill="#000000" fill-rule="nonzero" fill-opacity="1" /><path clip-path="url(#clip520)" d="M1118.47 1550.25 Q1118.47 1543.79 1115.8 1540.13 Q1113.15 1536.44 1108.51 1536.44 Q1103.86 1536.44 1101.19 1540.13 Q1098.54 1543.79 1098.54 1550.25 Q1098.54 1556.71 1101.19 1560.4 Q1103.86 1564.07 1108.51 1564.07 Q1113.15 1564.07 1115.8 1560.4 Q1118.47 1556.71 1118.47 1550.25 M1098.54 1537.81 Q1100.39 1534.62 1103.19 1533.1 Q1106.02 1531.54 1109.94 1531.54 Q1116.43 1531.54 1120.47 1536.69 Q1124.55 1541.85 1124.55 1550.25 Q1124.55 1558.65 1120.47 1563.81 Q1116.43 1568.97 1109.94 1568.97 Q1106.02 1568.97 1103.19 1567.44 Q1100.39 1565.88 1098.54 1562.7 L1098.54 1568.04 L1092.66 1568.04 L1092.66 1518.52 L1098.54 1518.52 L1098.54 1537.81 Z" fill="#000000" fill-rule="nonzero" fill-opacity="1" /><path clip-path="url(#clip520)" d="M1149.09 1571.35 Q1146.61 1577.72 1144.25 1579.66 Q1141.89 1581.6 1137.95 1581.6 L1133.27 1581.6 L1133.27 1576.7 L1136.71 1576.7 Q1139.13 1576.7 1140.46 1575.56 Q1141.8 1574.41 1143.42 1570.14 L1144.47 1567.47 L1130.05 1532.4 L1136.26 1532.4 L1147.4 1560.28 L1158.54 1532.4 L1164.75 1532.4 L1149.09 1571.35 Z" fill="#000000" fill-rule="nonzero" fill-opacity="1" /><path clip-path="url(#clip520)" d="M1219.21 1533.76 L1219.21 1539.24 Q1216.72 1537.87 1214.21 1537.2 Q1211.73 1536.5 1209.18 1536.5 Q1203.48 1536.5 1200.33 1540.13 Q1197.18 1543.73 1197.18 1550.25 Q1197.18 1556.78 1200.33 1560.4 Q1203.48 1564 1209.18 1564 Q1211.73 1564 1214.21 1563.33 Q1216.72 1562.63 1219.21 1561.26 L1219.21 1566.68 Q1216.76 1567.82 1214.11 1568.39 Q1211.5 1568.97 1208.54 1568.97 Q1200.49 1568.97 1195.75 1563.91 Q1191.01 1558.85 1191.01 1550.25 Q1191.01 1541.53 1195.78 1536.53 Q1200.59 1531.54 1208.93 1531.54 Q1211.63 1531.54 1214.21 1532.11 Q1216.79 1532.65 1219.21 1533.76 Z" fill="#000000" fill-rule="nonzero" fill-opacity="1" /><path clip-path="url(#clip520)" d="M1243.21 1536.5 Q1238.49 1536.5 1235.76 1540.19 Q1233.02 1543.85 1233.02 1550.25 Q1233.02 1556.65 1235.73 1560.34 Q1238.46 1564 1243.21 1564 Q1247.88 1564 1250.62 1560.31 Q1253.36 1556.62 1253.36 1550.25 Q1253.36 1543.92 1250.62 1540.23 Q1247.88 1536.5 1243.21 1536.5 M1243.21 1531.54 Q1250.84 1531.54 1255.2 1536.5 Q1259.56 1541.47 1259.56 1550.25 Q1259.56 1559 1255.2 1564 Q1250.84 1568.97 1243.21 1568.97 Q1235.53 1568.97 1231.17 1564 Q1226.85 1559 1226.85 1550.25 Q1226.85 1541.47 1231.17 1536.5 Q1235.53 1531.54 1243.21 1531.54 Z" fill="#000000" fill-rule="nonzero" fill-opacity="1" /><path clip-path="url(#clip520)" d="M1292 1533.45 L1292 1538.98 Q1289.52 1537.71 1286.84 1537.07 Q1284.17 1536.44 1281.3 1536.44 Q1276.94 1536.44 1274.75 1537.77 Q1272.58 1539.11 1272.58 1541.79 Q1272.58 1543.82 1274.14 1545 Q1275.7 1546.15 1280.41 1547.2 L1282.42 1547.64 Q1288.66 1548.98 1291.27 1551.43 Q1293.91 1553.85 1293.91 1558.21 Q1293.91 1563.17 1289.96 1566.07 Q1286.05 1568.97 1279.17 1568.97 Q1276.31 1568.97 1273.19 1568.39 Q1270.1 1567.85 1266.66 1566.74 L1266.66 1560.69 Q1269.91 1562.38 1273.06 1563.24 Q1276.21 1564.07 1279.3 1564.07 Q1283.44 1564.07 1285.66 1562.66 Q1287.89 1561.23 1287.89 1558.65 Q1287.89 1556.27 1286.27 1554.99 Q1284.68 1553.72 1279.24 1552.54 L1277.2 1552.07 Q1271.76 1550.92 1269.34 1548.56 Q1266.92 1546.18 1266.92 1542.04 Q1266.92 1537.01 1270.48 1534.27 Q1274.05 1531.54 1280.6 1531.54 Q1283.85 1531.54 1286.71 1532.01 Q1289.58 1532.49 1292 1533.45 Z" fill="#000000" fill-rule="nonzero" fill-opacity="1" /><path clip-path="url(#clip520)" d="M1309.03 1522.27 L1309.03 1532.4 L1321.09 1532.4 L1321.09 1536.95 L1309.03 1536.95 L1309.03 1556.3 Q1309.03 1560.66 1310.2 1561.9 Q1311.41 1563.14 1315.07 1563.14 L1321.09 1563.14 L1321.09 1568.04 L1315.07 1568.04 Q1308.29 1568.04 1305.72 1565.53 Q1303.14 1562.98 1303.14 1556.3 L1303.14 1536.95 L1298.84 1536.95 L1298.84 1532.4 L1303.14 1532.4 L1303.14 1522.27 L1309.03 1522.27 Z" fill="#000000" fill-rule="nonzero" fill-opacity="1" /><path clip-path="url(#clip520)" d="M1367.56 1518.52 L1367.56 1523.39 L1361.96 1523.39 Q1358.81 1523.39 1357.57 1524.66 Q1356.36 1525.93 1356.36 1529.24 L1356.36 1532.4 L1366 1532.4 L1366 1536.95 L1356.36 1536.95 L1356.36 1568.04 L1350.47 1568.04 L1350.47 1536.95 L1344.87 1536.95 L1344.87 1532.4 L1350.47 1532.4 L1350.47 1529.91 Q1350.47 1523.96 1353.24 1521.26 Q1356.01 1518.52 1362.02 1518.52 L1367.56 1518.52 Z" fill="#000000" fill-rule="nonzero" fill-opacity="1" /><path clip-path="url(#clip520)" d="M1371.86 1553.98 L1371.86 1532.4 L1377.71 1532.4 L1377.71 1553.75 Q1377.71 1558.81 1379.69 1561.36 Q1381.66 1563.87 1385.61 1563.87 Q1390.35 1563.87 1393.09 1560.85 Q1395.85 1557.83 1395.85 1552.61 L1395.85 1532.4 L1401.71 1532.4 L1401.71 1568.04 L1395.85 1568.04 L1395.85 1562.57 Q1393.72 1565.82 1390.89 1567.41 Q1388.09 1568.97 1384.36 1568.97 Q1378.22 1568.97 1375.04 1565.15 Q1371.86 1561.33 1371.86 1553.98 M1386.59 1531.54 L1386.59 1531.54 Z" fill="#000000" fill-rule="nonzero" fill-opacity="1" /><path clip-path="url(#clip520)" d="M1443.41 1546.53 L1443.41 1568.04 L1437.55 1568.04 L1437.55 1546.72 Q1437.55 1541.66 1435.58 1539.14 Q1433.6 1536.63 1429.66 1536.63 Q1424.91 1536.63 1422.18 1539.65 Q1419.44 1542.68 1419.44 1547.9 L1419.44 1568.04 L1413.55 1568.04 L1413.55 1532.4 L1419.44 1532.4 L1419.44 1537.93 Q1421.54 1534.72 1424.37 1533.13 Q1427.24 1531.54 1430.96 1531.54 Q1437.1 1531.54 1440.26 1535.36 Q1443.41 1539.14 1443.41 1546.53 Z" fill="#000000" fill-rule="nonzero" fill-opacity="1" /><path clip-path="url(#clip520)" d="M1480.74 1533.76 L1480.74 1539.24 Q1478.26 1537.87 1475.74 1537.2 Q1473.26 1536.5 1470.72 1536.5 Q1465.02 1536.5 1461.87 1540.13 Q1458.72 1543.73 1458.72 1550.25 Q1458.72 1556.78 1461.87 1560.4 Q1465.02 1564 1470.72 1564 Q1473.26 1564 1475.74 1563.33 Q1478.26 1562.63 1480.74 1561.26 L1480.74 1566.68 Q1478.29 1567.82 1475.65 1568.39 Q1473.04 1568.97 1470.08 1568.97 Q1462.03 1568.97 1457.28 1563.91 Q1452.54 1558.85 1452.54 1550.25 Q1452.54 1541.53 1457.32 1536.53 Q1462.12 1531.54 1470.46 1531.54 Q1473.17 1531.54 1475.74 1532.11 Q1478.32 1532.65 1480.74 1533.76 Z" fill="#000000" fill-rule="nonzero" fill-opacity="1" /><path clip-path="url(#clip520)" d="M1496.72 1522.27 L1496.72 1532.4 L1508.78 1532.4 L1508.78 1536.95 L1496.72 1536.95 L1496.72 1556.3 Q1496.72 1560.66 1497.9 1561.9 Q1499.11 1563.14 1502.77 1563.14 L1508.78 1563.14 L1508.78 1568.04 L1502.77 1568.04 Q1495.99 1568.04 1493.41 1565.53 Q1490.83 1562.98 1490.83 1556.3 L1490.83 1536.95 L1486.53 1536.95 L1486.53 1532.4 L1490.83 1532.4 L1490.83 1522.27 L1496.72 1522.27 Z" fill="#000000" fill-rule="nonzero" fill-opacity="1" /><path clip-path="url(#clip520)" d="M1516.48 1532.4 L1522.34 1532.4 L1522.34 1568.04 L1516.48 1568.04 L1516.48 1532.4 M1516.48 1518.52 L1522.34 1518.52 L1522.34 1525.93 L1516.48 1525.93 L1516.48 1518.52 Z" fill="#000000" fill-rule="nonzero" fill-opacity="1" /><path clip-path="url(#clip520)" d="M1548.41 1536.5 Q1543.7 1536.5 1540.96 1540.19 Q1538.22 1543.85 1538.22 1550.25 Q1538.22 1556.65 1540.93 1560.34 Q1543.67 1564 1548.41 1564 Q1553.09 1564 1555.82 1560.31 Q1558.56 1556.62 1558.56 1550.25 Q1558.56 1543.92 1555.82 1540.23 Q1553.09 1536.5 1548.41 1536.5 M1548.41 1531.54 Q1556.05 1531.54 1560.41 1536.5 Q1564.77 1541.47 1564.77 1550.25 Q1564.77 1559 1560.41 1564 Q1556.05 1568.97 1548.41 1568.97 Q1540.74 1568.97 1536.38 1564 Q1532.05 1559 1532.05 1550.25 Q1532.05 1541.47 1536.38 1536.5 Q1540.74 1531.54 1548.41 1531.54 Z" fill="#000000" fill-rule="nonzero" fill-opacity="1" /><path clip-path="url(#clip520)" d="M1604.11 1546.53 L1604.11 1568.04 L1598.25 1568.04 L1598.25 1546.72 Q1598.25 1541.66 1596.28 1539.14 Q1594.31 1536.63 1590.36 1536.63 Q1585.62 1536.63 1582.88 1539.65 Q1580.14 1542.68 1580.14 1547.9 L1580.14 1568.04 L1574.25 1568.04 L1574.25 1532.4 L1580.14 1532.4 L1580.14 1537.93 Q1582.24 1534.72 1585.08 1533.13 Q1587.94 1531.54 1591.66 1531.54 Q1597.81 1531.54 1600.96 1535.36 Q1604.11 1539.14 1604.11 1546.53 Z" fill="#000000" fill-rule="nonzero" fill-opacity="1" /><path clip-path="url(#clip520)" d="M1657.17 1537.87 Q1656.18 1537.3 1655 1537.04 Q1653.86 1536.76 1652.46 1536.76 Q1647.49 1536.76 1644.82 1540 Q1642.18 1543.22 1642.18 1549.27 L1642.18 1568.04 L1636.29 1568.04 L1636.29 1532.4 L1642.18 1532.4 L1642.18 1537.93 Q1644.02 1534.69 1646.98 1533.13 Q1649.94 1531.54 1654.18 1531.54 Q1654.78 1531.54 1655.51 1531.63 Q1656.24 1531.7 1657.14 1531.85 L1657.17 1537.87 Z" fill="#000000" fill-rule="nonzero" fill-opacity="1" /><path clip-path="url(#clip520)" d="M1692.37 1548.76 L1692.37 1551.62 L1665.44 1551.62 Q1665.82 1557.67 1669.07 1560.85 Q1672.35 1564 1678.17 1564 Q1681.55 1564 1684.7 1563.17 Q1687.88 1562.35 1691 1560.69 L1691 1566.23 Q1687.85 1567.57 1684.54 1568.27 Q1681.23 1568.97 1677.82 1568.97 Q1669.29 1568.97 1664.3 1564 Q1659.33 1559.04 1659.33 1550.57 Q1659.33 1541.82 1664.04 1536.69 Q1668.78 1531.54 1676.81 1531.54 Q1684 1531.54 1688.17 1536.18 Q1692.37 1540.8 1692.37 1548.76 M1686.51 1547.04 Q1686.45 1542.23 1683.81 1539.37 Q1681.2 1536.5 1676.87 1536.5 Q1671.97 1536.5 1669.01 1539.27 Q1666.08 1542.04 1665.63 1547.07 L1686.51 1547.04 Z" fill="#000000" fill-rule="nonzero" fill-opacity="1" /><path clip-path="url(#clip520)" d="M1724.71 1533.45 L1724.71 1538.98 Q1722.22 1537.71 1719.55 1537.07 Q1716.88 1536.44 1714.01 1536.44 Q1709.65 1536.44 1707.46 1537.77 Q1705.29 1539.11 1705.29 1541.79 Q1705.29 1543.82 1706.85 1545 Q1708.41 1546.15 1713.12 1547.2 L1715.13 1547.64 Q1721.37 1548.98 1723.98 1551.43 Q1726.62 1553.85 1726.62 1558.21 Q1726.62 1563.17 1722.67 1566.07 Q1718.76 1568.97 1711.88 1568.97 Q1709.02 1568.97 1705.9 1568.39 Q1702.81 1567.85 1699.37 1566.74 L1699.37 1560.69 Q1702.62 1562.38 1705.77 1563.24 Q1708.92 1564.07 1712.01 1564.07 Q1716.15 1564.07 1718.37 1562.66 Q1720.6 1561.23 1720.6 1558.65 Q1720.6 1556.27 1718.98 1554.99 Q1717.39 1553.72 1711.94 1552.54 L1709.91 1552.07 Q1704.46 1550.92 1702.05 1548.56 Q1699.63 1546.18 1699.63 1542.04 Q1699.63 1537.01 1703.19 1534.27 Q1706.76 1531.54 1713.31 1531.54 Q1716.56 1531.54 1719.42 1532.01 Q1722.29 1532.49 1724.71 1533.45 Z" fill="#000000" fill-rule="nonzero" fill-opacity="1" /><path clip-path="url(#clip520)" d="M1735.34 1553.98 L1735.34 1532.4 L1741.19 1532.4 L1741.19 1553.75 Q1741.19 1558.81 1743.17 1561.36 Q1745.14 1563.87 1749.09 1563.87 Q1753.83 1563.87 1756.57 1560.85 Q1759.34 1557.83 1759.34 1552.61 L1759.34 1532.4 L1765.19 1532.4 L1765.19 1568.04 L1759.34 1568.04 L1759.34 1562.57 Q1757.2 1565.82 1754.37 1567.41 Q1751.57 1568.97 1747.85 1568.97 Q1741.7 1568.97 1738.52 1565.15 Q1735.34 1561.33 1735.34 1553.98 M1750.07 1531.54 L1750.07 1531.54 Z" fill="#000000" fill-rule="nonzero" fill-opacity="1" /><path clip-path="url(#clip520)" d="M1777.26 1518.52 L1783.11 1518.52 L1783.11 1568.04 L1777.26 1568.04 L1777.26 1518.52 Z" fill="#000000" fill-rule="nonzero" fill-opacity="1" /><path clip-path="url(#clip520)" d="M1801.16 1522.27 L1801.16 1532.4 L1813.22 1532.4 L1813.22 1536.95 L1801.16 1536.95 L1801.16 1556.3 Q1801.16 1560.66 1802.34 1561.9 Q1803.55 1563.14 1807.21 1563.14 L1813.22 1563.14 L1813.22 1568.04 L1807.21 1568.04 Q1800.43 1568.04 1797.85 1565.53 Q1795.27 1562.98 1795.27 1556.3 L1795.27 1536.95 L1790.97 1536.95 L1790.97 1532.4 L1795.27 1532.4 L1795.27 1522.27 L1801.16 1522.27 Z" fill="#000000" fill-rule="nonzero" fill-opacity="1" /><path clip-path="url(#clip520)" d="M1820 1518.58 L1825.09 1518.58 Q1829.87 1526.09 1832.22 1533.29 Q1834.61 1540.48 1834.61 1547.58 Q1834.61 1554.71 1832.22 1561.93 Q1829.87 1569.16 1825.09 1576.64 L1820 1576.64 Q1824.23 1569.35 1826.3 1562.16 Q1828.4 1554.93 1828.4 1547.58 Q1828.4 1540.23 1826.3 1533.06 Q1824.23 1525.9 1820 1518.58 Z" fill="#000000" fill-rule="nonzero" fill-opacity="1" /><polyline clip-path="url(#clip520)" style="stroke:#000000; stroke-linecap:round; stroke-linejoin:round; stroke-width:4; stroke-opacity:1; fill:none" points="175.445,1423.18 175.445,123.472 "/>
<polyline clip-path="url(#clip520)" style="stroke:#000000; stroke-linecap:round; stroke-linejoin:round; stroke-width:4; stroke-opacity:1; fill:none" points="175.445,1374.49 194.343,1374.49 "/>
<polyline clip-path="url(#clip520)" style="stroke:#000000; stroke-linecap:round; stroke-linejoin:round; stroke-width:4; stroke-opacity:1; fill:none" points="175.445,982.151 194.343,982.151 "/>
<polyline clip-path="url(#clip520)" style="stroke:#000000; stroke-linecap:round; stroke-linejoin:round; stroke-width:4; stroke-opacity:1; fill:none" points="175.445,589.807 194.343,589.807 "/>
<polyline clip-path="url(#clip520)" style="stroke:#000000; stroke-linecap:round; stroke-linejoin:round; stroke-width:4; stroke-opacity:1; fill:none" points="175.445,197.464 194.343,197.464 "/>
<path clip-path="url(#clip520)" d="M123.126 1387.84 L139.445 1387.84 L139.445 1391.77 L117.501 1391.77 L117.501 1387.84 Q120.163 1385.08 124.746 1380.45 Q129.353 1375.8 130.533 1374.46 Q132.779 1371.94 133.658 1370.2 Q134.561 1368.44 134.561 1366.75 Q134.561 1364 132.617 1362.26 Q130.695 1360.52 127.593 1360.52 Q125.394 1360.52 122.941 1361.29 Q120.51 1362.05 117.732 1363.6 L117.732 1358.88 Q120.556 1357.75 123.01 1357.17 Q125.464 1356.59 127.501 1356.59 Q132.871 1356.59 136.066 1359.27 Q139.26 1361.96 139.26 1366.45 Q139.26 1368.58 138.45 1370.5 Q137.663 1372.4 135.556 1374.99 Q134.978 1375.66 131.876 1378.88 Q128.774 1382.08 123.126 1387.84 Z" fill="#000000" fill-rule="nonzero" fill-opacity="1" /><path clip-path="url(#clip520)" d="M132.316 980.797 Q135.672 981.514 137.547 983.783 Q139.445 986.051 139.445 989.385 Q139.445 994.5 135.927 997.301 Q132.408 1000.1 125.927 1000.1 Q123.751 1000.1 121.436 999.662 Q119.144 999.246 116.691 998.389 L116.691 993.875 Q118.635 995.009 120.95 995.588 Q123.265 996.167 125.788 996.167 Q130.186 996.167 132.478 994.431 Q134.792 992.695 134.792 989.385 Q134.792 986.329 132.64 984.616 Q130.51 982.88 126.691 982.88 L122.663 982.88 L122.663 979.037 L126.876 979.037 Q130.325 979.037 132.154 977.672 Q133.982 976.283 133.982 973.69 Q133.982 971.028 132.084 969.616 Q130.209 968.181 126.691 968.181 Q124.769 968.181 122.57 968.598 Q120.371 969.014 117.732 969.894 L117.732 965.727 Q120.394 964.987 122.709 964.616 Q125.047 964.246 127.107 964.246 Q132.431 964.246 135.533 966.676 Q138.635 969.084 138.635 973.204 Q138.635 976.074 136.992 978.065 Q135.348 980.033 132.316 980.797 Z" fill="#000000" fill-rule="nonzero" fill-opacity="1" /><path clip-path="url(#clip520)" d="M129.862 576.601 L118.056 595.05 L129.862 595.05 L129.862 576.601 M128.635 572.527 L134.515 572.527 L134.515 595.05 L139.445 595.05 L139.445 598.939 L134.515 598.939 L134.515 607.087 L129.862 607.087 L129.862 598.939 L114.26 598.939 L114.26 594.425 L128.635 572.527 Z" fill="#000000" fill-rule="nonzero" fill-opacity="1" /><path clip-path="url(#clip520)" d="M118.543 180.184 L136.899 180.184 L136.899 184.119 L122.825 184.119 L122.825 192.591 Q123.843 192.244 124.862 192.082 Q125.88 191.897 126.899 191.897 Q132.686 191.897 136.066 195.068 Q139.445 198.239 139.445 203.656 Q139.445 209.234 135.973 212.336 Q132.501 215.415 126.181 215.415 Q124.005 215.415 121.737 215.045 Q119.492 214.674 117.084 213.933 L117.084 209.234 Q119.168 210.369 121.39 210.924 Q123.612 211.48 126.089 211.48 Q130.093 211.48 132.431 209.373 Q134.769 207.267 134.769 203.656 Q134.769 200.045 132.431 197.938 Q130.093 195.832 126.089 195.832 Q124.214 195.832 122.339 196.248 Q120.487 196.665 118.543 197.545 L118.543 180.184 Z" fill="#000000" fill-rule="nonzero" fill-opacity="1" /><path clip-path="url(#clip520)" d="M41.3104 1133.75 L58.7206 1133.75 L58.7206 1123.44 Q58.7206 1118.25 56.5881 1115.77 Q54.4238 1113.25 49.9996 1113.25 Q45.5436 1113.25 43.4429 1115.77 Q41.3104 1118.25 41.3104 1123.44 L41.3104 1133.75 M21.7677 1133.75 L36.0905 1133.75 L36.0905 1124.24 Q36.0905 1119.52 34.34 1117.23 Q32.5576 1114.91 28.9291 1114.91 Q25.3325 1114.91 23.5501 1117.23 Q21.7677 1119.52 21.7677 1124.24 L21.7677 1133.75 M16.4842 1140.18 L16.4842 1123.76 Q16.4842 1116.41 19.5397 1112.43 Q22.5952 1108.45 28.2289 1108.45 Q32.5894 1108.45 35.1675 1110.49 Q37.7456 1112.52 38.3822 1116.47 Q39.4007 1111.73 42.6472 1109.12 Q45.8619 1106.48 50.6998 1106.48 Q57.0655 1106.48 60.5348 1110.8 Q64.0042 1115.13 64.0042 1123.12 L64.0042 1140.18 L16.4842 1140.18 Z" fill="#000000" fill-rule="nonzero" fill-opacity="1" /><path clip-path="url(#clip520)" d="M28.3562 1095.72 L28.3562 1089.86 L64.0042 1089.86 L64.0042 1095.72 L28.3562 1095.72 M14.479 1095.72 L14.479 1089.86 L21.895 1089.86 L21.895 1095.72 L14.479 1095.72 Z" fill="#000000" fill-rule="nonzero" fill-opacity="1" /><path clip-path="url(#clip520)" d="M16.4842 1077.35 L16.4842 1070.92 L58.5933 1070.92 L58.5933 1047.78 L64.0042 1047.78 L64.0042 1077.35 L16.4842 1077.35 Z" fill="#000000" fill-rule="nonzero" fill-opacity="1" /><path clip-path="url(#clip520)" d="M32.4621 1028.62 Q32.4621 1033.33 36.1542 1036.07 Q39.8145 1038.81 46.212 1038.81 Q52.6095 1038.81 56.3017 1036.1 Q59.9619 1033.37 59.9619 1028.62 Q59.9619 1023.94 56.2698 1021.21 Q52.5777 1018.47 46.212 1018.47 Q39.8781 1018.47 36.186 1021.21 Q32.4621 1023.94 32.4621 1028.62 M27.4968 1028.62 Q27.4968 1020.98 32.4621 1016.62 Q37.4273 1012.26 46.212 1012.26 Q54.9649 1012.26 59.9619 1016.62 Q64.9272 1020.98 64.9272 1028.62 Q64.9272 1036.29 59.9619 1040.65 Q54.9649 1044.98 46.212 1044.98 Q37.4273 1044.98 32.4621 1040.65 Q27.4968 1036.29 27.4968 1028.62 Z" fill="#000000" fill-rule="nonzero" fill-opacity="1" /><path clip-path="url(#clip520)" d="M45.7664 979.097 Q39.4007 979.097 35.8996 981.739 Q32.3984 984.349 32.3984 989.092 Q32.3984 993.802 35.8996 996.444 Q39.4007 999.054 45.7664 999.054 Q52.1003 999.054 55.6014 996.444 Q59.1026 993.802 59.1026 989.092 Q59.1026 984.349 55.6014 981.739 Q52.1003 979.097 45.7664 979.097 M59.58 973.241 Q68.683 973.241 73.1071 977.283 Q77.5631 981.325 77.5631 989.665 Q77.5631 992.752 77.0857 995.489 Q76.6401 998.226 75.6852 1000.8 L69.9879 1000.8 Q71.3884 998.226 72.0568 995.712 Q72.7252 993.197 72.7252 990.588 Q72.7252 984.827 69.7015 981.962 Q66.7096 979.097 60.6303 979.097 L57.7339 979.097 Q60.885 980.912 62.4446 983.744 Q64.0042 986.577 64.0042 990.524 Q64.0042 997.081 59.0071 1001.09 Q54.01 1005.1 45.7664 1005.1 Q37.491 1005.1 32.4939 1001.09 Q27.4968 997.081 27.4968 990.524 Q27.4968 986.577 29.0564 983.744 Q30.616 980.912 33.7671 979.097 L28.3562 979.097 L28.3562 973.241 L59.58 973.241 Z" fill="#000000" fill-rule="nonzero" fill-opacity="1" /><path clip-path="url(#clip520)" d="M14.5426 947.11 Q21.8632 951.375 29.0246 953.444 Q36.186 955.513 43.5384 955.513 Q50.8908 955.513 58.1159 953.444 Q65.3091 951.343 72.5979 947.11 L72.5979 952.202 Q65.1182 956.977 57.8931 959.364 Q50.668 961.719 43.5384 961.719 Q36.4406 961.719 29.2474 959.364 Q22.0542 957.008 14.5426 952.202 L14.5426 947.11 Z" fill="#000000" fill-rule="nonzero" fill-opacity="1" /><path clip-path="url(#clip520)" d="M16.4842 935.492 L16.4842 908.183 L21.895 908.183 L21.895 929.063 L35.8996 929.063 L35.8996 910.221 L41.3104 910.221 L41.3104 929.063 L64.0042 929.063 L64.0042 935.492 L16.4842 935.492 Z" fill="#000000" fill-rule="nonzero" fill-opacity="1" /><path clip-path="url(#clip520)" d="M28.3562 902.995 L28.3562 897.139 L64.0042 897.139 L64.0042 902.995 L28.3562 902.995 M14.479 902.995 L14.479 897.139 L21.895 897.139 L21.895 902.995 L14.479 902.995 Z" fill="#000000" fill-rule="nonzero" fill-opacity="1" /><path clip-path="url(#clip520)" d="M42.4881 855.253 L64.0042 855.253 L64.0042 861.109 L42.679 861.109 Q37.6183 861.109 35.1038 863.082 Q32.5894 865.056 32.5894 869.003 Q32.5894 873.745 35.6131 876.482 Q38.6368 879.22 43.8567 879.22 L64.0042 879.22 L64.0042 885.108 L28.3562 885.108 L28.3562 879.22 L33.8944 879.22 Q30.6797 877.119 29.0883 874.286 Q27.4968 871.422 27.4968 867.698 Q27.4968 861.555 31.3163 858.404 Q35.1038 855.253 42.4881 855.253 Z" fill="#000000" fill-rule="nonzero" fill-opacity="1" /><path clip-path="url(#clip520)" d="M46.0847 827.371 Q46.0847 834.469 47.7079 837.206 Q49.3312 839.943 53.2461 839.943 Q56.3653 839.943 58.2114 837.906 Q60.0256 835.837 60.0256 832.304 Q60.0256 827.434 56.5881 824.506 Q53.1188 821.546 47.3897 821.546 L46.0847 821.546 L46.0847 827.371 M43.6657 815.69 L64.0042 815.69 L64.0042 821.546 L58.5933 821.546 Q61.8398 823.551 63.3994 826.543 Q64.9272 829.535 64.9272 833.864 Q64.9272 839.338 61.8716 842.585 Q58.7843 845.8 53.6281 845.8 Q47.6125 845.8 44.5569 841.789 Q41.5014 837.747 41.5014 829.758 L41.5014 821.546 L40.9285 821.546 Q36.8862 821.546 34.6901 824.22 Q32.4621 826.862 32.4621 831.668 Q32.4621 834.723 33.1941 837.62 Q33.9262 840.516 35.3903 843.19 L29.9795 843.19 Q28.7381 839.975 28.1334 836.951 Q27.4968 833.928 27.4968 831.063 Q27.4968 823.329 31.5072 819.509 Q35.5176 815.69 43.6657 815.69 Z" fill="#000000" fill-rule="nonzero" fill-opacity="1" /><path clip-path="url(#clip520)" d="M14.479 803.627 L14.479 797.77 L64.0042 797.77 L64.0042 803.627 L14.479 803.627 Z" fill="#000000" fill-rule="nonzero" fill-opacity="1" /><path clip-path="url(#clip520)" d="M20.1444 728.957 L26.9239 728.957 Q23.9002 732.204 22.4043 735.896 Q20.9083 739.556 20.9083 743.694 Q20.9083 751.842 25.9054 756.17 Q30.8707 760.499 40.2919 760.499 Q49.6813 760.499 54.6784 756.17 Q59.6436 751.842 59.6436 743.694 Q59.6436 739.556 58.1477 735.896 Q56.6518 732.204 53.6281 728.957 L60.3439 728.957 Q62.6355 732.331 63.7814 736.118 Q64.9272 739.874 64.9272 744.076 Q64.9272 754.865 58.3387 761.072 Q51.7183 767.279 40.2919 767.279 Q28.8336 767.279 22.2451 761.072 Q15.6248 754.865 15.6248 744.076 Q15.6248 739.811 16.7706 736.055 Q17.8846 732.267 20.1444 728.957 Z" fill="#000000" fill-rule="nonzero" fill-opacity="1" /><path clip-path="url(#clip520)" d="M32.4621 705.468 Q32.4621 710.178 36.1542 712.915 Q39.8145 715.653 46.212 715.653 Q52.6095 715.653 56.3017 712.947 Q59.9619 710.21 59.9619 705.468 Q59.9619 700.789 56.2698 698.052 Q52.5777 695.314 46.212 695.314 Q39.8781 695.314 36.186 698.052 Q32.4621 700.789 32.4621 705.468 M27.4968 705.468 Q27.4968 697.829 32.4621 693.468 Q37.4273 689.108 46.212 689.108 Q54.9649 689.108 59.9619 693.468 Q64.9272 697.829 64.9272 705.468 Q64.9272 713.138 59.9619 717.499 Q54.9649 721.827 46.212 721.827 Q37.4273 721.827 32.4621 717.499 Q27.4968 713.138 27.4968 705.468 Z" fill="#000000" fill-rule="nonzero" fill-opacity="1" /><path clip-path="url(#clip520)" d="M29.4065 656.674 L34.9447 656.674 Q33.6716 659.157 33.035 661.831 Q32.3984 664.504 32.3984 667.369 Q32.3984 671.729 33.7352 673.925 Q35.072 676.09 37.7456 676.09 Q39.7826 676.09 40.9603 674.53 Q42.1061 672.971 43.1565 668.26 L43.6021 666.255 Q44.9389 660.016 47.3897 657.406 Q49.8086 654.765 54.1691 654.765 Q59.1344 654.765 62.0308 658.711 Q64.9272 662.626 64.9272 669.501 Q64.9272 672.366 64.3543 675.485 Q63.8132 678.572 62.6992 682.01 L56.6518 682.01 Q58.3387 678.763 59.198 675.612 Q60.0256 672.461 60.0256 669.374 Q60.0256 665.236 58.6251 663.008 Q57.1929 660.78 54.6147 660.78 Q52.2276 660.78 50.9545 662.404 Q49.6813 663.995 48.5037 669.438 L48.0262 671.475 Q46.8804 676.917 44.5251 679.336 Q42.138 681.755 38.0002 681.755 Q32.9713 681.755 30.2341 678.19 Q27.4968 674.626 27.4968 668.069 Q27.4968 664.823 27.9743 661.958 Q28.4517 659.093 29.4065 656.674 Z" fill="#000000" fill-rule="nonzero" fill-opacity="1" /><path clip-path="url(#clip520)" d="M18.2347 639.646 L28.3562 639.646 L28.3562 627.583 L32.9077 627.583 L32.9077 639.646 L52.2594 639.646 Q56.6199 639.646 57.8613 638.468 Q59.1026 637.259 59.1026 633.599 L59.1026 627.583 L64.0042 627.583 L64.0042 633.599 Q64.0042 640.378 61.4897 642.956 Q58.9434 645.534 52.2594 645.534 L32.9077 645.534 L32.9077 649.831 L28.3562 649.831 L28.3562 645.534 L18.2347 645.534 L18.2347 639.646 Z" fill="#000000" fill-rule="nonzero" fill-opacity="1" /><path clip-path="url(#clip520)" d="M64.0042 586.652 L16.4842 604.794 L16.4842 598.078 L56.4926 583.023 L16.4842 567.936 L16.4842 561.252 L64.0042 579.363 L64.0042 586.652 Z" fill="#000000" fill-rule="nonzero" fill-opacity="1" /><path clip-path="url(#clip520)" d="M46.0847 543.428 Q46.0847 550.526 47.7079 553.264 Q49.3312 556.001 53.2461 556.001 Q56.3653 556.001 58.2114 553.964 Q60.0256 551.895 60.0256 548.362 Q60.0256 543.492 56.5881 540.564 Q53.1188 537.604 47.3897 537.604 L46.0847 537.604 L46.0847 543.428 M43.6657 531.747 L64.0042 531.747 L64.0042 537.604 L58.5933 537.604 Q61.8398 539.609 63.3994 542.601 Q64.9272 545.593 64.9272 549.922 Q64.9272 555.396 61.8716 558.643 Q58.7843 561.857 53.6281 561.857 Q47.6125 561.857 44.5569 557.847 Q41.5014 553.805 41.5014 545.816 L41.5014 537.604 L40.9285 537.604 Q36.8862 537.604 34.6901 540.277 Q32.4621 542.919 32.4621 547.725 Q32.4621 550.781 33.1941 553.677 Q33.9262 556.574 35.3903 559.247 L29.9795 559.247 Q28.7381 556.033 28.1334 553.009 Q27.4968 549.985 27.4968 547.121 Q27.4968 539.386 31.5072 535.567 Q35.5176 531.747 43.6657 531.747 Z" fill="#000000" fill-rule="nonzero" fill-opacity="1" /><path clip-path="url(#clip520)" d="M14.479 519.684 L14.479 513.828 L64.0042 513.828 L64.0042 519.684 L14.479 519.684 Z" fill="#000000" fill-rule="nonzero" fill-opacity="1" /><path clip-path="url(#clip520)" d="M49.9359 502.179 L28.3562 502.179 L28.3562 496.322 L49.7131 496.322 Q54.7739 496.322 57.3202 494.349 Q59.8346 492.376 59.8346 488.429 Q59.8346 483.686 56.8109 480.949 Q53.7872 478.18 48.5673 478.18 L28.3562 478.18 L28.3562 472.324 L64.0042 472.324 L64.0042 478.18 L58.5296 478.18 Q61.7762 480.313 63.3676 483.145 Q64.9272 485.946 64.9272 489.67 Q64.9272 495.813 61.1078 498.996 Q57.2883 502.179 49.9359 502.179 M27.4968 487.442 L27.4968 487.442 Z" fill="#000000" fill-rule="nonzero" fill-opacity="1" /><path clip-path="url(#clip520)" d="M44.7161 429.769 L47.5806 429.769 L47.5806 456.696 Q53.6281 456.314 56.8109 453.067 Q59.9619 449.789 59.9619 443.964 Q59.9619 440.59 59.1344 437.439 Q58.3069 434.257 56.6518 431.137 L62.1899 431.137 Q63.5267 434.288 64.227 437.599 Q64.9272 440.909 64.9272 444.314 Q64.9272 452.844 59.9619 457.842 Q54.9967 462.807 46.5303 462.807 Q37.7774 462.807 32.6531 458.096 Q27.4968 453.354 27.4968 445.333 Q27.4968 438.14 32.1438 433.97 Q36.7589 429.769 44.7161 429.769 M42.9973 435.625 Q38.1912 435.689 35.3266 438.331 Q32.4621 440.941 32.4621 445.269 Q32.4621 450.171 35.2312 453.131 Q38.0002 456.059 43.0292 456.505 L42.9973 435.625 Z" fill="#000000" fill-rule="nonzero" fill-opacity="1" /><path clip-path="url(#clip520)" d="M14.5426 421.08 L14.5426 415.987 Q22.0542 411.213 29.2474 408.857 Q36.4406 406.47 43.5384 406.47 Q50.668 406.47 57.8931 408.857 Q65.1182 411.213 72.5979 415.987 L72.5979 421.08 Q65.3091 416.846 58.1159 414.778 Q50.8908 412.677 43.5384 412.677 Q36.186 412.677 29.0246 414.778 Q21.8632 416.846 14.5426 421.08 Z" fill="#000000" fill-rule="nonzero" fill-opacity="1" /><path clip-path="url(#clip520)" d="M804.343 12.096 L812.607 12.096 L825.327 63.2184 L838.006 12.096 L847.202 12.096 L859.922 63.2184 L872.601 12.096 L880.905 12.096 L865.714 72.576 L855.425 72.576 L842.665 20.0763 L829.783 72.576 L819.494 72.576 L804.343 12.096 Z" fill="#000000" fill-rule="nonzero" fill-opacity="1" /><path clip-path="url(#clip520)" d="M906.75 49.7694 Q897.717 49.7694 894.233 51.8354 Q890.749 53.9013 890.749 58.8839 Q890.749 62.8538 893.342 65.2034 Q895.975 67.5124 900.471 67.5124 Q906.669 67.5124 910.396 63.1374 Q914.163 58.7219 914.163 51.4303 L914.163 49.7694 L906.75 49.7694 M921.617 46.6907 L921.617 72.576 L914.163 72.576 L914.163 65.6895 Q911.611 69.8214 907.803 71.8063 Q903.995 73.7508 898.486 73.7508 Q891.519 73.7508 887.387 69.8619 Q883.295 65.9325 883.295 59.3701 Q883.295 51.7138 888.399 47.825 Q893.544 43.9361 903.712 43.9361 L914.163 43.9361 L914.163 43.2069 Q914.163 38.0623 910.76 35.2672 Q907.398 32.4315 901.281 32.4315 Q897.392 32.4315 893.706 33.3632 Q890.02 34.295 886.617 36.1584 L886.617 29.2718 Q890.708 27.692 894.557 26.9223 Q898.405 26.1121 902.051 26.1121 Q911.895 26.1121 916.756 31.2163 Q921.617 36.3204 921.617 46.6907 Z" fill="#000000" fill-rule="nonzero" fill-opacity="1" /><path clip-path="url(#clip520)" d="M944.342 14.324 L944.342 27.2059 L959.695 27.2059 L959.695 32.9987 L944.342 32.9987 L944.342 57.6282 Q944.342 63.1779 945.841 64.7578 Q947.381 66.3376 952.039 66.3376 L959.695 66.3376 L959.695 72.576 L952.039 72.576 Q943.411 72.576 940.129 69.3758 Q936.848 66.1351 936.848 57.6282 L936.848 32.9987 L931.38 32.9987 L931.38 27.2059 L936.848 27.2059 L936.848 14.324 L944.342 14.324 Z" fill="#000000" fill-rule="nonzero" fill-opacity="1" /><path clip-path="url(#clip520)" d="M1008.31 48.0275 L1008.31 51.6733 L974.036 51.6733 Q974.522 59.3701 978.654 63.421 Q982.826 67.4314 990.239 67.4314 Q994.533 67.4314 998.544 66.3781 Q1002.59 65.3249 1006.56 63.2184 L1006.56 70.267 Q1002.55 71.9684 998.341 72.8596 Q994.128 73.7508 989.794 73.7508 Q978.937 73.7508 972.577 67.4314 Q966.258 61.1119 966.258 50.3365 Q966.258 39.1965 972.253 32.6746 Q978.289 26.1121 988.497 26.1121 Q997.652 26.1121 1002.96 32.0264 Q1008.31 37.9003 1008.31 48.0275 M1000.85 45.84 Q1000.77 39.7232 997.409 36.0774 Q994.088 32.4315 988.578 32.4315 Q982.34 32.4315 978.573 35.9558 Q974.846 39.4801 974.279 45.8805 L1000.85 45.84 Z" fill="#000000" fill-rule="nonzero" fill-opacity="1" /><path clip-path="url(#clip520)" d="M1046.83 34.1734 Q1045.57 33.4443 1044.08 33.1202 Q1042.62 32.7556 1040.83 32.7556 Q1034.52 32.7556 1031.11 36.8875 Q1027.75 40.9789 1027.75 48.6757 L1027.75 72.576 L1020.26 72.576 L1020.26 27.2059 L1027.75 27.2059 L1027.75 34.2544 Q1030.1 30.1225 1033.87 28.1376 Q1037.63 26.1121 1043.02 26.1121 Q1043.79 26.1121 1044.72 26.2337 Q1045.66 26.3147 1046.79 26.5172 L1046.83 34.1734 Z" fill="#000000" fill-rule="nonzero" fill-opacity="1" /><path clip-path="url(#clip520)" d="M1077.62 9.54393 L1077.62 15.7418 L1070.49 15.7418 Q1066.48 15.7418 1064.9 17.3622 Q1063.36 18.9825 1063.36 23.1955 L1063.36 27.2059 L1075.63 27.2059 L1075.63 32.9987 L1063.36 32.9987 L1063.36 72.576 L1055.86 72.576 L1055.86 32.9987 L1048.73 32.9987 L1048.73 27.2059 L1055.86 27.2059 L1055.86 24.0462 Q1055.86 16.471 1059.39 13.0277 Q1062.91 9.54393 1070.57 9.54393 L1077.62 9.54393 Z" fill="#000000" fill-rule="nonzero" fill-opacity="1" /><path clip-path="url(#clip520)" d="M1104.47 49.7694 Q1095.44 49.7694 1091.96 51.8354 Q1088.47 53.9013 1088.47 58.8839 Q1088.47 62.8538 1091.07 65.2034 Q1093.7 67.5124 1098.2 67.5124 Q1104.39 67.5124 1108.12 63.1374 Q1111.89 58.7219 1111.89 51.4303 L1111.89 49.7694 L1104.47 49.7694 M1119.34 46.6907 L1119.34 72.576 L1111.89 72.576 L1111.89 65.6895 Q1109.34 69.8214 1105.53 71.8063 Q1101.72 73.7508 1096.21 73.7508 Q1089.24 73.7508 1085.11 69.8619 Q1081.02 65.9325 1081.02 59.3701 Q1081.02 51.7138 1086.12 47.825 Q1091.27 43.9361 1101.44 43.9361 L1111.89 43.9361 L1111.89 43.2069 Q1111.89 38.0623 1108.49 35.2672 Q1105.12 32.4315 1099.01 32.4315 Q1095.12 32.4315 1091.43 33.3632 Q1087.74 34.295 1084.34 36.1584 L1084.34 29.2718 Q1088.43 27.692 1092.28 26.9223 Q1096.13 26.1121 1099.78 26.1121 Q1109.62 26.1121 1114.48 31.2163 Q1119.34 36.3204 1119.34 46.6907 Z" fill="#000000" fill-rule="nonzero" fill-opacity="1" /><path clip-path="url(#clip520)" d="M1134.69 9.54393 L1142.15 9.54393 L1142.15 72.576 L1134.69 72.576 L1134.69 9.54393 Z" fill="#000000" fill-rule="nonzero" fill-opacity="1" /><path clip-path="url(#clip520)" d="M1157.74 9.54393 L1165.2 9.54393 L1165.2 72.576 L1157.74 72.576 L1157.74 9.54393 Z" fill="#000000" fill-rule="nonzero" fill-opacity="1" /><path clip-path="url(#clip520)" d="M1214.38 65.7705 L1214.38 89.8329 L1206.88 89.8329 L1206.88 27.2059 L1214.38 27.2059 L1214.38 34.0924 Q1216.73 30.0415 1220.29 28.0971 Q1223.9 26.1121 1228.88 26.1121 Q1237.14 26.1121 1242.29 32.6746 Q1247.47 39.2371 1247.47 49.9314 Q1247.47 60.6258 1242.29 67.1883 Q1237.14 73.7508 1228.88 73.7508 Q1223.9 73.7508 1220.29 71.8063 Q1216.73 69.8214 1214.38 65.7705 M1239.73 49.9314 Q1239.73 41.7081 1236.33 37.0496 Q1232.97 32.3505 1227.06 32.3505 Q1221.14 32.3505 1217.74 37.0496 Q1214.38 41.7081 1214.38 49.9314 Q1214.38 58.1548 1217.74 62.8538 Q1221.14 67.5124 1227.06 67.5124 Q1232.97 67.5124 1236.33 62.8538 Q1239.73 58.1548 1239.73 49.9314 Z" fill="#000000" fill-rule="nonzero" fill-opacity="1" /><path clip-path="url(#clip520)" d="M1259.83 9.54393 L1267.28 9.54393 L1267.28 72.576 L1259.83 72.576 L1259.83 9.54393 Z" fill="#000000" fill-rule="nonzero" fill-opacity="1" /><path clip-path="url(#clip520)" d="M1300.46 32.4315 Q1294.46 32.4315 1290.98 37.1306 Q1287.49 41.7891 1287.49 49.9314 Q1287.49 58.0738 1290.94 62.7728 Q1294.42 67.4314 1300.46 67.4314 Q1306.41 67.4314 1309.9 62.7323 Q1313.38 58.0333 1313.38 49.9314 Q1313.38 41.8701 1309.9 37.1711 Q1306.41 32.4315 1300.46 32.4315 M1300.46 26.1121 Q1310.18 26.1121 1315.73 32.4315 Q1321.28 38.7509 1321.28 49.9314 Q1321.28 61.0714 1315.73 67.4314 Q1310.18 73.7508 1300.46 73.7508 Q1290.69 73.7508 1285.15 67.4314 Q1279.64 61.0714 1279.64 49.9314 Q1279.64 38.7509 1285.15 32.4315 Q1290.69 26.1121 1300.46 26.1121 Z" fill="#000000" fill-rule="nonzero" fill-opacity="1" /><path clip-path="url(#clip520)" d="M1341.01 14.324 L1341.01 27.2059 L1356.36 27.2059 L1356.36 32.9987 L1341.01 32.9987 L1341.01 57.6282 Q1341.01 63.1779 1342.51 64.7578 Q1344.05 66.3376 1348.7 66.3376 L1356.36 66.3376 L1356.36 72.576 L1348.7 72.576 Q1340.08 72.576 1336.79 69.3758 Q1333.51 66.1351 1333.51 57.6282 L1333.51 32.9987 L1328.04 32.9987 L1328.04 27.2059 L1333.51 27.2059 L1333.51 14.324 L1341.01 14.324 Z" fill="#000000" fill-rule="nonzero" fill-opacity="1" /><path clip-path="url(#clip520)" d="M1395.01 65.6895 L1408.37 65.6895 L1408.37 19.5497 L1393.83 22.4663 L1393.83 15.0127 L1408.29 12.096 L1416.48 12.096 L1416.48 65.6895 L1429.84 65.6895 L1429.84 72.576 L1395.01 72.576 L1395.01 65.6895 Z" fill="#000000" fill-rule="nonzero" fill-opacity="1" /><path clip-path="url(#clip520)" d="M1446.45 12.096 L1478.58 12.096 L1478.58 18.9825 L1453.95 18.9825 L1453.95 33.8088 Q1455.73 33.2012 1457.51 32.9176 Q1459.29 32.5936 1461.08 32.5936 Q1471.2 32.5936 1477.12 38.1433 Q1483.03 43.6931 1483.03 53.1722 Q1483.03 62.9348 1476.96 68.3631 Q1470.88 73.7508 1459.82 73.7508 Q1456.01 73.7508 1452.04 73.1026 Q1448.11 72.4545 1443.9 71.1582 L1443.9 62.9348 Q1447.55 64.9198 1451.43 65.892 Q1455.32 66.8642 1459.66 66.8642 Q1466.67 66.8642 1470.76 63.1779 Q1474.85 59.4916 1474.85 53.1722 Q1474.85 46.8528 1470.76 43.1664 Q1466.67 39.4801 1459.66 39.4801 Q1456.38 39.4801 1453.1 40.2093 Q1449.85 40.9384 1446.45 42.4778 L1446.45 12.096 Z" fill="#000000" fill-rule="nonzero" fill-opacity="1" /><path clip-path="url(#clip520)" d="M1497.09 12.096 L1535.98 12.096 L1535.98 15.5798 L1514.02 72.576 L1505.47 72.576 L1526.13 18.9825 L1497.09 18.9825 L1497.09 12.096 Z" fill="#000000" fill-rule="nonzero" fill-opacity="1" /><path clip-path="url(#clip520)" d="M1564.13 12.096 L1571.02 12.096 L1549.95 80.2727 L1543.07 80.2727 L1564.13 12.096 Z" fill="#000000" fill-rule="nonzero" fill-opacity="1" /><path clip-path="url(#clip520)" d="M1586.94 65.6895 L1615.5 65.6895 L1615.5 72.576 L1577.09 72.576 L1577.09 65.6895 Q1581.75 60.8689 1589.77 52.7671 Q1597.83 44.6248 1599.9 42.2752 Q1603.83 37.8598 1605.37 34.8216 Q1606.95 31.7429 1606.95 28.7857 Q1606.95 23.9651 1603.55 20.927 Q1600.18 17.8888 1594.76 17.8888 Q1590.91 17.8888 1586.61 19.2256 Q1582.36 20.5624 1577.5 23.2765 L1577.5 15.0127 Q1582.44 13.0277 1586.73 12.015 Q1591.03 11.0023 1594.59 11.0023 Q1603.99 11.0023 1609.58 15.7013 Q1615.17 20.4004 1615.17 28.2591 Q1615.17 31.9859 1613.75 35.3482 Q1612.38 38.6699 1608.69 43.2069 Q1607.68 44.3817 1602.25 50.0125 Q1596.82 55.6027 1586.94 65.6895 Z" fill="#000000" fill-rule="nonzero" fill-opacity="1" /><path clip-path="url(#clip520)" d="M1632.75 12.096 L1664.88 12.096 L1664.88 18.9825 L1640.25 18.9825 L1640.25 33.8088 Q1642.03 33.2012 1643.81 32.9176 Q1645.59 32.5936 1647.38 32.5936 Q1657.5 32.5936 1663.42 38.1433 Q1669.33 43.6931 1669.33 53.1722 Q1669.33 62.9348 1663.26 68.3631 Q1657.18 73.7508 1646.12 73.7508 Q1642.31 73.7508 1638.34 73.1026 Q1634.41 72.4545 1630.2 71.1582 L1630.2 62.9348 Q1633.85 64.9198 1637.74 65.892 Q1641.62 66.8642 1645.96 66.8642 Q1652.97 66.8642 1657.06 63.1779 Q1661.15 59.4916 1661.15 53.1722 Q1661.15 46.8528 1657.06 43.1664 Q1652.97 39.4801 1645.96 39.4801 Q1642.68 39.4801 1639.4 40.2093 Q1636.16 40.9384 1632.75 42.4778 L1632.75 12.096 Z" fill="#000000" fill-rule="nonzero" fill-opacity="1" /><path clip-path="url(#clip520)" d="M1702.96 17.4837 Q1696.64 17.4837 1693.44 23.7221 Q1690.28 29.92 1690.28 42.3968 Q1690.28 54.833 1693.44 61.0714 Q1696.64 67.2693 1702.96 67.2693 Q1709.32 67.2693 1712.47 61.0714 Q1715.68 54.833 1715.68 42.3968 Q1715.68 29.92 1712.47 23.7221 Q1709.32 17.4837 1702.96 17.4837 M1702.96 11.0023 Q1713.12 11.0023 1718.47 19.0636 Q1723.86 27.0843 1723.86 42.3968 Q1723.86 57.6687 1718.47 65.73 Q1713.12 73.7508 1702.96 73.7508 Q1692.79 73.7508 1687.4 65.73 Q1682.05 57.6687 1682.05 42.3968 Q1682.05 27.0843 1687.4 19.0636 Q1692.79 11.0023 1702.96 11.0023 Z" fill="#000000" fill-rule="nonzero" fill-opacity="1" /><circle clip-path="url(#clip521)" cx="237.067" cy="1364.1" r="5.74623" fill="#ec7853" fill-rule="evenodd" fill-opacity="1" stroke="none"/>
<circle clip-path="url(#clip521)" cx="250.234" cy="1364.1" r="5.74623" fill="#ec7853" fill-rule="evenodd" fill-opacity="1" stroke="none"/>
<circle clip-path="url(#clip521)" cx="263.401" cy="1364.1" r="5.74623" fill="#ec7853" fill-rule="evenodd" fill-opacity="1" stroke="none"/>
<circle clip-path="url(#clip521)" cx="276.568" cy="1364.1" r="5.74623" fill="#ec7853" fill-rule="evenodd" fill-opacity="1" stroke="none"/>
<circle clip-path="url(#clip521)" cx="289.736" cy="1364.1" r="5.74623" fill="#ec7853" fill-rule="evenodd" fill-opacity="1" stroke="none"/>
<circle clip-path="url(#clip521)" cx="302.903" cy="1364.1" r="5.74623" fill="#ec7853" fill-rule="evenodd" fill-opacity="1" stroke="none"/>
<circle clip-path="url(#clip521)" cx="316.07" cy="1364.1" r="5.74623" fill="#ec7853" fill-rule="evenodd" fill-opacity="1" stroke="none"/>
<circle clip-path="url(#clip521)" cx="329.237" cy="1364.1" r="5.74623" fill="#ec7853" fill-rule="evenodd" fill-opacity="1" stroke="none"/>
<circle clip-path="url(#clip521)" cx="342.404" cy="1364.1" r="5.74623" fill="#ec7853" fill-rule="evenodd" fill-opacity="1" stroke="none"/>
<circle clip-path="url(#clip521)" cx="355.571" cy="1364.1" r="5.74623" fill="#ec7853" fill-rule="evenodd" fill-opacity="1" stroke="none"/>
<circle clip-path="url(#clip521)" cx="368.738" cy="1364.1" r="5.74623" fill="#ec7853" fill-rule="evenodd" fill-opacity="1" stroke="none"/>
<circle clip-path="url(#clip521)" cx="381.905" cy="1364.1" r="5.74623" fill="#ec7853" fill-rule="evenodd" fill-opacity="1" stroke="none"/>
<circle clip-path="url(#clip521)" cx="395.072" cy="1364.1" r="5.74623" fill="#ec7853" fill-rule="evenodd" fill-opacity="1" stroke="none"/>
<circle clip-path="url(#clip521)" cx="408.239" cy="1364.1" r="5.74623" fill="#ec7853" fill-rule="evenodd" fill-opacity="1" stroke="none"/>
<circle clip-path="url(#clip521)" cx="421.407" cy="1364.1" r="5.74623" fill="#ec7853" fill-rule="evenodd" fill-opacity="1" stroke="none"/>
<circle clip-path="url(#clip521)" cx="434.574" cy="1364.1" r="5.74623" fill="#ec7853" fill-rule="evenodd" fill-opacity="1" stroke="none"/>
<circle clip-path="url(#clip521)" cx="447.741" cy="1364.1" r="5.74623" fill="#ec7853" fill-rule="evenodd" fill-opacity="1" stroke="none"/>
<circle clip-path="url(#clip521)" cx="460.908" cy="1364.1" r="5.74623" fill="#ec7853" fill-rule="evenodd" fill-opacity="1" stroke="none"/>
<circle clip-path="url(#clip521)" cx="474.075" cy="1364.1" r="5.74623" fill="#ec7853" fill-rule="evenodd" fill-opacity="1" stroke="none"/>
<circle clip-path="url(#clip521)" cx="487.242" cy="1364.1" r="5.74623" fill="#ec7853" fill-rule="evenodd" fill-opacity="1" stroke="none"/>
<circle clip-path="url(#clip521)" cx="500.409" cy="1364.1" r="5.74623" fill="#ec7853" fill-rule="evenodd" fill-opacity="1" stroke="none"/>
<circle clip-path="url(#clip521)" cx="513.576" cy="1364.1" r="5.74623" fill="#ec7853" fill-rule="evenodd" fill-opacity="1" stroke="none"/>
<circle clip-path="url(#clip521)" cx="526.743" cy="1364.1" r="5.74623" fill="#ec7853" fill-rule="evenodd" fill-opacity="1" stroke="none"/>
<circle clip-path="url(#clip521)" cx="539.91" cy="1364.1" r="5.74623" fill="#ec7853" fill-rule="evenodd" fill-opacity="1" stroke="none"/>
<circle clip-path="url(#clip521)" cx="553.077" cy="1364.1" r="5.74623" fill="#ec7853" fill-rule="evenodd" fill-opacity="1" stroke="none"/>
<circle clip-path="url(#clip521)" cx="566.245" cy="1364.1" r="5.74623" fill="#ec7853" fill-rule="evenodd" fill-opacity="1" stroke="none"/>
<circle clip-path="url(#clip521)" cx="579.412" cy="1364.1" r="5.74623" fill="#ec7853" fill-rule="evenodd" fill-opacity="1" stroke="none"/>
<circle clip-path="url(#clip521)" cx="592.579" cy="1364.1" r="5.74623" fill="#ec7853" fill-rule="evenodd" fill-opacity="1" stroke="none"/>
<circle clip-path="url(#clip521)" cx="605.746" cy="1364.1" r="5.74623" fill="#ec7853" fill-rule="evenodd" fill-opacity="1" stroke="none"/>
<circle clip-path="url(#clip521)" cx="618.913" cy="1364.1" r="5.74623" fill="#ec7853" fill-rule="evenodd" fill-opacity="1" stroke="none"/>
<circle clip-path="url(#clip521)" cx="632.08" cy="1364.1" r="5.74623" fill="#ec7853" fill-rule="evenodd" fill-opacity="1" stroke="none"/>
<circle clip-path="url(#clip521)" cx="645.247" cy="1364.1" r="5.74623" fill="#ec7853" fill-rule="evenodd" fill-opacity="1" stroke="none"/>
<circle clip-path="url(#clip521)" cx="658.414" cy="1364.1" r="5.74623" fill="#ec7853" fill-rule="evenodd" fill-opacity="1" stroke="none"/>
<circle clip-path="url(#clip521)" cx="671.581" cy="1364.1" r="5.74623" fill="#ec7853" fill-rule="evenodd" fill-opacity="1" stroke="none"/>
<circle clip-path="url(#clip521)" cx="684.748" cy="1364.1" r="5.74623" fill="#ec7853" fill-rule="evenodd" fill-opacity="1" stroke="none"/>
<circle clip-path="url(#clip521)" cx="697.916" cy="1364.1" r="5.74623" fill="#ec7853" fill-rule="evenodd" fill-opacity="1" stroke="none"/>
<circle clip-path="url(#clip521)" cx="711.083" cy="1364.1" r="5.74623" fill="#ec7853" fill-rule="evenodd" fill-opacity="1" stroke="none"/>
<circle clip-path="url(#clip521)" cx="724.25" cy="1364.1" r="5.74623" fill="#ec7853" fill-rule="evenodd" fill-opacity="1" stroke="none"/>
<circle clip-path="url(#clip521)" cx="737.417" cy="1364.1" r="5.74623" fill="#ec7853" fill-rule="evenodd" fill-opacity="1" stroke="none"/>
<circle clip-path="url(#clip521)" cx="750.584" cy="1364.1" r="5.74623" fill="#ec7853" fill-rule="evenodd" fill-opacity="1" stroke="none"/>
<circle clip-path="url(#clip521)" cx="763.751" cy="1364.1" r="5.74623" fill="#ec7853" fill-rule="evenodd" fill-opacity="1" stroke="none"/>
<circle clip-path="url(#clip521)" cx="776.918" cy="1364.1" r="5.74623" fill="#ec7853" fill-rule="evenodd" fill-opacity="1" stroke="none"/>
<circle clip-path="url(#clip521)" cx="790.085" cy="1364.1" r="5.74623" fill="#ec7853" fill-rule="evenodd" fill-opacity="1" stroke="none"/>
<circle clip-path="url(#clip521)" cx="803.252" cy="1364.1" r="5.74623" fill="#ec7853" fill-rule="evenodd" fill-opacity="1" stroke="none"/>
<circle clip-path="url(#clip521)" cx="816.419" cy="1364.1" r="5.74623" fill="#ec7853" fill-rule="evenodd" fill-opacity="1" stroke="none"/>
<circle clip-path="url(#clip521)" cx="829.586" cy="1364.1" r="5.74623" fill="#ec7853" fill-rule="evenodd" fill-opacity="1" stroke="none"/>
<circle clip-path="url(#clip521)" cx="842.754" cy="1364.1" r="5.74623" fill="#ec7853" fill-rule="evenodd" fill-opacity="1" stroke="none"/>
<circle clip-path="url(#clip521)" cx="855.921" cy="1364.1" r="5.74623" fill="#ec7853" fill-rule="evenodd" fill-opacity="1" stroke="none"/>
<circle clip-path="url(#clip521)" cx="869.088" cy="1364.1" r="5.74623" fill="#ec7853" fill-rule="evenodd" fill-opacity="1" stroke="none"/>
<circle clip-path="url(#clip521)" cx="882.255" cy="1364.1" r="5.74623" fill="#ec7853" fill-rule="evenodd" fill-opacity="1" stroke="none"/>
<circle clip-path="url(#clip521)" cx="895.422" cy="1364.1" r="5.74623" fill="#ec7853" fill-rule="evenodd" fill-opacity="1" stroke="none"/>
<circle clip-path="url(#clip521)" cx="908.589" cy="1364.1" r="5.74623" fill="#ec7853" fill-rule="evenodd" fill-opacity="1" stroke="none"/>
<circle clip-path="url(#clip521)" cx="921.756" cy="1364.1" r="5.74623" fill="#ec7853" fill-rule="evenodd" fill-opacity="1" stroke="none"/>
<circle clip-path="url(#clip521)" cx="934.923" cy="1364.1" r="5.74623" fill="#ec7853" fill-rule="evenodd" fill-opacity="1" stroke="none"/>
<circle clip-path="url(#clip521)" cx="948.09" cy="1364.1" r="5.74623" fill="#ec7853" fill-rule="evenodd" fill-opacity="1" stroke="none"/>
<circle clip-path="url(#clip521)" cx="961.257" cy="1364.1" r="5.74623" fill="#ec7853" fill-rule="evenodd" fill-opacity="1" stroke="none"/>
<circle clip-path="url(#clip521)" cx="974.424" cy="1364.1" r="5.74623" fill="#ec7853" fill-rule="evenodd" fill-opacity="1" stroke="none"/>
<circle clip-path="url(#clip521)" cx="987.592" cy="1364.1" r="5.74623" fill="#ec7853" fill-rule="evenodd" fill-opacity="1" stroke="none"/>
<circle clip-path="url(#clip521)" cx="1000.76" cy="1364.1" r="5.74623" fill="#ec7853" fill-rule="evenodd" fill-opacity="1" stroke="none"/>
<circle clip-path="url(#clip521)" cx="1013.93" cy="1364.1" r="5.74623" fill="#ec7853" fill-rule="evenodd" fill-opacity="1" stroke="none"/>
<circle clip-path="url(#clip521)" cx="1027.09" cy="1364.1" r="5.74623" fill="#ec7853" fill-rule="evenodd" fill-opacity="1" stroke="none"/>
<circle clip-path="url(#clip521)" cx="1040.26" cy="1364.1" r="5.74623" fill="#ec7853" fill-rule="evenodd" fill-opacity="1" stroke="none"/>
<circle clip-path="url(#clip521)" cx="1053.43" cy="1364.1" r="5.74623" fill="#ec7853" fill-rule="evenodd" fill-opacity="1" stroke="none"/>
<circle clip-path="url(#clip521)" cx="1066.59" cy="1364.1" r="5.74623" fill="#ec7853" fill-rule="evenodd" fill-opacity="1" stroke="none"/>
<circle clip-path="url(#clip521)" cx="1079.76" cy="1364.1" r="5.74623" fill="#ec7853" fill-rule="evenodd" fill-opacity="1" stroke="none"/>
<circle clip-path="url(#clip521)" cx="1092.93" cy="1364.1" r="5.74623" fill="#ec7853" fill-rule="evenodd" fill-opacity="1" stroke="none"/>
<circle clip-path="url(#clip521)" cx="1106.1" cy="1364.1" r="5.74623" fill="#ec7853" fill-rule="evenodd" fill-opacity="1" stroke="none"/>
<circle clip-path="url(#clip521)" cx="1119.26" cy="1364.1" r="5.74623" fill="#ec7853" fill-rule="evenodd" fill-opacity="1" stroke="none"/>
<circle clip-path="url(#clip521)" cx="1132.43" cy="1364.1" r="5.74623" fill="#ec7853" fill-rule="evenodd" fill-opacity="1" stroke="none"/>
<circle clip-path="url(#clip521)" cx="1145.6" cy="1364.1" r="5.74623" fill="#ec7853" fill-rule="evenodd" fill-opacity="1" stroke="none"/>
<circle clip-path="url(#clip521)" cx="1158.76" cy="1364.1" r="5.74623" fill="#ec7853" fill-rule="evenodd" fill-opacity="1" stroke="none"/>
<circle clip-path="url(#clip521)" cx="1171.93" cy="1364.1" r="5.74623" fill="#ec7853" fill-rule="evenodd" fill-opacity="1" stroke="none"/>
<circle clip-path="url(#clip521)" cx="1185.1" cy="1364.1" r="5.74623" fill="#ec7853" fill-rule="evenodd" fill-opacity="1" stroke="none"/>
<circle clip-path="url(#clip521)" cx="1198.27" cy="1364.1" r="5.74623" fill="#ec7853" fill-rule="evenodd" fill-opacity="1" stroke="none"/>
<circle clip-path="url(#clip521)" cx="1211.43" cy="1364.1" r="5.74623" fill="#ec7853" fill-rule="evenodd" fill-opacity="1" stroke="none"/>
<circle clip-path="url(#clip521)" cx="1224.6" cy="1364.1" r="5.74623" fill="#ec7853" fill-rule="evenodd" fill-opacity="1" stroke="none"/>
<circle clip-path="url(#clip521)" cx="1237.77" cy="1364.1" r="5.74623" fill="#ec7853" fill-rule="evenodd" fill-opacity="1" stroke="none"/>
<circle clip-path="url(#clip521)" cx="1250.93" cy="1364.1" r="5.74623" fill="#ec7853" fill-rule="evenodd" fill-opacity="1" stroke="none"/>
<circle clip-path="url(#clip521)" cx="1264.1" cy="1364.1" r="5.74623" fill="#ec7853" fill-rule="evenodd" fill-opacity="1" stroke="none"/>
<circle clip-path="url(#clip521)" cx="1277.27" cy="1364.1" r="5.74623" fill="#ec7853" fill-rule="evenodd" fill-opacity="1" stroke="none"/>
<circle clip-path="url(#clip521)" cx="1290.43" cy="1364.1" r="5.74623" fill="#ec7853" fill-rule="evenodd" fill-opacity="1" stroke="none"/>
<circle clip-path="url(#clip521)" cx="1303.6" cy="1364.1" r="5.74623" fill="#ec7853" fill-rule="evenodd" fill-opacity="1" stroke="none"/>
<circle clip-path="url(#clip521)" cx="1316.77" cy="1364.1" r="5.74623" fill="#ec7853" fill-rule="evenodd" fill-opacity="1" stroke="none"/>
<circle clip-path="url(#clip521)" cx="1329.94" cy="1364.1" r="5.74623" fill="#ec7853" fill-rule="evenodd" fill-opacity="1" stroke="none"/>
<circle clip-path="url(#clip521)" cx="1343.1" cy="1364.1" r="5.74623" fill="#ec7853" fill-rule="evenodd" fill-opacity="1" stroke="none"/>
<circle clip-path="url(#clip521)" cx="1356.27" cy="1364.1" r="5.74623" fill="#ec7853" fill-rule="evenodd" fill-opacity="1" stroke="none"/>
<circle clip-path="url(#clip521)" cx="1369.44" cy="1364.1" r="5.74623" fill="#ec7853" fill-rule="evenodd" fill-opacity="1" stroke="none"/>
<circle clip-path="url(#clip521)" cx="1382.6" cy="1364.1" r="5.74623" fill="#ec7853" fill-rule="evenodd" fill-opacity="1" stroke="none"/>
<circle clip-path="url(#clip521)" cx="1395.77" cy="1364.1" r="5.74623" fill="#ec7853" fill-rule="evenodd" fill-opacity="1" stroke="none"/>
<circle clip-path="url(#clip521)" cx="1408.94" cy="1364.1" r="5.74623" fill="#ec7853" fill-rule="evenodd" fill-opacity="1" stroke="none"/>
<circle clip-path="url(#clip521)" cx="1422.11" cy="1364.1" r="5.74623" fill="#ec7853" fill-rule="evenodd" fill-opacity="1" stroke="none"/>
<circle clip-path="url(#clip521)" cx="1435.27" cy="1364.1" r="5.74623" fill="#ec7853" fill-rule="evenodd" fill-opacity="1" stroke="none"/>
<circle clip-path="url(#clip521)" cx="1448.44" cy="1364.1" r="5.74623" fill="#ec7853" fill-rule="evenodd" fill-opacity="1" stroke="none"/>
<circle clip-path="url(#clip521)" cx="1461.61" cy="1364.1" r="5.74623" fill="#ec7853" fill-rule="evenodd" fill-opacity="1" stroke="none"/>
<circle clip-path="url(#clip521)" cx="1474.77" cy="1364.1" r="5.74623" fill="#ec7853" fill-rule="evenodd" fill-opacity="1" stroke="none"/>
<circle clip-path="url(#clip521)" cx="1487.94" cy="1364.1" r="5.74623" fill="#ec7853" fill-rule="evenodd" fill-opacity="1" stroke="none"/>
<circle clip-path="url(#clip521)" cx="1501.11" cy="1364.1" r="5.74623" fill="#ec7853" fill-rule="evenodd" fill-opacity="1" stroke="none"/>
<circle clip-path="url(#clip521)" cx="1514.28" cy="1364.1" r="5.74623" fill="#ec7853" fill-rule="evenodd" fill-opacity="1" stroke="none"/>
<circle clip-path="url(#clip521)" cx="1527.44" cy="1364.1" r="5.74623" fill="#ec7853" fill-rule="evenodd" fill-opacity="1" stroke="none"/>
<circle clip-path="url(#clip521)" cx="1540.61" cy="1364.1" r="5.74623" fill="#ec7853" fill-rule="evenodd" fill-opacity="1" stroke="none"/>
<circle clip-path="url(#clip521)" cx="1553.78" cy="1364.1" r="5.74623" fill="#ec7853" fill-rule="evenodd" fill-opacity="1" stroke="none"/>
<circle clip-path="url(#clip521)" cx="1566.94" cy="1364.1" r="5.74623" fill="#ec7853" fill-rule="evenodd" fill-opacity="1" stroke="none"/>
<circle clip-path="url(#clip521)" cx="1580.11" cy="1364.1" r="5.74623" fill="#ec7853" fill-rule="evenodd" fill-opacity="1" stroke="none"/>
<circle clip-path="url(#clip521)" cx="1593.28" cy="1364.1" r="5.74623" fill="#ec7853" fill-rule="evenodd" fill-opacity="1" stroke="none"/>
<circle clip-path="url(#clip521)" cx="1606.45" cy="1364.1" r="5.74623" fill="#ec7853" fill-rule="evenodd" fill-opacity="1" stroke="none"/>
<circle clip-path="url(#clip521)" cx="1619.61" cy="1364.1" r="5.74623" fill="#ec7853" fill-rule="evenodd" fill-opacity="1" stroke="none"/>
<circle clip-path="url(#clip521)" cx="1632.78" cy="1364.1" r="5.74623" fill="#ec7853" fill-rule="evenodd" fill-opacity="1" stroke="none"/>
<circle clip-path="url(#clip521)" cx="1645.95" cy="1364.1" r="5.74623" fill="#ec7853" fill-rule="evenodd" fill-opacity="1" stroke="none"/>
<circle clip-path="url(#clip521)" cx="1659.11" cy="1364.1" r="5.74623" fill="#ec7853" fill-rule="evenodd" fill-opacity="1" stroke="none"/>
<circle clip-path="url(#clip521)" cx="1672.28" cy="1364.1" r="5.74623" fill="#ec7853" fill-rule="evenodd" fill-opacity="1" stroke="none"/>
<circle clip-path="url(#clip521)" cx="1685.45" cy="1364.1" r="5.74623" fill="#ec7853" fill-rule="evenodd" fill-opacity="1" stroke="none"/>
<circle clip-path="url(#clip521)" cx="1698.61" cy="1364.1" r="5.74623" fill="#ec7853" fill-rule="evenodd" fill-opacity="1" stroke="none"/>
<circle clip-path="url(#clip521)" cx="1711.78" cy="1364.1" r="5.74623" fill="#ec7853" fill-rule="evenodd" fill-opacity="1" stroke="none"/>
<circle clip-path="url(#clip521)" cx="1724.95" cy="1364.1" r="5.74623" fill="#ec7853" fill-rule="evenodd" fill-opacity="1" stroke="none"/>
<circle clip-path="url(#clip521)" cx="1738.12" cy="1364.1" r="5.74623" fill="#ec7853" fill-rule="evenodd" fill-opacity="1" stroke="none"/>
<circle clip-path="url(#clip521)" cx="1751.28" cy="1364.1" r="5.74623" fill="#ec7853" fill-rule="evenodd" fill-opacity="1" stroke="none"/>
<circle clip-path="url(#clip521)" cx="1764.45" cy="1364.1" r="5.74623" fill="#ec7853" fill-rule="evenodd" fill-opacity="1" stroke="none"/>
<circle clip-path="url(#clip521)" cx="1777.62" cy="1364.1" r="5.74623" fill="#ec7853" fill-rule="evenodd" fill-opacity="1" stroke="none"/>
<circle clip-path="url(#clip521)" cx="1790.78" cy="1364.1" r="5.74623" fill="#ec7853" fill-rule="evenodd" fill-opacity="1" stroke="none"/>
<circle clip-path="url(#clip521)" cx="1803.95" cy="1364.1" r="5.74623" fill="#ec7853" fill-rule="evenodd" fill-opacity="1" stroke="none"/>
<circle clip-path="url(#clip521)" cx="1817.12" cy="1364.1" r="5.74623" fill="#ec7853" fill-rule="evenodd" fill-opacity="1" stroke="none"/>
<circle clip-path="url(#clip521)" cx="1830.29" cy="1364.1" r="5.74623" fill="#ec7853" fill-rule="evenodd" fill-opacity="1" stroke="none"/>
<circle clip-path="url(#clip521)" cx="1843.45" cy="1364.1" r="5.74623" fill="#ec7853" fill-rule="evenodd" fill-opacity="1" stroke="none"/>
<path clip-path="url(#clip521)" d="M1856.62 176.165 L1850.24 188.934 L1863 188.934 L1856.62 176.165 Z" fill="#0c0786" fill-rule="evenodd" fill-opacity="1" stroke="none"/>
<path clip-path="url(#clip521)" d="M1869.79 176.165 L1863.4 188.934 L1876.17 188.934 L1869.79 176.165 Z" fill="#0c0786" fill-rule="evenodd" fill-opacity="1" stroke="none"/>
<path clip-path="url(#clip521)" d="M1882.95 176.165 L1876.57 188.934 L1889.34 188.934 L1882.95 176.165 Z" fill="#9b179e" fill-rule="evenodd" fill-opacity="1" stroke="none"/>
<path clip-path="url(#clip521)" d="M1896.12 176.165 L1889.74 188.934 L1902.51 188.934 L1896.12 176.165 Z" fill="#9b179e" fill-rule="evenodd" fill-opacity="1" stroke="none"/>
<path clip-path="url(#clip521)" d="M1909.29 176.165 L1902.9 188.934 L1915.67 188.934 L1909.29 176.165 Z" fill="#9b179e" fill-rule="evenodd" fill-opacity="1" stroke="none"/>
<path clip-path="url(#clip521)" d="M1922.46 176.165 L1916.07 188.934 L1928.84 188.934 L1922.46 176.165 Z" fill="#9b179e" fill-rule="evenodd" fill-opacity="1" stroke="none"/>
<path clip-path="url(#clip521)" d="M1935.62 176.165 L1929.24 188.934 L1942.01 188.934 L1935.62 176.165 Z" fill="#9b179e" fill-rule="evenodd" fill-opacity="1" stroke="none"/>
<path clip-path="url(#clip521)" d="M1948.79 176.165 L1942.4 188.934 L1955.17 188.934 L1948.79 176.165 Z" fill="#9b179e" fill-rule="evenodd" fill-opacity="1" stroke="none"/>
<path clip-path="url(#clip521)" d="M1961.96 176.165 L1955.57 188.934 L1968.34 188.934 L1961.96 176.165 Z" fill="#9b179e" fill-rule="evenodd" fill-opacity="1" stroke="none"/>
<path clip-path="url(#clip521)" d="M1975.12 176.165 L1968.74 188.934 L1981.51 188.934 L1975.12 176.165 Z" fill="#9b179e" fill-rule="evenodd" fill-opacity="1" stroke="none"/>
<path clip-path="url(#clip521)" d="M1988.29 176.165 L1981.91 188.934 L1994.68 188.934 L1988.29 176.165 Z" fill="#9b179e" fill-rule="evenodd" fill-opacity="1" stroke="none"/>
<path clip-path="url(#clip521)" d="M2001.46 176.165 L1995.07 188.934 L2007.84 188.934 L2001.46 176.165 Z" fill="#9b179e" fill-rule="evenodd" fill-opacity="1" stroke="none"/>
<path clip-path="url(#clip521)" d="M2014.62 176.165 L2008.24 188.934 L2021.01 188.934 L2014.62 176.165 Z" fill="#9b179e" fill-rule="evenodd" fill-opacity="1" stroke="none"/>
<path clip-path="url(#clip521)" d="M2027.79 176.165 L2021.41 188.934 L2034.18 188.934 L2027.79 176.165 Z" fill="#9b179e" fill-rule="evenodd" fill-opacity="1" stroke="none"/>
<path clip-path="url(#clip521)" d="M2040.96 176.165 L2034.57 188.934 L2047.34 188.934 L2040.96 176.165 Z" fill="#9b179e" fill-rule="evenodd" fill-opacity="1" stroke="none"/>
<path clip-path="url(#clip521)" d="M2054.13 176.165 L2047.74 188.934 L2060.51 188.934 L2054.13 176.165 Z" fill="#9b179e" fill-rule="evenodd" fill-opacity="1" stroke="none"/>
<path clip-path="url(#clip521)" d="M2067.29 176.165 L2060.91 188.934 L2073.68 188.934 L2067.29 176.165 Z" fill="#9b179e" fill-rule="evenodd" fill-opacity="1" stroke="none"/>
<path clip-path="url(#clip521)" d="M2080.46 176.165 L2074.08 188.934 L2086.85 188.934 L2080.46 176.165 Z" fill="#9b179e" fill-rule="evenodd" fill-opacity="1" stroke="none"/>
<path clip-path="url(#clip521)" d="M2093.63 176.165 L2087.24 188.934 L2100.01 188.934 L2093.63 176.165 Z" fill="#9b179e" fill-rule="evenodd" fill-opacity="1" stroke="none"/>
<path clip-path="url(#clip521)" d="M2106.79 176.165 L2100.41 188.934 L2113.18 188.934 L2106.79 176.165 Z" fill="#9b179e" fill-rule="evenodd" fill-opacity="1" stroke="none"/>
<path clip-path="url(#clip521)" d="M2119.96 176.165 L2113.58 188.934 L2126.35 188.934 L2119.96 176.165 Z" fill="#9b179e" fill-rule="evenodd" fill-opacity="1" stroke="none"/>
<path clip-path="url(#clip521)" d="M2133.13 176.165 L2126.74 188.934 L2139.51 188.934 L2133.13 176.165 Z" fill="#9b179e" fill-rule="evenodd" fill-opacity="1" stroke="none"/>
<path clip-path="url(#clip521)" d="M2146.3 176.165 L2139.91 188.934 L2152.68 188.934 L2146.3 176.165 Z" fill="#9b179e" fill-rule="evenodd" fill-opacity="1" stroke="none"/>
<path clip-path="url(#clip521)" d="M2159.46 176.165 L2153.08 188.934 L2165.85 188.934 L2159.46 176.165 Z" fill="#9b179e" fill-rule="evenodd" fill-opacity="1" stroke="none"/>
<path clip-path="url(#clip521)" d="M2172.63 176.165 L2166.25 188.934 L2179.01 188.934 L2172.63 176.165 Z" fill="#9b179e" fill-rule="evenodd" fill-opacity="1" stroke="none"/>
<path clip-path="url(#clip521)" d="M2185.8 176.165 L2179.41 188.934 L2192.18 188.934 L2185.8 176.165 Z" fill="#9b179e" fill-rule="evenodd" fill-opacity="1" stroke="none"/>
<path clip-path="url(#clip521)" d="M2198.96 176.165 L2192.58 188.934 L2205.35 188.934 L2198.96 176.165 Z" fill="#9b179e" fill-rule="evenodd" fill-opacity="1" stroke="none"/>
<path clip-path="url(#clip521)" d="M2212.13 176.165 L2205.75 188.934 L2218.52 188.934 L2212.13 176.165 Z" fill="#9b179e" fill-rule="evenodd" fill-opacity="1" stroke="none"/>
<path clip-path="url(#clip521)" d="M2225.3 176.165 L2218.91 188.934 L2231.68 188.934 L2225.3 176.165 Z" fill="#9b179e" fill-rule="evenodd" fill-opacity="1" stroke="none"/>
<path clip-path="url(#clip521)" d="M2238.47 176.165 L2232.08 188.934 L2244.85 188.934 L2238.47 176.165 Z" fill="#9b179e" fill-rule="evenodd" fill-opacity="1" stroke="none"/>
<path clip-path="url(#clip521)" d="M2251.63 176.165 L2245.25 188.934 L2258.02 188.934 L2251.63 176.165 Z" fill="#9b179e" fill-rule="evenodd" fill-opacity="1" stroke="none"/>
<path clip-path="url(#clip521)" d="M2264.8 176.165 L2258.42 188.934 L2271.18 188.934 L2264.8 176.165 Z" fill="#9b179e" fill-rule="evenodd" fill-opacity="1" stroke="none"/>
<path clip-path="url(#clip521)" d="M2277.97 176.165 L2271.58 188.934 L2284.35 188.934 L2277.97 176.165 Z" fill="#9b179e" fill-rule="evenodd" fill-opacity="1" stroke="none"/>
<path clip-path="url(#clip521)" d="M2291.13 176.165 L2284.75 188.934 L2297.52 188.934 L2291.13 176.165 Z" fill="#9b179e" fill-rule="evenodd" fill-opacity="1" stroke="none"/>
</svg>
