<?xml version="1.0" encoding="utf-8"?>
<svg xmlns="http://www.w3.org/2000/svg" xmlns:xlink="http://www.w3.org/1999/xlink" width="600" height="400" viewBox="0 0 2400 1600">
<defs>
  <clipPath id="clip750">
    <rect x="0" y="0" width="2400" height="1600"/>
  </clipPath>
</defs>
<path clip-path="url(#clip750)" d="M0 1600 L2400 1600 L2400 0 L0 0  Z" fill="#ffffff" fill-rule="evenodd" fill-opacity="1"/>
<defs>
  <clipPath id="clip751">
    <rect x="250" y="47" width="2104" height="1377"/>
  </clipPath>
</defs>
<path clip-path="url(#clip750)" d="M250.028 1423.18 L2352.76 1423.18 L2352.76 47.2441 L250.028 47.2441  Z" fill="#ffffff" fill-rule="evenodd" fill-opacity="1"/>
<polyline clip-path="url(#clip751)" style="stroke:#000000; stroke-linecap:round; stroke-linejoin:round; stroke-width:2; stroke-opacity:0.1; fill:none" points="363.698,1423.18 363.698,47.2441 "/>
<polyline clip-path="url(#clip751)" style="stroke:#000000; stroke-linecap:round; stroke-linejoin:round; stroke-width:2; stroke-opacity:0.1; fill:none" points="661.19,1423.18 661.19,47.2441 "/>
<polyline clip-path="url(#clip751)" style="stroke:#000000; stroke-linecap:round; stroke-linejoin:round; stroke-width:2; stroke-opacity:0.1; fill:none" points="958.683,1423.18 958.683,47.2441 "/>
<polyline clip-path="url(#clip751)" style="stroke:#000000; stroke-linecap:round; stroke-linejoin:round; stroke-width:2; stroke-opacity:0.1; fill:none" points="1256.18,1423.18 1256.18,47.2441 "/>
<polyline clip-path="url(#clip751)" style="stroke:#000000; stroke-linecap:round; stroke-linejoin:round; stroke-width:2; stroke-opacity:0.1; fill:none" points="1553.67,1423.18 1553.67,47.2441 "/>
<polyline clip-path="url(#clip751)" style="stroke:#000000; stroke-linecap:round; stroke-linejoin:round; stroke-width:2; stroke-opacity:0.1; fill:none" points="1851.16,1423.18 1851.16,47.2441 "/>
<polyline clip-path="url(#clip751)" style="stroke:#000000; stroke-linecap:round; stroke-linejoin:round; stroke-width:2; stroke-opacity:0.1; fill:none" points="2148.65,1423.18 2148.65,47.2441 "/>
<polyline clip-path="url(#clip751)" style="stroke:#000000; stroke-linecap:round; stroke-linejoin:round; stroke-width:2; stroke-opacity:0.1; fill:none" points="250.028,1334.23 2352.76,1334.23 "/>
<polyline clip-path="url(#clip751)" style="stroke:#000000; stroke-linecap:round; stroke-linejoin:round; stroke-width:2; stroke-opacity:0.1; fill:none" points="250.028,1127.48 2352.76,1127.48 "/>
<polyline clip-path="url(#clip751)" style="stroke:#000000; stroke-linecap:round; stroke-linejoin:round; stroke-width:2; stroke-opacity:0.1; fill:none" points="250.028,920.719 2352.76,920.719 "/>
<polyline clip-path="url(#clip751)" style="stroke:#000000; stroke-linecap:round; stroke-linejoin:round; stroke-width:2; stroke-opacity:0.1; fill:none" points="250.028,713.963 2352.76,713.963 "/>
<polyline clip-path="url(#clip751)" style="stroke:#000000; stroke-linecap:round; stroke-linejoin:round; stroke-width:2; stroke-opacity:0.1; fill:none" points="250.028,507.207 2352.76,507.207 "/>
<polyline clip-path="url(#clip751)" style="stroke:#000000; stroke-linecap:round; stroke-linejoin:round; stroke-width:2; stroke-opacity:0.1; fill:none" points="250.028,300.451 2352.76,300.451 "/>
<polyline clip-path="url(#clip751)" style="stroke:#000000; stroke-linecap:round; stroke-linejoin:round; stroke-width:2; stroke-opacity:0.1; fill:none" points="250.028,93.6948 2352.76,93.6948 "/>
<polyline clip-path="url(#clip750)" style="stroke:#000000; stroke-linecap:round; stroke-linejoin:round; stroke-width:4; stroke-opacity:1; fill:none" points="250.028,1423.18 2352.76,1423.18 "/>
<polyline clip-path="url(#clip750)" style="stroke:#000000; stroke-linecap:round; stroke-linejoin:round; stroke-width:4; stroke-opacity:1; fill:none" points="363.698,1423.18 363.698,1404.28 "/>
<polyline clip-path="url(#clip750)" style="stroke:#000000; stroke-linecap:round; stroke-linejoin:round; stroke-width:4; stroke-opacity:1; fill:none" points="661.19,1423.18 661.19,1404.28 "/>
<polyline clip-path="url(#clip750)" style="stroke:#000000; stroke-linecap:round; stroke-linejoin:round; stroke-width:4; stroke-opacity:1; fill:none" points="958.683,1423.18 958.683,1404.28 "/>
<polyline clip-path="url(#clip750)" style="stroke:#000000; stroke-linecap:round; stroke-linejoin:round; stroke-width:4; stroke-opacity:1; fill:none" points="1256.18,1423.18 1256.18,1404.28 "/>
<polyline clip-path="url(#clip750)" style="stroke:#000000; stroke-linecap:round; stroke-linejoin:round; stroke-width:4; stroke-opacity:1; fill:none" points="1553.67,1423.18 1553.67,1404.28 "/>
<polyline clip-path="url(#clip750)" style="stroke:#000000; stroke-linecap:round; stroke-linejoin:round; stroke-width:4; stroke-opacity:1; fill:none" points="1851.16,1423.18 1851.16,1404.28 "/>
<polyline clip-path="url(#clip750)" style="stroke:#000000; stroke-linecap:round; stroke-linejoin:round; stroke-width:4; stroke-opacity:1; fill:none" points="2148.65,1423.18 2148.65,1404.28 "/>
<path clip-path="url(#clip750)" d="M281.557 1454.1 Q277.946 1454.1 276.117 1457.66 Q274.312 1461.2 274.312 1468.33 Q274.312 1475.44 276.117 1479.01 Q277.946 1482.55 281.557 1482.55 Q285.191 1482.55 286.997 1479.01 Q288.825 1475.44 288.825 1468.33 Q288.825 1461.2 286.997 1457.66 Q285.191 1454.1 281.557 1454.1 M281.557 1450.39 Q287.367 1450.39 290.423 1455 Q293.501 1459.58 293.501 1468.33 Q293.501 1477.06 290.423 1481.67 Q287.367 1486.25 281.557 1486.25 Q275.747 1486.25 272.668 1481.67 Q269.613 1477.06 269.613 1468.33 Q269.613 1459.58 272.668 1455 Q275.747 1450.39 281.557 1450.39 Z" fill="#000000" fill-rule="nonzero" fill-opacity="1" /><path clip-path="url(#clip750)" d="M301.719 1479.7 L306.603 1479.7 L306.603 1485.58 L301.719 1485.58 L301.719 1479.7 Z" fill="#000000" fill-rule="nonzero" fill-opacity="1" /><path clip-path="url(#clip750)" d="M326.788 1454.1 Q323.177 1454.1 321.348 1457.66 Q319.543 1461.2 319.543 1468.33 Q319.543 1475.44 321.348 1479.01 Q323.177 1482.55 326.788 1482.55 Q330.422 1482.55 332.228 1479.01 Q334.057 1475.44 334.057 1468.33 Q334.057 1461.2 332.228 1457.66 Q330.422 1454.1 326.788 1454.1 M326.788 1450.39 Q332.598 1450.39 335.654 1455 Q338.733 1459.58 338.733 1468.33 Q338.733 1477.06 335.654 1481.67 Q332.598 1486.25 326.788 1486.25 Q320.978 1486.25 317.899 1481.67 Q314.844 1477.06 314.844 1468.33 Q314.844 1459.58 317.899 1455 Q320.978 1450.39 326.788 1450.39 Z" fill="#000000" fill-rule="nonzero" fill-opacity="1" /><path clip-path="url(#clip750)" d="M356.95 1454.1 Q353.339 1454.1 351.51 1457.66 Q349.705 1461.2 349.705 1468.33 Q349.705 1475.44 351.51 1479.01 Q353.339 1482.55 356.95 1482.55 Q360.584 1482.55 362.39 1479.01 Q364.219 1475.44 364.219 1468.33 Q364.219 1461.2 362.39 1457.66 Q360.584 1454.1 356.95 1454.1 M356.95 1450.39 Q362.76 1450.39 365.816 1455 Q368.894 1459.58 368.894 1468.33 Q368.894 1477.06 365.816 1481.67 Q362.76 1486.25 356.95 1486.25 Q351.14 1486.25 348.061 1481.67 Q345.006 1477.06 345.006 1468.33 Q345.006 1459.58 348.061 1455 Q351.14 1450.39 356.95 1450.39 Z" fill="#000000" fill-rule="nonzero" fill-opacity="1" /><path clip-path="url(#clip750)" d="M381.14 1481.64 L397.459 1481.64 L397.459 1485.58 L375.515 1485.58 L375.515 1481.64 Q378.177 1478.89 382.76 1474.26 Q387.367 1469.61 388.547 1468.27 Q390.793 1465.74 391.672 1464.01 Q392.575 1462.25 392.575 1460.56 Q392.575 1457.8 390.63 1456.07 Q388.709 1454.33 385.607 1454.33 Q383.408 1454.33 380.955 1455.09 Q378.524 1455.86 375.746 1457.41 L375.746 1452.69 Q378.57 1451.55 381.024 1450.97 Q383.478 1450.39 385.515 1450.39 Q390.885 1450.39 394.08 1453.08 Q397.274 1455.77 397.274 1460.26 Q397.274 1462.39 396.464 1464.31 Q395.677 1466.2 393.57 1468.8 Q392.992 1469.47 389.89 1472.69 Q386.788 1475.88 381.14 1481.64 Z" fill="#000000" fill-rule="nonzero" fill-opacity="1" /><path clip-path="url(#clip750)" d="M408.084 1481.64 L415.723 1481.64 L415.723 1455.28 L407.413 1456.95 L407.413 1452.69 L415.677 1451.02 L420.353 1451.02 L420.353 1481.64 L427.991 1481.64 L427.991 1485.58 L408.084 1485.58 L408.084 1481.64 Z" fill="#000000" fill-rule="nonzero" fill-opacity="1" /><path clip-path="url(#clip750)" d="M441.464 1481.64 L457.783 1481.64 L457.783 1485.58 L435.839 1485.58 L435.839 1481.64 Q438.501 1478.89 443.084 1474.26 Q447.69 1469.61 448.871 1468.27 Q451.116 1465.74 451.996 1464.01 Q452.899 1462.25 452.899 1460.56 Q452.899 1457.8 450.954 1456.07 Q449.033 1454.33 445.931 1454.33 Q443.732 1454.33 441.278 1455.09 Q438.848 1455.86 436.07 1457.41 L436.07 1452.69 Q438.894 1451.55 441.348 1450.97 Q443.801 1450.39 445.839 1450.39 Q451.209 1450.39 454.403 1453.08 Q457.598 1455.77 457.598 1460.26 Q457.598 1462.39 456.788 1464.31 Q456.001 1466.2 453.894 1468.8 Q453.315 1469.47 450.213 1472.69 Q447.112 1475.88 441.464 1481.64 Z" fill="#000000" fill-rule="nonzero" fill-opacity="1" /><path clip-path="url(#clip750)" d="M578.008 1454.1 Q574.397 1454.1 572.568 1457.66 Q570.762 1461.2 570.762 1468.33 Q570.762 1475.44 572.568 1479.01 Q574.397 1482.55 578.008 1482.55 Q581.642 1482.55 583.448 1479.01 Q585.276 1475.44 585.276 1468.33 Q585.276 1461.2 583.448 1457.66 Q581.642 1454.1 578.008 1454.1 M578.008 1450.39 Q583.818 1450.39 586.873 1455 Q589.952 1459.58 589.952 1468.33 Q589.952 1477.06 586.873 1481.67 Q583.818 1486.25 578.008 1486.25 Q572.198 1486.25 569.119 1481.67 Q566.063 1477.06 566.063 1468.33 Q566.063 1459.58 569.119 1455 Q572.198 1450.39 578.008 1450.39 Z" fill="#000000" fill-rule="nonzero" fill-opacity="1" /><path clip-path="url(#clip750)" d="M598.17 1479.7 L603.054 1479.7 L603.054 1485.58 L598.17 1485.58 L598.17 1479.7 Z" fill="#000000" fill-rule="nonzero" fill-opacity="1" /><path clip-path="url(#clip750)" d="M623.239 1454.1 Q619.628 1454.1 617.799 1457.66 Q615.994 1461.2 615.994 1468.33 Q615.994 1475.44 617.799 1479.01 Q619.628 1482.55 623.239 1482.55 Q626.873 1482.55 628.679 1479.01 Q630.507 1475.44 630.507 1468.33 Q630.507 1461.2 628.679 1457.66 Q626.873 1454.1 623.239 1454.1 M623.239 1450.39 Q629.049 1450.39 632.105 1455 Q635.183 1459.58 635.183 1468.33 Q635.183 1477.06 632.105 1481.67 Q629.049 1486.25 623.239 1486.25 Q617.429 1486.25 614.35 1481.67 Q611.295 1477.06 611.295 1468.33 Q611.295 1459.58 614.35 1455 Q617.429 1450.39 623.239 1450.39 Z" fill="#000000" fill-rule="nonzero" fill-opacity="1" /><path clip-path="url(#clip750)" d="M653.401 1454.1 Q649.79 1454.1 647.961 1457.66 Q646.156 1461.2 646.156 1468.33 Q646.156 1475.44 647.961 1479.01 Q649.79 1482.55 653.401 1482.55 Q657.035 1482.55 658.841 1479.01 Q660.669 1475.44 660.669 1468.33 Q660.669 1461.2 658.841 1457.66 Q657.035 1454.1 653.401 1454.1 M653.401 1450.39 Q659.211 1450.39 662.267 1455 Q665.345 1459.58 665.345 1468.33 Q665.345 1477.06 662.267 1481.67 Q659.211 1486.25 653.401 1486.25 Q647.591 1486.25 644.512 1481.67 Q641.457 1477.06 641.457 1468.33 Q641.457 1459.58 644.512 1455 Q647.591 1450.39 653.401 1450.39 Z" fill="#000000" fill-rule="nonzero" fill-opacity="1" /><path clip-path="url(#clip750)" d="M677.591 1481.64 L693.91 1481.64 L693.91 1485.58 L671.966 1485.58 L671.966 1481.64 Q674.628 1478.89 679.211 1474.26 Q683.817 1469.61 684.998 1468.27 Q687.243 1465.74 688.123 1464.01 Q689.026 1462.25 689.026 1460.56 Q689.026 1457.8 687.081 1456.07 Q685.16 1454.33 682.058 1454.33 Q679.859 1454.33 677.405 1455.09 Q674.975 1455.86 672.197 1457.41 L672.197 1452.69 Q675.021 1451.55 677.475 1450.97 Q679.929 1450.39 681.966 1450.39 Q687.336 1450.39 690.53 1453.08 Q693.725 1455.77 693.725 1460.26 Q693.725 1462.39 692.915 1464.31 Q692.128 1466.2 690.021 1468.8 Q689.442 1469.47 686.341 1472.69 Q683.239 1475.88 677.591 1481.64 Z" fill="#000000" fill-rule="nonzero" fill-opacity="1" /><path clip-path="url(#clip750)" d="M704.535 1481.64 L712.174 1481.64 L712.174 1455.28 L703.864 1456.95 L703.864 1452.69 L712.127 1451.02 L716.803 1451.02 L716.803 1481.64 L724.442 1481.64 L724.442 1485.58 L704.535 1485.58 L704.535 1481.64 Z" fill="#000000" fill-rule="nonzero" fill-opacity="1" /><path clip-path="url(#clip750)" d="M746.734 1455.09 L734.928 1473.54 L746.734 1473.54 L746.734 1455.09 M745.507 1451.02 L751.386 1451.02 L751.386 1473.54 L756.317 1473.54 L756.317 1477.43 L751.386 1477.43 L751.386 1485.58 L746.734 1485.58 L746.734 1477.43 L731.132 1477.43 L731.132 1472.92 L745.507 1451.02 Z" fill="#000000" fill-rule="nonzero" fill-opacity="1" /><path clip-path="url(#clip750)" d="M875.662 1454.1 Q872.051 1454.1 870.222 1457.66 Q868.417 1461.2 868.417 1468.33 Q868.417 1475.44 870.222 1479.01 Q872.051 1482.55 875.662 1482.55 Q879.296 1482.55 881.102 1479.01 Q882.931 1475.44 882.931 1468.33 Q882.931 1461.2 881.102 1457.66 Q879.296 1454.1 875.662 1454.1 M875.662 1450.39 Q881.472 1450.39 884.528 1455 Q887.607 1459.58 887.607 1468.33 Q887.607 1477.06 884.528 1481.67 Q881.472 1486.25 875.662 1486.25 Q869.852 1486.25 866.773 1481.67 Q863.718 1477.06 863.718 1468.33 Q863.718 1459.58 866.773 1455 Q869.852 1450.39 875.662 1450.39 Z" fill="#000000" fill-rule="nonzero" fill-opacity="1" /><path clip-path="url(#clip750)" d="M895.824 1479.7 L900.708 1479.7 L900.708 1485.58 L895.824 1485.58 L895.824 1479.7 Z" fill="#000000" fill-rule="nonzero" fill-opacity="1" /><path clip-path="url(#clip750)" d="M920.893 1454.1 Q917.282 1454.1 915.454 1457.66 Q913.648 1461.2 913.648 1468.33 Q913.648 1475.44 915.454 1479.01 Q917.282 1482.55 920.893 1482.55 Q924.528 1482.55 926.333 1479.01 Q928.162 1475.44 928.162 1468.33 Q928.162 1461.2 926.333 1457.66 Q924.528 1454.1 920.893 1454.1 M920.893 1450.39 Q926.704 1450.39 929.759 1455 Q932.838 1459.58 932.838 1468.33 Q932.838 1477.06 929.759 1481.67 Q926.704 1486.25 920.893 1486.25 Q915.083 1486.25 912.005 1481.67 Q908.949 1477.06 908.949 1468.33 Q908.949 1459.58 912.005 1455 Q915.083 1450.39 920.893 1450.39 Z" fill="#000000" fill-rule="nonzero" fill-opacity="1" /><path clip-path="url(#clip750)" d="M951.055 1454.1 Q947.444 1454.1 945.616 1457.66 Q943.81 1461.2 943.81 1468.33 Q943.81 1475.44 945.616 1479.01 Q947.444 1482.55 951.055 1482.55 Q954.69 1482.55 956.495 1479.01 Q958.324 1475.44 958.324 1468.33 Q958.324 1461.2 956.495 1457.66 Q954.69 1454.1 951.055 1454.1 M951.055 1450.39 Q956.866 1450.39 959.921 1455 Q963 1459.58 963 1468.33 Q963 1477.06 959.921 1481.67 Q956.866 1486.25 951.055 1486.25 Q945.245 1486.25 942.167 1481.67 Q939.111 1477.06 939.111 1468.33 Q939.111 1459.58 942.167 1455 Q945.245 1450.39 951.055 1450.39 Z" fill="#000000" fill-rule="nonzero" fill-opacity="1" /><path clip-path="url(#clip750)" d="M975.245 1481.64 L991.564 1481.64 L991.564 1485.58 L969.62 1485.58 L969.62 1481.64 Q972.282 1478.89 976.865 1474.26 Q981.472 1469.61 982.652 1468.27 Q984.898 1465.74 985.777 1464.01 Q986.68 1462.25 986.68 1460.56 Q986.68 1457.8 984.736 1456.07 Q982.814 1454.33 979.713 1454.33 Q977.514 1454.33 975.06 1455.09 Q972.629 1455.86 969.852 1457.41 L969.852 1452.69 Q972.676 1451.55 975.129 1450.97 Q977.583 1450.39 979.62 1450.39 Q984.99 1450.39 988.185 1453.08 Q991.379 1455.77 991.379 1460.26 Q991.379 1462.39 990.569 1464.31 Q989.782 1466.2 987.676 1468.8 Q987.097 1469.47 983.995 1472.69 Q980.893 1475.88 975.245 1481.64 Z" fill="#000000" fill-rule="nonzero" fill-opacity="1" /><path clip-path="url(#clip750)" d="M1002.19 1481.64 L1009.83 1481.64 L1009.83 1455.28 L1001.52 1456.95 L1001.52 1452.69 L1009.78 1451.02 L1014.46 1451.02 L1014.46 1481.64 L1022.1 1481.64 L1022.1 1485.58 L1002.19 1485.58 L1002.19 1481.64 Z" fill="#000000" fill-rule="nonzero" fill-opacity="1" /><path clip-path="url(#clip750)" d="M1042.12 1466.44 Q1038.97 1466.44 1037.12 1468.59 Q1035.29 1470.74 1035.29 1474.49 Q1035.29 1478.22 1037.12 1480.39 Q1038.97 1482.55 1042.12 1482.55 Q1045.27 1482.55 1047.1 1480.39 Q1048.95 1478.22 1048.95 1474.49 Q1048.95 1470.74 1047.1 1468.59 Q1045.27 1466.44 1042.12 1466.44 M1051.4 1451.78 L1051.4 1456.04 Q1049.64 1455.21 1047.84 1454.77 Q1046.05 1454.33 1044.3 1454.33 Q1039.67 1454.33 1037.21 1457.45 Q1034.78 1460.58 1034.43 1466.9 Q1035.8 1464.89 1037.86 1463.82 Q1039.92 1462.73 1042.4 1462.73 Q1047.61 1462.73 1050.62 1465.9 Q1053.65 1469.05 1053.65 1474.49 Q1053.65 1479.82 1050.5 1483.03 Q1047.35 1486.25 1042.12 1486.25 Q1036.12 1486.25 1032.95 1481.67 Q1029.78 1477.06 1029.78 1468.33 Q1029.78 1460.14 1033.67 1455.28 Q1037.56 1450.39 1044.11 1450.39 Q1045.87 1450.39 1047.65 1450.74 Q1049.46 1451.09 1051.4 1451.78 Z" fill="#000000" fill-rule="nonzero" fill-opacity="1" /><path clip-path="url(#clip750)" d="M1173.28 1454.1 Q1169.67 1454.1 1167.84 1457.66 Q1166.04 1461.2 1166.04 1468.33 Q1166.04 1475.44 1167.84 1479.01 Q1169.67 1482.55 1173.28 1482.55 Q1176.92 1482.55 1178.72 1479.01 Q1180.55 1475.44 1180.55 1468.33 Q1180.55 1461.2 1178.72 1457.66 Q1176.92 1454.1 1173.28 1454.1 M1173.28 1450.39 Q1179.09 1450.39 1182.15 1455 Q1185.23 1459.58 1185.23 1468.33 Q1185.23 1477.06 1182.15 1481.67 Q1179.09 1486.25 1173.28 1486.25 Q1167.47 1486.25 1164.39 1481.67 Q1161.34 1477.06 1161.34 1468.33 Q1161.34 1459.58 1164.39 1455 Q1167.47 1450.39 1173.28 1450.39 Z" fill="#000000" fill-rule="nonzero" fill-opacity="1" /><path clip-path="url(#clip750)" d="M1193.44 1479.7 L1198.33 1479.7 L1198.33 1485.58 L1193.44 1485.58 L1193.44 1479.7 Z" fill="#000000" fill-rule="nonzero" fill-opacity="1" /><path clip-path="url(#clip750)" d="M1218.51 1454.1 Q1214.9 1454.1 1213.07 1457.66 Q1211.27 1461.2 1211.27 1468.33 Q1211.27 1475.44 1213.07 1479.01 Q1214.9 1482.55 1218.51 1482.55 Q1222.15 1482.55 1223.95 1479.01 Q1225.78 1475.44 1225.78 1468.33 Q1225.78 1461.2 1223.95 1457.66 Q1222.15 1454.1 1218.51 1454.1 M1218.51 1450.39 Q1224.32 1450.39 1227.38 1455 Q1230.46 1459.58 1230.46 1468.33 Q1230.46 1477.06 1227.38 1481.67 Q1224.32 1486.25 1218.51 1486.25 Q1212.7 1486.25 1209.62 1481.67 Q1206.57 1477.06 1206.57 1468.33 Q1206.57 1459.58 1209.62 1455 Q1212.7 1450.39 1218.51 1450.39 Z" fill="#000000" fill-rule="nonzero" fill-opacity="1" /><path clip-path="url(#clip750)" d="M1248.68 1454.1 Q1245.06 1454.1 1243.24 1457.66 Q1241.43 1461.2 1241.43 1468.33 Q1241.43 1475.44 1243.24 1479.01 Q1245.06 1482.55 1248.68 1482.55 Q1252.31 1482.55 1254.11 1479.01 Q1255.94 1475.44 1255.94 1468.33 Q1255.94 1461.2 1254.11 1457.66 Q1252.31 1454.1 1248.68 1454.1 M1248.68 1450.39 Q1254.49 1450.39 1257.54 1455 Q1260.62 1459.58 1260.62 1468.33 Q1260.62 1477.06 1257.54 1481.67 Q1254.49 1486.25 1248.68 1486.25 Q1242.86 1486.25 1239.79 1481.67 Q1236.73 1477.06 1236.73 1468.33 Q1236.73 1459.58 1239.79 1455 Q1242.86 1450.39 1248.68 1450.39 Z" fill="#000000" fill-rule="nonzero" fill-opacity="1" /><path clip-path="url(#clip750)" d="M1272.86 1481.64 L1289.18 1481.64 L1289.18 1485.58 L1267.24 1485.58 L1267.24 1481.64 Q1269.9 1478.89 1274.49 1474.26 Q1279.09 1469.61 1280.27 1468.27 Q1282.52 1465.74 1283.4 1464.01 Q1284.3 1462.25 1284.3 1460.56 Q1284.3 1457.8 1282.36 1456.07 Q1280.43 1454.33 1277.33 1454.33 Q1275.13 1454.33 1272.68 1455.09 Q1270.25 1455.86 1267.47 1457.41 L1267.47 1452.69 Q1270.3 1451.55 1272.75 1450.97 Q1275.2 1450.39 1277.24 1450.39 Q1282.61 1450.39 1285.8 1453.08 Q1289 1455.77 1289 1460.26 Q1289 1462.39 1288.19 1464.31 Q1287.4 1466.2 1285.3 1468.8 Q1284.72 1469.47 1281.61 1472.69 Q1278.51 1475.88 1272.86 1481.64 Z" fill="#000000" fill-rule="nonzero" fill-opacity="1" /><path clip-path="url(#clip750)" d="M1299.81 1481.64 L1307.45 1481.64 L1307.45 1455.28 L1299.14 1456.95 L1299.14 1452.69 L1307.4 1451.02 L1312.08 1451.02 L1312.08 1481.64 L1319.72 1481.64 L1319.72 1485.58 L1299.81 1485.58 L1299.81 1481.64 Z" fill="#000000" fill-rule="nonzero" fill-opacity="1" /><path clip-path="url(#clip750)" d="M1339.16 1469.17 Q1335.83 1469.17 1333.91 1470.95 Q1332.01 1472.73 1332.01 1475.86 Q1332.01 1478.98 1333.91 1480.77 Q1335.83 1482.55 1339.16 1482.55 Q1342.49 1482.55 1344.42 1480.77 Q1346.34 1478.96 1346.34 1475.86 Q1346.34 1472.73 1344.42 1470.95 Q1342.52 1469.17 1339.16 1469.17 M1334.48 1467.18 Q1331.48 1466.44 1329.79 1464.38 Q1328.12 1462.32 1328.12 1459.35 Q1328.12 1455.21 1331.06 1452.8 Q1334.02 1450.39 1339.16 1450.39 Q1344.32 1450.39 1347.26 1452.8 Q1350.2 1455.21 1350.2 1459.35 Q1350.2 1462.32 1348.51 1464.38 Q1346.85 1466.44 1343.86 1467.18 Q1347.24 1467.96 1349.11 1470.26 Q1351.01 1472.55 1351.01 1475.86 Q1351.01 1480.88 1347.93 1483.57 Q1344.88 1486.25 1339.16 1486.25 Q1333.44 1486.25 1330.36 1483.57 Q1327.31 1480.88 1327.31 1475.86 Q1327.31 1472.55 1329.21 1470.26 Q1331.11 1467.96 1334.48 1467.18 M1332.77 1459.79 Q1332.77 1462.48 1334.44 1463.98 Q1336.13 1465.49 1339.16 1465.49 Q1342.17 1465.49 1343.86 1463.98 Q1345.57 1462.48 1345.57 1459.79 Q1345.57 1457.11 1343.86 1455.6 Q1342.17 1454.1 1339.16 1454.1 Q1336.13 1454.1 1334.44 1455.6 Q1332.77 1457.11 1332.77 1459.79 Z" fill="#000000" fill-rule="nonzero" fill-opacity="1" /><path clip-path="url(#clip750)" d="M1470.73 1454.1 Q1467.12 1454.1 1465.29 1457.66 Q1463.48 1461.2 1463.48 1468.33 Q1463.48 1475.44 1465.29 1479.01 Q1467.12 1482.55 1470.73 1482.55 Q1474.36 1482.55 1476.17 1479.01 Q1478 1475.44 1478 1468.33 Q1478 1461.2 1476.17 1457.66 Q1474.36 1454.1 1470.73 1454.1 M1470.73 1450.39 Q1476.54 1450.39 1479.59 1455 Q1482.67 1459.58 1482.67 1468.33 Q1482.67 1477.06 1479.59 1481.67 Q1476.54 1486.25 1470.73 1486.25 Q1464.92 1486.25 1461.84 1481.67 Q1458.78 1477.06 1458.78 1468.33 Q1458.78 1459.58 1461.84 1455 Q1464.92 1450.39 1470.73 1450.39 Z" fill="#000000" fill-rule="nonzero" fill-opacity="1" /><path clip-path="url(#clip750)" d="M1490.89 1479.7 L1495.77 1479.7 L1495.77 1485.58 L1490.89 1485.58 L1490.89 1479.7 Z" fill="#000000" fill-rule="nonzero" fill-opacity="1" /><path clip-path="url(#clip750)" d="M1515.96 1454.1 Q1512.35 1454.1 1510.52 1457.66 Q1508.71 1461.2 1508.71 1468.33 Q1508.71 1475.44 1510.52 1479.01 Q1512.35 1482.55 1515.96 1482.55 Q1519.59 1482.55 1521.4 1479.01 Q1523.23 1475.44 1523.23 1468.33 Q1523.23 1461.2 1521.4 1457.66 Q1519.59 1454.1 1515.96 1454.1 M1515.96 1450.39 Q1521.77 1450.39 1524.83 1455 Q1527.9 1459.58 1527.9 1468.33 Q1527.9 1477.06 1524.83 1481.67 Q1521.77 1486.25 1515.96 1486.25 Q1510.15 1486.25 1507.07 1481.67 Q1504.02 1477.06 1504.02 1468.33 Q1504.02 1459.58 1507.07 1455 Q1510.15 1450.39 1515.96 1450.39 Z" fill="#000000" fill-rule="nonzero" fill-opacity="1" /><path clip-path="url(#clip750)" d="M1546.12 1454.1 Q1542.51 1454.1 1540.68 1457.66 Q1538.88 1461.2 1538.88 1468.33 Q1538.88 1475.44 1540.68 1479.01 Q1542.51 1482.55 1546.12 1482.55 Q1549.76 1482.55 1551.56 1479.01 Q1553.39 1475.44 1553.39 1468.33 Q1553.39 1461.2 1551.56 1457.66 Q1549.76 1454.1 1546.12 1454.1 M1546.12 1450.39 Q1551.93 1450.39 1554.99 1455 Q1558.07 1459.58 1558.07 1468.33 Q1558.07 1477.06 1554.99 1481.67 Q1551.93 1486.25 1546.12 1486.25 Q1540.31 1486.25 1537.23 1481.67 Q1534.18 1477.06 1534.18 1468.33 Q1534.18 1459.58 1537.23 1455 Q1540.31 1450.39 1546.12 1450.39 Z" fill="#000000" fill-rule="nonzero" fill-opacity="1" /><path clip-path="url(#clip750)" d="M1570.31 1481.64 L1586.63 1481.64 L1586.63 1485.58 L1564.69 1485.58 L1564.69 1481.64 Q1567.35 1478.89 1571.93 1474.26 Q1576.54 1469.61 1577.72 1468.27 Q1579.96 1465.74 1580.84 1464.01 Q1581.75 1462.25 1581.75 1460.56 Q1581.75 1457.8 1579.8 1456.07 Q1577.88 1454.33 1574.78 1454.33 Q1572.58 1454.33 1570.13 1455.09 Q1567.7 1455.86 1564.92 1457.41 L1564.92 1452.69 Q1567.74 1451.55 1570.2 1450.97 Q1572.65 1450.39 1574.69 1450.39 Q1580.06 1450.39 1583.25 1453.08 Q1586.45 1455.77 1586.45 1460.26 Q1586.45 1462.39 1585.63 1464.31 Q1584.85 1466.2 1582.74 1468.8 Q1582.16 1469.47 1579.06 1472.69 Q1575.96 1475.88 1570.31 1481.64 Z" fill="#000000" fill-rule="nonzero" fill-opacity="1" /><path clip-path="url(#clip750)" d="M1600.47 1481.64 L1616.79 1481.64 L1616.79 1485.58 L1594.85 1485.58 L1594.85 1481.64 Q1597.51 1478.89 1602.09 1474.26 Q1606.7 1469.61 1607.88 1468.27 Q1610.13 1465.74 1611.01 1464.01 Q1611.91 1462.25 1611.91 1460.56 Q1611.91 1457.8 1609.96 1456.07 Q1608.04 1454.33 1604.94 1454.33 Q1602.74 1454.33 1600.29 1455.09 Q1597.86 1455.86 1595.08 1457.41 L1595.08 1452.69 Q1597.9 1451.55 1600.36 1450.97 Q1602.81 1450.39 1604.85 1450.39 Q1610.22 1450.39 1613.41 1453.08 Q1616.61 1455.77 1616.61 1460.26 Q1616.61 1462.39 1615.8 1464.31 Q1615.01 1466.2 1612.9 1468.8 Q1612.32 1469.47 1609.22 1472.69 Q1606.12 1475.88 1600.47 1481.64 Z" fill="#000000" fill-rule="nonzero" fill-opacity="1" /><path clip-path="url(#clip750)" d="M1636.61 1454.1 Q1633 1454.1 1631.17 1457.66 Q1629.36 1461.2 1629.36 1468.33 Q1629.36 1475.44 1631.17 1479.01 Q1633 1482.55 1636.61 1482.55 Q1640.24 1482.55 1642.05 1479.01 Q1643.88 1475.44 1643.88 1468.33 Q1643.88 1461.2 1642.05 1457.66 Q1640.24 1454.1 1636.61 1454.1 M1636.61 1450.39 Q1642.42 1450.39 1645.47 1455 Q1648.55 1459.58 1648.55 1468.33 Q1648.55 1477.06 1645.47 1481.67 Q1642.42 1486.25 1636.61 1486.25 Q1630.8 1486.25 1627.72 1481.67 Q1624.66 1477.06 1624.66 1468.33 Q1624.66 1459.58 1627.72 1455 Q1630.8 1450.39 1636.61 1450.39 Z" fill="#000000" fill-rule="nonzero" fill-opacity="1" /><path clip-path="url(#clip750)" d="M1769.02 1454.1 Q1765.41 1454.1 1763.58 1457.66 Q1761.77 1461.2 1761.77 1468.33 Q1761.77 1475.44 1763.58 1479.01 Q1765.41 1482.55 1769.02 1482.55 Q1772.65 1482.55 1774.46 1479.01 Q1776.29 1475.44 1776.29 1468.33 Q1776.29 1461.2 1774.46 1457.66 Q1772.65 1454.1 1769.02 1454.1 M1769.02 1450.39 Q1774.83 1450.39 1777.88 1455 Q1780.96 1459.58 1780.96 1468.33 Q1780.96 1477.06 1777.88 1481.67 Q1774.83 1486.25 1769.02 1486.25 Q1763.21 1486.25 1760.13 1481.67 Q1757.07 1477.06 1757.07 1468.33 Q1757.07 1459.58 1760.13 1455 Q1763.21 1450.39 1769.02 1450.39 Z" fill="#000000" fill-rule="nonzero" fill-opacity="1" /><path clip-path="url(#clip750)" d="M1789.18 1479.7 L1794.07 1479.7 L1794.07 1485.58 L1789.18 1485.58 L1789.18 1479.7 Z" fill="#000000" fill-rule="nonzero" fill-opacity="1" /><path clip-path="url(#clip750)" d="M1814.25 1454.1 Q1810.64 1454.1 1808.81 1457.66 Q1807.01 1461.2 1807.01 1468.33 Q1807.01 1475.44 1808.81 1479.01 Q1810.64 1482.55 1814.25 1482.55 Q1817.88 1482.55 1819.69 1479.01 Q1821.52 1475.44 1821.52 1468.33 Q1821.52 1461.2 1819.69 1457.66 Q1817.88 1454.1 1814.25 1454.1 M1814.25 1450.39 Q1820.06 1450.39 1823.12 1455 Q1826.19 1459.58 1826.19 1468.33 Q1826.19 1477.06 1823.12 1481.67 Q1820.06 1486.25 1814.25 1486.25 Q1808.44 1486.25 1805.36 1481.67 Q1802.31 1477.06 1802.31 1468.33 Q1802.31 1459.58 1805.36 1455 Q1808.44 1450.39 1814.25 1450.39 Z" fill="#000000" fill-rule="nonzero" fill-opacity="1" /><path clip-path="url(#clip750)" d="M1844.41 1454.1 Q1840.8 1454.1 1838.97 1457.66 Q1837.17 1461.2 1837.17 1468.33 Q1837.17 1475.44 1838.97 1479.01 Q1840.8 1482.55 1844.41 1482.55 Q1848.05 1482.55 1849.85 1479.01 Q1851.68 1475.44 1851.68 1468.33 Q1851.68 1461.2 1849.85 1457.66 Q1848.05 1454.1 1844.41 1454.1 M1844.41 1450.39 Q1850.22 1450.39 1853.28 1455 Q1856.36 1459.58 1856.36 1468.33 Q1856.36 1477.06 1853.28 1481.67 Q1850.22 1486.25 1844.41 1486.25 Q1838.6 1486.25 1835.52 1481.67 Q1832.47 1477.06 1832.47 1468.33 Q1832.47 1459.58 1835.52 1455 Q1838.6 1450.39 1844.41 1450.39 Z" fill="#000000" fill-rule="nonzero" fill-opacity="1" /><path clip-path="url(#clip750)" d="M1868.6 1481.64 L1884.92 1481.64 L1884.92 1485.58 L1862.98 1485.58 L1862.98 1481.64 Q1865.64 1478.89 1870.22 1474.26 Q1874.83 1469.61 1876.01 1468.27 Q1878.25 1465.74 1879.13 1464.01 Q1880.04 1462.25 1880.04 1460.56 Q1880.04 1457.8 1878.09 1456.07 Q1876.17 1454.33 1873.07 1454.33 Q1870.87 1454.33 1868.42 1455.09 Q1865.99 1455.86 1863.21 1457.41 L1863.21 1452.69 Q1866.03 1451.55 1868.49 1450.97 Q1870.94 1450.39 1872.98 1450.39 Q1878.35 1450.39 1881.54 1453.08 Q1884.74 1455.77 1884.74 1460.26 Q1884.74 1462.39 1883.93 1464.31 Q1883.14 1466.2 1881.03 1468.8 Q1880.45 1469.47 1877.35 1472.69 Q1874.25 1475.88 1868.6 1481.64 Z" fill="#000000" fill-rule="nonzero" fill-opacity="1" /><path clip-path="url(#clip750)" d="M1898.76 1481.64 L1915.08 1481.64 L1915.08 1485.58 L1893.14 1485.58 L1893.14 1481.64 Q1895.8 1478.89 1900.38 1474.26 Q1904.99 1469.61 1906.17 1468.27 Q1908.42 1465.74 1909.3 1464.01 Q1910.2 1462.25 1910.2 1460.56 Q1910.2 1457.8 1908.25 1456.07 Q1906.33 1454.33 1903.23 1454.33 Q1901.03 1454.33 1898.58 1455.09 Q1896.15 1455.86 1893.37 1457.41 L1893.37 1452.69 Q1896.19 1451.55 1898.65 1450.97 Q1901.1 1450.39 1903.14 1450.39 Q1908.51 1450.39 1911.7 1453.08 Q1914.9 1455.77 1914.9 1460.26 Q1914.9 1462.39 1914.09 1464.31 Q1913.3 1466.2 1911.19 1468.8 Q1910.62 1469.47 1907.51 1472.69 Q1904.41 1475.88 1898.76 1481.64 Z" fill="#000000" fill-rule="nonzero" fill-opacity="1" /><path clip-path="url(#clip750)" d="M1928.93 1481.64 L1945.25 1481.64 L1945.25 1485.58 L1923.3 1485.58 L1923.3 1481.64 Q1925.96 1478.89 1930.55 1474.26 Q1935.15 1469.61 1936.33 1468.27 Q1938.58 1465.74 1939.46 1464.01 Q1940.36 1462.25 1940.36 1460.56 Q1940.36 1457.8 1938.42 1456.07 Q1936.5 1454.33 1933.39 1454.33 Q1931.19 1454.33 1928.74 1455.09 Q1926.31 1455.86 1923.53 1457.41 L1923.53 1452.69 Q1926.36 1451.55 1928.81 1450.97 Q1931.26 1450.39 1933.3 1450.39 Q1938.67 1450.39 1941.87 1453.08 Q1945.06 1455.77 1945.06 1460.26 Q1945.06 1462.39 1944.25 1464.31 Q1943.46 1466.2 1941.36 1468.8 Q1940.78 1469.47 1937.68 1472.69 Q1934.57 1475.88 1928.93 1481.64 Z" fill="#000000" fill-rule="nonzero" fill-opacity="1" /><path clip-path="url(#clip750)" d="M2065.47 1454.1 Q2061.86 1454.1 2060.03 1457.66 Q2058.22 1461.2 2058.22 1468.33 Q2058.22 1475.44 2060.03 1479.01 Q2061.86 1482.55 2065.47 1482.55 Q2069.1 1482.55 2070.91 1479.01 Q2072.74 1475.44 2072.74 1468.33 Q2072.74 1461.2 2070.91 1457.66 Q2069.1 1454.1 2065.47 1454.1 M2065.47 1450.39 Q2071.28 1450.39 2074.34 1455 Q2077.41 1459.58 2077.41 1468.33 Q2077.41 1477.06 2074.34 1481.67 Q2071.28 1486.25 2065.47 1486.25 Q2059.66 1486.25 2056.58 1481.67 Q2053.53 1477.06 2053.53 1468.33 Q2053.53 1459.58 2056.58 1455 Q2059.66 1450.39 2065.47 1450.39 Z" fill="#000000" fill-rule="nonzero" fill-opacity="1" /><path clip-path="url(#clip750)" d="M2085.63 1479.7 L2090.52 1479.7 L2090.52 1485.58 L2085.63 1485.58 L2085.63 1479.7 Z" fill="#000000" fill-rule="nonzero" fill-opacity="1" /><path clip-path="url(#clip750)" d="M2110.7 1454.1 Q2107.09 1454.1 2105.26 1457.66 Q2103.46 1461.2 2103.46 1468.33 Q2103.46 1475.44 2105.26 1479.01 Q2107.09 1482.55 2110.7 1482.55 Q2114.34 1482.55 2116.14 1479.01 Q2117.97 1475.44 2117.97 1468.33 Q2117.97 1461.2 2116.14 1457.66 Q2114.34 1454.1 2110.7 1454.1 M2110.7 1450.39 Q2116.51 1450.39 2119.57 1455 Q2122.65 1459.58 2122.65 1468.33 Q2122.65 1477.06 2119.57 1481.67 Q2116.51 1486.25 2110.7 1486.25 Q2104.89 1486.25 2101.81 1481.67 Q2098.76 1477.06 2098.76 1468.33 Q2098.76 1459.58 2101.81 1455 Q2104.89 1450.39 2110.7 1450.39 Z" fill="#000000" fill-rule="nonzero" fill-opacity="1" /><path clip-path="url(#clip750)" d="M2140.86 1454.1 Q2137.25 1454.1 2135.42 1457.66 Q2133.62 1461.2 2133.62 1468.33 Q2133.62 1475.44 2135.42 1479.01 Q2137.25 1482.55 2140.86 1482.55 Q2144.5 1482.55 2146.3 1479.01 Q2148.13 1475.44 2148.13 1468.33 Q2148.13 1461.2 2146.3 1457.66 Q2144.5 1454.1 2140.86 1454.1 M2140.86 1450.39 Q2146.67 1450.39 2149.73 1455 Q2152.81 1459.58 2152.81 1468.33 Q2152.81 1477.06 2149.73 1481.67 Q2146.67 1486.25 2140.86 1486.25 Q2135.05 1486.25 2131.97 1481.67 Q2128.92 1477.06 2128.92 1468.33 Q2128.92 1459.58 2131.97 1455 Q2135.05 1450.39 2140.86 1450.39 Z" fill="#000000" fill-rule="nonzero" fill-opacity="1" /><path clip-path="url(#clip750)" d="M2165.05 1481.64 L2181.37 1481.64 L2181.37 1485.58 L2159.43 1485.58 L2159.43 1481.64 Q2162.09 1478.89 2166.67 1474.26 Q2171.28 1469.61 2172.46 1468.27 Q2174.71 1465.74 2175.59 1464.01 Q2176.49 1462.25 2176.49 1460.56 Q2176.49 1457.8 2174.54 1456.07 Q2172.62 1454.33 2169.52 1454.33 Q2167.32 1454.33 2164.87 1455.09 Q2162.44 1455.86 2159.66 1457.41 L2159.66 1452.69 Q2162.48 1451.55 2164.94 1450.97 Q2167.39 1450.39 2169.43 1450.39 Q2174.8 1450.39 2177.99 1453.08 Q2181.19 1455.77 2181.19 1460.26 Q2181.19 1462.39 2180.38 1464.31 Q2179.59 1466.2 2177.48 1468.8 Q2176.9 1469.47 2173.8 1472.69 Q2170.7 1475.88 2165.05 1481.64 Z" fill="#000000" fill-rule="nonzero" fill-opacity="1" /><path clip-path="url(#clip750)" d="M2195.21 1481.64 L2211.53 1481.64 L2211.53 1485.58 L2189.59 1485.58 L2189.59 1481.64 Q2192.25 1478.89 2196.84 1474.26 Q2201.44 1469.61 2202.62 1468.27 Q2204.87 1465.74 2205.75 1464.01 Q2206.65 1462.25 2206.65 1460.56 Q2206.65 1457.8 2204.71 1456.07 Q2202.78 1454.33 2199.68 1454.33 Q2197.48 1454.33 2195.03 1455.09 Q2192.6 1455.86 2189.82 1457.41 L2189.82 1452.69 Q2192.65 1451.55 2195.1 1450.97 Q2197.55 1450.39 2199.59 1450.39 Q2204.96 1450.39 2208.15 1453.08 Q2211.35 1455.77 2211.35 1460.26 Q2211.35 1462.39 2210.54 1464.31 Q2209.75 1466.2 2207.65 1468.8 Q2207.07 1469.47 2203.96 1472.69 Q2200.86 1475.88 2195.21 1481.64 Z" fill="#000000" fill-rule="nonzero" fill-opacity="1" /><path clip-path="url(#clip750)" d="M2234.2 1455.09 L2222.39 1473.54 L2234.2 1473.54 L2234.2 1455.09 M2232.97 1451.02 L2238.85 1451.02 L2238.85 1473.54 L2243.78 1473.54 L2243.78 1477.43 L2238.85 1477.43 L2238.85 1485.58 L2234.2 1485.58 L2234.2 1477.43 L2218.59 1477.43 L2218.59 1472.92 L2232.97 1451.02 Z" fill="#000000" fill-rule="nonzero" fill-opacity="1" /><path clip-path="url(#clip750)" d="M1291.88 1565.85 L1291.88 1581.6 L1285.99 1581.6 L1285.99 1532.62 Q1285.99 1518.1 1299.55 1518.1 Q1313.36 1518.1 1313.36 1530.36 Q1313.36 1539.08 1307.89 1542.26 Q1316.8 1545.13 1316.8 1553.63 Q1316.8 1568.71 1301.46 1568.71 Q1294.71 1568.71 1291.88 1565.85 M1291.88 1558.21 Q1295.41 1563.72 1301.68 1563.72 Q1310.85 1563.72 1310.85 1553.72 Q1310.85 1544.75 1296.08 1545.45 L1296.08 1540.03 Q1307.63 1540.03 1307.63 1529.85 Q1307.63 1522.88 1300.18 1522.88 Q1291.88 1522.88 1291.88 1532.81 L1291.88 1558.21 Z" fill="#000000" fill-rule="nonzero" fill-opacity="1" /><polyline clip-path="url(#clip750)" style="stroke:#000000; stroke-linecap:round; stroke-linejoin:round; stroke-width:4; stroke-opacity:1; fill:none" points="250.028,1423.18 250.028,47.2441 "/>
<polyline clip-path="url(#clip750)" style="stroke:#000000; stroke-linecap:round; stroke-linejoin:round; stroke-width:4; stroke-opacity:1; fill:none" points="250.028,1334.23 268.926,1334.23 "/>
<polyline clip-path="url(#clip750)" style="stroke:#000000; stroke-linecap:round; stroke-linejoin:round; stroke-width:4; stroke-opacity:1; fill:none" points="250.028,1127.48 268.926,1127.48 "/>
<polyline clip-path="url(#clip750)" style="stroke:#000000; stroke-linecap:round; stroke-linejoin:round; stroke-width:4; stroke-opacity:1; fill:none" points="250.028,920.719 268.926,920.719 "/>
<polyline clip-path="url(#clip750)" style="stroke:#000000; stroke-linecap:round; stroke-linejoin:round; stroke-width:4; stroke-opacity:1; fill:none" points="250.028,713.963 268.926,713.963 "/>
<polyline clip-path="url(#clip750)" style="stroke:#000000; stroke-linecap:round; stroke-linejoin:round; stroke-width:4; stroke-opacity:1; fill:none" points="250.028,507.207 268.926,507.207 "/>
<polyline clip-path="url(#clip750)" style="stroke:#000000; stroke-linecap:round; stroke-linejoin:round; stroke-width:4; stroke-opacity:1; fill:none" points="250.028,300.451 268.926,300.451 "/>
<polyline clip-path="url(#clip750)" style="stroke:#000000; stroke-linecap:round; stroke-linejoin:round; stroke-width:4; stroke-opacity:1; fill:none" points="250.028,93.6948 268.926,93.6948 "/>
<path clip-path="url(#clip750)" d="M128.288 1320.03 Q124.677 1320.03 122.848 1323.59 Q121.043 1327.14 121.043 1334.27 Q121.043 1341.37 122.848 1344.94 Q124.677 1348.48 128.288 1348.48 Q131.922 1348.48 133.728 1344.94 Q135.556 1341.37 135.556 1334.27 Q135.556 1327.14 133.728 1323.59 Q131.922 1320.03 128.288 1320.03 M128.288 1316.33 Q134.098 1316.33 137.154 1320.93 Q140.232 1325.52 140.232 1334.27 Q140.232 1342.99 137.154 1347.6 Q134.098 1352.18 128.288 1352.18 Q122.478 1352.18 119.399 1347.6 Q116.343 1342.99 116.343 1334.27 Q116.343 1325.52 119.399 1320.93 Q122.478 1316.33 128.288 1316.33 Z" fill="#000000" fill-rule="nonzero" fill-opacity="1" /><path clip-path="url(#clip750)" d="M148.45 1345.63 L153.334 1345.63 L153.334 1351.51 L148.45 1351.51 L148.45 1345.63 Z" fill="#000000" fill-rule="nonzero" fill-opacity="1" /><path clip-path="url(#clip750)" d="M176.366 1321.03 L164.561 1339.47 L176.366 1339.47 L176.366 1321.03 M175.139 1316.95 L181.019 1316.95 L181.019 1339.47 L185.95 1339.47 L185.95 1343.36 L181.019 1343.36 L181.019 1351.51 L176.366 1351.51 L176.366 1343.36 L160.765 1343.36 L160.765 1338.85 L175.139 1316.95 Z" fill="#000000" fill-rule="nonzero" fill-opacity="1" /><path clip-path="url(#clip750)" d="M197.709 1347.58 L214.028 1347.58 L214.028 1351.51 L192.084 1351.51 L192.084 1347.58 Q194.746 1344.82 199.329 1340.19 Q203.936 1335.54 205.116 1334.2 Q207.362 1331.67 208.241 1329.94 Q209.144 1328.18 209.144 1326.49 Q209.144 1323.73 207.199 1322 Q205.278 1320.26 202.176 1320.26 Q199.977 1320.26 197.524 1321.03 Q195.093 1321.79 192.315 1323.34 L192.315 1318.62 Q195.139 1317.48 197.593 1316.91 Q200.047 1316.33 202.084 1316.33 Q207.454 1316.33 210.649 1319.01 Q213.843 1321.7 213.843 1326.19 Q213.843 1328.32 213.033 1330.24 Q212.246 1332.14 210.139 1334.73 Q209.561 1335.4 206.459 1338.62 Q203.357 1341.81 197.709 1347.58 Z" fill="#000000" fill-rule="nonzero" fill-opacity="1" /><path clip-path="url(#clip750)" d="M127.339 1113.27 Q123.728 1113.27 121.899 1116.84 Q120.093 1120.38 120.093 1127.51 Q120.093 1134.62 121.899 1138.18 Q123.728 1141.72 127.339 1141.72 Q130.973 1141.72 132.779 1138.18 Q134.607 1134.62 134.607 1127.51 Q134.607 1120.38 132.779 1116.84 Q130.973 1113.27 127.339 1113.27 M127.339 1109.57 Q133.149 1109.57 136.204 1114.18 Q139.283 1118.76 139.283 1127.51 Q139.283 1136.24 136.204 1140.84 Q133.149 1145.43 127.339 1145.43 Q121.529 1145.43 118.45 1140.84 Q115.394 1136.24 115.394 1127.51 Q115.394 1118.76 118.45 1114.18 Q121.529 1109.57 127.339 1109.57 Z" fill="#000000" fill-rule="nonzero" fill-opacity="1" /><path clip-path="url(#clip750)" d="M147.501 1138.88 L152.385 1138.88 L152.385 1144.76 L147.501 1144.76 L147.501 1138.88 Z" fill="#000000" fill-rule="nonzero" fill-opacity="1" /><path clip-path="url(#clip750)" d="M175.417 1114.27 L163.612 1132.72 L175.417 1132.72 L175.417 1114.27 M174.19 1110.2 L180.07 1110.2 L180.07 1132.72 L185.001 1132.72 L185.001 1136.61 L180.07 1136.61 L180.07 1144.76 L175.417 1144.76 L175.417 1136.61 L159.815 1136.61 L159.815 1132.09 L174.19 1110.2 Z" fill="#000000" fill-rule="nonzero" fill-opacity="1" /><path clip-path="url(#clip750)" d="M206.899 1126.12 Q210.255 1126.84 212.13 1129.11 Q214.028 1131.38 214.028 1134.71 Q214.028 1139.82 210.51 1142.63 Q206.991 1145.43 200.51 1145.43 Q198.334 1145.43 196.019 1144.99 Q193.727 1144.57 191.274 1143.71 L191.274 1139.2 Q193.218 1140.33 195.533 1140.91 Q197.848 1141.49 200.371 1141.49 Q204.769 1141.49 207.061 1139.76 Q209.375 1138.02 209.375 1134.71 Q209.375 1131.65 207.223 1129.94 Q205.093 1128.2 201.274 1128.2 L197.246 1128.2 L197.246 1124.36 L201.459 1124.36 Q204.908 1124.36 206.737 1123 Q208.565 1121.61 208.565 1119.01 Q208.565 1116.35 206.667 1114.94 Q204.792 1113.51 201.274 1113.51 Q199.352 1113.51 197.153 1113.92 Q194.954 1114.34 192.315 1115.22 L192.315 1111.05 Q194.977 1110.31 197.292 1109.94 Q199.63 1109.57 201.69 1109.57 Q207.014 1109.57 210.116 1112 Q213.218 1114.41 213.218 1118.53 Q213.218 1121.4 211.574 1123.39 Q209.931 1125.36 206.899 1126.12 Z" fill="#000000" fill-rule="nonzero" fill-opacity="1" /><path clip-path="url(#clip750)" d="M126.205 906.518 Q122.593 906.518 120.765 910.083 Q118.959 913.624 118.959 920.754 Q118.959 927.86 120.765 931.425 Q122.593 934.967 126.205 934.967 Q129.839 934.967 131.644 931.425 Q133.473 927.86 133.473 920.754 Q133.473 913.624 131.644 910.083 Q129.839 906.518 126.205 906.518 M126.205 902.814 Q132.015 902.814 135.07 907.421 Q138.149 912.004 138.149 920.754 Q138.149 929.481 135.07 934.087 Q132.015 938.671 126.205 938.671 Q120.394 938.671 117.316 934.087 Q114.26 929.481 114.26 920.754 Q114.26 912.004 117.316 907.421 Q120.394 902.814 126.205 902.814 Z" fill="#000000" fill-rule="nonzero" fill-opacity="1" /><path clip-path="url(#clip750)" d="M146.366 932.12 L151.251 932.12 L151.251 937.999 L146.366 937.999 L146.366 932.12 Z" fill="#000000" fill-rule="nonzero" fill-opacity="1" /><path clip-path="url(#clip750)" d="M174.283 907.513 L162.477 925.962 L174.283 925.962 L174.283 907.513 M173.056 903.439 L178.936 903.439 L178.936 925.962 L183.866 925.962 L183.866 929.851 L178.936 929.851 L178.936 937.999 L174.283 937.999 L174.283 929.851 L158.681 929.851 L158.681 925.337 L173.056 903.439 Z" fill="#000000" fill-rule="nonzero" fill-opacity="1" /><path clip-path="url(#clip750)" d="M204.445 907.513 L192.639 925.962 L204.445 925.962 L204.445 907.513 M203.218 903.439 L209.098 903.439 L209.098 925.962 L214.028 925.962 L214.028 929.851 L209.098 929.851 L209.098 937.999 L204.445 937.999 L204.445 929.851 L188.843 929.851 L188.843 925.337 L203.218 903.439 Z" fill="#000000" fill-rule="nonzero" fill-opacity="1" /><path clip-path="url(#clip750)" d="M127.686 699.762 Q124.075 699.762 122.246 703.327 Q120.441 706.868 120.441 713.998 Q120.441 721.104 122.246 724.669 Q124.075 728.211 127.686 728.211 Q131.32 728.211 133.126 724.669 Q134.954 721.104 134.954 713.998 Q134.954 706.868 133.126 703.327 Q131.32 699.762 127.686 699.762 M127.686 696.058 Q133.496 696.058 136.552 700.665 Q139.63 705.248 139.63 713.998 Q139.63 722.725 136.552 727.331 Q133.496 731.914 127.686 731.914 Q121.876 731.914 118.797 727.331 Q115.742 722.725 115.742 713.998 Q115.742 705.248 118.797 700.665 Q121.876 696.058 127.686 696.058 Z" fill="#000000" fill-rule="nonzero" fill-opacity="1" /><path clip-path="url(#clip750)" d="M147.848 725.364 L152.732 725.364 L152.732 731.243 L147.848 731.243 L147.848 725.364 Z" fill="#000000" fill-rule="nonzero" fill-opacity="1" /><path clip-path="url(#clip750)" d="M175.764 700.757 L163.959 719.206 L175.764 719.206 L175.764 700.757 M174.538 696.683 L180.417 696.683 L180.417 719.206 L185.348 719.206 L185.348 723.095 L180.417 723.095 L180.417 731.243 L175.764 731.243 L175.764 723.095 L160.163 723.095 L160.163 718.581 L174.538 696.683 Z" fill="#000000" fill-rule="nonzero" fill-opacity="1" /><path clip-path="url(#clip750)" d="M193.125 696.683 L211.482 696.683 L211.482 700.618 L197.408 700.618 L197.408 709.091 Q198.426 708.743 199.445 708.581 Q200.463 708.396 201.482 708.396 Q207.269 708.396 210.649 711.567 Q214.028 714.739 214.028 720.155 Q214.028 725.734 210.556 728.836 Q207.084 731.914 200.764 731.914 Q198.588 731.914 196.32 731.544 Q194.075 731.174 191.667 730.433 L191.667 725.734 Q193.75 726.868 195.973 727.424 Q198.195 727.979 200.672 727.979 Q204.676 727.979 207.014 725.873 Q209.352 723.766 209.352 720.155 Q209.352 716.544 207.014 714.438 Q204.676 712.331 200.672 712.331 Q198.797 712.331 196.922 712.748 Q195.07 713.165 193.125 714.044 L193.125 696.683 Z" fill="#000000" fill-rule="nonzero" fill-opacity="1" /><path clip-path="url(#clip750)" d="M126.529 493.006 Q122.918 493.006 121.089 496.571 Q119.283 500.112 119.283 507.242 Q119.283 514.348 121.089 517.913 Q122.918 521.455 126.529 521.455 Q130.163 521.455 131.968 517.913 Q133.797 514.348 133.797 507.242 Q133.797 500.112 131.968 496.571 Q130.163 493.006 126.529 493.006 M126.529 489.302 Q132.339 489.302 135.394 493.909 Q138.473 498.492 138.473 507.242 Q138.473 515.969 135.394 520.575 Q132.339 525.158 126.529 525.158 Q120.718 525.158 117.64 520.575 Q114.584 515.969 114.584 507.242 Q114.584 498.492 117.64 493.909 Q120.718 489.302 126.529 489.302 Z" fill="#000000" fill-rule="nonzero" fill-opacity="1" /><path clip-path="url(#clip750)" d="M146.691 518.607 L151.575 518.607 L151.575 524.487 L146.691 524.487 L146.691 518.607 Z" fill="#000000" fill-rule="nonzero" fill-opacity="1" /><path clip-path="url(#clip750)" d="M174.607 494.001 L162.802 512.45 L174.607 512.45 L174.607 494.001 M173.38 489.927 L179.26 489.927 L179.26 512.45 L184.19 512.45 L184.19 516.339 L179.26 516.339 L179.26 524.487 L174.607 524.487 L174.607 516.339 L159.005 516.339 L159.005 511.825 L173.38 489.927 Z" fill="#000000" fill-rule="nonzero" fill-opacity="1" /><path clip-path="url(#clip750)" d="M202.5 505.344 Q199.352 505.344 197.5 507.496 Q195.672 509.649 195.672 513.399 Q195.672 517.126 197.5 519.302 Q199.352 521.455 202.5 521.455 Q205.649 521.455 207.477 519.302 Q209.329 517.126 209.329 513.399 Q209.329 509.649 207.477 507.496 Q205.649 505.344 202.5 505.344 M211.783 490.691 L211.783 494.95 Q210.024 494.117 208.218 493.677 Q206.436 493.237 204.676 493.237 Q200.047 493.237 197.593 496.362 Q195.163 499.487 194.815 505.807 Q196.181 503.793 198.241 502.728 Q200.301 501.64 202.778 501.64 Q207.987 501.64 210.996 504.811 Q214.028 507.959 214.028 513.399 Q214.028 518.723 210.88 521.941 Q207.732 525.158 202.5 525.158 Q196.505 525.158 193.334 520.575 Q190.163 515.969 190.163 507.242 Q190.163 499.047 194.051 494.186 Q197.94 489.302 204.491 489.302 Q206.25 489.302 208.033 489.649 Q209.838 489.997 211.783 490.691 Z" fill="#000000" fill-rule="nonzero" fill-opacity="1" /><path clip-path="url(#clip750)" d="M127.593 286.25 Q123.982 286.25 122.154 289.814 Q120.348 293.356 120.348 300.486 Q120.348 307.592 122.154 311.157 Q123.982 314.699 127.593 314.699 Q131.228 314.699 133.033 311.157 Q134.862 307.592 134.862 300.486 Q134.862 293.356 133.033 289.814 Q131.228 286.25 127.593 286.25 M127.593 282.546 Q133.404 282.546 136.459 287.152 Q139.538 291.736 139.538 300.486 Q139.538 309.212 136.459 313.819 Q133.404 318.402 127.593 318.402 Q121.783 318.402 118.705 313.819 Q115.649 309.212 115.649 300.486 Q115.649 291.736 118.705 287.152 Q121.783 282.546 127.593 282.546 Z" fill="#000000" fill-rule="nonzero" fill-opacity="1" /><path clip-path="url(#clip750)" d="M147.755 311.851 L152.64 311.851 L152.64 317.731 L147.755 317.731 L147.755 311.851 Z" fill="#000000" fill-rule="nonzero" fill-opacity="1" /><path clip-path="url(#clip750)" d="M175.672 287.245 L163.866 305.694 L175.672 305.694 L175.672 287.245 M174.445 283.171 L180.325 283.171 L180.325 305.694 L185.255 305.694 L185.255 309.583 L180.325 309.583 L180.325 317.731 L175.672 317.731 L175.672 309.583 L160.07 309.583 L160.07 305.069 L174.445 283.171 Z" fill="#000000" fill-rule="nonzero" fill-opacity="1" /><path clip-path="url(#clip750)" d="M191.806 283.171 L214.028 283.171 L214.028 285.162 L201.482 317.731 L196.598 317.731 L208.403 287.106 L191.806 287.106 L191.806 283.171 Z" fill="#000000" fill-rule="nonzero" fill-opacity="1" /><path clip-path="url(#clip750)" d="M126.783 79.4935 Q123.172 79.4935 121.343 83.0583 Q119.538 86.6 119.538 93.7296 Q119.538 100.836 121.343 104.401 Q123.172 107.942 126.783 107.942 Q130.417 107.942 132.223 104.401 Q134.052 100.836 134.052 93.7296 Q134.052 86.6 132.223 83.0583 Q130.417 79.4935 126.783 79.4935 M126.783 75.7899 Q132.593 75.7899 135.649 80.3963 Q138.728 84.9796 138.728 93.7296 Q138.728 102.456 135.649 107.063 Q132.593 111.646 126.783 111.646 Q120.973 111.646 117.894 107.063 Q114.839 102.456 114.839 93.7296 Q114.839 84.9796 117.894 80.3963 Q120.973 75.7899 126.783 75.7899 Z" fill="#000000" fill-rule="nonzero" fill-opacity="1" /><path clip-path="url(#clip750)" d="M146.945 105.095 L151.829 105.095 L151.829 110.975 L146.945 110.975 L146.945 105.095 Z" fill="#000000" fill-rule="nonzero" fill-opacity="1" /><path clip-path="url(#clip750)" d="M174.862 80.4889 L163.056 98.9379 L174.862 98.9379 L174.862 80.4889 M173.635 76.4148 L179.514 76.4148 L179.514 98.9379 L184.445 98.9379 L184.445 102.827 L179.514 102.827 L179.514 110.975 L174.862 110.975 L174.862 102.827 L159.26 102.827 L159.26 98.3129 L173.635 76.4148 Z" fill="#000000" fill-rule="nonzero" fill-opacity="1" /><path clip-path="url(#clip750)" d="M202.176 94.5629 Q198.843 94.5629 196.922 96.3453 Q195.024 98.1277 195.024 101.253 Q195.024 104.378 196.922 106.16 Q198.843 107.942 202.176 107.942 Q205.51 107.942 207.431 106.16 Q209.352 104.355 209.352 101.253 Q209.352 98.1277 207.431 96.3453 Q205.533 94.5629 202.176 94.5629 M197.5 92.5722 Q194.491 91.8314 192.801 89.7713 Q191.135 87.7111 191.135 84.7481 Q191.135 80.6046 194.075 78.1972 Q197.037 75.7899 202.176 75.7899 Q207.338 75.7899 210.278 78.1972 Q213.218 80.6046 213.218 84.7481 Q213.218 87.7111 211.528 89.7713 Q209.861 91.8314 206.875 92.5722 Q210.255 93.3592 212.13 95.6509 Q214.028 97.9425 214.028 101.253 Q214.028 106.276 210.949 108.961 Q207.894 111.646 202.176 111.646 Q196.459 111.646 193.38 108.961 Q190.325 106.276 190.325 101.253 Q190.325 97.9425 192.223 95.6509 Q194.121 93.3592 197.5 92.5722 M195.787 85.188 Q195.787 87.8731 197.454 89.3777 Q199.144 90.8824 202.176 90.8824 Q205.186 90.8824 206.875 89.3777 Q208.588 87.8731 208.588 85.188 Q208.588 82.5028 206.875 80.9982 Q205.186 79.4935 202.176 79.4935 Q199.144 79.4935 197.454 80.9982 Q195.787 82.5028 195.787 85.188 Z" fill="#000000" fill-rule="nonzero" fill-opacity="1" /><path clip-path="url(#clip750)" d="M33.958 742.548 L55.9834 734.75 L28.3562 723.61 L28.3562 717.404 L64.0042 731.822 L77.5631 731.822 L77.5631 737.679 L64.0042 737.679 L37.3955 747.036 Q33.3851 748.437 33.3851 751.46 L33.3851 753.02 L28.3562 753.02 L28.3562 750.792 Q28.3562 744.522 33.958 742.548 Z" fill="#000000" fill-rule="nonzero" fill-opacity="1" /><circle clip-path="url(#clip751)" cx="1282.03" cy="768.713" r="7.2" fill="#009af9" fill-rule="evenodd" fill-opacity="1" stroke="#000000" stroke-opacity="1" stroke-width="3.2"/>
<polyline clip-path="url(#clip751)" style="stroke:#e26f46; stroke-linecap:round; stroke-linejoin:round; stroke-width:4; stroke-opacity:1; fill:none" points="1845.74,768.713 1846.65,767.176 1847.54,765.64 1848.43,764.103 1849.3,762.567 1850.17,761.03 1851.03,759.494 1851.88,757.957 1852.72,756.421 1853.56,754.884 1854.38,753.348 1855.2,751.811 1856.01,750.275 1856.81,748.738 1857.6,747.202 1858.39,745.665 1859.16,744.129 1859.93,742.592 1860.69,741.056 1861.44,739.519 1862.18,737.983 1862.91,736.446 1863.64,734.91 1864.35,733.374 1865.06,731.837 1865.76,730.301 1866.45,728.764 1867.13,727.228 1867.81,725.691 1868.47,724.155 1869.13,722.618 1869.78,721.082 1870.42,719.545 1871.05,718.009 1871.67,716.472 1872.29,714.936 1872.89,713.399 1873.49,711.863 1874.08,710.326 1874.66,708.79 1875.23,707.253 1875.8,705.717 1876.35,704.18 1876.9,702.644 1877.44,701.107 1877.97,699.571 1878.49,698.034 1879,696.498 1879.5,694.962 1880,693.425 1880.48,691.889 1880.96,690.352 1881.43,688.816 1881.89,687.279 1882.34,685.743 1882.78,684.206 1883.21,682.67 1883.64,681.133 1884.05,679.597 1884.46,678.06 1884.86,676.524 1885.25,674.987 1885.63,673.451 1886,671.914 1886.36,670.378 1886.72,668.841 1887.06,667.305 1887.4,665.768 1887.73,664.232 1888.04,662.695 1888.35,661.159 1888.65,659.622 1888.94,658.086 1889.22,656.549 1889.5,655.013 1889.76,653.477 1890.01,651.94 1890.26,650.404 1890.49,648.867 1890.72,647.331 1890.94,645.794 1891.15,644.258 1891.34,642.721 1891.53,641.185 1891.71,639.648 1891.88,638.112 1892.04,636.575 1892.19,635.039 1892.34,633.502 1892.47,631.966 1892.59,630.429 1892.7,628.893 1892.81,627.356 1892.9,625.82 1892.98,624.283 1893.05,622.747 1893.12,621.21 1893.17,619.674 1893.22,618.137 1893.25,616.601 1893.27,615.065 1893.29,613.528 1893.29,611.992 1893.28,610.455 1893.26,608.919 1893.24,607.382 1893.2,605.846 1893.15,604.309 1893.09,602.773 1893.02,601.236 1892.94,599.7 1892.85,598.163 1892.75,596.627 1892.64,595.09 1892.52,593.554 1892.38,592.017 1892.24,590.481 1892.08,588.944 1891.92,587.408 1891.74,585.871 1891.55,584.335 1891.35,582.798 1891.14,581.262 1890.92,579.725 1890.68,578.189 1890.44,576.652 1890.18,575.116 1889.91,573.58 1889.63,572.043 1889.34,570.507 1889.03,568.97 1888.72,567.434 1888.39,565.897 1888.05,564.361 1887.7,562.824 1887.33,561.288 1886.95,559.751 1886.56,558.215 1886.16,556.678 1885.75,555.142 1885.32,553.605 1884.88,552.069 1884.42,550.532 1883.96,548.996 1883.48,547.459 1882.98,545.923 1882.48,544.386 1881.96,542.85 1881.42,541.313 1880.88,539.777 1880.31,538.24 1879.74,536.704 1879.15,535.168 1878.54,533.631 1877.92,532.095 1877.29,530.558 1876.64,529.022 1875.98,527.485 1875.3,525.949 1874.61,524.412 1873.9,522.876 1873.17,521.339 1872.43,519.803 1871.68,518.266 1870.9,516.73 1870.11,515.193 1869.31,513.657 1868.49,512.12 1867.65,510.584 1866.79,509.047 1865.92,507.511 1865.03,505.974 1864.13,504.438 1863.2,502.901 1862.25,501.365 1861.29,499.828 1860.31,498.292 1859.31,496.756 1858.29,495.219 1857.25,493.683 1856.19,492.146 1855.11,490.61 1854.02,489.073 1852.9,487.537 1851.76,486 1850.6,484.464 1849.42,482.927 1848.22,481.391 1847,479.854 1845.76,478.318 1844.49,476.781 1843.2,475.245 1841.89,473.708 1840.56,472.172 1839.2,470.635 1837.82,469.099 1836.41,467.562 1834.98,466.026 1833.52,464.489 1832.03,462.953 1830.52,461.416 1828.98,459.88 1827.41,458.344 1825.81,456.807 1824.18,455.271 1822.52,453.734 1820.84,452.198 1819.11,450.661 1817.36,449.125 1815.58,447.588 1813.75,446.052 1811.9,444.515 1810.01,442.979 1808.08,441.442 1806.12,439.906 1804.11,438.369 1802.07,436.833 1799.99,435.296 1797.86,433.76 1795.7,432.223 1793.49,430.687 1791.24,429.15 1788.94,427.614 1786.6,426.077 1784.2,424.541 1781.76,423.005 1779.26,421.468 1776.71,419.932 1774.1,418.395 1771.44,416.859 1768.72,415.322 1765.93,413.786 1763.08,412.249 1760.16,410.713 1757.17,409.176 1754.1,407.64 1750.96,406.103 1747.73,404.567 1744.41,403.03 1741.01,401.494 1737.51,399.957 1733.91,398.421 1730.2,396.884 1726.38,395.348 1722.44,393.811 1718.38,392.275 1714.17,390.739 1709.82,389.202 1705.31,387.666 1700.62,386.129 1695.75,384.593 1690.66,383.056 1685.35,381.52 1679.77,379.983 1673.9,378.447 1667.73,376.91 1661.21,375.374 1654.29,373.837 1646.86,372.301 1638.8,370.765 1629.94,369.228 1620.1,367.692 1608.97,366.155 1595.89,364.619 1579.42,363.083 1554.55,361.547 1486.72,361.742 1461.85,363.278 1444.18,364.814 1429.62,366.35 1416.91,367.887 1405.46,369.423 1394.96,370.959 1385.19,372.496 1376.01,374.032 1367.32,375.569 1359.05,377.105 1351.15,378.642 1343.56,380.178 1336.25,381.715 1329.19,383.251 1322.35,384.787 1315.72,386.324 1309.28,387.86 1303,389.397 1296.89,390.933 1290.92,392.47 1285.09,394.006 1279.39,395.543 1273.8,397.079 1268.33,398.616 1262.96,400.152 1257.7,401.688 1252.53,403.225 1247.44,404.761 1242.45,406.298 1237.53,407.834 1232.69,409.371 1227.93,410.907 1223.23,412.444 1218.61,413.98 1214.05,415.517 1209.55,417.053 1205.11,418.59 1200.73,420.126 1196.41,421.663 1192.14,423.199 1187.92,424.735 1183.76,426.272 1179.64,427.808 1175.57,429.345 1171.54,430.881 1167.56,432.418 1163.63,433.954 1159.73,435.491 1155.88,437.027 1152.06,438.564 1148.29,440.1 1144.55,441.637 1140.85,443.173 1137.18,444.71 1133.55,446.246 1129.96,447.783 1126.39,449.319 1122.86,450.856 1119.36,452.392 1115.9,453.928 1112.46,455.465 1109.05,457.001 1105.67,458.538 1102.32,460.074 1099,461.611 1095.71,463.147 1092.44,464.684 1089.2,466.22 1085.99,467.757 1082.8,469.293 1079.63,470.83 1076.49,472.366 1073.38,473.903 1070.29,475.439 1067.22,476.976 1064.17,478.512 1061.15,480.049 1058.15,481.585 1055.17,483.121 1052.22,484.658 1049.28,486.194 1046.37,487.731 1043.47,489.267 1040.6,490.804 1037.74,492.34 1034.91,493.877 1032.1,495.413 1029.3,496.95 1026.52,498.486 1023.77,500.023 1021.03,501.559 1018.31,503.096 1015.6,504.632 1012.92,506.169 1010.25,507.705 1007.6,509.242 1004.97,510.778 1002.35,512.315 999.75,513.851 997.167,515.387 994.6,516.924 992.049,518.46 989.515,519.997 986.996,521.533 984.493,523.07 982.005,524.606 979.533,526.143 977.076,527.679 974.633,529.216 972.206,530.752 969.794,532.289 967.396,533.825 965.012,535.362 962.643,536.898 960.288,538.435 957.947,539.971 955.62,541.508 953.306,543.044 951.007,544.581 948.72,546.117 946.448,547.653 944.188,549.19 941.942,550.726 939.709,552.263 937.489,553.799 935.282,555.336 933.088,556.872 930.907,558.409 928.738,559.945 926.581,561.482 924.437,563.018 922.305,564.555 920.186,566.091 918.078,567.628 915.983,569.164 913.899,570.701 911.828,572.237 909.768,573.774 907.72,575.31 905.684,576.847 903.659,578.383 901.646,579.92 899.644,581.456 897.653,582.992 895.674,584.529 893.706,586.065 891.749,587.602 889.804,589.138 887.869,590.675 885.945,592.211 884.032,593.748 882.13,595.284 880.239,596.821 878.358,598.357 876.488,599.894 874.629,601.43 872.78,602.967 870.942,604.503 869.114,606.04 867.296,607.576 865.489,609.113 863.692,610.649 861.906,612.186 860.129,613.722 858.363,615.259 856.607,616.795 854.86,618.331 853.124,619.868 851.398,621.404 849.682,622.941 847.975,624.477 846.279,626.014 844.592,627.55 842.915,629.087 841.247,630.623 839.589,632.16 837.941,633.696 836.303,635.233 834.674,636.769 833.054,638.306 831.444,639.842 829.844,641.379 828.253,642.915 826.671,644.452 825.099,645.988 823.536,647.525 821.982,649.061 820.438,650.598 818.903,652.134 817.377,653.671 815.86,655.207 814.352,656.743 812.854,658.28 811.364,659.816 809.884,661.353 808.413,662.889 806.95,664.426 805.497,665.962 804.053,667.499 802.618,669.035 801.191,670.572 799.774,672.108 798.365,673.645 796.966,675.181 795.575,676.718 794.193,678.254 792.82,679.791 791.455,681.327 790.1,682.864 788.753,684.4 787.415,685.937 786.086,687.473 784.765,689.01 783.453,690.546 782.15,692.083 780.855,693.619 779.569,695.155 778.292,696.692 777.023,698.228 775.763,699.765 774.512,701.301 773.269,702.838 772.034,704.374 770.809,705.911 769.591,707.447 768.383,708.984 767.182,710.52 765.991,712.057 764.808,713.593 763.633,715.13 762.467,716.666 761.309,718.203 760.16,719.739 759.019,721.276 757.887,722.812 756.764,724.349 755.648,725.885 754.541,727.422 753.443,728.958 752.353,730.495 751.272,732.031 750.198,733.567 749.134,735.104 748.078,736.64 747.03,738.177 745.99,739.713 744.959,741.25 743.937,742.786 742.923,744.323 741.917,745.859 740.92,747.396 739.931,748.932 738.95,750.469 737.978,752.005 737.015,753.542 736.059,755.078 735.112,756.615 734.174,758.151 733.244,759.688 732.323,761.224 731.409,762.761 730.505,764.297 729.609,765.834 728.721,767.37 727.841,768.907 726.971,770.443 726.108,771.979 725.254,773.516 724.409,775.052 723.572,776.589 722.743,778.125 721.923,779.662 721.112,781.198 720.309,782.735 719.514,784.271 718.728,785.808 717.951,787.344 717.182,788.881 716.422,790.417 715.67,791.954 714.927,793.49 714.192,795.027 713.466,796.563 712.749,798.1 712.04,799.636 711.34,801.173 710.649,802.709 709.966,804.246 709.292,805.782 708.627,807.319 707.97,808.855 707.322,810.391 706.683,811.928 706.053,813.464 705.432,815.001 704.819,816.537 704.215,818.074 703.62,819.61 703.034,821.147 702.457,822.683 701.888,824.22 701.329,825.756 700.779,827.293 700.237,828.829 699.705,830.366 699.182,831.902 698.668,833.439 698.162,834.975 697.666,836.512 697.179,838.048 696.701,839.585 696.233,841.121 695.773,842.658 695.322,844.194 694.881,845.731 694.449,847.267 694.027,848.804 693.613,850.34 693.209,851.876 692.814,853.413 692.429,854.949 692.053,856.486 691.687,858.022 691.33,859.559 690.982,861.095 690.644,862.632 690.316,864.168 689.997,865.705 689.688,867.241 689.388,868.778 689.099,870.314 688.819,871.851 688.549,873.387 688.289,874.924 688.038,876.46 687.798,877.997 687.568,879.533 687.347,881.07 687.137,882.606 686.937,884.143 686.747,885.679 686.567,887.216 686.398,888.752 686.238,890.288 686.09,891.825 685.951,893.361 685.823,894.898 685.706,896.434 685.599,897.971 685.503,899.507 685.417,901.044 685.343,902.58 685.279,904.117 685.226,905.653 685.184,907.19 685.152,908.726 685.132,910.263 685.123,911.799 685.126,913.336 685.139,914.872 685.164,916.409 685.2,917.945 685.247,919.482 685.306,921.018 685.377,922.555 685.459,924.091 685.553,925.628 685.659,927.164 685.777,928.701 685.906,930.237 686.048,931.773 686.201,933.31 686.367,934.846 686.545,936.383 686.735,937.919 686.938,939.456 687.153,940.992 687.381,942.529 687.621,944.065 687.874,945.602 688.139,947.138 688.418,948.675 688.71,950.211 689.016,951.748 689.335,953.284 689.668,954.821 690.014,956.357 690.374,957.894 690.748,959.43 691.135,960.967 691.537,962.503 691.952,964.04 692.382,965.576 692.825,967.113 693.283,968.649 693.755,970.185 694.242,971.722 694.743,973.258 695.259,974.795 695.79,976.331 696.336,977.868 696.897,979.404 697.473,980.941 698.065,982.477 698.672,984.014 699.295,985.55 699.934,987.087 700.589,988.623 701.261,990.16 701.949,991.696 702.654,993.233 703.375,994.769 704.114,996.306 704.87,997.842 705.644,999.379 706.435,1000.92 707.244,1002.45 708.072,1003.99 708.918,1005.52 709.783,1007.06 710.667,1008.6 711.57,1010.13 712.493,1011.67 713.436,1013.21 714.398,1014.74 715.382,1016.28 716.385,1017.82 717.41,1019.35 718.456,1020.89 719.524,1022.43 720.613,1023.96 721.725,1025.5 722.86,1027.04 724.017,1028.57 725.198,1030.11 726.402,1031.64 727.63,1033.18 728.883,1034.72 730.16,1036.25 731.462,1037.79 732.79,1039.33 734.143,1040.86 735.523,1042.4 736.929,1043.94 738.363,1045.47 739.824,1047.01 741.312,1048.55 742.829,1050.08 744.375,1051.62 745.95,1053.16 747.557,1054.69 749.196,1056.23 750.866,1057.76 752.57,1059.3 754.306,1060.84 756.076,1062.37 757.88,1063.91 759.718,1065.45 761.593,1066.98 763.503,1068.52 765.45,1070.06 767.436,1071.59 769.461,1073.13 771.526,1074.67 773.633,1076.2 775.783,1077.74 777.977,1079.28 780.217,1080.81 782.503,1082.35 784.839,1083.88 787.225,1085.42 789.664,1086.96 792.156,1088.49 794.704,1090.03 797.311,1091.57 799.977,1093.1 802.706,1094.64 805.498,1096.18 808.358,1097.71 811.287,1099.25 814.287,1100.79 817.361,1102.32 820.512,1103.86 823.742,1105.4 827.056,1106.93 830.459,1108.47 833.955,1110.01 837.551,1111.54 841.25,1113.08 845.06,1114.61 848.986,1116.15 853.042,1117.69 857.236,1119.22 861.57,1120.76 866.049,1122.3 870.684,1123.83 875.486,1125.37 880.475,1126.91 885.67,1128.44 891.098,1129.98 896.787,1131.52 902.769,1133.05 909.081,1134.59 915.765,1136.12 922.863,1137.66 930.437,1139.2 938.59,1140.73 947.456,1142.27 957.223,1143.81 968.174,1145.34 980.826,1146.88 996.088,1148.42 1016.43,1149.95 1077.03,1151.29 1117.37,1149.76 1138.65,1148.22 1155.28,1146.68 1169.45,1145.15 1182.02,1143.61 1193.44,1142.08 1204,1140.54 1213.87,1139 1223.16,1137.47 1231.98,1135.93 1240.38,1134.39 1248.43,1132.86 1256.17,1131.32 1263.62,1129.78 1270.83,1128.25 1277.81,1126.71 1284.58,1125.18 1291.16,1123.64 1297.56,1122.1 1303.81,1120.57 1309.9,1119.03 1315.86,1117.49 1321.68,1115.96 1327.38,1114.42 1332.97,1112.88 1338.44,1111.35 1343.81,1109.81 1349.09,1108.27 1354.27,1106.74 1359.36,1105.2 1364.37,1103.66 1369.3,1102.13 1374.15,1100.59 1378.92,1099.06 1383.63,1097.52 1388.26,1095.98 1392.83,1094.45 1397.34,1092.91 1401.79,1091.37 1406.18,1089.84 1410.51,1088.3 1414.79,1086.76 1419.01,1085.23 1423.18,1083.69 1427.3,1082.15 1431.38,1080.62 1435.4,1079.08 1439.39,1077.54 1443.32,1076.01 1447.22,1074.47 1451.07,1072.94 1454.88,1071.4 1458.65,1069.86 1462.38,1068.33 1466.08,1066.79 1469.73,1065.25 1473.36,1063.72 1476.94,1062.18 1480.49,1060.64 1484.01,1059.11 1487.49,1057.57 1490.95,1056.03 1494.37,1054.5 1497.76,1052.96 1501.12,1051.42 1504.44,1049.89 1507.74,1048.35 1511.02,1046.82 1514.26,1045.28 1517.47,1043.74 1520.66,1042.21 1523.82,1040.67 1526.96,1039.13 1530.07,1037.6 1533.15,1036.06 1536.21,1034.52 1539.25,1032.99 1542.26,1031.45 1545.25,1029.91 1548.21,1028.38 1551.15,1026.84 1554.07,1025.3 1556.97,1023.77 1559.84,1022.23 1562.7,1020.7 1565.53,1019.16 1568.34,1017.62 1571.13,1016.09 1573.9,1014.55 1576.64,1013.01 1579.37,1011.48 1582.08,1009.94 1584.77,1008.4 1587.44,1006.87 1590.09,1005.33 1592.73,1003.79 1595.34,1002.26 1597.94,1000.72 1600.52,999.184 1603.08,997.648 1605.62,996.111 1608.14,994.575 1610.65,993.039 1613.14,991.502 1615.62,989.966 1618.07,988.429 1620.52,986.893 1622.94,985.356 1625.35,983.82 1627.74,982.283 1630.12,980.747 1632.48,979.21 1634.82,977.674 1637.15,976.137 1639.47,974.601 1641.77,973.064 1644.05,971.528 1646.32,969.991 1648.58,968.455 1650.82,966.918 1653.05,965.382 1655.26,963.845 1657.46,962.309 1659.64,960.773 1661.81,959.236 1663.96,957.7 1666.11,956.163 1668.24,954.627 1670.35,953.09 1672.45,951.554 1674.54,950.017 1676.62,948.481 1678.68,946.944 1680.73,945.408 1682.77,943.871 1684.79,942.335 1686.8,940.798 1688.8,939.262 1690.78,937.725 1692.76,936.189 1694.72,934.652 1696.67,933.116 1698.61,931.579 1700.53,930.043 1702.44,928.506 1704.34,926.97 1706.23,925.434 1708.11,923.897 1709.98,922.361 1711.83,920.824 1713.67,919.288 1715.5,917.751 1717.32,916.215 1719.13,914.678 1720.93,913.142 1722.71,911.605 1724.49,910.069 1726.25,908.532 1728,906.996 1729.74,905.459 1731.47,903.923 1733.19,902.386 1734.9,900.85 1736.6,899.313 1738.29,897.777 1739.96,896.24 1741.63,894.704 1743.28,893.167 1744.93,891.631 1746.56,890.094 1748.19,888.558 1749.8,887.022 1751.41,885.485 1753,883.949 1754.58,882.412 1756.16,880.876 1757.72,879.339 1759.27,877.803 1760.81,876.266 1762.35,874.73 1763.87,873.193 1765.38,871.657 1766.89,870.12 1768.38,868.584 1769.86,867.047 1771.34,865.511 1772.8,863.974 1774.25,862.438 1775.7,860.901 1777.13,859.365 1778.56,857.828 1779.98,856.292 1781.38,854.755 1782.78,853.219 1784.17,851.683 1785.55,850.146 1786.91,848.61 1788.27,847.073 1789.62,845.537 1790.97,844 1792.3,842.464 1793.62,840.927 1794.93,839.391 1796.24,837.854 1797.53,836.318 1798.82,834.781 1800.09,833.245 1801.36,831.708 1802.62,830.172 1803.87,828.635 1805.11,827.099 1806.34,825.562 1807.56,824.026 1808.78,822.489 1809.98,820.953 1811.18,819.416 1812.37,817.88 1813.54,816.343 1814.71,814.807 1815.87,813.271 1817.02,811.734 1818.17,810.198 1819.3,808.661 1820.43,807.125 1821.54,805.588 1822.65,804.052 1823.75,802.515 1824.84,800.979 1825.92,799.442 1827,797.906 1828.06,796.369 1829.12,794.833 1830.16,793.296 1831.2,791.76 1832.23,790.223 1833.25,788.687 1834.27,787.15 1835.27,785.614 1836.26,784.077 1837.25,782.541 1838.23,781.004 1839.2,779.468 1840.16,777.931 1841.11,776.395 1842.06,774.859 1842.99,773.322 1843.92,771.786 1844.84,770.249 1845.75,768.713 "/>
<polyline clip-path="url(#clip751)" style="stroke:#3da44d; stroke-linecap:round; stroke-linejoin:round; stroke-width:4; stroke-opacity:1; fill:none" points="2212.53,768.713 2213.99,766.259 2215.43,763.805 2216.86,761.351 2218.28,758.897 2219.68,756.444 2221.07,753.99 2222.45,751.536 2223.81,749.082 2225.16,746.628 2226.5,744.175 2227.83,741.721 2229.14,739.267 2230.44,736.813 2231.72,734.359 2233,731.906 2234.26,729.452 2235.5,726.998 2236.74,724.544 2237.96,722.09 2239.17,719.637 2240.36,717.183 2241.54,714.729 2242.71,712.275 2243.87,709.821 2245.01,707.368 2246.14,704.914 2247.26,702.46 2248.36,700.006 2249.45,697.552 2250.53,695.099 2251.59,692.645 2252.64,690.191 2253.68,687.737 2254.71,685.283 2255.72,682.83 2256.72,680.376 2257.7,677.922 2258.68,675.468 2259.64,673.014 2260.58,670.561 2261.52,668.107 2262.44,665.653 2263.35,663.199 2264.24,660.745 2265.12,658.292 2265.99,655.838 2266.85,653.384 2267.69,650.93 2268.52,648.476 2269.33,646.023 2270.14,643.569 2270.92,641.115 2271.7,638.661 2272.46,636.207 2273.21,633.754 2273.95,631.3 2274.67,628.846 2275.38,626.392 2276.08,623.938 2276.76,621.485 2277.43,619.031 2278.09,616.577 2278.73,614.123 2279.36,611.669 2279.97,609.216 2280.58,606.762 2281.17,604.308 2281.74,601.854 2282.3,599.4 2282.85,596.947 2283.39,594.493 2283.91,592.039 2284.41,589.585 2284.91,587.131 2285.39,584.678 2285.85,582.224 2286.3,579.77 2286.74,577.316 2287.17,574.862 2287.58,572.409 2287.97,569.955 2288.36,567.501 2288.73,565.047 2289.08,562.593 2289.42,560.14 2289.75,557.686 2290.06,555.232 2290.36,552.778 2290.64,550.324 2290.91,547.871 2291.16,545.417 2291.4,542.963 2291.63,540.509 2291.84,538.055 2292.04,535.602 2292.22,533.148 2292.39,530.694 2292.54,528.24 2292.68,525.786 2292.8,523.333 2292.91,520.879 2293,518.425 2293.08,515.971 2293.14,513.517 2293.19,511.064 2293.22,508.61 2293.24,506.156 2293.24,503.702 2293.23,501.248 2293.2,498.795 2293.16,496.341 2293.1,493.887 2293.03,491.433 2292.93,488.979 2292.83,486.526 2292.71,484.072 2292.57,481.618 2292.41,479.164 2292.24,476.71 2292.06,474.257 2291.85,471.803 2291.63,469.349 2291.4,466.895 2291.15,464.441 2290.88,461.988 2290.59,459.534 2290.29,457.08 2289.97,454.626 2289.64,452.172 2289.29,449.719 2288.92,447.265 2288.53,444.811 2288.12,442.357 2287.7,439.903 2287.26,437.45 2286.8,434.996 2286.33,432.542 2285.84,430.088 2285.33,427.634 2284.8,425.181 2284.25,422.727 2283.68,420.273 2283.1,417.819 2282.49,415.365 2281.87,412.912 2281.23,410.458 2280.57,408.004 2279.89,405.55 2279.19,403.096 2278.47,400.643 2277.74,398.189 2276.98,395.735 2276.2,393.281 2275.4,390.827 2274.59,388.373 2273.75,385.92 2272.89,383.466 2272.01,381.012 2271.11,378.558 2270.18,376.104 2269.24,373.651 2268.27,371.197 2267.28,368.743 2266.27,366.289 2265.24,363.835 2264.19,361.382 2263.11,358.928 2262.01,356.474 2260.89,354.02 2259.75,351.566 2258.58,349.113 2257.38,346.659 2256.17,344.205 2254.93,341.751 2253.66,339.297 2252.38,336.844 2251.06,334.39 2249.72,331.936 2248.36,329.482 2246.97,327.028 2245.55,324.575 2244.11,322.121 2242.64,319.667 2241.15,317.213 2239.62,314.759 2238.07,312.306 2236.49,309.852 2234.88,307.398 2233.25,304.944 2231.58,302.49 2229.88,300.037 2228.16,297.583 2226.4,295.129 2224.61,292.675 2222.79,290.221 2220.94,287.768 2219.05,285.314 2217.14,282.86 2215.19,280.406 2213.2,277.952 2211.18,275.499 2209.13,273.045 2207.04,270.591 2204.91,268.137 2202.75,265.684 2200.54,263.23 2198.31,260.776 2196.03,258.322 2193.71,255.868 2191.36,253.415 2188.96,250.961 2186.52,248.507 2184.04,246.053 2181.51,243.599 2178.94,241.146 2176.32,238.692 2173.66,236.238 2170.95,233.784 2168.19,231.33 2165.38,228.877 2162.53,226.423 2159.63,223.969 2156.67,221.515 2153.66,219.061 2150.6,216.608 2147.49,214.154 2144.32,211.7 2141.09,209.246 2137.8,206.792 2134.44,204.339 2131.03,201.885 2127.54,199.431 2123.99,196.977 2120.37,194.523 2116.67,192.07 2112.9,189.616 2109.05,187.162 2105.12,184.708 2101.1,182.254 2097,179.801 2092.81,177.347 2088.52,174.893 2084.14,172.439 2079.66,169.985 2075.07,167.532 2070.37,165.078 2065.57,162.624 2060.64,160.17 2055.6,157.716 2050.44,155.263 2045.14,152.809 2039.69,150.355 2034.1,147.901 2028.35,145.448 2022.43,142.994 2016.34,140.54 2010.04,138.086 2003.54,135.632 1996.82,133.179 1989.89,130.725 1982.71,128.271 1975.27,125.817 1967.55,123.363 1959.49,120.91 1951.07,118.456 1942.25,116.002 1932.96,113.548 1923.17,111.095 1912.8,108.641 1901.77,106.187 1889.97,103.733 1877.25,101.28 1863.37,98.8259 1847.97,96.3722 1830.57,93.9185 1810.2,91.4649 1785.07,89.0113 1748.48,86.5581 1640.99,86.1857 1598.1,88.6387 1568.94,91.0922 1545.19,93.5458 1524.58,95.9994 1506.08,98.4531 1489.13,100.907 1473.39,103.36 1458.62,105.814 1444.65,108.268 1431.36,110.722 1418.65,113.175 1406.46,115.629 1394.71,118.083 1383.37,120.537 1372.4,122.99 1361.75,125.444 1351.4,127.898 1341.33,130.352 1331.51,132.805 1321.93,135.259 1312.56,137.713 1303.4,140.167 1294.43,142.62 1285.64,145.074 1277.02,147.528 1268.56,149.982 1260.25,152.436 1252.08,154.889 1244.04,157.343 1236.14,159.797 1228.36,162.251 1220.7,164.704 1213.15,167.158 1205.71,169.612 1198.37,172.066 1191.13,174.52 1183.99,176.973 1176.94,179.427 1169.98,181.881 1163.1,184.335 1156.31,186.788 1149.6,189.242 1142.96,191.696 1136.4,194.15 1129.92,196.604 1123.5,199.057 1117.15,201.511 1110.87,203.965 1104.65,206.419 1098.5,208.873 1092.41,211.326 1086.37,213.78 1080.4,216.234 1074.48,218.688 1068.62,221.141 1062.81,223.595 1057.05,226.049 1051.34,228.503 1045.69,230.957 1040.08,233.41 1034.53,235.864 1029.02,238.318 1023.55,240.772 1018.13,243.226 1012.76,245.679 1007.43,248.133 1002.14,250.587 996.889,253.041 991.683,255.494 986.517,257.948 981.39,260.402 976.301,262.856 971.251,265.31 966.239,267.763 961.263,270.217 956.323,272.671 951.419,275.125 946.55,277.579 941.716,280.032 936.915,282.486 932.148,284.94 927.413,287.394 922.711,289.848 918.041,292.301 913.403,294.755 908.795,297.209 904.218,299.663 899.671,302.117 895.154,304.57 890.666,307.024 886.208,309.478 881.777,311.932 877.376,314.386 873.001,316.839 868.655,319.293 864.336,321.747 860.043,324.201 855.778,326.654 851.538,329.108 847.324,331.562 843.136,334.016 838.974,336.47 834.836,338.923 830.724,341.377 826.635,343.831 822.571,346.285 818.531,348.739 814.515,351.192 810.522,353.646 806.553,356.1 802.607,358.554 798.683,361.008 794.782,363.461 790.904,365.915 787.048,368.369 783.213,370.823 779.401,373.277 775.61,375.73 771.84,378.184 768.092,380.638 764.365,383.092 760.658,385.546 756.972,387.999 753.307,390.453 749.662,392.907 746.037,395.361 742.432,397.815 738.848,400.268 735.282,402.722 731.737,405.176 728.21,407.63 724.703,410.083 721.215,412.537 717.746,414.991 714.296,417.445 710.865,419.899 707.452,422.352 704.057,424.806 700.681,427.26 697.323,429.714 693.983,432.168 690.661,434.621 687.357,437.075 684.07,439.529 680.801,441.983 677.55,444.437 674.316,446.89 671.099,449.344 667.9,451.798 664.717,454.252 661.552,456.706 658.403,459.159 655.271,461.613 652.156,464.067 649.058,466.521 645.976,468.975 642.91,471.428 639.861,473.882 636.828,476.336 633.812,478.79 630.811,481.244 627.826,483.697 624.858,486.151 621.905,488.605 618.968,491.059 616.047,493.513 613.141,495.966 610.251,498.42 607.376,500.874 604.517,503.328 601.673,505.782 598.845,508.235 596.031,510.689 593.233,513.143 590.45,515.597 587.682,518.051 584.929,520.504 582.191,522.958 579.468,525.412 576.759,527.866 574.066,530.32 571.387,532.773 568.722,535.227 566.073,537.681 563.438,540.135 560.817,542.589 558.211,545.042 555.619,547.496 553.042,549.95 550.478,552.404 547.93,554.858 545.395,557.311 542.875,559.765 540.368,562.219 537.876,564.673 535.398,567.127 532.934,569.58 530.484,572.034 528.048,574.488 525.625,576.942 523.217,579.396 520.822,581.849 518.442,584.303 516.075,586.757 513.721,589.211 511.382,591.665 509.056,594.118 506.744,596.572 504.445,599.026 502.16,601.48 499.889,603.933 497.631,606.387 495.386,608.841 493.155,611.295 490.938,613.749 488.734,616.202 486.543,618.656 484.366,621.11 482.202,623.564 480.051,626.018 477.914,628.471 475.79,630.925 473.679,633.379 471.581,635.833 469.497,638.287 467.426,640.74 465.368,643.194 463.324,645.648 461.292,648.102 459.274,650.556 457.269,653.009 455.277,655.463 453.298,657.917 451.332,660.371 449.379,662.825 447.44,665.278 445.513,667.732 443.6,670.186 441.699,672.64 439.812,675.094 437.937,677.547 436.076,680.001 434.228,682.455 432.393,684.909 430.57,687.363 428.761,689.816 426.965,692.27 425.181,694.724 423.411,697.178 421.654,699.632 419.909,702.085 418.178,704.539 416.46,706.993 414.754,709.447 413.062,711.901 411.382,714.354 409.716,716.808 408.062,719.262 406.422,721.716 404.794,724.17 403.18,726.623 401.578,729.077 399.989,731.531 398.414,733.985 396.851,736.439 395.302,738.892 393.765,741.346 392.242,743.8 390.731,746.254 389.234,748.708 387.749,751.161 386.278,753.615 384.82,756.069 383.375,758.523 381.943,760.977 380.524,763.43 379.118,765.884 377.725,768.338 376.345,770.792 374.979,773.246 373.626,775.699 372.286,778.153 370.959,780.607 369.645,783.061 368.345,785.515 367.057,787.968 365.783,790.422 364.523,792.876 363.275,795.33 362.042,797.784 360.821,800.237 359.614,802.691 358.42,805.145 357.24,807.599 356.073,810.053 354.919,812.506 353.779,814.96 352.653,817.414 351.54,819.868 350.44,822.322 349.354,824.775 348.282,827.229 347.224,829.683 346.179,832.137 345.147,834.591 344.13,837.044 343.126,839.498 342.136,841.952 341.16,844.406 340.197,846.86 339.249,849.313 338.314,851.767 337.394,854.221 336.487,856.675 335.594,859.129 334.716,861.582 333.851,864.036 333.001,866.49 332.165,868.944 331.343,871.398 330.535,873.851 329.742,876.305 328.963,878.759 328.198,881.213 327.448,883.667 326.712,886.12 325.991,888.574 325.284,891.028 324.593,893.482 323.915,895.936 323.253,898.389 322.605,900.843 321.972,903.297 321.354,905.751 320.751,908.205 320.163,910.658 319.59,913.112 319.032,915.566 318.489,918.02 317.962,920.474 317.45,922.927 316.953,925.381 316.472,927.835 316.006,930.289 315.555,932.743 315.121,935.196 314.702,937.65 314.298,940.104 313.911,942.558 313.539,945.012 313.183,947.465 312.844,949.919 312.52,952.373 312.212,954.827 311.921,957.281 311.646,959.734 311.388,962.188 311.145,964.642 310.92,967.096 310.711,969.55 310.519,972.004 310.343,974.457 310.185,976.911 310.044,979.365 309.92,981.819 309.813,984.273 309.724,986.726 309.652,989.18 309.597,991.634 309.56,994.088 309.541,996.542 309.539,998.995 309.555,1001.45 309.589,1003.9 309.641,1006.36 309.711,1008.81 309.799,1011.26 309.906,1013.72 310.031,1016.17 310.174,1018.63 310.336,1021.08 310.517,1023.53 310.717,1025.99 310.936,1028.44 311.173,1030.89 311.43,1033.35 311.707,1035.8 312.003,1038.26 312.319,1040.71 312.654,1043.16 313.01,1045.62 313.386,1048.07 313.782,1050.53 314.198,1052.98 314.636,1055.43 315.094,1057.89 315.573,1060.34 316.073,1062.79 316.594,1065.25 317.137,1067.7 317.702,1070.16 318.288,1072.61 318.897,1075.06 319.528,1077.52 320.181,1079.97 320.857,1082.42 321.556,1084.88 322.279,1087.33 323.024,1089.79 323.793,1092.24 324.586,1094.69 325.402,1097.15 326.243,1099.6 327.108,1102.05 327.998,1104.51 328.913,1106.96 329.853,1109.42 330.819,1111.87 331.81,1114.32 332.826,1116.78 333.869,1119.23 334.939,1121.69 336.035,1124.14 337.158,1126.59 338.308,1129.05 339.486,1131.5 340.691,1133.95 341.925,1136.41 343.186,1138.86 344.477,1141.32 345.796,1143.77 347.144,1146.22 348.523,1148.68 349.933,1151.13 351.374,1153.58 352.847,1156.04 354.351,1158.49 355.888,1160.95 357.456,1163.4 359.057,1165.85 360.691,1168.31 362.358,1170.76 364.058,1173.22 365.792,1175.67 367.561,1178.12 369.364,1180.58 371.202,1183.03 373.077,1185.48 374.987,1187.94 376.935,1190.39 378.92,1192.85 380.943,1195.3 383.006,1197.75 385.108,1200.21 387.25,1202.66 389.433,1205.11 391.658,1207.57 393.926,1210.02 396.238,1212.48 398.594,1214.93 400.995,1217.38 403.443,1219.84 405.938,1222.29 408.482,1224.74 411.074,1227.2 413.718,1229.65 416.413,1232.11 419.16,1234.56 421.962,1237.01 424.819,1239.47 427.732,1241.92 430.702,1244.38 433.732,1246.83 436.821,1249.28 439.972,1251.74 443.186,1254.19 446.465,1256.64 449.809,1259.1 453.22,1261.55 456.7,1264.01 460.251,1266.46 463.873,1268.91 467.569,1271.37 471.34,1273.82 475.191,1276.27 479.125,1278.73 483.143,1281.18 487.248,1283.64 491.443,1286.09 495.73,1288.54 500.114,1291 504.597,1293.45 509.184,1295.9 513.878,1298.36 518.686,1300.81 523.61,1303.27 528.657,1305.72 533.831,1308.17 539.139,1310.63 544.587,1313.08 550.18,1315.54 555.926,1317.99 561.84,1320.44 567.932,1322.9 574.203,1325.35 580.659,1327.8 587.309,1330.26 594.165,1332.71 601.242,1335.17 608.561,1337.62 616.142,1340.07 624.012,1342.53 632.2,1344.98 640.739,1347.43 649.663,1349.89 659.012,1352.34 668.828,1354.8 679.157,1357.25 690.055,1359.7 701.624,1362.16 713.978,1364.61 727.32,1367.06 741.801,1369.52 757.565,1371.97 775.152,1374.43 795.501,1376.88 819.972,1379.33 851.923,1381.79 913.874,1384.24 1017.36,1382.16 1054.05,1379.71 1082.12,1377.25 1105.83,1374.8 1126.77,1372.34 1145.75,1369.89 1163.25,1367.44 1179.57,1364.98 1194.93,1362.53 1209.48,1360.08 1223.35,1357.62 1236.61,1355.17 1249.35,1352.72 1261.63,1350.26 1273.48,1347.81 1284.95,1345.35 1296.08,1342.9 1306.89,1340.45 1317.42,1337.99 1327.67,1335.54 1337.67,1333.09 1347.44,1330.63 1356.99,1328.18 1366.34,1325.72 1375.5,1323.27 1384.47,1320.82 1393.27,1318.36 1401.91,1315.91 1410.4,1313.45 1418.74,1311 1426.94,1308.55 1435,1306.09 1442.94,1303.64 1450.75,1301.19 1458.45,1298.73 1466.03,1296.28 1473.5,1293.82 1480.87,1291.37 1488.14,1288.92 1495.31,1286.46 1502.39,1284.01 1509.38,1281.56 1516.28,1279.1 1523.09,1276.65 1529.82,1274.19 1536.47,1271.74 1543.05,1269.29 1549.55,1266.83 1555.97,1264.38 1562.32,1261.93 1568.61,1259.47 1574.82,1257.02 1580.97,1254.56 1587.06,1252.11 1593.08,1249.66 1599.05,1247.2 1604.95,1244.75 1610.79,1242.3 1616.58,1239.84 1622.31,1237.39 1627.99,1234.93 1633.61,1232.48 1639.18,1230.03 1644.7,1227.57 1650.17,1225.12 1655.59,1222.66 1660.96,1220.21 1666.29,1217.76 1671.57,1215.3 1676.8,1212.85 1681.99,1210.4 1687.13,1207.94 1692.23,1205.49 1697.29,1203.03 1702.31,1200.58 1707.29,1198.13 1712.22,1195.67 1717.12,1193.22 1721.97,1190.77 1726.79,1188.31 1731.57,1185.86 1736.32,1183.4 1741.02,1180.95 1745.7,1178.5 1750.33,1176.04 1754.93,1173.59 1759.5,1171.14 1764.03,1168.68 1768.52,1166.23 1772.99,1163.77 1777.42,1161.32 1781.82,1158.87 1786.19,1156.41 1790.52,1153.96 1794.83,1151.51 1799.1,1149.05 1803.34,1146.6 1807.56,1144.14 1811.74,1141.69 1815.89,1139.24 1820.02,1136.78 1824.12,1134.33 1828.19,1131.87 1832.23,1129.42 1836.24,1126.97 1840.23,1124.51 1844.18,1122.06 1848.12,1119.61 1852.02,1117.15 1855.9,1114.7 1859.75,1112.24 1863.58,1109.79 1867.38,1107.34 1871.16,1104.88 1874.91,1102.43 1878.64,1099.98 1882.34,1097.52 1886.02,1095.07 1889.68,1092.61 1893.31,1090.16 1896.91,1087.71 1900.5,1085.25 1904.06,1082.8 1907.6,1080.34 1911.11,1077.89 1914.61,1075.44 1918.08,1072.98 1921.52,1070.53 1924.95,1068.08 1928.35,1065.62 1931.74,1063.17 1935.1,1060.71 1938.44,1058.26 1941.76,1055.81 1945.06,1053.35 1948.33,1050.9 1951.59,1048.45 1954.82,1045.99 1958.04,1043.54 1961.24,1041.08 1964.41,1038.63 1967.57,1036.18 1970.7,1033.72 1973.82,1031.27 1976.91,1028.82 1979.99,1026.36 1983.05,1023.91 1986.09,1021.45 1989.11,1019 1992.11,1016.55 1995.09,1014.09 1998.05,1011.64 2001,1009.18 2003.93,1006.73 2006.83,1004.28 2009.73,1001.82 2012.6,999.37 2015.45,996.916 2018.29,994.462 2021.11,992.008 2023.91,989.554 2026.69,987.101 2029.46,984.647 2032.21,982.193 2034.94,979.739 2037.65,977.286 2040.35,974.832 2043.03,972.378 2045.69,969.924 2048.34,967.47 2050.97,965.017 2053.58,962.563 2056.18,960.109 2058.76,957.655 2061.32,955.201 2063.87,952.748 2066.4,950.294 2068.91,947.84 2071.41,945.386 2073.89,942.932 2076.36,940.479 2078.81,938.025 2081.25,935.571 2083.67,933.117 2086.07,930.663 2088.46,928.21 2090.83,925.756 2093.19,923.302 2095.53,920.848 2097.85,918.394 2100.16,915.941 2102.46,913.487 2104.74,911.033 2107.01,908.579 2109.26,906.125 2111.49,903.672 2113.71,901.218 2115.92,898.764 2118.11,896.31 2120.28,893.856 2122.44,891.403 2124.59,888.949 2126.72,886.495 2128.84,884.041 2130.94,881.587 2133.03,879.134 2135.1,876.68 2137.16,874.226 2139.2,871.772 2141.23,869.318 2143.25,866.865 2145.25,864.411 2147.24,861.957 2149.21,859.503 2151.17,857.049 2153.11,854.596 2155.04,852.142 2156.96,849.688 2158.86,847.234 2160.75,844.78 2162.63,842.327 2164.49,839.873 2166.34,837.419 2168.17,834.965 2169.99,832.511 2171.79,830.058 2173.59,827.604 2175.36,825.15 2177.13,822.696 2178.88,820.242 2180.62,817.789 2182.34,815.335 2184.05,812.881 2185.75,810.427 2187.43,807.973 2189.1,805.52 2190.76,803.066 2192.4,800.612 2194.03,798.158 2195.64,795.704 2197.25,793.251 2198.83,790.797 2200.41,788.343 2201.97,785.889 2203.52,783.435 2205.06,780.982 2206.58,778.528 2208.09,776.074 2209.59,773.62 2211.07,771.166 2212.54,768.713 "/>
</svg>
