<?xml version="1.0" encoding="utf-8"?>
<svg xmlns="http://www.w3.org/2000/svg" xmlns:xlink="http://www.w3.org/1999/xlink" width="600" height="400" viewBox="0 0 2400 1600">
<defs>
  <clipPath id="clip360">
    <rect x="0" y="0" width="2400" height="1600"/>
  </clipPath>
</defs>
<path clip-path="url(#clip360)" d="M0 1600 L2400 1600 L2400 0 L0 0  Z" fill="#ffffff" fill-rule="evenodd" fill-opacity="1"/>
<defs>
  <clipPath id="clip361">
    <rect x="250" y="47" width="2104" height="1377"/>
  </clipPath>
</defs>
<path clip-path="url(#clip360)" d="M250.028 1423.18 L2352.76 1423.18 L2352.76 47.2441 L250.028 47.2441  Z" fill="#ffffff" fill-rule="evenodd" fill-opacity="1"/>
<polyline clip-path="url(#clip361)" style="stroke:#000000; stroke-linecap:round; stroke-linejoin:round; stroke-width:2; stroke-opacity:0.1; fill:none" points="363.709,1423.18 363.709,47.2441 "/>
<polyline clip-path="url(#clip361)" style="stroke:#000000; stroke-linecap:round; stroke-linejoin:round; stroke-width:2; stroke-opacity:0.1; fill:none" points="661.2,1423.18 661.2,47.2441 "/>
<polyline clip-path="url(#clip361)" style="stroke:#000000; stroke-linecap:round; stroke-linejoin:round; stroke-width:2; stroke-opacity:0.1; fill:none" points="958.69,1423.18 958.69,47.2441 "/>
<polyline clip-path="url(#clip361)" style="stroke:#000000; stroke-linecap:round; stroke-linejoin:round; stroke-width:2; stroke-opacity:0.1; fill:none" points="1256.18,1423.18 1256.18,47.2441 "/>
<polyline clip-path="url(#clip361)" style="stroke:#000000; stroke-linecap:round; stroke-linejoin:round; stroke-width:2; stroke-opacity:0.1; fill:none" points="1553.67,1423.18 1553.67,47.2441 "/>
<polyline clip-path="url(#clip361)" style="stroke:#000000; stroke-linecap:round; stroke-linejoin:round; stroke-width:2; stroke-opacity:0.1; fill:none" points="1851.16,1423.18 1851.16,47.2441 "/>
<polyline clip-path="url(#clip361)" style="stroke:#000000; stroke-linecap:round; stroke-linejoin:round; stroke-width:2; stroke-opacity:0.1; fill:none" points="2148.65,1423.18 2148.65,47.2441 "/>
<polyline clip-path="url(#clip361)" style="stroke:#000000; stroke-linecap:round; stroke-linejoin:round; stroke-width:2; stroke-opacity:0.1; fill:none" points="250.028,1335 2352.76,1335 "/>
<polyline clip-path="url(#clip361)" style="stroke:#000000; stroke-linecap:round; stroke-linejoin:round; stroke-width:2; stroke-opacity:0.1; fill:none" points="250.028,1128.25 2352.76,1128.25 "/>
<polyline clip-path="url(#clip361)" style="stroke:#000000; stroke-linecap:round; stroke-linejoin:round; stroke-width:2; stroke-opacity:0.1; fill:none" points="250.028,921.498 2352.76,921.498 "/>
<polyline clip-path="url(#clip361)" style="stroke:#000000; stroke-linecap:round; stroke-linejoin:round; stroke-width:2; stroke-opacity:0.1; fill:none" points="250.028,714.749 2352.76,714.749 "/>
<polyline clip-path="url(#clip361)" style="stroke:#000000; stroke-linecap:round; stroke-linejoin:round; stroke-width:2; stroke-opacity:0.1; fill:none" points="250.028,508 2352.76,508 "/>
<polyline clip-path="url(#clip361)" style="stroke:#000000; stroke-linecap:round; stroke-linejoin:round; stroke-width:2; stroke-opacity:0.1; fill:none" points="250.028,301.251 2352.76,301.251 "/>
<polyline clip-path="url(#clip361)" style="stroke:#000000; stroke-linecap:round; stroke-linejoin:round; stroke-width:2; stroke-opacity:0.1; fill:none" points="250.028,94.5019 2352.76,94.5019 "/>
<polyline clip-path="url(#clip360)" style="stroke:#000000; stroke-linecap:round; stroke-linejoin:round; stroke-width:4; stroke-opacity:1; fill:none" points="250.028,1423.18 2352.76,1423.18 "/>
<polyline clip-path="url(#clip360)" style="stroke:#000000; stroke-linecap:round; stroke-linejoin:round; stroke-width:4; stroke-opacity:1; fill:none" points="363.709,1423.18 363.709,1404.28 "/>
<polyline clip-path="url(#clip360)" style="stroke:#000000; stroke-linecap:round; stroke-linejoin:round; stroke-width:4; stroke-opacity:1; fill:none" points="661.2,1423.18 661.2,1404.28 "/>
<polyline clip-path="url(#clip360)" style="stroke:#000000; stroke-linecap:round; stroke-linejoin:round; stroke-width:4; stroke-opacity:1; fill:none" points="958.69,1423.18 958.69,1404.28 "/>
<polyline clip-path="url(#clip360)" style="stroke:#000000; stroke-linecap:round; stroke-linejoin:round; stroke-width:4; stroke-opacity:1; fill:none" points="1256.18,1423.18 1256.18,1404.28 "/>
<polyline clip-path="url(#clip360)" style="stroke:#000000; stroke-linecap:round; stroke-linejoin:round; stroke-width:4; stroke-opacity:1; fill:none" points="1553.67,1423.18 1553.67,1404.28 "/>
<polyline clip-path="url(#clip360)" style="stroke:#000000; stroke-linecap:round; stroke-linejoin:round; stroke-width:4; stroke-opacity:1; fill:none" points="1851.16,1423.18 1851.16,1404.28 "/>
<polyline clip-path="url(#clip360)" style="stroke:#000000; stroke-linecap:round; stroke-linejoin:round; stroke-width:4; stroke-opacity:1; fill:none" points="2148.65,1423.18 2148.65,1404.28 "/>
<path clip-path="url(#clip360)" d="M281.568 1454.1 Q277.957 1454.1 276.128 1457.66 Q274.323 1461.2 274.323 1468.33 Q274.323 1475.44 276.128 1479.01 Q277.957 1482.55 281.568 1482.55 Q285.203 1482.55 287.008 1479.01 Q288.837 1475.44 288.837 1468.33 Q288.837 1461.2 287.008 1457.66 Q285.203 1454.1 281.568 1454.1 M281.568 1450.39 Q287.378 1450.39 290.434 1455 Q293.513 1459.58 293.513 1468.33 Q293.513 1477.06 290.434 1481.67 Q287.378 1486.25 281.568 1486.25 Q275.758 1486.25 272.679 1481.67 Q269.624 1477.06 269.624 1468.33 Q269.624 1459.58 272.679 1455 Q275.758 1450.39 281.568 1450.39 Z" fill="#000000" fill-rule="nonzero" fill-opacity="1" /><path clip-path="url(#clip360)" d="M301.73 1479.7 L306.614 1479.7 L306.614 1485.58 L301.73 1485.58 L301.73 1479.7 Z" fill="#000000" fill-rule="nonzero" fill-opacity="1" /><path clip-path="url(#clip360)" d="M326.8 1454.1 Q323.188 1454.1 321.36 1457.66 Q319.554 1461.2 319.554 1468.33 Q319.554 1475.44 321.36 1479.01 Q323.188 1482.55 326.8 1482.55 Q330.434 1482.55 332.239 1479.01 Q334.068 1475.44 334.068 1468.33 Q334.068 1461.2 332.239 1457.66 Q330.434 1454.1 326.8 1454.1 M326.8 1450.39 Q332.61 1450.39 335.665 1455 Q338.744 1459.58 338.744 1468.33 Q338.744 1477.06 335.665 1481.67 Q332.61 1486.25 326.8 1486.25 Q320.989 1486.25 317.911 1481.67 Q314.855 1477.06 314.855 1468.33 Q314.855 1459.58 317.911 1455 Q320.989 1450.39 326.8 1450.39 Z" fill="#000000" fill-rule="nonzero" fill-opacity="1" /><path clip-path="url(#clip360)" d="M356.961 1454.1 Q353.35 1454.1 351.522 1457.66 Q349.716 1461.2 349.716 1468.33 Q349.716 1475.44 351.522 1479.01 Q353.35 1482.55 356.961 1482.55 Q360.596 1482.55 362.401 1479.01 Q364.23 1475.44 364.23 1468.33 Q364.23 1461.2 362.401 1457.66 Q360.596 1454.1 356.961 1454.1 M356.961 1450.39 Q362.772 1450.39 365.827 1455 Q368.906 1459.58 368.906 1468.33 Q368.906 1477.06 365.827 1481.67 Q362.772 1486.25 356.961 1486.25 Q351.151 1486.25 348.073 1481.67 Q345.017 1477.06 345.017 1468.33 Q345.017 1459.58 348.073 1455 Q351.151 1450.39 356.961 1450.39 Z" fill="#000000" fill-rule="nonzero" fill-opacity="1" /><path clip-path="url(#clip360)" d="M381.151 1481.64 L397.47 1481.64 L397.47 1485.58 L375.526 1485.58 L375.526 1481.64 Q378.188 1478.89 382.771 1474.26 Q387.378 1469.61 388.558 1468.27 Q390.804 1465.74 391.683 1464.01 Q392.586 1462.25 392.586 1460.56 Q392.586 1457.8 390.642 1456.07 Q388.72 1454.33 385.619 1454.33 Q383.42 1454.33 380.966 1455.09 Q378.535 1455.86 375.758 1457.41 L375.758 1452.69 Q378.582 1451.55 381.035 1450.97 Q383.489 1450.39 385.526 1450.39 Q390.896 1450.39 394.091 1453.08 Q397.285 1455.77 397.285 1460.26 Q397.285 1462.39 396.475 1464.31 Q395.688 1466.2 393.582 1468.8 Q393.003 1469.47 389.901 1472.69 Q386.799 1475.88 381.151 1481.64 Z" fill="#000000" fill-rule="nonzero" fill-opacity="1" /><path clip-path="url(#clip360)" d="M408.095 1481.64 L415.734 1481.64 L415.734 1455.28 L407.424 1456.95 L407.424 1452.69 L415.688 1451.02 L420.364 1451.02 L420.364 1481.64 L428.003 1481.64 L428.003 1485.58 L408.095 1485.58 L408.095 1481.64 Z" fill="#000000" fill-rule="nonzero" fill-opacity="1" /><path clip-path="url(#clip360)" d="M441.475 1481.64 L457.794 1481.64 L457.794 1485.58 L435.85 1485.58 L435.85 1481.64 Q438.512 1478.89 443.095 1474.26 Q447.702 1469.61 448.882 1468.27 Q451.128 1465.74 452.007 1464.01 Q452.91 1462.25 452.91 1460.56 Q452.91 1457.8 450.966 1456.07 Q449.044 1454.33 445.942 1454.33 Q443.743 1454.33 441.29 1455.09 Q438.859 1455.86 436.081 1457.41 L436.081 1452.69 Q438.905 1451.55 441.359 1450.97 Q443.813 1450.39 445.85 1450.39 Q451.22 1450.39 454.415 1453.08 Q457.609 1455.77 457.609 1460.26 Q457.609 1462.39 456.799 1464.31 Q456.012 1466.2 453.905 1468.8 Q453.327 1469.47 450.225 1472.69 Q447.123 1475.88 441.475 1481.64 Z" fill="#000000" fill-rule="nonzero" fill-opacity="1" /><path clip-path="url(#clip360)" d="M578.017 1454.1 Q574.406 1454.1 572.577 1457.66 Q570.772 1461.2 570.772 1468.33 Q570.772 1475.44 572.577 1479.01 Q574.406 1482.55 578.017 1482.55 Q581.652 1482.55 583.457 1479.01 Q585.286 1475.44 585.286 1468.33 Q585.286 1461.2 583.457 1457.66 Q581.652 1454.1 578.017 1454.1 M578.017 1450.39 Q583.827 1450.39 586.883 1455 Q589.962 1459.58 589.962 1468.33 Q589.962 1477.06 586.883 1481.67 Q583.827 1486.25 578.017 1486.25 Q572.207 1486.25 569.128 1481.67 Q566.073 1477.06 566.073 1468.33 Q566.073 1459.58 569.128 1455 Q572.207 1450.39 578.017 1450.39 Z" fill="#000000" fill-rule="nonzero" fill-opacity="1" /><path clip-path="url(#clip360)" d="M598.179 1479.7 L603.063 1479.7 L603.063 1485.58 L598.179 1485.58 L598.179 1479.7 Z" fill="#000000" fill-rule="nonzero" fill-opacity="1" /><path clip-path="url(#clip360)" d="M623.249 1454.1 Q619.637 1454.1 617.809 1457.66 Q616.003 1461.2 616.003 1468.33 Q616.003 1475.44 617.809 1479.01 Q619.637 1482.55 623.249 1482.55 Q626.883 1482.55 628.688 1479.01 Q630.517 1475.44 630.517 1468.33 Q630.517 1461.2 628.688 1457.66 Q626.883 1454.1 623.249 1454.1 M623.249 1450.39 Q629.059 1450.39 632.114 1455 Q635.193 1459.58 635.193 1468.33 Q635.193 1477.06 632.114 1481.67 Q629.059 1486.25 623.249 1486.25 Q617.438 1486.25 614.36 1481.67 Q611.304 1477.06 611.304 1468.33 Q611.304 1459.58 614.36 1455 Q617.438 1450.39 623.249 1450.39 Z" fill="#000000" fill-rule="nonzero" fill-opacity="1" /><path clip-path="url(#clip360)" d="M653.41 1454.1 Q649.799 1454.1 647.971 1457.66 Q646.165 1461.2 646.165 1468.33 Q646.165 1475.44 647.971 1479.01 Q649.799 1482.55 653.41 1482.55 Q657.045 1482.55 658.85 1479.01 Q660.679 1475.44 660.679 1468.33 Q660.679 1461.2 658.85 1457.66 Q657.045 1454.1 653.41 1454.1 M653.41 1450.39 Q659.221 1450.39 662.276 1455 Q665.355 1459.58 665.355 1468.33 Q665.355 1477.06 662.276 1481.67 Q659.221 1486.25 653.41 1486.25 Q647.6 1486.25 644.522 1481.67 Q641.466 1477.06 641.466 1468.33 Q641.466 1459.58 644.522 1455 Q647.6 1450.39 653.41 1450.39 Z" fill="#000000" fill-rule="nonzero" fill-opacity="1" /><path clip-path="url(#clip360)" d="M677.6 1481.64 L693.919 1481.64 L693.919 1485.58 L671.975 1485.58 L671.975 1481.64 Q674.637 1478.89 679.22 1474.26 Q683.827 1469.61 685.007 1468.27 Q687.253 1465.74 688.132 1464.01 Q689.035 1462.25 689.035 1460.56 Q689.035 1457.8 687.091 1456.07 Q685.169 1454.33 682.068 1454.33 Q679.869 1454.33 677.415 1455.09 Q674.984 1455.86 672.207 1457.41 L672.207 1452.69 Q675.031 1451.55 677.484 1450.97 Q679.938 1450.39 681.975 1450.39 Q687.345 1450.39 690.54 1453.08 Q693.734 1455.77 693.734 1460.26 Q693.734 1462.39 692.924 1464.31 Q692.137 1466.2 690.031 1468.8 Q689.452 1469.47 686.35 1472.69 Q683.248 1475.88 677.6 1481.64 Z" fill="#000000" fill-rule="nonzero" fill-opacity="1" /><path clip-path="url(#clip360)" d="M704.544 1481.64 L712.183 1481.64 L712.183 1455.28 L703.873 1456.95 L703.873 1452.69 L712.137 1451.02 L716.813 1451.02 L716.813 1481.64 L724.452 1481.64 L724.452 1485.58 L704.544 1485.58 L704.544 1481.64 Z" fill="#000000" fill-rule="nonzero" fill-opacity="1" /><path clip-path="url(#clip360)" d="M746.743 1455.09 L734.938 1473.54 L746.743 1473.54 L746.743 1455.09 M745.516 1451.02 L751.396 1451.02 L751.396 1473.54 L756.326 1473.54 L756.326 1477.43 L751.396 1477.43 L751.396 1485.58 L746.743 1485.58 L746.743 1477.43 L731.141 1477.43 L731.141 1472.92 L745.516 1451.02 Z" fill="#000000" fill-rule="nonzero" fill-opacity="1" /><path clip-path="url(#clip360)" d="M875.67 1454.1 Q872.059 1454.1 870.23 1457.66 Q868.425 1461.2 868.425 1468.33 Q868.425 1475.44 870.23 1479.01 Q872.059 1482.55 875.67 1482.55 Q879.304 1482.55 881.11 1479.01 Q882.938 1475.44 882.938 1468.33 Q882.938 1461.2 881.11 1457.66 Q879.304 1454.1 875.67 1454.1 M875.67 1450.39 Q881.48 1450.39 884.536 1455 Q887.614 1459.58 887.614 1468.33 Q887.614 1477.06 884.536 1481.67 Q881.48 1486.25 875.67 1486.25 Q869.86 1486.25 866.781 1481.67 Q863.726 1477.06 863.726 1468.33 Q863.726 1459.58 866.781 1455 Q869.86 1450.39 875.67 1450.39 Z" fill="#000000" fill-rule="nonzero" fill-opacity="1" /><path clip-path="url(#clip360)" d="M895.832 1479.7 L900.716 1479.7 L900.716 1485.58 L895.832 1485.58 L895.832 1479.7 Z" fill="#000000" fill-rule="nonzero" fill-opacity="1" /><path clip-path="url(#clip360)" d="M920.901 1454.1 Q917.29 1454.1 915.461 1457.66 Q913.656 1461.2 913.656 1468.33 Q913.656 1475.44 915.461 1479.01 Q917.29 1482.55 920.901 1482.55 Q924.535 1482.55 926.341 1479.01 Q928.17 1475.44 928.17 1468.33 Q928.17 1461.2 926.341 1457.66 Q924.535 1454.1 920.901 1454.1 M920.901 1450.39 Q926.711 1450.39 929.767 1455 Q932.846 1459.58 932.846 1468.33 Q932.846 1477.06 929.767 1481.67 Q926.711 1486.25 920.901 1486.25 Q915.091 1486.25 912.012 1481.67 Q908.957 1477.06 908.957 1468.33 Q908.957 1459.58 912.012 1455 Q915.091 1450.39 920.901 1450.39 Z" fill="#000000" fill-rule="nonzero" fill-opacity="1" /><path clip-path="url(#clip360)" d="M951.063 1454.1 Q947.452 1454.1 945.623 1457.66 Q943.818 1461.2 943.818 1468.33 Q943.818 1475.44 945.623 1479.01 Q947.452 1482.55 951.063 1482.55 Q954.697 1482.55 956.503 1479.01 Q958.332 1475.44 958.332 1468.33 Q958.332 1461.2 956.503 1457.66 Q954.697 1454.1 951.063 1454.1 M951.063 1450.39 Q956.873 1450.39 959.929 1455 Q963.007 1459.58 963.007 1468.33 Q963.007 1477.06 959.929 1481.67 Q956.873 1486.25 951.063 1486.25 Q945.253 1486.25 942.174 1481.67 Q939.119 1477.06 939.119 1468.33 Q939.119 1459.58 942.174 1455 Q945.253 1450.39 951.063 1450.39 Z" fill="#000000" fill-rule="nonzero" fill-opacity="1" /><path clip-path="url(#clip360)" d="M975.253 1481.64 L991.572 1481.64 L991.572 1485.58 L969.628 1485.58 L969.628 1481.64 Q972.29 1478.89 976.873 1474.26 Q981.48 1469.61 982.66 1468.27 Q984.905 1465.74 985.785 1464.01 Q986.688 1462.25 986.688 1460.56 Q986.688 1457.8 984.743 1456.07 Q982.822 1454.33 979.72 1454.33 Q977.521 1454.33 975.068 1455.09 Q972.637 1455.86 969.859 1457.41 L969.859 1452.69 Q972.683 1451.55 975.137 1450.97 Q977.591 1450.39 979.628 1450.39 Q984.998 1450.39 988.192 1453.08 Q991.387 1455.77 991.387 1460.26 Q991.387 1462.39 990.577 1464.31 Q989.79 1466.2 987.683 1468.8 Q987.105 1469.47 984.003 1472.69 Q980.901 1475.88 975.253 1481.64 Z" fill="#000000" fill-rule="nonzero" fill-opacity="1" /><path clip-path="url(#clip360)" d="M1002.2 1481.64 L1009.84 1481.64 L1009.84 1455.28 L1001.53 1456.95 L1001.53 1452.69 L1009.79 1451.02 L1014.47 1451.02 L1014.47 1481.64 L1022.1 1481.64 L1022.1 1485.58 L1002.2 1485.58 L1002.2 1481.64 Z" fill="#000000" fill-rule="nonzero" fill-opacity="1" /><path clip-path="url(#clip360)" d="M1042.13 1466.44 Q1038.98 1466.44 1037.13 1468.59 Q1035.3 1470.74 1035.3 1474.49 Q1035.3 1478.22 1037.13 1480.39 Q1038.98 1482.55 1042.13 1482.55 Q1045.28 1482.55 1047.1 1480.39 Q1048.96 1478.22 1048.96 1474.49 Q1048.96 1470.74 1047.1 1468.59 Q1045.28 1466.44 1042.13 1466.44 M1051.41 1451.78 L1051.41 1456.04 Q1049.65 1455.21 1047.84 1454.77 Q1046.06 1454.33 1044.3 1454.33 Q1039.67 1454.33 1037.22 1457.45 Q1034.79 1460.58 1034.44 1466.9 Q1035.81 1464.89 1037.87 1463.82 Q1039.93 1462.73 1042.41 1462.73 Q1047.61 1462.73 1050.62 1465.9 Q1053.66 1469.05 1053.66 1474.49 Q1053.66 1479.82 1050.51 1483.03 Q1047.36 1486.25 1042.13 1486.25 Q1036.13 1486.25 1032.96 1481.67 Q1029.79 1477.06 1029.79 1468.33 Q1029.79 1460.14 1033.68 1455.28 Q1037.57 1450.39 1044.12 1450.39 Q1045.88 1450.39 1047.66 1450.74 Q1049.47 1451.09 1051.41 1451.78 Z" fill="#000000" fill-rule="nonzero" fill-opacity="1" /><path clip-path="url(#clip360)" d="M1173.29 1454.1 Q1169.68 1454.1 1167.85 1457.66 Q1166.04 1461.2 1166.04 1468.33 Q1166.04 1475.44 1167.85 1479.01 Q1169.68 1482.55 1173.29 1482.55 Q1176.92 1482.55 1178.73 1479.01 Q1180.56 1475.44 1180.56 1468.33 Q1180.56 1461.2 1178.73 1457.66 Q1176.92 1454.1 1173.29 1454.1 M1173.29 1450.39 Q1179.1 1450.39 1182.15 1455 Q1185.23 1459.58 1185.23 1468.33 Q1185.23 1477.06 1182.15 1481.67 Q1179.1 1486.25 1173.29 1486.25 Q1167.48 1486.25 1164.4 1481.67 Q1161.34 1477.06 1161.34 1468.33 Q1161.34 1459.58 1164.4 1455 Q1167.48 1450.39 1173.29 1450.39 Z" fill="#000000" fill-rule="nonzero" fill-opacity="1" /><path clip-path="url(#clip360)" d="M1193.45 1479.7 L1198.33 1479.7 L1198.33 1485.58 L1193.45 1485.58 L1193.45 1479.7 Z" fill="#000000" fill-rule="nonzero" fill-opacity="1" /><path clip-path="url(#clip360)" d="M1218.52 1454.1 Q1214.91 1454.1 1213.08 1457.66 Q1211.27 1461.2 1211.27 1468.33 Q1211.27 1475.44 1213.08 1479.01 Q1214.91 1482.55 1218.52 1482.55 Q1222.15 1482.55 1223.96 1479.01 Q1225.79 1475.44 1225.79 1468.33 Q1225.79 1461.2 1223.96 1457.66 Q1222.15 1454.1 1218.52 1454.1 M1218.52 1450.39 Q1224.33 1450.39 1227.38 1455 Q1230.46 1459.58 1230.46 1468.33 Q1230.46 1477.06 1227.38 1481.67 Q1224.33 1486.25 1218.52 1486.25 Q1212.71 1486.25 1209.63 1481.67 Q1206.57 1477.06 1206.57 1468.33 Q1206.57 1459.58 1209.63 1455 Q1212.71 1450.39 1218.52 1450.39 Z" fill="#000000" fill-rule="nonzero" fill-opacity="1" /><path clip-path="url(#clip360)" d="M1248.68 1454.1 Q1245.07 1454.1 1243.24 1457.66 Q1241.44 1461.2 1241.44 1468.33 Q1241.44 1475.44 1243.24 1479.01 Q1245.07 1482.55 1248.68 1482.55 Q1252.32 1482.55 1254.12 1479.01 Q1255.95 1475.44 1255.95 1468.33 Q1255.95 1461.2 1254.12 1457.66 Q1252.32 1454.1 1248.68 1454.1 M1248.68 1450.39 Q1254.49 1450.39 1257.55 1455 Q1260.63 1459.58 1260.63 1468.33 Q1260.63 1477.06 1257.55 1481.67 Q1254.49 1486.25 1248.68 1486.25 Q1242.87 1486.25 1239.79 1481.67 Q1236.74 1477.06 1236.74 1468.33 Q1236.74 1459.58 1239.79 1455 Q1242.87 1450.39 1248.68 1450.39 Z" fill="#000000" fill-rule="nonzero" fill-opacity="1" /><path clip-path="url(#clip360)" d="M1272.87 1481.64 L1289.19 1481.64 L1289.19 1485.58 L1267.25 1485.58 L1267.25 1481.64 Q1269.91 1478.89 1274.49 1474.26 Q1279.1 1469.61 1280.28 1468.27 Q1282.52 1465.74 1283.4 1464.01 Q1284.31 1462.25 1284.31 1460.56 Q1284.31 1457.8 1282.36 1456.07 Q1280.44 1454.33 1277.34 1454.33 Q1275.14 1454.33 1272.69 1455.09 Q1270.25 1455.86 1267.48 1457.41 L1267.48 1452.69 Q1270.3 1451.55 1272.75 1450.97 Q1275.21 1450.39 1277.25 1450.39 Q1282.62 1450.39 1285.81 1453.08 Q1289 1455.77 1289 1460.26 Q1289 1462.39 1288.19 1464.31 Q1287.41 1466.2 1285.3 1468.8 Q1284.72 1469.47 1281.62 1472.69 Q1278.52 1475.88 1272.87 1481.64 Z" fill="#000000" fill-rule="nonzero" fill-opacity="1" /><path clip-path="url(#clip360)" d="M1299.82 1481.64 L1307.45 1481.64 L1307.45 1455.28 L1299.14 1456.95 L1299.14 1452.69 L1307.41 1451.02 L1312.08 1451.02 L1312.08 1481.64 L1319.72 1481.64 L1319.72 1485.58 L1299.82 1485.58 L1299.82 1481.64 Z" fill="#000000" fill-rule="nonzero" fill-opacity="1" /><path clip-path="url(#clip360)" d="M1339.17 1469.17 Q1335.83 1469.17 1333.91 1470.95 Q1332.01 1472.73 1332.01 1475.86 Q1332.01 1478.98 1333.91 1480.77 Q1335.83 1482.55 1339.17 1482.55 Q1342.5 1482.55 1344.42 1480.77 Q1346.34 1478.96 1346.34 1475.86 Q1346.34 1472.73 1344.42 1470.95 Q1342.52 1469.17 1339.17 1469.17 M1334.49 1467.18 Q1331.48 1466.44 1329.79 1464.38 Q1328.13 1462.32 1328.13 1459.35 Q1328.13 1455.21 1331.06 1452.8 Q1334.03 1450.39 1339.17 1450.39 Q1344.33 1450.39 1347.27 1452.8 Q1350.21 1455.21 1350.21 1459.35 Q1350.21 1462.32 1348.52 1464.38 Q1346.85 1466.44 1343.87 1467.18 Q1347.25 1467.96 1349.12 1470.26 Q1351.02 1472.55 1351.02 1475.86 Q1351.02 1480.88 1347.94 1483.57 Q1344.88 1486.25 1339.17 1486.25 Q1333.45 1486.25 1330.37 1483.57 Q1327.31 1480.88 1327.31 1475.86 Q1327.31 1472.55 1329.21 1470.26 Q1331.11 1467.96 1334.49 1467.18 M1332.78 1459.79 Q1332.78 1462.48 1334.44 1463.98 Q1336.13 1465.49 1339.17 1465.49 Q1342.18 1465.49 1343.87 1463.98 Q1345.58 1462.48 1345.58 1459.79 Q1345.58 1457.11 1343.87 1455.6 Q1342.18 1454.1 1339.17 1454.1 Q1336.13 1454.1 1334.44 1455.6 Q1332.78 1457.11 1332.78 1459.79 Z" fill="#000000" fill-rule="nonzero" fill-opacity="1" /><path clip-path="url(#clip360)" d="M1470.73 1454.1 Q1467.12 1454.1 1465.29 1457.66 Q1463.49 1461.2 1463.49 1468.33 Q1463.49 1475.44 1465.29 1479.01 Q1467.12 1482.55 1470.73 1482.55 Q1474.37 1482.55 1476.17 1479.01 Q1478 1475.44 1478 1468.33 Q1478 1461.2 1476.17 1457.66 Q1474.37 1454.1 1470.73 1454.1 M1470.73 1450.39 Q1476.54 1450.39 1479.6 1455 Q1482.68 1459.58 1482.68 1468.33 Q1482.68 1477.06 1479.6 1481.67 Q1476.54 1486.25 1470.73 1486.25 Q1464.92 1486.25 1461.84 1481.67 Q1458.79 1477.06 1458.79 1468.33 Q1458.79 1459.58 1461.84 1455 Q1464.92 1450.39 1470.73 1450.39 Z" fill="#000000" fill-rule="nonzero" fill-opacity="1" /><path clip-path="url(#clip360)" d="M1490.89 1479.7 L1495.78 1479.7 L1495.78 1485.58 L1490.89 1485.58 L1490.89 1479.7 Z" fill="#000000" fill-rule="nonzero" fill-opacity="1" /><path clip-path="url(#clip360)" d="M1515.96 1454.1 Q1512.35 1454.1 1510.52 1457.66 Q1508.72 1461.2 1508.72 1468.33 Q1508.72 1475.44 1510.52 1479.01 Q1512.35 1482.55 1515.96 1482.55 Q1519.6 1482.55 1521.4 1479.01 Q1523.23 1475.44 1523.23 1468.33 Q1523.23 1461.2 1521.4 1457.66 Q1519.6 1454.1 1515.96 1454.1 M1515.96 1450.39 Q1521.77 1450.39 1524.83 1455 Q1527.91 1459.58 1527.91 1468.33 Q1527.91 1477.06 1524.83 1481.67 Q1521.77 1486.25 1515.96 1486.25 Q1510.15 1486.25 1507.07 1481.67 Q1504.02 1477.06 1504.02 1468.33 Q1504.02 1459.58 1507.07 1455 Q1510.15 1450.39 1515.96 1450.39 Z" fill="#000000" fill-rule="nonzero" fill-opacity="1" /><path clip-path="url(#clip360)" d="M1546.13 1454.1 Q1542.51 1454.1 1540.69 1457.66 Q1538.88 1461.2 1538.88 1468.33 Q1538.88 1475.44 1540.69 1479.01 Q1542.51 1482.55 1546.13 1482.55 Q1549.76 1482.55 1551.57 1479.01 Q1553.39 1475.44 1553.39 1468.33 Q1553.39 1461.2 1551.57 1457.66 Q1549.76 1454.1 1546.13 1454.1 M1546.13 1450.39 Q1551.94 1450.39 1554.99 1455 Q1558.07 1459.58 1558.07 1468.33 Q1558.07 1477.06 1554.99 1481.67 Q1551.94 1486.25 1546.13 1486.25 Q1540.32 1486.25 1537.24 1481.67 Q1534.18 1477.06 1534.18 1468.33 Q1534.18 1459.58 1537.24 1455 Q1540.32 1450.39 1546.13 1450.39 Z" fill="#000000" fill-rule="nonzero" fill-opacity="1" /><path clip-path="url(#clip360)" d="M1570.32 1481.64 L1586.63 1481.64 L1586.63 1485.58 L1564.69 1485.58 L1564.69 1481.64 Q1567.35 1478.89 1571.94 1474.26 Q1576.54 1469.61 1577.72 1468.27 Q1579.97 1465.74 1580.85 1464.01 Q1581.75 1462.25 1581.75 1460.56 Q1581.75 1457.8 1579.81 1456.07 Q1577.88 1454.33 1574.78 1454.33 Q1572.58 1454.33 1570.13 1455.09 Q1567.7 1455.86 1564.92 1457.41 L1564.92 1452.69 Q1567.75 1451.55 1570.2 1450.97 Q1572.65 1450.39 1574.69 1450.39 Q1580.06 1450.39 1583.25 1453.08 Q1586.45 1455.77 1586.45 1460.26 Q1586.45 1462.39 1585.64 1464.31 Q1584.85 1466.2 1582.75 1468.8 Q1582.17 1469.47 1579.07 1472.69 Q1575.96 1475.88 1570.32 1481.64 Z" fill="#000000" fill-rule="nonzero" fill-opacity="1" /><path clip-path="url(#clip360)" d="M1600.48 1481.64 L1616.8 1481.64 L1616.8 1485.58 L1594.85 1485.58 L1594.85 1481.64 Q1597.51 1478.89 1602.1 1474.26 Q1606.7 1469.61 1607.88 1468.27 Q1610.13 1465.74 1611.01 1464.01 Q1611.91 1462.25 1611.91 1460.56 Q1611.91 1457.8 1609.97 1456.07 Q1608.05 1454.33 1604.94 1454.33 Q1602.75 1454.33 1600.29 1455.09 Q1597.86 1455.86 1595.08 1457.41 L1595.08 1452.69 Q1597.91 1451.55 1600.36 1450.97 Q1602.81 1450.39 1604.85 1450.39 Q1610.22 1450.39 1613.42 1453.08 Q1616.61 1455.77 1616.61 1460.26 Q1616.61 1462.39 1615.8 1464.31 Q1615.01 1466.2 1612.91 1468.8 Q1612.33 1469.47 1609.23 1472.69 Q1606.13 1475.88 1600.48 1481.64 Z" fill="#000000" fill-rule="nonzero" fill-opacity="1" /><path clip-path="url(#clip360)" d="M1636.61 1454.1 Q1633 1454.1 1631.17 1457.66 Q1629.37 1461.2 1629.37 1468.33 Q1629.37 1475.44 1631.17 1479.01 Q1633 1482.55 1636.61 1482.55 Q1640.25 1482.55 1642.05 1479.01 Q1643.88 1475.44 1643.88 1468.33 Q1643.88 1461.2 1642.05 1457.66 Q1640.25 1454.1 1636.61 1454.1 M1636.61 1450.39 Q1642.42 1450.39 1645.48 1455 Q1648.56 1459.58 1648.56 1468.33 Q1648.56 1477.06 1645.48 1481.67 Q1642.42 1486.25 1636.61 1486.25 Q1630.8 1486.25 1627.72 1481.67 Q1624.67 1477.06 1624.67 1468.33 Q1624.67 1459.58 1627.72 1455 Q1630.8 1450.39 1636.61 1450.39 Z" fill="#000000" fill-rule="nonzero" fill-opacity="1" /><path clip-path="url(#clip360)" d="M1769.02 1454.1 Q1765.41 1454.1 1763.58 1457.66 Q1761.78 1461.2 1761.78 1468.33 Q1761.78 1475.44 1763.58 1479.01 Q1765.41 1482.55 1769.02 1482.55 Q1772.66 1482.55 1774.46 1479.01 Q1776.29 1475.44 1776.29 1468.33 Q1776.29 1461.2 1774.46 1457.66 Q1772.66 1454.1 1769.02 1454.1 M1769.02 1450.39 Q1774.83 1450.39 1777.89 1455 Q1780.97 1459.58 1780.97 1468.33 Q1780.97 1477.06 1777.89 1481.67 Q1774.83 1486.25 1769.02 1486.25 Q1763.21 1486.25 1760.13 1481.67 Q1757.08 1477.06 1757.08 1468.33 Q1757.08 1459.58 1760.13 1455 Q1763.21 1450.39 1769.02 1450.39 Z" fill="#000000" fill-rule="nonzero" fill-opacity="1" /><path clip-path="url(#clip360)" d="M1789.18 1479.7 L1794.07 1479.7 L1794.07 1485.58 L1789.18 1485.58 L1789.18 1479.7 Z" fill="#000000" fill-rule="nonzero" fill-opacity="1" /><path clip-path="url(#clip360)" d="M1814.25 1454.1 Q1810.64 1454.1 1808.81 1457.66 Q1807.01 1461.2 1807.01 1468.33 Q1807.01 1475.44 1808.81 1479.01 Q1810.64 1482.55 1814.25 1482.55 Q1817.89 1482.55 1819.69 1479.01 Q1821.52 1475.44 1821.52 1468.33 Q1821.52 1461.2 1819.69 1457.66 Q1817.89 1454.1 1814.25 1454.1 M1814.25 1450.39 Q1820.06 1450.39 1823.12 1455 Q1826.2 1459.58 1826.2 1468.33 Q1826.2 1477.06 1823.12 1481.67 Q1820.06 1486.25 1814.25 1486.25 Q1808.44 1486.25 1805.36 1481.67 Q1802.31 1477.06 1802.31 1468.33 Q1802.31 1459.58 1805.36 1455 Q1808.44 1450.39 1814.25 1450.39 Z" fill="#000000" fill-rule="nonzero" fill-opacity="1" /><path clip-path="url(#clip360)" d="M1844.41 1454.1 Q1840.8 1454.1 1838.97 1457.66 Q1837.17 1461.2 1837.17 1468.33 Q1837.17 1475.44 1838.97 1479.01 Q1840.8 1482.55 1844.41 1482.55 Q1848.05 1482.55 1849.85 1479.01 Q1851.68 1475.44 1851.68 1468.33 Q1851.68 1461.2 1849.85 1457.66 Q1848.05 1454.1 1844.41 1454.1 M1844.41 1450.39 Q1850.22 1450.39 1853.28 1455 Q1856.36 1459.58 1856.36 1468.33 Q1856.36 1477.06 1853.28 1481.67 Q1850.22 1486.25 1844.41 1486.25 Q1838.6 1486.25 1835.53 1481.67 Q1832.47 1477.06 1832.47 1468.33 Q1832.47 1459.58 1835.53 1455 Q1838.6 1450.39 1844.41 1450.39 Z" fill="#000000" fill-rule="nonzero" fill-opacity="1" /><path clip-path="url(#clip360)" d="M1868.6 1481.64 L1884.92 1481.64 L1884.92 1485.58 L1862.98 1485.58 L1862.98 1481.64 Q1865.64 1478.89 1870.22 1474.26 Q1874.83 1469.61 1876.01 1468.27 Q1878.26 1465.74 1879.14 1464.01 Q1880.04 1462.25 1880.04 1460.56 Q1880.04 1457.8 1878.1 1456.07 Q1876.17 1454.33 1873.07 1454.33 Q1870.87 1454.33 1868.42 1455.09 Q1865.99 1455.86 1863.21 1457.41 L1863.21 1452.69 Q1866.03 1451.55 1868.49 1450.97 Q1870.94 1450.39 1872.98 1450.39 Q1878.35 1450.39 1881.54 1453.08 Q1884.74 1455.77 1884.74 1460.26 Q1884.74 1462.39 1883.93 1464.31 Q1883.14 1466.2 1881.03 1468.8 Q1880.46 1469.47 1877.35 1472.69 Q1874.25 1475.88 1868.6 1481.64 Z" fill="#000000" fill-rule="nonzero" fill-opacity="1" /><path clip-path="url(#clip360)" d="M1898.77 1481.64 L1915.09 1481.64 L1915.09 1485.58 L1893.14 1485.58 L1893.14 1481.64 Q1895.8 1478.89 1900.39 1474.26 Q1904.99 1469.61 1906.17 1468.27 Q1908.42 1465.74 1909.3 1464.01 Q1910.2 1462.25 1910.2 1460.56 Q1910.2 1457.8 1908.26 1456.07 Q1906.34 1454.33 1903.23 1454.33 Q1901.03 1454.33 1898.58 1455.09 Q1896.15 1455.86 1893.37 1457.41 L1893.37 1452.69 Q1896.2 1451.55 1898.65 1450.97 Q1901.1 1450.39 1903.14 1450.39 Q1908.51 1450.39 1911.71 1453.08 Q1914.9 1455.77 1914.9 1460.26 Q1914.9 1462.39 1914.09 1464.31 Q1913.3 1466.2 1911.2 1468.8 Q1910.62 1469.47 1907.52 1472.69 Q1904.41 1475.88 1898.77 1481.64 Z" fill="#000000" fill-rule="nonzero" fill-opacity="1" /><path clip-path="url(#clip360)" d="M1928.93 1481.64 L1945.25 1481.64 L1945.25 1485.58 L1923.3 1485.58 L1923.3 1481.64 Q1925.97 1478.89 1930.55 1474.26 Q1935.15 1469.61 1936.34 1468.27 Q1938.58 1465.74 1939.46 1464.01 Q1940.36 1462.25 1940.36 1460.56 Q1940.36 1457.8 1938.42 1456.07 Q1936.5 1454.33 1933.4 1454.33 Q1931.2 1454.33 1928.74 1455.09 Q1926.31 1455.86 1923.53 1457.41 L1923.53 1452.69 Q1926.36 1451.55 1928.81 1450.97 Q1931.27 1450.39 1933.3 1450.39 Q1938.67 1450.39 1941.87 1453.08 Q1945.06 1455.77 1945.06 1460.26 Q1945.06 1462.39 1944.25 1464.31 Q1943.47 1466.2 1941.36 1468.8 Q1940.78 1469.47 1937.68 1472.69 Q1934.58 1475.88 1928.93 1481.64 Z" fill="#000000" fill-rule="nonzero" fill-opacity="1" /><path clip-path="url(#clip360)" d="M2065.47 1454.1 Q2061.86 1454.1 2060.03 1457.66 Q2058.23 1461.2 2058.23 1468.33 Q2058.23 1475.44 2060.03 1479.01 Q2061.86 1482.55 2065.47 1482.55 Q2069.1 1482.55 2070.91 1479.01 Q2072.74 1475.44 2072.74 1468.33 Q2072.74 1461.2 2070.91 1457.66 Q2069.1 1454.1 2065.47 1454.1 M2065.47 1450.39 Q2071.28 1450.39 2074.34 1455 Q2077.41 1459.58 2077.41 1468.33 Q2077.41 1477.06 2074.34 1481.67 Q2071.28 1486.25 2065.47 1486.25 Q2059.66 1486.25 2056.58 1481.67 Q2053.53 1477.06 2053.53 1468.33 Q2053.53 1459.58 2056.58 1455 Q2059.66 1450.39 2065.47 1450.39 Z" fill="#000000" fill-rule="nonzero" fill-opacity="1" /><path clip-path="url(#clip360)" d="M2085.63 1479.7 L2090.52 1479.7 L2090.52 1485.58 L2085.63 1485.58 L2085.63 1479.7 Z" fill="#000000" fill-rule="nonzero" fill-opacity="1" /><path clip-path="url(#clip360)" d="M2110.7 1454.1 Q2107.09 1454.1 2105.26 1457.66 Q2103.46 1461.2 2103.46 1468.33 Q2103.46 1475.44 2105.26 1479.01 Q2107.09 1482.55 2110.7 1482.55 Q2114.34 1482.55 2116.14 1479.01 Q2117.97 1475.44 2117.97 1468.33 Q2117.97 1461.2 2116.14 1457.66 Q2114.34 1454.1 2110.7 1454.1 M2110.7 1450.39 Q2116.51 1450.39 2119.57 1455 Q2122.65 1459.58 2122.65 1468.33 Q2122.65 1477.06 2119.57 1481.67 Q2116.51 1486.25 2110.7 1486.25 Q2104.89 1486.25 2101.81 1481.67 Q2098.76 1477.06 2098.76 1468.33 Q2098.76 1459.58 2101.81 1455 Q2104.89 1450.39 2110.7 1450.39 Z" fill="#000000" fill-rule="nonzero" fill-opacity="1" /><path clip-path="url(#clip360)" d="M2140.86 1454.1 Q2137.25 1454.1 2135.42 1457.66 Q2133.62 1461.2 2133.62 1468.33 Q2133.62 1475.44 2135.42 1479.01 Q2137.25 1482.55 2140.86 1482.55 Q2144.5 1482.55 2146.3 1479.01 Q2148.13 1475.44 2148.13 1468.33 Q2148.13 1461.2 2146.3 1457.66 Q2144.5 1454.1 2140.86 1454.1 M2140.86 1450.39 Q2146.67 1450.39 2149.73 1455 Q2152.81 1459.58 2152.81 1468.33 Q2152.81 1477.06 2149.73 1481.67 Q2146.67 1486.25 2140.86 1486.25 Q2135.05 1486.25 2131.97 1481.67 Q2128.92 1477.06 2128.92 1468.33 Q2128.92 1459.58 2131.97 1455 Q2135.05 1450.39 2140.86 1450.39 Z" fill="#000000" fill-rule="nonzero" fill-opacity="1" /><path clip-path="url(#clip360)" d="M2165.05 1481.64 L2181.37 1481.64 L2181.37 1485.58 L2159.43 1485.58 L2159.43 1481.64 Q2162.09 1478.89 2166.67 1474.26 Q2171.28 1469.61 2172.46 1468.27 Q2174.71 1465.74 2175.59 1464.01 Q2176.49 1462.25 2176.49 1460.56 Q2176.49 1457.8 2174.54 1456.07 Q2172.62 1454.33 2169.52 1454.33 Q2167.32 1454.33 2164.87 1455.09 Q2162.44 1455.86 2159.66 1457.41 L2159.66 1452.69 Q2162.48 1451.55 2164.94 1450.97 Q2167.39 1450.39 2169.43 1450.39 Q2174.8 1450.39 2177.99 1453.08 Q2181.19 1455.77 2181.19 1460.26 Q2181.19 1462.39 2180.38 1464.31 Q2179.59 1466.2 2177.48 1468.8 Q2176.91 1469.47 2173.8 1472.69 Q2170.7 1475.88 2165.05 1481.64 Z" fill="#000000" fill-rule="nonzero" fill-opacity="1" /><path clip-path="url(#clip360)" d="M2195.22 1481.64 L2211.53 1481.64 L2211.53 1485.58 L2189.59 1485.58 L2189.59 1481.64 Q2192.25 1478.89 2196.84 1474.26 Q2201.44 1469.61 2202.62 1468.27 Q2204.87 1465.74 2205.75 1464.01 Q2206.65 1462.25 2206.65 1460.56 Q2206.65 1457.8 2204.71 1456.07 Q2202.78 1454.33 2199.68 1454.33 Q2197.48 1454.33 2195.03 1455.09 Q2192.6 1455.86 2189.82 1457.41 L2189.82 1452.69 Q2192.65 1451.55 2195.1 1450.97 Q2197.55 1450.39 2199.59 1450.39 Q2204.96 1450.39 2208.15 1453.08 Q2211.35 1455.77 2211.35 1460.26 Q2211.35 1462.39 2210.54 1464.31 Q2209.75 1466.2 2207.65 1468.8 Q2207.07 1469.47 2203.97 1472.69 Q2200.86 1475.88 2195.22 1481.64 Z" fill="#000000" fill-rule="nonzero" fill-opacity="1" /><path clip-path="url(#clip360)" d="M2234.2 1455.09 L2222.39 1473.54 L2234.2 1473.54 L2234.2 1455.09 M2232.97 1451.02 L2238.85 1451.02 L2238.85 1473.54 L2243.78 1473.54 L2243.78 1477.43 L2238.85 1477.43 L2238.85 1485.58 L2234.2 1485.58 L2234.2 1477.43 L2218.59 1477.43 L2218.59 1472.92 L2232.97 1451.02 Z" fill="#000000" fill-rule="nonzero" fill-opacity="1" /><path clip-path="url(#clip360)" d="M1291.88 1565.85 L1291.88 1581.6 L1285.99 1581.6 L1285.99 1532.62 Q1285.99 1518.1 1299.55 1518.1 Q1313.36 1518.1 1313.36 1530.36 Q1313.36 1539.08 1307.89 1542.26 Q1316.8 1545.13 1316.8 1553.63 Q1316.8 1568.71 1301.46 1568.71 Q1294.71 1568.71 1291.88 1565.85 M1291.88 1558.21 Q1295.41 1563.72 1301.68 1563.72 Q1310.85 1563.72 1310.85 1553.72 Q1310.85 1544.75 1296.08 1545.45 L1296.08 1540.03 Q1307.63 1540.03 1307.63 1529.85 Q1307.63 1522.88 1300.18 1522.88 Q1291.88 1522.88 1291.88 1532.81 L1291.88 1558.21 Z" fill="#000000" fill-rule="nonzero" fill-opacity="1" /><polyline clip-path="url(#clip360)" style="stroke:#000000; stroke-linecap:round; stroke-linejoin:round; stroke-width:4; stroke-opacity:1; fill:none" points="250.028,1423.18 250.028,47.2441 "/>
<polyline clip-path="url(#clip360)" style="stroke:#000000; stroke-linecap:round; stroke-linejoin:round; stroke-width:4; stroke-opacity:1; fill:none" points="250.028,1335 268.926,1335 "/>
<polyline clip-path="url(#clip360)" style="stroke:#000000; stroke-linecap:round; stroke-linejoin:round; stroke-width:4; stroke-opacity:1; fill:none" points="250.028,1128.25 268.926,1128.25 "/>
<polyline clip-path="url(#clip360)" style="stroke:#000000; stroke-linecap:round; stroke-linejoin:round; stroke-width:4; stroke-opacity:1; fill:none" points="250.028,921.498 268.926,921.498 "/>
<polyline clip-path="url(#clip360)" style="stroke:#000000; stroke-linecap:round; stroke-linejoin:round; stroke-width:4; stroke-opacity:1; fill:none" points="250.028,714.749 268.926,714.749 "/>
<polyline clip-path="url(#clip360)" style="stroke:#000000; stroke-linecap:round; stroke-linejoin:round; stroke-width:4; stroke-opacity:1; fill:none" points="250.028,508 268.926,508 "/>
<polyline clip-path="url(#clip360)" style="stroke:#000000; stroke-linecap:round; stroke-linejoin:round; stroke-width:4; stroke-opacity:1; fill:none" points="250.028,301.251 268.926,301.251 "/>
<polyline clip-path="url(#clip360)" style="stroke:#000000; stroke-linecap:round; stroke-linejoin:round; stroke-width:4; stroke-opacity:1; fill:none" points="250.028,94.5019 268.926,94.5019 "/>
<path clip-path="url(#clip360)" d="M128.288 1320.8 Q124.677 1320.8 122.848 1324.36 Q121.043 1327.9 121.043 1335.03 Q121.043 1342.14 122.848 1345.7 Q124.677 1349.24 128.288 1349.24 Q131.922 1349.24 133.728 1345.7 Q135.556 1342.14 135.556 1335.03 Q135.556 1327.9 133.728 1324.36 Q131.922 1320.8 128.288 1320.8 M128.288 1317.09 Q134.098 1317.09 137.154 1321.7 Q140.232 1326.28 140.232 1335.03 Q140.232 1343.76 137.154 1348.36 Q134.098 1352.95 128.288 1352.95 Q122.478 1352.95 119.399 1348.36 Q116.343 1343.76 116.343 1335.03 Q116.343 1326.28 119.399 1321.7 Q122.478 1317.09 128.288 1317.09 Z" fill="#000000" fill-rule="nonzero" fill-opacity="1" /><path clip-path="url(#clip360)" d="M148.45 1346.4 L153.334 1346.4 L153.334 1352.28 L148.45 1352.28 L148.45 1346.4 Z" fill="#000000" fill-rule="nonzero" fill-opacity="1" /><path clip-path="url(#clip360)" d="M176.366 1321.79 L164.561 1340.24 L176.366 1340.24 L176.366 1321.79 M175.139 1317.72 L181.019 1317.72 L181.019 1340.24 L185.95 1340.24 L185.95 1344.13 L181.019 1344.13 L181.019 1352.28 L176.366 1352.28 L176.366 1344.13 L160.765 1344.13 L160.765 1339.61 L175.139 1317.72 Z" fill="#000000" fill-rule="nonzero" fill-opacity="1" /><path clip-path="url(#clip360)" d="M197.709 1348.34 L214.028 1348.34 L214.028 1352.28 L192.084 1352.28 L192.084 1348.34 Q194.746 1345.59 199.329 1340.96 Q203.936 1336.3 205.116 1334.96 Q207.362 1332.44 208.241 1330.7 Q209.144 1328.94 209.144 1327.25 Q209.144 1324.5 207.199 1322.76 Q205.278 1321.03 202.176 1321.03 Q199.977 1321.03 197.524 1321.79 Q195.093 1322.55 192.315 1324.11 L192.315 1319.38 Q195.139 1318.25 197.593 1317.67 Q200.047 1317.09 202.084 1317.09 Q207.454 1317.09 210.649 1319.78 Q213.843 1322.46 213.843 1326.95 Q213.843 1329.08 213.033 1331 Q212.246 1332.9 210.139 1335.49 Q209.561 1336.17 206.459 1339.38 Q203.357 1342.58 197.709 1348.34 Z" fill="#000000" fill-rule="nonzero" fill-opacity="1" /><path clip-path="url(#clip360)" d="M127.339 1114.05 Q123.728 1114.05 121.899 1117.61 Q120.093 1121.15 120.093 1128.28 Q120.093 1135.39 121.899 1138.95 Q123.728 1142.49 127.339 1142.49 Q130.973 1142.49 132.779 1138.95 Q134.607 1135.39 134.607 1128.28 Q134.607 1121.15 132.779 1117.61 Q130.973 1114.05 127.339 1114.05 M127.339 1110.34 Q133.149 1110.34 136.204 1114.95 Q139.283 1119.53 139.283 1128.28 Q139.283 1137.01 136.204 1141.62 Q133.149 1146.2 127.339 1146.2 Q121.529 1146.2 118.45 1141.62 Q115.394 1137.01 115.394 1128.28 Q115.394 1119.53 118.45 1114.95 Q121.529 1110.34 127.339 1110.34 Z" fill="#000000" fill-rule="nonzero" fill-opacity="1" /><path clip-path="url(#clip360)" d="M147.501 1139.65 L152.385 1139.65 L152.385 1145.53 L147.501 1145.53 L147.501 1139.65 Z" fill="#000000" fill-rule="nonzero" fill-opacity="1" /><path clip-path="url(#clip360)" d="M175.417 1115.04 L163.612 1133.49 L175.417 1133.49 L175.417 1115.04 M174.19 1110.97 L180.07 1110.97 L180.07 1133.49 L185.001 1133.49 L185.001 1137.38 L180.07 1137.38 L180.07 1145.53 L175.417 1145.53 L175.417 1137.38 L159.815 1137.38 L159.815 1132.87 L174.19 1110.97 Z" fill="#000000" fill-rule="nonzero" fill-opacity="1" /><path clip-path="url(#clip360)" d="M206.899 1126.89 Q210.255 1127.61 212.13 1129.88 Q214.028 1132.15 214.028 1135.48 Q214.028 1140.6 210.51 1143.4 Q206.991 1146.2 200.51 1146.2 Q198.334 1146.2 196.019 1145.76 Q193.727 1145.34 191.274 1144.49 L191.274 1139.97 Q193.218 1141.11 195.533 1141.68 Q197.848 1142.26 200.371 1142.26 Q204.769 1142.26 207.061 1140.53 Q209.375 1138.79 209.375 1135.48 Q209.375 1132.43 207.223 1130.71 Q205.093 1128.98 201.274 1128.98 L197.246 1128.98 L197.246 1125.13 L201.459 1125.13 Q204.908 1125.13 206.737 1123.77 Q208.565 1122.38 208.565 1119.79 Q208.565 1117.12 206.667 1115.71 Q204.792 1114.28 201.274 1114.28 Q199.352 1114.28 197.153 1114.69 Q194.954 1115.11 192.315 1115.99 L192.315 1111.82 Q194.977 1111.08 197.292 1110.71 Q199.63 1110.34 201.69 1110.34 Q207.014 1110.34 210.116 1112.77 Q213.218 1115.18 213.218 1119.3 Q213.218 1122.17 211.574 1124.16 Q209.931 1126.13 206.899 1126.89 Z" fill="#000000" fill-rule="nonzero" fill-opacity="1" /><path clip-path="url(#clip360)" d="M126.205 907.297 Q122.593 907.297 120.765 910.862 Q118.959 914.403 118.959 921.533 Q118.959 928.639 120.765 932.204 Q122.593 935.746 126.205 935.746 Q129.839 935.746 131.644 932.204 Q133.473 928.639 133.473 921.533 Q133.473 914.403 131.644 910.862 Q129.839 907.297 126.205 907.297 M126.205 903.593 Q132.015 903.593 135.07 908.2 Q138.149 912.783 138.149 921.533 Q138.149 930.26 135.07 934.866 Q132.015 939.449 126.205 939.449 Q120.394 939.449 117.316 934.866 Q114.26 930.26 114.26 921.533 Q114.26 912.783 117.316 908.2 Q120.394 903.593 126.205 903.593 Z" fill="#000000" fill-rule="nonzero" fill-opacity="1" /><path clip-path="url(#clip360)" d="M146.366 932.899 L151.251 932.899 L151.251 938.778 L146.366 938.778 L146.366 932.899 Z" fill="#000000" fill-rule="nonzero" fill-opacity="1" /><path clip-path="url(#clip360)" d="M174.283 908.292 L162.477 926.741 L174.283 926.741 L174.283 908.292 M173.056 904.218 L178.936 904.218 L178.936 926.741 L183.866 926.741 L183.866 930.63 L178.936 930.63 L178.936 938.778 L174.283 938.778 L174.283 930.63 L158.681 930.63 L158.681 926.116 L173.056 904.218 Z" fill="#000000" fill-rule="nonzero" fill-opacity="1" /><path clip-path="url(#clip360)" d="M204.445 908.292 L192.639 926.741 L204.445 926.741 L204.445 908.292 M203.218 904.218 L209.098 904.218 L209.098 926.741 L214.028 926.741 L214.028 930.63 L209.098 930.63 L209.098 938.778 L204.445 938.778 L204.445 930.63 L188.843 930.63 L188.843 926.116 L203.218 904.218 Z" fill="#000000" fill-rule="nonzero" fill-opacity="1" /><path clip-path="url(#clip360)" d="M127.686 700.548 Q124.075 700.548 122.246 704.113 Q120.441 707.654 120.441 714.784 Q120.441 721.89 122.246 725.455 Q124.075 728.997 127.686 728.997 Q131.32 728.997 133.126 725.455 Q134.954 721.89 134.954 714.784 Q134.954 707.654 133.126 704.113 Q131.32 700.548 127.686 700.548 M127.686 696.844 Q133.496 696.844 136.552 701.451 Q139.63 706.034 139.63 714.784 Q139.63 723.511 136.552 728.117 Q133.496 732.7 127.686 732.7 Q121.876 732.7 118.797 728.117 Q115.742 723.511 115.742 714.784 Q115.742 706.034 118.797 701.451 Q121.876 696.844 127.686 696.844 Z" fill="#000000" fill-rule="nonzero" fill-opacity="1" /><path clip-path="url(#clip360)" d="M147.848 726.15 L152.732 726.15 L152.732 732.029 L147.848 732.029 L147.848 726.15 Z" fill="#000000" fill-rule="nonzero" fill-opacity="1" /><path clip-path="url(#clip360)" d="M175.764 701.543 L163.959 719.992 L175.764 719.992 L175.764 701.543 M174.538 697.469 L180.417 697.469 L180.417 719.992 L185.348 719.992 L185.348 723.881 L180.417 723.881 L180.417 732.029 L175.764 732.029 L175.764 723.881 L160.163 723.881 L160.163 719.367 L174.538 697.469 Z" fill="#000000" fill-rule="nonzero" fill-opacity="1" /><path clip-path="url(#clip360)" d="M193.125 697.469 L211.482 697.469 L211.482 701.404 L197.408 701.404 L197.408 709.876 Q198.426 709.529 199.445 709.367 Q200.463 709.182 201.482 709.182 Q207.269 709.182 210.649 712.353 Q214.028 715.525 214.028 720.941 Q214.028 726.52 210.556 729.622 Q207.084 732.7 200.764 732.7 Q198.588 732.7 196.32 732.33 Q194.075 731.96 191.667 731.219 L191.667 726.52 Q193.75 727.654 195.973 728.21 Q198.195 728.765 200.672 728.765 Q204.676 728.765 207.014 726.659 Q209.352 724.552 209.352 720.941 Q209.352 717.33 207.014 715.224 Q204.676 713.117 200.672 713.117 Q198.797 713.117 196.922 713.534 Q195.07 713.951 193.125 714.83 L193.125 697.469 Z" fill="#000000" fill-rule="nonzero" fill-opacity="1" /><path clip-path="url(#clip360)" d="M126.529 493.799 Q122.918 493.799 121.089 497.364 Q119.283 500.905 119.283 508.035 Q119.283 515.141 121.089 518.706 Q122.918 522.248 126.529 522.248 Q130.163 522.248 131.968 518.706 Q133.797 515.141 133.797 508.035 Q133.797 500.905 131.968 497.364 Q130.163 493.799 126.529 493.799 M126.529 490.095 Q132.339 490.095 135.394 494.702 Q138.473 499.285 138.473 508.035 Q138.473 516.762 135.394 521.368 Q132.339 525.951 126.529 525.951 Q120.718 525.951 117.64 521.368 Q114.584 516.762 114.584 508.035 Q114.584 499.285 117.64 494.702 Q120.718 490.095 126.529 490.095 Z" fill="#000000" fill-rule="nonzero" fill-opacity="1" /><path clip-path="url(#clip360)" d="M146.691 519.4 L151.575 519.4 L151.575 525.28 L146.691 525.28 L146.691 519.4 Z" fill="#000000" fill-rule="nonzero" fill-opacity="1" /><path clip-path="url(#clip360)" d="M174.607 494.794 L162.802 513.243 L174.607 513.243 L174.607 494.794 M173.38 490.72 L179.26 490.72 L179.26 513.243 L184.19 513.243 L184.19 517.132 L179.26 517.132 L179.26 525.28 L174.607 525.28 L174.607 517.132 L159.005 517.132 L159.005 512.618 L173.38 490.72 Z" fill="#000000" fill-rule="nonzero" fill-opacity="1" /><path clip-path="url(#clip360)" d="M202.5 506.137 Q199.352 506.137 197.5 508.289 Q195.672 510.442 195.672 514.192 Q195.672 517.919 197.5 520.095 Q199.352 522.248 202.5 522.248 Q205.649 522.248 207.477 520.095 Q209.329 517.919 209.329 514.192 Q209.329 510.442 207.477 508.289 Q205.649 506.137 202.5 506.137 M211.783 491.484 L211.783 495.743 Q210.024 494.91 208.218 494.47 Q206.436 494.03 204.676 494.03 Q200.047 494.03 197.593 497.155 Q195.163 500.28 194.815 506.6 Q196.181 504.586 198.241 503.521 Q200.301 502.433 202.778 502.433 Q207.987 502.433 210.996 505.604 Q214.028 508.752 214.028 514.192 Q214.028 519.516 210.88 522.734 Q207.732 525.951 202.5 525.951 Q196.505 525.951 193.334 521.368 Q190.163 516.762 190.163 508.035 Q190.163 499.84 194.051 494.979 Q197.94 490.095 204.491 490.095 Q206.25 490.095 208.033 490.442 Q209.838 490.79 211.783 491.484 Z" fill="#000000" fill-rule="nonzero" fill-opacity="1" /><path clip-path="url(#clip360)" d="M127.593 287.05 Q123.982 287.05 122.154 290.614 Q120.348 294.156 120.348 301.286 Q120.348 308.392 122.154 311.957 Q123.982 315.499 127.593 315.499 Q131.228 315.499 133.033 311.957 Q134.862 308.392 134.862 301.286 Q134.862 294.156 133.033 290.614 Q131.228 287.05 127.593 287.05 M127.593 283.346 Q133.404 283.346 136.459 287.952 Q139.538 292.536 139.538 301.286 Q139.538 310.013 136.459 314.619 Q133.404 319.202 127.593 319.202 Q121.783 319.202 118.705 314.619 Q115.649 310.013 115.649 301.286 Q115.649 292.536 118.705 287.952 Q121.783 283.346 127.593 283.346 Z" fill="#000000" fill-rule="nonzero" fill-opacity="1" /><path clip-path="url(#clip360)" d="M147.755 312.651 L152.64 312.651 L152.64 318.531 L147.755 318.531 L147.755 312.651 Z" fill="#000000" fill-rule="nonzero" fill-opacity="1" /><path clip-path="url(#clip360)" d="M175.672 288.045 L163.866 306.494 L175.672 306.494 L175.672 288.045 M174.445 283.971 L180.325 283.971 L180.325 306.494 L185.255 306.494 L185.255 310.383 L180.325 310.383 L180.325 318.531 L175.672 318.531 L175.672 310.383 L160.07 310.383 L160.07 305.869 L174.445 283.971 Z" fill="#000000" fill-rule="nonzero" fill-opacity="1" /><path clip-path="url(#clip360)" d="M191.806 283.971 L214.028 283.971 L214.028 285.962 L201.482 318.531 L196.598 318.531 L208.403 287.906 L191.806 287.906 L191.806 283.971 Z" fill="#000000" fill-rule="nonzero" fill-opacity="1" /><path clip-path="url(#clip360)" d="M126.783 80.3006 Q123.172 80.3006 121.343 83.8654 Q119.538 87.4071 119.538 94.5367 Q119.538 101.643 121.343 105.208 Q123.172 108.75 126.783 108.75 Q130.417 108.75 132.223 105.208 Q134.052 101.643 134.052 94.5367 Q134.052 87.4071 132.223 83.8654 Q130.417 80.3006 126.783 80.3006 M126.783 76.5969 Q132.593 76.5969 135.649 81.2034 Q138.728 85.7867 138.728 94.5367 Q138.728 103.263 135.649 107.87 Q132.593 112.453 126.783 112.453 Q120.973 112.453 117.894 107.87 Q114.839 103.263 114.839 94.5367 Q114.839 85.7867 117.894 81.2034 Q120.973 76.5969 126.783 76.5969 Z" fill="#000000" fill-rule="nonzero" fill-opacity="1" /><path clip-path="url(#clip360)" d="M146.945 105.902 L151.829 105.902 L151.829 111.782 L146.945 111.782 L146.945 105.902 Z" fill="#000000" fill-rule="nonzero" fill-opacity="1" /><path clip-path="url(#clip360)" d="M174.862 81.296 L163.056 99.745 L174.862 99.745 L174.862 81.296 M173.635 77.2219 L179.514 77.2219 L179.514 99.745 L184.445 99.745 L184.445 103.634 L179.514 103.634 L179.514 111.782 L174.862 111.782 L174.862 103.634 L159.26 103.634 L159.26 99.12 L173.635 77.2219 Z" fill="#000000" fill-rule="nonzero" fill-opacity="1" /><path clip-path="url(#clip360)" d="M202.176 95.37 Q198.843 95.37 196.922 97.1524 Q195.024 98.9348 195.024 102.06 Q195.024 105.185 196.922 106.967 Q198.843 108.75 202.176 108.75 Q205.51 108.75 207.431 106.967 Q209.352 105.162 209.352 102.06 Q209.352 98.9348 207.431 97.1524 Q205.533 95.37 202.176 95.37 M197.5 93.3792 Q194.491 92.6385 192.801 90.5783 Q191.135 88.5182 191.135 85.5552 Q191.135 81.4117 194.075 79.0043 Q197.037 76.5969 202.176 76.5969 Q207.338 76.5969 210.278 79.0043 Q213.218 81.4117 213.218 85.5552 Q213.218 88.5182 211.528 90.5783 Q209.861 92.6385 206.875 93.3792 Q210.255 94.1663 212.13 96.4579 Q214.028 98.7496 214.028 102.06 Q214.028 107.083 210.949 109.768 Q207.894 112.453 202.176 112.453 Q196.459 112.453 193.38 109.768 Q190.325 107.083 190.325 102.06 Q190.325 98.7496 192.223 96.4579 Q194.121 94.1663 197.5 93.3792 M195.787 85.995 Q195.787 88.6802 197.454 90.1848 Q199.144 91.6894 202.176 91.6894 Q205.186 91.6894 206.875 90.1848 Q208.588 88.6802 208.588 85.995 Q208.588 83.3099 206.875 81.8052 Q205.186 80.3006 202.176 80.3006 Q199.144 80.3006 197.454 81.8052 Q195.787 83.3099 195.787 85.995 Z" fill="#000000" fill-rule="nonzero" fill-opacity="1" /><path clip-path="url(#clip360)" d="M33.958 742.548 L55.9834 734.75 L28.3562 723.61 L28.3562 717.404 L64.0042 731.822 L77.5631 731.822 L77.5631 737.679 L64.0042 737.679 L37.3955 747.036 Q33.3851 748.437 33.3851 751.46 L33.3851 753.02 L28.3562 753.02 L28.3562 750.792 Q28.3562 744.522 33.958 742.548 Z" fill="#000000" fill-rule="nonzero" fill-opacity="1" /><circle clip-path="url(#clip361)" cx="1282.04" cy="769.497" r="7.2" fill="#009af9" fill-rule="evenodd" fill-opacity="1" stroke="#000000" stroke-opacity="1" stroke-width="3.2"/>
<polyline clip-path="url(#clip361)" style="stroke:#e26f46; stroke-linecap:round; stroke-linejoin:round; stroke-width:4; stroke-opacity:1; fill:none" points="1845.75,769.497 1846.67,767.93 1847.58,766.363 1848.48,764.796 1849.37,763.229 1850.26,761.662 1851.13,760.095 1852,758.528 1852.86,756.962 1853.71,755.395 1854.55,753.828 1855.38,752.261 1856.2,750.694 1857.02,749.127 1857.82,747.56 1858.62,745.993 1859.41,744.427 1860.19,742.86 1860.96,741.293 1861.72,739.726 1862.47,738.159 1863.22,736.592 1863.95,735.025 1864.68,733.458 1865.4,731.891 1866.11,730.325 1866.81,728.758 1867.5,727.191 1868.18,725.624 1868.85,724.057 1869.52,722.49 1870.18,720.923 1870.82,719.356 1871.46,717.79 1872.09,716.223 1872.71,714.656 1873.32,713.089 1873.93,711.522 1874.52,709.955 1875.11,708.388 1875.68,706.821 1876.25,705.254 1876.81,703.688 1877.36,702.121 1877.9,700.554 1878.43,698.987 1878.95,697.42 1879.47,695.853 1879.97,694.286 1880.47,692.719 1880.96,691.153 1881.43,689.586 1881.9,688.019 1882.36,686.452 1882.81,684.885 1883.25,683.318 1883.69,681.751 1884.11,680.184 1884.52,678.617 1884.93,677.051 1885.32,675.484 1885.71,673.917 1886.09,672.35 1886.46,670.783 1886.81,669.216 1887.16,667.649 1887.5,666.082 1887.83,664.516 1888.15,662.949 1888.47,661.382 1888.77,659.815 1889.06,658.248 1889.34,656.681 1889.62,655.114 1889.88,653.547 1890.14,651.98 1890.38,650.414 1890.62,648.847 1890.84,647.28 1891.06,645.713 1891.27,644.146 1891.46,642.579 1891.65,641.012 1891.83,639.445 1891.99,637.878 1892.15,636.312 1892.3,634.745 1892.43,633.178 1892.56,631.611 1892.68,630.044 1892.79,628.477 1892.88,626.91 1892.97,625.343 1893.05,623.777 1893.11,622.21 1893.17,620.643 1893.21,619.076 1893.25,617.509 1893.27,615.942 1893.29,614.375 1893.29,612.808 1893.28,611.241 1893.27,609.675 1893.24,608.108 1893.2,606.541 1893.15,604.974 1893.09,603.407 1893.02,601.84 1892.93,600.273 1892.84,598.706 1892.73,597.14 1892.62,595.573 1892.49,594.006 1892.35,592.439 1892.2,590.872 1892.04,589.305 1891.87,587.738 1891.68,586.171 1891.49,584.604 1891.28,583.038 1891.06,581.471 1890.83,579.904 1890.58,578.337 1890.33,576.77 1890.06,575.203 1889.78,573.636 1889.49,572.069 1889.18,570.503 1888.87,568.936 1888.54,567.369 1888.2,565.802 1887.84,564.235 1887.48,562.668 1887.1,561.101 1886.7,559.534 1886.3,557.967 1885.88,556.401 1885.44,554.834 1885,553.267 1884.54,551.7 1884.07,550.133 1883.58,548.566 1883.08,546.999 1882.56,545.432 1882.04,543.866 1881.49,542.299 1880.94,540.732 1880.36,539.165 1879.78,537.598 1879.18,536.031 1878.56,534.464 1877.93,532.897 1877.28,531.33 1876.62,529.764 1875.94,528.197 1875.25,526.63 1874.54,525.063 1873.82,523.496 1873.08,521.929 1872.32,520.362 1871.55,518.795 1870.76,517.228 1869.95,515.662 1869.12,514.095 1868.28,512.528 1867.42,510.961 1866.55,509.394 1865.65,507.827 1864.74,506.26 1863.81,504.693 1862.85,503.127 1861.88,501.56 1860.89,499.993 1859.88,498.426 1858.86,496.859 1857.81,495.292 1856.74,493.725 1855.65,492.158 1854.54,490.591 1853.41,489.025 1852.26,487.458 1851.08,485.891 1849.89,484.324 1848.67,482.757 1847.44,481.19 1846.18,479.623 1844.89,478.056 1843.59,476.49 1842.26,474.923 1840.9,473.356 1839.52,471.789 1838.12,470.222 1836.69,468.655 1835.23,467.088 1833.75,465.521 1832.23,463.954 1830.69,462.388 1829.13,460.821 1827.53,459.254 1825.9,457.687 1824.24,456.12 1822.55,454.553 1820.83,452.986 1819.08,451.419 1817.29,449.853 1815.46,448.286 1813.6,446.719 1811.71,445.152 1809.78,443.585 1807.81,442.018 1805.8,440.451 1803.75,438.884 1801.66,437.318 1799.52,435.751 1797.35,434.184 1795.13,432.617 1792.86,431.05 1790.55,429.483 1788.2,427.916 1785.79,426.349 1783.33,424.782 1780.82,423.216 1778.25,421.649 1775.62,420.082 1772.94,418.515 1770.2,416.948 1767.39,415.381 1764.52,413.814 1761.57,412.247 1758.56,410.681 1755.46,409.114 1752.29,407.547 1749.04,405.98 1745.69,404.413 1742.26,402.846 1738.72,401.279 1735.08,399.712 1731.34,398.146 1727.48,396.579 1723.49,395.012 1719.38,393.445 1715.12,391.878 1710.72,390.311 1706.15,388.744 1701.41,387.177 1696.46,385.611 1691.31,384.044 1685.92,382.477 1680.25,380.91 1674.29,379.343 1668.01,377.776 1661.38,376.209 1654.33,374.643 1646.75,373.076 1638.51,371.509 1629.43,369.942 1619.32,368.375 1607.84,366.808 1594.22,365.242 1576.76,363.675 1548.44,362.109 1481.39,362.806 1458.09,364.373 1440.88,365.939 1426.53,367.506 1413.92,369.073 1402.52,370.64 1392.04,372.207 1382.27,373.773 1373.08,375.34 1364.37,376.907 1356.08,378.474 1348.15,380.041 1340.52,381.608 1333.18,383.174 1326.08,384.741 1319.21,386.308 1312.54,387.875 1306.06,389.442 1299.75,391.009 1293.6,392.576 1287.59,394.142 1281.72,395.709 1275.98,397.276 1270.35,398.843 1264.84,400.41 1259.44,401.977 1254.13,403.544 1248.92,405.11 1243.8,406.677 1238.77,408.244 1233.81,409.811 1228.94,411.378 1224.14,412.945 1219.41,414.512 1214.75,416.079 1210.15,417.645 1205.62,419.212 1201.15,420.779 1196.73,422.346 1192.37,423.913 1188.07,425.48 1183.82,427.047 1179.62,428.613 1175.47,430.18 1171.37,431.747 1167.31,433.314 1163.3,434.881 1159.33,436.448 1155.41,438.015 1151.52,439.582 1147.68,441.148 1143.87,442.715 1140.1,444.282 1136.37,445.849 1132.68,447.416 1129.02,448.983 1125.4,450.55 1121.8,452.117 1118.25,453.683 1114.72,455.25 1111.23,456.817 1107.76,458.384 1104.33,459.951 1100.93,461.518 1097.55,463.085 1094.2,464.652 1090.88,466.218 1087.59,467.785 1084.33,469.352 1081.09,470.919 1077.88,472.486 1074.69,474.053 1071.53,475.62 1068.39,477.187 1065.27,478.753 1062.18,480.32 1059.12,481.887 1056.07,483.454 1053.05,485.021 1050.05,486.588 1047.07,488.155 1044.12,489.722 1041.18,491.289 1038.27,492.855 1035.37,494.422 1032.5,495.989 1029.65,497.556 1026.81,499.123 1024,500.69 1021.2,502.257 1018.43,503.824 1015.67,505.39 1012.93,506.957 1010.21,508.524 1007.51,510.091 1004.82,511.658 1002.16,513.225 999.508,514.792 996.876,516.359 994.26,517.925 991.661,519.492 989.079,521.059 986.514,522.626 983.964,524.193 981.431,525.76 978.913,527.327 976.411,528.894 973.925,530.46 971.454,532.027 968.999,533.594 966.558,535.161 964.133,536.728 961.722,538.295 959.326,539.862 956.945,541.429 954.578,542.996 952.225,544.562 949.887,546.129 947.562,547.696 945.252,549.263 942.955,550.83 940.672,552.397 938.402,553.964 936.146,555.531 933.903,557.097 931.674,558.664 929.458,560.231 927.254,561.798 925.064,563.365 922.887,564.932 920.722,566.499 918.57,568.066 916.43,569.632 914.303,571.199 912.188,572.766 910.086,574.333 907.996,575.9 905.917,577.467 903.851,579.034 901.797,580.601 899.755,582.168 897.725,583.734 895.706,585.301 893.699,586.868 891.703,588.435 889.72,590.002 887.747,591.569 885.786,593.136 883.836,594.703 881.898,596.269 879.97,597.836 878.054,599.403 876.149,600.97 874.255,602.537 872.372,604.104 870.5,605.671 868.638,607.238 866.788,608.804 864.948,610.371 863.119,611.938 861.3,613.505 859.492,615.072 857.695,616.639 855.908,618.206 854.131,619.773 852.365,621.34 850.609,622.906 848.864,624.473 847.128,626.04 845.403,627.607 843.688,629.174 841.983,630.741 840.288,632.308 838.604,633.875 836.929,635.441 835.264,637.008 833.609,638.575 831.964,640.142 830.329,641.709 828.704,643.276 827.088,644.843 825.482,646.41 823.886,647.977 822.3,649.543 820.723,651.11 819.156,652.677 817.598,654.244 816.05,655.811 814.511,657.378 812.982,658.945 811.463,660.512 809.953,662.078 808.452,663.645 806.961,665.212 805.479,666.779 804.006,668.346 802.543,669.913 801.089,671.48 799.644,673.047 798.209,674.614 796.782,676.18 795.365,677.747 793.957,679.314 792.559,680.881 791.169,682.448 789.789,684.015 788.418,685.582 787.055,687.149 785.702,688.715 784.358,690.282 783.023,691.849 781.697,693.416 780.38,694.983 779.072,696.55 777.773,698.117 776.483,699.684 775.202,701.251 773.929,702.817 772.666,704.384 771.412,705.951 770.166,707.518 768.93,709.085 767.702,710.652 766.483,712.219 765.273,713.786 764.072,715.352 762.88,716.919 761.696,718.486 760.521,720.053 759.356,721.62 758.198,723.187 757.05,724.754 755.911,726.321 754.78,727.888 753.658,729.454 752.545,731.021 751.441,732.588 750.345,734.155 749.259,735.722 748.181,737.289 747.111,738.856 746.051,740.423 744.999,741.989 743.956,743.556 742.922,745.123 741.896,746.69 740.88,748.257 739.872,749.824 738.872,751.391 737.882,752.958 736.9,754.525 735.927,756.091 734.963,757.658 734.008,759.225 733.061,760.792 732.123,762.359 731.194,763.926 730.273,765.493 729.362,767.06 728.459,768.626 727.565,770.193 726.68,771.76 725.803,773.327 724.936,774.894 724.077,776.461 723.227,778.028 722.386,779.595 721.553,781.162 720.73,782.728 719.915,784.295 719.11,785.862 718.313,787.429 717.525,788.996 716.746,790.563 715.975,792.13 715.214,793.697 714.462,795.263 713.719,796.83 712.984,798.397 712.259,799.964 711.542,801.531 710.835,803.098 710.136,804.665 709.447,806.232 708.767,807.799 708.096,809.365 707.433,810.932 706.78,812.499 706.136,814.066 705.502,815.633 704.876,817.2 704.259,818.767 703.652,820.334 703.054,821.9 702.465,823.467 701.886,825.034 701.315,826.601 700.755,828.168 700.203,829.735 699.661,831.302 699.129,832.869 698.605,834.436 698.092,836.002 697.587,837.569 697.092,839.136 696.607,840.703 696.131,842.27 695.665,843.837 695.208,845.404 694.761,846.971 694.324,848.537 693.896,850.104 693.478,851.671 693.07,853.238 692.671,854.805 692.282,856.372 691.903,857.939 691.534,859.506 691.174,861.073 690.825,862.639 690.485,864.206 690.155,865.773 689.836,867.34 689.526,868.907 689.227,870.474 688.938,872.041 688.658,873.608 688.39,875.174 688.131,876.741 687.883,878.308 687.645,879.875 687.417,881.442 687.2,883.009 686.993,884.576 686.797,886.143 686.612,887.71 686.437,889.276 686.273,890.843 686.119,892.41 685.977,893.977 685.845,895.544 685.724,897.111 685.615,898.678 685.516,900.245 685.428,901.812 685.352,903.378 685.287,904.945 685.233,906.512 685.19,908.079 685.159,909.646 685.14,911.213 685.132,912.78 685.135,914.347 685.151,915.913 685.178,917.48 685.217,919.047 685.267,920.614 685.33,922.181 685.405,923.748 685.492,925.315 685.591,926.882 685.703,928.449 685.827,930.015 685.963,931.582 686.112,933.149 686.274,934.716 686.448,936.283 686.635,937.85 686.835,939.417 687.048,940.984 687.274,942.55 687.513,944.117 687.765,945.684 688.03,947.251 688.309,948.818 688.602,950.385 688.908,951.952 689.228,953.519 689.561,955.086 689.909,956.652 690.27,958.219 690.646,959.786 691.036,961.353 691.442,962.92 691.862,964.487 692.297,966.054 692.747,967.621 693.212,969.187 693.693,970.754 694.188,972.321 694.699,973.888 695.226,975.455 695.767,977.022 696.325,978.589 696.898,980.156 697.487,981.723 698.092,983.289 698.714,984.856 699.351,986.423 700.006,987.99 700.677,989.557 701.364,991.124 702.069,992.691 702.791,994.258 703.531,995.824 704.288,997.391 705.064,998.958 705.857,1000.53 706.669,1002.09 707.499,1003.66 708.349,1005.23 709.217,1006.79 710.105,1008.36 711.013,1009.93 711.94,1011.49 712.888,1013.06 713.857,1014.63 714.846,1016.19 715.857,1017.76 716.889,1019.33 717.943,1020.89 719.019,1022.46 720.118,1024.03 721.24,1025.6 722.385,1027.16 723.554,1028.73 724.747,1030.3 725.964,1031.86 727.207,1033.43 728.474,1035 729.768,1036.56 731.087,1038.13 732.433,1039.7 733.806,1041.26 735.206,1042.83 736.635,1044.4 738.091,1045.96 739.577,1047.53 741.092,1049.1 742.636,1050.67 744.211,1052.23 745.817,1053.8 747.454,1055.37 749.123,1056.93 750.825,1058.5 752.559,1060.07 754.327,1061.63 756.131,1063.2 757.972,1064.77 759.849,1066.33 761.764,1067.9 763.717,1069.47 765.71,1071.03 767.743,1072.6 769.817,1074.17 771.934,1075.74 774.094,1077.3 776.299,1078.87 778.55,1080.44 780.849,1082 783.198,1083.57 785.598,1085.14 788.05,1086.7 790.557,1088.27 793.12,1089.84 795.742,1091.4 798.425,1092.97 801.17,1094.54 803.98,1096.1 806.858,1097.67 809.806,1099.24 812.825,1100.81 815.92,1102.37 819.094,1103.94 822.352,1105.51 825.696,1107.07 829.13,1108.64 832.658,1110.21 836.287,1111.77 840.02,1113.34 843.866,1114.91 847.831,1116.47 851.924,1118.04 856.153,1119.61 860.527,1121.17 865.057,1122.74 869.754,1124.31 874.632,1125.88 879.711,1127.44 885.002,1129.01 890.522,1130.58 896.297,1132.14 902.362,1133.71 908.759,1135.28 915.538,1136.84 922.758,1138.41 930.488,1139.98 938.814,1141.54 947.886,1143.11 957.957,1144.68 969.253,1146.24 982.167,1147.81 998.167,1149.38 1020.28,1150.94 1088.6,1151.81 1121.84,1150.25 1142.31,1148.68 1158.62,1147.11 1172.63,1145.55 1185.12,1143.98 1196.51,1142.41 1207.06,1140.85 1216.92,1139.28 1226.23,1137.71 1235.07,1136.15 1243.5,1134.58 1251.58,1133.01 1259.35,1131.45 1266.84,1129.88 1274.08,1128.31 1281.09,1126.74 1287.9,1125.18 1294.52,1123.61 1300.96,1122.04 1307.24,1120.48 1313.38,1118.91 1319.37,1117.34 1325.23,1115.78 1330.97,1114.21 1336.59,1112.64 1342.1,1111.08 1347.51,1109.51 1352.82,1107.94 1358.04,1106.38 1363.17,1104.81 1368.21,1103.24 1373.18,1101.68 1378.06,1100.11 1382.87,1098.54 1387.61,1096.97 1392.28,1095.41 1396.89,1093.84 1401.43,1092.27 1405.91,1090.71 1410.33,1089.14 1414.69,1087.57 1419,1086.01 1423.25,1084.44 1427.45,1082.87 1431.61,1081.31 1435.71,1079.74 1439.77,1078.17 1443.78,1076.61 1447.74,1075.04 1451.67,1073.47 1455.55,1071.9 1459.38,1070.34 1463.18,1068.77 1466.94,1067.2 1470.66,1065.64 1474.34,1064.07 1477.99,1062.5 1481.6,1060.94 1485.18,1059.37 1488.72,1057.8 1492.23,1056.24 1495.71,1054.67 1499.15,1053.1 1502.56,1051.54 1505.94,1049.97 1509.3,1048.4 1512.62,1046.83 1515.91,1045.27 1519.18,1043.7 1522.41,1042.13 1525.62,1040.57 1528.8,1039 1531.96,1037.43 1535.09,1035.87 1538.19,1034.3 1541.27,1032.73 1544.33,1031.17 1547.36,1029.6 1550.36,1028.03 1553.35,1026.47 1556.31,1024.9 1559.24,1023.33 1562.16,1021.76 1565.05,1020.2 1567.92,1018.63 1570.76,1017.06 1573.59,1015.5 1576.4,1013.93 1579.18,1012.36 1581.94,1010.8 1584.69,1009.23 1587.41,1007.66 1590.12,1006.1 1592.8,1004.53 1595.47,1002.96 1598.11,1001.4 1600.74,999.828 1603.35,998.261 1605.94,996.694 1608.51,995.128 1611.07,993.561 1613.61,991.994 1616.13,990.427 1618.63,988.86 1621.11,987.293 1623.58,985.726 1626.03,984.159 1628.47,982.593 1630.89,981.026 1633.29,979.459 1635.68,977.892 1638.05,976.325 1640.4,974.758 1642.74,973.191 1645.06,971.624 1647.37,970.058 1649.67,968.491 1651.94,966.924 1654.21,965.357 1656.45,963.79 1658.69,962.223 1660.91,960.656 1663.11,959.089 1665.3,957.522 1667.48,955.956 1669.64,954.389 1671.79,952.822 1673.92,951.255 1676.04,949.688 1678.15,948.121 1680.24,946.554 1682.32,944.987 1684.39,943.421 1686.44,941.854 1688.48,940.287 1690.51,938.72 1692.52,937.153 1694.53,935.586 1696.51,934.019 1698.49,932.452 1700.45,930.885 1702.41,929.319 1704.34,927.752 1706.27,926.185 1708.18,924.618 1710.09,923.051 1711.98,921.484 1713.85,919.917 1715.72,918.35 1717.57,916.784 1719.42,915.217 1721.25,913.65 1723.06,912.083 1724.87,910.516 1726.67,908.949 1728.45,907.382 1730.22,905.815 1731.99,904.249 1733.74,902.682 1735.47,901.115 1737.2,899.548 1738.92,897.981 1740.63,896.414 1742.32,894.847 1744,893.28 1745.68,891.713 1747.34,890.147 1748.99,888.58 1750.63,887.013 1752.26,885.446 1753.88,883.879 1755.49,882.312 1757.09,880.745 1758.67,879.178 1760.25,877.612 1761.82,876.045 1763.37,874.478 1764.92,872.911 1766.46,871.344 1767.98,869.777 1769.5,868.21 1771,866.643 1772.5,865.076 1773.98,863.51 1775.46,861.943 1776.92,860.376 1778.38,858.809 1779.82,857.242 1781.26,855.675 1782.68,854.108 1784.1,852.541 1785.51,850.975 1786.9,849.408 1788.29,847.841 1789.67,846.274 1791.03,844.707 1792.39,843.14 1793.74,841.573 1795.08,840.006 1796.41,838.439 1797.73,836.873 1799.03,835.306 1800.34,833.739 1801.63,832.172 1802.91,830.605 1804.18,829.038 1805.44,827.471 1806.7,825.904 1807.94,824.338 1809.17,822.771 1810.4,821.204 1811.62,819.637 1812.82,818.07 1814.02,816.503 1815.21,814.936 1816.39,813.369 1817.56,811.802 1818.72,810.236 1819.87,808.669 1821.02,807.102 1822.15,805.535 1823.27,803.968 1824.39,802.401 1825.5,800.834 1826.59,799.267 1827.68,797.701 1828.76,796.134 1829.83,794.567 1830.9,793 1831.95,791.433 1832.99,789.866 1834.03,788.299 1835.05,786.732 1836.07,785.165 1837.08,783.599 1838.08,782.032 1839.07,780.465 1840.05,778.898 1841.02,777.331 1841.99,775.764 1842.94,774.197 1843.89,772.63 1844.83,771.064 1845.75,769.497 "/>
<polyline clip-path="url(#clip361)" style="stroke:#3da44d; stroke-linecap:round; stroke-linejoin:round; stroke-width:4; stroke-opacity:1; fill:none" points="2212.53,769.497 2213.93,767.132 2215.33,764.768 2216.7,762.403 2218.07,760.039 2219.43,757.675 2220.77,755.31 2222.1,752.946 2223.42,750.581 2224.72,748.217 2226.02,745.853 2227.3,743.488 2228.57,741.124 2229.83,738.759 2231.07,736.395 2232.3,734.031 2233.53,731.666 2234.73,729.302 2235.93,726.937 2237.12,724.573 2238.29,722.209 2239.45,719.844 2240.6,717.48 2241.73,715.115 2242.86,712.751 2243.97,710.386 2245.07,708.022 2246.16,705.658 2247.23,703.293 2248.3,700.929 2249.35,698.564 2250.39,696.2 2251.42,693.836 2252.43,691.471 2253.44,689.107 2254.43,686.742 2255.41,684.378 2256.37,682.014 2257.33,679.649 2258.27,677.285 2259.2,674.92 2260.12,672.556 2261.03,670.192 2261.92,667.827 2262.8,665.463 2263.67,663.098 2264.53,660.734 2265.38,658.369 2266.21,656.005 2267.03,653.641 2267.84,651.276 2268.64,648.912 2269.42,646.547 2270.19,644.183 2270.95,641.819 2271.7,639.454 2272.43,637.09 2273.16,634.725 2273.87,632.361 2274.57,629.997 2275.25,627.632 2275.93,625.268 2276.59,622.903 2277.24,620.539 2277.87,618.175 2278.5,615.81 2279.11,613.446 2279.71,611.081 2280.29,608.717 2280.87,606.352 2281.43,603.988 2281.98,601.624 2282.51,599.259 2283.04,596.895 2283.55,594.53 2284.04,592.166 2284.53,589.802 2285,587.437 2285.46,585.073 2285.91,582.708 2286.34,580.344 2286.76,577.98 2287.17,575.615 2287.57,573.251 2287.95,570.886 2288.32,568.522 2288.68,566.158 2289.02,563.793 2289.35,561.429 2289.67,559.064 2289.97,556.7 2290.26,554.336 2290.54,551.971 2290.81,549.607 2291.06,547.242 2291.29,544.878 2291.52,542.513 2291.73,540.149 2291.93,537.785 2292.11,535.42 2292.28,533.056 2292.44,530.691 2292.58,528.327 2292.71,525.963 2292.82,523.598 2292.93,521.234 2293.01,518.869 2293.09,516.505 2293.15,514.141 2293.19,511.776 2293.22,509.412 2293.24,507.047 2293.24,504.683 2293.23,502.319 2293.21,499.954 2293.17,497.59 2293.11,495.225 2293.05,492.861 2292.96,490.496 2292.86,488.132 2292.75,485.768 2292.62,483.403 2292.48,481.039 2292.33,478.674 2292.15,476.31 2291.97,473.946 2291.76,471.581 2291.55,469.217 2291.32,466.852 2291.07,464.488 2290.8,462.124 2290.53,459.759 2290.23,457.395 2289.92,455.03 2289.6,452.666 2289.25,450.302 2288.9,447.937 2288.52,445.573 2288.13,443.208 2287.73,440.844 2287.3,438.479 2286.87,436.115 2286.41,433.751 2285.94,431.386 2285.45,429.022 2284.94,426.657 2284.42,424.293 2283.88,421.929 2283.33,419.564 2282.75,417.2 2282.16,414.835 2281.55,412.471 2280.92,410.107 2280.28,407.742 2279.62,405.378 2278.94,403.013 2278.24,400.649 2277.52,398.285 2276.79,395.92 2276.03,393.556 2275.26,391.191 2274.47,388.827 2273.66,386.462 2272.83,384.098 2271.98,381.734 2271.11,379.369 2270.22,377.005 2269.31,374.64 2268.38,372.276 2267.44,369.912 2266.47,367.547 2265.48,365.183 2264.47,362.818 2263.43,360.454 2262.38,358.09 2261.31,355.725 2260.21,353.361 2259.1,350.996 2257.96,348.632 2256.8,346.268 2255.62,343.903 2254.41,341.539 2253.18,339.174 2251.93,336.81 2250.66,334.446 2249.36,332.081 2248.04,329.717 2246.7,327.352 2245.33,324.988 2243.94,322.623 2242.52,320.259 2241.07,317.895 2239.6,315.53 2238.11,313.166 2236.59,310.801 2235.04,308.437 2233.47,306.073 2231.87,303.708 2230.24,301.344 2228.58,298.979 2226.89,296.615 2225.18,294.251 2223.44,291.886 2221.66,289.522 2219.86,287.157 2218.03,284.793 2216.16,282.429 2214.27,280.064 2212.34,277.7 2210.38,275.335 2208.38,272.971 2206.36,270.607 2204.3,268.242 2202.2,265.878 2200.08,263.513 2197.91,261.149 2195.71,258.784 2193.47,256.42 2191.2,254.056 2188.89,251.691 2186.54,249.327 2184.15,246.962 2181.71,244.598 2179.24,242.234 2176.72,239.869 2174.16,237.505 2171.56,235.14 2168.92,232.776 2166.23,230.412 2163.49,228.047 2160.71,225.683 2157.88,223.318 2155.01,220.954 2152.08,218.59 2149.11,216.225 2146.08,213.861 2143,211.496 2139.86,209.132 2136.67,206.768 2133.42,204.403 2130.11,202.039 2126.74,199.674 2123.3,197.31 2119.8,194.946 2116.23,192.581 2112.59,190.217 2108.87,187.852 2105.08,185.488 2101.21,183.124 2097.26,180.759 2093.23,178.395 2089.11,176.03 2084.9,173.666 2080.6,171.301 2076.2,168.937 2071.71,166.573 2067.11,164.208 2062.4,161.844 2057.59,159.479 2052.66,157.115 2047.61,154.751 2042.43,152.386 2037.12,150.022 2031.66,147.658 2026.06,145.293 2020.29,142.929 2014.35,140.564 2008.23,138.2 2001.91,135.836 1995.39,133.471 1988.67,131.107 1981.72,128.742 1974.52,126.378 1967.04,124.014 1959.27,121.649 1951.15,119.285 1942.66,116.92 1933.75,114.556 1924.36,112.192 1914.44,109.827 1903.94,107.463 1892.73,105.099 1880.71,102.734 1867.68,100.37 1853.35,98.0056 1837.34,95.6413 1819.01,93.277 1797.07,90.9128 1768.46,88.5487 1714.53,86.1857 1618.86,88.084 1585.28,90.4479 1559.65,92.8121 1538,95.1763 1518.86,97.5405 1501.5,99.9048 1485.48,102.269 1470.52,104.633 1456.43,106.998 1443.06,109.362 1430.31,111.726 1418.1,114.091 1406.37,116.455 1395.05,118.82 1384.1,121.184 1373.5,123.548 1363.2,125.913 1353.19,128.277 1343.43,130.641 1333.92,133.006 1324.63,135.37 1315.54,137.734 1306.65,140.099 1297.94,142.463 1289.4,144.828 1281.02,147.192 1272.79,149.556 1264.7,151.921 1256.76,154.285 1248.94,156.65 1241.25,159.014 1233.67,161.378 1226.21,163.743 1218.86,166.107 1211.6,168.471 1204.45,170.836 1197.4,173.2 1190.43,175.565 1183.56,177.929 1176.77,180.293 1170.06,182.658 1163.43,185.022 1156.88,187.387 1150.41,189.751 1144,192.115 1137.67,194.48 1131.41,196.844 1125.21,199.209 1119.07,201.573 1113,203.937 1106.98,206.302 1101.03,208.666 1095.13,211.03 1089.29,213.395 1083.51,215.759 1077.78,218.124 1072.1,220.488 1066.47,222.852 1060.89,225.217 1055.36,227.581 1049.87,229.946 1044.43,232.31 1039.04,234.674 1033.69,237.039 1028.39,239.403 1023.13,241.768 1017.91,244.132 1012.73,246.496 1007.59,248.861 1002.5,251.225 997.436,253.59 992.414,255.954 987.43,258.318 982.482,260.683 977.571,263.047 972.695,265.412 967.854,267.776 963.047,270.14 958.274,272.505 953.535,274.869 948.828,277.234 944.153,279.598 939.51,281.962 934.898,284.327 930.318,286.691 925.767,289.056 921.247,291.42 916.756,293.784 912.294,296.149 907.861,298.513 903.456,300.878 899.079,303.242 894.729,305.606 890.407,307.971 886.112,310.335 881.843,312.7 877.601,315.064 873.384,317.428 869.193,319.793 865.027,322.157 860.887,324.522 856.771,326.886 852.679,329.25 848.612,331.615 844.568,333.979 840.548,336.344 836.552,338.708 832.579,341.072 828.628,343.437 824.7,345.801 820.795,348.166 816.912,350.53 813.051,352.894 809.211,355.259 805.393,357.623 801.597,359.988 797.822,362.352 794.067,364.716 790.333,367.081 786.62,369.445 782.928,371.81 779.255,374.174 775.603,376.538 771.97,378.903 768.357,381.267 764.764,383.632 761.19,385.996 757.635,388.36 754.099,390.725 750.582,393.089 747.084,395.454 743.605,397.818 740.144,400.183 736.701,402.547 733.277,404.911 729.87,407.276 726.482,409.64 723.111,412.005 719.758,414.369 716.423,416.733 713.105,419.098 709.804,421.462 706.521,423.827 703.255,426.191 700.005,428.555 696.773,430.92 693.557,433.284 690.358,435.649 687.175,438.013 684.009,440.377 680.859,442.742 677.726,445.106 674.608,447.471 671.507,449.835 668.422,452.199 665.352,454.564 662.298,456.928 659.26,459.293 656.238,461.657 653.231,464.021 650.24,466.386 647.263,468.75 644.303,471.115 641.357,473.479 638.427,475.843 635.511,478.208 632.611,480.572 629.725,482.937 626.855,485.301 623.999,487.665 621.158,490.03 618.331,492.394 615.519,494.759 612.722,497.123 609.939,499.488 607.17,501.852 604.416,504.216 601.676,506.581 598.95,508.945 596.239,511.31 593.541,513.674 590.858,516.038 588.188,518.403 585.532,520.767 582.891,523.132 580.263,525.496 577.649,527.86 575.048,530.225 572.461,532.589 569.888,534.954 567.329,537.318 564.783,539.682 562.25,542.047 559.731,544.411 557.225,546.776 554.733,549.14 552.254,551.504 549.788,553.869 547.335,556.233 544.896,558.598 542.47,560.962 540.057,563.326 537.657,565.691 535.27,568.055 532.896,570.42 530.535,572.784 528.187,575.149 525.852,577.513 523.53,579.877 521.22,582.242 518.924,584.606 516.64,586.971 514.369,589.335 512.111,591.699 509.865,594.064 507.633,596.428 505.412,598.793 503.205,601.157 501.01,603.521 498.828,605.886 496.658,608.25 494.5,610.615 492.356,612.979 490.223,615.343 488.103,617.708 485.996,620.072 483.901,622.437 481.819,624.801 479.748,627.165 477.69,629.53 475.645,631.894 473.612,634.259 471.591,636.623 469.582,638.987 467.586,641.352 465.602,643.716 463.63,646.081 461.671,648.445 459.723,650.81 457.788,653.174 455.865,655.538 453.954,657.903 452.056,660.267 450.169,662.632 448.295,664.996 446.433,667.36 444.583,669.725 442.745,672.089 440.919,674.454 439.106,676.818 437.304,679.182 435.515,681.547 433.737,683.911 431.972,686.276 430.219,688.64 428.478,691.004 426.748,693.369 425.031,695.733 423.326,698.098 421.634,700.462 419.953,702.826 418.284,705.191 416.627,707.555 414.982,709.92 413.35,712.284 411.729,714.649 410.121,717.013 408.524,719.377 406.94,721.742 405.367,724.106 403.807,726.471 402.259,728.835 400.722,731.199 399.198,733.564 397.686,735.928 396.186,738.293 394.698,740.657 393.222,743.021 391.759,745.386 390.307,747.75 388.868,750.115 387.44,752.479 386.025,754.843 384.622,757.208 383.231,759.572 381.852,761.937 380.485,764.301 379.131,766.665 377.789,769.03 376.458,771.394 375.141,773.759 373.835,776.123 372.541,778.488 371.26,780.852 369.991,783.216 368.735,785.581 367.49,787.945 366.258,790.31 365.039,792.674 363.832,795.038 362.637,797.403 361.454,799.767 360.284,802.132 359.126,804.496 357.981,806.86 356.848,809.225 355.728,811.589 354.62,813.954 353.524,816.318 352.442,818.682 351.371,821.047 350.314,823.411 349.269,825.776 348.236,828.14 347.217,830.505 346.21,832.869 345.216,835.233 344.234,837.598 343.266,839.962 342.31,842.327 341.367,844.691 340.437,847.055 339.52,849.42 338.616,851.784 337.725,854.149 336.847,856.513 335.981,858.877 335.129,861.242 334.29,863.606 333.464,865.971 332.651,868.335 331.852,870.699 331.065,873.064 330.292,875.428 329.532,877.793 328.785,880.157 328.052,882.522 327.332,884.886 326.625,887.25 325.932,889.615 325.253,891.979 324.587,894.344 323.934,896.708 323.295,899.072 322.67,901.437 322.059,903.801 321.462,906.166 320.878,908.53 320.308,910.894 319.752,913.259 319.21,915.623 318.683,917.988 318.169,920.352 317.669,922.716 317.184,925.081 316.713,927.445 316.256,929.81 315.814,932.174 315.386,934.538 314.972,936.903 314.573,939.267 314.189,941.632 313.82,943.996 313.465,946.361 313.125,948.725 312.8,951.089 312.49,953.454 312.195,955.818 311.915,958.183 311.65,960.547 311.401,962.911 311.166,965.276 310.948,967.64 310.744,970.005 310.557,972.369 310.384,974.733 310.228,977.098 310.087,979.462 309.962,981.827 309.853,984.191 309.761,986.555 309.684,988.92 309.623,991.284 309.579,993.649 309.551,996.013 309.539,998.378 309.544,1000.74 309.566,1003.11 309.604,1005.47 309.659,1007.84 309.731,1010.2 309.82,1012.56 309.927,1014.93 310.05,1017.29 310.19,1019.66 310.348,1022.02 310.524,1024.39 310.717,1026.75 310.927,1029.11 311.156,1031.48 311.404,1033.84 311.669,1036.21 311.953,1038.57 312.255,1040.94 312.576,1043.3 312.915,1045.67 313.274,1048.03 313.651,1050.39 314.047,1052.76 314.462,1055.12 314.896,1057.49 315.349,1059.85 315.822,1062.22 316.315,1064.58 316.827,1066.95 317.359,1069.31 317.912,1071.67 318.484,1074.04 319.076,1076.4 319.69,1078.77 320.323,1081.13 320.978,1083.5 321.654,1085.86 322.351,1088.23 323.069,1090.59 323.809,1092.95 324.571,1095.32 325.355,1097.68 326.161,1100.05 326.989,1102.41 327.84,1104.78 328.714,1107.14 329.612,1109.5 330.532,1111.87 331.476,1114.23 332.444,1116.6 333.437,1118.96 334.453,1121.33 335.495,1123.69 336.561,1126.06 337.652,1128.42 338.769,1130.78 339.912,1133.15 341.081,1135.51 342.276,1137.88 343.497,1140.24 344.746,1142.61 346.022,1144.97 347.326,1147.34 348.657,1149.7 350.017,1152.06 351.405,1154.43 352.823,1156.79 354.269,1159.16 355.746,1161.52 357.252,1163.89 358.788,1166.25 360.355,1168.61 361.954,1170.98 363.583,1173.34 365.245,1175.71 366.938,1178.07 368.665,1180.44 370.424,1182.8 372.216,1185.17 374.043,1187.53 375.904,1189.89 377.801,1192.26 379.736,1194.62 381.708,1196.99 383.719,1199.35 385.767,1201.72 387.853,1204.08 389.977,1206.45 392.141,1208.81 394.344,1211.17 396.586,1213.54 398.869,1215.9 401.193,1218.27 403.559,1220.63 405.967,1223 408.419,1225.36 410.914,1227.73 413.455,1230.09 416.042,1232.45 418.676,1234.82 421.358,1237.18 424.089,1239.55 426.871,1241.91 429.704,1244.28 432.591,1246.64 435.532,1249 438.529,1251.37 441.584,1253.73 444.698,1256.1 447.872,1258.46 451.109,1260.83 454.41,1263.19 457.777,1265.56 461.212,1267.92 464.716,1270.28 468.292,1272.65 471.942,1275.01 475.667,1277.38 479.471,1279.74 483.355,1282.11 487.321,1284.47 491.372,1286.84 495.51,1289.2 499.738,1291.56 504.058,1293.93 508.473,1296.29 512.985,1298.66 517.597,1301.02 522.315,1303.39 527.145,1305.75 532.091,1308.11 537.159,1310.48 542.353,1312.84 547.681,1315.21 553.147,1317.57 558.76,1319.94 564.534,1322.3 570.476,1324.67 576.589,1327.03 582.878,1329.39 589.351,1331.76 596.019,1334.12 602.896,1336.49 610.001,1338.85 617.353,1341.22 624.976,1343.58 632.897,1345.95 641.144,1348.31 649.751,1350.67 658.753,1353.04 668.189,1355.4 678.1,1357.77 688.535,1360.13 699.585,1362.5 711.332,1364.86 723.901,1367.22 737.48,1369.59 752.317,1371.95 768.734,1374.32 787.277,1376.68 808.972,1379.05 835.635,1381.41 874.276,1383.77 988.434,1384.24 1034.64,1381.87 1065.71,1379.51 1090.91,1377.15 1112.74,1374.78 1132.29,1372.42 1150.16,1370.05 1166.74,1367.69 1182.28,1365.33 1196.95,1362.96 1210.89,1360.6 1224.2,1358.23 1236.96,1355.87 1249.24,1353.5 1261.07,1351.14 1272.52,1348.77 1283.61,1346.41 1294.38,1344.05 1304.85,1341.68 1315.04,1339.32 1324.98,1336.95 1334.69,1334.59 1344.17,1332.22 1353.45,1329.86 1362.54,1327.5 1371.44,1325.13 1380.16,1322.77 1388.73,1320.4 1397.14,1318.04 1405.4,1315.67 1413.52,1313.31 1421.5,1310.94 1429.36,1308.58 1437.1,1306.22 1444.72,1303.85 1452.22,1301.49 1459.62,1299.12 1466.91,1296.76 1474.1,1294.39 1481.2,1292.03 1488.2,1289.67 1495.11,1287.3 1501.94,1284.94 1508.68,1282.57 1515.33,1280.21 1521.91,1277.84 1528.41,1275.48 1534.84,1273.11 1541.19,1270.75 1547.48,1268.39 1553.69,1266.02 1559.84,1263.66 1565.92,1261.29 1571.94,1258.93 1577.9,1256.56 1583.79,1254.2 1589.63,1251.84 1595.41,1249.47 1601.13,1247.11 1606.8,1244.74 1612.42,1242.38 1617.98,1240.01 1623.49,1237.65 1628.95,1235.28 1634.36,1232.92 1639.73,1230.56 1645.04,1228.19 1650.31,1225.83 1655.53,1223.46 1660.71,1221.1 1665.84,1218.73 1670.93,1216.37 1675.98,1214 1680.99,1211.64 1685.96,1209.28 1690.88,1206.91 1695.77,1204.55 1700.62,1202.18 1705.42,1199.82 1710.2,1197.45 1714.93,1195.09 1719.63,1192.73 1724.29,1190.36 1728.92,1188 1733.51,1185.63 1738.06,1183.27 1742.59,1180.9 1747.08,1178.54 1751.53,1176.17 1755.96,1173.81 1760.35,1171.45 1764.71,1169.08 1769.04,1166.72 1773.34,1164.35 1777.61,1161.99 1781.84,1159.62 1786.05,1157.26 1790.23,1154.89 1794.38,1152.53 1798.5,1150.17 1802.6,1147.8 1806.66,1145.44 1810.7,1143.07 1814.71,1140.71 1818.7,1138.34 1822.65,1135.98 1826.58,1133.62 1830.49,1131.25 1834.37,1128.89 1838.22,1126.52 1842.05,1124.16 1845.85,1121.79 1849.63,1119.43 1853.39,1117.06 1857.12,1114.7 1860.82,1112.34 1864.5,1109.97 1868.16,1107.61 1871.8,1105.24 1875.41,1102.88 1879,1100.51 1882.56,1098.15 1886.11,1095.78 1889.63,1093.42 1893.13,1091.06 1896.61,1088.69 1900.06,1086.33 1903.5,1083.96 1906.91,1081.6 1910.3,1079.23 1913.67,1076.87 1917.02,1074.51 1920.35,1072.14 1923.66,1069.78 1926.95,1067.41 1930.22,1065.05 1933.47,1062.68 1936.7,1060.32 1939.9,1057.95 1943.09,1055.59 1946.26,1053.23 1949.41,1050.86 1952.55,1048.5 1955.66,1046.13 1958.75,1043.77 1961.83,1041.4 1964.88,1039.04 1967.92,1036.67 1970.94,1034.31 1973.94,1031.95 1976.93,1029.58 1979.89,1027.22 1982.84,1024.85 1985.77,1022.49 1988.68,1020.12 1991.58,1017.76 1994.45,1015.39 1997.31,1013.03 2000.16,1010.67 2002.98,1008.3 2005.79,1005.94 2008.58,1003.57 2011.36,1001.21 2014.11,998.844 2016.86,996.48 2019.58,994.115 2022.29,991.751 2024.98,989.387 2027.66,987.022 2030.32,984.658 2032.96,982.293 2035.59,979.929 2038.2,977.564 2040.8,975.2 2043.38,972.836 2045.94,970.471 2048.49,968.107 2051.02,965.742 2053.54,963.378 2056.04,961.014 2058.53,958.649 2061,956.285 2063.46,953.92 2065.9,951.556 2068.33,949.192 2070.74,946.827 2073.14,944.463 2075.52,942.098 2077.88,939.734 2080.24,937.37 2082.57,935.005 2084.9,932.641 2087.21,930.276 2089.5,927.912 2091.78,925.548 2094.04,923.183 2096.3,920.819 2098.53,918.454 2100.76,916.09 2102.96,913.726 2105.16,911.361 2107.34,908.997 2109.5,906.632 2111.66,904.268 2113.8,901.903 2115.92,899.539 2118.03,897.175 2120.13,894.81 2122.21,892.446 2124.28,890.081 2126.34,887.717 2128.38,885.353 2130.41,882.988 2132.42,880.624 2134.43,878.259 2136.41,875.895 2138.39,873.531 2140.35,871.166 2142.3,868.802 2144.24,866.437 2146.16,864.073 2148.07,861.709 2149.96,859.344 2151.85,856.98 2153.71,854.615 2155.57,852.251 2157.41,849.887 2159.25,847.522 2161.06,845.158 2162.87,842.793 2164.66,840.429 2166.44,838.064 2168.2,835.7 2169.96,833.336 2171.7,830.971 2173.42,828.607 2175.14,826.242 2176.84,823.878 2178.53,821.514 2180.21,819.149 2181.87,816.785 2183.52,814.42 2185.16,812.056 2186.79,809.692 2188.4,807.327 2190.01,804.963 2191.59,802.598 2193.17,800.234 2194.73,797.87 2196.29,795.505 2197.83,793.141 2199.35,790.776 2200.87,788.412 2202.37,786.048 2203.86,783.683 2205.34,781.319 2206.8,778.954 2208.25,776.59 2209.69,774.225 2211.12,771.861 2212.54,769.497 "/>
</svg>
