<?xml version="1.0" encoding="utf-8"?>
<svg xmlns="http://www.w3.org/2000/svg" xmlns:xlink="http://www.w3.org/1999/xlink" width="600" height="400" viewBox="0 0 2400 1600">
<defs>
  <clipPath id="clip810">
    <rect x="0" y="0" width="2400" height="1600"/>
  </clipPath>
</defs>
<path clip-path="url(#clip810)" d="M0 1600 L2400 1600 L2400 0 L0 0  Z" fill="#ffffff" fill-rule="evenodd" fill-opacity="1"/>
<defs>
  <clipPath id="clip811">
    <rect x="480" y="0" width="1681" height="1600"/>
  </clipPath>
</defs>
<path clip-path="url(#clip810)" d="M219.38 1423.18 L1152.76 1423.18 L1152.76 47.2441 L219.38 47.2441  Z" fill="#ffffff" fill-rule="evenodd" fill-opacity="1"/>
<defs>
  <clipPath id="clip812">
    <rect x="219" y="47" width="934" height="1377"/>
  </clipPath>
</defs>
<polyline clip-path="url(#clip812)" style="stroke:#000000; stroke-linecap:round; stroke-linejoin:round; stroke-width:2; stroke-opacity:0.1; fill:none" points="293.56,1423.18 293.56,47.2441 "/>
<polyline clip-path="url(#clip812)" style="stroke:#000000; stroke-linecap:round; stroke-linejoin:round; stroke-width:2; stroke-opacity:0.1; fill:none" points="495.02,1423.18 495.02,47.2441 "/>
<polyline clip-path="url(#clip812)" style="stroke:#000000; stroke-linecap:round; stroke-linejoin:round; stroke-width:2; stroke-opacity:0.1; fill:none" points="696.48,1423.18 696.48,47.2441 "/>
<polyline clip-path="url(#clip812)" style="stroke:#000000; stroke-linecap:round; stroke-linejoin:round; stroke-width:2; stroke-opacity:0.1; fill:none" points="897.939,1423.18 897.939,47.2441 "/>
<polyline clip-path="url(#clip812)" style="stroke:#000000; stroke-linecap:round; stroke-linejoin:round; stroke-width:2; stroke-opacity:0.1; fill:none" points="1099.4,1423.18 1099.4,47.2441 "/>
<polyline clip-path="url(#clip812)" style="stroke:#000000; stroke-linecap:round; stroke-linejoin:round; stroke-width:2; stroke-opacity:0.1; fill:none" points="219.38,1391.09 1152.76,1391.09 "/>
<polyline clip-path="url(#clip812)" style="stroke:#000000; stroke-linecap:round; stroke-linejoin:round; stroke-width:2; stroke-opacity:0.1; fill:none" points="219.38,1070.14 1152.76,1070.14 "/>
<polyline clip-path="url(#clip812)" style="stroke:#000000; stroke-linecap:round; stroke-linejoin:round; stroke-width:2; stroke-opacity:0.1; fill:none" points="219.38,749.191 1152.76,749.191 "/>
<polyline clip-path="url(#clip812)" style="stroke:#000000; stroke-linecap:round; stroke-linejoin:round; stroke-width:2; stroke-opacity:0.1; fill:none" points="219.38,428.245 1152.76,428.245 "/>
<polyline clip-path="url(#clip812)" style="stroke:#000000; stroke-linecap:round; stroke-linejoin:round; stroke-width:2; stroke-opacity:0.1; fill:none" points="219.38,107.298 1152.76,107.298 "/>
<polyline clip-path="url(#clip810)" style="stroke:#000000; stroke-linecap:round; stroke-linejoin:round; stroke-width:4; stroke-opacity:1; fill:none" points="219.38,1423.18 1152.76,1423.18 "/>
<polyline clip-path="url(#clip810)" style="stroke:#000000; stroke-linecap:round; stroke-linejoin:round; stroke-width:4; stroke-opacity:1; fill:none" points="293.56,1423.18 293.56,1404.28 "/>
<polyline clip-path="url(#clip810)" style="stroke:#000000; stroke-linecap:round; stroke-linejoin:round; stroke-width:4; stroke-opacity:1; fill:none" points="495.02,1423.18 495.02,1404.28 "/>
<polyline clip-path="url(#clip810)" style="stroke:#000000; stroke-linecap:round; stroke-linejoin:round; stroke-width:4; stroke-opacity:1; fill:none" points="696.48,1423.18 696.48,1404.28 "/>
<polyline clip-path="url(#clip810)" style="stroke:#000000; stroke-linecap:round; stroke-linejoin:round; stroke-width:4; stroke-opacity:1; fill:none" points="897.939,1423.18 897.939,1404.28 "/>
<polyline clip-path="url(#clip810)" style="stroke:#000000; stroke-linecap:round; stroke-linejoin:round; stroke-width:4; stroke-opacity:1; fill:none" points="1099.4,1423.18 1099.4,1404.28 "/>
<path clip-path="url(#clip810)" d="M271.037 1454.1 Q267.426 1454.1 265.598 1457.66 Q263.792 1461.2 263.792 1468.33 Q263.792 1475.44 265.598 1479.01 Q267.426 1482.55 271.037 1482.55 Q274.672 1482.55 276.477 1479.01 Q278.306 1475.44 278.306 1468.33 Q278.306 1461.2 276.477 1457.66 Q274.672 1454.1 271.037 1454.1 M271.037 1450.39 Q276.847 1450.39 279.903 1455 Q282.982 1459.58 282.982 1468.33 Q282.982 1477.06 279.903 1481.67 Q276.847 1486.25 271.037 1486.25 Q265.227 1486.25 262.148 1481.67 Q259.093 1477.06 259.093 1468.33 Q259.093 1459.58 262.148 1455 Q265.227 1450.39 271.037 1450.39 Z" fill="#000000" fill-rule="nonzero" fill-opacity="1" /><path clip-path="url(#clip810)" d="M291.199 1479.7 L296.083 1479.7 L296.083 1485.58 L291.199 1485.58 L291.199 1479.7 Z" fill="#000000" fill-rule="nonzero" fill-opacity="1" /><path clip-path="url(#clip810)" d="M306.408 1484.86 L306.408 1480.6 Q308.167 1481.44 309.972 1481.88 Q311.778 1482.32 313.514 1482.32 Q318.144 1482.32 320.574 1479.21 Q323.028 1476.09 323.375 1469.75 Q322.032 1471.74 319.972 1472.8 Q317.912 1473.87 315.412 1473.87 Q310.227 1473.87 307.195 1470.74 Q304.185 1467.59 304.185 1462.15 Q304.185 1456.83 307.333 1453.61 Q310.482 1450.39 315.713 1450.39 Q321.708 1450.39 324.856 1455 Q328.028 1459.58 328.028 1468.33 Q328.028 1476.51 324.139 1481.39 Q320.273 1486.25 313.722 1486.25 Q311.963 1486.25 310.157 1485.9 Q308.352 1485.56 306.408 1484.86 M315.713 1470.21 Q318.861 1470.21 320.69 1468.06 Q322.542 1465.9 322.542 1462.15 Q322.542 1458.43 320.69 1456.27 Q318.861 1454.1 315.713 1454.1 Q312.565 1454.1 310.713 1456.27 Q308.884 1458.43 308.884 1462.15 Q308.884 1465.9 310.713 1468.06 Q312.565 1470.21 315.713 1470.21 Z" fill="#000000" fill-rule="nonzero" fill-opacity="1" /><path clip-path="url(#clip810)" d="M462.173 1481.64 L469.812 1481.64 L469.812 1455.28 L461.502 1456.95 L461.502 1452.69 L469.765 1451.02 L474.441 1451.02 L474.441 1481.64 L482.08 1481.64 L482.08 1485.58 L462.173 1485.58 L462.173 1481.64 Z" fill="#000000" fill-rule="nonzero" fill-opacity="1" /><path clip-path="url(#clip810)" d="M491.525 1479.7 L496.409 1479.7 L496.409 1485.58 L491.525 1485.58 L491.525 1479.7 Z" fill="#000000" fill-rule="nonzero" fill-opacity="1" /><path clip-path="url(#clip810)" d="M516.594 1454.1 Q512.983 1454.1 511.154 1457.66 Q509.349 1461.2 509.349 1468.33 Q509.349 1475.44 511.154 1479.01 Q512.983 1482.55 516.594 1482.55 Q520.228 1482.55 522.034 1479.01 Q523.862 1475.44 523.862 1468.33 Q523.862 1461.2 522.034 1457.66 Q520.228 1454.1 516.594 1454.1 M516.594 1450.39 Q522.404 1450.39 525.46 1455 Q528.538 1459.58 528.538 1468.33 Q528.538 1477.06 525.46 1481.67 Q522.404 1486.25 516.594 1486.25 Q510.784 1486.25 507.705 1481.67 Q504.65 1477.06 504.65 1468.33 Q504.65 1459.58 507.705 1455 Q510.784 1450.39 516.594 1450.39 Z" fill="#000000" fill-rule="nonzero" fill-opacity="1" /><path clip-path="url(#clip810)" d="M664.246 1481.64 L671.885 1481.64 L671.885 1455.28 L663.575 1456.95 L663.575 1452.69 L671.838 1451.02 L676.514 1451.02 L676.514 1481.64 L684.153 1481.64 L684.153 1485.58 L664.246 1485.58 L664.246 1481.64 Z" fill="#000000" fill-rule="nonzero" fill-opacity="1" /><path clip-path="url(#clip810)" d="M693.598 1479.7 L698.482 1479.7 L698.482 1485.58 L693.598 1485.58 L693.598 1479.7 Z" fill="#000000" fill-rule="nonzero" fill-opacity="1" /><path clip-path="url(#clip810)" d="M709.477 1481.64 L717.116 1481.64 L717.116 1455.28 L708.806 1456.95 L708.806 1452.69 L717.07 1451.02 L721.746 1451.02 L721.746 1481.64 L729.384 1481.64 L729.384 1485.58 L709.477 1485.58 L709.477 1481.64 Z" fill="#000000" fill-rule="nonzero" fill-opacity="1" /><path clip-path="url(#clip810)" d="M865.891 1481.64 L873.53 1481.64 L873.53 1455.28 L865.219 1456.95 L865.219 1452.69 L873.483 1451.02 L878.159 1451.02 L878.159 1481.64 L885.798 1481.64 L885.798 1485.58 L865.891 1485.58 L865.891 1481.64 Z" fill="#000000" fill-rule="nonzero" fill-opacity="1" /><path clip-path="url(#clip810)" d="M895.242 1479.7 L900.127 1479.7 L900.127 1485.58 L895.242 1485.58 L895.242 1479.7 Z" fill="#000000" fill-rule="nonzero" fill-opacity="1" /><path clip-path="url(#clip810)" d="M914.339 1481.64 L930.659 1481.64 L930.659 1485.58 L908.714 1485.58 L908.714 1481.64 Q911.377 1478.89 915.96 1474.26 Q920.566 1469.61 921.747 1468.27 Q923.992 1465.74 924.872 1464.01 Q925.775 1462.25 925.775 1460.56 Q925.775 1457.8 923.83 1456.07 Q921.909 1454.33 918.807 1454.33 Q916.608 1454.33 914.154 1455.09 Q911.724 1455.86 908.946 1457.41 L908.946 1452.69 Q911.77 1451.55 914.224 1450.97 Q916.677 1450.39 918.714 1450.39 Q924.085 1450.39 927.279 1453.08 Q930.474 1455.77 930.474 1460.26 Q930.474 1462.39 929.663 1464.31 Q928.876 1466.2 926.77 1468.8 Q926.191 1469.47 923.089 1472.69 Q919.988 1475.88 914.339 1481.64 Z" fill="#000000" fill-rule="nonzero" fill-opacity="1" /><path clip-path="url(#clip810)" d="M1066.88 1481.64 L1074.51 1481.64 L1074.51 1455.28 L1066.2 1456.95 L1066.2 1452.69 L1074.47 1451.02 L1079.14 1451.02 L1079.14 1481.64 L1086.78 1481.64 L1086.78 1485.58 L1066.88 1485.58 L1066.88 1481.64 Z" fill="#000000" fill-rule="nonzero" fill-opacity="1" /><path clip-path="url(#clip810)" d="M1096.23 1479.7 L1101.11 1479.7 L1101.11 1485.58 L1096.23 1485.58 L1096.23 1479.7 Z" fill="#000000" fill-rule="nonzero" fill-opacity="1" /><path clip-path="url(#clip810)" d="M1125.46 1466.95 Q1128.82 1467.66 1130.69 1469.93 Q1132.59 1472.2 1132.59 1475.53 Q1132.59 1480.65 1129.07 1483.45 Q1125.56 1486.25 1119.07 1486.25 Q1116.9 1486.25 1114.58 1485.81 Q1112.29 1485.39 1109.84 1484.54 L1109.84 1480.02 Q1111.78 1481.16 1114.1 1481.74 Q1116.41 1482.32 1118.94 1482.32 Q1123.33 1482.32 1125.63 1480.58 Q1127.94 1478.84 1127.94 1475.53 Q1127.94 1472.48 1125.79 1470.77 Q1123.66 1469.03 1119.84 1469.03 L1115.81 1469.03 L1115.81 1465.19 L1120.02 1465.19 Q1123.47 1465.19 1125.3 1463.82 Q1127.13 1462.43 1127.13 1459.84 Q1127.13 1457.18 1125.23 1455.77 Q1123.36 1454.33 1119.84 1454.33 Q1117.92 1454.33 1115.72 1454.75 Q1113.52 1455.16 1110.88 1456.04 L1110.88 1451.88 Q1113.54 1451.14 1115.86 1450.77 Q1118.19 1450.39 1120.26 1450.39 Q1125.58 1450.39 1128.68 1452.83 Q1131.78 1455.23 1131.78 1459.35 Q1131.78 1462.22 1130.14 1464.21 Q1128.5 1466.18 1125.46 1466.95 Z" fill="#000000" fill-rule="nonzero" fill-opacity="1" /><path clip-path="url(#clip810)" d="M683.124 1545.45 L662.849 1545.45 Q663.327 1554.96 665.523 1559 Q668.26 1563.97 673.002 1563.97 Q677.777 1563.97 680.418 1558.97 Q682.742 1554.58 683.124 1545.45 M683.028 1540.03 Q682.137 1531 680.418 1527.81 Q677.681 1522.78 673.002 1522.78 Q668.133 1522.78 665.555 1527.75 Q663.518 1531.76 662.913 1540.03 L683.028 1540.03 M673.002 1518.01 Q680.641 1518.01 685.002 1524.76 Q689.362 1531.47 689.362 1543.38 Q689.362 1555.25 685.002 1562 Q680.641 1568.78 673.002 1568.78 Q665.332 1568.78 661.003 1562 Q656.643 1555.25 656.643 1543.38 Q656.643 1531.47 661.003 1524.76 Q665.332 1518.01 673.002 1518.01 Z" fill="#000000" fill-rule="nonzero" fill-opacity="1" /><path clip-path="url(#clip810)" d="M697.892 1564.54 L704.385 1564.54 L704.385 1545.1 L697.288 1546.4 L697.288 1542.71 L704.608 1541.47 L708.969 1541.47 L708.969 1564.54 L715.494 1564.54 L715.494 1568.04 L697.892 1568.04 L697.892 1564.54 Z" fill="#000000" fill-rule="nonzero" fill-opacity="1" /><polyline clip-path="url(#clip810)" style="stroke:#000000; stroke-linecap:round; stroke-linejoin:round; stroke-width:4; stroke-opacity:1; fill:none" points="219.38,1423.18 219.38,47.2441 "/>
<polyline clip-path="url(#clip810)" style="stroke:#000000; stroke-linecap:round; stroke-linejoin:round; stroke-width:4; stroke-opacity:1; fill:none" points="219.38,1391.09 238.278,1391.09 "/>
<polyline clip-path="url(#clip810)" style="stroke:#000000; stroke-linecap:round; stroke-linejoin:round; stroke-width:4; stroke-opacity:1; fill:none" points="219.38,1070.14 238.278,1070.14 "/>
<polyline clip-path="url(#clip810)" style="stroke:#000000; stroke-linecap:round; stroke-linejoin:round; stroke-width:4; stroke-opacity:1; fill:none" points="219.38,749.191 238.278,749.191 "/>
<polyline clip-path="url(#clip810)" style="stroke:#000000; stroke-linecap:round; stroke-linejoin:round; stroke-width:4; stroke-opacity:1; fill:none" points="219.38,428.245 238.278,428.245 "/>
<polyline clip-path="url(#clip810)" style="stroke:#000000; stroke-linecap:round; stroke-linejoin:round; stroke-width:4; stroke-opacity:1; fill:none" points="219.38,107.298 238.278,107.298 "/>
<path clip-path="url(#clip810)" d="M126.205 1376.88 Q122.593 1376.88 120.765 1380.45 Q118.959 1383.99 118.959 1391.12 Q118.959 1398.23 120.765 1401.79 Q122.593 1405.33 126.205 1405.33 Q129.839 1405.33 131.644 1401.79 Q133.473 1398.23 133.473 1391.12 Q133.473 1383.99 131.644 1380.45 Q129.839 1376.88 126.205 1376.88 M126.205 1373.18 Q132.015 1373.18 135.07 1377.79 Q138.149 1382.37 138.149 1391.12 Q138.149 1399.85 135.07 1404.45 Q132.015 1409.04 126.205 1409.04 Q120.394 1409.04 117.316 1404.45 Q114.26 1399.85 114.26 1391.12 Q114.26 1382.37 117.316 1377.79 Q120.394 1373.18 126.205 1373.18 Z" fill="#000000" fill-rule="nonzero" fill-opacity="1" /><path clip-path="url(#clip810)" d="M146.366 1402.49 L151.251 1402.49 L151.251 1408.37 L146.366 1408.37 L146.366 1402.49 Z" fill="#000000" fill-rule="nonzero" fill-opacity="1" /><path clip-path="url(#clip810)" d="M171.436 1376.88 Q167.825 1376.88 165.996 1380.45 Q164.19 1383.99 164.19 1391.12 Q164.19 1398.23 165.996 1401.79 Q167.825 1405.33 171.436 1405.33 Q175.07 1405.33 176.876 1401.79 Q178.704 1398.23 178.704 1391.12 Q178.704 1383.99 176.876 1380.45 Q175.07 1376.88 171.436 1376.88 M171.436 1373.18 Q177.246 1373.18 180.301 1377.79 Q183.38 1382.37 183.38 1391.12 Q183.38 1399.85 180.301 1404.45 Q177.246 1409.04 171.436 1409.04 Q165.626 1409.04 162.547 1404.45 Q159.491 1399.85 159.491 1391.12 Q159.491 1382.37 162.547 1377.79 Q165.626 1373.18 171.436 1373.18 Z" fill="#000000" fill-rule="nonzero" fill-opacity="1" /><path clip-path="url(#clip810)" d="M127.2 1055.94 Q123.589 1055.94 121.76 1059.5 Q119.955 1063.04 119.955 1070.17 Q119.955 1077.28 121.76 1080.84 Q123.589 1084.39 127.2 1084.39 Q130.834 1084.39 132.64 1080.84 Q134.468 1077.28 134.468 1070.17 Q134.468 1063.04 132.64 1059.5 Q130.834 1055.94 127.2 1055.94 M127.2 1052.23 Q133.01 1052.23 136.066 1056.84 Q139.144 1061.42 139.144 1070.17 Q139.144 1078.9 136.066 1083.51 Q133.01 1088.09 127.2 1088.09 Q121.39 1088.09 118.311 1083.51 Q115.256 1078.9 115.256 1070.17 Q115.256 1061.42 118.311 1056.84 Q121.39 1052.23 127.2 1052.23 Z" fill="#000000" fill-rule="nonzero" fill-opacity="1" /><path clip-path="url(#clip810)" d="M147.362 1081.54 L152.246 1081.54 L152.246 1087.42 L147.362 1087.42 L147.362 1081.54 Z" fill="#000000" fill-rule="nonzero" fill-opacity="1" /><path clip-path="url(#clip810)" d="M162.477 1052.86 L180.834 1052.86 L180.834 1056.79 L166.76 1056.79 L166.76 1065.27 Q167.778 1064.92 168.797 1064.76 Q169.815 1064.57 170.834 1064.57 Q176.621 1064.57 180.001 1067.74 Q183.38 1070.91 183.38 1076.33 Q183.38 1081.91 179.908 1085.01 Q176.436 1088.09 170.116 1088.09 Q167.94 1088.09 165.672 1087.72 Q163.427 1087.35 161.019 1086.61 L161.019 1081.91 Q163.102 1083.04 165.325 1083.6 Q167.547 1084.15 170.024 1084.15 Q174.028 1084.15 176.366 1082.05 Q178.704 1079.94 178.704 1076.33 Q178.704 1072.72 176.366 1070.61 Q174.028 1068.51 170.024 1068.51 Q168.149 1068.51 166.274 1068.92 Q164.422 1069.34 162.477 1070.22 L162.477 1052.86 Z" fill="#000000" fill-rule="nonzero" fill-opacity="1" /><path clip-path="url(#clip810)" d="M117.015 762.536 L124.654 762.536 L124.654 736.171 L116.343 737.837 L116.343 733.578 L124.607 731.911 L129.283 731.911 L129.283 762.536 L136.922 762.536 L136.922 766.471 L117.015 766.471 L117.015 762.536 Z" fill="#000000" fill-rule="nonzero" fill-opacity="1" /><path clip-path="url(#clip810)" d="M146.366 760.592 L151.251 760.592 L151.251 766.471 L146.366 766.471 L146.366 760.592 Z" fill="#000000" fill-rule="nonzero" fill-opacity="1" /><path clip-path="url(#clip810)" d="M171.436 734.99 Q167.825 734.99 165.996 738.555 Q164.19 742.097 164.19 749.226 Q164.19 756.333 165.996 759.897 Q167.825 763.439 171.436 763.439 Q175.07 763.439 176.876 759.897 Q178.704 756.333 178.704 749.226 Q178.704 742.097 176.876 738.555 Q175.07 734.99 171.436 734.99 M171.436 731.286 Q177.246 731.286 180.301 735.893 Q183.38 740.476 183.38 749.226 Q183.38 757.953 180.301 762.559 Q177.246 767.143 171.436 767.143 Q165.626 767.143 162.547 762.559 Q159.491 757.953 159.491 749.226 Q159.491 740.476 162.547 735.893 Q165.626 731.286 171.436 731.286 Z" fill="#000000" fill-rule="nonzero" fill-opacity="1" /><path clip-path="url(#clip810)" d="M118.01 441.589 L125.649 441.589 L125.649 415.224 L117.339 416.891 L117.339 412.631 L125.603 410.965 L130.279 410.965 L130.279 441.589 L137.917 441.589 L137.917 445.525 L118.01 445.525 L118.01 441.589 Z" fill="#000000" fill-rule="nonzero" fill-opacity="1" /><path clip-path="url(#clip810)" d="M147.362 439.645 L152.246 439.645 L152.246 445.525 L147.362 445.525 L147.362 439.645 Z" fill="#000000" fill-rule="nonzero" fill-opacity="1" /><path clip-path="url(#clip810)" d="M162.477 410.965 L180.834 410.965 L180.834 414.9 L166.76 414.9 L166.76 423.372 Q167.778 423.025 168.797 422.863 Q169.815 422.678 170.834 422.678 Q176.621 422.678 180.001 425.849 Q183.38 429.02 183.38 434.437 Q183.38 440.015 179.908 443.117 Q176.436 446.196 170.116 446.196 Q167.94 446.196 165.672 445.826 Q163.427 445.455 161.019 444.714 L161.019 440.015 Q163.102 441.15 165.325 441.705 Q167.547 442.261 170.024 442.261 Q174.028 442.261 176.366 440.154 Q178.704 438.048 178.704 434.437 Q178.704 430.826 176.366 428.719 Q174.028 426.613 170.024 426.613 Q168.149 426.613 166.274 427.029 Q164.422 427.446 162.477 428.326 L162.477 410.965 Z" fill="#000000" fill-rule="nonzero" fill-opacity="1" /><path clip-path="url(#clip810)" d="M120.232 120.643 L136.552 120.643 L136.552 124.578 L114.607 124.578 L114.607 120.643 Q117.269 117.888 121.853 113.258 Q126.459 108.606 127.64 107.263 Q129.885 104.74 130.765 103.004 Q131.667 101.245 131.667 99.5548 Q131.667 96.8002 129.723 95.0641 Q127.802 93.328 124.7 93.328 Q122.501 93.328 120.047 94.0919 Q117.617 94.8558 114.839 96.4067 L114.839 91.6845 Q117.663 90.5502 120.117 89.9715 Q122.57 89.3928 124.607 89.3928 Q129.978 89.3928 133.172 92.078 Q136.367 94.7632 136.367 99.2539 Q136.367 101.383 135.556 103.305 Q134.769 105.203 132.663 107.795 Q132.084 108.467 128.982 111.684 Q125.88 114.879 120.232 120.643 Z" fill="#000000" fill-rule="nonzero" fill-opacity="1" /><path clip-path="url(#clip810)" d="M146.366 118.698 L151.251 118.698 L151.251 124.578 L146.366 124.578 L146.366 118.698 Z" fill="#000000" fill-rule="nonzero" fill-opacity="1" /><path clip-path="url(#clip810)" d="M171.436 93.0965 Q167.825 93.0965 165.996 96.6613 Q164.19 100.203 164.19 107.333 Q164.19 114.439 165.996 118.004 Q167.825 121.545 171.436 121.545 Q175.07 121.545 176.876 118.004 Q178.704 114.439 178.704 107.333 Q178.704 100.203 176.876 96.6613 Q175.07 93.0965 171.436 93.0965 M171.436 89.3928 Q177.246 89.3928 180.301 93.9993 Q183.38 98.5826 183.38 107.333 Q183.38 116.059 180.301 120.666 Q177.246 125.249 171.436 125.249 Q165.626 125.249 162.547 120.666 Q159.491 116.059 159.491 107.333 Q159.491 98.5826 162.547 93.9993 Q165.626 89.3928 171.436 89.3928 Z" fill="#000000" fill-rule="nonzero" fill-opacity="1" /><path clip-path="url(#clip810)" d="M20.1444 919.388 L26.9239 919.388 Q23.9002 922.634 22.4043 926.326 Q20.9083 929.987 20.9083 934.124 Q20.9083 942.272 25.9054 946.601 Q30.8707 950.93 40.2919 950.93 Q49.6813 950.93 54.6784 946.601 Q59.6436 942.272 59.6436 934.124 Q59.6436 929.987 58.1477 926.326 Q56.6518 922.634 53.6281 919.388 L60.3439 919.388 Q62.6355 922.762 63.7814 926.549 Q64.9272 930.305 64.9272 934.506 Q64.9272 945.296 58.3387 951.503 Q51.7183 957.709 40.2919 957.709 Q28.8336 957.709 22.2451 951.503 Q15.6248 945.296 15.6248 934.506 Q15.6248 930.241 16.7706 926.486 Q17.8846 922.698 20.1444 919.388 Z" fill="#000000" fill-rule="nonzero" fill-opacity="1" /><path clip-path="url(#clip810)" d="M32.4621 895.898 Q32.4621 900.609 36.1542 903.346 Q39.8145 906.083 46.212 906.083 Q52.6095 906.083 56.3017 903.378 Q59.9619 900.641 59.9619 895.898 Q59.9619 891.22 56.2698 888.482 Q52.5777 885.745 46.212 885.745 Q39.8781 885.745 36.186 888.482 Q32.4621 891.22 32.4621 895.898 M27.4968 895.898 Q27.4968 888.259 32.4621 883.899 Q37.4273 879.538 46.212 879.538 Q54.9649 879.538 59.9619 883.899 Q64.9272 888.259 64.9272 895.898 Q64.9272 903.569 59.9619 907.93 Q54.9649 912.258 46.212 912.258 Q37.4273 912.258 32.4621 907.93 Q27.4968 903.569 27.4968 895.898 Z" fill="#000000" fill-rule="nonzero" fill-opacity="1" /><path clip-path="url(#clip810)" d="M42.4881 840.198 L64.0042 840.198 L64.0042 846.055 L42.679 846.055 Q37.6183 846.055 35.1038 848.028 Q32.5894 850.002 32.5894 853.948 Q32.5894 858.691 35.6131 861.428 Q38.6368 864.165 43.8567 864.165 L64.0042 864.165 L64.0042 870.054 L28.3562 870.054 L28.3562 864.165 L33.8944 864.165 Q30.6797 862.065 29.0883 859.232 Q27.4968 856.367 27.4968 852.643 Q27.4968 846.5 31.3163 843.349 Q35.1038 840.198 42.4881 840.198 Z" fill="#000000" fill-rule="nonzero" fill-opacity="1" /><path clip-path="url(#clip810)" d="M14.479 810.471 L19.3487 810.471 L19.3487 816.072 Q19.3487 819.223 20.6219 820.465 Q21.895 821.674 25.2052 821.674 L28.3562 821.674 L28.3562 812.03 L32.9077 812.03 L32.9077 821.674 L64.0042 821.674 L64.0042 827.562 L32.9077 827.562 L32.9077 833.164 L28.3562 833.164 L28.3562 827.562 L25.8736 827.562 Q19.9216 827.562 17.2162 824.793 Q14.479 822.024 14.479 816.009 L14.479 810.471 Z" fill="#000000" fill-rule="nonzero" fill-opacity="1" /><path clip-path="url(#clip810)" d="M55.9197 809.484 L55.9197 802.768 L64.0042 802.768 L64.0042 809.484 L55.9197 809.484 Z" fill="#000000" fill-rule="nonzero" fill-opacity="1" /><path clip-path="url(#clip810)" d="M14.479 768.871 L14.479 763.014 L64.0042 763.014 L64.0042 768.871 L14.479 768.871 Z" fill="#000000" fill-rule="nonzero" fill-opacity="1" /><path clip-path="url(#clip810)" d="M44.7161 720.268 L47.5806 720.268 L47.5806 747.195 Q53.6281 746.813 56.8109 743.567 Q59.9619 740.289 59.9619 734.464 Q59.9619 731.09 59.1344 727.939 Q58.3069 724.756 56.6518 721.637 L62.1899 721.637 Q63.5267 724.788 64.227 728.098 Q64.9272 731.408 64.9272 734.814 Q64.9272 743.344 59.9619 748.341 Q54.9967 753.306 46.5303 753.306 Q37.7774 753.306 32.6531 748.596 Q27.4968 743.853 27.4968 735.833 Q27.4968 728.639 32.1438 724.47 Q36.7589 720.268 44.7161 720.268 M42.9973 726.125 Q38.1912 726.189 35.3266 728.83 Q32.4621 731.44 32.4621 735.769 Q32.4621 740.671 35.2312 743.631 Q38.0002 746.559 43.0292 747.004 L42.9973 726.125 Z" fill="#000000" fill-rule="nonzero" fill-opacity="1" /><path clip-path="url(#clip810)" d="M28.3562 714.858 L28.3562 708.651 L58.275 697.511 L28.3562 686.371 L28.3562 680.165 L64.0042 693.533 L64.0042 701.49 L28.3562 714.858 Z" fill="#000000" fill-rule="nonzero" fill-opacity="1" /><path clip-path="url(#clip810)" d="M44.7161 641.588 L47.5806 641.588 L47.5806 668.515 Q53.6281 668.133 56.8109 664.887 Q59.9619 661.608 59.9619 655.784 Q59.9619 652.41 59.1344 649.259 Q58.3069 646.076 56.6518 642.957 L62.1899 642.957 Q63.5267 646.108 64.227 649.418 Q64.9272 652.728 64.9272 656.134 Q64.9272 664.664 59.9619 669.661 Q54.9967 674.626 46.5303 674.626 Q37.7774 674.626 32.6531 669.916 Q27.4968 665.173 27.4968 657.152 Q27.4968 649.959 32.1438 645.79 Q36.7589 641.588 44.7161 641.588 M42.9973 647.445 Q38.1912 647.508 35.3266 650.15 Q32.4621 652.76 32.4621 657.089 Q32.4621 661.99 35.2312 664.95 Q38.0002 667.879 43.0292 668.324 L42.9973 647.445 Z" fill="#000000" fill-rule="nonzero" fill-opacity="1" /><path clip-path="url(#clip810)" d="M14.479 631.976 L14.479 626.12 L64.0042 626.12 L64.0042 631.976 L14.479 631.976 Z" fill="#000000" fill-rule="nonzero" fill-opacity="1" /><path clip-path="url(#clip810)" d="M14.479 593.686 L14.479 580.191 L19.0304 580.191 L19.0304 587.83 L68.0464 587.83 L68.0464 580.191 L72.5979 580.191 L72.5979 593.686 L14.479 593.686 Z" fill="#000000" fill-rule="nonzero" fill-opacity="1" /><path clip-path="url(#clip810)" d="M33.0032 553.901 Q33.0032 558.739 36.5043 561.349 Q40.1646 564.086 46.212 564.086 Q52.6095 564.086 56.3017 561.38 Q59.9619 558.643 59.9619 553.901 Q59.9619 549.222 56.2698 546.485 Q52.5777 543.747 46.212 543.747 Q40.3874 543.747 36.5043 546.485 Q33.0032 548.999 33.0032 553.901 M28.3562 553.901 L28.3562 534.453 L34.2127 534.453 L34.2127 541.01 Q39.1779 537.541 46.212 537.541 Q54.9649 537.541 59.9301 541.901 Q64.9272 546.262 64.9272 553.901 Q64.9272 561.571 59.9301 565.9 Q54.9649 570.261 46.212 570.261 Q37.3955 570.261 32.4621 565.9 Q28.3562 562.303 28.3562 553.901 Z" fill="#000000" fill-rule="nonzero" fill-opacity="1" /><path clip-path="url(#clip810)" d="M14.479 512.715 L72.5979 512.715 L72.5979 526.21 L68.0464 526.21 L68.0464 518.603 L19.0304 518.603 L19.0304 526.21 L14.479 526.21 L14.479 512.715 Z" fill="#000000" fill-rule="nonzero" fill-opacity="1" /><polyline clip-path="url(#clip812)" style="stroke:#009af9; stroke-linecap:round; stroke-linejoin:round; stroke-width:6; stroke-opacity:1; fill:none" points="245.796,-5.32415 284.195,93.5899 319.409,187.936 352.209,278.915 383.091,367.241 412.398,453.357 440.38,537.522 467.226,619.87 493.084,700.424 518.071,779.11 542.285,855.756 565.805,930.083 588.698,1001.69 611.023,1070.05 632.829,1134.49 654.158,1194.16 675.049,1248.06 695.533,1295.07 715.637,1333.97 735.351,1363.51 754.452,1382.51 771.338,1390.42 777.763,1391.09 784.189,1390.41 801.075,1382.16 819.773,1361.99 838.433,1330.59 856.521,1290.06 874.059,1242.12 891.082,1188.32 907.629,1130 923.731,1068.27 939.417,1004.03 954.714,937.995 969.645,870.708 984.23,802.603 998.489,734.008 1012.44,665.174 1026.1,596.293 1039.47,527.509 1052.59,458.931 1065.45,390.64 1078.07,322.696 1090.46,255.144 1102.63,188.015 1114.59,121.331 1126.34,55.1058 "/>
<path clip-path="url(#clip812)" d="M777.763 1401.09 L769.103 1396.09 L769.103 1386.09 L777.763 1381.09 L786.423 1386.09 L786.423 1396.09 Z" fill="#ff0000" fill-rule="evenodd" fill-opacity="1" stroke="none"/>
<path clip-path="url(#clip810)" d="M1419.38 1423.18 L2352.76 1423.18 L2352.76 47.2441 L1419.38 47.2441  Z" fill="#ffffff" fill-rule="evenodd" fill-opacity="1"/>
<defs>
  <clipPath id="clip813">
    <rect x="1419" y="47" width="934" height="1377"/>
  </clipPath>
</defs>
<polyline clip-path="url(#clip813)" style="stroke:#000000; stroke-linecap:round; stroke-linejoin:round; stroke-width:2; stroke-opacity:0.1; fill:none" points="1444.79,1423.18 1444.79,47.2441 "/>
<polyline clip-path="url(#clip813)" style="stroke:#000000; stroke-linecap:round; stroke-linejoin:round; stroke-width:2; stroke-opacity:0.1; fill:none" points="1621.49,1423.18 1621.49,47.2441 "/>
<polyline clip-path="url(#clip813)" style="stroke:#000000; stroke-linecap:round; stroke-linejoin:round; stroke-width:2; stroke-opacity:0.1; fill:none" points="1798.19,1423.18 1798.19,47.2441 "/>
<polyline clip-path="url(#clip813)" style="stroke:#000000; stroke-linecap:round; stroke-linejoin:round; stroke-width:2; stroke-opacity:0.1; fill:none" points="1974.88,1423.18 1974.88,47.2441 "/>
<polyline clip-path="url(#clip813)" style="stroke:#000000; stroke-linecap:round; stroke-linejoin:round; stroke-width:2; stroke-opacity:0.1; fill:none" points="2151.58,1423.18 2151.58,47.2441 "/>
<polyline clip-path="url(#clip813)" style="stroke:#000000; stroke-linecap:round; stroke-linejoin:round; stroke-width:2; stroke-opacity:0.1; fill:none" points="2328.28,1423.18 2328.28,47.2441 "/>
<polyline clip-path="url(#clip813)" style="stroke:#000000; stroke-linecap:round; stroke-linejoin:round; stroke-width:2; stroke-opacity:0.1; fill:none" points="1419.38,1391.09 2352.76,1391.09 "/>
<polyline clip-path="url(#clip813)" style="stroke:#000000; stroke-linecap:round; stroke-linejoin:round; stroke-width:2; stroke-opacity:0.1; fill:none" points="1419.38,1070.14 2352.76,1070.14 "/>
<polyline clip-path="url(#clip813)" style="stroke:#000000; stroke-linecap:round; stroke-linejoin:round; stroke-width:2; stroke-opacity:0.1; fill:none" points="1419.38,749.191 2352.76,749.191 "/>
<polyline clip-path="url(#clip813)" style="stroke:#000000; stroke-linecap:round; stroke-linejoin:round; stroke-width:2; stroke-opacity:0.1; fill:none" points="1419.38,428.245 2352.76,428.245 "/>
<polyline clip-path="url(#clip813)" style="stroke:#000000; stroke-linecap:round; stroke-linejoin:round; stroke-width:2; stroke-opacity:0.1; fill:none" points="1419.38,107.298 2352.76,107.298 "/>
<polyline clip-path="url(#clip810)" style="stroke:#000000; stroke-linecap:round; stroke-linejoin:round; stroke-width:4; stroke-opacity:1; fill:none" points="1419.38,1423.18 2352.76,1423.18 "/>
<polyline clip-path="url(#clip810)" style="stroke:#000000; stroke-linecap:round; stroke-linejoin:round; stroke-width:4; stroke-opacity:1; fill:none" points="1444.79,1423.18 1444.79,1404.28 "/>
<polyline clip-path="url(#clip810)" style="stroke:#000000; stroke-linecap:round; stroke-linejoin:round; stroke-width:4; stroke-opacity:1; fill:none" points="1621.49,1423.18 1621.49,1404.28 "/>
<polyline clip-path="url(#clip810)" style="stroke:#000000; stroke-linecap:round; stroke-linejoin:round; stroke-width:4; stroke-opacity:1; fill:none" points="1798.19,1423.18 1798.19,1404.28 "/>
<polyline clip-path="url(#clip810)" style="stroke:#000000; stroke-linecap:round; stroke-linejoin:round; stroke-width:4; stroke-opacity:1; fill:none" points="1974.88,1423.18 1974.88,1404.28 "/>
<polyline clip-path="url(#clip810)" style="stroke:#000000; stroke-linecap:round; stroke-linejoin:round; stroke-width:4; stroke-opacity:1; fill:none" points="2151.58,1423.18 2151.58,1404.28 "/>
<polyline clip-path="url(#clip810)" style="stroke:#000000; stroke-linecap:round; stroke-linejoin:round; stroke-width:4; stroke-opacity:1; fill:none" points="2328.28,1423.18 2328.28,1404.28 "/>
<path clip-path="url(#clip810)" d="M1391.32 1468.75 L1420.99 1468.75 L1420.99 1472.69 L1391.32 1472.69 L1391.32 1468.75 Z" fill="#000000" fill-rule="nonzero" fill-opacity="1" /><path clip-path="url(#clip810)" d="M1435.11 1481.64 L1451.43 1481.64 L1451.43 1485.58 L1429.49 1485.58 L1429.49 1481.64 Q1432.15 1478.89 1436.73 1474.26 Q1441.34 1469.61 1442.52 1468.27 Q1444.77 1465.74 1445.65 1464.01 Q1446.55 1462.25 1446.55 1460.56 Q1446.55 1457.8 1444.6 1456.07 Q1442.68 1454.33 1439.58 1454.33 Q1437.38 1454.33 1434.93 1455.09 Q1432.5 1455.86 1429.72 1457.41 L1429.72 1452.69 Q1432.54 1451.55 1435 1450.97 Q1437.45 1450.39 1439.49 1450.39 Q1444.86 1450.39 1448.05 1453.08 Q1451.25 1455.77 1451.25 1460.26 Q1451.25 1462.39 1450.44 1464.31 Q1449.65 1466.2 1447.54 1468.8 Q1446.97 1469.47 1443.86 1472.69 Q1440.76 1475.88 1435.11 1481.64 Z" fill="#000000" fill-rule="nonzero" fill-opacity="1" /><path clip-path="url(#clip810)" d="M1461.25 1479.7 L1466.13 1479.7 L1466.13 1485.58 L1461.25 1485.58 L1461.25 1479.7 Z" fill="#000000" fill-rule="nonzero" fill-opacity="1" /><path clip-path="url(#clip810)" d="M1486.32 1454.1 Q1482.71 1454.1 1480.88 1457.66 Q1479.07 1461.2 1479.07 1468.33 Q1479.07 1475.44 1480.88 1479.01 Q1482.71 1482.55 1486.32 1482.55 Q1489.95 1482.55 1491.76 1479.01 Q1493.59 1475.44 1493.59 1468.33 Q1493.59 1461.2 1491.76 1457.66 Q1489.95 1454.1 1486.32 1454.1 M1486.32 1450.39 Q1492.13 1450.39 1495.18 1455 Q1498.26 1459.58 1498.26 1468.33 Q1498.26 1477.06 1495.18 1481.67 Q1492.13 1486.25 1486.32 1486.25 Q1480.51 1486.25 1477.43 1481.67 Q1474.37 1477.06 1474.37 1468.33 Q1474.37 1459.58 1477.43 1455 Q1480.51 1450.39 1486.32 1450.39 Z" fill="#000000" fill-rule="nonzero" fill-opacity="1" /><path clip-path="url(#clip810)" d="M1568.51 1468.75 L1598.19 1468.75 L1598.19 1472.69 L1568.51 1472.69 L1568.51 1468.75 Z" fill="#000000" fill-rule="nonzero" fill-opacity="1" /><path clip-path="url(#clip810)" d="M1609.09 1481.64 L1616.73 1481.64 L1616.73 1455.28 L1608.42 1456.95 L1608.42 1452.69 L1616.68 1451.02 L1621.36 1451.02 L1621.36 1481.64 L1629 1481.64 L1629 1485.58 L1609.09 1485.58 L1609.09 1481.64 Z" fill="#000000" fill-rule="nonzero" fill-opacity="1" /><path clip-path="url(#clip810)" d="M1638.44 1479.7 L1643.33 1479.7 L1643.33 1485.58 L1638.44 1485.58 L1638.44 1479.7 Z" fill="#000000" fill-rule="nonzero" fill-opacity="1" /><path clip-path="url(#clip810)" d="M1653.56 1451.02 L1671.92 1451.02 L1671.92 1454.96 L1657.84 1454.96 L1657.84 1463.43 Q1658.86 1463.08 1659.88 1462.92 Q1660.9 1462.73 1661.92 1462.73 Q1667.7 1462.73 1671.08 1465.9 Q1674.46 1469.08 1674.46 1474.49 Q1674.46 1480.07 1670.99 1483.17 Q1667.52 1486.25 1661.2 1486.25 Q1659.02 1486.25 1656.75 1485.88 Q1654.51 1485.51 1652.1 1484.77 L1652.1 1480.07 Q1654.18 1481.2 1656.41 1481.76 Q1658.63 1482.32 1661.11 1482.32 Q1665.11 1482.32 1667.45 1480.21 Q1669.79 1478.1 1669.79 1474.49 Q1669.79 1470.88 1667.45 1468.77 Q1665.11 1466.67 1661.11 1466.67 Q1659.23 1466.67 1657.36 1467.08 Q1655.5 1467.5 1653.56 1468.38 L1653.56 1451.02 Z" fill="#000000" fill-rule="nonzero" fill-opacity="1" /><path clip-path="url(#clip810)" d="M1744.71 1468.75 L1774.39 1468.75 L1774.39 1472.69 L1744.71 1472.69 L1744.71 1468.75 Z" fill="#000000" fill-rule="nonzero" fill-opacity="1" /><path clip-path="url(#clip810)" d="M1785.29 1481.64 L1792.93 1481.64 L1792.93 1455.28 L1784.62 1456.95 L1784.62 1452.69 L1792.88 1451.02 L1797.56 1451.02 L1797.56 1481.64 L1805.2 1481.64 L1805.2 1485.58 L1785.29 1485.58 L1785.29 1481.64 Z" fill="#000000" fill-rule="nonzero" fill-opacity="1" /><path clip-path="url(#clip810)" d="M1814.64 1479.7 L1819.53 1479.7 L1819.53 1485.58 L1814.64 1485.58 L1814.64 1479.7 Z" fill="#000000" fill-rule="nonzero" fill-opacity="1" /><path clip-path="url(#clip810)" d="M1839.71 1454.1 Q1836.1 1454.1 1834.27 1457.66 Q1832.47 1461.2 1832.47 1468.33 Q1832.47 1475.44 1834.27 1479.01 Q1836.1 1482.55 1839.71 1482.55 Q1843.35 1482.55 1845.15 1479.01 Q1846.98 1475.44 1846.98 1468.33 Q1846.98 1461.2 1845.15 1457.66 Q1843.35 1454.1 1839.71 1454.1 M1839.71 1450.39 Q1845.52 1450.39 1848.58 1455 Q1851.66 1459.58 1851.66 1468.33 Q1851.66 1477.06 1848.58 1481.67 Q1845.52 1486.25 1839.71 1486.25 Q1833.9 1486.25 1830.82 1481.67 Q1827.77 1477.06 1827.77 1468.33 Q1827.77 1459.58 1830.82 1455 Q1833.9 1450.39 1839.71 1450.39 Z" fill="#000000" fill-rule="nonzero" fill-opacity="1" /><path clip-path="url(#clip810)" d="M1921.91 1468.75 L1951.58 1468.75 L1951.58 1472.69 L1921.91 1472.69 L1921.91 1468.75 Z" fill="#000000" fill-rule="nonzero" fill-opacity="1" /><path clip-path="url(#clip810)" d="M1971.68 1454.1 Q1968.07 1454.1 1966.24 1457.66 Q1964.43 1461.2 1964.43 1468.33 Q1964.43 1475.44 1966.24 1479.01 Q1968.07 1482.55 1971.68 1482.55 Q1975.31 1482.55 1977.12 1479.01 Q1978.95 1475.44 1978.95 1468.33 Q1978.95 1461.2 1977.12 1457.66 Q1975.31 1454.1 1971.68 1454.1 M1971.68 1450.39 Q1977.49 1450.39 1980.54 1455 Q1983.62 1459.58 1983.62 1468.33 Q1983.62 1477.06 1980.54 1481.67 Q1977.49 1486.25 1971.68 1486.25 Q1965.87 1486.25 1962.79 1481.67 Q1959.73 1477.06 1959.73 1468.33 Q1959.73 1459.58 1962.79 1455 Q1965.87 1450.39 1971.68 1450.39 Z" fill="#000000" fill-rule="nonzero" fill-opacity="1" /><path clip-path="url(#clip810)" d="M1991.84 1479.7 L1996.72 1479.7 L1996.72 1485.58 L1991.84 1485.58 L1991.84 1479.7 Z" fill="#000000" fill-rule="nonzero" fill-opacity="1" /><path clip-path="url(#clip810)" d="M2006.95 1451.02 L2025.31 1451.02 L2025.31 1454.96 L2011.24 1454.96 L2011.24 1463.43 Q2012.26 1463.08 2013.27 1462.92 Q2014.29 1462.73 2015.31 1462.73 Q2021.1 1462.73 2024.48 1465.9 Q2027.86 1469.08 2027.86 1474.49 Q2027.86 1480.07 2024.39 1483.17 Q2020.91 1486.25 2014.59 1486.25 Q2012.42 1486.25 2010.15 1485.88 Q2007.9 1485.51 2005.5 1484.77 L2005.5 1480.07 Q2007.58 1481.2 2009.8 1481.76 Q2012.02 1482.32 2014.5 1482.32 Q2018.51 1482.32 2020.84 1480.21 Q2023.18 1478.1 2023.18 1474.49 Q2023.18 1470.88 2020.84 1468.77 Q2018.51 1466.67 2014.5 1466.67 Q2012.63 1466.67 2010.75 1467.08 Q2008.9 1467.5 2006.95 1468.38 L2006.95 1451.02 Z" fill="#000000" fill-rule="nonzero" fill-opacity="1" /><path clip-path="url(#clip810)" d="M2128.97 1454.1 Q2125.35 1454.1 2123.53 1457.66 Q2121.72 1461.2 2121.72 1468.33 Q2121.72 1475.44 2123.53 1479.01 Q2125.35 1482.55 2128.97 1482.55 Q2132.6 1482.55 2134.41 1479.01 Q2136.23 1475.44 2136.23 1468.33 Q2136.23 1461.2 2134.41 1457.66 Q2132.6 1454.1 2128.97 1454.1 M2128.97 1450.39 Q2134.78 1450.39 2137.83 1455 Q2140.91 1459.58 2140.91 1468.33 Q2140.91 1477.06 2137.83 1481.67 Q2134.78 1486.25 2128.97 1486.25 Q2123.16 1486.25 2120.08 1481.67 Q2117.02 1477.06 2117.02 1468.33 Q2117.02 1459.58 2120.08 1455 Q2123.16 1450.39 2128.97 1450.39 Z" fill="#000000" fill-rule="nonzero" fill-opacity="1" /><path clip-path="url(#clip810)" d="M2149.13 1479.7 L2154.01 1479.7 L2154.01 1485.58 L2149.13 1485.58 L2149.13 1479.7 Z" fill="#000000" fill-rule="nonzero" fill-opacity="1" /><path clip-path="url(#clip810)" d="M2174.2 1454.1 Q2170.59 1454.1 2168.76 1457.66 Q2166.95 1461.2 2166.95 1468.33 Q2166.95 1475.44 2168.76 1479.01 Q2170.59 1482.55 2174.2 1482.55 Q2177.83 1482.55 2179.64 1479.01 Q2181.46 1475.44 2181.46 1468.33 Q2181.46 1461.2 2179.64 1457.66 Q2177.83 1454.1 2174.2 1454.1 M2174.2 1450.39 Q2180.01 1450.39 2183.06 1455 Q2186.14 1459.58 2186.14 1468.33 Q2186.14 1477.06 2183.06 1481.67 Q2180.01 1486.25 2174.2 1486.25 Q2168.39 1486.25 2165.31 1481.67 Q2162.25 1477.06 2162.25 1468.33 Q2162.25 1459.58 2165.31 1455 Q2168.39 1450.39 2174.2 1450.39 Z" fill="#000000" fill-rule="nonzero" fill-opacity="1" /><path clip-path="url(#clip810)" d="M2306.16 1454.1 Q2302.55 1454.1 2300.72 1457.66 Q2298.92 1461.2 2298.92 1468.33 Q2298.92 1475.44 2300.72 1479.01 Q2302.55 1482.55 2306.16 1482.55 Q2309.79 1482.55 2311.6 1479.01 Q2313.43 1475.44 2313.43 1468.33 Q2313.43 1461.2 2311.6 1457.66 Q2309.79 1454.1 2306.16 1454.1 M2306.16 1450.39 Q2311.97 1450.39 2315.03 1455 Q2318.11 1459.58 2318.11 1468.33 Q2318.11 1477.06 2315.03 1481.67 Q2311.97 1486.25 2306.16 1486.25 Q2300.35 1486.25 2297.27 1481.67 Q2294.22 1477.06 2294.22 1468.33 Q2294.22 1459.58 2297.27 1455 Q2300.35 1450.39 2306.16 1450.39 Z" fill="#000000" fill-rule="nonzero" fill-opacity="1" /><path clip-path="url(#clip810)" d="M2326.32 1479.7 L2331.21 1479.7 L2331.21 1485.58 L2326.32 1485.58 L2326.32 1479.7 Z" fill="#000000" fill-rule="nonzero" fill-opacity="1" /><path clip-path="url(#clip810)" d="M2341.44 1451.02 L2359.79 1451.02 L2359.79 1454.96 L2345.72 1454.96 L2345.72 1463.43 Q2346.74 1463.08 2347.76 1462.92 Q2348.78 1462.73 2349.79 1462.73 Q2355.58 1462.73 2358.96 1465.9 Q2362.34 1469.08 2362.34 1474.49 Q2362.34 1480.07 2358.87 1483.17 Q2355.4 1486.25 2349.08 1486.25 Q2346.9 1486.25 2344.63 1485.88 Q2342.39 1485.51 2339.98 1484.77 L2339.98 1480.07 Q2342.06 1481.2 2344.29 1481.76 Q2346.51 1482.32 2348.98 1482.32 Q2352.99 1482.32 2355.33 1480.21 Q2357.67 1478.1 2357.67 1474.49 Q2357.67 1470.88 2355.33 1468.77 Q2352.99 1466.67 2348.98 1466.67 Q2347.11 1466.67 2345.23 1467.08 Q2343.38 1467.5 2341.44 1468.38 L2341.44 1451.02 Z" fill="#000000" fill-rule="nonzero" fill-opacity="1" /><path clip-path="url(#clip810)" d="M1883.39 1545.45 L1863.12 1545.45 Q1863.6 1554.96 1865.79 1559 Q1868.53 1563.97 1873.27 1563.97 Q1878.05 1563.97 1880.69 1558.97 Q1883.01 1554.58 1883.39 1545.45 M1883.3 1540.03 Q1882.41 1531 1880.69 1527.81 Q1877.95 1522.78 1873.27 1522.78 Q1868.4 1522.78 1865.83 1527.75 Q1863.79 1531.76 1863.18 1540.03 L1883.3 1540.03 M1873.27 1518.01 Q1880.91 1518.01 1885.27 1524.76 Q1889.63 1531.47 1889.63 1543.38 Q1889.63 1555.25 1885.27 1562 Q1880.91 1568.78 1873.27 1568.78 Q1865.6 1568.78 1861.27 1562 Q1856.91 1555.25 1856.91 1543.38 Q1856.91 1531.47 1861.27 1524.76 Q1865.6 1518.01 1873.27 1518.01 Z" fill="#000000" fill-rule="nonzero" fill-opacity="1" /><path clip-path="url(#clip810)" d="M1901.73 1564.42 L1915.22 1564.42 L1915.22 1568.04 L1896.19 1568.04 L1896.19 1564.54 Q1897.27 1563.56 1899.28 1561.77 Q1910.23 1552.07 1910.23 1549.07 Q1910.23 1546.97 1908.57 1545.7 Q1906.92 1544.4 1904.21 1544.4 Q1902.56 1544.4 1900.61 1544.97 Q1898.67 1545.51 1896.38 1546.62 L1896.38 1542.71 Q1898.83 1541.82 1900.93 1541.37 Q1903.06 1540.93 1904.88 1540.93 Q1909.49 1540.93 1912.26 1543.03 Q1915.03 1545.13 1915.03 1548.56 Q1915.03 1552.99 1904.5 1562.03 Q1902.71 1563.56 1901.73 1564.42 Z" fill="#000000" fill-rule="nonzero" fill-opacity="1" /><polyline clip-path="url(#clip810)" style="stroke:#000000; stroke-linecap:round; stroke-linejoin:round; stroke-width:4; stroke-opacity:1; fill:none" points="1419.38,1423.18 1419.38,47.2441 "/>
<polyline clip-path="url(#clip810)" style="stroke:#000000; stroke-linecap:round; stroke-linejoin:round; stroke-width:4; stroke-opacity:1; fill:none" points="1419.38,1391.09 1438.28,1391.09 "/>
<polyline clip-path="url(#clip810)" style="stroke:#000000; stroke-linecap:round; stroke-linejoin:round; stroke-width:4; stroke-opacity:1; fill:none" points="1419.38,1070.14 1438.28,1070.14 "/>
<polyline clip-path="url(#clip810)" style="stroke:#000000; stroke-linecap:round; stroke-linejoin:round; stroke-width:4; stroke-opacity:1; fill:none" points="1419.38,749.191 1438.28,749.191 "/>
<polyline clip-path="url(#clip810)" style="stroke:#000000; stroke-linecap:round; stroke-linejoin:round; stroke-width:4; stroke-opacity:1; fill:none" points="1419.38,428.245 1438.28,428.245 "/>
<polyline clip-path="url(#clip810)" style="stroke:#000000; stroke-linecap:round; stroke-linejoin:round; stroke-width:4; stroke-opacity:1; fill:none" points="1419.38,107.298 1438.28,107.298 "/>
<path clip-path="url(#clip810)" d="M1326.2 1376.88 Q1322.59 1376.88 1320.76 1380.45 Q1318.96 1383.99 1318.96 1391.12 Q1318.96 1398.23 1320.76 1401.79 Q1322.59 1405.33 1326.2 1405.33 Q1329.84 1405.33 1331.64 1401.79 Q1333.47 1398.23 1333.47 1391.12 Q1333.47 1383.99 1331.64 1380.45 Q1329.84 1376.88 1326.2 1376.88 M1326.2 1373.18 Q1332.01 1373.18 1335.07 1377.79 Q1338.15 1382.37 1338.15 1391.12 Q1338.15 1399.85 1335.07 1404.45 Q1332.01 1409.04 1326.2 1409.04 Q1320.39 1409.04 1317.32 1404.45 Q1314.26 1399.85 1314.26 1391.12 Q1314.26 1382.37 1317.32 1377.79 Q1320.39 1373.18 1326.2 1373.18 Z" fill="#000000" fill-rule="nonzero" fill-opacity="1" /><path clip-path="url(#clip810)" d="M1346.37 1402.49 L1351.25 1402.49 L1351.25 1408.37 L1346.37 1408.37 L1346.37 1402.49 Z" fill="#000000" fill-rule="nonzero" fill-opacity="1" /><path clip-path="url(#clip810)" d="M1371.44 1376.88 Q1367.82 1376.88 1366 1380.45 Q1364.19 1383.99 1364.19 1391.12 Q1364.19 1398.23 1366 1401.79 Q1367.82 1405.33 1371.44 1405.33 Q1375.07 1405.33 1376.88 1401.79 Q1378.7 1398.23 1378.7 1391.12 Q1378.7 1383.99 1376.88 1380.45 Q1375.07 1376.88 1371.44 1376.88 M1371.44 1373.18 Q1377.25 1373.18 1380.3 1377.79 Q1383.38 1382.37 1383.38 1391.12 Q1383.38 1399.85 1380.3 1404.45 Q1377.25 1409.04 1371.44 1409.04 Q1365.63 1409.04 1362.55 1404.45 Q1359.49 1399.85 1359.49 1391.12 Q1359.49 1382.37 1362.55 1377.79 Q1365.63 1373.18 1371.44 1373.18 Z" fill="#000000" fill-rule="nonzero" fill-opacity="1" /><path clip-path="url(#clip810)" d="M1327.2 1055.94 Q1323.59 1055.94 1321.76 1059.5 Q1319.95 1063.04 1319.95 1070.17 Q1319.95 1077.28 1321.76 1080.84 Q1323.59 1084.39 1327.2 1084.39 Q1330.83 1084.39 1332.64 1080.84 Q1334.47 1077.28 1334.47 1070.17 Q1334.47 1063.04 1332.64 1059.5 Q1330.83 1055.94 1327.2 1055.94 M1327.2 1052.23 Q1333.01 1052.23 1336.07 1056.84 Q1339.14 1061.42 1339.14 1070.17 Q1339.14 1078.9 1336.07 1083.51 Q1333.01 1088.09 1327.2 1088.09 Q1321.39 1088.09 1318.31 1083.51 Q1315.26 1078.9 1315.26 1070.17 Q1315.26 1061.42 1318.31 1056.84 Q1321.39 1052.23 1327.2 1052.23 Z" fill="#000000" fill-rule="nonzero" fill-opacity="1" /><path clip-path="url(#clip810)" d="M1347.36 1081.54 L1352.25 1081.54 L1352.25 1087.42 L1347.36 1087.42 L1347.36 1081.54 Z" fill="#000000" fill-rule="nonzero" fill-opacity="1" /><path clip-path="url(#clip810)" d="M1362.48 1052.86 L1380.83 1052.86 L1380.83 1056.79 L1366.76 1056.79 L1366.76 1065.27 Q1367.78 1064.92 1368.8 1064.76 Q1369.82 1064.57 1370.83 1064.57 Q1376.62 1064.57 1380 1067.74 Q1383.38 1070.91 1383.38 1076.33 Q1383.38 1081.91 1379.91 1085.01 Q1376.44 1088.09 1370.12 1088.09 Q1367.94 1088.09 1365.67 1087.72 Q1363.43 1087.35 1361.02 1086.61 L1361.02 1081.91 Q1363.1 1083.04 1365.32 1083.6 Q1367.55 1084.15 1370.02 1084.15 Q1374.03 1084.15 1376.37 1082.05 Q1378.7 1079.94 1378.7 1076.33 Q1378.7 1072.72 1376.37 1070.61 Q1374.03 1068.51 1370.02 1068.51 Q1368.15 1068.51 1366.27 1068.92 Q1364.42 1069.34 1362.48 1070.22 L1362.48 1052.86 Z" fill="#000000" fill-rule="nonzero" fill-opacity="1" /><path clip-path="url(#clip810)" d="M1317.01 762.536 L1324.65 762.536 L1324.65 736.171 L1316.34 737.837 L1316.34 733.578 L1324.61 731.911 L1329.28 731.911 L1329.28 762.536 L1336.92 762.536 L1336.92 766.471 L1317.01 766.471 L1317.01 762.536 Z" fill="#000000" fill-rule="nonzero" fill-opacity="1" /><path clip-path="url(#clip810)" d="M1346.37 760.592 L1351.25 760.592 L1351.25 766.471 L1346.37 766.471 L1346.37 760.592 Z" fill="#000000" fill-rule="nonzero" fill-opacity="1" /><path clip-path="url(#clip810)" d="M1371.44 734.99 Q1367.82 734.99 1366 738.555 Q1364.19 742.097 1364.19 749.226 Q1364.19 756.333 1366 759.897 Q1367.82 763.439 1371.44 763.439 Q1375.07 763.439 1376.88 759.897 Q1378.7 756.333 1378.7 749.226 Q1378.7 742.097 1376.88 738.555 Q1375.07 734.99 1371.44 734.99 M1371.44 731.286 Q1377.25 731.286 1380.3 735.893 Q1383.38 740.476 1383.38 749.226 Q1383.38 757.953 1380.3 762.559 Q1377.25 767.143 1371.44 767.143 Q1365.63 767.143 1362.55 762.559 Q1359.49 757.953 1359.49 749.226 Q1359.49 740.476 1362.55 735.893 Q1365.63 731.286 1371.44 731.286 Z" fill="#000000" fill-rule="nonzero" fill-opacity="1" /><path clip-path="url(#clip810)" d="M1318.01 441.589 L1325.65 441.589 L1325.65 415.224 L1317.34 416.891 L1317.34 412.631 L1325.6 410.965 L1330.28 410.965 L1330.28 441.589 L1337.92 441.589 L1337.92 445.525 L1318.01 445.525 L1318.01 441.589 Z" fill="#000000" fill-rule="nonzero" fill-opacity="1" /><path clip-path="url(#clip810)" d="M1347.36 439.645 L1352.25 439.645 L1352.25 445.525 L1347.36 445.525 L1347.36 439.645 Z" fill="#000000" fill-rule="nonzero" fill-opacity="1" /><path clip-path="url(#clip810)" d="M1362.48 410.965 L1380.83 410.965 L1380.83 414.9 L1366.76 414.9 L1366.76 423.372 Q1367.78 423.025 1368.8 422.863 Q1369.82 422.678 1370.83 422.678 Q1376.62 422.678 1380 425.849 Q1383.38 429.02 1383.38 434.437 Q1383.38 440.015 1379.91 443.117 Q1376.44 446.196 1370.12 446.196 Q1367.94 446.196 1365.67 445.826 Q1363.43 445.455 1361.02 444.714 L1361.02 440.015 Q1363.1 441.15 1365.32 441.705 Q1367.55 442.261 1370.02 442.261 Q1374.03 442.261 1376.37 440.154 Q1378.7 438.048 1378.7 434.437 Q1378.7 430.826 1376.37 428.719 Q1374.03 426.613 1370.02 426.613 Q1368.15 426.613 1366.27 427.029 Q1364.42 427.446 1362.48 428.326 L1362.48 410.965 Z" fill="#000000" fill-rule="nonzero" fill-opacity="1" /><path clip-path="url(#clip810)" d="M1320.23 120.643 L1336.55 120.643 L1336.55 124.578 L1314.61 124.578 L1314.61 120.643 Q1317.27 117.888 1321.85 113.258 Q1326.46 108.606 1327.64 107.263 Q1329.89 104.74 1330.76 103.004 Q1331.67 101.245 1331.67 99.5548 Q1331.67 96.8002 1329.72 95.0641 Q1327.8 93.328 1324.7 93.328 Q1322.5 93.328 1320.05 94.0919 Q1317.62 94.8558 1314.84 96.4067 L1314.84 91.6845 Q1317.66 90.5502 1320.12 89.9715 Q1322.57 89.3928 1324.61 89.3928 Q1329.98 89.3928 1333.17 92.078 Q1336.37 94.7632 1336.37 99.2539 Q1336.37 101.383 1335.56 103.305 Q1334.77 105.203 1332.66 107.795 Q1332.08 108.467 1328.98 111.684 Q1325.88 114.879 1320.23 120.643 Z" fill="#000000" fill-rule="nonzero" fill-opacity="1" /><path clip-path="url(#clip810)" d="M1346.37 118.698 L1351.25 118.698 L1351.25 124.578 L1346.37 124.578 L1346.37 118.698 Z" fill="#000000" fill-rule="nonzero" fill-opacity="1" /><path clip-path="url(#clip810)" d="M1371.44 93.0965 Q1367.82 93.0965 1366 96.6613 Q1364.19 100.203 1364.19 107.333 Q1364.19 114.439 1366 118.004 Q1367.82 121.545 1371.44 121.545 Q1375.07 121.545 1376.88 118.004 Q1378.7 114.439 1378.7 107.333 Q1378.7 100.203 1376.88 96.6613 Q1375.07 93.0965 1371.44 93.0965 M1371.44 89.3928 Q1377.25 89.3928 1380.3 93.9993 Q1383.38 98.5826 1383.38 107.333 Q1383.38 116.059 1380.3 120.666 Q1377.25 125.249 1371.44 125.249 Q1365.63 125.249 1362.55 120.666 Q1359.49 116.059 1359.49 107.333 Q1359.49 98.5826 1362.55 93.9993 Q1365.63 89.3928 1371.44 89.3928 Z" fill="#000000" fill-rule="nonzero" fill-opacity="1" /><path clip-path="url(#clip810)" d="M1220.14 919.388 L1226.92 919.388 Q1223.9 922.634 1222.4 926.326 Q1220.91 929.987 1220.91 934.124 Q1220.91 942.272 1225.91 946.601 Q1230.87 950.93 1240.29 950.93 Q1249.68 950.93 1254.68 946.601 Q1259.64 942.272 1259.64 934.124 Q1259.64 929.987 1258.15 926.326 Q1256.65 922.634 1253.63 919.388 L1260.34 919.388 Q1262.64 922.762 1263.78 926.549 Q1264.93 930.305 1264.93 934.506 Q1264.93 945.296 1258.34 951.503 Q1251.72 957.709 1240.29 957.709 Q1228.83 957.709 1222.25 951.503 Q1215.62 945.296 1215.62 934.506 Q1215.62 930.241 1216.77 926.486 Q1217.88 922.698 1220.14 919.388 Z" fill="#000000" fill-rule="nonzero" fill-opacity="1" /><path clip-path="url(#clip810)" d="M1232.46 895.898 Q1232.46 900.609 1236.15 903.346 Q1239.81 906.083 1246.21 906.083 Q1252.61 906.083 1256.3 903.378 Q1259.96 900.641 1259.96 895.898 Q1259.96 891.22 1256.27 888.482 Q1252.58 885.745 1246.21 885.745 Q1239.88 885.745 1236.19 888.482 Q1232.46 891.22 1232.46 895.898 M1227.5 895.898 Q1227.5 888.259 1232.46 883.899 Q1237.43 879.538 1246.21 879.538 Q1254.96 879.538 1259.96 883.899 Q1264.93 888.259 1264.93 895.898 Q1264.93 903.569 1259.96 907.93 Q1254.96 912.258 1246.21 912.258 Q1237.43 912.258 1232.46 907.93 Q1227.5 903.569 1227.5 895.898 Z" fill="#000000" fill-rule="nonzero" fill-opacity="1" /><path clip-path="url(#clip810)" d="M1242.49 840.198 L1264 840.198 L1264 846.055 L1242.68 846.055 Q1237.62 846.055 1235.1 848.028 Q1232.59 850.002 1232.59 853.948 Q1232.59 858.691 1235.61 861.428 Q1238.64 864.165 1243.86 864.165 L1264 864.165 L1264 870.054 L1228.36 870.054 L1228.36 864.165 L1233.89 864.165 Q1230.68 862.065 1229.09 859.232 Q1227.5 856.367 1227.5 852.643 Q1227.5 846.5 1231.32 843.349 Q1235.1 840.198 1242.49 840.198 Z" fill="#000000" fill-rule="nonzero" fill-opacity="1" /><path clip-path="url(#clip810)" d="M1214.48 810.471 L1219.35 810.471 L1219.35 816.072 Q1219.35 819.223 1220.62 820.465 Q1221.9 821.674 1225.21 821.674 L1228.36 821.674 L1228.36 812.03 L1232.91 812.03 L1232.91 821.674 L1264 821.674 L1264 827.562 L1232.91 827.562 L1232.91 833.164 L1228.36 833.164 L1228.36 827.562 L1225.87 827.562 Q1219.92 827.562 1217.22 824.793 Q1214.48 822.024 1214.48 816.009 L1214.48 810.471 Z" fill="#000000" fill-rule="nonzero" fill-opacity="1" /><path clip-path="url(#clip810)" d="M1255.92 809.484 L1255.92 802.768 L1264 802.768 L1264 809.484 L1255.92 809.484 Z" fill="#000000" fill-rule="nonzero" fill-opacity="1" /><path clip-path="url(#clip810)" d="M1214.48 768.871 L1214.48 763.014 L1264 763.014 L1264 768.871 L1214.48 768.871 Z" fill="#000000" fill-rule="nonzero" fill-opacity="1" /><path clip-path="url(#clip810)" d="M1244.72 720.268 L1247.58 720.268 L1247.58 747.195 Q1253.63 746.813 1256.81 743.567 Q1259.96 740.289 1259.96 734.464 Q1259.96 731.09 1259.13 727.939 Q1258.31 724.756 1256.65 721.637 L1262.19 721.637 Q1263.53 724.788 1264.23 728.098 Q1264.93 731.408 1264.93 734.814 Q1264.93 743.344 1259.96 748.341 Q1255 753.306 1246.53 753.306 Q1237.78 753.306 1232.65 748.596 Q1227.5 743.853 1227.5 735.833 Q1227.5 728.639 1232.14 724.47 Q1236.76 720.268 1244.72 720.268 M1243 726.125 Q1238.19 726.189 1235.33 728.83 Q1232.46 731.44 1232.46 735.769 Q1232.46 740.671 1235.23 743.631 Q1238 746.559 1243.03 747.004 L1243 726.125 Z" fill="#000000" fill-rule="nonzero" fill-opacity="1" /><path clip-path="url(#clip810)" d="M1228.36 714.858 L1228.36 708.651 L1258.28 697.511 L1228.36 686.371 L1228.36 680.165 L1264 693.533 L1264 701.49 L1228.36 714.858 Z" fill="#000000" fill-rule="nonzero" fill-opacity="1" /><path clip-path="url(#clip810)" d="M1244.72 641.588 L1247.58 641.588 L1247.58 668.515 Q1253.63 668.133 1256.81 664.887 Q1259.96 661.608 1259.96 655.784 Q1259.96 652.41 1259.13 649.259 Q1258.31 646.076 1256.65 642.957 L1262.19 642.957 Q1263.53 646.108 1264.23 649.418 Q1264.93 652.728 1264.93 656.134 Q1264.93 664.664 1259.96 669.661 Q1255 674.626 1246.53 674.626 Q1237.78 674.626 1232.65 669.916 Q1227.5 665.173 1227.5 657.152 Q1227.5 649.959 1232.14 645.79 Q1236.76 641.588 1244.72 641.588 M1243 647.445 Q1238.19 647.508 1235.33 650.15 Q1232.46 652.76 1232.46 657.089 Q1232.46 661.99 1235.23 664.95 Q1238 667.879 1243.03 668.324 L1243 647.445 Z" fill="#000000" fill-rule="nonzero" fill-opacity="1" /><path clip-path="url(#clip810)" d="M1214.48 631.976 L1214.48 626.12 L1264 626.12 L1264 631.976 L1214.48 631.976 Z" fill="#000000" fill-rule="nonzero" fill-opacity="1" /><path clip-path="url(#clip810)" d="M1214.48 593.686 L1214.48 580.191 L1219.03 580.191 L1219.03 587.83 L1268.05 587.83 L1268.05 580.191 L1272.6 580.191 L1272.6 593.686 L1214.48 593.686 Z" fill="#000000" fill-rule="nonzero" fill-opacity="1" /><path clip-path="url(#clip810)" d="M1233 553.901 Q1233 558.739 1236.5 561.349 Q1240.16 564.086 1246.21 564.086 Q1252.61 564.086 1256.3 561.38 Q1259.96 558.643 1259.96 553.901 Q1259.96 549.222 1256.27 546.485 Q1252.58 543.747 1246.21 543.747 Q1240.39 543.747 1236.5 546.485 Q1233 548.999 1233 553.901 M1228.36 553.901 L1228.36 534.453 L1234.21 534.453 L1234.21 541.01 Q1239.18 537.541 1246.21 537.541 Q1254.96 537.541 1259.93 541.901 Q1264.93 546.262 1264.93 553.901 Q1264.93 561.571 1259.93 565.9 Q1254.96 570.261 1246.21 570.261 Q1237.4 570.261 1232.46 565.9 Q1228.36 562.303 1228.36 553.901 Z" fill="#000000" fill-rule="nonzero" fill-opacity="1" /><path clip-path="url(#clip810)" d="M1214.48 512.715 L1272.6 512.715 L1272.6 526.21 L1268.05 526.21 L1268.05 518.603 L1219.03 518.603 L1219.03 526.21 L1214.48 526.21 L1214.48 512.715 Z" fill="#000000" fill-rule="nonzero" fill-opacity="1" /><polyline clip-path="url(#clip813)" style="stroke:#009af9; stroke-linecap:round; stroke-linejoin:round; stroke-width:6; stroke-opacity:1; fill:none" points="1445.8,48.7044 1481.03,97.6274 1517,152.344 1555.18,216.139 1599.37,297.918 1663.63,433.433 1719.5,568.436 1759.01,673.854 1791.71,767.134 1820.33,852.801 1846.13,932.634 1869.84,1007.35 1891.92,1077.12 1912.67,1141.73 1932.33,1200.71 1951.07,1253.37 1969.03,1298.86 1986.32,1336.24 2003.01,1364.53 2019.01,1382.78 2033.08,1390.43 2038.48,1391.09 2043.87,1390.42 2057.94,1382.23 2073.42,1362.2 2088.73,1331.11 2103.42,1291.11 2117.56,1243.95 2131.21,1191.13 2144.43,1133.9 2157.28,1073.32 2169.78,1010.2 2181.99,945.181 2193.94,878.773 2205.66,811.354 2217.17,743.209 2228.5,674.553 2239.68,605.539 2250.73,536.276 2261.68,466.835 2272.53,397.259 2283.32,327.563 2294.08,257.743 2304.81,187.773 2315.56,117.62 2326.34,47.2441 "/>
<path clip-path="url(#clip813)" d="M2038.48 1401.09 L2029.82 1396.09 L2029.82 1386.09 L2038.48 1381.09 L2047.14 1386.09 L2047.14 1396.09 Z" fill="#ff0000" fill-rule="evenodd" fill-opacity="1" stroke="none"/>
</svg>
