<?xml version="1.0" encoding="utf-8"?>
<svg xmlns="http://www.w3.org/2000/svg" xmlns:xlink="http://www.w3.org/1999/xlink" width="600" height="400" viewBox="0 0 2400 1600">
<defs>
  <clipPath id="clip590">
    <rect x="0" y="0" width="2400" height="1600"/>
  </clipPath>
</defs>
<path clip-path="url(#clip590)" d="M0 1600 L2400 1600 L2400 0 L0 0  Z" fill="#ffffff" fill-rule="evenodd" fill-opacity="1"/>
<defs>
  <clipPath id="clip591">
    <rect x="250" y="47" width="2104" height="1377"/>
  </clipPath>
</defs>
<path clip-path="url(#clip590)" d="M250.028 1423.18 L2352.76 1423.18 L2352.76 47.2441 L250.028 47.2441  Z" fill="#ffffff" fill-rule="evenodd" fill-opacity="1"/>
<polyline clip-path="url(#clip591)" style="stroke:#000000; stroke-linecap:round; stroke-linejoin:round; stroke-width:2; stroke-opacity:0.1; fill:none" points="363.706,1423.18 363.706,47.2441 "/>
<polyline clip-path="url(#clip591)" style="stroke:#000000; stroke-linecap:round; stroke-linejoin:round; stroke-width:2; stroke-opacity:0.1; fill:none" points="661.197,1423.18 661.197,47.2441 "/>
<polyline clip-path="url(#clip591)" style="stroke:#000000; stroke-linecap:round; stroke-linejoin:round; stroke-width:2; stroke-opacity:0.1; fill:none" points="958.688,1423.18 958.688,47.2441 "/>
<polyline clip-path="url(#clip591)" style="stroke:#000000; stroke-linecap:round; stroke-linejoin:round; stroke-width:2; stroke-opacity:0.1; fill:none" points="1256.18,1423.18 1256.18,47.2441 "/>
<polyline clip-path="url(#clip591)" style="stroke:#000000; stroke-linecap:round; stroke-linejoin:round; stroke-width:2; stroke-opacity:0.1; fill:none" points="1553.67,1423.18 1553.67,47.2441 "/>
<polyline clip-path="url(#clip591)" style="stroke:#000000; stroke-linecap:round; stroke-linejoin:round; stroke-width:2; stroke-opacity:0.1; fill:none" points="1851.16,1423.18 1851.16,47.2441 "/>
<polyline clip-path="url(#clip591)" style="stroke:#000000; stroke-linecap:round; stroke-linejoin:round; stroke-width:2; stroke-opacity:0.1; fill:none" points="2148.65,1423.18 2148.65,47.2441 "/>
<polyline clip-path="url(#clip591)" style="stroke:#000000; stroke-linecap:round; stroke-linejoin:round; stroke-width:2; stroke-opacity:0.1; fill:none" points="250.028,1334.75 2352.76,1334.75 "/>
<polyline clip-path="url(#clip591)" style="stroke:#000000; stroke-linecap:round; stroke-linejoin:round; stroke-width:2; stroke-opacity:0.1; fill:none" points="250.028,1128 2352.76,1128 "/>
<polyline clip-path="url(#clip591)" style="stroke:#000000; stroke-linecap:round; stroke-linejoin:round; stroke-width:2; stroke-opacity:0.1; fill:none" points="250.028,921.247 2352.76,921.247 "/>
<polyline clip-path="url(#clip591)" style="stroke:#000000; stroke-linecap:round; stroke-linejoin:round; stroke-width:2; stroke-opacity:0.1; fill:none" points="250.028,714.497 2352.76,714.497 "/>
<polyline clip-path="url(#clip591)" style="stroke:#000000; stroke-linecap:round; stroke-linejoin:round; stroke-width:2; stroke-opacity:0.1; fill:none" points="250.028,507.746 2352.76,507.746 "/>
<polyline clip-path="url(#clip591)" style="stroke:#000000; stroke-linecap:round; stroke-linejoin:round; stroke-width:2; stroke-opacity:0.1; fill:none" points="250.028,300.995 2352.76,300.995 "/>
<polyline clip-path="url(#clip591)" style="stroke:#000000; stroke-linecap:round; stroke-linejoin:round; stroke-width:2; stroke-opacity:0.1; fill:none" points="250.028,94.2441 2352.76,94.2441 "/>
<polyline clip-path="url(#clip590)" style="stroke:#000000; stroke-linecap:round; stroke-linejoin:round; stroke-width:4; stroke-opacity:1; fill:none" points="250.028,1423.18 2352.76,1423.18 "/>
<polyline clip-path="url(#clip590)" style="stroke:#000000; stroke-linecap:round; stroke-linejoin:round; stroke-width:4; stroke-opacity:1; fill:none" points="363.706,1423.18 363.706,1404.28 "/>
<polyline clip-path="url(#clip590)" style="stroke:#000000; stroke-linecap:round; stroke-linejoin:round; stroke-width:4; stroke-opacity:1; fill:none" points="661.197,1423.18 661.197,1404.28 "/>
<polyline clip-path="url(#clip590)" style="stroke:#000000; stroke-linecap:round; stroke-linejoin:round; stroke-width:4; stroke-opacity:1; fill:none" points="958.688,1423.18 958.688,1404.28 "/>
<polyline clip-path="url(#clip590)" style="stroke:#000000; stroke-linecap:round; stroke-linejoin:round; stroke-width:4; stroke-opacity:1; fill:none" points="1256.18,1423.18 1256.18,1404.28 "/>
<polyline clip-path="url(#clip590)" style="stroke:#000000; stroke-linecap:round; stroke-linejoin:round; stroke-width:4; stroke-opacity:1; fill:none" points="1553.67,1423.18 1553.67,1404.28 "/>
<polyline clip-path="url(#clip590)" style="stroke:#000000; stroke-linecap:round; stroke-linejoin:round; stroke-width:4; stroke-opacity:1; fill:none" points="1851.16,1423.18 1851.16,1404.28 "/>
<polyline clip-path="url(#clip590)" style="stroke:#000000; stroke-linecap:round; stroke-linejoin:round; stroke-width:4; stroke-opacity:1; fill:none" points="2148.65,1423.18 2148.65,1404.28 "/>
<path clip-path="url(#clip590)" d="M281.565 1454.1 Q277.954 1454.1 276.126 1457.66 Q274.32 1461.2 274.32 1468.33 Q274.32 1475.44 276.126 1479.01 Q277.954 1482.55 281.565 1482.55 Q285.2 1482.55 287.005 1479.01 Q288.834 1475.44 288.834 1468.33 Q288.834 1461.2 287.005 1457.66 Q285.2 1454.1 281.565 1454.1 M281.565 1450.39 Q287.376 1450.39 290.431 1455 Q293.51 1459.58 293.51 1468.33 Q293.51 1477.06 290.431 1481.67 Q287.376 1486.25 281.565 1486.25 Q275.755 1486.25 272.677 1481.67 Q269.621 1477.06 269.621 1468.33 Q269.621 1459.58 272.677 1455 Q275.755 1450.39 281.565 1450.39 Z" fill="#000000" fill-rule="nonzero" fill-opacity="1" /><path clip-path="url(#clip590)" d="M301.727 1479.7 L306.612 1479.7 L306.612 1485.58 L301.727 1485.58 L301.727 1479.7 Z" fill="#000000" fill-rule="nonzero" fill-opacity="1" /><path clip-path="url(#clip590)" d="M326.797 1454.1 Q323.186 1454.1 321.357 1457.66 Q319.551 1461.2 319.551 1468.33 Q319.551 1475.44 321.357 1479.01 Q323.186 1482.55 326.797 1482.55 Q330.431 1482.55 332.236 1479.01 Q334.065 1475.44 334.065 1468.33 Q334.065 1461.2 332.236 1457.66 Q330.431 1454.1 326.797 1454.1 M326.797 1450.39 Q332.607 1450.39 335.662 1455 Q338.741 1459.58 338.741 1468.33 Q338.741 1477.06 335.662 1481.67 Q332.607 1486.25 326.797 1486.25 Q320.986 1486.25 317.908 1481.67 Q314.852 1477.06 314.852 1468.33 Q314.852 1459.58 317.908 1455 Q320.986 1450.39 326.797 1450.39 Z" fill="#000000" fill-rule="nonzero" fill-opacity="1" /><path clip-path="url(#clip590)" d="M356.958 1454.1 Q353.347 1454.1 351.519 1457.66 Q349.713 1461.2 349.713 1468.33 Q349.713 1475.44 351.519 1479.01 Q353.347 1482.55 356.958 1482.55 Q360.593 1482.55 362.398 1479.01 Q364.227 1475.44 364.227 1468.33 Q364.227 1461.2 362.398 1457.66 Q360.593 1454.1 356.958 1454.1 M356.958 1450.39 Q362.769 1450.39 365.824 1455 Q368.903 1459.58 368.903 1468.33 Q368.903 1477.06 365.824 1481.67 Q362.769 1486.25 356.958 1486.25 Q351.148 1486.25 348.07 1481.67 Q345.014 1477.06 345.014 1468.33 Q345.014 1459.58 348.07 1455 Q351.148 1450.39 356.958 1450.39 Z" fill="#000000" fill-rule="nonzero" fill-opacity="1" /><path clip-path="url(#clip590)" d="M381.148 1481.64 L397.468 1481.64 L397.468 1485.58 L375.523 1485.58 L375.523 1481.64 Q378.185 1478.89 382.769 1474.26 Q387.375 1469.61 388.556 1468.27 Q390.801 1465.74 391.681 1464.01 Q392.583 1462.25 392.583 1460.56 Q392.583 1457.8 390.639 1456.07 Q388.718 1454.33 385.616 1454.33 Q383.417 1454.33 380.963 1455.09 Q378.532 1455.86 375.755 1457.41 L375.755 1452.69 Q378.579 1451.55 381.032 1450.97 Q383.486 1450.39 385.523 1450.39 Q390.893 1450.39 394.088 1453.08 Q397.282 1455.77 397.282 1460.26 Q397.282 1462.39 396.472 1464.31 Q395.685 1466.2 393.579 1468.8 Q393 1469.47 389.898 1472.69 Q386.796 1475.88 381.148 1481.64 Z" fill="#000000" fill-rule="nonzero" fill-opacity="1" /><path clip-path="url(#clip590)" d="M408.092 1481.64 L415.731 1481.64 L415.731 1455.28 L407.421 1456.95 L407.421 1452.69 L415.685 1451.02 L420.361 1451.02 L420.361 1481.64 L428 1481.64 L428 1485.58 L408.092 1485.58 L408.092 1481.64 Z" fill="#000000" fill-rule="nonzero" fill-opacity="1" /><path clip-path="url(#clip590)" d="M441.472 1481.64 L457.791 1481.64 L457.791 1485.58 L435.847 1485.58 L435.847 1481.64 Q438.509 1478.89 443.092 1474.26 Q447.699 1469.61 448.879 1468.27 Q451.125 1465.74 452.004 1464.01 Q452.907 1462.25 452.907 1460.56 Q452.907 1457.8 450.963 1456.07 Q449.041 1454.33 445.939 1454.33 Q443.74 1454.33 441.287 1455.09 Q438.856 1455.86 436.078 1457.41 L436.078 1452.69 Q438.902 1451.55 441.356 1450.97 Q443.81 1450.39 445.847 1450.39 Q451.217 1450.39 454.412 1453.08 Q457.606 1455.77 457.606 1460.26 Q457.606 1462.39 456.796 1464.31 Q456.009 1466.2 453.902 1468.8 Q453.324 1469.47 450.222 1472.69 Q447.12 1475.88 441.472 1481.64 Z" fill="#000000" fill-rule="nonzero" fill-opacity="1" /><path clip-path="url(#clip590)" d="M578.015 1454.1 Q574.404 1454.1 572.575 1457.66 Q570.77 1461.2 570.77 1468.33 Q570.77 1475.44 572.575 1479.01 Q574.404 1482.55 578.015 1482.55 Q581.649 1482.55 583.455 1479.01 Q585.283 1475.44 585.283 1468.33 Q585.283 1461.2 583.455 1457.66 Q581.649 1454.1 578.015 1454.1 M578.015 1450.39 Q583.825 1450.39 586.881 1455 Q589.959 1459.58 589.959 1468.33 Q589.959 1477.06 586.881 1481.67 Q583.825 1486.25 578.015 1486.25 Q572.205 1486.25 569.126 1481.67 Q566.07 1477.06 566.07 1468.33 Q566.07 1459.58 569.126 1455 Q572.205 1450.39 578.015 1450.39 Z" fill="#000000" fill-rule="nonzero" fill-opacity="1" /><path clip-path="url(#clip590)" d="M598.177 1479.7 L603.061 1479.7 L603.061 1485.58 L598.177 1485.58 L598.177 1479.7 Z" fill="#000000" fill-rule="nonzero" fill-opacity="1" /><path clip-path="url(#clip590)" d="M623.246 1454.1 Q619.635 1454.1 617.806 1457.66 Q616.001 1461.2 616.001 1468.33 Q616.001 1475.44 617.806 1479.01 Q619.635 1482.55 623.246 1482.55 Q626.88 1482.55 628.686 1479.01 Q630.515 1475.44 630.515 1468.33 Q630.515 1461.2 628.686 1457.66 Q626.88 1454.1 623.246 1454.1 M623.246 1450.39 Q629.056 1450.39 632.112 1455 Q635.19 1459.58 635.19 1468.33 Q635.19 1477.06 632.112 1481.67 Q629.056 1486.25 623.246 1486.25 Q617.436 1486.25 614.357 1481.67 Q611.302 1477.06 611.302 1468.33 Q611.302 1459.58 614.357 1455 Q617.436 1450.39 623.246 1450.39 Z" fill="#000000" fill-rule="nonzero" fill-opacity="1" /><path clip-path="url(#clip590)" d="M653.408 1454.1 Q649.797 1454.1 647.968 1457.66 Q646.163 1461.2 646.163 1468.33 Q646.163 1475.44 647.968 1479.01 Q649.797 1482.55 653.408 1482.55 Q657.042 1482.55 658.848 1479.01 Q660.676 1475.44 660.676 1468.33 Q660.676 1461.2 658.848 1457.66 Q657.042 1454.1 653.408 1454.1 M653.408 1450.39 Q659.218 1450.39 662.274 1455 Q665.352 1459.58 665.352 1468.33 Q665.352 1477.06 662.274 1481.67 Q659.218 1486.25 653.408 1486.25 Q647.598 1486.25 644.519 1481.67 Q641.464 1477.06 641.464 1468.33 Q641.464 1459.58 644.519 1455 Q647.598 1450.39 653.408 1450.39 Z" fill="#000000" fill-rule="nonzero" fill-opacity="1" /><path clip-path="url(#clip590)" d="M677.598 1481.64 L693.917 1481.64 L693.917 1485.58 L671.973 1485.58 L671.973 1481.64 Q674.635 1478.89 679.218 1474.26 Q683.824 1469.61 685.005 1468.27 Q687.25 1465.74 688.13 1464.01 Q689.033 1462.25 689.033 1460.56 Q689.033 1457.8 687.088 1456.07 Q685.167 1454.33 682.065 1454.33 Q679.866 1454.33 677.412 1455.09 Q674.982 1455.86 672.204 1457.41 L672.204 1452.69 Q675.028 1451.55 677.482 1450.97 Q679.936 1450.39 681.973 1450.39 Q687.343 1450.39 690.537 1453.08 Q693.732 1455.77 693.732 1460.26 Q693.732 1462.39 692.922 1464.31 Q692.135 1466.2 690.028 1468.8 Q689.449 1469.47 686.348 1472.69 Q683.246 1475.88 677.598 1481.64 Z" fill="#000000" fill-rule="nonzero" fill-opacity="1" /><path clip-path="url(#clip590)" d="M704.542 1481.64 L712.181 1481.64 L712.181 1455.28 L703.871 1456.95 L703.871 1452.69 L712.134 1451.02 L716.81 1451.02 L716.81 1481.64 L724.449 1481.64 L724.449 1485.58 L704.542 1485.58 L704.542 1481.64 Z" fill="#000000" fill-rule="nonzero" fill-opacity="1" /><path clip-path="url(#clip590)" d="M746.741 1455.09 L734.935 1473.54 L746.741 1473.54 L746.741 1455.09 M745.514 1451.02 L751.394 1451.02 L751.394 1473.54 L756.324 1473.54 L756.324 1477.43 L751.394 1477.43 L751.394 1485.58 L746.741 1485.58 L746.741 1477.43 L731.139 1477.43 L731.139 1472.92 L745.514 1451.02 Z" fill="#000000" fill-rule="nonzero" fill-opacity="1" /><path clip-path="url(#clip590)" d="M875.668 1454.1 Q872.057 1454.1 870.228 1457.66 Q868.423 1461.2 868.423 1468.33 Q868.423 1475.44 870.228 1479.01 Q872.057 1482.55 875.668 1482.55 Q879.302 1482.55 881.108 1479.01 Q882.936 1475.44 882.936 1468.33 Q882.936 1461.2 881.108 1457.66 Q879.302 1454.1 875.668 1454.1 M875.668 1450.39 Q881.478 1450.39 884.534 1455 Q887.612 1459.58 887.612 1468.33 Q887.612 1477.06 884.534 1481.67 Q881.478 1486.25 875.668 1486.25 Q869.858 1486.25 866.779 1481.67 Q863.724 1477.06 863.724 1468.33 Q863.724 1459.58 866.779 1455 Q869.858 1450.39 875.668 1450.39 Z" fill="#000000" fill-rule="nonzero" fill-opacity="1" /><path clip-path="url(#clip590)" d="M895.83 1479.7 L900.714 1479.7 L900.714 1485.58 L895.83 1485.58 L895.83 1479.7 Z" fill="#000000" fill-rule="nonzero" fill-opacity="1" /><path clip-path="url(#clip590)" d="M920.899 1454.1 Q917.288 1454.1 915.459 1457.66 Q913.654 1461.2 913.654 1468.33 Q913.654 1475.44 915.459 1479.01 Q917.288 1482.55 920.899 1482.55 Q924.533 1482.55 926.339 1479.01 Q928.168 1475.44 928.168 1468.33 Q928.168 1461.2 926.339 1457.66 Q924.533 1454.1 920.899 1454.1 M920.899 1450.39 Q926.709 1450.39 929.765 1455 Q932.844 1459.58 932.844 1468.33 Q932.844 1477.06 929.765 1481.67 Q926.709 1486.25 920.899 1486.25 Q915.089 1486.25 912.01 1481.67 Q908.955 1477.06 908.955 1468.33 Q908.955 1459.58 912.01 1455 Q915.089 1450.39 920.899 1450.39 Z" fill="#000000" fill-rule="nonzero" fill-opacity="1" /><path clip-path="url(#clip590)" d="M951.061 1454.1 Q947.45 1454.1 945.621 1457.66 Q943.816 1461.2 943.816 1468.33 Q943.816 1475.44 945.621 1479.01 Q947.45 1482.55 951.061 1482.55 Q954.695 1482.55 956.501 1479.01 Q958.33 1475.44 958.33 1468.33 Q958.33 1461.2 956.501 1457.66 Q954.695 1454.1 951.061 1454.1 M951.061 1450.39 Q956.871 1450.39 959.927 1455 Q963.006 1459.58 963.006 1468.33 Q963.006 1477.06 959.927 1481.67 Q956.871 1486.25 951.061 1486.25 Q945.251 1486.25 942.172 1481.67 Q939.117 1477.06 939.117 1468.33 Q939.117 1459.58 942.172 1455 Q945.251 1450.39 951.061 1450.39 Z" fill="#000000" fill-rule="nonzero" fill-opacity="1" /><path clip-path="url(#clip590)" d="M975.251 1481.64 L991.57 1481.64 L991.57 1485.58 L969.626 1485.58 L969.626 1481.64 Q972.288 1478.89 976.871 1474.26 Q981.478 1469.61 982.658 1468.27 Q984.904 1465.74 985.783 1464.01 Q986.686 1462.25 986.686 1460.56 Q986.686 1457.8 984.742 1456.07 Q982.82 1454.33 979.718 1454.33 Q977.519 1454.33 975.066 1455.09 Q972.635 1455.86 969.857 1457.41 L969.857 1452.69 Q972.681 1451.55 975.135 1450.97 Q977.589 1450.39 979.626 1450.39 Q984.996 1450.39 988.191 1453.08 Q991.385 1455.77 991.385 1460.26 Q991.385 1462.39 990.575 1464.31 Q989.788 1466.2 987.681 1468.8 Q987.103 1469.47 984.001 1472.69 Q980.899 1475.88 975.251 1481.64 Z" fill="#000000" fill-rule="nonzero" fill-opacity="1" /><path clip-path="url(#clip590)" d="M1002.2 1481.64 L1009.83 1481.64 L1009.83 1455.28 L1001.52 1456.95 L1001.52 1452.69 L1009.79 1451.02 L1014.46 1451.02 L1014.46 1481.64 L1022.1 1481.64 L1022.1 1485.58 L1002.2 1485.58 L1002.2 1481.64 Z" fill="#000000" fill-rule="nonzero" fill-opacity="1" /><path clip-path="url(#clip590)" d="M1042.13 1466.44 Q1038.98 1466.44 1037.13 1468.59 Q1035.3 1470.74 1035.3 1474.49 Q1035.3 1478.22 1037.13 1480.39 Q1038.98 1482.55 1042.13 1482.55 Q1045.27 1482.55 1047.1 1480.39 Q1048.95 1478.22 1048.95 1474.49 Q1048.95 1470.74 1047.1 1468.59 Q1045.27 1466.44 1042.13 1466.44 M1051.41 1451.78 L1051.41 1456.04 Q1049.65 1455.21 1047.84 1454.77 Q1046.06 1454.33 1044.3 1454.33 Q1039.67 1454.33 1037.22 1457.45 Q1034.79 1460.58 1034.44 1466.9 Q1035.81 1464.89 1037.87 1463.82 Q1039.93 1462.73 1042.4 1462.73 Q1047.61 1462.73 1050.62 1465.9 Q1053.65 1469.05 1053.65 1474.49 Q1053.65 1479.82 1050.51 1483.03 Q1047.36 1486.25 1042.13 1486.25 Q1036.13 1486.25 1032.96 1481.67 Q1029.79 1477.06 1029.79 1468.33 Q1029.79 1460.14 1033.68 1455.28 Q1037.57 1450.39 1044.12 1450.39 Q1045.88 1450.39 1047.66 1450.74 Q1049.46 1451.09 1051.41 1451.78 Z" fill="#000000" fill-rule="nonzero" fill-opacity="1" /><path clip-path="url(#clip590)" d="M1173.29 1454.1 Q1169.68 1454.1 1167.85 1457.66 Q1166.04 1461.2 1166.04 1468.33 Q1166.04 1475.44 1167.85 1479.01 Q1169.68 1482.55 1173.29 1482.55 Q1176.92 1482.55 1178.73 1479.01 Q1180.55 1475.44 1180.55 1468.33 Q1180.55 1461.2 1178.73 1457.66 Q1176.92 1454.1 1173.29 1454.1 M1173.29 1450.39 Q1179.1 1450.39 1182.15 1455 Q1185.23 1459.58 1185.23 1468.33 Q1185.23 1477.06 1182.15 1481.67 Q1179.1 1486.25 1173.29 1486.25 Q1167.48 1486.25 1164.4 1481.67 Q1161.34 1477.06 1161.34 1468.33 Q1161.34 1459.58 1164.4 1455 Q1167.48 1450.39 1173.29 1450.39 Z" fill="#000000" fill-rule="nonzero" fill-opacity="1" /><path clip-path="url(#clip590)" d="M1193.45 1479.7 L1198.33 1479.7 L1198.33 1485.58 L1193.45 1485.58 L1193.45 1479.7 Z" fill="#000000" fill-rule="nonzero" fill-opacity="1" /><path clip-path="url(#clip590)" d="M1218.52 1454.1 Q1214.91 1454.1 1213.08 1457.66 Q1211.27 1461.2 1211.27 1468.33 Q1211.27 1475.44 1213.08 1479.01 Q1214.91 1482.55 1218.52 1482.55 Q1222.15 1482.55 1223.96 1479.01 Q1225.79 1475.44 1225.79 1468.33 Q1225.79 1461.2 1223.96 1457.66 Q1222.15 1454.1 1218.52 1454.1 M1218.52 1450.39 Q1224.33 1450.39 1227.38 1455 Q1230.46 1459.58 1230.46 1468.33 Q1230.46 1477.06 1227.38 1481.67 Q1224.33 1486.25 1218.52 1486.25 Q1212.71 1486.25 1209.63 1481.67 Q1206.57 1477.06 1206.57 1468.33 Q1206.57 1459.58 1209.63 1455 Q1212.71 1450.39 1218.52 1450.39 Z" fill="#000000" fill-rule="nonzero" fill-opacity="1" /><path clip-path="url(#clip590)" d="M1248.68 1454.1 Q1245.07 1454.1 1243.24 1457.66 Q1241.43 1461.2 1241.43 1468.33 Q1241.43 1475.44 1243.24 1479.01 Q1245.07 1482.55 1248.68 1482.55 Q1252.31 1482.55 1254.12 1479.01 Q1255.95 1475.44 1255.95 1468.33 Q1255.95 1461.2 1254.12 1457.66 Q1252.31 1454.1 1248.68 1454.1 M1248.68 1450.39 Q1254.49 1450.39 1257.55 1455 Q1260.62 1459.58 1260.62 1468.33 Q1260.62 1477.06 1257.55 1481.67 Q1254.49 1486.25 1248.68 1486.25 Q1242.87 1486.25 1239.79 1481.67 Q1236.74 1477.06 1236.74 1468.33 Q1236.74 1459.58 1239.79 1455 Q1242.87 1450.39 1248.68 1450.39 Z" fill="#000000" fill-rule="nonzero" fill-opacity="1" /><path clip-path="url(#clip590)" d="M1272.87 1481.64 L1289.19 1481.64 L1289.19 1485.58 L1267.24 1485.58 L1267.24 1481.64 Q1269.91 1478.89 1274.49 1474.26 Q1279.1 1469.61 1280.28 1468.27 Q1282.52 1465.74 1283.4 1464.01 Q1284.3 1462.25 1284.3 1460.56 Q1284.3 1457.8 1282.36 1456.07 Q1280.44 1454.33 1277.34 1454.33 Q1275.14 1454.33 1272.68 1455.09 Q1270.25 1455.86 1267.48 1457.41 L1267.48 1452.69 Q1270.3 1451.55 1272.75 1450.97 Q1275.21 1450.39 1277.24 1450.39 Q1282.61 1450.39 1285.81 1453.08 Q1289 1455.77 1289 1460.26 Q1289 1462.39 1288.19 1464.31 Q1287.41 1466.2 1285.3 1468.8 Q1284.72 1469.47 1281.62 1472.69 Q1278.52 1475.88 1272.87 1481.64 Z" fill="#000000" fill-rule="nonzero" fill-opacity="1" /><path clip-path="url(#clip590)" d="M1299.81 1481.64 L1307.45 1481.64 L1307.45 1455.28 L1299.14 1456.95 L1299.14 1452.69 L1307.41 1451.02 L1312.08 1451.02 L1312.08 1481.64 L1319.72 1481.64 L1319.72 1485.58 L1299.81 1485.58 L1299.81 1481.64 Z" fill="#000000" fill-rule="nonzero" fill-opacity="1" /><path clip-path="url(#clip590)" d="M1339.17 1469.17 Q1335.83 1469.17 1333.91 1470.95 Q1332.01 1472.73 1332.01 1475.86 Q1332.01 1478.98 1333.91 1480.77 Q1335.83 1482.55 1339.17 1482.55 Q1342.5 1482.55 1344.42 1480.77 Q1346.34 1478.96 1346.34 1475.86 Q1346.34 1472.73 1344.42 1470.95 Q1342.52 1469.17 1339.17 1469.17 M1334.49 1467.18 Q1331.48 1466.44 1329.79 1464.38 Q1328.12 1462.32 1328.12 1459.35 Q1328.12 1455.21 1331.06 1452.8 Q1334.03 1450.39 1339.17 1450.39 Q1344.33 1450.39 1347.27 1452.8 Q1350.21 1455.21 1350.21 1459.35 Q1350.21 1462.32 1348.52 1464.38 Q1346.85 1466.44 1343.86 1467.18 Q1347.24 1467.96 1349.12 1470.26 Q1351.02 1472.55 1351.02 1475.86 Q1351.02 1480.88 1347.94 1483.57 Q1344.88 1486.25 1339.17 1486.25 Q1333.45 1486.25 1330.37 1483.57 Q1327.31 1480.88 1327.31 1475.86 Q1327.31 1472.55 1329.21 1470.26 Q1331.11 1467.96 1334.49 1467.18 M1332.78 1459.79 Q1332.78 1462.48 1334.44 1463.98 Q1336.13 1465.49 1339.17 1465.49 Q1342.17 1465.49 1343.86 1463.98 Q1345.58 1462.48 1345.58 1459.79 Q1345.58 1457.11 1343.86 1455.6 Q1342.17 1454.1 1339.17 1454.1 Q1336.13 1454.1 1334.44 1455.6 Q1332.78 1457.11 1332.78 1459.79 Z" fill="#000000" fill-rule="nonzero" fill-opacity="1" /><path clip-path="url(#clip590)" d="M1470.73 1454.1 Q1467.12 1454.1 1465.29 1457.66 Q1463.49 1461.2 1463.49 1468.33 Q1463.49 1475.44 1465.29 1479.01 Q1467.12 1482.55 1470.73 1482.55 Q1474.37 1482.55 1476.17 1479.01 Q1478 1475.44 1478 1468.33 Q1478 1461.2 1476.17 1457.66 Q1474.37 1454.1 1470.73 1454.1 M1470.73 1450.39 Q1476.54 1450.39 1479.6 1455 Q1482.68 1459.58 1482.68 1468.33 Q1482.68 1477.06 1479.6 1481.67 Q1476.54 1486.25 1470.73 1486.25 Q1464.92 1486.25 1461.84 1481.67 Q1458.79 1477.06 1458.79 1468.33 Q1458.79 1459.58 1461.84 1455 Q1464.92 1450.39 1470.73 1450.39 Z" fill="#000000" fill-rule="nonzero" fill-opacity="1" /><path clip-path="url(#clip590)" d="M1490.89 1479.7 L1495.78 1479.7 L1495.78 1485.58 L1490.89 1485.58 L1490.89 1479.7 Z" fill="#000000" fill-rule="nonzero" fill-opacity="1" /><path clip-path="url(#clip590)" d="M1515.96 1454.1 Q1512.35 1454.1 1510.52 1457.66 Q1508.72 1461.2 1508.72 1468.33 Q1508.72 1475.44 1510.52 1479.01 Q1512.35 1482.55 1515.96 1482.55 Q1519.6 1482.55 1521.4 1479.01 Q1523.23 1475.44 1523.23 1468.33 Q1523.23 1461.2 1521.4 1457.66 Q1519.6 1454.1 1515.96 1454.1 M1515.96 1450.39 Q1521.77 1450.39 1524.83 1455 Q1527.91 1459.58 1527.91 1468.33 Q1527.91 1477.06 1524.83 1481.67 Q1521.77 1486.25 1515.96 1486.25 Q1510.15 1486.25 1507.07 1481.67 Q1504.02 1477.06 1504.02 1468.33 Q1504.02 1459.58 1507.07 1455 Q1510.15 1450.39 1515.96 1450.39 Z" fill="#000000" fill-rule="nonzero" fill-opacity="1" /><path clip-path="url(#clip590)" d="M1546.12 1454.1 Q1542.51 1454.1 1540.68 1457.66 Q1538.88 1461.2 1538.88 1468.33 Q1538.88 1475.44 1540.68 1479.01 Q1542.51 1482.55 1546.12 1482.55 Q1549.76 1482.55 1551.56 1479.01 Q1553.39 1475.44 1553.39 1468.33 Q1553.39 1461.2 1551.56 1457.66 Q1549.76 1454.1 1546.12 1454.1 M1546.12 1450.39 Q1551.93 1450.39 1554.99 1455 Q1558.07 1459.58 1558.07 1468.33 Q1558.07 1477.06 1554.99 1481.67 Q1551.93 1486.25 1546.12 1486.25 Q1540.31 1486.25 1537.24 1481.67 Q1534.18 1477.06 1534.18 1468.33 Q1534.18 1459.58 1537.24 1455 Q1540.31 1450.39 1546.12 1450.39 Z" fill="#000000" fill-rule="nonzero" fill-opacity="1" /><path clip-path="url(#clip590)" d="M1570.31 1481.64 L1586.63 1481.64 L1586.63 1485.58 L1564.69 1485.58 L1564.69 1481.64 Q1567.35 1478.89 1571.93 1474.26 Q1576.54 1469.61 1577.72 1468.27 Q1579.97 1465.74 1580.85 1464.01 Q1581.75 1462.25 1581.75 1460.56 Q1581.75 1457.8 1579.8 1456.07 Q1577.88 1454.33 1574.78 1454.33 Q1572.58 1454.33 1570.13 1455.09 Q1567.7 1455.86 1564.92 1457.41 L1564.92 1452.69 Q1567.74 1451.55 1570.2 1450.97 Q1572.65 1450.39 1574.69 1450.39 Q1580.06 1450.39 1583.25 1453.08 Q1586.45 1455.77 1586.45 1460.26 Q1586.45 1462.39 1585.64 1464.31 Q1584.85 1466.2 1582.74 1468.8 Q1582.17 1469.47 1579.06 1472.69 Q1575.96 1475.88 1570.31 1481.64 Z" fill="#000000" fill-rule="nonzero" fill-opacity="1" /><path clip-path="url(#clip590)" d="M1600.48 1481.64 L1616.8 1481.64 L1616.8 1485.58 L1594.85 1485.58 L1594.85 1481.64 Q1597.51 1478.89 1602.1 1474.26 Q1606.7 1469.61 1607.88 1468.27 Q1610.13 1465.74 1611.01 1464.01 Q1611.91 1462.25 1611.91 1460.56 Q1611.91 1457.8 1609.97 1456.07 Q1608.05 1454.33 1604.94 1454.33 Q1602.74 1454.33 1600.29 1455.09 Q1597.86 1455.86 1595.08 1457.41 L1595.08 1452.69 Q1597.91 1451.55 1600.36 1450.97 Q1602.81 1450.39 1604.85 1450.39 Q1610.22 1450.39 1613.42 1453.08 Q1616.61 1455.77 1616.61 1460.26 Q1616.61 1462.39 1615.8 1464.31 Q1615.01 1466.2 1612.91 1468.8 Q1612.33 1469.47 1609.23 1472.69 Q1606.12 1475.88 1600.48 1481.64 Z" fill="#000000" fill-rule="nonzero" fill-opacity="1" /><path clip-path="url(#clip590)" d="M1636.61 1454.1 Q1633 1454.1 1631.17 1457.66 Q1629.36 1461.2 1629.36 1468.33 Q1629.36 1475.44 1631.17 1479.01 Q1633 1482.55 1636.61 1482.55 Q1640.24 1482.55 1642.05 1479.01 Q1643.88 1475.44 1643.88 1468.33 Q1643.88 1461.2 1642.05 1457.66 Q1640.24 1454.1 1636.61 1454.1 M1636.61 1450.39 Q1642.42 1450.39 1645.48 1455 Q1648.55 1459.58 1648.55 1468.33 Q1648.55 1477.06 1645.48 1481.67 Q1642.42 1486.25 1636.61 1486.25 Q1630.8 1486.25 1627.72 1481.67 Q1624.67 1477.06 1624.67 1468.33 Q1624.67 1459.58 1627.72 1455 Q1630.8 1450.39 1636.61 1450.39 Z" fill="#000000" fill-rule="nonzero" fill-opacity="1" /><path clip-path="url(#clip590)" d="M1769.02 1454.1 Q1765.41 1454.1 1763.58 1457.66 Q1761.78 1461.2 1761.78 1468.33 Q1761.78 1475.44 1763.58 1479.01 Q1765.41 1482.55 1769.02 1482.55 Q1772.66 1482.55 1774.46 1479.01 Q1776.29 1475.44 1776.29 1468.33 Q1776.29 1461.2 1774.46 1457.66 Q1772.66 1454.1 1769.02 1454.1 M1769.02 1450.39 Q1774.83 1450.39 1777.89 1455 Q1780.97 1459.58 1780.97 1468.33 Q1780.97 1477.06 1777.89 1481.67 Q1774.83 1486.25 1769.02 1486.25 Q1763.21 1486.25 1760.13 1481.67 Q1757.08 1477.06 1757.08 1468.33 Q1757.08 1459.58 1760.13 1455 Q1763.21 1450.39 1769.02 1450.39 Z" fill="#000000" fill-rule="nonzero" fill-opacity="1" /><path clip-path="url(#clip590)" d="M1789.18 1479.7 L1794.07 1479.7 L1794.07 1485.58 L1789.18 1485.58 L1789.18 1479.7 Z" fill="#000000" fill-rule="nonzero" fill-opacity="1" /><path clip-path="url(#clip590)" d="M1814.25 1454.1 Q1810.64 1454.1 1808.81 1457.66 Q1807.01 1461.2 1807.01 1468.33 Q1807.01 1475.44 1808.81 1479.01 Q1810.64 1482.55 1814.25 1482.55 Q1817.89 1482.55 1819.69 1479.01 Q1821.52 1475.44 1821.52 1468.33 Q1821.52 1461.2 1819.69 1457.66 Q1817.89 1454.1 1814.25 1454.1 M1814.25 1450.39 Q1820.06 1450.39 1823.12 1455 Q1826.2 1459.58 1826.2 1468.33 Q1826.2 1477.06 1823.12 1481.67 Q1820.06 1486.25 1814.25 1486.25 Q1808.44 1486.25 1805.36 1481.67 Q1802.31 1477.06 1802.31 1468.33 Q1802.31 1459.58 1805.36 1455 Q1808.44 1450.39 1814.25 1450.39 Z" fill="#000000" fill-rule="nonzero" fill-opacity="1" /><path clip-path="url(#clip590)" d="M1844.41 1454.1 Q1840.8 1454.1 1838.97 1457.66 Q1837.17 1461.2 1837.17 1468.33 Q1837.17 1475.44 1838.97 1479.01 Q1840.8 1482.55 1844.41 1482.55 Q1848.05 1482.55 1849.85 1479.01 Q1851.68 1475.44 1851.68 1468.33 Q1851.68 1461.2 1849.85 1457.66 Q1848.05 1454.1 1844.41 1454.1 M1844.41 1450.39 Q1850.22 1450.39 1853.28 1455 Q1856.36 1459.58 1856.36 1468.33 Q1856.36 1477.06 1853.28 1481.67 Q1850.22 1486.25 1844.41 1486.25 Q1838.6 1486.25 1835.53 1481.67 Q1832.47 1477.06 1832.47 1468.33 Q1832.47 1459.58 1835.53 1455 Q1838.6 1450.39 1844.41 1450.39 Z" fill="#000000" fill-rule="nonzero" fill-opacity="1" /><path clip-path="url(#clip590)" d="M1868.6 1481.64 L1884.92 1481.64 L1884.92 1485.58 L1862.98 1485.58 L1862.98 1481.64 Q1865.64 1478.89 1870.22 1474.26 Q1874.83 1469.61 1876.01 1468.27 Q1878.26 1465.74 1879.14 1464.01 Q1880.04 1462.25 1880.04 1460.56 Q1880.04 1457.8 1878.09 1456.07 Q1876.17 1454.33 1873.07 1454.33 Q1870.87 1454.33 1868.42 1455.09 Q1865.99 1455.86 1863.21 1457.41 L1863.21 1452.69 Q1866.03 1451.55 1868.49 1450.97 Q1870.94 1450.39 1872.98 1450.39 Q1878.35 1450.39 1881.54 1453.08 Q1884.74 1455.77 1884.74 1460.26 Q1884.74 1462.39 1883.93 1464.31 Q1883.14 1466.2 1881.03 1468.8 Q1880.46 1469.47 1877.35 1472.69 Q1874.25 1475.88 1868.6 1481.64 Z" fill="#000000" fill-rule="nonzero" fill-opacity="1" /><path clip-path="url(#clip590)" d="M1898.77 1481.64 L1915.09 1481.64 L1915.09 1485.58 L1893.14 1485.58 L1893.14 1481.64 Q1895.8 1478.89 1900.39 1474.26 Q1904.99 1469.61 1906.17 1468.27 Q1908.42 1465.74 1909.3 1464.01 Q1910.2 1462.25 1910.2 1460.56 Q1910.2 1457.8 1908.26 1456.07 Q1906.34 1454.33 1903.23 1454.33 Q1901.03 1454.33 1898.58 1455.09 Q1896.15 1455.86 1893.37 1457.41 L1893.37 1452.69 Q1896.2 1451.55 1898.65 1450.97 Q1901.1 1450.39 1903.14 1450.39 Q1908.51 1450.39 1911.71 1453.08 Q1914.9 1455.77 1914.9 1460.26 Q1914.9 1462.39 1914.09 1464.31 Q1913.3 1466.2 1911.2 1468.8 Q1910.62 1469.47 1907.52 1472.69 Q1904.41 1475.88 1898.77 1481.64 Z" fill="#000000" fill-rule="nonzero" fill-opacity="1" /><path clip-path="url(#clip590)" d="M1928.93 1481.64 L1945.25 1481.64 L1945.25 1485.58 L1923.3 1485.58 L1923.3 1481.64 Q1925.96 1478.89 1930.55 1474.26 Q1935.15 1469.61 1936.33 1468.27 Q1938.58 1465.74 1939.46 1464.01 Q1940.36 1462.25 1940.36 1460.56 Q1940.36 1457.8 1938.42 1456.07 Q1936.5 1454.33 1933.4 1454.33 Q1931.2 1454.33 1928.74 1455.09 Q1926.31 1455.86 1923.53 1457.41 L1923.53 1452.69 Q1926.36 1451.55 1928.81 1450.97 Q1931.27 1450.39 1933.3 1450.39 Q1938.67 1450.39 1941.87 1453.08 Q1945.06 1455.77 1945.06 1460.26 Q1945.06 1462.39 1944.25 1464.31 Q1943.46 1466.2 1941.36 1468.8 Q1940.78 1469.47 1937.68 1472.69 Q1934.58 1475.88 1928.93 1481.64 Z" fill="#000000" fill-rule="nonzero" fill-opacity="1" /><path clip-path="url(#clip590)" d="M2065.47 1454.1 Q2061.86 1454.1 2060.03 1457.66 Q2058.23 1461.2 2058.23 1468.33 Q2058.23 1475.44 2060.03 1479.01 Q2061.86 1482.55 2065.47 1482.55 Q2069.1 1482.55 2070.91 1479.01 Q2072.74 1475.44 2072.74 1468.33 Q2072.74 1461.2 2070.91 1457.66 Q2069.1 1454.1 2065.47 1454.1 M2065.47 1450.39 Q2071.28 1450.39 2074.34 1455 Q2077.41 1459.58 2077.41 1468.33 Q2077.41 1477.06 2074.34 1481.67 Q2071.28 1486.25 2065.47 1486.25 Q2059.66 1486.25 2056.58 1481.67 Q2053.53 1477.06 2053.53 1468.33 Q2053.53 1459.58 2056.58 1455 Q2059.66 1450.39 2065.47 1450.39 Z" fill="#000000" fill-rule="nonzero" fill-opacity="1" /><path clip-path="url(#clip590)" d="M2085.63 1479.7 L2090.52 1479.7 L2090.52 1485.58 L2085.63 1485.58 L2085.63 1479.7 Z" fill="#000000" fill-rule="nonzero" fill-opacity="1" /><path clip-path="url(#clip590)" d="M2110.7 1454.1 Q2107.09 1454.1 2105.26 1457.66 Q2103.46 1461.2 2103.46 1468.33 Q2103.46 1475.44 2105.26 1479.01 Q2107.09 1482.55 2110.7 1482.55 Q2114.34 1482.55 2116.14 1479.01 Q2117.97 1475.44 2117.97 1468.33 Q2117.97 1461.2 2116.14 1457.66 Q2114.34 1454.1 2110.7 1454.1 M2110.7 1450.39 Q2116.51 1450.39 2119.57 1455 Q2122.65 1459.58 2122.65 1468.33 Q2122.65 1477.06 2119.57 1481.67 Q2116.51 1486.25 2110.7 1486.25 Q2104.89 1486.25 2101.81 1481.67 Q2098.76 1477.06 2098.76 1468.33 Q2098.76 1459.58 2101.81 1455 Q2104.89 1450.39 2110.7 1450.39 Z" fill="#000000" fill-rule="nonzero" fill-opacity="1" /><path clip-path="url(#clip590)" d="M2140.86 1454.1 Q2137.25 1454.1 2135.42 1457.66 Q2133.62 1461.2 2133.62 1468.33 Q2133.62 1475.44 2135.42 1479.01 Q2137.25 1482.55 2140.86 1482.55 Q2144.5 1482.55 2146.3 1479.01 Q2148.13 1475.44 2148.13 1468.33 Q2148.13 1461.2 2146.3 1457.66 Q2144.5 1454.1 2140.86 1454.1 M2140.86 1450.39 Q2146.67 1450.39 2149.73 1455 Q2152.81 1459.58 2152.81 1468.33 Q2152.81 1477.06 2149.73 1481.67 Q2146.67 1486.25 2140.86 1486.25 Q2135.05 1486.25 2131.97 1481.67 Q2128.92 1477.06 2128.92 1468.33 Q2128.92 1459.58 2131.97 1455 Q2135.05 1450.39 2140.86 1450.39 Z" fill="#000000" fill-rule="nonzero" fill-opacity="1" /><path clip-path="url(#clip590)" d="M2165.05 1481.64 L2181.37 1481.64 L2181.37 1485.58 L2159.43 1485.58 L2159.43 1481.64 Q2162.09 1478.89 2166.67 1474.26 Q2171.28 1469.61 2172.46 1468.27 Q2174.71 1465.74 2175.59 1464.01 Q2176.49 1462.25 2176.49 1460.56 Q2176.49 1457.8 2174.54 1456.07 Q2172.62 1454.33 2169.52 1454.33 Q2167.32 1454.33 2164.87 1455.09 Q2162.44 1455.86 2159.66 1457.41 L2159.66 1452.69 Q2162.48 1451.55 2164.94 1450.97 Q2167.39 1450.39 2169.43 1450.39 Q2174.8 1450.39 2177.99 1453.08 Q2181.19 1455.77 2181.19 1460.26 Q2181.19 1462.39 2180.38 1464.31 Q2179.59 1466.2 2177.48 1468.8 Q2176.91 1469.47 2173.8 1472.69 Q2170.7 1475.88 2165.05 1481.64 Z" fill="#000000" fill-rule="nonzero" fill-opacity="1" /><path clip-path="url(#clip590)" d="M2195.22 1481.64 L2211.53 1481.64 L2211.53 1485.58 L2189.59 1485.58 L2189.59 1481.64 Q2192.25 1478.89 2196.84 1474.26 Q2201.44 1469.61 2202.62 1468.27 Q2204.87 1465.74 2205.75 1464.01 Q2206.65 1462.25 2206.65 1460.56 Q2206.65 1457.8 2204.71 1456.07 Q2202.78 1454.33 2199.68 1454.33 Q2197.48 1454.33 2195.03 1455.09 Q2192.6 1455.86 2189.82 1457.41 L2189.82 1452.69 Q2192.65 1451.55 2195.1 1450.97 Q2197.55 1450.39 2199.59 1450.39 Q2204.96 1450.39 2208.15 1453.08 Q2211.35 1455.77 2211.35 1460.26 Q2211.35 1462.39 2210.54 1464.31 Q2209.75 1466.2 2207.65 1468.8 Q2207.07 1469.47 2203.97 1472.69 Q2200.86 1475.88 2195.22 1481.64 Z" fill="#000000" fill-rule="nonzero" fill-opacity="1" /><path clip-path="url(#clip590)" d="M2234.2 1455.09 L2222.39 1473.54 L2234.2 1473.54 L2234.2 1455.09 M2232.97 1451.02 L2238.85 1451.02 L2238.85 1473.54 L2243.78 1473.54 L2243.78 1477.43 L2238.85 1477.43 L2238.85 1485.58 L2234.2 1485.58 L2234.2 1477.43 L2218.59 1477.43 L2218.59 1472.92 L2232.97 1451.02 Z" fill="#000000" fill-rule="nonzero" fill-opacity="1" /><path clip-path="url(#clip590)" d="M1291.88 1565.85 L1291.88 1581.6 L1285.99 1581.6 L1285.99 1532.62 Q1285.99 1518.1 1299.55 1518.1 Q1313.36 1518.1 1313.36 1530.36 Q1313.36 1539.08 1307.89 1542.26 Q1316.8 1545.13 1316.8 1553.63 Q1316.8 1568.71 1301.46 1568.71 Q1294.71 1568.71 1291.88 1565.85 M1291.88 1558.21 Q1295.41 1563.72 1301.68 1563.72 Q1310.85 1563.72 1310.85 1553.72 Q1310.85 1544.75 1296.08 1545.45 L1296.08 1540.03 Q1307.63 1540.03 1307.63 1529.85 Q1307.63 1522.88 1300.18 1522.88 Q1291.88 1522.88 1291.88 1532.81 L1291.88 1558.21 Z" fill="#000000" fill-rule="nonzero" fill-opacity="1" /><polyline clip-path="url(#clip590)" style="stroke:#000000; stroke-linecap:round; stroke-linejoin:round; stroke-width:4; stroke-opacity:1; fill:none" points="250.028,1423.18 250.028,47.2441 "/>
<polyline clip-path="url(#clip590)" style="stroke:#000000; stroke-linecap:round; stroke-linejoin:round; stroke-width:4; stroke-opacity:1; fill:none" points="250.028,1334.75 268.926,1334.75 "/>
<polyline clip-path="url(#clip590)" style="stroke:#000000; stroke-linecap:round; stroke-linejoin:round; stroke-width:4; stroke-opacity:1; fill:none" points="250.028,1128 268.926,1128 "/>
<polyline clip-path="url(#clip590)" style="stroke:#000000; stroke-linecap:round; stroke-linejoin:round; stroke-width:4; stroke-opacity:1; fill:none" points="250.028,921.247 268.926,921.247 "/>
<polyline clip-path="url(#clip590)" style="stroke:#000000; stroke-linecap:round; stroke-linejoin:round; stroke-width:4; stroke-opacity:1; fill:none" points="250.028,714.497 268.926,714.497 "/>
<polyline clip-path="url(#clip590)" style="stroke:#000000; stroke-linecap:round; stroke-linejoin:round; stroke-width:4; stroke-opacity:1; fill:none" points="250.028,507.746 268.926,507.746 "/>
<polyline clip-path="url(#clip590)" style="stroke:#000000; stroke-linecap:round; stroke-linejoin:round; stroke-width:4; stroke-opacity:1; fill:none" points="250.028,300.995 268.926,300.995 "/>
<polyline clip-path="url(#clip590)" style="stroke:#000000; stroke-linecap:round; stroke-linejoin:round; stroke-width:4; stroke-opacity:1; fill:none" points="250.028,94.2441 268.926,94.2441 "/>
<path clip-path="url(#clip590)" d="M128.288 1320.55 Q124.677 1320.55 122.848 1324.11 Q121.043 1327.65 121.043 1334.78 Q121.043 1341.89 122.848 1345.45 Q124.677 1349 128.288 1349 Q131.922 1349 133.728 1345.45 Q135.556 1341.89 135.556 1334.78 Q135.556 1327.65 133.728 1324.11 Q131.922 1320.55 128.288 1320.55 M128.288 1316.84 Q134.098 1316.84 137.154 1321.45 Q140.232 1326.03 140.232 1334.78 Q140.232 1343.51 137.154 1348.12 Q134.098 1352.7 128.288 1352.7 Q122.478 1352.7 119.399 1348.12 Q116.343 1343.51 116.343 1334.78 Q116.343 1326.03 119.399 1321.45 Q122.478 1316.84 128.288 1316.84 Z" fill="#000000" fill-rule="nonzero" fill-opacity="1" /><path clip-path="url(#clip590)" d="M148.45 1346.15 L153.334 1346.15 L153.334 1352.03 L148.45 1352.03 L148.45 1346.15 Z" fill="#000000" fill-rule="nonzero" fill-opacity="1" /><path clip-path="url(#clip590)" d="M176.366 1321.54 L164.561 1339.99 L176.366 1339.99 L176.366 1321.54 M175.139 1317.47 L181.019 1317.47 L181.019 1339.99 L185.95 1339.99 L185.95 1343.88 L181.019 1343.88 L181.019 1352.03 L176.366 1352.03 L176.366 1343.88 L160.765 1343.88 L160.765 1339.37 L175.139 1317.47 Z" fill="#000000" fill-rule="nonzero" fill-opacity="1" /><path clip-path="url(#clip590)" d="M197.709 1348.09 L214.028 1348.09 L214.028 1352.03 L192.084 1352.03 L192.084 1348.09 Q194.746 1345.34 199.329 1340.71 Q203.936 1336.06 205.116 1334.71 Q207.362 1332.19 208.241 1330.46 Q209.144 1328.7 209.144 1327.01 Q209.144 1324.25 207.199 1322.52 Q205.278 1320.78 202.176 1320.78 Q199.977 1320.78 197.524 1321.54 Q195.093 1322.31 192.315 1323.86 L192.315 1319.14 Q195.139 1318 197.593 1317.42 Q200.047 1316.84 202.084 1316.84 Q207.454 1316.84 210.649 1319.53 Q213.843 1322.21 213.843 1326.71 Q213.843 1328.83 213.033 1330.76 Q212.246 1332.65 210.139 1335.25 Q209.561 1335.92 206.459 1339.14 Q203.357 1342.33 197.709 1348.09 Z" fill="#000000" fill-rule="nonzero" fill-opacity="1" /><path clip-path="url(#clip590)" d="M127.339 1113.8 Q123.728 1113.8 121.899 1117.36 Q120.093 1120.9 120.093 1128.03 Q120.093 1135.14 121.899 1138.7 Q123.728 1142.25 127.339 1142.25 Q130.973 1142.25 132.779 1138.7 Q134.607 1135.14 134.607 1128.03 Q134.607 1120.9 132.779 1117.36 Q130.973 1113.8 127.339 1113.8 M127.339 1110.09 Q133.149 1110.09 136.204 1114.7 Q139.283 1119.28 139.283 1128.03 Q139.283 1136.76 136.204 1141.37 Q133.149 1145.95 127.339 1145.95 Q121.529 1145.95 118.45 1141.37 Q115.394 1136.76 115.394 1128.03 Q115.394 1119.28 118.45 1114.7 Q121.529 1110.09 127.339 1110.09 Z" fill="#000000" fill-rule="nonzero" fill-opacity="1" /><path clip-path="url(#clip590)" d="M147.501 1139.4 L152.385 1139.4 L152.385 1145.28 L147.501 1145.28 L147.501 1139.4 Z" fill="#000000" fill-rule="nonzero" fill-opacity="1" /><path clip-path="url(#clip590)" d="M175.417 1114.79 L163.612 1133.24 L175.417 1133.24 L175.417 1114.79 M174.19 1110.72 L180.07 1110.72 L180.07 1133.24 L185.001 1133.24 L185.001 1137.13 L180.07 1137.13 L180.07 1145.28 L175.417 1145.28 L175.417 1137.13 L159.815 1137.13 L159.815 1132.62 L174.19 1110.72 Z" fill="#000000" fill-rule="nonzero" fill-opacity="1" /><path clip-path="url(#clip590)" d="M206.899 1126.64 Q210.255 1127.36 212.13 1129.63 Q214.028 1131.9 214.028 1135.23 Q214.028 1140.35 210.51 1143.15 Q206.991 1145.95 200.51 1145.95 Q198.334 1145.95 196.019 1145.51 Q193.727 1145.09 191.274 1144.24 L191.274 1139.72 Q193.218 1140.86 195.533 1141.44 Q197.848 1142.01 200.371 1142.01 Q204.769 1142.01 207.061 1140.28 Q209.375 1138.54 209.375 1135.23 Q209.375 1132.18 207.223 1130.46 Q205.093 1128.73 201.274 1128.73 L197.246 1128.73 L197.246 1124.88 L201.459 1124.88 Q204.908 1124.88 206.737 1123.52 Q208.565 1122.13 208.565 1119.54 Q208.565 1116.88 206.667 1115.46 Q204.792 1114.03 201.274 1114.03 Q199.352 1114.03 197.153 1114.45 Q194.954 1114.86 192.315 1115.74 L192.315 1111.57 Q194.977 1110.83 197.292 1110.46 Q199.63 1110.09 201.69 1110.09 Q207.014 1110.09 210.116 1112.52 Q213.218 1114.93 213.218 1119.05 Q213.218 1121.92 211.574 1123.91 Q209.931 1125.88 206.899 1126.64 Z" fill="#000000" fill-rule="nonzero" fill-opacity="1" /><path clip-path="url(#clip590)" d="M126.205 907.046 Q122.593 907.046 120.765 910.611 Q118.959 914.153 118.959 921.282 Q118.959 928.389 120.765 931.953 Q122.593 935.495 126.205 935.495 Q129.839 935.495 131.644 931.953 Q133.473 928.389 133.473 921.282 Q133.473 914.153 131.644 910.611 Q129.839 907.046 126.205 907.046 M126.205 903.342 Q132.015 903.342 135.07 907.949 Q138.149 912.532 138.149 921.282 Q138.149 930.009 135.07 934.615 Q132.015 939.199 126.205 939.199 Q120.394 939.199 117.316 934.615 Q114.26 930.009 114.26 921.282 Q114.26 912.532 117.316 907.949 Q120.394 903.342 126.205 903.342 Z" fill="#000000" fill-rule="nonzero" fill-opacity="1" /><path clip-path="url(#clip590)" d="M146.366 932.648 L151.251 932.648 L151.251 938.527 L146.366 938.527 L146.366 932.648 Z" fill="#000000" fill-rule="nonzero" fill-opacity="1" /><path clip-path="url(#clip590)" d="M174.283 908.041 L162.477 926.49 L174.283 926.49 L174.283 908.041 M173.056 903.967 L178.936 903.967 L178.936 926.49 L183.866 926.49 L183.866 930.379 L178.936 930.379 L178.936 938.527 L174.283 938.527 L174.283 930.379 L158.681 930.379 L158.681 925.865 L173.056 903.967 Z" fill="#000000" fill-rule="nonzero" fill-opacity="1" /><path clip-path="url(#clip590)" d="M204.445 908.041 L192.639 926.49 L204.445 926.49 L204.445 908.041 M203.218 903.967 L209.098 903.967 L209.098 926.49 L214.028 926.49 L214.028 930.379 L209.098 930.379 L209.098 938.527 L204.445 938.527 L204.445 930.379 L188.843 930.379 L188.843 925.865 L203.218 903.967 Z" fill="#000000" fill-rule="nonzero" fill-opacity="1" /><path clip-path="url(#clip590)" d="M127.686 700.295 Q124.075 700.295 122.246 703.86 Q120.441 707.402 120.441 714.531 Q120.441 721.638 122.246 725.203 Q124.075 728.744 127.686 728.744 Q131.32 728.744 133.126 725.203 Q134.954 721.638 134.954 714.531 Q134.954 707.402 133.126 703.86 Q131.32 700.295 127.686 700.295 M127.686 696.592 Q133.496 696.592 136.552 701.198 Q139.63 705.781 139.63 714.531 Q139.63 723.258 136.552 727.865 Q133.496 732.448 127.686 732.448 Q121.876 732.448 118.797 727.865 Q115.742 723.258 115.742 714.531 Q115.742 705.781 118.797 701.198 Q121.876 696.592 127.686 696.592 Z" fill="#000000" fill-rule="nonzero" fill-opacity="1" /><path clip-path="url(#clip590)" d="M147.848 725.897 L152.732 725.897 L152.732 731.777 L147.848 731.777 L147.848 725.897 Z" fill="#000000" fill-rule="nonzero" fill-opacity="1" /><path clip-path="url(#clip590)" d="M175.764 701.291 L163.959 719.74 L175.764 719.74 L175.764 701.291 M174.538 697.217 L180.417 697.217 L180.417 719.74 L185.348 719.74 L185.348 723.628 L180.417 723.628 L180.417 731.777 L175.764 731.777 L175.764 723.628 L160.163 723.628 L160.163 719.115 L174.538 697.217 Z" fill="#000000" fill-rule="nonzero" fill-opacity="1" /><path clip-path="url(#clip590)" d="M193.125 697.217 L211.482 697.217 L211.482 701.152 L197.408 701.152 L197.408 709.624 Q198.426 709.277 199.445 709.115 Q200.463 708.929 201.482 708.929 Q207.269 708.929 210.649 712.101 Q214.028 715.272 214.028 720.689 Q214.028 726.267 210.556 729.369 Q207.084 732.448 200.764 732.448 Q198.588 732.448 196.32 732.077 Q194.075 731.707 191.667 730.966 L191.667 726.267 Q193.75 727.402 195.973 727.957 Q198.195 728.513 200.672 728.513 Q204.676 728.513 207.014 726.406 Q209.352 724.3 209.352 720.689 Q209.352 717.078 207.014 714.971 Q204.676 712.865 200.672 712.865 Q198.797 712.865 196.922 713.281 Q195.07 713.698 193.125 714.578 L193.125 697.217 Z" fill="#000000" fill-rule="nonzero" fill-opacity="1" /><path clip-path="url(#clip590)" d="M126.529 493.544 Q122.918 493.544 121.089 497.109 Q119.283 500.651 119.283 507.78 Q119.283 514.887 121.089 518.452 Q122.918 521.993 126.529 521.993 Q130.163 521.993 131.968 518.452 Q133.797 514.887 133.797 507.78 Q133.797 500.651 131.968 497.109 Q130.163 493.544 126.529 493.544 M126.529 489.841 Q132.339 489.841 135.394 494.447 Q138.473 499.031 138.473 507.78 Q138.473 516.507 135.394 521.114 Q132.339 525.697 126.529 525.697 Q120.718 525.697 117.64 521.114 Q114.584 516.507 114.584 507.78 Q114.584 499.031 117.64 494.447 Q120.718 489.841 126.529 489.841 Z" fill="#000000" fill-rule="nonzero" fill-opacity="1" /><path clip-path="url(#clip590)" d="M146.691 519.146 L151.575 519.146 L151.575 525.026 L146.691 525.026 L146.691 519.146 Z" fill="#000000" fill-rule="nonzero" fill-opacity="1" /><path clip-path="url(#clip590)" d="M174.607 494.54 L162.802 512.989 L174.607 512.989 L174.607 494.54 M173.38 490.466 L179.26 490.466 L179.26 512.989 L184.19 512.989 L184.19 516.878 L179.26 516.878 L179.26 525.026 L174.607 525.026 L174.607 516.878 L159.005 516.878 L159.005 512.364 L173.38 490.466 Z" fill="#000000" fill-rule="nonzero" fill-opacity="1" /><path clip-path="url(#clip590)" d="M202.5 505.882 Q199.352 505.882 197.5 508.035 Q195.672 510.188 195.672 513.938 Q195.672 517.665 197.5 519.841 Q199.352 521.993 202.5 521.993 Q205.649 521.993 207.477 519.841 Q209.329 517.665 209.329 513.938 Q209.329 510.188 207.477 508.035 Q205.649 505.882 202.5 505.882 M211.783 491.23 L211.783 495.489 Q210.024 494.656 208.218 494.216 Q206.436 493.776 204.676 493.776 Q200.047 493.776 197.593 496.901 Q195.163 500.026 194.815 506.345 Q196.181 504.331 198.241 503.267 Q200.301 502.179 202.778 502.179 Q207.987 502.179 210.996 505.35 Q214.028 508.498 214.028 513.938 Q214.028 519.262 210.88 522.479 Q207.732 525.697 202.5 525.697 Q196.505 525.697 193.334 521.114 Q190.163 516.507 190.163 507.78 Q190.163 499.586 194.051 494.725 Q197.94 489.841 204.491 489.841 Q206.25 489.841 208.033 490.188 Q209.838 490.535 211.783 491.23 Z" fill="#000000" fill-rule="nonzero" fill-opacity="1" /><path clip-path="url(#clip590)" d="M127.593 286.794 Q123.982 286.794 122.154 290.358 Q120.348 293.9 120.348 301.03 Q120.348 308.136 122.154 311.701 Q123.982 315.243 127.593 315.243 Q131.228 315.243 133.033 311.701 Q134.862 308.136 134.862 301.03 Q134.862 293.9 133.033 290.358 Q131.228 286.794 127.593 286.794 M127.593 283.09 Q133.404 283.09 136.459 287.696 Q139.538 292.28 139.538 301.03 Q139.538 309.756 136.459 314.363 Q133.404 318.946 127.593 318.946 Q121.783 318.946 118.705 314.363 Q115.649 309.756 115.649 301.03 Q115.649 292.28 118.705 287.696 Q121.783 283.09 127.593 283.09 Z" fill="#000000" fill-rule="nonzero" fill-opacity="1" /><path clip-path="url(#clip590)" d="M147.755 312.395 L152.64 312.395 L152.64 318.275 L147.755 318.275 L147.755 312.395 Z" fill="#000000" fill-rule="nonzero" fill-opacity="1" /><path clip-path="url(#clip590)" d="M175.672 287.789 L163.866 306.238 L175.672 306.238 L175.672 287.789 M174.445 283.715 L180.325 283.715 L180.325 306.238 L185.255 306.238 L185.255 310.127 L180.325 310.127 L180.325 318.275 L175.672 318.275 L175.672 310.127 L160.07 310.127 L160.07 305.613 L174.445 283.715 Z" fill="#000000" fill-rule="nonzero" fill-opacity="1" /><path clip-path="url(#clip590)" d="M191.806 283.715 L214.028 283.715 L214.028 285.706 L201.482 318.275 L196.598 318.275 L208.403 287.65 L191.806 287.65 L191.806 283.715 Z" fill="#000000" fill-rule="nonzero" fill-opacity="1" /><path clip-path="url(#clip590)" d="M126.783 80.0428 Q123.172 80.0428 121.343 83.6076 Q119.538 87.1493 119.538 94.2789 Q119.538 101.385 121.343 104.95 Q123.172 108.492 126.783 108.492 Q130.417 108.492 132.223 104.95 Q134.052 101.385 134.052 94.2789 Q134.052 87.1493 132.223 83.6076 Q130.417 80.0428 126.783 80.0428 M126.783 76.3391 Q132.593 76.3391 135.649 80.9456 Q138.728 85.5289 138.728 94.2789 Q138.728 103.006 135.649 107.612 Q132.593 112.195 126.783 112.195 Q120.973 112.195 117.894 107.612 Q114.839 103.006 114.839 94.2789 Q114.839 85.5289 117.894 80.9456 Q120.973 76.3391 126.783 76.3391 Z" fill="#000000" fill-rule="nonzero" fill-opacity="1" /><path clip-path="url(#clip590)" d="M146.945 105.645 L151.829 105.645 L151.829 111.524 L146.945 111.524 L146.945 105.645 Z" fill="#000000" fill-rule="nonzero" fill-opacity="1" /><path clip-path="url(#clip590)" d="M174.862 81.0382 L163.056 99.4872 L174.862 99.4872 L174.862 81.0382 M173.635 76.9641 L179.514 76.9641 L179.514 99.4872 L184.445 99.4872 L184.445 103.376 L179.514 103.376 L179.514 111.524 L174.862 111.524 L174.862 103.376 L159.26 103.376 L159.26 98.8622 L173.635 76.9641 Z" fill="#000000" fill-rule="nonzero" fill-opacity="1" /><path clip-path="url(#clip590)" d="M202.176 95.1122 Q198.843 95.1122 196.922 96.8946 Q195.024 98.677 195.024 101.802 Q195.024 104.927 196.922 106.709 Q198.843 108.492 202.176 108.492 Q205.51 108.492 207.431 106.709 Q209.352 104.904 209.352 101.802 Q209.352 98.677 207.431 96.8946 Q205.533 95.1122 202.176 95.1122 M197.5 93.1215 Q194.491 92.3807 192.801 90.3205 Q191.135 88.2604 191.135 85.2974 Q191.135 81.1539 194.075 78.7465 Q197.037 76.3391 202.176 76.3391 Q207.338 76.3391 210.278 78.7465 Q213.218 81.1539 213.218 85.2974 Q213.218 88.2604 211.528 90.3205 Q209.861 92.3807 206.875 93.1215 Q210.255 93.9085 212.13 96.2001 Q214.028 98.4918 214.028 101.802 Q214.028 106.825 210.949 109.51 Q207.894 112.195 202.176 112.195 Q196.459 112.195 193.38 109.51 Q190.325 106.825 190.325 101.802 Q190.325 98.4918 192.223 96.2001 Q194.121 93.9085 197.5 93.1215 M195.787 85.7372 Q195.787 88.4224 197.454 89.927 Q199.144 91.4316 202.176 91.4316 Q205.186 91.4316 206.875 89.927 Q208.588 88.4224 208.588 85.7372 Q208.588 83.0521 206.875 81.5474 Q205.186 80.0428 202.176 80.0428 Q199.144 80.0428 197.454 81.5474 Q195.787 83.0521 195.787 85.7372 Z" fill="#000000" fill-rule="nonzero" fill-opacity="1" /><path clip-path="url(#clip590)" d="M33.958 742.548 L55.9834 734.75 L28.3562 723.61 L28.3562 717.404 L64.0042 731.822 L77.5631 731.822 L77.5631 737.679 L64.0042 737.679 L37.3955 747.036 Q33.3851 748.437 33.3851 751.46 L33.3851 753.02 L28.3562 753.02 L28.3562 750.792 Q28.3562 744.522 33.958 742.548 Z" fill="#000000" fill-rule="nonzero" fill-opacity="1" /><circle clip-path="url(#clip591)" cx="1282.04" cy="769.245" r="7.2" fill="#009af9" fill-rule="evenodd" fill-opacity="1" stroke="#000000" stroke-opacity="1" stroke-width="3.2"/>
<polyline clip-path="url(#clip591)" style="stroke:#e26f46; stroke-linecap:round; stroke-linejoin:round; stroke-width:4; stroke-opacity:1; fill:none" points="1845.75,769.245 1846.65,767.708 1847.54,766.172 1848.43,764.635 1849.3,763.099 1850.17,761.562 1851.03,760.026 1851.88,758.489 1852.73,756.953 1853.56,755.417 1854.39,753.88 1855.2,752.344 1856.01,750.807 1856.81,749.271 1857.61,747.734 1858.39,746.198 1859.16,744.661 1859.93,743.125 1860.69,741.588 1861.44,740.052 1862.18,738.516 1862.91,736.979 1863.64,735.443 1864.36,733.906 1865.06,732.37 1865.76,730.833 1866.45,729.297 1867.14,727.76 1867.81,726.224 1868.48,724.688 1869.13,723.151 1869.78,721.615 1870.42,720.078 1871.05,718.542 1871.68,717.005 1872.29,715.469 1872.9,713.932 1873.49,712.396 1874.08,710.859 1874.66,709.323 1875.24,707.787 1875.8,706.25 1876.35,704.714 1876.9,703.177 1877.44,701.641 1877.97,700.104 1878.49,698.568 1879,697.031 1879.5,695.495 1880,693.959 1880.48,692.422 1880.96,690.886 1881.43,689.349 1881.89,687.813 1882.34,686.276 1882.78,684.74 1883.22,683.203 1883.64,681.667 1884.06,680.13 1884.46,678.594 1884.86,677.058 1885.25,675.521 1885.63,673.985 1886,672.448 1886.37,670.912 1886.72,669.375 1887.06,667.839 1887.4,666.302 1887.73,664.766 1888.05,663.23 1888.35,661.693 1888.65,660.157 1888.94,658.62 1889.23,657.084 1889.5,655.547 1889.76,654.011 1890.02,652.474 1890.26,650.938 1890.5,649.401 1890.72,647.865 1890.94,646.329 1891.15,644.792 1891.35,643.256 1891.53,641.719 1891.71,640.183 1891.88,638.646 1892.05,637.11 1892.2,635.573 1892.34,634.037 1892.47,632.501 1892.59,630.964 1892.7,629.428 1892.81,627.891 1892.9,626.355 1892.98,624.818 1893.06,623.282 1893.12,621.745 1893.17,620.209 1893.22,618.672 1893.25,617.136 1893.27,615.6 1893.29,614.063 1893.29,612.527 1893.28,610.99 1893.27,609.454 1893.24,607.917 1893.2,606.381 1893.15,604.844 1893.09,603.308 1893.02,601.772 1892.94,600.235 1892.85,598.699 1892.75,597.162 1892.64,595.626 1892.52,594.089 1892.38,592.553 1892.24,591.016 1892.09,589.48 1891.92,587.943 1891.74,586.407 1891.55,584.871 1891.35,583.334 1891.14,581.798 1890.92,580.261 1890.68,578.725 1890.44,577.188 1890.18,575.652 1889.91,574.115 1889.63,572.579 1889.34,571.043 1889.04,569.506 1888.72,567.97 1888.39,566.433 1888.05,564.897 1887.7,563.36 1887.33,561.824 1886.96,560.287 1886.57,558.751 1886.16,557.214 1885.75,555.678 1885.32,554.142 1884.88,552.605 1884.43,551.069 1883.96,549.532 1883.48,547.996 1882.99,546.459 1882.48,544.923 1881.96,543.386 1881.42,541.85 1880.88,540.314 1880.31,538.777 1879.74,537.241 1879.15,535.704 1878.54,534.168 1877.92,532.631 1877.29,531.095 1876.64,529.558 1875.98,528.022 1875.3,526.485 1874.61,524.949 1873.9,523.413 1873.17,521.876 1872.43,520.34 1871.68,518.803 1870.9,517.267 1870.12,515.73 1869.31,514.194 1868.49,512.657 1867.65,511.121 1866.8,509.585 1865.92,508.048 1865.03,506.512 1864.13,504.975 1863.2,503.439 1862.26,501.902 1861.29,500.366 1860.31,498.829 1859.31,497.293 1858.29,495.756 1857.25,494.22 1856.19,492.684 1855.11,491.147 1854.02,489.611 1852.9,488.074 1851.76,486.538 1850.6,485.001 1849.42,483.465 1848.22,481.928 1847,480.392 1845.76,478.856 1844.49,477.319 1843.2,475.783 1841.89,474.246 1840.56,472.71 1839.2,471.173 1837.82,469.637 1836.41,468.1 1834.98,466.564 1833.52,465.027 1832.03,463.491 1830.52,461.955 1828.98,460.418 1827.41,458.882 1825.81,457.345 1824.18,455.809 1822.52,454.272 1820.84,452.736 1819.11,451.199 1817.36,449.663 1815.58,448.127 1813.75,446.59 1811.9,445.054 1810.01,443.517 1808.08,441.981 1806.12,440.444 1804.11,438.908 1802.07,437.371 1799.99,435.835 1797.86,434.299 1795.7,432.762 1793.49,431.226 1791.24,429.689 1788.94,428.153 1786.6,426.616 1784.2,425.08 1781.76,423.543 1779.26,422.007 1776.71,420.47 1774.1,418.934 1771.44,417.398 1768.71,415.861 1765.93,414.325 1763.08,412.788 1760.16,411.252 1757.16,409.715 1754.1,408.179 1750.95,406.642 1747.73,405.106 1744.41,403.57 1741.01,402.033 1737.51,400.497 1733.91,398.96 1730.2,397.424 1726.38,395.887 1722.44,394.351 1718.37,392.815 1714.17,391.278 1709.82,389.742 1705.3,388.205 1700.62,386.669 1695.74,385.132 1690.66,383.596 1685.35,382.059 1679.76,380.523 1673.89,378.987 1667.72,377.45 1661.21,375.914 1654.28,374.377 1646.85,372.841 1638.79,371.305 1629.93,369.768 1620.08,368.232 1608.95,366.695 1595.87,365.159 1579.39,363.623 1554.5,362.087 1486.67,362.286 1461.82,363.823 1444.16,365.359 1429.6,366.895 1416.89,368.431 1405.45,369.968 1394.95,371.504 1385.17,373.041 1376,374.577 1367.31,376.113 1359.04,377.65 1351.14,379.186 1343.55,380.723 1336.24,382.259 1329.18,383.795 1322.34,385.332 1315.71,386.868 1309.27,388.405 1303,389.941 1296.88,391.478 1290.92,393.014 1285.09,394.55 1279.38,396.087 1273.8,397.623 1268.33,399.16 1262.96,400.696 1257.69,402.233 1252.52,403.769 1247.44,405.305 1242.44,406.842 1237.53,408.378 1232.69,409.915 1227.92,411.451 1223.23,412.988 1218.61,414.524 1214.04,416.06 1209.55,417.597 1205.11,419.133 1200.73,420.67 1196.41,422.206 1192.14,423.743 1187.92,425.279 1183.75,426.816 1179.64,428.352 1175.57,429.888 1171.54,431.425 1167.56,432.961 1163.62,434.498 1159.73,436.034 1155.87,437.571 1152.06,439.107 1148.28,440.644 1144.55,442.18 1140.85,443.716 1137.18,445.253 1133.55,446.789 1129.95,448.326 1126.39,449.862 1122.86,451.399 1119.36,452.935 1115.89,454.471 1112.46,456.008 1109.05,457.544 1105.67,459.081 1102.32,460.617 1099,462.154 1095.71,463.69 1092.44,465.227 1089.2,466.763 1085.99,468.299 1082.8,469.836 1079.63,471.372 1076.49,472.909 1073.38,474.445 1070.29,475.982 1067.22,477.518 1064.17,479.055 1061.15,480.591 1058.15,482.127 1055.17,483.664 1052.22,485.2 1049.28,486.737 1046.37,488.273 1043.47,489.81 1040.6,491.346 1037.74,492.883 1034.91,494.419 1032.1,495.955 1029.3,497.492 1026.52,499.028 1023.77,500.565 1021.03,502.101 1018.31,503.638 1015.6,505.174 1012.92,506.711 1010.25,508.247 1007.6,509.783 1004.97,511.32 1002.35,512.856 999.75,514.393 997.167,515.929 994.6,517.466 992.049,519.002 989.515,520.539 986.996,522.075 984.493,523.612 982.005,525.148 979.533,526.684 977.076,528.221 974.634,529.757 972.206,531.294 969.794,532.83 967.396,534.367 965.012,535.903 962.643,537.44 960.288,538.976 957.947,540.512 955.62,542.049 953.307,543.585 951.007,545.122 948.721,546.658 946.449,548.195 944.189,549.731 941.943,551.268 939.71,552.804 937.49,554.34 935.283,555.877 933.089,557.413 930.907,558.95 928.738,560.486 926.582,562.023 924.438,563.559 922.306,565.096 920.187,566.632 918.079,568.168 915.984,569.705 913.9,571.241 911.829,572.778 909.769,574.314 907.721,575.851 905.685,577.387 903.66,578.924 901.647,580.46 899.645,581.997 897.655,583.533 895.675,585.069 893.707,586.606 891.751,588.142 889.805,589.679 887.87,591.215 885.946,592.752 884.034,594.288 882.132,595.825 880.24,597.361 878.36,598.897 876.49,600.434 874.631,601.97 872.782,603.507 870.944,605.043 869.116,606.58 867.298,608.116 865.491,609.653 863.694,611.189 861.908,612.725 860.131,614.262 858.365,615.798 856.608,617.335 854.862,618.871 853.126,620.408 851.4,621.944 849.683,623.481 847.977,625.017 846.28,626.554 844.593,628.09 842.916,629.626 841.249,631.163 839.591,632.699 837.943,634.236 836.305,635.772 834.676,637.309 833.056,638.845 831.446,640.382 829.846,641.918 828.255,643.454 826.673,644.991 825.101,646.527 823.538,648.064 821.984,649.6 820.44,651.137 818.905,652.673 817.379,654.21 815.862,655.746 814.355,657.282 812.856,658.819 811.367,660.355 809.887,661.892 808.415,663.428 806.953,664.965 805.5,666.501 804.056,668.038 802.62,669.574 801.194,671.111 799.777,672.647 798.368,674.183 796.969,675.72 795.578,677.256 794.196,678.793 792.823,680.329 791.458,681.866 790.103,683.402 788.756,684.939 787.418,686.475 786.088,688.011 784.768,689.548 783.456,691.084 782.153,692.621 780.858,694.157 779.572,695.694 778.295,697.23 777.026,698.767 775.766,700.303 774.515,701.839 773.272,703.376 772.037,704.912 770.812,706.449 769.594,707.985 768.386,709.522 767.186,711.058 765.994,712.595 764.811,714.131 763.636,715.668 762.47,717.204 761.313,718.74 760.163,720.277 759.023,721.813 757.891,723.35 756.767,724.886 755.652,726.423 754.545,727.959 753.446,729.496 752.356,731.032 751.275,732.568 750.202,734.105 749.137,735.641 748.081,737.178 747.033,738.714 745.994,740.251 744.963,741.787 743.94,743.324 742.926,744.86 741.921,746.397 740.923,747.933 739.934,749.469 738.954,751.006 737.982,752.542 737.018,754.079 736.063,755.615 735.116,757.152 734.178,758.688 733.248,760.225 732.326,761.761 731.413,763.297 730.509,764.834 729.613,766.37 728.725,767.907 727.845,769.443 726.975,770.98 726.112,772.516 725.258,774.053 724.413,775.589 723.576,777.126 722.747,778.662 721.927,780.198 721.116,781.735 720.313,783.271 719.519,784.808 718.733,786.344 717.955,787.881 717.187,789.417 716.426,790.954 715.675,792.49 714.932,794.026 714.197,795.563 713.471,797.099 712.754,798.636 712.046,800.172 711.346,801.709 710.654,803.245 709.972,804.782 709.298,806.318 708.633,807.855 707.976,809.391 707.328,810.927 706.689,812.464 706.059,814 705.437,815.537 704.825,817.073 704.221,818.61 703.626,820.146 703.039,821.683 702.462,823.219 701.894,824.755 701.334,826.292 700.784,827.828 700.242,829.365 699.709,830.901 699.186,832.438 698.671,833.974 698.165,835.511 697.669,837.047 697.182,838.584 696.703,840.12 696.234,841.656 695.774,843.193 695.324,844.729 694.882,846.266 694.45,847.802 694.027,849.339 693.614,850.875 693.209,852.412 692.815,853.948 692.429,855.484 692.053,857.021 691.687,858.557 691.33,860.094 690.982,861.63 690.645,863.167 690.317,864.703 689.998,866.24 689.689,867.776 689.39,869.313 689.101,870.849 688.821,872.385 688.552,873.922 688.292,875.458 688.042,876.995 687.802,878.531 687.572,880.068 687.352,881.604 687.143,883.141 686.943,884.677 686.753,886.213 686.574,887.75 686.405,889.286 686.246,890.823 686.098,892.359 685.96,893.896 685.833,895.432 685.716,896.969 685.61,898.505 685.515,900.042 685.43,901.578 685.357,903.114 685.294,904.651 685.242,906.187 685.201,907.724 685.17,909.26 685.151,910.797 685.143,912.333 685.146,913.87 685.16,915.406 685.186,916.942 685.222,918.479 685.27,920.015 685.329,921.552 685.4,923.088 685.483,924.625 685.576,926.161 685.682,927.698 685.799,929.234 685.928,930.771 686.069,932.307 686.222,933.843 686.387,935.38 686.564,936.916 686.754,938.453 686.955,939.989 687.169,941.526 687.396,943.062 687.635,944.599 687.887,946.135 688.151,947.671 688.429,949.208 688.72,950.744 689.023,952.281 689.34,953.817 689.67,955.354 690.014,956.89 690.371,958.427 690.742,959.963 691.127,961.5 691.526,963.036 691.939,964.572 692.366,966.109 692.807,967.645 693.263,969.182 693.734,970.718 694.219,972.255 694.719,973.791 695.234,975.328 695.764,976.864 696.31,978.4 696.871,979.937 697.448,981.473 698.04,983.01 698.649,984.546 699.273,986.083 699.914,987.619 700.572,989.156 701.245,990.692 701.936,992.229 702.644,993.765 703.368,995.301 704.11,996.838 704.87,998.374 705.647,999.911 706.442,1001.45 707.255,1002.98 708.086,1004.52 708.936,1006.06 709.804,1007.59 710.691,1009.13 711.597,1010.67 712.522,1012.2 713.467,1013.74 714.432,1015.28 715.419,1016.81 716.428,1018.35 717.457,1019.88 718.509,1021.42 719.581,1022.96 720.675,1024.49 721.791,1026.03 722.93,1027.57 724.09,1029.1 725.273,1030.64 726.478,1032.18 727.706,1033.71 728.958,1035.25 730.234,1036.79 731.534,1038.32 732.858,1039.86 734.207,1041.39 735.582,1042.93 736.982,1044.47 738.409,1046 739.863,1047.54 741.345,1049.08 742.855,1050.61 744.394,1052.15 745.962,1053.69 747.561,1055.22 749.191,1056.76 750.852,1058.3 752.547,1059.83 754.274,1061.37 756.036,1062.91 757.833,1064.44 759.665,1065.98 761.535,1067.51 763.443,1069.05 765.389,1070.59 767.376,1072.12 769.403,1073.66 771.473,1075.2 773.586,1076.73 775.743,1078.27 777.945,1079.81 780.194,1081.34 782.491,1082.88 784.837,1084.42 787.233,1085.95 789.681,1087.49 792.182,1089.02 794.738,1090.56 797.349,1092.1 800.018,1093.63 802.745,1095.17 805.535,1096.71 808.392,1098.24 811.317,1099.78 814.313,1101.32 817.383,1102.85 820.531,1104.39 823.761,1105.93 827.075,1107.46 830.48,1109 833.988,1110.54 837.601,1112.07 841.317,1113.61 845.139,1115.14 849.069,1116.68 853.116,1118.22 857.286,1119.75 861.589,1121.29 866.039,1122.83 870.651,1124.36 875.44,1125.9 880.426,1127.44 885.63,1128.97 891.075,1130.51 896.787,1132.05 902.793,1133.58 909.123,1135.12 915.809,1136.65 922.896,1138.19 930.469,1139.73 938.627,1141.26 947.622,1142.8 957.421,1144.34 968.185,1145.87 980.626,1147.41 996.014,1148.95 1016.65,1150.48 1077.19,1151.82 1117.41,1150.28 1138.69,1148.75 1155.31,1147.21 1169.47,1145.67 1182.04,1144.14 1193.47,1142.6 1204.02,1141.06 1213.88,1139.53 1223.18,1137.99 1231.99,1136.45 1240.4,1134.92 1248.45,1133.38 1256.18,1131.85 1263.64,1130.31 1270.84,1128.77 1277.82,1127.24 1284.59,1125.7 1291.17,1124.16 1297.58,1122.63 1303.82,1121.09 1309.92,1119.55 1315.87,1118.02 1321.69,1116.48 1327.39,1114.94 1332.98,1113.41 1338.45,1111.87 1343.83,1110.34 1349.1,1108.8 1354.28,1107.26 1359.37,1105.73 1364.38,1104.19 1369.31,1102.65 1374.16,1101.12 1378.93,1099.58 1383.64,1098.04 1388.27,1096.51 1392.85,1094.97 1397.35,1093.43 1401.8,1091.9 1406.19,1090.36 1410.52,1088.83 1414.8,1087.29 1419.02,1085.75 1423.19,1084.22 1427.31,1082.68 1431.39,1081.14 1435.42,1079.61 1439.4,1078.07 1443.33,1076.53 1447.23,1075 1451.08,1073.46 1454.89,1071.92 1458.66,1070.39 1462.39,1068.85 1466.09,1067.32 1469.74,1065.78 1473.37,1064.24 1476.95,1062.71 1480.5,1061.17 1484.02,1059.63 1487.5,1058.1 1490.96,1056.56 1494.38,1055.02 1497.77,1053.49 1501.13,1051.95 1504.45,1050.41 1507.75,1048.88 1511.03,1047.34 1514.27,1045.81 1517.48,1044.27 1520.67,1042.73 1523.83,1041.2 1526.97,1039.66 1530.08,1038.12 1533.16,1036.59 1536.22,1035.05 1539.26,1033.51 1542.27,1031.98 1545.26,1030.44 1548.22,1028.9 1551.16,1027.37 1554.08,1025.83 1556.98,1024.29 1559.85,1022.76 1562.7,1021.22 1565.54,1019.69 1568.35,1018.15 1571.14,1016.61 1573.9,1015.08 1576.65,1013.54 1579.38,1012 1582.09,1010.47 1584.78,1008.93 1587.45,1007.39 1590.1,1005.86 1592.74,1004.32 1595.35,1002.78 1597.95,1001.25 1600.53,999.712 1603.09,998.175 1605.63,996.639 1608.15,995.103 1610.66,993.566 1613.15,992.03 1615.63,990.493 1618.08,988.957 1620.52,987.42 1622.95,985.884 1625.36,984.347 1627.75,982.811 1630.13,981.274 1632.49,979.738 1634.83,978.202 1637.16,976.665 1639.48,975.129 1641.78,973.592 1644.06,972.056 1646.33,970.519 1648.59,968.983 1650.83,967.446 1653.05,965.91 1655.27,964.374 1657.46,962.837 1659.65,961.301 1661.82,959.764 1663.97,958.228 1666.12,956.691 1668.25,955.155 1670.36,953.618 1672.46,952.082 1674.55,950.546 1676.63,949.009 1678.69,947.473 1680.74,945.936 1682.77,944.4 1684.8,942.863 1686.81,941.327 1688.81,939.79 1690.79,938.254 1692.77,936.718 1694.73,935.181 1696.68,933.645 1698.61,932.108 1700.54,930.572 1702.45,929.035 1704.35,927.499 1706.24,925.962 1708.12,924.426 1709.98,922.889 1711.84,921.353 1713.68,919.817 1715.51,918.28 1717.33,916.744 1719.14,915.207 1720.94,913.671 1722.72,912.134 1724.5,910.598 1726.26,909.061 1728.01,907.525 1729.75,905.989 1731.48,904.452 1733.2,902.916 1734.91,901.379 1736.61,899.843 1738.3,898.306 1739.97,896.77 1741.64,895.233 1743.29,893.697 1744.94,892.161 1746.57,890.624 1748.2,889.088 1749.81,887.551 1751.42,886.015 1753.01,884.478 1754.59,882.942 1756.16,881.405 1757.73,879.869 1759.28,878.332 1760.82,876.796 1762.36,875.26 1763.88,873.723 1765.39,872.187 1766.89,870.65 1768.39,869.114 1769.87,867.577 1771.35,866.041 1772.81,864.504 1774.26,862.968 1775.71,861.432 1777.14,859.895 1778.57,858.359 1779.99,856.822 1781.39,855.286 1782.79,853.749 1784.18,852.213 1785.55,850.676 1786.92,849.14 1788.28,847.604 1789.63,846.067 1790.97,844.531 1792.31,842.994 1793.63,841.458 1794.94,839.921 1796.25,838.385 1797.54,836.848 1798.83,835.312 1800.1,833.775 1801.37,832.239 1802.63,830.703 1803.88,829.166 1805.12,827.63 1806.35,826.093 1807.57,824.557 1808.79,823.02 1809.99,821.484 1811.19,819.947 1812.37,818.411 1813.55,816.875 1814.72,815.338 1815.88,813.802 1817.03,812.265 1818.18,810.729 1819.31,809.192 1820.44,807.656 1821.55,806.119 1822.66,804.583 1823.76,803.046 1824.85,801.51 1825.93,799.974 1827,798.437 1828.07,796.901 1829.12,795.364 1830.17,793.828 1831.21,792.291 1832.24,790.755 1833.26,789.218 1834.27,787.682 1835.28,786.146 1836.27,784.609 1837.26,783.073 1838.24,781.536 1839.21,780 1840.17,778.463 1841.12,776.927 1842.07,775.39 1843,773.854 1843.93,772.317 1844.85,770.781 1845.76,769.245 "/>
<polyline clip-path="url(#clip591)" style="stroke:#3da44d; stroke-linecap:round; stroke-linejoin:round; stroke-width:4; stroke-opacity:1; fill:none" points="2212.53,769.245 2213.97,766.814 2215.4,764.383 2216.82,761.952 2218.22,759.521 2219.62,757.09 2220.99,754.66 2222.36,752.229 2223.71,749.798 2225.05,747.367 2226.38,744.936 2227.69,742.506 2228.99,740.075 2230.28,737.644 2231.56,735.213 2232.82,732.782 2234.07,730.351 2235.31,727.921 2236.53,725.49 2237.74,723.059 2238.94,720.628 2240.13,718.197 2241.3,715.766 2242.46,713.336 2243.61,710.905 2244.74,708.474 2245.87,706.043 2246.98,703.612 2248.07,701.182 2249.16,698.751 2250.23,696.32 2251.28,693.889 2252.33,691.458 2253.36,689.027 2254.38,686.597 2255.39,684.166 2256.38,681.735 2257.37,679.304 2258.33,676.873 2259.29,674.442 2260.23,672.012 2261.16,669.581 2262.08,667.15 2262.98,664.719 2263.88,662.288 2264.75,659.858 2265.62,657.427 2266.47,654.996 2267.31,652.565 2268.14,650.134 2268.95,647.703 2269.76,645.273 2270.54,642.842 2271.32,640.411 2272.08,637.98 2272.83,635.549 2273.57,633.118 2274.29,630.688 2275,628.257 2275.7,625.826 2276.38,623.395 2277.05,620.964 2277.71,618.534 2278.35,616.103 2278.98,613.672 2279.6,611.241 2280.21,608.81 2280.8,606.379 2281.38,603.949 2281.94,601.518 2282.49,599.087 2283.03,596.656 2283.56,594.225 2284.07,591.794 2284.57,589.364 2285.05,586.933 2285.52,584.502 2285.98,582.071 2286.43,579.64 2286.86,577.209 2287.27,574.779 2287.68,572.348 2288.06,569.917 2288.44,567.486 2288.8,565.055 2289.15,562.625 2289.48,560.194 2289.81,557.763 2290.11,555.332 2290.4,552.901 2290.68,550.47 2290.95,548.04 2291.2,545.609 2291.43,543.178 2291.66,540.747 2291.86,538.316 2292.06,535.885 2292.23,533.455 2292.4,531.024 2292.55,528.593 2292.69,526.162 2292.81,523.731 2292.91,521.301 2293,518.87 2293.08,516.439 2293.14,514.008 2293.19,511.577 2293.22,509.146 2293.24,506.716 2293.24,504.285 2293.23,501.854 2293.2,499.423 2293.16,496.992 2293.1,494.561 2293.03,492.131 2292.94,489.7 2292.84,487.269 2292.72,484.838 2292.58,482.407 2292.43,479.977 2292.26,477.546 2292.08,475.115 2291.88,472.684 2291.67,470.253 2291.44,467.822 2291.19,465.392 2290.93,462.961 2290.65,460.53 2290.35,458.099 2290.04,455.668 2289.71,453.237 2289.37,450.807 2289,448.376 2288.62,445.945 2288.23,443.514 2287.81,441.083 2287.38,438.653 2286.93,436.222 2286.47,433.791 2285.99,431.36 2285.48,428.929 2284.97,426.498 2284.43,424.068 2283.87,421.637 2283.3,419.206 2282.71,416.775 2282.1,414.344 2281.47,411.913 2280.83,409.483 2280.16,407.052 2279.48,404.621 2278.77,402.19 2278.05,399.759 2277.31,397.329 2276.54,394.898 2275.76,392.467 2274.96,390.036 2274.14,387.605 2273.3,385.174 2272.44,382.744 2271.55,380.313 2270.65,377.882 2269.73,375.451 2268.78,373.02 2267.81,370.589 2266.82,368.159 2265.81,365.728 2264.78,363.297 2263.73,360.866 2262.65,358.435 2261.55,356.005 2260.43,353.574 2259.29,351.143 2258.12,348.712 2256.93,346.281 2255.72,343.85 2254.48,341.42 2253.22,338.989 2251.94,336.558 2250.63,334.127 2249.29,331.696 2247.93,329.265 2246.55,326.835 2245.14,324.404 2243.7,321.973 2242.24,319.542 2240.75,317.111 2239.23,314.681 2237.69,312.25 2236.12,309.819 2234.52,307.388 2232.89,304.957 2231.23,302.526 2229.55,300.096 2227.83,297.665 2226.08,295.234 2224.31,292.803 2222.5,290.372 2220.66,287.941 2218.79,285.511 2216.88,283.08 2214.94,280.649 2212.97,278.218 2210.97,275.787 2208.93,273.357 2206.86,270.926 2204.75,268.495 2202.6,266.064 2200.42,263.633 2198.2,261.202 2195.94,258.772 2193.64,256.341 2191.31,253.91 2188.93,251.479 2186.52,249.048 2184.06,246.617 2181.55,244.187 2179.01,241.756 2176.41,239.325 2173.78,236.894 2171.09,234.463 2168.37,232.033 2165.59,229.602 2162.77,227.171 2159.89,224.74 2156.97,222.309 2154,219.878 2150.97,217.448 2147.89,215.017 2144.76,212.586 2141.57,210.155 2138.32,207.724 2135.01,205.294 2131.63,202.863 2128.19,200.432 2124.69,198.001 2121.11,195.57 2117.47,193.139 2113.75,190.709 2109.95,188.278 2106.08,185.847 2102.12,183.416 2098.08,180.985 2093.95,178.555 2089.73,176.124 2085.41,173.693 2081,171.262 2076.49,168.831 2071.87,166.4 2067.14,163.97 2062.31,161.539 2057.35,159.108 2052.28,156.677 2047.08,154.246 2041.74,151.816 2036.25,149.385 2030.62,146.954 2024.82,144.523 2018.86,142.092 2012.7,139.661 2006.35,137.231 1999.79,134.8 1993.02,132.369 1986.02,129.938 1978.77,127.507 1971.25,125.077 1963.43,122.646 1955.28,120.215 1946.74,117.784 1937.78,115.353 1928.34,112.923 1918.38,110.492 1907.82,108.061 1896.56,105.63 1884.48,103.2 1871.41,100.769 1857.07,98.3381 1841.06,95.9074 1822.78,93.4767 1801.01,91.046 1773.07,88.6155 1725.11,86.1857 1622.25,87.634 1586.8,90.0643 1560.23,92.4948 1537.93,94.9255 1518.29,97.3561 1500.51,99.7868 1484.13,102.218 1468.85,104.648 1454.47,107.079 1440.83,109.51 1427.83,111.941 1415.39,114.371 1403.43,116.802 1391.9,119.233 1380.76,121.664 1369.96,124.094 1359.48,126.525 1349.29,128.956 1339.37,131.387 1329.69,133.818 1320.23,136.248 1310.99,138.679 1301.95,141.11 1293.09,143.541 1284.41,145.971 1275.89,148.402 1267.52,150.833 1259.31,153.264 1251.23,155.695 1243.29,158.125 1235.47,160.556 1227.77,162.987 1220.19,165.418 1212.72,167.849 1205.35,170.279 1198.09,172.71 1190.92,175.141 1183.85,177.572 1176.86,180.003 1169.97,182.434 1163.16,184.864 1156.43,187.295 1149.77,189.726 1143.2,192.157 1136.7,194.588 1130.27,197.018 1123.91,199.449 1117.61,201.88 1111.39,204.311 1105.22,206.742 1099.12,209.172 1093.08,211.603 1087.09,214.034 1081.17,216.465 1075.3,218.896 1069.48,221.326 1063.72,223.757 1058.01,226.188 1052.35,228.619 1046.73,231.05 1041.17,233.48 1035.66,235.911 1030.19,238.342 1024.77,240.773 1019.39,243.204 1014.05,245.635 1008.76,248.065 1003.51,250.496 998.299,252.927 993.13,255.358 988.001,257.789 982.911,260.219 977.859,262.65 972.845,265.081 967.867,267.512 962.926,269.943 958.02,272.374 953.15,274.804 948.314,277.235 943.512,279.666 938.743,282.097 934.008,284.528 929.305,286.958 924.634,289.389 919.994,291.82 915.386,294.251 910.808,296.682 906.261,299.112 901.743,301.543 897.255,303.974 892.795,306.405 888.364,308.836 883.962,311.267 879.587,313.697 875.24,316.128 870.921,318.559 866.628,320.99 862.361,323.421 858.121,325.851 853.907,328.282 849.718,330.713 845.554,333.144 841.416,335.575 837.302,338.006 833.213,340.436 829.148,342.867 825.108,345.298 821.09,347.729 817.097,350.16 813.126,352.59 809.179,355.021 805.254,357.452 801.352,359.883 797.472,362.314 793.615,364.745 789.779,367.175 785.965,369.606 782.173,372.037 778.402,374.468 774.652,376.899 770.923,379.329 767.215,381.76 763.527,384.191 759.86,386.622 756.213,389.053 752.586,391.484 748.979,393.914 745.392,396.345 741.824,398.776 738.276,401.207 734.747,403.638 731.237,406.068 727.746,408.499 724.274,410.93 720.821,413.361 717.387,415.792 713.97,418.223 710.573,420.653 707.193,423.084 703.832,425.515 700.488,427.946 697.162,430.377 693.854,432.807 690.564,435.238 687.291,437.669 684.036,440.1 680.798,442.531 677.577,444.962 674.373,447.392 671.186,449.823 668.016,452.254 664.862,454.685 661.726,457.116 658.606,459.547 655.502,461.977 652.415,464.408 649.344,466.839 646.289,469.27 643.251,471.701 640.228,474.131 637.222,476.562 634.231,478.993 631.256,481.424 628.297,483.855 625.353,486.286 622.426,488.716 619.513,491.147 616.616,493.578 613.735,496.009 610.868,498.44 608.017,500.87 605.181,503.301 602.36,505.732 599.554,508.163 596.764,510.594 593.988,513.025 591.226,515.455 588.48,517.886 585.748,520.317 583.032,522.748 580.329,525.179 577.641,527.609 574.968,530.04 572.309,532.471 569.665,534.902 567.035,537.333 564.419,539.764 561.818,542.194 559.23,544.625 556.657,547.056 554.098,549.487 551.553,551.918 549.022,554.349 546.505,556.779 544.002,559.21 541.513,561.641 539.038,564.072 536.576,566.503 534.129,568.933 531.695,571.364 529.274,573.795 526.868,576.226 524.475,578.657 522.095,581.088 519.729,583.518 517.377,585.949 515.038,588.38 512.713,590.811 510.401,593.242 508.103,595.673 505.817,598.103 503.546,600.534 501.287,602.965 499.042,605.396 496.81,607.827 494.592,610.257 492.386,612.688 490.194,615.119 488.015,617.55 485.849,619.981 483.696,622.412 481.556,624.842 479.43,627.273 477.316,629.704 475.216,632.135 473.128,634.566 471.054,636.996 468.992,639.427 466.944,641.858 464.908,644.289 462.886,646.72 460.876,649.151 458.879,651.581 456.895,654.012 454.925,656.443 452.966,658.874 451.021,661.305 449.089,663.736 447.169,666.166 445.262,668.597 443.369,671.028 441.487,673.459 439.619,675.89 437.764,678.32 435.921,680.751 434.091,683.182 432.274,685.613 430.469,688.044 428.678,690.475 426.899,692.905 425.132,695.336 423.379,697.767 421.638,700.198 419.91,702.629 418.195,705.06 416.493,707.49 414.803,709.921 413.126,712.352 411.462,714.783 409.81,717.214 408.171,719.644 406.545,722.075 404.932,724.506 403.331,726.937 401.744,729.368 400.169,731.799 398.606,734.229 397.057,736.66 395.52,739.091 393.996,741.522 392.485,743.953 390.986,746.384 389.501,748.814 388.028,751.245 386.568,753.676 385.121,756.107 383.687,758.538 382.265,760.968 380.856,763.399 379.461,765.83 378.078,768.261 376.708,770.692 375.351,773.123 374.007,775.553 372.675,777.984 371.357,780.415 370.052,782.846 368.759,785.277 367.48,787.708 366.214,790.138 364.96,792.569 363.72,795 362.493,797.431 361.279,799.862 360.078,802.292 358.89,804.723 357.715,807.154 356.553,809.585 355.405,812.016 354.27,814.447 353.148,816.877 352.039,819.308 350.944,821.739 349.862,824.17 348.793,826.601 347.738,829.032 346.696,831.462 345.668,833.893 344.653,836.324 343.651,838.755 342.663,841.186 341.689,843.616 340.728,846.047 339.781,848.478 338.847,850.909 337.928,853.34 337.021,855.771 336.129,858.201 335.25,860.632 334.386,863.063 333.535,865.494 332.698,867.925 331.875,870.356 331.066,872.786 330.271,875.217 329.49,877.648 328.723,880.079 327.97,882.51 327.231,884.94 326.507,887.371 325.797,889.802 325.102,892.233 324.421,894.664 323.755,897.095 323.103,899.525 322.466,901.956 321.843,904.387 321.235,906.818 320.642,909.249 320.064,911.68 319.5,914.11 318.952,916.541 318.418,918.972 317.899,921.403 317.395,923.834 316.906,926.264 316.432,928.695 315.973,931.126 315.53,933.557 315.101,935.988 314.688,938.419 314.29,940.849 313.908,943.28 313.541,945.711 313.19,948.142 312.854,950.573 312.534,953.004 312.23,955.434 311.941,957.865 311.669,960.296 311.412,962.727 311.172,965.158 310.947,967.588 310.739,970.019 310.547,972.45 310.372,974.881 310.213,977.312 310.07,979.743 309.945,982.173 309.836,984.604 309.743,987.035 309.668,989.466 309.61,991.897 309.569,994.328 309.546,996.758 309.539,999.189 309.55,1001.62 309.579,1004.05 309.626,1006.48 309.69,1008.91 309.772,1011.34 309.873,1013.77 309.991,1016.2 310.128,1018.64 310.283,1021.07 310.457,1023.5 310.649,1025.93 310.861,1028.36 311.091,1030.79 311.34,1033.22 311.609,1035.65 311.896,1038.08 312.204,1040.51 312.531,1042.94 312.877,1045.37 313.244,1047.81 313.631,1050.24 314.038,1052.67 314.465,1055.1 314.913,1057.53 315.381,1059.96 315.87,1062.39 316.381,1064.82 316.912,1067.25 317.465,1069.68 318.039,1072.11 318.635,1074.54 319.253,1076.98 319.892,1079.41 320.554,1081.84 321.238,1084.27 321.945,1086.7 322.674,1089.13 323.427,1091.56 324.202,1093.99 325,1096.42 325.822,1098.85 326.668,1101.28 327.537,1103.71 328.431,1106.15 329.348,1108.58 330.29,1111.01 331.257,1113.44 332.25,1115.87 333.269,1118.3 334.315,1120.73 335.387,1123.16 336.485,1125.59 337.61,1128.02 338.762,1130.45 339.941,1132.88 341.147,1135.32 342.381,1137.75 343.642,1140.18 344.931,1142.61 346.248,1145.04 347.594,1147.47 348.969,1149.9 350.373,1152.33 351.806,1154.76 353.269,1157.19 354.763,1159.62 356.287,1162.05 357.842,1164.49 359.429,1166.92 361.048,1169.35 362.699,1171.78 364.384,1174.21 366.102,1176.64 367.854,1179.07 369.64,1181.5 371.462,1183.93 373.319,1186.36 375.213,1188.79 377.144,1191.22 379.113,1193.66 381.12,1196.09 383.166,1198.52 385.252,1200.95 387.378,1203.38 389.545,1205.81 391.754,1208.24 394.006,1210.67 396.302,1213.1 398.642,1215.53 401.027,1217.96 403.458,1220.39 405.936,1222.82 408.462,1225.26 411.036,1227.69 413.66,1230.12 416.335,1232.55 419.061,1234.98 421.84,1237.41 424.672,1239.84 427.559,1242.27 430.501,1244.7 433.5,1247.13 436.557,1249.56 439.672,1251.99 442.847,1254.43 446.083,1256.86 449.383,1259.29 452.748,1261.72 456.181,1264.15 459.683,1266.58 463.256,1269.01 466.902,1271.44 470.624,1273.87 474.422,1276.3 478.3,1278.73 482.26,1281.16 486.306,1283.6 490.439,1286.03 494.664,1288.46 498.983,1290.89 503.4,1293.32 507.918,1295.75 512.541,1298.18 517.273,1300.61 522.117,1303.04 527.094,1305.47 532.243,1307.9 537.552,1310.33 543.009,1312.77 548.603,1315.2 554.328,1317.63 560.182,1320.06 566.167,1322.49 572.287,1324.92 578.551,1327.35 584.971,1329.78 591.565,1332.21 598.35,1334.64 605.351,1337.07 612.595,1339.5 620.113,1341.93 627.939,1344.37 636.111,1346.8 644.671,1349.23 653.665,1351.66 663.141,1354.09 673.154,1356.52 683.758,1358.95 695.016,1361.38 706.989,1363.81 719.747,1366.24 733.409,1368.67 748.28,1371.1 764.664,1373.53 783.163,1375.97 804.722,1378.4 831.163,1380.83 868.331,1383.26 981.737,1384.24 1032.2,1381.81 1064.61,1379.38 1090.65,1376.95 1113.08,1374.52 1133.12,1372.09 1151.41,1369.66 1168.35,1367.22 1184.22,1364.79 1199.19,1362.36 1213.4,1359.93 1226.97,1357.5 1239.97,1355.07 1252.46,1352.64 1264.52,1350.21 1276.17,1347.78 1287.45,1345.35 1298.41,1342.92 1309.06,1340.49 1319.43,1338.06 1329.53,1335.62 1339.4,1333.19 1349.04,1330.76 1358.47,1328.33 1367.7,1325.9 1376.75,1323.47 1385.61,1321.04 1394.31,1318.61 1402.86,1316.18 1411.25,1313.75 1419.49,1311.32 1427.6,1308.89 1435.58,1306.46 1443.44,1304.02 1451.17,1301.59 1458.79,1299.16 1466.3,1296.73 1473.7,1294.3 1481,1291.87 1488.2,1289.44 1495.3,1287.01 1502.31,1284.58 1509.24,1282.15 1516.07,1279.72 1522.83,1277.29 1529.5,1274.85 1536.09,1272.42 1542.61,1269.99 1549.05,1267.56 1555.42,1265.13 1561.72,1262.7 1567.96,1260.27 1574.12,1257.84 1580.22,1255.41 1586.26,1252.98 1592.23,1250.55 1598.15,1248.12 1604.01,1245.69 1609.81,1243.25 1615.55,1240.82 1621.24,1238.39 1626.87,1235.96 1632.45,1233.53 1637.98,1231.1 1643.46,1228.67 1648.89,1226.24 1654.27,1223.81 1659.61,1221.38 1664.9,1218.95 1670.14,1216.52 1675.33,1214.08 1680.49,1211.65 1685.6,1209.22 1690.66,1206.79 1695.69,1204.36 1700.67,1201.93 1705.61,1199.5 1710.52,1197.07 1715.38,1194.64 1720.21,1192.21 1724.99,1189.78 1729.74,1187.35 1734.46,1184.91 1739.14,1182.48 1743.78,1180.05 1748.38,1177.62 1752.96,1175.19 1757.49,1172.76 1762,1170.33 1766.47,1167.9 1770.91,1165.47 1775.31,1163.04 1779.68,1160.61 1784.03,1158.18 1788.34,1155.75 1792.62,1153.31 1796.87,1150.88 1801.09,1148.45 1805.28,1146.02 1809.44,1143.59 1813.57,1141.16 1817.67,1138.73 1821.75,1136.3 1825.8,1133.87 1829.81,1131.44 1833.81,1129.01 1837.77,1126.58 1841.71,1124.14 1845.62,1121.71 1849.51,1119.28 1853.37,1116.85 1857.2,1114.42 1861.01,1111.99 1864.8,1109.56 1868.55,1107.13 1872.29,1104.7 1876,1102.27 1879.69,1099.84 1883.35,1097.41 1886.99,1094.97 1890.6,1092.54 1894.19,1090.11 1897.76,1087.68 1901.3,1085.25 1904.83,1082.82 1908.33,1080.39 1911.81,1077.96 1915.26,1075.53 1918.7,1073.1 1922.11,1070.67 1925.5,1068.24 1928.87,1065.8 1932.22,1063.37 1935.54,1060.94 1938.85,1058.51 1942.13,1056.08 1945.4,1053.65 1948.64,1051.22 1951.87,1048.79 1955.07,1046.36 1958.26,1043.93 1961.42,1041.5 1964.57,1039.07 1967.69,1036.64 1970.8,1034.2 1973.88,1031.77 1976.95,1029.34 1980,1026.91 1983.03,1024.48 1986.04,1022.05 1989.03,1019.62 1992.01,1017.19 1994.96,1014.76 1997.9,1012.33 2000.82,1009.9 2003.72,1007.47 2006.6,1005.03 2009.47,1002.6 2012.31,1000.17 2015.14,997.742 2017.95,995.311 2020.75,992.88 2023.53,990.449 2026.29,988.019 2029.03,985.588 2031.75,983.157 2034.46,980.726 2037.16,978.295 2039.83,975.864 2042.49,973.434 2045.13,971.003 2047.76,968.572 2050.37,966.141 2052.96,963.71 2055.53,961.28 2058.09,958.849 2060.64,956.418 2063.17,953.987 2065.68,951.556 2068.17,949.125 2070.66,946.695 2073.12,944.264 2075.57,941.833 2078,939.402 2080.42,936.971 2082.82,934.541 2085.21,932.11 2087.58,929.679 2089.94,927.248 2092.28,924.817 2094.6,922.386 2096.91,919.956 2099.21,917.525 2101.49,915.094 2103.75,912.663 2106.01,910.232 2108.24,907.801 2110.46,905.371 2112.67,902.94 2114.86,900.509 2117.04,898.078 2119.2,895.647 2121.35,893.217 2123.48,890.786 2125.6,888.355 2127.71,885.924 2129.8,883.493 2131.87,881.062 2133.94,878.632 2135.98,876.201 2138.02,873.77 2140.04,871.339 2142.04,868.908 2144.03,866.478 2146.01,864.047 2147.97,861.616 2149.92,859.185 2151.86,856.754 2153.78,854.323 2155.69,851.893 2157.58,849.462 2159.47,847.031 2161.33,844.6 2163.19,842.169 2165.03,839.738 2166.85,837.308 2168.66,834.877 2170.46,832.446 2172.25,830.015 2174.02,827.584 2175.78,825.154 2177.53,822.723 2179.26,820.292 2180.98,817.861 2182.68,815.43 2184.37,812.999 2186.05,810.569 2187.72,808.138 2189.37,805.707 2191.01,803.276 2192.63,800.845 2194.24,798.414 2195.84,795.984 2197.43,793.553 2199,791.122 2200.56,788.691 2202.11,786.26 2203.64,783.83 2205.16,781.399 2206.67,778.968 2208.17,776.537 2209.65,774.106 2211.12,771.675 2212.57,769.245 "/>
</svg>
