<?xml version="1.0" encoding="utf-8"?>
<svg xmlns="http://www.w3.org/2000/svg" xmlns:xlink="http://www.w3.org/1999/xlink" width="500" height="500" viewBox="46 46 1908 1908">
<defs>
  <clipPath id="clip020">
    <rect x="0" y="0" width="2000" height="2000"/>
  </clipPath>
</defs>
<defs>
  <clipPath id="clip021">
    <rect x="400" y="200" width="1401" height="1401"/>
  </clipPath>
</defs>
<defs>
  <clipPath id="clip022">
    <rect x="47" y="47" width="1907" height="1907"/>
  </clipPath>
</defs>
<circle clip-path="url(#clip022)" cx="1203.79" cy="1212.78" r="72" fill="#9457b1" fill-rule="evenodd" fill-opacity="1" stroke="#ffffff" stroke-opacity="0" stroke-width="4"/>
<polyline clip-path="url(#clip022)" style="stroke:#ca3b33; stroke-width:40; stroke-opacity:1; fill:none" points="
  1564.56,1212.78 1568.47,1207.64 1572.29,1202.5 1576.03,1197.35 1579.68,1192.2 1583.79,1186.24 1587.78,1180.28 1591.65,1174.31 1595.4,1168.34 1599.03,1162.36
  1602.53,1156.38 1605.92,1150.39 1609.18,1144.4 1612.31,1138.41 1615.32,1132.41 1618.2,1126.41 1620.95,1120.41 1623.57,1114.4 1626.06,1108.38 1628.42,1102.37
  1630.65,1096.35 1632.74,1090.33 1634.69,1084.3 1636.51,1078.28 1638.19,1072.25 1639.74,1066.22 1641.13,1060.18 1642.39,1054.15 1643.51,1048.11 1644.48,1042.07
  1645.3,1036.03 1645.98,1029.99 1646.51,1023.95 1646.89,1017.91 1647.12,1011.86 1647.18,1005.82 1647.1,999.776 1646.98,996.144 1646.8,992.512 1646.56,988.881
  1646.26,985.25 1645.91,981.619 1645.5,977.989 1645.02,974.359 1644.49,970.729 1643.91,967.1 1643.26,963.472 1642.55,959.844 1641.78,956.217 1640.95,952.591
  1640.06,948.966 1639.1,945.341 1638.09,941.718 1637.01,938.096 1635.87,934.475 1634.67,930.855 1633.4,927.237 1632.06,923.62 1630.67,920.004 1629.21,916.39
  1627.68,912.778 1626.08,909.168 1624.42,905.559 1622.7,901.952 1620.9,898.347 1619.04,894.744 1617.11,891.144 1615.11,887.546 1613.04,883.95 1611.23,880.911
  1609.38,877.875 1607.47,874.84 1605.51,871.808 1603.51,868.777 1601.45,865.749 1599.34,862.723 1597.17,859.699 1594.95,856.677 1592.68,853.658 1590.35,850.641
  1587.97,847.627 1585.54,844.615 1583.05,841.607 1580.51,838.601 1577.91,835.598 1575.25,832.598 1572.54,829.601 1569.76,826.607 1566.93,823.617 1564.05,820.63
  1561.1,817.646 1558.09,814.666 1555.02,811.69 1551.9,808.718 1548.71,805.749 1545.46,802.785 1542.14,799.825 1538.76,796.869 1535.32,793.918 1531.82,790.972
  1528.24,788.03 1524.29,784.84 1520.26,781.656 1516.14,778.479 1511.94,775.307 1507.66,772.143 1503.3,768.986 1498.85,765.836 1494.32,762.693 1489.69,759.558
  1484.98,756.432 1480.17,753.314 1475.27,750.204 1470.28,747.104 1465.18,744.014 1459.99,740.934 1454.7,737.864 1449.3,734.805 1443.8,731.758 1438.19,728.722
  1432.46,725.7 1426.62,722.691 1420.67,719.696 1414.59,716.716 1408.38,713.752 1402.05,710.804 1395.58,707.875 1388.97,704.964 1382.22,702.074 1375.31,699.205
  1368.25,696.36 1361.03,693.539 1353.63,690.746 1346.65,688.198 1339.51,685.676 1332.2,683.184 1324.72,680.725 1320.9,679.508 1317.04,678.301 1313.13,677.103
  1309.17,675.916 1305.15,674.739 1301.08,673.574 1296.95,672.421 1292.77,671.281 1288.53,670.155 1284.22,669.043 1279.85,667.946 1275.41,666.866 1270.9,665.804
  1266.32,664.76 1261.67,663.736 1256.94,662.734 1252.13,661.755 1247.23,660.802 1242.25,659.876 1237.19,658.98 1232.03,658.116 1226.78,657.288 1221.42,656.497
  1215.98,655.749 1210.43,655.048 1204.78,654.397 1199.03,653.801 1193.18,653.266 1187.24,652.799 1181.22,652.404 1175.11,652.088 1168.94,651.858 1162.74,651.719
  1156.5,651.677 1150.27,651.736 1144.07,651.9 1137.93,652.168 1131.88,652.541 1125.95,653.015 1120.16,653.587 1114.54,654.25 1109.09,654.998 1106.43,655.401
  1103.83,655.823 1101.27,656.263 1098.76,656.719 1096.3,657.191 1093.89,657.678 1091.52,658.179 1089.2,658.694 1086.93,659.221 1084.71,659.759 1082.53,660.309
  1080.39,660.869 1076.25,662.019 1072.28,663.204 1068.46,664.42 1064.79,665.663 1061.26,666.931 1057.87,668.221 1054.6,669.531 1051.45,670.858 1048.2,672.298
  1045.07,673.755 1042.06,675.226 1039.15,676.71 1036.34,678.206 1033.62,679.713 1031,681.229 1028.46,682.754 1026.01,684.287 1023.63,685.828 1021.32,687.375
  1019.08,688.928 1016.91,690.487 1014.8,692.051 1012.75,693.62 1010.75,695.194 1008.81,696.771 1006.92,698.353 1005.08,699.937 1003.29,701.525 999.839,704.711
  996.554,707.906 993.419,711.112 990.429,714.325 987.568,717.546 984.831,720.773 982.203,724.005 979.684,727.243 977.265,730.486 974.932,733.732 972.691,736.982
  970.531,740.236 968.443,743.493 966.428,746.752 964.483,750.014 962.6,753.278 960.775,756.544 959.008,759.812 957.296,763.082 955.632,766.353 954.019,769.626
  952.45,772.9 950.683,776.695 948.971,780.491 947.314,784.289 945.701,788.088 942.61,795.69 939.679,803.295 936.89,810.904 934.23,818.515 931.679,826.129
  929.23,833.744 926.865,841.362 924.58,848.981 922.364,856.601 920.207,864.222 918.105,871.844 916.047,879.466 914.028,887.09 912.039,894.714 908.575,908.265
  905.17,921.818 901.801,935.371 898.451,948.924 895.1,962.477 891.732,976.03 888.334,989.582 884.896,1003.13 881.837,1015.02 878.731,1026.9 875.574,1038.78
  872.362,1050.66 869.088,1062.54 865.752,1074.42 862.351,1086.3 858.876,1098.17 855.007,1111.12 851.047,1124.07 847.003,1137.01 842.864,1149.95 838.634,1162.89
  834.313,1175.83 829.904,1188.76 825.4,1201.7 820.78,1214.71 816.071,1227.72 811.279,1240.72 806.4,1253.72 801.442,1266.73 796.407,1279.73 791.301,1292.72
  786.127,1305.72 783.24,1312.9 780.336,1320.09 777.415,1327.27 774.479,1334.45 771.529,1341.64 768.566,1348.82 765.592,1356 762.608,1363.18 759.617,1370.36
  756.62,1377.55 750.616,1391.91 744.612,1406.27 738.629,1420.63 732.977,1434.3 727.388,1447.97 721.887,1461.64 716.507,1475.31 713.874,1482.15 711.286,1488.99
  708.748,1495.83 706.268,1502.67 703.851,1509.51 701.507,1516.36 699.245,1523.21 697.073,1530.05 694.925,1537.18 692.903,1544.3 691.024,1551.43 689.307,1558.56
  688.516,1562.12 687.776,1565.69 687.088,1569.26 686.458,1572.82 685.889,1576.39 685.387,1579.96 684.956,1583.53 684.603,1587.1 684.333,1590.67 684.155,1594.24
  684.077,1597.81 684.109,1601.38 684.26,1604.95 684.544,1608.52 684.975,1612.09 685.57,1615.66 685.936,1617.44 686.35,1619.23 686.816,1621.01 687.338,1622.79
  687.919,1624.57 688.564,1626.35 689.276,1628.13 690.063,1629.9 690.928,1631.67 691.879,1633.44 692.924,1635.21 694.071,1636.97 695.33,1638.73 696.711,1640.48
  698.229,1642.23 699.898,1643.97 701.433,1645.42 703.1,1646.87 704.914,1648.3 706.891,1649.72 707.947,1650.43 709.051,1651.13 710.207,1651.82 711.417,1652.51
  712.684,1653.2 714.014,1653.87 715.409,1654.54 716.874,1655.2 718.413,1655.85 720.031,1656.49 721.733,1657.11 723.525,1657.72 725.41,1658.31 727.393,1658.88
  729.481,1659.43 731.674,1659.95 733.977,1660.44 736.389,1660.9 738.91,1661.32 741.534,1661.7 744.257,1662.04 747.067,1662.33 749.953,1662.57 752.901,1662.76
  755.896,1662.9 758.922,1662.99 761.965,1663.03 765.013,1663.03 771.079,1662.89 777.057,1662.59 782.909,1662.17 788.62,1661.65 794.185,1661.04 799.606,1660.35
  804.893,1659.6 810.053,1658.8 815.093,1657.95 820.02,1657.07 824.849,1656.15 829.583,1655.21 834.229,1654.23 838.795,1653.24 843.284,1652.22 847.704,1651.18
  852.055,1650.13 856.343,1649.06 860.577,1647.98 864.752,1646.89 868.877,1645.78 872.953,1644.66 880.968,1642.4 888.815,1640.1 896.509,1637.76 904.064,1635.41
  911.492,1633.02 918.798,1630.61 925.992,1628.19 933.087,1625.74 940.084,1623.28 946.993,1620.8 953.811,1618.31 960.552,1615.81 968.677,1612.73 976.695,1609.64
  984.612,1606.53 992.433,1603.41 1000.16,1600.27 1007.8,1597.12 1015.36,1593.96 1022.84,1590.79 1030.24,1587.6 1037.57,1584.41 1044.83,1581.21 1052.02,1577.99
  1059.14,1574.77 1066.2,1571.54 1073.2,1568.3 1080.13,1565.05 1087.01,1561.8 1093.83,1558.53 1100.59,1555.26 1107.3,1551.99 1113.95,1548.71 1120.56,1545.42
  1127.11,1542.12 1133.61,1538.82 1140.06,1535.51 1146.46,1532.2 1152.82,1528.88 1159.12,1525.56 1171.6,1518.89 1183.9,1512.21 1195.3,1505.9 1206.54,1499.59
  1217.64,1493.25 1228.6,1486.9 1239.4,1480.54 1250.07,1474.16 1260.59,1467.77 1270.98,1461.36 1281.23,1454.94 1291.35,1448.5 1301.33,1442.06 1311.17,1435.6
  1320.89,1429.13 1330.46,1422.65 1339.91,1416.15 1349.23,1409.64 1356.6,1404.42 1363.88,1399.2 1371.08,1393.96 1378.2,1388.72 1385.23,1383.47 1392.18,1378.22
  1399.05,1372.96 1405.83,1367.69 1412.53,1362.41 1419.15,1357.13 1425.67,1351.85 1432.12,1346.55 1438.48,1341.25 1444.76,1335.95 1450.95,1330.63 1457.05,1325.32
  1463.07,1319.99 1469.01,1314.66 1474.85,1309.33 1480.62,1303.98 1486.29,1298.64 1491.87,1293.29 1497.37,1287.93 1502.78,1282.56 1508.11,1277.19 1513.34,1271.82
  1518.48,1266.44 1523.54,1261.06 1528.5,1255.67 1533.37,1250.27 1538.15,1244.87 1542.84,1239.47 1548.48,1232.8 1553.98,1226.14 1559.34,1219.46 1564.56,1212.78

  "/>
<polyline clip-path="url(#clip022)" style="stroke:#389725; stroke-width:40; stroke-opacity:1; fill:none" points="
  1790.67,1212.78 1799.08,1203.21 1807.26,1193.63 1815.2,1184.04 1822.9,1174.44 1831.5,1163.32 1839.77,1152.2 1847.71,1141.05 1855.31,1129.89 1862.57,1118.72
  1869.48,1107.54 1876.04,1096.34 1882.25,1085.13 1888.1,1073.91 1893.58,1062.67 1898.69,1051.43 1903.43,1040.17 1907.79,1028.91 1911.77,1017.64 1915.35,1006.36
  1918.54,995.073 1921.34,983.78 1923.73,972.481 1925.72,961.177 1927.3,949.869 1928.45,938.558 1929.19,927.246 1929.51,915.932 1929.39,904.617 1929.17,898.96
  1928.85,893.304 1928.41,887.648 1927.86,881.992 1926.44,870.683 1924.57,859.378 1923.47,853.728 1922.26,848.078 1920.93,842.431 1919.49,836.785 1917.94,831.14
  1916.27,825.498 1914.49,819.858 1912.59,814.22 1910.16,807.447 1907.57,800.678 1904.8,793.913 1901.87,787.152 1898.77,780.395 1895.5,773.644 1892.06,766.897
  1888.45,760.156 1884.68,753.421 1880.73,746.692 1876.61,739.969 1872.32,733.252 1867.86,726.542 1863.23,719.839 1858.42,713.144 1853.45,706.456 1848.3,699.776
  1842.98,693.104 1837.48,686.441 1831.82,679.786 1825.98,673.141 1819.97,666.505 1813.79,659.878 1807.44,653.262 1800.91,646.655 1794.22,640.059 1787.35,633.474
  1780.31,626.9 1773.1,620.337 1765.72,613.786 1758.16,607.246 1750.44,600.719 1743.78,595.209 1736.99,589.709 1730.09,584.218 1723.07,578.736 1715.92,573.264
  1708.66,567.801 1701.27,562.348 1693.77,556.905 1686.15,551.472 1678.4,546.049 1670.54,540.637 1662.56,535.235 1654.47,529.844 1646.25,524.464 1637.92,519.094
  1629.48,513.736 1620.91,508.389 1612.23,503.053 1603.44,497.728 1594.53,492.416 1585.51,487.115 1576.37,481.825 1567.13,476.548 1557.76,471.283 1548.29,466.03
  1538.7,460.79 1529,455.562 1519.19,450.346 1509.27,445.144 1499.24,439.954 1489.1,434.777 1478.85,429.613 1467.6,424.019 1456.21,418.44 1444.7,412.877
  1433.07,407.33 1421.31,401.799 1409.42,396.285 1397.41,390.787 1385.27,385.305 1373.02,379.84 1360.64,374.392 1348.13,368.961 1335.51,363.547 1322.76,358.15
  1309.9,352.77 1296.91,347.408 1283.81,342.064 1270.58,336.738 1257.24,331.429 1243.78,326.139 1230.21,320.867 1216.51,315.614 1202.71,310.379 1188.78,305.163
  1174.73,299.965 1160.57,294.787 1146.3,289.628 1131.91,284.489 1117.4,279.369 1102.78,274.27 1088.05,269.191 1073.2,264.132 1058.23,259.094 1030.33,249.86
  1002.04,240.698 973.352,231.611 944.267,222.602 914.78,213.673 884.885,204.827 854.573,196.067 823.838,187.398 808.308,183.097 792.671,178.822 776.92,174.572
  761.055,170.347 745.076,166.149 728.978,161.979 712.76,157.836 696.418,153.724 679.95,149.641 663.353,145.592 646.622,141.575 629.753,137.594 612.742,133.65
  595.583,129.745 578.271,125.881 560.799,122.062 541.881,118.019 522.761,114.034 503.427,110.113 483.867,106.26 464.064,102.484 444.001,98.7914 423.659,95.1939
  403.012,91.7026 382.035,88.3336 360.695,85.1069 338.954,82.0466 316.769,79.187 305.495,77.8462 294.091,76.5739 282.551,75.378 270.87,74.2694 259.041,73.2598
  247.063,72.3645 234.935,71.6006 222.665,70.9914 210.271,70.5631 197.786,70.3471 185.273,70.3804 172.83,70.7043 166.678,70.9878 160.603,71.3576 154.631,71.8192
  148.79,72.3726 143.11,73.0205 137.621,73.761 132.348,74.5916 127.315,75.5085 122.538,76.5055 118.03,77.5754 113.797,78.7119 109.838,79.9068 106.149,81.1531
  102.723,82.4443 99.5476,83.7733 96.6121,85.1366 93.9025,86.5277 91.4053,87.9422 89.1074,89.3774 86.996,90.8297 85.0583,92.2974 83.2834,93.7767 81.6596,95.2668
  80.1774,96.7668 78.8277,98.2731 77.6014,99.7866 76.4904,101.305 75.4882,102.828 73.7819,105.886 72.4351,108.953 71.4073,112.029 70.6646,115.11 70.177,118.193
  69.9193,121.279 69.8693,124.365 70.0084,127.451 70.3197,130.536 70.7883,133.62 71.4011,136.703 72.1472,139.784 73.0154,142.862 73.9972,145.938 75.2655,149.501
  76.6634,153.06 78.1806,156.616 79.8077,160.169 83.3597,167.266 87.2624,174.352 91.4681,181.428 95.9376,188.494 100.638,195.551 105.539,202.599 110.619,209.639
  115.853,216.673 121.226,223.701 126.719,230.723 138.011,244.752 149.63,258.765 161.498,272.765 173.548,286.755 185.724,300.739 197.982,314.719 210.281,328.697
  222.587,342.674 234.869,356.652 247.102,370.633 268.651,395.492 289.86,420.369 300.306,432.816 310.634,445.269 320.833,457.728 330.896,470.194 340.814,482.667
  350.579,495.148 360.186,507.635 369.627,520.131 378.897,532.634 387.99,545.145 396.901,557.664 405.626,570.191 413.119,581.183 420.462,592.181 427.654,603.185
  434.69,614.195 441.568,625.211 448.288,636.233 454.846,647.261 461.24,658.295 467.468,669.335 473.53,680.38 479.424,691.431 485.147,702.487 490.699,713.548
  496.078,724.615 501.284,735.687 506.315,746.763 511.6,758.845 516.674,770.933 521.538,783.025 526.189,795.123 530.628,807.226 534.854,819.333 538.865,831.445
  542.663,843.561 546.246,855.681 549.614,867.804 552.768,879.931 555.707,892.062 558.43,904.195 560.939,916.331 563.234,928.47 565.315,940.611 567.193,952.827
  568.855,965.044 570.303,977.263 571.536,989.483 572.556,1001.71 573.364,1013.93 573.96,1026.15 574.346,1038.37 574.522,1050.6 574.49,1062.82 574.252,1075.05
  573.808,1087.27 573.16,1099.49 572.309,1111.72 571.257,1123.94 570.006,1136.16 568.393,1149.67 566.54,1163.18 564.451,1176.68 562.128,1190.18 559.574,1203.69
  556.791,1217.18 553.782,1230.68 550.551,1244.17 547.1,1257.66 543.434,1271.14 539.554,1284.63 535.466,1298.1 531.172,1311.58 526.676,1325.05 521.983,1338.51
  517.095,1351.98 512.268,1364.78 507.274,1377.58 502.115,1390.38 496.795,1403.17 491.32,1415.96 485.694,1428.74 479.92,1441.52 474.004,1454.3 467.95,1467.07
  461.764,1479.84 455.45,1492.61 449.016,1505.37 442.466,1518.13 435.808,1530.88 429.047,1543.63 422.19,1556.38 407.661,1582.88 400.278,1596.13 392.83,1609.37
  377.786,1635.85 362.636,1662.33 347.51,1688.81 332.574,1715.3 325.24,1728.55 318.04,1741.8 311.01,1755.06 304.198,1768.33 298.672,1779.5 293.38,1790.68
  288.369,1801.87 283.698,1813.06 281.513,1818.66 279.442,1824.27 277.497,1829.88 275.693,1835.49 274.045,1841.1 272.573,1846.72 271.3,1852.33 270.249,1857.96
  269.454,1863.58 268.951,1869.21 268.788,1874.83 269.021,1880.46 269.308,1883.28 269.724,1886.09 270.281,1888.9 270.994,1891.71 271.879,1894.51 272.958,1897.31
  274.253,1900.11 275.794,1902.9 277.615,1905.67 279.757,1908.44 282.274,1911.18 285.229,1913.9 286.896,1915.25 288.704,1916.58 290.669,1917.9 292.805,1919.21
  295.129,1920.49 297.661,1921.75 300.421,1922.98 303.432,1924.18 306.718,1925.33 310.3,1926.42 314.197,1927.45 318.421,1928.4 322.972,1929.24 327.835,1929.98
  332.978,1930.59 338.349,1931.06 343.89,1931.39 349.538,1931.59 355.237,1931.66 360.938,1931.61 372.222,1931.2 383.229,1930.46 389.787,1929.88 396.219,1929.22
  402.528,1928.49 408.719,1927.71 420.775,1925.98 432.437,1924.1 443.753,1922.1 454.765,1919.99 465.508,1917.81 476.013,1915.55 486.304,1913.23 496.403,1910.87
  506.327,1908.46 516.093,1906 525.712,1903.52 535.198,1901 544.559,1898.46 553.805,1895.89 571.983,1890.68 589.781,1885.39 607.242,1880.04 624.401,1874.62
  641.286,1869.16 657.919,1863.64 674.322,1858.09 690.51,1852.5 706.498,1846.87 722.3,1841.21 737.925,1835.52 753.383,1829.8 768.683,1824.06 783.833,1818.29
  798.839,1812.5 813.706,1806.69 828.444,1800.86 843.051,1795.01 857.533,1789.14 871.899,1783.25 900.283,1771.42 928.23,1759.53 954.114,1748.3 979.644,1737.02
  1004.83,1725.7 1029.68,1714.32 1054.21,1702.91 1078.42,1691.45 1102.32,1679.96 1125.91,1668.42 1149.2,1656.85 1172.19,1645.24 1194.89,1633.6 1217.29,1621.92
  1239.4,1610.21 1261.21,1598.47 1282.74,1586.69 1303.98,1574.88 1320.78,1565.4 1337.39,1555.9 1353.82,1546.38 1370.06,1536.83 1386.11,1527.27 1401.98,1517.69
  1417.65,1508.09 1433.13,1498.48 1448.42,1488.84 1463.52,1479.18 1478.42,1469.51 1493.13,1459.82 1507.63,1450.11 1521.94,1440.38 1536.05,1430.64 1549.96,1420.87
  1563.66,1411.09 1577.16,1401.3 1590.44,1391.48 1603.52,1381.65 1616.39,1371.8 1629.04,1361.93 1641.47,1352.05 1653.68,1342.15 1665.68,1332.23 1677.45,1322.3
  1688.99,1312.35 1700.3,1302.39 1711.38,1292.41 1722.23,1282.41 1732.84,1272.4 1743.21,1262.37 1755.64,1250.01 1767.7,1237.62 1779.38,1225.21 1790.67,1212.78

  "/>
</svg>
