<?xml version="1.0" encoding="utf-8"?>
<svg xmlns="http://www.w3.org/2000/svg" xmlns:xlink="http://www.w3.org/1999/xlink" width="600" height="400" viewBox="0 0 2400 1600">
<defs>
  <clipPath id="clip530">
    <rect x="0" y="0" width="2400" height="1600"/>
  </clipPath>
</defs>
<path clip-path="url(#clip530)" d="M0 1600 L2400 1600 L2400 0 L0 0  Z" fill="#ffffff" fill-rule="evenodd" fill-opacity="1"/>
<defs>
  <clipPath id="clip531">
    <rect x="250" y="47" width="2104" height="1377"/>
  </clipPath>
</defs>
<path clip-path="url(#clip530)" d="M250.028 1423.18 L2352.76 1423.18 L2352.76 47.2441 L250.028 47.2441  Z" fill="#ffffff" fill-rule="evenodd" fill-opacity="1"/>
<polyline clip-path="url(#clip531)" style="stroke:#000000; stroke-linecap:round; stroke-linejoin:round; stroke-width:2; stroke-opacity:0.1; fill:none" points="363.712,1423.18 363.712,47.2441 "/>
<polyline clip-path="url(#clip531)" style="stroke:#000000; stroke-linecap:round; stroke-linejoin:round; stroke-width:2; stroke-opacity:0.1; fill:none" points="661.203,1423.18 661.203,47.2441 "/>
<polyline clip-path="url(#clip531)" style="stroke:#000000; stroke-linecap:round; stroke-linejoin:round; stroke-width:2; stroke-opacity:0.1; fill:none" points="958.693,1423.18 958.693,47.2441 "/>
<polyline clip-path="url(#clip531)" style="stroke:#000000; stroke-linecap:round; stroke-linejoin:round; stroke-width:2; stroke-opacity:0.1; fill:none" points="1256.18,1423.18 1256.18,47.2441 "/>
<polyline clip-path="url(#clip531)" style="stroke:#000000; stroke-linecap:round; stroke-linejoin:round; stroke-width:2; stroke-opacity:0.1; fill:none" points="1553.67,1423.18 1553.67,47.2441 "/>
<polyline clip-path="url(#clip531)" style="stroke:#000000; stroke-linecap:round; stroke-linejoin:round; stroke-width:2; stroke-opacity:0.1; fill:none" points="1851.16,1423.18 1851.16,47.2441 "/>
<polyline clip-path="url(#clip531)" style="stroke:#000000; stroke-linecap:round; stroke-linejoin:round; stroke-width:2; stroke-opacity:0.1; fill:none" points="2148.65,1423.18 2148.65,47.2441 "/>
<polyline clip-path="url(#clip531)" style="stroke:#000000; stroke-linecap:round; stroke-linejoin:round; stroke-width:2; stroke-opacity:0.1; fill:none" points="250.028,1334.12 2352.76,1334.12 "/>
<polyline clip-path="url(#clip531)" style="stroke:#000000; stroke-linecap:round; stroke-linejoin:round; stroke-width:2; stroke-opacity:0.1; fill:none" points="250.028,1127.37 2352.76,1127.37 "/>
<polyline clip-path="url(#clip531)" style="stroke:#000000; stroke-linecap:round; stroke-linejoin:round; stroke-width:2; stroke-opacity:0.1; fill:none" points="250.028,920.622 2352.76,920.622 "/>
<polyline clip-path="url(#clip531)" style="stroke:#000000; stroke-linecap:round; stroke-linejoin:round; stroke-width:2; stroke-opacity:0.1; fill:none" points="250.028,713.872 2352.76,713.872 "/>
<polyline clip-path="url(#clip531)" style="stroke:#000000; stroke-linecap:round; stroke-linejoin:round; stroke-width:2; stroke-opacity:0.1; fill:none" points="250.028,507.123 2352.76,507.123 "/>
<polyline clip-path="url(#clip531)" style="stroke:#000000; stroke-linecap:round; stroke-linejoin:round; stroke-width:2; stroke-opacity:0.1; fill:none" points="250.028,300.374 2352.76,300.374 "/>
<polyline clip-path="url(#clip531)" style="stroke:#000000; stroke-linecap:round; stroke-linejoin:round; stroke-width:2; stroke-opacity:0.1; fill:none" points="250.028,93.6244 2352.76,93.6244 "/>
<polyline clip-path="url(#clip530)" style="stroke:#000000; stroke-linecap:round; stroke-linejoin:round; stroke-width:4; stroke-opacity:1; fill:none" points="250.028,1423.18 2352.76,1423.18 "/>
<polyline clip-path="url(#clip530)" style="stroke:#000000; stroke-linecap:round; stroke-linejoin:round; stroke-width:4; stroke-opacity:1; fill:none" points="363.712,1423.18 363.712,1404.28 "/>
<polyline clip-path="url(#clip530)" style="stroke:#000000; stroke-linecap:round; stroke-linejoin:round; stroke-width:4; stroke-opacity:1; fill:none" points="661.203,1423.18 661.203,1404.28 "/>
<polyline clip-path="url(#clip530)" style="stroke:#000000; stroke-linecap:round; stroke-linejoin:round; stroke-width:4; stroke-opacity:1; fill:none" points="958.693,1423.18 958.693,1404.28 "/>
<polyline clip-path="url(#clip530)" style="stroke:#000000; stroke-linecap:round; stroke-linejoin:round; stroke-width:4; stroke-opacity:1; fill:none" points="1256.18,1423.18 1256.18,1404.28 "/>
<polyline clip-path="url(#clip530)" style="stroke:#000000; stroke-linecap:round; stroke-linejoin:round; stroke-width:4; stroke-opacity:1; fill:none" points="1553.67,1423.18 1553.67,1404.28 "/>
<polyline clip-path="url(#clip530)" style="stroke:#000000; stroke-linecap:round; stroke-linejoin:round; stroke-width:4; stroke-opacity:1; fill:none" points="1851.16,1423.18 1851.16,1404.28 "/>
<polyline clip-path="url(#clip530)" style="stroke:#000000; stroke-linecap:round; stroke-linejoin:round; stroke-width:4; stroke-opacity:1; fill:none" points="2148.65,1423.18 2148.65,1404.28 "/>
<path clip-path="url(#clip530)" d="M281.572 1454.1 Q277.961 1454.1 276.132 1457.66 Q274.326 1461.2 274.326 1468.33 Q274.326 1475.44 276.132 1479.01 Q277.961 1482.55 281.572 1482.55 Q285.206 1482.55 287.011 1479.01 Q288.84 1475.44 288.84 1468.33 Q288.84 1461.2 287.011 1457.66 Q285.206 1454.1 281.572 1454.1 M281.572 1450.39 Q287.382 1450.39 290.437 1455 Q293.516 1459.58 293.516 1468.33 Q293.516 1477.06 290.437 1481.67 Q287.382 1486.25 281.572 1486.25 Q275.761 1486.25 272.683 1481.67 Q269.627 1477.06 269.627 1468.33 Q269.627 1459.58 272.683 1455 Q275.761 1450.39 281.572 1450.39 Z" fill="#000000" fill-rule="nonzero" fill-opacity="1" /><path clip-path="url(#clip530)" d="M301.734 1479.7 L306.618 1479.7 L306.618 1485.58 L301.734 1485.58 L301.734 1479.7 Z" fill="#000000" fill-rule="nonzero" fill-opacity="1" /><path clip-path="url(#clip530)" d="M326.803 1454.1 Q323.192 1454.1 321.363 1457.66 Q319.558 1461.2 319.558 1468.33 Q319.558 1475.44 321.363 1479.01 Q323.192 1482.55 326.803 1482.55 Q330.437 1482.55 332.243 1479.01 Q334.071 1475.44 334.071 1468.33 Q334.071 1461.2 332.243 1457.66 Q330.437 1454.1 326.803 1454.1 M326.803 1450.39 Q332.613 1450.39 335.669 1455 Q338.747 1459.58 338.747 1468.33 Q338.747 1477.06 335.669 1481.67 Q332.613 1486.25 326.803 1486.25 Q320.993 1486.25 317.914 1481.67 Q314.858 1477.06 314.858 1468.33 Q314.858 1459.58 317.914 1455 Q320.993 1450.39 326.803 1450.39 Z" fill="#000000" fill-rule="nonzero" fill-opacity="1" /><path clip-path="url(#clip530)" d="M356.965 1454.1 Q353.354 1454.1 351.525 1457.66 Q349.719 1461.2 349.719 1468.33 Q349.719 1475.44 351.525 1479.01 Q353.354 1482.55 356.965 1482.55 Q360.599 1482.55 362.405 1479.01 Q364.233 1475.44 364.233 1468.33 Q364.233 1461.2 362.405 1457.66 Q360.599 1454.1 356.965 1454.1 M356.965 1450.39 Q362.775 1450.39 365.83 1455 Q368.909 1459.58 368.909 1468.33 Q368.909 1477.06 365.83 1481.67 Q362.775 1486.25 356.965 1486.25 Q351.155 1486.25 348.076 1481.67 Q345.02 1477.06 345.02 1468.33 Q345.02 1459.58 348.076 1455 Q351.155 1450.39 356.965 1450.39 Z" fill="#000000" fill-rule="nonzero" fill-opacity="1" /><path clip-path="url(#clip530)" d="M381.154 1481.64 L397.474 1481.64 L397.474 1485.58 L375.529 1485.58 L375.529 1481.64 Q378.191 1478.89 382.775 1474.26 Q387.381 1469.61 388.562 1468.27 Q390.807 1465.74 391.687 1464.01 Q392.59 1462.25 392.59 1460.56 Q392.59 1457.8 390.645 1456.07 Q388.724 1454.33 385.622 1454.33 Q383.423 1454.33 380.969 1455.09 Q378.539 1455.86 375.761 1457.41 L375.761 1452.69 Q378.585 1451.55 381.039 1450.97 Q383.492 1450.39 385.529 1450.39 Q390.9 1450.39 394.094 1453.08 Q397.289 1455.77 397.289 1460.26 Q397.289 1462.39 396.478 1464.31 Q395.691 1466.2 393.585 1468.8 Q393.006 1469.47 389.904 1472.69 Q386.803 1475.88 381.154 1481.64 Z" fill="#000000" fill-rule="nonzero" fill-opacity="1" /><path clip-path="url(#clip530)" d="M408.099 1481.64 L415.738 1481.64 L415.738 1455.28 L407.427 1456.95 L407.427 1452.69 L415.691 1451.02 L420.367 1451.02 L420.367 1481.64 L428.006 1481.64 L428.006 1485.58 L408.099 1485.58 L408.099 1481.64 Z" fill="#000000" fill-rule="nonzero" fill-opacity="1" /><path clip-path="url(#clip530)" d="M441.478 1481.64 L457.798 1481.64 L457.798 1485.58 L435.853 1485.58 L435.853 1481.64 Q438.515 1478.89 443.099 1474.26 Q447.705 1469.61 448.886 1468.27 Q451.131 1465.74 452.011 1464.01 Q452.913 1462.25 452.913 1460.56 Q452.913 1457.8 450.969 1456.07 Q449.048 1454.33 445.946 1454.33 Q443.747 1454.33 441.293 1455.09 Q438.862 1455.86 436.085 1457.41 L436.085 1452.69 Q438.909 1451.55 441.362 1450.97 Q443.816 1450.39 445.853 1450.39 Q451.223 1450.39 454.418 1453.08 Q457.612 1455.77 457.612 1460.26 Q457.612 1462.39 456.802 1464.31 Q456.015 1466.2 453.909 1468.8 Q453.33 1469.47 450.228 1472.69 Q447.126 1475.88 441.478 1481.64 Z" fill="#000000" fill-rule="nonzero" fill-opacity="1" /><path clip-path="url(#clip530)" d="M578.02 1454.1 Q574.409 1454.1 572.58 1457.66 Q570.775 1461.2 570.775 1468.33 Q570.775 1475.44 572.58 1479.01 Q574.409 1482.55 578.02 1482.55 Q581.654 1482.55 583.46 1479.01 Q585.289 1475.44 585.289 1468.33 Q585.289 1461.2 583.46 1457.66 Q581.654 1454.1 578.02 1454.1 M578.02 1450.39 Q583.83 1450.39 586.886 1455 Q589.964 1459.58 589.964 1468.33 Q589.964 1477.06 586.886 1481.67 Q583.83 1486.25 578.02 1486.25 Q572.21 1486.25 569.131 1481.67 Q566.076 1477.06 566.076 1468.33 Q566.076 1459.58 569.131 1455 Q572.21 1450.39 578.02 1450.39 Z" fill="#000000" fill-rule="nonzero" fill-opacity="1" /><path clip-path="url(#clip530)" d="M598.182 1479.7 L603.066 1479.7 L603.066 1485.58 L598.182 1485.58 L598.182 1479.7 Z" fill="#000000" fill-rule="nonzero" fill-opacity="1" /><path clip-path="url(#clip530)" d="M623.251 1454.1 Q619.64 1454.1 617.812 1457.66 Q616.006 1461.2 616.006 1468.33 Q616.006 1475.44 617.812 1479.01 Q619.64 1482.55 623.251 1482.55 Q626.886 1482.55 628.691 1479.01 Q630.52 1475.44 630.52 1468.33 Q630.52 1461.2 628.691 1457.66 Q626.886 1454.1 623.251 1454.1 M623.251 1450.39 Q629.061 1450.39 632.117 1455 Q635.196 1459.58 635.196 1468.33 Q635.196 1477.06 632.117 1481.67 Q629.061 1486.25 623.251 1486.25 Q617.441 1486.25 614.362 1481.67 Q611.307 1477.06 611.307 1468.33 Q611.307 1459.58 614.362 1455 Q617.441 1450.39 623.251 1450.39 Z" fill="#000000" fill-rule="nonzero" fill-opacity="1" /><path clip-path="url(#clip530)" d="M653.413 1454.1 Q649.802 1454.1 647.973 1457.66 Q646.168 1461.2 646.168 1468.33 Q646.168 1475.44 647.973 1479.01 Q649.802 1482.55 653.413 1482.55 Q657.047 1482.55 658.853 1479.01 Q660.682 1475.44 660.682 1468.33 Q660.682 1461.2 658.853 1457.66 Q657.047 1454.1 653.413 1454.1 M653.413 1450.39 Q659.223 1450.39 662.279 1455 Q665.358 1459.58 665.358 1468.33 Q665.358 1477.06 662.279 1481.67 Q659.223 1486.25 653.413 1486.25 Q647.603 1486.25 644.524 1481.67 Q641.469 1477.06 641.469 1468.33 Q641.469 1459.58 644.524 1455 Q647.603 1450.39 653.413 1450.39 Z" fill="#000000" fill-rule="nonzero" fill-opacity="1" /><path clip-path="url(#clip530)" d="M677.603 1481.64 L693.922 1481.64 L693.922 1485.58 L671.978 1485.58 L671.978 1481.64 Q674.64 1478.89 679.223 1474.26 Q683.83 1469.61 685.01 1468.27 Q687.256 1465.74 688.135 1464.01 Q689.038 1462.25 689.038 1460.56 Q689.038 1457.8 687.094 1456.07 Q685.172 1454.33 682.07 1454.33 Q679.871 1454.33 677.418 1455.09 Q674.987 1455.86 672.209 1457.41 L672.209 1452.69 Q675.033 1451.55 677.487 1450.97 Q679.941 1450.39 681.978 1450.39 Q687.348 1450.39 690.543 1453.08 Q693.737 1455.77 693.737 1460.26 Q693.737 1462.39 692.927 1464.31 Q692.14 1466.2 690.033 1468.8 Q689.455 1469.47 686.353 1472.69 Q683.251 1475.88 677.603 1481.64 Z" fill="#000000" fill-rule="nonzero" fill-opacity="1" /><path clip-path="url(#clip530)" d="M704.547 1481.64 L712.186 1481.64 L712.186 1455.28 L703.876 1456.95 L703.876 1452.69 L712.14 1451.02 L716.816 1451.02 L716.816 1481.64 L724.454 1481.64 L724.454 1485.58 L704.547 1485.58 L704.547 1481.64 Z" fill="#000000" fill-rule="nonzero" fill-opacity="1" /><path clip-path="url(#clip530)" d="M746.746 1455.09 L734.941 1473.54 L746.746 1473.54 L746.746 1455.09 M745.519 1451.02 L751.399 1451.02 L751.399 1473.54 L756.329 1473.54 L756.329 1477.43 L751.399 1477.43 L751.399 1485.58 L746.746 1485.58 L746.746 1477.43 L731.144 1477.43 L731.144 1472.92 L745.519 1451.02 Z" fill="#000000" fill-rule="nonzero" fill-opacity="1" /><path clip-path="url(#clip530)" d="M875.672 1454.1 Q872.061 1454.1 870.232 1457.66 Q868.427 1461.2 868.427 1468.33 Q868.427 1475.44 870.232 1479.01 Q872.061 1482.55 875.672 1482.55 Q879.307 1482.55 881.112 1479.01 Q882.941 1475.44 882.941 1468.33 Q882.941 1461.2 881.112 1457.66 Q879.307 1454.1 875.672 1454.1 M875.672 1450.39 Q881.482 1450.39 884.538 1455 Q887.617 1459.58 887.617 1468.33 Q887.617 1477.06 884.538 1481.67 Q881.482 1486.25 875.672 1486.25 Q869.862 1486.25 866.783 1481.67 Q863.728 1477.06 863.728 1468.33 Q863.728 1459.58 866.783 1455 Q869.862 1450.39 875.672 1450.39 Z" fill="#000000" fill-rule="nonzero" fill-opacity="1" /><path clip-path="url(#clip530)" d="M895.834 1479.7 L900.718 1479.7 L900.718 1485.58 L895.834 1485.58 L895.834 1479.7 Z" fill="#000000" fill-rule="nonzero" fill-opacity="1" /><path clip-path="url(#clip530)" d="M920.904 1454.1 Q917.292 1454.1 915.464 1457.66 Q913.658 1461.2 913.658 1468.33 Q913.658 1475.44 915.464 1479.01 Q917.292 1482.55 920.904 1482.55 Q924.538 1482.55 926.343 1479.01 Q928.172 1475.44 928.172 1468.33 Q928.172 1461.2 926.343 1457.66 Q924.538 1454.1 920.904 1454.1 M920.904 1450.39 Q926.714 1450.39 929.769 1455 Q932.848 1459.58 932.848 1468.33 Q932.848 1477.06 929.769 1481.67 Q926.714 1486.25 920.904 1486.25 Q915.093 1486.25 912.015 1481.67 Q908.959 1477.06 908.959 1468.33 Q908.959 1459.58 912.015 1455 Q915.093 1450.39 920.904 1450.39 Z" fill="#000000" fill-rule="nonzero" fill-opacity="1" /><path clip-path="url(#clip530)" d="M951.065 1454.1 Q947.454 1454.1 945.626 1457.66 Q943.82 1461.2 943.82 1468.33 Q943.82 1475.44 945.626 1479.01 Q947.454 1482.55 951.065 1482.55 Q954.7 1482.55 956.505 1479.01 Q958.334 1475.44 958.334 1468.33 Q958.334 1461.2 956.505 1457.66 Q954.7 1454.1 951.065 1454.1 M951.065 1450.39 Q956.876 1450.39 959.931 1455 Q963.01 1459.58 963.01 1468.33 Q963.01 1477.06 959.931 1481.67 Q956.876 1486.25 951.065 1486.25 Q945.255 1486.25 942.177 1481.67 Q939.121 1477.06 939.121 1468.33 Q939.121 1459.58 942.177 1455 Q945.255 1450.39 951.065 1450.39 Z" fill="#000000" fill-rule="nonzero" fill-opacity="1" /><path clip-path="url(#clip530)" d="M975.255 1481.64 L991.574 1481.64 L991.574 1485.58 L969.63 1485.58 L969.63 1481.64 Q972.292 1478.89 976.875 1474.26 Q981.482 1469.61 982.662 1468.27 Q984.908 1465.74 985.787 1464.01 Q986.69 1462.25 986.69 1460.56 Q986.69 1457.8 984.746 1456.07 Q982.824 1454.33 979.723 1454.33 Q977.524 1454.33 975.07 1455.09 Q972.639 1455.86 969.862 1457.41 L969.862 1452.69 Q972.686 1451.55 975.139 1450.97 Q977.593 1450.39 979.63 1450.39 Q985 1450.39 988.195 1453.08 Q991.389 1455.77 991.389 1460.26 Q991.389 1462.39 990.579 1464.31 Q989.792 1466.2 987.686 1468.8 Q987.107 1469.47 984.005 1472.69 Q980.903 1475.88 975.255 1481.64 Z" fill="#000000" fill-rule="nonzero" fill-opacity="1" /><path clip-path="url(#clip530)" d="M1002.2 1481.64 L1009.84 1481.64 L1009.84 1455.28 L1001.53 1456.95 L1001.53 1452.69 L1009.79 1451.02 L1014.47 1451.02 L1014.47 1481.64 L1022.11 1481.64 L1022.11 1485.58 L1002.2 1485.58 L1002.2 1481.64 Z" fill="#000000" fill-rule="nonzero" fill-opacity="1" /><path clip-path="url(#clip530)" d="M1042.13 1466.44 Q1038.98 1466.44 1037.13 1468.59 Q1035.3 1470.74 1035.3 1474.49 Q1035.3 1478.22 1037.13 1480.39 Q1038.98 1482.55 1042.13 1482.55 Q1045.28 1482.55 1047.11 1480.39 Q1048.96 1478.22 1048.96 1474.49 Q1048.96 1470.74 1047.11 1468.59 Q1045.28 1466.44 1042.13 1466.44 M1051.41 1451.78 L1051.41 1456.04 Q1049.65 1455.21 1047.85 1454.77 Q1046.06 1454.33 1044.31 1454.33 Q1039.68 1454.33 1037.22 1457.45 Q1034.79 1460.58 1034.44 1466.9 Q1035.81 1464.89 1037.87 1463.82 Q1039.93 1462.73 1042.41 1462.73 Q1047.62 1462.73 1050.63 1465.9 Q1053.66 1469.05 1053.66 1474.49 Q1053.66 1479.82 1050.51 1483.03 Q1047.36 1486.25 1042.13 1486.25 Q1036.13 1486.25 1032.96 1481.67 Q1029.79 1477.06 1029.79 1468.33 Q1029.79 1460.14 1033.68 1455.28 Q1037.57 1450.39 1044.12 1450.39 Q1045.88 1450.39 1047.66 1450.74 Q1049.47 1451.09 1051.41 1451.78 Z" fill="#000000" fill-rule="nonzero" fill-opacity="1" /><path clip-path="url(#clip530)" d="M1173.29 1454.1 Q1169.68 1454.1 1167.85 1457.66 Q1166.04 1461.2 1166.04 1468.33 Q1166.04 1475.44 1167.85 1479.01 Q1169.68 1482.55 1173.29 1482.55 Q1176.92 1482.55 1178.73 1479.01 Q1180.56 1475.44 1180.56 1468.33 Q1180.56 1461.2 1178.73 1457.66 Q1176.92 1454.1 1173.29 1454.1 M1173.29 1450.39 Q1179.1 1450.39 1182.16 1455 Q1185.23 1459.58 1185.23 1468.33 Q1185.23 1477.06 1182.16 1481.67 Q1179.1 1486.25 1173.29 1486.25 Q1167.48 1486.25 1164.4 1481.67 Q1161.35 1477.06 1161.35 1468.33 Q1161.35 1459.58 1164.4 1455 Q1167.48 1450.39 1173.29 1450.39 Z" fill="#000000" fill-rule="nonzero" fill-opacity="1" /><path clip-path="url(#clip530)" d="M1193.45 1479.7 L1198.34 1479.7 L1198.34 1485.58 L1193.45 1485.58 L1193.45 1479.7 Z" fill="#000000" fill-rule="nonzero" fill-opacity="1" /><path clip-path="url(#clip530)" d="M1218.52 1454.1 Q1214.91 1454.1 1213.08 1457.66 Q1211.28 1461.2 1211.28 1468.33 Q1211.28 1475.44 1213.08 1479.01 Q1214.91 1482.55 1218.52 1482.55 Q1222.16 1482.55 1223.96 1479.01 Q1225.79 1475.44 1225.79 1468.33 Q1225.79 1461.2 1223.96 1457.66 Q1222.16 1454.1 1218.52 1454.1 M1218.52 1450.39 Q1224.33 1450.39 1227.39 1455 Q1230.47 1459.58 1230.47 1468.33 Q1230.47 1477.06 1227.39 1481.67 Q1224.33 1486.25 1218.52 1486.25 Q1212.71 1486.25 1209.63 1481.67 Q1206.58 1477.06 1206.58 1468.33 Q1206.58 1459.58 1209.63 1455 Q1212.71 1450.39 1218.52 1450.39 Z" fill="#000000" fill-rule="nonzero" fill-opacity="1" /><path clip-path="url(#clip530)" d="M1248.68 1454.1 Q1245.07 1454.1 1243.24 1457.66 Q1241.44 1461.2 1241.44 1468.33 Q1241.44 1475.44 1243.24 1479.01 Q1245.07 1482.55 1248.68 1482.55 Q1252.32 1482.55 1254.12 1479.01 Q1255.95 1475.44 1255.95 1468.33 Q1255.95 1461.2 1254.12 1457.66 Q1252.32 1454.1 1248.68 1454.1 M1248.68 1450.39 Q1254.49 1450.39 1257.55 1455 Q1260.63 1459.58 1260.63 1468.33 Q1260.63 1477.06 1257.55 1481.67 Q1254.49 1486.25 1248.68 1486.25 Q1242.87 1486.25 1239.79 1481.67 Q1236.74 1477.06 1236.74 1468.33 Q1236.74 1459.58 1239.79 1455 Q1242.87 1450.39 1248.68 1450.39 Z" fill="#000000" fill-rule="nonzero" fill-opacity="1" /><path clip-path="url(#clip530)" d="M1272.87 1481.64 L1289.19 1481.64 L1289.19 1485.58 L1267.25 1485.58 L1267.25 1481.64 Q1269.91 1478.89 1274.49 1474.26 Q1279.1 1469.61 1280.28 1468.27 Q1282.53 1465.74 1283.4 1464.01 Q1284.31 1462.25 1284.31 1460.56 Q1284.31 1457.8 1282.36 1456.07 Q1280.44 1454.33 1277.34 1454.33 Q1275.14 1454.33 1272.69 1455.09 Q1270.26 1455.86 1267.48 1457.41 L1267.48 1452.69 Q1270.3 1451.55 1272.76 1450.97 Q1275.21 1450.39 1277.25 1450.39 Q1282.62 1450.39 1285.81 1453.08 Q1289.01 1455.77 1289.01 1460.26 Q1289.01 1462.39 1288.2 1464.31 Q1287.41 1466.2 1285.3 1468.8 Q1284.72 1469.47 1281.62 1472.69 Q1278.52 1475.88 1272.87 1481.64 Z" fill="#000000" fill-rule="nonzero" fill-opacity="1" /><path clip-path="url(#clip530)" d="M1299.82 1481.64 L1307.46 1481.64 L1307.46 1455.28 L1299.15 1456.95 L1299.15 1452.69 L1307.41 1451.02 L1312.09 1451.02 L1312.09 1481.64 L1319.72 1481.64 L1319.72 1485.58 L1299.82 1485.58 L1299.82 1481.64 Z" fill="#000000" fill-rule="nonzero" fill-opacity="1" /><path clip-path="url(#clip530)" d="M1339.17 1469.17 Q1335.84 1469.17 1333.91 1470.95 Q1332.02 1472.73 1332.02 1475.86 Q1332.02 1478.98 1333.91 1480.77 Q1335.84 1482.55 1339.17 1482.55 Q1342.5 1482.55 1344.42 1480.77 Q1346.34 1478.96 1346.34 1475.86 Q1346.34 1472.73 1344.42 1470.95 Q1342.52 1469.17 1339.17 1469.17 M1334.49 1467.18 Q1331.48 1466.44 1329.79 1464.38 Q1328.13 1462.32 1328.13 1459.35 Q1328.13 1455.21 1331.07 1452.8 Q1334.03 1450.39 1339.17 1450.39 Q1344.33 1450.39 1347.27 1452.8 Q1350.21 1455.21 1350.21 1459.35 Q1350.21 1462.32 1348.52 1464.38 Q1346.85 1466.44 1343.87 1467.18 Q1347.25 1467.96 1349.12 1470.26 Q1351.02 1472.55 1351.02 1475.86 Q1351.02 1480.88 1347.94 1483.57 Q1344.89 1486.25 1339.17 1486.25 Q1333.45 1486.25 1330.37 1483.57 Q1327.32 1480.88 1327.32 1475.86 Q1327.32 1472.55 1329.21 1470.26 Q1331.11 1467.96 1334.49 1467.18 M1332.78 1459.79 Q1332.78 1462.48 1334.45 1463.98 Q1336.14 1465.49 1339.17 1465.49 Q1342.18 1465.49 1343.87 1463.98 Q1345.58 1462.48 1345.58 1459.79 Q1345.58 1457.11 1343.87 1455.6 Q1342.18 1454.1 1339.17 1454.1 Q1336.14 1454.1 1334.45 1455.6 Q1332.78 1457.11 1332.78 1459.79 Z" fill="#000000" fill-rule="nonzero" fill-opacity="1" /><path clip-path="url(#clip530)" d="M1470.73 1454.1 Q1467.12 1454.1 1465.29 1457.66 Q1463.49 1461.2 1463.49 1468.33 Q1463.49 1475.44 1465.29 1479.01 Q1467.12 1482.55 1470.73 1482.55 Q1474.37 1482.55 1476.17 1479.01 Q1478 1475.44 1478 1468.33 Q1478 1461.2 1476.17 1457.66 Q1474.37 1454.1 1470.73 1454.1 M1470.73 1450.39 Q1476.54 1450.39 1479.6 1455 Q1482.68 1459.58 1482.68 1468.33 Q1482.68 1477.06 1479.6 1481.67 Q1476.54 1486.25 1470.73 1486.25 Q1464.92 1486.25 1461.84 1481.67 Q1458.79 1477.06 1458.79 1468.33 Q1458.79 1459.58 1461.84 1455 Q1464.92 1450.39 1470.73 1450.39 Z" fill="#000000" fill-rule="nonzero" fill-opacity="1" /><path clip-path="url(#clip530)" d="M1490.9 1479.7 L1495.78 1479.7 L1495.78 1485.58 L1490.9 1485.58 L1490.9 1479.7 Z" fill="#000000" fill-rule="nonzero" fill-opacity="1" /><path clip-path="url(#clip530)" d="M1515.96 1454.1 Q1512.35 1454.1 1510.53 1457.66 Q1508.72 1461.2 1508.72 1468.33 Q1508.72 1475.44 1510.53 1479.01 Q1512.35 1482.55 1515.96 1482.55 Q1519.6 1482.55 1521.4 1479.01 Q1523.23 1475.44 1523.23 1468.33 Q1523.23 1461.2 1521.4 1457.66 Q1519.6 1454.1 1515.96 1454.1 M1515.96 1450.39 Q1521.77 1450.39 1524.83 1455 Q1527.91 1459.58 1527.91 1468.33 Q1527.91 1477.06 1524.83 1481.67 Q1521.77 1486.25 1515.96 1486.25 Q1510.15 1486.25 1507.08 1481.67 Q1504.02 1477.06 1504.02 1468.33 Q1504.02 1459.58 1507.08 1455 Q1510.15 1450.39 1515.96 1450.39 Z" fill="#000000" fill-rule="nonzero" fill-opacity="1" /><path clip-path="url(#clip530)" d="M1546.13 1454.1 Q1542.52 1454.1 1540.69 1457.66 Q1538.88 1461.2 1538.88 1468.33 Q1538.88 1475.44 1540.69 1479.01 Q1542.52 1482.55 1546.13 1482.55 Q1549.76 1482.55 1551.57 1479.01 Q1553.4 1475.44 1553.4 1468.33 Q1553.4 1461.2 1551.57 1457.66 Q1549.76 1454.1 1546.13 1454.1 M1546.13 1450.39 Q1551.94 1450.39 1554.99 1455 Q1558.07 1459.58 1558.07 1468.33 Q1558.07 1477.06 1554.99 1481.67 Q1551.94 1486.25 1546.13 1486.25 Q1540.32 1486.25 1537.24 1481.67 Q1534.18 1477.06 1534.18 1468.33 Q1534.18 1459.58 1537.24 1455 Q1540.32 1450.39 1546.13 1450.39 Z" fill="#000000" fill-rule="nonzero" fill-opacity="1" /><path clip-path="url(#clip530)" d="M1570.32 1481.64 L1586.64 1481.64 L1586.64 1485.58 L1564.69 1485.58 L1564.69 1481.64 Q1567.35 1478.89 1571.94 1474.26 Q1576.54 1469.61 1577.72 1468.27 Q1579.97 1465.74 1580.85 1464.01 Q1581.75 1462.25 1581.75 1460.56 Q1581.75 1457.8 1579.81 1456.07 Q1577.89 1454.33 1574.78 1454.33 Q1572.58 1454.33 1570.13 1455.09 Q1567.7 1455.86 1564.92 1457.41 L1564.92 1452.69 Q1567.75 1451.55 1570.2 1450.97 Q1572.65 1450.39 1574.69 1450.39 Q1580.06 1450.39 1583.26 1453.08 Q1586.45 1455.77 1586.45 1460.26 Q1586.45 1462.39 1585.64 1464.31 Q1584.85 1466.2 1582.75 1468.8 Q1582.17 1469.47 1579.07 1472.69 Q1575.96 1475.88 1570.32 1481.64 Z" fill="#000000" fill-rule="nonzero" fill-opacity="1" /><path clip-path="url(#clip530)" d="M1600.48 1481.64 L1616.8 1481.64 L1616.8 1485.58 L1594.85 1485.58 L1594.85 1481.64 Q1597.52 1478.89 1602.1 1474.26 Q1606.71 1469.61 1607.89 1468.27 Q1610.13 1465.74 1611.01 1464.01 Q1611.91 1462.25 1611.91 1460.56 Q1611.91 1457.8 1609.97 1456.07 Q1608.05 1454.33 1604.95 1454.33 Q1602.75 1454.33 1600.29 1455.09 Q1597.86 1455.86 1595.08 1457.41 L1595.08 1452.69 Q1597.91 1451.55 1600.36 1450.97 Q1602.82 1450.39 1604.85 1450.39 Q1610.22 1450.39 1613.42 1453.08 Q1616.61 1455.77 1616.61 1460.26 Q1616.61 1462.39 1615.8 1464.31 Q1615.02 1466.2 1612.91 1468.8 Q1612.33 1469.47 1609.23 1472.69 Q1606.13 1475.88 1600.48 1481.64 Z" fill="#000000" fill-rule="nonzero" fill-opacity="1" /><path clip-path="url(#clip530)" d="M1636.61 1454.1 Q1633 1454.1 1631.17 1457.66 Q1629.37 1461.2 1629.37 1468.33 Q1629.37 1475.44 1631.17 1479.01 Q1633 1482.55 1636.61 1482.55 Q1640.25 1482.55 1642.05 1479.01 Q1643.88 1475.44 1643.88 1468.33 Q1643.88 1461.2 1642.05 1457.66 Q1640.25 1454.1 1636.61 1454.1 M1636.61 1450.39 Q1642.42 1450.39 1645.48 1455 Q1648.56 1459.58 1648.56 1468.33 Q1648.56 1477.06 1645.48 1481.67 Q1642.42 1486.25 1636.61 1486.25 Q1630.8 1486.25 1627.72 1481.67 Q1624.67 1477.06 1624.67 1468.33 Q1624.67 1459.58 1627.72 1455 Q1630.8 1450.39 1636.61 1450.39 Z" fill="#000000" fill-rule="nonzero" fill-opacity="1" /><path clip-path="url(#clip530)" d="M1769.02 1454.1 Q1765.41 1454.1 1763.58 1457.66 Q1761.78 1461.2 1761.78 1468.33 Q1761.78 1475.44 1763.58 1479.01 Q1765.41 1482.55 1769.02 1482.55 Q1772.66 1482.55 1774.46 1479.01 Q1776.29 1475.44 1776.29 1468.33 Q1776.29 1461.2 1774.46 1457.66 Q1772.66 1454.1 1769.02 1454.1 M1769.02 1450.39 Q1774.83 1450.39 1777.89 1455 Q1780.97 1459.58 1780.97 1468.33 Q1780.97 1477.06 1777.89 1481.67 Q1774.83 1486.25 1769.02 1486.25 Q1763.21 1486.25 1760.13 1481.67 Q1757.08 1477.06 1757.08 1468.33 Q1757.08 1459.58 1760.13 1455 Q1763.21 1450.39 1769.02 1450.39 Z" fill="#000000" fill-rule="nonzero" fill-opacity="1" /><path clip-path="url(#clip530)" d="M1789.18 1479.7 L1794.07 1479.7 L1794.07 1485.58 L1789.18 1485.58 L1789.18 1479.7 Z" fill="#000000" fill-rule="nonzero" fill-opacity="1" /><path clip-path="url(#clip530)" d="M1814.25 1454.1 Q1810.64 1454.1 1808.81 1457.66 Q1807.01 1461.2 1807.01 1468.33 Q1807.01 1475.44 1808.81 1479.01 Q1810.64 1482.55 1814.25 1482.55 Q1817.89 1482.55 1819.69 1479.01 Q1821.52 1475.44 1821.52 1468.33 Q1821.52 1461.2 1819.69 1457.66 Q1817.89 1454.1 1814.25 1454.1 M1814.25 1450.39 Q1820.06 1450.39 1823.12 1455 Q1826.2 1459.58 1826.2 1468.33 Q1826.2 1477.06 1823.12 1481.67 Q1820.06 1486.25 1814.25 1486.25 Q1808.44 1486.25 1805.36 1481.67 Q1802.31 1477.06 1802.31 1468.33 Q1802.31 1459.58 1805.36 1455 Q1808.44 1450.39 1814.25 1450.39 Z" fill="#000000" fill-rule="nonzero" fill-opacity="1" /><path clip-path="url(#clip530)" d="M1844.42 1454.1 Q1840.8 1454.1 1838.98 1457.66 Q1837.17 1461.2 1837.17 1468.33 Q1837.17 1475.44 1838.98 1479.01 Q1840.8 1482.55 1844.42 1482.55 Q1848.05 1482.55 1849.86 1479.01 Q1851.68 1475.44 1851.68 1468.33 Q1851.68 1461.2 1849.86 1457.66 Q1848.05 1454.1 1844.42 1454.1 M1844.42 1450.39 Q1850.23 1450.39 1853.28 1455 Q1856.36 1459.58 1856.36 1468.33 Q1856.36 1477.06 1853.28 1481.67 Q1850.23 1486.25 1844.42 1486.25 Q1838.61 1486.25 1835.53 1481.67 Q1832.47 1477.06 1832.47 1468.33 Q1832.47 1459.58 1835.53 1455 Q1838.61 1450.39 1844.42 1450.39 Z" fill="#000000" fill-rule="nonzero" fill-opacity="1" /><path clip-path="url(#clip530)" d="M1868.61 1481.64 L1884.92 1481.64 L1884.92 1485.58 L1862.98 1485.58 L1862.98 1481.64 Q1865.64 1478.89 1870.23 1474.26 Q1874.83 1469.61 1876.01 1468.27 Q1878.26 1465.74 1879.14 1464.01 Q1880.04 1462.25 1880.04 1460.56 Q1880.04 1457.8 1878.1 1456.07 Q1876.17 1454.33 1873.07 1454.33 Q1870.87 1454.33 1868.42 1455.09 Q1865.99 1455.86 1863.21 1457.41 L1863.21 1452.69 Q1866.04 1451.55 1868.49 1450.97 Q1870.94 1450.39 1872.98 1450.39 Q1878.35 1450.39 1881.54 1453.08 Q1884.74 1455.77 1884.74 1460.26 Q1884.74 1462.39 1883.93 1464.31 Q1883.14 1466.2 1881.04 1468.8 Q1880.46 1469.47 1877.36 1472.69 Q1874.25 1475.88 1868.61 1481.64 Z" fill="#000000" fill-rule="nonzero" fill-opacity="1" /><path clip-path="url(#clip530)" d="M1898.77 1481.64 L1915.09 1481.64 L1915.09 1485.58 L1893.14 1485.58 L1893.14 1481.64 Q1895.8 1478.89 1900.39 1474.26 Q1904.99 1469.61 1906.17 1468.27 Q1908.42 1465.74 1909.3 1464.01 Q1910.2 1462.25 1910.2 1460.56 Q1910.2 1457.8 1908.26 1456.07 Q1906.34 1454.33 1903.23 1454.33 Q1901.04 1454.33 1898.58 1455.09 Q1896.15 1455.86 1893.37 1457.41 L1893.37 1452.69 Q1896.2 1451.55 1898.65 1450.97 Q1901.1 1450.39 1903.14 1450.39 Q1908.51 1450.39 1911.71 1453.08 Q1914.9 1455.77 1914.9 1460.26 Q1914.9 1462.39 1914.09 1464.31 Q1913.3 1466.2 1911.2 1468.8 Q1910.62 1469.47 1907.52 1472.69 Q1904.42 1475.88 1898.77 1481.64 Z" fill="#000000" fill-rule="nonzero" fill-opacity="1" /><path clip-path="url(#clip530)" d="M1928.93 1481.64 L1945.25 1481.64 L1945.25 1485.58 L1923.3 1485.58 L1923.3 1481.64 Q1925.97 1478.89 1930.55 1474.26 Q1935.16 1469.61 1936.34 1468.27 Q1938.58 1465.74 1939.46 1464.01 Q1940.36 1462.25 1940.36 1460.56 Q1940.36 1457.8 1938.42 1456.07 Q1936.5 1454.33 1933.4 1454.33 Q1931.2 1454.33 1928.74 1455.09 Q1926.31 1455.86 1923.54 1457.41 L1923.54 1452.69 Q1926.36 1451.55 1928.81 1450.97 Q1931.27 1450.39 1933.3 1450.39 Q1938.67 1450.39 1941.87 1453.08 Q1945.06 1455.77 1945.06 1460.26 Q1945.06 1462.39 1944.25 1464.31 Q1943.47 1466.2 1941.36 1468.8 Q1940.78 1469.47 1937.68 1472.69 Q1934.58 1475.88 1928.93 1481.64 Z" fill="#000000" fill-rule="nonzero" fill-opacity="1" /><path clip-path="url(#clip530)" d="M2065.47 1454.1 Q2061.86 1454.1 2060.03 1457.66 Q2058.23 1461.2 2058.23 1468.33 Q2058.23 1475.44 2060.03 1479.01 Q2061.86 1482.55 2065.47 1482.55 Q2069.11 1482.55 2070.91 1479.01 Q2072.74 1475.44 2072.74 1468.33 Q2072.74 1461.2 2070.91 1457.66 Q2069.11 1454.1 2065.47 1454.1 M2065.47 1450.39 Q2071.28 1450.39 2074.34 1455 Q2077.42 1459.58 2077.42 1468.33 Q2077.42 1477.06 2074.34 1481.67 Q2071.28 1486.25 2065.47 1486.25 Q2059.66 1486.25 2056.58 1481.67 Q2053.53 1477.06 2053.53 1468.33 Q2053.53 1459.58 2056.58 1455 Q2059.66 1450.39 2065.47 1450.39 Z" fill="#000000" fill-rule="nonzero" fill-opacity="1" /><path clip-path="url(#clip530)" d="M2085.63 1479.7 L2090.52 1479.7 L2090.52 1485.58 L2085.63 1485.58 L2085.63 1479.7 Z" fill="#000000" fill-rule="nonzero" fill-opacity="1" /><path clip-path="url(#clip530)" d="M2110.7 1454.1 Q2107.09 1454.1 2105.26 1457.66 Q2103.46 1461.2 2103.46 1468.33 Q2103.46 1475.44 2105.26 1479.01 Q2107.09 1482.55 2110.7 1482.55 Q2114.34 1482.55 2116.14 1479.01 Q2117.97 1475.44 2117.97 1468.33 Q2117.97 1461.2 2116.14 1457.66 Q2114.34 1454.1 2110.7 1454.1 M2110.7 1450.39 Q2116.51 1450.39 2119.57 1455 Q2122.65 1459.58 2122.65 1468.33 Q2122.65 1477.06 2119.57 1481.67 Q2116.51 1486.25 2110.7 1486.25 Q2104.89 1486.25 2101.81 1481.67 Q2098.76 1477.06 2098.76 1468.33 Q2098.76 1459.58 2101.81 1455 Q2104.89 1450.39 2110.7 1450.39 Z" fill="#000000" fill-rule="nonzero" fill-opacity="1" /><path clip-path="url(#clip530)" d="M2140.86 1454.1 Q2137.25 1454.1 2135.42 1457.66 Q2133.62 1461.2 2133.62 1468.33 Q2133.62 1475.44 2135.42 1479.01 Q2137.25 1482.55 2140.86 1482.55 Q2144.5 1482.55 2146.3 1479.01 Q2148.13 1475.44 2148.13 1468.33 Q2148.13 1461.2 2146.3 1457.66 Q2144.5 1454.1 2140.86 1454.1 M2140.86 1450.39 Q2146.67 1450.39 2149.73 1455 Q2152.81 1459.58 2152.81 1468.33 Q2152.81 1477.06 2149.73 1481.67 Q2146.67 1486.25 2140.86 1486.25 Q2135.05 1486.25 2131.98 1481.67 Q2128.92 1477.06 2128.92 1468.33 Q2128.92 1459.58 2131.98 1455 Q2135.05 1450.39 2140.86 1450.39 Z" fill="#000000" fill-rule="nonzero" fill-opacity="1" /><path clip-path="url(#clip530)" d="M2165.05 1481.64 L2181.37 1481.64 L2181.37 1485.58 L2159.43 1485.58 L2159.43 1481.64 Q2162.09 1478.89 2166.67 1474.26 Q2171.28 1469.61 2172.46 1468.27 Q2174.71 1465.74 2175.59 1464.01 Q2176.49 1462.25 2176.49 1460.56 Q2176.49 1457.8 2174.54 1456.07 Q2172.62 1454.33 2169.52 1454.33 Q2167.32 1454.33 2164.87 1455.09 Q2162.44 1455.86 2159.66 1457.41 L2159.66 1452.69 Q2162.48 1451.55 2164.94 1450.97 Q2167.39 1450.39 2169.43 1450.39 Q2174.8 1450.39 2177.99 1453.08 Q2181.19 1455.77 2181.19 1460.26 Q2181.19 1462.39 2180.38 1464.31 Q2179.59 1466.2 2177.48 1468.8 Q2176.91 1469.47 2173.8 1472.69 Q2170.7 1475.88 2165.05 1481.64 Z" fill="#000000" fill-rule="nonzero" fill-opacity="1" /><path clip-path="url(#clip530)" d="M2195.22 1481.64 L2211.53 1481.64 L2211.53 1485.58 L2189.59 1485.58 L2189.59 1481.64 Q2192.25 1478.89 2196.84 1474.26 Q2201.44 1469.61 2202.62 1468.27 Q2204.87 1465.74 2205.75 1464.01 Q2206.65 1462.25 2206.65 1460.56 Q2206.65 1457.8 2204.71 1456.07 Q2202.78 1454.33 2199.68 1454.33 Q2197.48 1454.33 2195.03 1455.09 Q2192.6 1455.86 2189.82 1457.41 L2189.82 1452.69 Q2192.65 1451.55 2195.1 1450.97 Q2197.55 1450.39 2199.59 1450.39 Q2204.96 1450.39 2208.16 1453.08 Q2211.35 1455.77 2211.35 1460.26 Q2211.35 1462.39 2210.54 1464.31 Q2209.75 1466.2 2207.65 1468.8 Q2207.07 1469.47 2203.97 1472.69 Q2200.86 1475.88 2195.22 1481.64 Z" fill="#000000" fill-rule="nonzero" fill-opacity="1" /><path clip-path="url(#clip530)" d="M2234.2 1455.09 L2222.39 1473.54 L2234.2 1473.54 L2234.2 1455.09 M2232.97 1451.02 L2238.85 1451.02 L2238.85 1473.54 L2243.78 1473.54 L2243.78 1477.43 L2238.85 1477.43 L2238.85 1485.58 L2234.2 1485.58 L2234.2 1477.43 L2218.6 1477.43 L2218.6 1472.92 L2232.97 1451.02 Z" fill="#000000" fill-rule="nonzero" fill-opacity="1" /><path clip-path="url(#clip530)" d="M1291.88 1565.85 L1291.88 1581.6 L1285.99 1581.6 L1285.99 1532.62 Q1285.99 1518.1 1299.55 1518.1 Q1313.36 1518.1 1313.36 1530.36 Q1313.36 1539.08 1307.89 1542.26 Q1316.8 1545.13 1316.8 1553.63 Q1316.8 1568.71 1301.46 1568.71 Q1294.71 1568.71 1291.88 1565.85 M1291.88 1558.21 Q1295.41 1563.72 1301.68 1563.72 Q1310.85 1563.72 1310.85 1553.72 Q1310.85 1544.75 1296.08 1545.45 L1296.08 1540.03 Q1307.63 1540.03 1307.63 1529.85 Q1307.63 1522.88 1300.18 1522.88 Q1291.88 1522.88 1291.88 1532.81 L1291.88 1558.21 Z" fill="#000000" fill-rule="nonzero" fill-opacity="1" /><polyline clip-path="url(#clip530)" style="stroke:#000000; stroke-linecap:round; stroke-linejoin:round; stroke-width:4; stroke-opacity:1; fill:none" points="250.028,1423.18 250.028,47.2441 "/>
<polyline clip-path="url(#clip530)" style="stroke:#000000; stroke-linecap:round; stroke-linejoin:round; stroke-width:4; stroke-opacity:1; fill:none" points="250.028,1334.12 268.926,1334.12 "/>
<polyline clip-path="url(#clip530)" style="stroke:#000000; stroke-linecap:round; stroke-linejoin:round; stroke-width:4; stroke-opacity:1; fill:none" points="250.028,1127.37 268.926,1127.37 "/>
<polyline clip-path="url(#clip530)" style="stroke:#000000; stroke-linecap:round; stroke-linejoin:round; stroke-width:4; stroke-opacity:1; fill:none" points="250.028,920.622 268.926,920.622 "/>
<polyline clip-path="url(#clip530)" style="stroke:#000000; stroke-linecap:round; stroke-linejoin:round; stroke-width:4; stroke-opacity:1; fill:none" points="250.028,713.872 268.926,713.872 "/>
<polyline clip-path="url(#clip530)" style="stroke:#000000; stroke-linecap:round; stroke-linejoin:round; stroke-width:4; stroke-opacity:1; fill:none" points="250.028,507.123 268.926,507.123 "/>
<polyline clip-path="url(#clip530)" style="stroke:#000000; stroke-linecap:round; stroke-linejoin:round; stroke-width:4; stroke-opacity:1; fill:none" points="250.028,300.374 268.926,300.374 "/>
<polyline clip-path="url(#clip530)" style="stroke:#000000; stroke-linecap:round; stroke-linejoin:round; stroke-width:4; stroke-opacity:1; fill:none" points="250.028,93.6244 268.926,93.6244 "/>
<path clip-path="url(#clip530)" d="M128.288 1319.92 Q124.677 1319.92 122.848 1323.48 Q121.043 1327.03 121.043 1334.16 Q121.043 1341.26 122.848 1344.83 Q124.677 1348.37 128.288 1348.37 Q131.922 1348.37 133.728 1344.83 Q135.556 1341.26 135.556 1334.16 Q135.556 1327.03 133.728 1323.48 Q131.922 1319.92 128.288 1319.92 M128.288 1316.22 Q134.098 1316.22 137.154 1320.82 Q140.232 1325.41 140.232 1334.16 Q140.232 1342.88 137.154 1347.49 Q134.098 1352.07 128.288 1352.07 Q122.478 1352.07 119.399 1347.49 Q116.343 1342.88 116.343 1334.16 Q116.343 1325.41 119.399 1320.82 Q122.478 1316.22 128.288 1316.22 Z" fill="#000000" fill-rule="nonzero" fill-opacity="1" /><path clip-path="url(#clip530)" d="M148.45 1345.52 L153.334 1345.52 L153.334 1351.4 L148.45 1351.4 L148.45 1345.52 Z" fill="#000000" fill-rule="nonzero" fill-opacity="1" /><path clip-path="url(#clip530)" d="M176.366 1320.91 L164.561 1339.36 L176.366 1339.36 L176.366 1320.91 M175.139 1316.84 L181.019 1316.84 L181.019 1339.36 L185.95 1339.36 L185.95 1343.25 L181.019 1343.25 L181.019 1351.4 L176.366 1351.4 L176.366 1343.25 L160.765 1343.25 L160.765 1338.74 L175.139 1316.84 Z" fill="#000000" fill-rule="nonzero" fill-opacity="1" /><path clip-path="url(#clip530)" d="M197.709 1347.47 L214.028 1347.47 L214.028 1351.4 L192.084 1351.4 L192.084 1347.47 Q194.746 1344.71 199.329 1340.08 Q203.936 1335.43 205.116 1334.09 Q207.362 1331.56 208.241 1329.83 Q209.144 1328.07 209.144 1326.38 Q209.144 1323.62 207.199 1321.89 Q205.278 1320.15 202.176 1320.15 Q199.977 1320.15 197.524 1320.91 Q195.093 1321.68 192.315 1323.23 L192.315 1318.51 Q195.139 1317.37 197.593 1316.79 Q200.047 1316.22 202.084 1316.22 Q207.454 1316.22 210.649 1318.9 Q213.843 1321.59 213.843 1326.08 Q213.843 1328.21 213.033 1330.13 Q212.246 1332.03 210.139 1334.62 Q209.561 1335.29 206.459 1338.51 Q203.357 1341.7 197.709 1347.47 Z" fill="#000000" fill-rule="nonzero" fill-opacity="1" /><path clip-path="url(#clip530)" d="M127.339 1113.17 Q123.728 1113.17 121.899 1116.73 Q120.093 1120.28 120.093 1127.41 Q120.093 1134.51 121.899 1138.08 Q123.728 1141.62 127.339 1141.62 Q130.973 1141.62 132.779 1138.08 Q134.607 1134.51 134.607 1127.41 Q134.607 1120.28 132.779 1116.73 Q130.973 1113.17 127.339 1113.17 M127.339 1109.47 Q133.149 1109.47 136.204 1114.07 Q139.283 1118.66 139.283 1127.41 Q139.283 1136.13 136.204 1140.74 Q133.149 1145.32 127.339 1145.32 Q121.529 1145.32 118.45 1140.74 Q115.394 1136.13 115.394 1127.41 Q115.394 1118.66 118.45 1114.07 Q121.529 1109.47 127.339 1109.47 Z" fill="#000000" fill-rule="nonzero" fill-opacity="1" /><path clip-path="url(#clip530)" d="M147.501 1138.77 L152.385 1138.77 L152.385 1144.65 L147.501 1144.65 L147.501 1138.77 Z" fill="#000000" fill-rule="nonzero" fill-opacity="1" /><path clip-path="url(#clip530)" d="M175.417 1114.17 L163.612 1132.61 L175.417 1132.61 L175.417 1114.17 M174.19 1110.09 L180.07 1110.09 L180.07 1132.61 L185.001 1132.61 L185.001 1136.5 L180.07 1136.5 L180.07 1144.65 L175.417 1144.65 L175.417 1136.5 L159.815 1136.5 L159.815 1131.99 L174.19 1110.09 Z" fill="#000000" fill-rule="nonzero" fill-opacity="1" /><path clip-path="url(#clip530)" d="M206.899 1126.02 Q210.255 1126.73 212.13 1129 Q214.028 1131.27 214.028 1134.6 Q214.028 1139.72 210.51 1142.52 Q206.991 1145.32 200.51 1145.32 Q198.334 1145.32 196.019 1144.88 Q193.727 1144.47 191.274 1143.61 L191.274 1139.1 Q193.218 1140.23 195.533 1140.81 Q197.848 1141.39 200.371 1141.39 Q204.769 1141.39 207.061 1139.65 Q209.375 1137.92 209.375 1134.6 Q209.375 1131.55 207.223 1129.84 Q205.093 1128.1 201.274 1128.1 L197.246 1128.1 L197.246 1124.26 L201.459 1124.26 Q204.908 1124.26 206.737 1122.89 Q208.565 1121.5 208.565 1118.91 Q208.565 1116.25 206.667 1114.84 Q204.792 1113.4 201.274 1113.4 Q199.352 1113.4 197.153 1113.82 Q194.954 1114.23 192.315 1115.11 L192.315 1110.95 Q194.977 1110.21 197.292 1109.84 Q199.63 1109.47 201.69 1109.47 Q207.014 1109.47 210.116 1111.9 Q213.218 1114.3 213.218 1118.42 Q213.218 1121.29 211.574 1123.29 Q209.931 1125.25 206.899 1126.02 Z" fill="#000000" fill-rule="nonzero" fill-opacity="1" /><path clip-path="url(#clip530)" d="M126.205 906.42 Q122.593 906.42 120.765 909.985 Q118.959 913.527 118.959 920.656 Q118.959 927.763 120.765 931.328 Q122.593 934.869 126.205 934.869 Q129.839 934.869 131.644 931.328 Q133.473 927.763 133.473 920.656 Q133.473 913.527 131.644 909.985 Q129.839 906.42 126.205 906.42 M126.205 902.717 Q132.015 902.717 135.07 907.323 Q138.149 911.907 138.149 920.656 Q138.149 929.383 135.07 933.99 Q132.015 938.573 126.205 938.573 Q120.394 938.573 117.316 933.99 Q114.26 929.383 114.26 920.656 Q114.26 911.907 117.316 907.323 Q120.394 902.717 126.205 902.717 Z" fill="#000000" fill-rule="nonzero" fill-opacity="1" /><path clip-path="url(#clip530)" d="M146.366 932.022 L151.251 932.022 L151.251 937.902 L146.366 937.902 L146.366 932.022 Z" fill="#000000" fill-rule="nonzero" fill-opacity="1" /><path clip-path="url(#clip530)" d="M174.283 907.416 L162.477 925.865 L174.283 925.865 L174.283 907.416 M173.056 903.342 L178.936 903.342 L178.936 925.865 L183.866 925.865 L183.866 929.754 L178.936 929.754 L178.936 937.902 L174.283 937.902 L174.283 929.754 L158.681 929.754 L158.681 925.24 L173.056 903.342 Z" fill="#000000" fill-rule="nonzero" fill-opacity="1" /><path clip-path="url(#clip530)" d="M204.445 907.416 L192.639 925.865 L204.445 925.865 L204.445 907.416 M203.218 903.342 L209.098 903.342 L209.098 925.865 L214.028 925.865 L214.028 929.754 L209.098 929.754 L209.098 937.902 L204.445 937.902 L204.445 929.754 L188.843 929.754 L188.843 925.24 L203.218 903.342 Z" fill="#000000" fill-rule="nonzero" fill-opacity="1" /><path clip-path="url(#clip530)" d="M127.686 699.671 Q124.075 699.671 122.246 703.236 Q120.441 706.778 120.441 713.907 Q120.441 721.014 122.246 724.578 Q124.075 728.12 127.686 728.12 Q131.32 728.12 133.126 724.578 Q134.954 721.014 134.954 713.907 Q134.954 706.778 133.126 703.236 Q131.32 699.671 127.686 699.671 M127.686 695.967 Q133.496 695.967 136.552 700.574 Q139.63 705.157 139.63 713.907 Q139.63 722.634 136.552 727.24 Q133.496 731.824 127.686 731.824 Q121.876 731.824 118.797 727.24 Q115.742 722.634 115.742 713.907 Q115.742 705.157 118.797 700.574 Q121.876 695.967 127.686 695.967 Z" fill="#000000" fill-rule="nonzero" fill-opacity="1" /><path clip-path="url(#clip530)" d="M147.848 725.273 L152.732 725.273 L152.732 731.152 L147.848 731.152 L147.848 725.273 Z" fill="#000000" fill-rule="nonzero" fill-opacity="1" /><path clip-path="url(#clip530)" d="M175.764 700.666 L163.959 719.115 L175.764 719.115 L175.764 700.666 M174.538 696.592 L180.417 696.592 L180.417 719.115 L185.348 719.115 L185.348 723.004 L180.417 723.004 L180.417 731.152 L175.764 731.152 L175.764 723.004 L160.163 723.004 L160.163 718.49 L174.538 696.592 Z" fill="#000000" fill-rule="nonzero" fill-opacity="1" /><path clip-path="url(#clip530)" d="M193.125 696.592 L211.482 696.592 L211.482 700.528 L197.408 700.528 L197.408 709 Q198.426 708.653 199.445 708.49 Q200.463 708.305 201.482 708.305 Q207.269 708.305 210.649 711.477 Q214.028 714.648 214.028 720.065 Q214.028 725.643 210.556 728.745 Q207.084 731.824 200.764 731.824 Q198.588 731.824 196.32 731.453 Q194.075 731.083 191.667 730.342 L191.667 725.643 Q193.75 726.777 195.973 727.333 Q198.195 727.889 200.672 727.889 Q204.676 727.889 207.014 725.782 Q209.352 723.676 209.352 720.065 Q209.352 716.453 207.014 714.347 Q204.676 712.24 200.672 712.24 Q198.797 712.24 196.922 712.657 Q195.07 713.074 193.125 713.953 L193.125 696.592 Z" fill="#000000" fill-rule="nonzero" fill-opacity="1" /><path clip-path="url(#clip530)" d="M126.529 492.922 Q122.918 492.922 121.089 496.487 Q119.283 500.028 119.283 507.158 Q119.283 514.264 121.089 517.829 Q122.918 521.371 126.529 521.371 Q130.163 521.371 131.968 517.829 Q133.797 514.264 133.797 507.158 Q133.797 500.028 131.968 496.487 Q130.163 492.922 126.529 492.922 M126.529 489.218 Q132.339 489.218 135.394 493.825 Q138.473 498.408 138.473 507.158 Q138.473 515.885 135.394 520.491 Q132.339 525.074 126.529 525.074 Q120.718 525.074 117.64 520.491 Q114.584 515.885 114.584 507.158 Q114.584 498.408 117.64 493.825 Q120.718 489.218 126.529 489.218 Z" fill="#000000" fill-rule="nonzero" fill-opacity="1" /><path clip-path="url(#clip530)" d="M146.691 518.523 L151.575 518.523 L151.575 524.403 L146.691 524.403 L146.691 518.523 Z" fill="#000000" fill-rule="nonzero" fill-opacity="1" /><path clip-path="url(#clip530)" d="M174.607 493.917 L162.802 512.366 L174.607 512.366 L174.607 493.917 M173.38 489.843 L179.26 489.843 L179.26 512.366 L184.19 512.366 L184.19 516.255 L179.26 516.255 L179.26 524.403 L174.607 524.403 L174.607 516.255 L159.005 516.255 L159.005 511.741 L173.38 489.843 Z" fill="#000000" fill-rule="nonzero" fill-opacity="1" /><path clip-path="url(#clip530)" d="M202.5 505.26 Q199.352 505.26 197.5 507.412 Q195.672 509.565 195.672 513.315 Q195.672 517.042 197.5 519.218 Q199.352 521.371 202.5 521.371 Q205.649 521.371 207.477 519.218 Q209.329 517.042 209.329 513.315 Q209.329 509.565 207.477 507.412 Q205.649 505.26 202.5 505.26 M211.783 490.607 L211.783 494.866 Q210.024 494.033 208.218 493.593 Q206.436 493.153 204.676 493.153 Q200.047 493.153 197.593 496.278 Q195.163 499.403 194.815 505.723 Q196.181 503.709 198.241 502.644 Q200.301 501.556 202.778 501.556 Q207.987 501.556 210.996 504.727 Q214.028 507.875 214.028 513.315 Q214.028 518.639 210.88 521.857 Q207.732 525.074 202.5 525.074 Q196.505 525.074 193.334 520.491 Q190.163 515.885 190.163 507.158 Q190.163 498.963 194.051 494.102 Q197.94 489.218 204.491 489.218 Q206.25 489.218 208.033 489.565 Q209.838 489.913 211.783 490.607 Z" fill="#000000" fill-rule="nonzero" fill-opacity="1" /><path clip-path="url(#clip530)" d="M127.593 286.172 Q123.982 286.172 122.154 289.737 Q120.348 293.279 120.348 300.408 Q120.348 307.515 122.154 311.08 Q123.982 314.621 127.593 314.621 Q131.228 314.621 133.033 311.08 Q134.862 307.515 134.862 300.408 Q134.862 293.279 133.033 289.737 Q131.228 286.172 127.593 286.172 M127.593 282.469 Q133.404 282.469 136.459 287.075 Q139.538 291.658 139.538 300.408 Q139.538 309.135 136.459 313.742 Q133.404 318.325 127.593 318.325 Q121.783 318.325 118.705 313.742 Q115.649 309.135 115.649 300.408 Q115.649 291.658 118.705 287.075 Q121.783 282.469 127.593 282.469 Z" fill="#000000" fill-rule="nonzero" fill-opacity="1" /><path clip-path="url(#clip530)" d="M147.755 311.774 L152.64 311.774 L152.64 317.654 L147.755 317.654 L147.755 311.774 Z" fill="#000000" fill-rule="nonzero" fill-opacity="1" /><path clip-path="url(#clip530)" d="M175.672 287.168 L163.866 305.617 L175.672 305.617 L175.672 287.168 M174.445 283.094 L180.325 283.094 L180.325 305.617 L185.255 305.617 L185.255 309.506 L180.325 309.506 L180.325 317.654 L175.672 317.654 L175.672 309.506 L160.07 309.506 L160.07 304.992 L174.445 283.094 Z" fill="#000000" fill-rule="nonzero" fill-opacity="1" /><path clip-path="url(#clip530)" d="M191.806 283.094 L214.028 283.094 L214.028 285.084 L201.482 317.654 L196.598 317.654 L208.403 287.029 L191.806 287.029 L191.806 283.094 Z" fill="#000000" fill-rule="nonzero" fill-opacity="1" /><path clip-path="url(#clip530)" d="M126.783 79.4231 Q123.172 79.4231 121.343 82.9879 Q119.538 86.5295 119.538 93.6591 Q119.538 100.766 121.343 104.33 Q123.172 107.872 126.783 107.872 Q130.417 107.872 132.223 104.33 Q134.052 100.766 134.052 93.6591 Q134.052 86.5295 132.223 82.9879 Q130.417 79.4231 126.783 79.4231 M126.783 75.7194 Q132.593 75.7194 135.649 80.3258 Q138.728 84.9091 138.728 93.6591 Q138.728 102.386 135.649 106.992 Q132.593 111.576 126.783 111.576 Q120.973 111.576 117.894 106.992 Q114.839 102.386 114.839 93.6591 Q114.839 84.9091 117.894 80.3258 Q120.973 75.7194 126.783 75.7194 Z" fill="#000000" fill-rule="nonzero" fill-opacity="1" /><path clip-path="url(#clip530)" d="M146.945 105.025 L151.829 105.025 L151.829 110.904 L146.945 110.904 L146.945 105.025 Z" fill="#000000" fill-rule="nonzero" fill-opacity="1" /><path clip-path="url(#clip530)" d="M174.862 80.4184 L163.056 98.8674 L174.862 98.8674 L174.862 80.4184 M173.635 76.3444 L179.514 76.3444 L179.514 98.8674 L184.445 98.8674 L184.445 102.756 L179.514 102.756 L179.514 110.904 L174.862 110.904 L174.862 102.756 L159.26 102.756 L159.26 98.2424 L173.635 76.3444 Z" fill="#000000" fill-rule="nonzero" fill-opacity="1" /><path clip-path="url(#clip530)" d="M202.176 94.4924 Q198.843 94.4924 196.922 96.2748 Q195.024 98.0572 195.024 101.182 Q195.024 104.307 196.922 106.09 Q198.843 107.872 202.176 107.872 Q205.51 107.872 207.431 106.09 Q209.352 104.284 209.352 101.182 Q209.352 98.0572 207.431 96.2748 Q205.533 94.4924 202.176 94.4924 M197.5 92.5017 Q194.491 91.761 192.801 89.7008 Q191.135 87.6406 191.135 84.6777 Q191.135 80.5342 194.075 78.1268 Q197.037 75.7194 202.176 75.7194 Q207.338 75.7194 210.278 78.1268 Q213.218 80.5342 213.218 84.6777 Q213.218 87.6406 211.528 89.7008 Q209.861 91.761 206.875 92.5017 Q210.255 93.2887 212.13 95.5804 Q214.028 97.872 214.028 101.182 Q214.028 106.205 210.949 108.89 Q207.894 111.576 202.176 111.576 Q196.459 111.576 193.38 108.89 Q190.325 106.205 190.325 101.182 Q190.325 97.872 192.223 95.5804 Q194.121 93.2887 197.5 92.5017 M195.787 85.1175 Q195.787 87.8026 197.454 89.3073 Q199.144 90.8119 202.176 90.8119 Q205.186 90.8119 206.875 89.3073 Q208.588 87.8026 208.588 85.1175 Q208.588 82.4323 206.875 80.9277 Q205.186 79.4231 202.176 79.4231 Q199.144 79.4231 197.454 80.9277 Q195.787 82.4323 195.787 85.1175 Z" fill="#000000" fill-rule="nonzero" fill-opacity="1" /><path clip-path="url(#clip530)" d="M33.958 742.548 L55.9834 734.75 L28.3562 723.61 L28.3562 717.404 L64.0042 731.822 L77.5631 731.822 L77.5631 737.679 L64.0042 737.679 L37.3955 747.036 Q33.3851 748.437 33.3851 751.46 L33.3851 753.02 L28.3562 753.02 L28.3562 750.792 Q28.3562 744.522 33.958 742.548 Z" fill="#000000" fill-rule="nonzero" fill-opacity="1" /><circle clip-path="url(#clip531)" cx="1282.04" cy="768.62" r="7.2" fill="#009af9" fill-rule="evenodd" fill-opacity="1" stroke="#000000" stroke-opacity="1" stroke-width="3.2"/>
<polyline clip-path="url(#clip531)" style="stroke:#e26f46; stroke-linecap:round; stroke-linejoin:round; stroke-width:4; stroke-opacity:1; fill:none" points="1845.75,768.62 1846.66,767.069 1847.56,765.517 1848.45,763.966 1849.34,762.414 1850.22,760.862 1851.08,759.311 1851.94,757.759 1852.79,756.208 1853.63,754.656 1854.47,753.105 1855.29,751.553 1856.11,750.002 1856.92,748.45 1857.71,746.899 1858.51,745.347 1859.29,743.796 1860.06,742.244 1860.82,740.693 1861.58,739.141 1862.33,737.59 1863.07,736.038 1863.8,734.487 1864.52,732.935 1865.23,731.384 1865.93,729.832 1866.63,728.281 1867.32,726.729 1867.99,725.178 1868.66,723.626 1869.33,722.075 1869.98,720.523 1870.62,718.972 1871.26,717.42 1871.88,715.869 1872.5,714.317 1873.11,712.766 1873.71,711.214 1874.3,709.663 1874.88,708.111 1875.46,706.56 1876.02,705.008 1876.58,703.457 1877.13,701.905 1877.67,700.354 1878.2,698.802 1878.72,697.251 1879.23,695.699 1879.74,694.148 1880.23,692.596 1880.72,691.045 1881.2,689.493 1881.67,687.942 1882.13,686.39 1882.58,684.839 1883.02,683.287 1883.45,681.735 1883.87,680.184 1884.29,678.632 1884.7,677.081 1885.09,675.529 1885.48,673.978 1885.86,672.426 1886.23,670.875 1886.59,669.323 1886.94,667.772 1887.28,666.22 1887.62,664.669 1887.94,663.117 1888.26,661.566 1888.56,660.014 1888.86,658.463 1889.15,656.911 1889.42,655.36 1889.69,653.808 1889.95,652.257 1890.2,650.705 1890.44,649.154 1890.67,647.602 1890.89,646.051 1891.1,644.499 1891.31,642.948 1891.5,641.396 1891.68,639.845 1891.86,638.293 1892.02,636.742 1892.17,635.19 1892.32,633.639 1892.45,632.087 1892.58,630.536 1892.69,628.984 1892.8,627.433 1892.89,625.881 1892.98,624.33 1893.05,622.778 1893.12,621.227 1893.17,619.675 1893.22,618.124 1893.25,616.572 1893.27,615.021 1893.29,613.469 1893.29,611.918 1893.28,610.366 1893.27,608.815 1893.24,607.263 1893.2,605.712 1893.15,604.16 1893.09,602.608 1893.02,601.057 1892.94,599.505 1892.85,597.954 1892.74,596.402 1892.63,594.851 1892.51,593.299 1892.37,591.748 1892.22,590.196 1892.06,588.645 1891.89,587.093 1891.71,585.542 1891.52,583.99 1891.32,582.439 1891.1,580.887 1890.87,579.336 1890.64,577.784 1890.39,576.233 1890.12,574.681 1889.85,573.13 1889.56,571.578 1889.26,570.027 1888.95,568.475 1888.63,566.924 1888.3,565.372 1887.95,563.821 1887.59,562.269 1887.22,560.718 1886.83,559.166 1886.43,557.615 1886.02,556.063 1885.6,554.512 1885.16,552.96 1884.71,551.409 1884.25,549.857 1883.77,548.306 1883.28,546.754 1882.78,545.203 1882.26,543.651 1881.73,542.1 1881.19,540.548 1880.63,538.997 1880.05,537.445 1879.46,535.894 1878.86,534.342 1878.24,532.791 1877.61,531.239 1876.96,529.688 1876.3,528.136 1875.62,526.585 1874.93,525.033 1874.22,523.481 1873.5,521.93 1872.75,520.378 1872,518.827 1871.22,517.275 1870.43,515.724 1869.63,514.172 1868.81,512.621 1867.97,511.069 1867.11,509.518 1866.23,507.966 1865.34,506.415 1864.43,504.863 1863.5,503.312 1862.55,501.76 1861.59,500.209 1860.6,498.657 1859.6,497.106 1858.57,495.554 1857.53,494.003 1856.46,492.451 1855.38,490.9 1854.28,489.348 1853.15,487.797 1852.01,486.245 1850.84,484.694 1849.66,483.142 1848.45,481.591 1847.22,480.039 1845.97,478.488 1844.69,476.936 1843.4,475.385 1842.07,473.833 1840.73,472.282 1839.36,470.73 1837.97,469.179 1836.55,467.627 1835.1,466.076 1833.63,464.524 1832.13,462.973 1830.61,461.421 1829.05,459.87 1827.47,458.318 1825.86,456.767 1824.21,455.215 1822.54,453.664 1820.84,452.112 1819.1,450.561 1817.33,449.009 1815.52,447.458 1813.68,445.906 1811.81,444.355 1809.9,442.803 1807.95,441.252 1805.96,439.7 1803.93,438.148 1801.87,436.597 1799.76,435.045 1797.61,433.494 1795.42,431.942 1793.18,430.391 1790.9,428.839 1788.57,427.288 1786.2,425.736 1783.77,424.185 1781.3,422.633 1778.76,421.082 1776.18,419.53 1773.53,417.979 1770.83,416.427 1768.06,414.876 1765.23,413.324 1762.34,411.773 1759.37,410.221 1756.33,408.67 1753.21,407.118 1750.01,405.567 1746.73,404.015 1743.35,402.464 1739.88,400.912 1736.32,399.361 1732.64,397.809 1728.86,396.258 1724.96,394.706 1720.94,393.155 1716.78,391.603 1712.48,390.052 1708.02,388.5 1703.39,386.949 1698.58,385.397 1693.57,383.846 1688.34,382.294 1682.86,380.743 1677.09,379.191 1671.02,377.64 1664.63,376.088 1657.86,374.537 1650.63,372.985 1642.82,371.434 1634.28,369.883 1624.84,368.331 1614.26,366.78 1602.06,365.228 1587.22,363.677 1567.07,362.126 1504.96,361.02 1470.66,362.57 1450.76,364.122 1435.04,365.673 1421.57,367.224 1409.58,368.776 1398.66,370.327 1388.54,371.879 1379.08,373.43 1370.15,374.982 1361.67,376.533 1353.58,378.084 1345.82,379.636 1338.36,381.187 1331.16,382.739 1324.2,384.29 1317.45,385.842 1310.89,387.393 1304.52,388.945 1298.31,390.496 1292.25,392.048 1286.33,393.599 1280.54,395.151 1274.88,396.702 1269.34,398.254 1263.9,399.805 1258.56,401.357 1253.32,402.908 1248.18,404.46 1243.12,406.011 1238.15,407.563 1233.25,409.114 1228.43,410.666 1223.69,412.217 1219.01,413.769 1214.4,415.32 1209.85,416.872 1205.37,418.423 1200.94,419.975 1196.57,421.526 1192.26,423.078 1188,424.629 1183.79,426.181 1179.64,427.732 1175.53,429.284 1171.46,430.835 1167.44,432.387 1163.47,433.938 1159.54,435.49 1155.65,437.041 1151.8,438.593 1147.99,440.144 1144.22,441.696 1140.48,443.247 1136.79,444.799 1133.13,446.35 1129.5,447.902 1125.9,449.453 1122.34,451.005 1118.82,452.556 1115.32,454.108 1111.85,455.659 1108.42,457.211 1105.01,458.762 1101.64,460.314 1098.29,461.865 1094.97,463.417 1091.68,464.968 1088.41,466.52 1085.17,468.071 1081.96,469.623 1078.77,471.174 1075.61,472.726 1072.47,474.277 1069.35,475.829 1066.26,477.38 1063.19,478.932 1060.15,480.483 1057.13,482.035 1054.13,483.586 1051.15,485.138 1048.19,486.689 1045.26,488.241 1042.34,489.792 1039.45,491.344 1036.57,492.895 1033.72,494.447 1030.89,495.998 1028.07,497.55 1025.28,499.101 1022.5,500.653 1019.74,502.204 1017.01,503.756 1014.28,505.307 1011.58,506.859 1008.9,508.41 1006.23,509.962 1003.58,511.513 1000.95,513.065 998.33,514.616 995.731,516.168 993.149,517.719 990.582,519.271 988.032,520.822 985.498,522.374 982.98,523.925 980.477,525.477 977.99,527.028 975.519,528.58 973.062,530.131 970.621,531.683 968.195,533.234 965.783,534.786 963.386,536.337 961.004,537.889 958.635,539.44 956.282,540.992 953.942,542.543 951.616,544.095 949.304,545.646 947.006,547.198 944.721,548.749 942.45,550.301 940.192,551.852 937.948,553.404 935.716,554.956 933.498,556.507 931.293,558.059 929.1,559.61 926.921,561.162 924.754,562.713 922.599,564.265 920.457,565.816 918.328,567.368 916.211,568.919 914.106,570.471 912.013,572.022 909.932,573.574 907.863,575.125 905.806,576.677 903.761,578.228 901.727,579.78 899.705,581.331 897.695,582.883 895.696,584.434 893.709,585.986 891.733,587.537 889.769,589.089 887.815,590.64 885.873,592.192 883.942,593.743 882.022,595.295 880.113,596.846 878.215,598.398 876.327,599.949 874.451,601.501 872.585,603.052 870.73,604.604 868.885,606.155 867.051,607.707 865.228,609.258 863.415,610.81 861.613,612.361 859.821,613.913 858.039,615.464 856.267,617.016 854.506,618.567 852.755,620.119 851.014,621.67 849.283,623.222 847.562,624.773 845.852,626.325 844.151,627.876 842.46,629.428 840.779,630.979 839.108,632.531 837.446,634.082 835.795,635.634 834.153,637.185 832.521,638.737 830.898,640.288 829.286,641.84 827.682,643.391 826.089,644.943 824.505,646.494 822.93,648.046 821.365,649.597 819.809,651.149 818.263,652.7 816.726,654.252 815.198,655.804 813.68,657.355 812.171,658.907 810.672,660.458 809.181,662.01 807.7,663.561 806.228,665.113 804.765,666.664 803.311,668.216 801.867,669.767 800.431,671.319 799.005,672.87 797.588,674.422 796.179,675.973 794.78,677.525 793.39,679.076 792.008,680.628 790.636,682.179 789.273,683.731 787.918,685.282 786.572,686.834 785.236,688.385 783.908,689.937 782.589,691.488 781.279,693.04 779.977,694.591 778.685,696.143 777.401,697.694 776.126,699.246 774.86,700.797 773.603,702.349 772.354,703.9 771.114,705.452 769.883,707.003 768.66,708.555 767.447,710.106 766.242,711.658 765.045,713.209 763.857,714.761 762.678,716.312 761.508,717.864 760.346,719.415 759.193,720.967 758.049,722.518 756.913,724.07 755.786,725.621 754.667,727.173 753.557,728.724 752.456,730.276 751.363,731.827 750.279,733.379 749.203,734.93 748.136,736.482 747.078,738.033 746.028,739.585 744.987,741.137 743.954,742.688 742.93,744.24 741.914,745.791 740.907,747.343 739.909,748.894 738.919,750.446 737.938,751.997 736.965,753.549 736.001,755.1 735.046,756.652 734.099,758.203 733.161,759.755 732.231,761.306 731.31,762.858 730.398,764.409 729.494,765.961 728.599,767.512 727.712,769.064 726.834,770.615 725.965,772.167 725.104,773.718 724.252,775.27 723.408,776.821 722.574,778.373 721.748,779.924 720.93,781.476 720.122,783.027 719.321,784.579 718.53,786.13 717.748,787.682 716.974,789.233 716.209,790.785 715.452,792.336 714.705,793.888 713.966,795.439 713.236,796.991 712.514,798.542 711.802,800.094 711.098,801.645 710.403,803.197 709.717,804.748 709.04,806.3 708.372,807.851 707.712,809.403 707.062,810.954 706.42,812.506 705.788,814.057 705.164,815.609 704.549,817.16 703.944,818.712 703.347,820.263 702.76,821.815 702.181,823.367 701.612,824.918 701.051,826.47 700.5,828.021 699.958,829.573 699.425,831.124 698.901,832.676 698.387,834.227 697.882,835.779 697.386,837.33 696.899,838.882 696.422,840.433 695.954,841.985 695.495,843.536 695.046,845.088 694.606,846.639 694.176,848.191 693.755,849.742 693.344,851.294 692.942,852.845 692.55,854.397 692.168,855.948 691.795,857.5 691.432,859.051 691.079,860.603 690.735,862.154 690.402,863.706 690.078,865.257 689.764,866.809 689.459,868.36 689.165,869.912 688.881,871.463 688.607,873.015 688.343,874.566 688.089,876.118 687.845,877.669 687.611,879.221 687.388,880.772 687.175,882.324 686.972,883.875 686.779,885.427 686.597,886.978 686.426,888.53 686.265,890.081 686.115,891.633 685.975,893.184 685.847,894.736 685.729,896.287 685.622,897.839 685.525,899.39 685.44,900.942 685.366,902.494 685.302,904.045 685.25,905.597 685.209,907.148 685.178,908.7 685.159,910.251 685.152,911.803 685.155,913.354 685.17,914.906 685.196,916.457 685.234,918.009 685.283,919.56 685.344,921.112 685.417,922.663 685.501,924.215 685.597,925.766 685.705,927.318 685.825,928.869 685.957,930.421 686.102,931.972 686.258,933.524 686.427,935.075 686.608,936.627 686.802,938.178 687.008,939.73 687.227,941.281 687.459,942.833 687.704,944.384 687.961,945.936 688.232,947.487 688.516,949.039 688.814,950.59 689.125,952.142 689.449,953.693 689.787,955.245 690.139,956.796 690.505,958.348 690.885,959.899 691.279,961.451 691.687,963.002 692.11,964.554 692.547,966.105 692.999,967.657 693.466,969.208 693.947,970.76 694.444,972.311 694.957,973.863 695.484,975.414 696.027,976.966 696.586,978.517 697.161,980.069 697.751,981.621 698.358,983.172 698.981,984.724 699.621,986.275 700.277,987.827 700.95,989.378 701.64,990.93 702.348,992.481 703.072,994.033 703.814,995.584 704.574,997.136 705.352,998.687 706.148,1000.24 706.962,1001.79 707.794,1003.34 708.645,1004.89 709.515,1006.44 710.403,1008 711.312,1009.55 712.241,1011.1 713.191,1012.65 714.162,1014.2 715.154,1015.75 716.167,1017.31 717.202,1018.86 718.258,1020.41 719.335,1021.96 720.434,1023.51 721.555,1025.06 722.698,1026.61 723.863,1028.17 725.051,1029.72 726.263,1031.27 727.497,1032.82 728.756,1034.37 730.038,1035.92 731.345,1037.47 732.678,1039.03 734.035,1040.58 735.419,1042.13 736.83,1043.68 738.267,1045.23 739.732,1046.78 741.226,1048.34 742.749,1049.89 744.301,1051.44 745.884,1052.99 747.497,1054.54 749.143,1056.09 750.821,1057.64 752.533,1059.2 754.278,1060.75 756.059,1062.3 757.876,1063.85 759.729,1065.4 761.621,1066.95 763.551,1068.51 765.521,1070.06 767.532,1071.61 769.584,1073.16 771.679,1074.71 773.818,1076.26 776.003,1077.81 778.233,1079.37 780.511,1080.92 782.837,1082.47 785.214,1084.02 787.641,1085.57 790.12,1087.12 792.654,1088.67 795.242,1090.23 797.886,1091.78 800.591,1093.33 803.358,1094.88 806.191,1096.43 809.091,1097.98 812.062,1099.54 815.106,1101.09 818.227,1102.64 821.428,1104.19 824.713,1105.74 828.093,1107.29 831.572,1108.84 835.148,1110.4 838.825,1111.95 842.604,1113.5 846.49,1115.05 850.49,1116.6 854.613,1118.15 858.868,1119.7 863.268,1121.26 867.827,1122.81 872.56,1124.36 877.485,1125.91 882.621,1127.46 887.99,1129.01 893.613,1130.57 899.515,1132.12 905.724,1133.67 912.267,1135.22 919.194,1136.77 926.58,1138.32 934.519,1139.87 943.192,1141.43 952.583,1142.98 962.899,1144.53 974.683,1146.08 988.813,1147.63 1006.67,1149.18 1034.53,1150.73 1105.64,1150.29 1130.85,1148.74 1149.1,1147.19 1164.23,1145.64 1177.47,1144.08 1189.4,1142.53 1200.35,1140.98 1210.54,1139.43 1220.11,1137.88 1229.16,1136.33 1237.78,1134.78 1246.01,1133.22 1253.92,1131.67 1261.52,1130.12 1268.87,1128.57 1275.97,1127.02 1282.86,1125.47 1289.56,1123.91 1296.07,1122.36 1302.41,1120.81 1308.6,1119.26 1314.64,1117.71 1320.55,1116.16 1326.33,1114.61 1331.99,1113.05 1337.53,1111.5 1342.97,1109.95 1348.32,1108.4 1353.56,1106.85 1358.71,1105.3 1363.78,1103.75 1368.77,1102.19 1373.67,1100.64 1378.5,1099.09 1383.26,1097.54 1387.95,1095.99 1392.57,1094.44 1397.12,1092.88 1401.62,1091.33 1406.05,1089.78 1410.42,1088.23 1414.74,1086.68 1419.01,1085.13 1423.22,1083.58 1427.38,1082.02 1431.5,1080.47 1435.56,1078.92 1439.58,1077.37 1443.55,1075.82 1447.48,1074.27 1451.37,1072.72 1455.21,1071.16 1459.02,1069.61 1462.78,1068.06 1466.51,1066.51 1470.2,1064.96 1473.85,1063.41 1477.47,1061.85 1481.05,1060.3 1484.59,1058.75 1488.11,1057.2 1491.59,1055.65 1495.04,1054.1 1498.45,1052.55 1501.84,1050.99 1505.19,1049.44 1508.52,1047.89 1511.81,1046.34 1515.08,1044.79 1518.32,1043.24 1521.54,1041.69 1524.72,1040.13 1527.88,1038.58 1531.01,1037.03 1534.12,1035.48 1537.2,1033.93 1540.26,1032.38 1543.29,1030.82 1546.3,1029.27 1549.28,1027.72 1552.25,1026.17 1555.18,1024.62 1558.1,1023.07 1560.99,1021.52 1563.87,1019.96 1566.72,1018.41 1569.55,1016.86 1572.35,1015.31 1575.14,1013.76 1577.91,1012.21 1580.65,1010.66 1583.38,1009.1 1586.09,1007.55 1588.77,1006 1591.44,1004.45 1594.09,1002.9 1596.72,1001.35 1599.33,999.795 1601.93,998.243 1604.5,996.692 1607.06,995.14 1609.6,993.589 1612.12,992.037 1614.63,990.486 1617.12,988.934 1619.59,987.383 1622.04,985.831 1624.48,984.28 1626.9,982.728 1629.31,981.177 1631.7,979.625 1634.07,978.074 1636.43,976.522 1638.77,974.971 1641.1,973.419 1643.41,971.868 1645.7,970.316 1647.99,968.765 1650.25,967.213 1652.5,965.662 1654.74,964.11 1656.96,962.559 1659.17,961.007 1661.37,959.456 1663.55,957.904 1665.71,956.353 1667.86,954.801 1670,953.25 1672.13,951.698 1674.24,950.147 1676.34,948.595 1678.42,947.044 1680.49,945.492 1682.55,943.94 1684.59,942.389 1686.63,940.837 1688.65,939.286 1690.65,937.734 1692.65,936.183 1694.63,934.631 1696.6,933.08 1698.55,931.528 1700.5,929.977 1702.43,928.425 1704.35,926.874 1706.26,925.322 1708.15,923.771 1710.03,922.219 1711.91,920.668 1713.77,919.116 1715.61,917.565 1717.45,916.013 1719.28,914.462 1721.09,912.91 1722.89,911.359 1724.68,909.807 1726.46,908.256 1728.23,906.704 1729.99,905.153 1731.73,903.601 1733.47,902.05 1735.19,900.498 1736.9,898.947 1738.6,897.395 1740.29,895.844 1741.98,894.292 1743.64,892.741 1745.3,891.189 1746.95,889.638 1748.59,888.086 1750.22,886.535 1751.83,884.983 1753.44,883.432 1755.03,881.88 1756.62,880.329 1758.2,878.777 1759.76,877.226 1761.32,875.674 1762.86,874.123 1764.39,872.571 1765.92,871.02 1767.43,869.468 1768.94,867.917 1770.43,866.365 1771.92,864.814 1773.39,863.262 1774.86,861.711 1776.31,860.159 1777.76,858.608 1779.19,857.056 1780.62,855.505 1782.03,853.953 1783.44,852.402 1784.84,850.85 1786.22,849.299 1787.6,847.747 1788.97,846.195 1790.33,844.644 1791.68,843.092 1793.02,841.541 1794.35,839.989 1795.67,838.438 1796.98,836.886 1798.28,835.335 1799.57,833.783 1800.86,832.232 1802.13,830.68 1803.4,829.129 1804.65,827.577 1805.9,826.026 1807.14,824.474 1808.37,822.923 1809.59,821.371 1810.8,819.82 1812,818.268 1813.19,816.717 1814.37,815.165 1815.55,813.614 1816.71,812.062 1817.87,810.511 1819.02,808.959 1820.16,807.408 1821.29,805.856 1822.41,804.305 1823.52,802.753 1824.62,801.202 1825.72,799.65 1826.8,798.099 1827.88,796.547 1828.94,794.996 1830,793.444 1831.05,791.893 1832.09,790.341 1833.13,788.79 1834.15,787.238 1835.17,785.687 1836.17,784.135 1837.17,782.584 1838.16,781.032 1839.14,779.481 1840.11,777.929 1841.07,776.378 1842.03,774.826 1842.97,773.275 1843.91,771.723 1844.84,770.172 1845.76,768.62 "/>
<polyline clip-path="url(#clip531)" style="stroke:#3da44d; stroke-linecap:round; stroke-linejoin:round; stroke-width:4; stroke-opacity:1; fill:none" points="2212.53,768.62 2213.95,766.234 2215.35,763.848 2216.74,761.462 2218.12,759.075 2219.49,756.689 2220.84,754.303 2222.18,751.917 2223.51,749.531 2224.83,747.145 2226.14,744.759 2227.43,742.372 2228.71,739.986 2229.98,737.6 2231.23,735.214 2232.47,732.828 2233.7,730.442 2234.92,728.056 2236.13,725.669 2237.32,723.283 2238.5,720.897 2239.67,718.511 2240.83,716.125 2241.97,713.739 2243.1,711.353 2244.22,708.966 2245.33,706.58 2246.43,704.194 2247.51,701.808 2248.58,699.422 2249.64,697.036 2250.68,694.65 2251.72,692.264 2252.74,689.877 2253.75,687.491 2254.74,685.105 2255.73,682.719 2256.7,680.333 2257.66,677.947 2258.61,675.561 2259.54,673.174 2260.46,670.788 2261.37,668.402 2262.27,666.016 2263.16,663.63 2264.03,661.244 2264.89,658.858 2265.74,656.471 2266.57,654.085 2267.4,651.699 2268.21,649.313 2269,646.927 2269.79,644.541 2270.56,642.155 2271.32,639.768 2272.07,637.382 2272.81,634.996 2273.53,632.61 2274.24,630.224 2274.94,627.838 2275.63,625.452 2276.3,623.065 2276.96,620.679 2277.61,618.293 2278.24,615.907 2278.86,613.521 2279.47,611.135 2280.07,608.749 2280.65,606.362 2281.22,603.976 2281.78,601.59 2282.33,599.204 2282.86,596.818 2283.38,594.432 2283.89,592.046 2284.38,589.659 2284.86,587.273 2285.33,584.887 2285.78,582.501 2286.23,580.115 2286.65,577.729 2287.07,575.343 2287.47,572.956 2287.86,570.57 2288.24,568.184 2288.6,565.798 2288.95,563.412 2289.29,561.026 2289.61,558.64 2289.92,556.253 2290.21,553.867 2290.5,551.481 2290.77,549.095 2291.02,546.709 2291.26,544.323 2291.49,541.937 2291.71,539.55 2291.91,537.164 2292.09,534.778 2292.27,532.392 2292.42,530.006 2292.57,527.62 2292.7,525.234 2292.82,522.847 2292.92,520.461 2293.01,518.075 2293.09,515.689 2293.15,513.303 2293.19,510.917 2293.22,508.531 2293.24,506.144 2293.24,503.758 2293.23,501.372 2293.21,498.986 2293.17,496.6 2293.11,494.214 2293.04,491.828 2292.96,489.441 2292.86,487.055 2292.74,484.669 2292.61,482.283 2292.47,479.897 2292.31,477.511 2292.13,475.125 2291.94,472.738 2291.73,470.352 2291.51,467.966 2291.27,465.58 2291.02,463.194 2290.75,460.808 2290.47,458.422 2290.17,456.035 2289.85,453.649 2289.52,451.263 2289.17,448.877 2288.81,446.491 2288.43,444.105 2288.03,441.719 2287.62,439.332 2287.18,436.946 2286.74,434.56 2286.27,432.174 2285.79,429.788 2285.29,427.402 2284.78,425.016 2284.24,422.629 2283.69,420.243 2283.13,417.857 2282.54,415.471 2281.94,413.085 2281.32,410.699 2280.68,408.313 2280.02,405.926 2279.34,403.54 2278.65,401.154 2277.94,398.768 2277.21,396.382 2276.46,393.996 2275.69,391.61 2274.9,389.223 2274.09,386.837 2273.26,384.451 2272.42,382.065 2271.55,379.679 2270.66,377.293 2269.76,374.907 2268.83,372.521 2267.88,370.134 2266.91,367.748 2265.92,365.362 2264.91,362.976 2263.88,360.59 2262.83,358.204 2261.75,355.818 2260.65,353.431 2259.54,351.045 2258.4,348.659 2257.23,346.273 2256.05,343.887 2254.84,341.501 2253.61,339.115 2252.36,336.728 2251.08,334.342 2249.78,331.956 2248.45,329.57 2247.1,327.184 2245.73,324.798 2244.33,322.412 2242.91,320.025 2241.46,317.639 2239.98,315.253 2238.48,312.867 2236.95,310.481 2235.39,308.095 2233.81,305.709 2232.2,303.322 2230.56,300.936 2228.9,298.55 2227.2,296.164 2225.48,293.778 2223.72,291.392 2221.94,289.006 2220.12,286.619 2218.27,284.233 2216.4,281.847 2214.49,279.461 2212.55,277.075 2210.57,274.689 2208.56,272.303 2206.52,269.916 2204.44,267.53 2202.33,265.144 2200.19,262.758 2198,260.372 2195.79,257.986 2193.53,255.6 2191.24,253.213 2188.9,250.827 2186.53,248.441 2184.12,246.055 2181.66,243.669 2179.16,241.283 2176.62,238.897 2174.04,236.51 2171.41,234.124 2168.74,231.738 2166.02,229.352 2163.25,226.966 2160.44,224.58 2157.58,222.194 2154.68,219.808 2151.72,217.421 2148.71,215.035 2145.65,212.649 2142.53,210.263 2139.36,207.877 2136.13,205.491 2132.84,203.105 2129.48,200.718 2126.07,198.332 2122.59,195.946 2119.04,193.56 2115.42,191.174 2111.73,188.788 2107.96,186.402 2104.12,184.015 2100.19,181.629 2096.18,179.243 2092.09,176.857 2087.91,174.471 2083.63,172.085 2079.26,169.699 2074.79,167.313 2070.22,164.926 2065.55,162.54 2060.76,160.154 2055.86,157.768 2050.85,155.382 2045.71,152.996 2040.43,150.61 2035.01,148.223 2029.45,145.837 2023.73,143.451 2017.84,141.065 2011.77,138.679 2005.5,136.293 1999.04,133.907 1992.37,131.521 1985.48,129.134 1978.35,126.748 1970.96,124.362 1963.27,121.976 1955.26,119.59 1946.88,117.204 1938.1,114.818 1928.86,112.432 1919.11,110.046 1908.79,107.659 1897.82,105.273 1886.06,102.887 1873.38,100.501 1859.52,98.1151 1844.11,95.7291 1826.67,93.343 1806.14,90.9571 1780.6,88.5712 1742.06,86.1857 1635.52,86.35 1595.85,88.7355 1567.9,91.1213 1544.92,93.5073 1524.87,95.8932 1506.83,98.2792 1490.28,100.665 1474.88,103.051 1460.42,105.437 1446.73,107.823 1433.71,110.21 1421.25,112.596 1409.28,114.982 1397.76,117.368 1386.63,119.754 1375.85,122.14 1365.4,124.526 1355.23,126.912 1345.34,129.298 1335.69,131.684 1326.27,134.07 1317.07,136.457 1308.06,138.843 1299.24,141.229 1290.6,143.615 1282.12,146.001 1273.8,148.387 1265.62,150.773 1257.59,153.159 1249.69,155.545 1241.91,157.932 1234.26,160.318 1226.72,162.704 1219.29,165.09 1211.97,167.476 1204.74,169.862 1197.62,172.248 1190.59,174.634 1183.65,177.021 1176.8,179.407 1170.03,181.793 1163.34,184.179 1156.73,186.565 1150.2,188.951 1143.74,191.337 1137.35,193.723 1131.03,196.11 1124.78,198.496 1118.59,200.882 1112.47,203.268 1106.41,205.654 1100.4,208.04 1094.46,210.426 1088.57,212.812 1082.74,215.199 1076.96,217.585 1071.24,219.971 1065.56,222.357 1059.94,224.743 1054.37,227.129 1048.84,229.515 1043.36,231.901 1037.93,234.288 1032.54,236.674 1027.2,239.06 1021.9,241.446 1016.64,243.832 1011.43,246.218 1006.25,248.604 1001.12,250.991 996.023,253.377 990.966,255.763 985.947,258.149 980.965,260.535 976.02,262.921 971.111,265.307 966.237,267.693 961.398,270.08 956.593,272.466 951.821,274.852 947.083,277.238 942.378,279.624 937.704,282.01 933.063,284.396 928.452,286.783 923.872,289.169 919.323,291.555 914.804,293.941 910.313,296.327 905.853,298.713 901.42,301.099 897.016,303.485 892.64,305.872 888.291,308.258 883.97,310.644 879.676,313.03 875.408,315.416 871.166,317.802 866.95,320.188 862.76,322.575 858.595,324.961 854.455,327.347 850.34,329.733 846.249,332.119 842.182,334.505 838.14,336.891 834.121,339.277 830.125,341.664 826.153,344.05 822.203,346.436 818.276,348.822 814.372,351.208 810.49,353.594 806.63,355.98 802.792,358.367 798.975,360.753 795.18,363.139 791.406,365.525 787.653,367.911 783.92,370.297 780.209,372.683 776.518,375.07 772.847,377.456 769.196,379.842 765.565,382.228 761.954,384.614 758.362,387 754.79,389.386 751.238,391.772 747.704,394.159 744.189,396.545 740.693,398.931 737.216,401.317 733.758,403.703 730.318,406.089 726.896,408.475 723.492,410.862 720.106,413.248 716.739,415.634 713.389,418.02 710.056,420.406 706.741,422.792 703.444,425.178 700.164,427.565 696.901,429.951 693.655,432.337 690.426,434.723 687.214,437.109 684.019,439.495 680.84,441.881 677.678,444.267 674.532,446.654 671.403,449.04 668.29,451.426 665.193,453.812 662.112,456.198 659.047,458.584 655.998,460.97 652.965,463.357 649.947,465.743 646.945,468.129 643.959,470.515 640.988,472.901 638.033,475.287 635.093,477.673 632.168,480.06 629.259,482.446 626.364,484.832 623.485,487.218 620.62,489.604 617.77,491.99 614.936,494.376 612.116,496.763 609.31,499.149 606.52,501.535 603.744,503.921 600.982,506.307 598.235,508.693 595.502,511.079 592.784,513.466 590.08,515.852 587.39,518.238 584.714,520.624 582.052,523.01 579.405,525.396 576.771,527.782 574.152,530.168 571.546,532.555 568.954,534.941 566.376,537.327 563.812,539.713 561.261,542.099 558.724,544.485 556.201,546.871 553.691,549.258 551.195,551.644 548.713,554.03 546.243,556.416 543.788,558.802 541.345,561.188 538.916,563.574 536.501,565.961 534.098,568.347 531.709,570.733 529.333,573.119 526.97,575.505 524.621,577.891 522.284,580.277 519.96,582.664 517.65,585.05 515.353,587.436 513.068,589.822 510.797,592.208 508.538,594.594 506.292,596.98 504.059,599.367 501.839,601.753 499.632,604.139 497.438,606.525 495.256,608.911 493.087,611.297 490.931,613.683 488.788,616.07 486.657,618.456 484.539,620.842 482.434,623.228 480.341,625.614 478.261,628 476.193,630.386 474.138,632.772 472.095,635.159 470.065,637.545 468.048,639.931 466.042,642.317 464.05,644.703 462.07,647.089 460.102,649.475 458.147,651.862 456.204,654.248 454.274,656.634 452.356,659.02 450.45,661.406 448.557,663.792 446.676,666.178 444.807,668.565 442.951,670.951 441.107,673.337 439.276,675.723 437.457,678.109 435.65,680.495 433.855,682.881 432.073,685.268 430.303,687.654 428.545,690.04 426.8,692.426 425.067,694.812 423.346,697.198 421.637,699.584 419.941,701.971 418.257,704.357 416.586,706.743 414.926,709.129 413.279,711.515 411.644,713.901 410.021,716.287 408.411,718.674 406.813,721.06 405.227,723.446 403.654,725.832 402.093,728.218 400.544,730.604 399.007,732.99 397.483,735.377 395.971,737.763 394.471,740.149 392.983,742.535 391.508,744.921 390.046,747.307 388.595,749.693 387.157,752.08 385.731,754.466 384.318,756.852 382.917,759.238 381.528,761.624 380.152,764.01 378.788,766.396 377.437,768.783 376.098,771.169 374.771,773.555 373.457,775.941 372.155,778.327 370.866,780.713 369.59,783.099 368.326,785.486 367.074,787.872 365.835,790.258 364.608,792.644 363.395,795.03 362.193,797.416 361.005,799.802 359.829,802.188 358.665,804.575 357.515,806.961 356.377,809.347 355.251,811.733 354.139,814.119 353.039,816.505 351.952,818.891 350.878,821.278 349.817,823.664 348.768,826.05 347.733,828.436 346.71,830.822 345.7,833.208 344.703,835.594 343.72,837.981 342.749,840.367 341.792,842.753 340.847,845.139 339.916,847.525 338.998,849.911 338.093,852.297 337.202,854.684 336.324,857.07 335.459,859.456 334.607,861.842 333.768,864.228 332.943,866.614 332.132,869 331.334,871.387 330.549,873.773 329.778,876.159 329.02,878.545 328.276,880.931 327.546,883.317 326.829,885.703 326.126,888.09 325.437,890.476 324.761,892.862 324.099,895.248 323.451,897.634 322.818,900.02 322.198,902.406 321.592,904.793 321,907.179 320.422,909.565 319.859,911.951 319.309,914.337 318.774,916.723 318.253,919.109 317.747,921.496 317.255,923.882 316.778,926.268 316.315,928.654 315.867,931.04 315.433,933.426 315.015,935.812 314.611,938.199 314.222,940.585 313.848,942.971 313.489,945.357 313.145,947.743 312.816,950.129 312.502,952.515 312.204,954.902 311.921,957.288 311.654,959.674 311.402,962.06 311.165,964.446 310.945,966.832 310.74,969.218 310.55,971.605 310.377,973.991 310.22,976.377 310.079,978.763 309.954,981.149 309.845,983.535 309.753,985.921 309.677,988.308 309.618,990.694 309.575,993.08 309.549,995.466 309.539,997.852 309.547,1000.24 309.571,1002.62 309.613,1005.01 309.672,1007.4 309.748,1009.78 309.841,1012.17 309.952,1014.56 310.08,1016.94 310.226,1019.33 310.39,1021.71 310.572,1024.1 310.771,1026.49 310.989,1028.87 311.225,1031.26 311.479,1033.64 311.752,1036.03 312.043,1038.42 312.352,1040.8 312.681,1043.19 313.029,1045.57 313.397,1047.96 313.783,1050.35 314.19,1052.73 314.616,1055.12 315.062,1057.51 315.528,1059.89 316.014,1062.28 316.519,1064.66 317.046,1067.05 317.592,1069.44 318.159,1071.82 318.747,1074.21 319.355,1076.59 319.984,1078.98 320.635,1081.37 321.307,1083.75 322,1086.14 322.715,1088.53 323.452,1090.91 324.21,1093.3 324.992,1095.68 325.795,1098.07 326.621,1100.46 327.47,1102.84 328.342,1105.23 329.238,1107.61 330.157,1110 331.1,1112.39 332.067,1114.77 333.059,1117.16 334.075,1119.55 335.116,1121.93 336.182,1124.32 337.273,1126.7 338.391,1129.09 339.534,1131.48 340.704,1133.86 341.9,1136.25 343.124,1138.63 344.374,1141.02 345.653,1143.41 346.959,1145.79 348.294,1148.18 349.657,1150.57 351.05,1152.95 352.472,1155.34 353.923,1157.72 355.405,1160.11 356.917,1162.5 358.46,1164.88 360.035,1167.27 361.641,1169.65 363.28,1172.04 364.95,1174.43 366.654,1176.81 368.392,1179.2 370.163,1181.59 371.968,1183.97 373.808,1186.36 375.683,1188.74 377.594,1191.13 379.541,1193.52 381.525,1195.9 383.545,1198.29 385.603,1200.67 387.701,1203.06 389.84,1205.45 392.019,1207.83 394.24,1210.22 396.503,1212.6 398.808,1214.99 401.155,1217.38 403.545,1219.76 405.979,1222.15 408.458,1224.54 410.982,1226.92 413.551,1229.31 416.168,1231.69 418.833,1234.08 421.547,1236.47 424.311,1238.85 427.127,1241.24 429.995,1243.62 432.917,1246.01 435.894,1248.4 438.928,1250.78 442.02,1253.17 445.172,1255.56 448.386,1257.94 451.663,1260.33 455.005,1262.71 458.415,1265.1 461.893,1267.49 465.442,1269.87 469.064,1272.26 472.761,1274.64 476.536,1277.03 480.391,1279.42 484.327,1281.8 488.348,1284.19 492.456,1286.58 496.653,1288.96 500.943,1291.35 505.327,1293.73 509.81,1296.12 514.392,1298.51 519.079,1300.89 523.876,1303.28 528.788,1305.66 533.821,1308.05 538.979,1310.44 544.268,1312.82 549.695,1315.21 555.266,1317.59 560.994,1319.98 566.887,1322.37 572.947,1324.75 579.181,1327.14 585.598,1329.53 592.209,1331.91 599.029,1334.3 606.073,1336.68 613.362,1339.07 620.916,1341.46 628.761,1343.84 636.923,1346.23 645.432,1348.61 654.319,1351 663.62,1353.39 673.373,1355.77 683.788,1358.16 694.854,1360.54 706.46,1362.93 718.642,1365.32 731.584,1367.7 745.616,1370.09 761.216,1372.48 779.01,1374.86 799.772,1377.25 824.55,1379.63 857.387,1382.02 951.211,1384.24 1020.95,1381.85 1055.75,1379.47 1082.82,1377.08 1105.82,1374.7 1126.22,1372.31 1144.74,1369.93 1161.84,1367.54 1177.82,1365.15 1192.86,1362.77 1207.12,1360.38 1220.72,1357.99 1233.74,1355.61 1246.24,1353.22 1258.29,1350.84 1269.93,1348.45 1281.2,1346.06 1292.13,1343.68 1302.76,1341.29 1313.1,1338.91 1323.18,1336.52 1333.02,1334.13 1342.63,1331.75 1352.02,1329.36 1361.22,1326.98 1370.23,1324.59 1379.06,1322.2 1387.72,1319.82 1396.22,1317.43 1404.57,1315.05 1412.78,1312.66 1420.85,1310.27 1428.79,1307.89 1436.61,1305.5 1444.3,1303.11 1451.88,1300.73 1459.35,1298.34 1466.72,1295.96 1473.98,1293.57 1481.14,1291.18 1488.21,1288.8 1495.18,1286.41 1502.07,1284.03 1508.87,1281.64 1515.58,1279.25 1522.22,1276.87 1528.77,1274.48 1535.26,1272.09 1541.66,1269.71 1548,1267.32 1554.26,1264.94 1560.46,1262.55 1566.59,1260.16 1572.66,1257.78 1578.66,1255.39 1584.61,1253.01 1590.49,1250.62 1596.31,1248.23 1602.08,1245.85 1607.79,1243.46 1613.45,1241.08 1619.05,1238.69 1624.61,1236.3 1630.11,1233.92 1635.56,1231.53 1640.96,1229.14 1646.31,1226.76 1651.61,1224.37 1656.87,1221.99 1662.09,1219.6 1667.26,1217.21 1672.38,1214.83 1677.47,1212.44 1682.51,1210.06 1687.51,1207.67 1692.46,1205.28 1697.38,1202.9 1702.26,1200.51 1707.1,1198.12 1711.9,1195.74 1716.67,1193.35 1721.39,1190.97 1726.08,1188.58 1730.74,1186.19 1735.36,1183.81 1739.94,1181.42 1744.5,1179.04 1749.01,1176.65 1753.5,1174.26 1757.95,1171.88 1762.36,1169.49 1766.75,1167.11 1771.1,1164.72 1775.43,1162.33 1779.72,1159.95 1783.98,1157.56 1788.21,1155.17 1792.42,1152.79 1796.59,1150.4 1800.73,1148.02 1804.85,1145.63 1808.94,1143.24 1813,1140.86 1817.03,1138.47 1821.03,1136.09 1825.01,1133.7 1828.96,1131.31 1832.89,1128.93 1836.79,1126.54 1840.66,1124.15 1844.51,1121.77 1848.33,1119.38 1852.12,1117 1855.9,1114.61 1859.64,1112.22 1863.37,1109.84 1867.07,1107.45 1870.74,1105.07 1874.39,1102.68 1878.02,1100.29 1881.63,1097.91 1885.21,1095.52 1888.77,1093.14 1892.31,1090.75 1895.82,1088.36 1899.31,1085.98 1902.79,1083.59 1906.23,1081.2 1909.66,1078.82 1913.07,1076.43 1916.45,1074.05 1919.82,1071.66 1923.16,1069.27 1926.48,1066.89 1929.78,1064.5 1933.06,1062.12 1936.32,1059.73 1939.56,1057.34 1942.79,1054.96 1945.99,1052.57 1949.17,1050.18 1952.33,1047.8 1955.47,1045.41 1958.6,1043.03 1961.7,1040.64 1964.79,1038.25 1967.85,1035.87 1970.9,1033.48 1973.93,1031.1 1976.94,1028.71 1979.93,1026.32 1982.91,1023.94 1985.86,1021.55 1988.8,1019.16 1991.72,1016.78 1994.62,1014.39 1997.51,1012.01 2000.38,1009.62 2003.23,1007.23 2006.06,1004.85 2008.88,1002.46 2011.67,1000.08 2014.46,997.689 2017.22,995.303 2019.97,992.917 2022.7,990.531 2025.41,988.145 2028.11,985.759 2030.79,983.373 2033.46,980.987 2036.11,978.6 2038.74,976.214 2041.36,973.828 2043.96,971.442 2046.54,969.056 2049.11,966.67 2051.66,964.284 2054.2,961.897 2056.72,959.511 2059.23,957.125 2061.72,954.739 2064.19,952.353 2066.65,949.967 2069.09,947.581 2071.52,945.194 2073.94,942.808 2076.34,940.422 2078.72,938.036 2081.09,935.65 2083.44,933.264 2085.78,930.878 2088.11,928.491 2090.42,926.105 2092.71,923.719 2094.99,921.333 2097.26,918.947 2099.51,916.561 2101.74,914.175 2103.97,911.788 2106.17,909.402 2108.37,907.016 2110.55,904.63 2112.71,902.244 2114.86,899.858 2117,897.472 2119.12,895.085 2121.23,892.699 2123.33,890.313 2125.41,887.927 2127.48,885.541 2129.53,883.155 2131.57,880.769 2133.6,878.383 2135.61,875.996 2137.61,873.61 2139.59,871.224 2141.57,868.838 2143.52,866.452 2145.47,864.066 2147.4,861.68 2149.32,859.293 2151.22,856.907 2153.11,854.521 2154.99,852.135 2156.86,849.749 2158.71,847.363 2160.55,844.977 2162.37,842.59 2164.18,840.204 2165.98,837.818 2167.77,835.432 2169.54,833.046 2171.3,830.66 2173.05,828.274 2174.78,825.887 2176.5,823.501 2178.21,821.115 2179.9,818.729 2181.58,816.343 2183.25,813.957 2184.91,811.571 2186.55,809.184 2188.18,806.798 2189.8,804.412 2191.41,802.026 2193,799.64 2194.58,797.254 2196.15,794.868 2197.7,792.481 2199.24,790.095 2200.77,787.709 2202.29,785.323 2203.79,782.937 2205.28,780.551 2206.76,778.165 2208.23,775.778 2209.68,773.392 2211.12,771.006 2212.55,768.62 "/>
</svg>
