<?xml version="1.0" encoding="utf-8"?>
<svg xmlns="http://www.w3.org/2000/svg" xmlns:xlink="http://www.w3.org/1999/xlink" width="600" height="400" viewBox="0 0 2400 1600">
<defs>
  <clipPath id="clip560">
    <rect x="0" y="0" width="2400" height="1600"/>
  </clipPath>
</defs>
<path clip-path="url(#clip560)" d="M0 1600 L2400 1600 L2400 0 L0 0  Z" fill="#ffffff" fill-rule="evenodd" fill-opacity="1"/>
<defs>
  <clipPath id="clip561">
    <rect x="480" y="0" width="1681" height="1600"/>
  </clipPath>
</defs>
<path clip-path="url(#clip560)" d="M202.227 1423.18 L2352.76 1423.18 L2352.76 47.2441 L202.227 47.2441  Z" fill="#ffffff" fill-rule="evenodd" fill-opacity="1"/>
<defs>
  <clipPath id="clip562">
    <rect x="202" y="47" width="2152" height="1377"/>
  </clipPath>
</defs>
<polyline clip-path="url(#clip562)" style="stroke:#000000; stroke-linecap:round; stroke-linejoin:round; stroke-width:2; stroke-opacity:0.1; fill:none" points="263.091,1423.18 263.091,47.2441 "/>
<polyline clip-path="url(#clip562)" style="stroke:#000000; stroke-linecap:round; stroke-linejoin:round; stroke-width:2; stroke-opacity:0.1; fill:none" points="939.358,1423.18 939.358,47.2441 "/>
<polyline clip-path="url(#clip562)" style="stroke:#000000; stroke-linecap:round; stroke-linejoin:round; stroke-width:2; stroke-opacity:0.1; fill:none" points="1615.63,1423.18 1615.63,47.2441 "/>
<polyline clip-path="url(#clip562)" style="stroke:#000000; stroke-linecap:round; stroke-linejoin:round; stroke-width:2; stroke-opacity:0.1; fill:none" points="2291.89,1423.18 2291.89,47.2441 "/>
<polyline clip-path="url(#clip562)" style="stroke:#000000; stroke-linecap:round; stroke-linejoin:round; stroke-width:2; stroke-opacity:0.1; fill:none" points="202.227,1151.49 2352.76,1151.49 "/>
<polyline clip-path="url(#clip562)" style="stroke:#000000; stroke-linecap:round; stroke-linejoin:round; stroke-width:2; stroke-opacity:0.1; fill:none" points="202.227,796.391 2352.76,796.391 "/>
<polyline clip-path="url(#clip562)" style="stroke:#000000; stroke-linecap:round; stroke-linejoin:round; stroke-width:2; stroke-opacity:0.1; fill:none" points="202.227,441.288 2352.76,441.288 "/>
<polyline clip-path="url(#clip562)" style="stroke:#000000; stroke-linecap:round; stroke-linejoin:round; stroke-width:2; stroke-opacity:0.1; fill:none" points="202.227,86.1857 2352.76,86.1857 "/>
<polyline clip-path="url(#clip560)" style="stroke:#000000; stroke-linecap:round; stroke-linejoin:round; stroke-width:4; stroke-opacity:1; fill:none" points="202.227,1423.18 2352.76,1423.18 "/>
<polyline clip-path="url(#clip560)" style="stroke:#000000; stroke-linecap:round; stroke-linejoin:round; stroke-width:4; stroke-opacity:1; fill:none" points="263.091,1423.18 263.091,1404.28 "/>
<polyline clip-path="url(#clip560)" style="stroke:#000000; stroke-linecap:round; stroke-linejoin:round; stroke-width:4; stroke-opacity:1; fill:none" points="939.358,1423.18 939.358,1404.28 "/>
<polyline clip-path="url(#clip560)" style="stroke:#000000; stroke-linecap:round; stroke-linejoin:round; stroke-width:4; stroke-opacity:1; fill:none" points="1615.63,1423.18 1615.63,1404.28 "/>
<polyline clip-path="url(#clip560)" style="stroke:#000000; stroke-linecap:round; stroke-linejoin:round; stroke-width:4; stroke-opacity:1; fill:none" points="2291.89,1423.18 2291.89,1404.28 "/>
<path clip-path="url(#clip560)" d="M253.473 1481.64 L261.112 1481.64 L261.112 1455.28 L252.802 1456.95 L252.802 1452.69 L261.066 1451.02 L265.742 1451.02 L265.742 1481.64 L273.381 1481.64 L273.381 1485.58 L253.473 1485.58 L253.473 1481.64 Z" fill="#000000" fill-rule="nonzero" fill-opacity="1" /><path clip-path="url(#clip560)" d="M934.011 1481.64 L950.33 1481.64 L950.33 1485.58 L928.386 1485.58 L928.386 1481.64 Q931.048 1478.89 935.631 1474.26 Q940.238 1469.61 941.418 1468.27 Q943.664 1465.74 944.543 1464.01 Q945.446 1462.25 945.446 1460.56 Q945.446 1457.8 943.502 1456.07 Q941.58 1454.33 938.479 1454.33 Q936.28 1454.33 933.826 1455.09 Q931.395 1455.86 928.618 1457.41 L928.618 1452.69 Q931.442 1451.55 933.895 1450.97 Q936.349 1450.39 938.386 1450.39 Q943.756 1450.39 946.951 1453.08 Q950.145 1455.77 950.145 1460.26 Q950.145 1462.39 949.335 1464.31 Q948.548 1466.2 946.442 1468.8 Q945.863 1469.47 942.761 1472.69 Q939.659 1475.88 934.011 1481.64 Z" fill="#000000" fill-rule="nonzero" fill-opacity="1" /><path clip-path="url(#clip560)" d="M1619.87 1466.95 Q1623.23 1467.66 1625.1 1469.93 Q1627 1472.2 1627 1475.53 Q1627 1480.65 1623.48 1483.45 Q1619.97 1486.25 1613.48 1486.25 Q1611.31 1486.25 1608.99 1485.81 Q1606.7 1485.39 1604.25 1484.54 L1604.25 1480.02 Q1606.19 1481.16 1608.51 1481.74 Q1610.82 1482.32 1613.35 1482.32 Q1617.74 1482.32 1620.03 1480.58 Q1622.35 1478.84 1622.35 1475.53 Q1622.35 1472.48 1620.2 1470.77 Q1618.07 1469.03 1614.25 1469.03 L1610.22 1469.03 L1610.22 1465.19 L1614.43 1465.19 Q1617.88 1465.19 1619.71 1463.82 Q1621.54 1462.43 1621.54 1459.84 Q1621.54 1457.18 1619.64 1455.77 Q1617.77 1454.33 1614.25 1454.33 Q1612.33 1454.33 1610.13 1454.75 Q1607.93 1455.16 1605.29 1456.04 L1605.29 1451.88 Q1607.95 1451.14 1610.27 1450.77 Q1612.6 1450.39 1614.66 1450.39 Q1619.99 1450.39 1623.09 1452.83 Q1626.19 1455.23 1626.19 1459.35 Q1626.19 1462.22 1624.55 1464.21 Q1622.91 1466.18 1619.87 1466.95 Z" fill="#000000" fill-rule="nonzero" fill-opacity="1" /><path clip-path="url(#clip560)" d="M2294.9 1455.09 L2283.1 1473.54 L2294.9 1473.54 L2294.9 1455.09 M2293.67 1451.02 L2299.55 1451.02 L2299.55 1473.54 L2304.48 1473.54 L2304.48 1477.43 L2299.55 1477.43 L2299.55 1485.58 L2294.9 1485.58 L2294.9 1477.43 L2279.3 1477.43 L2279.3 1472.92 L2293.67 1451.02 Z" fill="#000000" fill-rule="nonzero" fill-opacity="1" /><path clip-path="url(#clip560)" d="M1294.11 1532.4 L1281.22 1549.74 L1294.77 1568.04 L1287.87 1568.04 L1277.49 1554.04 L1267.12 1568.04 L1260.21 1568.04 L1274.05 1549.39 L1261.39 1532.4 L1268.29 1532.4 L1277.75 1545.1 L1287.2 1532.4 L1294.11 1532.4 Z" fill="#000000" fill-rule="nonzero" fill-opacity="1" /><polyline clip-path="url(#clip560)" style="stroke:#000000; stroke-linecap:round; stroke-linejoin:round; stroke-width:4; stroke-opacity:1; fill:none" points="202.227,1423.18 202.227,47.2441 "/>
<polyline clip-path="url(#clip560)" style="stroke:#000000; stroke-linecap:round; stroke-linejoin:round; stroke-width:4; stroke-opacity:1; fill:none" points="202.227,1151.49 221.125,1151.49 "/>
<polyline clip-path="url(#clip560)" style="stroke:#000000; stroke-linecap:round; stroke-linejoin:round; stroke-width:4; stroke-opacity:1; fill:none" points="202.227,796.391 221.125,796.391 "/>
<polyline clip-path="url(#clip560)" style="stroke:#000000; stroke-linecap:round; stroke-linejoin:round; stroke-width:4; stroke-opacity:1; fill:none" points="202.227,441.288 221.125,441.288 "/>
<polyline clip-path="url(#clip560)" style="stroke:#000000; stroke-linecap:round; stroke-linejoin:round; stroke-width:4; stroke-opacity:1; fill:none" points="202.227,86.1857 221.125,86.1857 "/>
<path clip-path="url(#clip560)" d="M156.644 1138.29 L144.839 1156.74 L156.644 1156.74 L156.644 1138.29 M155.417 1134.21 L161.297 1134.21 L161.297 1156.74 L166.227 1156.74 L166.227 1160.62 L161.297 1160.62 L161.297 1168.77 L156.644 1168.77 L156.644 1160.62 L141.042 1160.62 L141.042 1156.11 L155.417 1134.21 Z" fill="#000000" fill-rule="nonzero" fill-opacity="1" /><path clip-path="url(#clip560)" d="M154.7 794.527 Q151.552 794.527 149.7 796.68 Q147.871 798.833 147.871 802.583 Q147.871 806.31 149.7 808.485 Q151.552 810.638 154.7 810.638 Q157.848 810.638 159.677 808.485 Q161.528 806.31 161.528 802.583 Q161.528 798.833 159.677 796.68 Q157.848 794.527 154.7 794.527 M163.982 779.874 L163.982 784.134 Q162.223 783.3 160.417 782.861 Q158.635 782.421 156.876 782.421 Q152.246 782.421 149.792 785.546 Q147.362 788.671 147.015 794.99 Q148.38 792.976 150.441 791.911 Q152.501 790.824 154.978 790.824 Q160.186 790.824 163.195 793.995 Q166.227 797.143 166.227 802.583 Q166.227 807.907 163.079 811.124 Q159.931 814.342 154.7 814.342 Q148.704 814.342 145.533 809.759 Q142.362 805.152 142.362 796.425 Q142.362 788.231 146.251 783.37 Q150.14 778.486 156.69 778.486 Q158.45 778.486 160.232 778.833 Q162.038 779.18 163.982 779.874 Z" fill="#000000" fill-rule="nonzero" fill-opacity="1" /><path clip-path="url(#clip560)" d="M154.376 442.156 Q151.042 442.156 149.121 443.939 Q147.223 445.721 147.223 448.846 Q147.223 451.971 149.121 453.753 Q151.042 455.536 154.376 455.536 Q157.709 455.536 159.63 453.753 Q161.552 451.948 161.552 448.846 Q161.552 445.721 159.63 443.939 Q157.732 442.156 154.376 442.156 M149.7 440.165 Q146.691 439.425 145.001 437.365 Q143.334 435.304 143.334 432.341 Q143.334 428.198 146.274 425.791 Q149.237 423.383 154.376 423.383 Q159.538 423.383 162.477 425.791 Q165.417 428.198 165.417 432.341 Q165.417 435.304 163.727 437.365 Q162.061 439.425 159.075 440.165 Q162.454 440.952 164.329 443.244 Q166.227 445.536 166.227 448.846 Q166.227 453.869 163.149 456.554 Q160.093 459.239 154.376 459.239 Q148.658 459.239 145.579 456.554 Q142.524 453.869 142.524 448.846 Q142.524 445.536 144.422 443.244 Q146.32 440.952 149.7 440.165 M147.987 432.781 Q147.987 435.466 149.653 436.971 Q151.343 438.476 154.376 438.476 Q157.385 438.476 159.075 436.971 Q160.788 435.466 160.788 432.781 Q160.788 430.096 159.075 428.591 Q157.385 427.087 154.376 427.087 Q151.343 427.087 149.653 428.591 Q147.987 430.096 147.987 432.781 Z" fill="#000000" fill-rule="nonzero" fill-opacity="1" /><path clip-path="url(#clip560)" d="M114.931 99.5305 L122.57 99.5305 L122.57 73.1649 L114.26 74.8316 L114.26 70.5723 L122.524 68.9057 L127.2 68.9057 L127.2 99.5305 L134.839 99.5305 L134.839 103.466 L114.931 103.466 L114.931 99.5305 Z" fill="#000000" fill-rule="nonzero" fill-opacity="1" /><path clip-path="url(#clip560)" d="M154.283 71.9844 Q150.672 71.9844 148.843 75.5492 Q147.038 79.0908 147.038 86.2204 Q147.038 93.3268 148.843 96.8916 Q150.672 100.433 154.283 100.433 Q157.917 100.433 159.723 96.8916 Q161.552 93.3268 161.552 86.2204 Q161.552 79.0908 159.723 75.5492 Q157.917 71.9844 154.283 71.9844 M154.283 68.2807 Q160.093 68.2807 163.149 72.8871 Q166.227 77.4704 166.227 86.2204 Q166.227 94.9472 163.149 99.5537 Q160.093 104.137 154.283 104.137 Q148.473 104.137 145.394 99.5537 Q142.339 94.9472 142.339 86.2204 Q142.339 77.4704 145.394 72.8871 Q148.473 68.2807 154.283 68.2807 Z" fill="#000000" fill-rule="nonzero" fill-opacity="1" /><path clip-path="url(#clip560)" d="M67.3143 733.525 Q73.68 736.008 75.6216 738.363 Q77.5631 740.718 77.5631 744.665 L77.5631 749.344 L72.6615 749.344 L72.6615 745.906 Q72.6615 743.487 71.5157 742.151 Q70.3699 740.814 66.1048 739.191 L63.4312 738.14 L28.3562 752.559 L28.3562 746.352 L56.238 735.212 L28.3562 724.072 L28.3562 717.865 L67.3143 733.525 Z" fill="#000000" fill-rule="nonzero" fill-opacity="1" /><polyline clip-path="url(#clip562)" style="stroke:#000000; stroke-linecap:round; stroke-linejoin:round; stroke-width:4; stroke-opacity:0.8; fill:none" points="263.091,1240.27 263.091,1062.72 "/>
<polyline clip-path="url(#clip562)" style="stroke:#000000; stroke-linecap:round; stroke-linejoin:round; stroke-width:4; stroke-opacity:0.8; fill:none" points="939.358,1053.84 939.358,894.044 "/>
<polyline clip-path="url(#clip562)" style="stroke:#000000; stroke-linecap:round; stroke-linejoin:round; stroke-width:4; stroke-opacity:0.8; fill:none" points="1615.63,814.146 1615.63,601.084 "/>
<polyline clip-path="url(#clip562)" style="stroke:#000000; stroke-linecap:round; stroke-linejoin:round; stroke-width:4; stroke-opacity:0.8; fill:none" points="2291.89,441.288 2291.89,86.1857 "/>
<line clip-path="url(#clip562)" x1="279.091" y1="1240.27" x2="247.091" y2="1240.27" style="stroke:#000000; stroke-width:4; stroke-opacity:1"/>
<line clip-path="url(#clip562)" x1="279.091" y1="1062.72" x2="247.091" y2="1062.72" style="stroke:#000000; stroke-width:4; stroke-opacity:1"/>
<line clip-path="url(#clip562)" x1="955.358" y1="1053.84" x2="923.358" y2="1053.84" style="stroke:#000000; stroke-width:4; stroke-opacity:1"/>
<line clip-path="url(#clip562)" x1="955.358" y1="894.044" x2="923.358" y2="894.044" style="stroke:#000000; stroke-width:4; stroke-opacity:1"/>
<line clip-path="url(#clip562)" x1="1631.63" y1="814.146" x2="1599.63" y2="814.146" style="stroke:#000000; stroke-width:4; stroke-opacity:1"/>
<line clip-path="url(#clip562)" x1="1631.63" y1="601.084" x2="1599.63" y2="601.084" style="stroke:#000000; stroke-width:4; stroke-opacity:1"/>
<line clip-path="url(#clip562)" x1="2307.89" y1="441.288" x2="2275.89" y2="441.288" style="stroke:#000000; stroke-width:4; stroke-opacity:1"/>
<line clip-path="url(#clip562)" x1="2307.89" y1="86.1857" x2="2275.89" y2="86.1857" style="stroke:#000000; stroke-width:4; stroke-opacity:1"/>
<circle clip-path="url(#clip562)" cx="263.091" cy="1151.49" r="14.4" fill="#009af9" fill-rule="evenodd" fill-opacity="1" stroke="#000000" stroke-opacity="1" stroke-width="3.2"/>
<circle clip-path="url(#clip562)" cx="939.358" cy="973.942" r="14.4" fill="#009af9" fill-rule="evenodd" fill-opacity="1" stroke="#000000" stroke-opacity="1" stroke-width="3.2"/>
<circle clip-path="url(#clip562)" cx="1615.63" cy="707.615" r="14.4" fill="#009af9" fill-rule="evenodd" fill-opacity="1" stroke="#000000" stroke-opacity="1" stroke-width="3.2"/>
<circle clip-path="url(#clip562)" cx="2291.89" cy="263.737" r="14.4" fill="#009af9" fill-rule="evenodd" fill-opacity="1" stroke="#000000" stroke-opacity="1" stroke-width="3.2"/>
<polyline clip-path="url(#clip562)" style="stroke:#ff0000; stroke-linecap:round; stroke-linejoin:round; stroke-width:8; stroke-opacity:1; fill:none" points="263.091,1195.16 267.157,1193.58 271.223,1191.99 275.289,1190.41 279.354,1188.83 283.42,1187.24 287.486,1185.66 291.552,1184.08 295.617,1182.5 299.683,1180.91 303.749,1179.33 307.815,1177.75 311.88,1176.16 315.946,1174.58 320.012,1173 324.077,1171.41 328.143,1169.83 332.209,1168.25 336.275,1166.67 340.34,1165.08 344.406,1163.5 348.472,1161.92 352.538,1160.33 356.603,1158.75 360.669,1157.17 364.735,1155.59 368.801,1154 372.866,1152.42 376.932,1150.84 380.998,1149.25 385.063,1147.67 389.129,1146.09 393.195,1144.51 397.261,1142.92 401.326,1141.34 405.392,1139.76 409.458,1138.17 413.524,1136.59 417.589,1135.01 421.655,1133.42 425.721,1131.84 429.787,1130.26 433.852,1128.68 437.918,1127.09 441.984,1125.51 446.049,1123.93 450.115,1122.34 454.181,1120.76 458.247,1119.18 462.312,1117.6 466.378,1116.01 470.444,1114.43 474.51,1112.85 478.575,1111.26 482.641,1109.68 486.707,1108.1 490.772,1106.52 494.838,1104.93 498.904,1103.35 502.97,1101.77 507.035,1100.18 511.101,1098.6 515.167,1097.02 519.233,1095.44 523.298,1093.85 527.364,1092.27 531.43,1090.69 535.496,1089.1 539.561,1087.52 543.627,1085.94 547.693,1084.35 551.758,1082.77 555.824,1081.19 559.89,1079.61 563.956,1078.02 568.021,1076.44 572.087,1074.86 576.153,1073.27 580.219,1071.69 584.284,1070.11 588.35,1068.53 592.416,1066.94 596.482,1065.36 600.547,1063.78 604.613,1062.19 608.679,1060.61 612.744,1059.03 616.81,1057.45 620.876,1055.86 624.942,1054.28 629.007,1052.7 633.073,1051.11 637.139,1049.53 641.205,1047.95 645.27,1046.36 649.336,1044.78 653.402,1043.2 657.468,1041.62 661.533,1040.03 665.599,1038.45 669.665,1036.87 673.73,1035.28 677.796,1033.7 681.862,1032.12 685.928,1030.54 689.993,1028.95 694.059,1027.37 698.125,1025.79 702.191,1024.2 706.256,1022.62 710.322,1021.04 714.388,1019.46 718.453,1017.87 722.519,1016.29 726.585,1014.71 730.651,1013.12 734.716,1011.54 738.782,1009.96 742.848,1008.38 746.914,1006.79 750.979,1005.21 755.045,1003.63 759.111,1002.04 763.177,1000.46 767.242,998.878 771.308,997.295 775.374,995.712 779.439,994.129 783.505,992.546 787.571,990.963 791.637,989.38 795.702,987.797 799.768,986.214 803.834,984.631 807.9,983.049 811.965,981.466 816.031,979.883 820.097,978.3 824.163,976.717 828.228,975.134 832.294,973.551 836.36,971.968 840.425,970.385 844.491,968.802 848.557,967.219 852.623,965.637 856.688,964.054 860.754,962.471 864.82,960.888 868.886,959.305 872.951,957.722 877.017,956.139 881.083,954.556 885.149,952.973 889.214,951.39 893.28,949.807 897.346,948.225 901.411,946.642 905.477,945.059 909.543,943.476 913.609,941.893 917.674,940.31 921.74,938.727 925.806,937.144 929.872,935.561 933.937,933.978 938.003,932.395 942.069,930.813 946.135,929.23 950.2,927.647 954.266,926.064 958.332,924.481 962.397,922.898 966.463,921.315 970.529,919.732 974.595,918.149 978.66,916.566 982.726,914.983 986.792,913.401 990.858,911.818 994.923,910.235 998.989,908.652 1003.05,907.069 1007.12,905.486 1011.19,903.903 1015.25,902.32 1019.32,900.737 1023.38,899.154 1027.45,897.571 1031.51,895.989 1035.58,894.406 1039.65,892.823 1043.71,891.24 1047.78,889.657 1051.84,888.074 1055.91,886.491 1059.98,884.908 1064.04,883.325 1068.11,881.742 1072.17,880.159 1076.24,878.577 1080.3,876.994 1084.37,875.411 1088.44,873.828 1092.5,872.245 1096.57,870.662 1100.63,869.079 1104.7,867.496 1108.76,865.913 1112.83,864.33 1116.9,862.747 1120.96,861.165 1125.03,859.582 1129.09,857.999 1133.16,856.416 1137.22,854.833 1141.29,853.25 1145.36,851.667 1149.42,850.084 1153.49,848.501 1157.55,846.918 1161.62,845.335 1165.68,843.753 1169.75,842.17 1173.82,840.587 1177.88,839.004 1181.95,837.421 1186.01,835.838 1190.08,834.255 1194.14,832.672 1198.21,831.089 1202.28,829.506 1206.34,827.923 1210.41,826.341 1214.47,824.758 1218.54,823.175 1222.6,821.592 1226.67,820.009 1230.74,818.426 1234.8,816.843 1238.87,815.26 1242.93,813.677 1247,812.094 1251.06,810.511 1255.13,808.929 1259.2,807.346 1263.26,805.763 1267.33,804.18 1271.39,802.597 1275.46,801.014 1279.52,799.431 1283.59,797.848 1287.66,796.265 1291.72,794.682 1295.79,793.099 1299.85,791.517 1303.92,789.934 1307.98,788.351 1312.05,786.768 1316.12,785.185 1320.18,783.602 1324.25,782.019 1328.31,780.436 1332.38,778.853 1336.44,777.27 1340.51,775.687 1344.58,774.105 1348.64,772.522 1352.71,770.939 1356.77,769.356 1360.84,767.773 1364.9,766.19 1368.97,764.607 1373.04,763.024 1377.1,761.441 1381.17,759.858 1385.23,758.275 1389.3,756.693 1393.37,755.11 1397.43,753.527 1401.5,751.944 1405.56,750.361 1409.63,748.778 1413.69,747.195 1417.76,745.612 1421.83,744.029 1425.89,742.446 1429.96,740.863 1434.02,739.281 1438.09,737.698 1442.15,736.115 1446.22,734.532 1450.29,732.949 1454.35,731.366 1458.42,729.783 1462.48,728.2 1466.55,726.617 1470.61,725.034 1474.68,723.451 1478.75,721.869 1482.81,720.286 1486.88,718.703 1490.94,717.12 1495.01,715.537 1499.07,713.954 1503.14,712.371 1507.21,710.788 1511.27,709.205 1515.34,707.622 1519.4,706.039 1523.47,704.457 1527.53,702.874 1531.6,701.291 1535.67,699.708 1539.73,698.125 1543.8,696.542 1547.86,694.959 1551.93,693.376 1555.99,691.793 1560.06,690.21 1564.13,688.627 1568.19,687.045 1572.26,685.462 1576.32,683.879 1580.39,682.296 1584.45,680.713 1588.52,679.13 1592.59,677.547 1596.65,675.964 1600.72,674.381 1604.78,672.798 1608.85,671.215 1612.91,669.633 1616.98,668.05 1621.05,666.467 1625.11,664.884 1629.18,663.301 1633.24,661.718 1637.31,660.135 1641.37,658.552 1645.44,656.969 1649.51,655.386 1653.57,653.803 1657.64,652.221 1661.7,650.638 1665.77,649.055 1669.83,647.472 1673.9,645.889 1677.97,644.306 1682.03,642.723 1686.1,641.14 1690.16,639.557 1694.23,637.974 1698.29,636.391 1702.36,634.809 1706.43,633.226 1710.49,631.643 1714.56,630.06 1718.62,628.477 1722.69,626.894 1726.76,625.311 1730.82,623.728 1734.89,622.145 1738.95,620.562 1743.02,618.979 1747.08,617.397 1751.15,615.814 1755.22,614.231 1759.28,612.648 1763.35,611.065 1767.41,609.482 1771.48,607.899 1775.54,606.316 1779.61,604.733 1783.68,603.15 1787.74,601.567 1791.81,599.985 1795.87,598.402 1799.94,596.819 1804,595.236 1808.07,593.653 1812.14,592.07 1816.2,590.487 1820.27,588.904 1824.33,587.321 1828.4,585.738 1832.46,584.155 1836.53,582.573 1840.6,580.99 1844.66,579.407 1848.73,577.824 1852.79,576.241 1856.86,574.658 1860.92,573.075 1864.99,571.492 1869.06,569.909 1873.12,568.326 1877.19,566.743 1881.25,565.161 1885.32,563.578 1889.38,561.995 1893.45,560.412 1897.52,558.829 1901.58,557.246 1905.65,555.663 1909.71,554.08 1913.78,552.497 1917.84,550.914 1921.91,549.331 1925.98,547.749 1930.04,546.166 1934.11,544.583 1938.17,543 1942.24,541.417 1946.3,539.834 1950.37,538.251 1954.44,536.668 1958.5,535.085 1962.57,533.502 1966.63,531.919 1970.7,530.337 1974.76,528.754 1978.83,527.171 1982.9,525.588 1986.96,524.005 1991.03,522.422 1995.09,520.839 1999.16,519.256 2003.22,517.673 2007.29,516.09 2011.36,514.507 2015.42,512.924 2019.49,511.342 2023.55,509.759 2027.62,508.176 2031.69,506.593 2035.75,505.01 2039.82,503.427 2043.88,501.844 2047.95,500.261 2052.01,498.678 2056.08,497.095 2060.15,495.512 2064.21,493.93 2068.28,492.347 2072.34,490.764 2076.41,489.181 2080.47,487.598 2084.54,486.015 2088.61,484.432 2092.67,482.849 2096.74,481.266 2100.8,479.683 2104.87,478.1 2108.93,476.518 2113,474.935 2117.07,473.352 2121.13,471.769 2125.2,470.186 2129.26,468.603 2133.33,467.02 2137.39,465.437 2141.46,463.854 2145.53,462.271 2149.59,460.688 2153.66,459.106 2157.72,457.523 2161.79,455.94 2165.85,454.357 2169.92,452.774 2173.99,451.191 2178.05,449.608 2182.12,448.025 2186.18,446.442 2190.25,444.859 2194.31,443.276 2198.38,441.694 2202.45,440.111 2206.51,438.528 2210.58,436.945 2214.64,435.362 2218.71,433.779 2222.77,432.196 2226.84,430.613 2230.91,429.03 2234.97,427.447 2239.04,425.864 2243.1,424.282 2247.17,422.699 2251.23,421.116 2255.3,419.533 2259.37,417.95 2263.43,416.367 2267.5,414.784 2271.56,413.201 2275.63,411.618 2279.69,410.035 2283.76,408.452 2287.83,406.87 2291.89,405.287 "/>
<polyline clip-path="url(#clip562)" style="stroke:#e26f46; stroke-linecap:round; stroke-linejoin:round; stroke-width:4; stroke-opacity:1; fill:none" points="263.091,1384.24 269.877,1380.56 276.662,1376.91 283.447,1373.27 290.233,1369.64 297.018,1366.01 303.803,1362.37 310.588,1358.74 317.374,1355.1 324.159,1351.47 330.944,1347.83 337.73,1344.2 344.515,1340.59 351.3,1337 358.085,1333.41 364.871,1329.82 371.656,1326.24 378.441,1322.65 385.227,1319.06 392.012,1315.47 398.797,1311.89 405.582,1308.34 412.368,1304.8 419.153,1301.25 425.938,1297.71 432.724,1294.17 439.509,1290.62 446.294,1287.08 453.079,1283.57 459.865,1280.07 466.65,1276.57 473.435,1273.07 480.221,1269.57 487.006,1266.07 493.791,1262.59 500.576,1259.13 507.362,1255.67 514.147,1252.22 520.932,1248.76 527.718,1245.3 534.503,1241.87 541.288,1238.46 548.073,1235.05 554.859,1231.63 561.644,1228.22 568.429,1224.82 575.215,1221.45 582,1218.08 588.785,1214.71 595.57,1211.34 602.356,1207.98 609.141,1204.66 615.926,1201.33 622.712,1198 629.497,1194.68 636.282,1191.38 643.067,1188.1 649.853,1184.82 656.638,1181.54 663.423,1178.27 670.209,1175.03 676.994,1171.79 683.779,1168.56 690.564,1165.32 697.35,1162.13 704.135,1158.94 710.92,1155.75 717.706,1152.56 724.491,1149.41 731.276,1146.26 738.061,1143.12 744.847,1139.98 751.632,1136.88 758.417,1133.78 765.203,1130.68 771.988,1127.59 778.773,1124.54 785.558,1121.49 792.344,1118.44 799.129,1115.41 805.914,1112.41 812.7,1109.4 819.485,1106.4 826.27,1103.44 833.055,1100.48 839.841,1097.53 846.626,1094.58 853.411,1091.68 860.197,1088.77 866.982,1085.87 873.767,1082.99 880.552,1080.14 887.338,1077.28 894.123,1074.43 900.908,1071.63 907.694,1068.83 914.479,1066.02 921.264,1063.24 928.049,1060.49 934.835,1057.74 941.62,1054.99 948.405,1052.28 955.191,1049.59 961.976,1046.89 968.761,1044.2 975.546,1041.56 982.332,1038.91 989.117,1036.27 995.902,1033.65 1002.69,1031.07 1009.47,1028.48 1016.26,1025.89 1023.04,1023.34 1029.83,1020.81 1036.61,1018.28 1043.4,1015.74 1050.18,1013.26 1056.97,1010.79 1063.76,1008.31 1070.54,1005.83 1077.33,1003.41 1084.11,1000.99 1090.9,998.573 1097.68,996.154 1104.47,993.786 1111.25,991.425 1118.04,989.065 1124.82,986.704 1131.61,984.381 1138.39,982.079 1145.18,979.777 1151.96,977.475 1158.75,975.186 1165.53,972.943 1172.32,970.701 1179.11,968.458 1185.89,966.216 1192.68,964.008 1199.46,961.825 1206.25,959.643 1213.03,957.46 1219.82,955.278 1226.6,953.136 1233.39,951.014 1240.17,948.892 1246.96,946.77 1253.74,944.648 1260.53,942.552 1267.31,940.491 1274.1,938.43 1280.88,936.369 1287.67,934.308 1294.45,932.247 1301.24,930.235 1308.03,928.236 1314.81,926.236 1321.6,924.236 1328.38,922.236 1335.17,920.236 1341.95,918.279 1348.74,916.341 1355.52,914.403 1362.31,912.465 1369.09,910.526 1375.88,908.588 1382.66,906.65 1389.45,904.772 1396.23,902.896 1403.02,901.019 1409.8,899.143 1416.59,897.266 1423.38,895.389 1430.16,893.513 1436.95,891.668 1443.73,889.853 1450.52,888.038 1457.3,886.223 1464.09,884.408 1470.87,882.593 1477.66,880.778 1484.44,878.964 1491.23,877.152 1498.01,875.399 1504.8,873.646 1511.58,871.892 1518.37,870.139 1525.15,868.386 1531.94,866.632 1538.73,864.879 1545.51,863.125 1552.3,861.372 1559.08,859.638 1565.87,857.946 1572.65,856.254 1579.44,854.562 1586.22,852.87 1593.01,851.177 1599.79,849.485 1606.58,847.793 1613.36,846.101 1620.15,844.409 1626.93,842.717 1633.72,841.024 1640.5,839.383 1647.29,837.751 1654.08,836.119 1660.86,834.488 1667.65,832.856 1674.43,831.225 1681.22,829.593 1688,827.961 1694.79,826.33 1701.57,824.698 1708.36,823.067 1715.14,821.435 1721.93,819.803 1728.71,818.172 1735.5,816.591 1742.28,815.019 1749.07,813.448 1755.85,811.876 1762.64,810.304 1769.42,808.732 1776.21,807.16 1783,805.588 1789.78,804.016 1796.57,802.444 1803.35,800.873 1810.14,799.301 1816.92,797.729 1823.71,796.157 1830.49,794.585 1837.28,793.013 1844.06,791.441 1850.85,789.879 1857.63,788.366 1864.42,786.852 1871.2,785.339 1877.99,783.826 1884.77,782.312 1891.56,780.799 1898.35,779.285 1905.13,777.772 1911.92,776.259 1918.7,774.745 1925.49,773.232 1932.27,771.718 1939.06,770.205 1945.84,768.692 1952.63,767.178 1959.41,765.665 1966.2,764.151 1972.98,762.638 1979.77,761.125 1986.55,759.611 1993.34,758.098 2000.12,756.584 2006.91,755.071 2013.7,753.585 2020.48,752.128 2027.27,750.672 2034.05,749.215 2040.84,747.758 2047.62,746.302 2054.41,744.845 2061.19,743.388 2067.98,741.931 2074.76,740.475 2081.55,739.018 2088.33,737.561 2095.12,736.105 2101.9,734.648 2108.69,733.191 2115.47,731.734 2122.26,730.278 2129.05,728.821 2135.83,727.364 2142.62,725.908 2149.4,724.451 2156.19,722.994 2162.97,721.537 2169.76,720.081 2176.54,718.624 2183.33,717.167 2190.11,715.711 2196.9,714.254 2203.68,712.797 2210.47,711.34 2217.25,709.884 2224.04,708.427 2230.82,706.97 2237.61,705.514 2244.39,704.058 2251.18,702.655 2257.97,701.252 2264.75,699.85 2271.54,698.447 2278.32,697.044 2285.11,695.642 2291.89,694.239 "/>
<polyline clip-path="url(#clip562)" style="stroke:#e26f46; stroke-linecap:round; stroke-linejoin:round; stroke-width:4; stroke-opacity:1; fill:none" points="263.091,1006.47 269.877,1004.83 276.662,1003.14 283.447,1001.46 290.233,999.773 297.018,998.088 303.803,996.403 310.588,994.719 317.374,993.034 324.159,991.349 330.944,989.665 337.73,987.98 344.515,986.295 351.3,984.611 358.085,982.926 364.871,981.241 371.656,979.557 378.441,977.872 385.227,976.187 392.012,974.502 398.797,972.818 405.582,971.133 412.368,969.448 419.153,967.764 425.938,966.079 432.724,964.282 439.509,962.481 446.294,960.679 453.079,958.878 459.865,957.077 466.65,955.276 473.435,953.475 480.221,951.674 487.006,949.873 493.791,948.072 500.576,946.271 507.362,944.47 514.147,942.669 520.932,940.868 527.718,939.067 534.503,937.266 541.288,935.397 548.073,933.484 554.859,931.571 561.644,929.657 568.429,927.744 575.215,925.831 582,923.918 588.785,922.005 595.57,920.091 602.356,918.178 609.141,916.265 615.926,914.352 622.712,912.438 629.497,910.419 636.282,908.397 643.067,906.375 649.853,904.353 656.638,902.331 663.423,900.309 670.209,898.287 676.994,896.265 683.779,894.243 690.564,892.221 697.35,890.139 704.135,888.012 710.92,885.884 717.706,883.756 724.491,881.628 731.276,879.5 738.061,877.373 744.847,875.245 751.632,873.117 758.417,870.927 765.203,868.697 771.988,866.466 778.773,864.236 785.558,862.005 792.344,859.775 799.129,857.544 805.914,855.314 812.7,853.018 819.485,850.688 826.27,848.358 833.055,846.028 839.841,843.697 846.626,841.367 853.411,839.037 860.197,836.666 866.982,834.239 873.767,831.812 880.552,829.386 887.338,826.959 894.123,824.532 900.908,822.105 907.694,819.612 914.479,817.091 921.264,814.57 928.049,812.05 934.835,809.529 941.62,807.009 948.405,804.453 955.191,801.842 961.976,799.231 968.761,796.62 975.546,794.009 982.332,791.398 989.117,788.756 995.902,786.057 1002.69,783.359 1009.47,780.66 1016.26,777.962 1023.04,775.264 1029.83,772.521 1036.61,769.739 1043.4,766.956 1050.18,764.173 1056.97,761.391 1063.76,758.608 1070.54,755.758 1077.33,752.894 1084.11,750.031 1090.9,747.167 1097.68,744.303 1104.47,741.422 1111.25,738.48 1118.04,735.539 1124.82,732.598 1131.61,729.656 1138.39,726.715 1145.18,723.724 1151.96,720.708 1158.75,717.692 1165.53,714.676 1172.32,711.66 1179.11,708.638 1185.89,705.55 1192.68,702.463 1199.46,699.375 1206.25,696.288 1213.03,693.2 1219.82,690.081 1226.6,686.926 1233.39,683.77 1240.17,680.614 1246.96,677.459 1253.74,674.303 1260.53,671.098 1267.31,667.877 1274.1,664.656 1280.88,661.436 1287.67,658.215 1294.45,654.994 1301.24,651.716 1308.03,648.433 1314.81,645.15 1321.6,641.868 1328.38,638.585 1335.17,635.302 1341.95,631.965 1348.74,628.623 1355.52,625.282 1362.31,621.94 1369.09,618.598 1375.88,615.257 1382.66,611.875 1389.45,608.477 1396.23,605.08 1403.02,601.682 1409.8,598.285 1416.59,594.887 1423.38,591.476 1430.16,588.026 1436.95,584.575 1443.73,581.125 1450.52,577.674 1457.3,574.223 1464.09,570.773 1470.87,567.299 1477.66,563.799 1484.44,560.298 1491.23,556.797 1498.01,553.297 1504.8,549.796 1511.58,546.295 1518.37,542.781 1525.15,539.233 1531.94,535.685 1538.73,532.137 1545.51,528.589 1552.3,525.041 1559.08,521.493 1565.87,517.945 1572.65,514.366 1579.44,510.774 1586.22,507.181 1593.01,503.589 1599.79,499.996 1606.58,496.404 1613.36,492.811 1620.15,489.219 1626.93,485.604 1633.72,481.969 1640.5,478.335 1647.29,474.7 1654.08,471.066 1660.86,467.432 1667.65,463.797 1674.43,460.163 1681.22,456.528 1688,452.865 1694.79,449.191 1701.57,445.517 1708.36,441.843 1715.14,438.17 1721.93,434.496 1728.71,430.822 1735.5,427.148 1742.28,423.475 1749.07,419.794 1755.85,416.084 1762.64,412.373 1769.42,408.663 1776.21,404.952 1783,401.242 1789.78,397.531 1796.57,393.821 1803.35,390.11 1810.14,386.4 1816.92,382.689 1823.71,378.955 1830.49,375.21 1837.28,371.465 1844.06,367.72 1850.85,363.975 1857.63,360.231 1864.42,356.486 1871.2,352.741 1877.99,348.996 1884.77,345.251 1891.56,341.506 1898.35,337.759 1905.13,333.982 1911.92,330.206 1918.7,326.429 1925.49,322.652 1932.27,318.875 1939.06,315.098 1945.84,311.322 1952.63,307.545 1959.41,303.768 1966.2,299.991 1972.98,296.215 1979.77,292.438 1986.55,288.659 1993.34,284.853 2000.12,281.046 2006.91,277.24 2013.7,273.433 2020.48,269.627 2027.27,265.821 2034.05,262.014 2040.84,258.208 2047.62,254.402 2054.41,250.595 2061.19,246.789 2067.98,242.982 2074.76,239.176 2081.55,235.37 2088.33,231.554 2095.12,227.72 2101.9,223.887 2108.69,220.053 2115.47,216.219 2122.26,212.386 2129.05,208.552 2135.83,204.718 2142.62,200.884 2149.4,197.051 2156.19,193.217 2162.97,189.383 2169.76,185.55 2176.54,181.716 2183.33,177.882 2190.11,174.048 2196.9,170.215 2203.68,166.371 2210.47,162.512 2217.25,158.653 2224.04,154.794 2230.82,150.935 2237.61,147.077 2244.39,143.218 2251.18,139.359 2257.97,135.5 2264.75,131.641 2271.54,127.782 2278.32,123.924 2285.11,120.065 2291.89,116.206 "/>
<path clip-path="url(#clip560)" d="M273.912 300.469 L935.235 300.469 L935.235 93.1086 L273.912 93.1086  Z" fill="#ffffff" fill-rule="evenodd" fill-opacity="1"/>
<polyline clip-path="url(#clip560)" style="stroke:#000000; stroke-linecap:round; stroke-linejoin:round; stroke-width:4; stroke-opacity:1; fill:none" points="273.912,300.469 935.235,300.469 935.235,93.1086 273.912,93.1086 273.912,300.469 "/>
<circle clip-path="url(#clip560)" cx="369.491" cy="144.949" r="20.48" fill="#009af9" fill-rule="evenodd" fill-opacity="1" stroke="#000000" stroke-opacity="1" stroke-width="4.55111"/>
<path clip-path="url(#clip560)" d="M469.746 131.511 L469.746 158.386 L475.394 158.386 Q482.547 158.386 485.857 155.145 Q489.19 151.905 489.19 144.914 Q489.19 137.969 485.857 134.752 Q482.547 131.511 475.394 131.511 L469.746 131.511 M465.07 127.669 L474.676 127.669 Q484.723 127.669 489.422 131.858 Q494.121 136.025 494.121 144.914 Q494.121 153.849 489.398 158.039 Q484.676 162.229 474.676 162.229 L465.07 162.229 L465.07 127.669 Z" fill="#000000" fill-rule="nonzero" fill-opacity="1" /><path clip-path="url(#clip560)" d="M513.171 149.196 Q508.009 149.196 506.019 150.377 Q504.028 151.557 504.028 154.405 Q504.028 156.673 505.509 158.016 Q507.014 159.335 509.583 159.335 Q513.125 159.335 515.255 156.835 Q517.408 154.312 517.408 150.145 L517.408 149.196 L513.171 149.196 M521.667 147.437 L521.667 162.229 L517.408 162.229 L517.408 158.293 Q515.949 160.655 513.773 161.789 Q511.597 162.9 508.449 162.9 Q504.468 162.9 502.107 160.678 Q499.769 158.432 499.769 154.682 Q499.769 150.307 502.685 148.085 Q505.625 145.863 511.435 145.863 L517.408 145.863 L517.408 145.446 Q517.408 142.507 515.463 140.909 Q513.542 139.289 510.046 139.289 Q507.824 139.289 505.718 139.821 Q503.611 140.354 501.667 141.419 L501.667 137.483 Q504.005 136.581 506.204 136.141 Q508.403 135.678 510.486 135.678 Q516.111 135.678 518.889 138.594 Q521.667 141.511 521.667 147.437 Z" fill="#000000" fill-rule="nonzero" fill-opacity="1" /><path clip-path="url(#clip560)" d="M534.653 128.942 L534.653 136.303 L543.426 136.303 L543.426 139.613 L534.653 139.613 L534.653 153.687 Q534.653 156.858 535.509 157.761 Q536.389 158.664 539.051 158.664 L543.426 158.664 L543.426 162.229 L539.051 162.229 Q534.12 162.229 532.245 160.4 Q530.37 158.548 530.37 153.687 L530.37 139.613 L527.245 139.613 L527.245 136.303 L530.37 136.303 L530.37 128.942 L534.653 128.942 Z" fill="#000000" fill-rule="nonzero" fill-opacity="1" /><path clip-path="url(#clip560)" d="M560.81 149.196 Q555.648 149.196 553.657 150.377 Q551.667 151.557 551.667 154.405 Q551.667 156.673 553.148 158.016 Q554.653 159.335 557.222 159.335 Q560.764 159.335 562.893 156.835 Q565.046 154.312 565.046 150.145 L565.046 149.196 L560.81 149.196 M569.305 147.437 L569.305 162.229 L565.046 162.229 L565.046 158.293 Q563.588 160.655 561.412 161.789 Q559.236 162.9 556.088 162.9 Q552.106 162.9 549.745 160.678 Q547.407 158.432 547.407 154.682 Q547.407 150.307 550.324 148.085 Q553.264 145.863 559.074 145.863 L565.046 145.863 L565.046 145.446 Q565.046 142.507 563.102 140.909 Q561.18 139.289 557.685 139.289 Q555.463 139.289 553.356 139.821 Q551.25 140.354 549.305 141.419 L549.305 137.483 Q551.643 136.581 553.843 136.141 Q556.042 135.678 558.125 135.678 Q563.75 135.678 566.528 138.594 Q569.305 141.511 569.305 147.437 Z" fill="#000000" fill-rule="nonzero" fill-opacity="1" /><polyline clip-path="url(#clip560)" style="stroke:#ff0000; stroke-linecap:round; stroke-linejoin:round; stroke-width:8; stroke-opacity:1; fill:none" points="297.807,196.789 441.175,196.789 "/>
<path clip-path="url(#clip560)" d="M465.07 179.509 L484.931 179.509 L484.931 183.444 L469.746 183.444 L469.746 193.629 L483.449 193.629 L483.449 197.564 L469.746 197.564 L469.746 214.069 L465.07 214.069 L465.07 179.509 Z" fill="#000000" fill-rule="nonzero" fill-opacity="1" /><path clip-path="url(#clip560)" d="M488.704 188.143 L492.963 188.143 L492.963 214.069 L488.704 214.069 L488.704 188.143 M488.704 178.05 L492.963 178.05 L492.963 183.444 L488.704 183.444 L488.704 178.05 Z" fill="#000000" fill-rule="nonzero" fill-opacity="1" /><path clip-path="url(#clip560)" d="M506.088 180.782 L506.088 188.143 L514.861 188.143 L514.861 191.453 L506.088 191.453 L506.088 205.527 Q506.088 208.698 506.945 209.601 Q507.824 210.504 510.486 210.504 L514.861 210.504 L514.861 214.069 L510.486 214.069 Q505.556 214.069 503.681 212.24 Q501.806 210.388 501.806 205.527 L501.806 191.453 L498.681 191.453 L498.681 188.143 L501.806 188.143 L501.806 180.782 L506.088 180.782 Z" fill="#000000" fill-rule="nonzero" fill-opacity="1" /><path clip-path="url(#clip560)" d="M533.056 188.143 L537.315 188.143 L542.639 208.374 L547.94 188.143 L552.963 188.143 L558.287 208.374 L563.588 188.143 L567.847 188.143 L561.065 214.069 L556.042 214.069 L550.463 192.819 L544.861 214.069 L539.838 214.069 L533.056 188.143 Z" fill="#000000" fill-rule="nonzero" fill-opacity="1" /><path clip-path="url(#clip560)" d="M574.305 188.143 L578.565 188.143 L578.565 214.069 L574.305 214.069 L574.305 188.143 M574.305 178.05 L578.565 178.05 L578.565 183.444 L574.305 183.444 L574.305 178.05 Z" fill="#000000" fill-rule="nonzero" fill-opacity="1" /><path clip-path="url(#clip560)" d="M591.69 180.782 L591.69 188.143 L600.463 188.143 L600.463 191.453 L591.69 191.453 L591.69 205.527 Q591.69 208.698 592.546 209.601 Q593.426 210.504 596.088 210.504 L600.463 210.504 L600.463 214.069 L596.088 214.069 Q591.157 214.069 589.282 212.24 Q587.407 210.388 587.407 205.527 L587.407 191.453 L584.282 191.453 L584.282 188.143 L587.407 188.143 L587.407 180.782 L591.69 180.782 Z" fill="#000000" fill-rule="nonzero" fill-opacity="1" /><path clip-path="url(#clip560)" d="M627.615 198.421 L627.615 214.069 L623.356 214.069 L623.356 198.559 Q623.356 194.879 621.921 193.05 Q620.486 191.222 617.615 191.222 Q614.166 191.222 612.176 193.421 Q610.185 195.62 610.185 199.416 L610.185 214.069 L605.902 214.069 L605.902 178.05 L610.185 178.05 L610.185 192.171 Q611.713 189.833 613.773 188.675 Q615.856 187.518 618.564 187.518 Q623.032 187.518 625.324 190.296 Q627.615 193.05 627.615 198.421 Z" fill="#000000" fill-rule="nonzero" fill-opacity="1" /><path clip-path="url(#clip560)" d="M667.754 197.865 Q669.259 198.374 670.671 200.041 Q672.106 201.708 673.541 204.624 L678.286 214.069 L673.263 214.069 L668.842 205.203 Q667.129 201.731 665.509 200.596 Q663.911 199.462 661.134 199.462 L656.041 199.462 L656.041 214.069 L651.365 214.069 L651.365 179.509 L661.921 179.509 Q667.847 179.509 670.763 181.985 Q673.68 184.462 673.68 189.462 Q673.68 192.726 672.152 194.879 Q670.647 197.032 667.754 197.865 M656.041 183.351 L656.041 195.62 L661.921 195.62 Q665.3 195.62 667.013 194.069 Q668.749 192.495 668.749 189.462 Q668.749 186.43 667.013 184.902 Q665.3 183.351 661.921 183.351 L656.041 183.351 Z" fill="#000000" fill-rule="nonzero" fill-opacity="1" /><path clip-path="url(#clip560)" d="M705.022 180.643 L705.022 185.203 Q702.36 183.93 699.999 183.305 Q697.638 182.68 695.439 182.68 Q691.62 182.68 689.536 184.161 Q687.476 185.643 687.476 188.374 Q687.476 190.666 688.842 191.847 Q690.231 193.004 694.073 193.722 L696.897 194.3 Q702.129 195.296 704.606 197.819 Q707.106 200.319 707.106 204.532 Q707.106 209.555 703.726 212.147 Q700.37 214.74 693.865 214.74 Q691.411 214.74 688.633 214.184 Q685.879 213.629 682.916 212.541 L682.916 207.726 Q685.763 209.323 688.495 210.133 Q691.226 210.944 693.865 210.944 Q697.87 210.944 700.045 209.37 Q702.221 207.796 702.221 204.879 Q702.221 202.333 700.647 200.897 Q699.096 199.462 695.532 198.745 L692.684 198.189 Q687.453 197.147 685.115 194.925 Q682.777 192.703 682.777 188.745 Q682.777 184.161 685.995 181.522 Q689.235 178.884 694.907 178.884 Q697.337 178.884 699.86 179.323 Q702.383 179.763 705.022 180.643 Z" fill="#000000" fill-rule="nonzero" fill-opacity="1" /><path clip-path="url(#clip560)" d="M714.397 179.509 L736.249 179.509 L736.249 183.444 L719.073 183.444 L719.073 193.675 L735.531 193.675 L735.531 197.61 L719.073 197.61 L719.073 210.133 L736.666 210.133 L736.666 214.069 L714.397 214.069 L714.397 179.509 Z" fill="#000000" fill-rule="nonzero" fill-opacity="1" /><path clip-path="url(#clip560)" d="M774.397 199.647 L774.397 203.791 Q771.966 205.596 769.883 206.407 Q767.823 207.194 765.577 207.194 Q763.031 207.194 759.652 205.828 Q759.42 205.735 759.258 205.666 Q759.119 205.62 758.772 205.481 Q755.184 204.069 753.008 204.069 Q750.971 204.069 748.98 204.948 Q746.99 205.828 744.721 207.772 L744.721 203.629 Q747.152 201.823 749.212 201.036 Q751.295 200.226 753.541 200.226 Q756.087 200.226 759.49 201.592 Q759.744 201.708 759.86 201.754 Q759.999 201.8 760.346 201.939 Q763.934 203.351 766.11 203.351 Q768.101 203.351 770.045 202.495 Q772.013 201.615 774.397 199.647 M774.397 190.643 L774.397 194.763 Q771.966 196.592 769.883 197.402 Q767.823 198.189 765.577 198.189 Q763.031 198.189 759.652 196.823 Q759.42 196.731 759.258 196.661 Q759.119 196.615 758.772 196.476 Q755.184 195.064 753.008 195.064 Q750.971 195.064 748.98 195.944 Q746.99 196.823 744.721 198.745 L744.721 194.624 Q747.152 192.819 749.212 192.032 Q751.295 191.222 753.541 191.222 Q756.087 191.222 759.49 192.587 Q759.721 192.68 759.837 192.726 Q759.999 192.796 760.346 192.934 Q763.934 194.347 766.11 194.347 Q768.101 194.347 770.045 193.49 Q772.013 192.61 774.397 190.643 Z" fill="#000000" fill-rule="nonzero" fill-opacity="1" /><path clip-path="url(#clip560)" d="M794.489 182.587 Q790.878 182.587 789.05 186.152 Q787.244 189.694 787.244 196.823 Q787.244 203.93 789.05 207.495 Q790.878 211.036 794.489 211.036 Q798.124 211.036 799.929 207.495 Q801.758 203.93 801.758 196.823 Q801.758 189.694 799.929 186.152 Q798.124 182.587 794.489 182.587 M794.489 178.884 Q800.3 178.884 803.355 183.49 Q806.434 188.073 806.434 196.823 Q806.434 205.55 803.355 210.157 Q800.3 214.74 794.489 214.74 Q788.679 214.74 785.601 210.157 Q782.545 205.55 782.545 196.823 Q782.545 188.073 785.601 183.49 Q788.679 178.884 794.489 178.884 Z" fill="#000000" fill-rule="nonzero" fill-opacity="1" /><path clip-path="url(#clip560)" d="M814.651 208.189 L819.536 208.189 L819.536 214.069 L814.651 214.069 L814.651 208.189 Z" fill="#000000" fill-rule="nonzero" fill-opacity="1" /><path clip-path="url(#clip560)" d="M840.299 194.925 Q837.151 194.925 835.299 197.078 Q833.471 199.231 833.471 202.981 Q833.471 206.708 835.299 208.883 Q837.151 211.036 840.299 211.036 Q843.447 211.036 845.276 208.883 Q847.128 206.708 847.128 202.981 Q847.128 199.231 845.276 197.078 Q843.447 194.925 840.299 194.925 M849.582 180.273 L849.582 184.532 Q847.822 183.698 846.017 183.259 Q844.234 182.819 842.475 182.819 Q837.846 182.819 835.392 185.944 Q832.961 189.069 832.614 195.388 Q833.98 193.374 836.04 192.309 Q838.1 191.222 840.577 191.222 Q845.785 191.222 848.795 194.393 Q851.827 197.541 851.827 202.981 Q851.827 208.305 848.679 211.522 Q845.531 214.74 840.299 214.74 Q834.304 214.74 831.133 210.157 Q827.961 205.55 827.961 196.823 Q827.961 188.629 831.85 183.768 Q835.739 178.884 842.29 178.884 Q844.049 178.884 845.832 179.231 Q847.637 179.578 849.582 180.273 Z" fill="#000000" fill-rule="nonzero" fill-opacity="1" /><path clip-path="url(#clip560)" d="M874.049 195.434 Q877.406 196.152 879.281 198.421 Q881.179 200.689 881.179 204.022 Q881.179 209.138 877.66 211.939 Q874.142 214.74 867.66 214.74 Q865.484 214.74 863.17 214.3 Q860.878 213.883 858.424 213.027 L858.424 208.513 Q860.369 209.647 862.683 210.226 Q864.998 210.805 867.521 210.805 Q871.92 210.805 874.211 209.069 Q876.526 207.333 876.526 204.022 Q876.526 200.967 874.373 199.254 Q872.244 197.518 868.424 197.518 L864.396 197.518 L864.396 193.675 L868.609 193.675 Q872.058 193.675 873.887 192.309 Q875.716 190.921 875.716 188.328 Q875.716 185.666 873.818 184.254 Q871.943 182.819 868.424 182.819 Q866.503 182.819 864.304 183.235 Q862.105 183.652 859.466 184.532 L859.466 180.365 Q862.128 179.624 864.443 179.254 Q866.781 178.884 868.841 178.884 Q874.165 178.884 877.267 181.314 Q880.369 183.722 880.369 187.842 Q880.369 190.712 878.725 192.703 Q877.082 194.671 874.049 195.434 Z" fill="#000000" fill-rule="nonzero" fill-opacity="1" /><path clip-path="url(#clip560)" d="M904.211 195.434 Q907.567 196.152 909.442 198.421 Q911.341 200.689 911.341 204.022 Q911.341 209.138 907.822 211.939 Q904.304 214.74 897.822 214.74 Q895.646 214.74 893.331 214.3 Q891.04 213.883 888.586 213.027 L888.586 208.513 Q890.531 209.647 892.845 210.226 Q895.16 210.805 897.683 210.805 Q902.081 210.805 904.373 209.069 Q906.688 207.333 906.688 204.022 Q906.688 200.967 904.535 199.254 Q902.405 197.518 898.586 197.518 L894.558 197.518 L894.558 193.675 L898.771 193.675 Q902.22 193.675 904.049 192.309 Q905.878 190.921 905.878 188.328 Q905.878 185.666 903.98 184.254 Q902.105 182.819 898.586 182.819 Q896.665 182.819 894.466 183.235 Q892.267 183.652 889.628 184.532 L889.628 180.365 Q892.29 179.624 894.605 179.254 Q896.943 178.884 899.003 178.884 Q904.327 178.884 907.429 181.314 Q910.53 183.722 910.53 187.842 Q910.53 190.712 908.887 192.703 Q907.243 194.671 904.211 195.434 Z" fill="#000000" fill-rule="nonzero" fill-opacity="1" /><polyline clip-path="url(#clip560)" style="stroke:#e26f46; stroke-linecap:round; stroke-linejoin:round; stroke-width:4; stroke-opacity:1; fill:none" points="297.807,248.629 441.175,248.629 "/>
<path clip-path="url(#clip560)" d="M470.695 261.973 L487.014 261.973 L487.014 265.909 L465.07 265.909 L465.07 261.973 Q467.732 259.219 472.315 254.589 Q476.922 249.936 478.102 248.594 Q480.348 246.071 481.227 244.335 Q482.13 242.575 482.13 240.886 Q482.13 238.131 480.185 236.395 Q478.264 234.659 475.162 234.659 Q472.963 234.659 470.51 235.423 Q468.079 236.187 465.301 237.737 L465.301 233.015 Q468.125 231.881 470.579 231.302 Q473.033 230.724 475.07 230.724 Q480.44 230.724 483.635 233.409 Q486.829 236.094 486.829 240.585 Q486.829 242.714 486.019 244.636 Q485.232 246.534 483.125 249.126 Q482.547 249.798 479.445 253.015 Q476.343 256.21 470.695 261.973 Z" fill="#000000" fill-rule="nonzero" fill-opacity="1" /><path clip-path="url(#clip560)" d="M496.829 260.029 L501.713 260.029 L501.713 265.909 L496.829 265.909 L496.829 260.029 Z" fill="#000000" fill-rule="nonzero" fill-opacity="1" /><path clip-path="url(#clip560)" d="M521.898 234.427 Q518.287 234.427 516.458 237.992 Q514.653 241.534 514.653 248.663 Q514.653 255.77 516.458 259.335 Q518.287 262.876 521.898 262.876 Q525.532 262.876 527.338 259.335 Q529.167 255.77 529.167 248.663 Q529.167 241.534 527.338 237.992 Q525.532 234.427 521.898 234.427 M521.898 230.724 Q527.708 230.724 530.764 235.33 Q533.843 239.913 533.843 248.663 Q533.843 257.39 530.764 261.997 Q527.708 266.58 521.898 266.58 Q516.088 266.58 513.009 261.997 Q509.954 257.39 509.954 248.663 Q509.954 239.913 513.009 235.33 Q516.088 230.724 521.898 230.724 Z" fill="#000000" fill-rule="nonzero" fill-opacity="1" /><path clip-path="url(#clip560)" d="M551.505 243.362 Q547.986 243.362 546.088 245.909 Q544.097 248.571 544.097 252.969 Q544.097 257.622 546.065 260.307 Q548.056 262.969 551.505 262.969 Q554.907 262.969 556.898 260.284 Q558.889 257.598 558.889 252.969 Q558.889 248.733 556.898 245.909 Q555.069 243.362 551.505 243.362 M551.505 239.983 L565.648 239.983 L565.648 244.242 L560.88 244.242 Q563.403 247.853 563.403 252.969 Q563.403 259.335 560.231 262.946 Q557.06 266.58 551.505 266.58 Q545.926 266.58 542.778 262.946 Q539.606 259.335 539.606 252.969 Q539.606 246.557 542.778 242.969 Q545.393 239.983 551.505 239.983 Z" fill="#000000" fill-rule="nonzero" fill-opacity="1" /><path clip-path="url(#clip560)" d="M612.638 234.011 L612.638 238.941 Q610.277 236.742 607.592 235.654 Q604.93 234.566 601.921 234.566 Q595.995 234.566 592.847 238.2 Q589.699 241.812 589.699 248.663 Q589.699 255.492 592.847 259.126 Q595.995 262.737 601.921 262.737 Q604.93 262.737 607.592 261.649 Q610.277 260.561 612.638 258.362 L612.638 263.247 Q610.185 264.913 607.43 265.747 Q604.699 266.58 601.643 266.58 Q593.796 266.58 589.282 261.788 Q584.768 256.973 584.768 248.663 Q584.768 240.33 589.282 235.538 Q593.796 230.724 601.643 230.724 Q604.745 230.724 607.476 231.557 Q610.231 232.367 612.638 234.011 Z" fill="#000000" fill-rule="nonzero" fill-opacity="1" /><path clip-path="url(#clip560)" d="M629.722 242.969 Q626.296 242.969 624.305 245.654 Q622.314 248.316 622.314 252.969 Q622.314 257.622 624.282 260.307 Q626.273 262.969 629.722 262.969 Q633.124 262.969 635.115 260.284 Q637.106 257.598 637.106 252.969 Q637.106 248.362 635.115 245.677 Q633.124 242.969 629.722 242.969 M629.722 239.358 Q635.277 239.358 638.449 242.969 Q641.62 246.58 641.62 252.969 Q641.62 259.335 638.449 262.969 Q635.277 266.58 629.722 266.58 Q624.143 266.58 620.972 262.969 Q617.824 259.335 617.824 252.969 Q617.824 246.58 620.972 242.969 Q624.143 239.358 629.722 239.358 Z" fill="#000000" fill-rule="nonzero" fill-opacity="1" /><path clip-path="url(#clip560)" d="M670.231 250.261 L670.231 265.909 L665.972 265.909 L665.972 250.399 Q665.972 246.719 664.536 244.89 Q663.101 243.062 660.231 243.062 Q656.782 243.062 654.791 245.261 Q652.8 247.46 652.8 251.256 L652.8 265.909 L648.518 265.909 L648.518 239.983 L652.8 239.983 L652.8 244.011 Q654.328 241.673 656.388 240.515 Q658.472 239.358 661.18 239.358 Q665.647 239.358 667.939 242.136 Q670.231 244.89 670.231 250.261 Z" fill="#000000" fill-rule="nonzero" fill-opacity="1" /><path clip-path="url(#clip560)" d="M691.851 229.89 L691.851 233.432 L687.777 233.432 Q685.485 233.432 684.583 234.358 Q683.703 235.284 683.703 237.691 L683.703 239.983 L690.717 239.983 L690.717 243.293 L683.703 243.293 L683.703 265.909 L679.421 265.909 L679.421 243.293 L675.346 243.293 L675.346 239.983 L679.421 239.983 L679.421 238.177 Q679.421 233.849 681.434 231.881 Q683.448 229.89 687.823 229.89 L691.851 229.89 Z" fill="#000000" fill-rule="nonzero" fill-opacity="1" /><path clip-path="url(#clip560)" d="M692.569 260.029 L697.453 260.029 L697.453 265.909 L692.569 265.909 L692.569 260.029 Z" fill="#000000" fill-rule="nonzero" fill-opacity="1" /><path clip-path="url(#clip560)" d="M726.967 249.404 L726.967 262.066 L734.467 262.066 Q738.24 262.066 740.045 260.515 Q741.874 258.941 741.874 255.723 Q741.874 252.483 740.045 250.955 Q738.24 249.404 734.467 249.404 L726.967 249.404 M726.967 235.191 L726.967 245.608 L733.888 245.608 Q737.314 245.608 738.98 244.335 Q740.67 243.038 740.67 240.399 Q740.67 237.784 738.98 236.487 Q737.314 235.191 733.888 235.191 L726.967 235.191 M722.291 231.349 L734.235 231.349 Q739.582 231.349 742.476 233.571 Q745.369 235.793 745.369 239.89 Q745.369 243.062 743.888 244.937 Q742.406 246.811 739.536 247.274 Q742.985 248.015 744.883 250.376 Q746.804 252.714 746.804 256.233 Q746.804 260.862 743.656 263.385 Q740.508 265.909 734.698 265.909 L722.291 265.909 L722.291 231.349 Z" fill="#000000" fill-rule="nonzero" fill-opacity="1" /><path clip-path="url(#clip560)" d="M766.411 252.876 Q761.249 252.876 759.258 254.057 Q757.267 255.237 757.267 258.085 Q757.267 260.353 758.749 261.696 Q760.253 263.015 762.823 263.015 Q766.365 263.015 768.494 260.515 Q770.647 257.992 770.647 253.825 L770.647 252.876 L766.411 252.876 M774.906 251.117 L774.906 265.909 L770.647 265.909 L770.647 261.973 Q769.189 264.335 767.013 265.469 Q764.837 266.58 761.689 266.58 Q757.707 266.58 755.346 264.358 Q753.008 262.112 753.008 258.362 Q753.008 253.987 755.925 251.765 Q758.865 249.543 764.675 249.543 L770.647 249.543 L770.647 249.126 Q770.647 246.187 768.702 244.589 Q766.781 242.969 763.286 242.969 Q761.064 242.969 758.957 243.501 Q756.851 244.034 754.906 245.099 L754.906 241.163 Q757.244 240.261 759.443 239.821 Q761.642 239.358 763.726 239.358 Q769.351 239.358 772.128 242.274 Q774.906 245.191 774.906 251.117 Z" fill="#000000" fill-rule="nonzero" fill-opacity="1" /><path clip-path="url(#clip560)" d="M805.23 250.261 L805.23 265.909 L800.971 265.909 L800.971 250.399 Q800.971 246.719 799.536 244.89 Q798.1 243.062 795.23 243.062 Q791.781 243.062 789.79 245.261 Q787.8 247.46 787.8 251.256 L787.8 265.909 L783.517 265.909 L783.517 239.983 L787.8 239.983 L787.8 244.011 Q789.327 241.673 791.388 240.515 Q793.471 239.358 796.179 239.358 Q800.647 239.358 802.938 242.136 Q805.23 244.89 805.23 250.261 Z" fill="#000000" fill-rule="nonzero" fill-opacity="1" /><path clip-path="url(#clip560)" d="M830.785 243.918 L830.785 229.89 L835.045 229.89 L835.045 265.909 L830.785 265.909 L830.785 262.02 Q829.443 264.335 827.383 265.469 Q825.346 266.58 822.475 266.58 Q817.776 266.58 814.813 262.83 Q811.874 259.08 811.874 252.969 Q811.874 246.858 814.813 243.108 Q817.776 239.358 822.475 239.358 Q825.346 239.358 827.383 240.492 Q829.443 241.603 830.785 243.918 M816.272 252.969 Q816.272 257.668 818.193 260.353 Q820.137 263.015 823.517 263.015 Q826.897 263.015 828.841 260.353 Q830.785 257.668 830.785 252.969 Q830.785 248.27 828.841 245.608 Q826.897 242.923 823.517 242.923 Q820.137 242.923 818.193 245.608 Q816.272 248.27 816.272 252.969 Z" fill="#000000" fill-rule="nonzero" fill-opacity="1" /></svg>
