<?xml version="1.0" encoding="utf-8"?>
<svg xmlns="http://www.w3.org/2000/svg" xmlns:xlink="http://www.w3.org/1999/xlink" width="600" height="400" viewBox="0 0 2400 1600">
<defs>
  <clipPath id="clip080">
    <rect x="0" y="0" width="2400" height="1600"/>
  </clipPath>
</defs>
<path clip-path="url(#clip080)" d="M0 1600 L2400 1600 L2400 0 L0 0  Z" fill="#ffffff" fill-rule="evenodd" fill-opacity="1"/>
<defs>
  <clipPath id="clip081">
    <rect x="220" y="123" width="2134" height="1301"/>
  </clipPath>
</defs>
<path clip-path="url(#clip080)" d="M220.19 1423.18 L2352.76 1423.18 L2352.76 123.472 L220.19 123.472  Z" fill="#ffffff" fill-rule="evenodd" fill-opacity="1"/>
<polyline clip-path="url(#clip081)" style="stroke:#000000; stroke-linecap:round; stroke-linejoin:round; stroke-width:2; stroke-opacity:0.1; fill:none" points="268.127,1423.18 268.127,123.472 "/>
<polyline clip-path="url(#clip081)" style="stroke:#000000; stroke-linecap:round; stroke-linejoin:round; stroke-width:2; stroke-opacity:0.1; fill:none" points="889.07,1423.18 889.07,123.472 "/>
<polyline clip-path="url(#clip081)" style="stroke:#000000; stroke-linecap:round; stroke-linejoin:round; stroke-width:2; stroke-opacity:0.1; fill:none" points="1510.01,1423.18 1510.01,123.472 "/>
<polyline clip-path="url(#clip081)" style="stroke:#000000; stroke-linecap:round; stroke-linejoin:round; stroke-width:2; stroke-opacity:0.1; fill:none" points="2130.96,1423.18 2130.96,123.472 "/>
<polyline clip-path="url(#clip081)" style="stroke:#000000; stroke-linecap:round; stroke-linejoin:round; stroke-width:2; stroke-opacity:0.1; fill:none" points="220.19,1238.34 2352.76,1238.34 "/>
<polyline clip-path="url(#clip081)" style="stroke:#000000; stroke-linecap:round; stroke-linejoin:round; stroke-width:2; stroke-opacity:0.1; fill:none" points="220.19,1048.17 2352.76,1048.17 "/>
<polyline clip-path="url(#clip081)" style="stroke:#000000; stroke-linecap:round; stroke-linejoin:round; stroke-width:2; stroke-opacity:0.1; fill:none" points="220.19,858.009 2352.76,858.009 "/>
<polyline clip-path="url(#clip081)" style="stroke:#000000; stroke-linecap:round; stroke-linejoin:round; stroke-width:2; stroke-opacity:0.1; fill:none" points="220.19,667.844 2352.76,667.844 "/>
<polyline clip-path="url(#clip081)" style="stroke:#000000; stroke-linecap:round; stroke-linejoin:round; stroke-width:2; stroke-opacity:0.1; fill:none" points="220.19,477.679 2352.76,477.679 "/>
<polyline clip-path="url(#clip081)" style="stroke:#000000; stroke-linecap:round; stroke-linejoin:round; stroke-width:2; stroke-opacity:0.1; fill:none" points="220.19,287.514 2352.76,287.514 "/>
<polyline clip-path="url(#clip080)" style="stroke:#000000; stroke-linecap:round; stroke-linejoin:round; stroke-width:4; stroke-opacity:1; fill:none" points="220.19,1423.18 2352.76,1423.18 "/>
<polyline clip-path="url(#clip080)" style="stroke:#000000; stroke-linecap:round; stroke-linejoin:round; stroke-width:4; stroke-opacity:1; fill:none" points="268.127,1423.18 268.127,1404.28 "/>
<polyline clip-path="url(#clip080)" style="stroke:#000000; stroke-linecap:round; stroke-linejoin:round; stroke-width:4; stroke-opacity:1; fill:none" points="889.07,1423.18 889.07,1404.28 "/>
<polyline clip-path="url(#clip080)" style="stroke:#000000; stroke-linecap:round; stroke-linejoin:round; stroke-width:4; stroke-opacity:1; fill:none" points="1510.01,1423.18 1510.01,1404.28 "/>
<polyline clip-path="url(#clip080)" style="stroke:#000000; stroke-linecap:round; stroke-linejoin:round; stroke-width:4; stroke-opacity:1; fill:none" points="2130.96,1423.18 2130.96,1404.28 "/>
<path clip-path="url(#clip080)" d="M268.127 1454.1 Q264.516 1454.1 262.687 1457.66 Q260.882 1461.2 260.882 1468.33 Q260.882 1475.44 262.687 1479.01 Q264.516 1482.55 268.127 1482.55 Q271.761 1482.55 273.567 1479.01 Q275.396 1475.44 275.396 1468.33 Q275.396 1461.2 273.567 1457.66 Q271.761 1454.1 268.127 1454.1 M268.127 1450.39 Q273.937 1450.39 276.993 1455 Q280.071 1459.58 280.071 1468.33 Q280.071 1477.06 276.993 1481.67 Q273.937 1486.25 268.127 1486.25 Q262.317 1486.25 259.238 1481.67 Q256.183 1477.06 256.183 1468.33 Q256.183 1459.58 259.238 1455 Q262.317 1450.39 268.127 1450.39 Z" fill="#000000" fill-rule="nonzero" fill-opacity="1" /><path clip-path="url(#clip080)" d="M863.769 1451.02 L882.125 1451.02 L882.125 1454.96 L868.051 1454.96 L868.051 1463.43 Q869.07 1463.08 870.088 1462.92 Q871.107 1462.73 872.125 1462.73 Q877.912 1462.73 881.292 1465.9 Q884.672 1469.08 884.672 1474.49 Q884.672 1480.07 881.199 1483.17 Q877.727 1486.25 871.408 1486.25 Q869.232 1486.25 866.963 1485.88 Q864.718 1485.51 862.311 1484.77 L862.311 1480.07 Q864.394 1481.2 866.616 1481.76 Q868.838 1482.32 871.315 1482.32 Q875.32 1482.32 877.658 1480.21 Q879.996 1478.1 879.996 1474.49 Q879.996 1470.88 877.658 1468.77 Q875.32 1466.67 871.315 1466.67 Q869.44 1466.67 867.565 1467.08 Q865.713 1467.5 863.769 1468.38 L863.769 1451.02 Z" fill="#000000" fill-rule="nonzero" fill-opacity="1" /><path clip-path="url(#clip080)" d="M903.885 1454.1 Q900.273 1454.1 898.445 1457.66 Q896.639 1461.2 896.639 1468.33 Q896.639 1475.44 898.445 1479.01 Q900.273 1482.55 903.885 1482.55 Q907.519 1482.55 909.324 1479.01 Q911.153 1475.44 911.153 1468.33 Q911.153 1461.2 909.324 1457.66 Q907.519 1454.1 903.885 1454.1 M903.885 1450.39 Q909.695 1450.39 912.75 1455 Q915.829 1459.58 915.829 1468.33 Q915.829 1477.06 912.75 1481.67 Q909.695 1486.25 903.885 1486.25 Q898.074 1486.25 894.996 1481.67 Q891.94 1477.06 891.94 1468.33 Q891.94 1459.58 894.996 1455 Q898.074 1450.39 903.885 1450.39 Z" fill="#000000" fill-rule="nonzero" fill-opacity="1" /><path clip-path="url(#clip080)" d="M1469.62 1481.64 L1477.26 1481.64 L1477.26 1455.28 L1468.95 1456.95 L1468.95 1452.69 L1477.21 1451.02 L1481.89 1451.02 L1481.89 1481.64 L1489.53 1481.64 L1489.53 1485.58 L1469.62 1485.58 L1469.62 1481.64 Z" fill="#000000" fill-rule="nonzero" fill-opacity="1" /><path clip-path="url(#clip080)" d="M1508.97 1454.1 Q1505.36 1454.1 1503.53 1457.66 Q1501.73 1461.2 1501.73 1468.33 Q1501.73 1475.44 1503.53 1479.01 Q1505.36 1482.55 1508.97 1482.55 Q1512.61 1482.55 1514.41 1479.01 Q1516.24 1475.44 1516.24 1468.33 Q1516.24 1461.2 1514.41 1457.66 Q1512.61 1454.1 1508.97 1454.1 M1508.97 1450.39 Q1514.78 1450.39 1517.84 1455 Q1520.92 1459.58 1520.92 1468.33 Q1520.92 1477.06 1517.84 1481.67 Q1514.78 1486.25 1508.97 1486.25 Q1503.16 1486.25 1500.08 1481.67 Q1497.03 1477.06 1497.03 1468.33 Q1497.03 1459.58 1500.08 1455 Q1503.16 1450.39 1508.97 1450.39 Z" fill="#000000" fill-rule="nonzero" fill-opacity="1" /><path clip-path="url(#clip080)" d="M1539.13 1454.1 Q1535.52 1454.1 1533.69 1457.66 Q1531.89 1461.2 1531.89 1468.33 Q1531.89 1475.44 1533.69 1479.01 Q1535.52 1482.55 1539.13 1482.55 Q1542.77 1482.55 1544.57 1479.01 Q1546.4 1475.44 1546.4 1468.33 Q1546.4 1461.2 1544.57 1457.66 Q1542.77 1454.1 1539.13 1454.1 M1539.13 1450.39 Q1544.94 1450.39 1548 1455 Q1551.08 1459.58 1551.08 1468.33 Q1551.08 1477.06 1548 1481.67 Q1544.94 1486.25 1539.13 1486.25 Q1533.32 1486.25 1530.24 1481.67 Q1527.19 1477.06 1527.19 1468.33 Q1527.19 1459.58 1530.24 1455 Q1533.32 1450.39 1539.13 1450.39 Z" fill="#000000" fill-rule="nonzero" fill-opacity="1" /><path clip-path="url(#clip080)" d="M2090.56 1481.64 L2098.2 1481.64 L2098.2 1455.28 L2089.89 1456.95 L2089.89 1452.69 L2098.15 1451.02 L2102.83 1451.02 L2102.83 1481.64 L2110.47 1481.64 L2110.47 1485.58 L2090.56 1485.58 L2090.56 1481.64 Z" fill="#000000" fill-rule="nonzero" fill-opacity="1" /><path clip-path="url(#clip080)" d="M2119.96 1451.02 L2138.32 1451.02 L2138.32 1454.96 L2124.24 1454.96 L2124.24 1463.43 Q2125.26 1463.08 2126.28 1462.92 Q2127.3 1462.73 2128.32 1462.73 Q2134.1 1462.73 2137.48 1465.9 Q2140.86 1469.08 2140.86 1474.49 Q2140.86 1480.07 2137.39 1483.17 Q2133.92 1486.25 2127.6 1486.25 Q2125.42 1486.25 2123.15 1485.88 Q2120.91 1485.51 2118.5 1484.77 L2118.5 1480.07 Q2120.58 1481.2 2122.81 1481.76 Q2125.03 1482.32 2127.51 1482.32 Q2131.51 1482.32 2133.85 1480.21 Q2136.19 1478.1 2136.19 1474.49 Q2136.19 1470.88 2133.85 1468.77 Q2131.51 1466.67 2127.51 1466.67 Q2125.63 1466.67 2123.76 1467.08 Q2121.9 1467.5 2119.96 1468.38 L2119.96 1451.02 Z" fill="#000000" fill-rule="nonzero" fill-opacity="1" /><path clip-path="url(#clip080)" d="M2160.08 1454.1 Q2156.46 1454.1 2154.64 1457.66 Q2152.83 1461.2 2152.83 1468.33 Q2152.83 1475.44 2154.64 1479.01 Q2156.46 1482.55 2160.08 1482.55 Q2163.71 1482.55 2165.52 1479.01 Q2167.34 1475.44 2167.34 1468.33 Q2167.34 1461.2 2165.52 1457.66 Q2163.71 1454.1 2160.08 1454.1 M2160.08 1450.39 Q2165.89 1450.39 2168.94 1455 Q2172.02 1459.58 2172.02 1468.33 Q2172.02 1477.06 2168.94 1481.67 Q2165.89 1486.25 2160.08 1486.25 Q2154.27 1486.25 2151.19 1481.67 Q2148.13 1477.06 2148.13 1468.33 Q2148.13 1459.58 2151.19 1455 Q2154.27 1450.39 2160.08 1450.39 Z" fill="#000000" fill-rule="nonzero" fill-opacity="1" /><path clip-path="url(#clip080)" d="M738.497 1545.76 Q740.566 1546.46 742.508 1548.76 Q744.481 1551.05 746.454 1555.06 L752.979 1568.04 L746.072 1568.04 L739.993 1555.85 Q737.638 1551.08 735.41 1549.52 Q733.214 1547.96 729.394 1547.96 L722.392 1547.96 L722.392 1568.04 L715.963 1568.04 L715.963 1520.52 L730.476 1520.52 Q738.624 1520.52 742.635 1523.93 Q746.645 1527.34 746.645 1534.21 Q746.645 1538.7 744.545 1541.66 Q742.476 1544.62 738.497 1545.76 M722.392 1525.81 L722.392 1542.68 L730.476 1542.68 Q735.123 1542.68 737.479 1540.54 Q739.866 1538.38 739.866 1534.21 Q739.866 1530.04 737.479 1527.94 Q735.123 1525.81 730.476 1525.81 L722.392 1525.81 Z" fill="#000000" fill-rule="nonzero" fill-opacity="1" /><path clip-path="url(#clip080)" d="M757.467 1553.98 L757.467 1532.4 L763.323 1532.4 L763.323 1553.75 Q763.323 1558.81 765.297 1561.36 Q767.27 1563.87 771.217 1563.87 Q775.959 1563.87 778.697 1560.85 Q781.466 1557.83 781.466 1552.61 L781.466 1532.4 L787.322 1532.4 L787.322 1568.04 L781.466 1568.04 L781.466 1562.57 Q779.333 1565.82 776.5 1567.41 Q773.7 1568.97 769.976 1568.97 Q763.833 1568.97 760.65 1565.15 Q757.467 1561.33 757.467 1553.98 M772.204 1531.54 L772.204 1531.54 Z" fill="#000000" fill-rule="nonzero" fill-opacity="1" /><path clip-path="url(#clip080)" d="M829.018 1546.53 L829.018 1568.04 L823.161 1568.04 L823.161 1546.72 Q823.161 1541.66 821.188 1539.14 Q819.214 1536.63 815.268 1536.63 Q810.525 1536.63 807.788 1539.65 Q805.051 1542.68 805.051 1547.9 L805.051 1568.04 L799.162 1568.04 L799.162 1532.4 L805.051 1532.4 L805.051 1537.93 Q807.151 1534.72 809.984 1533.13 Q812.849 1531.54 816.573 1531.54 Q822.715 1531.54 825.867 1535.36 Q829.018 1539.14 829.018 1546.53 Z" fill="#000000" fill-rule="nonzero" fill-opacity="1" /><path clip-path="url(#clip080)" d="M875.487 1518.58 Q871.222 1525.9 869.153 1533.06 Q867.084 1540.23 867.084 1547.58 Q867.084 1554.93 869.153 1562.16 Q871.254 1569.35 875.487 1576.64 L870.395 1576.64 Q865.62 1569.16 863.233 1561.93 Q860.878 1554.71 860.878 1547.58 Q860.878 1540.48 863.233 1533.29 Q865.589 1526.09 870.395 1518.58 L875.487 1518.58 Z" fill="#000000" fill-rule="nonzero" fill-opacity="1" /><path clip-path="url(#clip080)" d="M909.576 1533.45 L909.576 1538.98 Q907.093 1537.71 904.419 1537.07 Q901.746 1536.44 898.881 1536.44 Q894.521 1536.44 892.324 1537.77 Q890.16 1539.11 890.16 1541.79 Q890.16 1543.82 891.72 1545 Q893.279 1546.15 897.99 1547.2 L899.995 1547.64 Q906.234 1548.98 908.843 1551.43 Q911.485 1553.85 911.485 1558.21 Q911.485 1563.17 907.539 1566.07 Q903.624 1568.97 896.749 1568.97 Q893.884 1568.97 890.765 1568.39 Q887.678 1567.85 884.24 1566.74 L884.24 1560.69 Q887.487 1562.38 890.638 1563.24 Q893.789 1564.07 896.876 1564.07 Q901.014 1564.07 903.242 1562.66 Q905.47 1561.23 905.47 1558.65 Q905.47 1556.27 903.846 1554.99 Q902.255 1553.72 896.812 1552.54 L894.775 1552.07 Q889.333 1550.92 886.914 1548.56 Q884.495 1546.18 884.495 1542.04 Q884.495 1537.01 888.059 1534.27 Q891.624 1531.54 898.181 1531.54 Q901.427 1531.54 904.292 1532.01 Q907.157 1532.49 909.576 1533.45 Z" fill="#000000" fill-rule="nonzero" fill-opacity="1" /><path clip-path="url(#clip080)" d="M934.625 1536.5 Q929.914 1536.5 927.177 1540.19 Q924.439 1543.85 924.439 1550.25 Q924.439 1556.65 927.145 1560.34 Q929.882 1564 934.625 1564 Q939.303 1564 942.041 1560.31 Q944.778 1556.62 944.778 1550.25 Q944.778 1543.92 942.041 1540.23 Q939.303 1536.5 934.625 1536.5 M934.625 1531.54 Q942.263 1531.54 946.624 1536.5 Q950.984 1541.47 950.984 1550.25 Q950.984 1559 946.624 1564 Q942.263 1568.97 934.625 1568.97 Q926.954 1568.97 922.593 1564 Q918.265 1559 918.265 1550.25 Q918.265 1541.47 922.593 1536.5 Q926.954 1531.54 934.625 1531.54 Z" fill="#000000" fill-rule="nonzero" fill-opacity="1" /><path clip-path="url(#clip080)" d="M981.349 1537.87 Q980.362 1537.3 979.185 1537.04 Q978.039 1536.76 976.638 1536.76 Q971.673 1536.76 968.999 1540 Q966.358 1543.22 966.358 1549.27 L966.358 1568.04 L960.469 1568.04 L960.469 1532.4 L966.358 1532.4 L966.358 1537.93 Q968.204 1534.69 971.164 1533.13 Q974.124 1531.54 978.357 1531.54 Q978.962 1531.54 979.694 1531.63 Q980.426 1531.7 981.317 1531.85 L981.349 1537.87 Z" fill="#000000" fill-rule="nonzero" fill-opacity="1" /><path clip-path="url(#clip080)" d="M993.285 1522.27 L993.285 1532.4 L1005.35 1532.4 L1005.35 1536.95 L993.285 1536.95 L993.285 1556.3 Q993.285 1560.66 994.462 1561.9 Q995.672 1563.14 999.332 1563.14 L1005.35 1563.14 L1005.35 1568.04 L999.332 1568.04 Q992.553 1568.04 989.974 1565.53 Q987.396 1562.98 987.396 1556.3 L987.396 1536.95 L983.099 1536.95 L983.099 1532.4 L987.396 1532.4 L987.396 1522.27 L993.285 1522.27 Z" fill="#000000" fill-rule="nonzero" fill-opacity="1" /><path clip-path="url(#clip080)" d="M1043.54 1548.76 L1043.54 1551.62 L1016.61 1551.62 Q1017 1557.67 1020.24 1560.85 Q1023.52 1564 1029.35 1564 Q1032.72 1564 1035.87 1563.17 Q1039.05 1562.35 1042.17 1560.69 L1042.17 1566.23 Q1039.02 1567.57 1035.71 1568.27 Q1032.4 1568.97 1029 1568.97 Q1020.47 1568.97 1015.47 1564 Q1010.5 1559.04 1010.5 1550.57 Q1010.5 1541.82 1015.21 1536.69 Q1019.96 1531.54 1027.98 1531.54 Q1035.17 1531.54 1039.34 1536.18 Q1043.54 1540.8 1043.54 1548.76 M1037.69 1547.04 Q1037.62 1542.23 1034.98 1539.37 Q1032.37 1536.5 1028.04 1536.5 Q1023.14 1536.5 1020.18 1539.27 Q1017.25 1542.04 1016.81 1547.07 L1037.69 1547.04 Z" fill="#000000" fill-rule="nonzero" fill-opacity="1" /><path clip-path="url(#clip080)" d="M1076.61 1537.81 L1076.61 1518.52 L1082.47 1518.52 L1082.47 1568.04 L1076.61 1568.04 L1076.61 1562.7 Q1074.77 1565.88 1071.93 1567.44 Q1069.13 1568.97 1065.19 1568.97 Q1058.72 1568.97 1054.65 1563.81 Q1050.61 1558.65 1050.61 1550.25 Q1050.61 1541.85 1054.65 1536.69 Q1058.72 1531.54 1065.19 1531.54 Q1069.13 1531.54 1071.93 1533.1 Q1074.77 1534.62 1076.61 1537.81 M1056.66 1550.25 Q1056.66 1556.71 1059.3 1560.4 Q1061.97 1564.07 1066.62 1564.07 Q1071.26 1564.07 1073.94 1560.4 Q1076.61 1556.71 1076.61 1550.25 Q1076.61 1543.79 1073.94 1540.13 Q1071.26 1536.44 1066.62 1536.44 Q1061.97 1536.44 1059.3 1540.13 Q1056.66 1543.79 1056.66 1550.25 Z" fill="#000000" fill-rule="nonzero" fill-opacity="1" /><path clip-path="url(#clip080)" d="M1140.84 1550.25 Q1140.84 1543.79 1138.17 1540.13 Q1135.53 1536.44 1130.88 1536.44 Q1126.23 1536.44 1123.56 1540.13 Q1120.92 1543.79 1120.92 1550.25 Q1120.92 1556.71 1123.56 1560.4 Q1126.23 1564.07 1130.88 1564.07 Q1135.53 1564.07 1138.17 1560.4 Q1140.84 1556.71 1140.84 1550.25 M1120.92 1537.81 Q1122.76 1534.62 1125.56 1533.1 Q1128.4 1531.54 1132.31 1531.54 Q1138.8 1531.54 1142.85 1536.69 Q1146.92 1541.85 1146.92 1550.25 Q1146.92 1558.65 1142.85 1563.81 Q1138.8 1568.97 1132.31 1568.97 Q1128.4 1568.97 1125.56 1567.44 Q1122.76 1565.88 1120.92 1562.7 L1120.92 1568.04 L1115.03 1568.04 L1115.03 1518.52 L1120.92 1518.52 L1120.92 1537.81 Z" fill="#000000" fill-rule="nonzero" fill-opacity="1" /><path clip-path="url(#clip080)" d="M1171.46 1571.35 Q1168.98 1577.72 1166.62 1579.66 Q1164.27 1581.6 1160.32 1581.6 L1155.64 1581.6 L1155.64 1576.7 L1159.08 1576.7 Q1161.5 1576.7 1162.84 1575.56 Q1164.17 1574.41 1165.8 1570.14 L1166.85 1567.47 L1152.43 1532.4 L1158.63 1532.4 L1169.77 1560.28 L1180.91 1532.4 L1187.12 1532.4 L1171.46 1571.35 Z" fill="#000000" fill-rule="nonzero" fill-opacity="1" /><path clip-path="url(#clip080)" d="M1241.58 1533.76 L1241.58 1539.24 Q1239.1 1537.87 1236.58 1537.2 Q1234.1 1536.5 1231.55 1536.5 Q1225.86 1536.5 1222.7 1540.13 Q1219.55 1543.73 1219.55 1550.25 Q1219.55 1556.78 1222.7 1560.4 Q1225.86 1564 1231.55 1564 Q1234.1 1564 1236.58 1563.33 Q1239.1 1562.63 1241.58 1561.26 L1241.58 1566.68 Q1239.13 1567.82 1236.49 1568.39 Q1233.88 1568.97 1230.92 1568.97 Q1222.86 1568.97 1218.12 1563.91 Q1213.38 1558.85 1213.38 1550.25 Q1213.38 1541.53 1218.15 1536.53 Q1222.96 1531.54 1231.3 1531.54 Q1234 1531.54 1236.58 1532.11 Q1239.16 1532.65 1241.58 1533.76 Z" fill="#000000" fill-rule="nonzero" fill-opacity="1" /><path clip-path="url(#clip080)" d="M1265.58 1536.5 Q1260.87 1536.5 1258.13 1540.19 Q1255.39 1543.85 1255.39 1550.25 Q1255.39 1556.65 1258.1 1560.34 Q1260.84 1564 1265.58 1564 Q1270.26 1564 1272.99 1560.31 Q1275.73 1556.62 1275.73 1550.25 Q1275.73 1543.92 1272.99 1540.23 Q1270.26 1536.5 1265.58 1536.5 M1265.58 1531.54 Q1273.22 1531.54 1277.58 1536.5 Q1281.94 1541.47 1281.94 1550.25 Q1281.94 1559 1277.58 1564 Q1273.22 1568.97 1265.58 1568.97 Q1257.91 1568.97 1253.55 1564 Q1249.22 1559 1249.22 1550.25 Q1249.22 1541.47 1253.55 1536.5 Q1257.91 1531.54 1265.58 1531.54 Z" fill="#000000" fill-rule="nonzero" fill-opacity="1" /><path clip-path="url(#clip080)" d="M1314.37 1533.45 L1314.37 1538.98 Q1311.89 1537.71 1309.21 1537.07 Q1306.54 1536.44 1303.68 1536.44 Q1299.32 1536.44 1297.12 1537.77 Q1294.96 1539.11 1294.96 1541.79 Q1294.96 1543.82 1296.52 1545 Q1298.07 1546.15 1302.79 1547.2 L1304.79 1547.64 Q1311.03 1548.98 1313.64 1551.43 Q1316.28 1553.85 1316.28 1558.21 Q1316.28 1563.17 1312.33 1566.07 Q1308.42 1568.97 1301.54 1568.97 Q1298.68 1568.97 1295.56 1568.39 Q1292.47 1567.85 1289.04 1566.74 L1289.04 1560.69 Q1292.28 1562.38 1295.43 1563.24 Q1298.58 1564.07 1301.67 1564.07 Q1305.81 1564.07 1308.04 1562.66 Q1310.26 1561.23 1310.26 1558.65 Q1310.26 1556.27 1308.64 1554.99 Q1307.05 1553.72 1301.61 1552.54 L1299.57 1552.07 Q1294.13 1550.92 1291.71 1548.56 Q1289.29 1546.18 1289.29 1542.04 Q1289.29 1537.01 1292.85 1534.27 Q1296.42 1531.54 1302.98 1531.54 Q1306.22 1531.54 1309.09 1532.01 Q1311.95 1532.49 1314.37 1533.45 Z" fill="#000000" fill-rule="nonzero" fill-opacity="1" /><path clip-path="url(#clip080)" d="M1331.4 1522.27 L1331.4 1532.4 L1343.46 1532.4 L1343.46 1536.95 L1331.4 1536.95 L1331.4 1556.3 Q1331.4 1560.66 1332.58 1561.9 Q1333.79 1563.14 1337.45 1563.14 L1343.46 1563.14 L1343.46 1568.04 L1337.45 1568.04 Q1330.67 1568.04 1328.09 1565.53 Q1325.51 1562.98 1325.51 1556.3 L1325.51 1536.95 L1321.21 1536.95 L1321.21 1532.4 L1325.51 1532.4 L1325.51 1522.27 L1331.4 1522.27 Z" fill="#000000" fill-rule="nonzero" fill-opacity="1" /><path clip-path="url(#clip080)" d="M1389.93 1518.52 L1389.93 1523.39 L1384.33 1523.39 Q1381.18 1523.39 1379.94 1524.66 Q1378.73 1525.93 1378.73 1529.24 L1378.73 1532.4 L1388.37 1532.4 L1388.37 1536.95 L1378.73 1536.95 L1378.73 1568.04 L1372.84 1568.04 L1372.84 1536.95 L1367.24 1536.95 L1367.24 1532.4 L1372.84 1532.4 L1372.84 1529.91 Q1372.84 1523.96 1375.61 1521.26 Q1378.38 1518.52 1384.39 1518.52 L1389.93 1518.52 Z" fill="#000000" fill-rule="nonzero" fill-opacity="1" /><path clip-path="url(#clip080)" d="M1394.23 1553.98 L1394.23 1532.4 L1400.09 1532.4 L1400.09 1553.75 Q1400.09 1558.81 1402.06 1561.36 Q1404.03 1563.87 1407.98 1563.87 Q1412.72 1563.87 1415.46 1560.85 Q1418.23 1557.83 1418.23 1552.61 L1418.23 1532.4 L1424.08 1532.4 L1424.08 1568.04 L1418.23 1568.04 L1418.23 1562.57 Q1416.09 1565.82 1413.26 1567.41 Q1410.46 1568.97 1406.74 1568.97 Q1400.59 1568.97 1397.41 1565.15 Q1394.23 1561.33 1394.23 1553.98 M1408.97 1531.54 L1408.97 1531.54 Z" fill="#000000" fill-rule="nonzero" fill-opacity="1" /><path clip-path="url(#clip080)" d="M1465.78 1546.53 L1465.78 1568.04 L1459.92 1568.04 L1459.92 1546.72 Q1459.92 1541.66 1457.95 1539.14 Q1455.98 1536.63 1452.03 1536.63 Q1447.29 1536.63 1444.55 1539.65 Q1441.81 1542.68 1441.81 1547.9 L1441.81 1568.04 L1435.92 1568.04 L1435.92 1532.4 L1441.81 1532.4 L1441.81 1537.93 Q1443.91 1534.72 1446.75 1533.13 Q1449.61 1531.54 1453.33 1531.54 Q1459.48 1531.54 1462.63 1535.36 Q1465.78 1539.14 1465.78 1546.53 Z" fill="#000000" fill-rule="nonzero" fill-opacity="1" /><path clip-path="url(#clip080)" d="M1503.11 1533.76 L1503.11 1539.24 Q1500.63 1537.87 1498.12 1537.2 Q1495.63 1536.5 1493.09 1536.5 Q1487.39 1536.5 1484.24 1540.13 Q1481.09 1543.73 1481.09 1550.25 Q1481.09 1556.78 1484.24 1560.4 Q1487.39 1564 1493.09 1564 Q1495.63 1564 1498.12 1563.33 Q1500.63 1562.63 1503.11 1561.26 L1503.11 1566.68 Q1500.66 1567.82 1498.02 1568.39 Q1495.41 1568.97 1492.45 1568.97 Q1484.4 1568.97 1479.66 1563.91 Q1474.91 1558.85 1474.91 1550.25 Q1474.91 1541.53 1479.69 1536.53 Q1484.49 1531.54 1492.83 1531.54 Q1495.54 1531.54 1498.12 1532.11 Q1500.7 1532.65 1503.11 1533.76 Z" fill="#000000" fill-rule="nonzero" fill-opacity="1" /><path clip-path="url(#clip080)" d="M1519.09 1522.27 L1519.09 1532.4 L1531.15 1532.4 L1531.15 1536.95 L1519.09 1536.95 L1519.09 1556.3 Q1519.09 1560.66 1520.27 1561.9 Q1521.48 1563.14 1525.14 1563.14 L1531.15 1563.14 L1531.15 1568.04 L1525.14 1568.04 Q1518.36 1568.04 1515.78 1565.53 Q1513.2 1562.98 1513.2 1556.3 L1513.2 1536.95 L1508.91 1536.95 L1508.91 1532.4 L1513.2 1532.4 L1513.2 1522.27 L1519.09 1522.27 Z" fill="#000000" fill-rule="nonzero" fill-opacity="1" /><path clip-path="url(#clip080)" d="M1538.86 1532.4 L1544.71 1532.4 L1544.71 1568.04 L1538.86 1568.04 L1538.86 1532.4 M1538.86 1518.52 L1544.71 1518.52 L1544.71 1525.93 L1538.86 1525.93 L1538.86 1518.52 Z" fill="#000000" fill-rule="nonzero" fill-opacity="1" /><path clip-path="url(#clip080)" d="M1570.78 1536.5 Q1566.07 1536.5 1563.33 1540.19 Q1560.6 1543.85 1560.6 1550.25 Q1560.6 1556.65 1563.3 1560.34 Q1566.04 1564 1570.78 1564 Q1575.46 1564 1578.2 1560.31 Q1580.93 1556.62 1580.93 1550.25 Q1580.93 1543.92 1578.2 1540.23 Q1575.46 1536.5 1570.78 1536.5 M1570.78 1531.54 Q1578.42 1531.54 1582.78 1536.5 Q1587.14 1541.47 1587.14 1550.25 Q1587.14 1559 1582.78 1564 Q1578.42 1568.97 1570.78 1568.97 Q1563.11 1568.97 1558.75 1564 Q1554.42 1559 1554.42 1550.25 Q1554.42 1541.47 1558.75 1536.5 Q1563.11 1531.54 1570.78 1531.54 Z" fill="#000000" fill-rule="nonzero" fill-opacity="1" /><path clip-path="url(#clip080)" d="M1626.48 1546.53 L1626.48 1568.04 L1620.62 1568.04 L1620.62 1546.72 Q1620.62 1541.66 1618.65 1539.14 Q1616.68 1536.63 1612.73 1536.63 Q1607.99 1536.63 1605.25 1539.65 Q1602.51 1542.68 1602.51 1547.9 L1602.51 1568.04 L1596.63 1568.04 L1596.63 1532.4 L1602.51 1532.4 L1602.51 1537.93 Q1604.62 1534.72 1607.45 1533.13 Q1610.31 1531.54 1614.04 1531.54 Q1620.18 1531.54 1623.33 1535.36 Q1626.48 1539.14 1626.48 1546.53 Z" fill="#000000" fill-rule="nonzero" fill-opacity="1" /><path clip-path="url(#clip080)" d="M1679.54 1537.87 Q1678.55 1537.3 1677.38 1537.04 Q1676.23 1536.76 1674.83 1536.76 Q1669.86 1536.76 1667.19 1540 Q1664.55 1543.22 1664.55 1549.27 L1664.55 1568.04 L1658.66 1568.04 L1658.66 1532.4 L1664.55 1532.4 L1664.55 1537.93 Q1666.39 1534.69 1669.35 1533.13 Q1672.31 1531.54 1676.55 1531.54 Q1677.15 1531.54 1677.88 1531.63 Q1678.62 1531.7 1679.51 1531.85 L1679.54 1537.87 Z" fill="#000000" fill-rule="nonzero" fill-opacity="1" /><path clip-path="url(#clip080)" d="M1714.74 1548.76 L1714.74 1551.62 L1687.82 1551.62 Q1688.2 1557.67 1691.44 1560.85 Q1694.72 1564 1700.55 1564 Q1703.92 1564 1707.07 1563.17 Q1710.25 1562.35 1713.37 1560.69 L1713.37 1566.23 Q1710.22 1567.57 1706.91 1568.27 Q1703.6 1568.97 1700.2 1568.97 Q1691.67 1568.97 1686.67 1564 Q1681.7 1559.04 1681.7 1550.57 Q1681.7 1541.82 1686.41 1536.69 Q1691.16 1531.54 1699.18 1531.54 Q1706.37 1531.54 1710.54 1536.18 Q1714.74 1540.8 1714.74 1548.76 M1708.89 1547.04 Q1708.82 1542.23 1706.18 1539.37 Q1703.57 1536.5 1699.24 1536.5 Q1694.34 1536.5 1691.38 1539.27 Q1688.45 1542.04 1688.01 1547.07 L1708.89 1547.04 Z" fill="#000000" fill-rule="nonzero" fill-opacity="1" /><path clip-path="url(#clip080)" d="M1747.08 1533.45 L1747.08 1538.98 Q1744.6 1537.71 1741.92 1537.07 Q1739.25 1536.44 1736.39 1536.44 Q1732.02 1536.44 1729.83 1537.77 Q1727.66 1539.11 1727.66 1541.79 Q1727.66 1543.82 1729.22 1545 Q1730.78 1546.15 1735.49 1547.2 L1737.5 1547.64 Q1743.74 1548.98 1746.35 1551.43 Q1748.99 1553.85 1748.99 1558.21 Q1748.99 1563.17 1745.04 1566.07 Q1741.13 1568.97 1734.25 1568.97 Q1731.39 1568.97 1728.27 1568.39 Q1725.18 1567.85 1721.74 1566.74 L1721.74 1560.69 Q1724.99 1562.38 1728.14 1563.24 Q1731.29 1564.07 1734.38 1564.07 Q1738.52 1564.07 1740.75 1562.66 Q1742.97 1561.23 1742.97 1558.65 Q1742.97 1556.27 1741.35 1554.99 Q1739.76 1553.72 1734.32 1552.54 L1732.28 1552.07 Q1726.84 1550.92 1724.42 1548.56 Q1722 1546.18 1722 1542.04 Q1722 1537.01 1725.56 1534.27 Q1729.13 1531.54 1735.69 1531.54 Q1738.93 1531.54 1741.8 1532.01 Q1744.66 1532.49 1747.08 1533.45 Z" fill="#000000" fill-rule="nonzero" fill-opacity="1" /><path clip-path="url(#clip080)" d="M1757.71 1553.98 L1757.71 1532.4 L1763.57 1532.4 L1763.57 1553.75 Q1763.57 1558.81 1765.54 1561.36 Q1767.51 1563.87 1771.46 1563.87 Q1776.2 1563.87 1778.94 1560.85 Q1781.71 1557.83 1781.71 1552.61 L1781.71 1532.4 L1787.57 1532.4 L1787.57 1568.04 L1781.71 1568.04 L1781.71 1562.57 Q1779.58 1565.82 1776.74 1567.41 Q1773.94 1568.97 1770.22 1568.97 Q1764.08 1568.97 1760.89 1565.15 Q1757.71 1561.33 1757.71 1553.98 M1772.45 1531.54 L1772.45 1531.54 Z" fill="#000000" fill-rule="nonzero" fill-opacity="1" /><path clip-path="url(#clip080)" d="M1799.63 1518.52 L1805.49 1518.52 L1805.49 1568.04 L1799.63 1568.04 L1799.63 1518.52 Z" fill="#000000" fill-rule="nonzero" fill-opacity="1" /><path clip-path="url(#clip080)" d="M1823.53 1522.27 L1823.53 1532.4 L1835.59 1532.4 L1835.59 1536.95 L1823.53 1536.95 L1823.53 1556.3 Q1823.53 1560.66 1824.71 1561.9 Q1825.92 1563.14 1829.58 1563.14 L1835.59 1563.14 L1835.59 1568.04 L1829.58 1568.04 Q1822.8 1568.04 1820.22 1565.53 Q1817.64 1562.98 1817.64 1556.3 L1817.64 1536.95 L1813.35 1536.95 L1813.35 1532.4 L1817.64 1532.4 L1817.64 1522.27 L1823.53 1522.27 Z" fill="#000000" fill-rule="nonzero" fill-opacity="1" /><path clip-path="url(#clip080)" d="M1842.37 1518.58 L1847.47 1518.58 Q1852.24 1526.09 1854.6 1533.29 Q1856.98 1540.48 1856.98 1547.58 Q1856.98 1554.71 1854.6 1561.93 Q1852.24 1569.16 1847.47 1576.64 L1842.37 1576.64 Q1846.61 1569.35 1848.68 1562.16 Q1850.78 1554.93 1850.78 1547.58 Q1850.78 1540.23 1848.68 1533.06 Q1846.61 1525.9 1842.37 1518.58 Z" fill="#000000" fill-rule="nonzero" fill-opacity="1" /><polyline clip-path="url(#clip080)" style="stroke:#000000; stroke-linecap:round; stroke-linejoin:round; stroke-width:4; stroke-opacity:1; fill:none" points="220.19,1423.18 220.19,123.472 "/>
<polyline clip-path="url(#clip080)" style="stroke:#000000; stroke-linecap:round; stroke-linejoin:round; stroke-width:4; stroke-opacity:1; fill:none" points="220.19,1238.34 239.088,1238.34 "/>
<polyline clip-path="url(#clip080)" style="stroke:#000000; stroke-linecap:round; stroke-linejoin:round; stroke-width:4; stroke-opacity:1; fill:none" points="220.19,1048.17 239.088,1048.17 "/>
<polyline clip-path="url(#clip080)" style="stroke:#000000; stroke-linecap:round; stroke-linejoin:round; stroke-width:4; stroke-opacity:1; fill:none" points="220.19,858.009 239.088,858.009 "/>
<polyline clip-path="url(#clip080)" style="stroke:#000000; stroke-linecap:round; stroke-linejoin:round; stroke-width:4; stroke-opacity:1; fill:none" points="220.19,667.844 239.088,667.844 "/>
<polyline clip-path="url(#clip080)" style="stroke:#000000; stroke-linecap:round; stroke-linejoin:round; stroke-width:4; stroke-opacity:1; fill:none" points="220.19,477.679 239.088,477.679 "/>
<polyline clip-path="url(#clip080)" style="stroke:#000000; stroke-linecap:round; stroke-linejoin:round; stroke-width:4; stroke-opacity:1; fill:none" points="220.19,287.514 239.088,287.514 "/>
<path clip-path="url(#clip080)" d="M122.038 1251.68 L138.357 1251.68 L138.357 1255.62 L116.413 1255.62 L116.413 1251.68 Q119.075 1248.93 123.658 1244.3 Q128.265 1239.65 129.445 1238.3 Q131.691 1235.78 132.57 1234.05 Q133.473 1232.29 133.473 1230.6 Q133.473 1227.84 131.529 1226.11 Q129.607 1224.37 126.505 1224.37 Q124.306 1224.37 121.853 1225.13 Q119.422 1225.9 116.644 1227.45 L116.644 1222.73 Q119.468 1221.59 121.922 1221.01 Q124.376 1220.43 126.413 1220.43 Q131.783 1220.43 134.978 1223.12 Q138.172 1225.8 138.172 1230.3 Q138.172 1232.43 137.362 1234.35 Q136.575 1236.24 134.468 1238.84 Q133.89 1239.51 130.788 1242.73 Q127.686 1245.92 122.038 1251.68 Z" fill="#000000" fill-rule="nonzero" fill-opacity="1" /><path clip-path="url(#clip080)" d="M148.172 1249.74 L153.056 1249.74 L153.056 1255.62 L148.172 1255.62 L148.172 1249.74 Z" fill="#000000" fill-rule="nonzero" fill-opacity="1" /><path clip-path="url(#clip080)" d="M163.288 1221.06 L181.644 1221.06 L181.644 1224.99 L167.57 1224.99 L167.57 1233.47 Q168.589 1233.12 169.607 1232.96 Q170.626 1232.77 171.644 1232.77 Q177.431 1232.77 180.811 1235.94 Q184.19 1239.11 184.19 1244.53 Q184.19 1250.11 180.718 1253.21 Q177.246 1256.29 170.927 1256.29 Q168.751 1256.29 166.482 1255.92 Q164.237 1255.55 161.829 1254.81 L161.829 1250.11 Q163.913 1251.24 166.135 1251.8 Q168.357 1252.36 170.834 1252.36 Q174.839 1252.36 177.176 1250.25 Q179.514 1248.14 179.514 1244.53 Q179.514 1240.92 177.176 1238.81 Q174.839 1236.71 170.834 1236.71 Q168.959 1236.71 167.084 1237.12 Q165.232 1237.54 163.288 1238.42 L163.288 1221.06 Z" fill="#000000" fill-rule="nonzero" fill-opacity="1" /><path clip-path="url(#clip080)" d="M131.181 1046.82 Q134.538 1047.54 136.413 1049.81 Q138.311 1052.07 138.311 1055.41 Q138.311 1060.52 134.792 1063.32 Q131.274 1066.13 124.793 1066.13 Q122.617 1066.13 120.302 1065.69 Q118.01 1065.27 115.556 1064.41 L115.556 1059.9 Q117.501 1061.03 119.816 1061.61 Q122.13 1062.19 124.654 1062.19 Q129.052 1062.19 131.343 1060.45 Q133.658 1058.72 133.658 1055.41 Q133.658 1052.35 131.505 1050.64 Q129.376 1048.9 125.556 1048.9 L121.529 1048.9 L121.529 1045.06 L125.742 1045.06 Q129.191 1045.06 131.019 1043.7 Q132.848 1042.31 132.848 1039.71 Q132.848 1037.05 130.95 1035.64 Q129.075 1034.2 125.556 1034.2 Q123.635 1034.2 121.436 1034.62 Q119.237 1035.04 116.598 1035.92 L116.598 1031.75 Q119.26 1031.01 121.575 1030.64 Q123.913 1030.27 125.973 1030.27 Q131.297 1030.27 134.399 1032.7 Q137.501 1035.11 137.501 1039.23 Q137.501 1042.1 135.857 1044.09 Q134.214 1046.06 131.181 1046.82 Z" fill="#000000" fill-rule="nonzero" fill-opacity="1" /><path clip-path="url(#clip080)" d="M147.177 1059.57 L152.061 1059.57 L152.061 1065.45 L147.177 1065.45 L147.177 1059.57 Z" fill="#000000" fill-rule="nonzero" fill-opacity="1" /><path clip-path="url(#clip080)" d="M172.246 1033.97 Q168.635 1033.97 166.806 1037.54 Q165.001 1041.08 165.001 1048.21 Q165.001 1055.32 166.806 1058.88 Q168.635 1062.42 172.246 1062.42 Q175.88 1062.42 177.686 1058.88 Q179.514 1055.32 179.514 1048.21 Q179.514 1041.08 177.686 1037.54 Q175.88 1033.97 172.246 1033.97 M172.246 1030.27 Q178.056 1030.27 181.112 1034.88 Q184.19 1039.46 184.19 1048.21 Q184.19 1056.94 181.112 1061.54 Q178.056 1066.13 172.246 1066.13 Q166.436 1066.13 163.357 1061.54 Q160.302 1056.94 160.302 1048.21 Q160.302 1039.46 163.357 1034.88 Q166.436 1030.27 172.246 1030.27 Z" fill="#000000" fill-rule="nonzero" fill-opacity="1" /><path clip-path="url(#clip080)" d="M132.177 856.655 Q135.533 857.372 137.408 859.641 Q139.306 861.909 139.306 865.243 Q139.306 870.359 135.788 873.159 Q132.269 875.96 125.788 875.96 Q123.612 875.96 121.297 875.521 Q119.006 875.104 116.552 874.247 L116.552 869.734 Q118.496 870.868 120.811 871.446 Q123.126 872.025 125.649 872.025 Q130.047 872.025 132.339 870.289 Q134.654 868.553 134.654 865.243 Q134.654 862.187 132.501 860.474 Q130.371 858.738 126.552 858.738 L122.524 858.738 L122.524 854.896 L126.737 854.896 Q130.186 854.896 132.015 853.53 Q133.843 852.141 133.843 849.548 Q133.843 846.886 131.945 845.474 Q130.07 844.039 126.552 844.039 Q124.63 844.039 122.431 844.456 Q120.232 844.873 117.593 845.752 L117.593 841.586 Q120.255 840.845 122.57 840.474 Q124.908 840.104 126.968 840.104 Q132.292 840.104 135.394 842.535 Q138.496 844.942 138.496 849.062 Q138.496 851.933 136.853 853.923 Q135.209 855.891 132.177 856.655 Z" fill="#000000" fill-rule="nonzero" fill-opacity="1" /><path clip-path="url(#clip080)" d="M148.172 869.409 L153.056 869.409 L153.056 875.289 L148.172 875.289 L148.172 869.409 Z" fill="#000000" fill-rule="nonzero" fill-opacity="1" /><path clip-path="url(#clip080)" d="M163.288 840.729 L181.644 840.729 L181.644 844.664 L167.57 844.664 L167.57 853.136 Q168.589 852.789 169.607 852.627 Q170.626 852.442 171.644 852.442 Q177.431 852.442 180.811 855.613 Q184.19 858.785 184.19 864.201 Q184.19 869.78 180.718 872.882 Q177.246 875.96 170.927 875.96 Q168.751 875.96 166.482 875.59 Q164.237 875.22 161.829 874.479 L161.829 869.78 Q163.913 870.914 166.135 871.47 Q168.357 872.025 170.834 872.025 Q174.839 872.025 177.176 869.919 Q179.514 867.812 179.514 864.201 Q179.514 860.59 177.176 858.484 Q174.839 856.377 170.834 856.377 Q168.959 856.377 167.084 856.794 Q165.232 857.21 163.288 858.09 L163.288 840.729 Z" fill="#000000" fill-rule="nonzero" fill-opacity="1" /><path clip-path="url(#clip080)" d="M129.862 654.638 L118.056 673.087 L129.862 673.087 L129.862 654.638 M128.635 650.564 L134.515 650.564 L134.515 673.087 L139.445 673.087 L139.445 676.976 L134.515 676.976 L134.515 685.124 L129.862 685.124 L129.862 676.976 L114.26 676.976 L114.26 672.462 L128.635 650.564 Z" fill="#000000" fill-rule="nonzero" fill-opacity="1" /><path clip-path="url(#clip080)" d="M147.177 679.244 L152.061 679.244 L152.061 685.124 L147.177 685.124 L147.177 679.244 Z" fill="#000000" fill-rule="nonzero" fill-opacity="1" /><path clip-path="url(#clip080)" d="M172.246 653.643 Q168.635 653.643 166.806 657.207 Q165.001 660.749 165.001 667.879 Q165.001 674.985 166.806 678.55 Q168.635 682.092 172.246 682.092 Q175.88 682.092 177.686 678.55 Q179.514 674.985 179.514 667.879 Q179.514 660.749 177.686 657.207 Q175.88 653.643 172.246 653.643 M172.246 649.939 Q178.056 649.939 181.112 654.545 Q184.19 659.129 184.19 667.879 Q184.19 676.605 181.112 681.212 Q178.056 685.795 172.246 685.795 Q166.436 685.795 163.357 681.212 Q160.302 676.605 160.302 667.879 Q160.302 659.129 163.357 654.545 Q166.436 649.939 172.246 649.939 Z" fill="#000000" fill-rule="nonzero" fill-opacity="1" /><path clip-path="url(#clip080)" d="M130.857 464.473 L119.052 482.922 L130.857 482.922 L130.857 464.473 M129.63 460.399 L135.51 460.399 L135.51 482.922 L140.441 482.922 L140.441 486.811 L135.51 486.811 L135.51 494.959 L130.857 494.959 L130.857 486.811 L115.256 486.811 L115.256 482.297 L129.63 460.399 Z" fill="#000000" fill-rule="nonzero" fill-opacity="1" /><path clip-path="url(#clip080)" d="M148.172 489.079 L153.056 489.079 L153.056 494.959 L148.172 494.959 L148.172 489.079 Z" fill="#000000" fill-rule="nonzero" fill-opacity="1" /><path clip-path="url(#clip080)" d="M163.288 460.399 L181.644 460.399 L181.644 464.334 L167.57 464.334 L167.57 472.806 Q168.589 472.459 169.607 472.297 Q170.626 472.112 171.644 472.112 Q177.431 472.112 180.811 475.283 Q184.19 478.454 184.19 483.871 Q184.19 489.45 180.718 492.551 Q177.246 495.63 170.927 495.63 Q168.751 495.63 166.482 495.26 Q164.237 494.889 161.829 494.149 L161.829 489.45 Q163.913 490.584 166.135 491.139 Q168.357 491.695 170.834 491.695 Q174.839 491.695 177.176 489.588 Q179.514 487.482 179.514 483.871 Q179.514 480.26 177.176 478.153 Q174.839 476.047 170.834 476.047 Q168.959 476.047 167.084 476.463 Q165.232 476.88 163.288 477.76 L163.288 460.399 Z" fill="#000000" fill-rule="nonzero" fill-opacity="1" /><path clip-path="url(#clip080)" d="M117.061 270.234 L135.417 270.234 L135.417 274.169 L121.343 274.169 L121.343 282.641 Q122.362 282.294 123.38 282.132 Q124.399 281.947 125.418 281.947 Q131.205 281.947 134.584 285.118 Q137.964 288.289 137.964 293.706 Q137.964 299.284 134.492 302.386 Q131.019 305.465 124.7 305.465 Q122.524 305.465 120.255 305.095 Q118.01 304.724 115.603 303.983 L115.603 299.284 Q117.686 300.419 119.908 300.974 Q122.13 301.53 124.607 301.53 Q128.612 301.53 130.95 299.423 Q133.288 297.317 133.288 293.706 Q133.288 290.095 130.95 287.988 Q128.612 285.882 124.607 285.882 Q122.732 285.882 120.857 286.298 Q119.006 286.715 117.061 287.595 L117.061 270.234 Z" fill="#000000" fill-rule="nonzero" fill-opacity="1" /><path clip-path="url(#clip080)" d="M147.177 298.914 L152.061 298.914 L152.061 304.794 L147.177 304.794 L147.177 298.914 Z" fill="#000000" fill-rule="nonzero" fill-opacity="1" /><path clip-path="url(#clip080)" d="M172.246 273.312 Q168.635 273.312 166.806 276.877 Q165.001 280.419 165.001 287.548 Q165.001 294.655 166.806 298.22 Q168.635 301.761 172.246 301.761 Q175.88 301.761 177.686 298.22 Q179.514 294.655 179.514 287.548 Q179.514 280.419 177.686 276.877 Q175.88 273.312 172.246 273.312 M172.246 269.609 Q178.056 269.609 181.112 274.215 Q184.19 278.798 184.19 287.548 Q184.19 296.275 181.112 300.882 Q178.056 305.465 172.246 305.465 Q166.436 305.465 163.357 300.882 Q160.302 296.275 160.302 287.548 Q160.302 278.798 163.357 274.215 Q166.436 269.609 172.246 269.609 Z" fill="#000000" fill-rule="nonzero" fill-opacity="1" /><path clip-path="url(#clip080)" d="M41.3104 1133.75 L58.7206 1133.75 L58.7206 1123.44 Q58.7206 1118.25 56.5881 1115.77 Q54.4238 1113.25 49.9996 1113.25 Q45.5436 1113.25 43.4429 1115.77 Q41.3104 1118.25 41.3104 1123.44 L41.3104 1133.75 M21.7677 1133.75 L36.0905 1133.75 L36.0905 1124.24 Q36.0905 1119.52 34.34 1117.23 Q32.5576 1114.91 28.9291 1114.91 Q25.3325 1114.91 23.5501 1117.23 Q21.7677 1119.52 21.7677 1124.24 L21.7677 1133.75 M16.4842 1140.18 L16.4842 1123.76 Q16.4842 1116.41 19.5397 1112.43 Q22.5952 1108.45 28.2289 1108.45 Q32.5894 1108.45 35.1675 1110.49 Q37.7456 1112.52 38.3822 1116.47 Q39.4007 1111.73 42.6472 1109.12 Q45.8619 1106.48 50.6998 1106.48 Q57.0655 1106.48 60.5348 1110.8 Q64.0042 1115.13 64.0042 1123.12 L64.0042 1140.18 L16.4842 1140.18 Z" fill="#000000" fill-rule="nonzero" fill-opacity="1" /><path clip-path="url(#clip080)" d="M28.3562 1095.72 L28.3562 1089.86 L64.0042 1089.86 L64.0042 1095.72 L28.3562 1095.72 M14.479 1095.72 L14.479 1089.86 L21.895 1089.86 L21.895 1095.72 L14.479 1095.72 Z" fill="#000000" fill-rule="nonzero" fill-opacity="1" /><path clip-path="url(#clip080)" d="M16.4842 1077.35 L16.4842 1070.92 L58.5933 1070.92 L58.5933 1047.78 L64.0042 1047.78 L64.0042 1077.35 L16.4842 1077.35 Z" fill="#000000" fill-rule="nonzero" fill-opacity="1" /><path clip-path="url(#clip080)" d="M32.4621 1028.62 Q32.4621 1033.33 36.1542 1036.07 Q39.8145 1038.81 46.212 1038.81 Q52.6095 1038.81 56.3017 1036.1 Q59.9619 1033.37 59.9619 1028.62 Q59.9619 1023.94 56.2698 1021.21 Q52.5777 1018.47 46.212 1018.47 Q39.8781 1018.47 36.186 1021.21 Q32.4621 1023.94 32.4621 1028.62 M27.4968 1028.62 Q27.4968 1020.98 32.4621 1016.62 Q37.4273 1012.26 46.212 1012.26 Q54.9649 1012.26 59.9619 1016.62 Q64.9272 1020.98 64.9272 1028.62 Q64.9272 1036.29 59.9619 1040.65 Q54.9649 1044.98 46.212 1044.98 Q37.4273 1044.98 32.4621 1040.65 Q27.4968 1036.29 27.4968 1028.62 Z" fill="#000000" fill-rule="nonzero" fill-opacity="1" /><path clip-path="url(#clip080)" d="M45.7664 979.097 Q39.4007 979.097 35.8996 981.739 Q32.3984 984.349 32.3984 989.092 Q32.3984 993.802 35.8996 996.444 Q39.4007 999.054 45.7664 999.054 Q52.1003 999.054 55.6014 996.444 Q59.1026 993.802 59.1026 989.092 Q59.1026 984.349 55.6014 981.739 Q52.1003 979.097 45.7664 979.097 M59.58 973.241 Q68.683 973.241 73.1071 977.283 Q77.5631 981.325 77.5631 989.665 Q77.5631 992.752 77.0857 995.489 Q76.6401 998.226 75.6852 1000.8 L69.9879 1000.8 Q71.3884 998.226 72.0568 995.712 Q72.7252 993.197 72.7252 990.588 Q72.7252 984.827 69.7015 981.962 Q66.7096 979.097 60.6303 979.097 L57.7339 979.097 Q60.885 980.912 62.4446 983.744 Q64.0042 986.577 64.0042 990.524 Q64.0042 997.081 59.0071 1001.09 Q54.01 1005.1 45.7664 1005.1 Q37.491 1005.1 32.4939 1001.09 Q27.4968 997.081 27.4968 990.524 Q27.4968 986.577 29.0564 983.744 Q30.616 980.912 33.7671 979.097 L28.3562 979.097 L28.3562 973.241 L59.58 973.241 Z" fill="#000000" fill-rule="nonzero" fill-opacity="1" /><path clip-path="url(#clip080)" d="M14.5426 947.11 Q21.8632 951.375 29.0246 953.444 Q36.186 955.513 43.5384 955.513 Q50.8908 955.513 58.1159 953.444 Q65.3091 951.343 72.5979 947.11 L72.5979 952.202 Q65.1182 956.977 57.8931 959.364 Q50.668 961.719 43.5384 961.719 Q36.4406 961.719 29.2474 959.364 Q22.0542 957.008 14.5426 952.202 L14.5426 947.11 Z" fill="#000000" fill-rule="nonzero" fill-opacity="1" /><path clip-path="url(#clip080)" d="M16.4842 935.492 L16.4842 908.183 L21.895 908.183 L21.895 929.063 L35.8996 929.063 L35.8996 910.221 L41.3104 910.221 L41.3104 929.063 L64.0042 929.063 L64.0042 935.492 L16.4842 935.492 Z" fill="#000000" fill-rule="nonzero" fill-opacity="1" /><path clip-path="url(#clip080)" d="M28.3562 902.995 L28.3562 897.139 L64.0042 897.139 L64.0042 902.995 L28.3562 902.995 M14.479 902.995 L14.479 897.139 L21.895 897.139 L21.895 902.995 L14.479 902.995 Z" fill="#000000" fill-rule="nonzero" fill-opacity="1" /><path clip-path="url(#clip080)" d="M42.4881 855.253 L64.0042 855.253 L64.0042 861.109 L42.679 861.109 Q37.6183 861.109 35.1038 863.082 Q32.5894 865.056 32.5894 869.003 Q32.5894 873.745 35.6131 876.482 Q38.6368 879.22 43.8567 879.22 L64.0042 879.22 L64.0042 885.108 L28.3562 885.108 L28.3562 879.22 L33.8944 879.22 Q30.6797 877.119 29.0883 874.286 Q27.4968 871.422 27.4968 867.698 Q27.4968 861.555 31.3163 858.404 Q35.1038 855.253 42.4881 855.253 Z" fill="#000000" fill-rule="nonzero" fill-opacity="1" /><path clip-path="url(#clip080)" d="M46.0847 827.371 Q46.0847 834.469 47.7079 837.206 Q49.3312 839.943 53.2461 839.943 Q56.3653 839.943 58.2114 837.906 Q60.0256 835.837 60.0256 832.304 Q60.0256 827.434 56.5881 824.506 Q53.1188 821.546 47.3897 821.546 L46.0847 821.546 L46.0847 827.371 M43.6657 815.69 L64.0042 815.69 L64.0042 821.546 L58.5933 821.546 Q61.8398 823.551 63.3994 826.543 Q64.9272 829.535 64.9272 833.864 Q64.9272 839.338 61.8716 842.585 Q58.7843 845.8 53.6281 845.8 Q47.6125 845.8 44.5569 841.789 Q41.5014 837.747 41.5014 829.758 L41.5014 821.546 L40.9285 821.546 Q36.8862 821.546 34.6901 824.22 Q32.4621 826.862 32.4621 831.668 Q32.4621 834.723 33.1941 837.62 Q33.9262 840.516 35.3903 843.19 L29.9795 843.19 Q28.7381 839.975 28.1334 836.951 Q27.4968 833.928 27.4968 831.063 Q27.4968 823.329 31.5072 819.509 Q35.5176 815.69 43.6657 815.69 Z" fill="#000000" fill-rule="nonzero" fill-opacity="1" /><path clip-path="url(#clip080)" d="M14.479 803.627 L14.479 797.77 L64.0042 797.77 L64.0042 803.627 L14.479 803.627 Z" fill="#000000" fill-rule="nonzero" fill-opacity="1" /><path clip-path="url(#clip080)" d="M20.1444 728.957 L26.9239 728.957 Q23.9002 732.204 22.4043 735.896 Q20.9083 739.556 20.9083 743.694 Q20.9083 751.842 25.9054 756.17 Q30.8707 760.499 40.2919 760.499 Q49.6813 760.499 54.6784 756.17 Q59.6436 751.842 59.6436 743.694 Q59.6436 739.556 58.1477 735.896 Q56.6518 732.204 53.6281 728.957 L60.3439 728.957 Q62.6355 732.331 63.7814 736.118 Q64.9272 739.874 64.9272 744.076 Q64.9272 754.865 58.3387 761.072 Q51.7183 767.279 40.2919 767.279 Q28.8336 767.279 22.2451 761.072 Q15.6248 754.865 15.6248 744.076 Q15.6248 739.811 16.7706 736.055 Q17.8846 732.267 20.1444 728.957 Z" fill="#000000" fill-rule="nonzero" fill-opacity="1" /><path clip-path="url(#clip080)" d="M32.4621 705.468 Q32.4621 710.178 36.1542 712.915 Q39.8145 715.653 46.212 715.653 Q52.6095 715.653 56.3017 712.947 Q59.9619 710.21 59.9619 705.468 Q59.9619 700.789 56.2698 698.052 Q52.5777 695.314 46.212 695.314 Q39.8781 695.314 36.186 698.052 Q32.4621 700.789 32.4621 705.468 M27.4968 705.468 Q27.4968 697.829 32.4621 693.468 Q37.4273 689.108 46.212 689.108 Q54.9649 689.108 59.9619 693.468 Q64.9272 697.829 64.9272 705.468 Q64.9272 713.138 59.9619 717.499 Q54.9649 721.827 46.212 721.827 Q37.4273 721.827 32.4621 717.499 Q27.4968 713.138 27.4968 705.468 Z" fill="#000000" fill-rule="nonzero" fill-opacity="1" /><path clip-path="url(#clip080)" d="M29.4065 656.674 L34.9447 656.674 Q33.6716 659.157 33.035 661.831 Q32.3984 664.504 32.3984 667.369 Q32.3984 671.729 33.7352 673.925 Q35.072 676.09 37.7456 676.09 Q39.7826 676.09 40.9603 674.53 Q42.1061 672.971 43.1565 668.26 L43.6021 666.255 Q44.9389 660.016 47.3897 657.406 Q49.8086 654.765 54.1691 654.765 Q59.1344 654.765 62.0308 658.711 Q64.9272 662.626 64.9272 669.501 Q64.9272 672.366 64.3543 675.485 Q63.8132 678.572 62.6992 682.01 L56.6518 682.01 Q58.3387 678.763 59.198 675.612 Q60.0256 672.461 60.0256 669.374 Q60.0256 665.236 58.6251 663.008 Q57.1929 660.78 54.6147 660.78 Q52.2276 660.78 50.9545 662.404 Q49.6813 663.995 48.5037 669.438 L48.0262 671.475 Q46.8804 676.917 44.5251 679.336 Q42.138 681.755 38.0002 681.755 Q32.9713 681.755 30.2341 678.19 Q27.4968 674.626 27.4968 668.069 Q27.4968 664.823 27.9743 661.958 Q28.4517 659.093 29.4065 656.674 Z" fill="#000000" fill-rule="nonzero" fill-opacity="1" /><path clip-path="url(#clip080)" d="M18.2347 639.646 L28.3562 639.646 L28.3562 627.583 L32.9077 627.583 L32.9077 639.646 L52.2594 639.646 Q56.6199 639.646 57.8613 638.468 Q59.1026 637.259 59.1026 633.599 L59.1026 627.583 L64.0042 627.583 L64.0042 633.599 Q64.0042 640.378 61.4897 642.956 Q58.9434 645.534 52.2594 645.534 L32.9077 645.534 L32.9077 649.831 L28.3562 649.831 L28.3562 645.534 L18.2347 645.534 L18.2347 639.646 Z" fill="#000000" fill-rule="nonzero" fill-opacity="1" /><path clip-path="url(#clip080)" d="M64.0042 586.652 L16.4842 604.794 L16.4842 598.078 L56.4926 583.023 L16.4842 567.936 L16.4842 561.252 L64.0042 579.363 L64.0042 586.652 Z" fill="#000000" fill-rule="nonzero" fill-opacity="1" /><path clip-path="url(#clip080)" d="M46.0847 543.428 Q46.0847 550.526 47.7079 553.264 Q49.3312 556.001 53.2461 556.001 Q56.3653 556.001 58.2114 553.964 Q60.0256 551.895 60.0256 548.362 Q60.0256 543.492 56.5881 540.564 Q53.1188 537.604 47.3897 537.604 L46.0847 537.604 L46.0847 543.428 M43.6657 531.747 L64.0042 531.747 L64.0042 537.604 L58.5933 537.604 Q61.8398 539.609 63.3994 542.601 Q64.9272 545.593 64.9272 549.922 Q64.9272 555.396 61.8716 558.643 Q58.7843 561.857 53.6281 561.857 Q47.6125 561.857 44.5569 557.847 Q41.5014 553.805 41.5014 545.816 L41.5014 537.604 L40.9285 537.604 Q36.8862 537.604 34.6901 540.277 Q32.4621 542.919 32.4621 547.725 Q32.4621 550.781 33.1941 553.677 Q33.9262 556.574 35.3903 559.247 L29.9795 559.247 Q28.7381 556.033 28.1334 553.009 Q27.4968 549.985 27.4968 547.121 Q27.4968 539.386 31.5072 535.567 Q35.5176 531.747 43.6657 531.747 Z" fill="#000000" fill-rule="nonzero" fill-opacity="1" /><path clip-path="url(#clip080)" d="M14.479 519.684 L14.479 513.828 L64.0042 513.828 L64.0042 519.684 L14.479 519.684 Z" fill="#000000" fill-rule="nonzero" fill-opacity="1" /><path clip-path="url(#clip080)" d="M49.9359 502.179 L28.3562 502.179 L28.3562 496.322 L49.7131 496.322 Q54.7739 496.322 57.3202 494.349 Q59.8346 492.376 59.8346 488.429 Q59.8346 483.686 56.8109 480.949 Q53.7872 478.18 48.5673 478.18 L28.3562 478.18 L28.3562 472.324 L64.0042 472.324 L64.0042 478.18 L58.5296 478.18 Q61.7762 480.313 63.3676 483.145 Q64.9272 485.946 64.9272 489.67 Q64.9272 495.813 61.1078 498.996 Q57.2883 502.179 49.9359 502.179 M27.4968 487.442 L27.4968 487.442 Z" fill="#000000" fill-rule="nonzero" fill-opacity="1" /><path clip-path="url(#clip080)" d="M44.7161 429.769 L47.5806 429.769 L47.5806 456.696 Q53.6281 456.314 56.8109 453.067 Q59.9619 449.789 59.9619 443.964 Q59.9619 440.59 59.1344 437.439 Q58.3069 434.257 56.6518 431.137 L62.1899 431.137 Q63.5267 434.288 64.227 437.599 Q64.9272 440.909 64.9272 444.314 Q64.9272 452.844 59.9619 457.842 Q54.9967 462.807 46.5303 462.807 Q37.7774 462.807 32.6531 458.096 Q27.4968 453.354 27.4968 445.333 Q27.4968 438.14 32.1438 433.97 Q36.7589 429.769 44.7161 429.769 M42.9973 435.625 Q38.1912 435.689 35.3266 438.331 Q32.4621 440.941 32.4621 445.269 Q32.4621 450.171 35.2312 453.131 Q38.0002 456.059 43.0292 456.505 L42.9973 435.625 Z" fill="#000000" fill-rule="nonzero" fill-opacity="1" /><path clip-path="url(#clip080)" d="M14.5426 421.08 L14.5426 415.987 Q22.0542 411.213 29.2474 408.857 Q36.4406 406.47 43.5384 406.47 Q50.668 406.47 57.8931 408.857 Q65.1182 411.213 72.5979 415.987 L72.5979 421.08 Q65.3091 416.846 58.1159 414.778 Q50.8908 412.677 43.5384 412.677 Q36.186 412.677 29.0246 414.778 Q21.8632 416.846 14.5426 421.08 Z" fill="#000000" fill-rule="nonzero" fill-opacity="1" /><path clip-path="url(#clip080)" d="M828.113 12.096 L836.377 12.096 L849.097 63.2184 L861.776 12.096 L870.972 12.096 L883.692 63.2184 L896.371 12.096 L904.675 12.096 L889.485 72.576 L879.195 72.576 L866.435 20.0763 L853.553 72.576 L843.264 72.576 L828.113 12.096 Z" fill="#000000" fill-rule="nonzero" fill-opacity="1" /><path clip-path="url(#clip080)" d="M930.52 49.7694 Q921.487 49.7694 918.003 51.8354 Q914.519 53.9013 914.519 58.8839 Q914.519 62.8538 917.112 65.2034 Q919.745 67.5124 924.241 67.5124 Q930.439 67.5124 934.166 63.1374 Q937.933 58.7219 937.933 51.4303 L937.933 49.7694 L930.52 49.7694 M945.387 46.6907 L945.387 72.576 L937.933 72.576 L937.933 65.6895 Q935.381 69.8214 931.573 71.8063 Q927.766 73.7508 922.256 73.7508 Q915.289 73.7508 911.157 69.8619 Q907.065 65.9325 907.065 59.3701 Q907.065 51.7138 912.17 47.825 Q917.314 43.9361 927.482 43.9361 L937.933 43.9361 L937.933 43.2069 Q937.933 38.0623 934.531 35.2672 Q931.168 32.4315 925.051 32.4315 Q921.163 32.4315 917.476 33.3632 Q913.79 34.295 910.387 36.1584 L910.387 29.2718 Q914.479 27.692 918.327 26.9223 Q922.175 26.1121 925.821 26.1121 Q935.665 26.1121 940.526 31.2163 Q945.387 36.3204 945.387 46.6907 Z" fill="#000000" fill-rule="nonzero" fill-opacity="1" /><path clip-path="url(#clip080)" d="M968.113 14.324 L968.113 27.2059 L983.465 27.2059 L983.465 32.9987 L968.113 32.9987 L968.113 57.6282 Q968.113 63.1779 969.611 64.7578 Q971.151 66.3376 975.809 66.3376 L983.465 66.3376 L983.465 72.576 L975.809 72.576 Q967.181 72.576 963.9 69.3758 Q960.618 66.1351 960.618 57.6282 L960.618 32.9987 L955.15 32.9987 L955.15 27.2059 L960.618 27.2059 L960.618 14.324 L968.113 14.324 Z" fill="#000000" fill-rule="nonzero" fill-opacity="1" /><path clip-path="url(#clip080)" d="M1032.08 48.0275 L1032.08 51.6733 L997.806 51.6733 Q998.292 59.3701 1002.42 63.421 Q1006.6 67.4314 1014.01 67.4314 Q1018.3 67.4314 1022.31 66.3781 Q1026.36 65.3249 1030.33 63.2184 L1030.33 70.267 Q1026.32 71.9684 1022.11 72.8596 Q1017.9 73.7508 1013.56 73.7508 Q1002.71 73.7508 996.347 67.4314 Q990.028 61.1119 990.028 50.3365 Q990.028 39.1965 996.023 32.6746 Q1002.06 26.1121 1012.27 26.1121 Q1021.42 26.1121 1026.73 32.0264 Q1032.08 37.9003 1032.08 48.0275 M1024.62 45.84 Q1024.54 39.7232 1021.18 36.0774 Q1017.86 32.4315 1012.35 32.4315 Q1006.11 32.4315 1002.34 35.9558 Q998.616 39.4801 998.049 45.8805 L1024.62 45.84 Z" fill="#000000" fill-rule="nonzero" fill-opacity="1" /><path clip-path="url(#clip080)" d="M1070.6 34.1734 Q1069.34 33.4443 1067.85 33.1202 Q1066.39 32.7556 1064.61 32.7556 Q1058.29 32.7556 1054.88 36.8875 Q1051.52 40.9789 1051.52 48.6757 L1051.52 72.576 L1044.03 72.576 L1044.03 27.2059 L1051.52 27.2059 L1051.52 34.2544 Q1053.87 30.1225 1057.64 28.1376 Q1061.4 26.1121 1066.79 26.1121 Q1067.56 26.1121 1068.49 26.2337 Q1069.43 26.3147 1070.56 26.5172 L1070.6 34.1734 Z" fill="#000000" fill-rule="nonzero" fill-opacity="1" /><path clip-path="url(#clip080)" d="M1101.39 9.54393 L1101.39 15.7418 L1094.26 15.7418 Q1090.25 15.7418 1088.67 17.3622 Q1087.13 18.9825 1087.13 23.1955 L1087.13 27.2059 L1099.4 27.2059 L1099.4 32.9987 L1087.13 32.9987 L1087.13 72.576 L1079.63 72.576 L1079.63 32.9987 L1072.5 32.9987 L1072.5 27.2059 L1079.63 27.2059 L1079.63 24.0462 Q1079.63 16.471 1083.16 13.0277 Q1086.68 9.54393 1094.34 9.54393 L1101.39 9.54393 Z" fill="#000000" fill-rule="nonzero" fill-opacity="1" /><path clip-path="url(#clip080)" d="M1128.24 49.7694 Q1119.21 49.7694 1115.73 51.8354 Q1112.24 53.9013 1112.24 58.8839 Q1112.24 62.8538 1114.84 65.2034 Q1117.47 67.5124 1121.97 67.5124 Q1128.16 67.5124 1131.89 63.1374 Q1135.66 58.7219 1135.66 51.4303 L1135.66 49.7694 L1128.24 49.7694 M1143.11 46.6907 L1143.11 72.576 L1135.66 72.576 L1135.66 65.6895 Q1133.11 69.8214 1129.3 71.8063 Q1125.49 73.7508 1119.98 73.7508 Q1113.01 73.7508 1108.88 69.8619 Q1104.79 65.9325 1104.79 59.3701 Q1104.79 51.7138 1109.89 47.825 Q1115.04 43.9361 1125.21 43.9361 L1135.66 43.9361 L1135.66 43.2069 Q1135.66 38.0623 1132.26 35.2672 Q1128.89 32.4315 1122.78 32.4315 Q1118.89 32.4315 1115.2 33.3632 Q1111.51 34.295 1108.11 36.1584 L1108.11 29.2718 Q1112.2 27.692 1116.05 26.9223 Q1119.9 26.1121 1123.55 26.1121 Q1133.39 26.1121 1138.25 31.2163 Q1143.11 36.3204 1143.11 46.6907 Z" fill="#000000" fill-rule="nonzero" fill-opacity="1" /><path clip-path="url(#clip080)" d="M1158.46 9.54393 L1165.92 9.54393 L1165.92 72.576 L1158.46 72.576 L1158.46 9.54393 Z" fill="#000000" fill-rule="nonzero" fill-opacity="1" /><path clip-path="url(#clip080)" d="M1181.51 9.54393 L1188.97 9.54393 L1188.97 72.576 L1181.51 72.576 L1181.51 9.54393 Z" fill="#000000" fill-rule="nonzero" fill-opacity="1" /><path clip-path="url(#clip080)" d="M1238.15 65.7705 L1238.15 89.8329 L1230.65 89.8329 L1230.65 27.2059 L1238.15 27.2059 L1238.15 34.0924 Q1240.5 30.0415 1244.06 28.0971 Q1247.67 26.1121 1252.65 26.1121 Q1260.91 26.1121 1266.06 32.6746 Q1271.24 39.2371 1271.24 49.9314 Q1271.24 60.6258 1266.06 67.1883 Q1260.91 73.7508 1252.65 73.7508 Q1247.67 73.7508 1244.06 71.8063 Q1240.5 69.8214 1238.15 65.7705 M1263.5 49.9314 Q1263.5 41.7081 1260.1 37.0496 Q1256.74 32.3505 1250.83 32.3505 Q1244.91 32.3505 1241.51 37.0496 Q1238.15 41.7081 1238.15 49.9314 Q1238.15 58.1548 1241.51 62.8538 Q1244.91 67.5124 1250.83 67.5124 Q1256.74 67.5124 1260.1 62.8538 Q1263.5 58.1548 1263.5 49.9314 Z" fill="#000000" fill-rule="nonzero" fill-opacity="1" /><path clip-path="url(#clip080)" d="M1283.6 9.54393 L1291.05 9.54393 L1291.05 72.576 L1283.6 72.576 L1283.6 9.54393 Z" fill="#000000" fill-rule="nonzero" fill-opacity="1" /><path clip-path="url(#clip080)" d="M1324.23 32.4315 Q1318.23 32.4315 1314.75 37.1306 Q1311.26 41.7891 1311.26 49.9314 Q1311.26 58.0738 1314.71 62.7728 Q1318.19 67.4314 1324.23 67.4314 Q1330.18 67.4314 1333.67 62.7323 Q1337.15 58.0333 1337.15 49.9314 Q1337.15 41.8701 1333.67 37.1711 Q1330.18 32.4315 1324.23 32.4315 M1324.23 26.1121 Q1333.95 26.1121 1339.5 32.4315 Q1345.05 38.7509 1345.05 49.9314 Q1345.05 61.0714 1339.5 67.4314 Q1333.95 73.7508 1324.23 73.7508 Q1314.46 73.7508 1308.92 67.4314 Q1303.41 61.0714 1303.41 49.9314 Q1303.41 38.7509 1308.92 32.4315 Q1314.46 26.1121 1324.23 26.1121 Z" fill="#000000" fill-rule="nonzero" fill-opacity="1" /><path clip-path="url(#clip080)" d="M1364.78 14.324 L1364.78 27.2059 L1380.13 27.2059 L1380.13 32.9987 L1364.78 32.9987 L1364.78 57.6282 Q1364.78 63.1779 1366.28 64.7578 Q1367.82 66.3376 1372.47 66.3376 L1380.13 66.3376 L1380.13 72.576 L1372.47 72.576 Q1363.85 72.576 1360.56 69.3758 Q1357.28 66.1351 1357.28 57.6282 L1357.28 32.9987 L1351.81 32.9987 L1351.81 27.2059 L1357.28 27.2059 L1357.28 14.324 L1364.78 14.324 Z" fill="#000000" fill-rule="nonzero" fill-opacity="1" /><path clip-path="url(#clip080)" d="M1418.78 65.6895 L1432.14 65.6895 L1432.14 19.5497 L1417.6 22.4663 L1417.6 15.0127 L1432.06 12.096 L1440.25 12.096 L1440.25 65.6895 L1453.61 65.6895 L1453.61 72.576 L1418.78 72.576 L1418.78 65.6895 Z" fill="#000000" fill-rule="nonzero" fill-opacity="1" /><path clip-path="url(#clip080)" d="M1488.65 39.075 Q1483.14 39.075 1479.9 42.8424 Q1476.7 46.6097 1476.7 53.1722 Q1476.7 59.6941 1479.9 63.502 Q1483.14 67.2693 1488.65 67.2693 Q1494.16 67.2693 1497.36 63.502 Q1500.6 59.6941 1500.6 53.1722 Q1500.6 46.6097 1497.36 42.8424 Q1494.16 39.075 1488.65 39.075 M1504.9 13.4328 L1504.9 20.8865 Q1501.82 19.4281 1498.66 18.6585 Q1495.54 17.8888 1492.46 17.8888 Q1484.36 17.8888 1480.07 23.3575 Q1475.81 28.8262 1475.2 39.8852 Q1477.59 36.3609 1481.2 34.4975 Q1484.81 32.5936 1489.14 32.5936 Q1498.25 32.5936 1503.52 38.1433 Q1508.83 43.6525 1508.83 53.1722 Q1508.83 62.4892 1503.32 68.12 Q1497.81 73.7508 1488.65 73.7508 Q1478.16 73.7508 1472.61 65.73 Q1467.06 57.6687 1467.06 42.3968 Q1467.06 28.0566 1473.87 19.5497 Q1480.67 11.0023 1492.14 11.0023 Q1495.22 11.0023 1498.34 11.6099 Q1501.5 12.2175 1504.9 13.4328 Z" fill="#000000" fill-rule="nonzero" fill-opacity="1" /><path clip-path="url(#clip080)" d="M1547.72 39.9662 Q1553.59 41.222 1556.87 45.1919 Q1560.19 49.1618 1560.19 54.9951 Q1560.19 63.9476 1554.04 68.8492 Q1547.88 73.7508 1536.54 73.7508 Q1532.73 73.7508 1528.68 72.9811 Q1524.67 72.2519 1520.37 70.7531 L1520.37 62.8538 Q1523.78 64.8388 1527.83 65.8515 Q1531.88 66.8642 1536.29 66.8642 Q1543.99 66.8642 1548 63.826 Q1552.05 60.7879 1552.05 54.9951 Q1552.05 49.6479 1548.28 46.6502 Q1544.56 43.612 1537.87 43.612 L1530.82 43.612 L1530.82 36.8875 L1538.2 36.8875 Q1544.23 36.8875 1547.43 34.4975 Q1550.63 32.067 1550.63 27.5299 Q1550.63 22.8714 1547.31 20.4004 Q1544.03 17.8888 1537.87 17.8888 Q1534.51 17.8888 1530.66 18.618 Q1526.81 19.3471 1522.2 20.8865 L1522.2 13.5948 Q1526.85 12.2985 1530.9 11.6504 Q1535 11.0023 1538.6 11.0023 Q1547.92 11.0023 1553.35 15.2557 Q1558.77 19.4686 1558.77 26.6793 Q1558.77 31.7024 1555.9 35.1862 Q1553.02 38.6294 1547.72 39.9662 Z" fill="#000000" fill-rule="nonzero" fill-opacity="1" /><path clip-path="url(#clip080)" d="M1587.9 12.096 L1594.79 12.096 L1573.72 80.2727 L1566.84 80.2727 L1587.9 12.096 Z" fill="#000000" fill-rule="nonzero" fill-opacity="1" /><path clip-path="url(#clip080)" d="M1610.71 65.6895 L1639.27 65.6895 L1639.27 72.576 L1600.86 72.576 L1600.86 65.6895 Q1605.52 60.8689 1613.54 52.7671 Q1621.6 44.6248 1623.67 42.2752 Q1627.6 37.8598 1629.14 34.8216 Q1630.72 31.7429 1630.72 28.7857 Q1630.72 23.9651 1627.32 20.927 Q1623.95 17.8888 1618.53 17.8888 Q1614.68 17.8888 1610.38 19.2256 Q1606.13 20.5624 1601.27 23.2765 L1601.27 15.0127 Q1606.21 13.0277 1610.5 12.015 Q1614.8 11.0023 1618.36 11.0023 Q1627.76 11.0023 1633.35 15.7013 Q1638.94 20.4004 1638.94 28.2591 Q1638.94 31.9859 1637.52 35.3482 Q1636.15 38.6699 1632.46 43.2069 Q1631.45 44.3817 1626.02 50.0125 Q1620.59 55.6027 1610.71 65.6895 Z" fill="#000000" fill-rule="nonzero" fill-opacity="1" /><path clip-path="url(#clip080)" d="M1656.52 12.096 L1688.65 12.096 L1688.65 18.9825 L1664.02 18.9825 L1664.02 33.8088 Q1665.8 33.2012 1667.58 32.9176 Q1669.36 32.5936 1671.15 32.5936 Q1681.27 32.5936 1687.19 38.1433 Q1693.1 43.6931 1693.1 53.1722 Q1693.1 62.9348 1687.03 68.3631 Q1680.95 73.7508 1669.89 73.7508 Q1666.08 73.7508 1662.11 73.1026 Q1658.18 72.4545 1653.97 71.1582 L1653.97 62.9348 Q1657.62 64.9198 1661.51 65.892 Q1665.39 66.8642 1669.73 66.8642 Q1676.74 66.8642 1680.83 63.1779 Q1684.92 59.4916 1684.92 53.1722 Q1684.92 46.8528 1680.83 43.1664 Q1676.74 39.4801 1669.73 39.4801 Q1666.45 39.4801 1663.17 40.2093 Q1659.93 40.9384 1656.52 42.4778 L1656.52 12.096 Z" fill="#000000" fill-rule="nonzero" fill-opacity="1" /><path clip-path="url(#clip080)" d="M1716.27 65.6895 L1744.83 65.6895 L1744.83 72.576 L1706.43 72.576 L1706.43 65.6895 Q1711.09 60.8689 1719.11 52.7671 Q1727.17 44.6248 1729.24 42.2752 Q1733.17 37.8598 1734.71 34.8216 Q1736.29 31.7429 1736.29 28.7857 Q1736.29 23.9651 1732.88 20.927 Q1729.52 17.8888 1724.09 17.8888 Q1720.24 17.8888 1715.95 19.2256 Q1711.7 20.5624 1706.84 23.2765 L1706.84 15.0127 Q1711.78 13.0277 1716.07 12.015 Q1720.37 11.0023 1723.93 11.0023 Q1733.33 11.0023 1738.92 15.7013 Q1744.51 20.4004 1744.51 28.2591 Q1744.51 31.9859 1743.09 35.3482 Q1741.71 38.6699 1738.03 43.2069 Q1737.01 44.3817 1731.59 50.0125 Q1726.16 55.6027 1716.27 65.6895 Z" fill="#000000" fill-rule="nonzero" fill-opacity="1" /><circle clip-path="url(#clip081)" cx="280.546" cy="1364.1" r="5.63948" fill="#cb4678" fill-rule="evenodd" fill-opacity="1" stroke="none"/>
<circle clip-path="url(#clip081)" cx="292.965" cy="1364.1" r="5.63948" fill="#cb4678" fill-rule="evenodd" fill-opacity="1" stroke="none"/>
<circle clip-path="url(#clip081)" cx="305.384" cy="1364.1" r="5.63948" fill="#cb4678" fill-rule="evenodd" fill-opacity="1" stroke="none"/>
<circle clip-path="url(#clip081)" cx="317.803" cy="1364.1" r="5.63948" fill="#cb4678" fill-rule="evenodd" fill-opacity="1" stroke="none"/>
<circle clip-path="url(#clip081)" cx="330.221" cy="1364.1" r="5.63948" fill="#cb4678" fill-rule="evenodd" fill-opacity="1" stroke="none"/>
<circle clip-path="url(#clip081)" cx="342.64" cy="1364.1" r="5.63948" fill="#cb4678" fill-rule="evenodd" fill-opacity="1" stroke="none"/>
<circle clip-path="url(#clip081)" cx="355.059" cy="1364.1" r="5.63948" fill="#cb4678" fill-rule="evenodd" fill-opacity="1" stroke="none"/>
<circle clip-path="url(#clip081)" cx="367.478" cy="1364.1" r="5.63948" fill="#cb4678" fill-rule="evenodd" fill-opacity="1" stroke="none"/>
<circle clip-path="url(#clip081)" cx="379.897" cy="1364.1" r="5.63948" fill="#cb4678" fill-rule="evenodd" fill-opacity="1" stroke="none"/>
<circle clip-path="url(#clip081)" cx="392.316" cy="1364.1" r="5.63948" fill="#cb4678" fill-rule="evenodd" fill-opacity="1" stroke="none"/>
<circle clip-path="url(#clip081)" cx="404.735" cy="1364.1" r="5.63948" fill="#cb4678" fill-rule="evenodd" fill-opacity="1" stroke="none"/>
<circle clip-path="url(#clip081)" cx="417.153" cy="1364.1" r="5.63948" fill="#cb4678" fill-rule="evenodd" fill-opacity="1" stroke="none"/>
<circle clip-path="url(#clip081)" cx="429.572" cy="1364.1" r="5.63948" fill="#cb4678" fill-rule="evenodd" fill-opacity="1" stroke="none"/>
<circle clip-path="url(#clip081)" cx="441.991" cy="1364.1" r="5.63948" fill="#cb4678" fill-rule="evenodd" fill-opacity="1" stroke="none"/>
<circle clip-path="url(#clip081)" cx="454.41" cy="1364.1" r="5.63948" fill="#cb4678" fill-rule="evenodd" fill-opacity="1" stroke="none"/>
<circle clip-path="url(#clip081)" cx="466.829" cy="1364.1" r="5.63948" fill="#cb4678" fill-rule="evenodd" fill-opacity="1" stroke="none"/>
<circle clip-path="url(#clip081)" cx="479.248" cy="1364.1" r="5.63948" fill="#cb4678" fill-rule="evenodd" fill-opacity="1" stroke="none"/>
<circle clip-path="url(#clip081)" cx="491.666" cy="1364.1" r="5.63948" fill="#cb4678" fill-rule="evenodd" fill-opacity="1" stroke="none"/>
<circle clip-path="url(#clip081)" cx="504.085" cy="1364.1" r="5.63948" fill="#cb4678" fill-rule="evenodd" fill-opacity="1" stroke="none"/>
<circle clip-path="url(#clip081)" cx="516.504" cy="1364.1" r="5.63948" fill="#cb4678" fill-rule="evenodd" fill-opacity="1" stroke="none"/>
<circle clip-path="url(#clip081)" cx="528.923" cy="1364.1" r="5.63948" fill="#cb4678" fill-rule="evenodd" fill-opacity="1" stroke="none"/>
<circle clip-path="url(#clip081)" cx="541.342" cy="1364.1" r="5.63948" fill="#cb4678" fill-rule="evenodd" fill-opacity="1" stroke="none"/>
<circle clip-path="url(#clip081)" cx="553.761" cy="1364.1" r="5.63948" fill="#cb4678" fill-rule="evenodd" fill-opacity="1" stroke="none"/>
<circle clip-path="url(#clip081)" cx="566.18" cy="1364.1" r="5.63948" fill="#cb4678" fill-rule="evenodd" fill-opacity="1" stroke="none"/>
<circle clip-path="url(#clip081)" cx="578.598" cy="1364.1" r="5.63948" fill="#cb4678" fill-rule="evenodd" fill-opacity="1" stroke="none"/>
<circle clip-path="url(#clip081)" cx="591.017" cy="1364.1" r="5.63948" fill="#cb4678" fill-rule="evenodd" fill-opacity="1" stroke="none"/>
<circle clip-path="url(#clip081)" cx="603.436" cy="1364.1" r="5.63948" fill="#cb4678" fill-rule="evenodd" fill-opacity="1" stroke="none"/>
<circle clip-path="url(#clip081)" cx="615.855" cy="1364.1" r="5.63948" fill="#cb4678" fill-rule="evenodd" fill-opacity="1" stroke="none"/>
<circle clip-path="url(#clip081)" cx="628.274" cy="1364.1" r="5.63948" fill="#cb4678" fill-rule="evenodd" fill-opacity="1" stroke="none"/>
<circle clip-path="url(#clip081)" cx="640.693" cy="1364.1" r="5.63948" fill="#cb4678" fill-rule="evenodd" fill-opacity="1" stroke="none"/>
<circle clip-path="url(#clip081)" cx="653.112" cy="1364.1" r="5.63948" fill="#cb4678" fill-rule="evenodd" fill-opacity="1" stroke="none"/>
<circle clip-path="url(#clip081)" cx="665.53" cy="1364.1" r="5.63948" fill="#cb4678" fill-rule="evenodd" fill-opacity="1" stroke="none"/>
<circle clip-path="url(#clip081)" cx="677.949" cy="1364.1" r="5.63948" fill="#cb4678" fill-rule="evenodd" fill-opacity="1" stroke="none"/>
<circle clip-path="url(#clip081)" cx="690.368" cy="1364.1" r="5.63948" fill="#cb4678" fill-rule="evenodd" fill-opacity="1" stroke="none"/>
<circle clip-path="url(#clip081)" cx="702.787" cy="1364.1" r="5.63948" fill="#cb4678" fill-rule="evenodd" fill-opacity="1" stroke="none"/>
<circle clip-path="url(#clip081)" cx="715.206" cy="1364.1" r="5.63948" fill="#cb4678" fill-rule="evenodd" fill-opacity="1" stroke="none"/>
<circle clip-path="url(#clip081)" cx="727.625" cy="1364.1" r="5.63948" fill="#cb4678" fill-rule="evenodd" fill-opacity="1" stroke="none"/>
<circle clip-path="url(#clip081)" cx="740.044" cy="1364.1" r="5.63948" fill="#cb4678" fill-rule="evenodd" fill-opacity="1" stroke="none"/>
<circle clip-path="url(#clip081)" cx="752.462" cy="1364.1" r="5.63948" fill="#cb4678" fill-rule="evenodd" fill-opacity="1" stroke="none"/>
<circle clip-path="url(#clip081)" cx="764.881" cy="1364.1" r="5.63948" fill="#cb4678" fill-rule="evenodd" fill-opacity="1" stroke="none"/>
<circle clip-path="url(#clip081)" cx="777.3" cy="1364.1" r="5.63948" fill="#cb4678" fill-rule="evenodd" fill-opacity="1" stroke="none"/>
<circle clip-path="url(#clip081)" cx="789.719" cy="1364.1" r="5.63948" fill="#cb4678" fill-rule="evenodd" fill-opacity="1" stroke="none"/>
<circle clip-path="url(#clip081)" cx="802.138" cy="1364.1" r="5.63948" fill="#cb4678" fill-rule="evenodd" fill-opacity="1" stroke="none"/>
<circle clip-path="url(#clip081)" cx="814.557" cy="1364.1" r="5.63948" fill="#cb4678" fill-rule="evenodd" fill-opacity="1" stroke="none"/>
<circle clip-path="url(#clip081)" cx="826.976" cy="1364.1" r="5.63948" fill="#cb4678" fill-rule="evenodd" fill-opacity="1" stroke="none"/>
<circle clip-path="url(#clip081)" cx="839.394" cy="1364.1" r="5.63948" fill="#cb4678" fill-rule="evenodd" fill-opacity="1" stroke="none"/>
<circle clip-path="url(#clip081)" cx="851.813" cy="1364.1" r="5.63948" fill="#cb4678" fill-rule="evenodd" fill-opacity="1" stroke="none"/>
<circle clip-path="url(#clip081)" cx="864.232" cy="1364.1" r="5.63948" fill="#cb4678" fill-rule="evenodd" fill-opacity="1" stroke="none"/>
<circle clip-path="url(#clip081)" cx="876.651" cy="1364.1" r="5.63948" fill="#cb4678" fill-rule="evenodd" fill-opacity="1" stroke="none"/>
<circle clip-path="url(#clip081)" cx="889.07" cy="1364.1" r="5.63948" fill="#cb4678" fill-rule="evenodd" fill-opacity="1" stroke="none"/>
<circle clip-path="url(#clip081)" cx="901.489" cy="1364.1" r="5.63948" fill="#cb4678" fill-rule="evenodd" fill-opacity="1" stroke="none"/>
<circle clip-path="url(#clip081)" cx="913.908" cy="1364.1" r="5.63948" fill="#cb4678" fill-rule="evenodd" fill-opacity="1" stroke="none"/>
<circle clip-path="url(#clip081)" cx="926.326" cy="1364.1" r="5.63948" fill="#cb4678" fill-rule="evenodd" fill-opacity="1" stroke="none"/>
<circle clip-path="url(#clip081)" cx="938.745" cy="1364.1" r="5.63948" fill="#cb4678" fill-rule="evenodd" fill-opacity="1" stroke="none"/>
<circle clip-path="url(#clip081)" cx="951.164" cy="1364.1" r="5.63948" fill="#cb4678" fill-rule="evenodd" fill-opacity="1" stroke="none"/>
<circle clip-path="url(#clip081)" cx="963.583" cy="1364.1" r="5.63948" fill="#cb4678" fill-rule="evenodd" fill-opacity="1" stroke="none"/>
<circle clip-path="url(#clip081)" cx="976.002" cy="1364.1" r="5.63948" fill="#cb4678" fill-rule="evenodd" fill-opacity="1" stroke="none"/>
<circle clip-path="url(#clip081)" cx="988.421" cy="1364.1" r="5.63948" fill="#cb4678" fill-rule="evenodd" fill-opacity="1" stroke="none"/>
<circle clip-path="url(#clip081)" cx="1000.84" cy="1364.1" r="5.63948" fill="#cb4678" fill-rule="evenodd" fill-opacity="1" stroke="none"/>
<circle clip-path="url(#clip081)" cx="1013.26" cy="1364.1" r="5.63948" fill="#cb4678" fill-rule="evenodd" fill-opacity="1" stroke="none"/>
<circle clip-path="url(#clip081)" cx="1025.68" cy="1364.1" r="5.63948" fill="#cb4678" fill-rule="evenodd" fill-opacity="1" stroke="none"/>
<circle clip-path="url(#clip081)" cx="1038.1" cy="1364.1" r="5.63948" fill="#cb4678" fill-rule="evenodd" fill-opacity="1" stroke="none"/>
<circle clip-path="url(#clip081)" cx="1050.51" cy="1364.1" r="5.63948" fill="#cb4678" fill-rule="evenodd" fill-opacity="1" stroke="none"/>
<circle clip-path="url(#clip081)" cx="1062.93" cy="1364.1" r="5.63948" fill="#cb4678" fill-rule="evenodd" fill-opacity="1" stroke="none"/>
<circle clip-path="url(#clip081)" cx="1075.35" cy="1364.1" r="5.63948" fill="#cb4678" fill-rule="evenodd" fill-opacity="1" stroke="none"/>
<circle clip-path="url(#clip081)" cx="1087.77" cy="1364.1" r="5.63948" fill="#cb4678" fill-rule="evenodd" fill-opacity="1" stroke="none"/>
<circle clip-path="url(#clip081)" cx="1100.19" cy="1364.1" r="5.63948" fill="#cb4678" fill-rule="evenodd" fill-opacity="1" stroke="none"/>
<circle clip-path="url(#clip081)" cx="1112.61" cy="1364.1" r="5.63948" fill="#cb4678" fill-rule="evenodd" fill-opacity="1" stroke="none"/>
<circle clip-path="url(#clip081)" cx="1125.03" cy="1364.1" r="5.63948" fill="#cb4678" fill-rule="evenodd" fill-opacity="1" stroke="none"/>
<circle clip-path="url(#clip081)" cx="1137.45" cy="1364.1" r="5.63948" fill="#cb4678" fill-rule="evenodd" fill-opacity="1" stroke="none"/>
<circle clip-path="url(#clip081)" cx="1149.87" cy="1364.1" r="5.63948" fill="#cb4678" fill-rule="evenodd" fill-opacity="1" stroke="none"/>
<circle clip-path="url(#clip081)" cx="1162.28" cy="1364.1" r="5.63948" fill="#cb4678" fill-rule="evenodd" fill-opacity="1" stroke="none"/>
<circle clip-path="url(#clip081)" cx="1174.7" cy="1364.1" r="5.63948" fill="#cb4678" fill-rule="evenodd" fill-opacity="1" stroke="none"/>
<circle clip-path="url(#clip081)" cx="1187.12" cy="1364.1" r="5.63948" fill="#cb4678" fill-rule="evenodd" fill-opacity="1" stroke="none"/>
<circle clip-path="url(#clip081)" cx="1199.54" cy="1364.1" r="5.63948" fill="#cb4678" fill-rule="evenodd" fill-opacity="1" stroke="none"/>
<circle clip-path="url(#clip081)" cx="1211.96" cy="1364.1" r="5.63948" fill="#cb4678" fill-rule="evenodd" fill-opacity="1" stroke="none"/>
<circle clip-path="url(#clip081)" cx="1224.38" cy="1364.1" r="5.63948" fill="#cb4678" fill-rule="evenodd" fill-opacity="1" stroke="none"/>
<circle clip-path="url(#clip081)" cx="1236.8" cy="1364.1" r="5.63948" fill="#cb4678" fill-rule="evenodd" fill-opacity="1" stroke="none"/>
<circle clip-path="url(#clip081)" cx="1249.22" cy="1364.1" r="5.63948" fill="#cb4678" fill-rule="evenodd" fill-opacity="1" stroke="none"/>
<circle clip-path="url(#clip081)" cx="1261.64" cy="1364.1" r="5.63948" fill="#cb4678" fill-rule="evenodd" fill-opacity="1" stroke="none"/>
<circle clip-path="url(#clip081)" cx="1274.05" cy="1364.1" r="5.63948" fill="#cb4678" fill-rule="evenodd" fill-opacity="1" stroke="none"/>
<circle clip-path="url(#clip081)" cx="1286.47" cy="1364.1" r="5.63948" fill="#cb4678" fill-rule="evenodd" fill-opacity="1" stroke="none"/>
<circle clip-path="url(#clip081)" cx="1298.89" cy="1364.1" r="5.63948" fill="#cb4678" fill-rule="evenodd" fill-opacity="1" stroke="none"/>
<circle clip-path="url(#clip081)" cx="1311.31" cy="1364.1" r="5.63948" fill="#cb4678" fill-rule="evenodd" fill-opacity="1" stroke="none"/>
<circle clip-path="url(#clip081)" cx="1323.73" cy="1364.1" r="5.63948" fill="#cb4678" fill-rule="evenodd" fill-opacity="1" stroke="none"/>
<circle clip-path="url(#clip081)" cx="1336.15" cy="1364.1" r="5.63948" fill="#cb4678" fill-rule="evenodd" fill-opacity="1" stroke="none"/>
<circle clip-path="url(#clip081)" cx="1348.57" cy="1364.1" r="5.63948" fill="#cb4678" fill-rule="evenodd" fill-opacity="1" stroke="none"/>
<circle clip-path="url(#clip081)" cx="1360.99" cy="1364.1" r="5.63948" fill="#cb4678" fill-rule="evenodd" fill-opacity="1" stroke="none"/>
<circle clip-path="url(#clip081)" cx="1373.41" cy="1364.1" r="5.63948" fill="#cb4678" fill-rule="evenodd" fill-opacity="1" stroke="none"/>
<circle clip-path="url(#clip081)" cx="1385.82" cy="1364.1" r="5.63948" fill="#cb4678" fill-rule="evenodd" fill-opacity="1" stroke="none"/>
<circle clip-path="url(#clip081)" cx="1398.24" cy="1364.1" r="5.63948" fill="#cb4678" fill-rule="evenodd" fill-opacity="1" stroke="none"/>
<circle clip-path="url(#clip081)" cx="1410.66" cy="1364.1" r="5.63948" fill="#cb4678" fill-rule="evenodd" fill-opacity="1" stroke="none"/>
<circle clip-path="url(#clip081)" cx="1423.08" cy="1364.1" r="5.63948" fill="#cb4678" fill-rule="evenodd" fill-opacity="1" stroke="none"/>
<circle clip-path="url(#clip081)" cx="1435.5" cy="1364.1" r="5.63948" fill="#cb4678" fill-rule="evenodd" fill-opacity="1" stroke="none"/>
<circle clip-path="url(#clip081)" cx="1447.92" cy="1364.1" r="5.63948" fill="#cb4678" fill-rule="evenodd" fill-opacity="1" stroke="none"/>
<circle clip-path="url(#clip081)" cx="1460.34" cy="1364.1" r="5.63948" fill="#cb4678" fill-rule="evenodd" fill-opacity="1" stroke="none"/>
<circle clip-path="url(#clip081)" cx="1472.76" cy="1364.1" r="5.63948" fill="#cb4678" fill-rule="evenodd" fill-opacity="1" stroke="none"/>
<circle clip-path="url(#clip081)" cx="1485.17" cy="1364.1" r="5.63948" fill="#cb4678" fill-rule="evenodd" fill-opacity="1" stroke="none"/>
<circle clip-path="url(#clip081)" cx="1497.59" cy="1364.1" r="5.63948" fill="#cb4678" fill-rule="evenodd" fill-opacity="1" stroke="none"/>
<circle clip-path="url(#clip081)" cx="1510.01" cy="1364.1" r="5.63948" fill="#cb4678" fill-rule="evenodd" fill-opacity="1" stroke="none"/>
<circle clip-path="url(#clip081)" cx="1522.43" cy="1364.1" r="5.63948" fill="#cb4678" fill-rule="evenodd" fill-opacity="1" stroke="none"/>
<circle clip-path="url(#clip081)" cx="1534.85" cy="1364.1" r="5.63948" fill="#cb4678" fill-rule="evenodd" fill-opacity="1" stroke="none"/>
<circle clip-path="url(#clip081)" cx="1547.27" cy="1364.1" r="5.63948" fill="#cb4678" fill-rule="evenodd" fill-opacity="1" stroke="none"/>
<circle clip-path="url(#clip081)" cx="1559.69" cy="1364.1" r="5.63948" fill="#cb4678" fill-rule="evenodd" fill-opacity="1" stroke="none"/>
<circle clip-path="url(#clip081)" cx="1572.11" cy="1364.1" r="5.63948" fill="#cb4678" fill-rule="evenodd" fill-opacity="1" stroke="none"/>
<circle clip-path="url(#clip081)" cx="1584.53" cy="1364.1" r="5.63948" fill="#cb4678" fill-rule="evenodd" fill-opacity="1" stroke="none"/>
<circle clip-path="url(#clip081)" cx="1596.94" cy="1364.1" r="5.63948" fill="#cb4678" fill-rule="evenodd" fill-opacity="1" stroke="none"/>
<circle clip-path="url(#clip081)" cx="1609.36" cy="1364.1" r="5.63948" fill="#cb4678" fill-rule="evenodd" fill-opacity="1" stroke="none"/>
<circle clip-path="url(#clip081)" cx="1621.78" cy="1364.1" r="5.63948" fill="#cb4678" fill-rule="evenodd" fill-opacity="1" stroke="none"/>
<circle clip-path="url(#clip081)" cx="1634.2" cy="1364.1" r="5.63948" fill="#cb4678" fill-rule="evenodd" fill-opacity="1" stroke="none"/>
<circle clip-path="url(#clip081)" cx="1646.62" cy="1364.1" r="5.63948" fill="#cb4678" fill-rule="evenodd" fill-opacity="1" stroke="none"/>
<circle clip-path="url(#clip081)" cx="1659.04" cy="1364.1" r="5.63948" fill="#cb4678" fill-rule="evenodd" fill-opacity="1" stroke="none"/>
<circle clip-path="url(#clip081)" cx="1671.46" cy="1364.1" r="5.63948" fill="#cb4678" fill-rule="evenodd" fill-opacity="1" stroke="none"/>
<circle clip-path="url(#clip081)" cx="1683.88" cy="1364.1" r="5.63948" fill="#cb4678" fill-rule="evenodd" fill-opacity="1" stroke="none"/>
<circle clip-path="url(#clip081)" cx="1696.3" cy="1364.1" r="5.63948" fill="#cb4678" fill-rule="evenodd" fill-opacity="1" stroke="none"/>
<circle clip-path="url(#clip081)" cx="1708.71" cy="1364.1" r="5.63948" fill="#cb4678" fill-rule="evenodd" fill-opacity="1" stroke="none"/>
<circle clip-path="url(#clip081)" cx="1721.13" cy="1364.1" r="5.63948" fill="#cb4678" fill-rule="evenodd" fill-opacity="1" stroke="none"/>
<circle clip-path="url(#clip081)" cx="1733.55" cy="1364.1" r="5.63948" fill="#cb4678" fill-rule="evenodd" fill-opacity="1" stroke="none"/>
<circle clip-path="url(#clip081)" cx="1745.97" cy="1364.1" r="5.63948" fill="#cb4678" fill-rule="evenodd" fill-opacity="1" stroke="none"/>
<circle clip-path="url(#clip081)" cx="1758.39" cy="1364.1" r="5.63948" fill="#cb4678" fill-rule="evenodd" fill-opacity="1" stroke="none"/>
<circle clip-path="url(#clip081)" cx="1770.81" cy="1364.1" r="5.63948" fill="#cb4678" fill-rule="evenodd" fill-opacity="1" stroke="none"/>
<circle clip-path="url(#clip081)" cx="1783.23" cy="1364.1" r="5.63948" fill="#cb4678" fill-rule="evenodd" fill-opacity="1" stroke="none"/>
<circle clip-path="url(#clip081)" cx="1795.65" cy="1364.1" r="5.63948" fill="#cb4678" fill-rule="evenodd" fill-opacity="1" stroke="none"/>
<circle clip-path="url(#clip081)" cx="1808.06" cy="1364.1" r="5.63948" fill="#cb4678" fill-rule="evenodd" fill-opacity="1" stroke="none"/>
<circle clip-path="url(#clip081)" cx="1820.48" cy="1364.1" r="5.63948" fill="#cb4678" fill-rule="evenodd" fill-opacity="1" stroke="none"/>
<circle clip-path="url(#clip081)" cx="1832.9" cy="1364.1" r="5.63948" fill="#cb4678" fill-rule="evenodd" fill-opacity="1" stroke="none"/>
<circle clip-path="url(#clip081)" cx="1845.32" cy="1364.1" r="5.63948" fill="#cb4678" fill-rule="evenodd" fill-opacity="1" stroke="none"/>
<circle clip-path="url(#clip081)" cx="1857.74" cy="1364.1" r="5.63948" fill="#cb4678" fill-rule="evenodd" fill-opacity="1" stroke="none"/>
<circle clip-path="url(#clip081)" cx="1870.16" cy="1364.1" r="5.63948" fill="#cb4678" fill-rule="evenodd" fill-opacity="1" stroke="none"/>
<circle clip-path="url(#clip081)" cx="1882.58" cy="1364.1" r="5.63948" fill="#cb4678" fill-rule="evenodd" fill-opacity="1" stroke="none"/>
<circle clip-path="url(#clip081)" cx="1895" cy="1364.1" r="5.63948" fill="#cb4678" fill-rule="evenodd" fill-opacity="1" stroke="none"/>
<path clip-path="url(#clip081)" d="M1907.42 176.284 L1901.15 188.816 L1913.68 188.816 L1907.42 176.284 Z" fill="#0c0786" fill-rule="evenodd" fill-opacity="1" stroke="none"/>
<path clip-path="url(#clip081)" d="M1919.83 176.284 L1913.57 188.816 L1926.1 188.816 L1919.83 176.284 Z" fill="#0c0786" fill-rule="evenodd" fill-opacity="1" stroke="none"/>
<path clip-path="url(#clip081)" d="M1932.25 176.284 L1925.99 188.816 L1938.52 188.816 L1932.25 176.284 Z" fill="#0c0786" fill-rule="evenodd" fill-opacity="1" stroke="none"/>
<path clip-path="url(#clip081)" d="M1944.67 176.284 L1938.41 188.816 L1950.94 188.816 L1944.67 176.284 Z" fill="#0c0786" fill-rule="evenodd" fill-opacity="1" stroke="none"/>
<path clip-path="url(#clip081)" d="M1957.09 176.284 L1950.83 188.816 L1963.36 188.816 L1957.09 176.284 Z" fill="#0c0786" fill-rule="evenodd" fill-opacity="1" stroke="none"/>
<path clip-path="url(#clip081)" d="M1969.51 176.284 L1963.24 188.816 L1975.78 188.816 L1969.51 176.284 Z" fill="#0c0786" fill-rule="evenodd" fill-opacity="1" stroke="none"/>
<path clip-path="url(#clip081)" d="M1981.93 176.284 L1975.66 188.816 L1988.2 188.816 L1981.93 176.284 Z" fill="#0c0786" fill-rule="evenodd" fill-opacity="1" stroke="none"/>
<path clip-path="url(#clip081)" d="M1994.35 176.284 L1988.08 188.816 L2000.61 188.816 L1994.35 176.284 Z" fill="#0c0786" fill-rule="evenodd" fill-opacity="1" stroke="none"/>
<path clip-path="url(#clip081)" d="M2006.77 176.284 L2000.5 188.816 L2013.03 188.816 L2006.77 176.284 Z" fill="#0c0786" fill-rule="evenodd" fill-opacity="1" stroke="none"/>
<path clip-path="url(#clip081)" d="M2019.19 176.284 L2012.92 188.816 L2025.45 188.816 L2019.19 176.284 Z" fill="#0c0786" fill-rule="evenodd" fill-opacity="1" stroke="none"/>
<path clip-path="url(#clip081)" d="M2031.6 176.284 L2025.34 188.816 L2037.87 188.816 L2031.6 176.284 Z" fill="#0c0786" fill-rule="evenodd" fill-opacity="1" stroke="none"/>
<path clip-path="url(#clip081)" d="M2044.02 176.284 L2037.76 188.816 L2050.29 188.816 L2044.02 176.284 Z" fill="#0c0786" fill-rule="evenodd" fill-opacity="1" stroke="none"/>
<path clip-path="url(#clip081)" d="M2056.44 176.284 L2050.18 188.816 L2062.71 188.816 L2056.44 176.284 Z" fill="#0c0786" fill-rule="evenodd" fill-opacity="1" stroke="none"/>
<path clip-path="url(#clip081)" d="M2068.86 176.284 L2062.59 188.816 L2075.13 188.816 L2068.86 176.284 Z" fill="#0c0786" fill-rule="evenodd" fill-opacity="1" stroke="none"/>
<path clip-path="url(#clip081)" d="M2081.28 176.284 L2075.01 188.816 L2087.55 188.816 L2081.28 176.284 Z" fill="#0c0786" fill-rule="evenodd" fill-opacity="1" stroke="none"/>
<path clip-path="url(#clip081)" d="M2093.7 176.284 L2087.43 188.816 L2099.96 188.816 L2093.7 176.284 Z" fill="#0c0786" fill-rule="evenodd" fill-opacity="1" stroke="none"/>
<path clip-path="url(#clip081)" d="M2106.12 176.284 L2099.85 188.816 L2112.38 188.816 L2106.12 176.284 Z" fill="#0c0786" fill-rule="evenodd" fill-opacity="1" stroke="none"/>
<path clip-path="url(#clip081)" d="M2118.54 176.284 L2112.27 188.816 L2124.8 188.816 L2118.54 176.284 Z" fill="#0c0786" fill-rule="evenodd" fill-opacity="1" stroke="none"/>
<path clip-path="url(#clip081)" d="M2130.96 176.284 L2124.69 188.816 L2137.22 188.816 L2130.96 176.284 Z" fill="#0c0786" fill-rule="evenodd" fill-opacity="1" stroke="none"/>
<path clip-path="url(#clip081)" d="M2143.37 176.284 L2137.11 188.816 L2149.64 188.816 L2143.37 176.284 Z" fill="#0c0786" fill-rule="evenodd" fill-opacity="1" stroke="none"/>
<path clip-path="url(#clip081)" d="M2155.79 176.284 L2149.53 188.816 L2162.06 188.816 L2155.79 176.284 Z" fill="#0c0786" fill-rule="evenodd" fill-opacity="1" stroke="none"/>
<path clip-path="url(#clip081)" d="M2168.21 176.284 L2161.95 188.816 L2174.48 188.816 L2168.21 176.284 Z" fill="#0c0786" fill-rule="evenodd" fill-opacity="1" stroke="none"/>
<path clip-path="url(#clip081)" d="M2180.63 176.284 L2174.36 188.816 L2186.9 188.816 L2180.63 176.284 Z" fill="#0c0786" fill-rule="evenodd" fill-opacity="1" stroke="none"/>
<path clip-path="url(#clip081)" d="M2193.05 176.284 L2186.78 188.816 L2199.32 188.816 L2193.05 176.284 Z" fill="#0c0786" fill-rule="evenodd" fill-opacity="1" stroke="none"/>
<path clip-path="url(#clip081)" d="M2205.47 176.284 L2199.2 188.816 L2211.73 188.816 L2205.47 176.284 Z" fill="#0c0786" fill-rule="evenodd" fill-opacity="1" stroke="none"/>
<path clip-path="url(#clip081)" d="M2217.89 176.284 L2211.62 188.816 L2224.15 188.816 L2217.89 176.284 Z" fill="#0c0786" fill-rule="evenodd" fill-opacity="1" stroke="none"/>
<path clip-path="url(#clip081)" d="M2230.31 176.284 L2224.04 188.816 L2236.57 188.816 L2230.31 176.284 Z" fill="#0c0786" fill-rule="evenodd" fill-opacity="1" stroke="none"/>
<path clip-path="url(#clip081)" d="M2242.72 176.284 L2236.46 188.816 L2248.99 188.816 L2242.72 176.284 Z" fill="#0c0786" fill-rule="evenodd" fill-opacity="1" stroke="none"/>
<path clip-path="url(#clip081)" d="M2255.14 176.284 L2248.88 188.816 L2261.41 188.816 L2255.14 176.284 Z" fill="#0c0786" fill-rule="evenodd" fill-opacity="1" stroke="none"/>
<path clip-path="url(#clip081)" d="M2267.56 176.284 L2261.3 188.816 L2273.83 188.816 L2267.56 176.284 Z" fill="#0c0786" fill-rule="evenodd" fill-opacity="1" stroke="none"/>
<path clip-path="url(#clip081)" d="M2279.98 176.284 L2273.72 188.816 L2286.25 188.816 L2279.98 176.284 Z" fill="#0c0786" fill-rule="evenodd" fill-opacity="1" stroke="none"/>
<path clip-path="url(#clip081)" d="M2292.4 176.284 L2286.13 188.816 L2298.67 188.816 L2292.4 176.284 Z" fill="#0c0786" fill-rule="evenodd" fill-opacity="1" stroke="none"/>
</svg>
