<?xml version="1.0" encoding="utf-8"?>
<svg xmlns="http://www.w3.org/2000/svg" xmlns:xlink="http://www.w3.org/1999/xlink" width="600" height="400" viewBox="0 0 2400 1600">
<defs>
  <clipPath id="clip980">
    <rect x="0" y="0" width="2400" height="1600"/>
  </clipPath>
</defs>
<path clip-path="url(#clip980)" d="M0 1600 L2400 1600 L2400 0 L0 0  Z" fill="#ffffff" fill-rule="evenodd" fill-opacity="1"/>
<defs>
  <clipPath id="clip981">
    <rect x="202" y="47" width="2152" height="1377"/>
  </clipPath>
</defs>
<path clip-path="url(#clip980)" d="M202.227 1423.18 L2352.76 1423.18 L2352.76 47.2441 L202.227 47.2441  Z" fill="#ffffff" fill-rule="evenodd" fill-opacity="1"/>
<polyline clip-path="url(#clip981)" style="stroke:#000000; stroke-linecap:round; stroke-linejoin:round; stroke-width:2; stroke-opacity:0.1; fill:none" points="263.091,1423.18 263.091,47.2441 "/>
<polyline clip-path="url(#clip981)" style="stroke:#000000; stroke-linecap:round; stroke-linejoin:round; stroke-width:2; stroke-opacity:0.1; fill:none" points="939.358,1423.18 939.358,47.2441 "/>
<polyline clip-path="url(#clip981)" style="stroke:#000000; stroke-linecap:round; stroke-linejoin:round; stroke-width:2; stroke-opacity:0.1; fill:none" points="1615.63,1423.18 1615.63,47.2441 "/>
<polyline clip-path="url(#clip981)" style="stroke:#000000; stroke-linecap:round; stroke-linejoin:round; stroke-width:2; stroke-opacity:0.1; fill:none" points="2291.89,1423.18 2291.89,47.2441 "/>
<polyline clip-path="url(#clip981)" style="stroke:#000000; stroke-linecap:round; stroke-linejoin:round; stroke-width:2; stroke-opacity:0.1; fill:none" points="202.227,1107.6 2352.76,1107.6 "/>
<polyline clip-path="url(#clip981)" style="stroke:#000000; stroke-linecap:round; stroke-linejoin:round; stroke-width:2; stroke-opacity:0.1; fill:none" points="202.227,767.131 2352.76,767.131 "/>
<polyline clip-path="url(#clip981)" style="stroke:#000000; stroke-linecap:round; stroke-linejoin:round; stroke-width:2; stroke-opacity:0.1; fill:none" points="202.227,426.658 2352.76,426.658 "/>
<polyline clip-path="url(#clip981)" style="stroke:#000000; stroke-linecap:round; stroke-linejoin:round; stroke-width:2; stroke-opacity:0.1; fill:none" points="202.227,86.1857 2352.76,86.1857 "/>
<polyline clip-path="url(#clip980)" style="stroke:#000000; stroke-linecap:round; stroke-linejoin:round; stroke-width:4; stroke-opacity:1; fill:none" points="202.227,1423.18 2352.76,1423.18 "/>
<polyline clip-path="url(#clip980)" style="stroke:#000000; stroke-linecap:round; stroke-linejoin:round; stroke-width:4; stroke-opacity:1; fill:none" points="263.091,1423.18 263.091,1404.28 "/>
<polyline clip-path="url(#clip980)" style="stroke:#000000; stroke-linecap:round; stroke-linejoin:round; stroke-width:4; stroke-opacity:1; fill:none" points="939.358,1423.18 939.358,1404.28 "/>
<polyline clip-path="url(#clip980)" style="stroke:#000000; stroke-linecap:round; stroke-linejoin:round; stroke-width:4; stroke-opacity:1; fill:none" points="1615.63,1423.18 1615.63,1404.28 "/>
<polyline clip-path="url(#clip980)" style="stroke:#000000; stroke-linecap:round; stroke-linejoin:round; stroke-width:4; stroke-opacity:1; fill:none" points="2291.89,1423.18 2291.89,1404.28 "/>
<path clip-path="url(#clip980)" d="M253.473 1481.64 L261.112 1481.64 L261.112 1455.28 L252.802 1456.95 L252.802 1452.69 L261.066 1451.02 L265.742 1451.02 L265.742 1481.64 L273.381 1481.64 L273.381 1485.58 L253.473 1485.58 L253.473 1481.64 Z" fill="#000000" fill-rule="nonzero" fill-opacity="1" /><path clip-path="url(#clip980)" d="M934.011 1481.64 L950.33 1481.64 L950.33 1485.58 L928.386 1485.58 L928.386 1481.64 Q931.048 1478.89 935.631 1474.26 Q940.238 1469.61 941.418 1468.27 Q943.664 1465.74 944.543 1464.01 Q945.446 1462.25 945.446 1460.56 Q945.446 1457.8 943.502 1456.07 Q941.58 1454.33 938.479 1454.33 Q936.28 1454.33 933.826 1455.09 Q931.395 1455.86 928.618 1457.41 L928.618 1452.69 Q931.442 1451.55 933.895 1450.97 Q936.349 1450.39 938.386 1450.39 Q943.756 1450.39 946.951 1453.08 Q950.145 1455.77 950.145 1460.26 Q950.145 1462.39 949.335 1464.31 Q948.548 1466.2 946.442 1468.8 Q945.863 1469.47 942.761 1472.69 Q939.659 1475.88 934.011 1481.64 Z" fill="#000000" fill-rule="nonzero" fill-opacity="1" /><path clip-path="url(#clip980)" d="M1619.87 1466.95 Q1623.23 1467.66 1625.1 1469.93 Q1627 1472.2 1627 1475.53 Q1627 1480.65 1623.48 1483.45 Q1619.97 1486.25 1613.48 1486.25 Q1611.31 1486.25 1608.99 1485.81 Q1606.7 1485.39 1604.25 1484.54 L1604.25 1480.02 Q1606.19 1481.16 1608.51 1481.74 Q1610.82 1482.32 1613.35 1482.32 Q1617.74 1482.32 1620.03 1480.58 Q1622.35 1478.84 1622.35 1475.53 Q1622.35 1472.48 1620.2 1470.77 Q1618.07 1469.03 1614.25 1469.03 L1610.22 1469.03 L1610.22 1465.19 L1614.43 1465.19 Q1617.88 1465.19 1619.71 1463.82 Q1621.54 1462.43 1621.54 1459.84 Q1621.54 1457.18 1619.64 1455.77 Q1617.77 1454.33 1614.25 1454.33 Q1612.33 1454.33 1610.13 1454.75 Q1607.93 1455.16 1605.29 1456.04 L1605.29 1451.88 Q1607.95 1451.14 1610.27 1450.77 Q1612.6 1450.39 1614.66 1450.39 Q1619.99 1450.39 1623.09 1452.83 Q1626.19 1455.23 1626.19 1459.35 Q1626.19 1462.22 1624.55 1464.21 Q1622.91 1466.18 1619.87 1466.95 Z" fill="#000000" fill-rule="nonzero" fill-opacity="1" /><path clip-path="url(#clip980)" d="M2294.9 1455.09 L2283.1 1473.54 L2294.9 1473.54 L2294.9 1455.09 M2293.67 1451.02 L2299.55 1451.02 L2299.55 1473.54 L2304.48 1473.54 L2304.48 1477.43 L2299.55 1477.43 L2299.55 1485.58 L2294.9 1485.58 L2294.9 1477.43 L2279.3 1477.43 L2279.3 1472.92 L2293.67 1451.02 Z" fill="#000000" fill-rule="nonzero" fill-opacity="1" /><path clip-path="url(#clip980)" d="M1294.11 1532.4 L1281.22 1549.74 L1294.77 1568.04 L1287.87 1568.04 L1277.49 1554.04 L1267.12 1568.04 L1260.21 1568.04 L1274.05 1549.39 L1261.39 1532.4 L1268.29 1532.4 L1277.75 1545.1 L1287.2 1532.4 L1294.11 1532.4 Z" fill="#000000" fill-rule="nonzero" fill-opacity="1" /><polyline clip-path="url(#clip980)" style="stroke:#000000; stroke-linecap:round; stroke-linejoin:round; stroke-width:4; stroke-opacity:1; fill:none" points="202.227,1423.18 202.227,47.2441 "/>
<polyline clip-path="url(#clip980)" style="stroke:#000000; stroke-linecap:round; stroke-linejoin:round; stroke-width:4; stroke-opacity:1; fill:none" points="202.227,1107.6 221.125,1107.6 "/>
<polyline clip-path="url(#clip980)" style="stroke:#000000; stroke-linecap:round; stroke-linejoin:round; stroke-width:4; stroke-opacity:1; fill:none" points="202.227,767.131 221.125,767.131 "/>
<polyline clip-path="url(#clip980)" style="stroke:#000000; stroke-linecap:round; stroke-linejoin:round; stroke-width:4; stroke-opacity:1; fill:none" points="202.227,426.658 221.125,426.658 "/>
<polyline clip-path="url(#clip980)" style="stroke:#000000; stroke-linecap:round; stroke-linejoin:round; stroke-width:4; stroke-opacity:1; fill:none" points="202.227,86.1857 221.125,86.1857 "/>
<path clip-path="url(#clip980)" d="M156.644 1094.4 L144.839 1112.85 L156.644 1112.85 L156.644 1094.4 M155.417 1090.32 L161.297 1090.32 L161.297 1112.85 L166.227 1112.85 L166.227 1116.74 L161.297 1116.74 L161.297 1124.88 L156.644 1124.88 L156.644 1116.74 L141.042 1116.74 L141.042 1112.22 L155.417 1090.32 Z" fill="#000000" fill-rule="nonzero" fill-opacity="1" /><path clip-path="url(#clip980)" d="M154.7 765.268 Q151.552 765.268 149.7 767.421 Q147.871 769.573 147.871 773.323 Q147.871 777.05 149.7 779.226 Q151.552 781.379 154.7 781.379 Q157.848 781.379 159.677 779.226 Q161.528 777.05 161.528 773.323 Q161.528 769.573 159.677 767.421 Q157.848 765.268 154.7 765.268 M163.982 750.615 L163.982 754.874 Q162.223 754.041 160.417 753.601 Q158.635 753.161 156.876 753.161 Q152.246 753.161 149.792 756.286 Q147.362 759.411 147.015 765.731 Q148.38 763.717 150.441 762.652 Q152.501 761.564 154.978 761.564 Q160.186 761.564 163.195 764.735 Q166.227 767.884 166.227 773.323 Q166.227 778.647 163.079 781.865 Q159.931 785.083 154.7 785.083 Q148.704 785.083 145.533 780.499 Q142.362 775.893 142.362 767.166 Q142.362 758.972 146.251 754.111 Q150.14 749.226 156.69 749.226 Q158.45 749.226 160.232 749.574 Q162.038 749.921 163.982 750.615 Z" fill="#000000" fill-rule="nonzero" fill-opacity="1" /><path clip-path="url(#clip980)" d="M154.376 427.527 Q151.042 427.527 149.121 429.309 Q147.223 431.091 147.223 434.216 Q147.223 437.341 149.121 439.124 Q151.042 440.906 154.376 440.906 Q157.709 440.906 159.63 439.124 Q161.552 437.318 161.552 434.216 Q161.552 431.091 159.63 429.309 Q157.732 427.527 154.376 427.527 M149.7 425.536 Q146.691 424.795 145.001 422.735 Q143.334 420.675 143.334 417.712 Q143.334 413.568 146.274 411.161 Q149.237 408.753 154.376 408.753 Q159.538 408.753 162.477 411.161 Q165.417 413.568 165.417 417.712 Q165.417 420.675 163.727 422.735 Q162.061 424.795 159.075 425.536 Q162.454 426.323 164.329 428.614 Q166.227 430.906 166.227 434.216 Q166.227 439.239 163.149 441.925 Q160.093 444.61 154.376 444.61 Q148.658 444.61 145.579 441.925 Q142.524 439.239 142.524 434.216 Q142.524 430.906 144.422 428.614 Q146.32 426.323 149.7 425.536 M147.987 418.152 Q147.987 420.837 149.653 422.341 Q151.343 423.846 154.376 423.846 Q157.385 423.846 159.075 422.341 Q160.788 420.837 160.788 418.152 Q160.788 415.466 159.075 413.962 Q157.385 412.457 154.376 412.457 Q151.343 412.457 149.653 413.962 Q147.987 415.466 147.987 418.152 Z" fill="#000000" fill-rule="nonzero" fill-opacity="1" /><path clip-path="url(#clip980)" d="M114.931 99.5305 L122.57 99.5305 L122.57 73.1649 L114.26 74.8316 L114.26 70.5723 L122.524 68.9057 L127.2 68.9057 L127.2 99.5305 L134.839 99.5305 L134.839 103.466 L114.931 103.466 L114.931 99.5305 Z" fill="#000000" fill-rule="nonzero" fill-opacity="1" /><path clip-path="url(#clip980)" d="M154.283 71.9844 Q150.672 71.9844 148.843 75.5492 Q147.038 79.0908 147.038 86.2204 Q147.038 93.3268 148.843 96.8916 Q150.672 100.433 154.283 100.433 Q157.917 100.433 159.723 96.8916 Q161.552 93.3268 161.552 86.2204 Q161.552 79.0908 159.723 75.5492 Q157.917 71.9844 154.283 71.9844 M154.283 68.2807 Q160.093 68.2807 163.149 72.8871 Q166.227 77.4704 166.227 86.2204 Q166.227 94.9472 163.149 99.5537 Q160.093 104.137 154.283 104.137 Q148.473 104.137 145.394 99.5537 Q142.339 94.9472 142.339 86.2204 Q142.339 77.4704 145.394 72.8871 Q148.473 68.2807 154.283 68.2807 Z" fill="#000000" fill-rule="nonzero" fill-opacity="1" /><path clip-path="url(#clip980)" d="M67.3143 733.525 Q73.68 736.008 75.6216 738.363 Q77.5631 740.718 77.5631 744.665 L77.5631 749.344 L72.6615 749.344 L72.6615 745.906 Q72.6615 743.487 71.5157 742.151 Q70.3699 740.814 66.1048 739.191 L63.4312 738.14 L28.3562 752.559 L28.3562 746.352 L56.238 735.212 L28.3562 724.072 L28.3562 717.865 L67.3143 733.525 Z" fill="#000000" fill-rule="nonzero" fill-opacity="1" /><polyline clip-path="url(#clip981)" style="stroke:#000000; stroke-linecap:round; stroke-linejoin:round; stroke-width:4; stroke-opacity:0.8; fill:none" points="263.091,1192.72 263.091,1022.49 "/>
<polyline clip-path="url(#clip981)" style="stroke:#000000; stroke-linecap:round; stroke-linejoin:round; stroke-width:4; stroke-opacity:0.8; fill:none" points="939.358,1013.97 939.358,860.761 "/>
<polyline clip-path="url(#clip981)" style="stroke:#000000; stroke-linecap:round; stroke-linejoin:round; stroke-width:4; stroke-opacity:0.8; fill:none" points="1615.63,784.155 1615.63,579.871 "/>
<polyline clip-path="url(#clip981)" style="stroke:#000000; stroke-linecap:round; stroke-linejoin:round; stroke-width:4; stroke-opacity:0.8; fill:none" points="2291.89,426.658 2291.89,86.1857 "/>
<line clip-path="url(#clip981)" x1="279.091" y1="1192.72" x2="247.091" y2="1192.72" style="stroke:#000000; stroke-width:4; stroke-opacity:1"/>
<line clip-path="url(#clip981)" x1="279.091" y1="1022.49" x2="247.091" y2="1022.49" style="stroke:#000000; stroke-width:4; stroke-opacity:1"/>
<line clip-path="url(#clip981)" x1="955.358" y1="1013.97" x2="923.358" y2="1013.97" style="stroke:#000000; stroke-width:4; stroke-opacity:1"/>
<line clip-path="url(#clip981)" x1="955.358" y1="860.761" x2="923.358" y2="860.761" style="stroke:#000000; stroke-width:4; stroke-opacity:1"/>
<line clip-path="url(#clip981)" x1="1631.63" y1="784.155" x2="1599.63" y2="784.155" style="stroke:#000000; stroke-width:4; stroke-opacity:1"/>
<line clip-path="url(#clip981)" x1="1631.63" y1="579.871" x2="1599.63" y2="579.871" style="stroke:#000000; stroke-width:4; stroke-opacity:1"/>
<line clip-path="url(#clip981)" x1="2307.89" y1="426.658" x2="2275.89" y2="426.658" style="stroke:#000000; stroke-width:4; stroke-opacity:1"/>
<line clip-path="url(#clip981)" x1="2307.89" y1="86.1857" x2="2275.89" y2="86.1857" style="stroke:#000000; stroke-width:4; stroke-opacity:1"/>
<circle clip-path="url(#clip981)" cx="263.091" cy="1107.6" r="14.4" fill="#009af9" fill-rule="evenodd" fill-opacity="1" stroke="#000000" stroke-opacity="1" stroke-width="3.2"/>
<circle clip-path="url(#clip981)" cx="939.358" cy="937.368" r="14.4" fill="#009af9" fill-rule="evenodd" fill-opacity="1" stroke="#000000" stroke-opacity="1" stroke-width="3.2"/>
<circle clip-path="url(#clip981)" cx="1615.63" cy="682.013" r="14.4" fill="#009af9" fill-rule="evenodd" fill-opacity="1" stroke="#000000" stroke-opacity="1" stroke-width="3.2"/>
<circle clip-path="url(#clip981)" cx="2291.89" cy="256.422" r="14.4" fill="#009af9" fill-rule="evenodd" fill-opacity="1" stroke="#000000" stroke-opacity="1" stroke-width="3.2"/>
<polyline clip-path="url(#clip981)" style="stroke:#009af9; stroke-linecap:round; stroke-linejoin:round; stroke-width:8; stroke-opacity:1; fill:none" points="263.091,1384.24 268.163,1381.21 273.235,1378.17 278.307,1375.14 283.379,1372.11 288.451,1369.08 293.523,1366.04 298.595,1363.01 303.667,1359.98 308.739,1356.95 313.811,1353.91 318.883,1350.88 323.955,1347.85 329.027,1344.82 334.099,1341.79 339.171,1338.75 344.244,1335.72 349.316,1332.69 354.388,1329.66 359.46,1326.62 364.532,1323.59 369.604,1320.56 374.676,1317.53 379.748,1314.49 384.82,1311.46 389.892,1308.43 394.964,1305.4 400.036,1302.37 405.108,1299.33 410.18,1296.3 415.252,1293.27 420.324,1290.24 425.396,1287.2 430.468,1284.17 435.54,1281.14 440.612,1278.11 445.684,1275.07 450.756,1272.04 455.828,1269.01 460.9,1265.98 465.972,1262.94 471.044,1259.91 476.116,1256.88 481.188,1253.85 486.26,1250.82 491.332,1247.78 496.404,1244.75 501.476,1241.72 506.548,1238.69 511.62,1235.65 516.692,1232.62 521.764,1229.59 526.836,1226.56 531.908,1223.52 536.98,1220.49 542.052,1217.46 547.124,1214.43 552.196,1211.4 557.268,1208.36 562.34,1205.33 567.412,1202.3 572.484,1199.27 577.556,1196.23 582.628,1193.2 587.7,1190.17 592.772,1187.14 597.844,1184.1 602.916,1181.07 607.988,1178.04 613.06,1175.01 618.132,1171.97 623.204,1168.94 628.276,1165.91 633.348,1162.88 638.42,1159.85 643.492,1156.81 648.564,1153.78 653.636,1150.75 658.708,1147.72 663.78,1144.68 668.852,1141.65 673.924,1138.62 678.996,1135.59 684.068,1132.55 689.14,1129.52 694.212,1126.49 699.284,1123.46 704.356,1120.43 709.428,1117.39 714.5,1114.36 719.572,1111.33 724.644,1108.3 729.716,1105.26 734.788,1102.23 739.86,1099.2 744.932,1096.17 750.004,1093.13 755.076,1090.1 760.148,1087.07 765.22,1084.04 770.292,1081 775.364,1077.97 780.436,1074.94 785.508,1071.91 790.58,1068.88 795.652,1065.84 800.724,1062.81 805.796,1059.78 810.868,1056.75 815.94,1053.71 821.012,1050.68 826.084,1047.65 831.156,1044.62 836.228,1041.58 841.3,1038.55 846.372,1035.52 851.444,1032.49 856.516,1029.45 861.588,1026.42 866.66,1023.39 871.732,1020.36 876.804,1017.33 881.876,1014.29 886.948,1011.26 892.02,1008.23 897.092,1005.2 902.164,1002.16 907.236,999.132 912.308,996.099 917.38,993.067 922.452,990.035 927.524,987.002 932.596,983.97 937.668,980.938 942.74,977.905 947.812,974.873 952.884,971.841 957.956,968.808 963.028,965.776 968.1,962.744 973.172,959.711 978.244,956.679 983.316,953.647 988.388,950.614 993.46,947.582 998.532,944.55 1003.6,941.517 1008.68,938.485 1013.75,935.453 1018.82,932.42 1023.89,929.388 1028.96,926.356 1034.04,923.323 1039.11,920.291 1044.18,917.259 1049.25,914.226 1054.32,911.194 1059.4,908.162 1064.47,905.129 1069.54,902.097 1074.61,899.065 1079.68,896.032 1084.76,893 1089.83,889.968 1094.9,886.935 1099.97,883.903 1105.04,880.87 1110.12,877.838 1115.19,874.806 1120.26,871.773 1125.33,868.741 1130.4,865.709 1135.48,862.676 1140.55,859.644 1145.62,856.612 1150.69,853.579 1155.76,850.547 1160.84,847.515 1165.91,844.482 1170.98,841.45 1176.05,838.418 1181.12,835.385 1186.2,832.353 1191.27,829.321 1196.34,826.288 1201.41,823.256 1206.48,820.224 1211.56,817.191 1216.63,814.159 1221.7,811.127 1226.77,808.094 1231.84,805.062 1236.92,802.03 1241.99,798.997 1247.06,795.965 1252.13,792.933 1257.2,789.9 1262.28,786.868 1267.35,783.836 1272.42,780.803 1277.49,777.771 1282.56,774.739 1287.64,771.706 1292.71,768.674 1297.78,765.642 1302.85,762.609 1307.92,759.577 1313,756.545 1318.07,753.512 1323.14,750.48 1328.21,747.448 1333.28,744.415 1338.36,741.383 1343.43,738.351 1348.5,735.318 1353.57,732.286 1358.64,729.254 1363.72,726.221 1368.79,723.189 1373.86,720.157 1378.93,717.124 1384,714.092 1389.08,711.06 1394.15,708.027 1399.22,704.995 1404.29,701.963 1409.36,698.93 1414.44,695.898 1419.51,692.866 1424.58,689.833 1429.65,686.801 1434.72,683.769 1439.8,680.736 1444.87,677.704 1449.94,674.672 1455.01,671.639 1460.08,668.607 1465.16,665.575 1470.23,662.542 1475.3,659.51 1480.37,656.478 1485.44,653.445 1490.52,650.413 1495.59,647.381 1500.66,644.348 1505.73,641.316 1510.8,638.284 1515.88,635.251 1520.95,632.219 1526.02,629.187 1531.09,626.154 1536.16,623.122 1541.24,620.09 1546.31,617.057 1551.38,614.025 1556.45,610.993 1561.52,607.96 1566.6,604.928 1571.67,601.896 1576.74,598.863 1581.81,595.831 1586.88,592.799 1591.96,589.766 1597.03,586.734 1602.1,583.702 1607.17,580.669 1612.24,577.637 1617.32,574.605 1622.39,571.572 1627.46,568.54 1632.53,565.508 1637.6,562.475 1642.68,559.443 1647.75,556.411 1652.82,553.378 1657.89,550.346 1662.96,547.314 1668.04,544.281 1673.11,541.249 1678.18,538.217 1683.25,535.184 1688.32,532.152 1693.4,529.12 1698.47,526.087 1703.54,523.055 1708.61,520.023 1713.68,516.99 1718.76,513.958 1723.83,510.926 1728.9,507.893 1733.97,504.861 1739.04,501.828 1744.12,498.796 1749.19,495.764 1754.26,492.731 1759.33,489.699 1764.4,486.667 1769.48,483.634 1774.55,480.602 1779.62,477.57 1784.69,474.537 1789.76,471.505 1794.84,468.473 1799.91,465.44 1804.98,462.408 1810.05,459.376 1815.12,456.343 1820.2,453.311 1825.27,450.279 1830.34,447.246 1835.41,444.214 1840.48,441.182 1845.56,438.149 1850.63,435.117 1855.7,432.085 1860.77,429.052 1865.84,426.02 1870.92,422.988 1875.99,419.955 1881.06,416.923 1886.13,413.891 1891.2,410.858 1896.28,407.826 1901.35,404.794 1906.42,401.761 1911.49,398.729 1916.56,395.697 1921.64,392.664 1926.71,389.632 1931.78,386.6 1936.85,383.567 1941.92,380.535 1947,377.503 1952.07,374.47 1957.14,371.438 1962.21,368.406 1967.28,365.373 1972.36,362.341 1977.43,359.309 1982.5,356.276 1987.57,353.244 1992.64,350.212 1997.72,347.179 2002.79,344.147 2007.86,341.115 2012.93,338.082 2018,335.05 2023.08,332.018 2028.15,328.985 2033.22,325.953 2038.29,322.921 2043.36,319.888 2048.44,316.856 2053.51,313.824 2058.58,310.791 2063.65,307.759 2068.72,304.727 2073.8,301.694 2078.87,298.662 2083.94,295.63 2089.01,292.597 2094.08,289.565 2099.16,286.533 2104.23,283.5 2109.3,280.468 2114.37,277.436 2119.44,274.403 2124.52,271.371 2129.59,268.339 2134.66,265.306 2139.73,262.274 2144.8,259.242 2149.88,256.209 2154.95,253.177 2160.02,250.145 2165.09,247.112 2170.16,244.08 2175.24,241.048 2180.31,238.015 2185.38,234.983 2190.45,231.951 2195.52,228.918 2200.6,225.886 2205.67,222.854 2210.74,219.821 2215.81,216.789 2220.88,213.757 2225.96,210.724 2231.03,207.692 2236.1,204.66 2241.17,201.627 2246.24,198.595 2251.32,195.563 2256.39,192.53 2261.46,189.498 2266.53,186.466 2271.6,183.433 2276.68,180.401 2281.75,177.369 2286.82,174.336 2291.89,171.304 "/>
<path clip-path="url(#clip980)" d="M273.912 248.629 L905.536 248.629 L905.536 93.1086 L273.912 93.1086  Z" fill="#ffffff" fill-rule="evenodd" fill-opacity="1"/>
<polyline clip-path="url(#clip980)" style="stroke:#000000; stroke-linecap:round; stroke-linejoin:round; stroke-width:4; stroke-opacity:1; fill:none" points="273.912,248.629 905.536,248.629 905.536,93.1086 273.912,93.1086 273.912,248.629 "/>
<circle clip-path="url(#clip980)" cx="369.491" cy="144.949" r="20.48" fill="#009af9" fill-rule="evenodd" fill-opacity="1" stroke="#000000" stroke-opacity="1" stroke-width="4.55111"/>
<path clip-path="url(#clip980)" d="M469.746 131.511 L469.746 158.386 L475.394 158.386 Q482.547 158.386 485.857 155.145 Q489.19 151.905 489.19 144.914 Q489.19 137.969 485.857 134.752 Q482.547 131.511 475.394 131.511 L469.746 131.511 M465.07 127.669 L474.676 127.669 Q484.723 127.669 489.422 131.858 Q494.121 136.025 494.121 144.914 Q494.121 153.849 489.398 158.039 Q484.676 162.229 474.676 162.229 L465.07 162.229 L465.07 127.669 Z" fill="#000000" fill-rule="nonzero" fill-opacity="1" /><path clip-path="url(#clip980)" d="M513.171 149.196 Q508.009 149.196 506.019 150.377 Q504.028 151.557 504.028 154.405 Q504.028 156.673 505.509 158.016 Q507.014 159.335 509.583 159.335 Q513.125 159.335 515.255 156.835 Q517.408 154.312 517.408 150.145 L517.408 149.196 L513.171 149.196 M521.667 147.437 L521.667 162.229 L517.408 162.229 L517.408 158.293 Q515.949 160.655 513.773 161.789 Q511.597 162.9 508.449 162.9 Q504.468 162.9 502.107 160.678 Q499.769 158.432 499.769 154.682 Q499.769 150.307 502.685 148.085 Q505.625 145.863 511.435 145.863 L517.408 145.863 L517.408 145.446 Q517.408 142.507 515.463 140.909 Q513.542 139.289 510.046 139.289 Q507.824 139.289 505.718 139.821 Q503.611 140.354 501.667 141.419 L501.667 137.483 Q504.005 136.581 506.204 136.141 Q508.403 135.678 510.486 135.678 Q516.111 135.678 518.889 138.594 Q521.667 141.511 521.667 147.437 Z" fill="#000000" fill-rule="nonzero" fill-opacity="1" /><path clip-path="url(#clip980)" d="M534.653 128.942 L534.653 136.303 L543.426 136.303 L543.426 139.613 L534.653 139.613 L534.653 153.687 Q534.653 156.858 535.509 157.761 Q536.389 158.664 539.051 158.664 L543.426 158.664 L543.426 162.229 L539.051 162.229 Q534.12 162.229 532.245 160.4 Q530.37 158.548 530.37 153.687 L530.37 139.613 L527.245 139.613 L527.245 136.303 L530.37 136.303 L530.37 128.942 L534.653 128.942 Z" fill="#000000" fill-rule="nonzero" fill-opacity="1" /><path clip-path="url(#clip980)" d="M560.81 149.196 Q555.648 149.196 553.657 150.377 Q551.667 151.557 551.667 154.405 Q551.667 156.673 553.148 158.016 Q554.653 159.335 557.222 159.335 Q560.764 159.335 562.893 156.835 Q565.046 154.312 565.046 150.145 L565.046 149.196 L560.81 149.196 M569.305 147.437 L569.305 162.229 L565.046 162.229 L565.046 158.293 Q563.588 160.655 561.412 161.789 Q559.236 162.9 556.088 162.9 Q552.106 162.9 549.745 160.678 Q547.407 158.432 547.407 154.682 Q547.407 150.307 550.324 148.085 Q553.264 145.863 559.074 145.863 L565.046 145.863 L565.046 145.446 Q565.046 142.507 563.102 140.909 Q561.18 139.289 557.685 139.289 Q555.463 139.289 553.356 139.821 Q551.25 140.354 549.305 141.419 L549.305 137.483 Q551.643 136.581 553.843 136.141 Q556.042 135.678 558.125 135.678 Q563.75 135.678 566.528 138.594 Q569.305 141.511 569.305 147.437 Z" fill="#000000" fill-rule="nonzero" fill-opacity="1" /><polyline clip-path="url(#clip980)" style="stroke:#009af9; stroke-linecap:round; stroke-linejoin:round; stroke-width:8; stroke-opacity:1; fill:none" points="297.807,196.789 441.175,196.789 "/>
<path clip-path="url(#clip980)" d="M465.07 179.509 L484.931 179.509 L484.931 183.444 L469.746 183.444 L469.746 193.629 L483.449 193.629 L483.449 197.564 L469.746 197.564 L469.746 214.069 L465.07 214.069 L465.07 179.509 Z" fill="#000000" fill-rule="nonzero" fill-opacity="1" /><path clip-path="url(#clip980)" d="M488.704 188.143 L492.963 188.143 L492.963 214.069 L488.704 214.069 L488.704 188.143 M488.704 178.05 L492.963 178.05 L492.963 183.444 L488.704 183.444 L488.704 178.05 Z" fill="#000000" fill-rule="nonzero" fill-opacity="1" /><path clip-path="url(#clip980)" d="M506.088 180.782 L506.088 188.143 L514.861 188.143 L514.861 191.453 L506.088 191.453 L506.088 205.527 Q506.088 208.698 506.945 209.601 Q507.824 210.504 510.486 210.504 L514.861 210.504 L514.861 214.069 L510.486 214.069 Q505.556 214.069 503.681 212.24 Q501.806 210.388 501.806 205.527 L501.806 191.453 L498.681 191.453 L498.681 188.143 L501.806 188.143 L501.806 180.782 L506.088 180.782 Z" fill="#000000" fill-rule="nonzero" fill-opacity="1" /><path clip-path="url(#clip980)" d="M533.056 188.143 L537.315 188.143 L542.639 208.374 L547.94 188.143 L552.963 188.143 L558.287 208.374 L563.588 188.143 L567.847 188.143 L561.065 214.069 L556.042 214.069 L550.463 192.819 L544.861 214.069 L539.838 214.069 L533.056 188.143 Z" fill="#000000" fill-rule="nonzero" fill-opacity="1" /><path clip-path="url(#clip980)" d="M574.305 188.143 L578.565 188.143 L578.565 214.069 L574.305 214.069 L574.305 188.143 M574.305 178.05 L578.565 178.05 L578.565 183.444 L574.305 183.444 L574.305 178.05 Z" fill="#000000" fill-rule="nonzero" fill-opacity="1" /><path clip-path="url(#clip980)" d="M591.69 180.782 L591.69 188.143 L600.463 188.143 L600.463 191.453 L591.69 191.453 L591.69 205.527 Q591.69 208.698 592.546 209.601 Q593.426 210.504 596.088 210.504 L600.463 210.504 L600.463 214.069 L596.088 214.069 Q591.157 214.069 589.282 212.24 Q587.407 210.388 587.407 205.527 L587.407 191.453 L584.282 191.453 L584.282 188.143 L587.407 188.143 L587.407 180.782 L591.69 180.782 Z" fill="#000000" fill-rule="nonzero" fill-opacity="1" /><path clip-path="url(#clip980)" d="M627.615 198.421 L627.615 214.069 L623.356 214.069 L623.356 198.559 Q623.356 194.879 621.921 193.05 Q620.486 191.222 617.615 191.222 Q614.166 191.222 612.176 193.421 Q610.185 195.62 610.185 199.416 L610.185 214.069 L605.902 214.069 L605.902 178.05 L610.185 178.05 L610.185 192.171 Q611.713 189.833 613.773 188.675 Q615.856 187.518 618.564 187.518 Q623.032 187.518 625.324 190.296 Q627.615 193.05 627.615 198.421 Z" fill="#000000" fill-rule="nonzero" fill-opacity="1" /><path clip-path="url(#clip980)" d="M667.754 197.865 Q669.259 198.374 670.671 200.041 Q672.106 201.708 673.541 204.624 L678.286 214.069 L673.263 214.069 L668.842 205.203 Q667.129 201.731 665.509 200.596 Q663.911 199.462 661.134 199.462 L656.041 199.462 L656.041 214.069 L651.365 214.069 L651.365 179.509 L661.921 179.509 Q667.847 179.509 670.763 181.985 Q673.68 184.462 673.68 189.462 Q673.68 192.726 672.152 194.879 Q670.647 197.032 667.754 197.865 M656.041 183.351 L656.041 195.62 L661.921 195.62 Q665.3 195.62 667.013 194.069 Q668.749 192.495 668.749 189.462 Q668.749 186.43 667.013 184.902 Q665.3 183.351 661.921 183.351 L656.041 183.351 Z" fill="#000000" fill-rule="nonzero" fill-opacity="1" /><path clip-path="url(#clip980)" d="M705.022 180.643 L705.022 185.203 Q702.36 183.93 699.999 183.305 Q697.638 182.68 695.439 182.68 Q691.62 182.68 689.536 184.161 Q687.476 185.643 687.476 188.374 Q687.476 190.666 688.842 191.847 Q690.231 193.004 694.073 193.722 L696.897 194.3 Q702.129 195.296 704.606 197.819 Q707.106 200.319 707.106 204.532 Q707.106 209.555 703.726 212.147 Q700.37 214.74 693.865 214.74 Q691.411 214.74 688.633 214.184 Q685.879 213.629 682.916 212.541 L682.916 207.726 Q685.763 209.323 688.495 210.133 Q691.226 210.944 693.865 210.944 Q697.87 210.944 700.045 209.37 Q702.221 207.796 702.221 204.879 Q702.221 202.333 700.647 200.897 Q699.096 199.462 695.532 198.745 L692.684 198.189 Q687.453 197.147 685.115 194.925 Q682.777 192.703 682.777 188.745 Q682.777 184.161 685.995 181.522 Q689.235 178.884 694.907 178.884 Q697.337 178.884 699.86 179.323 Q702.383 179.763 705.022 180.643 Z" fill="#000000" fill-rule="nonzero" fill-opacity="1" /><path clip-path="url(#clip980)" d="M714.397 179.509 L736.249 179.509 L736.249 183.444 L719.073 183.444 L719.073 193.675 L735.531 193.675 L735.531 197.61 L719.073 197.61 L719.073 210.133 L736.666 210.133 L736.666 214.069 L714.397 214.069 L714.397 179.509 Z" fill="#000000" fill-rule="nonzero" fill-opacity="1" /><path clip-path="url(#clip980)" d="M774.397 199.647 L774.397 203.791 Q771.966 205.596 769.883 206.407 Q767.823 207.194 765.577 207.194 Q763.031 207.194 759.652 205.828 Q759.42 205.735 759.258 205.666 Q759.119 205.62 758.772 205.481 Q755.184 204.069 753.008 204.069 Q750.971 204.069 748.98 204.948 Q746.99 205.828 744.721 207.772 L744.721 203.629 Q747.152 201.823 749.212 201.036 Q751.295 200.226 753.541 200.226 Q756.087 200.226 759.49 201.592 Q759.744 201.708 759.86 201.754 Q759.999 201.8 760.346 201.939 Q763.934 203.351 766.11 203.351 Q768.101 203.351 770.045 202.495 Q772.013 201.615 774.397 199.647 M774.397 190.643 L774.397 194.763 Q771.966 196.592 769.883 197.402 Q767.823 198.189 765.577 198.189 Q763.031 198.189 759.652 196.823 Q759.42 196.731 759.258 196.661 Q759.119 196.615 758.772 196.476 Q755.184 195.064 753.008 195.064 Q750.971 195.064 748.98 195.944 Q746.99 196.823 744.721 198.745 L744.721 194.624 Q747.152 192.819 749.212 192.032 Q751.295 191.222 753.541 191.222 Q756.087 191.222 759.49 192.587 Q759.721 192.68 759.837 192.726 Q759.999 192.796 760.346 192.934 Q763.934 194.347 766.11 194.347 Q768.101 194.347 770.045 193.49 Q772.013 192.61 774.397 190.643 Z" fill="#000000" fill-rule="nonzero" fill-opacity="1" /><path clip-path="url(#clip980)" d="M785.3 210.133 L792.938 210.133 L792.938 183.768 L784.628 185.435 L784.628 181.175 L792.892 179.509 L797.568 179.509 L797.568 210.133 L805.207 210.133 L805.207 214.069 L785.3 214.069 L785.3 210.133 Z" fill="#000000" fill-rule="nonzero" fill-opacity="1" /><path clip-path="url(#clip980)" d="M814.651 208.189 L819.536 208.189 L819.536 214.069 L814.651 214.069 L814.651 208.189 Z" fill="#000000" fill-rule="nonzero" fill-opacity="1" /><path clip-path="url(#clip980)" d="M833.748 210.133 L850.068 210.133 L850.068 214.069 L828.123 214.069 L828.123 210.133 Q830.785 207.379 835.369 202.749 Q839.975 198.096 841.156 196.754 Q843.401 194.231 844.281 192.495 Q845.184 190.735 845.184 189.046 Q845.184 186.291 843.239 184.555 Q841.318 182.819 838.216 182.819 Q836.017 182.819 833.563 183.583 Q831.133 184.347 828.355 185.897 L828.355 181.175 Q831.179 180.041 833.633 179.462 Q836.086 178.884 838.123 178.884 Q843.494 178.884 846.688 181.569 Q849.883 184.254 849.883 188.745 Q849.883 190.874 849.072 192.796 Q848.285 194.694 846.179 197.286 Q845.6 197.958 842.498 201.175 Q839.397 204.37 833.748 210.133 Z" fill="#000000" fill-rule="nonzero" fill-opacity="1" /><path clip-path="url(#clip980)" d="M860.021 213.351 L860.021 209.092 Q861.781 209.925 863.586 210.365 Q865.392 210.805 867.128 210.805 Q871.757 210.805 874.188 207.703 Q876.642 204.578 876.989 198.235 Q875.646 200.226 873.586 201.291 Q871.526 202.356 869.026 202.356 Q863.841 202.356 860.808 199.231 Q857.799 196.083 857.799 190.643 Q857.799 185.319 860.947 182.101 Q864.095 178.884 869.327 178.884 Q875.322 178.884 878.47 183.49 Q881.642 188.073 881.642 196.823 Q881.642 204.995 877.753 209.879 Q873.887 214.74 867.336 214.74 Q865.577 214.74 863.771 214.393 Q861.966 214.045 860.021 213.351 M869.327 198.698 Q872.475 198.698 874.304 196.546 Q876.156 194.393 876.156 190.643 Q876.156 186.916 874.304 184.763 Q872.475 182.587 869.327 182.587 Q866.179 182.587 864.327 184.763 Q862.498 186.916 862.498 190.643 Q862.498 194.393 864.327 196.546 Q866.179 198.698 869.327 198.698 Z" fill="#000000" fill-rule="nonzero" fill-opacity="1" /></svg>
