<?xml version="1.0" encoding="utf-8"?>
<svg xmlns="http://www.w3.org/2000/svg" xmlns:xlink="http://www.w3.org/1999/xlink" width="600" height="400" viewBox="0 0 2400 1600">
<defs>
  <clipPath id="clip680">
    <rect x="0" y="0" width="2400" height="1600"/>
  </clipPath>
</defs>
<path clip-path="url(#clip680)" d="M0 1600 L2400 1600 L2400 0 L0 0  Z" fill="#ffffff" fill-rule="evenodd" fill-opacity="1"/>
<defs>
  <clipPath id="clip681">
    <rect x="250" y="47" width="2104" height="1377"/>
  </clipPath>
</defs>
<path clip-path="url(#clip680)" d="M250.028 1423.18 L2352.76 1423.18 L2352.76 47.2441 L250.028 47.2441  Z" fill="#ffffff" fill-rule="evenodd" fill-opacity="1"/>
<polyline clip-path="url(#clip681)" style="stroke:#000000; stroke-linecap:round; stroke-linejoin:round; stroke-width:2; stroke-opacity:0.1; fill:none" points="363.695,1423.18 363.695,47.2441 "/>
<polyline clip-path="url(#clip681)" style="stroke:#000000; stroke-linecap:round; stroke-linejoin:round; stroke-width:2; stroke-opacity:0.1; fill:none" points="661.188,1423.18 661.188,47.2441 "/>
<polyline clip-path="url(#clip681)" style="stroke:#000000; stroke-linecap:round; stroke-linejoin:round; stroke-width:2; stroke-opacity:0.1; fill:none" points="958.681,1423.18 958.681,47.2441 "/>
<polyline clip-path="url(#clip681)" style="stroke:#000000; stroke-linecap:round; stroke-linejoin:round; stroke-width:2; stroke-opacity:0.1; fill:none" points="1256.17,1423.18 1256.17,47.2441 "/>
<polyline clip-path="url(#clip681)" style="stroke:#000000; stroke-linecap:round; stroke-linejoin:round; stroke-width:2; stroke-opacity:0.1; fill:none" points="1553.67,1423.18 1553.67,47.2441 "/>
<polyline clip-path="url(#clip681)" style="stroke:#000000; stroke-linecap:round; stroke-linejoin:round; stroke-width:2; stroke-opacity:0.1; fill:none" points="1851.16,1423.18 1851.16,47.2441 "/>
<polyline clip-path="url(#clip681)" style="stroke:#000000; stroke-linecap:round; stroke-linejoin:round; stroke-width:2; stroke-opacity:0.1; fill:none" points="2148.65,1423.18 2148.65,47.2441 "/>
<polyline clip-path="url(#clip681)" style="stroke:#000000; stroke-linecap:round; stroke-linejoin:round; stroke-width:2; stroke-opacity:0.1; fill:none" points="250.028,1334.86 2352.76,1334.86 "/>
<polyline clip-path="url(#clip681)" style="stroke:#000000; stroke-linecap:round; stroke-linejoin:round; stroke-width:2; stroke-opacity:0.1; fill:none" points="250.028,1128.11 2352.76,1128.11 "/>
<polyline clip-path="url(#clip681)" style="stroke:#000000; stroke-linecap:round; stroke-linejoin:round; stroke-width:2; stroke-opacity:0.1; fill:none" points="250.028,921.354 2352.76,921.354 "/>
<polyline clip-path="url(#clip681)" style="stroke:#000000; stroke-linecap:round; stroke-linejoin:round; stroke-width:2; stroke-opacity:0.1; fill:none" points="250.028,714.602 2352.76,714.602 "/>
<polyline clip-path="url(#clip681)" style="stroke:#000000; stroke-linecap:round; stroke-linejoin:round; stroke-width:2; stroke-opacity:0.1; fill:none" points="250.028,507.849 2352.76,507.849 "/>
<polyline clip-path="url(#clip681)" style="stroke:#000000; stroke-linecap:round; stroke-linejoin:round; stroke-width:2; stroke-opacity:0.1; fill:none" points="250.028,301.096 2352.76,301.096 "/>
<polyline clip-path="url(#clip681)" style="stroke:#000000; stroke-linecap:round; stroke-linejoin:round; stroke-width:2; stroke-opacity:0.1; fill:none" points="250.028,94.3434 2352.76,94.3434 "/>
<polyline clip-path="url(#clip680)" style="stroke:#000000; stroke-linecap:round; stroke-linejoin:round; stroke-width:4; stroke-opacity:1; fill:none" points="250.028,1423.18 2352.76,1423.18 "/>
<polyline clip-path="url(#clip680)" style="stroke:#000000; stroke-linecap:round; stroke-linejoin:round; stroke-width:4; stroke-opacity:1; fill:none" points="363.695,1423.18 363.695,1404.28 "/>
<polyline clip-path="url(#clip680)" style="stroke:#000000; stroke-linecap:round; stroke-linejoin:round; stroke-width:4; stroke-opacity:1; fill:none" points="661.188,1423.18 661.188,1404.28 "/>
<polyline clip-path="url(#clip680)" style="stroke:#000000; stroke-linecap:round; stroke-linejoin:round; stroke-width:4; stroke-opacity:1; fill:none" points="958.681,1423.18 958.681,1404.28 "/>
<polyline clip-path="url(#clip680)" style="stroke:#000000; stroke-linecap:round; stroke-linejoin:round; stroke-width:4; stroke-opacity:1; fill:none" points="1256.17,1423.18 1256.17,1404.28 "/>
<polyline clip-path="url(#clip680)" style="stroke:#000000; stroke-linecap:round; stroke-linejoin:round; stroke-width:4; stroke-opacity:1; fill:none" points="1553.67,1423.18 1553.67,1404.28 "/>
<polyline clip-path="url(#clip680)" style="stroke:#000000; stroke-linecap:round; stroke-linejoin:round; stroke-width:4; stroke-opacity:1; fill:none" points="1851.16,1423.18 1851.16,1404.28 "/>
<polyline clip-path="url(#clip680)" style="stroke:#000000; stroke-linecap:round; stroke-linejoin:round; stroke-width:4; stroke-opacity:1; fill:none" points="2148.65,1423.18 2148.65,1404.28 "/>
<path clip-path="url(#clip680)" d="M281.554 1454.1 Q277.943 1454.1 276.115 1457.66 Q274.309 1461.2 274.309 1468.33 Q274.309 1475.44 276.115 1479.01 Q277.943 1482.55 281.554 1482.55 Q285.189 1482.55 286.994 1479.01 Q288.823 1475.44 288.823 1468.33 Q288.823 1461.2 286.994 1457.66 Q285.189 1454.1 281.554 1454.1 M281.554 1450.39 Q287.364 1450.39 290.42 1455 Q293.499 1459.58 293.499 1468.33 Q293.499 1477.06 290.42 1481.67 Q287.364 1486.25 281.554 1486.25 Q275.744 1486.25 272.665 1481.67 Q269.61 1477.06 269.61 1468.33 Q269.61 1459.58 272.665 1455 Q275.744 1450.39 281.554 1450.39 Z" fill="#000000" fill-rule="nonzero" fill-opacity="1" /><path clip-path="url(#clip680)" d="M301.716 1479.7 L306.6 1479.7 L306.6 1485.58 L301.716 1485.58 L301.716 1479.7 Z" fill="#000000" fill-rule="nonzero" fill-opacity="1" /><path clip-path="url(#clip680)" d="M326.786 1454.1 Q323.174 1454.1 321.346 1457.66 Q319.54 1461.2 319.54 1468.33 Q319.54 1475.44 321.346 1479.01 Q323.174 1482.55 326.786 1482.55 Q330.42 1482.55 332.225 1479.01 Q334.054 1475.44 334.054 1468.33 Q334.054 1461.2 332.225 1457.66 Q330.42 1454.1 326.786 1454.1 M326.786 1450.39 Q332.596 1450.39 335.651 1455 Q338.73 1459.58 338.73 1468.33 Q338.73 1477.06 335.651 1481.67 Q332.596 1486.25 326.786 1486.25 Q320.975 1486.25 317.897 1481.67 Q314.841 1477.06 314.841 1468.33 Q314.841 1459.58 317.897 1455 Q320.975 1450.39 326.786 1450.39 Z" fill="#000000" fill-rule="nonzero" fill-opacity="1" /><path clip-path="url(#clip680)" d="M356.947 1454.1 Q353.336 1454.1 351.508 1457.66 Q349.702 1461.2 349.702 1468.33 Q349.702 1475.44 351.508 1479.01 Q353.336 1482.55 356.947 1482.55 Q360.582 1482.55 362.387 1479.01 Q364.216 1475.44 364.216 1468.33 Q364.216 1461.2 362.387 1457.66 Q360.582 1454.1 356.947 1454.1 M356.947 1450.39 Q362.758 1450.39 365.813 1455 Q368.892 1459.58 368.892 1468.33 Q368.892 1477.06 365.813 1481.67 Q362.758 1486.25 356.947 1486.25 Q351.137 1486.25 348.059 1481.67 Q345.003 1477.06 345.003 1468.33 Q345.003 1459.58 348.059 1455 Q351.137 1450.39 356.947 1450.39 Z" fill="#000000" fill-rule="nonzero" fill-opacity="1" /><path clip-path="url(#clip680)" d="M381.137 1481.64 L397.456 1481.64 L397.456 1485.58 L375.512 1485.58 L375.512 1481.64 Q378.174 1478.89 382.757 1474.26 Q387.364 1469.61 388.544 1468.27 Q390.79 1465.74 391.669 1464.01 Q392.572 1462.25 392.572 1460.56 Q392.572 1457.8 390.628 1456.07 Q388.706 1454.33 385.605 1454.33 Q383.406 1454.33 380.952 1455.09 Q378.521 1455.86 375.744 1457.41 L375.744 1452.69 Q378.568 1451.55 381.021 1450.97 Q383.475 1450.39 385.512 1450.39 Q390.882 1450.39 394.077 1453.08 Q397.271 1455.77 397.271 1460.26 Q397.271 1462.39 396.461 1464.31 Q395.674 1466.2 393.568 1468.8 Q392.989 1469.47 389.887 1472.69 Q386.785 1475.88 381.137 1481.64 Z" fill="#000000" fill-rule="nonzero" fill-opacity="1" /><path clip-path="url(#clip680)" d="M408.081 1481.64 L415.72 1481.64 L415.72 1455.28 L407.41 1456.95 L407.41 1452.69 L415.674 1451.02 L420.35 1451.02 L420.35 1481.64 L427.989 1481.64 L427.989 1485.58 L408.081 1485.58 L408.081 1481.64 Z" fill="#000000" fill-rule="nonzero" fill-opacity="1" /><path clip-path="url(#clip680)" d="M441.461 1481.64 L457.78 1481.64 L457.78 1485.58 L435.836 1485.58 L435.836 1481.64 Q438.498 1478.89 443.081 1474.26 Q447.688 1469.61 448.868 1468.27 Q451.114 1465.74 451.993 1464.01 Q452.896 1462.25 452.896 1460.56 Q452.896 1457.8 450.952 1456.07 Q449.03 1454.33 445.928 1454.33 Q443.729 1454.33 441.276 1455.09 Q438.845 1455.86 436.067 1457.41 L436.067 1452.69 Q438.891 1451.55 441.345 1450.97 Q443.799 1450.39 445.836 1450.39 Q451.206 1450.39 454.401 1453.08 Q457.595 1455.77 457.595 1460.26 Q457.595 1462.39 456.785 1464.31 Q455.998 1466.2 453.891 1468.8 Q453.313 1469.47 450.211 1472.69 Q447.109 1475.88 441.461 1481.64 Z" fill="#000000" fill-rule="nonzero" fill-opacity="1" /><path clip-path="url(#clip680)" d="M578.005 1454.1 Q574.394 1454.1 572.566 1457.66 Q570.76 1461.2 570.76 1468.33 Q570.76 1475.44 572.566 1479.01 Q574.394 1482.55 578.005 1482.55 Q581.64 1482.55 583.445 1479.01 Q585.274 1475.44 585.274 1468.33 Q585.274 1461.2 583.445 1457.66 Q581.64 1454.1 578.005 1454.1 M578.005 1450.39 Q583.816 1450.39 586.871 1455 Q589.95 1459.58 589.95 1468.33 Q589.95 1477.06 586.871 1481.67 Q583.816 1486.25 578.005 1486.25 Q572.195 1486.25 569.117 1481.67 Q566.061 1477.06 566.061 1468.33 Q566.061 1459.58 569.117 1455 Q572.195 1450.39 578.005 1450.39 Z" fill="#000000" fill-rule="nonzero" fill-opacity="1" /><path clip-path="url(#clip680)" d="M598.167 1479.7 L603.052 1479.7 L603.052 1485.58 L598.167 1485.58 L598.167 1479.7 Z" fill="#000000" fill-rule="nonzero" fill-opacity="1" /><path clip-path="url(#clip680)" d="M623.237 1454.1 Q619.626 1454.1 617.797 1457.66 Q615.991 1461.2 615.991 1468.33 Q615.991 1475.44 617.797 1479.01 Q619.626 1482.55 623.237 1482.55 Q626.871 1482.55 628.676 1479.01 Q630.505 1475.44 630.505 1468.33 Q630.505 1461.2 628.676 1457.66 Q626.871 1454.1 623.237 1454.1 M623.237 1450.39 Q629.047 1450.39 632.102 1455 Q635.181 1459.58 635.181 1468.33 Q635.181 1477.06 632.102 1481.67 Q629.047 1486.25 623.237 1486.25 Q617.427 1486.25 614.348 1481.67 Q611.292 1477.06 611.292 1468.33 Q611.292 1459.58 614.348 1455 Q617.427 1450.39 623.237 1450.39 Z" fill="#000000" fill-rule="nonzero" fill-opacity="1" /><path clip-path="url(#clip680)" d="M653.399 1454.1 Q649.787 1454.1 647.959 1457.66 Q646.153 1461.2 646.153 1468.33 Q646.153 1475.44 647.959 1479.01 Q649.787 1482.55 653.399 1482.55 Q657.033 1482.55 658.838 1479.01 Q660.667 1475.44 660.667 1468.33 Q660.667 1461.2 658.838 1457.66 Q657.033 1454.1 653.399 1454.1 M653.399 1450.39 Q659.209 1450.39 662.264 1455 Q665.343 1459.58 665.343 1468.33 Q665.343 1477.06 662.264 1481.67 Q659.209 1486.25 653.399 1486.25 Q647.588 1486.25 644.51 1481.67 Q641.454 1477.06 641.454 1468.33 Q641.454 1459.58 644.51 1455 Q647.588 1450.39 653.399 1450.39 Z" fill="#000000" fill-rule="nonzero" fill-opacity="1" /><path clip-path="url(#clip680)" d="M677.588 1481.64 L693.908 1481.64 L693.908 1485.58 L671.963 1485.58 L671.963 1481.64 Q674.625 1478.89 679.209 1474.26 Q683.815 1469.61 684.996 1468.27 Q687.241 1465.74 688.121 1464.01 Q689.023 1462.25 689.023 1460.56 Q689.023 1457.8 687.079 1456.07 Q685.158 1454.33 682.056 1454.33 Q679.857 1454.33 677.403 1455.09 Q674.973 1455.86 672.195 1457.41 L672.195 1452.69 Q675.019 1451.55 677.473 1450.97 Q679.926 1450.39 681.963 1450.39 Q687.334 1450.39 690.528 1453.08 Q693.722 1455.77 693.722 1460.26 Q693.722 1462.39 692.912 1464.31 Q692.125 1466.2 690.019 1468.8 Q689.44 1469.47 686.338 1472.69 Q683.236 1475.88 677.588 1481.64 Z" fill="#000000" fill-rule="nonzero" fill-opacity="1" /><path clip-path="url(#clip680)" d="M704.533 1481.64 L712.171 1481.64 L712.171 1455.28 L703.861 1456.95 L703.861 1452.69 L712.125 1451.02 L716.801 1451.02 L716.801 1481.64 L724.44 1481.64 L724.44 1485.58 L704.533 1485.58 L704.533 1481.64 Z" fill="#000000" fill-rule="nonzero" fill-opacity="1" /><path clip-path="url(#clip680)" d="M746.731 1455.09 L734.926 1473.54 L746.731 1473.54 L746.731 1455.09 M745.505 1451.02 L751.384 1451.02 L751.384 1473.54 L756.315 1473.54 L756.315 1477.43 L751.384 1477.43 L751.384 1485.58 L746.731 1485.58 L746.731 1477.43 L731.13 1477.43 L731.13 1472.92 L745.505 1451.02 Z" fill="#000000" fill-rule="nonzero" fill-opacity="1" /><path clip-path="url(#clip680)" d="M875.66 1454.1 Q872.049 1454.1 870.221 1457.66 Q868.415 1461.2 868.415 1468.33 Q868.415 1475.44 870.221 1479.01 Q872.049 1482.55 875.66 1482.55 Q879.295 1482.55 881.1 1479.01 Q882.929 1475.44 882.929 1468.33 Q882.929 1461.2 881.1 1457.66 Q879.295 1454.1 875.66 1454.1 M875.66 1450.39 Q881.47 1450.39 884.526 1455 Q887.605 1459.58 887.605 1468.33 Q887.605 1477.06 884.526 1481.67 Q881.47 1486.25 875.66 1486.25 Q869.85 1486.25 866.771 1481.67 Q863.716 1477.06 863.716 1468.33 Q863.716 1459.58 866.771 1455 Q869.85 1450.39 875.66 1450.39 Z" fill="#000000" fill-rule="nonzero" fill-opacity="1" /><path clip-path="url(#clip680)" d="M895.822 1479.7 L900.706 1479.7 L900.706 1485.58 L895.822 1485.58 L895.822 1479.7 Z" fill="#000000" fill-rule="nonzero" fill-opacity="1" /><path clip-path="url(#clip680)" d="M920.892 1454.1 Q917.28 1454.1 915.452 1457.66 Q913.646 1461.2 913.646 1468.33 Q913.646 1475.44 915.452 1479.01 Q917.28 1482.55 920.892 1482.55 Q924.526 1482.55 926.331 1479.01 Q928.16 1475.44 928.16 1468.33 Q928.16 1461.2 926.331 1457.66 Q924.526 1454.1 920.892 1454.1 M920.892 1450.39 Q926.702 1450.39 929.757 1455 Q932.836 1459.58 932.836 1468.33 Q932.836 1477.06 929.757 1481.67 Q926.702 1486.25 920.892 1486.25 Q915.081 1486.25 912.003 1481.67 Q908.947 1477.06 908.947 1468.33 Q908.947 1459.58 912.003 1455 Q915.081 1450.39 920.892 1450.39 Z" fill="#000000" fill-rule="nonzero" fill-opacity="1" /><path clip-path="url(#clip680)" d="M951.053 1454.1 Q947.442 1454.1 945.614 1457.66 Q943.808 1461.2 943.808 1468.33 Q943.808 1475.44 945.614 1479.01 Q947.442 1482.55 951.053 1482.55 Q954.688 1482.55 956.493 1479.01 Q958.322 1475.44 958.322 1468.33 Q958.322 1461.2 956.493 1457.66 Q954.688 1454.1 951.053 1454.1 M951.053 1450.39 Q956.864 1450.39 959.919 1455 Q962.998 1459.58 962.998 1468.33 Q962.998 1477.06 959.919 1481.67 Q956.864 1486.25 951.053 1486.25 Q945.243 1486.25 942.165 1481.67 Q939.109 1477.06 939.109 1468.33 Q939.109 1459.58 942.165 1455 Q945.243 1450.39 951.053 1450.39 Z" fill="#000000" fill-rule="nonzero" fill-opacity="1" /><path clip-path="url(#clip680)" d="M975.243 1481.64 L991.562 1481.64 L991.562 1485.58 L969.618 1485.58 L969.618 1481.64 Q972.28 1478.89 976.863 1474.26 Q981.47 1469.61 982.651 1468.27 Q984.896 1465.74 985.775 1464.01 Q986.678 1462.25 986.678 1460.56 Q986.678 1457.8 984.734 1456.07 Q982.813 1454.33 979.711 1454.33 Q977.512 1454.33 975.058 1455.09 Q972.627 1455.86 969.85 1457.41 L969.85 1452.69 Q972.674 1451.55 975.127 1450.97 Q977.581 1450.39 979.618 1450.39 Q984.988 1450.39 988.183 1453.08 Q991.377 1455.77 991.377 1460.26 Q991.377 1462.39 990.567 1464.31 Q989.78 1466.2 987.674 1468.8 Q987.095 1469.47 983.993 1472.69 Q980.891 1475.88 975.243 1481.64 Z" fill="#000000" fill-rule="nonzero" fill-opacity="1" /><path clip-path="url(#clip680)" d="M1002.19 1481.64 L1009.83 1481.64 L1009.83 1455.28 L1001.52 1456.95 L1001.52 1452.69 L1009.78 1451.02 L1014.46 1451.02 L1014.46 1481.64 L1022.09 1481.64 L1022.09 1485.58 L1002.19 1485.58 L1002.19 1481.64 Z" fill="#000000" fill-rule="nonzero" fill-opacity="1" /><path clip-path="url(#clip680)" d="M1042.12 1466.44 Q1038.97 1466.44 1037.12 1468.59 Q1035.29 1470.74 1035.29 1474.49 Q1035.29 1478.22 1037.12 1480.39 Q1038.97 1482.55 1042.12 1482.55 Q1045.27 1482.55 1047.09 1480.39 Q1048.95 1478.22 1048.95 1474.49 Q1048.95 1470.74 1047.09 1468.59 Q1045.27 1466.44 1042.12 1466.44 M1051.4 1451.78 L1051.4 1456.04 Q1049.64 1455.21 1047.84 1454.77 Q1046.05 1454.33 1044.29 1454.33 Q1039.66 1454.33 1037.21 1457.45 Q1034.78 1460.58 1034.43 1466.9 Q1035.8 1464.89 1037.86 1463.82 Q1039.92 1462.73 1042.4 1462.73 Q1047.6 1462.73 1050.61 1465.9 Q1053.65 1469.05 1053.65 1474.49 Q1053.65 1479.82 1050.5 1483.03 Q1047.35 1486.25 1042.12 1486.25 Q1036.12 1486.25 1032.95 1481.67 Q1029.78 1477.06 1029.78 1468.33 Q1029.78 1460.14 1033.67 1455.28 Q1037.56 1450.39 1044.11 1450.39 Q1045.87 1450.39 1047.65 1450.74 Q1049.46 1451.09 1051.4 1451.78 Z" fill="#000000" fill-rule="nonzero" fill-opacity="1" /><path clip-path="url(#clip680)" d="M1173.28 1454.1 Q1169.67 1454.1 1167.84 1457.66 Q1166.04 1461.2 1166.04 1468.33 Q1166.04 1475.44 1167.84 1479.01 Q1169.67 1482.55 1173.28 1482.55 Q1176.91 1482.55 1178.72 1479.01 Q1180.55 1475.44 1180.55 1468.33 Q1180.55 1461.2 1178.72 1457.66 Q1176.91 1454.1 1173.28 1454.1 M1173.28 1450.39 Q1179.09 1450.39 1182.15 1455 Q1185.22 1459.58 1185.22 1468.33 Q1185.22 1477.06 1182.15 1481.67 Q1179.09 1486.25 1173.28 1486.25 Q1167.47 1486.25 1164.39 1481.67 Q1161.34 1477.06 1161.34 1468.33 Q1161.34 1459.58 1164.39 1455 Q1167.47 1450.39 1173.28 1450.39 Z" fill="#000000" fill-rule="nonzero" fill-opacity="1" /><path clip-path="url(#clip680)" d="M1193.44 1479.7 L1198.33 1479.7 L1198.33 1485.58 L1193.44 1485.58 L1193.44 1479.7 Z" fill="#000000" fill-rule="nonzero" fill-opacity="1" /><path clip-path="url(#clip680)" d="M1218.51 1454.1 Q1214.9 1454.1 1213.07 1457.66 Q1211.27 1461.2 1211.27 1468.33 Q1211.27 1475.44 1213.07 1479.01 Q1214.9 1482.55 1218.51 1482.55 Q1222.15 1482.55 1223.95 1479.01 Q1225.78 1475.44 1225.78 1468.33 Q1225.78 1461.2 1223.95 1457.66 Q1222.15 1454.1 1218.51 1454.1 M1218.51 1450.39 Q1224.32 1450.39 1227.38 1455 Q1230.46 1459.58 1230.46 1468.33 Q1230.46 1477.06 1227.38 1481.67 Q1224.32 1486.25 1218.51 1486.25 Q1212.7 1486.25 1209.62 1481.67 Q1206.57 1477.06 1206.57 1468.33 Q1206.57 1459.58 1209.62 1455 Q1212.7 1450.39 1218.51 1450.39 Z" fill="#000000" fill-rule="nonzero" fill-opacity="1" /><path clip-path="url(#clip680)" d="M1248.67 1454.1 Q1245.06 1454.1 1243.23 1457.66 Q1241.43 1461.2 1241.43 1468.33 Q1241.43 1475.44 1243.23 1479.01 Q1245.06 1482.55 1248.67 1482.55 Q1252.31 1482.55 1254.11 1479.01 Q1255.94 1475.44 1255.94 1468.33 Q1255.94 1461.2 1254.11 1457.66 Q1252.31 1454.1 1248.67 1454.1 M1248.67 1450.39 Q1254.48 1450.39 1257.54 1455 Q1260.62 1459.58 1260.62 1468.33 Q1260.62 1477.06 1257.54 1481.67 Q1254.48 1486.25 1248.67 1486.25 Q1242.86 1486.25 1239.78 1481.67 Q1236.73 1477.06 1236.73 1468.33 Q1236.73 1459.58 1239.78 1455 Q1242.86 1450.39 1248.67 1450.39 Z" fill="#000000" fill-rule="nonzero" fill-opacity="1" /><path clip-path="url(#clip680)" d="M1272.86 1481.64 L1289.18 1481.64 L1289.18 1485.58 L1267.24 1485.58 L1267.24 1481.64 Q1269.9 1478.89 1274.48 1474.26 Q1279.09 1469.61 1280.27 1468.27 Q1282.52 1465.74 1283.4 1464.01 Q1284.3 1462.25 1284.3 1460.56 Q1284.3 1457.8 1282.35 1456.07 Q1280.43 1454.33 1277.33 1454.33 Q1275.13 1454.33 1272.68 1455.09 Q1270.25 1455.86 1267.47 1457.41 L1267.47 1452.69 Q1270.29 1451.55 1272.75 1450.97 Q1275.2 1450.39 1277.24 1450.39 Q1282.61 1450.39 1285.8 1453.08 Q1289 1455.77 1289 1460.26 Q1289 1462.39 1288.19 1464.31 Q1287.4 1466.2 1285.29 1468.8 Q1284.72 1469.47 1281.61 1472.69 Q1278.51 1475.88 1272.86 1481.64 Z" fill="#000000" fill-rule="nonzero" fill-opacity="1" /><path clip-path="url(#clip680)" d="M1299.81 1481.64 L1307.45 1481.64 L1307.45 1455.28 L1299.14 1456.95 L1299.14 1452.69 L1307.4 1451.02 L1312.08 1451.02 L1312.08 1481.64 L1319.71 1481.64 L1319.71 1485.58 L1299.81 1485.58 L1299.81 1481.64 Z" fill="#000000" fill-rule="nonzero" fill-opacity="1" /><path clip-path="url(#clip680)" d="M1339.16 1469.17 Q1335.83 1469.17 1333.9 1470.95 Q1332.01 1472.73 1332.01 1475.86 Q1332.01 1478.98 1333.9 1480.77 Q1335.83 1482.55 1339.16 1482.55 Q1342.49 1482.55 1344.41 1480.77 Q1346.34 1478.96 1346.34 1475.86 Q1346.34 1472.73 1344.41 1470.95 Q1342.52 1469.17 1339.16 1469.17 M1334.48 1467.18 Q1331.47 1466.44 1329.78 1464.38 Q1328.12 1462.32 1328.12 1459.35 Q1328.12 1455.21 1331.06 1452.8 Q1334.02 1450.39 1339.16 1450.39 Q1344.32 1450.39 1347.26 1452.8 Q1350.2 1455.21 1350.2 1459.35 Q1350.2 1462.32 1348.51 1464.38 Q1346.84 1466.44 1343.86 1467.18 Q1347.24 1467.96 1349.11 1470.26 Q1351.01 1472.55 1351.01 1475.86 Q1351.01 1480.88 1347.93 1483.57 Q1344.88 1486.25 1339.16 1486.25 Q1333.44 1486.25 1330.36 1483.57 Q1327.31 1480.88 1327.31 1475.86 Q1327.31 1472.55 1329.21 1470.26 Q1331.1 1467.96 1334.48 1467.18 M1332.77 1459.79 Q1332.77 1462.48 1334.44 1463.98 Q1336.13 1465.49 1339.16 1465.49 Q1342.17 1465.49 1343.86 1463.98 Q1345.57 1462.48 1345.57 1459.79 Q1345.57 1457.11 1343.86 1455.6 Q1342.17 1454.1 1339.16 1454.1 Q1336.13 1454.1 1334.44 1455.6 Q1332.77 1457.11 1332.77 1459.79 Z" fill="#000000" fill-rule="nonzero" fill-opacity="1" /><path clip-path="url(#clip680)" d="M1470.73 1454.1 Q1467.12 1454.1 1465.29 1457.66 Q1463.48 1461.2 1463.48 1468.33 Q1463.48 1475.44 1465.29 1479.01 Q1467.12 1482.55 1470.73 1482.55 Q1474.36 1482.55 1476.17 1479.01 Q1478 1475.44 1478 1468.33 Q1478 1461.2 1476.17 1457.66 Q1474.36 1454.1 1470.73 1454.1 M1470.73 1450.39 Q1476.54 1450.39 1479.59 1455 Q1482.67 1459.58 1482.67 1468.33 Q1482.67 1477.06 1479.59 1481.67 Q1476.54 1486.25 1470.73 1486.25 Q1464.92 1486.25 1461.84 1481.67 Q1458.78 1477.06 1458.78 1468.33 Q1458.78 1459.58 1461.84 1455 Q1464.92 1450.39 1470.73 1450.39 Z" fill="#000000" fill-rule="nonzero" fill-opacity="1" /><path clip-path="url(#clip680)" d="M1490.89 1479.7 L1495.77 1479.7 L1495.77 1485.58 L1490.89 1485.58 L1490.89 1479.7 Z" fill="#000000" fill-rule="nonzero" fill-opacity="1" /><path clip-path="url(#clip680)" d="M1515.96 1454.1 Q1512.35 1454.1 1510.52 1457.66 Q1508.71 1461.2 1508.71 1468.33 Q1508.71 1475.44 1510.52 1479.01 Q1512.35 1482.55 1515.96 1482.55 Q1519.59 1482.55 1521.4 1479.01 Q1523.23 1475.44 1523.23 1468.33 Q1523.23 1461.2 1521.4 1457.66 Q1519.59 1454.1 1515.96 1454.1 M1515.96 1450.39 Q1521.77 1450.39 1524.82 1455 Q1527.9 1459.58 1527.9 1468.33 Q1527.9 1477.06 1524.82 1481.67 Q1521.77 1486.25 1515.96 1486.25 Q1510.15 1486.25 1507.07 1481.67 Q1504.01 1477.06 1504.01 1468.33 Q1504.01 1459.58 1507.07 1455 Q1510.15 1450.39 1515.96 1450.39 Z" fill="#000000" fill-rule="nonzero" fill-opacity="1" /><path clip-path="url(#clip680)" d="M1546.12 1454.1 Q1542.51 1454.1 1540.68 1457.66 Q1538.87 1461.2 1538.87 1468.33 Q1538.87 1475.44 1540.68 1479.01 Q1542.51 1482.55 1546.12 1482.55 Q1549.75 1482.55 1551.56 1479.01 Q1553.39 1475.44 1553.39 1468.33 Q1553.39 1461.2 1551.56 1457.66 Q1549.75 1454.1 1546.12 1454.1 M1546.12 1450.39 Q1551.93 1450.39 1554.99 1455 Q1558.06 1459.58 1558.06 1468.33 Q1558.06 1477.06 1554.99 1481.67 Q1551.93 1486.25 1546.12 1486.25 Q1540.31 1486.25 1537.23 1481.67 Q1534.18 1477.06 1534.18 1468.33 Q1534.18 1459.58 1537.23 1455 Q1540.31 1450.39 1546.12 1450.39 Z" fill="#000000" fill-rule="nonzero" fill-opacity="1" /><path clip-path="url(#clip680)" d="M1570.31 1481.64 L1586.63 1481.64 L1586.63 1485.58 L1564.68 1485.58 L1564.68 1481.64 Q1567.35 1478.89 1571.93 1474.26 Q1576.54 1469.61 1577.72 1468.27 Q1579.96 1465.74 1580.84 1464.01 Q1581.74 1462.25 1581.74 1460.56 Q1581.74 1457.8 1579.8 1456.07 Q1577.88 1454.33 1574.78 1454.33 Q1572.58 1454.33 1570.12 1455.09 Q1567.69 1455.86 1564.92 1457.41 L1564.92 1452.69 Q1567.74 1451.55 1570.19 1450.97 Q1572.65 1450.39 1574.68 1450.39 Q1580.06 1450.39 1583.25 1453.08 Q1586.44 1455.77 1586.44 1460.26 Q1586.44 1462.39 1585.63 1464.31 Q1584.85 1466.2 1582.74 1468.8 Q1582.16 1469.47 1579.06 1472.69 Q1575.96 1475.88 1570.31 1481.64 Z" fill="#000000" fill-rule="nonzero" fill-opacity="1" /><path clip-path="url(#clip680)" d="M1600.47 1481.64 L1616.79 1481.64 L1616.79 1485.58 L1594.85 1485.58 L1594.85 1481.64 Q1597.51 1478.89 1602.09 1474.26 Q1606.7 1469.61 1607.88 1468.27 Q1610.12 1465.74 1611 1464.01 Q1611.91 1462.25 1611.91 1460.56 Q1611.91 1457.8 1609.96 1456.07 Q1608.04 1454.33 1604.94 1454.33 Q1602.74 1454.33 1600.29 1455.09 Q1597.86 1455.86 1595.08 1457.41 L1595.08 1452.69 Q1597.9 1451.55 1600.36 1450.97 Q1602.81 1450.39 1604.85 1450.39 Q1610.22 1450.39 1613.41 1453.08 Q1616.61 1455.77 1616.61 1460.26 Q1616.61 1462.39 1615.8 1464.31 Q1615.01 1466.2 1612.9 1468.8 Q1612.32 1469.47 1609.22 1472.69 Q1606.12 1475.88 1600.47 1481.64 Z" fill="#000000" fill-rule="nonzero" fill-opacity="1" /><path clip-path="url(#clip680)" d="M1636.61 1454.1 Q1632.99 1454.1 1631.17 1457.66 Q1629.36 1461.2 1629.36 1468.33 Q1629.36 1475.44 1631.17 1479.01 Q1632.99 1482.55 1636.61 1482.55 Q1640.24 1482.55 1642.05 1479.01 Q1643.87 1475.44 1643.87 1468.33 Q1643.87 1461.2 1642.05 1457.66 Q1640.24 1454.1 1636.61 1454.1 M1636.61 1450.39 Q1642.42 1450.39 1645.47 1455 Q1648.55 1459.58 1648.55 1468.33 Q1648.55 1477.06 1645.47 1481.67 Q1642.42 1486.25 1636.61 1486.25 Q1630.8 1486.25 1627.72 1481.67 Q1624.66 1477.06 1624.66 1468.33 Q1624.66 1459.58 1627.72 1455 Q1630.8 1450.39 1636.61 1450.39 Z" fill="#000000" fill-rule="nonzero" fill-opacity="1" /><path clip-path="url(#clip680)" d="M1769.02 1454.1 Q1765.41 1454.1 1763.58 1457.66 Q1761.77 1461.2 1761.77 1468.33 Q1761.77 1475.44 1763.58 1479.01 Q1765.41 1482.55 1769.02 1482.55 Q1772.65 1482.55 1774.46 1479.01 Q1776.29 1475.44 1776.29 1468.33 Q1776.29 1461.2 1774.46 1457.66 Q1772.65 1454.1 1769.02 1454.1 M1769.02 1450.39 Q1774.83 1450.39 1777.88 1455 Q1780.96 1459.58 1780.96 1468.33 Q1780.96 1477.06 1777.88 1481.67 Q1774.83 1486.25 1769.02 1486.25 Q1763.21 1486.25 1760.13 1481.67 Q1757.07 1477.06 1757.07 1468.33 Q1757.07 1459.58 1760.13 1455 Q1763.21 1450.39 1769.02 1450.39 Z" fill="#000000" fill-rule="nonzero" fill-opacity="1" /><path clip-path="url(#clip680)" d="M1789.18 1479.7 L1794.06 1479.7 L1794.06 1485.58 L1789.18 1485.58 L1789.18 1479.7 Z" fill="#000000" fill-rule="nonzero" fill-opacity="1" /><path clip-path="url(#clip680)" d="M1814.25 1454.1 Q1810.64 1454.1 1808.81 1457.66 Q1807 1461.2 1807 1468.33 Q1807 1475.44 1808.81 1479.01 Q1810.64 1482.55 1814.25 1482.55 Q1817.88 1482.55 1819.69 1479.01 Q1821.52 1475.44 1821.52 1468.33 Q1821.52 1461.2 1819.69 1457.66 Q1817.88 1454.1 1814.25 1454.1 M1814.25 1450.39 Q1820.06 1450.39 1823.12 1455 Q1826.19 1459.58 1826.19 1468.33 Q1826.19 1477.06 1823.12 1481.67 Q1820.06 1486.25 1814.25 1486.25 Q1808.44 1486.25 1805.36 1481.67 Q1802.31 1477.06 1802.31 1468.33 Q1802.31 1459.58 1805.36 1455 Q1808.44 1450.39 1814.25 1450.39 Z" fill="#000000" fill-rule="nonzero" fill-opacity="1" /><path clip-path="url(#clip680)" d="M1844.41 1454.1 Q1840.8 1454.1 1838.97 1457.66 Q1837.17 1461.2 1837.17 1468.33 Q1837.17 1475.44 1838.97 1479.01 Q1840.8 1482.55 1844.41 1482.55 Q1848.05 1482.55 1849.85 1479.01 Q1851.68 1475.44 1851.68 1468.33 Q1851.68 1461.2 1849.85 1457.66 Q1848.05 1454.1 1844.41 1454.1 M1844.41 1450.39 Q1850.22 1450.39 1853.28 1455 Q1856.36 1459.58 1856.36 1468.33 Q1856.36 1477.06 1853.28 1481.67 Q1850.22 1486.25 1844.41 1486.25 Q1838.6 1486.25 1835.52 1481.67 Q1832.47 1477.06 1832.47 1468.33 Q1832.47 1459.58 1835.52 1455 Q1838.6 1450.39 1844.41 1450.39 Z" fill="#000000" fill-rule="nonzero" fill-opacity="1" /><path clip-path="url(#clip680)" d="M1868.6 1481.64 L1884.92 1481.64 L1884.92 1485.58 L1862.98 1485.58 L1862.98 1481.64 Q1865.64 1478.89 1870.22 1474.26 Q1874.83 1469.61 1876.01 1468.27 Q1878.25 1465.74 1879.13 1464.01 Q1880.04 1462.25 1880.04 1460.56 Q1880.04 1457.8 1878.09 1456.07 Q1876.17 1454.33 1873.07 1454.33 Q1870.87 1454.33 1868.42 1455.09 Q1865.99 1455.86 1863.21 1457.41 L1863.21 1452.69 Q1866.03 1451.55 1868.49 1450.97 Q1870.94 1450.39 1872.98 1450.39 Q1878.35 1450.39 1881.54 1453.08 Q1884.74 1455.77 1884.74 1460.26 Q1884.74 1462.39 1883.93 1464.31 Q1883.14 1466.2 1881.03 1468.8 Q1880.45 1469.47 1877.35 1472.69 Q1874.25 1475.88 1868.6 1481.64 Z" fill="#000000" fill-rule="nonzero" fill-opacity="1" /><path clip-path="url(#clip680)" d="M1898.76 1481.64 L1915.08 1481.64 L1915.08 1485.58 L1893.14 1485.58 L1893.14 1481.64 Q1895.8 1478.89 1900.38 1474.26 Q1904.99 1469.61 1906.17 1468.27 Q1908.42 1465.74 1909.3 1464.01 Q1910.2 1462.25 1910.2 1460.56 Q1910.2 1457.8 1908.25 1456.07 Q1906.33 1454.33 1903.23 1454.33 Q1901.03 1454.33 1898.58 1455.09 Q1896.15 1455.86 1893.37 1457.41 L1893.37 1452.69 Q1896.19 1451.55 1898.65 1450.97 Q1901.1 1450.39 1903.14 1450.39 Q1908.51 1450.39 1911.7 1453.08 Q1914.9 1455.77 1914.9 1460.26 Q1914.9 1462.39 1914.09 1464.31 Q1913.3 1466.2 1911.19 1468.8 Q1910.61 1469.47 1907.51 1472.69 Q1904.41 1475.88 1898.76 1481.64 Z" fill="#000000" fill-rule="nonzero" fill-opacity="1" /><path clip-path="url(#clip680)" d="M1928.93 1481.64 L1945.24 1481.64 L1945.24 1485.58 L1923.3 1485.58 L1923.3 1481.64 Q1925.96 1478.89 1930.55 1474.26 Q1935.15 1469.61 1936.33 1468.27 Q1938.58 1465.74 1939.46 1464.01 Q1940.36 1462.25 1940.36 1460.56 Q1940.36 1457.8 1938.42 1456.07 Q1936.49 1454.33 1933.39 1454.33 Q1931.19 1454.33 1928.74 1455.09 Q1926.31 1455.86 1923.53 1457.41 L1923.53 1452.69 Q1926.36 1451.55 1928.81 1450.97 Q1931.26 1450.39 1933.3 1450.39 Q1938.67 1450.39 1941.86 1453.08 Q1945.06 1455.77 1945.06 1460.26 Q1945.06 1462.39 1944.25 1464.31 Q1943.46 1466.2 1941.36 1468.8 Q1940.78 1469.47 1937.67 1472.69 Q1934.57 1475.88 1928.93 1481.64 Z" fill="#000000" fill-rule="nonzero" fill-opacity="1" /><path clip-path="url(#clip680)" d="M2065.47 1454.1 Q2061.86 1454.1 2060.03 1457.66 Q2058.22 1461.2 2058.22 1468.33 Q2058.22 1475.44 2060.03 1479.01 Q2061.86 1482.55 2065.47 1482.55 Q2069.1 1482.55 2070.91 1479.01 Q2072.74 1475.44 2072.74 1468.33 Q2072.74 1461.2 2070.91 1457.66 Q2069.1 1454.1 2065.47 1454.1 M2065.47 1450.39 Q2071.28 1450.39 2074.34 1455 Q2077.41 1459.58 2077.41 1468.33 Q2077.41 1477.06 2074.34 1481.67 Q2071.28 1486.25 2065.47 1486.25 Q2059.66 1486.25 2056.58 1481.67 Q2053.53 1477.06 2053.53 1468.33 Q2053.53 1459.58 2056.58 1455 Q2059.66 1450.39 2065.47 1450.39 Z" fill="#000000" fill-rule="nonzero" fill-opacity="1" /><path clip-path="url(#clip680)" d="M2085.63 1479.7 L2090.52 1479.7 L2090.52 1485.58 L2085.63 1485.58 L2085.63 1479.7 Z" fill="#000000" fill-rule="nonzero" fill-opacity="1" /><path clip-path="url(#clip680)" d="M2110.7 1454.1 Q2107.09 1454.1 2105.26 1457.66 Q2103.46 1461.2 2103.46 1468.33 Q2103.46 1475.44 2105.26 1479.01 Q2107.09 1482.55 2110.7 1482.55 Q2114.34 1482.55 2116.14 1479.01 Q2117.97 1475.44 2117.97 1468.33 Q2117.97 1461.2 2116.14 1457.66 Q2114.34 1454.1 2110.7 1454.1 M2110.7 1450.39 Q2116.51 1450.39 2119.57 1455 Q2122.65 1459.58 2122.65 1468.33 Q2122.65 1477.06 2119.57 1481.67 Q2116.51 1486.25 2110.7 1486.25 Q2104.89 1486.25 2101.81 1481.67 Q2098.76 1477.06 2098.76 1468.33 Q2098.76 1459.58 2101.81 1455 Q2104.89 1450.39 2110.7 1450.39 Z" fill="#000000" fill-rule="nonzero" fill-opacity="1" /><path clip-path="url(#clip680)" d="M2140.86 1454.1 Q2137.25 1454.1 2135.42 1457.66 Q2133.62 1461.2 2133.62 1468.33 Q2133.62 1475.44 2135.42 1479.01 Q2137.25 1482.55 2140.86 1482.55 Q2144.5 1482.55 2146.3 1479.01 Q2148.13 1475.44 2148.13 1468.33 Q2148.13 1461.2 2146.3 1457.66 Q2144.5 1454.1 2140.86 1454.1 M2140.86 1450.39 Q2146.67 1450.39 2149.73 1455 Q2152.81 1459.58 2152.81 1468.33 Q2152.81 1477.06 2149.73 1481.67 Q2146.67 1486.25 2140.86 1486.25 Q2135.05 1486.25 2131.97 1481.67 Q2128.92 1477.06 2128.92 1468.33 Q2128.92 1459.58 2131.97 1455 Q2135.05 1450.39 2140.86 1450.39 Z" fill="#000000" fill-rule="nonzero" fill-opacity="1" /><path clip-path="url(#clip680)" d="M2165.05 1481.64 L2181.37 1481.64 L2181.37 1485.58 L2159.43 1485.58 L2159.43 1481.64 Q2162.09 1478.89 2166.67 1474.26 Q2171.28 1469.61 2172.46 1468.27 Q2174.71 1465.74 2175.58 1464.01 Q2176.49 1462.25 2176.49 1460.56 Q2176.49 1457.8 2174.54 1456.07 Q2172.62 1454.33 2169.52 1454.33 Q2167.32 1454.33 2164.87 1455.09 Q2162.44 1455.86 2159.66 1457.41 L2159.66 1452.69 Q2162.48 1451.55 2164.94 1450.97 Q2167.39 1450.39 2169.43 1450.39 Q2174.8 1450.39 2177.99 1453.08 Q2181.19 1455.77 2181.19 1460.26 Q2181.19 1462.39 2180.38 1464.31 Q2179.59 1466.2 2177.48 1468.8 Q2176.9 1469.47 2173.8 1472.69 Q2170.7 1475.88 2165.05 1481.64 Z" fill="#000000" fill-rule="nonzero" fill-opacity="1" /><path clip-path="url(#clip680)" d="M2195.21 1481.64 L2211.53 1481.64 L2211.53 1485.58 L2189.59 1485.58 L2189.59 1481.64 Q2192.25 1478.89 2196.83 1474.26 Q2201.44 1469.61 2202.62 1468.27 Q2204.87 1465.74 2205.75 1464.01 Q2206.65 1462.25 2206.65 1460.56 Q2206.65 1457.8 2204.7 1456.07 Q2202.78 1454.33 2199.68 1454.33 Q2197.48 1454.33 2195.03 1455.09 Q2192.6 1455.86 2189.82 1457.41 L2189.82 1452.69 Q2192.64 1451.55 2195.1 1450.97 Q2197.55 1450.39 2199.59 1450.39 Q2204.96 1450.39 2208.15 1453.08 Q2211.35 1455.77 2211.35 1460.26 Q2211.35 1462.39 2210.54 1464.31 Q2209.75 1466.2 2207.64 1468.8 Q2207.07 1469.47 2203.96 1472.69 Q2200.86 1475.88 2195.21 1481.64 Z" fill="#000000" fill-rule="nonzero" fill-opacity="1" /><path clip-path="url(#clip680)" d="M2234.2 1455.09 L2222.39 1473.54 L2234.2 1473.54 L2234.2 1455.09 M2232.97 1451.02 L2238.85 1451.02 L2238.85 1473.54 L2243.78 1473.54 L2243.78 1477.43 L2238.85 1477.43 L2238.85 1485.58 L2234.2 1485.58 L2234.2 1477.43 L2218.59 1477.43 L2218.59 1472.92 L2232.97 1451.02 Z" fill="#000000" fill-rule="nonzero" fill-opacity="1" /><path clip-path="url(#clip680)" d="M1291.88 1565.85 L1291.88 1581.6 L1285.99 1581.6 L1285.99 1532.62 Q1285.99 1518.1 1299.55 1518.1 Q1313.36 1518.1 1313.36 1530.36 Q1313.36 1539.08 1307.89 1542.26 Q1316.8 1545.13 1316.8 1553.63 Q1316.8 1568.71 1301.46 1568.71 Q1294.71 1568.71 1291.88 1565.85 M1291.88 1558.21 Q1295.41 1563.72 1301.68 1563.72 Q1310.85 1563.72 1310.85 1553.72 Q1310.85 1544.75 1296.08 1545.45 L1296.08 1540.03 Q1307.63 1540.03 1307.63 1529.85 Q1307.63 1522.88 1300.18 1522.88 Q1291.88 1522.88 1291.88 1532.81 L1291.88 1558.21 Z" fill="#000000" fill-rule="nonzero" fill-opacity="1" /><polyline clip-path="url(#clip680)" style="stroke:#000000; stroke-linecap:round; stroke-linejoin:round; stroke-width:4; stroke-opacity:1; fill:none" points="250.028,1423.18 250.028,47.2441 "/>
<polyline clip-path="url(#clip680)" style="stroke:#000000; stroke-linecap:round; stroke-linejoin:round; stroke-width:4; stroke-opacity:1; fill:none" points="250.028,1334.86 268.926,1334.86 "/>
<polyline clip-path="url(#clip680)" style="stroke:#000000; stroke-linecap:round; stroke-linejoin:round; stroke-width:4; stroke-opacity:1; fill:none" points="250.028,1128.11 268.926,1128.11 "/>
<polyline clip-path="url(#clip680)" style="stroke:#000000; stroke-linecap:round; stroke-linejoin:round; stroke-width:4; stroke-opacity:1; fill:none" points="250.028,921.354 268.926,921.354 "/>
<polyline clip-path="url(#clip680)" style="stroke:#000000; stroke-linecap:round; stroke-linejoin:round; stroke-width:4; stroke-opacity:1; fill:none" points="250.028,714.602 268.926,714.602 "/>
<polyline clip-path="url(#clip680)" style="stroke:#000000; stroke-linecap:round; stroke-linejoin:round; stroke-width:4; stroke-opacity:1; fill:none" points="250.028,507.849 268.926,507.849 "/>
<polyline clip-path="url(#clip680)" style="stroke:#000000; stroke-linecap:round; stroke-linejoin:round; stroke-width:4; stroke-opacity:1; fill:none" points="250.028,301.096 268.926,301.096 "/>
<polyline clip-path="url(#clip680)" style="stroke:#000000; stroke-linecap:round; stroke-linejoin:round; stroke-width:4; stroke-opacity:1; fill:none" points="250.028,94.3434 268.926,94.3434 "/>
<path clip-path="url(#clip680)" d="M128.288 1320.66 Q124.677 1320.66 122.848 1324.22 Q121.043 1327.76 121.043 1334.89 Q121.043 1342 122.848 1345.57 Q124.677 1349.11 128.288 1349.11 Q131.922 1349.11 133.728 1345.57 Q135.556 1342 135.556 1334.89 Q135.556 1327.76 133.728 1324.22 Q131.922 1320.66 128.288 1320.66 M128.288 1316.95 Q134.098 1316.95 137.154 1321.56 Q140.232 1326.14 140.232 1334.89 Q140.232 1343.62 137.154 1348.23 Q134.098 1352.81 128.288 1352.81 Q122.478 1352.81 119.399 1348.23 Q116.343 1343.62 116.343 1334.89 Q116.343 1326.14 119.399 1321.56 Q122.478 1316.95 128.288 1316.95 Z" fill="#000000" fill-rule="nonzero" fill-opacity="1" /><path clip-path="url(#clip680)" d="M148.45 1346.26 L153.334 1346.26 L153.334 1352.14 L148.45 1352.14 L148.45 1346.26 Z" fill="#000000" fill-rule="nonzero" fill-opacity="1" /><path clip-path="url(#clip680)" d="M176.366 1321.65 L164.561 1340.1 L176.366 1340.1 L176.366 1321.65 M175.139 1317.58 L181.019 1317.58 L181.019 1340.1 L185.95 1340.1 L185.95 1343.99 L181.019 1343.99 L181.019 1352.14 L176.366 1352.14 L176.366 1343.99 L160.765 1343.99 L160.765 1339.48 L175.139 1317.58 Z" fill="#000000" fill-rule="nonzero" fill-opacity="1" /><path clip-path="url(#clip680)" d="M197.709 1348.2 L214.028 1348.2 L214.028 1352.14 L192.084 1352.14 L192.084 1348.2 Q194.746 1345.45 199.329 1340.82 Q203.936 1336.17 205.116 1334.82 Q207.362 1332.3 208.241 1330.57 Q209.144 1328.81 209.144 1327.12 Q209.144 1324.36 207.199 1322.63 Q205.278 1320.89 202.176 1320.89 Q199.977 1320.89 197.524 1321.65 Q195.093 1322.42 192.315 1323.97 L192.315 1319.25 Q195.139 1318.11 197.593 1317.53 Q200.047 1316.95 202.084 1316.95 Q207.454 1316.95 210.649 1319.64 Q213.843 1322.33 213.843 1326.82 Q213.843 1328.95 213.033 1330.87 Q212.246 1332.76 210.139 1335.36 Q209.561 1336.03 206.459 1339.25 Q203.357 1342.44 197.709 1348.2 Z" fill="#000000" fill-rule="nonzero" fill-opacity="1" /><path clip-path="url(#clip680)" d="M127.339 1113.91 Q123.728 1113.91 121.899 1117.47 Q120.093 1121.01 120.093 1128.14 Q120.093 1135.25 121.899 1138.81 Q123.728 1142.35 127.339 1142.35 Q130.973 1142.35 132.779 1138.81 Q134.607 1135.25 134.607 1128.14 Q134.607 1121.01 132.779 1117.47 Q130.973 1113.91 127.339 1113.91 M127.339 1110.2 Q133.149 1110.2 136.204 1114.81 Q139.283 1119.39 139.283 1128.14 Q139.283 1136.87 136.204 1141.47 Q133.149 1146.06 127.339 1146.06 Q121.529 1146.06 118.45 1141.47 Q115.394 1136.87 115.394 1128.14 Q115.394 1119.39 118.45 1114.81 Q121.529 1110.2 127.339 1110.2 Z" fill="#000000" fill-rule="nonzero" fill-opacity="1" /><path clip-path="url(#clip680)" d="M147.501 1139.51 L152.385 1139.51 L152.385 1145.39 L147.501 1145.39 L147.501 1139.51 Z" fill="#000000" fill-rule="nonzero" fill-opacity="1" /><path clip-path="url(#clip680)" d="M175.417 1114.9 L163.612 1133.35 L175.417 1133.35 L175.417 1114.9 M174.19 1110.83 L180.07 1110.83 L180.07 1133.35 L185.001 1133.35 L185.001 1137.24 L180.07 1137.24 L180.07 1145.39 L175.417 1145.39 L175.417 1137.24 L159.815 1137.24 L159.815 1132.73 L174.19 1110.83 Z" fill="#000000" fill-rule="nonzero" fill-opacity="1" /><path clip-path="url(#clip680)" d="M206.899 1126.75 Q210.255 1127.47 212.13 1129.74 Q214.028 1132.01 214.028 1135.34 Q214.028 1140.46 210.51 1143.26 Q206.991 1146.06 200.51 1146.06 Q198.334 1146.06 196.019 1145.62 Q193.727 1145.2 191.274 1144.35 L191.274 1139.83 Q193.218 1140.97 195.533 1141.54 Q197.848 1142.12 200.371 1142.12 Q204.769 1142.12 207.061 1140.39 Q209.375 1138.65 209.375 1135.34 Q209.375 1132.29 207.223 1130.57 Q205.093 1128.84 201.274 1128.84 L197.246 1128.84 L197.246 1124.99 L201.459 1124.99 Q204.908 1124.99 206.737 1123.63 Q208.565 1122.24 208.565 1119.65 Q208.565 1116.98 206.667 1115.57 Q204.792 1114.14 201.274 1114.14 Q199.352 1114.14 197.153 1114.55 Q194.954 1114.97 192.315 1115.85 L192.315 1111.68 Q194.977 1110.94 197.292 1110.57 Q199.63 1110.2 201.69 1110.2 Q207.014 1110.2 210.116 1112.63 Q213.218 1115.04 213.218 1119.16 Q213.218 1122.03 211.574 1124.02 Q209.931 1125.99 206.899 1126.75 Z" fill="#000000" fill-rule="nonzero" fill-opacity="1" /><path clip-path="url(#clip680)" d="M126.205 907.153 Q122.593 907.153 120.765 910.718 Q118.959 914.259 118.959 921.389 Q118.959 928.495 120.765 932.06 Q122.593 935.602 126.205 935.602 Q129.839 935.602 131.644 932.06 Q133.473 928.495 133.473 921.389 Q133.473 914.259 131.644 910.718 Q129.839 907.153 126.205 907.153 M126.205 903.449 Q132.015 903.449 135.07 908.056 Q138.149 912.639 138.149 921.389 Q138.149 930.116 135.07 934.722 Q132.015 939.306 126.205 939.306 Q120.394 939.306 117.316 934.722 Q114.26 930.116 114.26 921.389 Q114.26 912.639 117.316 908.056 Q120.394 903.449 126.205 903.449 Z" fill="#000000" fill-rule="nonzero" fill-opacity="1" /><path clip-path="url(#clip680)" d="M146.366 932.755 L151.251 932.755 L151.251 938.634 L146.366 938.634 L146.366 932.755 Z" fill="#000000" fill-rule="nonzero" fill-opacity="1" /><path clip-path="url(#clip680)" d="M174.283 908.148 L162.477 926.597 L174.283 926.597 L174.283 908.148 M173.056 904.074 L178.936 904.074 L178.936 926.597 L183.866 926.597 L183.866 930.486 L178.936 930.486 L178.936 938.634 L174.283 938.634 L174.283 930.486 L158.681 930.486 L158.681 925.972 L173.056 904.074 Z" fill="#000000" fill-rule="nonzero" fill-opacity="1" /><path clip-path="url(#clip680)" d="M204.445 908.148 L192.639 926.597 L204.445 926.597 L204.445 908.148 M203.218 904.074 L209.098 904.074 L209.098 926.597 L214.028 926.597 L214.028 930.486 L209.098 930.486 L209.098 938.634 L204.445 938.634 L204.445 930.486 L188.843 930.486 L188.843 925.972 L203.218 904.074 Z" fill="#000000" fill-rule="nonzero" fill-opacity="1" /><path clip-path="url(#clip680)" d="M127.686 700.4 Q124.075 700.4 122.246 703.965 Q120.441 707.507 120.441 714.636 Q120.441 721.743 122.246 725.308 Q124.075 728.849 127.686 728.849 Q131.32 728.849 133.126 725.308 Q134.954 721.743 134.954 714.636 Q134.954 707.507 133.126 703.965 Q131.32 700.4 127.686 700.4 M127.686 696.697 Q133.496 696.697 136.552 701.303 Q139.63 705.886 139.63 714.636 Q139.63 723.363 136.552 727.97 Q133.496 732.553 127.686 732.553 Q121.876 732.553 118.797 727.97 Q115.742 723.363 115.742 714.636 Q115.742 705.886 118.797 701.303 Q121.876 696.697 127.686 696.697 Z" fill="#000000" fill-rule="nonzero" fill-opacity="1" /><path clip-path="url(#clip680)" d="M147.848 726.002 L152.732 726.002 L152.732 731.882 L147.848 731.882 L147.848 726.002 Z" fill="#000000" fill-rule="nonzero" fill-opacity="1" /><path clip-path="url(#clip680)" d="M175.764 701.396 L163.959 719.845 L175.764 719.845 L175.764 701.396 M174.538 697.322 L180.417 697.322 L180.417 719.845 L185.348 719.845 L185.348 723.733 L180.417 723.733 L180.417 731.882 L175.764 731.882 L175.764 723.733 L160.163 723.733 L160.163 719.22 L174.538 697.322 Z" fill="#000000" fill-rule="nonzero" fill-opacity="1" /><path clip-path="url(#clip680)" d="M193.125 697.322 L211.482 697.322 L211.482 701.257 L197.408 701.257 L197.408 709.729 Q198.426 709.382 199.445 709.22 Q200.463 709.034 201.482 709.034 Q207.269 709.034 210.649 712.206 Q214.028 715.377 214.028 720.794 Q214.028 726.372 210.556 729.474 Q207.084 732.553 200.764 732.553 Q198.588 732.553 196.32 732.182 Q194.075 731.812 191.667 731.071 L191.667 726.372 Q193.75 727.507 195.973 728.062 Q198.195 728.618 200.672 728.618 Q204.676 728.618 207.014 726.511 Q209.352 724.405 209.352 720.794 Q209.352 717.183 207.014 715.076 Q204.676 712.97 200.672 712.97 Q198.797 712.97 196.922 713.386 Q195.07 713.803 193.125 714.683 L193.125 697.322 Z" fill="#000000" fill-rule="nonzero" fill-opacity="1" /><path clip-path="url(#clip680)" d="M126.529 493.648 Q122.918 493.648 121.089 497.212 Q119.283 500.754 119.283 507.884 Q119.283 514.99 121.089 518.555 Q122.918 522.096 126.529 522.096 Q130.163 522.096 131.968 518.555 Q133.797 514.99 133.797 507.884 Q133.797 500.754 131.968 497.212 Q130.163 493.648 126.529 493.648 M126.529 489.944 Q132.339 489.944 135.394 494.55 Q138.473 499.134 138.473 507.884 Q138.473 516.61 135.394 521.217 Q132.339 525.8 126.529 525.8 Q120.718 525.8 117.64 521.217 Q114.584 516.61 114.584 507.884 Q114.584 499.134 117.64 494.55 Q120.718 489.944 126.529 489.944 Z" fill="#000000" fill-rule="nonzero" fill-opacity="1" /><path clip-path="url(#clip680)" d="M146.691 519.249 L151.575 519.249 L151.575 525.129 L146.691 525.129 L146.691 519.249 Z" fill="#000000" fill-rule="nonzero" fill-opacity="1" /><path clip-path="url(#clip680)" d="M174.607 494.643 L162.802 513.092 L174.607 513.092 L174.607 494.643 M173.38 490.569 L179.26 490.569 L179.26 513.092 L184.19 513.092 L184.19 516.981 L179.26 516.981 L179.26 525.129 L174.607 525.129 L174.607 516.981 L159.005 516.981 L159.005 512.467 L173.38 490.569 Z" fill="#000000" fill-rule="nonzero" fill-opacity="1" /><path clip-path="url(#clip680)" d="M202.5 505.985 Q199.352 505.985 197.5 508.138 Q195.672 510.291 195.672 514.041 Q195.672 517.768 197.5 519.944 Q199.352 522.096 202.5 522.096 Q205.649 522.096 207.477 519.944 Q209.329 517.768 209.329 514.041 Q209.329 510.291 207.477 508.138 Q205.649 505.985 202.5 505.985 M211.783 491.333 L211.783 495.592 Q210.024 494.759 208.218 494.319 Q206.436 493.879 204.676 493.879 Q200.047 493.879 197.593 497.004 Q195.163 500.129 194.815 506.448 Q196.181 504.435 198.241 503.37 Q200.301 502.282 202.778 502.282 Q207.987 502.282 210.996 505.453 Q214.028 508.601 214.028 514.041 Q214.028 519.365 210.88 522.583 Q207.732 525.8 202.5 525.8 Q196.505 525.8 193.334 521.217 Q190.163 516.61 190.163 507.884 Q190.163 499.689 194.051 494.828 Q197.94 489.944 204.491 489.944 Q206.25 489.944 208.033 490.291 Q209.838 490.638 211.783 491.333 Z" fill="#000000" fill-rule="nonzero" fill-opacity="1" /><path clip-path="url(#clip680)" d="M127.593 286.895 Q123.982 286.895 122.154 290.46 Q120.348 294.001 120.348 301.131 Q120.348 308.237 122.154 311.802 Q123.982 315.344 127.593 315.344 Q131.228 315.344 133.033 311.802 Q134.862 308.237 134.862 301.131 Q134.862 294.001 133.033 290.46 Q131.228 286.895 127.593 286.895 M127.593 283.191 Q133.404 283.191 136.459 287.798 Q139.538 292.381 139.538 301.131 Q139.538 309.858 136.459 314.464 Q133.404 319.047 127.593 319.047 Q121.783 319.047 118.705 314.464 Q115.649 309.858 115.649 301.131 Q115.649 292.381 118.705 287.798 Q121.783 283.191 127.593 283.191 Z" fill="#000000" fill-rule="nonzero" fill-opacity="1" /><path clip-path="url(#clip680)" d="M147.755 312.497 L152.64 312.497 L152.64 318.376 L147.755 318.376 L147.755 312.497 Z" fill="#000000" fill-rule="nonzero" fill-opacity="1" /><path clip-path="url(#clip680)" d="M175.672 287.89 L163.866 306.339 L175.672 306.339 L175.672 287.89 M174.445 283.816 L180.325 283.816 L180.325 306.339 L185.255 306.339 L185.255 310.228 L180.325 310.228 L180.325 318.376 L175.672 318.376 L175.672 310.228 L160.07 310.228 L160.07 305.714 L174.445 283.816 Z" fill="#000000" fill-rule="nonzero" fill-opacity="1" /><path clip-path="url(#clip680)" d="M191.806 283.816 L214.028 283.816 L214.028 285.807 L201.482 318.376 L196.598 318.376 L208.403 287.751 L191.806 287.751 L191.806 283.816 Z" fill="#000000" fill-rule="nonzero" fill-opacity="1" /><path clip-path="url(#clip680)" d="M126.783 80.1421 Q123.172 80.1421 121.343 83.7069 Q119.538 87.2486 119.538 94.3781 Q119.538 101.485 121.343 105.049 Q123.172 108.591 126.783 108.591 Q130.417 108.591 132.223 105.049 Q134.052 101.485 134.052 94.3781 Q134.052 87.2486 132.223 83.7069 Q130.417 80.1421 126.783 80.1421 M126.783 76.4384 Q132.593 76.4384 135.649 81.0449 Q138.728 85.6282 138.728 94.3781 Q138.728 103.105 135.649 107.711 Q132.593 112.295 126.783 112.295 Q120.973 112.295 117.894 107.711 Q114.839 103.105 114.839 94.3781 Q114.839 85.6282 117.894 81.0449 Q120.973 76.4384 126.783 76.4384 Z" fill="#000000" fill-rule="nonzero" fill-opacity="1" /><path clip-path="url(#clip680)" d="M146.945 105.744 L151.829 105.744 L151.829 111.623 L146.945 111.623 L146.945 105.744 Z" fill="#000000" fill-rule="nonzero" fill-opacity="1" /><path clip-path="url(#clip680)" d="M174.862 81.1375 L163.056 99.5864 L174.862 99.5864 L174.862 81.1375 M173.635 77.0634 L179.514 77.0634 L179.514 99.5864 L184.445 99.5864 L184.445 103.475 L179.514 103.475 L179.514 111.623 L174.862 111.623 L174.862 103.475 L159.26 103.475 L159.26 98.9615 L173.635 77.0634 Z" fill="#000000" fill-rule="nonzero" fill-opacity="1" /><path clip-path="url(#clip680)" d="M202.176 95.2115 Q198.843 95.2115 196.922 96.9939 Q195.024 98.7763 195.024 101.901 Q195.024 105.026 196.922 106.809 Q198.843 108.591 202.176 108.591 Q205.51 108.591 207.431 106.809 Q209.352 105.003 209.352 101.901 Q209.352 98.7763 207.431 96.9939 Q205.533 95.2115 202.176 95.2115 M197.5 93.2207 Q194.491 92.48 192.801 90.4198 Q191.135 88.3597 191.135 85.3967 Q191.135 81.2532 194.075 78.8458 Q197.037 76.4384 202.176 76.4384 Q207.338 76.4384 210.278 78.8458 Q213.218 81.2532 213.218 85.3967 Q213.218 88.3597 211.528 90.4198 Q209.861 92.48 206.875 93.2207 Q210.255 94.0078 212.13 96.2994 Q214.028 98.5911 214.028 101.901 Q214.028 106.924 210.949 109.61 Q207.894 112.295 202.176 112.295 Q196.459 112.295 193.38 109.61 Q190.325 106.924 190.325 101.901 Q190.325 98.5911 192.223 96.2994 Q194.121 94.0078 197.5 93.2207 M195.787 85.8365 Q195.787 88.5217 197.454 90.0263 Q199.144 91.5309 202.176 91.5309 Q205.186 91.5309 206.875 90.0263 Q208.588 88.5217 208.588 85.8365 Q208.588 83.1514 206.875 81.6467 Q205.186 80.1421 202.176 80.1421 Q199.144 80.1421 197.454 81.6467 Q195.787 83.1514 195.787 85.8365 Z" fill="#000000" fill-rule="nonzero" fill-opacity="1" /><path clip-path="url(#clip680)" d="M33.958 742.548 L55.9834 734.75 L28.3562 723.61 L28.3562 717.404 L64.0042 731.822 L77.5631 731.822 L77.5631 737.679 L64.0042 737.679 L37.3955 747.036 Q33.3851 748.437 33.3851 751.46 L33.3851 753.02 L28.3562 753.02 L28.3562 750.792 Q28.3562 744.522 33.958 742.548 Z" fill="#000000" fill-rule="nonzero" fill-opacity="1" /><circle clip-path="url(#clip681)" cx="1282.03" cy="769.35" r="7.2" fill="#009af9" fill-rule="evenodd" fill-opacity="1" stroke="#000000" stroke-opacity="1" stroke-width="3.2"/>
<polyline clip-path="url(#clip681)" style="stroke:#e26f46; stroke-linecap:round; stroke-linejoin:round; stroke-width:4; stroke-opacity:1; fill:none" points="1845.74,769.35 1846.65,767.814 1847.54,766.277 1848.42,764.741 1849.3,763.204 1850.17,761.668 1851.03,760.131 1851.88,758.595 1852.72,757.058 1853.56,755.522 1854.38,753.985 1855.2,752.449 1856.01,750.913 1856.81,749.376 1857.6,747.84 1858.39,746.303 1859.16,744.767 1859.93,743.23 1860.69,741.694 1861.44,740.157 1862.18,738.621 1862.91,737.084 1863.64,735.548 1864.35,734.011 1865.06,732.475 1865.76,730.939 1866.45,729.402 1867.13,727.866 1867.81,726.329 1868.47,724.793 1869.13,723.256 1869.78,721.72 1870.42,720.183 1871.05,718.647 1871.67,717.11 1872.29,715.574 1872.89,714.038 1873.49,712.501 1874.08,710.965 1874.66,709.428 1875.23,707.892 1875.8,706.355 1876.35,704.819 1876.9,703.282 1877.44,701.746 1877.96,700.209 1878.49,698.673 1879,697.136 1879.5,695.6 1879.99,694.064 1880.48,692.527 1880.96,690.991 1881.43,689.454 1881.89,687.918 1882.34,686.381 1882.78,684.845 1883.21,683.308 1883.64,681.772 1884.05,680.235 1884.46,678.699 1884.86,677.162 1885.25,675.626 1885.63,674.09 1886,672.553 1886.36,671.017 1886.72,669.48 1887.06,667.944 1887.4,666.407 1887.73,664.871 1888.04,663.334 1888.35,661.798 1888.65,660.261 1888.94,658.725 1889.22,657.188 1889.5,655.652 1889.76,654.116 1890.01,652.579 1890.26,651.043 1890.49,649.506 1890.72,647.97 1890.94,646.433 1891.15,644.897 1891.34,643.36 1891.53,641.824 1891.71,640.287 1891.88,638.751 1892.04,637.214 1892.19,635.678 1892.34,634.142 1892.47,632.605 1892.59,631.069 1892.7,629.532 1892.8,627.996 1892.9,626.459 1892.98,624.923 1893.05,623.386 1893.12,621.85 1893.17,620.313 1893.21,618.777 1893.25,617.241 1893.27,615.704 1893.28,614.168 1893.29,612.631 1893.28,611.095 1893.26,609.558 1893.24,608.022 1893.2,606.485 1893.15,604.949 1893.09,603.412 1893.02,601.876 1892.94,600.339 1892.85,598.803 1892.75,597.267 1892.64,595.73 1892.52,594.194 1892.38,592.657 1892.24,591.121 1892.08,589.584 1891.92,588.048 1891.74,586.511 1891.55,584.975 1891.35,583.438 1891.14,581.902 1890.92,580.365 1890.68,578.829 1890.44,577.293 1890.18,575.756 1889.91,574.22 1889.63,572.683 1889.34,571.147 1889.03,569.61 1888.72,568.074 1888.39,566.537 1888.05,565.001 1887.7,563.464 1887.33,561.928 1886.95,560.391 1886.56,558.855 1886.16,557.319 1885.75,555.782 1885.32,554.246 1884.88,552.709 1884.42,551.173 1883.96,549.636 1883.48,548.1 1882.98,546.563 1882.48,545.027 1881.96,543.49 1881.42,541.954 1880.87,540.417 1880.31,538.881 1879.74,537.345 1879.15,535.808 1878.54,534.272 1877.92,532.735 1877.29,531.199 1876.64,529.662 1875.98,528.126 1875.3,526.589 1874.6,525.053 1873.9,523.516 1873.17,521.98 1872.43,520.444 1871.67,518.907 1870.9,517.371 1870.11,515.834 1869.31,514.298 1868.49,512.761 1867.65,511.225 1866.79,509.688 1865.92,508.152 1865.03,506.615 1864.12,505.079 1863.2,503.542 1862.25,502.006 1861.29,500.47 1860.31,498.933 1859.31,497.397 1858.29,495.86 1857.25,494.324 1856.19,492.787 1855.11,491.251 1854.01,489.714 1852.9,488.178 1851.76,486.641 1850.6,485.105 1849.42,483.568 1848.22,482.032 1847,480.496 1845.76,478.959 1844.49,477.423 1843.2,475.886 1841.89,474.35 1840.56,472.813 1839.2,471.277 1837.81,469.74 1836.41,468.204 1834.97,466.667 1833.51,465.131 1832.03,463.595 1830.52,462.058 1828.97,460.522 1827.41,458.985 1825.81,457.449 1824.18,455.912 1822.52,454.376 1820.83,452.839 1819.11,451.303 1817.36,449.766 1815.57,448.23 1813.75,446.693 1811.9,445.157 1810.01,443.621 1808.08,442.084 1806.11,440.548 1804.11,439.011 1802.07,437.475 1799.99,435.938 1797.86,434.402 1795.7,432.865 1793.49,431.329 1791.24,429.792 1788.94,428.256 1786.59,426.72 1784.2,425.183 1781.76,423.647 1779.26,422.11 1776.71,420.574 1774.1,419.037 1771.44,417.501 1768.71,415.964 1765.93,414.428 1763.07,412.891 1760.15,411.355 1757.16,409.818 1754.1,408.282 1750.95,406.746 1747.72,405.209 1744.41,403.673 1741.01,402.136 1737.51,400.6 1733.91,399.063 1730.2,397.527 1726.38,395.99 1722.44,394.454 1718.37,392.918 1714.17,391.381 1709.82,389.845 1705.3,388.308 1700.62,386.772 1695.74,385.235 1690.66,383.699 1685.35,382.162 1679.76,380.626 1673.89,379.09 1667.72,377.553 1661.21,376.017 1654.29,374.48 1646.86,372.944 1638.79,371.407 1629.93,369.871 1620.09,368.335 1608.96,366.798 1595.87,365.262 1579.4,363.726 1554.52,362.189 1486.7,362.387 1461.83,363.923 1444.17,365.459 1429.61,366.996 1416.9,368.532 1405.45,370.068 1394.95,371.605 1385.18,373.141 1376,374.678 1367.31,376.214 1359.05,377.75 1351.14,379.287 1343.55,380.823 1336.24,382.36 1329.18,383.896 1322.34,385.432 1315.71,386.969 1309.27,388.505 1303,390.042 1296.88,391.578 1290.92,393.115 1285.08,394.651 1279.38,396.188 1273.8,397.724 1268.32,399.26 1262.96,400.797 1257.69,402.333 1252.52,403.87 1247.44,405.406 1242.44,406.943 1237.52,408.479 1232.69,410.016 1227.92,411.552 1223.23,413.088 1218.6,414.625 1214.04,416.161 1209.54,417.698 1205.11,419.234 1200.73,420.771 1196.4,422.307 1192.14,423.844 1187.92,425.38 1183.75,426.916 1179.63,428.453 1175.56,429.989 1171.54,431.526 1167.56,433.062 1163.62,434.599 1159.73,436.135 1155.87,437.672 1152.06,439.208 1148.28,440.745 1144.54,442.281 1140.84,443.817 1137.18,445.354 1133.55,446.89 1129.95,448.427 1126.39,449.963 1122.86,451.5 1119.36,453.036 1115.89,454.573 1112.45,456.109 1109.05,457.645 1105.67,459.182 1102.32,460.718 1099,462.255 1095.7,463.791 1092.44,465.328 1089.2,466.864 1085.98,468.401 1082.79,469.937 1079.63,471.474 1076.49,473.01 1073.37,474.546 1070.28,476.083 1067.21,477.619 1064.17,479.156 1061.15,480.692 1058.15,482.229 1055.17,483.765 1052.21,485.302 1049.28,486.838 1046.36,488.375 1043.47,489.911 1040.59,491.447 1037.74,492.984 1034.91,494.52 1032.09,496.057 1029.3,497.593 1026.52,499.13 1023.76,500.666 1021.02,502.203 1018.3,503.739 1015.6,505.276 1012.91,506.812 1010.25,508.349 1007.59,509.885 1004.96,511.421 1002.34,512.958 999.745,514.494 997.162,516.031 994.595,517.567 992.045,519.104 989.51,520.64 986.991,522.177 984.488,523.713 982,525.25 979.528,526.786 977.071,528.322 974.629,529.859 972.201,531.395 969.789,532.932 967.391,534.468 965.007,536.005 962.638,537.541 960.283,539.078 957.942,540.614 955.615,542.151 953.302,543.687 951.002,545.223 948.716,546.76 946.443,548.296 944.184,549.833 941.938,551.369 939.705,552.906 937.485,554.442 935.278,555.979 933.084,557.515 930.902,559.052 928.733,560.588 926.577,562.124 924.433,563.661 922.301,565.197 920.181,566.734 918.074,568.27 915.978,569.807 913.895,571.343 911.823,572.88 909.764,574.416 907.716,575.953 905.679,577.489 903.655,579.026 901.641,580.562 899.639,582.098 897.649,583.635 895.67,585.171 893.702,586.708 891.745,588.244 889.799,589.781 887.864,591.317 885.941,592.854 884.028,594.39 882.126,595.927 880.234,597.463 878.354,598.999 876.484,600.536 874.625,602.072 872.776,603.609 870.938,605.145 869.11,606.682 867.292,608.218 865.485,609.755 863.688,611.291 861.902,612.828 860.125,614.364 858.359,615.901 856.603,617.437 854.856,618.973 853.12,620.51 851.394,622.046 849.677,623.583 847.971,625.119 846.274,626.656 844.587,628.192 842.91,629.729 841.243,631.265 839.585,632.802 837.937,634.338 836.298,635.874 834.669,637.411 833.05,638.947 831.44,640.484 829.84,642.02 828.249,643.557 826.667,645.093 825.095,646.63 823.532,648.166 821.978,649.703 820.433,651.239 818.898,652.776 817.372,654.312 815.856,655.848 814.348,657.385 812.85,658.921 811.36,660.458 809.88,661.994 808.409,663.531 806.946,665.067 805.493,666.604 804.049,668.14 802.614,669.677 801.187,671.213 799.77,672.749 798.361,674.286 796.962,675.822 795.571,677.359 794.189,678.895 792.816,680.432 791.452,681.968 790.096,683.505 788.749,685.041 787.411,686.578 786.082,688.114 784.761,689.651 783.449,691.187 782.146,692.723 780.851,694.26 779.565,695.796 778.288,697.333 777.019,698.869 775.759,700.406 774.508,701.942 773.265,703.479 772.03,705.015 770.805,706.552 769.587,708.088 768.379,709.625 767.179,711.161 765.987,712.697 764.804,714.234 763.629,715.77 762.463,717.307 761.305,718.843 760.156,720.38 759.016,721.916 757.883,723.453 756.76,724.989 755.644,726.526 754.538,728.062 753.439,729.598 752.349,731.135 751.268,732.671 750.195,734.208 749.13,735.744 748.074,737.281 747.026,738.817 745.987,740.354 744.956,741.89 743.933,743.427 742.919,744.963 741.913,746.5 740.916,748.036 739.927,749.572 738.947,751.109 737.974,752.645 737.011,754.182 736.056,755.718 735.109,757.255 734.17,758.791 733.24,760.328 732.319,761.864 731.406,763.401 730.501,764.937 729.605,766.474 728.717,768.01 727.838,769.546 726.967,771.083 726.105,772.619 725.251,774.156 724.405,775.692 723.568,777.229 722.74,778.765 721.92,780.302 721.108,781.838 720.305,783.375 719.511,784.911 718.725,786.448 717.947,787.984 717.179,789.52 716.418,791.057 715.667,792.593 714.923,794.13 714.189,795.666 713.463,797.203 712.746,798.739 712.037,800.276 711.337,801.812 710.646,803.349 709.963,804.885 709.289,806.421 708.624,807.958 707.968,809.494 707.32,811.031 706.681,812.567 706.051,814.104 705.429,815.64 704.817,817.177 704.213,818.713 703.618,820.25 703.032,821.786 702.455,823.323 701.886,824.859 701.327,826.395 700.776,827.932 700.235,829.468 699.702,831.005 699.178,832.541 698.664,834.078 698.158,835.614 697.662,837.151 697.174,838.687 696.696,840.224 696.227,841.76 695.767,843.297 695.316,844.833 694.875,846.369 694.443,847.906 694.02,849.442 693.606,850.979 693.202,852.515 692.807,854.052 692.421,855.588 692.045,857.125 691.679,858.661 691.322,860.198 690.974,861.734 690.636,863.271 690.308,864.807 689.989,866.343 689.68,867.88 689.381,869.416 689.092,870.953 688.812,872.489 688.542,874.026 688.282,875.562 688.032,877.099 687.792,878.635 687.562,880.172 687.342,881.708 687.132,883.244 686.933,884.781 686.743,886.317 686.564,887.854 686.395,889.39 686.236,890.927 686.088,892.463 685.95,894 685.823,895.536 685.706,897.073 685.599,898.609 685.504,900.146 685.418,901.682 685.344,903.218 685.281,904.755 685.228,906.291 685.186,907.828 685.155,909.364 685.135,910.901 685.126,912.437 685.129,913.974 685.143,915.51 685.168,917.047 685.205,918.583 685.253,920.12 685.313,921.656 685.384,923.192 685.467,924.729 685.562,926.265 685.668,927.802 685.787,929.338 685.917,930.875 686.059,932.411 686.213,933.948 686.379,935.484 686.557,937.021 686.747,938.557 686.95,940.094 687.165,941.63 687.392,943.166 687.632,944.703 687.885,946.239 688.15,947.776 688.429,949.312 688.72,950.849 689.024,952.385 689.341,953.922 689.672,955.458 690.016,956.995 690.373,958.531 690.744,960.068 691.129,961.604 691.528,963.14 691.94,964.677 692.367,966.213 692.808,967.75 693.263,969.286 693.733,970.823 694.217,972.359 694.717,973.896 695.231,975.432 695.76,976.969 696.305,978.505 696.865,980.042 697.441,981.578 698.032,983.114 698.639,984.651 699.263,986.187 699.903,987.724 700.559,989.26 701.231,990.797 701.921,992.333 702.627,993.87 703.351,995.406 704.092,996.943 704.851,998.479 705.627,1000.02 706.422,1001.55 707.234,1003.09 708.065,1004.62 708.915,1006.16 709.783,1007.7 710.671,1009.23 711.577,1010.77 712.503,1012.31 713.449,1013.84 714.415,1015.38 715.401,1016.92 716.407,1018.45 717.434,1019.99 718.481,1021.53 719.55,1023.06 720.64,1024.6 721.753,1026.14 722.889,1027.67 724.05,1029.21 725.235,1030.74 726.443,1032.28 727.676,1033.82 728.933,1035.35 730.215,1036.89 731.521,1038.43 732.852,1039.96 734.208,1041.5 735.589,1043.04 736.996,1044.57 738.428,1046.11 739.888,1047.65 741.374,1049.18 742.888,1050.72 744.43,1052.26 746.001,1053.79 747.601,1055.33 749.231,1056.86 750.893,1058.4 752.585,1059.94 754.31,1061.47 756.069,1063.01 757.861,1064.55 759.689,1066.08 761.553,1067.62 763.454,1069.16 765.394,1070.69 767.373,1072.23 769.392,1073.77 771.454,1075.3 773.558,1076.84 775.707,1078.37 777.902,1079.91 780.144,1081.45 782.434,1082.98 784.775,1084.52 787.167,1086.06 789.612,1087.59 792.113,1089.13 794.669,1090.67 797.284,1092.2 799.958,1093.74 802.695,1095.28 805.494,1096.81 808.36,1098.35 811.292,1099.89 814.294,1101.42 817.366,1102.96 820.514,1104.49 823.744,1106.03 827.058,1107.57 830.461,1109.1 833.958,1110.64 837.553,1112.18 841.253,1113.71 845.063,1115.25 848.992,1116.79 853.067,1118.32 857.286,1119.86 861.643,1121.4 866.137,1122.93 870.777,1124.47 875.572,1126 880.539,1127.54 885.703,1129.08 891.09,1130.61 896.734,1132.15 902.674,1133.69 908.956,1135.22 915.629,1136.76 922.748,1138.3 930.376,1139.83 938.579,1141.37 947.453,1142.91 957.217,1144.44 968.17,1145.98 980.796,1147.51 996.085,1149.05 1016.49,1150.59 1077.1,1151.93 1117.39,1150.39 1138.67,1148.85 1155.29,1147.32 1169.45,1145.78 1182.02,1144.24 1193.45,1142.71 1204.01,1141.17 1213.87,1139.64 1223.17,1138.1 1231.98,1136.56 1240.39,1135.03 1248.44,1133.49 1256.17,1131.95 1263.63,1130.42 1270.83,1128.88 1277.81,1127.34 1284.58,1125.81 1291.16,1124.27 1297.57,1122.73 1303.81,1121.2 1309.91,1119.66 1315.86,1118.13 1321.68,1116.59 1327.38,1115.05 1332.97,1113.52 1338.44,1111.98 1343.82,1110.44 1349.09,1108.91 1354.27,1107.37 1359.36,1105.83 1364.37,1104.3 1369.3,1102.76 1374.15,1101.22 1378.92,1099.69 1383.63,1098.15 1388.27,1096.62 1392.84,1095.08 1397.34,1093.54 1401.79,1092.01 1406.18,1090.47 1410.51,1088.93 1414.79,1087.4 1419.01,1085.86 1423.18,1084.32 1427.31,1082.79 1431.38,1081.25 1435.41,1079.71 1439.39,1078.18 1443.32,1076.64 1447.22,1075.11 1451.07,1073.57 1454.88,1072.03 1458.65,1070.5 1462.38,1068.96 1466.08,1067.42 1469.74,1065.89 1473.36,1064.35 1476.94,1062.81 1480.49,1061.28 1484.01,1059.74 1487.5,1058.2 1490.95,1056.67 1494.37,1055.13 1497.76,1053.59 1501.12,1052.06 1504.45,1050.52 1507.75,1048.99 1511.02,1047.45 1514.26,1045.91 1517.48,1044.38 1520.67,1042.84 1523.83,1041.3 1526.96,1039.77 1530.07,1038.23 1533.16,1036.69 1536.22,1035.16 1539.25,1033.62 1542.26,1032.08 1545.25,1030.55 1548.21,1029.01 1551.16,1027.48 1554.07,1025.94 1556.97,1024.4 1559.84,1022.87 1562.7,1021.33 1565.53,1019.79 1568.34,1018.26 1571.13,1016.72 1573.9,1015.18 1576.65,1013.65 1579.38,1012.11 1582.08,1010.57 1584.77,1009.04 1587.44,1007.5 1590.1,1005.96 1592.73,1004.43 1595.34,1002.89 1597.94,1001.36 1600.52,999.819 1603.08,998.282 1605.62,996.746 1608.15,995.209 1610.65,993.673 1613.15,992.137 1615.62,990.6 1618.08,989.064 1620.52,987.527 1622.94,985.991 1625.35,984.454 1627.74,982.918 1630.12,981.381 1632.48,979.845 1634.83,978.308 1637.16,976.772 1639.47,975.236 1641.77,973.699 1644.06,972.163 1646.33,970.626 1648.58,969.09 1650.82,967.553 1653.05,966.017 1655.26,964.48 1657.46,962.944 1659.64,961.407 1661.81,959.871 1663.97,958.335 1666.11,956.798 1668.24,955.262 1670.35,953.725 1672.46,952.189 1674.54,950.652 1676.62,949.116 1678.68,947.579 1680.73,946.043 1682.77,944.506 1684.79,942.97 1686.8,941.433 1688.8,939.897 1690.79,938.361 1692.76,936.824 1694.72,935.288 1696.67,933.751 1698.61,932.215 1700.53,930.678 1702.45,929.142 1704.35,927.605 1706.24,926.069 1708.11,924.532 1709.98,922.996 1711.83,921.46 1713.67,919.923 1715.51,918.387 1717.32,916.85 1719.13,915.314 1720.93,913.777 1722.71,912.241 1724.49,910.704 1726.25,909.168 1728,907.631 1729.75,906.095 1731.48,904.558 1733.2,903.022 1734.9,901.486 1736.6,899.949 1738.29,898.413 1739.97,896.876 1741.63,895.34 1743.29,893.803 1744.93,892.267 1746.57,890.73 1748.19,889.194 1749.8,887.657 1751.41,886.121 1753,884.585 1754.58,883.048 1756.16,881.512 1757.72,879.975 1759.27,878.439 1760.82,876.902 1762.35,875.366 1763.87,873.829 1765.39,872.293 1766.89,870.756 1768.38,869.22 1769.87,867.683 1771.34,866.147 1772.8,864.611 1774.26,863.074 1775.7,861.538 1777.14,860.001 1778.56,858.465 1779.98,856.928 1781.39,855.392 1782.78,853.855 1784.17,852.319 1785.55,850.782 1786.92,849.246 1788.28,847.71 1789.63,846.173 1790.97,844.637 1792.3,843.1 1793.62,841.564 1794.94,840.027 1796.24,838.491 1797.53,836.954 1798.82,835.418 1800.1,833.881 1801.36,832.345 1802.62,830.808 1803.87,829.272 1805.11,827.736 1806.34,826.199 1807.57,824.663 1808.78,823.126 1809.99,821.59 1811.18,820.053 1812.37,818.517 1813.55,816.98 1814.72,815.444 1815.88,813.907 1817.03,812.371 1818.17,810.834 1819.3,809.298 1820.43,807.762 1821.55,806.225 1822.65,804.689 1823.75,803.152 1824.84,801.616 1825.93,800.079 1827,798.543 1828.06,797.006 1829.12,795.47 1830.17,793.933 1831.2,792.397 1832.23,790.861 1833.26,789.324 1834.27,787.788 1835.27,786.251 1836.27,784.715 1837.25,783.178 1838.23,781.642 1839.2,780.105 1840.16,778.569 1841.12,777.032 1842.06,775.496 1843,773.959 1843.93,772.423 1844.84,770.887 1845.75,769.35 "/>
<polyline clip-path="url(#clip681)" style="stroke:#3da44d; stroke-linecap:round; stroke-linejoin:round; stroke-width:4; stroke-opacity:1; fill:none" points="2212.53,769.35 2213.96,766.942 2215.38,764.534 2216.78,762.125 2218.17,759.717 2219.55,757.309 2220.92,754.9 2222.27,752.492 2223.61,750.084 2224.94,747.676 2226.26,745.267 2227.56,742.859 2228.85,740.451 2230.13,738.043 2231.39,735.634 2232.64,733.226 2233.88,730.818 2235.11,728.409 2236.33,726.001 2237.53,723.593 2238.72,721.185 2239.9,718.776 2241.06,716.368 2242.21,713.96 2243.35,711.551 2244.48,709.143 2245.6,706.735 2246.7,704.327 2247.79,701.918 2248.86,699.51 2249.93,697.102 2250.98,694.694 2252.02,692.285 2253.05,689.877 2254.06,687.469 2255.06,685.06 2256.05,682.652 2257.03,680.244 2257.99,677.836 2258.94,675.427 2259.88,673.019 2260.81,670.611 2261.72,668.203 2262.62,665.794 2263.51,663.386 2264.39,660.978 2265.25,658.569 2266.1,656.161 2266.94,653.753 2267.77,651.345 2268.58,648.936 2269.38,646.528 2270.16,644.12 2270.94,641.712 2271.7,639.303 2272.45,636.895 2273.18,634.487 2273.91,632.078 2274.62,629.67 2275.32,627.262 2276,624.854 2276.67,622.445 2277.33,620.037 2277.98,617.629 2278.61,615.221 2279.23,612.812 2279.84,610.404 2280.43,607.996 2281.01,605.587 2281.58,603.179 2282.14,600.771 2282.68,598.363 2283.21,595.954 2283.72,593.546 2284.23,591.138 2284.72,588.729 2285.19,586.321 2285.66,583.913 2286.1,581.505 2286.54,579.096 2286.96,576.688 2287.37,574.28 2287.77,571.872 2288.15,569.463 2288.52,567.055 2288.88,564.647 2289.22,562.238 2289.55,559.83 2289.86,557.422 2290.16,555.014 2290.45,552.605 2290.72,550.197 2290.98,547.789 2291.23,545.381 2291.46,542.972 2291.68,540.564 2291.88,538.156 2292.07,535.747 2292.25,533.339 2292.41,530.931 2292.56,528.523 2292.69,526.114 2292.81,523.706 2292.92,521.298 2293.01,518.89 2293.08,516.481 2293.14,514.073 2293.19,511.665 2293.22,509.256 2293.24,506.848 2293.24,504.44 2293.23,502.032 2293.21,499.623 2293.16,497.215 2293.11,494.807 2293.04,492.398 2292.95,489.99 2292.85,487.582 2292.73,485.174 2292.6,482.765 2292.45,480.357 2292.29,477.949 2292.11,475.541 2291.91,473.132 2291.7,470.724 2291.48,468.316 2291.23,465.907 2290.98,463.499 2290.7,461.091 2290.41,458.683 2290.11,456.274 2289.78,453.866 2289.44,451.458 2289.09,449.05 2288.72,446.641 2288.33,444.233 2287.92,441.825 2287.5,439.416 2287.06,437.008 2286.61,434.6 2286.13,432.192 2285.64,429.783 2285.13,427.375 2284.61,424.967 2284.06,422.559 2283.5,420.15 2282.92,417.742 2282.33,415.334 2281.71,412.925 2281.08,410.517 2280.42,408.109 2279.75,405.701 2279.06,403.292 2278.36,400.884 2277.63,398.476 2276.88,396.067 2276.12,393.659 2275.33,391.251 2274.53,388.843 2273.7,386.434 2272.86,384.026 2271.99,381.618 2271.11,379.21 2270.2,376.801 2269.28,374.393 2268.33,371.985 2267.36,369.576 2266.37,367.168 2265.36,364.76 2264.33,362.352 2263.28,359.943 2262.2,357.535 2261.1,355.127 2259.98,352.719 2258.84,350.31 2257.68,347.902 2256.49,345.494 2255.28,343.085 2254.05,340.677 2252.79,338.269 2251.51,335.861 2250.2,333.452 2248.87,331.044 2247.52,328.636 2246.14,326.228 2244.73,323.819 2243.3,321.411 2241.85,319.003 2240.37,316.594 2238.86,314.186 2237.32,311.778 2235.76,309.37 2234.17,306.961 2232.55,304.553 2230.9,302.145 2229.22,299.737 2227.52,297.328 2225.78,294.92 2224.01,292.512 2222.22,290.103 2220.39,287.695 2218.53,285.287 2216.64,282.879 2214.72,280.47 2212.76,278.062 2210.77,275.654 2208.75,273.246 2206.69,270.837 2204.6,268.429 2202.47,266.021 2200.31,263.612 2198.11,261.204 2195.87,258.796 2193.59,256.388 2191.28,253.979 2188.93,251.571 2186.53,249.163 2184.09,246.754 2181.61,244.346 2179.09,241.938 2176.52,239.53 2173.91,237.121 2171.26,234.713 2168.56,232.305 2165.81,229.897 2163.02,227.488 2160.18,225.08 2157.29,222.672 2154.35,220.264 2151.36,217.855 2148.31,215.447 2145.22,213.039 2142.06,210.63 2138.85,208.222 2135.58,205.814 2132.25,203.406 2128.86,200.997 2125.4,198.589 2121.87,196.181 2118.27,193.773 2114.6,191.364 2110.86,188.956 2107.04,186.548 2103.14,184.139 2099.16,181.731 2095.09,179.323 2090.93,176.915 2086.69,174.506 2082.34,172.098 2077.9,169.69 2073.36,167.282 2068.72,164.873 2063.96,162.465 2059.09,160.057 2054.11,157.649 2049,155.24 2043.76,152.832 2038.39,150.424 2032.86,148.015 2027.19,145.607 2021.35,143.199 2015.33,140.791 2009.12,138.382 2002.71,135.974 1996.1,133.566 1989.27,131.158 1982.21,128.749 1974.89,126.341 1967.29,123.933 1959.38,121.525 1951.12,119.116 1942.46,116.708 1933.36,114.3 1923.78,111.892 1913.64,109.483 1902.88,107.075 1891.39,104.667 1879.02,102.259 1865.58,99.8506 1850.74,97.4424 1834.07,95.0342 1814.78,92.6261 1791.39,90.218 1759.43,87.8102 1660.73,86.1857 1608.07,88.5927 1577.01,91.0006 1552.39,93.4087 1531.29,95.8168 1512.49,98.2249 1495.35,100.633 1479.47,103.041 1464.61,105.449 1450.59,107.858 1437.26,110.266 1424.54,112.674 1412.34,115.082 1400.6,117.49 1389.27,119.899 1378.31,122.307 1367.69,124.715 1357.37,127.123 1347.33,129.532 1337.54,131.94 1327.99,134.348 1318.66,136.756 1309.54,139.165 1300.61,141.573 1291.86,143.981 1283.28,146.389 1274.86,148.798 1266.59,151.206 1258.47,153.614 1250.48,156.022 1242.62,158.431 1234.88,160.839 1227.26,163.247 1219.76,165.655 1212.36,168.064 1205.07,170.472 1197.87,172.88 1190.78,175.288 1183.77,177.697 1176.85,180.105 1170.02,182.513 1163.27,184.921 1156.6,187.33 1150.01,189.738 1143.49,192.146 1137.05,194.554 1130.67,196.963 1124.37,199.371 1118.13,201.779 1111.95,204.187 1105.84,206.596 1099.79,209.004 1093.79,211.412 1087.86,213.82 1081.98,216.229 1076.16,218.637 1070.38,221.045 1064.67,223.453 1059,225.862 1053.38,228.27 1047.81,230.678 1042.29,233.087 1036.82,235.495 1031.39,237.903 1026.01,240.311 1020.67,242.72 1015.38,245.128 1010.12,247.536 1004.91,249.944 999.737,252.353 994.605,254.761 989.512,257.169 984.457,259.577 979.44,261.986 974.46,264.394 969.517,266.802 964.609,269.21 959.737,271.619 954.899,274.027 950.096,276.435 945.326,278.844 940.589,281.252 935.885,283.66 931.213,286.068 926.572,288.477 921.962,290.885 917.384,293.293 912.835,295.701 908.316,298.11 903.827,300.518 899.367,302.926 894.935,305.334 890.531,307.743 886.156,310.151 881.808,312.559 877.487,314.968 873.193,317.376 868.926,319.784 864.685,322.192 860.47,324.601 856.28,327.009 852.116,329.417 847.977,331.825 843.862,334.234 839.772,336.642 835.706,339.05 831.665,341.459 827.646,343.867 823.652,346.275 819.68,348.683 815.731,351.092 811.805,353.5 807.902,355.908 804.021,358.316 800.162,360.725 796.325,363.133 792.509,365.541 788.715,367.949 784.943,370.358 781.191,372.766 777.46,375.174 773.75,377.583 770.06,379.991 766.391,382.399 762.742,384.807 759.113,387.216 755.504,389.624 751.914,392.032 748.344,394.44 744.794,396.849 741.262,399.257 737.75,401.665 734.256,404.074 730.782,406.482 727.326,408.89 723.888,411.298 720.469,413.707 717.068,416.115 713.685,418.523 710.32,420.931 706.973,423.34 703.644,425.748 700.332,428.156 697.038,430.564 693.762,432.973 690.502,435.381 687.26,437.789 684.035,440.198 680.826,442.606 677.635,445.014 674.46,447.422 671.302,449.831 668.161,452.239 665.036,454.647 661.927,457.055 658.835,459.464 655.759,461.872 652.699,464.28 649.655,466.689 646.627,469.097 643.615,471.505 640.618,473.913 637.637,476.322 634.672,478.73 631.722,481.138 628.788,483.546 625.869,485.955 622.966,488.363 620.078,490.771 617.204,493.18 614.346,495.588 611.503,497.996 608.675,500.404 605.862,502.813 603.064,505.221 600.28,507.629 597.511,510.037 594.757,512.446 592.017,514.854 589.292,517.262 586.581,519.671 583.885,522.079 581.203,524.487 578.535,526.895 575.882,529.304 573.243,531.712 570.618,534.12 568.007,536.528 565.41,538.937 562.827,541.345 560.258,543.753 557.703,546.162 555.162,548.57 552.635,550.978 550.121,553.386 547.622,555.795 545.135,558.203 542.663,560.611 540.204,563.019 537.759,565.428 535.327,567.836 532.909,570.244 530.504,572.653 528.113,575.061 525.735,577.469 523.371,579.877 521.02,582.286 518.682,584.694 516.357,587.102 514.046,589.51 511.748,591.919 509.463,594.327 507.191,596.735 504.932,599.144 502.686,601.552 500.454,603.96 498.234,606.368 496.028,608.777 493.834,611.185 491.654,613.593 489.486,616.001 487.331,618.41 485.189,620.818 483.06,623.226 480.944,625.635 478.841,628.043 476.751,630.451 474.673,632.859 472.608,635.268 470.556,637.676 468.517,640.084 466.49,642.492 464.476,644.901 462.475,647.309 460.486,649.717 458.51,652.126 456.547,654.534 454.597,656.942 452.659,659.35 450.733,661.759 448.821,664.167 446.921,666.575 445.033,668.983 443.158,671.392 441.296,673.8 439.446,676.208 437.609,678.617 435.784,681.025 433.972,683.433 432.172,685.841 430.385,688.25 428.61,690.658 426.848,693.066 425.099,695.474 423.362,697.883 421.637,700.291 419.925,702.699 418.226,705.108 416.539,707.516 414.864,709.924 413.202,712.332 411.553,714.741 409.916,717.149 408.291,719.557 406.679,721.965 405.079,724.374 403.492,726.782 401.918,729.19 400.356,731.599 398.807,734.007 397.27,736.415 395.745,738.823 394.233,741.232 392.734,743.64 391.247,746.048 389.773,748.456 388.311,750.865 386.862,753.273 385.426,755.681 384.002,758.09 382.591,760.498 381.192,762.906 379.806,765.314 378.433,767.723 377.072,770.131 375.724,772.539 374.389,774.947 373.066,777.356 371.756,779.764 370.459,782.172 369.174,784.581 367.902,786.989 366.644,789.397 365.397,791.805 364.164,794.214 362.943,796.622 361.736,799.03 360.541,801.439 359.359,803.847 358.19,806.255 357.034,808.663 355.891,811.072 354.76,813.48 353.643,815.888 352.539,818.296 351.448,820.705 350.369,823.113 349.304,825.521 348.252,827.93 347.214,830.338 346.188,832.746 345.175,835.154 344.176,837.563 343.19,839.971 342.217,842.379 341.258,844.787 340.312,847.196 339.379,849.604 338.459,852.012 337.554,854.421 336.661,856.829 335.782,859.237 334.917,861.645 334.065,864.054 333.227,866.462 332.402,868.87 331.591,871.278 330.794,873.687 330.011,876.095 329.241,878.503 328.486,880.912 327.744,883.32 327.016,885.728 326.302,888.136 325.603,890.545 324.917,892.953 324.245,895.361 323.588,897.77 322.945,900.178 322.316,902.586 321.701,904.994 321.101,907.403 320.515,909.811 319.944,912.219 319.387,914.627 318.845,917.036 318.317,919.444 317.804,921.852 317.306,924.261 316.823,926.669 316.354,929.077 315.901,931.485 315.462,933.894 315.038,936.302 314.63,938.71 314.237,941.118 313.858,943.527 313.495,945.935 313.148,948.343 312.816,950.752 312.5,953.16 312.199,955.568 311.914,957.976 311.645,960.385 311.392,962.793 311.155,965.201 310.933,967.609 310.728,970.018 310.538,972.426 310.365,974.834 310.208,977.243 310.068,979.651 309.944,982.059 309.836,984.467 309.745,986.876 309.67,989.284 309.612,991.692 309.571,994.1 309.547,996.509 309.539,998.917 309.549,1001.33 309.576,1003.73 309.62,1006.14 309.682,1008.55 309.761,1010.96 309.858,1013.37 309.972,1015.77 310.104,1018.18 310.254,1020.59 310.422,1023 310.609,1025.41 310.813,1027.82 311.036,1030.22 311.278,1032.63 311.538,1035.04 311.817,1037.45 312.115,1039.86 312.432,1042.27 312.769,1044.67 313.125,1047.08 313.5,1049.49 313.895,1051.9 314.31,1054.31 314.745,1056.72 315.2,1059.12 315.675,1061.53 316.171,1063.94 316.688,1066.35 317.225,1068.76 317.783,1071.17 318.363,1073.57 318.964,1075.98 319.586,1078.39 320.23,1080.8 320.896,1083.21 321.584,1085.61 322.294,1088.02 323.027,1090.43 323.783,1092.84 324.561,1095.25 325.362,1097.66 326.187,1100.06 327.035,1102.47 327.907,1104.88 328.802,1107.29 329.722,1109.7 330.666,1112.11 331.635,1114.51 332.628,1116.92 333.646,1119.33 334.69,1121.74 335.759,1124.15 336.854,1126.56 337.974,1128.96 339.121,1131.37 340.295,1133.78 341.497,1136.19 342.726,1138.6 343.984,1141.01 345.27,1143.41 346.585,1145.82 347.928,1148.23 349.3,1150.64 350.701,1153.05 352.131,1155.45 353.591,1157.86 355.081,1160.27 356.601,1162.68 358.152,1165.09 359.734,1167.5 361.347,1169.9 362.993,1172.31 364.67,1174.72 366.38,1177.13 368.124,1179.54 369.901,1181.95 371.713,1184.35 373.559,1186.76 375.441,1189.17 377.359,1191.58 379.314,1193.99 381.306,1196.4 383.336,1198.8 385.405,1201.21 387.513,1203.62 389.661,1206.03 391.85,1208.44 394.081,1210.85 396.354,1213.25 398.671,1215.66 401.032,1218.07 403.437,1220.48 405.889,1222.89 408.387,1225.29 410.933,1227.7 413.528,1230.11 416.173,1232.52 418.868,1234.93 421.615,1237.34 424.414,1239.74 427.268,1242.15 430.176,1244.56 433.141,1246.97 436.162,1249.38 439.242,1251.79 442.381,1254.19 445.581,1256.6 448.843,1259.01 452.168,1261.42 455.558,1263.83 459.015,1266.24 462.542,1268.64 466.142,1271.05 469.814,1273.46 473.562,1275.87 477.387,1278.28 481.292,1280.69 485.278,1283.09 489.35,1285.5 493.51,1287.91 497.761,1290.32 502.106,1292.73 506.549,1295.13 511.095,1297.54 515.747,1299.95 520.509,1302.36 525.386,1304.77 530.384,1307.18 535.506,1309.58 540.758,1311.99 546.146,1314.4 551.676,1316.81 557.356,1319.22 563.196,1321.63 569.201,1324.03 575.379,1326.44 581.739,1328.85 588.293,1331.26 595.054,1333.67 602.039,1336.08 609.264,1338.48 616.749,1340.89 624.517,1343.3 632.59,1345.71 640.996,1348.12 649.761,1350.52 658.92,1352.93 668.521,1355.34 678.614,1357.75 689.265,1360.16 700.562,1362.57 712.609,1364.97 725.544,1367.38 739.542,1369.79 754.843,1372.2 771.88,1374.61 791.286,1377.01 814.224,1379.42 843.204,1381.83 889.191,1384.24 1004.12,1383.46 1044.57,1381.05 1073.98,1378.64 1098.38,1376.23 1119.74,1373.82 1138.99,1371.42 1156.66,1369.01 1173.11,1366.6 1188.55,1364.19 1203.16,1361.78 1217.06,1359.38 1230.35,1356.97 1243.09,1354.56 1255.37,1352.15 1267.21,1349.74 1278.67,1347.33 1289.78,1344.93 1300.56,1342.52 1311.06,1340.11 1321.28,1337.7 1331.25,1335.29 1340.99,1332.88 1350.51,1330.48 1359.82,1328.07 1368.94,1325.66 1377.87,1323.25 1386.64,1320.84 1395.24,1318.44 1403.68,1316.03 1411.98,1313.62 1420.14,1311.21 1428.17,1308.8 1436.06,1306.39 1443.84,1303.99 1451.49,1301.58 1459.04,1299.17 1466.47,1296.76 1473.8,1294.35 1481.03,1291.94 1488.17,1289.54 1495.21,1287.13 1502.15,1284.72 1509.02,1282.31 1515.79,1279.9 1522.49,1277.5 1529.1,1275.09 1535.64,1272.68 1542.1,1270.27 1548.49,1267.86 1554.81,1265.45 1561.05,1263.05 1567.24,1260.64 1573.35,1258.23 1579.4,1255.82 1585.39,1253.41 1591.32,1251 1597.19,1248.6 1603,1246.19 1608.76,1243.78 1614.46,1241.37 1620.1,1238.96 1625.7,1236.55 1631.24,1234.15 1636.73,1231.74 1642.17,1229.33 1647.56,1226.92 1652.9,1224.51 1658.2,1222.11 1663.45,1219.7 1668.65,1217.29 1673.82,1214.88 1678.93,1212.47 1684.01,1210.06 1689.04,1207.66 1694.03,1205.25 1698.98,1202.84 1703.89,1200.43 1708.77,1198.02 1713.6,1195.61 1718.39,1193.21 1723.15,1190.8 1727.87,1188.39 1732.55,1185.98 1737.2,1183.57 1741.82,1181.16 1746.39,1178.76 1750.94,1176.35 1755.45,1173.94 1759.93,1171.53 1764.37,1169.12 1768.78,1166.71 1773.16,1164.31 1777.51,1161.9 1781.83,1159.49 1786.11,1157.08 1790.37,1154.67 1794.6,1152.27 1798.79,1149.86 1802.96,1147.45 1807.1,1145.04 1811.21,1142.63 1815.29,1140.22 1819.34,1137.82 1823.37,1135.41 1827.37,1133 1831.34,1130.59 1835.28,1128.18 1839.2,1125.77 1843.09,1123.37 1846.96,1120.96 1850.8,1118.55 1854.62,1116.14 1858.41,1113.73 1862.17,1111.32 1865.91,1108.92 1869.63,1106.51 1873.32,1104.1 1876.99,1101.69 1880.64,1099.28 1884.26,1096.88 1887.86,1094.47 1891.43,1092.06 1894.99,1089.65 1898.52,1087.24 1902.02,1084.83 1905.51,1082.43 1908.97,1080.02 1912.41,1077.61 1915.83,1075.2 1919.23,1072.79 1922.61,1070.38 1925.97,1067.98 1929.3,1065.57 1932.62,1063.16 1935.91,1060.75 1939.18,1058.34 1942.44,1055.93 1945.67,1053.53 1948.88,1051.12 1952.07,1048.71 1955.25,1046.3 1958.4,1043.89 1961.53,1041.48 1964.65,1039.08 1967.74,1036.67 1970.82,1034.26 1973.88,1031.85 1976.92,1029.44 1979.94,1027.04 1982.94,1024.63 1985.92,1022.22 1988.89,1019.81 1991.83,1017.4 1994.76,1014.99 1997.67,1012.59 2000.57,1010.18 2003.44,1007.77 2006.3,1005.36 2009.14,1002.95 2011.96,1000.54 2014.77,998.136 2017.56,995.728 2020.33,993.319 2023.08,990.911 2025.82,988.503 2028.54,986.095 2031.24,983.686 2033.93,981.278 2036.6,978.87 2039.25,976.462 2041.89,974.053 2044.51,971.645 2047.12,969.237 2049.7,966.828 2052.28,964.42 2054.83,962.012 2057.37,959.604 2059.9,957.195 2062.41,954.787 2064.9,952.379 2067.38,949.971 2069.84,947.562 2072.29,945.154 2074.72,942.746 2077.13,940.337 2079.53,937.929 2081.92,935.521 2084.29,933.113 2086.65,930.704 2088.99,928.296 2091.31,925.888 2093.62,923.48 2095.92,921.071 2098.2,918.663 2100.46,916.255 2102.71,913.846 2104.95,911.438 2107.17,909.03 2109.38,906.622 2111.57,904.213 2113.75,901.805 2115.92,899.397 2118.07,896.989 2120.2,894.58 2122.32,892.172 2124.43,889.764 2126.52,887.355 2128.6,884.947 2130.67,882.539 2132.72,880.131 2134.75,877.722 2136.78,875.314 2138.79,872.906 2140.78,870.498 2142.76,868.089 2144.73,865.681 2146.69,863.273 2148.63,860.864 2150.55,858.456 2152.47,856.048 2154.37,853.64 2156.25,851.231 2158.12,848.823 2159.98,846.415 2161.83,844.007 2163.66,841.598 2165.48,839.19 2167.29,836.782 2169.08,834.373 2170.86,831.965 2172.62,829.557 2174.38,827.149 2176.12,824.74 2177.84,822.332 2179.55,819.924 2181.25,817.516 2182.94,815.107 2184.62,812.699 2186.28,810.291 2187.92,807.882 2189.56,805.474 2191.18,803.066 2192.79,800.658 2194.39,798.249 2195.97,795.841 2197.54,793.433 2199.1,791.025 2200.64,788.616 2202.17,786.208 2203.69,783.8 2205.2,781.391 2206.69,778.983 2208.17,776.575 2209.64,774.167 2211.09,771.758 2212.54,769.35 "/>
</svg>
