<?xml version="1.0" encoding="utf-8"?>
<svg xmlns="http://www.w3.org/2000/svg" xmlns:xlink="http://www.w3.org/1999/xlink" width="600" height="400" viewBox="0 0 2400 1600">
<defs>
  <clipPath id="clip660">
    <rect x="0" y="0" width="2400" height="1600"/>
  </clipPath>
</defs>
<path clip-path="url(#clip660)" d="M0 1600 L2400 1600 L2400 0 L0 0  Z" fill="#ffffff" fill-rule="evenodd" fill-opacity="1"/>
<defs>
  <clipPath id="clip661">
    <rect x="480" y="0" width="1681" height="1600"/>
  </clipPath>
</defs>
<path clip-path="url(#clip660)" d="M250.028 1423.18 L2352.76 1423.18 L2352.76 47.2441 L250.028 47.2441  Z" fill="#ffffff" fill-rule="evenodd" fill-opacity="1"/>
<defs>
  <clipPath id="clip662">
    <rect x="250" y="47" width="2104" height="1377"/>
  </clipPath>
</defs>
<polyline clip-path="url(#clip662)" style="stroke:#000000; stroke-linecap:round; stroke-linejoin:round; stroke-width:2; stroke-opacity:0.1; fill:none" points="363.707,1423.18 363.707,47.2441 "/>
<polyline clip-path="url(#clip662)" style="stroke:#000000; stroke-linecap:round; stroke-linejoin:round; stroke-width:2; stroke-opacity:0.1; fill:none" points="661.198,1423.18 661.198,47.2441 "/>
<polyline clip-path="url(#clip662)" style="stroke:#000000; stroke-linecap:round; stroke-linejoin:round; stroke-width:2; stroke-opacity:0.1; fill:none" points="958.689,1423.18 958.689,47.2441 "/>
<polyline clip-path="url(#clip662)" style="stroke:#000000; stroke-linecap:round; stroke-linejoin:round; stroke-width:2; stroke-opacity:0.1; fill:none" points="1256.18,1423.18 1256.18,47.2441 "/>
<polyline clip-path="url(#clip662)" style="stroke:#000000; stroke-linecap:round; stroke-linejoin:round; stroke-width:2; stroke-opacity:0.1; fill:none" points="1553.67,1423.18 1553.67,47.2441 "/>
<polyline clip-path="url(#clip662)" style="stroke:#000000; stroke-linecap:round; stroke-linejoin:round; stroke-width:2; stroke-opacity:0.1; fill:none" points="1851.16,1423.18 1851.16,47.2441 "/>
<polyline clip-path="url(#clip662)" style="stroke:#000000; stroke-linecap:round; stroke-linejoin:round; stroke-width:2; stroke-opacity:0.1; fill:none" points="2148.65,1423.18 2148.65,47.2441 "/>
<polyline clip-path="url(#clip662)" style="stroke:#000000; stroke-linecap:round; stroke-linejoin:round; stroke-width:2; stroke-opacity:0.1; fill:none" points="250.028,1334.99 2352.76,1334.99 "/>
<polyline clip-path="url(#clip662)" style="stroke:#000000; stroke-linecap:round; stroke-linejoin:round; stroke-width:2; stroke-opacity:0.1; fill:none" points="250.028,1128.24 2352.76,1128.24 "/>
<polyline clip-path="url(#clip662)" style="stroke:#000000; stroke-linecap:round; stroke-linejoin:round; stroke-width:2; stroke-opacity:0.1; fill:none" points="250.028,921.497 2352.76,921.497 "/>
<polyline clip-path="url(#clip662)" style="stroke:#000000; stroke-linecap:round; stroke-linejoin:round; stroke-width:2; stroke-opacity:0.1; fill:none" points="250.028,714.75 2352.76,714.75 "/>
<polyline clip-path="url(#clip662)" style="stroke:#000000; stroke-linecap:round; stroke-linejoin:round; stroke-width:2; stroke-opacity:0.1; fill:none" points="250.028,508.002 2352.76,508.002 "/>
<polyline clip-path="url(#clip662)" style="stroke:#000000; stroke-linecap:round; stroke-linejoin:round; stroke-width:2; stroke-opacity:0.1; fill:none" points="250.028,301.255 2352.76,301.255 "/>
<polyline clip-path="url(#clip662)" style="stroke:#000000; stroke-linecap:round; stroke-linejoin:round; stroke-width:2; stroke-opacity:0.1; fill:none" points="250.028,94.5078 2352.76,94.5078 "/>
<polyline clip-path="url(#clip660)" style="stroke:#000000; stroke-linecap:round; stroke-linejoin:round; stroke-width:4; stroke-opacity:1; fill:none" points="250.028,1423.18 2352.76,1423.18 "/>
<polyline clip-path="url(#clip660)" style="stroke:#000000; stroke-linecap:round; stroke-linejoin:round; stroke-width:4; stroke-opacity:1; fill:none" points="363.707,1423.18 363.707,1404.28 "/>
<polyline clip-path="url(#clip660)" style="stroke:#000000; stroke-linecap:round; stroke-linejoin:round; stroke-width:4; stroke-opacity:1; fill:none" points="661.198,1423.18 661.198,1404.28 "/>
<polyline clip-path="url(#clip660)" style="stroke:#000000; stroke-linecap:round; stroke-linejoin:round; stroke-width:4; stroke-opacity:1; fill:none" points="958.689,1423.18 958.689,1404.28 "/>
<polyline clip-path="url(#clip660)" style="stroke:#000000; stroke-linecap:round; stroke-linejoin:round; stroke-width:4; stroke-opacity:1; fill:none" points="1256.18,1423.18 1256.18,1404.28 "/>
<polyline clip-path="url(#clip660)" style="stroke:#000000; stroke-linecap:round; stroke-linejoin:round; stroke-width:4; stroke-opacity:1; fill:none" points="1553.67,1423.18 1553.67,1404.28 "/>
<polyline clip-path="url(#clip660)" style="stroke:#000000; stroke-linecap:round; stroke-linejoin:round; stroke-width:4; stroke-opacity:1; fill:none" points="1851.16,1423.18 1851.16,1404.28 "/>
<polyline clip-path="url(#clip660)" style="stroke:#000000; stroke-linecap:round; stroke-linejoin:round; stroke-width:4; stroke-opacity:1; fill:none" points="2148.65,1423.18 2148.65,1404.28 "/>
<path clip-path="url(#clip660)" d="M281.566 1454.1 Q277.955 1454.1 276.126 1457.66 Q274.32 1461.2 274.32 1468.33 Q274.32 1475.44 276.126 1479.01 Q277.955 1482.55 281.566 1482.55 Q285.2 1482.55 287.006 1479.01 Q288.834 1475.44 288.834 1468.33 Q288.834 1461.2 287.006 1457.66 Q285.2 1454.1 281.566 1454.1 M281.566 1450.39 Q287.376 1450.39 290.431 1455 Q293.51 1459.58 293.51 1468.33 Q293.51 1477.06 290.431 1481.67 Q287.376 1486.25 281.566 1486.25 Q275.756 1486.25 272.677 1481.67 Q269.621 1477.06 269.621 1468.33 Q269.621 1459.58 272.677 1455 Q275.756 1450.39 281.566 1450.39 Z" fill="#000000" fill-rule="nonzero" fill-opacity="1" /><path clip-path="url(#clip660)" d="M301.728 1479.7 L306.612 1479.7 L306.612 1485.58 L301.728 1485.58 L301.728 1479.7 Z" fill="#000000" fill-rule="nonzero" fill-opacity="1" /><path clip-path="url(#clip660)" d="M326.797 1454.1 Q323.186 1454.1 321.357 1457.66 Q319.552 1461.2 319.552 1468.33 Q319.552 1475.44 321.357 1479.01 Q323.186 1482.55 326.797 1482.55 Q330.431 1482.55 332.237 1479.01 Q334.065 1475.44 334.065 1468.33 Q334.065 1461.2 332.237 1457.66 Q330.431 1454.1 326.797 1454.1 M326.797 1450.39 Q332.607 1450.39 335.663 1455 Q338.741 1459.58 338.741 1468.33 Q338.741 1477.06 335.663 1481.67 Q332.607 1486.25 326.797 1486.25 Q320.987 1486.25 317.908 1481.67 Q314.853 1477.06 314.853 1468.33 Q314.853 1459.58 317.908 1455 Q320.987 1450.39 326.797 1450.39 Z" fill="#000000" fill-rule="nonzero" fill-opacity="1" /><path clip-path="url(#clip660)" d="M356.959 1454.1 Q353.348 1454.1 351.519 1457.66 Q349.714 1461.2 349.714 1468.33 Q349.714 1475.44 351.519 1479.01 Q353.348 1482.55 356.959 1482.55 Q360.593 1482.55 362.399 1479.01 Q364.227 1475.44 364.227 1468.33 Q364.227 1461.2 362.399 1457.66 Q360.593 1454.1 356.959 1454.1 M356.959 1450.39 Q362.769 1450.39 365.825 1455 Q368.903 1459.58 368.903 1468.33 Q368.903 1477.06 365.825 1481.67 Q362.769 1486.25 356.959 1486.25 Q351.149 1486.25 348.07 1481.67 Q345.014 1477.06 345.014 1468.33 Q345.014 1459.58 348.07 1455 Q351.149 1450.39 356.959 1450.39 Z" fill="#000000" fill-rule="nonzero" fill-opacity="1" /><path clip-path="url(#clip660)" d="M381.149 1481.64 L397.468 1481.64 L397.468 1485.58 L375.524 1485.58 L375.524 1481.64 Q378.186 1478.89 382.769 1474.26 Q387.375 1469.61 388.556 1468.27 Q390.801 1465.74 391.681 1464.01 Q392.584 1462.25 392.584 1460.56 Q392.584 1457.8 390.639 1456.07 Q388.718 1454.33 385.616 1454.33 Q383.417 1454.33 380.963 1455.09 Q378.533 1455.86 375.755 1457.41 L375.755 1452.69 Q378.579 1451.55 381.033 1450.97 Q383.486 1450.39 385.524 1450.39 Q390.894 1450.39 394.088 1453.08 Q397.283 1455.77 397.283 1460.26 Q397.283 1462.39 396.473 1464.31 Q395.686 1466.2 393.579 1468.8 Q393 1469.47 389.898 1472.69 Q386.797 1475.88 381.149 1481.64 Z" fill="#000000" fill-rule="nonzero" fill-opacity="1" /><path clip-path="url(#clip660)" d="M408.093 1481.64 L415.732 1481.64 L415.732 1455.28 L407.422 1456.95 L407.422 1452.69 L415.685 1451.02 L420.361 1451.02 L420.361 1481.64 L428 1481.64 L428 1485.58 L408.093 1485.58 L408.093 1481.64 Z" fill="#000000" fill-rule="nonzero" fill-opacity="1" /><path clip-path="url(#clip660)" d="M441.472 1481.64 L457.792 1481.64 L457.792 1485.58 L435.847 1485.58 L435.847 1481.64 Q438.509 1478.89 443.093 1474.26 Q447.699 1469.61 448.88 1468.27 Q451.125 1465.74 452.005 1464.01 Q452.907 1462.25 452.907 1460.56 Q452.907 1457.8 450.963 1456.07 Q449.042 1454.33 445.94 1454.33 Q443.741 1454.33 441.287 1455.09 Q438.857 1455.86 436.079 1457.41 L436.079 1452.69 Q438.903 1451.55 441.357 1450.97 Q443.81 1450.39 445.847 1450.39 Q451.218 1450.39 454.412 1453.08 Q457.606 1455.77 457.606 1460.26 Q457.606 1462.39 456.796 1464.31 Q456.009 1466.2 453.903 1468.8 Q453.324 1469.47 450.222 1472.69 Q447.12 1475.88 441.472 1481.64 Z" fill="#000000" fill-rule="nonzero" fill-opacity="1" /><path clip-path="url(#clip660)" d="M578.015 1454.1 Q574.404 1454.1 572.575 1457.66 Q570.77 1461.2 570.77 1468.33 Q570.77 1475.44 572.575 1479.01 Q574.404 1482.55 578.015 1482.55 Q581.649 1482.55 583.455 1479.01 Q585.284 1475.44 585.284 1468.33 Q585.284 1461.2 583.455 1457.66 Q581.649 1454.1 578.015 1454.1 M578.015 1450.39 Q583.825 1450.39 586.881 1455 Q589.96 1459.58 589.96 1468.33 Q589.96 1477.06 586.881 1481.67 Q583.825 1486.25 578.015 1486.25 Q572.205 1486.25 569.126 1481.67 Q566.071 1477.06 566.071 1468.33 Q566.071 1459.58 569.126 1455 Q572.205 1450.39 578.015 1450.39 Z" fill="#000000" fill-rule="nonzero" fill-opacity="1" /><path clip-path="url(#clip660)" d="M598.177 1479.7 L603.061 1479.7 L603.061 1485.58 L598.177 1485.58 L598.177 1479.7 Z" fill="#000000" fill-rule="nonzero" fill-opacity="1" /><path clip-path="url(#clip660)" d="M623.246 1454.1 Q619.635 1454.1 617.807 1457.66 Q616.001 1461.2 616.001 1468.33 Q616.001 1475.44 617.807 1479.01 Q619.635 1482.55 623.246 1482.55 Q626.881 1482.55 628.686 1479.01 Q630.515 1475.44 630.515 1468.33 Q630.515 1461.2 628.686 1457.66 Q626.881 1454.1 623.246 1454.1 M623.246 1450.39 Q629.057 1450.39 632.112 1455 Q635.191 1459.58 635.191 1468.33 Q635.191 1477.06 632.112 1481.67 Q629.057 1486.25 623.246 1486.25 Q617.436 1486.25 614.358 1481.67 Q611.302 1477.06 611.302 1468.33 Q611.302 1459.58 614.358 1455 Q617.436 1450.39 623.246 1450.39 Z" fill="#000000" fill-rule="nonzero" fill-opacity="1" /><path clip-path="url(#clip660)" d="M653.408 1454.1 Q649.797 1454.1 647.968 1457.66 Q646.163 1461.2 646.163 1468.33 Q646.163 1475.44 647.968 1479.01 Q649.797 1482.55 653.408 1482.55 Q657.042 1482.55 658.848 1479.01 Q660.677 1475.44 660.677 1468.33 Q660.677 1461.2 658.848 1457.66 Q657.042 1454.1 653.408 1454.1 M653.408 1450.39 Q659.218 1450.39 662.274 1455 Q665.353 1459.58 665.353 1468.33 Q665.353 1477.06 662.274 1481.67 Q659.218 1486.25 653.408 1486.25 Q647.598 1486.25 644.519 1481.67 Q641.464 1477.06 641.464 1468.33 Q641.464 1459.58 644.519 1455 Q647.598 1450.39 653.408 1450.39 Z" fill="#000000" fill-rule="nonzero" fill-opacity="1" /><path clip-path="url(#clip660)" d="M677.598 1481.64 L693.917 1481.64 L693.917 1485.58 L671.973 1485.58 L671.973 1481.64 Q674.635 1478.89 679.218 1474.26 Q683.825 1469.61 685.005 1468.27 Q687.251 1465.74 688.13 1464.01 Q689.033 1462.25 689.033 1460.56 Q689.033 1457.8 687.089 1456.07 Q685.167 1454.33 682.065 1454.33 Q679.866 1454.33 677.413 1455.09 Q674.982 1455.86 672.204 1457.41 L672.204 1452.69 Q675.028 1451.55 677.482 1450.97 Q679.936 1450.39 681.973 1450.39 Q687.343 1450.39 690.538 1453.08 Q693.732 1455.77 693.732 1460.26 Q693.732 1462.39 692.922 1464.31 Q692.135 1466.2 690.028 1468.8 Q689.45 1469.47 686.348 1472.69 Q683.246 1475.88 677.598 1481.64 Z" fill="#000000" fill-rule="nonzero" fill-opacity="1" /><path clip-path="url(#clip660)" d="M704.542 1481.64 L712.181 1481.64 L712.181 1455.28 L703.871 1456.95 L703.871 1452.69 L712.135 1451.02 L716.811 1451.02 L716.811 1481.64 L724.45 1481.64 L724.45 1485.58 L704.542 1485.58 L704.542 1481.64 Z" fill="#000000" fill-rule="nonzero" fill-opacity="1" /><path clip-path="url(#clip660)" d="M746.741 1455.09 L734.936 1473.54 L746.741 1473.54 L746.741 1455.09 M745.514 1451.02 L751.394 1451.02 L751.394 1473.54 L756.324 1473.54 L756.324 1477.43 L751.394 1477.43 L751.394 1485.58 L746.741 1485.58 L746.741 1477.43 L731.139 1477.43 L731.139 1472.92 L745.514 1451.02 Z" fill="#000000" fill-rule="nonzero" fill-opacity="1" /><path clip-path="url(#clip660)" d="M875.668 1454.1 Q872.057 1454.1 870.228 1457.66 Q868.423 1461.2 868.423 1468.33 Q868.423 1475.44 870.228 1479.01 Q872.057 1482.55 875.668 1482.55 Q879.302 1482.55 881.108 1479.01 Q882.937 1475.44 882.937 1468.33 Q882.937 1461.2 881.108 1457.66 Q879.302 1454.1 875.668 1454.1 M875.668 1450.39 Q881.478 1450.39 884.534 1455 Q887.613 1459.58 887.613 1468.33 Q887.613 1477.06 884.534 1481.67 Q881.478 1486.25 875.668 1486.25 Q869.858 1486.25 866.779 1481.67 Q863.724 1477.06 863.724 1468.33 Q863.724 1459.58 866.779 1455 Q869.858 1450.39 875.668 1450.39 Z" fill="#000000" fill-rule="nonzero" fill-opacity="1" /><path clip-path="url(#clip660)" d="M895.83 1479.7 L900.714 1479.7 L900.714 1485.58 L895.83 1485.58 L895.83 1479.7 Z" fill="#000000" fill-rule="nonzero" fill-opacity="1" /><path clip-path="url(#clip660)" d="M920.899 1454.1 Q917.288 1454.1 915.46 1457.66 Q913.654 1461.2 913.654 1468.33 Q913.654 1475.44 915.46 1479.01 Q917.288 1482.55 920.899 1482.55 Q924.534 1482.55 926.339 1479.01 Q928.168 1475.44 928.168 1468.33 Q928.168 1461.2 926.339 1457.66 Q924.534 1454.1 920.899 1454.1 M920.899 1450.39 Q926.71 1450.39 929.765 1455 Q932.844 1459.58 932.844 1468.33 Q932.844 1477.06 929.765 1481.67 Q926.71 1486.25 920.899 1486.25 Q915.089 1486.25 912.011 1481.67 Q908.955 1477.06 908.955 1468.33 Q908.955 1459.58 912.011 1455 Q915.089 1450.39 920.899 1450.39 Z" fill="#000000" fill-rule="nonzero" fill-opacity="1" /><path clip-path="url(#clip660)" d="M951.061 1454.1 Q947.45 1454.1 945.622 1457.66 Q943.816 1461.2 943.816 1468.33 Q943.816 1475.44 945.622 1479.01 Q947.45 1482.55 951.061 1482.55 Q954.696 1482.55 956.501 1479.01 Q958.33 1475.44 958.33 1468.33 Q958.33 1461.2 956.501 1457.66 Q954.696 1454.1 951.061 1454.1 M951.061 1450.39 Q956.871 1450.39 959.927 1455 Q963.006 1459.58 963.006 1468.33 Q963.006 1477.06 959.927 1481.67 Q956.871 1486.25 951.061 1486.25 Q945.251 1486.25 942.172 1481.67 Q939.117 1477.06 939.117 1468.33 Q939.117 1459.58 942.172 1455 Q945.251 1450.39 951.061 1450.39 Z" fill="#000000" fill-rule="nonzero" fill-opacity="1" /><path clip-path="url(#clip660)" d="M975.251 1481.64 L991.57 1481.64 L991.57 1485.58 L969.626 1485.58 L969.626 1481.64 Q972.288 1478.89 976.871 1474.26 Q981.478 1469.61 982.658 1468.27 Q984.904 1465.74 985.783 1464.01 Q986.686 1462.25 986.686 1460.56 Q986.686 1457.8 984.742 1456.07 Q982.82 1454.33 979.719 1454.33 Q977.52 1454.33 975.066 1455.09 Q972.635 1455.86 969.858 1457.41 L969.858 1452.69 Q972.682 1451.55 975.135 1450.97 Q977.589 1450.39 979.626 1450.39 Q984.996 1450.39 988.191 1453.08 Q991.385 1455.77 991.385 1460.26 Q991.385 1462.39 990.575 1464.31 Q989.788 1466.2 987.681 1468.8 Q987.103 1469.47 984.001 1472.69 Q980.899 1475.88 975.251 1481.64 Z" fill="#000000" fill-rule="nonzero" fill-opacity="1" /><path clip-path="url(#clip660)" d="M1002.2 1481.64 L1009.83 1481.64 L1009.83 1455.28 L1001.52 1456.95 L1001.52 1452.69 L1009.79 1451.02 L1014.46 1451.02 L1014.46 1481.64 L1022.1 1481.64 L1022.1 1485.58 L1002.2 1485.58 L1002.2 1481.64 Z" fill="#000000" fill-rule="nonzero" fill-opacity="1" /><path clip-path="url(#clip660)" d="M1042.13 1466.44 Q1038.98 1466.44 1037.13 1468.59 Q1035.3 1470.74 1035.3 1474.49 Q1035.3 1478.22 1037.13 1480.39 Q1038.98 1482.55 1042.13 1482.55 Q1045.27 1482.55 1047.1 1480.39 Q1048.95 1478.22 1048.95 1474.49 Q1048.95 1470.74 1047.1 1468.59 Q1045.27 1466.44 1042.13 1466.44 M1051.41 1451.78 L1051.41 1456.04 Q1049.65 1455.21 1047.84 1454.77 Q1046.06 1454.33 1044.3 1454.33 Q1039.67 1454.33 1037.22 1457.45 Q1034.79 1460.58 1034.44 1466.9 Q1035.81 1464.89 1037.87 1463.82 Q1039.93 1462.73 1042.4 1462.73 Q1047.61 1462.73 1050.62 1465.9 Q1053.65 1469.05 1053.65 1474.49 Q1053.65 1479.82 1050.51 1483.03 Q1047.36 1486.25 1042.13 1486.25 Q1036.13 1486.25 1032.96 1481.67 Q1029.79 1477.06 1029.79 1468.33 Q1029.79 1460.14 1033.68 1455.28 Q1037.57 1450.39 1044.12 1450.39 Q1045.88 1450.39 1047.66 1450.74 Q1049.46 1451.09 1051.41 1451.78 Z" fill="#000000" fill-rule="nonzero" fill-opacity="1" /><path clip-path="url(#clip660)" d="M1173.29 1454.1 Q1169.68 1454.1 1167.85 1457.66 Q1166.04 1461.2 1166.04 1468.33 Q1166.04 1475.44 1167.85 1479.01 Q1169.68 1482.55 1173.29 1482.55 Q1176.92 1482.55 1178.73 1479.01 Q1180.56 1475.44 1180.56 1468.33 Q1180.56 1461.2 1178.73 1457.66 Q1176.92 1454.1 1173.29 1454.1 M1173.29 1450.39 Q1179.1 1450.39 1182.15 1455 Q1185.23 1459.58 1185.23 1468.33 Q1185.23 1477.06 1182.15 1481.67 Q1179.1 1486.25 1173.29 1486.25 Q1167.48 1486.25 1164.4 1481.67 Q1161.34 1477.06 1161.34 1468.33 Q1161.34 1459.58 1164.4 1455 Q1167.48 1450.39 1173.29 1450.39 Z" fill="#000000" fill-rule="nonzero" fill-opacity="1" /><path clip-path="url(#clip660)" d="M1193.45 1479.7 L1198.33 1479.7 L1198.33 1485.58 L1193.45 1485.58 L1193.45 1479.7 Z" fill="#000000" fill-rule="nonzero" fill-opacity="1" /><path clip-path="url(#clip660)" d="M1218.52 1454.1 Q1214.91 1454.1 1213.08 1457.66 Q1211.27 1461.2 1211.27 1468.33 Q1211.27 1475.44 1213.08 1479.01 Q1214.91 1482.55 1218.52 1482.55 Q1222.15 1482.55 1223.96 1479.01 Q1225.79 1475.44 1225.79 1468.33 Q1225.79 1461.2 1223.96 1457.66 Q1222.15 1454.1 1218.52 1454.1 M1218.52 1450.39 Q1224.33 1450.39 1227.38 1455 Q1230.46 1459.58 1230.46 1468.33 Q1230.46 1477.06 1227.38 1481.67 Q1224.33 1486.25 1218.52 1486.25 Q1212.71 1486.25 1209.63 1481.67 Q1206.57 1477.06 1206.57 1468.33 Q1206.57 1459.58 1209.63 1455 Q1212.71 1450.39 1218.52 1450.39 Z" fill="#000000" fill-rule="nonzero" fill-opacity="1" /><path clip-path="url(#clip660)" d="M1248.68 1454.1 Q1245.07 1454.1 1243.24 1457.66 Q1241.43 1461.2 1241.43 1468.33 Q1241.43 1475.44 1243.24 1479.01 Q1245.07 1482.55 1248.68 1482.55 Q1252.31 1482.55 1254.12 1479.01 Q1255.95 1475.44 1255.95 1468.33 Q1255.95 1461.2 1254.12 1457.66 Q1252.31 1454.1 1248.68 1454.1 M1248.68 1450.39 Q1254.49 1450.39 1257.55 1455 Q1260.62 1459.58 1260.62 1468.33 Q1260.62 1477.06 1257.55 1481.67 Q1254.49 1486.25 1248.68 1486.25 Q1242.87 1486.25 1239.79 1481.67 Q1236.74 1477.06 1236.74 1468.33 Q1236.74 1459.58 1239.79 1455 Q1242.87 1450.39 1248.68 1450.39 Z" fill="#000000" fill-rule="nonzero" fill-opacity="1" /><path clip-path="url(#clip660)" d="M1272.87 1481.64 L1289.19 1481.64 L1289.19 1485.58 L1267.24 1485.58 L1267.24 1481.64 Q1269.91 1478.89 1274.49 1474.26 Q1279.1 1469.61 1280.28 1468.27 Q1282.52 1465.74 1283.4 1464.01 Q1284.3 1462.25 1284.3 1460.56 Q1284.3 1457.8 1282.36 1456.07 Q1280.44 1454.33 1277.34 1454.33 Q1275.14 1454.33 1272.68 1455.09 Q1270.25 1455.86 1267.48 1457.41 L1267.48 1452.69 Q1270.3 1451.55 1272.75 1450.97 Q1275.21 1450.39 1277.24 1450.39 Q1282.61 1450.39 1285.81 1453.08 Q1289 1455.77 1289 1460.26 Q1289 1462.39 1288.19 1464.31 Q1287.41 1466.2 1285.3 1468.8 Q1284.72 1469.47 1281.62 1472.69 Q1278.52 1475.88 1272.87 1481.64 Z" fill="#000000" fill-rule="nonzero" fill-opacity="1" /><path clip-path="url(#clip660)" d="M1299.81 1481.64 L1307.45 1481.64 L1307.45 1455.28 L1299.14 1456.95 L1299.14 1452.69 L1307.41 1451.02 L1312.08 1451.02 L1312.08 1481.64 L1319.72 1481.64 L1319.72 1485.58 L1299.81 1485.58 L1299.81 1481.64 Z" fill="#000000" fill-rule="nonzero" fill-opacity="1" /><path clip-path="url(#clip660)" d="M1339.17 1469.17 Q1335.83 1469.17 1333.91 1470.95 Q1332.01 1472.73 1332.01 1475.86 Q1332.01 1478.98 1333.91 1480.77 Q1335.83 1482.55 1339.17 1482.55 Q1342.5 1482.55 1344.42 1480.77 Q1346.34 1478.96 1346.34 1475.86 Q1346.34 1472.73 1344.42 1470.95 Q1342.52 1469.17 1339.17 1469.17 M1334.49 1467.18 Q1331.48 1466.44 1329.79 1464.38 Q1328.12 1462.32 1328.12 1459.35 Q1328.12 1455.21 1331.06 1452.8 Q1334.03 1450.39 1339.17 1450.39 Q1344.33 1450.39 1347.27 1452.8 Q1350.21 1455.21 1350.21 1459.35 Q1350.21 1462.32 1348.52 1464.38 Q1346.85 1466.44 1343.86 1467.18 Q1347.24 1467.96 1349.12 1470.26 Q1351.02 1472.55 1351.02 1475.86 Q1351.02 1480.88 1347.94 1483.57 Q1344.88 1486.25 1339.17 1486.25 Q1333.45 1486.25 1330.37 1483.57 Q1327.31 1480.88 1327.31 1475.86 Q1327.31 1472.55 1329.21 1470.26 Q1331.11 1467.96 1334.49 1467.18 M1332.78 1459.79 Q1332.78 1462.48 1334.44 1463.98 Q1336.13 1465.49 1339.17 1465.49 Q1342.17 1465.49 1343.86 1463.98 Q1345.58 1462.48 1345.58 1459.79 Q1345.58 1457.11 1343.86 1455.6 Q1342.17 1454.1 1339.17 1454.1 Q1336.13 1454.1 1334.44 1455.6 Q1332.78 1457.11 1332.78 1459.79 Z" fill="#000000" fill-rule="nonzero" fill-opacity="1" /><path clip-path="url(#clip660)" d="M1470.73 1454.1 Q1467.12 1454.1 1465.29 1457.66 Q1463.49 1461.2 1463.49 1468.33 Q1463.49 1475.44 1465.29 1479.01 Q1467.12 1482.55 1470.73 1482.55 Q1474.37 1482.55 1476.17 1479.01 Q1478 1475.44 1478 1468.33 Q1478 1461.2 1476.17 1457.66 Q1474.37 1454.1 1470.73 1454.1 M1470.73 1450.39 Q1476.54 1450.39 1479.6 1455 Q1482.68 1459.58 1482.68 1468.33 Q1482.68 1477.06 1479.6 1481.67 Q1476.54 1486.25 1470.73 1486.25 Q1464.92 1486.25 1461.84 1481.67 Q1458.79 1477.06 1458.79 1468.33 Q1458.79 1459.58 1461.84 1455 Q1464.92 1450.39 1470.73 1450.39 Z" fill="#000000" fill-rule="nonzero" fill-opacity="1" /><path clip-path="url(#clip660)" d="M1490.89 1479.7 L1495.78 1479.7 L1495.78 1485.58 L1490.89 1485.58 L1490.89 1479.7 Z" fill="#000000" fill-rule="nonzero" fill-opacity="1" /><path clip-path="url(#clip660)" d="M1515.96 1454.1 Q1512.35 1454.1 1510.52 1457.66 Q1508.72 1461.2 1508.72 1468.33 Q1508.72 1475.44 1510.52 1479.01 Q1512.35 1482.55 1515.96 1482.55 Q1519.6 1482.55 1521.4 1479.01 Q1523.23 1475.44 1523.23 1468.33 Q1523.23 1461.2 1521.4 1457.66 Q1519.6 1454.1 1515.96 1454.1 M1515.96 1450.39 Q1521.77 1450.39 1524.83 1455 Q1527.91 1459.58 1527.91 1468.33 Q1527.91 1477.06 1524.83 1481.67 Q1521.77 1486.25 1515.96 1486.25 Q1510.15 1486.25 1507.07 1481.67 Q1504.02 1477.06 1504.02 1468.33 Q1504.02 1459.58 1507.07 1455 Q1510.15 1450.39 1515.96 1450.39 Z" fill="#000000" fill-rule="nonzero" fill-opacity="1" /><path clip-path="url(#clip660)" d="M1546.12 1454.1 Q1542.51 1454.1 1540.68 1457.66 Q1538.88 1461.2 1538.88 1468.33 Q1538.88 1475.44 1540.68 1479.01 Q1542.51 1482.55 1546.12 1482.55 Q1549.76 1482.55 1551.56 1479.01 Q1553.39 1475.44 1553.39 1468.33 Q1553.39 1461.2 1551.56 1457.66 Q1549.76 1454.1 1546.12 1454.1 M1546.12 1450.39 Q1551.93 1450.39 1554.99 1455 Q1558.07 1459.58 1558.07 1468.33 Q1558.07 1477.06 1554.99 1481.67 Q1551.93 1486.25 1546.12 1486.25 Q1540.31 1486.25 1537.24 1481.67 Q1534.18 1477.06 1534.18 1468.33 Q1534.18 1459.58 1537.24 1455 Q1540.31 1450.39 1546.12 1450.39 Z" fill="#000000" fill-rule="nonzero" fill-opacity="1" /><path clip-path="url(#clip660)" d="M1570.31 1481.64 L1586.63 1481.64 L1586.63 1485.58 L1564.69 1485.58 L1564.69 1481.64 Q1567.35 1478.89 1571.93 1474.26 Q1576.54 1469.61 1577.72 1468.27 Q1579.97 1465.74 1580.85 1464.01 Q1581.75 1462.25 1581.75 1460.56 Q1581.75 1457.8 1579.8 1456.07 Q1577.88 1454.33 1574.78 1454.33 Q1572.58 1454.33 1570.13 1455.09 Q1567.7 1455.86 1564.92 1457.41 L1564.92 1452.69 Q1567.74 1451.55 1570.2 1450.97 Q1572.65 1450.39 1574.69 1450.39 Q1580.06 1450.39 1583.25 1453.08 Q1586.45 1455.77 1586.45 1460.26 Q1586.45 1462.39 1585.64 1464.31 Q1584.85 1466.2 1582.74 1468.8 Q1582.17 1469.47 1579.06 1472.69 Q1575.96 1475.88 1570.31 1481.64 Z" fill="#000000" fill-rule="nonzero" fill-opacity="1" /><path clip-path="url(#clip660)" d="M1600.48 1481.64 L1616.8 1481.64 L1616.8 1485.58 L1594.85 1485.58 L1594.85 1481.64 Q1597.51 1478.89 1602.1 1474.26 Q1606.7 1469.61 1607.88 1468.27 Q1610.13 1465.74 1611.01 1464.01 Q1611.91 1462.25 1611.91 1460.56 Q1611.91 1457.8 1609.97 1456.07 Q1608.05 1454.33 1604.94 1454.33 Q1602.74 1454.33 1600.29 1455.09 Q1597.86 1455.86 1595.08 1457.41 L1595.08 1452.69 Q1597.91 1451.55 1600.36 1450.97 Q1602.81 1450.39 1604.85 1450.39 Q1610.22 1450.39 1613.42 1453.08 Q1616.61 1455.77 1616.61 1460.26 Q1616.61 1462.39 1615.8 1464.31 Q1615.01 1466.2 1612.91 1468.8 Q1612.33 1469.47 1609.23 1472.69 Q1606.12 1475.88 1600.48 1481.64 Z" fill="#000000" fill-rule="nonzero" fill-opacity="1" /><path clip-path="url(#clip660)" d="M1636.61 1454.1 Q1633 1454.1 1631.17 1457.66 Q1629.36 1461.2 1629.36 1468.33 Q1629.36 1475.44 1631.17 1479.01 Q1633 1482.55 1636.61 1482.55 Q1640.24 1482.55 1642.05 1479.01 Q1643.88 1475.44 1643.88 1468.33 Q1643.88 1461.2 1642.05 1457.66 Q1640.24 1454.1 1636.61 1454.1 M1636.61 1450.39 Q1642.42 1450.39 1645.48 1455 Q1648.55 1459.58 1648.55 1468.33 Q1648.55 1477.06 1645.48 1481.67 Q1642.42 1486.25 1636.61 1486.25 Q1630.8 1486.25 1627.72 1481.67 Q1624.67 1477.06 1624.67 1468.33 Q1624.67 1459.58 1627.72 1455 Q1630.8 1450.39 1636.61 1450.39 Z" fill="#000000" fill-rule="nonzero" fill-opacity="1" /><path clip-path="url(#clip660)" d="M1769.02 1454.1 Q1765.41 1454.1 1763.58 1457.66 Q1761.78 1461.2 1761.78 1468.33 Q1761.78 1475.44 1763.58 1479.01 Q1765.41 1482.55 1769.02 1482.55 Q1772.66 1482.55 1774.46 1479.01 Q1776.29 1475.44 1776.29 1468.33 Q1776.29 1461.2 1774.46 1457.66 Q1772.66 1454.1 1769.02 1454.1 M1769.02 1450.39 Q1774.83 1450.39 1777.89 1455 Q1780.97 1459.58 1780.97 1468.33 Q1780.97 1477.06 1777.89 1481.67 Q1774.83 1486.25 1769.02 1486.25 Q1763.21 1486.25 1760.13 1481.67 Q1757.08 1477.06 1757.08 1468.33 Q1757.08 1459.58 1760.13 1455 Q1763.21 1450.39 1769.02 1450.39 Z" fill="#000000" fill-rule="nonzero" fill-opacity="1" /><path clip-path="url(#clip660)" d="M1789.18 1479.7 L1794.07 1479.7 L1794.07 1485.58 L1789.18 1485.58 L1789.18 1479.7 Z" fill="#000000" fill-rule="nonzero" fill-opacity="1" /><path clip-path="url(#clip660)" d="M1814.25 1454.1 Q1810.64 1454.1 1808.81 1457.66 Q1807.01 1461.2 1807.01 1468.33 Q1807.01 1475.44 1808.81 1479.01 Q1810.64 1482.55 1814.25 1482.55 Q1817.89 1482.55 1819.69 1479.01 Q1821.52 1475.44 1821.52 1468.33 Q1821.52 1461.2 1819.69 1457.66 Q1817.89 1454.1 1814.25 1454.1 M1814.25 1450.39 Q1820.06 1450.39 1823.12 1455 Q1826.2 1459.58 1826.2 1468.33 Q1826.2 1477.06 1823.12 1481.67 Q1820.06 1486.25 1814.25 1486.25 Q1808.44 1486.25 1805.36 1481.67 Q1802.31 1477.06 1802.31 1468.33 Q1802.31 1459.58 1805.36 1455 Q1808.44 1450.39 1814.25 1450.39 Z" fill="#000000" fill-rule="nonzero" fill-opacity="1" /><path clip-path="url(#clip660)" d="M1844.41 1454.1 Q1840.8 1454.1 1838.97 1457.66 Q1837.17 1461.2 1837.17 1468.33 Q1837.17 1475.44 1838.97 1479.01 Q1840.8 1482.55 1844.41 1482.55 Q1848.05 1482.55 1849.85 1479.01 Q1851.68 1475.44 1851.68 1468.33 Q1851.68 1461.2 1849.85 1457.66 Q1848.05 1454.1 1844.41 1454.1 M1844.41 1450.39 Q1850.22 1450.39 1853.28 1455 Q1856.36 1459.58 1856.36 1468.33 Q1856.36 1477.06 1853.28 1481.67 Q1850.22 1486.25 1844.41 1486.25 Q1838.6 1486.25 1835.53 1481.67 Q1832.47 1477.06 1832.47 1468.33 Q1832.47 1459.58 1835.53 1455 Q1838.6 1450.39 1844.41 1450.39 Z" fill="#000000" fill-rule="nonzero" fill-opacity="1" /><path clip-path="url(#clip660)" d="M1868.6 1481.64 L1884.92 1481.64 L1884.92 1485.58 L1862.98 1485.58 L1862.98 1481.64 Q1865.64 1478.89 1870.22 1474.26 Q1874.83 1469.61 1876.01 1468.27 Q1878.26 1465.74 1879.14 1464.01 Q1880.04 1462.25 1880.04 1460.56 Q1880.04 1457.8 1878.09 1456.07 Q1876.17 1454.33 1873.07 1454.33 Q1870.87 1454.33 1868.42 1455.09 Q1865.99 1455.86 1863.21 1457.41 L1863.21 1452.69 Q1866.03 1451.55 1868.49 1450.97 Q1870.94 1450.39 1872.98 1450.39 Q1878.35 1450.39 1881.54 1453.08 Q1884.74 1455.77 1884.74 1460.26 Q1884.74 1462.39 1883.93 1464.31 Q1883.14 1466.2 1881.03 1468.8 Q1880.46 1469.47 1877.35 1472.69 Q1874.25 1475.88 1868.6 1481.64 Z" fill="#000000" fill-rule="nonzero" fill-opacity="1" /><path clip-path="url(#clip660)" d="M1898.77 1481.64 L1915.08 1481.64 L1915.08 1485.58 L1893.14 1485.58 L1893.14 1481.64 Q1895.8 1478.89 1900.39 1474.26 Q1904.99 1469.61 1906.17 1468.27 Q1908.42 1465.74 1909.3 1464.01 Q1910.2 1462.25 1910.2 1460.56 Q1910.2 1457.8 1908.26 1456.07 Q1906.34 1454.33 1903.23 1454.33 Q1901.03 1454.33 1898.58 1455.09 Q1896.15 1455.86 1893.37 1457.41 L1893.37 1452.69 Q1896.2 1451.55 1898.65 1450.97 Q1901.1 1450.39 1903.14 1450.39 Q1908.51 1450.39 1911.71 1453.08 Q1914.9 1455.77 1914.9 1460.26 Q1914.9 1462.39 1914.09 1464.31 Q1913.3 1466.2 1911.2 1468.8 Q1910.62 1469.47 1907.52 1472.69 Q1904.41 1475.88 1898.77 1481.64 Z" fill="#000000" fill-rule="nonzero" fill-opacity="1" /><path clip-path="url(#clip660)" d="M1928.93 1481.64 L1945.25 1481.64 L1945.25 1485.58 L1923.3 1485.58 L1923.3 1481.64 Q1925.96 1478.89 1930.55 1474.26 Q1935.15 1469.61 1936.33 1468.27 Q1938.58 1465.74 1939.46 1464.01 Q1940.36 1462.25 1940.36 1460.56 Q1940.36 1457.8 1938.42 1456.07 Q1936.5 1454.33 1933.4 1454.33 Q1931.2 1454.33 1928.74 1455.09 Q1926.31 1455.86 1923.53 1457.41 L1923.53 1452.69 Q1926.36 1451.55 1928.81 1450.97 Q1931.27 1450.39 1933.3 1450.39 Q1938.67 1450.39 1941.87 1453.08 Q1945.06 1455.77 1945.06 1460.26 Q1945.06 1462.39 1944.25 1464.31 Q1943.46 1466.2 1941.36 1468.8 Q1940.78 1469.47 1937.68 1472.69 Q1934.58 1475.88 1928.93 1481.64 Z" fill="#000000" fill-rule="nonzero" fill-opacity="1" /><path clip-path="url(#clip660)" d="M2065.47 1454.1 Q2061.86 1454.1 2060.03 1457.66 Q2058.23 1461.2 2058.23 1468.33 Q2058.23 1475.44 2060.03 1479.01 Q2061.86 1482.55 2065.47 1482.55 Q2069.1 1482.55 2070.91 1479.01 Q2072.74 1475.44 2072.74 1468.33 Q2072.74 1461.2 2070.91 1457.66 Q2069.1 1454.1 2065.47 1454.1 M2065.47 1450.39 Q2071.28 1450.39 2074.34 1455 Q2077.41 1459.58 2077.41 1468.33 Q2077.41 1477.06 2074.34 1481.67 Q2071.28 1486.25 2065.47 1486.25 Q2059.66 1486.25 2056.58 1481.67 Q2053.53 1477.06 2053.53 1468.33 Q2053.53 1459.58 2056.58 1455 Q2059.66 1450.39 2065.47 1450.39 Z" fill="#000000" fill-rule="nonzero" fill-opacity="1" /><path clip-path="url(#clip660)" d="M2085.63 1479.7 L2090.52 1479.7 L2090.52 1485.58 L2085.63 1485.58 L2085.63 1479.7 Z" fill="#000000" fill-rule="nonzero" fill-opacity="1" /><path clip-path="url(#clip660)" d="M2110.7 1454.1 Q2107.09 1454.1 2105.26 1457.66 Q2103.46 1461.2 2103.46 1468.33 Q2103.46 1475.44 2105.26 1479.01 Q2107.09 1482.55 2110.7 1482.55 Q2114.34 1482.55 2116.14 1479.01 Q2117.97 1475.44 2117.97 1468.33 Q2117.97 1461.2 2116.14 1457.66 Q2114.34 1454.1 2110.7 1454.1 M2110.7 1450.39 Q2116.51 1450.39 2119.57 1455 Q2122.65 1459.58 2122.65 1468.33 Q2122.65 1477.06 2119.57 1481.67 Q2116.51 1486.25 2110.7 1486.25 Q2104.89 1486.25 2101.81 1481.67 Q2098.76 1477.06 2098.76 1468.33 Q2098.76 1459.58 2101.81 1455 Q2104.89 1450.39 2110.7 1450.39 Z" fill="#000000" fill-rule="nonzero" fill-opacity="1" /><path clip-path="url(#clip660)" d="M2140.86 1454.1 Q2137.25 1454.1 2135.42 1457.66 Q2133.62 1461.2 2133.62 1468.33 Q2133.62 1475.44 2135.42 1479.01 Q2137.25 1482.55 2140.86 1482.55 Q2144.5 1482.55 2146.3 1479.01 Q2148.13 1475.44 2148.13 1468.33 Q2148.13 1461.2 2146.3 1457.66 Q2144.5 1454.1 2140.86 1454.1 M2140.86 1450.39 Q2146.67 1450.39 2149.73 1455 Q2152.81 1459.58 2152.81 1468.33 Q2152.81 1477.06 2149.73 1481.67 Q2146.67 1486.25 2140.86 1486.25 Q2135.05 1486.25 2131.97 1481.67 Q2128.92 1477.06 2128.92 1468.33 Q2128.92 1459.58 2131.97 1455 Q2135.05 1450.39 2140.86 1450.39 Z" fill="#000000" fill-rule="nonzero" fill-opacity="1" /><path clip-path="url(#clip660)" d="M2165.05 1481.64 L2181.37 1481.64 L2181.37 1485.58 L2159.43 1485.58 L2159.43 1481.64 Q2162.09 1478.89 2166.67 1474.26 Q2171.28 1469.61 2172.46 1468.27 Q2174.71 1465.74 2175.59 1464.01 Q2176.49 1462.25 2176.49 1460.56 Q2176.49 1457.8 2174.54 1456.07 Q2172.62 1454.33 2169.52 1454.33 Q2167.32 1454.33 2164.87 1455.09 Q2162.44 1455.86 2159.66 1457.41 L2159.66 1452.69 Q2162.48 1451.55 2164.94 1450.97 Q2167.39 1450.39 2169.43 1450.39 Q2174.8 1450.39 2177.99 1453.08 Q2181.19 1455.77 2181.19 1460.26 Q2181.19 1462.39 2180.38 1464.31 Q2179.59 1466.2 2177.48 1468.8 Q2176.9 1469.47 2173.8 1472.69 Q2170.7 1475.88 2165.05 1481.64 Z" fill="#000000" fill-rule="nonzero" fill-opacity="1" /><path clip-path="url(#clip660)" d="M2195.22 1481.64 L2211.53 1481.64 L2211.53 1485.58 L2189.59 1485.58 L2189.59 1481.64 Q2192.25 1478.89 2196.84 1474.26 Q2201.44 1469.61 2202.62 1468.27 Q2204.87 1465.74 2205.75 1464.01 Q2206.65 1462.25 2206.65 1460.56 Q2206.65 1457.8 2204.71 1456.07 Q2202.78 1454.33 2199.68 1454.33 Q2197.48 1454.33 2195.03 1455.09 Q2192.6 1455.86 2189.82 1457.41 L2189.82 1452.69 Q2192.65 1451.55 2195.1 1450.97 Q2197.55 1450.39 2199.59 1450.39 Q2204.96 1450.39 2208.15 1453.08 Q2211.35 1455.77 2211.35 1460.26 Q2211.35 1462.39 2210.54 1464.31 Q2209.75 1466.2 2207.65 1468.8 Q2207.07 1469.47 2203.96 1472.69 Q2200.86 1475.88 2195.22 1481.64 Z" fill="#000000" fill-rule="nonzero" fill-opacity="1" /><path clip-path="url(#clip660)" d="M2234.2 1455.09 L2222.39 1473.54 L2234.2 1473.54 L2234.2 1455.09 M2232.97 1451.02 L2238.85 1451.02 L2238.85 1473.54 L2243.78 1473.54 L2243.78 1477.43 L2238.85 1477.43 L2238.85 1485.58 L2234.2 1485.58 L2234.2 1477.43 L2218.59 1477.43 L2218.59 1472.92 L2232.97 1451.02 Z" fill="#000000" fill-rule="nonzero" fill-opacity="1" /><path clip-path="url(#clip660)" d="M1291.88 1565.85 L1291.88 1581.6 L1285.99 1581.6 L1285.99 1532.62 Q1285.99 1518.1 1299.55 1518.1 Q1313.36 1518.1 1313.36 1530.36 Q1313.36 1539.08 1307.89 1542.26 Q1316.8 1545.13 1316.8 1553.63 Q1316.8 1568.71 1301.46 1568.71 Q1294.71 1568.71 1291.88 1565.85 M1291.88 1558.21 Q1295.41 1563.72 1301.68 1563.72 Q1310.85 1563.72 1310.85 1553.72 Q1310.85 1544.75 1296.08 1545.45 L1296.08 1540.03 Q1307.63 1540.03 1307.63 1529.85 Q1307.63 1522.88 1300.18 1522.88 Q1291.88 1522.88 1291.88 1532.81 L1291.88 1558.21 Z" fill="#000000" fill-rule="nonzero" fill-opacity="1" /><polyline clip-path="url(#clip660)" style="stroke:#000000; stroke-linecap:round; stroke-linejoin:round; stroke-width:4; stroke-opacity:1; fill:none" points="250.028,1423.18 250.028,47.2441 "/>
<polyline clip-path="url(#clip660)" style="stroke:#000000; stroke-linecap:round; stroke-linejoin:round; stroke-width:4; stroke-opacity:1; fill:none" points="250.028,1334.99 268.926,1334.99 "/>
<polyline clip-path="url(#clip660)" style="stroke:#000000; stroke-linecap:round; stroke-linejoin:round; stroke-width:4; stroke-opacity:1; fill:none" points="250.028,1128.24 268.926,1128.24 "/>
<polyline clip-path="url(#clip660)" style="stroke:#000000; stroke-linecap:round; stroke-linejoin:round; stroke-width:4; stroke-opacity:1; fill:none" points="250.028,921.497 268.926,921.497 "/>
<polyline clip-path="url(#clip660)" style="stroke:#000000; stroke-linecap:round; stroke-linejoin:round; stroke-width:4; stroke-opacity:1; fill:none" points="250.028,714.75 268.926,714.75 "/>
<polyline clip-path="url(#clip660)" style="stroke:#000000; stroke-linecap:round; stroke-linejoin:round; stroke-width:4; stroke-opacity:1; fill:none" points="250.028,508.002 268.926,508.002 "/>
<polyline clip-path="url(#clip660)" style="stroke:#000000; stroke-linecap:round; stroke-linejoin:round; stroke-width:4; stroke-opacity:1; fill:none" points="250.028,301.255 268.926,301.255 "/>
<polyline clip-path="url(#clip660)" style="stroke:#000000; stroke-linecap:round; stroke-linejoin:round; stroke-width:4; stroke-opacity:1; fill:none" points="250.028,94.5078 268.926,94.5078 "/>
<path clip-path="url(#clip660)" d="M128.288 1320.79 Q124.677 1320.79 122.848 1324.35 Q121.043 1327.9 121.043 1335.03 Q121.043 1342.13 122.848 1345.7 Q124.677 1349.24 128.288 1349.24 Q131.922 1349.24 133.728 1345.7 Q135.556 1342.13 135.556 1335.03 Q135.556 1327.9 133.728 1324.35 Q131.922 1320.79 128.288 1320.79 M128.288 1317.09 Q134.098 1317.09 137.154 1321.69 Q140.232 1326.28 140.232 1335.03 Q140.232 1343.75 137.154 1348.36 Q134.098 1352.94 128.288 1352.94 Q122.478 1352.94 119.399 1348.36 Q116.343 1343.75 116.343 1335.03 Q116.343 1326.28 119.399 1321.69 Q122.478 1317.09 128.288 1317.09 Z" fill="#000000" fill-rule="nonzero" fill-opacity="1" /><path clip-path="url(#clip660)" d="M148.45 1346.39 L153.334 1346.39 L153.334 1352.27 L148.45 1352.27 L148.45 1346.39 Z" fill="#000000" fill-rule="nonzero" fill-opacity="1" /><path clip-path="url(#clip660)" d="M176.366 1321.79 L164.561 1340.23 L176.366 1340.23 L176.366 1321.79 M175.139 1317.71 L181.019 1317.71 L181.019 1340.23 L185.95 1340.23 L185.95 1344.12 L181.019 1344.12 L181.019 1352.27 L176.366 1352.27 L176.366 1344.12 L160.765 1344.12 L160.765 1339.61 L175.139 1317.71 Z" fill="#000000" fill-rule="nonzero" fill-opacity="1" /><path clip-path="url(#clip660)" d="M197.709 1348.34 L214.028 1348.34 L214.028 1352.27 L192.084 1352.27 L192.084 1348.34 Q194.746 1345.58 199.329 1340.95 Q203.936 1336.3 205.116 1334.96 Q207.362 1332.43 208.241 1330.7 Q209.144 1328.94 209.144 1327.25 Q209.144 1324.49 207.199 1322.76 Q205.278 1321.02 202.176 1321.02 Q199.977 1321.02 197.524 1321.79 Q195.093 1322.55 192.315 1324.1 L192.315 1319.38 Q195.139 1318.24 197.593 1317.67 Q200.047 1317.09 202.084 1317.09 Q207.454 1317.09 210.649 1319.77 Q213.843 1322.46 213.843 1326.95 Q213.843 1329.08 213.033 1331 Q212.246 1332.9 210.139 1335.49 Q209.561 1336.16 206.459 1339.38 Q203.357 1342.57 197.709 1348.34 Z" fill="#000000" fill-rule="nonzero" fill-opacity="1" /><path clip-path="url(#clip660)" d="M127.339 1114.04 Q123.728 1114.04 121.899 1117.61 Q120.093 1121.15 120.093 1128.28 Q120.093 1135.39 121.899 1138.95 Q123.728 1142.49 127.339 1142.49 Q130.973 1142.49 132.779 1138.95 Q134.607 1135.39 134.607 1128.28 Q134.607 1121.15 132.779 1117.61 Q130.973 1114.04 127.339 1114.04 M127.339 1110.34 Q133.149 1110.34 136.204 1114.95 Q139.283 1119.53 139.283 1128.28 Q139.283 1137.01 136.204 1141.61 Q133.149 1146.2 127.339 1146.2 Q121.529 1146.2 118.45 1141.61 Q115.394 1137.01 115.394 1128.28 Q115.394 1119.53 118.45 1114.95 Q121.529 1110.34 127.339 1110.34 Z" fill="#000000" fill-rule="nonzero" fill-opacity="1" /><path clip-path="url(#clip660)" d="M147.501 1139.64 L152.385 1139.64 L152.385 1145.52 L147.501 1145.52 L147.501 1139.64 Z" fill="#000000" fill-rule="nonzero" fill-opacity="1" /><path clip-path="url(#clip660)" d="M175.417 1115.04 L163.612 1133.49 L175.417 1133.49 L175.417 1115.04 M174.19 1110.96 L180.07 1110.96 L180.07 1133.49 L185.001 1133.49 L185.001 1137.38 L180.07 1137.38 L180.07 1145.52 L175.417 1145.52 L175.417 1137.38 L159.815 1137.38 L159.815 1132.86 L174.19 1110.96 Z" fill="#000000" fill-rule="nonzero" fill-opacity="1" /><path clip-path="url(#clip660)" d="M206.899 1126.89 Q210.255 1127.61 212.13 1129.88 Q214.028 1132.14 214.028 1135.48 Q214.028 1140.59 210.51 1143.39 Q206.991 1146.2 200.51 1146.2 Q198.334 1146.2 196.019 1145.76 Q193.727 1145.34 191.274 1144.48 L191.274 1139.97 Q193.218 1141.1 195.533 1141.68 Q197.848 1142.26 200.371 1142.26 Q204.769 1142.26 207.061 1140.52 Q209.375 1138.79 209.375 1135.48 Q209.375 1132.42 207.223 1130.71 Q205.093 1128.97 201.274 1128.97 L197.246 1128.97 L197.246 1125.13 L201.459 1125.13 Q204.908 1125.13 206.737 1123.76 Q208.565 1122.38 208.565 1119.78 Q208.565 1117.12 206.667 1115.71 Q204.792 1114.27 201.274 1114.27 Q199.352 1114.27 197.153 1114.69 Q194.954 1115.11 192.315 1115.99 L192.315 1111.82 Q194.977 1111.08 197.292 1110.71 Q199.63 1110.34 201.69 1110.34 Q207.014 1110.34 210.116 1112.77 Q213.218 1115.18 213.218 1119.3 Q213.218 1122.17 211.574 1124.16 Q209.931 1126.13 206.899 1126.89 Z" fill="#000000" fill-rule="nonzero" fill-opacity="1" /><path clip-path="url(#clip660)" d="M126.205 907.296 Q122.593 907.296 120.765 910.86 Q118.959 914.402 118.959 921.532 Q118.959 928.638 120.765 932.203 Q122.593 935.744 126.205 935.744 Q129.839 935.744 131.644 932.203 Q133.473 928.638 133.473 921.532 Q133.473 914.402 131.644 910.86 Q129.839 907.296 126.205 907.296 M126.205 903.592 Q132.015 903.592 135.07 908.198 Q138.149 912.782 138.149 921.532 Q138.149 930.258 135.07 934.865 Q132.015 939.448 126.205 939.448 Q120.394 939.448 117.316 934.865 Q114.26 930.258 114.26 921.532 Q114.26 912.782 117.316 908.198 Q120.394 903.592 126.205 903.592 Z" fill="#000000" fill-rule="nonzero" fill-opacity="1" /><path clip-path="url(#clip660)" d="M146.366 932.897 L151.251 932.897 L151.251 938.777 L146.366 938.777 L146.366 932.897 Z" fill="#000000" fill-rule="nonzero" fill-opacity="1" /><path clip-path="url(#clip660)" d="M174.283 908.291 L162.477 926.74 L174.283 926.74 L174.283 908.291 M173.056 904.217 L178.936 904.217 L178.936 926.74 L183.866 926.74 L183.866 930.629 L178.936 930.629 L178.936 938.777 L174.283 938.777 L174.283 930.629 L158.681 930.629 L158.681 926.115 L173.056 904.217 Z" fill="#000000" fill-rule="nonzero" fill-opacity="1" /><path clip-path="url(#clip660)" d="M204.445 908.291 L192.639 926.74 L204.445 926.74 L204.445 908.291 M203.218 904.217 L209.098 904.217 L209.098 926.74 L214.028 926.74 L214.028 930.629 L209.098 930.629 L209.098 938.777 L204.445 938.777 L204.445 930.629 L188.843 930.629 L188.843 926.115 L203.218 904.217 Z" fill="#000000" fill-rule="nonzero" fill-opacity="1" /><path clip-path="url(#clip660)" d="M127.686 700.548 Q124.075 700.548 122.246 704.113 Q120.441 707.655 120.441 714.784 Q120.441 721.891 122.246 725.456 Q124.075 728.997 127.686 728.997 Q131.32 728.997 133.126 725.456 Q134.954 721.891 134.954 714.784 Q134.954 707.655 133.126 704.113 Q131.32 700.548 127.686 700.548 M127.686 696.845 Q133.496 696.845 136.552 701.451 Q139.63 706.034 139.63 714.784 Q139.63 723.511 136.552 728.118 Q133.496 732.701 127.686 732.701 Q121.876 732.701 118.797 728.118 Q115.742 723.511 115.742 714.784 Q115.742 706.034 118.797 701.451 Q121.876 696.845 127.686 696.845 Z" fill="#000000" fill-rule="nonzero" fill-opacity="1" /><path clip-path="url(#clip660)" d="M147.848 726.15 L152.732 726.15 L152.732 732.03 L147.848 732.03 L147.848 726.15 Z" fill="#000000" fill-rule="nonzero" fill-opacity="1" /><path clip-path="url(#clip660)" d="M175.764 701.544 L163.959 719.993 L175.764 719.993 L175.764 701.544 M174.538 697.47 L180.417 697.47 L180.417 719.993 L185.348 719.993 L185.348 723.881 L180.417 723.881 L180.417 732.03 L175.764 732.03 L175.764 723.881 L160.163 723.881 L160.163 719.368 L174.538 697.47 Z" fill="#000000" fill-rule="nonzero" fill-opacity="1" /><path clip-path="url(#clip660)" d="M193.125 697.47 L211.482 697.47 L211.482 701.405 L197.408 701.405 L197.408 709.877 Q198.426 709.53 199.445 709.368 Q200.463 709.182 201.482 709.182 Q207.269 709.182 210.649 712.354 Q214.028 715.525 214.028 720.942 Q214.028 726.52 210.556 729.622 Q207.084 732.701 200.764 732.701 Q198.588 732.701 196.32 732.331 Q194.075 731.96 191.667 731.219 L191.667 726.52 Q193.75 727.655 195.973 728.21 Q198.195 728.766 200.672 728.766 Q204.676 728.766 207.014 726.659 Q209.352 724.553 209.352 720.942 Q209.352 717.331 207.014 715.224 Q204.676 713.118 200.672 713.118 Q198.797 713.118 196.922 713.534 Q195.07 713.951 193.125 714.831 L193.125 697.47 Z" fill="#000000" fill-rule="nonzero" fill-opacity="1" /><path clip-path="url(#clip660)" d="M126.529 493.801 Q122.918 493.801 121.089 497.366 Q119.283 500.907 119.283 508.037 Q119.283 515.144 121.089 518.708 Q122.918 522.25 126.529 522.25 Q130.163 522.25 131.968 518.708 Q133.797 515.144 133.797 508.037 Q133.797 500.907 131.968 497.366 Q130.163 493.801 126.529 493.801 M126.529 490.097 Q132.339 490.097 135.394 494.704 Q138.473 499.287 138.473 508.037 Q138.473 516.764 135.394 521.37 Q132.339 525.954 126.529 525.954 Q120.718 525.954 117.64 521.37 Q114.584 516.764 114.584 508.037 Q114.584 499.287 117.64 494.704 Q120.718 490.097 126.529 490.097 Z" fill="#000000" fill-rule="nonzero" fill-opacity="1" /><path clip-path="url(#clip660)" d="M146.691 519.403 L151.575 519.403 L151.575 525.282 L146.691 525.282 L146.691 519.403 Z" fill="#000000" fill-rule="nonzero" fill-opacity="1" /><path clip-path="url(#clip660)" d="M174.607 494.796 L162.802 513.245 L174.607 513.245 L174.607 494.796 M173.38 490.722 L179.26 490.722 L179.26 513.245 L184.19 513.245 L184.19 517.134 L179.26 517.134 L179.26 525.282 L174.607 525.282 L174.607 517.134 L159.005 517.134 L159.005 512.62 L173.38 490.722 Z" fill="#000000" fill-rule="nonzero" fill-opacity="1" /><path clip-path="url(#clip660)" d="M202.5 506.139 Q199.352 506.139 197.5 508.292 Q195.672 510.444 195.672 514.194 Q195.672 517.921 197.5 520.097 Q199.352 522.25 202.5 522.25 Q205.649 522.25 207.477 520.097 Q209.329 517.921 209.329 514.194 Q209.329 510.444 207.477 508.292 Q205.649 506.139 202.5 506.139 M211.783 491.486 L211.783 495.745 Q210.024 494.912 208.218 494.472 Q206.436 494.033 204.676 494.033 Q200.047 494.033 197.593 497.157 Q195.163 500.282 194.815 506.602 Q196.181 504.588 198.241 503.523 Q200.301 502.435 202.778 502.435 Q207.987 502.435 210.996 505.607 Q214.028 508.755 214.028 514.194 Q214.028 519.518 210.88 522.736 Q207.732 525.954 202.5 525.954 Q196.505 525.954 193.334 521.37 Q190.163 516.764 190.163 508.037 Q190.163 499.843 194.051 494.982 Q197.94 490.097 204.491 490.097 Q206.25 490.097 208.033 490.445 Q209.838 490.792 211.783 491.486 Z" fill="#000000" fill-rule="nonzero" fill-opacity="1" /><path clip-path="url(#clip660)" d="M127.593 287.054 Q123.982 287.054 122.154 290.619 Q120.348 294.16 120.348 301.29 Q120.348 308.396 122.154 311.961 Q123.982 315.503 127.593 315.503 Q131.228 315.503 133.033 311.961 Q134.862 308.396 134.862 301.29 Q134.862 294.16 133.033 290.619 Q131.228 287.054 127.593 287.054 M127.593 283.35 Q133.404 283.35 136.459 287.957 Q139.538 292.54 139.538 301.29 Q139.538 310.017 136.459 314.623 Q133.404 319.206 127.593 319.206 Q121.783 319.206 118.705 314.623 Q115.649 310.017 115.649 301.29 Q115.649 292.54 118.705 287.957 Q121.783 283.35 127.593 283.35 Z" fill="#000000" fill-rule="nonzero" fill-opacity="1" /><path clip-path="url(#clip660)" d="M147.755 312.655 L152.64 312.655 L152.64 318.535 L147.755 318.535 L147.755 312.655 Z" fill="#000000" fill-rule="nonzero" fill-opacity="1" /><path clip-path="url(#clip660)" d="M175.672 288.049 L163.866 306.498 L175.672 306.498 L175.672 288.049 M174.445 283.975 L180.325 283.975 L180.325 306.498 L185.255 306.498 L185.255 310.387 L180.325 310.387 L180.325 318.535 L175.672 318.535 L175.672 310.387 L160.07 310.387 L160.07 305.873 L174.445 283.975 Z" fill="#000000" fill-rule="nonzero" fill-opacity="1" /><path clip-path="url(#clip660)" d="M191.806 283.975 L214.028 283.975 L214.028 285.966 L201.482 318.535 L196.598 318.535 L208.403 287.91 L191.806 287.91 L191.806 283.975 Z" fill="#000000" fill-rule="nonzero" fill-opacity="1" /><path clip-path="url(#clip660)" d="M126.783 80.3065 Q123.172 80.3065 121.343 83.8713 Q119.538 87.413 119.538 94.5426 Q119.538 101.649 121.343 105.214 Q123.172 108.755 126.783 108.755 Q130.417 108.755 132.223 105.214 Q134.052 101.649 134.052 94.5426 Q134.052 87.413 132.223 83.8713 Q130.417 80.3065 126.783 80.3065 M126.783 76.6028 Q132.593 76.6028 135.649 81.2093 Q138.728 85.7926 138.728 94.5426 Q138.728 103.269 135.649 107.876 Q132.593 112.459 126.783 112.459 Q120.973 112.459 117.894 107.876 Q114.839 103.269 114.839 94.5426 Q114.839 85.7926 117.894 81.2093 Q120.973 76.6028 126.783 76.6028 Z" fill="#000000" fill-rule="nonzero" fill-opacity="1" /><path clip-path="url(#clip660)" d="M146.945 105.908 L151.829 105.908 L151.829 111.788 L146.945 111.788 L146.945 105.908 Z" fill="#000000" fill-rule="nonzero" fill-opacity="1" /><path clip-path="url(#clip660)" d="M174.862 81.3019 L163.056 99.7509 L174.862 99.7509 L174.862 81.3019 M173.635 77.2278 L179.514 77.2278 L179.514 99.7509 L184.445 99.7509 L184.445 103.64 L179.514 103.64 L179.514 111.788 L174.862 111.788 L174.862 103.64 L159.26 103.64 L159.26 99.1259 L173.635 77.2278 Z" fill="#000000" fill-rule="nonzero" fill-opacity="1" /><path clip-path="url(#clip660)" d="M202.176 95.3759 Q198.843 95.3759 196.922 97.1583 Q195.024 98.9407 195.024 102.066 Q195.024 105.191 196.922 106.973 Q198.843 108.755 202.176 108.755 Q205.51 108.755 207.431 106.973 Q209.352 105.168 209.352 102.066 Q209.352 98.9407 207.431 97.1583 Q205.533 95.3759 202.176 95.3759 M197.5 93.3852 Q194.491 92.6444 192.801 90.5843 Q191.135 88.5241 191.135 85.5611 Q191.135 81.4176 194.075 79.0102 Q197.037 76.6028 202.176 76.6028 Q207.338 76.6028 210.278 79.0102 Q213.218 81.4176 213.218 85.5611 Q213.218 88.5241 211.528 90.5843 Q209.861 92.6444 206.875 93.3852 Q210.255 94.1722 212.13 96.4638 Q214.028 98.7555 214.028 102.066 Q214.028 107.089 210.949 109.774 Q207.894 112.459 202.176 112.459 Q196.459 112.459 193.38 109.774 Q190.325 107.089 190.325 102.066 Q190.325 98.7555 192.223 96.4638 Q194.121 94.1722 197.5 93.3852 M195.787 86.0009 Q195.787 88.6861 197.454 90.1907 Q199.144 91.6954 202.176 91.6954 Q205.186 91.6954 206.875 90.1907 Q208.588 88.6861 208.588 86.0009 Q208.588 83.3158 206.875 81.8111 Q205.186 80.3065 202.176 80.3065 Q199.144 80.3065 197.454 81.8111 Q195.787 83.3158 195.787 86.0009 Z" fill="#000000" fill-rule="nonzero" fill-opacity="1" /><path clip-path="url(#clip660)" d="M33.958 742.548 L55.9834 734.75 L28.3562 723.61 L28.3562 717.404 L64.0042 731.822 L77.5631 731.822 L77.5631 737.679 L64.0042 737.679 L37.3955 747.036 Q33.3851 748.437 33.3851 751.46 L33.3851 753.02 L28.3562 753.02 L28.3562 750.792 Q28.3562 744.522 33.958 742.548 Z" fill="#000000" fill-rule="nonzero" fill-opacity="1" /><circle clip-path="url(#clip662)" cx="1282.04" cy="769.497" r="7.2" fill="#009af9" fill-rule="evenodd" fill-opacity="1" stroke="#000000" stroke-opacity="1" stroke-width="3.2"/>
<polyline clip-path="url(#clip662)" style="stroke:#e26f46; stroke-linecap:round; stroke-linejoin:round; stroke-width:4; stroke-opacity:1; fill:none" points="1845.75,769.497 1846.68,767.914 1847.6,766.332 1848.51,764.749 1849.41,763.166 1850.3,761.584 1851.19,760.001 1852.06,758.419 1852.93,756.836 1853.78,755.254 1854.63,753.671 1855.47,752.088 1856.3,750.506 1857.12,748.923 1857.94,747.341 1858.74,745.758 1859.53,744.176 1860.32,742.593 1861.1,741.01 1861.86,739.428 1862.62,737.845 1863.37,736.263 1864.11,734.68 1864.85,733.098 1865.57,731.515 1866.28,729.933 1866.99,728.35 1867.68,726.767 1868.37,725.185 1869.05,723.602 1869.72,722.02 1870.38,720.437 1871.03,718.855 1871.67,717.272 1872.3,715.689 1872.93,714.107 1873.54,712.524 1874.15,710.942 1874.75,709.359 1875.33,707.777 1875.91,706.194 1876.48,704.612 1877.04,703.029 1877.59,701.446 1878.14,699.864 1878.67,698.281 1879.19,696.699 1879.71,695.116 1880.21,693.534 1880.71,691.951 1881.2,690.368 1881.67,688.786 1882.14,687.203 1882.6,685.621 1883.05,684.038 1883.49,682.456 1883.92,680.873 1884.35,679.29 1884.76,677.708 1885.16,676.125 1885.56,674.543 1885.94,672.96 1886.32,671.378 1886.68,669.795 1887.04,668.213 1887.38,666.63 1887.72,665.047 1888.05,663.465 1888.37,661.882 1888.68,660.3 1888.97,658.717 1889.26,657.135 1889.54,655.552 1889.81,653.969 1890.07,652.387 1890.32,650.804 1890.56,649.222 1890.79,647.639 1891.01,646.057 1891.22,644.474 1891.42,642.891 1891.61,641.309 1891.79,639.726 1891.96,638.144 1892.13,636.561 1892.28,634.979 1892.42,633.396 1892.55,631.814 1892.66,630.231 1892.77,628.648 1892.87,627.066 1892.96,625.483 1893.04,623.901 1893.11,622.318 1893.16,620.736 1893.21,619.153 1893.25,617.57 1893.27,615.988 1893.29,614.405 1893.29,612.823 1893.28,611.24 1893.27,609.658 1893.24,608.075 1893.2,606.492 1893.15,604.91 1893.08,603.327 1893.01,601.745 1892.93,600.162 1892.83,598.58 1892.72,596.997 1892.6,595.415 1892.48,593.832 1892.33,592.249 1892.18,590.667 1892.02,589.084 1891.84,587.502 1891.65,585.919 1891.45,584.337 1891.24,582.754 1891.02,581.171 1890.78,579.589 1890.53,578.006 1890.27,576.424 1890,574.841 1889.71,573.259 1889.41,571.676 1889.1,570.093 1888.78,568.511 1888.44,566.928 1888.09,565.346 1887.73,563.763 1887.36,562.181 1886.97,560.598 1886.57,559.016 1886.15,557.433 1885.73,555.85 1885.28,554.268 1884.83,552.685 1884.36,551.103 1883.88,549.52 1883.38,547.938 1882.87,546.355 1882.34,544.772 1881.8,543.19 1881.25,541.607 1880.68,540.025 1880.09,538.442 1879.5,536.86 1878.88,535.277 1878.25,533.695 1877.61,532.112 1876.95,530.529 1876.27,528.947 1875.58,527.364 1874.87,525.782 1874.14,524.199 1873.4,522.617 1872.65,521.034 1871.87,519.451 1871.08,517.869 1870.27,516.286 1869.44,514.704 1868.6,513.121 1867.74,511.539 1866.86,509.956 1865.96,508.373 1865.05,506.791 1864.11,505.208 1863.16,503.626 1862.18,502.043 1861.19,500.461 1860.18,498.878 1859.14,497.296 1858.09,495.713 1857.01,494.13 1855.92,492.548 1854.8,490.965 1853.67,489.383 1852.51,487.8 1851.33,486.218 1850.13,484.635 1848.9,483.052 1847.66,481.47 1846.39,479.887 1845.1,478.305 1843.78,476.722 1842.44,475.14 1841.07,473.557 1839.68,471.975 1838.27,470.392 1836.83,468.809 1835.36,467.227 1833.86,465.644 1832.34,464.062 1830.78,462.479 1829.2,460.897 1827.59,459.314 1825.94,457.731 1824.27,456.149 1822.56,454.566 1820.82,452.984 1819.05,451.401 1817.24,449.819 1815.4,448.236 1813.52,446.653 1811.61,445.071 1809.65,443.488 1807.66,441.906 1805.63,440.323 1803.55,438.741 1801.44,437.158 1799.28,435.576 1797.07,433.993 1794.83,432.41 1792.53,430.828 1790.19,429.245 1787.8,427.663 1785.36,426.08 1782.87,424.498 1780.32,422.915 1777.72,421.333 1775.06,419.75 1772.33,418.167 1769.55,416.585 1766.69,415.002 1763.77,413.42 1760.78,411.837 1757.72,410.255 1754.57,408.672 1751.34,407.089 1748.03,405.507 1744.62,403.924 1741.12,402.342 1737.52,400.759 1733.81,399.177 1729.98,397.594 1726.04,396.012 1721.97,394.429 1717.76,392.846 1713.41,391.264 1708.89,389.681 1704.21,388.099 1699.33,386.516 1694.25,384.934 1688.95,383.351 1683.38,381.769 1677.52,380.186 1671.35,378.604 1664.85,377.021 1657.96,375.438 1650.58,373.856 1642.6,372.273 1633.86,370.691 1624.17,369.108 1613.28,367.526 1600.63,365.943 1585.06,364.361 1563.26,362.779 1496.14,362.159 1466.43,363.741 1447.25,365.323 1431.81,366.906 1418.49,368.488 1406.57,370.071 1395.67,371.653 1385.57,373.236 1376.1,374.818 1367.16,376.401 1358.65,377.983 1350.53,379.566 1342.74,381.148 1335.25,382.731 1328.01,384.313 1321.01,385.896 1314.22,387.478 1307.63,389.061 1301.22,390.643 1294.97,392.226 1288.87,393.808 1282.91,395.391 1277.09,396.973 1271.38,398.556 1265.8,400.139 1260.32,401.721 1254.95,403.304 1249.67,404.886 1244.49,406.469 1239.39,408.051 1234.38,409.634 1229.44,411.216 1224.59,412.799 1219.81,414.382 1215.09,415.964 1210.45,417.547 1205.86,419.129 1201.34,420.712 1196.88,422.294 1192.48,423.877 1188.13,425.459 1183.84,427.042 1179.6,428.624 1175.41,430.207 1171.26,431.79 1167.17,433.372 1163.12,434.955 1159.11,436.537 1155.15,438.12 1151.23,439.702 1147.35,441.285 1143.51,442.867 1139.71,444.45 1135.94,446.033 1132.22,447.615 1128.53,449.198 1124.87,450.78 1121.25,452.363 1117.66,453.945 1114.1,455.528 1110.58,457.11 1107.09,458.693 1103.63,460.276 1100.19,461.858 1096.79,463.441 1093.42,465.023 1090.07,466.606 1086.75,468.188 1083.46,469.771 1080.2,471.354 1076.96,472.936 1073.75,474.519 1070.56,476.101 1067.4,477.684 1064.26,479.266 1061.15,480.849 1058.06,482.431 1054.99,484.014 1051.95,485.597 1048.93,487.179 1045.93,488.762 1042.95,490.344 1039.99,491.927 1037.06,493.509 1034.15,495.092 1031.25,496.674 1028.38,498.257 1025.53,499.84 1022.69,501.422 1019.88,503.005 1017.08,504.587 1014.31,506.17 1011.55,507.752 1008.81,509.335 1006.09,510.918 1003.39,512.5 1000.71,514.083 998.04,515.665 995.391,517.248 992.759,518.83 990.144,520.413 987.546,521.995 984.964,523.578 982.399,525.161 979.85,526.743 977.318,528.326 974.801,529.908 972.3,531.491 969.814,533.073 967.345,534.656 964.89,536.238 962.451,537.821 960.026,539.404 957.617,540.986 955.222,542.569 952.842,544.151 950.476,545.734 948.125,547.316 945.788,548.899 943.465,550.482 941.156,552.064 938.861,553.647 936.58,555.229 934.312,556.812 932.058,558.394 929.817,559.977 927.59,561.559 925.376,563.142 923.174,564.725 920.986,566.307 918.811,567.89 916.649,569.472 914.499,571.055 912.362,572.637 910.237,574.22 908.125,575.803 906.026,577.385 903.938,578.968 901.863,580.55 899.8,582.133 897.749,583.715 895.71,585.298 893.683,586.88 891.668,588.463 889.664,590.046 887.672,591.628 885.692,593.211 883.723,594.793 881.766,596.376 879.821,597.958 877.886,599.541 875.963,601.124 874.051,602.706 872.15,604.289 870.261,605.871 868.382,607.454 866.515,609.036 864.658,610.619 862.812,612.201 860.977,613.784 859.153,615.367 857.34,616.949 855.537,618.532 853.745,620.114 851.963,621.697 850.192,623.279 848.431,624.862 846.681,626.445 844.942,628.027 843.212,629.61 841.493,631.192 839.784,632.775 838.086,634.357 836.397,635.94 834.719,637.522 833.051,639.105 831.393,640.688 829.745,642.27 828.107,643.853 826.478,645.435 824.86,647.018 823.252,648.6 821.654,650.183 820.065,651.766 818.486,653.348 816.917,654.931 815.358,656.513 813.808,658.096 812.268,659.678 810.738,661.261 809.217,662.843 807.706,664.426 806.205,666.009 804.713,667.591 803.231,669.174 801.758,670.756 800.294,672.339 798.84,673.921 797.396,675.504 795.96,677.087 794.535,678.669 793.118,680.252 791.711,681.834 790.313,683.417 788.925,684.999 787.545,686.582 786.175,688.164 784.815,689.747 783.463,691.33 782.121,692.912 780.788,694.495 779.464,696.077 778.149,697.66 776.843,699.242 775.547,700.825 774.26,702.408 772.981,703.99 771.712,705.573 770.452,707.155 769.201,708.738 767.959,710.32 766.726,711.903 765.502,713.486 764.287,715.068 763.081,716.651 761.885,718.233 760.697,719.816 759.518,721.398 758.348,722.981 757.187,724.563 756.035,726.146 754.892,727.729 753.758,729.311 752.633,730.894 751.517,732.476 750.41,734.059 749.312,735.641 748.223,737.224 747.143,738.807 746.071,740.389 745.009,741.972 743.955,743.554 742.911,745.137 741.875,746.719 740.848,748.302 739.831,749.884 738.822,751.467 737.822,753.05 736.831,754.632 735.849,756.215 734.876,757.797 733.911,759.38 732.956,760.962 732.01,762.545 731.072,764.128 730.144,765.71 729.225,767.293 728.314,768.875 727.413,770.458 726.52,772.04 725.636,773.623 724.762,775.206 723.896,776.788 723.04,778.371 722.192,779.953 721.354,781.536 720.524,783.118 719.704,784.701 718.892,786.283 718.09,787.866 717.296,789.449 716.512,791.031 715.737,792.614 714.971,794.196 714.214,795.779 713.466,797.361 712.728,798.944 711.998,800.527 711.278,802.109 710.567,803.692 709.865,805.274 709.173,806.857 708.489,808.439 707.815,810.022 707.15,811.605 706.495,813.187 705.849,814.77 705.212,816.352 704.584,817.935 703.966,819.517 703.357,821.1 702.758,822.682 702.168,824.265 701.588,825.848 701.017,827.43 700.455,829.013 699.903,830.595 699.361,832.178 698.828,833.76 698.304,835.343 697.79,836.926 697.286,838.508 696.792,840.091 696.307,841.673 695.832,843.256 695.367,844.838 694.911,846.421 694.466,848.003 694.03,849.586 693.604,851.169 693.188,852.751 692.782,854.334 692.386,855.916 692,857.499 691.624,859.081 691.258,860.664 690.902,862.247 690.557,863.829 690.221,865.412 689.896,866.994 689.581,868.577 689.277,870.159 688.983,871.742 688.699,873.325 688.426,874.907 688.163,876.49 687.911,878.072 687.669,879.655 687.438,881.237 687.218,882.82 687.009,884.402 686.81,885.985 686.622,887.568 686.445,889.15 686.279,890.733 686.124,892.315 685.98,893.898 685.848,895.48 685.726,897.063 685.615,898.646 685.516,900.228 685.428,901.811 685.352,903.393 685.287,904.976 685.233,906.558 685.191,908.141 685.161,909.724 685.142,911.306 685.135,912.889 685.14,914.471 685.157,916.054 685.186,917.636 685.227,919.219 685.28,920.801 685.346,922.384 685.424,923.967 685.514,925.549 685.617,927.132 685.733,928.714 685.861,930.297 686.002,931.879 686.156,933.462 686.322,935.045 686.501,936.627 686.694,938.21 686.899,939.792 687.117,941.375 687.349,942.957 687.594,944.54 687.852,946.123 688.124,947.705 688.409,949.288 688.708,950.87 689.021,952.453 689.347,954.035 689.688,955.618 690.043,957.2 690.412,958.783 690.796,960.366 691.194,961.948 691.607,963.531 692.034,965.113 692.477,966.696 692.935,968.278 693.408,969.861 693.896,971.444 694.4,973.026 694.92,974.609 695.455,976.191 696.007,977.774 696.575,979.356 697.159,980.939 697.76,982.521 698.377,984.104 699.012,985.687 699.664,987.269 700.333,988.852 701.02,990.434 701.724,992.017 702.446,993.599 703.187,995.182 703.946,996.765 704.723,998.347 705.52,999.93 706.335,1001.51 707.17,1003.09 708.024,1004.68 708.898,1006.26 709.792,1007.84 710.706,1009.43 711.641,1011.01 712.596,1012.59 713.573,1014.17 714.57,1015.76 715.589,1017.34 716.63,1018.92 717.693,1020.5 718.778,1022.09 719.886,1023.67 721.017,1025.25 722.171,1026.83 723.348,1028.42 724.55,1030 725.779,1031.58 727.034,1033.16 728.317,1034.75 729.625,1036.33 730.961,1037.91 732.323,1039.49 733.713,1041.08 735.129,1042.66 736.573,1044.24 738.044,1045.82 739.544,1047.41 741.071,1048.99 742.628,1050.57 744.214,1052.15 745.831,1053.74 747.478,1055.32 749.156,1056.9 750.866,1058.48 752.61,1060.07 754.388,1061.65 756.2,1063.23 758.048,1064.81 759.933,1066.4 761.856,1067.98 763.818,1069.56 765.821,1071.15 767.865,1072.73 769.953,1074.31 772.084,1075.89 774.262,1077.48 776.487,1079.06 778.761,1080.64 781.086,1082.22 783.463,1083.81 785.894,1085.39 788.38,1086.97 790.925,1088.55 793.529,1090.14 796.194,1091.72 798.923,1093.3 801.718,1094.88 804.581,1096.47 807.514,1098.05 810.519,1099.63 813.599,1101.21 816.755,1102.8 819.991,1104.38 823.309,1105.96 826.713,1107.54 830.21,1109.13 833.806,1110.71 837.506,1112.29 841.317,1113.87 845.244,1115.46 849.296,1117.04 853.48,1118.62 857.812,1120.2 862.333,1121.79 867.032,1123.37 871.896,1124.95 876.924,1126.53 882.126,1128.12 887.521,1129.7 893.138,1131.28 899.018,1132.86 905.21,1134.45 911.775,1136.03 918.784,1137.61 926.318,1139.19 934.468,1140.78 943.337,1142.36 953.036,1143.94 963.789,1145.52 976.066,1147.11 990.705,1148.69 1009.6,1150.27 1042.01,1151.85 1111.05,1150.89 1134.79,1149.31 1152.59,1147.73 1167.51,1146.15 1180.64,1144.56 1192.51,1142.98 1203.44,1141.4 1213.63,1139.82 1223.21,1138.23 1232.28,1136.65 1240.92,1135.07 1249.18,1133.49 1257.12,1131.9 1264.76,1130.32 1272.14,1128.74 1279.28,1127.16 1286.21,1125.57 1292.94,1123.99 1299.49,1122.41 1305.87,1120.83 1312.1,1119.24 1318.18,1117.66 1324.12,1116.08 1329.94,1114.49 1335.64,1112.91 1341.23,1111.33 1346.71,1109.75 1352.08,1108.16 1357.37,1106.58 1362.56,1105 1367.66,1103.42 1372.68,1101.83 1377.62,1100.25 1382.49,1098.67 1387.28,1097.09 1392,1095.5 1396.66,1093.92 1401.24,1092.34 1405.77,1090.76 1410.24,1089.17 1414.65,1087.59 1419,1086.01 1423.29,1084.43 1427.54,1082.84 1431.73,1081.26 1435.87,1079.68 1439.97,1078.1 1444.02,1076.51 1448.02,1074.93 1451.98,1073.35 1455.89,1071.77 1459.77,1070.18 1463.6,1068.6 1467.39,1067.02 1471.14,1065.44 1474.86,1063.85 1478.54,1062.27 1482.18,1060.69 1485.78,1059.11 1489.36,1057.52 1492.89,1055.94 1496.4,1054.36 1499.87,1052.78 1503.31,1051.19 1506.72,1049.61 1510.1,1048.03 1513.45,1046.45 1516.76,1044.86 1520.05,1043.28 1523.32,1041.7 1526.55,1040.11 1529.76,1038.53 1532.94,1036.95 1536.09,1035.37 1539.22,1033.78 1542.32,1032.2 1545.39,1030.62 1548.45,1029.04 1551.47,1027.45 1554.48,1025.87 1557.46,1024.29 1560.41,1022.71 1563.35,1021.12 1566.26,1019.54 1569.15,1017.96 1572.01,1016.38 1574.86,1014.79 1577.68,1013.21 1580.48,1011.63 1583.27,1010.05 1586.03,1008.46 1588.77,1006.88 1591.49,1005.3 1594.19,1003.72 1596.87,1002.13 1599.54,1000.55 1602.18,998.968 1604.81,997.386 1607.41,995.803 1610,994.221 1612.57,992.638 1615.12,991.055 1617.66,989.473 1620.18,987.89 1622.68,986.308 1625.16,984.725 1627.62,983.143 1630.07,981.56 1632.5,979.978 1634.92,978.395 1637.32,976.812 1639.7,975.23 1642.07,973.647 1644.42,972.065 1646.75,970.482 1649.07,968.9 1651.38,967.317 1653.67,965.735 1655.94,964.152 1658.2,962.569 1660.45,960.987 1662.68,959.404 1664.89,957.822 1667.09,956.239 1669.28,954.657 1671.45,953.074 1673.61,951.491 1675.75,949.909 1677.88,948.326 1680,946.744 1682.1,945.161 1684.19,943.579 1686.26,941.996 1688.32,940.414 1690.37,938.831 1692.41,937.248 1694.43,935.666 1696.44,934.083 1698.44,932.501 1700.42,930.918 1702.39,929.336 1704.35,927.753 1706.29,926.17 1708.23,924.588 1710.15,923.005 1712.06,921.423 1713.95,919.84 1715.84,918.258 1717.71,916.675 1719.57,915.093 1721.42,913.51 1723.25,911.927 1725.08,910.345 1726.89,908.762 1728.69,907.18 1730.48,905.597 1732.25,904.015 1734.02,902.432 1735.78,900.849 1737.52,899.267 1739.25,897.684 1740.97,896.102 1742.68,894.519 1744.38,892.937 1746.07,891.354 1747.74,889.772 1749.41,888.189 1751.06,886.606 1752.7,885.024 1754.34,883.441 1755.96,881.859 1757.57,880.276 1759.17,878.694 1760.76,877.111 1762.34,875.528 1763.91,873.946 1765.47,872.363 1767.01,870.781 1768.55,869.198 1770.08,867.616 1771.59,866.033 1773.1,864.45 1774.6,862.868 1776.08,861.285 1777.56,859.703 1779.02,858.12 1780.48,856.538 1781.92,854.955 1783.36,853.373 1784.78,851.79 1786.2,850.207 1787.6,848.625 1789,847.042 1790.39,845.46 1791.76,843.877 1793.13,842.295 1794.48,840.712 1795.83,839.129 1797.17,837.547 1798.49,835.964 1799.81,834.382 1801.12,832.799 1802.42,831.217 1803.7,829.634 1804.98,828.052 1806.25,826.469 1807.51,824.886 1808.76,823.304 1810,821.721 1811.24,820.139 1812.46,818.556 1813.67,816.974 1814.87,815.391 1816.07,813.808 1817.25,812.226 1818.43,810.643 1819.59,809.061 1820.75,807.478 1821.9,805.896 1823.04,804.313 1824.16,802.731 1825.28,801.148 1826.39,799.565 1827.5,797.983 1828.59,796.4 1829.67,794.818 1830.74,793.235 1831.81,791.653 1832.87,790.07 1833.91,788.487 1834.95,786.905 1835.98,785.322 1837,783.74 1838.01,782.157 1839.01,780.575 1840,778.992 1840.98,777.409 1841.96,775.827 1842.92,774.244 1843.88,772.662 1844.82,771.079 1845.76,769.497 "/>
<polyline clip-path="url(#clip662)" style="stroke:#3da44d; stroke-linecap:round; stroke-linejoin:round; stroke-width:4; stroke-opacity:1; fill:none" points="2212.53,769.497 2213.93,767.132 2215.33,764.768 2216.7,762.403 2218.07,760.039 2219.43,757.675 2220.77,755.31 2222.1,752.946 2223.42,750.581 2224.72,748.217 2226.02,745.853 2227.3,743.488 2228.57,741.124 2229.83,738.759 2231.07,736.395 2232.3,734.031 2233.53,731.666 2234.73,729.302 2235.93,726.937 2237.12,724.573 2238.29,722.208 2239.45,719.844 2240.6,717.48 2241.73,715.115 2242.86,712.751 2243.97,710.386 2245.07,708.022 2246.16,705.658 2247.23,703.293 2248.3,700.929 2249.35,698.564 2250.39,696.2 2251.42,693.836 2252.43,691.471 2253.44,689.107 2254.43,686.742 2255.41,684.378 2256.37,682.014 2257.33,679.649 2258.27,677.285 2259.2,674.92 2260.12,672.556 2261.03,670.192 2261.92,667.827 2262.8,665.463 2263.67,663.098 2264.53,660.734 2265.38,658.369 2266.21,656.005 2267.03,653.641 2267.84,651.276 2268.64,648.912 2269.42,646.547 2270.19,644.183 2270.95,641.819 2271.7,639.454 2272.43,637.09 2273.16,634.725 2273.87,632.361 2274.57,629.997 2275.25,627.632 2275.93,625.268 2276.59,622.903 2277.24,620.539 2277.87,618.175 2278.5,615.81 2279.11,613.446 2279.71,611.081 2280.29,608.717 2280.87,606.352 2281.43,603.988 2281.98,601.624 2282.51,599.259 2283.04,596.895 2283.55,594.53 2284.04,592.166 2284.53,589.802 2285,587.437 2285.46,585.073 2285.91,582.708 2286.34,580.344 2286.77,577.98 2287.17,575.615 2287.57,573.251 2287.95,570.886 2288.32,568.522 2288.68,566.158 2289.02,563.793 2289.35,561.429 2289.67,559.064 2289.97,556.7 2290.26,554.335 2290.54,551.971 2290.81,549.607 2291.06,547.242 2291.29,544.878 2291.52,542.513 2291.73,540.149 2291.93,537.785 2292.11,535.42 2292.28,533.056 2292.44,530.691 2292.58,528.327 2292.71,525.963 2292.82,523.598 2292.93,521.234 2293.01,518.869 2293.09,516.505 2293.15,514.141 2293.19,511.776 2293.22,509.412 2293.24,507.047 2293.24,504.683 2293.23,502.318 2293.21,499.954 2293.17,497.59 2293.11,495.225 2293.05,492.861 2292.96,490.496 2292.86,488.132 2292.75,485.768 2292.62,483.403 2292.48,481.039 2292.33,478.674 2292.15,476.31 2291.97,473.946 2291.76,471.581 2291.55,469.217 2291.31,466.852 2291.07,464.488 2290.8,462.124 2290.53,459.759 2290.23,457.395 2289.92,455.03 2289.59,452.666 2289.25,450.302 2288.9,447.937 2288.52,445.573 2288.13,443.208 2287.73,440.844 2287.3,438.479 2286.87,436.115 2286.41,433.751 2285.94,431.386 2285.45,429.022 2284.94,426.657 2284.42,424.293 2283.88,421.929 2283.33,419.564 2282.75,417.2 2282.16,414.835 2281.55,412.471 2280.92,410.107 2280.28,407.742 2279.62,405.378 2278.94,403.013 2278.24,400.649 2277.52,398.285 2276.79,395.92 2276.03,393.556 2275.26,391.191 2274.47,388.827 2273.66,386.462 2272.83,384.098 2271.98,381.734 2271.11,379.369 2270.22,377.005 2269.31,374.64 2268.38,372.276 2267.43,369.912 2266.46,367.547 2265.47,365.183 2264.46,362.818 2263.43,360.454 2262.38,358.09 2261.31,355.725 2260.21,353.361 2259.09,350.996 2257.96,348.632 2256.8,346.268 2255.61,343.903 2254.41,341.539 2253.18,339.174 2251.93,336.81 2250.66,334.445 2249.36,332.081 2248.04,329.717 2246.7,327.352 2245.33,324.988 2243.93,322.623 2242.51,320.259 2241.07,317.895 2239.6,315.53 2238.11,313.166 2236.59,310.801 2235.04,308.437 2233.46,306.073 2231.86,303.708 2230.23,301.344 2228.58,298.979 2226.89,296.615 2225.18,294.251 2223.43,291.886 2221.66,289.522 2219.86,287.157 2218.02,284.793 2216.16,282.429 2214.26,280.064 2212.33,277.7 2210.37,275.335 2208.38,272.971 2206.35,270.606 2204.29,268.242 2202.2,265.878 2200.07,263.513 2197.91,261.149 2195.71,258.784 2193.47,256.42 2191.2,254.056 2188.89,251.691 2186.53,249.327 2184.14,246.962 2181.71,244.598 2179.23,242.234 2176.72,239.869 2174.16,237.505 2171.56,235.14 2168.91,232.776 2166.22,230.412 2163.49,228.047 2160.7,225.683 2157.88,223.318 2155,220.954 2152.08,218.59 2149.1,216.225 2146.07,213.861 2142.99,211.496 2139.86,209.132 2136.66,206.768 2133.41,204.403 2130.1,202.039 2126.73,199.674 2123.29,197.31 2119.79,194.946 2116.22,192.581 2112.58,190.217 2108.86,187.852 2105.07,185.488 2101.2,183.123 2097.25,180.759 2093.22,178.395 2089.1,176.03 2084.89,173.666 2080.59,171.301 2076.19,168.937 2071.69,166.573 2067.1,164.208 2062.39,161.844 2057.58,159.479 2052.65,157.115 2047.6,154.751 2042.42,152.386 2037.11,150.022 2031.65,147.657 2026.04,145.293 2020.28,142.929 2014.34,140.564 2008.21,138.2 2001.89,135.836 1995.38,133.471 1988.65,131.107 1981.7,128.742 1974.5,126.378 1967.03,124.014 1959.25,121.649 1951.13,119.285 1942.64,116.92 1933.72,114.556 1924.33,112.192 1914.42,109.827 1903.91,107.463 1892.7,105.099 1880.68,102.734 1867.65,100.37 1853.32,98.0056 1837.3,95.6413 1818.96,93.277 1797,90.9128 1768.38,88.5487 1714.22,86.1857 1618.75,88.096 1585.21,90.4599 1559.59,92.824 1537.94,95.1883 1518.81,97.5525 1501.45,99.9168 1485.44,102.281 1470.48,104.645 1456.39,107.01 1443.02,109.374 1430.28,111.738 1418.07,114.103 1406.33,116.467 1395.02,118.831 1384.07,121.196 1373.47,123.56 1363.17,125.925 1353.16,128.289 1343.41,130.653 1333.89,133.018 1324.6,135.382 1315.51,137.746 1306.62,140.111 1297.91,142.475 1289.37,144.84 1280.99,147.204 1272.76,149.568 1264.68,151.933 1256.73,154.297 1248.92,156.661 1241.22,159.026 1233.65,161.39 1226.19,163.755 1218.83,166.119 1211.58,168.483 1204.43,170.848 1197.38,173.212 1190.41,175.577 1183.54,177.941 1176.75,180.305 1170.04,182.67 1163.41,185.034 1156.86,187.399 1150.39,189.763 1143.98,192.127 1137.65,194.492 1131.39,196.856 1125.19,199.22 1119.05,201.585 1112.98,203.949 1106.96,206.314 1101.01,208.678 1095.12,211.042 1089.28,213.407 1083.49,215.771 1077.76,218.136 1072.08,220.5 1066.45,222.864 1060.87,225.229 1055.34,227.593 1049.85,229.958 1044.42,232.322 1039.02,234.686 1033.68,237.051 1028.37,239.415 1023.11,241.78 1017.89,244.144 1012.71,246.508 1007.58,248.873 1002.48,251.237 997.418,253.602 992.397,255.966 987.412,258.33 982.465,260.695 977.553,263.059 972.678,265.424 967.837,267.788 963.03,270.152 958.257,272.517 953.517,274.881 948.811,277.246 944.136,279.61 939.493,281.974 934.881,284.339 930.301,286.703 925.75,289.068 921.23,291.432 916.739,293.796 912.277,296.161 907.844,298.525 903.439,300.89 899.062,303.254 894.713,305.618 890.391,307.983 886.096,310.347 881.827,312.712 877.584,315.076 873.368,317.44 869.177,319.805 865.011,322.169 860.871,324.534 856.755,326.898 852.663,329.262 848.596,331.627 844.552,333.991 840.532,336.356 836.536,338.72 832.563,341.084 828.612,343.449 824.685,345.813 820.779,348.178 816.896,350.542 813.035,352.906 809.196,355.271 805.378,357.635 801.581,360 797.806,362.364 794.052,364.728 790.318,367.093 786.605,369.457 782.912,371.822 779.24,374.186 775.587,376.55 771.955,378.915 768.342,381.279 764.749,383.644 761.175,386.008 757.62,388.372 754.084,390.737 750.567,393.101 747.069,395.466 743.59,397.83 740.129,400.194 736.686,402.559 733.262,404.923 729.856,407.288 726.467,409.652 723.097,412.017 719.744,414.381 716.408,416.745 713.09,419.11 709.79,421.474 706.506,423.839 703.24,426.203 699.991,428.567 696.758,430.932 693.542,433.296 690.343,435.661 687.161,438.025 683.995,440.389 680.845,442.754 677.711,445.118 674.594,447.483 671.493,449.847 668.407,452.211 665.338,454.576 662.284,456.94 659.246,459.305 656.224,461.669 653.217,464.033 650.225,466.398 647.249,468.762 644.289,471.127 641.343,473.491 638.413,475.855 635.497,478.22 632.597,480.584 629.712,482.949 626.841,485.313 623.985,487.677 621.144,490.042 618.318,492.406 615.506,494.771 612.708,497.135 609.925,499.499 607.157,501.864 604.403,504.228 601.663,506.593 598.937,508.957 596.225,511.322 593.528,513.686 590.844,516.05 588.175,518.415 585.519,520.779 582.877,523.144 580.25,525.508 577.635,527.872 575.035,530.237 572.448,532.601 569.875,534.966 567.315,537.33 564.769,539.694 562.237,542.059 559.718,544.423 557.212,546.788 554.72,549.152 552.241,551.516 549.775,553.881 547.322,556.245 544.883,558.61 542.457,560.974 540.044,563.338 537.644,565.703 535.257,568.067 532.883,570.432 530.522,572.796 528.174,575.16 525.839,577.525 523.517,579.889 521.208,582.254 518.911,584.618 516.628,586.983 514.357,589.347 512.099,591.711 509.853,594.076 507.62,596.44 505.4,598.805 503.193,601.169 500.998,603.533 498.815,605.898 496.646,608.262 494.488,610.627 492.344,612.991 490.211,615.355 488.092,617.72 485.984,620.084 483.889,622.449 481.807,624.813 479.737,627.177 477.679,629.542 475.633,631.906 473.6,634.271 471.579,636.635 469.571,638.999 467.574,641.364 465.59,643.728 463.619,646.093 461.659,648.457 459.712,650.821 457.777,653.186 455.854,655.55 453.943,657.915 452.044,660.279 450.158,662.644 448.284,665.008 446.422,667.372 444.572,669.737 442.734,672.101 440.908,674.466 439.095,676.83 437.293,679.194 435.504,681.559 433.726,683.923 431.961,686.288 430.208,688.652 428.467,691.016 426.738,693.381 425.021,695.745 423.316,698.11 421.623,700.474 419.942,702.838 418.273,705.203 416.617,707.567 414.972,709.932 413.339,712.296 411.719,714.66 410.11,717.025 408.514,719.389 406.929,721.754 405.357,724.118 403.797,726.483 402.248,728.847 400.712,731.211 399.188,733.576 397.676,735.94 396.176,738.305 394.688,740.669 393.213,743.033 391.749,745.398 390.297,747.762 388.858,750.127 387.43,752.491 386.015,754.855 384.612,757.22 383.221,759.584 381.842,761.949 380.476,764.313 379.121,766.677 377.779,769.042 376.449,771.406 375.131,773.771 373.826,776.135 372.532,778.5 371.251,780.864 369.982,783.228 368.726,785.593 367.482,787.957 366.25,790.322 365.03,792.686 363.823,795.05 362.628,797.415 361.445,799.779 360.275,802.144 359.118,804.508 357.972,806.872 356.84,809.237 355.719,811.601 354.611,813.966 353.516,816.33 352.433,818.694 351.363,821.059 350.306,823.423 349.261,825.788 348.229,828.152 347.209,830.516 346.203,832.881 345.209,835.245 344.227,837.61 343.259,839.974 342.303,842.339 341.36,844.703 340.43,847.067 339.513,849.432 338.609,851.796 337.718,854.161 336.839,856.525 335.974,858.889 335.122,861.254 334.283,863.618 333.457,865.983 332.644,868.347 331.844,870.711 331.057,873.076 330.284,875.44 329.524,877.805 328.777,880.169 328.043,882.533 327.323,884.898 326.617,887.262 325.924,889.627 325.244,891.991 324.578,894.356 323.926,896.72 323.287,899.084 322.662,901.449 322.051,903.813 321.453,906.178 320.87,908.542 320.3,910.906 319.744,913.271 319.202,915.635 318.675,918 318.161,920.364 317.662,922.728 317.177,925.093 316.706,927.457 316.249,929.822 315.807,932.186 315.379,934.55 314.966,936.915 314.568,939.279 314.184,941.644 313.814,944.008 313.46,946.373 313.12,948.737 312.796,951.101 312.486,953.466 312.191,955.83 311.911,958.195 311.647,960.559 311.398,962.923 311.164,965.288 310.945,967.652 310.742,970.017 310.555,972.381 310.383,974.745 310.227,977.11 310.086,979.474 309.962,981.839 309.853,984.203 309.76,986.567 309.684,988.932 309.623,991.296 309.579,993.661 309.551,996.025 309.539,998.389 309.544,1000.75 309.566,1003.12 309.604,1005.48 309.659,1007.85 309.731,1010.21 309.82,1012.58 309.927,1014.94 310.05,1017.3 310.192,1019.67 310.351,1022.03 310.527,1024.4 310.721,1026.76 310.933,1029.13 311.162,1031.49 311.41,1033.86 311.676,1036.22 311.96,1038.58 312.262,1040.95 312.582,1043.31 312.921,1045.68 313.278,1048.04 313.655,1050.41 314.05,1052.77 314.464,1055.14 314.897,1057.5 315.35,1059.86 315.822,1062.23 316.313,1064.59 316.825,1066.96 317.356,1069.32 317.907,1071.69 318.478,1074.05 319.07,1076.41 319.683,1078.78 320.316,1081.14 320.97,1083.51 321.645,1085.87 322.342,1088.24 323.06,1090.6 323.8,1092.97 324.562,1095.33 325.346,1097.69 326.152,1100.06 326.981,1102.42 327.832,1104.79 328.707,1107.15 329.605,1109.52 330.526,1111.88 331.471,1114.25 332.44,1116.61 333.434,1118.97 334.451,1121.34 335.494,1123.7 336.561,1126.07 337.654,1128.43 338.772,1130.8 339.917,1133.16 341.087,1135.53 342.283,1137.89 343.506,1140.25 344.757,1142.62 346.034,1144.98 347.339,1147.35 348.671,1149.71 350.032,1152.08 351.421,1154.44 352.84,1156.8 354.287,1159.17 355.763,1161.53 357.269,1163.9 358.806,1166.26 360.373,1168.63 361.97,1170.99 363.599,1173.36 365.259,1175.72 366.953,1178.08 368.681,1180.45 370.443,1182.81 372.239,1185.18 374.07,1187.54 375.936,1189.91 377.836,1192.27 379.772,1194.64 381.744,1197 383.752,1199.36 385.797,1201.73 387.879,1204.09 389.999,1206.46 392.157,1208.82 394.354,1211.19 396.591,1213.55 398.869,1215.92 401.187,1218.28 403.548,1220.64 405.952,1223.01 408.4,1225.37 410.892,1227.74 413.431,1230.1 416.016,1232.47 418.649,1234.83 421.331,1237.19 424.064,1239.56 426.847,1241.92 429.684,1244.29 432.574,1246.65 435.52,1249.02 438.523,1251.38 441.583,1253.75 444.704,1256.11 447.885,1258.47 451.129,1260.84 454.437,1263.2 457.812,1265.57 461.253,1267.93 464.764,1270.3 468.346,1272.66 472.001,1275.03 475.731,1277.39 479.537,1279.75 483.422,1282.12 487.388,1284.48 491.436,1286.85 495.568,1289.21 499.788,1291.58 504.101,1293.94 508.509,1296.3 513.017,1298.67 517.629,1301.03 522.347,1303.4 527.178,1305.76 532.125,1308.13 537.194,1310.49 542.395,1312.86 547.733,1315.22 553.21,1317.58 558.83,1319.95 564.6,1322.31 570.527,1324.68 576.619,1327.04 582.888,1329.41 589.346,1331.77 596.007,1334.14 602.887,1336.5 610.004,1338.86 617.377,1341.23 625.026,1343.59 632.975,1345.96 641.248,1348.32 649.87,1350.69 658.87,1353.05 668.4,1355.41 678.506,1357.78 689.077,1360.14 700.102,1362.51 711.661,1364.87 723.933,1367.24 737.194,1369.6 751.813,1371.97 768.256,1374.33 787.086,1376.69 808.966,1379.06 835.79,1381.42 874.403,1383.79 988.595,1384.24 1034.72,1381.87 1065.77,1379.51 1090.97,1377.15 1112.79,1374.78 1132.33,1372.42 1150.2,1370.05 1166.78,1367.69 1182.31,1365.33 1196.99,1362.96 1210.92,1360.6 1224.23,1358.23 1236.99,1355.87 1249.26,1353.5 1261.1,1351.14 1272.55,1348.77 1283.64,1346.41 1294.4,1344.05 1304.87,1341.68 1315.07,1339.32 1325.01,1336.95 1334.71,1334.59 1344.2,1332.22 1353.47,1329.86 1362.56,1327.5 1371.46,1325.13 1380.18,1322.77 1388.75,1320.4 1397.16,1318.04 1405.42,1315.67 1413.54,1313.31 1421.52,1310.94 1429.38,1308.58 1437.12,1306.22 1444.74,1303.85 1452.24,1301.49 1459.64,1299.12 1466.93,1296.76 1474.12,1294.39 1481.22,1292.03 1488.22,1289.67 1495.13,1287.3 1501.95,1284.94 1508.69,1282.57 1515.35,1280.21 1521.93,1277.84 1528.43,1275.48 1534.86,1273.11 1541.21,1270.75 1547.49,1268.39 1553.71,1266.02 1559.86,1263.66 1565.94,1261.29 1571.96,1258.93 1577.91,1256.56 1583.81,1254.2 1589.65,1251.84 1595.43,1249.47 1601.15,1247.11 1606.82,1244.74 1612.44,1242.38 1618,1240.01 1623.51,1237.65 1628.97,1235.28 1634.38,1232.92 1639.74,1230.56 1645.06,1228.19 1650.33,1225.83 1655.55,1223.46 1660.73,1221.1 1665.86,1218.73 1670.95,1216.37 1676,1214 1681.01,1211.64 1685.97,1209.28 1690.9,1206.91 1695.78,1204.55 1700.63,1202.18 1705.44,1199.82 1710.21,1197.45 1714.95,1195.09 1719.64,1192.73 1724.31,1190.36 1728.93,1188 1733.52,1185.63 1738.08,1183.27 1742.6,1180.9 1747.09,1178.54 1751.55,1176.17 1755.97,1173.81 1760.37,1171.45 1764.73,1169.08 1769.06,1166.72 1773.35,1164.35 1777.62,1161.99 1781.86,1159.62 1786.07,1157.26 1790.25,1154.89 1794.4,1152.53 1798.52,1150.17 1802.61,1147.8 1806.68,1145.44 1810.72,1143.07 1814.73,1140.71 1818.71,1138.34 1822.67,1135.98 1826.6,1133.62 1830.51,1131.25 1834.39,1128.89 1838.24,1126.52 1842.07,1124.16 1845.87,1121.79 1849.65,1119.43 1853.4,1117.06 1857.13,1114.7 1860.84,1112.34 1864.52,1109.97 1868.18,1107.61 1871.81,1105.24 1875.42,1102.88 1879.01,1100.51 1882.58,1098.15 1886.12,1095.78 1889.65,1093.42 1893.14,1091.06 1896.62,1088.69 1900.08,1086.33 1903.51,1083.96 1906.93,1081.6 1910.32,1079.23 1913.69,1076.87 1917.04,1074.51 1920.37,1072.14 1923.68,1069.78 1926.97,1067.41 1930.23,1065.05 1933.48,1062.68 1936.71,1060.32 1939.92,1057.95 1943.11,1055.59 1946.28,1053.23 1949.43,1050.86 1952.56,1048.5 1955.68,1046.13 1958.77,1043.77 1961.84,1041.4 1964.9,1039.04 1967.94,1036.67 1970.96,1034.31 1973.96,1031.95 1976.94,1029.58 1979.91,1027.22 1982.86,1024.85 1985.79,1022.49 1988.7,1020.12 1991.59,1017.76 1994.47,1015.39 1997.33,1013.03 2000.17,1010.67 2003,1008.3 2005.81,1005.94 2008.6,1003.57 2011.37,1001.21 2014.13,998.844 2016.87,996.48 2019.6,994.115 2022.31,991.751 2025,989.387 2027.67,987.022 2030.33,984.658 2032.98,982.293 2035.61,979.929 2038.22,977.564 2040.81,975.2 2043.39,972.836 2045.96,970.471 2048.51,968.107 2051.04,965.742 2053.56,963.378 2056.06,961.014 2058.55,958.649 2061.02,956.285 2063.48,953.92 2065.92,951.556 2068.34,949.192 2070.76,946.827 2073.15,944.463 2075.53,942.098 2077.9,939.734 2080.25,937.37 2082.59,935.005 2084.91,932.641 2087.22,930.276 2089.52,927.912 2091.8,925.548 2094.06,923.183 2096.31,920.819 2098.55,918.454 2100.77,916.09 2102.98,913.726 2105.18,911.361 2107.36,908.997 2109.52,906.632 2111.67,904.268 2113.81,901.903 2115.94,899.539 2118.05,897.175 2120.15,894.81 2122.23,892.446 2124.3,890.081 2126.35,887.717 2128.4,885.353 2130.43,882.988 2132.44,880.624 2134.44,878.259 2136.43,875.895 2138.41,873.531 2140.37,871.166 2142.32,868.802 2144.25,866.437 2146.18,864.073 2148.08,861.709 2149.98,859.344 2151.86,856.98 2153.73,854.615 2155.59,852.251 2157.43,849.887 2159.26,847.522 2161.08,845.158 2162.89,842.793 2164.68,840.429 2166.46,838.064 2168.22,835.7 2169.98,833.336 2171.72,830.971 2173.44,828.607 2175.16,826.242 2176.86,823.878 2178.55,821.514 2180.23,819.149 2181.89,816.785 2183.54,814.42 2185.18,812.056 2186.81,809.692 2188.42,807.327 2190.02,804.963 2191.61,802.598 2193.19,800.234 2194.75,797.87 2196.3,795.505 2197.84,793.141 2199.37,790.776 2200.88,788.412 2202.39,786.048 2203.88,783.683 2205.35,781.319 2206.82,778.954 2208.27,776.59 2209.71,774.225 2211.14,771.861 2212.56,769.497 "/>
</svg>
