<?xml version="1.0" encoding="utf-8"?>
<svg xmlns="http://www.w3.org/2000/svg" xmlns:xlink="http://www.w3.org/1999/xlink" width="600" height="400" viewBox="0 0 2400 1600">
<defs>
  <clipPath id="clip830">
    <rect x="0" y="0" width="2400" height="1600"/>
  </clipPath>
</defs>
<path clip-path="url(#clip830)" d="
M0 1600 L2400 1600 L2400 0 L0 0  Z
  " fill="#ffffff" fill-rule="evenodd" fill-opacity="1"/>
<defs>
  <clipPath id="clip831">
    <rect x="480" y="0" width="1681" height="1600"/>
  </clipPath>
</defs>
<path clip-path="url(#clip830)" d="
M197.852 1423.18 L2352.76 1423.18 L2352.76 47.2441 L197.852 47.2441  Z
  " fill="#ffffff" fill-rule="evenodd" fill-opacity="1"/>
<defs>
  <clipPath id="clip832">
    <rect x="197" y="47" width="2156" height="1377"/>
  </clipPath>
</defs>
<polyline clip-path="url(#clip832)" style="stroke:#000000; stroke-width:2; stroke-opacity:0.1; fill:none" points="
  258.84,1423.18 258.84,47.2441 
  "/>
<polyline clip-path="url(#clip832)" style="stroke:#000000; stroke-width:2; stroke-opacity:0.1; fill:none" points="
  936.483,1423.18 936.483,47.2441 
  "/>
<polyline clip-path="url(#clip832)" style="stroke:#000000; stroke-width:2; stroke-opacity:0.1; fill:none" points="
  1614.13,1423.18 1614.13,47.2441 
  "/>
<polyline clip-path="url(#clip832)" style="stroke:#000000; stroke-width:2; stroke-opacity:0.1; fill:none" points="
  2291.77,1423.18 2291.77,47.2441 
  "/>
<polyline clip-path="url(#clip830)" style="stroke:#000000; stroke-width:4; stroke-opacity:1; fill:none" points="
  197.852,1423.18 2352.76,1423.18 
  "/>
<polyline clip-path="url(#clip830)" style="stroke:#000000; stroke-width:4; stroke-opacity:1; fill:none" points="
  258.84,1423.18 258.84,1406.67 
  "/>
<polyline clip-path="url(#clip830)" style="stroke:#000000; stroke-width:4; stroke-opacity:1; fill:none" points="
  936.483,1423.18 936.483,1406.67 
  "/>
<polyline clip-path="url(#clip830)" style="stroke:#000000; stroke-width:4; stroke-opacity:1; fill:none" points="
  1614.13,1423.18 1614.13,1406.67 
  "/>
<polyline clip-path="url(#clip830)" style="stroke:#000000; stroke-width:4; stroke-opacity:1; fill:none" points="
  2291.77,1423.18 2291.77,1406.67 
  "/>
<path clip-path="url(#clip830)" d="M 0 0 M249.222 1479.92 L256.861 1479.92 L256.861 1453.55 L248.551 1455.22 L248.551 1450.96 L256.815 1449.29 L261.491 1449.29 L261.491 1479.92 L269.13 1479.92 L269.13 1483.85 L249.222 1483.85 L249.222 1479.92 Z" fill="#000000" fill-rule="evenodd" fill-opacity="1" /><path clip-path="url(#clip830)" d="M 0 0 M931.136 1479.92 L947.455 1479.92 L947.455 1483.85 L925.511 1483.85 L925.511 1479.92 Q928.173 1477.16 932.756 1472.53 Q937.363 1467.88 938.543 1466.54 Q940.788 1464.01 941.668 1462.28 Q942.571 1460.52 942.571 1458.83 Q942.571 1456.07 940.626 1454.34 Q938.705 1452.6 935.603 1452.6 Q933.404 1452.6 930.951 1453.37 Q928.52 1454.13 925.742 1455.68 L925.742 1450.96 Q928.566 1449.82 931.02 1449.25 Q933.474 1448.67 935.511 1448.67 Q940.881 1448.67 944.075 1451.35 Q947.27 1454.04 947.27 1458.53 Q947.27 1460.66 946.46 1462.58 Q945.673 1464.48 943.566 1467.07 Q942.988 1467.74 939.886 1470.96 Q936.784 1474.15 931.136 1479.92 Z" fill="#000000" fill-rule="evenodd" fill-opacity="1" /><path clip-path="url(#clip830)" d="M 0 0 M1618.37 1465.22 Q1621.73 1465.94 1623.6 1468.2 Q1625.5 1470.47 1625.5 1473.81 Q1625.5 1478.92 1621.98 1481.72 Q1618.47 1484.52 1611.98 1484.52 Q1609.81 1484.52 1607.49 1484.08 Q1605.2 1483.67 1602.75 1482.81 L1602.75 1478.3 Q1604.69 1479.43 1607.01 1480.01 Q1609.32 1480.59 1611.85 1480.59 Q1616.24 1480.59 1618.54 1478.85 Q1620.85 1477.12 1620.85 1473.81 Q1620.85 1470.75 1618.7 1469.04 Q1616.57 1467.3 1612.75 1467.3 L1608.72 1467.3 L1608.72 1463.46 L1612.93 1463.46 Q1616.38 1463.46 1618.21 1462.09 Q1620.04 1460.7 1620.04 1458.11 Q1620.04 1455.45 1618.14 1454.04 Q1616.27 1452.6 1612.75 1452.6 Q1610.83 1452.6 1608.63 1453.02 Q1606.43 1453.44 1603.79 1454.31 L1603.79 1450.15 Q1606.45 1449.41 1608.77 1449.04 Q1611.1 1448.67 1613.16 1448.67 Q1618.49 1448.67 1621.59 1451.1 Q1624.69 1453.5 1624.69 1457.63 Q1624.69 1460.5 1623.05 1462.49 Q1621.41 1464.45 1618.37 1465.22 Z" fill="#000000" fill-rule="evenodd" fill-opacity="1" /><path clip-path="url(#clip830)" d="M 0 0 M2294.78 1453.37 L2282.97 1471.81 L2294.78 1471.81 L2294.78 1453.37 M2293.55 1449.29 L2299.43 1449.29 L2299.43 1471.81 L2304.36 1471.81 L2304.36 1475.7 L2299.43 1475.7 L2299.43 1483.85 L2294.78 1483.85 L2294.78 1475.7 L2279.18 1475.7 L2279.18 1471.19 L2293.55 1449.29 Z" fill="#000000" fill-rule="evenodd" fill-opacity="1" /><path clip-path="url(#clip830)" d="M 0 0 M1291.92 1532.4 L1279.03 1549.74 L1292.59 1568.04 L1285.68 1568.04 L1275.3 1554.04 L1264.93 1568.04 L1258.02 1568.04 L1271.87 1549.39 L1259.2 1532.4 L1266.11 1532.4 L1275.56 1545.1 L1285.01 1532.4 L1291.92 1532.4 Z" fill="#000000" fill-rule="evenodd" fill-opacity="1" /><polyline clip-path="url(#clip832)" style="stroke:#000000; stroke-width:2; stroke-opacity:0.1; fill:none" points="
  197.852,1151.46 2352.76,1151.46 
  "/>
<polyline clip-path="url(#clip832)" style="stroke:#000000; stroke-width:2; stroke-opacity:0.1; fill:none" points="
  197.852,796.369 2352.76,796.369 
  "/>
<polyline clip-path="url(#clip832)" style="stroke:#000000; stroke-width:2; stroke-opacity:0.1; fill:none" points="
  197.852,441.277 2352.76,441.277 
  "/>
<polyline clip-path="url(#clip832)" style="stroke:#000000; stroke-width:2; stroke-opacity:0.1; fill:none" points="
  197.852,86.1857 2352.76,86.1857 
  "/>
<polyline clip-path="url(#clip830)" style="stroke:#000000; stroke-width:4; stroke-opacity:1; fill:none" points="
  197.852,1423.18 197.852,47.2441 
  "/>
<polyline clip-path="url(#clip830)" style="stroke:#000000; stroke-width:4; stroke-opacity:1; fill:none" points="
  197.852,1151.46 223.711,1151.46 
  "/>
<polyline clip-path="url(#clip830)" style="stroke:#000000; stroke-width:4; stroke-opacity:1; fill:none" points="
  197.852,796.369 223.711,796.369 
  "/>
<polyline clip-path="url(#clip830)" style="stroke:#000000; stroke-width:4; stroke-opacity:1; fill:none" points="
  197.852,441.277 223.711,441.277 
  "/>
<polyline clip-path="url(#clip830)" style="stroke:#000000; stroke-width:4; stroke-opacity:1; fill:none" points="
  197.852,86.1857 223.711,86.1857 
  "/>
<path clip-path="url(#clip830)" d="M 0 0 M152.269 1138.25 L140.464 1156.7 L152.269 1156.7 L152.269 1138.25 M151.042 1134.18 L156.922 1134.18 L156.922 1156.7 L161.852 1156.7 L161.852 1160.59 L156.922 1160.59 L156.922 1168.74 L152.269 1168.74 L152.269 1160.59 L136.667 1160.59 L136.667 1156.08 L151.042 1134.18 Z" fill="#000000" fill-rule="evenodd" fill-opacity="1" /><path clip-path="url(#clip830)" d="M 0 0 M150.325 794.505 Q147.177 794.505 145.325 796.658 Q143.496 798.811 143.496 802.561 Q143.496 806.288 145.325 808.464 Q147.177 810.616 150.325 810.616 Q153.473 810.616 155.302 808.464 Q157.153 806.288 157.153 802.561 Q157.153 798.811 155.302 796.658 Q153.473 794.505 150.325 794.505 M159.607 779.853 L159.607 784.112 Q157.848 783.278 156.042 782.839 Q154.26 782.399 152.501 782.399 Q147.871 782.399 145.417 785.524 Q142.987 788.649 142.64 794.968 Q144.005 792.954 146.066 791.89 Q148.126 790.802 150.603 790.802 Q155.811 790.802 158.82 793.973 Q161.852 797.121 161.852 802.561 Q161.852 807.885 158.704 811.102 Q155.556 814.32 150.325 814.32 Q144.329 814.32 141.158 809.737 Q137.987 805.13 137.987 796.403 Q137.987 788.209 141.876 783.348 Q145.765 778.464 152.316 778.464 Q154.075 778.464 155.857 778.811 Q157.663 779.158 159.607 779.853 Z" fill="#000000" fill-rule="evenodd" fill-opacity="1" /><path clip-path="url(#clip830)" d="M 0 0 M150.001 442.145 Q146.667 442.145 144.746 443.928 Q142.848 445.71 142.848 448.835 Q142.848 451.96 144.746 453.742 Q146.667 455.525 150.001 455.525 Q153.334 455.525 155.255 453.742 Q157.177 451.937 157.177 448.835 Q157.177 445.71 155.255 443.928 Q153.357 442.145 150.001 442.145 M145.325 440.155 Q142.316 439.414 140.626 437.354 Q138.959 435.293 138.959 432.33 Q138.959 428.187 141.899 425.78 Q144.862 423.372 150.001 423.372 Q155.163 423.372 158.103 425.78 Q161.042 428.187 161.042 432.33 Q161.042 435.293 159.353 437.354 Q157.686 439.414 154.7 440.155 Q158.079 440.942 159.954 443.233 Q161.852 445.525 161.852 448.835 Q161.852 453.858 158.774 456.543 Q155.718 459.228 150.001 459.228 Q144.283 459.228 141.204 456.543 Q138.149 453.858 138.149 448.835 Q138.149 445.525 140.047 443.233 Q141.945 440.942 145.325 440.155 M143.612 432.77 Q143.612 435.455 145.279 436.96 Q146.968 438.465 150.001 438.465 Q153.01 438.465 154.7 436.96 Q156.413 435.455 156.413 432.77 Q156.413 430.085 154.7 428.58 Q153.01 427.076 150.001 427.076 Q146.968 427.076 145.279 428.58 Q143.612 430.085 143.612 432.77 Z" fill="#000000" fill-rule="evenodd" fill-opacity="1" /><path clip-path="url(#clip830)" d="M 0 0 M114.931 99.5305 L122.57 99.5305 L122.57 73.1649 L114.26 74.8316 L114.26 70.5723 L122.524 68.9057 L127.2 68.9057 L127.2 99.5305 L134.839 99.5305 L134.839 103.466 L114.931 103.466 L114.931 99.5305 Z" fill="#000000" fill-rule="evenodd" fill-opacity="1" /><path clip-path="url(#clip830)" d="M 0 0 M149.908 71.9844 Q146.297 71.9844 144.468 75.5492 Q142.663 79.0908 142.663 86.2204 Q142.663 93.3268 144.468 96.8916 Q146.297 100.433 149.908 100.433 Q153.542 100.433 155.348 96.8916 Q157.177 93.3268 157.177 86.2204 Q157.177 79.0908 155.348 75.5492 Q153.542 71.9844 149.908 71.9844 M149.908 68.2807 Q155.718 68.2807 158.774 72.8871 Q161.852 77.4704 161.852 86.2204 Q161.852 94.9472 158.774 99.5537 Q155.718 104.137 149.908 104.137 Q144.098 104.137 141.019 99.5537 Q137.964 94.9472 137.964 86.2204 Q137.964 77.4704 141.019 72.8871 Q144.098 68.2807 149.908 68.2807 Z" fill="#000000" fill-rule="evenodd" fill-opacity="1" /><path clip-path="url(#clip830)" d="M 0 0 M67.3143 733.525 Q73.68 736.008 75.6216 738.363 Q77.5631 740.718 77.5631 744.665 L77.5631 749.344 L72.6615 749.344 L72.6615 745.906 Q72.6615 743.487 71.5157 742.151 Q70.3699 740.814 66.1048 739.191 L63.4312 738.14 L28.3562 752.559 L28.3562 746.352 L56.238 735.212 L28.3562 724.072 L28.3562 717.865 L67.3143 733.525 Z" fill="#000000" fill-rule="evenodd" fill-opacity="1" /><polyline clip-path="url(#clip832)" style="stroke:#0000ff; stroke-width:4; stroke-opacity:1; fill:none" points="
  258.84,1240.23 258.84,1062.69 
  "/>
<polyline clip-path="url(#clip832)" style="stroke:#0000ff; stroke-width:4; stroke-opacity:1; fill:none" points="
  936.483,1053.81 936.483,894.019 
  "/>
<polyline clip-path="url(#clip832)" style="stroke:#0000ff; stroke-width:4; stroke-opacity:1; fill:none" points="
  1614.13,814.123 1614.13,601.068 
  "/>
<polyline clip-path="url(#clip832)" style="stroke:#0000ff; stroke-width:4; stroke-opacity:1; fill:none" points="
  2291.77,441.277 2291.77,86.1857 
  "/>
<line clip-path="url(#clip832)" x1="274.84" y1="1240.23" x2="242.84" y2="1240.23" style="stroke:#0000ff; stroke-width:3.2; stroke-opacity:1"/>
<line clip-path="url(#clip832)" x1="274.84" y1="1062.69" x2="242.84" y2="1062.69" style="stroke:#0000ff; stroke-width:3.2; stroke-opacity:1"/>
<line clip-path="url(#clip832)" x1="952.483" y1="1053.81" x2="920.483" y2="1053.81" style="stroke:#0000ff; stroke-width:3.2; stroke-opacity:1"/>
<line clip-path="url(#clip832)" x1="952.483" y1="894.019" x2="920.483" y2="894.019" style="stroke:#0000ff; stroke-width:3.2; stroke-opacity:1"/>
<line clip-path="url(#clip832)" x1="1630.13" y1="814.123" x2="1598.13" y2="814.123" style="stroke:#0000ff; stroke-width:3.2; stroke-opacity:1"/>
<line clip-path="url(#clip832)" x1="1630.13" y1="601.068" x2="1598.13" y2="601.068" style="stroke:#0000ff; stroke-width:3.2; stroke-opacity:1"/>
<line clip-path="url(#clip832)" x1="2307.77" y1="441.277" x2="2275.77" y2="441.277" style="stroke:#0000ff; stroke-width:3.2; stroke-opacity:1"/>
<line clip-path="url(#clip832)" x1="2307.77" y1="86.1857" x2="2275.77" y2="86.1857" style="stroke:#0000ff; stroke-width:3.2; stroke-opacity:1"/>
<circle clip-path="url(#clip832)" cx="258.84" cy="1151.46" r="14" fill="#0000ff" fill-rule="evenodd" fill-opacity="1" stroke="none"/>
<circle clip-path="url(#clip832)" cx="936.483" cy="973.914" r="14" fill="#0000ff" fill-rule="evenodd" fill-opacity="1" stroke="none"/>
<circle clip-path="url(#clip832)" cx="1614.13" cy="707.596" r="14" fill="#0000ff" fill-rule="evenodd" fill-opacity="1" stroke="none"/>
<circle clip-path="url(#clip832)" cx="2291.77" cy="263.731" r="14" fill="#0000ff" fill-rule="evenodd" fill-opacity="1" stroke="none"/>
<polyline clip-path="url(#clip832)" style="stroke:#ff0000; stroke-width:8; stroke-opacity:1; fill:none" points="
  258.84,1195.12 262.914,1193.54 266.988,1191.96 271.062,1190.38 275.136,1188.79 279.21,1187.21 283.284,1185.63 287.358,1184.04 291.432,1182.46 295.506,1180.88 
  299.58,1179.3 303.654,1177.71 307.728,1176.13 311.802,1174.55 315.876,1172.96 319.95,1171.38 324.024,1169.8 328.098,1168.22 332.172,1166.63 336.246,1165.05 
  340.32,1163.47 344.394,1161.88 348.468,1160.3 352.542,1158.72 356.616,1157.14 360.69,1155.55 364.764,1153.97 368.838,1152.39 372.912,1150.8 376.986,1149.22 
  381.06,1147.64 385.134,1146.06 389.208,1144.47 393.282,1142.89 397.356,1141.31 401.43,1139.72 405.504,1138.14 409.578,1136.56 413.652,1134.98 417.726,1133.39 
  421.8,1131.81 425.874,1130.23 429.948,1128.64 434.022,1127.06 438.096,1125.48 442.17,1123.9 446.244,1122.31 450.318,1120.73 454.392,1119.15 458.466,1117.56 
  462.541,1115.98 466.615,1114.4 470.689,1112.82 474.763,1111.23 478.837,1109.65 482.911,1108.07 486.985,1106.48 491.059,1104.9 495.133,1103.32 499.207,1101.74 
  503.281,1100.15 507.355,1098.57 511.429,1096.99 515.503,1095.4 519.577,1093.82 523.651,1092.24 527.725,1090.66 531.799,1089.07 535.873,1087.49 539.947,1085.91 
  544.021,1084.32 548.095,1082.74 552.169,1081.16 556.243,1079.58 560.317,1077.99 564.391,1076.41 568.465,1074.83 572.539,1073.24 576.613,1071.66 580.687,1070.08 
  584.761,1068.5 588.835,1066.91 592.909,1065.33 596.983,1063.75 601.057,1062.16 605.131,1060.58 609.205,1059 613.279,1057.42 617.353,1055.83 621.427,1054.25 
  625.501,1052.67 629.575,1051.08 633.649,1049.5 637.723,1047.92 641.797,1046.34 645.871,1044.75 649.945,1043.17 654.019,1041.59 658.093,1040 662.167,1038.42 
  666.241,1036.84 670.315,1035.26 674.389,1033.67 678.463,1032.09 682.537,1030.51 686.611,1028.92 690.685,1027.34 694.759,1025.76 698.833,1024.18 702.907,1022.59 
  706.981,1021.01 711.055,1019.43 715.129,1017.84 719.203,1016.26 723.277,1014.68 727.351,1013.1 731.425,1011.51 735.499,1009.93 739.573,1008.35 743.647,1006.76 
  747.721,1005.18 751.795,1003.6 755.869,1002.02 759.943,1000.43 764.017,998.849 768.091,997.267 772.165,995.684 776.239,994.101 780.313,992.518 784.387,990.935 
  788.461,989.352 792.535,987.769 796.609,986.187 800.683,984.604 804.757,983.021 808.831,981.438 812.905,979.855 816.979,978.272 821.053,976.689 825.127,975.107 
  829.201,973.524 833.275,971.941 837.349,970.358 841.423,968.775 845.497,967.192 849.571,965.609 853.645,964.027 857.719,962.444 861.793,960.861 865.867,959.278 
  869.941,957.695 874.015,956.112 878.089,954.529 882.163,952.947 886.237,951.364 890.311,949.781 894.385,948.198 898.459,946.615 902.533,945.032 906.607,943.449 
  910.681,941.867 914.755,940.284 918.829,938.701 922.903,937.118 926.977,935.535 931.051,933.952 935.125,932.369 939.199,930.786 943.273,929.204 947.347,927.621 
  951.421,926.038 955.495,924.455 959.569,922.872 963.643,921.289 967.717,919.706 971.791,918.124 975.865,916.541 979.939,914.958 984.013,913.375 988.087,911.792 
  992.161,910.209 996.235,908.626 1000.31,907.044 1004.38,905.461 1008.46,903.878 1012.53,902.295 1016.6,900.712 1020.68,899.129 1024.75,897.546 1028.83,895.964 
  1032.9,894.381 1036.97,892.798 1041.05,891.215 1045.12,889.632 1049.2,888.049 1053.27,886.466 1057.35,884.884 1061.42,883.301 1065.49,881.718 1069.57,880.135 
  1073.64,878.552 1077.72,876.969 1081.79,875.386 1085.86,873.804 1089.94,872.221 1094.01,870.638 1098.09,869.055 1102.16,867.472 1106.23,865.889 1110.31,864.306 
  1114.38,862.723 1118.46,861.141 1122.53,859.558 1126.6,857.975 1130.68,856.392 1134.75,854.809 1138.83,853.226 1142.9,851.643 1146.97,850.061 1151.05,848.478 
  1155.12,846.895 1159.2,845.312 1163.27,843.729 1167.34,842.146 1171.42,840.563 1175.49,838.981 1179.57,837.398 1183.64,835.815 1187.71,834.232 1191.79,832.649 
  1195.86,831.066 1199.94,829.483 1204.01,827.901 1208.08,826.318 1212.16,824.735 1216.23,823.152 1220.31,821.569 1224.38,819.986 1228.45,818.403 1232.53,816.821 
  1236.6,815.238 1240.68,813.655 1244.75,812.072 1248.82,810.489 1252.9,808.906 1256.97,807.323 1261.05,805.741 1265.12,804.158 1269.19,802.575 1273.27,800.992 
  1277.34,799.409 1281.42,797.826 1285.49,796.243 1289.56,794.66 1293.64,793.078 1297.71,791.495 1301.79,789.912 1305.86,788.329 1309.93,786.746 1314.01,785.163 
  1318.08,783.58 1322.16,781.998 1326.23,780.415 1330.3,778.832 1334.38,777.249 1338.45,775.666 1342.53,774.083 1346.6,772.5 1350.67,770.918 1354.75,769.335 
  1358.82,767.752 1362.9,766.169 1366.97,764.586 1371.04,763.003 1375.12,761.42 1379.19,759.838 1383.27,758.255 1387.34,756.672 1391.41,755.089 1395.49,753.506 
  1399.56,751.923 1403.64,750.34 1407.71,748.758 1411.78,747.175 1415.86,745.592 1419.93,744.009 1424.01,742.426 1428.08,740.843 1432.15,739.26 1436.23,737.678 
  1440.3,736.095 1444.38,734.512 1448.45,732.929 1452.52,731.346 1456.6,729.763 1460.67,728.18 1464.75,726.597 1468.82,725.015 1472.89,723.432 1476.97,721.849 
  1481.04,720.266 1485.12,718.683 1489.19,717.1 1493.26,715.517 1497.34,713.935 1501.41,712.352 1505.49,710.769 1509.56,709.186 1513.63,707.603 1517.71,706.02 
  1521.78,704.437 1525.86,702.855 1529.93,701.272 1534,699.689 1538.08,698.106 1542.15,696.523 1546.23,694.94 1550.3,693.357 1554.37,691.775 1558.45,690.192 
  1562.52,688.609 1566.6,687.026 1570.67,685.443 1574.74,683.86 1578.82,682.277 1582.89,680.695 1586.97,679.112 1591.04,677.529 1595.11,675.946 1599.19,674.363 
  1603.26,672.78 1607.34,671.197 1611.41,669.615 1615.48,668.032 1619.56,666.449 1623.63,664.866 1627.71,663.283 1631.78,661.7 1635.85,660.117 1639.93,658.534 
  1644,656.952 1648.08,655.369 1652.15,653.786 1656.22,652.203 1660.3,650.62 1664.37,649.037 1668.45,647.454 1672.52,645.872 1676.59,644.289 1680.67,642.706 
  1684.74,641.123 1688.82,639.54 1692.89,637.957 1696.96,636.374 1701.04,634.792 1705.11,633.209 1709.19,631.626 1713.26,630.043 1717.33,628.46 1721.41,626.877 
  1725.48,625.294 1729.56,623.712 1733.63,622.129 1737.7,620.546 1741.78,618.963 1745.85,617.38 1749.93,615.797 1754,614.214 1758.07,612.632 1762.15,611.049 
  1766.22,609.466 1770.3,607.883 1774.37,606.3 1778.44,604.717 1782.52,603.134 1786.59,601.552 1790.67,599.969 1794.74,598.386 1798.81,596.803 1802.89,595.22 
  1806.96,593.637 1811.04,592.054 1815.11,590.471 1819.18,588.889 1823.26,587.306 1827.33,585.723 1831.41,584.14 1835.48,582.557 1839.55,580.974 1843.63,579.391 
  1847.7,577.809 1851.78,576.226 1855.85,574.643 1859.92,573.06 1864,571.477 1868.07,569.894 1872.15,568.311 1876.22,566.729 1880.29,565.146 1884.37,563.563 
  1888.44,561.98 1892.52,560.397 1896.59,558.814 1900.66,557.231 1904.74,555.649 1908.81,554.066 1912.89,552.483 1916.96,550.9 1921.03,549.317 1925.11,547.734 
  1929.18,546.151 1933.26,544.569 1937.33,542.986 1941.4,541.403 1945.48,539.82 1949.55,538.237 1953.63,536.654 1957.7,535.071 1961.77,533.489 1965.85,531.906 
  1969.92,530.323 1974,528.74 1978.07,527.157 1982.14,525.574 1986.22,523.991 1990.29,522.408 1994.37,520.826 1998.44,519.243 2002.51,517.66 2006.59,516.077 
  2010.66,514.494 2014.74,512.911 2018.81,511.328 2022.88,509.746 2026.96,508.163 2031.03,506.58 2035.11,504.997 2039.18,503.414 2043.25,501.831 2047.33,500.248 
  2051.4,498.666 2055.48,497.083 2059.55,495.5 2063.62,493.917 2067.7,492.334 2071.77,490.751 2075.85,489.168 2079.92,487.586 2083.99,486.003 2088.07,484.42 
  2092.14,482.837 2096.22,481.254 2100.29,479.671 2104.36,478.088 2108.44,476.506 2112.51,474.923 2116.59,473.34 2120.66,471.757 2124.73,470.174 2128.81,468.591 
  2132.88,467.008 2136.96,465.426 2141.03,463.843 2145.1,462.26 2149.18,460.677 2153.25,459.094 2157.33,457.511 2161.4,455.928 2165.47,454.345 2169.55,452.763 
  2173.62,451.18 2177.7,449.597 2181.77,448.014 2185.84,446.431 2189.92,444.848 2193.99,443.265 2198.07,441.683 2202.14,440.1 2206.21,438.517 2210.29,436.934 
  2214.36,435.351 2218.44,433.768 2222.51,432.185 2226.58,430.603 2230.66,429.02 2234.73,427.437 2238.81,425.854 2242.88,424.271 2246.95,422.688 2251.03,421.105 
  2255.1,419.523 2259.18,417.94 2263.25,416.357 2267.32,414.774 2271.4,413.191 2275.47,411.608 2279.55,410.025 2283.62,408.443 2287.69,406.86 2291.77,405.277 
  
  "/>
<polyline clip-path="url(#clip832)" style="stroke:#ffa500; stroke-width:4; stroke-opacity:1; fill:none" points="
  258.84,1384.24 265.639,1380.57 272.439,1376.91 279.238,1373.26 286.037,1369.62 292.836,1365.97 299.635,1362.33 306.434,1358.69 313.233,1355.06 320.032,1351.44 
  326.831,1347.82 333.63,1344.2 340.429,1340.58 347.228,1336.98 354.028,1333.38 360.827,1329.79 367.626,1326.19 374.425,1322.61 381.224,1319.03 388.023,1315.46 
  394.822,1311.88 401.621,1308.32 408.42,1304.77 415.219,1301.22 422.018,1297.66 428.818,1294.13 435.617,1290.6 442.416,1287.07 449.215,1283.55 456.014,1280.04 
  462.813,1276.53 469.612,1273.03 476.411,1269.54 483.21,1266.05 490.009,1262.57 496.808,1259.1 503.608,1255.64 510.407,1252.18 517.206,1248.73 524.005,1245.29 
  530.804,1241.85 537.603,1238.43 544.402,1235.01 551.201,1231.6 558,1228.2 564.799,1224.8 571.598,1221.42 578.398,1218.04 585.197,1214.67 591.996,1211.32 
  598.795,1207.96 605.594,1204.63 612.393,1201.29 619.192,1197.98 625.991,1194.66 632.79,1191.36 639.589,1188.07 646.388,1184.78 653.188,1181.51 659.987,1178.25 
  666.786,1175 673.585,1171.76 680.384,1168.53 687.183,1165.31 693.982,1162.1 700.781,1158.9 707.58,1155.72 714.379,1152.54 721.178,1149.38 727.977,1146.23 
  734.777,1143.09 741.576,1139.96 748.375,1136.85 755.174,1133.74 761.973,1130.65 768.772,1127.57 775.571,1124.51 782.37,1121.46 789.169,1118.42 795.968,1115.39 
  802.767,1112.37 809.567,1109.37 816.366,1106.38 823.165,1103.41 829.964,1100.45 836.763,1097.5 843.562,1094.57 850.361,1091.65 857.16,1088.74 863.959,1085.85 
  870.758,1082.97 877.557,1080.1 884.357,1077.26 891.156,1074.42 897.955,1071.6 904.754,1068.79 911.553,1066 918.352,1063.23 925.151,1060.46 931.95,1057.71 
  938.749,1054.98 945.548,1052.26 952.347,1049.55 959.147,1046.87 965.946,1044.19 972.745,1041.53 979.544,1038.88 986.343,1036.25 993.142,1033.64 999.941,1031.03 
  1006.74,1028.45 1013.54,1025.87 1020.34,1023.32 1027.14,1020.77 1033.94,1018.25 1040.74,1015.73 1047.53,1013.24 1054.33,1010.75 1061.13,1008.29 1067.93,1005.83 
  1074.73,1003.39 1081.53,1000.96 1088.33,998.551 1095.13,996.147 1101.93,993.768 1108.73,991.391 1115.53,989.041 1122.32,986.691 1129.12,984.369 1135.92,982.048 
  1142.72,979.75 1149.52,977.459 1156.32,975.184 1163.12,972.922 1169.92,970.669 1176.72,968.437 1183.52,966.205 1190.32,964.001 1197.11,961.799 1203.91,959.613 
  1210.71,957.441 1217.51,955.272 1224.31,953.13 1231.11,950.987 1237.91,948.862 1244.71,946.75 1251.51,944.638 1258.31,942.554 1265.11,940.472 1271.9,938.396 
  1278.7,936.345 1285.5,934.294 1292.3,932.254 1299.1,930.233 1305.9,928.212 1312.7,926.204 1319.5,924.214 1326.3,922.223 1333.1,920.243 1339.9,918.284 
  1346.69,916.324 1353.49,914.368 1360.29,912.439 1367.09,910.51 1373.89,908.581 1380.69,906.674 1387.49,904.776 1394.29,902.877 1401.09,900.984 1407.89,899.116 
  1414.69,897.249 1421.48,895.381 1428.28,893.525 1435.08,891.688 1441.88,889.851 1448.68,888.014 1455.48,886.189 1462.28,884.383 1469.08,882.576 1475.88,880.77 
  1482.68,878.967 1489.48,877.191 1496.27,875.416 1503.07,873.64 1509.87,871.865 1516.67,870.105 1523.47,868.36 1530.27,866.615 1537.07,864.87 1543.87,863.125 
  1550.67,861.397 1557.47,859.683 1564.27,857.968 1571.06,856.253 1577.86,854.539 1584.66,852.831 1591.46,851.147 1598.26,849.463 1605.06,847.779 1611.86,846.095 
  1618.66,844.41 1625.46,842.738 1632.26,841.084 1639.06,839.43 1645.85,837.776 1652.65,836.122 1659.45,834.468 1666.25,832.814 1673.05,831.19 1679.85,829.566 
  1686.65,827.942 1693.45,826.318 1700.25,824.694 1707.05,823.07 1713.85,821.446 1720.64,819.848 1727.44,818.254 1734.24,816.66 1741.04,815.065 1747.84,813.471 
  1754.64,811.877 1761.44,810.283 1768.24,808.688 1775.04,807.121 1781.84,805.557 1788.64,803.992 1795.43,802.427 1802.23,800.862 1809.03,799.298 1815.83,797.733 
  1822.63,796.168 1829.43,794.604 1836.23,793.065 1843.03,791.53 1849.83,789.994 1856.63,788.459 1863.43,786.923 1870.22,785.388 1877.02,783.852 1883.82,782.317 
  1890.62,780.781 1897.42,779.246 1904.22,777.725 1911.02,776.219 1917.82,774.712 1924.62,773.205 1931.42,771.698 1938.22,770.192 1945.01,768.685 1951.81,767.178 
  1958.61,765.672 1965.41,764.165 1972.21,762.658 1979.01,761.152 1985.81,759.657 1992.61,758.178 1999.41,756.7 2006.21,755.222 2013.01,753.743 2019.8,752.265 
  2026.6,750.787 2033.4,749.308 2040.2,747.83 2047,746.352 2053.8,744.873 2060.6,743.395 2067.4,741.917 2074.2,740.438 2081,738.96 2087.8,737.508 
  2094.59,736.058 2101.39,734.607 2108.19,733.157 2114.99,731.706 2121.79,730.256 2128.59,728.805 2135.39,727.355 2142.19,725.904 2148.99,724.454 2155.79,723.003 
  2162.59,721.552 2169.38,720.102 2176.18,718.651 2182.98,717.201 2189.78,715.75 2196.58,714.3 2203.38,712.857 2210.18,711.434 2216.98,710.01 2223.78,708.587 
  2230.58,707.163 2237.38,705.74 2244.17,704.316 2250.97,702.893 2257.77,701.47 2264.57,700.046 2271.37,698.623 2278.17,697.199 2284.97,695.776 2291.77,694.352 
  
  "/>
<polyline clip-path="url(#clip832)" style="stroke:#ffa500; stroke-width:4; stroke-opacity:1; fill:none" points="
  258.84,1006.03 265.639,1004.4 272.439,1002.77 279.238,1001.13 286.037,999.498 292.836,997.864 299.635,996.231 306.434,994.597 313.233,992.963 320.032,991.329 
  326.831,989.68 333.63,987.987 340.429,986.293 347.228,984.6 354.028,982.906 360.827,981.212 367.626,979.519 374.425,977.825 381.224,976.132 388.023,974.438 
  394.822,972.744 401.621,971.042 408.42,969.29 415.219,967.539 422.018,965.787 428.818,964.035 435.617,962.283 442.416,960.531 449.215,958.779 456.014,957.028 
  462.813,955.276 469.612,953.47 476.411,951.661 483.21,949.852 490.009,948.043 496.808,946.234 503.608,944.425 510.407,942.616 517.206,940.803 524.005,938.938 
  530.804,937.073 537.603,935.207 544.402,933.342 551.201,931.477 558,929.612 564.799,927.737 571.598,925.817 578.398,923.896 585.197,921.976 591.996,920.056 
  598.795,918.135 605.594,916.213 612.393,914.239 619.192,912.264 625.991,910.289 632.79,908.314 639.589,906.339 646.388,904.34 653.188,902.312 659.987,900.283 
  666.786,898.255 673.585,896.226 680.384,894.179 687.183,892.098 693.982,890.016 700.781,887.935 707.58,885.854 714.379,883.739 721.178,881.606 727.977,879.472 
  734.777,877.339 741.576,875.194 748.375,873.009 755.174,870.824 761.973,868.639 768.772,866.451 775.571,864.215 782.37,861.98 789.169,859.744 795.968,857.501 
  802.767,855.216 809.567,852.931 816.366,850.645 823.165,848.34 829.964,846.005 836.763,843.671 843.562,841.336 850.361,838.961 857.16,836.578 863.959,834.195 
  870.758,831.794 877.557,829.363 884.357,826.933 891.156,824.499 897.955,822.021 904.754,819.544 911.553,817.066 918.352,814.55 925.151,812.026 931.95,809.503 
  938.749,806.947 945.548,804.378 952.347,801.809 959.147,799.211 965.946,796.597 972.745,793.984 979.544,791.342 986.343,788.684 993.142,786.027 999.941,783.339 
  1006.74,780.638 1013.54,777.938 1020.34,775.203 1027.14,772.46 1033.94,769.718 1040.74,766.936 1047.53,764.151 1054.33,761.362 1061.13,758.537 1067.93,755.712 
  1074.73,752.875 1081.53,750.01 1088.33,747.145 1095.13,744.26 1101.93,741.356 1108.73,738.452 1115.53,735.519 1122.32,732.577 1129.12,729.635 1135.92,726.656 
  1142.72,723.676 1149.52,720.689 1156.32,717.672 1163.12,714.656 1169.92,711.624 1176.72,708.572 1183.52,705.519 1190.32,702.444 1197.11,699.356 1203.91,696.269 
  1210.71,693.152 1217.51,690.03 1224.31,686.907 1231.11,683.751 1237.91,680.596 1244.71,677.434 1251.51,674.246 1258.31,671.058 1265.11,667.858 1271.9,664.638 
  1278.7,661.418 1285.5,658.184 1292.3,654.933 1299.1,651.682 1305.9,648.415 1312.7,645.133 1319.5,641.851 1326.3,638.554 1333.1,635.243 1339.9,631.931 
  1346.69,628.605 1353.49,625.265 1360.29,621.924 1367.09,618.572 1373.89,615.204 1380.69,611.835 1387.49,608.459 1394.29,605.063 1401.09,601.667 1407.89,598.269 
  1414.69,594.847 1421.48,591.424 1428.28,588.001 1435.08,584.558 1441.88,581.109 1448.68,577.66 1455.48,574.202 1462.28,570.727 1469.08,567.253 1475.88,563.779 
  1482.68,560.282 1489.48,556.783 1496.27,553.284 1503.07,549.776 1509.87,546.253 1516.67,542.731 1523.47,539.208 1530.27,535.668 1537.07,532.122 1543.87,528.576 
  1550.67,525.03 1557.47,521.463 1564.27,517.894 1571.06,514.326 1577.86,510.756 1584.66,507.166 1591.46,503.576 1598.26,499.985 1605.06,496.395 1611.86,492.783 
  1618.66,489.171 1625.46,485.56 1632.26,481.948 1639.06,478.32 1645.85,474.687 1652.65,471.055 1659.45,467.423 1666.25,463.781 1673.05,460.129 1679.85,456.477 
  1686.65,452.825 1693.45,449.172 1700.25,445.503 1707.05,441.831 1713.85,438.159 1720.64,434.488 1727.44,430.813 1734.24,427.123 1741.04,423.433 1747.84,419.742 
  1754.64,416.052 1761.44,412.358 1768.24,408.649 1775.04,404.941 1781.84,401.233 1788.64,397.525 1795.43,393.815 1802.23,390.09 1809.03,386.364 1815.83,382.638 
  1822.63,378.912 1829.43,375.187 1836.23,371.451 1843.03,367.708 1849.83,363.966 1856.63,360.223 1863.43,356.48 1870.22,352.738 1877.02,348.981 1883.82,345.222 
  1890.62,341.463 1897.42,337.705 1904.22,333.946 1911.02,330.187 1917.82,326.415 1924.62,322.641 1931.42,318.866 1938.22,315.092 1945.01,311.317 1951.81,307.543 
  1958.61,303.762 1965.41,299.973 1972.21,296.183 1979.01,292.393 1985.81,288.604 1992.61,284.814 1999.41,281.025 2006.21,277.226 2013.01,273.422 2019.8,269.618 
  2026.6,265.814 2033.4,262.01 2040.2,258.206 2047,254.402 2053.8,250.593 2060.6,246.775 2067.4,242.957 2074.2,239.138 2081,235.32 2087.8,231.502 
  2094.59,227.684 2101.39,223.866 2108.19,220.04 2114.99,216.209 2121.79,212.377 2128.59,208.546 2135.39,204.714 2142.19,200.883 2148.99,197.051 2155.79,193.22 
  2162.59,189.385 2169.38,185.54 2176.18,181.696 2182.98,177.852 2189.78,174.007 2196.58,170.163 2203.38,166.319 2210.18,162.474 2216.98,158.63 2223.78,154.781 
  2230.58,150.925 2237.38,147.068 2244.17,143.211 2250.97,139.355 2257.77,135.498 2264.57,131.641 2271.37,127.785 2278.17,123.928 2284.97,120.072 2291.77,116.207 
  
  "/>
<path clip-path="url(#clip830)" d="
M1642.26 335.029 L2280.93 335.029 L2280.93 93.1086 L1642.26 93.1086  Z
  " fill="#ffffff" fill-rule="evenodd" fill-opacity="1"/>
<polyline clip-path="url(#clip830)" style="stroke:#000000; stroke-width:4; stroke-opacity:1; fill:none" points="
  1642.26,335.029 2280.93,335.029 2280.93,93.1086 1642.26,93.1086 1642.26,335.029 
  "/>
<circle clip-path="url(#clip830)" cx="1738.03" cy="153.589" r="23" fill="#0000ff" fill-rule="evenodd" fill-opacity="1" stroke="none"/>
<path clip-path="url(#clip830)" d="M 0 0 M1838.48 140.151 L1838.48 167.026 L1844.13 167.026 Q1851.28 167.026 1854.59 163.785 Q1857.93 160.545 1857.93 153.554 Q1857.93 146.609 1854.59 143.392 Q1851.28 140.151 1844.13 140.151 L1838.48 140.151 M1833.81 136.309 L1843.41 136.309 Q1853.46 136.309 1858.16 140.498 Q1862.86 144.665 1862.86 153.554 Q1862.86 162.489 1858.13 166.679 Q1853.41 170.869 1843.41 170.869 L1833.81 170.869 L1833.81 136.309 Z" fill="#000000" fill-rule="evenodd" fill-opacity="1" /><path clip-path="url(#clip830)" d="M 0 0 M1879.11 157.836 Q1873.94 157.836 1871.95 159.017 Q1869.96 160.197 1869.96 163.045 Q1869.96 165.313 1871.44 166.656 Q1872.95 167.975 1875.52 167.975 Q1879.06 167.975 1881.19 165.475 Q1883.34 162.952 1883.34 158.785 L1883.34 157.836 L1879.11 157.836 M1887.6 156.077 L1887.6 170.869 L1883.34 170.869 L1883.34 166.933 Q1881.88 169.295 1879.71 170.429 Q1877.53 171.54 1874.38 171.54 Q1870.4 171.54 1868.04 169.318 Q1865.7 167.072 1865.7 163.322 Q1865.7 158.947 1868.62 156.725 Q1871.56 154.503 1877.37 154.503 L1883.34 154.503 L1883.34 154.086 Q1883.34 151.147 1881.4 149.549 Q1879.48 147.929 1875.98 147.929 Q1873.76 147.929 1871.65 148.461 Q1869.55 148.994 1867.6 150.059 L1867.6 146.123 Q1869.94 145.221 1872.14 144.781 Q1874.34 144.318 1876.42 144.318 Q1882.05 144.318 1884.82 147.234 Q1887.6 150.151 1887.6 156.077 Z" fill="#000000" fill-rule="evenodd" fill-opacity="1" /><path clip-path="url(#clip830)" d="M 0 0 M1896.28 137.582 L1896.28 144.943 L1905.05 144.943 L1905.05 148.253 L1896.28 148.253 L1896.28 162.327 Q1896.28 165.498 1897.14 166.401 Q1898.02 167.304 1900.68 167.304 L1905.05 167.304 L1905.05 170.869 L1900.68 170.869 Q1895.75 170.869 1893.87 169.04 Q1892 167.188 1892 162.327 L1892 148.253 L1888.87 148.253 L1888.87 144.943 L1892 144.943 L1892 137.582 L1896.28 137.582 Z" fill="#000000" fill-rule="evenodd" fill-opacity="1" /><path clip-path="url(#clip830)" d="M 0 0 M1921.3 157.836 Q1916.14 157.836 1914.15 159.017 Q1912.16 160.197 1912.16 163.045 Q1912.16 165.313 1913.64 166.656 Q1915.15 167.975 1917.72 167.975 Q1921.26 167.975 1923.39 165.475 Q1925.54 162.952 1925.54 158.785 L1925.54 157.836 L1921.3 157.836 M1929.8 156.077 L1929.8 170.869 L1925.54 170.869 L1925.54 166.933 Q1924.08 169.295 1921.91 170.429 Q1919.73 171.54 1916.58 171.54 Q1912.6 171.54 1910.24 169.318 Q1907.9 167.072 1907.9 163.322 Q1907.9 158.947 1910.82 156.725 Q1913.76 154.503 1919.57 154.503 L1925.54 154.503 L1925.54 154.086 Q1925.54 151.147 1923.6 149.549 Q1921.67 147.929 1918.18 147.929 Q1915.96 147.929 1913.85 148.461 Q1911.74 148.994 1909.8 150.059 L1909.8 146.123 Q1912.14 145.221 1914.34 144.781 Q1916.54 144.318 1918.62 144.318 Q1924.24 144.318 1927.02 147.234 Q1929.8 150.151 1929.8 156.077 Z" fill="#000000" fill-rule="evenodd" fill-opacity="1" /><polyline clip-path="url(#clip830)" style="stroke:#ff0000; stroke-width:4; stroke-opacity:1; fill:none" points="
  1666.2,214.069 1809.86,214.069 
  "/>
<path clip-path="url(#clip830)" d="M 0 0 M1833.81 196.789 L1853.67 196.789 L1853.67 200.724 L1838.48 200.724 L1838.48 210.909 L1852.18 210.909 L1852.18 214.844 L1838.48 214.844 L1838.48 231.349 L1833.81 231.349 L1833.81 196.789 Z" fill="#000000" fill-rule="evenodd" fill-opacity="1" /><path clip-path="url(#clip830)" d="M 0 0 M1854.68 205.423 L1858.94 205.423 L1858.94 231.349 L1854.68 231.349 L1854.68 205.423 M1854.68 195.33 L1858.94 195.33 L1858.94 200.724 L1854.68 200.724 L1854.68 195.33 Z" fill="#000000" fill-rule="evenodd" fill-opacity="1" /><path clip-path="url(#clip830)" d="M 0 0 M1867.62 198.062 L1867.62 205.423 L1876.4 205.423 L1876.4 208.733 L1867.62 208.733 L1867.62 222.807 Q1867.62 225.978 1868.48 226.881 Q1869.36 227.784 1872.02 227.784 L1876.4 227.784 L1876.4 231.349 L1872.02 231.349 Q1867.09 231.349 1865.22 229.52 Q1863.34 227.668 1863.34 222.807 L1863.34 208.733 L1860.22 208.733 L1860.22 205.423 L1863.34 205.423 L1863.34 198.062 L1867.62 198.062 Z" fill="#000000" fill-rule="evenodd" fill-opacity="1" /><path clip-path="url(#clip830)" d="M 0 0 M1893.46 205.423 L1897.72 205.423 L1903.04 225.654 L1908.34 205.423 L1913.36 205.423 L1918.69 225.654 L1923.99 205.423 L1928.25 205.423 L1921.47 231.349 L1916.44 231.349 L1910.86 210.099 L1905.26 231.349 L1900.24 231.349 L1893.46 205.423 Z" fill="#000000" fill-rule="evenodd" fill-opacity="1" /><path clip-path="url(#clip830)" d="M 0 0 M1932.72 205.423 L1936.98 205.423 L1936.98 231.349 L1932.72 231.349 L1932.72 205.423 M1932.72 195.33 L1936.98 195.33 L1936.98 200.724 L1932.72 200.724 L1932.72 195.33 Z" fill="#000000" fill-rule="evenodd" fill-opacity="1" /><path clip-path="url(#clip830)" d="M 0 0 M1945.66 198.062 L1945.66 205.423 L1954.43 205.423 L1954.43 208.733 L1945.66 208.733 L1945.66 222.807 Q1945.66 225.978 1946.51 226.881 Q1947.39 227.784 1950.05 227.784 L1954.43 227.784 L1954.43 231.349 L1950.05 231.349 Q1945.12 231.349 1943.25 229.52 Q1941.37 227.668 1941.37 222.807 L1941.37 208.733 L1938.25 208.733 L1938.25 205.423 L1941.37 205.423 L1941.37 198.062 L1945.66 198.062 Z" fill="#000000" fill-rule="evenodd" fill-opacity="1" /><path clip-path="url(#clip830)" d="M 0 0 M1980.45 215.701 L1980.45 231.349 L1976.19 231.349 L1976.19 215.839 Q1976.19 212.159 1974.75 210.33 Q1973.32 208.502 1970.45 208.502 Q1967 208.502 1965.01 210.701 Q1963.02 212.9 1963.02 216.696 L1963.02 231.349 L1958.73 231.349 L1958.73 195.33 L1963.02 195.33 L1963.02 209.451 Q1964.55 207.113 1966.61 205.955 Q1968.69 204.798 1971.4 204.798 Q1975.86 204.798 1978.16 207.576 Q1980.45 210.33 1980.45 215.701 Z" fill="#000000" fill-rule="evenodd" fill-opacity="1" /><path clip-path="url(#clip830)" d="M 0 0 M2016.56 215.145 Q2018.06 215.654 2019.48 217.321 Q2020.91 218.988 2022.35 221.904 L2027.09 231.349 L2022.07 231.349 L2017.65 222.483 Q2015.93 219.011 2014.31 217.876 Q2012.72 216.742 2009.94 216.742 L2004.85 216.742 L2004.85 231.349 L2000.17 231.349 L2000.17 196.789 L2010.73 196.789 Q2016.65 196.789 2019.57 199.265 Q2022.48 201.742 2022.48 206.742 Q2022.48 210.006 2020.96 212.159 Q2019.45 214.312 2016.56 215.145 M2004.85 200.631 L2004.85 212.9 L2010.73 212.9 Q2014.11 212.9 2015.82 211.349 Q2017.55 209.775 2017.55 206.742 Q2017.55 203.71 2015.82 202.182 Q2014.11 200.631 2010.73 200.631 L2004.85 200.631 Z" fill="#000000" fill-rule="evenodd" fill-opacity="1" /><path clip-path="url(#clip830)" d="M 0 0 M2052.46 197.923 L2052.46 202.483 Q2049.8 201.21 2047.44 200.585 Q2045.08 199.96 2042.88 199.96 Q2039.06 199.96 2036.98 201.441 Q2034.92 202.923 2034.92 205.654 Q2034.92 207.946 2036.28 209.127 Q2037.67 210.284 2041.51 211.002 L2044.34 211.58 Q2049.57 212.576 2052.04 215.099 Q2054.54 217.599 2054.54 221.812 Q2054.54 226.835 2051.17 229.427 Q2047.81 232.02 2041.3 232.02 Q2038.85 232.02 2036.07 231.464 Q2033.32 230.909 2030.35 229.821 L2030.35 225.006 Q2033.2 226.603 2035.93 227.413 Q2038.67 228.224 2041.3 228.224 Q2045.31 228.224 2047.48 226.65 Q2049.66 225.076 2049.66 222.159 Q2049.66 219.613 2048.09 218.177 Q2046.54 216.742 2042.97 216.025 L2040.12 215.469 Q2034.89 214.427 2032.55 212.205 Q2030.22 209.983 2030.22 206.025 Q2030.22 201.441 2033.43 198.802 Q2036.67 196.164 2042.35 196.164 Q2044.78 196.164 2047.3 196.603 Q2049.82 197.043 2052.46 197.923 Z" fill="#000000" fill-rule="evenodd" fill-opacity="1" /><path clip-path="url(#clip830)" d="M 0 0 M2059.2 196.789 L2081.05 196.789 L2081.05 200.724 L2063.87 200.724 L2063.87 210.955 L2080.33 210.955 L2080.33 214.89 L2063.87 214.89 L2063.87 227.413 L2081.47 227.413 L2081.47 231.349 L2059.2 231.349 L2059.2 196.789 Z" fill="#000000" fill-rule="evenodd" fill-opacity="1" /><path clip-path="url(#clip830)" d="M 0 0 M2116.16 216.927 L2116.16 221.071 Q2113.73 222.876 2111.65 223.687 Q2109.59 224.474 2107.35 224.474 Q2104.8 224.474 2101.42 223.108 Q2101.19 223.015 2101.03 222.946 Q2100.89 222.9 2100.54 222.761 Q2096.95 221.349 2094.78 221.349 Q2092.74 221.349 2090.75 222.228 Q2088.76 223.108 2086.49 225.052 L2086.49 220.909 Q2088.92 219.103 2090.98 218.316 Q2093.06 217.506 2095.31 217.506 Q2097.85 217.506 2101.26 218.872 Q2101.51 218.988 2101.63 219.034 Q2101.77 219.08 2102.11 219.219 Q2105.7 220.631 2107.88 220.631 Q2109.87 220.631 2111.81 219.775 Q2113.78 218.895 2116.16 216.927 M2116.16 207.923 L2116.16 212.043 Q2113.73 213.872 2111.65 214.682 Q2109.59 215.469 2107.35 215.469 Q2104.8 215.469 2101.42 214.103 Q2101.19 214.011 2101.03 213.941 Q2100.89 213.895 2100.54 213.756 Q2096.95 212.344 2094.78 212.344 Q2092.74 212.344 2090.75 213.224 Q2088.76 214.103 2086.49 216.025 L2086.49 211.904 Q2088.92 210.099 2090.98 209.312 Q2093.06 208.502 2095.31 208.502 Q2097.85 208.502 2101.26 209.867 Q2101.49 209.96 2101.6 210.006 Q2101.77 210.076 2102.11 210.214 Q2105.7 211.627 2107.88 211.627 Q2109.87 211.627 2111.81 210.77 Q2113.78 209.89 2116.16 207.923 Z" fill="#000000" fill-rule="evenodd" fill-opacity="1" /><path clip-path="url(#clip830)" d="M 0 0 M2131.23 199.867 Q2127.62 199.867 2125.79 203.432 Q2123.99 206.974 2123.99 214.103 Q2123.99 221.21 2125.79 224.775 Q2127.62 228.316 2131.23 228.316 Q2134.87 228.316 2136.67 224.775 Q2138.5 221.21 2138.5 214.103 Q2138.5 206.974 2136.67 203.432 Q2134.87 199.867 2131.23 199.867 M2131.23 196.164 Q2137.04 196.164 2140.1 200.77 Q2143.18 205.353 2143.18 214.103 Q2143.18 222.83 2140.1 227.437 Q2137.04 232.02 2131.23 232.02 Q2125.42 232.02 2122.35 227.437 Q2119.29 222.83 2119.29 214.103 Q2119.29 205.353 2122.35 200.77 Q2125.42 196.164 2131.23 196.164 Z" fill="#000000" fill-rule="evenodd" fill-opacity="1" /><path clip-path="url(#clip830)" d="M 0 0 M2148.25 225.469 L2153.13 225.469 L2153.13 231.349 L2148.25 231.349 L2148.25 225.469 Z" fill="#000000" fill-rule="evenodd" fill-opacity="1" /><path clip-path="url(#clip830)" d="M 0 0 M2168.78 212.205 Q2165.63 212.205 2163.78 214.358 Q2161.95 216.511 2161.95 220.261 Q2161.95 223.988 2163.78 226.163 Q2165.63 228.316 2168.78 228.316 Q2171.93 228.316 2173.76 226.163 Q2175.61 223.988 2175.61 220.261 Q2175.61 216.511 2173.76 214.358 Q2171.93 212.205 2168.78 212.205 M2178.06 197.553 L2178.06 201.812 Q2176.3 200.978 2174.5 200.539 Q2172.72 200.099 2170.96 200.099 Q2166.33 200.099 2163.87 203.224 Q2161.44 206.349 2161.09 212.668 Q2162.46 210.654 2164.52 209.589 Q2166.58 208.502 2169.06 208.502 Q2174.27 208.502 2177.28 211.673 Q2180.31 214.821 2180.31 220.261 Q2180.31 225.585 2177.16 228.802 Q2174.01 232.02 2168.78 232.02 Q2162.78 232.02 2159.61 227.437 Q2156.44 222.83 2156.44 214.103 Q2156.44 205.909 2160.33 201.048 Q2164.22 196.164 2170.77 196.164 Q2172.53 196.164 2174.31 196.511 Q2176.12 196.858 2178.06 197.553 Z" fill="#000000" fill-rule="evenodd" fill-opacity="1" /><path clip-path="url(#clip830)" d="M 0 0 M2199.54 212.714 Q2202.9 213.432 2204.78 215.701 Q2206.67 217.969 2206.67 221.302 Q2206.67 226.418 2203.15 229.219 Q2199.64 232.02 2193.16 232.02 Q2190.98 232.02 2188.66 231.58 Q2186.37 231.163 2183.92 230.307 L2183.92 225.793 Q2185.86 226.927 2188.18 227.506 Q2190.49 228.085 2193.02 228.085 Q2197.41 228.085 2199.71 226.349 Q2202.02 224.613 2202.02 221.302 Q2202.02 218.247 2199.87 216.534 Q2197.74 214.798 2193.92 214.798 L2189.89 214.798 L2189.89 210.955 L2194.1 210.955 Q2197.55 210.955 2199.38 209.589 Q2201.21 208.201 2201.21 205.608 Q2201.21 202.946 2199.31 201.534 Q2197.44 200.099 2193.92 200.099 Q2192 200.099 2189.8 200.515 Q2187.6 200.932 2184.96 201.812 L2184.96 197.645 Q2187.62 196.904 2189.94 196.534 Q2192.28 196.164 2194.34 196.164 Q2199.66 196.164 2202.76 198.594 Q2205.86 201.002 2205.86 205.122 Q2205.86 207.992 2204.22 209.983 Q2202.58 211.951 2199.54 212.714 Z" fill="#000000" fill-rule="evenodd" fill-opacity="1" /><path clip-path="url(#clip830)" d="M 0 0 M2225.91 212.714 Q2229.27 213.432 2231.14 215.701 Q2233.04 217.969 2233.04 221.302 Q2233.04 226.418 2229.52 229.219 Q2226 232.02 2219.52 232.02 Q2217.34 232.02 2215.03 231.58 Q2212.74 231.163 2210.28 230.307 L2210.28 225.793 Q2212.23 226.927 2214.54 227.506 Q2216.86 228.085 2219.38 228.085 Q2223.78 228.085 2226.07 226.349 Q2228.39 224.613 2228.39 221.302 Q2228.39 218.247 2226.23 216.534 Q2224.1 214.798 2220.28 214.798 L2216.26 214.798 L2216.26 210.955 L2220.47 210.955 Q2223.92 210.955 2225.75 209.589 Q2227.58 208.201 2227.58 205.608 Q2227.58 202.946 2225.68 201.534 Q2223.8 200.099 2220.28 200.099 Q2218.36 200.099 2216.16 200.515 Q2213.97 200.932 2211.33 201.812 L2211.33 197.645 Q2213.99 196.904 2216.3 196.534 Q2218.64 196.164 2220.7 196.164 Q2226.03 196.164 2229.13 198.594 Q2232.23 201.002 2232.23 205.122 Q2232.23 207.992 2230.59 209.983 Q2228.94 211.951 2225.91 212.714 Z" fill="#000000" fill-rule="evenodd" fill-opacity="1" /><polyline clip-path="url(#clip830)" style="stroke:#ffa500; stroke-width:4; stroke-opacity:1; fill:none" points="
  1666.2,274.549 1809.86,274.549 
  "/>
<path clip-path="url(#clip830)" d="M 0 0 M1861.68 259.931 L1861.68 264.861 Q1859.31 262.662 1856.63 261.574 Q1853.97 260.486 1850.96 260.486 Q1845.03 260.486 1841.88 264.12 Q1838.74 267.732 1838.74 274.583 Q1838.74 281.412 1841.88 285.046 Q1845.03 288.657 1850.96 288.657 Q1853.97 288.657 1856.63 287.569 Q1859.31 286.481 1861.68 284.282 L1861.68 289.167 Q1859.22 290.833 1856.47 291.667 Q1853.74 292.5 1850.68 292.5 Q1842.83 292.5 1838.32 287.708 Q1833.81 282.893 1833.81 274.583 Q1833.81 266.25 1838.32 261.458 Q1842.83 256.644 1850.68 256.644 Q1853.78 256.644 1856.51 257.477 Q1859.27 258.287 1861.68 259.931 Z" fill="#000000" fill-rule="evenodd" fill-opacity="1" /><path clip-path="url(#clip830)" d="M 0 0 M1876.19 268.889 Q1872.76 268.889 1870.77 271.574 Q1868.78 274.236 1868.78 278.889 Q1868.78 283.542 1870.75 286.227 Q1872.74 288.889 1876.19 288.889 Q1879.59 288.889 1881.58 286.204 Q1883.57 283.518 1883.57 278.889 Q1883.57 274.282 1881.58 271.597 Q1879.59 268.889 1876.19 268.889 M1876.19 265.278 Q1881.74 265.278 1884.92 268.889 Q1888.09 272.5 1888.09 278.889 Q1888.09 285.255 1884.92 288.889 Q1881.74 292.5 1876.19 292.5 Q1870.61 292.5 1867.44 288.889 Q1864.29 285.255 1864.29 278.889 Q1864.29 272.5 1867.44 268.889 Q1870.61 265.278 1876.19 265.278 Z" fill="#000000" fill-rule="evenodd" fill-opacity="1" /><path clip-path="url(#clip830)" d="M 0 0 M1914.11 276.181 L1914.11 291.829 L1909.85 291.829 L1909.85 276.319 Q1909.85 272.639 1908.41 270.81 Q1906.98 268.982 1904.11 268.982 Q1900.66 268.982 1898.67 271.181 Q1896.68 273.38 1896.68 277.176 L1896.68 291.829 L1892.39 291.829 L1892.39 265.903 L1896.68 265.903 L1896.68 269.931 Q1898.2 267.593 1900.26 266.435 Q1902.35 265.278 1905.05 265.278 Q1909.52 265.278 1911.81 268.056 Q1914.11 270.81 1914.11 276.181 Z" fill="#000000" fill-rule="evenodd" fill-opacity="1" /><path clip-path="url(#clip830)" d="M 0 0 M1931.7 255.81 L1931.7 259.352 L1927.62 259.352 Q1925.33 259.352 1924.43 260.278 Q1923.55 261.204 1923.55 263.611 L1923.55 265.903 L1930.56 265.903 L1930.56 269.213 L1923.55 269.213 L1923.55 291.829 L1919.27 291.829 L1919.27 269.213 L1915.19 269.213 L1915.19 265.903 L1919.27 265.903 L1919.27 264.097 Q1919.27 259.769 1921.28 257.801 Q1923.3 255.81 1927.67 255.81 L1931.7 255.81 Z" fill="#000000" fill-rule="evenodd" fill-opacity="1" /><path clip-path="url(#clip830)" d="M 0 0 M1933.32 285.949 L1938.2 285.949 L1938.2 291.829 L1933.32 291.829 L1933.32 285.949 Z" fill="#000000" fill-rule="evenodd" fill-opacity="1" /><path clip-path="url(#clip830)" d="M 0 0 M1962.6 275.324 L1962.6 287.986 L1970.1 287.986 Q1973.87 287.986 1975.68 286.435 Q1977.51 284.861 1977.51 281.643 Q1977.51 278.403 1975.68 276.875 Q1973.87 275.324 1970.1 275.324 L1962.6 275.324 M1962.6 261.111 L1962.6 271.528 L1969.52 271.528 Q1972.95 271.528 1974.61 270.255 Q1976.3 268.958 1976.3 266.319 Q1976.3 263.704 1974.61 262.407 Q1972.95 261.111 1969.52 261.111 L1962.6 261.111 M1957.92 257.269 L1969.87 257.269 Q1975.22 257.269 1978.11 259.491 Q1981 261.713 1981 265.81 Q1981 268.982 1979.52 270.857 Q1978.04 272.731 1975.17 273.194 Q1978.62 273.935 1980.52 276.296 Q1982.44 278.634 1982.44 282.153 Q1982.44 286.782 1979.29 289.305 Q1976.14 291.829 1970.33 291.829 L1957.92 291.829 L1957.92 257.269 Z" fill="#000000" fill-rule="evenodd" fill-opacity="1" /><path clip-path="url(#clip830)" d="M 0 0 M1998.69 278.796 Q1993.53 278.796 1991.54 279.977 Q1989.54 281.157 1989.54 284.005 Q1989.54 286.273 1991.03 287.616 Q1992.53 288.935 1995.1 288.935 Q1998.64 288.935 2000.77 286.435 Q2002.92 283.912 2002.92 279.745 L2002.92 278.796 L1998.69 278.796 M2007.18 277.037 L2007.18 291.829 L2002.92 291.829 L2002.92 287.893 Q2001.47 290.255 1999.29 291.389 Q1997.11 292.5 1993.97 292.5 Q1989.98 292.5 1987.62 290.278 Q1985.29 288.032 1985.29 284.282 Q1985.29 279.907 1988.2 277.685 Q1991.14 275.463 1996.95 275.463 L2002.92 275.463 L2002.92 275.046 Q2002.92 272.107 2000.98 270.509 Q1999.06 268.889 1995.56 268.889 Q1993.34 268.889 1991.23 269.421 Q1989.13 269.954 1987.18 271.019 L1987.18 267.083 Q1989.52 266.181 1991.72 265.741 Q1993.92 265.278 1996 265.278 Q2001.63 265.278 2004.41 268.194 Q2007.18 271.111 2007.18 277.037 Z" fill="#000000" fill-rule="evenodd" fill-opacity="1" /><path clip-path="url(#clip830)" d="M 0 0 M2033.2 276.181 L2033.2 291.829 L2028.94 291.829 L2028.94 276.319 Q2028.94 272.639 2027.51 270.81 Q2026.07 268.982 2023.2 268.982 Q2019.75 268.982 2017.76 271.181 Q2015.77 273.38 2015.77 277.176 L2015.77 291.829 L2011.49 291.829 L2011.49 265.903 L2015.77 265.903 L2015.77 269.931 Q2017.3 267.593 2019.36 266.435 Q2021.44 265.278 2024.15 265.278 Q2028.62 265.278 2030.91 268.056 Q2033.2 270.81 2033.2 276.181 Z" fill="#000000" fill-rule="evenodd" fill-opacity="1" /><path clip-path="url(#clip830)" d="M 0 0 M2054.73 269.838 L2054.73 255.81 L2058.99 255.81 L2058.99 291.829 L2054.73 291.829 L2054.73 287.94 Q2053.39 290.255 2051.33 291.389 Q2049.29 292.5 2046.42 292.5 Q2041.72 292.5 2038.76 288.75 Q2035.82 285 2035.82 278.889 Q2035.82 272.778 2038.76 269.028 Q2041.72 265.278 2046.42 265.278 Q2049.29 265.278 2051.33 266.412 Q2053.39 267.523 2054.73 269.838 M2040.22 278.889 Q2040.22 283.588 2042.14 286.273 Q2044.08 288.935 2047.46 288.935 Q2050.84 288.935 2052.79 286.273 Q2054.73 283.588 2054.73 278.889 Q2054.73 274.19 2052.79 271.528 Q2050.84 268.843 2047.46 268.843 Q2044.08 268.843 2042.14 271.528 Q2040.22 274.19 2040.22 278.889 Z" fill="#000000" fill-rule="evenodd" fill-opacity="1" /></svg>
