<?xml version="1.0" encoding="utf-8"?>
<svg xmlns="http://www.w3.org/2000/svg" xmlns:xlink="http://www.w3.org/1999/xlink" width="600" height="400" viewBox="0 0 2400 1600">
<defs>
  <clipPath id="clip270">
    <rect x="0" y="0" width="2400" height="1600"/>
  </clipPath>
</defs>
<path clip-path="url(#clip270)" d="
M0 1600 L2400 1600 L2400 0 L0 0  Z
  " fill="#ffffff" fill-rule="evenodd" fill-opacity="1"/>
<defs>
  <clipPath id="clip271">
    <rect x="480" y="0" width="1681" height="1600"/>
  </clipPath>
</defs>
<path clip-path="url(#clip270)" d="
M197.852 1423.18 L2352.76 1423.18 L2352.76 47.2441 L197.852 47.2441  Z
  " fill="#ffffff" fill-rule="evenodd" fill-opacity="1"/>
<defs>
  <clipPath id="clip272">
    <rect x="197" y="47" width="2156" height="1377"/>
  </clipPath>
</defs>
<polyline clip-path="url(#clip272)" style="stroke:#000000; stroke-width:2; stroke-opacity:0.1; fill:none" points="
  258.84,1423.18 258.84,47.2441 
  "/>
<polyline clip-path="url(#clip272)" style="stroke:#000000; stroke-width:2; stroke-opacity:0.1; fill:none" points="
  936.483,1423.18 936.483,47.2441 
  "/>
<polyline clip-path="url(#clip272)" style="stroke:#000000; stroke-width:2; stroke-opacity:0.1; fill:none" points="
  1614.13,1423.18 1614.13,47.2441 
  "/>
<polyline clip-path="url(#clip272)" style="stroke:#000000; stroke-width:2; stroke-opacity:0.1; fill:none" points="
  2291.77,1423.18 2291.77,47.2441 
  "/>
<polyline clip-path="url(#clip270)" style="stroke:#000000; stroke-width:4; stroke-opacity:1; fill:none" points="
  197.852,1423.18 2352.76,1423.18 
  "/>
<polyline clip-path="url(#clip270)" style="stroke:#000000; stroke-width:4; stroke-opacity:1; fill:none" points="
  258.84,1423.18 258.84,1404.28 
  "/>
<polyline clip-path="url(#clip270)" style="stroke:#000000; stroke-width:4; stroke-opacity:1; fill:none" points="
  936.483,1423.18 936.483,1404.28 
  "/>
<polyline clip-path="url(#clip270)" style="stroke:#000000; stroke-width:4; stroke-opacity:1; fill:none" points="
  1614.13,1423.18 1614.13,1404.28 
  "/>
<polyline clip-path="url(#clip270)" style="stroke:#000000; stroke-width:4; stroke-opacity:1; fill:none" points="
  2291.77,1423.18 2291.77,1404.28 
  "/>
<path clip-path="url(#clip270)" d="M 0 0 M249.222 1479.92 L256.861 1479.92 L256.861 1453.55 L248.551 1455.22 L248.551 1450.96 L256.815 1449.29 L261.491 1449.29 L261.491 1479.92 L269.13 1479.92 L269.13 1483.85 L249.222 1483.85 L249.222 1479.92 Z" fill="#000000" fill-rule="evenodd" fill-opacity="1" /><path clip-path="url(#clip270)" d="M 0 0 M931.136 1479.92 L947.455 1479.92 L947.455 1483.85 L925.511 1483.85 L925.511 1479.92 Q928.173 1477.16 932.756 1472.53 Q937.363 1467.88 938.543 1466.54 Q940.788 1464.01 941.668 1462.28 Q942.571 1460.52 942.571 1458.83 Q942.571 1456.07 940.626 1454.34 Q938.705 1452.6 935.603 1452.6 Q933.404 1452.6 930.951 1453.37 Q928.52 1454.13 925.742 1455.68 L925.742 1450.96 Q928.566 1449.82 931.02 1449.25 Q933.474 1448.67 935.511 1448.67 Q940.881 1448.67 944.075 1451.35 Q947.27 1454.04 947.27 1458.53 Q947.27 1460.66 946.46 1462.58 Q945.673 1464.48 943.566 1467.07 Q942.988 1467.74 939.886 1470.96 Q936.784 1474.15 931.136 1479.92 Z" fill="#000000" fill-rule="evenodd" fill-opacity="1" /><path clip-path="url(#clip270)" d="M 0 0 M1618.37 1465.22 Q1621.73 1465.94 1623.6 1468.2 Q1625.5 1470.47 1625.5 1473.81 Q1625.5 1478.92 1621.98 1481.72 Q1618.47 1484.52 1611.98 1484.52 Q1609.81 1484.52 1607.49 1484.08 Q1605.2 1483.67 1602.75 1482.81 L1602.75 1478.3 Q1604.69 1479.43 1607.01 1480.01 Q1609.32 1480.59 1611.85 1480.59 Q1616.24 1480.59 1618.54 1478.85 Q1620.85 1477.12 1620.85 1473.81 Q1620.85 1470.75 1618.7 1469.04 Q1616.57 1467.3 1612.75 1467.3 L1608.72 1467.3 L1608.72 1463.46 L1612.93 1463.46 Q1616.38 1463.46 1618.21 1462.09 Q1620.04 1460.7 1620.04 1458.11 Q1620.04 1455.45 1618.14 1454.04 Q1616.27 1452.6 1612.75 1452.6 Q1610.83 1452.6 1608.63 1453.02 Q1606.43 1453.44 1603.79 1454.31 L1603.79 1450.15 Q1606.45 1449.41 1608.77 1449.04 Q1611.1 1448.67 1613.16 1448.67 Q1618.49 1448.67 1621.59 1451.1 Q1624.69 1453.5 1624.69 1457.63 Q1624.69 1460.5 1623.05 1462.49 Q1621.41 1464.45 1618.37 1465.22 Z" fill="#000000" fill-rule="evenodd" fill-opacity="1" /><path clip-path="url(#clip270)" d="M 0 0 M2294.78 1453.37 L2282.97 1471.81 L2294.78 1471.81 L2294.78 1453.37 M2293.55 1449.29 L2299.43 1449.29 L2299.43 1471.81 L2304.36 1471.81 L2304.36 1475.7 L2299.43 1475.7 L2299.43 1483.85 L2294.78 1483.85 L2294.78 1475.7 L2279.18 1475.7 L2279.18 1471.19 L2293.55 1449.29 Z" fill="#000000" fill-rule="evenodd" fill-opacity="1" /><path clip-path="url(#clip270)" d="M 0 0 M1291.92 1532.4 L1279.03 1549.74 L1292.59 1568.04 L1285.68 1568.04 L1275.3 1554.04 L1264.93 1568.04 L1258.02 1568.04 L1271.87 1549.39 L1259.2 1532.4 L1266.11 1532.4 L1275.56 1545.1 L1285.01 1532.4 L1291.92 1532.4 Z" fill="#000000" fill-rule="evenodd" fill-opacity="1" /><polyline clip-path="url(#clip272)" style="stroke:#000000; stroke-width:2; stroke-opacity:0.1; fill:none" points="
  197.852,1151.46 2352.76,1151.46 
  "/>
<polyline clip-path="url(#clip272)" style="stroke:#000000; stroke-width:2; stroke-opacity:0.1; fill:none" points="
  197.852,796.371 2352.76,796.371 
  "/>
<polyline clip-path="url(#clip272)" style="stroke:#000000; stroke-width:2; stroke-opacity:0.1; fill:none" points="
  197.852,441.278 2352.76,441.278 
  "/>
<polyline clip-path="url(#clip272)" style="stroke:#000000; stroke-width:2; stroke-opacity:0.1; fill:none" points="
  197.852,86.1857 2352.76,86.1857 
  "/>
<polyline clip-path="url(#clip270)" style="stroke:#000000; stroke-width:4; stroke-opacity:1; fill:none" points="
  197.852,1423.18 197.852,47.2441 
  "/>
<polyline clip-path="url(#clip270)" style="stroke:#000000; stroke-width:4; stroke-opacity:1; fill:none" points="
  197.852,1151.46 216.75,1151.46 
  "/>
<polyline clip-path="url(#clip270)" style="stroke:#000000; stroke-width:4; stroke-opacity:1; fill:none" points="
  197.852,796.371 216.75,796.371 
  "/>
<polyline clip-path="url(#clip270)" style="stroke:#000000; stroke-width:4; stroke-opacity:1; fill:none" points="
  197.852,441.278 216.75,441.278 
  "/>
<polyline clip-path="url(#clip270)" style="stroke:#000000; stroke-width:4; stroke-opacity:1; fill:none" points="
  197.852,86.1857 216.75,86.1857 
  "/>
<path clip-path="url(#clip270)" d="M 0 0 M152.269 1138.26 L140.464 1156.71 L152.269 1156.71 L152.269 1138.26 M151.042 1134.18 L156.922 1134.18 L156.922 1156.71 L161.852 1156.71 L161.852 1160.6 L156.922 1160.6 L156.922 1168.74 L152.269 1168.74 L152.269 1160.6 L136.667 1160.6 L136.667 1156.08 L151.042 1134.18 Z" fill="#000000" fill-rule="evenodd" fill-opacity="1" /><path clip-path="url(#clip270)" d="M 0 0 M150.325 794.507 Q147.177 794.507 145.325 796.66 Q143.496 798.813 143.496 802.563 Q143.496 806.29 145.325 808.466 Q147.177 810.618 150.325 810.618 Q153.473 810.618 155.302 808.466 Q157.153 806.29 157.153 802.563 Q157.153 798.813 155.302 796.66 Q153.473 794.507 150.325 794.507 M159.607 779.855 L159.607 784.114 Q157.848 783.281 156.042 782.841 Q154.26 782.401 152.501 782.401 Q147.871 782.401 145.417 785.526 Q142.987 788.651 142.64 794.97 Q144.005 792.956 146.066 791.892 Q148.126 790.804 150.603 790.804 Q155.811 790.804 158.82 793.975 Q161.852 797.123 161.852 802.563 Q161.852 807.887 158.704 811.105 Q155.556 814.322 150.325 814.322 Q144.329 814.322 141.158 809.739 Q137.987 805.132 137.987 796.406 Q137.987 788.211 141.876 783.35 Q145.765 778.466 152.316 778.466 Q154.075 778.466 155.857 778.813 Q157.663 779.16 159.607 779.855 Z" fill="#000000" fill-rule="evenodd" fill-opacity="1" /><path clip-path="url(#clip270)" d="M 0 0 M150.001 442.146 Q146.667 442.146 144.746 443.929 Q142.848 445.711 142.848 448.836 Q142.848 451.961 144.746 453.743 Q146.667 455.526 150.001 455.526 Q153.334 455.526 155.255 453.743 Q157.177 451.938 157.177 448.836 Q157.177 445.711 155.255 443.929 Q153.357 442.146 150.001 442.146 M145.325 440.156 Q142.316 439.415 140.626 437.355 Q138.959 435.294 138.959 432.332 Q138.959 428.188 141.899 425.781 Q144.862 423.373 150.001 423.373 Q155.163 423.373 158.103 425.781 Q161.042 428.188 161.042 432.332 Q161.042 435.294 159.353 437.355 Q157.686 439.415 154.7 440.156 Q158.079 440.943 159.954 443.234 Q161.852 445.526 161.852 448.836 Q161.852 453.859 158.774 456.544 Q155.718 459.23 150.001 459.23 Q144.283 459.23 141.204 456.544 Q138.149 453.859 138.149 448.836 Q138.149 445.526 140.047 443.234 Q141.945 440.943 145.325 440.156 M143.612 432.771 Q143.612 435.456 145.279 436.961 Q146.968 438.466 150.001 438.466 Q153.01 438.466 154.7 436.961 Q156.413 435.456 156.413 432.771 Q156.413 430.086 154.7 428.582 Q153.01 427.077 150.001 427.077 Q146.968 427.077 145.279 428.582 Q143.612 430.086 143.612 432.771 Z" fill="#000000" fill-rule="evenodd" fill-opacity="1" /><path clip-path="url(#clip270)" d="M 0 0 M114.931 99.5305 L122.57 99.5305 L122.57 73.1649 L114.26 74.8316 L114.26 70.5723 L122.524 68.9057 L127.2 68.9057 L127.2 99.5305 L134.839 99.5305 L134.839 103.466 L114.931 103.466 L114.931 99.5305 Z" fill="#000000" fill-rule="evenodd" fill-opacity="1" /><path clip-path="url(#clip270)" d="M 0 0 M149.908 71.9844 Q146.297 71.9844 144.468 75.5492 Q142.663 79.0908 142.663 86.2204 Q142.663 93.3268 144.468 96.8916 Q146.297 100.433 149.908 100.433 Q153.542 100.433 155.348 96.8916 Q157.177 93.3268 157.177 86.2204 Q157.177 79.0908 155.348 75.5492 Q153.542 71.9844 149.908 71.9844 M149.908 68.2807 Q155.718 68.2807 158.774 72.8871 Q161.852 77.4704 161.852 86.2204 Q161.852 94.9472 158.774 99.5537 Q155.718 104.137 149.908 104.137 Q144.098 104.137 141.019 99.5537 Q137.964 94.9472 137.964 86.2204 Q137.964 77.4704 141.019 72.8871 Q144.098 68.2807 149.908 68.2807 Z" fill="#000000" fill-rule="evenodd" fill-opacity="1" /><path clip-path="url(#clip270)" d="M 0 0 M67.3143 733.525 Q73.68 736.008 75.6216 738.363 Q77.5631 740.718 77.5631 744.665 L77.5631 749.344 L72.6615 749.344 L72.6615 745.906 Q72.6615 743.487 71.5157 742.151 Q70.3699 740.814 66.1048 739.191 L63.4312 738.14 L28.3562 752.559 L28.3562 746.352 L56.238 735.212 L28.3562 724.072 L28.3562 717.865 L67.3143 733.525 Z" fill="#000000" fill-rule="evenodd" fill-opacity="1" /><polyline clip-path="url(#clip272)" style="stroke:#000000; stroke-width:4; stroke-opacity:0.8; fill:none" points="
  258.84,1240.24 258.84,1062.69 
  "/>
<polyline clip-path="url(#clip272)" style="stroke:#000000; stroke-width:4; stroke-opacity:0.8; fill:none" points="
  936.483,1053.81 936.483,894.021 
  "/>
<polyline clip-path="url(#clip272)" style="stroke:#000000; stroke-width:4; stroke-opacity:0.8; fill:none" points="
  1614.13,814.125 1614.13,601.07 
  "/>
<polyline clip-path="url(#clip272)" style="stroke:#000000; stroke-width:4; stroke-opacity:0.8; fill:none" points="
  2291.77,441.278 2291.77,86.1857 
  "/>
<line clip-path="url(#clip272)" x1="274.84" y1="1240.24" x2="242.84" y2="1240.24" style="stroke:#000000; stroke-width:3.2; stroke-opacity:1"/>
<line clip-path="url(#clip272)" x1="274.84" y1="1062.69" x2="242.84" y2="1062.69" style="stroke:#000000; stroke-width:3.2; stroke-opacity:1"/>
<line clip-path="url(#clip272)" x1="952.483" y1="1053.81" x2="920.483" y2="1053.81" style="stroke:#000000; stroke-width:3.2; stroke-opacity:1"/>
<line clip-path="url(#clip272)" x1="952.483" y1="894.021" x2="920.483" y2="894.021" style="stroke:#000000; stroke-width:3.2; stroke-opacity:1"/>
<line clip-path="url(#clip272)" x1="1630.13" y1="814.125" x2="1598.13" y2="814.125" style="stroke:#000000; stroke-width:3.2; stroke-opacity:1"/>
<line clip-path="url(#clip272)" x1="1630.13" y1="601.07" x2="1598.13" y2="601.07" style="stroke:#000000; stroke-width:3.2; stroke-opacity:1"/>
<line clip-path="url(#clip272)" x1="2307.77" y1="441.278" x2="2275.77" y2="441.278" style="stroke:#000000; stroke-width:3.2; stroke-opacity:1"/>
<line clip-path="url(#clip272)" x1="2307.77" y1="86.1857" x2="2275.77" y2="86.1857" style="stroke:#000000; stroke-width:3.2; stroke-opacity:1"/>
<circle clip-path="url(#clip272)" cx="258.84" cy="1151.46" r="14" fill="#009af9" fill-rule="evenodd" fill-opacity="1" stroke="#000000" stroke-opacity="1" stroke-width="3.2"/>
<circle clip-path="url(#clip272)" cx="936.483" cy="973.917" r="14" fill="#009af9" fill-rule="evenodd" fill-opacity="1" stroke="#000000" stroke-opacity="1" stroke-width="3.2"/>
<circle clip-path="url(#clip272)" cx="1614.13" cy="707.598" r="14" fill="#009af9" fill-rule="evenodd" fill-opacity="1" stroke="#000000" stroke-opacity="1" stroke-width="3.2"/>
<circle clip-path="url(#clip272)" cx="2291.77" cy="263.732" r="14" fill="#009af9" fill-rule="evenodd" fill-opacity="1" stroke="#000000" stroke-opacity="1" stroke-width="3.2"/>
<polyline clip-path="url(#clip272)" style="stroke:#ff0000; stroke-width:8; stroke-opacity:1; fill:none" points="
  258.84,1195.13 262.914,1193.54 266.988,1191.96 271.062,1190.38 275.136,1188.8 279.21,1187.21 283.284,1185.63 287.358,1184.05 291.432,1182.46 295.506,1180.88 
  299.58,1179.3 303.654,1177.72 307.728,1176.13 311.802,1174.55 315.876,1172.97 319.95,1171.38 324.024,1169.8 328.098,1168.22 332.172,1166.64 336.246,1165.05 
  340.32,1163.47 344.394,1161.89 348.468,1160.3 352.542,1158.72 356.616,1157.14 360.69,1155.56 364.764,1153.97 368.838,1152.39 372.912,1150.81 376.986,1149.22 
  381.06,1147.64 385.134,1146.06 389.208,1144.48 393.282,1142.89 397.356,1141.31 401.43,1139.73 405.504,1138.14 409.578,1136.56 413.652,1134.98 417.726,1133.4 
  421.8,1131.81 425.874,1130.23 429.948,1128.65 434.022,1127.06 438.096,1125.48 442.17,1123.9 446.244,1122.32 450.318,1120.73 454.392,1119.15 458.466,1117.57 
  462.541,1115.98 466.615,1114.4 470.689,1112.82 474.763,1111.24 478.837,1109.65 482.911,1108.07 486.985,1106.49 491.059,1104.9 495.133,1103.32 499.207,1101.74 
  503.281,1100.16 507.355,1098.57 511.429,1096.99 515.503,1095.41 519.577,1093.82 523.651,1092.24 527.725,1090.66 531.799,1089.08 535.873,1087.49 539.947,1085.91 
  544.021,1084.33 548.095,1082.74 552.169,1081.16 556.243,1079.58 560.317,1078 564.391,1076.41 568.465,1074.83 572.539,1073.25 576.613,1071.66 580.687,1070.08 
  584.761,1068.5 588.835,1066.92 592.909,1065.33 596.983,1063.75 601.057,1062.17 605.131,1060.58 609.205,1059 613.279,1057.42 617.353,1055.84 621.427,1054.25 
  625.501,1052.67 629.575,1051.09 633.649,1049.5 637.723,1047.92 641.797,1046.34 645.871,1044.76 649.945,1043.17 654.019,1041.59 658.093,1040.01 662.167,1038.42 
  666.241,1036.84 670.315,1035.26 674.389,1033.68 678.463,1032.09 682.537,1030.51 686.611,1028.93 690.685,1027.34 694.759,1025.76 698.833,1024.18 702.907,1022.6 
  706.981,1021.01 711.055,1019.43 715.129,1017.85 719.203,1016.26 723.277,1014.68 727.351,1013.1 731.425,1011.52 735.499,1009.93 739.573,1008.35 743.647,1006.77 
  747.721,1005.18 751.795,1003.6 755.869,1002.02 759.943,1000.44 764.017,998.852 768.091,997.269 772.165,995.686 776.239,994.104 780.313,992.521 784.387,990.938 
  788.461,989.355 792.535,987.772 796.609,986.189 800.683,984.606 804.757,983.024 808.831,981.441 812.905,979.858 816.979,978.275 821.053,976.692 825.127,975.109 
  829.201,973.526 833.275,971.943 837.349,970.361 841.423,968.778 845.497,967.195 849.571,965.612 853.645,964.029 857.719,962.446 861.793,960.863 865.867,959.281 
  869.941,957.698 874.015,956.115 878.089,954.532 882.163,952.949 886.237,951.366 890.311,949.783 894.385,948.2 898.459,946.618 902.533,945.035 906.607,943.452 
  910.681,941.869 914.755,940.286 918.829,938.703 922.903,937.12 926.977,935.538 931.051,933.955 935.125,932.372 939.199,930.789 943.273,929.206 947.347,927.623 
  951.421,926.04 955.495,924.458 959.569,922.875 963.643,921.292 967.717,919.709 971.791,918.126 975.865,916.543 979.939,914.96 984.013,913.377 988.087,911.795 
  992.161,910.212 996.235,908.629 1000.31,907.046 1004.38,905.463 1008.46,903.88 1012.53,902.297 1016.6,900.715 1020.68,899.132 1024.75,897.549 1028.83,895.966 
  1032.9,894.383 1036.97,892.8 1041.05,891.217 1045.12,889.634 1049.2,888.052 1053.27,886.469 1057.35,884.886 1061.42,883.303 1065.49,881.72 1069.57,880.137 
  1073.64,878.554 1077.72,876.972 1081.79,875.389 1085.86,873.806 1089.94,872.223 1094.01,870.64 1098.09,869.057 1102.16,867.474 1106.23,865.892 1110.31,864.309 
  1114.38,862.726 1118.46,861.143 1122.53,859.56 1126.6,857.977 1130.68,856.394 1134.75,854.811 1138.83,853.229 1142.9,851.646 1146.97,850.063 1151.05,848.48 
  1155.12,846.897 1159.2,845.314 1163.27,843.731 1167.34,842.149 1171.42,840.566 1175.49,838.983 1179.57,837.4 1183.64,835.817 1187.71,834.234 1191.79,832.651 
  1195.86,831.068 1199.94,829.486 1204.01,827.903 1208.08,826.32 1212.16,824.737 1216.23,823.154 1220.31,821.571 1224.38,819.988 1228.45,818.406 1232.53,816.823 
  1236.6,815.24 1240.68,813.657 1244.75,812.074 1248.82,810.491 1252.9,808.908 1256.97,807.325 1261.05,805.743 1265.12,804.16 1269.19,802.577 1273.27,800.994 
  1277.34,799.411 1281.42,797.828 1285.49,796.245 1289.56,794.663 1293.64,793.08 1297.71,791.497 1301.79,789.914 1305.86,788.331 1309.93,786.748 1314.01,785.165 
  1318.08,783.583 1322.16,782 1326.23,780.417 1330.3,778.834 1334.38,777.251 1338.45,775.668 1342.53,774.085 1346.6,772.502 1350.67,770.92 1354.75,769.337 
  1358.82,767.754 1362.9,766.171 1366.97,764.588 1371.04,763.005 1375.12,761.422 1379.19,759.84 1383.27,758.257 1387.34,756.674 1391.41,755.091 1395.49,753.508 
  1399.56,751.925 1403.64,750.342 1407.71,748.759 1411.78,747.177 1415.86,745.594 1419.93,744.011 1424.01,742.428 1428.08,740.845 1432.15,739.262 1436.23,737.679 
  1440.3,736.097 1444.38,734.514 1448.45,732.931 1452.52,731.348 1456.6,729.765 1460.67,728.182 1464.75,726.599 1468.82,725.017 1472.89,723.434 1476.97,721.851 
  1481.04,720.268 1485.12,718.685 1489.19,717.102 1493.26,715.519 1497.34,713.936 1501.41,712.354 1505.49,710.771 1509.56,709.188 1513.63,707.605 1517.71,706.022 
  1521.78,704.439 1525.86,702.856 1529.93,701.274 1534,699.691 1538.08,698.108 1542.15,696.525 1546.23,694.942 1550.3,693.359 1554.37,691.776 1558.45,690.193 
  1562.52,688.611 1566.6,687.028 1570.67,685.445 1574.74,683.862 1578.82,682.279 1582.89,680.696 1586.97,679.113 1591.04,677.531 1595.11,675.948 1599.19,674.365 
  1603.26,672.782 1607.34,671.199 1611.41,669.616 1615.48,668.033 1619.56,666.451 1623.63,664.868 1627.71,663.285 1631.78,661.702 1635.85,660.119 1639.93,658.536 
  1644,656.953 1648.08,655.37 1652.15,653.788 1656.22,652.205 1660.3,650.622 1664.37,649.039 1668.45,647.456 1672.52,645.873 1676.59,644.29 1680.67,642.708 
  1684.74,641.125 1688.82,639.542 1692.89,637.959 1696.96,636.376 1701.04,634.793 1705.11,633.21 1709.19,631.627 1713.26,630.045 1717.33,628.462 1721.41,626.879 
  1725.48,625.296 1729.56,623.713 1733.63,622.13 1737.7,620.547 1741.78,618.965 1745.85,617.382 1749.93,615.799 1754,614.216 1758.07,612.633 1762.15,611.05 
  1766.22,609.467 1770.3,607.884 1774.37,606.302 1778.44,604.719 1782.52,603.136 1786.59,601.553 1790.67,599.97 1794.74,598.387 1798.81,596.804 1802.89,595.222 
  1806.96,593.639 1811.04,592.056 1815.11,590.473 1819.18,588.89 1823.26,587.307 1827.33,585.724 1831.41,584.142 1835.48,582.559 1839.55,580.976 1843.63,579.393 
  1847.7,577.81 1851.78,576.227 1855.85,574.644 1859.92,573.061 1864,571.479 1868.07,569.896 1872.15,568.313 1876.22,566.73 1880.29,565.147 1884.37,563.564 
  1888.44,561.981 1892.52,560.399 1896.59,558.816 1900.66,557.233 1904.74,555.65 1908.81,554.067 1912.89,552.484 1916.96,550.901 1921.03,549.318 1925.11,547.736 
  1929.18,546.153 1933.26,544.57 1937.33,542.987 1941.4,541.404 1945.48,539.821 1949.55,538.238 1953.63,536.656 1957.7,535.073 1961.77,533.49 1965.85,531.907 
  1969.92,530.324 1974,528.741 1978.07,527.158 1982.14,525.576 1986.22,523.993 1990.29,522.41 1994.37,520.827 1998.44,519.244 2002.51,517.661 2006.59,516.078 
  2010.66,514.495 2014.74,512.913 2018.81,511.33 2022.88,509.747 2026.96,508.164 2031.03,506.581 2035.11,504.998 2039.18,503.415 2043.25,501.833 2047.33,500.25 
  2051.4,498.667 2055.48,497.084 2059.55,495.501 2063.62,493.918 2067.7,492.335 2071.77,490.752 2075.85,489.17 2079.92,487.587 2083.99,486.004 2088.07,484.421 
  2092.14,482.838 2096.22,481.255 2100.29,479.672 2104.36,478.09 2108.44,476.507 2112.51,474.924 2116.59,473.341 2120.66,471.758 2124.73,470.175 2128.81,468.592 
  2132.88,467.009 2136.96,465.427 2141.03,463.844 2145.1,462.261 2149.18,460.678 2153.25,459.095 2157.33,457.512 2161.4,455.929 2165.47,454.347 2169.55,452.764 
  2173.62,451.181 2177.7,449.598 2181.77,448.015 2185.84,446.432 2189.92,444.849 2193.99,443.267 2198.07,441.684 2202.14,440.101 2206.21,438.518 2210.29,436.935 
  2214.36,435.352 2218.44,433.769 2222.51,432.186 2226.58,430.604 2230.66,429.021 2234.73,427.438 2238.81,425.855 2242.88,424.272 2246.95,422.689 2251.03,421.106 
  2255.1,419.524 2259.18,417.941 2263.25,416.358 2267.32,414.775 2271.4,413.192 2275.47,411.609 2279.55,410.026 2283.62,408.443 2287.69,406.861 2291.77,405.278 
  
  "/>
<polyline clip-path="url(#clip272)" style="stroke:#008000; stroke-width:4; stroke-opacity:1; fill:none" points="
  258.84,1384.24 265.639,1380.57 272.439,1376.91 279.238,1373.27 286.037,1369.62 292.836,1365.98 299.635,1362.33 306.434,1358.69 313.233,1355.07 320.032,1351.44 
  326.831,1347.82 333.63,1344.2 340.429,1340.58 347.228,1336.99 354.028,1333.39 360.827,1329.79 367.626,1326.19 374.425,1322.61 381.224,1319.04 388.023,1315.46 
  394.822,1311.89 401.621,1308.32 408.42,1304.77 415.219,1301.22 422.018,1297.67 428.818,1294.13 435.617,1290.6 442.416,1287.08 449.215,1283.55 456.014,1280.04 
  462.813,1276.54 469.612,1273.03 476.411,1269.54 483.21,1266.06 490.009,1262.57 496.808,1259.1 503.608,1255.64 510.407,1252.18 517.206,1248.73 524.005,1245.29 
  530.804,1241.85 537.603,1238.43 544.402,1235.01 551.201,1231.6 558,1228.2 564.799,1224.81 571.598,1221.42 578.398,1218.05 585.197,1214.68 591.996,1211.32 
  598.795,1207.97 605.594,1204.63 612.393,1201.3 619.192,1197.97 625.991,1194.67 632.79,1191.36 639.589,1188.07 646.388,1184.79 653.188,1181.51 659.987,1178.26 
  666.786,1175 673.585,1171.76 680.384,1168.53 687.183,1165.31 693.982,1162.1 700.781,1158.91 707.58,1155.72 714.379,1152.55 721.178,1149.39 727.977,1146.23 
  734.777,1143.09 741.576,1139.97 748.375,1136.85 755.174,1133.75 761.973,1130.66 768.772,1127.58 775.571,1124.51 782.37,1121.46 789.169,1118.42 795.968,1115.39 
  802.767,1112.38 809.567,1109.38 816.366,1106.39 823.165,1103.41 829.964,1100.45 836.763,1097.51 843.562,1094.57 850.361,1091.65 857.16,1088.74 863.959,1085.85 
  870.758,1082.97 877.557,1080.11 884.357,1077.26 891.156,1074.43 897.955,1071.6 904.754,1068.8 911.553,1066.01 918.352,1063.23 925.151,1060.47 931.95,1057.71 
  938.749,1054.98 945.548,1052.26 952.347,1049.56 959.147,1046.87 965.946,1044.19 972.745,1041.53 979.544,1038.89 986.343,1036.26 993.142,1033.64 999.941,1031.04 
  1006.74,1028.45 1013.54,1025.88 1020.34,1023.32 1027.14,1020.78 1033.94,1018.25 1040.74,1015.74 1047.53,1013.24 1054.33,1010.76 1061.13,1008.29 1067.93,1005.83 
  1074.73,1003.39 1081.53,1000.96 1088.33,998.553 1095.13,996.15 1101.93,993.771 1108.73,991.393 1115.53,989.044 1122.32,986.695 1129.12,984.371 1135.92,982.052 
  1142.72,979.751 1149.52,977.463 1156.32,975.183 1163.12,972.926 1169.92,970.668 1176.72,968.439 1183.52,966.212 1190.32,964 1197.11,961.805 1203.91,959.61 
  1210.71,957.444 1217.51,955.28 1224.31,953.127 1231.11,950.994 1237.91,948.862 1244.71,946.75 1251.51,944.649 1258.31,942.548 1265.11,940.475 1271.9,938.406 
  1278.7,936.336 1285.5,934.299 1292.3,932.261 1299.1,930.223 1305.9,928.217 1312.7,926.211 1319.5,924.205 1326.3,922.227 1333.1,920.253 1339.9,918.279 
  1346.69,916.323 1353.49,914.381 1360.29,912.439 1367.09,910.501 1373.89,908.591 1380.69,906.68 1387.49,904.77 1394.29,902.875 1401.09,900.997 1407.89,899.119 
  1414.69,897.241 1421.48,895.383 1428.28,893.536 1435.08,891.69 1441.88,889.844 1448.68,888.015 1455.48,886.2 1462.28,884.386 1469.08,882.572 1475.88,880.762 
  1482.68,878.98 1489.48,877.198 1496.27,875.416 1503.07,873.633 1509.87,871.865 1516.67,870.115 1523.47,868.364 1530.27,866.614 1537.07,864.863 1543.87,863.125 
  1550.67,861.406 1557.47,859.688 1564.27,857.969 1571.06,856.25 1577.86,854.532 1584.66,852.84 1591.46,851.153 1598.26,849.466 1605.06,847.779 1611.86,846.092 
  1618.66,844.405 1625.46,842.744 1632.26,841.089 1639.06,839.433 1645.85,837.778 1652.65,836.122 1659.45,834.467 1666.25,832.817 1673.05,831.193 1679.85,829.568 
  1686.65,827.944 1693.45,826.32 1700.25,824.695 1707.05,823.071 1713.85,821.447 1720.64,819.847 1727.44,818.254 1734.24,816.661 1741.04,815.067 1747.84,813.474 
  1754.64,811.881 1761.44,810.288 1768.24,808.694 1775.04,807.115 1781.84,805.553 1788.64,803.99 1795.43,802.428 1802.23,800.865 1809.03,799.303 1815.83,797.74 
  1822.63,796.177 1829.43,794.615 1836.23,793.052 1843.03,791.519 1849.83,789.987 1856.63,788.455 1863.43,786.923 1870.22,785.391 1877.02,783.859 1883.82,782.326 
  1890.62,780.794 1897.42,779.262 1904.22,777.73 1911.02,776.198 1917.82,774.695 1924.62,773.193 1931.42,771.691 1938.22,770.189 1945.01,768.686 1951.81,767.184 
  1958.61,765.682 1965.41,764.18 1972.21,762.677 1979.01,761.175 1985.81,759.673 1992.61,758.171 1999.41,756.669 2006.21,755.197 2013.01,753.724 2019.8,752.251 
  2026.6,750.778 2033.4,749.306 2040.2,747.833 2047,746.36 2053.8,744.887 2060.6,743.415 2067.4,741.942 2074.2,740.469 2081,738.996 2087.8,737.523 
  2094.59,736.051 2101.39,734.578 2108.19,733.116 2114.99,731.672 2121.79,730.228 2128.59,728.784 2135.39,727.341 2142.19,725.897 2148.99,724.453 2155.79,723.009 
  2162.59,721.565 2169.38,720.121 2176.18,718.677 2182.98,717.233 2189.78,715.789 2196.58,714.345 2203.38,712.901 2210.18,711.457 2216.98,710.013 2223.78,708.569 
  2230.58,707.125 2237.38,705.681 2244.17,704.264 2250.97,702.848 2257.77,701.432 2264.57,700.016 2271.37,698.6 2278.17,697.184 2284.97,695.768 2291.77,694.353 
  
  "/>
<polyline clip-path="url(#clip272)" style="stroke:#008000; stroke-width:4; stroke-opacity:1; fill:none" points="
  258.84,1006.01 265.639,1004.39 272.439,1002.78 279.238,1001.16 286.037,999.539 292.836,997.92 299.635,996.302 306.434,994.669 313.233,992.988 320.032,991.307 
  326.831,989.626 333.63,987.945 340.429,986.264 347.228,984.583 354.028,982.902 360.827,981.221 367.626,979.54 374.425,977.859 381.224,976.179 388.023,974.489 
  394.822,972.748 401.621,971.006 408.42,969.264 415.219,967.522 422.018,965.78 428.818,964.038 435.617,962.296 442.416,960.554 449.215,958.813 456.014,957.056 
  462.813,955.254 469.612,953.452 476.411,951.651 483.21,949.849 490.009,948.048 496.808,946.246 503.608,944.445 510.407,942.643 517.206,940.789 524.005,938.929 
  530.804,937.069 537.603,935.209 544.402,933.349 551.201,931.488 558,929.628 564.799,927.732 571.598,925.814 578.398,923.897 585.197,921.979 591.996,920.061 
  598.795,918.143 605.594,916.215 612.393,914.24 619.192,912.266 625.991,910.291 632.79,908.317 639.589,906.342 646.388,904.347 653.188,902.316 659.987,900.286 
  666.786,898.256 673.585,896.225 680.384,894.191 687.183,892.105 693.982,890.02 700.781,887.934 707.58,885.849 714.379,883.753 721.178,881.614 727.977,879.474 
  734.777,877.334 741.576,875.195 748.375,873.022 755.174,870.829 761.973,868.635 768.772,866.442 775.571,864.231 782.37,861.985 789.169,859.74 795.968,857.494 
  802.767,855.233 809.567,852.936 816.366,850.638 823.165,848.34 829.964,846.02 836.763,843.672 843.562,841.323 850.361,838.975 857.16,836.588 863.959,834.189 
  870.758,831.791 877.557,829.381 884.357,826.933 891.156,824.485 897.955,822.037 904.754,819.551 911.553,817.054 918.352,814.557 925.151,812.038 931.95,809.493 
  938.749,806.949 945.548,804.393 952.347,801.802 959.147,799.211 965.946,796.615 972.745,793.978 979.544,791.341 986.343,788.703 993.142,786.021 999.941,783.338 
  1006.74,780.656 1013.54,777.931 1020.34,775.204 1027.14,772.477 1033.94,769.708 1040.74,766.938 1047.53,764.167 1054.33,761.354 1061.13,758.541 1067.93,755.724 
  1074.73,752.87 1081.53,750.015 1088.33,747.153 1095.13,744.257 1101.93,741.361 1108.73,738.455 1115.53,735.519 1122.32,732.583 1129.12,729.632 1135.92,726.657 
  1142.72,723.682 1149.52,720.687 1156.32,717.674 1163.12,714.661 1169.92,711.624 1176.72,708.574 1183.52,705.523 1190.32,702.446 1197.11,699.358 1203.91,696.271 
  1210.71,693.155 1217.51,690.031 1224.31,686.908 1231.11,683.754 1237.91,680.596 1244.71,677.438 1251.51,674.249 1258.31,671.057 1265.11,667.865 1271.9,664.642 
  1278.7,661.417 1285.5,658.191 1292.3,654.937 1299.1,651.679 1305.9,648.421 1312.7,645.137 1319.5,641.848 1326.3,638.559 1333.1,635.248 1339.9,631.928 
  1346.69,628.608 1353.49,625.272 1360.29,621.922 1367.09,618.572 1373.89,615.213 1380.69,611.834 1387.49,608.455 1394.29,605.076 1401.09,601.669 1407.89,598.261 
  1414.69,594.854 1421.48,591.429 1428.28,587.994 1435.08,584.56 1441.88,581.121 1448.68,577.659 1455.48,574.197 1462.28,570.735 1469.08,567.258 1475.88,563.77 
  1482.68,560.283 1489.48,556.795 1496.27,553.284 1503.07,549.771 1509.87,546.258 1516.67,542.741 1523.47,539.203 1530.27,535.666 1537.07,532.128 1543.87,528.584 
  1550.67,525.023 1557.47,521.462 1564.27,517.9 1571.06,514.333 1577.86,510.749 1584.66,507.165 1591.46,503.581 1598.26,499.994 1605.06,496.388 1611.86,492.781 
  1618.66,489.175 1625.46,485.568 1632.26,481.945 1639.06,478.317 1645.85,474.689 1652.65,471.061 1659.45,467.427 1666.25,463.778 1673.05,460.129 1679.85,456.48 
  1686.65,452.831 1693.45,449.17 1700.25,445.501 1707.05,441.832 1713.85,438.162 1720.64,434.493 1727.44,430.811 1734.24,427.122 1741.04,423.433 1747.84,419.745 
  1754.64,416.056 1761.44,412.357 1768.24,408.649 1775.04,404.942 1781.84,401.234 1788.64,397.527 1795.43,393.816 1802.23,390.091 1809.03,386.365 1815.83,382.639 
  1822.63,378.913 1829.43,375.187 1836.23,371.453 1843.03,367.71 1849.83,363.967 1856.63,360.223 1863.43,356.48 1870.22,352.737 1877.02,348.985 1883.82,345.225 
  1890.62,341.465 1897.42,337.705 1904.22,333.944 1911.02,330.184 1917.82,326.422 1924.62,322.645 1931.42,318.869 1938.22,315.092 1945.01,311.316 1951.81,307.539 
  1958.61,303.763 1965.41,299.98 1972.21,296.188 1979.01,292.395 1985.81,288.603 1992.61,284.811 1999.41,281.019 2006.21,277.227 2013.01,273.431 2019.8,269.624 
  2026.6,265.817 2033.4,262.01 2040.2,258.203 2047,254.395 2053.8,250.588 2060.6,246.781 2067.4,242.966 2074.2,239.144 2081,235.322 2087.8,231.501 
  2094.59,227.679 2101.39,223.858 2108.19,220.036 2114.99,216.215 2121.79,212.388 2128.59,208.553 2135.39,204.717 2142.19,200.882 2148.99,197.047 2155.79,193.211 
  2162.59,189.376 2169.38,185.54 2176.18,181.705 2182.98,177.863 2189.78,174.014 2196.58,170.166 2203.38,166.317 2210.18,162.469 2216.98,158.62 2223.78,154.771 
  2230.58,150.923 2237.38,147.074 2244.17,143.226 2250.97,139.365 2257.77,135.504 2264.57,131.643 2271.37,127.782 2278.17,123.92 2284.97,120.059 2291.77,116.198 
  
  "/>
<path clip-path="url(#clip270)" d="
M1642.26 300.469 L2280.93 300.469 L2280.93 93.1086 L1642.26 93.1086  Z
  " fill="#ffffff" fill-rule="evenodd" fill-opacity="1"/>
<polyline clip-path="url(#clip270)" style="stroke:#000000; stroke-width:4; stroke-opacity:1; fill:none" points="
  1642.26,300.469 2280.93,300.469 2280.93,93.1086 1642.26,93.1086 1642.26,300.469 
  "/>
<circle clip-path="url(#clip270)" cx="1738.03" cy="144.949" r="23" fill="#009af9" fill-rule="evenodd" fill-opacity="1" stroke="#000000" stroke-opacity="1" stroke-width="5.12"/>
<path clip-path="url(#clip270)" d="M 0 0 M1838.48 131.511 L1838.48 158.386 L1844.13 158.386 Q1851.28 158.386 1854.59 155.145 Q1857.93 151.905 1857.93 144.914 Q1857.93 137.969 1854.59 134.752 Q1851.28 131.511 1844.13 131.511 L1838.48 131.511 M1833.81 127.669 L1843.41 127.669 Q1853.46 127.669 1858.16 131.858 Q1862.86 136.025 1862.86 144.914 Q1862.86 153.849 1858.13 158.039 Q1853.41 162.229 1843.41 162.229 L1833.81 162.229 L1833.81 127.669 Z" fill="#000000" fill-rule="evenodd" fill-opacity="1" /><path clip-path="url(#clip270)" d="M 0 0 M1879.11 149.196 Q1873.94 149.196 1871.95 150.377 Q1869.96 151.557 1869.96 154.405 Q1869.96 156.673 1871.44 158.016 Q1872.95 159.335 1875.52 159.335 Q1879.06 159.335 1881.19 156.835 Q1883.34 154.312 1883.34 150.145 L1883.34 149.196 L1879.11 149.196 M1887.6 147.437 L1887.6 162.229 L1883.34 162.229 L1883.34 158.293 Q1881.88 160.655 1879.71 161.789 Q1877.53 162.9 1874.38 162.9 Q1870.4 162.9 1868.04 160.678 Q1865.7 158.432 1865.7 154.682 Q1865.7 150.307 1868.62 148.085 Q1871.56 145.863 1877.37 145.863 L1883.34 145.863 L1883.34 145.446 Q1883.34 142.507 1881.4 140.909 Q1879.48 139.289 1875.98 139.289 Q1873.76 139.289 1871.65 139.821 Q1869.55 140.354 1867.6 141.419 L1867.6 137.483 Q1869.94 136.581 1872.14 136.141 Q1874.34 135.678 1876.42 135.678 Q1882.05 135.678 1884.82 138.594 Q1887.6 141.511 1887.6 147.437 Z" fill="#000000" fill-rule="evenodd" fill-opacity="1" /><path clip-path="url(#clip270)" d="M 0 0 M1896.28 128.942 L1896.28 136.303 L1905.05 136.303 L1905.05 139.613 L1896.28 139.613 L1896.28 153.687 Q1896.28 156.858 1897.14 157.761 Q1898.02 158.664 1900.68 158.664 L1905.05 158.664 L1905.05 162.229 L1900.68 162.229 Q1895.75 162.229 1893.87 160.4 Q1892 158.548 1892 153.687 L1892 139.613 L1888.87 139.613 L1888.87 136.303 L1892 136.303 L1892 128.942 L1896.28 128.942 Z" fill="#000000" fill-rule="evenodd" fill-opacity="1" /><path clip-path="url(#clip270)" d="M 0 0 M1921.3 149.196 Q1916.14 149.196 1914.15 150.377 Q1912.16 151.557 1912.16 154.405 Q1912.16 156.673 1913.64 158.016 Q1915.15 159.335 1917.72 159.335 Q1921.26 159.335 1923.39 156.835 Q1925.54 154.312 1925.54 150.145 L1925.54 149.196 L1921.3 149.196 M1929.8 147.437 L1929.8 162.229 L1925.54 162.229 L1925.54 158.293 Q1924.08 160.655 1921.91 161.789 Q1919.73 162.9 1916.58 162.9 Q1912.6 162.9 1910.24 160.678 Q1907.9 158.432 1907.9 154.682 Q1907.9 150.307 1910.82 148.085 Q1913.76 145.863 1919.57 145.863 L1925.54 145.863 L1925.54 145.446 Q1925.54 142.507 1923.6 140.909 Q1921.67 139.289 1918.18 139.289 Q1915.96 139.289 1913.85 139.821 Q1911.74 140.354 1909.8 141.419 L1909.8 137.483 Q1912.14 136.581 1914.34 136.141 Q1916.54 135.678 1918.62 135.678 Q1924.24 135.678 1927.02 138.594 Q1929.8 141.511 1929.8 147.437 Z" fill="#000000" fill-rule="evenodd" fill-opacity="1" /><polyline clip-path="url(#clip270)" style="stroke:#ff0000; stroke-width:4; stroke-opacity:1; fill:none" points="
  1666.2,196.789 1809.86,196.789 
  "/>
<path clip-path="url(#clip270)" d="M 0 0 M1833.81 179.509 L1853.67 179.509 L1853.67 183.444 L1838.48 183.444 L1838.48 193.629 L1852.18 193.629 L1852.18 197.564 L1838.48 197.564 L1838.48 214.069 L1833.81 214.069 L1833.81 179.509 Z" fill="#000000" fill-rule="evenodd" fill-opacity="1" /><path clip-path="url(#clip270)" d="M 0 0 M1854.68 188.143 L1858.94 188.143 L1858.94 214.069 L1854.68 214.069 L1854.68 188.143 M1854.68 178.05 L1858.94 178.05 L1858.94 183.444 L1854.68 183.444 L1854.68 178.05 Z" fill="#000000" fill-rule="evenodd" fill-opacity="1" /><path clip-path="url(#clip270)" d="M 0 0 M1867.62 180.782 L1867.62 188.143 L1876.4 188.143 L1876.4 191.453 L1867.62 191.453 L1867.62 205.527 Q1867.62 208.698 1868.48 209.601 Q1869.36 210.504 1872.02 210.504 L1876.4 210.504 L1876.4 214.069 L1872.02 214.069 Q1867.09 214.069 1865.22 212.24 Q1863.34 210.388 1863.34 205.527 L1863.34 191.453 L1860.22 191.453 L1860.22 188.143 L1863.34 188.143 L1863.34 180.782 L1867.62 180.782 Z" fill="#000000" fill-rule="evenodd" fill-opacity="1" /><path clip-path="url(#clip270)" d="M 0 0 M1893.46 188.143 L1897.72 188.143 L1903.04 208.374 L1908.34 188.143 L1913.36 188.143 L1918.69 208.374 L1923.99 188.143 L1928.25 188.143 L1921.47 214.069 L1916.44 214.069 L1910.86 192.819 L1905.26 214.069 L1900.24 214.069 L1893.46 188.143 Z" fill="#000000" fill-rule="evenodd" fill-opacity="1" /><path clip-path="url(#clip270)" d="M 0 0 M1932.72 188.143 L1936.98 188.143 L1936.98 214.069 L1932.72 214.069 L1932.72 188.143 M1932.72 178.05 L1936.98 178.05 L1936.98 183.444 L1932.72 183.444 L1932.72 178.05 Z" fill="#000000" fill-rule="evenodd" fill-opacity="1" /><path clip-path="url(#clip270)" d="M 0 0 M1945.66 180.782 L1945.66 188.143 L1954.43 188.143 L1954.43 191.453 L1945.66 191.453 L1945.66 205.527 Q1945.66 208.698 1946.51 209.601 Q1947.39 210.504 1950.05 210.504 L1954.43 210.504 L1954.43 214.069 L1950.05 214.069 Q1945.12 214.069 1943.25 212.24 Q1941.37 210.388 1941.37 205.527 L1941.37 191.453 L1938.25 191.453 L1938.25 188.143 L1941.37 188.143 L1941.37 180.782 L1945.66 180.782 Z" fill="#000000" fill-rule="evenodd" fill-opacity="1" /><path clip-path="url(#clip270)" d="M 0 0 M1980.45 198.421 L1980.45 214.069 L1976.19 214.069 L1976.19 198.559 Q1976.19 194.879 1974.75 193.05 Q1973.32 191.222 1970.45 191.222 Q1967 191.222 1965.01 193.421 Q1963.02 195.62 1963.02 199.416 L1963.02 214.069 L1958.73 214.069 L1958.73 178.05 L1963.02 178.05 L1963.02 192.171 Q1964.55 189.833 1966.61 188.675 Q1968.69 187.518 1971.4 187.518 Q1975.86 187.518 1978.16 190.296 Q1980.45 193.05 1980.45 198.421 Z" fill="#000000" fill-rule="evenodd" fill-opacity="1" /><path clip-path="url(#clip270)" d="M 0 0 M2016.56 197.865 Q2018.06 198.374 2019.48 200.041 Q2020.91 201.708 2022.35 204.624 L2027.09 214.069 L2022.07 214.069 L2017.65 205.203 Q2015.93 201.731 2014.31 200.596 Q2012.72 199.462 2009.94 199.462 L2004.85 199.462 L2004.85 214.069 L2000.17 214.069 L2000.17 179.509 L2010.73 179.509 Q2016.65 179.509 2019.57 181.985 Q2022.48 184.462 2022.48 189.462 Q2022.48 192.726 2020.96 194.879 Q2019.45 197.032 2016.56 197.865 M2004.85 183.351 L2004.85 195.62 L2010.73 195.62 Q2014.11 195.62 2015.82 194.069 Q2017.55 192.495 2017.55 189.462 Q2017.55 186.43 2015.82 184.902 Q2014.11 183.351 2010.73 183.351 L2004.85 183.351 Z" fill="#000000" fill-rule="evenodd" fill-opacity="1" /><path clip-path="url(#clip270)" d="M 0 0 M2052.46 180.643 L2052.46 185.203 Q2049.8 183.93 2047.44 183.305 Q2045.08 182.68 2042.88 182.68 Q2039.06 182.68 2036.98 184.161 Q2034.92 185.643 2034.92 188.374 Q2034.92 190.666 2036.28 191.847 Q2037.67 193.004 2041.51 193.722 L2044.34 194.3 Q2049.57 195.296 2052.04 197.819 Q2054.54 200.319 2054.54 204.532 Q2054.54 209.555 2051.17 212.147 Q2047.81 214.74 2041.3 214.74 Q2038.85 214.74 2036.07 214.184 Q2033.32 213.629 2030.35 212.541 L2030.35 207.726 Q2033.2 209.323 2035.93 210.133 Q2038.67 210.944 2041.3 210.944 Q2045.31 210.944 2047.48 209.37 Q2049.66 207.796 2049.66 204.879 Q2049.66 202.333 2048.09 200.897 Q2046.54 199.462 2042.97 198.745 L2040.12 198.189 Q2034.89 197.147 2032.55 194.925 Q2030.22 192.703 2030.22 188.745 Q2030.22 184.161 2033.43 181.522 Q2036.67 178.884 2042.35 178.884 Q2044.78 178.884 2047.3 179.323 Q2049.82 179.763 2052.46 180.643 Z" fill="#000000" fill-rule="evenodd" fill-opacity="1" /><path clip-path="url(#clip270)" d="M 0 0 M2059.2 179.509 L2081.05 179.509 L2081.05 183.444 L2063.87 183.444 L2063.87 193.675 L2080.33 193.675 L2080.33 197.61 L2063.87 197.61 L2063.87 210.133 L2081.47 210.133 L2081.47 214.069 L2059.2 214.069 L2059.2 179.509 Z" fill="#000000" fill-rule="evenodd" fill-opacity="1" /><path clip-path="url(#clip270)" d="M 0 0 M2116.16 199.647 L2116.16 203.791 Q2113.73 205.596 2111.65 206.407 Q2109.59 207.194 2107.35 207.194 Q2104.8 207.194 2101.42 205.828 Q2101.19 205.735 2101.03 205.666 Q2100.89 205.62 2100.54 205.481 Q2096.95 204.069 2094.78 204.069 Q2092.74 204.069 2090.75 204.948 Q2088.76 205.828 2086.49 207.772 L2086.49 203.629 Q2088.92 201.823 2090.98 201.036 Q2093.06 200.226 2095.31 200.226 Q2097.85 200.226 2101.26 201.592 Q2101.51 201.708 2101.63 201.754 Q2101.77 201.8 2102.11 201.939 Q2105.7 203.351 2107.88 203.351 Q2109.87 203.351 2111.81 202.495 Q2113.78 201.615 2116.16 199.647 M2116.16 190.643 L2116.16 194.763 Q2113.73 196.592 2111.65 197.402 Q2109.59 198.189 2107.35 198.189 Q2104.8 198.189 2101.42 196.823 Q2101.19 196.731 2101.03 196.661 Q2100.89 196.615 2100.54 196.476 Q2096.95 195.064 2094.78 195.064 Q2092.74 195.064 2090.75 195.944 Q2088.76 196.823 2086.49 198.745 L2086.49 194.624 Q2088.92 192.819 2090.98 192.032 Q2093.06 191.222 2095.31 191.222 Q2097.85 191.222 2101.26 192.587 Q2101.49 192.68 2101.6 192.726 Q2101.77 192.796 2102.11 192.934 Q2105.7 194.347 2107.88 194.347 Q2109.87 194.347 2111.81 193.49 Q2113.78 192.61 2116.16 190.643 Z" fill="#000000" fill-rule="evenodd" fill-opacity="1" /><path clip-path="url(#clip270)" d="M 0 0 M2131.23 182.587 Q2127.62 182.587 2125.79 186.152 Q2123.99 189.694 2123.99 196.823 Q2123.99 203.93 2125.79 207.495 Q2127.62 211.036 2131.23 211.036 Q2134.87 211.036 2136.67 207.495 Q2138.5 203.93 2138.5 196.823 Q2138.5 189.694 2136.67 186.152 Q2134.87 182.587 2131.23 182.587 M2131.23 178.884 Q2137.04 178.884 2140.1 183.49 Q2143.18 188.073 2143.18 196.823 Q2143.18 205.55 2140.1 210.157 Q2137.04 214.74 2131.23 214.74 Q2125.42 214.74 2122.35 210.157 Q2119.29 205.55 2119.29 196.823 Q2119.29 188.073 2122.35 183.49 Q2125.42 178.884 2131.23 178.884 Z" fill="#000000" fill-rule="evenodd" fill-opacity="1" /><path clip-path="url(#clip270)" d="M 0 0 M2148.25 208.189 L2153.13 208.189 L2153.13 214.069 L2148.25 214.069 L2148.25 208.189 Z" fill="#000000" fill-rule="evenodd" fill-opacity="1" /><path clip-path="url(#clip270)" d="M 0 0 M2168.78 194.925 Q2165.63 194.925 2163.78 197.078 Q2161.95 199.231 2161.95 202.981 Q2161.95 206.708 2163.78 208.883 Q2165.63 211.036 2168.78 211.036 Q2171.93 211.036 2173.76 208.883 Q2175.61 206.708 2175.61 202.981 Q2175.61 199.231 2173.76 197.078 Q2171.93 194.925 2168.78 194.925 M2178.06 180.273 L2178.06 184.532 Q2176.3 183.698 2174.5 183.259 Q2172.72 182.819 2170.96 182.819 Q2166.33 182.819 2163.87 185.944 Q2161.44 189.069 2161.09 195.388 Q2162.46 193.374 2164.52 192.309 Q2166.58 191.222 2169.06 191.222 Q2174.27 191.222 2177.28 194.393 Q2180.31 197.541 2180.31 202.981 Q2180.31 208.305 2177.16 211.522 Q2174.01 214.74 2168.78 214.74 Q2162.78 214.74 2159.61 210.157 Q2156.44 205.55 2156.44 196.823 Q2156.44 188.629 2160.33 183.768 Q2164.22 178.884 2170.77 178.884 Q2172.53 178.884 2174.31 179.231 Q2176.12 179.578 2178.06 180.273 Z" fill="#000000" fill-rule="evenodd" fill-opacity="1" /><path clip-path="url(#clip270)" d="M 0 0 M2199.54 195.434 Q2202.9 196.152 2204.78 198.421 Q2206.67 200.689 2206.67 204.022 Q2206.67 209.138 2203.15 211.939 Q2199.64 214.74 2193.16 214.74 Q2190.98 214.74 2188.66 214.3 Q2186.37 213.883 2183.92 213.027 L2183.92 208.513 Q2185.86 209.647 2188.18 210.226 Q2190.49 210.805 2193.02 210.805 Q2197.41 210.805 2199.71 209.069 Q2202.02 207.333 2202.02 204.022 Q2202.02 200.967 2199.87 199.254 Q2197.74 197.518 2193.92 197.518 L2189.89 197.518 L2189.89 193.675 L2194.1 193.675 Q2197.55 193.675 2199.38 192.309 Q2201.21 190.921 2201.21 188.328 Q2201.21 185.666 2199.31 184.254 Q2197.44 182.819 2193.92 182.819 Q2192 182.819 2189.8 183.235 Q2187.6 183.652 2184.96 184.532 L2184.96 180.365 Q2187.62 179.624 2189.94 179.254 Q2192.28 178.884 2194.34 178.884 Q2199.66 178.884 2202.76 181.314 Q2205.86 183.722 2205.86 187.842 Q2205.86 190.712 2204.22 192.703 Q2202.58 194.671 2199.54 195.434 Z" fill="#000000" fill-rule="evenodd" fill-opacity="1" /><path clip-path="url(#clip270)" d="M 0 0 M2225.91 195.434 Q2229.27 196.152 2231.14 198.421 Q2233.04 200.689 2233.04 204.022 Q2233.04 209.138 2229.52 211.939 Q2226 214.74 2219.52 214.74 Q2217.34 214.74 2215.03 214.3 Q2212.74 213.883 2210.28 213.027 L2210.28 208.513 Q2212.23 209.647 2214.54 210.226 Q2216.86 210.805 2219.38 210.805 Q2223.78 210.805 2226.07 209.069 Q2228.39 207.333 2228.39 204.022 Q2228.39 200.967 2226.23 199.254 Q2224.1 197.518 2220.28 197.518 L2216.26 197.518 L2216.26 193.675 L2220.47 193.675 Q2223.92 193.675 2225.75 192.309 Q2227.58 190.921 2227.58 188.328 Q2227.58 185.666 2225.68 184.254 Q2223.8 182.819 2220.28 182.819 Q2218.36 182.819 2216.16 183.235 Q2213.97 183.652 2211.33 184.532 L2211.33 180.365 Q2213.99 179.624 2216.3 179.254 Q2218.64 178.884 2220.7 178.884 Q2226.03 178.884 2229.13 181.314 Q2232.23 183.722 2232.23 187.842 Q2232.23 190.712 2230.59 192.703 Q2228.94 194.671 2225.91 195.434 Z" fill="#000000" fill-rule="evenodd" fill-opacity="1" /><polyline clip-path="url(#clip270)" style="stroke:#008000; stroke-width:4; stroke-opacity:1; fill:none" points="
  1666.2,248.629 1809.86,248.629 
  "/>
<path clip-path="url(#clip270)" d="M 0 0 M1839.43 261.973 L1855.75 261.973 L1855.75 265.909 L1833.81 265.909 L1833.81 261.973 Q1836.47 259.219 1841.05 254.589 Q1845.66 249.936 1846.84 248.594 Q1849.08 246.071 1849.96 244.335 Q1850.87 242.575 1850.87 240.886 Q1850.87 238.131 1848.92 236.395 Q1847 234.659 1843.9 234.659 Q1841.7 234.659 1839.24 235.423 Q1836.81 236.187 1834.04 237.737 L1834.04 233.015 Q1836.86 231.881 1839.31 231.302 Q1841.77 230.724 1843.81 230.724 Q1849.18 230.724 1852.37 233.409 Q1855.56 236.094 1855.56 240.585 Q1855.56 242.714 1854.75 244.636 Q1853.97 246.534 1851.86 249.126 Q1851.28 249.798 1848.18 253.015 Q1845.08 256.21 1839.43 261.973 Z" fill="#000000" fill-rule="evenodd" fill-opacity="1" /><path clip-path="url(#clip270)" d="M 0 0 M1860.82 260.029 L1865.7 260.029 L1865.7 265.909 L1860.82 265.909 L1860.82 260.029 Z" fill="#000000" fill-rule="evenodd" fill-opacity="1" /><path clip-path="url(#clip270)" d="M 0 0 M1880.77 234.427 Q1877.16 234.427 1875.33 237.992 Q1873.53 241.534 1873.53 248.663 Q1873.53 255.77 1875.33 259.335 Q1877.16 262.876 1880.77 262.876 Q1884.41 262.876 1886.21 259.335 Q1888.04 255.77 1888.04 248.663 Q1888.04 241.534 1886.21 237.992 Q1884.41 234.427 1880.77 234.427 M1880.77 230.724 Q1886.58 230.724 1889.64 235.33 Q1892.72 239.913 1892.72 248.663 Q1892.72 257.39 1889.64 261.997 Q1886.58 266.58 1880.77 266.58 Q1874.96 266.58 1871.88 261.997 Q1868.83 257.39 1868.83 248.663 Q1868.83 239.913 1871.88 235.33 Q1874.96 230.724 1880.77 230.724 Z" fill="#000000" fill-rule="evenodd" fill-opacity="1" /><path clip-path="url(#clip270)" d="M 0 0 M1907.23 243.362 Q1903.71 243.362 1901.81 245.909 Q1899.82 248.571 1899.82 252.969 Q1899.82 257.622 1901.79 260.307 Q1903.78 262.969 1907.23 262.969 Q1910.63 262.969 1912.62 260.284 Q1914.61 257.598 1914.61 252.969 Q1914.61 248.733 1912.62 245.909 Q1910.8 243.362 1907.23 243.362 M1907.23 239.983 L1921.37 239.983 L1921.37 244.242 L1916.61 244.242 Q1919.13 247.853 1919.13 252.969 Q1919.13 259.335 1915.96 262.946 Q1912.79 266.58 1907.23 266.58 Q1901.65 266.58 1898.5 262.946 Q1895.33 259.335 1895.33 252.969 Q1895.33 246.557 1898.5 242.969 Q1901.12 239.983 1907.23 239.983 Z" fill="#000000" fill-rule="evenodd" fill-opacity="1" /><path clip-path="url(#clip270)" d="M 0 0 M1966.98 234.011 L1966.98 238.941 Q1964.61 236.742 1961.93 235.654 Q1959.27 234.566 1956.26 234.566 Q1950.33 234.566 1947.18 238.2 Q1944.04 241.812 1944.04 248.663 Q1944.04 255.492 1947.18 259.126 Q1950.33 262.737 1956.26 262.737 Q1959.27 262.737 1961.93 261.649 Q1964.61 260.561 1966.98 258.362 L1966.98 263.247 Q1964.52 264.913 1961.77 265.747 Q1959.04 266.58 1955.98 266.58 Q1948.13 266.58 1943.62 261.788 Q1939.11 256.973 1939.11 248.663 Q1939.11 240.33 1943.62 235.538 Q1948.13 230.724 1955.98 230.724 Q1959.08 230.724 1961.81 231.557 Q1964.57 232.367 1966.98 234.011 Z" fill="#000000" fill-rule="evenodd" fill-opacity="1" /><path clip-path="url(#clip270)" d="M 0 0 M1981.49 242.969 Q1978.06 242.969 1976.07 245.654 Q1974.08 248.316 1974.08 252.969 Q1974.08 257.622 1976.05 260.307 Q1978.04 262.969 1981.49 262.969 Q1984.89 262.969 1986.88 260.284 Q1988.87 257.598 1988.87 252.969 Q1988.87 248.362 1986.88 245.677 Q1984.89 242.969 1981.49 242.969 M1981.49 239.358 Q1987.04 239.358 1990.22 242.969 Q1993.39 246.58 1993.39 252.969 Q1993.39 259.335 1990.22 262.969 Q1987.04 266.58 1981.49 266.58 Q1975.91 266.58 1972.74 262.969 Q1969.59 259.335 1969.59 252.969 Q1969.59 246.58 1972.74 242.969 Q1975.91 239.358 1981.49 239.358 Z" fill="#000000" fill-rule="evenodd" fill-opacity="1" /><path clip-path="url(#clip270)" d="M 0 0 M2019.41 250.261 L2019.41 265.909 L2015.15 265.909 L2015.15 250.399 Q2015.15 246.719 2013.71 244.89 Q2012.28 243.062 2009.41 243.062 Q2005.96 243.062 2003.97 245.261 Q2001.98 247.46 2001.98 251.256 L2001.98 265.909 L1997.69 265.909 L1997.69 239.983 L2001.98 239.983 L2001.98 244.011 Q2003.5 241.673 2005.56 240.515 Q2007.65 239.358 2010.36 239.358 Q2014.82 239.358 2017.11 242.136 Q2019.41 244.89 2019.41 250.261 Z" fill="#000000" fill-rule="evenodd" fill-opacity="1" /><path clip-path="url(#clip270)" d="M 0 0 M2037 229.89 L2037 233.432 L2032.92 233.432 Q2030.63 233.432 2029.73 234.358 Q2028.85 235.284 2028.85 237.691 L2028.85 239.983 L2035.86 239.983 L2035.86 243.293 L2028.85 243.293 L2028.85 265.909 L2024.57 265.909 L2024.57 243.293 L2020.49 243.293 L2020.49 239.983 L2024.57 239.983 L2024.57 238.177 Q2024.57 233.849 2026.58 231.881 Q2028.6 229.89 2032.97 229.89 L2037 229.89 Z" fill="#000000" fill-rule="evenodd" fill-opacity="1" /><path clip-path="url(#clip270)" d="M 0 0 M2038.62 260.029 L2043.5 260.029 L2043.5 265.909 L2038.62 265.909 L2038.62 260.029 Z" fill="#000000" fill-rule="evenodd" fill-opacity="1" /><path clip-path="url(#clip270)" d="M 0 0 M2067.9 249.404 L2067.9 262.066 L2075.4 262.066 Q2079.17 262.066 2080.98 260.515 Q2082.81 258.941 2082.81 255.723 Q2082.81 252.483 2080.98 250.955 Q2079.17 249.404 2075.4 249.404 L2067.9 249.404 M2067.9 235.191 L2067.9 245.608 L2074.82 245.608 Q2078.25 245.608 2079.91 244.335 Q2081.6 243.038 2081.6 240.399 Q2081.6 237.784 2079.91 236.487 Q2078.25 235.191 2074.82 235.191 L2067.9 235.191 M2063.23 231.349 L2075.17 231.349 Q2080.52 231.349 2083.41 233.571 Q2086.3 235.793 2086.3 239.89 Q2086.3 243.062 2084.82 244.937 Q2083.34 246.811 2080.47 247.274 Q2083.92 248.015 2085.82 250.376 Q2087.74 252.714 2087.74 256.233 Q2087.74 260.862 2084.59 263.385 Q2081.44 265.909 2075.63 265.909 L2063.23 265.909 L2063.23 231.349 Z" fill="#000000" fill-rule="evenodd" fill-opacity="1" /><path clip-path="url(#clip270)" d="M 0 0 M2103.99 252.876 Q2098.83 252.876 2096.84 254.057 Q2094.85 255.237 2094.85 258.085 Q2094.85 260.353 2096.33 261.696 Q2097.83 263.015 2100.4 263.015 Q2103.94 263.015 2106.07 260.515 Q2108.22 257.992 2108.22 253.825 L2108.22 252.876 L2103.99 252.876 M2112.48 251.117 L2112.48 265.909 L2108.22 265.909 L2108.22 261.973 Q2106.77 264.335 2104.59 265.469 Q2102.41 266.58 2099.27 266.58 Q2095.29 266.58 2092.92 264.358 Q2090.59 262.112 2090.59 258.362 Q2090.59 253.987 2093.5 251.765 Q2096.44 249.543 2102.25 249.543 L2108.22 249.543 L2108.22 249.126 Q2108.22 246.187 2106.28 244.589 Q2104.36 242.969 2100.86 242.969 Q2098.64 242.969 2096.54 243.501 Q2094.43 244.034 2092.48 245.099 L2092.48 241.163 Q2094.82 240.261 2097.02 239.821 Q2099.22 239.358 2101.3 239.358 Q2106.93 239.358 2109.71 242.274 Q2112.48 245.191 2112.48 251.117 Z" fill="#000000" fill-rule="evenodd" fill-opacity="1" /><path clip-path="url(#clip270)" d="M 0 0 M2138.5 250.261 L2138.5 265.909 L2134.24 265.909 L2134.24 250.399 Q2134.24 246.719 2132.81 244.89 Q2131.37 243.062 2128.5 243.062 Q2125.05 243.062 2123.06 245.261 Q2121.07 247.46 2121.07 251.256 L2121.07 265.909 L2116.79 265.909 L2116.79 239.983 L2121.07 239.983 L2121.07 244.011 Q2122.6 241.673 2124.66 240.515 Q2126.74 239.358 2129.45 239.358 Q2133.92 239.358 2136.21 242.136 Q2138.5 244.89 2138.5 250.261 Z" fill="#000000" fill-rule="evenodd" fill-opacity="1" /><path clip-path="url(#clip270)" d="M 0 0 M2160.03 243.918 L2160.03 229.89 L2164.29 229.89 L2164.29 265.909 L2160.03 265.909 L2160.03 262.02 Q2158.69 264.335 2156.63 265.469 Q2154.59 266.58 2151.72 266.58 Q2147.02 266.58 2144.06 262.83 Q2141.12 259.08 2141.12 252.969 Q2141.12 246.858 2144.06 243.108 Q2147.02 239.358 2151.72 239.358 Q2154.59 239.358 2156.63 240.492 Q2158.69 241.603 2160.03 243.918 M2145.52 252.969 Q2145.52 257.668 2147.44 260.353 Q2149.38 263.015 2152.76 263.015 Q2156.14 263.015 2158.09 260.353 Q2160.03 257.668 2160.03 252.969 Q2160.03 248.27 2158.09 245.608 Q2156.14 242.923 2152.76 242.923 Q2149.38 242.923 2147.44 245.608 Q2145.52 248.27 2145.52 252.969 Z" fill="#000000" fill-rule="evenodd" fill-opacity="1" /></svg>
