<?xml version="1.0" encoding="utf-8"?>
<svg xmlns="http://www.w3.org/2000/svg" xmlns:xlink="http://www.w3.org/1999/xlink" width="600" height="400" viewBox="0 0 2400 1600">
<defs>
  <clipPath id="clip850">
    <rect x="0" y="0" width="2400" height="1600"/>
  </clipPath>
</defs>
<path clip-path="url(#clip850)" d="
M0 1600 L2400 1600 L2400 0 L0 0  Z
  " fill="#ffffff" fill-rule="evenodd" fill-opacity="1"/>
<defs>
  <clipPath id="clip851">
    <rect x="480" y="0" width="1681" height="1600"/>
  </clipPath>
</defs>
<path clip-path="url(#clip850)" d="
M197.852 1423.18 L2352.76 1423.18 L2352.76 47.2441 L197.852 47.2441  Z
  " fill="#ffffff" fill-rule="evenodd" fill-opacity="1"/>
<defs>
  <clipPath id="clip852">
    <rect x="197" y="47" width="2156" height="1377"/>
  </clipPath>
</defs>
<polyline clip-path="url(#clip852)" style="stroke:#000000; stroke-width:2; stroke-opacity:0.1; fill:none" points="
  258.84,1423.18 258.84,47.2441 
  "/>
<polyline clip-path="url(#clip852)" style="stroke:#000000; stroke-width:2; stroke-opacity:0.1; fill:none" points="
  936.483,1423.18 936.483,47.2441 
  "/>
<polyline clip-path="url(#clip852)" style="stroke:#000000; stroke-width:2; stroke-opacity:0.1; fill:none" points="
  1614.13,1423.18 1614.13,47.2441 
  "/>
<polyline clip-path="url(#clip852)" style="stroke:#000000; stroke-width:2; stroke-opacity:0.1; fill:none" points="
  2291.77,1423.18 2291.77,47.2441 
  "/>
<polyline clip-path="url(#clip850)" style="stroke:#000000; stroke-width:4; stroke-opacity:1; fill:none" points="
  197.852,1423.18 2352.76,1423.18 
  "/>
<polyline clip-path="url(#clip850)" style="stroke:#000000; stroke-width:4; stroke-opacity:1; fill:none" points="
  258.84,1423.18 258.84,1404.28 
  "/>
<polyline clip-path="url(#clip850)" style="stroke:#000000; stroke-width:4; stroke-opacity:1; fill:none" points="
  936.483,1423.18 936.483,1404.28 
  "/>
<polyline clip-path="url(#clip850)" style="stroke:#000000; stroke-width:4; stroke-opacity:1; fill:none" points="
  1614.13,1423.18 1614.13,1404.28 
  "/>
<polyline clip-path="url(#clip850)" style="stroke:#000000; stroke-width:4; stroke-opacity:1; fill:none" points="
  2291.77,1423.18 2291.77,1404.28 
  "/>
<path clip-path="url(#clip850)" d="M 0 0 M249.222 1479.92 L256.861 1479.92 L256.861 1453.55 L248.551 1455.22 L248.551 1450.96 L256.815 1449.29 L261.491 1449.29 L261.491 1479.92 L269.13 1479.92 L269.13 1483.85 L249.222 1483.85 L249.222 1479.92 Z" fill="#000000" fill-rule="evenodd" fill-opacity="1" /><path clip-path="url(#clip850)" d="M 0 0 M931.136 1479.92 L947.455 1479.92 L947.455 1483.85 L925.511 1483.85 L925.511 1479.92 Q928.173 1477.16 932.756 1472.53 Q937.363 1467.88 938.543 1466.54 Q940.788 1464.01 941.668 1462.28 Q942.571 1460.52 942.571 1458.83 Q942.571 1456.07 940.626 1454.34 Q938.705 1452.6 935.603 1452.6 Q933.404 1452.6 930.951 1453.37 Q928.52 1454.13 925.742 1455.68 L925.742 1450.96 Q928.566 1449.82 931.02 1449.25 Q933.474 1448.67 935.511 1448.67 Q940.881 1448.67 944.075 1451.35 Q947.27 1454.04 947.27 1458.53 Q947.27 1460.66 946.46 1462.58 Q945.673 1464.48 943.566 1467.07 Q942.988 1467.74 939.886 1470.96 Q936.784 1474.15 931.136 1479.92 Z" fill="#000000" fill-rule="evenodd" fill-opacity="1" /><path clip-path="url(#clip850)" d="M 0 0 M1618.37 1465.22 Q1621.73 1465.94 1623.6 1468.2 Q1625.5 1470.47 1625.5 1473.81 Q1625.5 1478.92 1621.98 1481.72 Q1618.47 1484.52 1611.98 1484.52 Q1609.81 1484.52 1607.49 1484.08 Q1605.2 1483.67 1602.75 1482.81 L1602.75 1478.3 Q1604.69 1479.43 1607.01 1480.01 Q1609.32 1480.59 1611.85 1480.59 Q1616.24 1480.59 1618.54 1478.85 Q1620.85 1477.12 1620.85 1473.81 Q1620.85 1470.75 1618.7 1469.04 Q1616.57 1467.3 1612.75 1467.3 L1608.72 1467.3 L1608.72 1463.46 L1612.93 1463.46 Q1616.38 1463.46 1618.21 1462.09 Q1620.04 1460.7 1620.04 1458.11 Q1620.04 1455.45 1618.14 1454.04 Q1616.27 1452.6 1612.75 1452.6 Q1610.83 1452.6 1608.63 1453.02 Q1606.43 1453.44 1603.79 1454.31 L1603.79 1450.15 Q1606.45 1449.41 1608.77 1449.04 Q1611.1 1448.67 1613.16 1448.67 Q1618.49 1448.67 1621.59 1451.1 Q1624.69 1453.5 1624.69 1457.63 Q1624.69 1460.5 1623.05 1462.49 Q1621.41 1464.45 1618.37 1465.22 Z" fill="#000000" fill-rule="evenodd" fill-opacity="1" /><path clip-path="url(#clip850)" d="M 0 0 M2294.78 1453.37 L2282.97 1471.81 L2294.78 1471.81 L2294.78 1453.37 M2293.55 1449.29 L2299.43 1449.29 L2299.43 1471.81 L2304.36 1471.81 L2304.36 1475.7 L2299.43 1475.7 L2299.43 1483.85 L2294.78 1483.85 L2294.78 1475.7 L2279.18 1475.7 L2279.18 1471.19 L2293.55 1449.29 Z" fill="#000000" fill-rule="evenodd" fill-opacity="1" /><path clip-path="url(#clip850)" d="M 0 0 M1291.92 1532.4 L1279.03 1549.74 L1292.59 1568.04 L1285.68 1568.04 L1275.3 1554.04 L1264.93 1568.04 L1258.02 1568.04 L1271.87 1549.39 L1259.2 1532.4 L1266.11 1532.4 L1275.56 1545.1 L1285.01 1532.4 L1291.92 1532.4 Z" fill="#000000" fill-rule="evenodd" fill-opacity="1" /><polyline clip-path="url(#clip852)" style="stroke:#000000; stroke-width:2; stroke-opacity:0.1; fill:none" points="
  197.852,1284.39 2352.76,1284.39 
  "/>
<polyline clip-path="url(#clip852)" style="stroke:#000000; stroke-width:2; stroke-opacity:0.1; fill:none" points="
  197.852,1084.69 2352.76,1084.69 
  "/>
<polyline clip-path="url(#clip852)" style="stroke:#000000; stroke-width:2; stroke-opacity:0.1; fill:none" points="
  197.852,884.987 2352.76,884.987 
  "/>
<polyline clip-path="url(#clip852)" style="stroke:#000000; stroke-width:2; stroke-opacity:0.1; fill:none" points="
  197.852,685.287 2352.76,685.287 
  "/>
<polyline clip-path="url(#clip852)" style="stroke:#000000; stroke-width:2; stroke-opacity:0.1; fill:none" points="
  197.852,485.586 2352.76,485.586 
  "/>
<polyline clip-path="url(#clip852)" style="stroke:#000000; stroke-width:2; stroke-opacity:0.1; fill:none" points="
  197.852,285.886 2352.76,285.886 
  "/>
<polyline clip-path="url(#clip852)" style="stroke:#000000; stroke-width:2; stroke-opacity:0.1; fill:none" points="
  197.852,86.1857 2352.76,86.1857 
  "/>
<polyline clip-path="url(#clip850)" style="stroke:#000000; stroke-width:4; stroke-opacity:1; fill:none" points="
  197.852,1423.18 197.852,47.2441 
  "/>
<polyline clip-path="url(#clip850)" style="stroke:#000000; stroke-width:4; stroke-opacity:1; fill:none" points="
  197.852,1284.39 216.75,1284.39 
  "/>
<polyline clip-path="url(#clip850)" style="stroke:#000000; stroke-width:4; stroke-opacity:1; fill:none" points="
  197.852,1084.69 216.75,1084.69 
  "/>
<polyline clip-path="url(#clip850)" style="stroke:#000000; stroke-width:4; stroke-opacity:1; fill:none" points="
  197.852,884.987 216.75,884.987 
  "/>
<polyline clip-path="url(#clip850)" style="stroke:#000000; stroke-width:4; stroke-opacity:1; fill:none" points="
  197.852,685.287 216.75,685.287 
  "/>
<polyline clip-path="url(#clip850)" style="stroke:#000000; stroke-width:4; stroke-opacity:1; fill:none" points="
  197.852,485.586 216.75,485.586 
  "/>
<polyline clip-path="url(#clip850)" style="stroke:#000000; stroke-width:4; stroke-opacity:1; fill:none" points="
  197.852,285.886 216.75,285.886 
  "/>
<polyline clip-path="url(#clip850)" style="stroke:#000000; stroke-width:4; stroke-opacity:1; fill:none" points="
  197.852,86.1857 216.75,86.1857 
  "/>
<path clip-path="url(#clip850)" d="M 0 0 M152.269 1271.18 L140.464 1289.63 L152.269 1289.63 L152.269 1271.18 M151.042 1267.11 L156.922 1267.11 L156.922 1289.63 L161.852 1289.63 L161.852 1293.52 L156.922 1293.52 L156.922 1301.67 L152.269 1301.67 L152.269 1293.52 L136.667 1293.52 L136.667 1289.01 L151.042 1267.11 Z" fill="#000000" fill-rule="evenodd" fill-opacity="1" /><path clip-path="url(#clip850)" d="M 0 0 M140.95 1067.41 L159.306 1067.41 L159.306 1071.34 L145.232 1071.34 L145.232 1079.82 Q146.251 1079.47 147.269 1079.31 Q148.288 1079.12 149.306 1079.12 Q155.093 1079.12 158.473 1082.29 Q161.852 1085.46 161.852 1090.88 Q161.852 1096.46 158.38 1099.56 Q154.908 1102.64 148.589 1102.64 Q146.413 1102.64 144.144 1102.27 Q141.899 1101.9 139.492 1101.16 L139.492 1096.46 Q141.575 1097.59 143.797 1098.15 Q146.019 1098.7 148.496 1098.7 Q152.501 1098.7 154.839 1096.6 Q157.177 1094.49 157.177 1090.88 Q157.177 1087.27 154.839 1085.16 Q152.501 1083.06 148.496 1083.06 Q146.621 1083.06 144.746 1083.47 Q142.894 1083.89 140.95 1084.77 L140.95 1067.41 Z" fill="#000000" fill-rule="evenodd" fill-opacity="1" /><path clip-path="url(#clip850)" d="M 0 0 M150.325 883.124 Q147.177 883.124 145.325 885.277 Q143.496 887.429 143.496 891.179 Q143.496 894.906 145.325 897.082 Q147.177 899.235 150.325 899.235 Q153.473 899.235 155.302 897.082 Q157.153 894.906 157.153 891.179 Q157.153 887.429 155.302 885.277 Q153.473 883.124 150.325 883.124 M159.607 868.471 L159.607 872.73 Q157.848 871.897 156.042 871.457 Q154.26 871.017 152.501 871.017 Q147.871 871.017 145.417 874.142 Q142.987 877.267 142.64 883.587 Q144.005 881.573 146.066 880.508 Q148.126 879.42 150.603 879.42 Q155.811 879.42 158.82 882.591 Q161.852 885.74 161.852 891.179 Q161.852 896.503 158.704 899.721 Q155.556 902.939 150.325 902.939 Q144.329 902.939 141.158 898.355 Q137.987 893.749 137.987 885.022 Q137.987 876.828 141.876 871.967 Q145.765 867.082 152.316 867.082 Q154.075 867.082 155.857 867.429 Q157.663 867.777 159.607 868.471 Z" fill="#000000" fill-rule="evenodd" fill-opacity="1" /><path clip-path="url(#clip850)" d="M 0 0 M139.63 668.007 L161.852 668.007 L161.852 669.998 L149.306 702.567 L144.422 702.567 L156.228 671.942 L139.63 671.942 L139.63 668.007 Z" fill="#000000" fill-rule="evenodd" fill-opacity="1" /><path clip-path="url(#clip850)" d="M 0 0 M150.001 486.455 Q146.667 486.455 144.746 488.237 Q142.848 490.019 142.848 493.144 Q142.848 496.269 144.746 498.052 Q146.667 499.834 150.001 499.834 Q153.334 499.834 155.255 498.052 Q157.177 496.246 157.177 493.144 Q157.177 490.019 155.255 488.237 Q153.357 486.455 150.001 486.455 M145.325 484.464 Q142.316 483.723 140.626 481.663 Q138.959 479.603 138.959 476.64 Q138.959 472.496 141.899 470.089 Q144.862 467.681 150.001 467.681 Q155.163 467.681 158.103 470.089 Q161.042 472.496 161.042 476.64 Q161.042 479.603 159.353 481.663 Q157.686 483.723 154.7 484.464 Q158.079 485.251 159.954 487.542 Q161.852 489.834 161.852 493.144 Q161.852 498.167 158.774 500.853 Q155.718 503.538 150.001 503.538 Q144.283 503.538 141.204 500.853 Q138.149 498.167 138.149 493.144 Q138.149 489.834 140.047 487.542 Q141.945 485.251 145.325 484.464 M143.612 477.08 Q143.612 479.765 145.279 481.269 Q146.968 482.774 150.001 482.774 Q153.01 482.774 154.7 481.269 Q156.413 479.765 156.413 477.08 Q156.413 474.394 154.7 472.89 Q153.01 471.385 150.001 471.385 Q146.968 471.385 145.279 472.89 Q143.612 474.394 143.612 477.08 Z" fill="#000000" fill-rule="evenodd" fill-opacity="1" /><path clip-path="url(#clip850)" d="M 0 0 M140.232 302.448 L140.232 298.189 Q141.991 299.023 143.797 299.462 Q145.603 299.902 147.339 299.902 Q151.968 299.902 154.399 296.8 Q156.853 293.675 157.2 287.333 Q155.857 289.324 153.797 290.388 Q151.737 291.453 149.237 291.453 Q144.052 291.453 141.019 288.328 Q138.01 285.18 138.01 279.74 Q138.01 274.416 141.158 271.199 Q144.306 267.981 149.538 267.981 Q155.533 267.981 158.681 272.588 Q161.852 277.171 161.852 285.921 Q161.852 294.092 157.964 298.976 Q154.098 303.837 147.547 303.837 Q145.788 303.837 143.982 303.49 Q142.177 303.143 140.232 302.448 M149.538 287.796 Q152.686 287.796 154.515 285.643 Q156.366 283.49 156.366 279.74 Q156.366 276.013 154.515 273.861 Q152.686 271.685 149.538 271.685 Q146.39 271.685 144.538 273.861 Q142.709 276.013 142.709 279.74 Q142.709 283.49 144.538 285.643 Q146.39 287.796 149.538 287.796 Z" fill="#000000" fill-rule="evenodd" fill-opacity="1" /><path clip-path="url(#clip850)" d="M 0 0 M114.931 99.5305 L122.57 99.5305 L122.57 73.1649 L114.26 74.8316 L114.26 70.5723 L122.524 68.9057 L127.2 68.9057 L127.2 99.5305 L134.839 99.5305 L134.839 103.466 L114.931 103.466 L114.931 99.5305 Z" fill="#000000" fill-rule="evenodd" fill-opacity="1" /><path clip-path="url(#clip850)" d="M 0 0 M149.908 71.9844 Q146.297 71.9844 144.468 75.5492 Q142.663 79.0908 142.663 86.2204 Q142.663 93.3268 144.468 96.8916 Q146.297 100.433 149.908 100.433 Q153.542 100.433 155.348 96.8916 Q157.177 93.3268 157.177 86.2204 Q157.177 79.0908 155.348 75.5492 Q153.542 71.9844 149.908 71.9844 M149.908 68.2807 Q155.718 68.2807 158.774 72.8871 Q161.852 77.4704 161.852 86.2204 Q161.852 94.9472 158.774 99.5537 Q155.718 104.137 149.908 104.137 Q144.098 104.137 141.019 99.5537 Q137.964 94.9472 137.964 86.2204 Q137.964 77.4704 141.019 72.8871 Q144.098 68.2807 149.908 68.2807 Z" fill="#000000" fill-rule="evenodd" fill-opacity="1" /><path clip-path="url(#clip850)" d="M 0 0 M67.3143 733.525 Q73.68 736.008 75.6216 738.363 Q77.5631 740.718 77.5631 744.665 L77.5631 749.344 L72.6615 749.344 L72.6615 745.906 Q72.6615 743.487 71.5157 742.151 Q70.3699 740.814 66.1048 739.191 L63.4312 738.14 L28.3562 752.559 L28.3562 746.352 L56.238 735.212 L28.3562 724.072 L28.3562 717.865 L67.3143 733.525 Z" fill="#000000" fill-rule="evenodd" fill-opacity="1" /><polyline clip-path="url(#clip852)" style="stroke:#000000; stroke-width:4; stroke-opacity:0.8; fill:none" points="
  258.84,1384.24 258.84,1184.54 
  "/>
<polyline clip-path="url(#clip852)" style="stroke:#000000; stroke-width:4; stroke-opacity:0.8; fill:none" points="
  936.483,1174.55 936.483,994.822 
  "/>
<polyline clip-path="url(#clip852)" style="stroke:#000000; stroke-width:4; stroke-opacity:0.8; fill:none" points="
  1614.13,904.957 1614.13,665.317 
  "/>
<polyline clip-path="url(#clip852)" style="stroke:#000000; stroke-width:4; stroke-opacity:0.8; fill:none" points="
  2291.77,485.586 2291.77,86.1857 
  "/>
<line clip-path="url(#clip852)" x1="274.84" y1="1384.24" x2="242.84" y2="1384.24" style="stroke:#000000; stroke-width:3.2; stroke-opacity:1"/>
<line clip-path="url(#clip852)" x1="274.84" y1="1184.54" x2="242.84" y2="1184.54" style="stroke:#000000; stroke-width:3.2; stroke-opacity:1"/>
<line clip-path="url(#clip852)" x1="952.483" y1="1174.55" x2="920.483" y2="1174.55" style="stroke:#000000; stroke-width:3.2; stroke-opacity:1"/>
<line clip-path="url(#clip852)" x1="952.483" y1="994.822" x2="920.483" y2="994.822" style="stroke:#000000; stroke-width:3.2; stroke-opacity:1"/>
<line clip-path="url(#clip852)" x1="1630.13" y1="904.957" x2="1598.13" y2="904.957" style="stroke:#000000; stroke-width:3.2; stroke-opacity:1"/>
<line clip-path="url(#clip852)" x1="1630.13" y1="665.317" x2="1598.13" y2="665.317" style="stroke:#000000; stroke-width:3.2; stroke-opacity:1"/>
<line clip-path="url(#clip852)" x1="2307.77" y1="485.586" x2="2275.77" y2="485.586" style="stroke:#000000; stroke-width:3.2; stroke-opacity:1"/>
<line clip-path="url(#clip852)" x1="2307.77" y1="86.1857" x2="2275.77" y2="86.1857" style="stroke:#000000; stroke-width:3.2; stroke-opacity:1"/>
<circle clip-path="url(#clip852)" cx="258.84" cy="1284.39" r="14" fill="#009af9" fill-rule="evenodd" fill-opacity="1" stroke="#000000" stroke-opacity="1" stroke-width="3.2"/>
<circle clip-path="url(#clip852)" cx="936.483" cy="1084.69" r="14" fill="#009af9" fill-rule="evenodd" fill-opacity="1" stroke="#000000" stroke-opacity="1" stroke-width="3.2"/>
<circle clip-path="url(#clip852)" cx="1614.13" cy="785.137" r="14" fill="#009af9" fill-rule="evenodd" fill-opacity="1" stroke="#000000" stroke-opacity="1" stroke-width="3.2"/>
<circle clip-path="url(#clip852)" cx="2291.77" cy="285.886" r="14" fill="#009af9" fill-rule="evenodd" fill-opacity="1" stroke="#000000" stroke-opacity="1" stroke-width="3.2"/>
<polyline clip-path="url(#clip852)" style="stroke:#ff0000; stroke-width:8; stroke-opacity:1; fill:none" points="
  258.84,1333.5 262.914,1331.72 266.988,1329.94 271.062,1328.16 275.136,1326.38 279.21,1324.6 283.284,1322.82 287.358,1321.04 291.432,1319.26 295.506,1317.48 
  299.58,1315.7 303.654,1313.92 307.728,1312.14 311.802,1310.36 315.876,1308.58 319.95,1306.79 324.024,1305.01 328.098,1303.23 332.172,1301.45 336.246,1299.67 
  340.32,1297.89 344.394,1296.11 348.468,1294.33 352.542,1292.55 356.616,1290.77 360.69,1288.99 364.764,1287.21 368.838,1285.43 372.912,1283.65 376.986,1281.87 
  381.06,1280.09 385.134,1278.31 389.208,1276.53 393.282,1274.75 397.356,1272.97 401.43,1271.19 405.504,1269.41 409.578,1267.63 413.652,1265.85 417.726,1264.07 
  421.8,1262.29 425.874,1260.51 429.948,1258.72 434.022,1256.94 438.096,1255.16 442.17,1253.38 446.244,1251.6 450.318,1249.82 454.392,1248.04 458.466,1246.26 
  462.541,1244.48 466.615,1242.7 470.689,1240.92 474.763,1239.14 478.837,1237.36 482.911,1235.58 486.985,1233.8 491.059,1232.02 495.133,1230.24 499.207,1228.46 
  503.281,1226.68 507.355,1224.9 511.429,1223.12 515.503,1221.34 519.577,1219.56 523.651,1217.78 527.725,1216 531.799,1214.22 535.873,1212.44 539.947,1210.65 
  544.021,1208.87 548.095,1207.09 552.169,1205.31 556.243,1203.53 560.317,1201.75 564.391,1199.97 568.465,1198.19 572.539,1196.41 576.613,1194.63 580.687,1192.85 
  584.761,1191.07 588.835,1189.29 592.909,1187.51 596.983,1185.73 601.057,1183.95 605.131,1182.17 609.205,1180.39 613.279,1178.61 617.353,1176.83 621.427,1175.05 
  625.501,1173.27 629.575,1171.49 633.649,1169.71 637.723,1167.93 641.797,1166.15 645.871,1164.37 649.945,1162.58 654.019,1160.8 658.093,1159.02 662.167,1157.24 
  666.241,1155.46 670.315,1153.68 674.389,1151.9 678.463,1150.12 682.537,1148.34 686.611,1146.56 690.685,1144.78 694.759,1143 698.833,1141.22 702.907,1139.44 
  706.981,1137.66 711.055,1135.88 715.129,1134.1 719.203,1132.32 723.277,1130.54 727.351,1128.76 731.425,1126.98 735.499,1125.2 739.573,1123.42 743.647,1121.64 
  747.721,1119.86 751.795,1118.08 755.869,1116.29 759.943,1114.51 764.017,1112.73 768.091,1110.95 772.165,1109.17 776.239,1107.39 780.313,1105.61 784.387,1103.83 
  788.461,1102.05 792.535,1100.27 796.609,1098.49 800.683,1096.71 804.757,1094.93 808.831,1093.15 812.905,1091.37 816.979,1089.59 821.053,1087.81 825.127,1086.03 
  829.201,1084.25 833.275,1082.47 837.349,1080.69 841.423,1078.91 845.497,1077.13 849.571,1075.35 853.645,1073.57 857.719,1071.79 861.793,1070.01 865.867,1068.22 
  869.941,1066.44 874.015,1064.66 878.089,1062.88 882.163,1061.1 886.237,1059.32 890.311,1057.54 894.385,1055.76 898.459,1053.98 902.533,1052.2 906.607,1050.42 
  910.681,1048.64 914.755,1046.86 918.829,1045.08 922.903,1043.3 926.977,1041.52 931.051,1039.74 935.125,1037.96 939.199,1036.18 943.273,1034.4 947.347,1032.62 
  951.421,1030.84 955.495,1029.06 959.569,1027.28 963.643,1025.5 967.717,1023.72 971.791,1021.94 975.865,1020.15 979.939,1018.37 984.013,1016.59 988.087,1014.81 
  992.161,1013.03 996.235,1011.25 1000.31,1009.47 1004.38,1007.69 1008.46,1005.91 1012.53,1004.13 1016.6,1002.35 1020.68,1000.57 1024.75,998.79 1028.83,997.01 
  1032.9,995.229 1036.97,993.449 1041.05,991.669 1045.12,989.888 1049.2,988.108 1053.27,986.328 1057.35,984.547 1061.42,982.767 1065.49,980.986 1069.57,979.206 
  1073.64,977.426 1077.72,975.645 1081.79,973.865 1085.86,972.085 1089.94,970.304 1094.01,968.524 1098.09,966.743 1102.16,964.963 1106.23,963.183 1110.31,961.402 
  1114.38,959.622 1118.46,957.842 1122.53,956.061 1126.6,954.281 1130.68,952.501 1134.75,950.72 1138.83,948.94 1142.9,947.159 1146.97,945.379 1151.05,943.599 
  1155.12,941.818 1159.2,940.038 1163.27,938.258 1167.34,936.477 1171.42,934.697 1175.49,932.916 1179.57,931.136 1183.64,929.356 1187.71,927.575 1191.79,925.795 
  1195.86,924.015 1199.94,922.234 1204.01,920.454 1208.08,918.673 1212.16,916.893 1216.23,915.113 1220.31,913.332 1224.38,911.552 1228.45,909.772 1232.53,907.991 
  1236.6,906.211 1240.68,904.43 1244.75,902.65 1248.82,900.87 1252.9,899.089 1256.97,897.309 1261.05,895.529 1265.12,893.748 1269.19,891.968 1273.27,890.187 
  1277.34,888.407 1281.42,886.627 1285.49,884.846 1289.56,883.066 1293.64,881.286 1297.71,879.505 1301.79,877.725 1305.86,875.944 1309.93,874.164 1314.01,872.384 
  1318.08,870.603 1322.16,868.823 1326.23,867.043 1330.3,865.262 1334.38,863.482 1338.45,861.701 1342.53,859.921 1346.6,858.141 1350.67,856.36 1354.75,854.58 
  1358.82,852.8 1362.9,851.019 1366.97,849.239 1371.04,847.458 1375.12,845.678 1379.19,843.898 1383.27,842.117 1387.34,840.337 1391.41,838.557 1395.49,836.776 
  1399.56,834.996 1403.64,833.215 1407.71,831.435 1411.78,829.655 1415.86,827.874 1419.93,826.094 1424.01,824.314 1428.08,822.533 1432.15,820.753 1436.23,818.972 
  1440.3,817.192 1444.38,815.412 1448.45,813.631 1452.52,811.851 1456.6,810.071 1460.67,808.29 1464.75,806.51 1468.82,804.729 1472.89,802.949 1476.97,801.169 
  1481.04,799.388 1485.12,797.608 1489.19,795.828 1493.26,794.047 1497.34,792.267 1501.41,790.486 1505.49,788.706 1509.56,786.926 1513.63,785.145 1517.71,783.365 
  1521.78,781.585 1525.86,779.804 1529.93,778.024 1534,776.243 1538.08,774.463 1542.15,772.683 1546.23,770.902 1550.3,769.122 1554.37,767.342 1558.45,765.561 
  1562.52,763.781 1566.6,762 1570.67,760.22 1574.74,758.44 1578.82,756.659 1582.89,754.879 1586.97,753.099 1591.04,751.318 1595.11,749.538 1599.19,747.757 
  1603.26,745.977 1607.34,744.197 1611.41,742.416 1615.48,740.636 1619.56,738.856 1623.63,737.075 1627.71,735.295 1631.78,733.514 1635.85,731.734 1639.93,729.954 
  1644,728.173 1648.08,726.393 1652.15,724.613 1656.22,722.832 1660.3,721.052 1664.37,719.271 1668.45,717.491 1672.52,715.711 1676.59,713.93 1680.67,712.15 
  1684.74,710.37 1688.82,708.589 1692.89,706.809 1696.96,705.029 1701.04,703.248 1705.11,701.468 1709.19,699.687 1713.26,697.907 1717.33,696.127 1721.41,694.346 
  1725.48,692.566 1729.56,690.786 1733.63,689.005 1737.7,687.225 1741.78,685.444 1745.85,683.664 1749.93,681.884 1754,680.103 1758.07,678.323 1762.15,676.543 
  1766.22,674.762 1770.3,672.982 1774.37,671.201 1778.44,669.421 1782.52,667.641 1786.59,665.86 1790.67,664.08 1794.74,662.3 1798.81,660.519 1802.89,658.739 
  1806.96,656.958 1811.04,655.178 1815.11,653.398 1819.18,651.617 1823.26,649.837 1827.33,648.057 1831.41,646.276 1835.48,644.496 1839.55,642.715 1843.63,640.935 
  1847.7,639.155 1851.78,637.374 1855.85,635.594 1859.92,633.814 1864,632.033 1868.07,630.253 1872.15,628.472 1876.22,626.692 1880.29,624.912 1884.37,623.131 
  1888.44,621.351 1892.52,619.571 1896.59,617.79 1900.66,616.01 1904.74,614.229 1908.81,612.449 1912.89,610.669 1916.96,608.888 1921.03,607.108 1925.11,605.328 
  1929.18,603.547 1933.26,601.767 1937.33,599.986 1941.4,598.206 1945.48,596.426 1949.55,594.645 1953.63,592.865 1957.7,591.085 1961.77,589.304 1965.85,587.524 
  1969.92,585.743 1974,583.963 1978.07,582.183 1982.14,580.402 1986.22,578.622 1990.29,576.842 1994.37,575.061 1998.44,573.281 2002.51,571.5 2006.59,569.72 
  2010.66,567.94 2014.74,566.159 2018.81,564.379 2022.88,562.599 2026.96,560.818 2031.03,559.038 2035.11,557.257 2039.18,555.477 2043.25,553.697 2047.33,551.916 
  2051.4,550.136 2055.48,548.356 2059.55,546.575 2063.62,544.795 2067.7,543.014 2071.77,541.234 2075.85,539.454 2079.92,537.673 2083.99,535.893 2088.07,534.113 
  2092.14,532.332 2096.22,530.552 2100.29,528.771 2104.36,526.991 2108.44,525.211 2112.51,523.43 2116.59,521.65 2120.66,519.87 2124.73,518.089 2128.81,516.309 
  2132.88,514.528 2136.96,512.748 2141.03,510.968 2145.1,509.187 2149.18,507.407 2153.25,505.627 2157.33,503.846 2161.4,502.066 2165.47,500.285 2169.55,498.505 
  2173.62,496.725 2177.7,494.944 2181.77,493.164 2185.84,491.384 2189.92,489.603 2193.99,487.823 2198.07,486.042 2202.14,484.262 2206.21,482.482 2210.29,480.701 
  2214.36,478.921 2218.44,477.141 2222.51,475.36 2226.58,473.58 2230.66,471.799 2234.73,470.019 2238.81,468.239 2242.88,466.458 2246.95,464.678 2251.03,462.898 
  2255.1,461.117 2259.18,459.337 2263.25,457.556 2267.32,455.776 2271.4,453.996 2275.47,452.215 2279.55,450.435 2283.62,448.655 2287.69,446.874 2291.77,445.094 
  
  "/>
<path clip-path="url(#clip850)" d="
M1642.26 248.629 L2280.93 248.629 L2280.93 93.1086 L1642.26 93.1086  Z
  " fill="#ffffff" fill-rule="evenodd" fill-opacity="1"/>
<polyline clip-path="url(#clip850)" style="stroke:#000000; stroke-width:4; stroke-opacity:1; fill:none" points="
  1642.26,248.629 2280.93,248.629 2280.93,93.1086 1642.26,93.1086 1642.26,248.629 
  "/>
<circle clip-path="url(#clip850)" cx="1738.03" cy="144.949" r="23" fill="#009af9" fill-rule="evenodd" fill-opacity="1" stroke="#000000" stroke-opacity="1" stroke-width="5.12"/>
<path clip-path="url(#clip850)" d="M 0 0 M1838.48 131.511 L1838.48 158.386 L1844.13 158.386 Q1851.28 158.386 1854.59 155.145 Q1857.93 151.905 1857.93 144.914 Q1857.93 137.969 1854.59 134.752 Q1851.28 131.511 1844.13 131.511 L1838.48 131.511 M1833.81 127.669 L1843.41 127.669 Q1853.46 127.669 1858.16 131.858 Q1862.86 136.025 1862.86 144.914 Q1862.86 153.849 1858.13 158.039 Q1853.41 162.229 1843.41 162.229 L1833.81 162.229 L1833.81 127.669 Z" fill="#000000" fill-rule="evenodd" fill-opacity="1" /><path clip-path="url(#clip850)" d="M 0 0 M1879.11 149.196 Q1873.94 149.196 1871.95 150.377 Q1869.96 151.557 1869.96 154.405 Q1869.96 156.673 1871.44 158.016 Q1872.95 159.335 1875.52 159.335 Q1879.06 159.335 1881.19 156.835 Q1883.34 154.312 1883.34 150.145 L1883.34 149.196 L1879.11 149.196 M1887.6 147.437 L1887.6 162.229 L1883.34 162.229 L1883.34 158.293 Q1881.88 160.655 1879.71 161.789 Q1877.53 162.9 1874.38 162.9 Q1870.4 162.9 1868.04 160.678 Q1865.7 158.432 1865.7 154.682 Q1865.7 150.307 1868.62 148.085 Q1871.56 145.863 1877.37 145.863 L1883.34 145.863 L1883.34 145.446 Q1883.34 142.507 1881.4 140.909 Q1879.48 139.289 1875.98 139.289 Q1873.76 139.289 1871.65 139.821 Q1869.55 140.354 1867.6 141.419 L1867.6 137.483 Q1869.94 136.581 1872.14 136.141 Q1874.34 135.678 1876.42 135.678 Q1882.05 135.678 1884.82 138.594 Q1887.6 141.511 1887.6 147.437 Z" fill="#000000" fill-rule="evenodd" fill-opacity="1" /><path clip-path="url(#clip850)" d="M 0 0 M1896.28 128.942 L1896.28 136.303 L1905.05 136.303 L1905.05 139.613 L1896.28 139.613 L1896.28 153.687 Q1896.28 156.858 1897.14 157.761 Q1898.02 158.664 1900.68 158.664 L1905.05 158.664 L1905.05 162.229 L1900.68 162.229 Q1895.75 162.229 1893.87 160.4 Q1892 158.548 1892 153.687 L1892 139.613 L1888.87 139.613 L1888.87 136.303 L1892 136.303 L1892 128.942 L1896.28 128.942 Z" fill="#000000" fill-rule="evenodd" fill-opacity="1" /><path clip-path="url(#clip850)" d="M 0 0 M1921.3 149.196 Q1916.14 149.196 1914.15 150.377 Q1912.16 151.557 1912.16 154.405 Q1912.16 156.673 1913.64 158.016 Q1915.15 159.335 1917.72 159.335 Q1921.26 159.335 1923.39 156.835 Q1925.54 154.312 1925.54 150.145 L1925.54 149.196 L1921.3 149.196 M1929.8 147.437 L1929.8 162.229 L1925.54 162.229 L1925.54 158.293 Q1924.08 160.655 1921.91 161.789 Q1919.73 162.9 1916.58 162.9 Q1912.6 162.9 1910.24 160.678 Q1907.9 158.432 1907.9 154.682 Q1907.9 150.307 1910.82 148.085 Q1913.76 145.863 1919.57 145.863 L1925.54 145.863 L1925.54 145.446 Q1925.54 142.507 1923.6 140.909 Q1921.67 139.289 1918.18 139.289 Q1915.96 139.289 1913.85 139.821 Q1911.74 140.354 1909.8 141.419 L1909.8 137.483 Q1912.14 136.581 1914.34 136.141 Q1916.54 135.678 1918.62 135.678 Q1924.24 135.678 1927.02 138.594 Q1929.8 141.511 1929.8 147.437 Z" fill="#000000" fill-rule="evenodd" fill-opacity="1" /><polyline clip-path="url(#clip850)" style="stroke:#ff0000; stroke-width:4; stroke-opacity:1; fill:none" points="
  1666.2,196.789 1809.86,196.789 
  "/>
<path clip-path="url(#clip850)" d="M 0 0 M1833.81 179.509 L1853.67 179.509 L1853.67 183.444 L1838.48 183.444 L1838.48 193.629 L1852.18 193.629 L1852.18 197.564 L1838.48 197.564 L1838.48 214.069 L1833.81 214.069 L1833.81 179.509 Z" fill="#000000" fill-rule="evenodd" fill-opacity="1" /><path clip-path="url(#clip850)" d="M 0 0 M1854.68 188.143 L1858.94 188.143 L1858.94 214.069 L1854.68 214.069 L1854.68 188.143 M1854.68 178.05 L1858.94 178.05 L1858.94 183.444 L1854.68 183.444 L1854.68 178.05 Z" fill="#000000" fill-rule="evenodd" fill-opacity="1" /><path clip-path="url(#clip850)" d="M 0 0 M1867.62 180.782 L1867.62 188.143 L1876.4 188.143 L1876.4 191.453 L1867.62 191.453 L1867.62 205.527 Q1867.62 208.698 1868.48 209.601 Q1869.36 210.504 1872.02 210.504 L1876.4 210.504 L1876.4 214.069 L1872.02 214.069 Q1867.09 214.069 1865.22 212.24 Q1863.34 210.388 1863.34 205.527 L1863.34 191.453 L1860.22 191.453 L1860.22 188.143 L1863.34 188.143 L1863.34 180.782 L1867.62 180.782 Z" fill="#000000" fill-rule="evenodd" fill-opacity="1" /><path clip-path="url(#clip850)" d="M 0 0 M1893.46 188.143 L1897.72 188.143 L1903.04 208.374 L1908.34 188.143 L1913.36 188.143 L1918.69 208.374 L1923.99 188.143 L1928.25 188.143 L1921.47 214.069 L1916.44 214.069 L1910.86 192.819 L1905.26 214.069 L1900.24 214.069 L1893.46 188.143 Z" fill="#000000" fill-rule="evenodd" fill-opacity="1" /><path clip-path="url(#clip850)" d="M 0 0 M1932.72 188.143 L1936.98 188.143 L1936.98 214.069 L1932.72 214.069 L1932.72 188.143 M1932.72 178.05 L1936.98 178.05 L1936.98 183.444 L1932.72 183.444 L1932.72 178.05 Z" fill="#000000" fill-rule="evenodd" fill-opacity="1" /><path clip-path="url(#clip850)" d="M 0 0 M1945.66 180.782 L1945.66 188.143 L1954.43 188.143 L1954.43 191.453 L1945.66 191.453 L1945.66 205.527 Q1945.66 208.698 1946.51 209.601 Q1947.39 210.504 1950.05 210.504 L1954.43 210.504 L1954.43 214.069 L1950.05 214.069 Q1945.12 214.069 1943.25 212.24 Q1941.37 210.388 1941.37 205.527 L1941.37 191.453 L1938.25 191.453 L1938.25 188.143 L1941.37 188.143 L1941.37 180.782 L1945.66 180.782 Z" fill="#000000" fill-rule="evenodd" fill-opacity="1" /><path clip-path="url(#clip850)" d="M 0 0 M1980.45 198.421 L1980.45 214.069 L1976.19 214.069 L1976.19 198.559 Q1976.19 194.879 1974.75 193.05 Q1973.32 191.222 1970.45 191.222 Q1967 191.222 1965.01 193.421 Q1963.02 195.62 1963.02 199.416 L1963.02 214.069 L1958.73 214.069 L1958.73 178.05 L1963.02 178.05 L1963.02 192.171 Q1964.55 189.833 1966.61 188.675 Q1968.69 187.518 1971.4 187.518 Q1975.86 187.518 1978.16 190.296 Q1980.45 193.05 1980.45 198.421 Z" fill="#000000" fill-rule="evenodd" fill-opacity="1" /><path clip-path="url(#clip850)" d="M 0 0 M2016.56 197.865 Q2018.06 198.374 2019.48 200.041 Q2020.91 201.708 2022.35 204.624 L2027.09 214.069 L2022.07 214.069 L2017.65 205.203 Q2015.93 201.731 2014.31 200.596 Q2012.72 199.462 2009.94 199.462 L2004.85 199.462 L2004.85 214.069 L2000.17 214.069 L2000.17 179.509 L2010.73 179.509 Q2016.65 179.509 2019.57 181.985 Q2022.48 184.462 2022.48 189.462 Q2022.48 192.726 2020.96 194.879 Q2019.45 197.032 2016.56 197.865 M2004.85 183.351 L2004.85 195.62 L2010.73 195.62 Q2014.11 195.62 2015.82 194.069 Q2017.55 192.495 2017.55 189.462 Q2017.55 186.43 2015.82 184.902 Q2014.11 183.351 2010.73 183.351 L2004.85 183.351 Z" fill="#000000" fill-rule="evenodd" fill-opacity="1" /><path clip-path="url(#clip850)" d="M 0 0 M2052.46 180.643 L2052.46 185.203 Q2049.8 183.93 2047.44 183.305 Q2045.08 182.68 2042.88 182.68 Q2039.06 182.68 2036.98 184.161 Q2034.92 185.643 2034.92 188.374 Q2034.92 190.666 2036.28 191.847 Q2037.67 193.004 2041.51 193.722 L2044.34 194.3 Q2049.57 195.296 2052.04 197.819 Q2054.54 200.319 2054.54 204.532 Q2054.54 209.555 2051.17 212.147 Q2047.81 214.74 2041.3 214.74 Q2038.85 214.74 2036.07 214.184 Q2033.32 213.629 2030.35 212.541 L2030.35 207.726 Q2033.2 209.323 2035.93 210.133 Q2038.67 210.944 2041.3 210.944 Q2045.31 210.944 2047.48 209.37 Q2049.66 207.796 2049.66 204.879 Q2049.66 202.333 2048.09 200.897 Q2046.54 199.462 2042.97 198.745 L2040.12 198.189 Q2034.89 197.147 2032.55 194.925 Q2030.22 192.703 2030.22 188.745 Q2030.22 184.161 2033.43 181.522 Q2036.67 178.884 2042.35 178.884 Q2044.78 178.884 2047.3 179.323 Q2049.82 179.763 2052.46 180.643 Z" fill="#000000" fill-rule="evenodd" fill-opacity="1" /><path clip-path="url(#clip850)" d="M 0 0 M2059.2 179.509 L2081.05 179.509 L2081.05 183.444 L2063.87 183.444 L2063.87 193.675 L2080.33 193.675 L2080.33 197.61 L2063.87 197.61 L2063.87 210.133 L2081.47 210.133 L2081.47 214.069 L2059.2 214.069 L2059.2 179.509 Z" fill="#000000" fill-rule="evenodd" fill-opacity="1" /><path clip-path="url(#clip850)" d="M 0 0 M2116.16 199.647 L2116.16 203.791 Q2113.73 205.596 2111.65 206.407 Q2109.59 207.194 2107.35 207.194 Q2104.8 207.194 2101.42 205.828 Q2101.19 205.735 2101.03 205.666 Q2100.89 205.62 2100.54 205.481 Q2096.95 204.069 2094.78 204.069 Q2092.74 204.069 2090.75 204.948 Q2088.76 205.828 2086.49 207.772 L2086.49 203.629 Q2088.92 201.823 2090.98 201.036 Q2093.06 200.226 2095.31 200.226 Q2097.85 200.226 2101.26 201.592 Q2101.51 201.708 2101.63 201.754 Q2101.77 201.8 2102.11 201.939 Q2105.7 203.351 2107.88 203.351 Q2109.87 203.351 2111.81 202.495 Q2113.78 201.615 2116.16 199.647 M2116.16 190.643 L2116.16 194.763 Q2113.73 196.592 2111.65 197.402 Q2109.59 198.189 2107.35 198.189 Q2104.8 198.189 2101.42 196.823 Q2101.19 196.731 2101.03 196.661 Q2100.89 196.615 2100.54 196.476 Q2096.95 195.064 2094.78 195.064 Q2092.74 195.064 2090.75 195.944 Q2088.76 196.823 2086.49 198.745 L2086.49 194.624 Q2088.92 192.819 2090.98 192.032 Q2093.06 191.222 2095.31 191.222 Q2097.85 191.222 2101.26 192.587 Q2101.49 192.68 2101.6 192.726 Q2101.77 192.796 2102.11 192.934 Q2105.7 194.347 2107.88 194.347 Q2109.87 194.347 2111.81 193.49 Q2113.78 192.61 2116.16 190.643 Z" fill="#000000" fill-rule="evenodd" fill-opacity="1" /><path clip-path="url(#clip850)" d="M 0 0 M2131.23 182.587 Q2127.62 182.587 2125.79 186.152 Q2123.99 189.694 2123.99 196.823 Q2123.99 203.93 2125.79 207.495 Q2127.62 211.036 2131.23 211.036 Q2134.87 211.036 2136.67 207.495 Q2138.5 203.93 2138.5 196.823 Q2138.5 189.694 2136.67 186.152 Q2134.87 182.587 2131.23 182.587 M2131.23 178.884 Q2137.04 178.884 2140.1 183.49 Q2143.18 188.073 2143.18 196.823 Q2143.18 205.55 2140.1 210.157 Q2137.04 214.74 2131.23 214.74 Q2125.42 214.74 2122.35 210.157 Q2119.29 205.55 2119.29 196.823 Q2119.29 188.073 2122.35 183.49 Q2125.42 178.884 2131.23 178.884 Z" fill="#000000" fill-rule="evenodd" fill-opacity="1" /><path clip-path="url(#clip850)" d="M 0 0 M2148.25 208.189 L2153.13 208.189 L2153.13 214.069 L2148.25 214.069 L2148.25 208.189 Z" fill="#000000" fill-rule="evenodd" fill-opacity="1" /><path clip-path="url(#clip850)" d="M 0 0 M2168.78 194.925 Q2165.63 194.925 2163.78 197.078 Q2161.95 199.231 2161.95 202.981 Q2161.95 206.708 2163.78 208.883 Q2165.63 211.036 2168.78 211.036 Q2171.93 211.036 2173.76 208.883 Q2175.61 206.708 2175.61 202.981 Q2175.61 199.231 2173.76 197.078 Q2171.93 194.925 2168.78 194.925 M2178.06 180.273 L2178.06 184.532 Q2176.3 183.698 2174.5 183.259 Q2172.72 182.819 2170.96 182.819 Q2166.33 182.819 2163.87 185.944 Q2161.44 189.069 2161.09 195.388 Q2162.46 193.374 2164.52 192.309 Q2166.58 191.222 2169.06 191.222 Q2174.27 191.222 2177.28 194.393 Q2180.31 197.541 2180.31 202.981 Q2180.31 208.305 2177.16 211.522 Q2174.01 214.74 2168.78 214.74 Q2162.78 214.74 2159.61 210.157 Q2156.44 205.55 2156.44 196.823 Q2156.44 188.629 2160.33 183.768 Q2164.22 178.884 2170.77 178.884 Q2172.53 178.884 2174.31 179.231 Q2176.12 179.578 2178.06 180.273 Z" fill="#000000" fill-rule="evenodd" fill-opacity="1" /><path clip-path="url(#clip850)" d="M 0 0 M2199.54 195.434 Q2202.9 196.152 2204.78 198.421 Q2206.67 200.689 2206.67 204.022 Q2206.67 209.138 2203.15 211.939 Q2199.64 214.74 2193.16 214.74 Q2190.98 214.74 2188.66 214.3 Q2186.37 213.883 2183.92 213.027 L2183.92 208.513 Q2185.86 209.647 2188.18 210.226 Q2190.49 210.805 2193.02 210.805 Q2197.41 210.805 2199.71 209.069 Q2202.02 207.333 2202.02 204.022 Q2202.02 200.967 2199.87 199.254 Q2197.74 197.518 2193.92 197.518 L2189.89 197.518 L2189.89 193.675 L2194.1 193.675 Q2197.55 193.675 2199.38 192.309 Q2201.21 190.921 2201.21 188.328 Q2201.21 185.666 2199.31 184.254 Q2197.44 182.819 2193.92 182.819 Q2192 182.819 2189.8 183.235 Q2187.6 183.652 2184.96 184.532 L2184.96 180.365 Q2187.62 179.624 2189.94 179.254 Q2192.28 178.884 2194.34 178.884 Q2199.66 178.884 2202.76 181.314 Q2205.86 183.722 2205.86 187.842 Q2205.86 190.712 2204.22 192.703 Q2202.58 194.671 2199.54 195.434 Z" fill="#000000" fill-rule="evenodd" fill-opacity="1" /><path clip-path="url(#clip850)" d="M 0 0 M2225.91 195.434 Q2229.27 196.152 2231.14 198.421 Q2233.04 200.689 2233.04 204.022 Q2233.04 209.138 2229.52 211.939 Q2226 214.74 2219.52 214.74 Q2217.34 214.74 2215.03 214.3 Q2212.74 213.883 2210.28 213.027 L2210.28 208.513 Q2212.23 209.647 2214.54 210.226 Q2216.86 210.805 2219.38 210.805 Q2223.78 210.805 2226.07 209.069 Q2228.39 207.333 2228.39 204.022 Q2228.39 200.967 2226.23 199.254 Q2224.1 197.518 2220.28 197.518 L2216.26 197.518 L2216.26 193.675 L2220.47 193.675 Q2223.92 193.675 2225.75 192.309 Q2227.58 190.921 2227.58 188.328 Q2227.58 185.666 2225.68 184.254 Q2223.8 182.819 2220.28 182.819 Q2218.36 182.819 2216.16 183.235 Q2213.97 183.652 2211.33 184.532 L2211.33 180.365 Q2213.99 179.624 2216.3 179.254 Q2218.64 178.884 2220.7 178.884 Q2226.03 178.884 2229.13 181.314 Q2232.23 183.722 2232.23 187.842 Q2232.23 190.712 2230.59 192.703 Q2228.94 194.671 2225.91 195.434 Z" fill="#000000" fill-rule="evenodd" fill-opacity="1" /></svg>
