<?xml version="1.0" encoding="utf-8"?>
<svg xmlns="http://www.w3.org/2000/svg" xmlns:xlink="http://www.w3.org/1999/xlink" width="500" height="500" viewBox="0 0 2000 2000">
<defs>
  <clipPath id="clip010">
    <rect x="0" y="0" width="2000" height="2000" fill="none"/>
  </clipPath>
</defs>
<path clip-path="url(#clip010)" d="
M0 2000 L2000 2000 L2000 0 L0 0  Z
  " fill="#ffffff" fill-rule="evenodd" fill-opacity="0"/>
<defs>
  <clipPath id="clip011">
    <rect x="400" y="200" width="1401" height="1401"/>
  </clipPath>
</defs>
<path clip-path="url(#clip010)" d="
M47.2441 1952.76 L1952.76 1952.76 L1952.76 47.2441 L47.2441 47.2441  Z
  " fill="#ffffff" fill-rule="evenodd" fill-opacity="0"/>
<defs>
  <clipPath id="clip012">
    <rect x="47" y="47" width="1907" height="1907"/>
  </clipPath>
</defs>
<polyline clip-path="url(#clip010)" style="stroke:#ffffff; stroke-width:4; stroke-opacity:1; fill:none" points="
  47.2441,1952.76 1952.76,1952.76
  "/>
<polyline clip-path="url(#clip010)" style="stroke:#ffffff; stroke-width:4; stroke-opacity:1; fill:none" points="
  47.2441,1952.76 47.2441,47.2441
  "/>
<circle clip-path="url(#clip012)" cx="1162.51" cy="701.988" r="43" fill="#9457b1" fill-rule="evenodd" fill-opacity="1" stroke="#ffffff" stroke-opacity="1" stroke-width="4"/>
<polyline clip-path="url(#clip012)" style="stroke:#ca3b33; stroke-width:20; stroke-opacity:1; fill:none" points="
  1329.52,701.988 1324.4,697.342 1319.24,692.697 1314.02,688.054 1308.76,683.413 1302.62,678.05 1296.42,672.69 1290.16,667.332 1283.83,661.976 1277.43,656.623
  1270.97,651.272 1264.44,645.924 1257.85,640.578 1251.18,635.235 1244.46,629.894 1237.65,624.556 1230.79,619.221 1223.85,613.889 1216.83,608.559 1209.75,603.232
  1202.6,597.909 1195.37,592.588 1188.06,587.271 1180.69,581.956 1173.23,576.645 1165.7,571.338 1158.09,566.033 1150.4,560.732 1142.63,555.435 1134.79,550.142
  1126.86,544.852 1118.84,539.566 1110.75,534.284 1106.66,531.644 1102.56,529.006 1098.44,526.368 1094.29,523.732 1090.13,521.097 1085.93,518.462 1081.72,515.829
  1077.49,513.197 1072.36,510.035 1067.21,506.875 1062.03,503.716 1056.81,500.559 1051.55,497.404 1046.26,494.25 1040.94,491.099 1035.58,487.949 1030.18,484.801
  1024.75,481.655 1019.28,478.511 1013.78,475.369 1008.24,472.229 1002.65,469.091 997.033,465.955 991.376,462.821 985.676,459.689 979.939,456.56 974.159,453.433
  968.339,450.309 962.474,447.187 956.565,444.067 950.617,440.95 944.624,437.835 938.583,434.723 932.497,431.614 926.367,428.508 920.184,425.405 913.957,422.304
  907.677,419.207 901.343,416.113 894.961,413.023 889.522,410.412 884.046,407.804 878.527,405.199 872.967,402.596 867.368,399.996 861.725,397.399 856.037,394.805
  850.301,392.214 844.525,389.626 838.696,387.041 832.818,384.46 826.887,381.883 820.908,379.309 814.871,376.739 808.781,374.173 802.629,371.612 796.415,369.055
  790.135,366.503 783.792,363.956 777.375,361.414 770.887,358.879 764.319,356.349 761.007,355.087 757.667,353.826 754.311,352.567 750.932,351.31 747.526,350.055
  744.099,348.802 740.645,347.552 737.164,346.303 733.657,345.057 730.123,343.813 726.558,342.572 722.963,341.333 719.336,340.098 715.67,338.865 711.972,337.636
  708.239,336.41 704.462,335.188 700.646,333.971 696.785,332.757 692.875,331.548 688.567,330.241 684.198,328.94 679.757,327.646 675.237,326.361 672.946,325.722
  670.633,325.086 668.298,324.452 665.936,323.821 663.548,323.193 661.129,322.568 658.683,321.947 656.202,321.33 653.69,320.717 651.138,320.109 648.546,319.506
  645.91,318.909 643.23,318.319 640.492,317.736 637.702,317.161 634.845,316.596 631.917,316.042 628.909,315.502 625.809,314.978 622.603,314.474 619.277,313.995
  615.809,313.548 612.174,313.143 608.348,312.797 604.31,312.536 600.082,312.396 595.792,312.426 591.706,312.658 588.128,313.074 585.164,313.62 582.75,314.244
  580.777,314.915 579.15,315.613 577.796,316.33 576.66,317.057 575.7,317.793 574.89,318.534 574.205,319.279 573.626,320.027 573.143,320.777 572.741,321.528
  572.409,322.281 572.144,323.034 571.936,323.788 571.781,324.542 571.675,325.296 571.613,326.051 571.591,326.806 571.604,327.56 571.653,328.315 571.733,329.07
  571.843,329.824 571.98,330.578 572.144,331.332 572.334,332.086 572.546,332.84 573.033,334.347 573.599,335.853 574.236,337.358 574.935,338.863 575.691,340.366
  576.505,341.869 577.363,343.371 578.269,344.872 579.216,346.372 580.202,347.871 581.224,349.37 582.281,350.868 583.369,352.365 584.488,353.862 585.633,355.358
  586.81,356.853 588.008,358.348 589.229,359.842 590.472,361.335 591.741,362.828 594.333,365.813 596.995,368.795 599.728,371.776 602.519,374.754 605.372,377.732
  608.269,380.707 610.989,383.449 613.739,386.19 616.53,388.93 619.347,391.669 622.2,394.406 625.079,397.143 627.985,399.879 630.917,402.615 636.848,408.083
  642.863,413.548 648.949,419.011 655.101,424.471 661.314,429.93 667.573,435.387 673.879,440.842 680.23,446.296 686.612,451.748 693.03,457.2 699.474,462.65
  705.94,468.099 719.88,479.781 733.895,491.461 747.964,503.138 762.068,514.814 776.19,526.489 790.316,538.165 797.379,544.002 804.438,549.84 818.546,561.516
  826.706,568.28 834.857,575.045 842.999,581.81 851.128,588.575 859.244,595.341 867.346,602.108 875.435,608.875 883.502,615.642 891.556,622.41 899.592,629.179
  907.61,635.949 915.611,642.719 923.59,649.49 931.546,656.262 939.485,663.034 947.401,669.807 954.42,675.827 961.417,681.847 968.4,687.869 975.366,693.89
  982.31,699.913 989.24,705.936 996.149,711.959 1003.04,717.983 1009.92,724.009 1016.77,730.034 1023.6,736.06 1030.42,742.087 1037.22,748.115 1044,754.143
  1050.76,760.172 1057.5,766.201 1069.28,776.778 1080.99,787.356 1092.66,797.936 1104.26,808.518 1115.8,819.103 1127.29,829.689 1138.72,840.276 1150.1,850.866
  1162.44,862.414 1174.72,873.964 1186.94,885.515 1199.09,897.069 1211.19,908.625 1223.23,920.182 1235.22,931.741 1247.16,943.302 1259.12,954.933 1271.03,966.565
  1282.91,978.198 1294.74,989.833 1306.54,1001.47 1318.32,1013.11 1330.06,1024.74 1341.8,1036.38 1348.28,1042.82 1354.75,1049.25 1361.23,1055.68 1367.71,1062.12
  1374.19,1068.55 1380.68,1074.98 1387.16,1081.42 1393.67,1087.85 1400.18,1094.28 1406.69,1100.72 1413.23,1107.15 1419.79,1113.58 1426.37,1120.01 1432.97,1126.44
  1439.6,1132.87 1446.26,1139.3 1452.64,1145.41 1459.06,1151.53 1465.53,1157.64 1472.04,1163.75 1475.33,1166.8 1478.63,1169.86 1481.94,1172.91 1485.27,1175.96
  1488.63,1179.02 1492,1182.07 1495.41,1185.12 1498.83,1188.17 1502.28,1191.22 1505.76,1194.26 1509.28,1197.31 1512.83,1200.36 1516.42,1203.4 1520.05,1206.44
  1523.73,1209.48 1527.47,1212.52 1531.26,1215.56 1535.11,1218.59 1539.04,1221.62 1543.06,1224.65 1545.09,1226.16 1547.16,1227.67 1549.26,1229.18 1551.39,1230.69
  1553.55,1232.2 1555.74,1233.7 1557.98,1235.21 1560.26,1236.71 1562.69,1238.27 1565.17,1239.83 1567.73,1241.38 1570.36,1242.93 1571.71,1243.7 1573.08,1244.47
  1574.48,1245.24 1575.91,1246.01 1577.37,1246.77 1578.88,1247.54 1580.41,1248.3 1582,1249.06 1583.64,1249.81 1585.34,1250.57 1587.11,1251.31 1588.96,1252.05
  1590.91,1252.78 1593,1253.5 1595.24,1254.21 1597.71,1254.89 1600.48,1255.54 1603.76,1256.1 1607.8,1256.48 1612.29,1256.41 1615.83,1255.9 1618.41,1255.23
  1620.41,1254.5 1622.05,1253.75 1623.46,1252.98 1624.69,1252.2 1625.78,1251.41 1626.76,1250.62 1627.64,1249.83 1628.46,1249.04 1629.21,1248.24 1629.9,1247.44
  1630.55,1246.64 1631.15,1245.84 1631.71,1245.04 1632.24,1244.23 1632.73,1243.43 1633.2,1242.63 1633.64,1241.82 1634.05,1241.02 1634.81,1239.41 1635.49,1237.8
  1636.1,1236.18 1636.65,1234.57 1637.14,1232.96 1637.59,1231.34 1637.98,1229.73 1638.34,1228.11 1638.66,1226.5 1638.94,1224.88 1639.18,1223.27 1639.4,1221.65
  1639.59,1220.04 1639.74,1218.42 1639.88,1216.81 1639.99,1215.19 1640.14,1211.96 1640.21,1208.73 1640.21,1207.11 1640.2,1205.5 1640.17,1203.88 1640.13,1202.26
  1639.98,1199.03 1639.78,1195.8 1639.52,1192.57 1639.21,1189.34 1638.86,1186.11 1638.45,1182.88 1638,1179.65 1637.51,1176.42 1637.07,1173.7 1636.6,1170.98
  1636.1,1168.26 1635.57,1165.54 1635.03,1162.82 1634.46,1160.1 1633.86,1157.38 1633.24,1154.66 1631.94,1149.23 1630.55,1143.79 1629.09,1138.36 1627.55,1132.92
  1625.94,1127.49 1624.25,1122.06 1622.5,1116.63 1620.68,1111.19 1618.79,1105.76 1616.85,1100.33 1614.84,1094.9 1612.77,1089.48 1610.17,1082.85 1607.48,1076.22
  1604.7,1069.6 1601.85,1062.97 1598.91,1056.35 1595.9,1049.73 1592.81,1043.11 1589.64,1036.49 1586.38,1029.87 1583.06,1023.25 1579.66,1016.64 1576.19,1010.02
  1572.64,1003.41 1569.02,996.798 1565.32,990.187 1561.55,983.578 1557.94,977.366 1554.27,971.155 1550.53,964.945 1546.73,958.736 1542.87,952.529 1538.93,946.322
  1534.94,940.117 1530.88,933.914 1526.76,927.711 1522.57,921.51 1518.32,915.311 1514.01,909.112 1509.62,902.915 1505.18,896.72 1500.67,890.526 1496.1,884.333
  1492.38,879.374 1488.63,874.415 1484.83,869.458 1480.99,864.501 1477.11,859.546 1473.19,854.592 1469.22,849.638 1465.21,844.686 1461.15,839.735 1457.05,834.785
  1452.91,829.836 1448.73,824.888 1444.5,819.941 1440.22,814.996 1435.91,810.051 1431.54,805.108 1427.13,800.166 1422.68,795.225 1418.18,790.286 1413.64,785.348
  1409.05,780.411 1404.41,775.476 1399.72,770.541 1395,765.609 1390.22,760.677 1385.4,755.747 1380.52,750.819 1375.6,745.892 1370.64,740.966 1365.62,736.042
  1360.55,731.119 1355.44,726.199 1352.26,723.17 1349.07,720.142 1345.86,717.115 1342.63,714.088 1339.38,711.062 1336.11,708.037 1332.83,705.012 1329.52,701.988

  "/>
<polyline clip-path="url(#clip012)" style="stroke:#389725; stroke-width:20; stroke-opacity:1; fill:none" points="
  1431.55,701.988 1421.8,693.054 1411.91,684.124 1401.88,675.2 1391.7,666.28 1379.74,655.978 1367.58,645.683 1355.23,635.395 1342.66,625.115 1336.3,619.978
  1329.88,614.843 1323.42,609.71 1316.89,604.579 1310.32,599.45 1303.69,594.323 1297,589.199 1290.26,584.077 1283.47,578.957 1276.61,573.839 1269.71,568.723
  1262.74,563.611 1255.72,558.5 1248.64,553.392 1241.5,548.286 1234.3,543.183 1227.04,538.082 1219.73,532.984 1212.35,527.889 1204.92,522.796 1197.42,517.707
  1189.86,512.619 1182.24,507.535 1174.56,502.454 1166.82,497.375 1159.01,492.3 1151.14,487.227 1143.2,482.158 1135.2,477.091 1127.14,472.028 1119.01,466.968
  1110.81,461.912 1102.55,456.858 1094.22,451.809 1085.82,446.762 1077.35,441.719 1068.81,436.68 1060.21,431.644 1051.53,426.612 1042.78,421.584 1033.96,416.559
  1025.07,411.539 1016.11,406.522 1007.07,401.51 997.962,396.501 988.78,391.497 979.519,386.497 970.178,381.501 960.767,376.51 951.276,371.524 941.705,366.541
  932.055,361.564 922.329,356.592 912.52,351.624 902.626,346.661 892.653,341.703 880.552,335.752 868.332,329.807 855.989,323.871 843.517,317.943 830.921,312.023
  818.192,306.111 805.331,300.209 792.337,294.315 779.21,288.431 765.942,282.556 752.533,276.691 738.982,270.836 725.284,264.991 711.437,259.157 697.439,253.335
  683.282,247.524 668.97,241.725 654.49,235.939 639.847,230.165 625.031,224.405 610.038,218.659 594.859,212.928 579.494,207.212 563.935,201.512 556.081,198.668
  548.177,195.829 540.216,192.995 532.204,190.165 524.137,187.339 516.014,184.519 507.834,181.704 499.595,178.894 491.296,176.089 482.936,173.29 474.512,170.497
  466.023,167.71 457.467,164.93 448.841,162.156 440.144,159.388 431.374,156.628 423.898,154.301 416.366,151.978 408.775,149.662 401.125,147.352 393.411,145.048
  385.632,142.751 377.785,140.461 369.867,138.179 361.875,135.904 353.806,133.638 345.656,131.381 337.419,129.133 329.092,126.896 320.668,124.67 312.143,122.456
  303.507,120.255 294.754,118.068 285.874,115.897 276.856,113.743 267.687,111.61 258.352,109.498 248.832,107.412 243.995,106.38 239.103,105.356 234.153,104.34
  229.139,103.334 224.057,102.339 218.902,101.355 213.667,100.384 208.346,99.4281 202.93,98.4886 197.408,97.5679 191.77,96.6692 186.002,95.7962 180.087,94.9539
  174.005,94.149 167.733,93.3902 161.243,92.6903 154.503,92.0671 147.483,91.5481 140.171,91.1744 132.619,91.007 125.044,91.1232 117.908,91.5802 111.731,92.3565
  106.728,93.3611 102.79,94.5031 99.7068,95.7237 97.2876,96.9897 95.3876,98.2828 93.8998,99.5925 92.7472,100.912 91.8711,102.239 91.2276,103.57 90.7822,104.903
  90.5085,106.237 90.3837,107.573 90.3908,108.908 90.5151,110.243 90.7442,111.578 91.0679,112.912 91.477,114.246 91.964,115.579 92.523,116.91 93.147,118.241
  93.8321,119.571 95.3664,122.229 97.0947,124.882 98.9939,127.532 101.043,130.179 103.225,132.822 105.528,135.463 107.937,138.1 110.445,140.735 113.04,143.366
  115.717,145.996 118.469,148.623 121.288,151.248 124.171,153.87 127.111,156.491 130.106,159.11 133.151,161.727 139.378,166.956 145.767,172.18 152.869,177.847
  160.116,183.509 167.493,189.166 174.982,194.819 182.57,200.467 190.245,206.112 197.997,211.753 205.818,217.392 221.631,228.662 237.632,239.923 253.776,251.179
  270.028,262.43 286.359,273.677 302.743,284.921 319.159,296.165 335.59,307.407 352.02,318.65 368.436,329.894 401.179,352.384 416.215,362.754 431.206,373.126
  446.147,383.5 461.033,393.876 475.859,404.255 490.621,414.637 505.316,425.022 519.94,435.41 534.49,445.801 548.965,456.195 563.36,466.593 577.672,476.994
  591.905,487.398 606.053,497.806 620.117,508.218 634.088,518.633 648.975,529.804 663.751,540.978 678.43,552.157 692.999,563.34 707.465,574.527 721.821,585.718
  736.071,596.914 750.211,608.114 764.244,619.318 778.167,630.526 791.983,641.738 805.689,652.955 819.285,664.175 832.769,675.4 846.144,686.629 859.412,697.861
  874.648,710.88 889.734,723.905 904.678,736.934 919.472,749.969 934.125,763.008 948.631,776.053 962.996,789.102 977.215,802.156 991.297,815.215 1005.23,828.279
  1019.03,841.347 1032.69,854.419 1046.21,867.496 1059.59,880.578 1072.84,893.663 1085.95,906.753 1097.49,918.389 1108.92,930.029 1120.25,941.671 1131.48,953.316
  1142.6,964.965 1153.62,976.616 1164.55,988.271 1175.37,999.928 1186.09,1011.59 1196.72,1023.25 1207.25,1034.92 1217.68,1046.58 1228.02,1058.26 1238.26,1069.93
  1248.42,1081.6 1258.48,1093.28 1267.22,1103.52 1275.9,1113.77 1284.51,1124.02 1293.05,1134.26 1301.52,1144.51 1309.93,1154.76 1318.28,1165.02 1326.55,1175.27
  1334.76,1185.53 1342.91,1195.79 1351,1206.05 1359.03,1216.31 1366.99,1226.57 1374.9,1236.83 1382.74,1247.1 1390.53,1257.36 1398.95,1268.56 1407.31,1279.75
  1415.59,1290.95 1423.82,1302.15 1431.97,1313.35 1440.06,1324.55 1448.1,1335.76 1456.07,1346.96 1463.98,1358.17 1471.83,1369.38 1479.63,1380.59 1487.36,1391.8
  1495.04,1403.01 1502.67,1414.22 1510.25,1425.43 1517.77,1436.65 1532.76,1459.21 1547.56,1481.78 1562.18,1504.35 1576.63,1526.93 1590.94,1549.51 1605.11,1572.09
  1619.17,1594.67 1633.14,1617.26 1640.83,1629.74 1648.5,1642.23 1656.16,1654.72 1663.81,1667.2 1671.46,1679.69 1679.12,1692.18 1686.79,1704.66 1694.48,1717.15
  1702.2,1729.63 1709.97,1742.12 1717.8,1754.6 1725.7,1767.08 1733.68,1779.56 1741.79,1792.04 1750.05,1804.52 1758.5,1816.99 1762.6,1822.92 1766.76,1828.85
  1771,1834.78 1775.31,1840.7 1779.72,1846.63 1784.24,1852.55 1788.89,1858.47 1793.69,1864.38 1796.16,1867.34 1798.68,1870.29 1801.26,1873.25 1803.91,1876.2
  1806.64,1879.14 1809.45,1882.09 1812.36,1885.04 1815.4,1887.97 1816.97,1889.44 1818.58,1890.91 1820.24,1892.37 1821.95,1893.84 1823.71,1895.3 1825.55,1896.76
  1827.46,1898.21 1829.47,1899.66 1831.58,1901.11 1833.84,1902.55 1836.29,1903.98 1838.98,1905.4 1842.04,1906.79 1845.71,1908.14 1850.72,1909.34 1858.43,1909.55
  1863.58,1908.38 1866.84,1907 1869.33,1905.57 1871.4,1904.12 1873.17,1902.66 1874.75,1901.19 1876.17,1899.72 1877.46,1898.24 1878.65,1896.76 1879.76,1895.28
  1880.8,1893.8 1881.77,1892.32 1882.69,1890.83 1883.56,1889.35 1884.38,1887.86 1885.17,1886.37 1886.63,1883.4 1887.98,1880.42 1889.22,1877.44 1890.37,1874.46
  1891.44,1871.48 1892.44,1868.49 1893.38,1865.51 1894.27,1862.53 1895.88,1856.56 1897.31,1850.59 1898.6,1844.62 1899.76,1838.65 1900.79,1832.68 1901.73,1826.71
  1902.57,1820.73 1903.32,1814.76 1904.01,1808.55 1904.63,1802.34 1905.18,1796.13 1905.66,1789.92 1906.07,1783.7 1906.42,1777.49 1906.72,1771.28 1906.96,1765.07
  1907.29,1752.64 1907.42,1740.22 1907.38,1727.8 1907.18,1715.37 1906.82,1702.95 1906.32,1690.52 1905.67,1678.1 1904.89,1665.68 1903.97,1653.25 1902.93,1640.83
  1901.77,1628.41 1900.48,1615.99 1899.3,1605.53 1898.04,1595.07 1896.7,1584.62 1895.28,1574.16 1893.78,1563.71 1892.19,1553.25 1890.53,1542.8 1888.79,1532.34
  1886.96,1521.89 1885.06,1511.44 1883.08,1500.98 1881.03,1490.53 1878.88,1480.08 1876.66,1469.63 1874.37,1459.18 1871.99,1448.73 1868.98,1435.97 1865.85,1423.21
  1862.6,1410.46 1859.22,1397.7 1855.73,1384.95 1852.11,1372.19 1848.36,1359.44 1844.48,1346.69 1840.49,1333.94 1836.36,1321.19 1832.1,1308.45 1827.71,1295.7
  1823.18,1282.96 1818.52,1270.21 1813.72,1257.47 1808.78,1244.73 1804.02,1232.76 1799.12,1220.79 1794.1,1208.82 1788.94,1196.85 1783.66,1184.88 1778.25,1172.92
  1772.69,1160.95 1767,1148.99 1761.18,1137.03 1755.21,1125.07 1749.1,1113.12 1742.84,1101.17 1736.44,1089.22 1729.89,1077.27 1723.19,1065.32 1716.33,1053.38
  1710.73,1043.81 1705.02,1034.25 1699.22,1024.69 1693.3,1015.13 1687.29,1005.58 1681.17,996.021 1674.94,986.468 1668.6,976.917 1662.15,967.369 1655.59,957.823
  1648.91,948.28 1642.13,938.739 1635.22,929.2 1628.21,919.664 1621.06,910.131 1613.81,900.601 1606.42,891.073 1598.92,881.549 1591.29,872.027 1583.54,862.509
  1575.66,852.994 1567.65,843.482 1559.5,833.974 1551.23,824.469 1542.82,814.967 1534.27,805.47 1525.59,795.976 1516.77,786.486 1507.8,777.001 1498.7,767.519
  1489.44,758.042 1480.04,748.569 1474.19,742.74 1468.27,736.913 1462.29,731.087 1456.26,725.264 1450.17,719.442 1444.03,713.622 1437.82,707.804 1431.55,701.988

  "/>
</svg>
