<?xml version="1.0" encoding="utf-8"?>
<svg xmlns="http://www.w3.org/2000/svg" xmlns:xlink="http://www.w3.org/1999/xlink" width="600" height="400" viewBox="0 0 2400 1600">
<defs>
  <clipPath id="clip010">
    <rect x="0" y="0" width="2400" height="1600"/>
  </clipPath>
</defs>
<path clip-path="url(#clip010)" d="M0 1600 L2400 1600 L2400 0 L0 0  Z" fill="#ffffff" fill-rule="evenodd" fill-opacity="1"/>
<defs>
  <clipPath id="clip011">
    <rect x="480" y="0" width="1681" height="1600"/>
  </clipPath>
</defs>
<path clip-path="url(#clip010)" d="M219.38 1423.18 L1152.76 1423.18 L1152.76 127.244 L219.38 127.244  Z" fill="#ffffff" fill-rule="evenodd" fill-opacity="1"/>
<defs>
  <clipPath id="clip012">
    <rect x="219" y="127" width="934" height="1297"/>
  </clipPath>
</defs>
<polyline clip-path="url(#clip012)" style="stroke:#000000; stroke-linecap:round; stroke-linejoin:round; stroke-width:2; stroke-opacity:0.1; fill:none" points="293.56,1423.18 293.56,127.244 "/>
<polyline clip-path="url(#clip012)" style="stroke:#000000; stroke-linecap:round; stroke-linejoin:round; stroke-width:2; stroke-opacity:0.1; fill:none" points="495.02,1423.18 495.02,127.244 "/>
<polyline clip-path="url(#clip012)" style="stroke:#000000; stroke-linecap:round; stroke-linejoin:round; stroke-width:2; stroke-opacity:0.1; fill:none" points="696.48,1423.18 696.48,127.244 "/>
<polyline clip-path="url(#clip012)" style="stroke:#000000; stroke-linecap:round; stroke-linejoin:round; stroke-width:2; stroke-opacity:0.1; fill:none" points="897.939,1423.18 897.939,127.244 "/>
<polyline clip-path="url(#clip012)" style="stroke:#000000; stroke-linecap:round; stroke-linejoin:round; stroke-width:2; stroke-opacity:0.1; fill:none" points="1099.4,1423.18 1099.4,127.244 "/>
<polyline clip-path="url(#clip012)" style="stroke:#000000; stroke-linecap:round; stroke-linejoin:round; stroke-width:2; stroke-opacity:0.1; fill:none" points="219.38,1392.95 1152.76,1392.95 "/>
<polyline clip-path="url(#clip012)" style="stroke:#000000; stroke-linecap:round; stroke-linejoin:round; stroke-width:2; stroke-opacity:0.1; fill:none" points="219.38,1090.66 1152.76,1090.66 "/>
<polyline clip-path="url(#clip012)" style="stroke:#000000; stroke-linecap:round; stroke-linejoin:round; stroke-width:2; stroke-opacity:0.1; fill:none" points="219.38,788.379 1152.76,788.379 "/>
<polyline clip-path="url(#clip012)" style="stroke:#000000; stroke-linecap:round; stroke-linejoin:round; stroke-width:2; stroke-opacity:0.1; fill:none" points="219.38,486.092 1152.76,486.092 "/>
<polyline clip-path="url(#clip012)" style="stroke:#000000; stroke-linecap:round; stroke-linejoin:round; stroke-width:2; stroke-opacity:0.1; fill:none" points="219.38,183.806 1152.76,183.806 "/>
<polyline clip-path="url(#clip010)" style="stroke:#000000; stroke-linecap:round; stroke-linejoin:round; stroke-width:4; stroke-opacity:1; fill:none" points="219.38,1423.18 1152.76,1423.18 "/>
<polyline clip-path="url(#clip010)" style="stroke:#000000; stroke-linecap:round; stroke-linejoin:round; stroke-width:4; stroke-opacity:1; fill:none" points="293.56,1423.18 293.56,1404.28 "/>
<polyline clip-path="url(#clip010)" style="stroke:#000000; stroke-linecap:round; stroke-linejoin:round; stroke-width:4; stroke-opacity:1; fill:none" points="495.02,1423.18 495.02,1404.28 "/>
<polyline clip-path="url(#clip010)" style="stroke:#000000; stroke-linecap:round; stroke-linejoin:round; stroke-width:4; stroke-opacity:1; fill:none" points="696.48,1423.18 696.48,1404.28 "/>
<polyline clip-path="url(#clip010)" style="stroke:#000000; stroke-linecap:round; stroke-linejoin:round; stroke-width:4; stroke-opacity:1; fill:none" points="897.939,1423.18 897.939,1404.28 "/>
<polyline clip-path="url(#clip010)" style="stroke:#000000; stroke-linecap:round; stroke-linejoin:round; stroke-width:4; stroke-opacity:1; fill:none" points="1099.4,1423.18 1099.4,1404.28 "/>
<path clip-path="url(#clip010)" d="M271.037 1454.1 Q267.426 1454.1 265.598 1457.66 Q263.792 1461.2 263.792 1468.33 Q263.792 1475.44 265.598 1479.01 Q267.426 1482.55 271.037 1482.55 Q274.672 1482.55 276.477 1479.01 Q278.306 1475.44 278.306 1468.33 Q278.306 1461.2 276.477 1457.66 Q274.672 1454.1 271.037 1454.1 M271.037 1450.39 Q276.847 1450.39 279.903 1455 Q282.982 1459.58 282.982 1468.33 Q282.982 1477.06 279.903 1481.67 Q276.847 1486.25 271.037 1486.25 Q265.227 1486.25 262.148 1481.67 Q259.093 1477.06 259.093 1468.33 Q259.093 1459.58 262.148 1455 Q265.227 1450.39 271.037 1450.39 Z" fill="#000000" fill-rule="nonzero" fill-opacity="1" /><path clip-path="url(#clip010)" d="M291.199 1479.7 L296.083 1479.7 L296.083 1485.58 L291.199 1485.58 L291.199 1479.7 Z" fill="#000000" fill-rule="nonzero" fill-opacity="1" /><path clip-path="url(#clip010)" d="M306.408 1484.86 L306.408 1480.6 Q308.167 1481.44 309.972 1481.88 Q311.778 1482.32 313.514 1482.32 Q318.144 1482.32 320.574 1479.21 Q323.028 1476.09 323.375 1469.75 Q322.032 1471.74 319.972 1472.8 Q317.912 1473.87 315.412 1473.87 Q310.227 1473.87 307.195 1470.74 Q304.185 1467.59 304.185 1462.15 Q304.185 1456.83 307.333 1453.61 Q310.482 1450.39 315.713 1450.39 Q321.708 1450.39 324.856 1455 Q328.028 1459.58 328.028 1468.33 Q328.028 1476.51 324.139 1481.39 Q320.273 1486.25 313.722 1486.25 Q311.963 1486.25 310.157 1485.9 Q308.352 1485.56 306.408 1484.86 M315.713 1470.21 Q318.861 1470.21 320.69 1468.06 Q322.542 1465.9 322.542 1462.15 Q322.542 1458.43 320.69 1456.27 Q318.861 1454.1 315.713 1454.1 Q312.565 1454.1 310.713 1456.27 Q308.884 1458.43 308.884 1462.15 Q308.884 1465.9 310.713 1468.06 Q312.565 1470.21 315.713 1470.21 Z" fill="#000000" fill-rule="nonzero" fill-opacity="1" /><path clip-path="url(#clip010)" d="M462.173 1481.64 L469.812 1481.64 L469.812 1455.28 L461.502 1456.95 L461.502 1452.69 L469.765 1451.02 L474.441 1451.02 L474.441 1481.64 L482.08 1481.64 L482.08 1485.58 L462.173 1485.58 L462.173 1481.64 Z" fill="#000000" fill-rule="nonzero" fill-opacity="1" /><path clip-path="url(#clip010)" d="M491.525 1479.7 L496.409 1479.7 L496.409 1485.58 L491.525 1485.58 L491.525 1479.7 Z" fill="#000000" fill-rule="nonzero" fill-opacity="1" /><path clip-path="url(#clip010)" d="M516.594 1454.1 Q512.983 1454.1 511.154 1457.66 Q509.349 1461.2 509.349 1468.33 Q509.349 1475.44 511.154 1479.01 Q512.983 1482.55 516.594 1482.55 Q520.228 1482.55 522.034 1479.01 Q523.862 1475.44 523.862 1468.33 Q523.862 1461.2 522.034 1457.66 Q520.228 1454.1 516.594 1454.1 M516.594 1450.39 Q522.404 1450.39 525.46 1455 Q528.538 1459.58 528.538 1468.33 Q528.538 1477.06 525.46 1481.67 Q522.404 1486.25 516.594 1486.25 Q510.784 1486.25 507.705 1481.67 Q504.65 1477.06 504.65 1468.33 Q504.65 1459.58 507.705 1455 Q510.784 1450.39 516.594 1450.39 Z" fill="#000000" fill-rule="nonzero" fill-opacity="1" /><path clip-path="url(#clip010)" d="M664.246 1481.64 L671.885 1481.64 L671.885 1455.28 L663.575 1456.95 L663.575 1452.69 L671.838 1451.02 L676.514 1451.02 L676.514 1481.64 L684.153 1481.64 L684.153 1485.58 L664.246 1485.58 L664.246 1481.64 Z" fill="#000000" fill-rule="nonzero" fill-opacity="1" /><path clip-path="url(#clip010)" d="M693.598 1479.7 L698.482 1479.7 L698.482 1485.58 L693.598 1485.58 L693.598 1479.7 Z" fill="#000000" fill-rule="nonzero" fill-opacity="1" /><path clip-path="url(#clip010)" d="M709.477 1481.64 L717.116 1481.64 L717.116 1455.28 L708.806 1456.95 L708.806 1452.69 L717.07 1451.02 L721.746 1451.02 L721.746 1481.64 L729.384 1481.64 L729.384 1485.58 L709.477 1485.58 L709.477 1481.64 Z" fill="#000000" fill-rule="nonzero" fill-opacity="1" /><path clip-path="url(#clip010)" d="M865.891 1481.64 L873.53 1481.64 L873.53 1455.28 L865.219 1456.95 L865.219 1452.69 L873.483 1451.02 L878.159 1451.02 L878.159 1481.64 L885.798 1481.64 L885.798 1485.58 L865.891 1485.58 L865.891 1481.64 Z" fill="#000000" fill-rule="nonzero" fill-opacity="1" /><path clip-path="url(#clip010)" d="M895.242 1479.7 L900.127 1479.7 L900.127 1485.58 L895.242 1485.58 L895.242 1479.7 Z" fill="#000000" fill-rule="nonzero" fill-opacity="1" /><path clip-path="url(#clip010)" d="M914.339 1481.64 L930.659 1481.64 L930.659 1485.58 L908.714 1485.58 L908.714 1481.64 Q911.377 1478.89 915.96 1474.26 Q920.566 1469.61 921.747 1468.27 Q923.992 1465.74 924.872 1464.01 Q925.775 1462.25 925.775 1460.56 Q925.775 1457.8 923.83 1456.07 Q921.909 1454.33 918.807 1454.33 Q916.608 1454.33 914.154 1455.09 Q911.724 1455.86 908.946 1457.41 L908.946 1452.69 Q911.77 1451.55 914.224 1450.97 Q916.677 1450.39 918.714 1450.39 Q924.085 1450.39 927.279 1453.08 Q930.474 1455.77 930.474 1460.26 Q930.474 1462.39 929.663 1464.31 Q928.876 1466.2 926.77 1468.8 Q926.191 1469.47 923.089 1472.69 Q919.988 1475.88 914.339 1481.64 Z" fill="#000000" fill-rule="nonzero" fill-opacity="1" /><path clip-path="url(#clip010)" d="M1066.88 1481.64 L1074.51 1481.64 L1074.51 1455.28 L1066.2 1456.95 L1066.2 1452.69 L1074.47 1451.02 L1079.14 1451.02 L1079.14 1481.64 L1086.78 1481.64 L1086.78 1485.58 L1066.88 1485.58 L1066.88 1481.64 Z" fill="#000000" fill-rule="nonzero" fill-opacity="1" /><path clip-path="url(#clip010)" d="M1096.23 1479.7 L1101.11 1479.7 L1101.11 1485.58 L1096.23 1485.58 L1096.23 1479.7 Z" fill="#000000" fill-rule="nonzero" fill-opacity="1" /><path clip-path="url(#clip010)" d="M1125.46 1466.95 Q1128.82 1467.66 1130.69 1469.93 Q1132.59 1472.2 1132.59 1475.53 Q1132.59 1480.65 1129.07 1483.45 Q1125.56 1486.25 1119.07 1486.25 Q1116.9 1486.25 1114.58 1485.81 Q1112.29 1485.39 1109.84 1484.54 L1109.84 1480.02 Q1111.78 1481.16 1114.1 1481.74 Q1116.41 1482.32 1118.94 1482.32 Q1123.33 1482.32 1125.63 1480.58 Q1127.94 1478.84 1127.94 1475.53 Q1127.94 1472.48 1125.79 1470.77 Q1123.66 1469.03 1119.84 1469.03 L1115.81 1469.03 L1115.81 1465.19 L1120.02 1465.19 Q1123.47 1465.19 1125.3 1463.82 Q1127.13 1462.43 1127.13 1459.84 Q1127.13 1457.18 1125.23 1455.77 Q1123.36 1454.33 1119.84 1454.33 Q1117.92 1454.33 1115.72 1454.75 Q1113.52 1455.16 1110.88 1456.04 L1110.88 1451.88 Q1113.54 1451.14 1115.86 1450.77 Q1118.19 1450.39 1120.26 1450.39 Q1125.58 1450.39 1128.68 1452.83 Q1131.78 1455.23 1131.78 1459.35 Q1131.78 1462.22 1130.14 1464.21 Q1128.5 1466.18 1125.46 1466.95 Z" fill="#000000" fill-rule="nonzero" fill-opacity="1" /><path clip-path="url(#clip010)" d="M683.124 1545.45 L662.849 1545.45 Q663.327 1554.96 665.523 1559 Q668.26 1563.97 673.002 1563.97 Q677.777 1563.97 680.418 1558.97 Q682.742 1554.58 683.124 1545.45 M683.028 1540.03 Q682.137 1531 680.418 1527.81 Q677.681 1522.78 673.002 1522.78 Q668.133 1522.78 665.555 1527.75 Q663.518 1531.76 662.913 1540.03 L683.028 1540.03 M673.002 1518.01 Q680.641 1518.01 685.002 1524.76 Q689.362 1531.47 689.362 1543.38 Q689.362 1555.25 685.002 1562 Q680.641 1568.78 673.002 1568.78 Q665.332 1568.78 661.003 1562 Q656.643 1555.25 656.643 1543.38 Q656.643 1531.47 661.003 1524.76 Q665.332 1518.01 673.002 1518.01 Z" fill="#000000" fill-rule="nonzero" fill-opacity="1" /><path clip-path="url(#clip010)" d="M697.892 1564.54 L704.385 1564.54 L704.385 1545.1 L697.288 1546.4 L697.288 1542.71 L704.608 1541.47 L708.969 1541.47 L708.969 1564.54 L715.494 1564.54 L715.494 1568.04 L697.892 1568.04 L697.892 1564.54 Z" fill="#000000" fill-rule="nonzero" fill-opacity="1" /><polyline clip-path="url(#clip010)" style="stroke:#000000; stroke-linecap:round; stroke-linejoin:round; stroke-width:4; stroke-opacity:1; fill:none" points="219.38,1423.18 219.38,127.244 "/>
<polyline clip-path="url(#clip010)" style="stroke:#000000; stroke-linecap:round; stroke-linejoin:round; stroke-width:4; stroke-opacity:1; fill:none" points="219.38,1392.95 238.278,1392.95 "/>
<polyline clip-path="url(#clip010)" style="stroke:#000000; stroke-linecap:round; stroke-linejoin:round; stroke-width:4; stroke-opacity:1; fill:none" points="219.38,1090.66 238.278,1090.66 "/>
<polyline clip-path="url(#clip010)" style="stroke:#000000; stroke-linecap:round; stroke-linejoin:round; stroke-width:4; stroke-opacity:1; fill:none" points="219.38,788.379 238.278,788.379 "/>
<polyline clip-path="url(#clip010)" style="stroke:#000000; stroke-linecap:round; stroke-linejoin:round; stroke-width:4; stroke-opacity:1; fill:none" points="219.38,486.092 238.278,486.092 "/>
<polyline clip-path="url(#clip010)" style="stroke:#000000; stroke-linecap:round; stroke-linejoin:round; stroke-width:4; stroke-opacity:1; fill:none" points="219.38,183.806 238.278,183.806 "/>
<path clip-path="url(#clip010)" d="M126.205 1378.75 Q122.593 1378.75 120.765 1382.31 Q118.959 1385.86 118.959 1392.99 Q118.959 1400.09 120.765 1403.66 Q122.593 1407.2 126.205 1407.2 Q129.839 1407.2 131.644 1403.66 Q133.473 1400.09 133.473 1392.99 Q133.473 1385.86 131.644 1382.31 Q129.839 1378.75 126.205 1378.75 M126.205 1375.05 Q132.015 1375.05 135.07 1379.65 Q138.149 1384.24 138.149 1392.99 Q138.149 1401.71 135.07 1406.32 Q132.015 1410.9 126.205 1410.9 Q120.394 1410.9 117.316 1406.32 Q114.26 1401.71 114.26 1392.99 Q114.26 1384.24 117.316 1379.65 Q120.394 1375.05 126.205 1375.05 Z" fill="#000000" fill-rule="nonzero" fill-opacity="1" /><path clip-path="url(#clip010)" d="M146.366 1404.35 L151.251 1404.35 L151.251 1410.23 L146.366 1410.23 L146.366 1404.35 Z" fill="#000000" fill-rule="nonzero" fill-opacity="1" /><path clip-path="url(#clip010)" d="M171.436 1378.75 Q167.825 1378.75 165.996 1382.31 Q164.19 1385.86 164.19 1392.99 Q164.19 1400.09 165.996 1403.66 Q167.825 1407.2 171.436 1407.2 Q175.07 1407.2 176.876 1403.66 Q178.704 1400.09 178.704 1392.99 Q178.704 1385.86 176.876 1382.31 Q175.07 1378.75 171.436 1378.75 M171.436 1375.05 Q177.246 1375.05 180.301 1379.65 Q183.38 1384.24 183.38 1392.99 Q183.38 1401.71 180.301 1406.32 Q177.246 1410.9 171.436 1410.9 Q165.626 1410.9 162.547 1406.32 Q159.491 1401.71 159.491 1392.99 Q159.491 1384.24 162.547 1379.65 Q165.626 1375.05 171.436 1375.05 Z" fill="#000000" fill-rule="nonzero" fill-opacity="1" /><path clip-path="url(#clip010)" d="M127.2 1076.46 Q123.589 1076.46 121.76 1080.03 Q119.955 1083.57 119.955 1090.7 Q119.955 1097.81 121.76 1101.37 Q123.589 1104.91 127.2 1104.91 Q130.834 1104.91 132.64 1101.37 Q134.468 1097.81 134.468 1090.7 Q134.468 1083.57 132.64 1080.03 Q130.834 1076.46 127.2 1076.46 M127.2 1072.76 Q133.01 1072.76 136.066 1077.37 Q139.144 1081.95 139.144 1090.7 Q139.144 1099.43 136.066 1104.03 Q133.01 1108.62 127.2 1108.62 Q121.39 1108.62 118.311 1104.03 Q115.256 1099.43 115.256 1090.7 Q115.256 1081.95 118.311 1077.37 Q121.39 1072.76 127.2 1072.76 Z" fill="#000000" fill-rule="nonzero" fill-opacity="1" /><path clip-path="url(#clip010)" d="M147.362 1102.07 L152.246 1102.07 L152.246 1107.94 L147.362 1107.94 L147.362 1102.07 Z" fill="#000000" fill-rule="nonzero" fill-opacity="1" /><path clip-path="url(#clip010)" d="M162.477 1073.38 L180.834 1073.38 L180.834 1077.32 L166.76 1077.32 L166.76 1085.79 Q167.778 1085.45 168.797 1085.28 Q169.815 1085.1 170.834 1085.1 Q176.621 1085.1 180.001 1088.27 Q183.38 1091.44 183.38 1096.86 Q183.38 1102.44 179.908 1105.54 Q176.436 1108.62 170.116 1108.62 Q167.94 1108.62 165.672 1108.25 Q163.427 1107.88 161.019 1107.13 L161.019 1102.44 Q163.102 1103.57 165.325 1104.13 Q167.547 1104.68 170.024 1104.68 Q174.028 1104.68 176.366 1102.57 Q178.704 1100.47 178.704 1096.86 Q178.704 1093.25 176.366 1091.14 Q174.028 1089.03 170.024 1089.03 Q168.149 1089.03 166.274 1089.45 Q164.422 1089.87 162.477 1090.75 L162.477 1073.38 Z" fill="#000000" fill-rule="nonzero" fill-opacity="1" /><path clip-path="url(#clip010)" d="M117.015 801.724 L124.654 801.724 L124.654 775.358 L116.343 777.025 L116.343 772.765 L124.607 771.099 L129.283 771.099 L129.283 801.724 L136.922 801.724 L136.922 805.659 L117.015 805.659 L117.015 801.724 Z" fill="#000000" fill-rule="nonzero" fill-opacity="1" /><path clip-path="url(#clip010)" d="M146.366 799.779 L151.251 799.779 L151.251 805.659 L146.366 805.659 L146.366 799.779 Z" fill="#000000" fill-rule="nonzero" fill-opacity="1" /><path clip-path="url(#clip010)" d="M171.436 774.177 Q167.825 774.177 165.996 777.742 Q164.19 781.284 164.19 788.413 Q164.19 795.52 165.996 799.085 Q167.825 802.626 171.436 802.626 Q175.07 802.626 176.876 799.085 Q178.704 795.52 178.704 788.413 Q178.704 781.284 176.876 777.742 Q175.07 774.177 171.436 774.177 M171.436 770.474 Q177.246 770.474 180.301 775.08 Q183.38 779.663 183.38 788.413 Q183.38 797.14 180.301 801.747 Q177.246 806.33 171.436 806.33 Q165.626 806.33 162.547 801.747 Q159.491 797.14 159.491 788.413 Q159.491 779.663 162.547 775.08 Q165.626 770.474 171.436 770.474 Z" fill="#000000" fill-rule="nonzero" fill-opacity="1" /><path clip-path="url(#clip010)" d="M118.01 499.437 L125.649 499.437 L125.649 473.072 L117.339 474.738 L117.339 470.479 L125.603 468.812 L130.279 468.812 L130.279 499.437 L137.917 499.437 L137.917 503.372 L118.01 503.372 L118.01 499.437 Z" fill="#000000" fill-rule="nonzero" fill-opacity="1" /><path clip-path="url(#clip010)" d="M147.362 497.493 L152.246 497.493 L152.246 503.372 L147.362 503.372 L147.362 497.493 Z" fill="#000000" fill-rule="nonzero" fill-opacity="1" /><path clip-path="url(#clip010)" d="M162.477 468.812 L180.834 468.812 L180.834 472.748 L166.76 472.748 L166.76 481.22 Q167.778 480.873 168.797 480.711 Q169.815 480.525 170.834 480.525 Q176.621 480.525 180.001 483.697 Q183.38 486.868 183.38 492.285 Q183.38 497.863 179.908 500.965 Q176.436 504.044 170.116 504.044 Q167.94 504.044 165.672 503.673 Q163.427 503.303 161.019 502.562 L161.019 497.863 Q163.102 498.997 165.325 499.553 Q167.547 500.109 170.024 500.109 Q174.028 500.109 176.366 498.002 Q178.704 495.896 178.704 492.285 Q178.704 488.673 176.366 486.567 Q174.028 484.46 170.024 484.46 Q168.149 484.46 166.274 484.877 Q164.422 485.294 162.477 486.173 L162.477 468.812 Z" fill="#000000" fill-rule="nonzero" fill-opacity="1" /><path clip-path="url(#clip010)" d="M120.232 197.151 L136.552 197.151 L136.552 201.086 L114.607 201.086 L114.607 197.151 Q117.269 194.396 121.853 189.767 Q126.459 185.114 127.64 183.771 Q129.885 181.248 130.765 179.512 Q131.667 177.753 131.667 176.063 Q131.667 173.309 129.723 171.572 Q127.802 169.836 124.7 169.836 Q122.501 169.836 120.047 170.6 Q117.617 171.364 114.839 172.915 L114.839 168.193 Q117.663 167.059 120.117 166.48 Q122.57 165.901 124.607 165.901 Q129.978 165.901 133.172 168.586 Q136.367 171.272 136.367 175.762 Q136.367 177.892 135.556 179.813 Q134.769 181.711 132.663 184.304 Q132.084 184.975 128.982 188.193 Q125.88 191.387 120.232 197.151 Z" fill="#000000" fill-rule="nonzero" fill-opacity="1" /><path clip-path="url(#clip010)" d="M146.366 195.207 L151.251 195.207 L151.251 201.086 L146.366 201.086 L146.366 195.207 Z" fill="#000000" fill-rule="nonzero" fill-opacity="1" /><path clip-path="url(#clip010)" d="M171.436 169.605 Q167.825 169.605 165.996 173.17 Q164.19 176.711 164.19 183.841 Q164.19 190.947 165.996 194.512 Q167.825 198.054 171.436 198.054 Q175.07 198.054 176.876 194.512 Q178.704 190.947 178.704 183.841 Q178.704 176.711 176.876 173.17 Q175.07 169.605 171.436 169.605 M171.436 165.901 Q177.246 165.901 180.301 170.508 Q183.38 175.091 183.38 183.841 Q183.38 192.568 180.301 197.174 Q177.246 201.757 171.436 201.757 Q165.626 201.757 162.547 197.174 Q159.491 192.568 159.491 183.841 Q159.491 175.091 162.547 170.508 Q165.626 165.901 171.436 165.901 Z" fill="#000000" fill-rule="nonzero" fill-opacity="1" /><path clip-path="url(#clip010)" d="M20.1444 959.388 L26.9239 959.388 Q23.9002 962.634 22.4043 966.326 Q20.9083 969.987 20.9083 974.124 Q20.9083 982.272 25.9054 986.601 Q30.8707 990.93 40.2919 990.93 Q49.6813 990.93 54.6784 986.601 Q59.6436 982.272 59.6436 974.124 Q59.6436 969.987 58.1477 966.326 Q56.6518 962.634 53.6281 959.388 L60.3439 959.388 Q62.6355 962.762 63.7814 966.549 Q64.9272 970.305 64.9272 974.506 Q64.9272 985.296 58.3387 991.503 Q51.7183 997.709 40.2919 997.709 Q28.8336 997.709 22.2451 991.503 Q15.6248 985.296 15.6248 974.506 Q15.6248 970.241 16.7706 966.486 Q17.8846 962.698 20.1444 959.388 Z" fill="#000000" fill-rule="nonzero" fill-opacity="1" /><path clip-path="url(#clip010)" d="M32.4621 935.898 Q32.4621 940.609 36.1542 943.346 Q39.8145 946.083 46.212 946.083 Q52.6095 946.083 56.3017 943.378 Q59.9619 940.641 59.9619 935.898 Q59.9619 931.22 56.2698 928.482 Q52.5777 925.745 46.212 925.745 Q39.8781 925.745 36.186 928.482 Q32.4621 931.22 32.4621 935.898 M27.4968 935.898 Q27.4968 928.259 32.4621 923.899 Q37.4273 919.538 46.212 919.538 Q54.9649 919.538 59.9619 923.899 Q64.9272 928.259 64.9272 935.898 Q64.9272 943.569 59.9619 947.93 Q54.9649 952.258 46.212 952.258 Q37.4273 952.258 32.4621 947.93 Q27.4968 943.569 27.4968 935.898 Z" fill="#000000" fill-rule="nonzero" fill-opacity="1" /><path clip-path="url(#clip010)" d="M42.4881 880.198 L64.0042 880.198 L64.0042 886.055 L42.679 886.055 Q37.6183 886.055 35.1038 888.028 Q32.5894 890.002 32.5894 893.948 Q32.5894 898.691 35.6131 901.428 Q38.6368 904.165 43.8567 904.165 L64.0042 904.165 L64.0042 910.054 L28.3562 910.054 L28.3562 904.165 L33.8944 904.165 Q30.6797 902.065 29.0883 899.232 Q27.4968 896.367 27.4968 892.643 Q27.4968 886.5 31.3163 883.349 Q35.1038 880.198 42.4881 880.198 Z" fill="#000000" fill-rule="nonzero" fill-opacity="1" /><path clip-path="url(#clip010)" d="M14.479 850.471 L19.3487 850.471 L19.3487 856.072 Q19.3487 859.223 20.6219 860.465 Q21.895 861.674 25.2052 861.674 L28.3562 861.674 L28.3562 852.03 L32.9077 852.03 L32.9077 861.674 L64.0042 861.674 L64.0042 867.562 L32.9077 867.562 L32.9077 873.164 L28.3562 873.164 L28.3562 867.562 L25.8736 867.562 Q19.9216 867.562 17.2162 864.793 Q14.479 862.024 14.479 856.009 L14.479 850.471 Z" fill="#000000" fill-rule="nonzero" fill-opacity="1" /><path clip-path="url(#clip010)" d="M55.9197 849.484 L55.9197 842.768 L64.0042 842.768 L64.0042 849.484 L55.9197 849.484 Z" fill="#000000" fill-rule="nonzero" fill-opacity="1" /><path clip-path="url(#clip010)" d="M14.479 808.871 L14.479 803.014 L64.0042 803.014 L64.0042 808.871 L14.479 808.871 Z" fill="#000000" fill-rule="nonzero" fill-opacity="1" /><path clip-path="url(#clip010)" d="M44.7161 760.268 L47.5806 760.268 L47.5806 787.195 Q53.6281 786.813 56.8109 783.567 Q59.9619 780.289 59.9619 774.464 Q59.9619 771.09 59.1344 767.939 Q58.3069 764.756 56.6518 761.637 L62.1899 761.637 Q63.5267 764.788 64.227 768.098 Q64.9272 771.408 64.9272 774.814 Q64.9272 783.344 59.9619 788.341 Q54.9967 793.306 46.5303 793.306 Q37.7774 793.306 32.6531 788.596 Q27.4968 783.853 27.4968 775.833 Q27.4968 768.639 32.1438 764.47 Q36.7589 760.268 44.7161 760.268 M42.9973 766.125 Q38.1912 766.189 35.3266 768.83 Q32.4621 771.44 32.4621 775.769 Q32.4621 780.671 35.2312 783.631 Q38.0002 786.559 43.0292 787.004 L42.9973 766.125 Z" fill="#000000" fill-rule="nonzero" fill-opacity="1" /><path clip-path="url(#clip010)" d="M28.3562 754.858 L28.3562 748.651 L58.275 737.511 L28.3562 726.371 L28.3562 720.165 L64.0042 733.533 L64.0042 741.49 L28.3562 754.858 Z" fill="#000000" fill-rule="nonzero" fill-opacity="1" /><path clip-path="url(#clip010)" d="M44.7161 681.588 L47.5806 681.588 L47.5806 708.515 Q53.6281 708.133 56.8109 704.887 Q59.9619 701.608 59.9619 695.784 Q59.9619 692.41 59.1344 689.259 Q58.3069 686.076 56.6518 682.957 L62.1899 682.957 Q63.5267 686.108 64.227 689.418 Q64.9272 692.728 64.9272 696.134 Q64.9272 704.664 59.9619 709.661 Q54.9967 714.626 46.5303 714.626 Q37.7774 714.626 32.6531 709.916 Q27.4968 705.173 27.4968 697.152 Q27.4968 689.959 32.1438 685.79 Q36.7589 681.588 44.7161 681.588 M42.9973 687.445 Q38.1912 687.508 35.3266 690.15 Q32.4621 692.76 32.4621 697.089 Q32.4621 701.99 35.2312 704.95 Q38.0002 707.879 43.0292 708.324 L42.9973 687.445 Z" fill="#000000" fill-rule="nonzero" fill-opacity="1" /><path clip-path="url(#clip010)" d="M14.479 671.976 L14.479 666.12 L64.0042 666.12 L64.0042 671.976 L14.479 671.976 Z" fill="#000000" fill-rule="nonzero" fill-opacity="1" /><path clip-path="url(#clip010)" d="M14.479 633.686 L14.479 620.191 L19.0304 620.191 L19.0304 627.83 L68.0464 627.83 L68.0464 620.191 L72.5979 620.191 L72.5979 633.686 L14.479 633.686 Z" fill="#000000" fill-rule="nonzero" fill-opacity="1" /><path clip-path="url(#clip010)" d="M33.0032 593.901 Q33.0032 598.739 36.5043 601.349 Q40.1646 604.086 46.212 604.086 Q52.6095 604.086 56.3017 601.38 Q59.9619 598.643 59.9619 593.901 Q59.9619 589.222 56.2698 586.485 Q52.5777 583.747 46.212 583.747 Q40.3874 583.747 36.5043 586.485 Q33.0032 588.999 33.0032 593.901 M28.3562 593.901 L28.3562 574.453 L34.2127 574.453 L34.2127 581.01 Q39.1779 577.541 46.212 577.541 Q54.9649 577.541 59.9301 581.901 Q64.9272 586.262 64.9272 593.901 Q64.9272 601.571 59.9301 605.9 Q54.9649 610.261 46.212 610.261 Q37.3955 610.261 32.4621 605.9 Q28.3562 602.303 28.3562 593.901 Z" fill="#000000" fill-rule="nonzero" fill-opacity="1" /><path clip-path="url(#clip010)" d="M14.479 552.715 L72.5979 552.715 L72.5979 566.21 L68.0464 566.21 L68.0464 558.603 L19.0304 558.603 L19.0304 566.21 L14.479 566.21 L14.479 552.715 Z" fill="#000000" fill-rule="nonzero" fill-opacity="1" /><polyline clip-path="url(#clip012)" style="stroke:#009af9; stroke-linecap:round; stroke-linejoin:round; stroke-width:6; stroke-opacity:1; fill:none" points="245.796,77.7323 284.195,170.895 319.409,259.756 352.209,345.445 383.091,428.636 412.398,509.744 440.38,589.016 467.226,666.576 493.084,742.447 518.071,816.558 542.285,888.748 565.805,958.752 588.698,1026.2 611.023,1090.59 632.829,1151.27 654.158,1207.47 675.049,1258.25 695.533,1302.52 715.637,1339.15 735.351,1366.97 754.452,1384.88 771.338,1392.33 777.763,1392.95 784.189,1392.32 801.075,1384.54 819.773,1365.55 838.433,1335.98 856.521,1297.8 874.059,1252.65 891.082,1201.98 907.629,1147.05 923.731,1088.91 939.417,1028.4 954.714,966.204 969.645,902.83 984.23,838.684 998.489,774.078 1012.44,709.246 1026.1,644.37 1039.47,579.585 1052.59,514.994 1065.45,450.674 1078.07,386.681 1090.46,323.056 1102.63,259.83 1114.59,197.023 1126.34,134.649 "/>
<path clip-path="url(#clip012)" d="M777.763 1402.95 L769.103 1397.95 L769.103 1387.95 L777.763 1382.95 L786.423 1387.95 L786.423 1397.95 Z" fill="#ff0000" fill-rule="evenodd" fill-opacity="1" stroke="none"/>
<path clip-path="url(#clip010)" d="M1419.38 1423.18 L2352.76 1423.18 L2352.76 127.244 L1419.38 127.244  Z" fill="#ffffff" fill-rule="evenodd" fill-opacity="1"/>
<defs>
  <clipPath id="clip013">
    <rect x="1419" y="127" width="934" height="1297"/>
  </clipPath>
</defs>
<polyline clip-path="url(#clip013)" style="stroke:#000000; stroke-linecap:round; stroke-linejoin:round; stroke-width:2; stroke-opacity:0.1; fill:none" points="1444.79,1423.18 1444.79,127.244 "/>
<polyline clip-path="url(#clip013)" style="stroke:#000000; stroke-linecap:round; stroke-linejoin:round; stroke-width:2; stroke-opacity:0.1; fill:none" points="1621.49,1423.18 1621.49,127.244 "/>
<polyline clip-path="url(#clip013)" style="stroke:#000000; stroke-linecap:round; stroke-linejoin:round; stroke-width:2; stroke-opacity:0.1; fill:none" points="1798.19,1423.18 1798.19,127.244 "/>
<polyline clip-path="url(#clip013)" style="stroke:#000000; stroke-linecap:round; stroke-linejoin:round; stroke-width:2; stroke-opacity:0.1; fill:none" points="1974.88,1423.18 1974.88,127.244 "/>
<polyline clip-path="url(#clip013)" style="stroke:#000000; stroke-linecap:round; stroke-linejoin:round; stroke-width:2; stroke-opacity:0.1; fill:none" points="2151.58,1423.18 2151.58,127.244 "/>
<polyline clip-path="url(#clip013)" style="stroke:#000000; stroke-linecap:round; stroke-linejoin:round; stroke-width:2; stroke-opacity:0.1; fill:none" points="2328.28,1423.18 2328.28,127.244 "/>
<polyline clip-path="url(#clip013)" style="stroke:#000000; stroke-linecap:round; stroke-linejoin:round; stroke-width:2; stroke-opacity:0.1; fill:none" points="1419.38,1392.95 2352.76,1392.95 "/>
<polyline clip-path="url(#clip013)" style="stroke:#000000; stroke-linecap:round; stroke-linejoin:round; stroke-width:2; stroke-opacity:0.1; fill:none" points="1419.38,1090.66 2352.76,1090.66 "/>
<polyline clip-path="url(#clip013)" style="stroke:#000000; stroke-linecap:round; stroke-linejoin:round; stroke-width:2; stroke-opacity:0.1; fill:none" points="1419.38,788.379 2352.76,788.379 "/>
<polyline clip-path="url(#clip013)" style="stroke:#000000; stroke-linecap:round; stroke-linejoin:round; stroke-width:2; stroke-opacity:0.1; fill:none" points="1419.38,486.092 2352.76,486.092 "/>
<polyline clip-path="url(#clip013)" style="stroke:#000000; stroke-linecap:round; stroke-linejoin:round; stroke-width:2; stroke-opacity:0.1; fill:none" points="1419.38,183.806 2352.76,183.806 "/>
<polyline clip-path="url(#clip010)" style="stroke:#000000; stroke-linecap:round; stroke-linejoin:round; stroke-width:4; stroke-opacity:1; fill:none" points="1419.38,1423.18 2352.76,1423.18 "/>
<polyline clip-path="url(#clip010)" style="stroke:#000000; stroke-linecap:round; stroke-linejoin:round; stroke-width:4; stroke-opacity:1; fill:none" points="1444.79,1423.18 1444.79,1404.28 "/>
<polyline clip-path="url(#clip010)" style="stroke:#000000; stroke-linecap:round; stroke-linejoin:round; stroke-width:4; stroke-opacity:1; fill:none" points="1621.49,1423.18 1621.49,1404.28 "/>
<polyline clip-path="url(#clip010)" style="stroke:#000000; stroke-linecap:round; stroke-linejoin:round; stroke-width:4; stroke-opacity:1; fill:none" points="1798.19,1423.18 1798.19,1404.28 "/>
<polyline clip-path="url(#clip010)" style="stroke:#000000; stroke-linecap:round; stroke-linejoin:round; stroke-width:4; stroke-opacity:1; fill:none" points="1974.88,1423.18 1974.88,1404.28 "/>
<polyline clip-path="url(#clip010)" style="stroke:#000000; stroke-linecap:round; stroke-linejoin:round; stroke-width:4; stroke-opacity:1; fill:none" points="2151.58,1423.18 2151.58,1404.28 "/>
<polyline clip-path="url(#clip010)" style="stroke:#000000; stroke-linecap:round; stroke-linejoin:round; stroke-width:4; stroke-opacity:1; fill:none" points="2328.28,1423.18 2328.28,1404.28 "/>
<path clip-path="url(#clip010)" d="M1391.32 1468.75 L1420.99 1468.75 L1420.99 1472.69 L1391.32 1472.69 L1391.32 1468.75 Z" fill="#000000" fill-rule="nonzero" fill-opacity="1" /><path clip-path="url(#clip010)" d="M1435.11 1481.64 L1451.43 1481.64 L1451.43 1485.58 L1429.49 1485.58 L1429.49 1481.64 Q1432.15 1478.89 1436.73 1474.26 Q1441.34 1469.61 1442.52 1468.27 Q1444.77 1465.74 1445.65 1464.01 Q1446.55 1462.25 1446.55 1460.56 Q1446.55 1457.8 1444.6 1456.07 Q1442.68 1454.33 1439.58 1454.33 Q1437.38 1454.33 1434.93 1455.09 Q1432.5 1455.86 1429.72 1457.41 L1429.72 1452.69 Q1432.54 1451.55 1435 1450.97 Q1437.45 1450.39 1439.49 1450.39 Q1444.86 1450.39 1448.05 1453.08 Q1451.25 1455.77 1451.25 1460.26 Q1451.25 1462.39 1450.44 1464.31 Q1449.65 1466.2 1447.54 1468.8 Q1446.97 1469.47 1443.86 1472.69 Q1440.76 1475.88 1435.11 1481.64 Z" fill="#000000" fill-rule="nonzero" fill-opacity="1" /><path clip-path="url(#clip010)" d="M1461.25 1479.7 L1466.13 1479.7 L1466.13 1485.58 L1461.25 1485.58 L1461.25 1479.7 Z" fill="#000000" fill-rule="nonzero" fill-opacity="1" /><path clip-path="url(#clip010)" d="M1486.32 1454.1 Q1482.71 1454.1 1480.88 1457.66 Q1479.07 1461.2 1479.07 1468.33 Q1479.07 1475.44 1480.88 1479.01 Q1482.71 1482.55 1486.32 1482.55 Q1489.95 1482.55 1491.76 1479.01 Q1493.59 1475.44 1493.59 1468.33 Q1493.59 1461.2 1491.76 1457.66 Q1489.95 1454.1 1486.32 1454.1 M1486.32 1450.39 Q1492.13 1450.39 1495.18 1455 Q1498.26 1459.58 1498.26 1468.33 Q1498.26 1477.06 1495.18 1481.67 Q1492.13 1486.25 1486.32 1486.25 Q1480.51 1486.25 1477.43 1481.67 Q1474.37 1477.06 1474.37 1468.33 Q1474.37 1459.58 1477.43 1455 Q1480.51 1450.39 1486.32 1450.39 Z" fill="#000000" fill-rule="nonzero" fill-opacity="1" /><path clip-path="url(#clip010)" d="M1568.51 1468.75 L1598.19 1468.75 L1598.19 1472.69 L1568.51 1472.69 L1568.51 1468.75 Z" fill="#000000" fill-rule="nonzero" fill-opacity="1" /><path clip-path="url(#clip010)" d="M1609.09 1481.64 L1616.73 1481.64 L1616.73 1455.28 L1608.42 1456.95 L1608.42 1452.69 L1616.68 1451.02 L1621.36 1451.02 L1621.36 1481.64 L1629 1481.64 L1629 1485.58 L1609.09 1485.58 L1609.09 1481.64 Z" fill="#000000" fill-rule="nonzero" fill-opacity="1" /><path clip-path="url(#clip010)" d="M1638.44 1479.7 L1643.33 1479.7 L1643.33 1485.58 L1638.44 1485.58 L1638.44 1479.7 Z" fill="#000000" fill-rule="nonzero" fill-opacity="1" /><path clip-path="url(#clip010)" d="M1653.56 1451.02 L1671.92 1451.02 L1671.92 1454.96 L1657.84 1454.96 L1657.84 1463.43 Q1658.86 1463.08 1659.88 1462.92 Q1660.9 1462.73 1661.92 1462.73 Q1667.7 1462.73 1671.08 1465.9 Q1674.46 1469.08 1674.46 1474.49 Q1674.46 1480.07 1670.99 1483.17 Q1667.52 1486.25 1661.2 1486.25 Q1659.02 1486.25 1656.75 1485.88 Q1654.51 1485.51 1652.1 1484.77 L1652.1 1480.07 Q1654.18 1481.2 1656.41 1481.76 Q1658.63 1482.32 1661.11 1482.32 Q1665.11 1482.32 1667.45 1480.21 Q1669.79 1478.1 1669.79 1474.49 Q1669.79 1470.88 1667.45 1468.77 Q1665.11 1466.67 1661.11 1466.67 Q1659.23 1466.67 1657.36 1467.08 Q1655.5 1467.5 1653.56 1468.38 L1653.56 1451.02 Z" fill="#000000" fill-rule="nonzero" fill-opacity="1" /><path clip-path="url(#clip010)" d="M1744.71 1468.75 L1774.39 1468.75 L1774.39 1472.69 L1744.71 1472.69 L1744.71 1468.75 Z" fill="#000000" fill-rule="nonzero" fill-opacity="1" /><path clip-path="url(#clip010)" d="M1785.29 1481.64 L1792.93 1481.64 L1792.93 1455.28 L1784.62 1456.95 L1784.62 1452.69 L1792.88 1451.02 L1797.56 1451.02 L1797.56 1481.64 L1805.2 1481.64 L1805.2 1485.58 L1785.29 1485.58 L1785.29 1481.64 Z" fill="#000000" fill-rule="nonzero" fill-opacity="1" /><path clip-path="url(#clip010)" d="M1814.64 1479.7 L1819.53 1479.7 L1819.53 1485.58 L1814.64 1485.58 L1814.64 1479.7 Z" fill="#000000" fill-rule="nonzero" fill-opacity="1" /><path clip-path="url(#clip010)" d="M1839.71 1454.1 Q1836.1 1454.1 1834.27 1457.66 Q1832.47 1461.2 1832.47 1468.33 Q1832.47 1475.44 1834.27 1479.01 Q1836.1 1482.55 1839.71 1482.55 Q1843.35 1482.55 1845.15 1479.01 Q1846.98 1475.44 1846.98 1468.33 Q1846.98 1461.2 1845.15 1457.66 Q1843.35 1454.1 1839.71 1454.1 M1839.71 1450.39 Q1845.52 1450.39 1848.58 1455 Q1851.66 1459.58 1851.66 1468.33 Q1851.66 1477.06 1848.58 1481.67 Q1845.52 1486.25 1839.71 1486.25 Q1833.9 1486.25 1830.82 1481.67 Q1827.77 1477.06 1827.77 1468.33 Q1827.77 1459.58 1830.82 1455 Q1833.9 1450.39 1839.71 1450.39 Z" fill="#000000" fill-rule="nonzero" fill-opacity="1" /><path clip-path="url(#clip010)" d="M1921.91 1468.75 L1951.58 1468.75 L1951.58 1472.69 L1921.91 1472.69 L1921.91 1468.75 Z" fill="#000000" fill-rule="nonzero" fill-opacity="1" /><path clip-path="url(#clip010)" d="M1971.68 1454.1 Q1968.07 1454.1 1966.24 1457.66 Q1964.43 1461.2 1964.43 1468.33 Q1964.43 1475.44 1966.24 1479.01 Q1968.07 1482.55 1971.68 1482.55 Q1975.31 1482.55 1977.12 1479.01 Q1978.95 1475.44 1978.95 1468.33 Q1978.95 1461.2 1977.12 1457.66 Q1975.31 1454.1 1971.68 1454.1 M1971.68 1450.39 Q1977.49 1450.39 1980.54 1455 Q1983.62 1459.58 1983.62 1468.33 Q1983.62 1477.06 1980.54 1481.67 Q1977.49 1486.25 1971.68 1486.25 Q1965.87 1486.25 1962.79 1481.67 Q1959.73 1477.06 1959.73 1468.33 Q1959.73 1459.58 1962.79 1455 Q1965.87 1450.39 1971.68 1450.39 Z" fill="#000000" fill-rule="nonzero" fill-opacity="1" /><path clip-path="url(#clip010)" d="M1991.84 1479.7 L1996.72 1479.7 L1996.72 1485.58 L1991.84 1485.58 L1991.84 1479.7 Z" fill="#000000" fill-rule="nonzero" fill-opacity="1" /><path clip-path="url(#clip010)" d="M2006.95 1451.02 L2025.31 1451.02 L2025.31 1454.96 L2011.24 1454.96 L2011.24 1463.43 Q2012.26 1463.08 2013.27 1462.92 Q2014.29 1462.73 2015.31 1462.73 Q2021.1 1462.73 2024.48 1465.9 Q2027.86 1469.08 2027.86 1474.49 Q2027.86 1480.07 2024.39 1483.17 Q2020.91 1486.25 2014.59 1486.25 Q2012.42 1486.25 2010.15 1485.88 Q2007.9 1485.51 2005.5 1484.77 L2005.5 1480.07 Q2007.58 1481.2 2009.8 1481.76 Q2012.02 1482.32 2014.5 1482.32 Q2018.51 1482.32 2020.84 1480.21 Q2023.18 1478.1 2023.18 1474.49 Q2023.18 1470.88 2020.84 1468.77 Q2018.51 1466.67 2014.5 1466.67 Q2012.63 1466.67 2010.75 1467.08 Q2008.9 1467.5 2006.95 1468.38 L2006.95 1451.02 Z" fill="#000000" fill-rule="nonzero" fill-opacity="1" /><path clip-path="url(#clip010)" d="M2128.97 1454.1 Q2125.35 1454.1 2123.53 1457.66 Q2121.72 1461.2 2121.72 1468.33 Q2121.72 1475.44 2123.53 1479.01 Q2125.35 1482.55 2128.97 1482.55 Q2132.6 1482.55 2134.41 1479.01 Q2136.23 1475.44 2136.23 1468.33 Q2136.23 1461.2 2134.41 1457.66 Q2132.6 1454.1 2128.97 1454.1 M2128.97 1450.39 Q2134.78 1450.39 2137.83 1455 Q2140.91 1459.58 2140.91 1468.33 Q2140.91 1477.06 2137.83 1481.67 Q2134.78 1486.25 2128.97 1486.25 Q2123.16 1486.25 2120.08 1481.67 Q2117.02 1477.06 2117.02 1468.33 Q2117.02 1459.58 2120.08 1455 Q2123.16 1450.39 2128.97 1450.39 Z" fill="#000000" fill-rule="nonzero" fill-opacity="1" /><path clip-path="url(#clip010)" d="M2149.13 1479.7 L2154.01 1479.7 L2154.01 1485.58 L2149.13 1485.58 L2149.13 1479.7 Z" fill="#000000" fill-rule="nonzero" fill-opacity="1" /><path clip-path="url(#clip010)" d="M2174.2 1454.1 Q2170.59 1454.1 2168.76 1457.66 Q2166.95 1461.2 2166.95 1468.33 Q2166.95 1475.44 2168.76 1479.01 Q2170.59 1482.55 2174.2 1482.55 Q2177.83 1482.55 2179.64 1479.01 Q2181.46 1475.44 2181.46 1468.33 Q2181.46 1461.2 2179.64 1457.66 Q2177.83 1454.1 2174.2 1454.1 M2174.2 1450.39 Q2180.01 1450.39 2183.06 1455 Q2186.14 1459.58 2186.14 1468.33 Q2186.14 1477.06 2183.06 1481.67 Q2180.01 1486.25 2174.2 1486.25 Q2168.39 1486.25 2165.31 1481.67 Q2162.25 1477.06 2162.25 1468.33 Q2162.25 1459.58 2165.31 1455 Q2168.39 1450.39 2174.2 1450.39 Z" fill="#000000" fill-rule="nonzero" fill-opacity="1" /><path clip-path="url(#clip010)" d="M2306.16 1454.1 Q2302.55 1454.1 2300.72 1457.66 Q2298.92 1461.2 2298.92 1468.33 Q2298.92 1475.44 2300.72 1479.01 Q2302.55 1482.55 2306.16 1482.55 Q2309.79 1482.55 2311.6 1479.01 Q2313.43 1475.44 2313.43 1468.33 Q2313.43 1461.2 2311.6 1457.66 Q2309.79 1454.1 2306.16 1454.1 M2306.16 1450.39 Q2311.97 1450.39 2315.03 1455 Q2318.11 1459.58 2318.11 1468.33 Q2318.11 1477.06 2315.03 1481.67 Q2311.97 1486.25 2306.16 1486.25 Q2300.35 1486.25 2297.27 1481.67 Q2294.22 1477.06 2294.22 1468.33 Q2294.22 1459.58 2297.27 1455 Q2300.35 1450.39 2306.16 1450.39 Z" fill="#000000" fill-rule="nonzero" fill-opacity="1" /><path clip-path="url(#clip010)" d="M2326.32 1479.7 L2331.21 1479.7 L2331.21 1485.58 L2326.32 1485.58 L2326.32 1479.7 Z" fill="#000000" fill-rule="nonzero" fill-opacity="1" /><path clip-path="url(#clip010)" d="M2341.44 1451.02 L2359.79 1451.02 L2359.79 1454.96 L2345.72 1454.96 L2345.72 1463.43 Q2346.74 1463.08 2347.76 1462.92 Q2348.78 1462.73 2349.79 1462.73 Q2355.58 1462.73 2358.96 1465.9 Q2362.34 1469.08 2362.34 1474.49 Q2362.34 1480.07 2358.87 1483.17 Q2355.4 1486.25 2349.08 1486.25 Q2346.9 1486.25 2344.63 1485.88 Q2342.39 1485.51 2339.98 1484.77 L2339.98 1480.07 Q2342.06 1481.2 2344.29 1481.76 Q2346.51 1482.32 2348.98 1482.32 Q2352.99 1482.32 2355.33 1480.21 Q2357.67 1478.1 2357.67 1474.49 Q2357.67 1470.88 2355.33 1468.77 Q2352.99 1466.67 2348.98 1466.67 Q2347.11 1466.67 2345.23 1467.08 Q2343.38 1467.5 2341.44 1468.38 L2341.44 1451.02 Z" fill="#000000" fill-rule="nonzero" fill-opacity="1" /><path clip-path="url(#clip010)" d="M1883.39 1545.45 L1863.12 1545.45 Q1863.6 1554.96 1865.79 1559 Q1868.53 1563.97 1873.27 1563.97 Q1878.05 1563.97 1880.69 1558.97 Q1883.01 1554.58 1883.39 1545.45 M1883.3 1540.03 Q1882.41 1531 1880.69 1527.81 Q1877.95 1522.78 1873.27 1522.78 Q1868.4 1522.78 1865.83 1527.75 Q1863.79 1531.76 1863.18 1540.03 L1883.3 1540.03 M1873.27 1518.01 Q1880.91 1518.01 1885.27 1524.76 Q1889.63 1531.47 1889.63 1543.38 Q1889.63 1555.25 1885.27 1562 Q1880.91 1568.78 1873.27 1568.78 Q1865.6 1568.78 1861.27 1562 Q1856.91 1555.25 1856.91 1543.38 Q1856.91 1531.47 1861.27 1524.76 Q1865.6 1518.01 1873.27 1518.01 Z" fill="#000000" fill-rule="nonzero" fill-opacity="1" /><path clip-path="url(#clip010)" d="M1901.73 1564.42 L1915.22 1564.42 L1915.22 1568.04 L1896.19 1568.04 L1896.19 1564.54 Q1897.27 1563.56 1899.28 1561.77 Q1910.23 1552.07 1910.23 1549.07 Q1910.23 1546.97 1908.57 1545.7 Q1906.92 1544.4 1904.21 1544.4 Q1902.56 1544.4 1900.61 1544.97 Q1898.67 1545.51 1896.38 1546.62 L1896.38 1542.71 Q1898.83 1541.82 1900.93 1541.37 Q1903.06 1540.93 1904.88 1540.93 Q1909.49 1540.93 1912.26 1543.03 Q1915.03 1545.13 1915.03 1548.56 Q1915.03 1552.99 1904.5 1562.03 Q1902.71 1563.56 1901.73 1564.42 Z" fill="#000000" fill-rule="nonzero" fill-opacity="1" /><polyline clip-path="url(#clip010)" style="stroke:#000000; stroke-linecap:round; stroke-linejoin:round; stroke-width:4; stroke-opacity:1; fill:none" points="1419.38,1423.18 1419.38,127.244 "/>
<polyline clip-path="url(#clip010)" style="stroke:#000000; stroke-linecap:round; stroke-linejoin:round; stroke-width:4; stroke-opacity:1; fill:none" points="1419.38,1392.95 1438.28,1392.95 "/>
<polyline clip-path="url(#clip010)" style="stroke:#000000; stroke-linecap:round; stroke-linejoin:round; stroke-width:4; stroke-opacity:1; fill:none" points="1419.38,1090.66 1438.28,1090.66 "/>
<polyline clip-path="url(#clip010)" style="stroke:#000000; stroke-linecap:round; stroke-linejoin:round; stroke-width:4; stroke-opacity:1; fill:none" points="1419.38,788.379 1438.28,788.379 "/>
<polyline clip-path="url(#clip010)" style="stroke:#000000; stroke-linecap:round; stroke-linejoin:round; stroke-width:4; stroke-opacity:1; fill:none" points="1419.38,486.092 1438.28,486.092 "/>
<polyline clip-path="url(#clip010)" style="stroke:#000000; stroke-linecap:round; stroke-linejoin:round; stroke-width:4; stroke-opacity:1; fill:none" points="1419.38,183.806 1438.28,183.806 "/>
<path clip-path="url(#clip010)" d="M1326.2 1378.75 Q1322.59 1378.75 1320.76 1382.31 Q1318.96 1385.86 1318.96 1392.99 Q1318.96 1400.09 1320.76 1403.66 Q1322.59 1407.2 1326.2 1407.2 Q1329.84 1407.2 1331.64 1403.66 Q1333.47 1400.09 1333.47 1392.99 Q1333.47 1385.86 1331.64 1382.31 Q1329.84 1378.75 1326.2 1378.75 M1326.2 1375.05 Q1332.01 1375.05 1335.07 1379.65 Q1338.15 1384.24 1338.15 1392.99 Q1338.15 1401.71 1335.07 1406.32 Q1332.01 1410.9 1326.2 1410.9 Q1320.39 1410.9 1317.32 1406.32 Q1314.26 1401.71 1314.26 1392.99 Q1314.26 1384.24 1317.32 1379.65 Q1320.39 1375.05 1326.2 1375.05 Z" fill="#000000" fill-rule="nonzero" fill-opacity="1" /><path clip-path="url(#clip010)" d="M1346.37 1404.35 L1351.25 1404.35 L1351.25 1410.23 L1346.37 1410.23 L1346.37 1404.35 Z" fill="#000000" fill-rule="nonzero" fill-opacity="1" /><path clip-path="url(#clip010)" d="M1371.44 1378.75 Q1367.82 1378.75 1366 1382.31 Q1364.19 1385.86 1364.19 1392.99 Q1364.19 1400.09 1366 1403.66 Q1367.82 1407.2 1371.44 1407.2 Q1375.07 1407.2 1376.88 1403.66 Q1378.7 1400.09 1378.7 1392.99 Q1378.7 1385.86 1376.88 1382.31 Q1375.07 1378.75 1371.44 1378.75 M1371.44 1375.05 Q1377.25 1375.05 1380.3 1379.65 Q1383.38 1384.24 1383.38 1392.99 Q1383.38 1401.71 1380.3 1406.32 Q1377.25 1410.9 1371.44 1410.9 Q1365.63 1410.9 1362.55 1406.32 Q1359.49 1401.71 1359.49 1392.99 Q1359.49 1384.24 1362.55 1379.65 Q1365.63 1375.05 1371.44 1375.05 Z" fill="#000000" fill-rule="nonzero" fill-opacity="1" /><path clip-path="url(#clip010)" d="M1327.2 1076.46 Q1323.59 1076.46 1321.76 1080.03 Q1319.95 1083.57 1319.95 1090.7 Q1319.95 1097.81 1321.76 1101.37 Q1323.59 1104.91 1327.2 1104.91 Q1330.83 1104.91 1332.64 1101.37 Q1334.47 1097.81 1334.47 1090.7 Q1334.47 1083.57 1332.64 1080.03 Q1330.83 1076.46 1327.2 1076.46 M1327.2 1072.76 Q1333.01 1072.76 1336.07 1077.37 Q1339.14 1081.95 1339.14 1090.7 Q1339.14 1099.43 1336.07 1104.03 Q1333.01 1108.62 1327.2 1108.62 Q1321.39 1108.62 1318.31 1104.03 Q1315.26 1099.43 1315.26 1090.7 Q1315.26 1081.95 1318.31 1077.37 Q1321.39 1072.76 1327.2 1072.76 Z" fill="#000000" fill-rule="nonzero" fill-opacity="1" /><path clip-path="url(#clip010)" d="M1347.36 1102.07 L1352.25 1102.07 L1352.25 1107.94 L1347.36 1107.94 L1347.36 1102.07 Z" fill="#000000" fill-rule="nonzero" fill-opacity="1" /><path clip-path="url(#clip010)" d="M1362.48 1073.38 L1380.83 1073.38 L1380.83 1077.32 L1366.76 1077.32 L1366.76 1085.79 Q1367.78 1085.45 1368.8 1085.28 Q1369.82 1085.1 1370.83 1085.1 Q1376.62 1085.1 1380 1088.27 Q1383.38 1091.44 1383.38 1096.86 Q1383.38 1102.44 1379.91 1105.54 Q1376.44 1108.62 1370.12 1108.62 Q1367.94 1108.62 1365.67 1108.25 Q1363.43 1107.88 1361.02 1107.13 L1361.02 1102.44 Q1363.1 1103.57 1365.32 1104.13 Q1367.55 1104.68 1370.02 1104.68 Q1374.03 1104.68 1376.37 1102.57 Q1378.7 1100.47 1378.7 1096.86 Q1378.7 1093.25 1376.37 1091.14 Q1374.03 1089.03 1370.02 1089.03 Q1368.15 1089.03 1366.27 1089.45 Q1364.42 1089.87 1362.48 1090.75 L1362.48 1073.38 Z" fill="#000000" fill-rule="nonzero" fill-opacity="1" /><path clip-path="url(#clip010)" d="M1317.01 801.724 L1324.65 801.724 L1324.65 775.358 L1316.34 777.025 L1316.34 772.765 L1324.61 771.099 L1329.28 771.099 L1329.28 801.724 L1336.92 801.724 L1336.92 805.659 L1317.01 805.659 L1317.01 801.724 Z" fill="#000000" fill-rule="nonzero" fill-opacity="1" /><path clip-path="url(#clip010)" d="M1346.37 799.779 L1351.25 799.779 L1351.25 805.659 L1346.37 805.659 L1346.37 799.779 Z" fill="#000000" fill-rule="nonzero" fill-opacity="1" /><path clip-path="url(#clip010)" d="M1371.44 774.177 Q1367.82 774.177 1366 777.742 Q1364.19 781.284 1364.19 788.413 Q1364.19 795.52 1366 799.085 Q1367.82 802.626 1371.44 802.626 Q1375.07 802.626 1376.88 799.085 Q1378.7 795.52 1378.7 788.413 Q1378.7 781.284 1376.88 777.742 Q1375.07 774.177 1371.44 774.177 M1371.44 770.474 Q1377.25 770.474 1380.3 775.08 Q1383.38 779.663 1383.38 788.413 Q1383.38 797.14 1380.3 801.747 Q1377.25 806.33 1371.44 806.33 Q1365.63 806.33 1362.55 801.747 Q1359.49 797.14 1359.49 788.413 Q1359.49 779.663 1362.55 775.08 Q1365.63 770.474 1371.44 770.474 Z" fill="#000000" fill-rule="nonzero" fill-opacity="1" /><path clip-path="url(#clip010)" d="M1318.01 499.437 L1325.65 499.437 L1325.65 473.072 L1317.34 474.738 L1317.34 470.479 L1325.6 468.812 L1330.28 468.812 L1330.28 499.437 L1337.92 499.437 L1337.92 503.372 L1318.01 503.372 L1318.01 499.437 Z" fill="#000000" fill-rule="nonzero" fill-opacity="1" /><path clip-path="url(#clip010)" d="M1347.36 497.493 L1352.25 497.493 L1352.25 503.372 L1347.36 503.372 L1347.36 497.493 Z" fill="#000000" fill-rule="nonzero" fill-opacity="1" /><path clip-path="url(#clip010)" d="M1362.48 468.812 L1380.83 468.812 L1380.83 472.748 L1366.76 472.748 L1366.76 481.22 Q1367.78 480.873 1368.8 480.711 Q1369.82 480.525 1370.83 480.525 Q1376.62 480.525 1380 483.697 Q1383.38 486.868 1383.38 492.285 Q1383.38 497.863 1379.91 500.965 Q1376.44 504.044 1370.12 504.044 Q1367.94 504.044 1365.67 503.673 Q1363.43 503.303 1361.02 502.562 L1361.02 497.863 Q1363.1 498.997 1365.32 499.553 Q1367.55 500.109 1370.02 500.109 Q1374.03 500.109 1376.37 498.002 Q1378.7 495.896 1378.7 492.285 Q1378.7 488.673 1376.37 486.567 Q1374.03 484.46 1370.02 484.46 Q1368.15 484.46 1366.27 484.877 Q1364.42 485.294 1362.48 486.173 L1362.48 468.812 Z" fill="#000000" fill-rule="nonzero" fill-opacity="1" /><path clip-path="url(#clip010)" d="M1320.23 197.151 L1336.55 197.151 L1336.55 201.086 L1314.61 201.086 L1314.61 197.151 Q1317.27 194.396 1321.85 189.767 Q1326.46 185.114 1327.64 183.771 Q1329.89 181.248 1330.76 179.512 Q1331.67 177.753 1331.67 176.063 Q1331.67 173.309 1329.72 171.572 Q1327.8 169.836 1324.7 169.836 Q1322.5 169.836 1320.05 170.6 Q1317.62 171.364 1314.84 172.915 L1314.84 168.193 Q1317.66 167.059 1320.12 166.48 Q1322.57 165.901 1324.61 165.901 Q1329.98 165.901 1333.17 168.586 Q1336.37 171.272 1336.37 175.762 Q1336.37 177.892 1335.56 179.813 Q1334.77 181.711 1332.66 184.304 Q1332.08 184.975 1328.98 188.193 Q1325.88 191.387 1320.23 197.151 Z" fill="#000000" fill-rule="nonzero" fill-opacity="1" /><path clip-path="url(#clip010)" d="M1346.37 195.207 L1351.25 195.207 L1351.25 201.086 L1346.37 201.086 L1346.37 195.207 Z" fill="#000000" fill-rule="nonzero" fill-opacity="1" /><path clip-path="url(#clip010)" d="M1371.44 169.605 Q1367.82 169.605 1366 173.17 Q1364.19 176.711 1364.19 183.841 Q1364.19 190.947 1366 194.512 Q1367.82 198.054 1371.44 198.054 Q1375.07 198.054 1376.88 194.512 Q1378.7 190.947 1378.7 183.841 Q1378.7 176.711 1376.88 173.17 Q1375.07 169.605 1371.44 169.605 M1371.44 165.901 Q1377.25 165.901 1380.3 170.508 Q1383.38 175.091 1383.38 183.841 Q1383.38 192.568 1380.3 197.174 Q1377.25 201.757 1371.44 201.757 Q1365.63 201.757 1362.55 197.174 Q1359.49 192.568 1359.49 183.841 Q1359.49 175.091 1362.55 170.508 Q1365.63 165.901 1371.44 165.901 Z" fill="#000000" fill-rule="nonzero" fill-opacity="1" /><path clip-path="url(#clip010)" d="M1220.14 959.388 L1226.92 959.388 Q1223.9 962.634 1222.4 966.326 Q1220.91 969.987 1220.91 974.124 Q1220.91 982.272 1225.91 986.601 Q1230.87 990.93 1240.29 990.93 Q1249.68 990.93 1254.68 986.601 Q1259.64 982.272 1259.64 974.124 Q1259.64 969.987 1258.15 966.326 Q1256.65 962.634 1253.63 959.388 L1260.34 959.388 Q1262.64 962.762 1263.78 966.549 Q1264.93 970.305 1264.93 974.506 Q1264.93 985.296 1258.34 991.503 Q1251.72 997.709 1240.29 997.709 Q1228.83 997.709 1222.25 991.503 Q1215.62 985.296 1215.62 974.506 Q1215.62 970.241 1216.77 966.486 Q1217.88 962.698 1220.14 959.388 Z" fill="#000000" fill-rule="nonzero" fill-opacity="1" /><path clip-path="url(#clip010)" d="M1232.46 935.898 Q1232.46 940.609 1236.15 943.346 Q1239.81 946.083 1246.21 946.083 Q1252.61 946.083 1256.3 943.378 Q1259.96 940.641 1259.96 935.898 Q1259.96 931.22 1256.27 928.482 Q1252.58 925.745 1246.21 925.745 Q1239.88 925.745 1236.19 928.482 Q1232.46 931.22 1232.46 935.898 M1227.5 935.898 Q1227.5 928.259 1232.46 923.899 Q1237.43 919.538 1246.21 919.538 Q1254.96 919.538 1259.96 923.899 Q1264.93 928.259 1264.93 935.898 Q1264.93 943.569 1259.96 947.93 Q1254.96 952.258 1246.21 952.258 Q1237.43 952.258 1232.46 947.93 Q1227.5 943.569 1227.5 935.898 Z" fill="#000000" fill-rule="nonzero" fill-opacity="1" /><path clip-path="url(#clip010)" d="M1242.49 880.198 L1264 880.198 L1264 886.055 L1242.68 886.055 Q1237.62 886.055 1235.1 888.028 Q1232.59 890.002 1232.59 893.948 Q1232.59 898.691 1235.61 901.428 Q1238.64 904.165 1243.86 904.165 L1264 904.165 L1264 910.054 L1228.36 910.054 L1228.36 904.165 L1233.89 904.165 Q1230.68 902.065 1229.09 899.232 Q1227.5 896.367 1227.5 892.643 Q1227.5 886.5 1231.32 883.349 Q1235.1 880.198 1242.49 880.198 Z" fill="#000000" fill-rule="nonzero" fill-opacity="1" /><path clip-path="url(#clip010)" d="M1214.48 850.471 L1219.35 850.471 L1219.35 856.072 Q1219.35 859.223 1220.62 860.465 Q1221.9 861.674 1225.21 861.674 L1228.36 861.674 L1228.36 852.03 L1232.91 852.03 L1232.91 861.674 L1264 861.674 L1264 867.562 L1232.91 867.562 L1232.91 873.164 L1228.36 873.164 L1228.36 867.562 L1225.87 867.562 Q1219.92 867.562 1217.22 864.793 Q1214.48 862.024 1214.48 856.009 L1214.48 850.471 Z" fill="#000000" fill-rule="nonzero" fill-opacity="1" /><path clip-path="url(#clip010)" d="M1255.92 849.484 L1255.92 842.768 L1264 842.768 L1264 849.484 L1255.92 849.484 Z" fill="#000000" fill-rule="nonzero" fill-opacity="1" /><path clip-path="url(#clip010)" d="M1214.48 808.871 L1214.48 803.014 L1264 803.014 L1264 808.871 L1214.48 808.871 Z" fill="#000000" fill-rule="nonzero" fill-opacity="1" /><path clip-path="url(#clip010)" d="M1244.72 760.268 L1247.58 760.268 L1247.58 787.195 Q1253.63 786.813 1256.81 783.567 Q1259.96 780.289 1259.96 774.464 Q1259.96 771.09 1259.13 767.939 Q1258.31 764.756 1256.65 761.637 L1262.19 761.637 Q1263.53 764.788 1264.23 768.098 Q1264.93 771.408 1264.93 774.814 Q1264.93 783.344 1259.96 788.341 Q1255 793.306 1246.53 793.306 Q1237.78 793.306 1232.65 788.596 Q1227.5 783.853 1227.5 775.833 Q1227.5 768.639 1232.14 764.47 Q1236.76 760.268 1244.72 760.268 M1243 766.125 Q1238.19 766.189 1235.33 768.83 Q1232.46 771.44 1232.46 775.769 Q1232.46 780.671 1235.23 783.631 Q1238 786.559 1243.03 787.004 L1243 766.125 Z" fill="#000000" fill-rule="nonzero" fill-opacity="1" /><path clip-path="url(#clip010)" d="M1228.36 754.858 L1228.36 748.651 L1258.28 737.511 L1228.36 726.371 L1228.36 720.165 L1264 733.533 L1264 741.49 L1228.36 754.858 Z" fill="#000000" fill-rule="nonzero" fill-opacity="1" /><path clip-path="url(#clip010)" d="M1244.72 681.588 L1247.58 681.588 L1247.58 708.515 Q1253.63 708.133 1256.81 704.887 Q1259.96 701.608 1259.96 695.784 Q1259.96 692.41 1259.13 689.259 Q1258.31 686.076 1256.65 682.957 L1262.19 682.957 Q1263.53 686.108 1264.23 689.418 Q1264.93 692.728 1264.93 696.134 Q1264.93 704.664 1259.96 709.661 Q1255 714.626 1246.53 714.626 Q1237.78 714.626 1232.65 709.916 Q1227.5 705.173 1227.5 697.152 Q1227.5 689.959 1232.14 685.79 Q1236.76 681.588 1244.72 681.588 M1243 687.445 Q1238.19 687.508 1235.33 690.15 Q1232.46 692.76 1232.46 697.089 Q1232.46 701.99 1235.23 704.95 Q1238 707.879 1243.03 708.324 L1243 687.445 Z" fill="#000000" fill-rule="nonzero" fill-opacity="1" /><path clip-path="url(#clip010)" d="M1214.48 671.976 L1214.48 666.12 L1264 666.12 L1264 671.976 L1214.48 671.976 Z" fill="#000000" fill-rule="nonzero" fill-opacity="1" /><path clip-path="url(#clip010)" d="M1214.48 633.686 L1214.48 620.191 L1219.03 620.191 L1219.03 627.83 L1268.05 627.83 L1268.05 620.191 L1272.6 620.191 L1272.6 633.686 L1214.48 633.686 Z" fill="#000000" fill-rule="nonzero" fill-opacity="1" /><path clip-path="url(#clip010)" d="M1233 593.901 Q1233 598.739 1236.5 601.349 Q1240.16 604.086 1246.21 604.086 Q1252.61 604.086 1256.3 601.38 Q1259.96 598.643 1259.96 593.901 Q1259.96 589.222 1256.27 586.485 Q1252.58 583.747 1246.21 583.747 Q1240.39 583.747 1236.5 586.485 Q1233 588.999 1233 593.901 M1228.36 593.901 L1228.36 574.453 L1234.21 574.453 L1234.21 581.01 Q1239.18 577.541 1246.21 577.541 Q1254.96 577.541 1259.93 581.901 Q1264.93 586.262 1264.93 593.901 Q1264.93 601.571 1259.93 605.9 Q1254.96 610.261 1246.21 610.261 Q1237.4 610.261 1232.46 605.9 Q1228.36 602.303 1228.36 593.901 Z" fill="#000000" fill-rule="nonzero" fill-opacity="1" /><path clip-path="url(#clip010)" d="M1214.48 552.715 L1272.6 552.715 L1272.6 566.21 L1268.05 566.21 L1268.05 558.603 L1219.03 558.603 L1219.03 566.21 L1214.48 566.21 L1214.48 552.715 Z" fill="#000000" fill-rule="nonzero" fill-opacity="1" /><polyline clip-path="url(#clip013)" style="stroke:#009af9; stroke-linecap:round; stroke-linejoin:round; stroke-width:6; stroke-opacity:1; fill:none" points="1445.8,128.62 1481.03,174.698 1517,226.233 1555.18,286.319 1599.37,363.344 1663.63,490.979 1719.5,618.133 1759.01,717.421 1791.71,805.278 1820.33,885.964 1846.13,961.155 1869.84,1031.53 1891.92,1097.24 1912.67,1158.09 1932.33,1213.64 1951.07,1263.24 1969.03,1306.09 1986.32,1341.3 2003.01,1367.94 2019.01,1385.13 2033.08,1392.33 2038.48,1392.95 2043.87,1392.32 2057.94,1384.61 2073.42,1365.75 2088.73,1336.46 2103.42,1298.79 2117.56,1254.37 2131.21,1204.62 2144.43,1150.72 2157.28,1093.66 2169.78,1034.21 2181.99,972.973 2193.94,910.426 2205.66,846.926 2217.17,782.744 2228.5,718.08 2239.68,653.078 2250.73,587.842 2261.68,522.439 2272.53,456.908 2283.32,391.265 2294.08,325.504 2304.81,259.602 2315.56,193.528 2326.34,127.244 "/>
<path clip-path="url(#clip013)" d="M2038.48 1402.95 L2029.82 1397.95 L2029.82 1387.95 L2038.48 1382.95 L2047.14 1387.95 L2047.14 1397.95 Z" fill="#ff0000" fill-rule="evenodd" fill-opacity="1" stroke="none"/>
<path clip-path="url(#clip010)" d="M219.38 80 L2352.76 80 L2352.76 0 L219.38 0  Z" fill="#ffffff" fill-rule="evenodd" fill-opacity="1"/>
<defs>
  <clipPath id="clip014">
    <rect x="219" y="0" width="2134" height="81"/>
  </clipPath>
</defs>
<path clip-path="url(#clip010)" d="M325.5 16.1319 L325.5 35.6109 L334.32 35.6109 Q339.215 35.6109 341.889 33.0762 Q344.563 30.5415 344.563 25.854 Q344.563 21.2013 341.889 18.6666 Q339.215 16.1319 334.32 16.1319 L325.5 16.1319 M318.486 10.368 L334.32 10.368 Q343.035 10.368 347.479 14.3263 Q351.958 18.2499 351.958 25.854 Q351.958 33.5276 347.479 37.4512 Q343.035 41.3748 334.32 41.3748 L325.5 41.3748 L325.5 62.208 L318.486 62.208 L318.486 10.368 Z" fill="#000000" fill-rule="nonzero" fill-opacity="1" /><path clip-path="url(#clip010)" d="M382.375 29.2915 Q381.299 28.6665 380.014 28.3887 Q378.764 28.0762 377.236 28.0762 Q371.819 28.0762 368.903 31.6179 Q366.021 35.1248 366.021 41.722 L366.021 62.208 L359.597 62.208 L359.597 23.3193 L366.021 23.3193 L366.021 29.361 Q368.035 25.8193 371.264 24.1179 Q374.493 22.3818 379.111 22.3818 Q379.771 22.3818 380.569 22.486 Q381.368 22.5554 382.34 22.729 L382.375 29.2915 Z" fill="#000000" fill-rule="nonzero" fill-opacity="1" /><path clip-path="url(#clip010)" d="M402.583 27.7985 Q397.444 27.7985 394.458 31.8262 Q391.472 35.8193 391.472 42.7984 Q391.472 49.7775 394.424 53.8053 Q397.41 57.7983 402.583 57.7983 Q407.687 57.7983 410.673 53.7705 Q413.66 49.7428 413.66 42.7984 Q413.66 35.8887 410.673 31.8609 Q407.687 27.7985 402.583 27.7985 M402.583 22.3818 Q410.916 22.3818 415.673 27.7985 Q420.43 33.2151 420.43 42.7984 Q420.43 52.3469 415.673 57.7983 Q410.916 63.2149 402.583 63.2149 Q394.215 63.2149 389.458 57.7983 Q384.736 52.3469 384.736 42.7984 Q384.736 33.2151 389.458 27.7985 Q394.215 22.3818 402.583 22.3818 Z" fill="#000000" fill-rule="nonzero" fill-opacity="1" /><path clip-path="url(#clip010)" d="M450.708 8.18051 L450.708 13.493 L444.597 13.493 Q441.159 13.493 439.805 14.8819 Q438.486 16.2707 438.486 19.8818 L438.486 23.3193 L449.007 23.3193 L449.007 28.2846 L438.486 28.2846 L438.486 62.208 L432.062 62.208 L432.062 28.2846 L425.951 28.2846 L425.951 23.3193 L432.062 23.3193 L432.062 20.611 Q432.062 14.118 435.083 11.1666 Q438.104 8.18051 444.666 8.18051 L450.708 8.18051 Z" fill="#000000" fill-rule="nonzero" fill-opacity="1" /><path clip-path="url(#clip010)" d="M456.055 23.3193 L462.444 23.3193 L462.444 62.208 L456.055 62.208 L456.055 23.3193 M456.055 8.18051 L462.444 8.18051 L462.444 16.2707 L456.055 16.2707 L456.055 8.18051 Z" fill="#000000" fill-rule="nonzero" fill-opacity="1" /><path clip-path="url(#clip010)" d="M475.812 8.18051 L482.201 8.18051 L482.201 62.208 L475.812 62.208 L475.812 8.18051 Z" fill="#000000" fill-rule="nonzero" fill-opacity="1" /><path clip-path="url(#clip010)" d="M528.833 41.1664 L528.833 44.2914 L499.458 44.2914 Q499.874 50.8886 503.416 54.3608 Q506.992 57.7983 513.346 57.7983 Q517.027 57.7983 520.464 56.8955 Q523.937 55.9928 527.339 54.1872 L527.339 60.2288 Q523.902 61.6872 520.291 62.4511 Q516.68 63.2149 512.965 63.2149 Q503.659 63.2149 498.208 57.7983 Q492.791 52.3817 492.791 43.1456 Q492.791 33.597 497.93 28.0068 Q503.103 22.3818 511.853 22.3818 Q519.701 22.3818 524.249 27.4512 Q528.833 32.4859 528.833 41.1664 M522.444 39.2915 Q522.374 34.0484 519.492 30.9234 Q516.645 27.7985 511.923 27.7985 Q506.576 27.7985 503.347 30.8193 Q500.152 33.8401 499.666 39.3262 L522.444 39.2915 Z" fill="#000000" fill-rule="nonzero" fill-opacity="1" /><path clip-path="url(#clip010)" d="M562.2 10.368 L569.214 10.368 L569.214 56.3053 L594.457 56.3053 L594.457 62.208 L562.2 62.208 L562.2 10.368 Z" fill="#000000" fill-rule="nonzero" fill-opacity="1" /><path clip-path="url(#clip010)" d="M601.54 23.3193 L607.929 23.3193 L607.929 62.208 L601.54 62.208 L601.54 23.3193 M601.54 8.18051 L607.929 8.18051 L607.929 16.2707 L601.54 16.2707 L601.54 8.18051 Z" fill="#000000" fill-rule="nonzero" fill-opacity="1" /><path clip-path="url(#clip010)" d="M621.054 8.18051 L627.478 8.18051 L627.478 40.0901 L646.54 23.3193 L654.7 23.3193 L634.075 41.5137 L655.568 62.208 L647.235 62.208 L627.478 43.215 L627.478 62.208 L621.054 62.208 L621.054 8.18051 Z" fill="#000000" fill-rule="nonzero" fill-opacity="1" /><path clip-path="url(#clip010)" d="M693.207 41.1664 L693.207 44.2914 L663.832 44.2914 Q664.248 50.8886 667.79 54.3608 Q671.366 57.7983 677.721 57.7983 Q681.401 57.7983 684.839 56.8955 Q688.311 55.9928 691.714 54.1872 L691.714 60.2288 Q688.276 61.6872 684.665 62.4511 Q681.054 63.2149 677.339 63.2149 Q668.033 63.2149 662.582 57.7983 Q657.165 52.3817 657.165 43.1456 Q657.165 33.597 662.304 28.0068 Q667.478 22.3818 676.228 22.3818 Q684.075 22.3818 688.623 27.4512 Q693.207 32.4859 693.207 41.1664 M686.818 39.2915 Q686.748 34.0484 683.866 30.9234 Q681.019 27.7985 676.297 27.7985 Q670.95 27.7985 667.721 30.8193 Q664.526 33.8401 664.04 39.3262 L686.818 39.2915 Z" fill="#000000" fill-rule="nonzero" fill-opacity="1" /><path clip-path="url(#clip010)" d="M703.693 8.18051 L710.082 8.18051 L710.082 62.208 L703.693 62.208 L703.693 8.18051 Z" fill="#000000" fill-rule="nonzero" fill-opacity="1" /><path clip-path="url(#clip010)" d="M723.45 23.3193 L729.838 23.3193 L729.838 62.208 L723.45 62.208 L723.45 23.3193 M723.45 8.18051 L729.838 8.18051 L729.838 16.2707 L723.45 16.2707 L723.45 8.18051 Z" fill="#000000" fill-rule="nonzero" fill-opacity="1" /><path clip-path="url(#clip010)" d="M775.533 38.7359 L775.533 62.208 L769.144 62.208 L769.144 38.9442 Q769.144 33.4234 766.991 30.6804 Q764.838 27.9374 760.533 27.9374 Q755.359 27.9374 752.373 31.2359 Q749.387 34.5345 749.387 40.229 L749.387 62.208 L742.963 62.208 L742.963 8.18051 L749.387 8.18051 L749.387 29.361 Q751.679 25.854 754.769 24.1179 Q757.894 22.3818 761.956 22.3818 Q768.658 22.3818 772.095 26.5485 Q775.533 30.6804 775.533 38.7359 Z" fill="#000000" fill-rule="nonzero" fill-opacity="1" /><path clip-path="url(#clip010)" d="M803.345 27.7985 Q798.206 27.7985 795.22 31.8262 Q792.234 35.8193 792.234 42.7984 Q792.234 49.7775 795.185 53.8053 Q798.171 57.7983 803.345 57.7983 Q808.449 57.7983 811.435 53.7705 Q814.421 49.7428 814.421 42.7984 Q814.421 35.8887 811.435 31.8609 Q808.449 27.7985 803.345 27.7985 M803.345 22.3818 Q811.678 22.3818 816.435 27.7985 Q821.192 33.2151 821.192 42.7984 Q821.192 52.3469 816.435 57.7983 Q811.678 63.2149 803.345 63.2149 Q794.977 63.2149 790.22 57.7983 Q785.498 52.3469 785.498 42.7984 Q785.498 33.2151 790.22 27.7985 Q794.977 22.3818 803.345 22.3818 Z" fill="#000000" fill-rule="nonzero" fill-opacity="1" /><path clip-path="url(#clip010)" d="M846.852 27.7985 Q841.713 27.7985 838.727 31.8262 Q835.741 35.8193 835.741 42.7984 Q835.741 49.7775 838.692 53.8053 Q841.678 57.7983 846.852 57.7983 Q851.956 57.7983 854.942 53.7705 Q857.928 49.7428 857.928 42.7984 Q857.928 35.8887 854.942 31.8609 Q851.956 27.7985 846.852 27.7985 M846.852 22.3818 Q855.185 22.3818 859.942 27.7985 Q864.699 33.2151 864.699 42.7984 Q864.699 52.3469 859.942 57.7983 Q855.185 63.2149 846.852 63.2149 Q838.484 63.2149 833.727 57.7983 Q829.005 52.3469 829.005 42.7984 Q829.005 33.2151 833.727 27.7985 Q838.484 22.3818 846.852 22.3818 Z" fill="#000000" fill-rule="nonzero" fill-opacity="1" /><path clip-path="url(#clip010)" d="M900.879 29.2221 L900.879 8.18051 L907.268 8.18051 L907.268 62.208 L900.879 62.208 L900.879 56.3747 Q898.865 59.8469 895.775 61.5483 Q892.719 63.2149 888.414 63.2149 Q881.365 63.2149 876.921 57.59 Q872.511 51.965 872.511 42.7984 Q872.511 33.6318 876.921 28.0068 Q881.365 22.3818 888.414 22.3818 Q892.719 22.3818 895.775 24.0832 Q898.865 25.7499 900.879 29.2221 M879.108 42.7984 Q879.108 49.847 881.99 53.8747 Q884.907 57.8677 889.976 57.8677 Q895.046 57.8677 897.962 53.8747 Q900.879 49.847 900.879 42.7984 Q900.879 35.7498 897.962 31.7568 Q895.046 27.729 889.976 27.729 Q884.907 27.729 881.99 31.7568 Q879.108 35.7498 879.108 42.7984 Z" fill="#000000" fill-rule="nonzero" fill-opacity="1" /><path clip-path="url(#clip010)" d="M945.219 24.4651 L945.219 30.5068 Q942.511 29.1179 939.594 28.4235 Q936.678 27.729 933.553 27.729 Q928.796 27.729 926.4 29.1873 Q924.039 30.6457 924.039 33.5623 Q924.039 35.7845 925.74 37.0692 Q927.441 38.3192 932.58 39.4651 L934.768 39.9512 Q941.573 41.4095 944.421 44.0831 Q947.302 46.722 947.302 51.4789 Q947.302 56.8955 942.997 60.0552 Q938.726 63.2149 931.226 63.2149 Q928.101 63.2149 924.698 62.5899 Q921.33 61.9997 917.58 60.7844 L917.58 54.1872 Q921.122 56.0275 924.56 56.965 Q927.997 57.8677 931.365 57.8677 Q935.879 57.8677 938.309 56.34 Q940.74 54.7775 940.74 51.965 Q940.74 49.3608 938.969 47.972 Q937.233 46.5831 931.296 45.2984 L929.073 44.7775 Q923.136 43.5275 920.497 40.9581 Q917.858 38.354 917.858 33.8401 Q917.858 28.354 921.747 25.3679 Q925.636 22.3818 932.789 22.3818 Q936.33 22.3818 939.455 22.9027 Q942.58 23.4235 945.219 24.4651 Z" fill="#000000" fill-rule="nonzero" fill-opacity="1" /><path clip-path="url(#clip010)" d="M999.767 8.18051 L999.767 13.493 L993.656 13.493 Q990.219 13.493 988.865 14.8819 Q987.545 16.2707 987.545 19.8818 L987.545 23.3193 L998.066 23.3193 L998.066 28.2846 L987.545 28.2846 L987.545 62.208 L981.122 62.208 L981.122 28.2846 L975.011 28.2846 L975.011 23.3193 L981.122 23.3193 L981.122 20.611 Q981.122 14.118 984.143 11.1666 Q987.163 8.18051 993.726 8.18051 L999.767 8.18051 Z" fill="#000000" fill-rule="nonzero" fill-opacity="1" /><path clip-path="url(#clip010)" d="M1020.18 27.7985 Q1015.05 27.7985 1012.06 31.8262 Q1009.07 35.8193 1009.07 42.7984 Q1009.07 49.7775 1012.02 53.8053 Q1015.01 57.7983 1020.18 57.7983 Q1025.29 57.7983 1028.27 53.7705 Q1031.26 49.7428 1031.26 42.7984 Q1031.26 35.8887 1028.27 31.8609 Q1025.29 27.7985 1020.18 27.7985 M1020.18 22.3818 Q1028.52 22.3818 1033.27 27.7985 Q1038.03 33.2151 1038.03 42.7984 Q1038.03 52.3469 1033.27 57.7983 Q1028.52 63.2149 1020.18 63.2149 Q1011.82 63.2149 1007.06 57.7983 Q1002.34 52.3469 1002.34 42.7984 Q1002.34 33.2151 1007.06 27.7985 Q1011.82 22.3818 1020.18 22.3818 Z" fill="#000000" fill-rule="nonzero" fill-opacity="1" /><path clip-path="url(#clip010)" d="M1071.16 29.2915 Q1070.08 28.6665 1068.79 28.3887 Q1067.54 28.0762 1066.02 28.0762 Q1060.6 28.0762 1057.68 31.6179 Q1054.8 35.1248 1054.8 41.722 L1054.8 62.208 L1048.38 62.208 L1048.38 23.3193 L1054.8 23.3193 L1054.8 29.361 Q1056.82 25.8193 1060.04 24.1179 Q1063.27 22.3818 1067.89 22.3818 Q1068.55 22.3818 1069.35 22.486 Q1070.15 22.5554 1071.12 22.729 L1071.16 29.2915 Z" fill="#000000" fill-rule="nonzero" fill-opacity="1" /><path clip-path="url(#clip010)" d="M1132.79 38.7359 L1132.79 62.208 L1126.4 62.208 L1126.4 38.9442 Q1126.4 33.4234 1124.25 30.6804 Q1122.09 27.9374 1117.79 27.9374 Q1112.61 27.9374 1109.63 31.2359 Q1106.64 34.5345 1106.64 40.229 L1106.64 62.208 L1100.22 62.208 L1100.22 23.3193 L1106.64 23.3193 L1106.64 29.361 Q1108.93 25.854 1112.02 24.1179 Q1115.15 22.3818 1119.21 22.3818 Q1125.91 22.3818 1129.35 26.5485 Q1132.79 30.6804 1132.79 38.7359 Z" fill="#000000" fill-rule="nonzero" fill-opacity="1" /><path clip-path="url(#clip010)" d="M1160.6 27.7985 Q1155.46 27.7985 1152.47 31.8262 Q1149.49 35.8193 1149.49 42.7984 Q1149.49 49.7775 1152.44 53.8053 Q1155.43 57.7983 1160.6 57.7983 Q1165.7 57.7983 1168.69 53.7705 Q1171.68 49.7428 1171.68 42.7984 Q1171.68 35.8887 1168.69 31.8609 Q1165.7 27.7985 1160.6 27.7985 M1160.6 22.3818 Q1168.93 22.3818 1173.69 27.7985 Q1178.45 33.2151 1178.45 42.7984 Q1178.45 52.3469 1173.69 57.7983 Q1168.93 63.2149 1160.6 63.2149 Q1152.23 63.2149 1147.48 57.7983 Q1142.75 52.3469 1142.75 42.7984 Q1142.75 33.2151 1147.48 27.7985 Q1152.23 22.3818 1160.6 22.3818 Z" fill="#000000" fill-rule="nonzero" fill-opacity="1" /><path clip-path="url(#clip010)" d="M1221.36 38.7359 L1221.36 62.208 L1214.97 62.208 L1214.97 38.9442 Q1214.97 33.4234 1212.82 30.6804 Q1210.67 27.9374 1206.36 27.9374 Q1201.19 27.9374 1198.2 31.2359 Q1195.22 34.5345 1195.22 40.229 L1195.22 62.208 L1188.79 62.208 L1188.79 23.3193 L1195.22 23.3193 L1195.22 29.361 Q1197.51 25.854 1200.6 24.1179 Q1203.72 22.3818 1207.79 22.3818 Q1214.49 22.3818 1217.93 26.5485 Q1221.36 30.6804 1221.36 38.7359 Z" fill="#000000" fill-rule="nonzero" fill-opacity="1" /><path clip-path="url(#clip010)" d="M1230.88 39.8817 L1249.59 39.8817 L1249.59 45.5761 L1230.88 45.5761 L1230.88 39.8817 Z" fill="#000000" fill-rule="nonzero" fill-opacity="1" /><path clip-path="url(#clip010)" d="M1259.77 8.18051 L1266.15 8.18051 L1266.15 62.208 L1259.77 62.208 L1259.77 8.18051 Z" fill="#000000" fill-rule="nonzero" fill-opacity="1" /><path clip-path="url(#clip010)" d="M1279.52 23.3193 L1285.91 23.3193 L1285.91 62.208 L1279.52 62.208 L1279.52 23.3193 M1279.52 8.18051 L1285.91 8.18051 L1285.91 16.2707 L1279.52 16.2707 L1279.52 8.18051 Z" fill="#000000" fill-rule="nonzero" fill-opacity="1" /><path clip-path="url(#clip010)" d="M1331.61 38.7359 L1331.61 62.208 L1325.22 62.208 L1325.22 38.9442 Q1325.22 33.4234 1323.06 30.6804 Q1320.91 27.9374 1316.61 27.9374 Q1311.43 27.9374 1308.45 31.2359 Q1305.46 34.5345 1305.46 40.229 L1305.46 62.208 L1299.04 62.208 L1299.04 23.3193 L1305.46 23.3193 L1305.46 29.361 Q1307.75 25.854 1310.84 24.1179 Q1313.97 22.3818 1318.03 22.3818 Q1324.73 22.3818 1328.17 26.5485 Q1331.61 30.6804 1331.61 38.7359 Z" fill="#000000" fill-rule="nonzero" fill-opacity="1" /><path clip-path="url(#clip010)" d="M1377.61 41.1664 L1377.61 44.2914 L1348.24 44.2914 Q1348.65 50.8886 1352.2 54.3608 Q1355.77 57.7983 1362.13 57.7983 Q1365.81 57.7983 1369.24 56.8955 Q1372.72 55.9928 1376.12 54.1872 L1376.12 60.2288 Q1372.68 61.6872 1369.07 62.4511 Q1365.46 63.2149 1361.74 63.2149 Q1352.44 63.2149 1346.99 57.7983 Q1341.57 52.3817 1341.57 43.1456 Q1341.57 33.597 1346.71 28.0068 Q1351.88 22.3818 1360.63 22.3818 Q1368.48 22.3818 1373.03 27.4512 Q1377.61 32.4859 1377.61 41.1664 M1371.22 39.2915 Q1371.15 34.0484 1368.27 30.9234 Q1365.43 27.7985 1360.7 27.7985 Q1355.36 27.7985 1352.13 30.8193 Q1348.93 33.8401 1348.45 39.3262 L1371.22 39.2915 Z" fill="#000000" fill-rule="nonzero" fill-opacity="1" /><path clip-path="url(#clip010)" d="M1405.77 42.6595 Q1398.03 42.6595 1395.04 44.4303 Q1392.06 46.2011 1392.06 50.472 Q1392.06 53.8747 1394.28 55.8886 Q1396.54 57.8677 1400.39 57.8677 Q1405.7 57.8677 1408.9 54.1178 Q1412.13 50.3331 1412.13 44.0831 L1412.13 42.6595 L1405.77 42.6595 M1418.52 40.0206 L1418.52 62.208 L1412.13 62.208 L1412.13 56.3053 Q1409.94 59.8469 1406.68 61.5483 Q1403.41 63.2149 1398.69 63.2149 Q1392.72 63.2149 1389.18 59.8816 Q1385.67 56.5136 1385.67 50.8886 Q1385.67 44.3262 1390.04 40.9928 Q1394.45 37.6595 1403.17 37.6595 L1412.13 37.6595 L1412.13 37.0345 Q1412.13 32.6248 1409.21 30.229 Q1406.33 27.7985 1401.08 27.7985 Q1397.75 27.7985 1394.59 28.5971 Q1391.43 29.3957 1388.52 30.9929 L1388.52 25.0901 Q1392.02 23.736 1395.32 23.0763 Q1398.62 22.3818 1401.74 22.3818 Q1410.18 22.3818 1414.35 26.7568 Q1418.52 31.1318 1418.52 40.0206 Z" fill="#000000" fill-rule="nonzero" fill-opacity="1" /><path clip-path="url(#clip010)" d="M1454.21 29.2915 Q1453.13 28.6665 1451.85 28.3887 Q1450.6 28.0762 1449.07 28.0762 Q1443.65 28.0762 1440.74 31.6179 Q1437.86 35.1248 1437.86 41.722 L1437.86 62.208 L1431.43 62.208 L1431.43 23.3193 L1437.86 23.3193 L1437.86 29.361 Q1439.87 25.8193 1443.1 24.1179 Q1446.33 22.3818 1450.95 22.3818 Q1451.61 22.3818 1452.4 22.486 Q1453.2 22.5554 1454.17 22.729 L1454.21 29.2915 Z" fill="#000000" fill-rule="nonzero" fill-opacity="1" /><path clip-path="url(#clip010)" d="M1460.91 8.18051 L1467.3 8.18051 L1467.3 62.208 L1460.91 62.208 L1460.91 8.18051 Z" fill="#000000" fill-rule="nonzero" fill-opacity="1" /><path clip-path="url(#clip010)" d="M1496.85 65.8191 Q1494.14 72.7635 1491.57 74.8815 Q1489 76.9996 1484.7 76.9996 L1479.59 76.9996 L1479.59 71.6524 L1483.34 71.6524 Q1485.98 71.6524 1487.44 70.4024 Q1488.9 69.1524 1490.67 64.4997 L1491.81 61.583 L1476.08 23.3193 L1482.86 23.3193 L1495.01 53.7358 L1507.16 23.3193 L1513.93 23.3193 L1496.85 65.8191 Z" fill="#000000" fill-rule="nonzero" fill-opacity="1" /><path clip-path="url(#clip010)" d="M1551.54 56.3747 L1551.54 76.9996 L1545.11 76.9996 L1545.11 23.3193 L1551.54 23.3193 L1551.54 29.2221 Q1553.55 25.7499 1556.6 24.0832 Q1559.7 22.3818 1563.97 22.3818 Q1571.05 22.3818 1575.46 28.0068 Q1579.9 33.6318 1579.9 42.7984 Q1579.9 51.965 1575.46 57.59 Q1571.05 63.2149 1563.97 63.2149 Q1559.7 63.2149 1556.6 61.5483 Q1553.55 59.8469 1551.54 56.3747 M1573.27 42.7984 Q1573.27 35.7498 1570.35 31.7568 Q1567.47 27.729 1562.4 27.729 Q1557.33 27.729 1554.42 31.7568 Q1551.54 35.7498 1551.54 42.7984 Q1551.54 49.847 1554.42 53.8747 Q1557.33 57.8677 1562.4 57.8677 Q1567.47 57.8677 1570.35 53.8747 Q1573.27 49.847 1573.27 42.7984 Z" fill="#000000" fill-rule="nonzero" fill-opacity="1" /><path clip-path="url(#clip010)" d="M1608.17 42.6595 Q1600.42 42.6595 1597.44 44.4303 Q1594.45 46.2011 1594.45 50.472 Q1594.45 53.8747 1596.67 55.8886 Q1598.93 57.8677 1602.79 57.8677 Q1608.1 57.8677 1611.29 54.1178 Q1614.52 50.3331 1614.52 44.0831 L1614.52 42.6595 L1608.17 42.6595 M1620.91 40.0206 L1620.91 62.208 L1614.52 62.208 L1614.52 56.3053 Q1612.33 59.8469 1609.07 61.5483 Q1605.81 63.2149 1601.08 63.2149 Q1595.11 63.2149 1591.57 59.8816 Q1588.06 56.5136 1588.06 50.8886 Q1588.06 44.3262 1592.44 40.9928 Q1596.85 37.6595 1605.56 37.6595 L1614.52 37.6595 L1614.52 37.0345 Q1614.52 32.6248 1611.6 30.229 Q1608.72 27.7985 1603.48 27.7985 Q1600.15 27.7985 1596.99 28.5971 Q1593.83 29.3957 1590.91 30.9929 L1590.91 25.0901 Q1594.42 23.736 1597.72 23.0763 Q1601.01 22.3818 1604.14 22.3818 Q1612.58 22.3818 1616.74 26.7568 Q1620.91 31.1318 1620.91 40.0206 Z" fill="#000000" fill-rule="nonzero" fill-opacity="1" /><path clip-path="url(#clip010)" d="M1656.6 29.2915 Q1655.53 28.6665 1654.24 28.3887 Q1652.99 28.0762 1651.47 28.0762 Q1646.05 28.0762 1643.13 31.6179 Q1640.25 35.1248 1640.25 41.722 L1640.25 62.208 L1633.83 62.208 L1633.83 23.3193 L1640.25 23.3193 L1640.25 29.361 Q1642.26 25.8193 1645.49 24.1179 Q1648.72 22.3818 1653.34 22.3818 Q1654 22.3818 1654.8 22.486 Q1655.6 22.5554 1656.57 22.729 L1656.6 29.2915 Z" fill="#000000" fill-rule="nonzero" fill-opacity="1" /><path clip-path="url(#clip010)" d="M1680.98 42.6595 Q1673.24 42.6595 1670.25 44.4303 Q1667.26 46.2011 1667.26 50.472 Q1667.26 53.8747 1669.49 55.8886 Q1671.74 57.8677 1675.6 57.8677 Q1680.91 57.8677 1684.1 54.1178 Q1687.33 50.3331 1687.33 44.0831 L1687.33 42.6595 L1680.98 42.6595 M1693.72 40.0206 L1693.72 62.208 L1687.33 62.208 L1687.33 56.3053 Q1685.15 59.8469 1681.88 61.5483 Q1678.62 63.2149 1673.9 63.2149 Q1667.92 63.2149 1664.38 59.8816 Q1660.88 56.5136 1660.88 50.8886 Q1660.88 44.3262 1665.25 40.9928 Q1669.66 37.6595 1678.37 37.6595 L1687.33 37.6595 L1687.33 37.0345 Q1687.33 32.6248 1684.42 30.229 Q1681.53 27.7985 1676.29 27.7985 Q1672.96 27.7985 1669.8 28.5971 Q1666.64 29.3957 1663.72 30.9929 L1663.72 25.0901 Q1667.23 23.736 1670.53 23.0763 Q1673.83 22.3818 1676.95 22.3818 Q1685.39 22.3818 1689.56 26.7568 Q1693.72 31.1318 1693.72 40.0206 Z" fill="#000000" fill-rule="nonzero" fill-opacity="1" /><path clip-path="url(#clip010)" d="M1737.16 30.7846 Q1739.56 26.479 1742.89 24.4304 Q1746.22 22.3818 1750.74 22.3818 Q1756.81 22.3818 1760.11 26.6526 Q1763.41 30.8887 1763.41 38.7359 L1763.41 62.208 L1756.99 62.208 L1756.99 38.9442 Q1756.99 33.354 1755.01 30.6457 Q1753.03 27.9374 1748.96 27.9374 Q1744 27.9374 1741.12 31.2359 Q1738.24 34.5345 1738.24 40.229 L1738.24 62.208 L1731.81 62.208 L1731.81 38.9442 Q1731.81 33.3193 1729.83 30.6457 Q1727.85 27.9374 1723.72 27.9374 Q1718.83 27.9374 1715.94 31.2707 Q1713.06 34.5693 1713.06 40.229 L1713.06 62.208 L1706.64 62.208 L1706.64 23.3193 L1713.06 23.3193 L1713.06 29.361 Q1715.25 25.7846 1718.31 24.0832 Q1721.36 22.3818 1725.56 22.3818 Q1729.8 22.3818 1732.75 24.5346 Q1735.74 26.6874 1737.16 30.7846 Z" fill="#000000" fill-rule="nonzero" fill-opacity="1" /><path clip-path="url(#clip010)" d="M1809.42 41.1664 L1809.42 44.2914 L1780.04 44.2914 Q1780.46 50.8886 1784 54.3608 Q1787.58 57.7983 1793.93 57.7983 Q1797.61 57.7983 1801.05 56.8955 Q1804.52 55.9928 1807.92 54.1872 L1807.92 60.2288 Q1804.49 61.6872 1800.87 62.4511 Q1797.26 63.2149 1793.55 63.2149 Q1784.24 63.2149 1778.79 57.7983 Q1773.37 52.3817 1773.37 43.1456 Q1773.37 33.597 1778.51 28.0068 Q1783.69 22.3818 1792.44 22.3818 Q1800.28 22.3818 1804.83 27.4512 Q1809.42 32.4859 1809.42 41.1664 M1803.03 39.2915 Q1802.96 34.0484 1800.08 30.9234 Q1797.23 27.7985 1792.51 27.7985 Q1787.16 27.7985 1783.93 30.8193 Q1780.74 33.8401 1780.25 39.3262 L1803.03 39.2915 Z" fill="#000000" fill-rule="nonzero" fill-opacity="1" /><path clip-path="url(#clip010)" d="M1826.22 12.2777 L1826.22 23.3193 L1839.38 23.3193 L1839.38 28.2846 L1826.22 28.2846 L1826.22 49.3956 Q1826.22 54.1525 1827.51 55.5066 Q1828.83 56.8608 1832.82 56.8608 L1839.38 56.8608 L1839.38 62.208 L1832.82 62.208 Q1825.42 62.208 1822.61 59.465 Q1819.8 56.6872 1819.8 49.3956 L1819.8 28.2846 L1815.11 28.2846 L1815.11 23.3193 L1819.8 23.3193 L1819.8 12.2777 L1826.22 12.2777 Z" fill="#000000" fill-rule="nonzero" fill-opacity="1" /><path clip-path="url(#clip010)" d="M1870.32 29.2915 Q1869.24 28.6665 1867.96 28.3887 Q1866.71 28.0762 1865.18 28.0762 Q1859.76 28.0762 1856.85 31.6179 Q1853.96 35.1248 1853.96 41.722 L1853.96 62.208 L1847.54 62.208 L1847.54 23.3193 L1853.96 23.3193 L1853.96 29.361 Q1855.98 25.8193 1859.21 24.1179 Q1862.44 22.3818 1867.05 22.3818 Q1867.71 22.3818 1868.51 22.486 Q1869.31 22.5554 1870.28 22.729 L1870.32 29.2915 Z" fill="#000000" fill-rule="nonzero" fill-opacity="1" /><path clip-path="url(#clip010)" d="M1877.02 23.3193 L1883.41 23.3193 L1883.41 62.208 L1877.02 62.208 L1877.02 23.3193 M1877.02 8.18051 L1883.41 8.18051 L1883.41 16.2707 L1877.02 16.2707 L1877.02 8.18051 Z" fill="#000000" fill-rule="nonzero" fill-opacity="1" /><path clip-path="url(#clip010)" d="M1894 23.3193 L1924.35 23.3193 L1924.35 29.1526 L1900.32 57.1039 L1924.35 57.1039 L1924.35 62.208 L1893.13 62.208 L1893.13 56.3747 L1917.16 28.4235 L1894 28.4235 L1894 23.3193 Z" fill="#000000" fill-rule="nonzero" fill-opacity="1" /><path clip-path="url(#clip010)" d="M1967.37 41.1664 L1967.37 44.2914 L1937.99 44.2914 Q1938.41 50.8886 1941.95 54.3608 Q1945.53 57.7983 1951.88 57.7983 Q1955.56 57.7983 1959 56.8955 Q1962.47 55.9928 1965.87 54.1872 L1965.87 60.2288 Q1962.44 61.6872 1958.82 62.4511 Q1955.21 63.2149 1951.5 63.2149 Q1942.19 63.2149 1936.74 57.7983 Q1931.32 52.3817 1931.32 43.1456 Q1931.32 33.597 1936.46 28.0068 Q1941.64 22.3818 1950.39 22.3818 Q1958.23 22.3818 1962.78 27.4512 Q1967.37 32.4859 1967.37 41.1664 M1960.98 39.2915 Q1960.91 34.0484 1958.03 30.9234 Q1955.18 27.7985 1950.46 27.7985 Q1945.11 27.7985 1941.88 30.8193 Q1938.69 33.8401 1938.2 39.3262 L1960.98 39.2915 Z" fill="#000000" fill-rule="nonzero" fill-opacity="1" /><path clip-path="url(#clip010)" d="M2003.44 29.2221 L2003.44 8.18051 L2009.83 8.18051 L2009.83 62.208 L2003.44 62.208 L2003.44 56.3747 Q2001.43 59.8469 1998.34 61.5483 Q1995.28 63.2149 1990.98 63.2149 Q1983.93 63.2149 1979.48 57.59 Q1975.07 51.965 1975.07 42.7984 Q1975.07 33.6318 1979.48 28.0068 Q1983.93 22.3818 1990.98 22.3818 Q1995.28 22.3818 1998.34 24.0832 Q2001.43 25.7499 2003.44 29.2221 M1981.67 42.7984 Q1981.67 49.847 1984.55 53.8747 Q1987.47 57.8677 1992.54 57.8677 Q1997.61 57.8677 2000.53 53.8747 Q2003.44 49.847 2003.44 42.7984 Q2003.44 35.7498 2000.53 31.7568 Q1997.61 27.729 1992.54 27.729 Q1987.47 27.729 1984.55 31.7568 Q1981.67 35.7498 1981.67 42.7984 Z" fill="#000000" fill-rule="nonzero" fill-opacity="1" /><path clip-path="url(#clip010)" d="M2075.87 30.7846 Q2078.27 26.479 2081.6 24.4304 Q2084.94 22.3818 2089.45 22.3818 Q2095.53 22.3818 2098.82 26.6526 Q2102.12 30.8887 2102.12 38.7359 L2102.12 62.208 L2095.7 62.208 L2095.7 38.9442 Q2095.7 33.354 2093.72 30.6457 Q2091.74 27.9374 2087.68 27.9374 Q2082.71 27.9374 2079.83 31.2359 Q2076.95 34.5345 2076.95 40.229 L2076.95 62.208 L2070.53 62.208 L2070.53 38.9442 Q2070.53 33.3193 2068.55 30.6457 Q2066.57 27.9374 2062.44 27.9374 Q2057.54 27.9374 2054.66 31.2707 Q2051.78 34.5693 2051.78 40.229 L2051.78 62.208 L2045.35 62.208 L2045.35 23.3193 L2051.78 23.3193 L2051.78 29.361 Q2053.96 25.7846 2057.02 24.0832 Q2060.07 22.3818 2064.28 22.3818 Q2068.51 22.3818 2071.46 24.5346 Q2074.45 26.6874 2075.87 30.7846 Z" fill="#000000" fill-rule="nonzero" fill-opacity="1" /><path clip-path="url(#clip010)" d="M2129.94 27.7985 Q2124.8 27.7985 2121.81 31.8262 Q2118.82 35.8193 2118.82 42.7984 Q2118.82 49.7775 2121.78 53.8053 Q2124.76 57.7983 2129.94 57.7983 Q2135.04 57.7983 2138.03 53.7705 Q2141.01 49.7428 2141.01 42.7984 Q2141.01 35.8887 2138.03 31.8609 Q2135.04 27.7985 2129.94 27.7985 M2129.94 22.3818 Q2138.27 22.3818 2143.03 27.7985 Q2147.78 33.2151 2147.78 42.7984 Q2147.78 52.3469 2143.03 57.7983 Q2138.27 63.2149 2129.94 63.2149 Q2121.57 63.2149 2116.81 57.7983 Q2112.09 52.3469 2112.09 42.7984 Q2112.09 33.2151 2116.81 27.7985 Q2121.57 22.3818 2129.94 22.3818 Z" fill="#000000" fill-rule="nonzero" fill-opacity="1" /><path clip-path="url(#clip010)" d="M2183.96 29.2221 L2183.96 8.18051 L2190.35 8.18051 L2190.35 62.208 L2183.96 62.208 L2183.96 56.3747 Q2181.95 59.8469 2178.86 61.5483 Q2175.8 63.2149 2171.5 63.2149 Q2164.45 63.2149 2160 57.59 Q2155.59 51.965 2155.59 42.7984 Q2155.59 33.6318 2160 28.0068 Q2164.45 22.3818 2171.5 22.3818 Q2175.8 22.3818 2178.86 24.0832 Q2181.95 25.7499 2183.96 29.2221 M2162.19 42.7984 Q2162.19 49.847 2165.07 53.8747 Q2167.99 57.8677 2173.06 57.8677 Q2178.13 57.8677 2181.05 53.8747 Q2183.96 49.847 2183.96 42.7984 Q2183.96 35.7498 2181.05 31.7568 Q2178.13 27.729 2173.06 27.729 Q2167.99 27.729 2165.07 31.7568 Q2162.19 35.7498 2162.19 42.7984 Z" fill="#000000" fill-rule="nonzero" fill-opacity="1" /><path clip-path="url(#clip010)" d="M2236.77 41.1664 L2236.77 44.2914 L2207.4 44.2914 Q2207.82 50.8886 2211.36 54.3608 Q2214.93 57.7983 2221.29 57.7983 Q2224.97 57.7983 2228.41 56.8955 Q2231.88 55.9928 2235.28 54.1872 L2235.28 60.2288 Q2231.84 61.6872 2228.23 62.4511 Q2224.62 63.2149 2220.91 63.2149 Q2211.6 63.2149 2206.15 57.7983 Q2200.73 52.3817 2200.73 43.1456 Q2200.73 33.597 2205.87 28.0068 Q2211.05 22.3818 2219.8 22.3818 Q2227.64 22.3818 2232.19 27.4512 Q2236.77 32.4859 2236.77 41.1664 M2230.39 39.2915 Q2230.32 34.0484 2227.43 30.9234 Q2224.59 27.7985 2219.87 27.7985 Q2214.52 27.7985 2211.29 30.8193 Q2208.09 33.8401 2207.61 39.3262 L2230.39 39.2915 Z" fill="#000000" fill-rule="nonzero" fill-opacity="1" /><path clip-path="url(#clip010)" d="M2247.26 8.18051 L2253.65 8.18051 L2253.65 62.208 L2247.26 62.208 L2247.26 8.18051 Z" fill="#000000" fill-rule="nonzero" fill-opacity="1" /></svg>
