<?xml version="1.0" encoding="utf-8"?>
<svg xmlns="http://www.w3.org/2000/svg" xmlns:xlink="http://www.w3.org/1999/xlink" width="600" height="400" viewBox="0 0 2400 1600">
<defs>
  <clipPath id="clip970">
    <rect x="0" y="0" width="2400" height="1600"/>
  </clipPath>
</defs>
<path clip-path="url(#clip970)" d="M0 1600 L2400 1600 L2400 0 L0 0  Z" fill="#ffffff" fill-rule="evenodd" fill-opacity="1"/>
<defs>
  <clipPath id="clip971">
    <rect x="480" y="0" width="1681" height="1600"/>
  </clipPath>
</defs>
<path clip-path="url(#clip970)" d="M219.38 1423.18 L1152.76 1423.18 L1152.76 127.244 L219.38 127.244  Z" fill="#ffffff" fill-rule="evenodd" fill-opacity="1"/>
<defs>
  <clipPath id="clip972">
    <rect x="219" y="127" width="934" height="1297"/>
  </clipPath>
</defs>
<polyline clip-path="url(#clip972)" style="stroke:#000000; stroke-linecap:round; stroke-linejoin:round; stroke-width:2; stroke-opacity:0.1; fill:none" points="366.549,1423.18 366.549,127.244 "/>
<polyline clip-path="url(#clip972)" style="stroke:#000000; stroke-linecap:round; stroke-linejoin:round; stroke-width:2; stroke-opacity:0.1; fill:none" points="530.995,1423.18 530.995,127.244 "/>
<polyline clip-path="url(#clip972)" style="stroke:#000000; stroke-linecap:round; stroke-linejoin:round; stroke-width:2; stroke-opacity:0.1; fill:none" points="695.442,1423.18 695.442,127.244 "/>
<polyline clip-path="url(#clip972)" style="stroke:#000000; stroke-linecap:round; stroke-linejoin:round; stroke-width:2; stroke-opacity:0.1; fill:none" points="859.888,1423.18 859.888,127.244 "/>
<polyline clip-path="url(#clip972)" style="stroke:#000000; stroke-linecap:round; stroke-linejoin:round; stroke-width:2; stroke-opacity:0.1; fill:none" points="1024.33,1423.18 1024.33,127.244 "/>
<polyline clip-path="url(#clip972)" style="stroke:#000000; stroke-linecap:round; stroke-linejoin:round; stroke-width:2; stroke-opacity:0.1; fill:none" points="219.38,1393.25 1152.76,1393.25 "/>
<polyline clip-path="url(#clip972)" style="stroke:#000000; stroke-linecap:round; stroke-linejoin:round; stroke-width:2; stroke-opacity:0.1; fill:none" points="219.38,1093.92 1152.76,1093.92 "/>
<polyline clip-path="url(#clip972)" style="stroke:#000000; stroke-linecap:round; stroke-linejoin:round; stroke-width:2; stroke-opacity:0.1; fill:none" points="219.38,794.595 1152.76,794.595 "/>
<polyline clip-path="url(#clip972)" style="stroke:#000000; stroke-linecap:round; stroke-linejoin:round; stroke-width:2; stroke-opacity:0.1; fill:none" points="219.38,495.269 1152.76,495.269 "/>
<polyline clip-path="url(#clip972)" style="stroke:#000000; stroke-linecap:round; stroke-linejoin:round; stroke-width:2; stroke-opacity:0.1; fill:none" points="219.38,195.943 1152.76,195.943 "/>
<polyline clip-path="url(#clip970)" style="stroke:#000000; stroke-linecap:round; stroke-linejoin:round; stroke-width:4; stroke-opacity:1; fill:none" points="219.38,1423.18 1152.76,1423.18 "/>
<polyline clip-path="url(#clip970)" style="stroke:#000000; stroke-linecap:round; stroke-linejoin:round; stroke-width:4; stroke-opacity:1; fill:none" points="366.549,1423.18 366.549,1404.28 "/>
<polyline clip-path="url(#clip970)" style="stroke:#000000; stroke-linecap:round; stroke-linejoin:round; stroke-width:4; stroke-opacity:1; fill:none" points="530.995,1423.18 530.995,1404.28 "/>
<polyline clip-path="url(#clip970)" style="stroke:#000000; stroke-linecap:round; stroke-linejoin:round; stroke-width:4; stroke-opacity:1; fill:none" points="695.442,1423.18 695.442,1404.28 "/>
<polyline clip-path="url(#clip970)" style="stroke:#000000; stroke-linecap:round; stroke-linejoin:round; stroke-width:4; stroke-opacity:1; fill:none" points="859.888,1423.18 859.888,1404.28 "/>
<polyline clip-path="url(#clip970)" style="stroke:#000000; stroke-linecap:round; stroke-linejoin:round; stroke-width:4; stroke-opacity:1; fill:none" points="1024.33,1423.18 1024.33,1404.28 "/>
<path clip-path="url(#clip970)" d="M344.026 1454.1 Q340.415 1454.1 338.586 1457.66 Q336.781 1461.2 336.781 1468.33 Q336.781 1475.44 338.586 1479.01 Q340.415 1482.55 344.026 1482.55 Q347.66 1482.55 349.466 1479.01 Q351.294 1475.44 351.294 1468.33 Q351.294 1461.2 349.466 1457.66 Q347.66 1454.1 344.026 1454.1 M344.026 1450.39 Q349.836 1450.39 352.892 1455 Q355.97 1459.58 355.97 1468.33 Q355.97 1477.06 352.892 1481.67 Q349.836 1486.25 344.026 1486.25 Q338.216 1486.25 335.137 1481.67 Q332.081 1477.06 332.081 1468.33 Q332.081 1459.58 335.137 1455 Q338.216 1450.39 344.026 1450.39 Z" fill="#000000" fill-rule="nonzero" fill-opacity="1" /><path clip-path="url(#clip970)" d="M364.188 1479.7 L369.072 1479.7 L369.072 1485.58 L364.188 1485.58 L364.188 1479.7 Z" fill="#000000" fill-rule="nonzero" fill-opacity="1" /><path clip-path="url(#clip970)" d="M379.396 1484.86 L379.396 1480.6 Q381.155 1481.44 382.961 1481.88 Q384.766 1482.32 386.502 1482.32 Q391.132 1482.32 393.563 1479.21 Q396.016 1476.09 396.364 1469.75 Q395.021 1471.74 392.961 1472.8 Q390.901 1473.87 388.401 1473.87 Q383.215 1473.87 380.183 1470.74 Q377.174 1467.59 377.174 1462.15 Q377.174 1456.83 380.322 1453.61 Q383.47 1450.39 388.702 1450.39 Q394.697 1450.39 397.845 1455 Q401.016 1459.58 401.016 1468.33 Q401.016 1476.51 397.127 1481.39 Q393.262 1486.25 386.711 1486.25 Q384.952 1486.25 383.146 1485.9 Q381.34 1485.56 379.396 1484.86 M388.702 1470.21 Q391.85 1470.21 393.678 1468.06 Q395.53 1465.9 395.53 1462.15 Q395.53 1458.43 393.678 1456.27 Q391.85 1454.1 388.702 1454.1 Q385.553 1454.1 383.702 1456.27 Q381.873 1458.43 381.873 1462.15 Q381.873 1465.9 383.702 1468.06 Q385.553 1470.21 388.702 1470.21 Z" fill="#000000" fill-rule="nonzero" fill-opacity="1" /><path clip-path="url(#clip970)" d="M498.947 1481.64 L506.586 1481.64 L506.586 1455.28 L498.276 1456.95 L498.276 1452.69 L506.54 1451.02 L511.215 1451.02 L511.215 1481.64 L518.854 1481.64 L518.854 1485.58 L498.947 1485.58 L498.947 1481.64 Z" fill="#000000" fill-rule="nonzero" fill-opacity="1" /><path clip-path="url(#clip970)" d="M528.299 1479.7 L533.183 1479.7 L533.183 1485.58 L528.299 1485.58 L528.299 1479.7 Z" fill="#000000" fill-rule="nonzero" fill-opacity="1" /><path clip-path="url(#clip970)" d="M547.396 1481.64 L563.715 1481.64 L563.715 1485.58 L541.771 1485.58 L541.771 1481.64 Q544.433 1478.89 549.016 1474.26 Q553.623 1469.61 554.803 1468.27 Q557.049 1465.74 557.928 1464.01 Q558.831 1462.25 558.831 1460.56 Q558.831 1457.8 556.886 1456.07 Q554.965 1454.33 551.863 1454.33 Q549.664 1454.33 547.211 1455.09 Q544.78 1455.86 542.002 1457.41 L542.002 1452.69 Q544.826 1451.55 547.28 1450.97 Q549.734 1450.39 551.771 1450.39 Q557.141 1450.39 560.336 1453.08 Q563.53 1455.77 563.53 1460.26 Q563.53 1462.39 562.72 1464.31 Q561.933 1466.2 559.826 1468.8 Q559.248 1469.47 556.146 1472.69 Q553.044 1475.88 547.396 1481.64 Z" fill="#000000" fill-rule="nonzero" fill-opacity="1" /><path clip-path="url(#clip970)" d="M663.093 1481.64 L670.731 1481.64 L670.731 1455.28 L662.421 1456.95 L662.421 1452.69 L670.685 1451.02 L675.361 1451.02 L675.361 1481.64 L683 1481.64 L683 1485.58 L663.093 1485.58 L663.093 1481.64 Z" fill="#000000" fill-rule="nonzero" fill-opacity="1" /><path clip-path="url(#clip970)" d="M692.444 1479.7 L697.328 1479.7 L697.328 1485.58 L692.444 1485.58 L692.444 1479.7 Z" fill="#000000" fill-rule="nonzero" fill-opacity="1" /><path clip-path="url(#clip970)" d="M707.56 1451.02 L725.916 1451.02 L725.916 1454.96 L711.842 1454.96 L711.842 1463.43 Q712.861 1463.08 713.879 1462.92 Q714.898 1462.73 715.916 1462.73 Q721.703 1462.73 725.083 1465.9 Q728.463 1469.08 728.463 1474.49 Q728.463 1480.07 724.99 1483.17 Q721.518 1486.25 715.199 1486.25 Q713.023 1486.25 710.754 1485.88 Q708.509 1485.51 706.102 1484.77 L706.102 1480.07 Q708.185 1481.2 710.407 1481.76 Q712.629 1482.32 715.106 1482.32 Q719.111 1482.32 721.449 1480.21 Q723.787 1478.1 723.787 1474.49 Q723.787 1470.88 721.449 1468.77 Q719.111 1466.67 715.106 1466.67 Q713.231 1466.67 711.356 1467.08 Q709.504 1467.5 707.56 1468.38 L707.56 1451.02 Z" fill="#000000" fill-rule="nonzero" fill-opacity="1" /><path clip-path="url(#clip970)" d="M827.088 1481.64 L834.727 1481.64 L834.727 1455.28 L826.416 1456.95 L826.416 1452.69 L834.68 1451.02 L839.356 1451.02 L839.356 1481.64 L846.995 1481.64 L846.995 1485.58 L827.088 1485.58 L827.088 1481.64 Z" fill="#000000" fill-rule="nonzero" fill-opacity="1" /><path clip-path="url(#clip970)" d="M856.439 1479.7 L861.324 1479.7 L861.324 1485.58 L856.439 1485.58 L856.439 1479.7 Z" fill="#000000" fill-rule="nonzero" fill-opacity="1" /><path clip-path="url(#clip970)" d="M881.509 1469.17 Q878.175 1469.17 876.254 1470.95 Q874.356 1472.73 874.356 1475.86 Q874.356 1478.98 876.254 1480.77 Q878.175 1482.55 881.509 1482.55 Q884.842 1482.55 886.763 1480.77 Q888.685 1478.96 888.685 1475.86 Q888.685 1472.73 886.763 1470.95 Q884.865 1469.17 881.509 1469.17 M876.833 1467.18 Q873.824 1466.44 872.134 1464.38 Q870.467 1462.32 870.467 1459.35 Q870.467 1455.21 873.407 1452.8 Q876.37 1450.39 881.509 1450.39 Q886.671 1450.39 889.611 1452.8 Q892.55 1455.21 892.55 1459.35 Q892.55 1462.32 890.86 1464.38 Q889.194 1466.44 886.208 1467.18 Q889.587 1467.96 891.462 1470.26 Q893.36 1472.55 893.36 1475.86 Q893.36 1480.88 890.282 1483.57 Q887.226 1486.25 881.509 1486.25 Q875.791 1486.25 872.712 1483.57 Q869.657 1480.88 869.657 1475.86 Q869.657 1472.55 871.555 1470.26 Q873.453 1467.96 876.833 1467.18 M875.12 1459.79 Q875.12 1462.48 876.786 1463.98 Q878.476 1465.49 881.509 1465.49 Q884.518 1465.49 886.208 1463.98 Q887.921 1462.48 887.921 1459.79 Q887.921 1457.11 886.208 1455.6 Q884.518 1454.1 881.509 1454.1 Q878.476 1454.1 876.786 1455.6 Q875.12 1457.11 875.12 1459.79 Z" fill="#000000" fill-rule="nonzero" fill-opacity="1" /><path clip-path="url(#clip970)" d="M996.187 1481.64 L1012.51 1481.64 L1012.51 1485.58 L990.562 1485.58 L990.562 1481.64 Q993.224 1478.89 997.807 1474.26 Q1002.41 1469.61 1003.59 1468.27 Q1005.84 1465.74 1006.72 1464.01 Q1007.62 1462.25 1007.62 1460.56 Q1007.62 1457.8 1005.68 1456.07 Q1003.76 1454.33 1000.65 1454.33 Q998.455 1454.33 996.002 1455.09 Q993.571 1455.86 990.793 1457.41 L990.793 1452.69 Q993.618 1451.55 996.071 1450.97 Q998.525 1450.39 1000.56 1450.39 Q1005.93 1450.39 1009.13 1453.08 Q1012.32 1455.77 1012.32 1460.26 Q1012.32 1462.39 1011.51 1464.31 Q1010.72 1466.2 1008.62 1468.8 Q1008.04 1469.47 1004.94 1472.69 Q1001.84 1475.88 996.187 1481.64 Z" fill="#000000" fill-rule="nonzero" fill-opacity="1" /><path clip-path="url(#clip970)" d="M1022.32 1479.7 L1027.21 1479.7 L1027.21 1485.58 L1022.32 1485.58 L1022.32 1479.7 Z" fill="#000000" fill-rule="nonzero" fill-opacity="1" /><path clip-path="url(#clip970)" d="M1038.2 1481.64 L1045.84 1481.64 L1045.84 1455.28 L1037.53 1456.95 L1037.53 1452.69 L1045.79 1451.02 L1050.47 1451.02 L1050.47 1481.64 L1058.11 1481.64 L1058.11 1485.58 L1038.2 1485.58 L1038.2 1481.64 Z" fill="#000000" fill-rule="nonzero" fill-opacity="1" /><path clip-path="url(#clip970)" d="M683.124 1545.45 L662.849 1545.45 Q663.327 1554.96 665.523 1559 Q668.26 1563.97 673.002 1563.97 Q677.777 1563.97 680.418 1558.97 Q682.742 1554.58 683.124 1545.45 M683.028 1540.03 Q682.137 1531 680.418 1527.81 Q677.681 1522.78 673.002 1522.78 Q668.133 1522.78 665.555 1527.75 Q663.518 1531.76 662.913 1540.03 L683.028 1540.03 M673.002 1518.01 Q680.641 1518.01 685.002 1524.76 Q689.362 1531.47 689.362 1543.38 Q689.362 1555.25 685.002 1562 Q680.641 1568.78 673.002 1568.78 Q665.332 1568.78 661.003 1562 Q656.643 1555.25 656.643 1543.38 Q656.643 1531.47 661.003 1524.76 Q665.332 1518.01 673.002 1518.01 Z" fill="#000000" fill-rule="nonzero" fill-opacity="1" /><path clip-path="url(#clip970)" d="M697.892 1564.54 L704.385 1564.54 L704.385 1545.1 L697.288 1546.4 L697.288 1542.71 L704.608 1541.47 L708.969 1541.47 L708.969 1564.54 L715.494 1564.54 L715.494 1568.04 L697.892 1568.04 L697.892 1564.54 Z" fill="#000000" fill-rule="nonzero" fill-opacity="1" /><polyline clip-path="url(#clip970)" style="stroke:#000000; stroke-linecap:round; stroke-linejoin:round; stroke-width:4; stroke-opacity:1; fill:none" points="219.38,1423.18 219.38,127.244 "/>
<polyline clip-path="url(#clip970)" style="stroke:#000000; stroke-linecap:round; stroke-linejoin:round; stroke-width:4; stroke-opacity:1; fill:none" points="219.38,1393.25 238.278,1393.25 "/>
<polyline clip-path="url(#clip970)" style="stroke:#000000; stroke-linecap:round; stroke-linejoin:round; stroke-width:4; stroke-opacity:1; fill:none" points="219.38,1093.92 238.278,1093.92 "/>
<polyline clip-path="url(#clip970)" style="stroke:#000000; stroke-linecap:round; stroke-linejoin:round; stroke-width:4; stroke-opacity:1; fill:none" points="219.38,794.595 238.278,794.595 "/>
<polyline clip-path="url(#clip970)" style="stroke:#000000; stroke-linecap:round; stroke-linejoin:round; stroke-width:4; stroke-opacity:1; fill:none" points="219.38,495.269 238.278,495.269 "/>
<polyline clip-path="url(#clip970)" style="stroke:#000000; stroke-linecap:round; stroke-linejoin:round; stroke-width:4; stroke-opacity:1; fill:none" points="219.38,195.943 238.278,195.943 "/>
<path clip-path="url(#clip970)" d="M126.205 1379.05 Q122.593 1379.05 120.765 1382.61 Q118.959 1386.15 118.959 1393.28 Q118.959 1400.39 120.765 1403.95 Q122.593 1407.49 126.205 1407.49 Q129.839 1407.49 131.644 1403.95 Q133.473 1400.39 133.473 1393.28 Q133.473 1386.15 131.644 1382.61 Q129.839 1379.05 126.205 1379.05 M126.205 1375.34 Q132.015 1375.34 135.07 1379.95 Q138.149 1384.53 138.149 1393.28 Q138.149 1402.01 135.07 1406.62 Q132.015 1411.2 126.205 1411.2 Q120.394 1411.2 117.316 1406.62 Q114.26 1402.01 114.26 1393.28 Q114.26 1384.53 117.316 1379.95 Q120.394 1375.34 126.205 1375.34 Z" fill="#000000" fill-rule="nonzero" fill-opacity="1" /><path clip-path="url(#clip970)" d="M146.366 1404.65 L151.251 1404.65 L151.251 1410.53 L146.366 1410.53 L146.366 1404.65 Z" fill="#000000" fill-rule="nonzero" fill-opacity="1" /><path clip-path="url(#clip970)" d="M171.436 1379.05 Q167.825 1379.05 165.996 1382.61 Q164.19 1386.15 164.19 1393.28 Q164.19 1400.39 165.996 1403.95 Q167.825 1407.49 171.436 1407.49 Q175.07 1407.49 176.876 1403.95 Q178.704 1400.39 178.704 1393.28 Q178.704 1386.15 176.876 1382.61 Q175.07 1379.05 171.436 1379.05 M171.436 1375.34 Q177.246 1375.34 180.301 1379.95 Q183.38 1384.53 183.38 1393.28 Q183.38 1402.01 180.301 1406.62 Q177.246 1411.2 171.436 1411.2 Q165.626 1411.2 162.547 1406.62 Q159.491 1402.01 159.491 1393.28 Q159.491 1384.53 162.547 1379.95 Q165.626 1375.34 171.436 1375.34 Z" fill="#000000" fill-rule="nonzero" fill-opacity="1" /><path clip-path="url(#clip970)" d="M127.2 1079.72 Q123.589 1079.72 121.76 1083.28 Q119.955 1086.83 119.955 1093.96 Q119.955 1101.06 121.76 1104.63 Q123.589 1108.17 127.2 1108.17 Q130.834 1108.17 132.64 1104.63 Q134.468 1101.06 134.468 1093.96 Q134.468 1086.83 132.64 1083.28 Q130.834 1079.72 127.2 1079.72 M127.2 1076.02 Q133.01 1076.02 136.066 1080.62 Q139.144 1085.21 139.144 1093.96 Q139.144 1102.68 136.066 1107.29 Q133.01 1111.87 127.2 1111.87 Q121.39 1111.87 118.311 1107.29 Q115.256 1102.68 115.256 1093.96 Q115.256 1085.21 118.311 1080.62 Q121.39 1076.02 127.2 1076.02 Z" fill="#000000" fill-rule="nonzero" fill-opacity="1" /><path clip-path="url(#clip970)" d="M147.362 1105.32 L152.246 1105.32 L152.246 1111.2 L147.362 1111.2 L147.362 1105.32 Z" fill="#000000" fill-rule="nonzero" fill-opacity="1" /><path clip-path="url(#clip970)" d="M162.477 1076.64 L180.834 1076.64 L180.834 1080.58 L166.76 1080.58 L166.76 1089.05 Q167.778 1088.7 168.797 1088.54 Q169.815 1088.35 170.834 1088.35 Q176.621 1088.35 180.001 1091.53 Q183.38 1094.7 183.38 1100.11 Q183.38 1105.69 179.908 1108.79 Q176.436 1111.87 170.116 1111.87 Q167.94 1111.87 165.672 1111.5 Q163.427 1111.13 161.019 1110.39 L161.019 1105.69 Q163.102 1106.83 165.325 1107.38 Q167.547 1107.94 170.024 1107.94 Q174.028 1107.94 176.366 1105.83 Q178.704 1103.72 178.704 1100.11 Q178.704 1096.5 176.366 1094.4 Q174.028 1092.29 170.024 1092.29 Q168.149 1092.29 166.274 1092.71 Q164.422 1093.12 162.477 1094 L162.477 1076.64 Z" fill="#000000" fill-rule="nonzero" fill-opacity="1" /><path clip-path="url(#clip970)" d="M117.015 807.94 L124.654 807.94 L124.654 781.574 L116.343 783.241 L116.343 778.982 L124.607 777.315 L129.283 777.315 L129.283 807.94 L136.922 807.94 L136.922 811.875 L117.015 811.875 L117.015 807.94 Z" fill="#000000" fill-rule="nonzero" fill-opacity="1" /><path clip-path="url(#clip970)" d="M146.366 805.995 L151.251 805.995 L151.251 811.875 L146.366 811.875 L146.366 805.995 Z" fill="#000000" fill-rule="nonzero" fill-opacity="1" /><path clip-path="url(#clip970)" d="M171.436 780.394 Q167.825 780.394 165.996 783.958 Q164.19 787.5 164.19 794.63 Q164.19 801.736 165.996 805.301 Q167.825 808.843 171.436 808.843 Q175.07 808.843 176.876 805.301 Q178.704 801.736 178.704 794.63 Q178.704 787.5 176.876 783.958 Q175.07 780.394 171.436 780.394 M171.436 776.69 Q177.246 776.69 180.301 781.296 Q183.38 785.88 183.38 794.63 Q183.38 803.356 180.301 807.963 Q177.246 812.546 171.436 812.546 Q165.626 812.546 162.547 807.963 Q159.491 803.356 159.491 794.63 Q159.491 785.88 162.547 781.296 Q165.626 776.69 171.436 776.69 Z" fill="#000000" fill-rule="nonzero" fill-opacity="1" /><path clip-path="url(#clip970)" d="M118.01 508.614 L125.649 508.614 L125.649 482.248 L117.339 483.915 L117.339 479.655 L125.603 477.989 L130.279 477.989 L130.279 508.614 L137.917 508.614 L137.917 512.549 L118.01 512.549 L118.01 508.614 Z" fill="#000000" fill-rule="nonzero" fill-opacity="1" /><path clip-path="url(#clip970)" d="M147.362 506.669 L152.246 506.669 L152.246 512.549 L147.362 512.549 L147.362 506.669 Z" fill="#000000" fill-rule="nonzero" fill-opacity="1" /><path clip-path="url(#clip970)" d="M162.477 477.989 L180.834 477.989 L180.834 481.924 L166.76 481.924 L166.76 490.396 Q167.778 490.049 168.797 489.887 Q169.815 489.702 170.834 489.702 Q176.621 489.702 180.001 492.873 Q183.38 496.044 183.38 501.461 Q183.38 507.04 179.908 510.141 Q176.436 513.22 170.116 513.22 Q167.94 513.22 165.672 512.85 Q163.427 512.479 161.019 511.739 L161.019 507.04 Q163.102 508.174 165.325 508.729 Q167.547 509.285 170.024 509.285 Q174.028 509.285 176.366 507.178 Q178.704 505.072 178.704 501.461 Q178.704 497.85 176.366 495.743 Q174.028 493.637 170.024 493.637 Q168.149 493.637 166.274 494.053 Q164.422 494.47 162.477 495.35 L162.477 477.989 Z" fill="#000000" fill-rule="nonzero" fill-opacity="1" /><path clip-path="url(#clip970)" d="M120.232 209.287 L136.552 209.287 L136.552 213.223 L114.607 213.223 L114.607 209.287 Q117.269 206.533 121.853 201.903 Q126.459 197.25 127.64 195.908 Q129.885 193.385 130.765 191.649 Q131.667 189.889 131.667 188.2 Q131.667 185.445 129.723 183.709 Q127.802 181.973 124.7 181.973 Q122.501 181.973 120.047 182.737 Q117.617 183.501 114.839 185.051 L114.839 180.329 Q117.663 179.195 120.117 178.616 Q122.57 178.038 124.607 178.038 Q129.978 178.038 133.172 180.723 Q136.367 183.408 136.367 187.899 Q136.367 190.028 135.556 191.95 Q134.769 193.848 132.663 196.44 Q132.084 197.112 128.982 200.329 Q125.88 203.524 120.232 209.287 Z" fill="#000000" fill-rule="nonzero" fill-opacity="1" /><path clip-path="url(#clip970)" d="M146.366 207.343 L151.251 207.343 L151.251 213.223 L146.366 213.223 L146.366 207.343 Z" fill="#000000" fill-rule="nonzero" fill-opacity="1" /><path clip-path="url(#clip970)" d="M171.436 181.741 Q167.825 181.741 165.996 185.306 Q164.19 188.848 164.19 195.977 Q164.19 203.084 165.996 206.649 Q167.825 210.19 171.436 210.19 Q175.07 210.19 176.876 206.649 Q178.704 203.084 178.704 195.977 Q178.704 188.848 176.876 185.306 Q175.07 181.741 171.436 181.741 M171.436 178.038 Q177.246 178.038 180.301 182.644 Q183.38 187.227 183.38 195.977 Q183.38 204.704 180.301 209.311 Q177.246 213.894 171.436 213.894 Q165.626 213.894 162.547 209.311 Q159.491 204.704 159.491 195.977 Q159.491 187.227 162.547 182.644 Q165.626 178.038 171.436 178.038 Z" fill="#000000" fill-rule="nonzero" fill-opacity="1" /><path clip-path="url(#clip970)" d="M20.1444 959.388 L26.9239 959.388 Q23.9002 962.634 22.4043 966.326 Q20.9083 969.987 20.9083 974.124 Q20.9083 982.272 25.9054 986.601 Q30.8707 990.93 40.2919 990.93 Q49.6813 990.93 54.6784 986.601 Q59.6436 982.272 59.6436 974.124 Q59.6436 969.987 58.1477 966.326 Q56.6518 962.634 53.6281 959.388 L60.3439 959.388 Q62.6355 962.762 63.7814 966.549 Q64.9272 970.305 64.9272 974.506 Q64.9272 985.296 58.3387 991.503 Q51.7183 997.709 40.2919 997.709 Q28.8336 997.709 22.2451 991.503 Q15.6248 985.296 15.6248 974.506 Q15.6248 970.241 16.7706 966.486 Q17.8846 962.698 20.1444 959.388 Z" fill="#000000" fill-rule="nonzero" fill-opacity="1" /><path clip-path="url(#clip970)" d="M32.4621 935.898 Q32.4621 940.609 36.1542 943.346 Q39.8145 946.083 46.212 946.083 Q52.6095 946.083 56.3017 943.378 Q59.9619 940.641 59.9619 935.898 Q59.9619 931.22 56.2698 928.482 Q52.5777 925.745 46.212 925.745 Q39.8781 925.745 36.186 928.482 Q32.4621 931.22 32.4621 935.898 M27.4968 935.898 Q27.4968 928.259 32.4621 923.899 Q37.4273 919.538 46.212 919.538 Q54.9649 919.538 59.9619 923.899 Q64.9272 928.259 64.9272 935.898 Q64.9272 943.569 59.9619 947.93 Q54.9649 952.258 46.212 952.258 Q37.4273 952.258 32.4621 947.93 Q27.4968 943.569 27.4968 935.898 Z" fill="#000000" fill-rule="nonzero" fill-opacity="1" /><path clip-path="url(#clip970)" d="M42.4881 880.198 L64.0042 880.198 L64.0042 886.055 L42.679 886.055 Q37.6183 886.055 35.1038 888.028 Q32.5894 890.002 32.5894 893.948 Q32.5894 898.691 35.6131 901.428 Q38.6368 904.165 43.8567 904.165 L64.0042 904.165 L64.0042 910.054 L28.3562 910.054 L28.3562 904.165 L33.8944 904.165 Q30.6797 902.065 29.0883 899.232 Q27.4968 896.367 27.4968 892.643 Q27.4968 886.5 31.3163 883.349 Q35.1038 880.198 42.4881 880.198 Z" fill="#000000" fill-rule="nonzero" fill-opacity="1" /><path clip-path="url(#clip970)" d="M14.479 850.471 L19.3487 850.471 L19.3487 856.072 Q19.3487 859.223 20.6219 860.465 Q21.895 861.674 25.2052 861.674 L28.3562 861.674 L28.3562 852.03 L32.9077 852.03 L32.9077 861.674 L64.0042 861.674 L64.0042 867.562 L32.9077 867.562 L32.9077 873.164 L28.3562 873.164 L28.3562 867.562 L25.8736 867.562 Q19.9216 867.562 17.2162 864.793 Q14.479 862.024 14.479 856.009 L14.479 850.471 Z" fill="#000000" fill-rule="nonzero" fill-opacity="1" /><path clip-path="url(#clip970)" d="M55.9197 849.484 L55.9197 842.768 L64.0042 842.768 L64.0042 849.484 L55.9197 849.484 Z" fill="#000000" fill-rule="nonzero" fill-opacity="1" /><path clip-path="url(#clip970)" d="M14.479 808.871 L14.479 803.014 L64.0042 803.014 L64.0042 808.871 L14.479 808.871 Z" fill="#000000" fill-rule="nonzero" fill-opacity="1" /><path clip-path="url(#clip970)" d="M44.7161 760.268 L47.5806 760.268 L47.5806 787.195 Q53.6281 786.813 56.8109 783.567 Q59.9619 780.289 59.9619 774.464 Q59.9619 771.09 59.1344 767.939 Q58.3069 764.756 56.6518 761.637 L62.1899 761.637 Q63.5267 764.788 64.227 768.098 Q64.9272 771.408 64.9272 774.814 Q64.9272 783.344 59.9619 788.341 Q54.9967 793.306 46.5303 793.306 Q37.7774 793.306 32.6531 788.596 Q27.4968 783.853 27.4968 775.833 Q27.4968 768.639 32.1438 764.47 Q36.7589 760.268 44.7161 760.268 M42.9973 766.125 Q38.1912 766.189 35.3266 768.83 Q32.4621 771.44 32.4621 775.769 Q32.4621 780.671 35.2312 783.631 Q38.0002 786.559 43.0292 787.004 L42.9973 766.125 Z" fill="#000000" fill-rule="nonzero" fill-opacity="1" /><path clip-path="url(#clip970)" d="M28.3562 754.858 L28.3562 748.651 L58.275 737.511 L28.3562 726.371 L28.3562 720.165 L64.0042 733.533 L64.0042 741.49 L28.3562 754.858 Z" fill="#000000" fill-rule="nonzero" fill-opacity="1" /><path clip-path="url(#clip970)" d="M44.7161 681.588 L47.5806 681.588 L47.5806 708.515 Q53.6281 708.133 56.8109 704.887 Q59.9619 701.608 59.9619 695.784 Q59.9619 692.41 59.1344 689.259 Q58.3069 686.076 56.6518 682.957 L62.1899 682.957 Q63.5267 686.108 64.227 689.418 Q64.9272 692.728 64.9272 696.134 Q64.9272 704.664 59.9619 709.661 Q54.9967 714.626 46.5303 714.626 Q37.7774 714.626 32.6531 709.916 Q27.4968 705.173 27.4968 697.152 Q27.4968 689.959 32.1438 685.79 Q36.7589 681.588 44.7161 681.588 M42.9973 687.445 Q38.1912 687.508 35.3266 690.15 Q32.4621 692.76 32.4621 697.089 Q32.4621 701.99 35.2312 704.95 Q38.0002 707.879 43.0292 708.324 L42.9973 687.445 Z" fill="#000000" fill-rule="nonzero" fill-opacity="1" /><path clip-path="url(#clip970)" d="M14.479 671.976 L14.479 666.12 L64.0042 666.12 L64.0042 671.976 L14.479 671.976 Z" fill="#000000" fill-rule="nonzero" fill-opacity="1" /><path clip-path="url(#clip970)" d="M14.479 633.686 L14.479 620.191 L19.0304 620.191 L19.0304 627.83 L68.0464 627.83 L68.0464 620.191 L72.5979 620.191 L72.5979 633.686 L14.479 633.686 Z" fill="#000000" fill-rule="nonzero" fill-opacity="1" /><path clip-path="url(#clip970)" d="M33.0032 593.901 Q33.0032 598.739 36.5043 601.349 Q40.1646 604.086 46.212 604.086 Q52.6095 604.086 56.3017 601.38 Q59.9619 598.643 59.9619 593.901 Q59.9619 589.222 56.2698 586.485 Q52.5777 583.747 46.212 583.747 Q40.3874 583.747 36.5043 586.485 Q33.0032 588.999 33.0032 593.901 M28.3562 593.901 L28.3562 574.453 L34.2127 574.453 L34.2127 581.01 Q39.1779 577.541 46.212 577.541 Q54.9649 577.541 59.9301 581.901 Q64.9272 586.262 64.9272 593.901 Q64.9272 601.571 59.9301 605.9 Q54.9649 610.261 46.212 610.261 Q37.3955 610.261 32.4621 605.9 Q28.3562 602.303 28.3562 593.901 Z" fill="#000000" fill-rule="nonzero" fill-opacity="1" /><path clip-path="url(#clip970)" d="M14.479 552.715 L72.5979 552.715 L72.5979 566.21 L68.0464 566.21 L68.0464 558.603 L19.0304 558.603 L19.0304 566.21 L14.479 566.21 L14.479 552.715 Z" fill="#000000" fill-rule="nonzero" fill-opacity="1" /><polyline clip-path="url(#clip972)" style="stroke:#009af9; stroke-linecap:round; stroke-linejoin:round; stroke-width:6; stroke-opacity:1; fill:none" points="245.796,104.934 263.279,170.504 280.872,236.425 298.579,302.671 316.402,369.211 334.343,436.002 352.405,502.988 370.589,570.094 388.899,637.225 407.338,704.258 425.907,771.031 444.61,837.34 463.45,902.919 482.429,967.429 501.552,1030.44 520.82,1091.4 540.239,1149.63 559.811,1204.3 579.539,1254.39 599.429,1298.74 619.483,1336.05 639.644,1364.91 659.565,1383.9 677.646,1392.3 686.068,1393.25 694.49,1392.3 712.571,1383.9 732.492,1364.91 752.653,1336.05 772.707,1298.74 792.597,1254.39 812.326,1204.3 831.897,1149.63 851.316,1091.4 870.584,1030.44 889.707,967.429 908.687,902.919 927.526,837.34 946.229,771.031 964.798,704.258 983.237,637.225 1001.55,570.094 1019.73,502.988 1037.79,436.002 1055.73,369.211 1073.56,302.671 1091.26,236.425 1108.86,170.504 1126.34,104.934 "/>
<path clip-path="url(#clip972)" d="M686.068 1403.25 L677.408 1398.25 L677.408 1388.25 L686.068 1383.25 L694.728 1388.25 L694.728 1398.25 Z" fill="#ff0000" fill-rule="evenodd" fill-opacity="1" stroke="none"/>
<path clip-path="url(#clip970)" d="M1419.38 1423.18 L2352.76 1423.18 L2352.76 127.244 L1419.38 127.244  Z" fill="#ffffff" fill-rule="evenodd" fill-opacity="1"/>
<defs>
  <clipPath id="clip973">
    <rect x="1419" y="127" width="934" height="1297"/>
  </clipPath>
</defs>
<polyline clip-path="url(#clip973)" style="stroke:#000000; stroke-linecap:round; stroke-linejoin:round; stroke-width:2; stroke-opacity:0.1; fill:none" points="1573.06,1423.18 1573.06,127.244 "/>
<polyline clip-path="url(#clip973)" style="stroke:#000000; stroke-linecap:round; stroke-linejoin:round; stroke-width:2; stroke-opacity:0.1; fill:none" points="1819.3,1423.18 1819.3,127.244 "/>
<polyline clip-path="url(#clip973)" style="stroke:#000000; stroke-linecap:round; stroke-linejoin:round; stroke-width:2; stroke-opacity:0.1; fill:none" points="2065.53,1423.18 2065.53,127.244 "/>
<polyline clip-path="url(#clip973)" style="stroke:#000000; stroke-linecap:round; stroke-linejoin:round; stroke-width:2; stroke-opacity:0.1; fill:none" points="2311.77,1423.18 2311.77,127.244 "/>
<polyline clip-path="url(#clip973)" style="stroke:#000000; stroke-linecap:round; stroke-linejoin:round; stroke-width:2; stroke-opacity:0.1; fill:none" points="1419.38,1393.25 2352.76,1393.25 "/>
<polyline clip-path="url(#clip973)" style="stroke:#000000; stroke-linecap:round; stroke-linejoin:round; stroke-width:2; stroke-opacity:0.1; fill:none" points="1419.38,1093.92 2352.76,1093.92 "/>
<polyline clip-path="url(#clip973)" style="stroke:#000000; stroke-linecap:round; stroke-linejoin:round; stroke-width:2; stroke-opacity:0.1; fill:none" points="1419.38,794.595 2352.76,794.595 "/>
<polyline clip-path="url(#clip973)" style="stroke:#000000; stroke-linecap:round; stroke-linejoin:round; stroke-width:2; stroke-opacity:0.1; fill:none" points="1419.38,495.269 2352.76,495.269 "/>
<polyline clip-path="url(#clip973)" style="stroke:#000000; stroke-linecap:round; stroke-linejoin:round; stroke-width:2; stroke-opacity:0.1; fill:none" points="1419.38,195.943 2352.76,195.943 "/>
<polyline clip-path="url(#clip970)" style="stroke:#000000; stroke-linecap:round; stroke-linejoin:round; stroke-width:4; stroke-opacity:1; fill:none" points="1419.38,1423.18 2352.76,1423.18 "/>
<polyline clip-path="url(#clip970)" style="stroke:#000000; stroke-linecap:round; stroke-linejoin:round; stroke-width:4; stroke-opacity:1; fill:none" points="1573.06,1423.18 1573.06,1404.28 "/>
<polyline clip-path="url(#clip970)" style="stroke:#000000; stroke-linecap:round; stroke-linejoin:round; stroke-width:4; stroke-opacity:1; fill:none" points="1819.3,1423.18 1819.3,1404.28 "/>
<polyline clip-path="url(#clip970)" style="stroke:#000000; stroke-linecap:round; stroke-linejoin:round; stroke-width:4; stroke-opacity:1; fill:none" points="2065.53,1423.18 2065.53,1404.28 "/>
<polyline clip-path="url(#clip970)" style="stroke:#000000; stroke-linecap:round; stroke-linejoin:round; stroke-width:4; stroke-opacity:1; fill:none" points="2311.77,1423.18 2311.77,1404.28 "/>
<path clip-path="url(#clip970)" d="M1563.44 1481.64 L1571.08 1481.64 L1571.08 1455.28 L1562.77 1456.95 L1562.77 1452.69 L1571.03 1451.02 L1575.71 1451.02 L1575.71 1481.64 L1583.35 1481.64 L1583.35 1485.58 L1563.44 1485.58 L1563.44 1481.64 Z" fill="#000000" fill-rule="nonzero" fill-opacity="1" /><path clip-path="url(#clip970)" d="M1813.95 1481.64 L1830.27 1481.64 L1830.27 1485.58 L1808.32 1485.58 L1808.32 1481.64 Q1810.99 1478.89 1815.57 1474.26 Q1820.18 1469.61 1821.36 1468.27 Q1823.6 1465.74 1824.48 1464.01 Q1825.38 1462.25 1825.38 1460.56 Q1825.38 1457.8 1823.44 1456.07 Q1821.52 1454.33 1818.42 1454.33 Q1816.22 1454.33 1813.76 1455.09 Q1811.33 1455.86 1808.56 1457.41 L1808.56 1452.69 Q1811.38 1451.55 1813.83 1450.97 Q1816.29 1450.39 1818.32 1450.39 Q1823.69 1450.39 1826.89 1453.08 Q1830.08 1455.77 1830.08 1460.26 Q1830.08 1462.39 1829.27 1464.31 Q1828.49 1466.2 1826.38 1468.8 Q1825.8 1469.47 1822.7 1472.69 Q1819.6 1475.88 1813.95 1481.64 Z" fill="#000000" fill-rule="nonzero" fill-opacity="1" /><path clip-path="url(#clip970)" d="M2069.78 1466.95 Q2073.14 1467.66 2075.01 1469.93 Q2076.91 1472.2 2076.91 1475.53 Q2076.91 1480.65 2073.39 1483.45 Q2069.87 1486.25 2063.39 1486.25 Q2061.22 1486.25 2058.9 1485.81 Q2056.61 1485.39 2054.16 1484.54 L2054.16 1480.02 Q2056.1 1481.16 2058.42 1481.74 Q2060.73 1482.32 2063.25 1482.32 Q2067.65 1482.32 2069.94 1480.58 Q2072.26 1478.84 2072.26 1475.53 Q2072.26 1472.48 2070.11 1470.77 Q2067.98 1469.03 2064.16 1469.03 L2060.13 1469.03 L2060.13 1465.19 L2064.34 1465.19 Q2067.79 1465.19 2069.62 1463.82 Q2071.45 1462.43 2071.45 1459.84 Q2071.45 1457.18 2069.55 1455.77 Q2067.67 1454.33 2064.16 1454.33 Q2062.24 1454.33 2060.04 1454.75 Q2057.84 1455.16 2055.2 1456.04 L2055.2 1451.88 Q2057.86 1451.14 2060.17 1450.77 Q2062.51 1450.39 2064.57 1450.39 Q2069.9 1450.39 2073 1452.83 Q2076.1 1455.23 2076.1 1459.35 Q2076.1 1462.22 2074.46 1464.21 Q2072.81 1466.18 2069.78 1466.95 Z" fill="#000000" fill-rule="nonzero" fill-opacity="1" /><path clip-path="url(#clip970)" d="M2314.78 1455.09 L2302.98 1473.54 L2314.78 1473.54 L2314.78 1455.09 M2313.55 1451.02 L2319.43 1451.02 L2319.43 1473.54 L2324.36 1473.54 L2324.36 1477.43 L2319.43 1477.43 L2319.43 1485.58 L2314.78 1485.58 L2314.78 1477.43 L2299.18 1477.43 L2299.18 1472.92 L2313.55 1451.02 Z" fill="#000000" fill-rule="nonzero" fill-opacity="1" /><path clip-path="url(#clip970)" d="M1883.39 1545.45 L1863.12 1545.45 Q1863.6 1554.96 1865.79 1559 Q1868.53 1563.97 1873.27 1563.97 Q1878.05 1563.97 1880.69 1558.97 Q1883.01 1554.58 1883.39 1545.45 M1883.3 1540.03 Q1882.41 1531 1880.69 1527.81 Q1877.95 1522.78 1873.27 1522.78 Q1868.4 1522.78 1865.83 1527.75 Q1863.79 1531.76 1863.18 1540.03 L1883.3 1540.03 M1873.27 1518.01 Q1880.91 1518.01 1885.27 1524.76 Q1889.63 1531.47 1889.63 1543.38 Q1889.63 1555.25 1885.27 1562 Q1880.91 1568.78 1873.27 1568.78 Q1865.6 1568.78 1861.27 1562 Q1856.91 1555.25 1856.91 1543.38 Q1856.91 1531.47 1861.27 1524.76 Q1865.6 1518.01 1873.27 1518.01 Z" fill="#000000" fill-rule="nonzero" fill-opacity="1" /><path clip-path="url(#clip970)" d="M1901.73 1564.42 L1915.22 1564.42 L1915.22 1568.04 L1896.19 1568.04 L1896.19 1564.54 Q1897.27 1563.56 1899.28 1561.77 Q1910.23 1552.07 1910.23 1549.07 Q1910.23 1546.97 1908.57 1545.7 Q1906.92 1544.4 1904.21 1544.4 Q1902.56 1544.4 1900.61 1544.97 Q1898.67 1545.51 1896.38 1546.62 L1896.38 1542.71 Q1898.83 1541.82 1900.93 1541.37 Q1903.06 1540.93 1904.88 1540.93 Q1909.49 1540.93 1912.26 1543.03 Q1915.03 1545.13 1915.03 1548.56 Q1915.03 1552.99 1904.5 1562.03 Q1902.71 1563.56 1901.73 1564.42 Z" fill="#000000" fill-rule="nonzero" fill-opacity="1" /><polyline clip-path="url(#clip970)" style="stroke:#000000; stroke-linecap:round; stroke-linejoin:round; stroke-width:4; stroke-opacity:1; fill:none" points="1419.38,1423.18 1419.38,127.244 "/>
<polyline clip-path="url(#clip970)" style="stroke:#000000; stroke-linecap:round; stroke-linejoin:round; stroke-width:4; stroke-opacity:1; fill:none" points="1419.38,1393.25 1438.28,1393.25 "/>
<polyline clip-path="url(#clip970)" style="stroke:#000000; stroke-linecap:round; stroke-linejoin:round; stroke-width:4; stroke-opacity:1; fill:none" points="1419.38,1093.92 1438.28,1093.92 "/>
<polyline clip-path="url(#clip970)" style="stroke:#000000; stroke-linecap:round; stroke-linejoin:round; stroke-width:4; stroke-opacity:1; fill:none" points="1419.38,794.595 1438.28,794.595 "/>
<polyline clip-path="url(#clip970)" style="stroke:#000000; stroke-linecap:round; stroke-linejoin:round; stroke-width:4; stroke-opacity:1; fill:none" points="1419.38,495.269 1438.28,495.269 "/>
<polyline clip-path="url(#clip970)" style="stroke:#000000; stroke-linecap:round; stroke-linejoin:round; stroke-width:4; stroke-opacity:1; fill:none" points="1419.38,195.943 1438.28,195.943 "/>
<path clip-path="url(#clip970)" d="M1326.2 1379.05 Q1322.59 1379.05 1320.76 1382.61 Q1318.96 1386.15 1318.96 1393.28 Q1318.96 1400.39 1320.76 1403.95 Q1322.59 1407.49 1326.2 1407.49 Q1329.84 1407.49 1331.64 1403.95 Q1333.47 1400.39 1333.47 1393.28 Q1333.47 1386.15 1331.64 1382.61 Q1329.84 1379.05 1326.2 1379.05 M1326.2 1375.34 Q1332.01 1375.34 1335.07 1379.95 Q1338.15 1384.53 1338.15 1393.28 Q1338.15 1402.01 1335.07 1406.62 Q1332.01 1411.2 1326.2 1411.2 Q1320.39 1411.2 1317.32 1406.62 Q1314.26 1402.01 1314.26 1393.28 Q1314.26 1384.53 1317.32 1379.95 Q1320.39 1375.34 1326.2 1375.34 Z" fill="#000000" fill-rule="nonzero" fill-opacity="1" /><path clip-path="url(#clip970)" d="M1346.37 1404.65 L1351.25 1404.65 L1351.25 1410.53 L1346.37 1410.53 L1346.37 1404.65 Z" fill="#000000" fill-rule="nonzero" fill-opacity="1" /><path clip-path="url(#clip970)" d="M1371.44 1379.05 Q1367.82 1379.05 1366 1382.61 Q1364.19 1386.15 1364.19 1393.28 Q1364.19 1400.39 1366 1403.95 Q1367.82 1407.49 1371.44 1407.49 Q1375.07 1407.49 1376.88 1403.95 Q1378.7 1400.39 1378.7 1393.28 Q1378.7 1386.15 1376.88 1382.61 Q1375.07 1379.05 1371.44 1379.05 M1371.44 1375.34 Q1377.25 1375.34 1380.3 1379.95 Q1383.38 1384.53 1383.38 1393.28 Q1383.38 1402.01 1380.3 1406.62 Q1377.25 1411.2 1371.44 1411.2 Q1365.63 1411.2 1362.55 1406.62 Q1359.49 1402.01 1359.49 1393.28 Q1359.49 1384.53 1362.55 1379.95 Q1365.63 1375.34 1371.44 1375.34 Z" fill="#000000" fill-rule="nonzero" fill-opacity="1" /><path clip-path="url(#clip970)" d="M1327.2 1079.72 Q1323.59 1079.72 1321.76 1083.28 Q1319.95 1086.83 1319.95 1093.96 Q1319.95 1101.06 1321.76 1104.63 Q1323.59 1108.17 1327.2 1108.17 Q1330.83 1108.17 1332.64 1104.63 Q1334.47 1101.06 1334.47 1093.96 Q1334.47 1086.83 1332.64 1083.28 Q1330.83 1079.72 1327.2 1079.72 M1327.2 1076.02 Q1333.01 1076.02 1336.07 1080.62 Q1339.14 1085.21 1339.14 1093.96 Q1339.14 1102.68 1336.07 1107.29 Q1333.01 1111.87 1327.2 1111.87 Q1321.39 1111.87 1318.31 1107.29 Q1315.26 1102.68 1315.26 1093.96 Q1315.26 1085.21 1318.31 1080.62 Q1321.39 1076.02 1327.2 1076.02 Z" fill="#000000" fill-rule="nonzero" fill-opacity="1" /><path clip-path="url(#clip970)" d="M1347.36 1105.32 L1352.25 1105.32 L1352.25 1111.2 L1347.36 1111.2 L1347.36 1105.32 Z" fill="#000000" fill-rule="nonzero" fill-opacity="1" /><path clip-path="url(#clip970)" d="M1362.48 1076.64 L1380.83 1076.64 L1380.83 1080.58 L1366.76 1080.58 L1366.76 1089.05 Q1367.78 1088.7 1368.8 1088.54 Q1369.82 1088.35 1370.83 1088.35 Q1376.62 1088.35 1380 1091.53 Q1383.38 1094.7 1383.38 1100.11 Q1383.38 1105.69 1379.91 1108.79 Q1376.44 1111.87 1370.12 1111.87 Q1367.94 1111.87 1365.67 1111.5 Q1363.43 1111.13 1361.02 1110.39 L1361.02 1105.69 Q1363.1 1106.83 1365.32 1107.38 Q1367.55 1107.94 1370.02 1107.94 Q1374.03 1107.94 1376.37 1105.83 Q1378.7 1103.72 1378.7 1100.11 Q1378.7 1096.5 1376.37 1094.4 Q1374.03 1092.29 1370.02 1092.29 Q1368.15 1092.29 1366.27 1092.71 Q1364.42 1093.12 1362.48 1094 L1362.48 1076.64 Z" fill="#000000" fill-rule="nonzero" fill-opacity="1" /><path clip-path="url(#clip970)" d="M1317.01 807.94 L1324.65 807.94 L1324.65 781.574 L1316.34 783.241 L1316.34 778.982 L1324.61 777.315 L1329.28 777.315 L1329.28 807.94 L1336.92 807.94 L1336.92 811.875 L1317.01 811.875 L1317.01 807.94 Z" fill="#000000" fill-rule="nonzero" fill-opacity="1" /><path clip-path="url(#clip970)" d="M1346.37 805.995 L1351.25 805.995 L1351.25 811.875 L1346.37 811.875 L1346.37 805.995 Z" fill="#000000" fill-rule="nonzero" fill-opacity="1" /><path clip-path="url(#clip970)" d="M1371.44 780.394 Q1367.82 780.394 1366 783.958 Q1364.19 787.5 1364.19 794.63 Q1364.19 801.736 1366 805.301 Q1367.82 808.843 1371.44 808.843 Q1375.07 808.843 1376.88 805.301 Q1378.7 801.736 1378.7 794.63 Q1378.7 787.5 1376.88 783.958 Q1375.07 780.394 1371.44 780.394 M1371.44 776.69 Q1377.25 776.69 1380.3 781.296 Q1383.38 785.88 1383.38 794.63 Q1383.38 803.356 1380.3 807.963 Q1377.25 812.546 1371.44 812.546 Q1365.63 812.546 1362.55 807.963 Q1359.49 803.356 1359.49 794.63 Q1359.49 785.88 1362.55 781.296 Q1365.63 776.69 1371.44 776.69 Z" fill="#000000" fill-rule="nonzero" fill-opacity="1" /><path clip-path="url(#clip970)" d="M1318.01 508.614 L1325.65 508.614 L1325.65 482.248 L1317.34 483.915 L1317.34 479.655 L1325.6 477.989 L1330.28 477.989 L1330.28 508.614 L1337.92 508.614 L1337.92 512.549 L1318.01 512.549 L1318.01 508.614 Z" fill="#000000" fill-rule="nonzero" fill-opacity="1" /><path clip-path="url(#clip970)" d="M1347.36 506.669 L1352.25 506.669 L1352.25 512.549 L1347.36 512.549 L1347.36 506.669 Z" fill="#000000" fill-rule="nonzero" fill-opacity="1" /><path clip-path="url(#clip970)" d="M1362.48 477.989 L1380.83 477.989 L1380.83 481.924 L1366.76 481.924 L1366.76 490.396 Q1367.78 490.049 1368.8 489.887 Q1369.82 489.702 1370.83 489.702 Q1376.62 489.702 1380 492.873 Q1383.38 496.044 1383.38 501.461 Q1383.38 507.04 1379.91 510.141 Q1376.44 513.22 1370.12 513.22 Q1367.94 513.22 1365.67 512.85 Q1363.43 512.479 1361.02 511.739 L1361.02 507.04 Q1363.1 508.174 1365.32 508.729 Q1367.55 509.285 1370.02 509.285 Q1374.03 509.285 1376.37 507.178 Q1378.7 505.072 1378.7 501.461 Q1378.7 497.85 1376.37 495.743 Q1374.03 493.637 1370.02 493.637 Q1368.15 493.637 1366.27 494.053 Q1364.42 494.47 1362.48 495.35 L1362.48 477.989 Z" fill="#000000" fill-rule="nonzero" fill-opacity="1" /><path clip-path="url(#clip970)" d="M1320.23 209.287 L1336.55 209.287 L1336.55 213.223 L1314.61 213.223 L1314.61 209.287 Q1317.27 206.533 1321.85 201.903 Q1326.46 197.25 1327.64 195.908 Q1329.89 193.385 1330.76 191.649 Q1331.67 189.889 1331.67 188.2 Q1331.67 185.445 1329.72 183.709 Q1327.8 181.973 1324.7 181.973 Q1322.5 181.973 1320.05 182.737 Q1317.62 183.501 1314.84 185.051 L1314.84 180.329 Q1317.66 179.195 1320.12 178.616 Q1322.57 178.038 1324.61 178.038 Q1329.98 178.038 1333.17 180.723 Q1336.37 183.408 1336.37 187.899 Q1336.37 190.028 1335.56 191.95 Q1334.77 193.848 1332.66 196.44 Q1332.08 197.112 1328.98 200.329 Q1325.88 203.524 1320.23 209.287 Z" fill="#000000" fill-rule="nonzero" fill-opacity="1" /><path clip-path="url(#clip970)" d="M1346.37 207.343 L1351.25 207.343 L1351.25 213.223 L1346.37 213.223 L1346.37 207.343 Z" fill="#000000" fill-rule="nonzero" fill-opacity="1" /><path clip-path="url(#clip970)" d="M1371.44 181.741 Q1367.82 181.741 1366 185.306 Q1364.19 188.848 1364.19 195.977 Q1364.19 203.084 1366 206.649 Q1367.82 210.19 1371.44 210.19 Q1375.07 210.19 1376.88 206.649 Q1378.7 203.084 1378.7 195.977 Q1378.7 188.848 1376.88 185.306 Q1375.07 181.741 1371.44 181.741 M1371.44 178.038 Q1377.25 178.038 1380.3 182.644 Q1383.38 187.227 1383.38 195.977 Q1383.38 204.704 1380.3 209.311 Q1377.25 213.894 1371.44 213.894 Q1365.63 213.894 1362.55 209.311 Q1359.49 204.704 1359.49 195.977 Q1359.49 187.227 1362.55 182.644 Q1365.63 178.038 1371.44 178.038 Z" fill="#000000" fill-rule="nonzero" fill-opacity="1" /><path clip-path="url(#clip970)" d="M1220.14 959.388 L1226.92 959.388 Q1223.9 962.634 1222.4 966.326 Q1220.91 969.987 1220.91 974.124 Q1220.91 982.272 1225.91 986.601 Q1230.87 990.93 1240.29 990.93 Q1249.68 990.93 1254.68 986.601 Q1259.64 982.272 1259.64 974.124 Q1259.64 969.987 1258.15 966.326 Q1256.65 962.634 1253.63 959.388 L1260.34 959.388 Q1262.64 962.762 1263.78 966.549 Q1264.93 970.305 1264.93 974.506 Q1264.93 985.296 1258.34 991.503 Q1251.72 997.709 1240.29 997.709 Q1228.83 997.709 1222.25 991.503 Q1215.62 985.296 1215.62 974.506 Q1215.62 970.241 1216.77 966.486 Q1217.88 962.698 1220.14 959.388 Z" fill="#000000" fill-rule="nonzero" fill-opacity="1" /><path clip-path="url(#clip970)" d="M1232.46 935.898 Q1232.46 940.609 1236.15 943.346 Q1239.81 946.083 1246.21 946.083 Q1252.61 946.083 1256.3 943.378 Q1259.96 940.641 1259.96 935.898 Q1259.96 931.22 1256.27 928.482 Q1252.58 925.745 1246.21 925.745 Q1239.88 925.745 1236.19 928.482 Q1232.46 931.22 1232.46 935.898 M1227.5 935.898 Q1227.5 928.259 1232.46 923.899 Q1237.43 919.538 1246.21 919.538 Q1254.96 919.538 1259.96 923.899 Q1264.93 928.259 1264.93 935.898 Q1264.93 943.569 1259.96 947.93 Q1254.96 952.258 1246.21 952.258 Q1237.43 952.258 1232.46 947.93 Q1227.5 943.569 1227.5 935.898 Z" fill="#000000" fill-rule="nonzero" fill-opacity="1" /><path clip-path="url(#clip970)" d="M1242.49 880.198 L1264 880.198 L1264 886.055 L1242.68 886.055 Q1237.62 886.055 1235.1 888.028 Q1232.59 890.002 1232.59 893.948 Q1232.59 898.691 1235.61 901.428 Q1238.64 904.165 1243.86 904.165 L1264 904.165 L1264 910.054 L1228.36 910.054 L1228.36 904.165 L1233.89 904.165 Q1230.68 902.065 1229.09 899.232 Q1227.5 896.367 1227.5 892.643 Q1227.5 886.5 1231.32 883.349 Q1235.1 880.198 1242.49 880.198 Z" fill="#000000" fill-rule="nonzero" fill-opacity="1" /><path clip-path="url(#clip970)" d="M1214.48 850.471 L1219.35 850.471 L1219.35 856.072 Q1219.35 859.223 1220.62 860.465 Q1221.9 861.674 1225.21 861.674 L1228.36 861.674 L1228.36 852.03 L1232.91 852.03 L1232.91 861.674 L1264 861.674 L1264 867.562 L1232.91 867.562 L1232.91 873.164 L1228.36 873.164 L1228.36 867.562 L1225.87 867.562 Q1219.92 867.562 1217.22 864.793 Q1214.48 862.024 1214.48 856.009 L1214.48 850.471 Z" fill="#000000" fill-rule="nonzero" fill-opacity="1" /><path clip-path="url(#clip970)" d="M1255.92 849.484 L1255.92 842.768 L1264 842.768 L1264 849.484 L1255.92 849.484 Z" fill="#000000" fill-rule="nonzero" fill-opacity="1" /><path clip-path="url(#clip970)" d="M1214.48 808.871 L1214.48 803.014 L1264 803.014 L1264 808.871 L1214.48 808.871 Z" fill="#000000" fill-rule="nonzero" fill-opacity="1" /><path clip-path="url(#clip970)" d="M1244.72 760.268 L1247.58 760.268 L1247.58 787.195 Q1253.63 786.813 1256.81 783.567 Q1259.96 780.289 1259.96 774.464 Q1259.96 771.09 1259.13 767.939 Q1258.31 764.756 1256.65 761.637 L1262.19 761.637 Q1263.53 764.788 1264.23 768.098 Q1264.93 771.408 1264.93 774.814 Q1264.93 783.344 1259.96 788.341 Q1255 793.306 1246.53 793.306 Q1237.78 793.306 1232.65 788.596 Q1227.5 783.853 1227.5 775.833 Q1227.5 768.639 1232.14 764.47 Q1236.76 760.268 1244.72 760.268 M1243 766.125 Q1238.19 766.189 1235.33 768.83 Q1232.46 771.44 1232.46 775.769 Q1232.46 780.671 1235.23 783.631 Q1238 786.559 1243.03 787.004 L1243 766.125 Z" fill="#000000" fill-rule="nonzero" fill-opacity="1" /><path clip-path="url(#clip970)" d="M1228.36 754.858 L1228.36 748.651 L1258.28 737.511 L1228.36 726.371 L1228.36 720.165 L1264 733.533 L1264 741.49 L1228.36 754.858 Z" fill="#000000" fill-rule="nonzero" fill-opacity="1" /><path clip-path="url(#clip970)" d="M1244.72 681.588 L1247.58 681.588 L1247.58 708.515 Q1253.63 708.133 1256.81 704.887 Q1259.96 701.608 1259.96 695.784 Q1259.96 692.41 1259.13 689.259 Q1258.31 686.076 1256.65 682.957 L1262.19 682.957 Q1263.53 686.108 1264.23 689.418 Q1264.93 692.728 1264.93 696.134 Q1264.93 704.664 1259.96 709.661 Q1255 714.626 1246.53 714.626 Q1237.78 714.626 1232.65 709.916 Q1227.5 705.173 1227.5 697.152 Q1227.5 689.959 1232.14 685.79 Q1236.76 681.588 1244.72 681.588 M1243 687.445 Q1238.19 687.508 1235.33 690.15 Q1232.46 692.76 1232.46 697.089 Q1232.46 701.99 1235.23 704.95 Q1238 707.879 1243.03 708.324 L1243 687.445 Z" fill="#000000" fill-rule="nonzero" fill-opacity="1" /><path clip-path="url(#clip970)" d="M1214.48 671.976 L1214.48 666.12 L1264 666.12 L1264 671.976 L1214.48 671.976 Z" fill="#000000" fill-rule="nonzero" fill-opacity="1" /><path clip-path="url(#clip970)" d="M1214.48 633.686 L1214.48 620.191 L1219.03 620.191 L1219.03 627.83 L1268.05 627.83 L1268.05 620.191 L1272.6 620.191 L1272.6 633.686 L1214.48 633.686 Z" fill="#000000" fill-rule="nonzero" fill-opacity="1" /><path clip-path="url(#clip970)" d="M1233 593.901 Q1233 598.739 1236.5 601.349 Q1240.16 604.086 1246.21 604.086 Q1252.61 604.086 1256.3 601.38 Q1259.96 598.643 1259.96 593.901 Q1259.96 589.222 1256.27 586.485 Q1252.58 583.747 1246.21 583.747 Q1240.39 583.747 1236.5 586.485 Q1233 588.999 1233 593.901 M1228.36 593.901 L1228.36 574.453 L1234.21 574.453 L1234.21 581.01 Q1239.18 577.541 1246.21 577.541 Q1254.96 577.541 1259.93 581.901 Q1264.93 586.262 1264.93 593.901 Q1264.93 601.571 1259.93 605.9 Q1254.96 610.261 1246.21 610.261 Q1237.4 610.261 1232.46 605.9 Q1228.36 602.303 1228.36 593.901 Z" fill="#000000" fill-rule="nonzero" fill-opacity="1" /><path clip-path="url(#clip970)" d="M1214.48 552.715 L1272.6 552.715 L1272.6 566.21 L1268.05 566.21 L1268.05 558.603 L1219.03 558.603 L1219.03 566.21 L1214.48 566.21 L1214.48 552.715 Z" fill="#000000" fill-rule="nonzero" fill-opacity="1" /><polyline clip-path="url(#clip973)" style="stroke:#009af9; stroke-linecap:round; stroke-linejoin:round; stroke-width:6; stroke-opacity:1; fill:none" points="1445.8,127.244 1463.31,192.031 1480.94,257.145 1498.67,322.562 1516.52,388.248 1534.48,454.156 1552.56,520.23 1570.76,586.394 1589.09,652.549 1607.54,718.569 1626.11,784.293 1644.82,849.512 1663.66,913.961 1682.63,977.301 1701.75,1039.1 1721.01,1098.83 1740.41,1155.81 1759.96,1209.23 1779.66,1258.11 1799.52,1301.32 1819.54,1337.62 1839.66,1365.67 1859.53,1384.12 1877.59,1392.31 1886.07,1393.25 1894.55,1392.31 1912.6,1384.12 1932.48,1365.67 1952.6,1337.62 1972.62,1301.32 1992.48,1258.11 2012.18,1209.23 2031.73,1155.81 2051.13,1098.83 2070.39,1039.1 2089.5,977.301 2108.48,913.961 2127.32,849.512 2146.02,784.293 2164.6,718.569 2183.05,652.549 2201.37,586.394 2219.57,520.23 2237.65,454.156 2255.62,388.248 2273.47,322.562 2291.2,257.145 2308.82,192.031 2326.34,127.244 "/>
<path clip-path="url(#clip973)" d="M1886.07 1403.25 L1877.41 1398.25 L1877.41 1388.25 L1886.07 1383.25 L1894.73 1388.25 L1894.73 1398.25 Z" fill="#ff0000" fill-rule="evenodd" fill-opacity="1" stroke="none"/>
<path clip-path="url(#clip970)" d="M219.38 80 L2352.76 80 L2352.76 0 L219.38 0  Z" fill="#ffffff" fill-rule="evenodd" fill-opacity="1"/>
<defs>
  <clipPath id="clip974">
    <rect x="219" y="0" width="2134" height="81"/>
  </clipPath>
</defs>
<path clip-path="url(#clip970)" d="M405.153 16.1319 L405.153 35.6109 L413.972 35.6109 Q418.868 35.6109 421.541 33.0762 Q424.215 30.5415 424.215 25.854 Q424.215 21.2013 421.541 18.6666 Q418.868 16.1319 413.972 16.1319 L405.153 16.1319 M398.139 10.368 L413.972 10.368 Q422.687 10.368 427.132 14.3263 Q431.611 18.2499 431.611 25.854 Q431.611 33.5276 427.132 37.4512 Q422.687 41.3748 413.972 41.3748 L405.153 41.3748 L405.153 62.208 L398.139 62.208 L398.139 10.368 Z" fill="#000000" fill-rule="nonzero" fill-opacity="1" /><path clip-path="url(#clip970)" d="M462.027 29.2915 Q460.951 28.6665 459.666 28.3887 Q458.416 28.0762 456.888 28.0762 Q451.472 28.0762 448.555 31.6179 Q445.673 35.1248 445.673 41.722 L445.673 62.208 L439.25 62.208 L439.25 23.3193 L445.673 23.3193 L445.673 29.361 Q447.687 25.8193 450.916 24.1179 Q454.145 22.3818 458.763 22.3818 Q459.423 22.3818 460.222 22.486 Q461.02 22.5554 461.993 22.729 L462.027 29.2915 Z" fill="#000000" fill-rule="nonzero" fill-opacity="1" /><path clip-path="url(#clip970)" d="M482.236 27.7985 Q477.097 27.7985 474.111 31.8262 Q471.124 35.8193 471.124 42.7984 Q471.124 49.7775 474.076 53.8053 Q477.062 57.7983 482.236 57.7983 Q487.34 57.7983 490.326 53.7705 Q493.312 49.7428 493.312 42.7984 Q493.312 35.8887 490.326 31.8609 Q487.34 27.7985 482.236 27.7985 M482.236 22.3818 Q490.569 22.3818 495.326 27.7985 Q500.083 33.2151 500.083 42.7984 Q500.083 52.3469 495.326 57.7983 Q490.569 63.2149 482.236 63.2149 Q473.868 63.2149 469.111 57.7983 Q464.388 52.3469 464.388 42.7984 Q464.388 33.2151 469.111 27.7985 Q473.868 22.3818 482.236 22.3818 Z" fill="#000000" fill-rule="nonzero" fill-opacity="1" /><path clip-path="url(#clip970)" d="M530.36 8.18051 L530.36 13.493 L524.249 13.493 Q520.812 13.493 519.458 14.8819 Q518.138 16.2707 518.138 19.8818 L518.138 23.3193 L528.659 23.3193 L528.659 28.2846 L518.138 28.2846 L518.138 62.208 L511.715 62.208 L511.715 28.2846 L505.603 28.2846 L505.603 23.3193 L511.715 23.3193 L511.715 20.611 Q511.715 14.118 514.735 11.1666 Q517.756 8.18051 524.319 8.18051 L530.36 8.18051 Z" fill="#000000" fill-rule="nonzero" fill-opacity="1" /><path clip-path="url(#clip970)" d="M535.707 23.3193 L542.096 23.3193 L542.096 62.208 L535.707 62.208 L535.707 23.3193 M535.707 8.18051 L542.096 8.18051 L542.096 16.2707 L535.707 16.2707 L535.707 8.18051 Z" fill="#000000" fill-rule="nonzero" fill-opacity="1" /><path clip-path="url(#clip970)" d="M555.464 8.18051 L561.853 8.18051 L561.853 62.208 L555.464 62.208 L555.464 8.18051 Z" fill="#000000" fill-rule="nonzero" fill-opacity="1" /><path clip-path="url(#clip970)" d="M608.485 41.1664 L608.485 44.2914 L579.11 44.2914 Q579.527 50.8886 583.068 54.3608 Q586.645 57.7983 592.999 57.7983 Q596.679 57.7983 600.117 56.8955 Q603.589 55.9928 606.992 54.1872 L606.992 60.2288 Q603.554 61.6872 599.943 62.4511 Q596.332 63.2149 592.617 63.2149 Q583.311 63.2149 577.86 57.7983 Q572.443 52.3817 572.443 43.1456 Q572.443 33.597 577.582 28.0068 Q582.756 22.3818 591.506 22.3818 Q599.353 22.3818 603.902 27.4512 Q608.485 32.4859 608.485 41.1664 M602.096 39.2915 Q602.027 34.0484 599.145 30.9234 Q596.297 27.7985 591.575 27.7985 Q586.228 27.7985 582.999 30.8193 Q579.804 33.8401 579.318 39.3262 L602.096 39.2915 Z" fill="#000000" fill-rule="nonzero" fill-opacity="1" /><path clip-path="url(#clip970)" d="M641.853 10.368 L648.867 10.368 L648.867 56.3053 L674.11 56.3053 L674.11 62.208 L641.853 62.208 L641.853 10.368 Z" fill="#000000" fill-rule="nonzero" fill-opacity="1" /><path clip-path="url(#clip970)" d="M681.193 23.3193 L687.582 23.3193 L687.582 62.208 L681.193 62.208 L681.193 23.3193 M681.193 8.18051 L687.582 8.18051 L687.582 16.2707 L681.193 16.2707 L681.193 8.18051 Z" fill="#000000" fill-rule="nonzero" fill-opacity="1" /><path clip-path="url(#clip970)" d="M700.707 8.18051 L707.13 8.18051 L707.13 40.0901 L726.193 23.3193 L734.352 23.3193 L713.727 41.5137 L735.22 62.208 L726.887 62.208 L707.13 43.215 L707.13 62.208 L700.707 62.208 L700.707 8.18051 Z" fill="#000000" fill-rule="nonzero" fill-opacity="1" /><path clip-path="url(#clip970)" d="M772.859 41.1664 L772.859 44.2914 L743.484 44.2914 Q743.901 50.8886 747.442 54.3608 Q751.019 57.7983 757.373 57.7983 Q761.053 57.7983 764.491 56.8955 Q767.963 55.9928 771.366 54.1872 L771.366 60.2288 Q767.928 61.6872 764.317 62.4511 Q760.706 63.2149 756.991 63.2149 Q747.685 63.2149 742.234 57.7983 Q736.818 52.3817 736.818 43.1456 Q736.818 33.597 741.956 28.0068 Q747.13 22.3818 755.88 22.3818 Q763.727 22.3818 768.276 27.4512 Q772.859 32.4859 772.859 41.1664 M766.47 39.2915 Q766.401 34.0484 763.519 30.9234 Q760.672 27.7985 755.949 27.7985 Q750.602 27.7985 747.373 30.8193 Q744.179 33.8401 743.692 39.3262 L766.47 39.2915 Z" fill="#000000" fill-rule="nonzero" fill-opacity="1" /><path clip-path="url(#clip970)" d="M783.345 8.18051 L789.734 8.18051 L789.734 62.208 L783.345 62.208 L783.345 8.18051 Z" fill="#000000" fill-rule="nonzero" fill-opacity="1" /><path clip-path="url(#clip970)" d="M803.102 23.3193 L809.491 23.3193 L809.491 62.208 L803.102 62.208 L803.102 23.3193 M803.102 8.18051 L809.491 8.18051 L809.491 16.2707 L803.102 16.2707 L803.102 8.18051 Z" fill="#000000" fill-rule="nonzero" fill-opacity="1" /><path clip-path="url(#clip970)" d="M855.185 38.7359 L855.185 62.208 L848.796 62.208 L848.796 38.9442 Q848.796 33.4234 846.643 30.6804 Q844.491 27.9374 840.185 27.9374 Q835.011 27.9374 832.025 31.2359 Q829.039 34.5345 829.039 40.229 L829.039 62.208 L822.616 62.208 L822.616 8.18051 L829.039 8.18051 L829.039 29.361 Q831.331 25.854 834.421 24.1179 Q837.546 22.3818 841.609 22.3818 Q848.31 22.3818 851.747 26.5485 Q855.185 30.6804 855.185 38.7359 Z" fill="#000000" fill-rule="nonzero" fill-opacity="1" /><path clip-path="url(#clip970)" d="M882.997 27.7985 Q877.858 27.7985 874.872 31.8262 Q871.886 35.8193 871.886 42.7984 Q871.886 49.7775 874.838 53.8053 Q877.824 57.7983 882.997 57.7983 Q888.101 57.7983 891.088 53.7705 Q894.074 49.7428 894.074 42.7984 Q894.074 35.8887 891.088 31.8609 Q888.101 27.7985 882.997 27.7985 M882.997 22.3818 Q891.331 22.3818 896.087 27.7985 Q900.844 33.2151 900.844 42.7984 Q900.844 52.3469 896.087 57.7983 Q891.331 63.2149 882.997 63.2149 Q874.629 63.2149 869.872 57.7983 Q865.15 52.3469 865.15 42.7984 Q865.15 33.2151 869.872 27.7985 Q874.629 22.3818 882.997 22.3818 Z" fill="#000000" fill-rule="nonzero" fill-opacity="1" /><path clip-path="url(#clip970)" d="M926.504 27.7985 Q921.365 27.7985 918.379 31.8262 Q915.393 35.8193 915.393 42.7984 Q915.393 49.7775 918.344 53.8053 Q921.33 57.7983 926.504 57.7983 Q931.608 57.7983 934.594 53.7705 Q937.58 49.7428 937.58 42.7984 Q937.58 35.8887 934.594 31.8609 Q931.608 27.7985 926.504 27.7985 M926.504 22.3818 Q934.837 22.3818 939.594 27.7985 Q944.351 33.2151 944.351 42.7984 Q944.351 52.3469 939.594 57.7983 Q934.837 63.2149 926.504 63.2149 Q918.136 63.2149 913.379 57.7983 Q908.657 52.3469 908.657 42.7984 Q908.657 33.2151 913.379 27.7985 Q918.136 22.3818 926.504 22.3818 Z" fill="#000000" fill-rule="nonzero" fill-opacity="1" /><path clip-path="url(#clip970)" d="M980.531 29.2221 L980.531 8.18051 L986.92 8.18051 L986.92 62.208 L980.531 62.208 L980.531 56.3747 Q978.518 59.8469 975.427 61.5483 Q972.372 63.2149 968.066 63.2149 Q961.018 63.2149 956.573 57.59 Q952.164 51.965 952.164 42.7984 Q952.164 33.6318 956.573 28.0068 Q961.018 22.3818 968.066 22.3818 Q972.372 22.3818 975.427 24.0832 Q978.518 25.7499 980.531 29.2221 M958.761 42.7984 Q958.761 49.847 961.643 53.8747 Q964.559 57.8677 969.629 57.8677 Q974.698 57.8677 977.615 53.8747 Q980.531 49.847 980.531 42.7984 Q980.531 35.7498 977.615 31.7568 Q974.698 27.729 969.629 27.729 Q964.559 27.729 961.643 31.7568 Q958.761 35.7498 958.761 42.7984 Z" fill="#000000" fill-rule="nonzero" fill-opacity="1" /><path clip-path="url(#clip970)" d="M1024.87 24.4651 L1024.87 30.5068 Q1022.16 29.1179 1019.25 28.4235 Q1016.33 27.729 1013.2 27.729 Q1008.45 27.729 1006.05 29.1873 Q1003.69 30.6457 1003.69 33.5623 Q1003.69 35.7845 1005.39 37.0692 Q1007.09 38.3192 1012.23 39.4651 L1014.42 39.9512 Q1021.23 41.4095 1024.07 44.0831 Q1026.95 46.722 1026.95 51.4789 Q1026.95 56.8955 1022.65 60.0552 Q1018.38 63.2149 1010.88 63.2149 Q1007.75 63.2149 1004.35 62.5899 Q1000.98 61.9997 997.233 60.7844 L997.233 54.1872 Q1000.77 56.0275 1004.21 56.965 Q1007.65 57.8677 1011.02 57.8677 Q1015.53 57.8677 1017.96 56.34 Q1020.39 54.7775 1020.39 51.965 Q1020.39 49.3608 1018.62 47.972 Q1016.89 46.5831 1010.95 45.2984 L1008.73 44.7775 Q1002.79 43.5275 1000.15 40.9581 Q997.511 38.354 997.511 33.8401 Q997.511 28.354 1001.4 25.3679 Q1005.29 22.3818 1012.44 22.3818 Q1015.98 22.3818 1019.11 22.9027 Q1022.23 23.4235 1024.87 24.4651 Z" fill="#000000" fill-rule="nonzero" fill-opacity="1" /><path clip-path="url(#clip970)" d="M1079.42 8.18051 L1079.42 13.493 L1073.31 13.493 Q1069.87 13.493 1068.52 14.8819 Q1067.2 16.2707 1067.2 19.8818 L1067.2 23.3193 L1077.72 23.3193 L1077.72 28.2846 L1067.2 28.2846 L1067.2 62.208 L1060.77 62.208 L1060.77 28.2846 L1054.66 28.2846 L1054.66 23.3193 L1060.77 23.3193 L1060.77 20.611 Q1060.77 14.118 1063.79 11.1666 Q1066.82 8.18051 1073.38 8.18051 L1079.42 8.18051 Z" fill="#000000" fill-rule="nonzero" fill-opacity="1" /><path clip-path="url(#clip970)" d="M1099.84 27.7985 Q1094.7 27.7985 1091.71 31.8262 Q1088.73 35.8193 1088.73 42.7984 Q1088.73 49.7775 1091.68 53.8053 Q1094.66 57.7983 1099.84 57.7983 Q1104.94 57.7983 1107.93 53.7705 Q1110.91 49.7428 1110.91 42.7984 Q1110.91 35.8887 1107.93 31.8609 Q1104.94 27.7985 1099.84 27.7985 M1099.84 22.3818 Q1108.17 22.3818 1112.93 27.7985 Q1117.68 33.2151 1117.68 42.7984 Q1117.68 52.3469 1112.93 57.7983 Q1108.17 63.2149 1099.84 63.2149 Q1091.47 63.2149 1086.71 57.7983 Q1081.99 52.3469 1081.99 42.7984 Q1081.99 33.2151 1086.71 27.7985 Q1091.47 22.3818 1099.84 22.3818 Z" fill="#000000" fill-rule="nonzero" fill-opacity="1" /><path clip-path="url(#clip970)" d="M1150.81 29.2915 Q1149.73 28.6665 1148.45 28.3887 Q1147.2 28.0762 1145.67 28.0762 Q1140.25 28.0762 1137.34 31.6179 Q1134.45 35.1248 1134.45 41.722 L1134.45 62.208 L1128.03 62.208 L1128.03 23.3193 L1134.45 23.3193 L1134.45 29.361 Q1136.47 25.8193 1139.7 24.1179 Q1142.93 22.3818 1147.54 22.3818 Q1148.2 22.3818 1149 22.486 Q1149.8 22.5554 1150.77 22.729 L1150.81 29.2915 Z" fill="#000000" fill-rule="nonzero" fill-opacity="1" /><path clip-path="url(#clip970)" d="M1180.11 8.18051 L1186.5 8.18051 L1186.5 62.208 L1180.11 62.208 L1180.11 8.18051 Z" fill="#000000" fill-rule="nonzero" fill-opacity="1" /><path clip-path="url(#clip970)" d="M1199.87 23.3193 L1206.26 23.3193 L1206.26 62.208 L1199.87 62.208 L1199.87 23.3193 M1199.87 8.18051 L1206.26 8.18051 L1206.26 16.2707 L1199.87 16.2707 L1199.87 8.18051 Z" fill="#000000" fill-rule="nonzero" fill-opacity="1" /><path clip-path="url(#clip970)" d="M1251.95 38.7359 L1251.95 62.208 L1245.56 62.208 L1245.56 38.9442 Q1245.56 33.4234 1243.41 30.6804 Q1241.26 27.9374 1236.95 27.9374 Q1231.78 27.9374 1228.79 31.2359 Q1225.81 34.5345 1225.81 40.229 L1225.81 62.208 L1219.38 62.208 L1219.38 23.3193 L1225.81 23.3193 L1225.81 29.361 Q1228.1 25.854 1231.19 24.1179 Q1234.31 22.3818 1238.38 22.3818 Q1245.08 22.3818 1248.52 26.5485 Q1251.95 30.6804 1251.95 38.7359 Z" fill="#000000" fill-rule="nonzero" fill-opacity="1" /><path clip-path="url(#clip970)" d="M1297.96 41.1664 L1297.96 44.2914 L1268.59 44.2914 Q1269 50.8886 1272.54 54.3608 Q1276.12 57.7983 1282.47 57.7983 Q1286.15 57.7983 1289.59 56.8955 Q1293.06 55.9928 1296.47 54.1872 L1296.47 60.2288 Q1293.03 61.6872 1289.42 62.4511 Q1285.81 63.2149 1282.09 63.2149 Q1272.79 63.2149 1267.34 57.7983 Q1261.92 52.3817 1261.92 43.1456 Q1261.92 33.597 1267.06 28.0068 Q1272.23 22.3818 1280.98 22.3818 Q1288.83 22.3818 1293.38 27.4512 Q1297.96 32.4859 1297.96 41.1664 M1291.57 39.2915 Q1291.5 34.0484 1288.62 30.9234 Q1285.77 27.7985 1281.05 27.7985 Q1275.7 27.7985 1272.47 30.8193 Q1269.28 33.8401 1268.79 39.3262 L1291.57 39.2915 Z" fill="#000000" fill-rule="nonzero" fill-opacity="1" /><path clip-path="url(#clip970)" d="M1326.12 42.6595 Q1318.38 42.6595 1315.39 44.4303 Q1312.4 46.2011 1312.4 50.472 Q1312.4 53.8747 1314.63 55.8886 Q1316.88 57.8677 1320.74 57.8677 Q1326.05 57.8677 1329.24 54.1178 Q1332.47 50.3331 1332.47 44.0831 L1332.47 42.6595 L1326.12 42.6595 M1338.86 40.0206 L1338.86 62.208 L1332.47 62.208 L1332.47 56.3053 Q1330.29 59.8469 1327.02 61.5483 Q1323.76 63.2149 1319.04 63.2149 Q1313.06 63.2149 1309.52 59.8816 Q1306.02 56.5136 1306.02 50.8886 Q1306.02 44.3262 1310.39 40.9928 Q1314.8 37.6595 1323.52 37.6595 L1332.47 37.6595 L1332.47 37.0345 Q1332.47 32.6248 1329.56 30.229 Q1326.68 27.7985 1321.43 27.7985 Q1318.1 27.7985 1314.94 28.5971 Q1311.78 29.3957 1308.86 30.9929 L1308.86 25.0901 Q1312.37 23.736 1315.67 23.0763 Q1318.97 22.3818 1322.09 22.3818 Q1330.53 22.3818 1334.7 26.7568 Q1338.86 31.1318 1338.86 40.0206 Z" fill="#000000" fill-rule="nonzero" fill-opacity="1" /><path clip-path="url(#clip970)" d="M1374.56 29.2915 Q1373.48 28.6665 1372.2 28.3887 Q1370.95 28.0762 1369.42 28.0762 Q1364 28.0762 1361.08 31.6179 Q1358.2 35.1248 1358.2 41.722 L1358.2 62.208 L1351.78 62.208 L1351.78 23.3193 L1358.2 23.3193 L1358.2 29.361 Q1360.22 25.8193 1363.45 24.1179 Q1366.68 22.3818 1371.29 22.3818 Q1371.95 22.3818 1372.75 22.486 Q1373.55 22.5554 1374.52 22.729 L1374.56 29.2915 Z" fill="#000000" fill-rule="nonzero" fill-opacity="1" /><path clip-path="url(#clip970)" d="M1381.26 8.18051 L1387.65 8.18051 L1387.65 62.208 L1381.26 62.208 L1381.26 8.18051 Z" fill="#000000" fill-rule="nonzero" fill-opacity="1" /><path clip-path="url(#clip970)" d="M1417.2 65.8191 Q1414.49 72.7635 1411.92 74.8815 Q1409.35 76.9996 1405.04 76.9996 L1399.94 76.9996 L1399.94 71.6524 L1403.69 71.6524 Q1406.33 71.6524 1407.79 70.4024 Q1409.24 69.1524 1411.02 64.4997 L1412.16 61.583 L1396.43 23.3193 L1403.2 23.3193 L1415.36 53.7358 L1427.51 23.3193 L1434.28 23.3193 L1417.2 65.8191 Z" fill="#000000" fill-rule="nonzero" fill-opacity="1" /><path clip-path="url(#clip970)" d="M1471.88 56.3747 L1471.88 76.9996 L1465.46 76.9996 L1465.46 23.3193 L1471.88 23.3193 L1471.88 29.2221 Q1473.9 25.7499 1476.95 24.0832 Q1480.04 22.3818 1484.31 22.3818 Q1491.4 22.3818 1495.81 28.0068 Q1500.25 33.6318 1500.25 42.7984 Q1500.25 51.965 1495.81 57.59 Q1491.4 63.2149 1484.31 63.2149 Q1480.04 63.2149 1476.95 61.5483 Q1473.9 59.8469 1471.88 56.3747 M1493.62 42.7984 Q1493.62 35.7498 1490.7 31.7568 Q1487.82 27.729 1482.75 27.729 Q1477.68 27.729 1474.76 31.7568 Q1471.88 35.7498 1471.88 42.7984 Q1471.88 49.847 1474.76 53.8747 Q1477.68 57.8677 1482.75 57.8677 Q1487.82 57.8677 1490.7 53.8747 Q1493.62 49.847 1493.62 42.7984 Z" fill="#000000" fill-rule="nonzero" fill-opacity="1" /><path clip-path="url(#clip970)" d="M1528.51 42.6595 Q1520.77 42.6595 1517.79 44.4303 Q1514.8 46.2011 1514.8 50.472 Q1514.8 53.8747 1517.02 55.8886 Q1519.28 57.8677 1523.13 57.8677 Q1528.45 57.8677 1531.64 54.1178 Q1534.87 50.3331 1534.87 44.0831 L1534.87 42.6595 L1528.51 42.6595 M1541.26 40.0206 L1541.26 62.208 L1534.87 62.208 L1534.87 56.3053 Q1532.68 59.8469 1529.42 61.5483 Q1526.15 63.2149 1521.43 63.2149 Q1515.46 63.2149 1511.92 59.8816 Q1508.41 56.5136 1508.41 50.8886 Q1508.41 44.3262 1512.79 40.9928 Q1517.2 37.6595 1525.91 37.6595 L1534.87 37.6595 L1534.87 37.0345 Q1534.87 32.6248 1531.95 30.229 Q1529.07 27.7985 1523.83 27.7985 Q1520.49 27.7985 1517.33 28.5971 Q1514.17 29.3957 1511.26 30.9929 L1511.26 25.0901 Q1514.76 23.736 1518.06 23.0763 Q1521.36 22.3818 1524.49 22.3818 Q1532.92 22.3818 1537.09 26.7568 Q1541.26 31.1318 1541.26 40.0206 Z" fill="#000000" fill-rule="nonzero" fill-opacity="1" /><path clip-path="url(#clip970)" d="M1576.95 29.2915 Q1575.88 28.6665 1574.59 28.3887 Q1573.34 28.0762 1571.81 28.0762 Q1566.4 28.0762 1563.48 31.6179 Q1560.6 35.1248 1560.6 41.722 L1560.6 62.208 L1554.17 62.208 L1554.17 23.3193 L1560.6 23.3193 L1560.6 29.361 Q1562.61 25.8193 1565.84 24.1179 Q1569.07 22.3818 1573.69 22.3818 Q1574.35 22.3818 1575.15 22.486 Q1575.94 22.5554 1576.92 22.729 L1576.95 29.2915 Z" fill="#000000" fill-rule="nonzero" fill-opacity="1" /><path clip-path="url(#clip970)" d="M1601.33 42.6595 Q1593.58 42.6595 1590.6 44.4303 Q1587.61 46.2011 1587.61 50.472 Q1587.61 53.8747 1589.83 55.8886 Q1592.09 57.8677 1595.94 57.8677 Q1601.26 57.8677 1604.45 54.1178 Q1607.68 50.3331 1607.68 44.0831 L1607.68 42.6595 L1601.33 42.6595 M1614.07 40.0206 L1614.07 62.208 L1607.68 62.208 L1607.68 56.3053 Q1605.49 59.8469 1602.23 61.5483 Q1598.97 63.2149 1594.24 63.2149 Q1588.27 63.2149 1584.73 59.8816 Q1581.22 56.5136 1581.22 50.8886 Q1581.22 44.3262 1585.6 40.9928 Q1590.01 37.6595 1598.72 37.6595 L1607.68 37.6595 L1607.68 37.0345 Q1607.68 32.6248 1604.76 30.229 Q1601.88 27.7985 1596.64 27.7985 Q1593.31 27.7985 1590.15 28.5971 Q1586.99 29.3957 1584.07 30.9929 L1584.07 25.0901 Q1587.58 23.736 1590.88 23.0763 Q1594.17 22.3818 1597.3 22.3818 Q1605.74 22.3818 1609.9 26.7568 Q1614.07 31.1318 1614.07 40.0206 Z" fill="#000000" fill-rule="nonzero" fill-opacity="1" /><path clip-path="url(#clip970)" d="M1657.51 30.7846 Q1659.9 26.479 1663.24 24.4304 Q1666.57 22.3818 1671.08 22.3818 Q1677.16 22.3818 1680.46 26.6526 Q1683.76 30.8887 1683.76 38.7359 L1683.76 62.208 L1677.33 62.208 L1677.33 38.9442 Q1677.33 33.354 1675.35 30.6457 Q1673.37 27.9374 1669.31 27.9374 Q1664.35 27.9374 1661.47 31.2359 Q1658.58 34.5345 1658.58 40.229 L1658.58 62.208 L1652.16 62.208 L1652.16 38.9442 Q1652.16 33.3193 1650.18 30.6457 Q1648.2 27.9374 1644.07 27.9374 Q1639.17 27.9374 1636.29 31.2707 Q1633.41 34.5693 1633.41 40.229 L1633.41 62.208 L1626.99 62.208 L1626.99 23.3193 L1633.41 23.3193 L1633.41 29.361 Q1635.6 25.7846 1638.65 24.0832 Q1641.71 22.3818 1645.91 22.3818 Q1650.15 22.3818 1653.1 24.5346 Q1656.08 26.6874 1657.51 30.7846 Z" fill="#000000" fill-rule="nonzero" fill-opacity="1" /><path clip-path="url(#clip970)" d="M1729.76 41.1664 L1729.76 44.2914 L1700.39 44.2914 Q1700.81 50.8886 1704.35 54.3608 Q1707.92 57.7983 1714.28 57.7983 Q1717.96 57.7983 1721.4 56.8955 Q1724.87 55.9928 1728.27 54.1872 L1728.27 60.2288 Q1724.83 61.6872 1721.22 62.4511 Q1717.61 63.2149 1713.9 63.2149 Q1704.59 63.2149 1699.14 57.7983 Q1693.72 52.3817 1693.72 43.1456 Q1693.72 33.597 1698.86 28.0068 Q1704.03 22.3818 1712.78 22.3818 Q1720.63 22.3818 1725.18 27.4512 Q1729.76 32.4859 1729.76 41.1664 M1723.37 39.2915 Q1723.31 34.0484 1720.42 30.9234 Q1717.58 27.7985 1712.85 27.7985 Q1707.51 27.7985 1704.28 30.8193 Q1701.08 33.8401 1700.6 39.3262 L1723.37 39.2915 Z" fill="#000000" fill-rule="nonzero" fill-opacity="1" /><path clip-path="url(#clip970)" d="M1746.57 12.2777 L1746.57 23.3193 L1759.73 23.3193 L1759.73 28.2846 L1746.57 28.2846 L1746.57 49.3956 Q1746.57 54.1525 1747.85 55.5066 Q1749.17 56.8608 1753.17 56.8608 L1759.73 56.8608 L1759.73 62.208 L1753.17 62.208 Q1745.77 62.208 1742.96 59.465 Q1740.15 56.6872 1740.15 49.3956 L1740.15 28.2846 L1735.46 28.2846 L1735.46 23.3193 L1740.15 23.3193 L1740.15 12.2777 L1746.57 12.2777 Z" fill="#000000" fill-rule="nonzero" fill-opacity="1" /><path clip-path="url(#clip970)" d="M1790.67 29.2915 Q1789.59 28.6665 1788.3 28.3887 Q1787.05 28.0762 1785.53 28.0762 Q1780.11 28.0762 1777.19 31.6179 Q1774.31 35.1248 1774.31 41.722 L1774.31 62.208 L1767.89 62.208 L1767.89 23.3193 L1774.31 23.3193 L1774.31 29.361 Q1776.33 25.8193 1779.55 24.1179 Q1782.78 22.3818 1787.4 22.3818 Q1788.06 22.3818 1788.86 22.486 Q1789.66 22.5554 1790.63 22.729 L1790.67 29.2915 Z" fill="#000000" fill-rule="nonzero" fill-opacity="1" /><path clip-path="url(#clip970)" d="M1797.37 23.3193 L1803.76 23.3193 L1803.76 62.208 L1797.37 62.208 L1797.37 23.3193 M1797.37 8.18051 L1803.76 8.18051 L1803.76 16.2707 L1797.37 16.2707 L1797.37 8.18051 Z" fill="#000000" fill-rule="nonzero" fill-opacity="1" /><path clip-path="url(#clip970)" d="M1814.35 23.3193 L1844.69 23.3193 L1844.69 29.1526 L1820.67 57.1039 L1844.69 57.1039 L1844.69 62.208 L1813.48 62.208 L1813.48 56.3747 L1837.51 28.4235 L1814.35 28.4235 L1814.35 23.3193 Z" fill="#000000" fill-rule="nonzero" fill-opacity="1" /><path clip-path="url(#clip970)" d="M1887.71 41.1664 L1887.71 44.2914 L1858.34 44.2914 Q1858.76 50.8886 1862.3 54.3608 Q1865.87 57.7983 1872.23 57.7983 Q1875.91 57.7983 1879.35 56.8955 Q1882.82 55.9928 1886.22 54.1872 L1886.22 60.2288 Q1882.78 61.6872 1879.17 62.4511 Q1875.56 63.2149 1871.85 63.2149 Q1862.54 63.2149 1857.09 57.7983 Q1851.67 52.3817 1851.67 43.1456 Q1851.67 33.597 1856.81 28.0068 Q1861.99 22.3818 1870.74 22.3818 Q1878.58 22.3818 1883.13 27.4512 Q1887.71 32.4859 1887.71 41.1664 M1881.33 39.2915 Q1881.26 34.0484 1878.37 30.9234 Q1875.53 27.7985 1870.8 27.7985 Q1865.46 27.7985 1862.23 30.8193 Q1859.03 33.8401 1858.55 39.3262 L1881.33 39.2915 Z" fill="#000000" fill-rule="nonzero" fill-opacity="1" /><path clip-path="url(#clip970)" d="M1923.79 29.2221 L1923.79 8.18051 L1930.18 8.18051 L1930.18 62.208 L1923.79 62.208 L1923.79 56.3747 Q1921.78 59.8469 1918.69 61.5483 Q1915.63 63.2149 1911.33 63.2149 Q1904.28 63.2149 1899.83 57.59 Q1895.42 51.965 1895.42 42.7984 Q1895.42 33.6318 1899.83 28.0068 Q1904.28 22.3818 1911.33 22.3818 Q1915.63 22.3818 1918.69 24.0832 Q1921.78 25.7499 1923.79 29.2221 M1902.02 42.7984 Q1902.02 49.847 1904.9 53.8747 Q1907.82 57.8677 1912.89 57.8677 Q1917.96 57.8677 1920.87 53.8747 Q1923.79 49.847 1923.79 42.7984 Q1923.79 35.7498 1920.87 31.7568 Q1917.96 27.729 1912.89 27.729 Q1907.82 27.729 1904.9 31.7568 Q1902.02 35.7498 1902.02 42.7984 Z" fill="#000000" fill-rule="nonzero" fill-opacity="1" /><path clip-path="url(#clip970)" d="M1996.22 30.7846 Q1998.62 26.479 2001.95 24.4304 Q2005.28 22.3818 2009.8 22.3818 Q2015.87 22.3818 2019.17 26.6526 Q2022.47 30.8887 2022.47 38.7359 L2022.47 62.208 L2016.05 62.208 L2016.05 38.9442 Q2016.05 33.354 2014.07 30.6457 Q2012.09 27.9374 2008.03 27.9374 Q2003.06 27.9374 2000.18 31.2359 Q1997.3 34.5345 1997.3 40.229 L1997.3 62.208 L1990.87 62.208 L1990.87 38.9442 Q1990.87 33.3193 1988.89 30.6457 Q1986.91 27.9374 1982.78 27.9374 Q1977.89 27.9374 1975.01 31.2707 Q1972.12 34.5693 1972.12 40.229 L1972.12 62.208 L1965.7 62.208 L1965.7 23.3193 L1972.12 23.3193 L1972.12 29.361 Q1974.31 25.7846 1977.37 24.0832 Q1980.42 22.3818 1984.62 22.3818 Q1988.86 22.3818 1991.81 24.5346 Q1994.8 26.6874 1996.22 30.7846 Z" fill="#000000" fill-rule="nonzero" fill-opacity="1" /><path clip-path="url(#clip970)" d="M2050.28 27.7985 Q2045.14 27.7985 2042.16 31.8262 Q2039.17 35.8193 2039.17 42.7984 Q2039.17 49.7775 2042.12 53.8053 Q2045.11 57.7983 2050.28 57.7983 Q2055.39 57.7983 2058.37 53.7705 Q2061.36 49.7428 2061.36 42.7984 Q2061.36 35.8887 2058.37 31.8609 Q2055.39 27.7985 2050.28 27.7985 M2050.28 22.3818 Q2058.62 22.3818 2063.37 27.7985 Q2068.13 33.2151 2068.13 42.7984 Q2068.13 52.3469 2063.37 57.7983 Q2058.62 63.2149 2050.28 63.2149 Q2041.91 63.2149 2037.16 57.7983 Q2032.44 52.3469 2032.44 42.7984 Q2032.44 33.2151 2037.16 27.7985 Q2041.91 22.3818 2050.28 22.3818 Z" fill="#000000" fill-rule="nonzero" fill-opacity="1" /><path clip-path="url(#clip970)" d="M2104.31 29.2221 L2104.31 8.18051 L2110.7 8.18051 L2110.7 62.208 L2104.31 62.208 L2104.31 56.3747 Q2102.3 59.8469 2099.21 61.5483 Q2096.15 63.2149 2091.84 63.2149 Q2084.8 63.2149 2080.35 57.59 Q2075.94 51.965 2075.94 42.7984 Q2075.94 33.6318 2080.35 28.0068 Q2084.8 22.3818 2091.84 22.3818 Q2096.15 22.3818 2099.21 24.0832 Q2102.3 25.7499 2104.31 29.2221 M2082.54 42.7984 Q2082.54 49.847 2085.42 53.8747 Q2088.34 57.8677 2093.41 57.8677 Q2098.48 57.8677 2101.39 53.8747 Q2104.31 49.847 2104.31 42.7984 Q2104.31 35.7498 2101.39 31.7568 Q2098.48 27.729 2093.41 27.729 Q2088.34 27.729 2085.42 31.7568 Q2082.54 35.7498 2082.54 42.7984 Z" fill="#000000" fill-rule="nonzero" fill-opacity="1" /><path clip-path="url(#clip970)" d="M2157.12 41.1664 L2157.12 44.2914 L2127.75 44.2914 Q2128.16 50.8886 2131.71 54.3608 Q2135.28 57.7983 2141.64 57.7983 Q2145.32 57.7983 2148.75 56.8955 Q2152.23 55.9928 2155.63 54.1872 L2155.63 60.2288 Q2152.19 61.6872 2148.58 62.4511 Q2144.97 63.2149 2141.25 63.2149 Q2131.95 63.2149 2126.5 57.7983 Q2121.08 52.3817 2121.08 43.1456 Q2121.08 33.597 2126.22 28.0068 Q2131.39 22.3818 2140.14 22.3818 Q2147.99 22.3818 2152.54 27.4512 Q2157.12 32.4859 2157.12 41.1664 M2150.73 39.2915 Q2150.66 34.0484 2147.78 30.9234 Q2144.93 27.7985 2140.21 27.7985 Q2134.87 27.7985 2131.64 30.8193 Q2128.44 33.8401 2127.96 39.3262 L2150.73 39.2915 Z" fill="#000000" fill-rule="nonzero" fill-opacity="1" /><path clip-path="url(#clip970)" d="M2167.61 8.18051 L2174 8.18051 L2174 62.208 L2167.61 62.208 L2167.61 8.18051 Z" fill="#000000" fill-rule="nonzero" fill-opacity="1" /></svg>
