<?xml version="1.0" encoding="utf-8"?>
<svg xmlns="http://www.w3.org/2000/svg" xmlns:xlink="http://www.w3.org/1999/xlink" width="600" height="400" viewBox="0 0 2400 1600">
<defs>
  <clipPath id="clip750">
    <rect x="0" y="0" width="2400" height="1600"/>
  </clipPath>
</defs>
<path clip-path="url(#clip750)" d="
M0 1600 L2400 1600 L2400 0 L0 0  Z
  " fill="#ffffff" fill-rule="evenodd" fill-opacity="1"/>
<defs>
  <clipPath id="clip751">
    <rect x="480" y="0" width="1681" height="1600"/>
  </clipPath>
</defs>
<path clip-path="url(#clip750)" d="
M227.042 1423.18 L2352.76 1423.18 L2352.76 47.2441 L227.042 47.2441  Z
  " fill="#ffffff" fill-rule="evenodd" fill-opacity="1"/>
<defs>
  <clipPath id="clip752">
    <rect x="227" y="47" width="2127" height="1377"/>
  </clipPath>
</defs>
<polyline clip-path="url(#clip752)" style="stroke:#000000; stroke-width:2; stroke-opacity:0.1; fill:none" points="
  518.595,1423.18 518.595,47.2441 
  "/>
<polyline clip-path="url(#clip752)" style="stroke:#000000; stroke-width:2; stroke-opacity:0.1; fill:none" points="
  904.247,1423.18 904.247,47.2441 
  "/>
<polyline clip-path="url(#clip752)" style="stroke:#000000; stroke-width:2; stroke-opacity:0.1; fill:none" points="
  1289.9,1423.18 1289.9,47.2441 
  "/>
<polyline clip-path="url(#clip752)" style="stroke:#000000; stroke-width:2; stroke-opacity:0.1; fill:none" points="
  1675.55,1423.18 1675.55,47.2441 
  "/>
<polyline clip-path="url(#clip752)" style="stroke:#000000; stroke-width:2; stroke-opacity:0.1; fill:none" points="
  2061.2,1423.18 2061.2,47.2441 
  "/>
<polyline clip-path="url(#clip750)" style="stroke:#000000; stroke-width:4; stroke-opacity:1; fill:none" points="
  227.042,1423.18 2352.76,1423.18 
  "/>
<polyline clip-path="url(#clip750)" style="stroke:#000000; stroke-width:4; stroke-opacity:1; fill:none" points="
  518.595,1423.18 518.595,1404.28 
  "/>
<polyline clip-path="url(#clip750)" style="stroke:#000000; stroke-width:4; stroke-opacity:1; fill:none" points="
  904.247,1423.18 904.247,1404.28 
  "/>
<polyline clip-path="url(#clip750)" style="stroke:#000000; stroke-width:4; stroke-opacity:1; fill:none" points="
  1289.9,1423.18 1289.9,1404.28 
  "/>
<polyline clip-path="url(#clip750)" style="stroke:#000000; stroke-width:4; stroke-opacity:1; fill:none" points="
  1675.55,1423.18 1675.55,1404.28 
  "/>
<polyline clip-path="url(#clip750)" style="stroke:#000000; stroke-width:4; stroke-opacity:1; fill:none" points="
  2061.2,1423.18 2061.2,1404.28 
  "/>
<path clip-path="url(#clip750)" d="M 0 0 M495.262 1479.92 L511.581 1479.92 L511.581 1483.85 L489.637 1483.85 L489.637 1479.92 Q492.299 1477.16 496.882 1472.53 Q501.489 1467.88 502.669 1466.54 Q504.915 1464.01 505.794 1462.28 Q506.697 1460.52 506.697 1458.83 Q506.697 1456.07 504.753 1454.34 Q502.831 1452.6 499.729 1452.6 Q497.53 1452.6 495.077 1453.37 Q492.646 1454.13 489.868 1455.68 L489.868 1450.96 Q492.692 1449.82 495.146 1449.25 Q497.6 1448.67 499.637 1448.67 Q505.007 1448.67 508.202 1451.35 Q511.396 1454.04 511.396 1458.53 Q511.396 1460.66 510.586 1462.58 Q509.799 1464.48 507.692 1467.07 Q507.114 1467.74 504.012 1470.96 Q500.91 1474.15 495.262 1479.92 Z" fill="#000000" fill-rule="evenodd" fill-opacity="1" /><path clip-path="url(#clip750)" d="M 0 0 M516.651 1477.97 L521.535 1477.97 L521.535 1483.85 L516.651 1483.85 L516.651 1477.97 Z" fill="#000000" fill-rule="evenodd" fill-opacity="1" /><path clip-path="url(#clip750)" d="M 0 0 M526.651 1449.29 L545.007 1449.29 L545.007 1453.23 L530.933 1453.23 L530.933 1461.7 Q531.951 1461.35 532.97 1461.19 Q533.988 1461 535.007 1461 Q540.794 1461 544.174 1464.18 Q547.553 1467.35 547.553 1472.76 Q547.553 1478.34 544.081 1481.44 Q540.609 1484.52 534.289 1484.52 Q532.114 1484.52 529.845 1484.15 Q527.6 1483.78 525.192 1483.04 L525.192 1478.34 Q527.276 1479.48 529.498 1480.03 Q531.72 1480.59 534.197 1480.59 Q538.201 1480.59 540.539 1478.48 Q542.877 1476.38 542.877 1472.76 Q542.877 1469.15 540.539 1467.05 Q538.201 1464.94 534.197 1464.94 Q532.322 1464.94 530.447 1465.36 Q528.595 1465.77 526.651 1466.65 L526.651 1449.29 Z" fill="#000000" fill-rule="evenodd" fill-opacity="1" /><path clip-path="url(#clip750)" d="M 0 0 M876.041 1449.29 L894.398 1449.29 L894.398 1453.23 L880.324 1453.23 L880.324 1461.7 Q881.342 1461.35 882.361 1461.19 Q883.379 1461 884.398 1461 Q890.185 1461 893.564 1464.18 Q896.944 1467.35 896.944 1472.76 Q896.944 1478.34 893.472 1481.44 Q889.999 1484.52 883.68 1484.52 Q881.504 1484.52 879.236 1484.15 Q876.99 1483.78 874.583 1483.04 L874.583 1478.34 Q876.666 1479.48 878.888 1480.03 Q881.111 1480.59 883.587 1480.59 Q887.592 1480.59 889.93 1478.48 Q892.268 1476.38 892.268 1472.76 Q892.268 1469.15 889.93 1467.05 Q887.592 1464.94 883.587 1464.94 Q881.712 1464.94 879.837 1465.36 Q877.986 1465.77 876.041 1466.65 L876.041 1449.29 Z" fill="#000000" fill-rule="evenodd" fill-opacity="1" /><path clip-path="url(#clip750)" d="M 0 0 M902.013 1477.97 L906.897 1477.97 L906.897 1483.85 L902.013 1483.85 L902.013 1477.97 Z" fill="#000000" fill-rule="evenodd" fill-opacity="1" /><path clip-path="url(#clip750)" d="M 0 0 M921.967 1452.37 Q918.356 1452.37 916.527 1455.94 Q914.722 1459.48 914.722 1466.61 Q914.722 1473.71 916.527 1477.28 Q918.356 1480.82 921.967 1480.82 Q925.601 1480.82 927.407 1477.28 Q929.235 1473.71 929.235 1466.61 Q929.235 1459.48 927.407 1455.94 Q925.601 1452.37 921.967 1452.37 M921.967 1448.67 Q927.777 1448.67 930.833 1453.27 Q933.911 1457.86 933.911 1466.61 Q933.911 1475.33 930.833 1479.94 Q927.777 1484.52 921.967 1484.52 Q916.157 1484.52 913.078 1479.94 Q910.022 1475.33 910.022 1466.61 Q910.022 1457.86 913.078 1453.27 Q916.157 1448.67 921.967 1448.67 Z" fill="#000000" fill-rule="evenodd" fill-opacity="1" /><path clip-path="url(#clip750)" d="M 0 0 M1260.8 1449.29 L1283.02 1449.29 L1283.02 1451.28 L1270.48 1483.85 L1265.59 1483.85 L1277.4 1453.23 L1260.8 1453.23 L1260.8 1449.29 Z" fill="#000000" fill-rule="evenodd" fill-opacity="1" /><path clip-path="url(#clip750)" d="M 0 0 M1288.09 1477.97 L1292.98 1477.97 L1292.98 1483.85 L1288.09 1483.85 L1288.09 1477.97 Z" fill="#000000" fill-rule="evenodd" fill-opacity="1" /><path clip-path="url(#clip750)" d="M 0 0 M1298.09 1449.29 L1316.45 1449.29 L1316.45 1453.23 L1302.38 1453.23 L1302.38 1461.7 Q1303.39 1461.35 1304.41 1461.19 Q1305.43 1461 1306.45 1461 Q1312.24 1461 1315.62 1464.18 Q1319 1467.35 1319 1472.76 Q1319 1478.34 1315.52 1481.44 Q1312.05 1484.52 1305.73 1484.52 Q1303.56 1484.52 1301.29 1484.15 Q1299.04 1483.78 1296.64 1483.04 L1296.64 1478.34 Q1298.72 1479.48 1300.94 1480.03 Q1303.16 1480.59 1305.64 1480.59 Q1309.64 1480.59 1311.98 1478.48 Q1314.32 1476.38 1314.32 1472.76 Q1314.32 1469.15 1311.98 1467.05 Q1309.64 1464.94 1305.64 1464.94 Q1303.76 1464.94 1301.89 1465.36 Q1300.04 1465.77 1298.09 1466.65 L1298.09 1449.29 Z" fill="#000000" fill-rule="evenodd" fill-opacity="1" /><path clip-path="url(#clip750)" d="M 0 0 M1633.94 1479.92 L1641.58 1479.92 L1641.58 1453.55 L1633.27 1455.22 L1633.27 1450.96 L1641.53 1449.29 L1646.21 1449.29 L1646.21 1479.92 L1653.85 1479.92 L1653.85 1483.85 L1633.94 1483.85 L1633.94 1479.92 Z" fill="#000000" fill-rule="evenodd" fill-opacity="1" /><path clip-path="url(#clip750)" d="M 0 0 M1668.92 1452.37 Q1665.31 1452.37 1663.48 1455.94 Q1661.67 1459.48 1661.67 1466.61 Q1661.67 1473.71 1663.48 1477.28 Q1665.31 1480.82 1668.92 1480.82 Q1672.55 1480.82 1674.36 1477.28 Q1676.19 1473.71 1676.19 1466.61 Q1676.19 1459.48 1674.36 1455.94 Q1672.55 1452.37 1668.92 1452.37 M1668.92 1448.67 Q1674.73 1448.67 1677.78 1453.27 Q1680.86 1457.86 1680.86 1466.61 Q1680.86 1475.33 1677.78 1479.94 Q1674.73 1484.52 1668.92 1484.52 Q1663.11 1484.52 1660.03 1479.94 Q1656.97 1475.33 1656.97 1466.61 Q1656.97 1457.86 1660.03 1453.27 Q1663.11 1448.67 1668.92 1448.67 Z" fill="#000000" fill-rule="evenodd" fill-opacity="1" /><path clip-path="url(#clip750)" d="M 0 0 M1685.93 1477.97 L1690.82 1477.97 L1690.82 1483.85 L1685.93 1483.85 L1685.93 1477.97 Z" fill="#000000" fill-rule="evenodd" fill-opacity="1" /><path clip-path="url(#clip750)" d="M 0 0 M1705.89 1452.37 Q1702.28 1452.37 1700.45 1455.94 Q1698.64 1459.48 1698.64 1466.61 Q1698.64 1473.71 1700.45 1477.28 Q1702.28 1480.82 1705.89 1480.82 Q1709.52 1480.82 1711.33 1477.28 Q1713.15 1473.71 1713.15 1466.61 Q1713.15 1459.48 1711.33 1455.94 Q1709.52 1452.37 1705.89 1452.37 M1705.89 1448.67 Q1711.7 1448.67 1714.75 1453.27 Q1717.83 1457.86 1717.83 1466.61 Q1717.83 1475.33 1714.75 1479.94 Q1711.7 1484.52 1705.89 1484.52 Q1700.08 1484.52 1697 1479.94 Q1693.94 1475.33 1693.94 1466.61 Q1693.94 1457.86 1697 1453.27 Q1700.08 1448.67 1705.89 1448.67 Z" fill="#000000" fill-rule="evenodd" fill-opacity="1" /><path clip-path="url(#clip750)" d="M 0 0 M2020.89 1479.92 L2028.53 1479.92 L2028.53 1453.55 L2020.22 1455.22 L2020.22 1450.96 L2028.48 1449.29 L2033.16 1449.29 L2033.16 1479.92 L2040.8 1479.92 L2040.8 1483.85 L2020.89 1483.85 L2020.89 1479.92 Z" fill="#000000" fill-rule="evenodd" fill-opacity="1" /><path clip-path="url(#clip750)" d="M 0 0 M2049.9 1479.92 L2066.21 1479.92 L2066.21 1483.85 L2044.27 1483.85 L2044.27 1479.92 Q2046.93 1477.16 2051.52 1472.53 Q2056.12 1467.88 2057.3 1466.54 Q2059.55 1464.01 2060.43 1462.28 Q2061.33 1460.52 2061.33 1458.83 Q2061.33 1456.07 2059.39 1454.34 Q2057.46 1452.6 2054.36 1452.6 Q2052.16 1452.6 2049.71 1453.37 Q2047.28 1454.13 2044.5 1455.68 L2044.5 1450.96 Q2047.33 1449.82 2049.78 1449.25 Q2052.23 1448.67 2054.27 1448.67 Q2059.64 1448.67 2062.83 1451.35 Q2066.03 1454.04 2066.03 1458.53 Q2066.03 1460.66 2065.22 1462.58 Q2064.43 1464.48 2062.33 1467.07 Q2061.75 1467.74 2058.65 1470.96 Q2055.54 1474.15 2049.9 1479.92 Z" fill="#000000" fill-rule="evenodd" fill-opacity="1" /><path clip-path="url(#clip750)" d="M 0 0 M2071.28 1477.97 L2076.17 1477.97 L2076.17 1483.85 L2071.28 1483.85 L2071.28 1477.97 Z" fill="#000000" fill-rule="evenodd" fill-opacity="1" /><path clip-path="url(#clip750)" d="M 0 0 M2081.28 1449.29 L2099.64 1449.29 L2099.64 1453.23 L2085.57 1453.23 L2085.57 1461.7 Q2086.58 1461.35 2087.6 1461.19 Q2088.62 1461 2089.64 1461 Q2095.43 1461 2098.81 1464.18 Q2102.19 1467.35 2102.19 1472.76 Q2102.19 1478.34 2098.71 1481.44 Q2095.24 1484.52 2088.92 1484.52 Q2086.75 1484.52 2084.48 1484.15 Q2082.23 1483.78 2079.83 1483.04 L2079.83 1478.34 Q2081.91 1479.48 2084.13 1480.03 Q2086.35 1480.59 2088.83 1480.59 Q2092.83 1480.59 2095.17 1478.48 Q2097.51 1476.38 2097.51 1472.76 Q2097.51 1469.15 2095.17 1467.05 Q2092.83 1464.94 2088.83 1464.94 Q2086.96 1464.94 2085.08 1465.36 Q2083.23 1465.77 2081.28 1466.65 L2081.28 1449.29 Z" fill="#000000" fill-rule="evenodd" fill-opacity="1" /><path clip-path="url(#clip750)" d="M 0 0 M1225.64 1525.81 L1225.64 1562.76 L1233.4 1562.76 Q1243.24 1562.76 1247.79 1558.3 Q1252.37 1553.85 1252.37 1544.24 Q1252.37 1534.69 1247.79 1530.26 Q1243.24 1525.81 1233.4 1525.81 L1225.64 1525.81 M1219.21 1520.52 L1232.42 1520.52 Q1246.23 1520.52 1252.69 1526.28 Q1259.15 1532.01 1259.15 1544.24 Q1259.15 1556.52 1252.66 1562.28 Q1246.17 1568.04 1232.42 1568.04 L1219.21 1568.04 L1219.21 1520.52 Z" fill="#000000" fill-rule="evenodd" fill-opacity="1" /><path clip-path="url(#clip750)" d="M 0 0 M1281.5 1550.12 Q1274.4 1550.12 1271.66 1551.75 Q1268.92 1553.37 1268.92 1557.29 Q1268.92 1560.4 1270.96 1562.25 Q1273.03 1564.07 1276.56 1564.07 Q1281.43 1564.07 1284.36 1560.63 Q1287.32 1557.16 1287.32 1551.43 L1287.32 1550.12 L1281.5 1550.12 M1293.18 1547.71 L1293.18 1568.04 L1287.32 1568.04 L1287.32 1562.63 Q1285.32 1565.88 1282.32 1567.44 Q1279.33 1568.97 1275 1568.97 Q1269.53 1568.97 1266.28 1565.91 Q1263.07 1562.82 1263.07 1557.67 Q1263.07 1551.65 1267.08 1548.6 Q1271.12 1545.54 1279.11 1545.54 L1287.32 1545.54 L1287.32 1544.97 Q1287.32 1540.93 1284.65 1538.73 Q1282.01 1536.5 1277.2 1536.5 Q1274.14 1536.5 1271.25 1537.23 Q1268.35 1537.97 1265.68 1539.43 L1265.68 1534.02 Q1268.89 1532.78 1271.92 1532.17 Q1274.94 1531.54 1277.8 1531.54 Q1285.54 1531.54 1289.36 1535.55 Q1293.18 1539.56 1293.18 1547.71 Z" fill="#000000" fill-rule="evenodd" fill-opacity="1" /><path clip-path="url(#clip750)" d="M 0 0 M1314.15 1571.35 Q1311.67 1577.72 1309.31 1579.66 Q1306.96 1581.6 1303.01 1581.6 L1298.33 1581.6 L1298.33 1576.7 L1301.77 1576.7 Q1304.19 1576.7 1305.53 1575.56 Q1306.86 1574.41 1308.49 1570.14 L1309.54 1567.47 L1295.12 1532.4 L1301.33 1532.4 L1312.47 1560.28 L1323.61 1532.4 L1329.81 1532.4 L1314.15 1571.35 Z" fill="#000000" fill-rule="evenodd" fill-opacity="1" /><path clip-path="url(#clip750)" d="M 0 0 M1358.68 1533.45 L1358.68 1538.98 Q1356.2 1537.71 1353.52 1537.07 Q1350.85 1536.44 1347.99 1536.44 Q1343.63 1536.44 1341.43 1537.77 Q1339.27 1539.11 1339.27 1541.79 Q1339.27 1543.82 1340.82 1545 Q1342.38 1546.15 1347.09 1547.2 L1349.1 1547.64 Q1355.34 1548.98 1357.95 1551.43 Q1360.59 1553.85 1360.59 1558.21 Q1360.59 1563.17 1356.64 1566.07 Q1352.73 1568.97 1345.85 1568.97 Q1342.99 1568.97 1339.87 1568.39 Q1336.78 1567.85 1333.34 1566.74 L1333.34 1560.69 Q1336.59 1562.38 1339.74 1563.24 Q1342.89 1564.07 1345.98 1564.07 Q1350.12 1564.07 1352.35 1562.66 Q1354.57 1561.23 1354.57 1558.65 Q1354.57 1556.27 1352.95 1554.99 Q1351.36 1553.72 1345.92 1552.54 L1343.88 1552.07 Q1338.44 1550.92 1336.02 1548.56 Q1333.6 1546.18 1333.6 1542.04 Q1333.6 1537.01 1337.16 1534.27 Q1340.73 1531.54 1347.29 1531.54 Q1350.53 1531.54 1353.4 1532.01 Q1356.26 1532.49 1358.68 1533.45 Z" fill="#000000" fill-rule="evenodd" fill-opacity="1" /><polyline clip-path="url(#clip752)" style="stroke:#000000; stroke-width:2; stroke-opacity:0.1; fill:none" points="
  227.042,1375.53 2352.76,1375.53 
  "/>
<polyline clip-path="url(#clip752)" style="stroke:#000000; stroke-width:2; stroke-opacity:0.1; fill:none" points="
  227.042,939.938 2352.76,939.938 
  "/>
<polyline clip-path="url(#clip752)" style="stroke:#000000; stroke-width:2; stroke-opacity:0.1; fill:none" points="
  227.042,504.35 2352.76,504.35 
  "/>
<polyline clip-path="url(#clip752)" style="stroke:#000000; stroke-width:2; stroke-opacity:0.1; fill:none" points="
  227.042,68.7621 2352.76,68.7621 
  "/>
<polyline clip-path="url(#clip750)" style="stroke:#000000; stroke-width:4; stroke-opacity:1; fill:none" points="
  227.042,1423.18 227.042,47.2441 
  "/>
<polyline clip-path="url(#clip750)" style="stroke:#000000; stroke-width:4; stroke-opacity:1; fill:none" points="
  227.042,1375.53 245.94,1375.53 
  "/>
<polyline clip-path="url(#clip750)" style="stroke:#000000; stroke-width:4; stroke-opacity:1; fill:none" points="
  227.042,939.938 245.94,939.938 
  "/>
<polyline clip-path="url(#clip750)" style="stroke:#000000; stroke-width:4; stroke-opacity:1; fill:none" points="
  227.042,504.35 245.94,504.35 
  "/>
<polyline clip-path="url(#clip750)" style="stroke:#000000; stroke-width:4; stroke-opacity:1; fill:none" points="
  227.042,68.7621 245.94,68.7621 
  "/>
<path clip-path="url(#clip750)" d="M 0 0 M179.098 1361.33 Q175.487 1361.33 173.658 1364.89 Q171.852 1368.43 171.852 1375.56 Q171.852 1382.67 173.658 1386.23 Q175.487 1389.77 179.098 1389.77 Q182.732 1389.77 184.538 1386.23 Q186.366 1382.67 186.366 1375.56 Q186.366 1368.43 184.538 1364.89 Q182.732 1361.33 179.098 1361.33 M179.098 1357.62 Q184.908 1357.62 187.963 1362.23 Q191.042 1366.81 191.042 1375.56 Q191.042 1384.29 187.963 1388.89 Q184.908 1393.48 179.098 1393.48 Q173.288 1393.48 170.209 1388.89 Q167.153 1384.29 167.153 1375.56 Q167.153 1366.81 170.209 1362.23 Q173.288 1357.62 179.098 1357.62 Z" fill="#000000" fill-rule="evenodd" fill-opacity="1" /><path clip-path="url(#clip750)" d="M 0 0 M117.107 953.283 L124.746 953.283 L124.746 926.918 L116.436 928.584 L116.436 924.325 L124.7 922.658 L129.376 922.658 L129.376 953.283 L137.015 953.283 L137.015 957.218 L117.107 957.218 L117.107 953.283 Z" fill="#000000" fill-rule="evenodd" fill-opacity="1" /><path clip-path="url(#clip750)" d="M 0 0 M152.084 925.737 Q148.473 925.737 146.644 929.302 Q144.839 932.844 144.839 939.973 Q144.839 947.08 146.644 950.644 Q148.473 954.186 152.084 954.186 Q155.718 954.186 157.524 950.644 Q159.353 947.08 159.353 939.973 Q159.353 932.844 157.524 929.302 Q155.718 925.737 152.084 925.737 M152.084 922.033 Q157.894 922.033 160.95 926.64 Q164.028 931.223 164.028 939.973 Q164.028 948.7 160.95 953.306 Q157.894 957.89 152.084 957.89 Q146.274 957.89 143.195 953.306 Q140.14 948.7 140.14 939.973 Q140.14 931.223 143.195 926.64 Q146.274 922.033 152.084 922.033 Z" fill="#000000" fill-rule="evenodd" fill-opacity="1" /><path clip-path="url(#clip750)" d="M 0 0 M179.098 925.737 Q175.487 925.737 173.658 929.302 Q171.852 932.844 171.852 939.973 Q171.852 947.08 173.658 950.644 Q175.487 954.186 179.098 954.186 Q182.732 954.186 184.538 950.644 Q186.366 947.08 186.366 939.973 Q186.366 932.844 184.538 929.302 Q182.732 925.737 179.098 925.737 M179.098 922.033 Q184.908 922.033 187.963 926.64 Q191.042 931.223 191.042 939.973 Q191.042 948.7 187.963 953.306 Q184.908 957.89 179.098 957.89 Q173.288 957.89 170.209 953.306 Q167.153 948.7 167.153 939.973 Q167.153 931.223 170.209 926.64 Q173.288 922.033 179.098 922.033 Z" fill="#000000" fill-rule="evenodd" fill-opacity="1" /><path clip-path="url(#clip750)" d="M 0 0 M120.695 517.695 L137.015 517.695 L137.015 521.63 L115.07 521.63 L115.07 517.695 Q117.732 514.94 122.316 510.311 Q126.922 505.658 128.103 504.316 Q130.348 501.792 131.228 500.056 Q132.13 498.297 132.13 496.607 Q132.13 493.853 130.186 492.117 Q128.265 490.38 125.163 490.38 Q122.964 490.38 120.51 491.144 Q118.08 491.908 115.302 493.459 L115.302 488.737 Q118.126 487.603 120.58 487.024 Q123.033 486.445 125.07 486.445 Q130.441 486.445 133.635 489.13 Q136.829 491.816 136.829 496.306 Q136.829 498.436 136.019 500.357 Q135.232 502.255 133.126 504.848 Q132.547 505.519 129.445 508.737 Q126.343 511.931 120.695 517.695 Z" fill="#000000" fill-rule="evenodd" fill-opacity="1" /><path clip-path="url(#clip750)" d="M 0 0 M152.084 490.149 Q148.473 490.149 146.644 493.714 Q144.839 497.255 144.839 504.385 Q144.839 511.491 146.644 515.056 Q148.473 518.598 152.084 518.598 Q155.718 518.598 157.524 515.056 Q159.353 511.491 159.353 504.385 Q159.353 497.255 157.524 493.714 Q155.718 490.149 152.084 490.149 M152.084 486.445 Q157.894 486.445 160.95 491.052 Q164.028 495.635 164.028 504.385 Q164.028 513.112 160.95 517.718 Q157.894 522.302 152.084 522.302 Q146.274 522.302 143.195 517.718 Q140.14 513.112 140.14 504.385 Q140.14 495.635 143.195 491.052 Q146.274 486.445 152.084 486.445 Z" fill="#000000" fill-rule="evenodd" fill-opacity="1" /><path clip-path="url(#clip750)" d="M 0 0 M179.098 490.149 Q175.487 490.149 173.658 493.714 Q171.852 497.255 171.852 504.385 Q171.852 511.491 173.658 515.056 Q175.487 518.598 179.098 518.598 Q182.732 518.598 184.538 515.056 Q186.366 511.491 186.366 504.385 Q186.366 497.255 184.538 493.714 Q182.732 490.149 179.098 490.149 M179.098 486.445 Q184.908 486.445 187.963 491.052 Q191.042 495.635 191.042 504.385 Q191.042 513.112 187.963 517.718 Q184.908 522.302 179.098 522.302 Q173.288 522.302 170.209 517.718 Q167.153 513.112 167.153 504.385 Q167.153 495.635 170.209 491.052 Q173.288 486.445 179.098 486.445 Z" fill="#000000" fill-rule="evenodd" fill-opacity="1" /><path clip-path="url(#clip750)" d="M 0 0 M129.885 67.408 Q133.242 68.1256 135.117 70.3941 Q137.015 72.6626 137.015 75.9959 Q137.015 81.1116 133.496 83.9125 Q129.978 86.7134 123.496 86.7134 Q121.32 86.7134 119.006 86.2736 Q116.714 85.857 114.26 85.0005 L114.26 80.4866 Q116.205 81.6209 118.519 82.1996 Q120.834 82.7783 123.357 82.7783 Q127.755 82.7783 130.047 81.0422 Q132.362 79.3061 132.362 75.9959 Q132.362 72.9404 130.209 71.2274 Q128.08 69.4913 124.26 69.4913 L120.232 69.4913 L120.232 65.6487 L124.445 65.6487 Q127.894 65.6487 129.723 64.283 Q131.552 62.8941 131.552 60.3015 Q131.552 57.6395 129.654 56.2275 Q127.779 54.7923 124.26 54.7923 Q122.339 54.7923 120.14 55.209 Q117.941 55.6256 115.302 56.5053 L115.302 52.3386 Q117.964 51.5979 120.279 51.2275 Q122.617 50.8572 124.677 50.8572 Q130.001 50.8572 133.103 53.2877 Q136.204 55.6951 136.204 59.8154 Q136.204 62.6858 134.561 64.6765 Q132.917 66.6441 129.885 67.408 Z" fill="#000000" fill-rule="evenodd" fill-opacity="1" /><path clip-path="url(#clip750)" d="M 0 0 M152.084 54.5608 Q148.473 54.5608 146.644 58.1256 Q144.839 61.6673 144.839 68.7969 Q144.839 75.9033 146.644 79.4681 Q148.473 83.0098 152.084 83.0098 Q155.718 83.0098 157.524 79.4681 Q159.353 75.9033 159.353 68.7969 Q159.353 61.6673 157.524 58.1256 Q155.718 54.5608 152.084 54.5608 M152.084 50.8572 Q157.894 50.8572 160.95 55.4636 Q164.028 60.0469 164.028 68.7969 Q164.028 77.5237 160.95 82.1301 Q157.894 86.7134 152.084 86.7134 Q146.274 86.7134 143.195 82.1301 Q140.14 77.5237 140.14 68.7969 Q140.14 60.0469 143.195 55.4636 Q146.274 50.8572 152.084 50.8572 Z" fill="#000000" fill-rule="evenodd" fill-opacity="1" /><path clip-path="url(#clip750)" d="M 0 0 M179.098 54.5608 Q175.487 54.5608 173.658 58.1256 Q171.852 61.6673 171.852 68.7969 Q171.852 75.9033 173.658 79.4681 Q175.487 83.0098 179.098 83.0098 Q182.732 83.0098 184.538 79.4681 Q186.366 75.9033 186.366 68.7969 Q186.366 61.6673 184.538 58.1256 Q182.732 54.5608 179.098 54.5608 M179.098 50.8572 Q184.908 50.8572 187.963 55.4636 Q191.042 60.0469 191.042 68.7969 Q191.042 77.5237 187.963 82.1301 Q184.908 86.7134 179.098 86.7134 Q173.288 86.7134 170.209 82.1301 Q167.153 77.5237 167.153 68.7969 Q167.153 60.0469 170.209 55.4636 Q173.288 50.8572 179.098 50.8572 Z" fill="#000000" fill-rule="evenodd" fill-opacity="1" /><path clip-path="url(#clip750)" d="M 0 0 M16.4842 850.67 L16.4842 844.241 L64.0042 844.241 L64.0042 850.67 L16.4842 850.67 Z" fill="#000000" fill-rule="evenodd" fill-opacity="1" /><path clip-path="url(#clip750)" d="M 0 0 M42.4881 808.465 L64.0042 808.465 L64.0042 814.322 L42.679 814.322 Q37.6183 814.322 35.1038 816.295 Q32.5894 818.269 32.5894 822.215 Q32.5894 826.958 35.6131 829.695 Q38.6368 832.432 43.8567 832.432 L64.0042 832.432 L64.0042 838.321 L28.3562 838.321 L28.3562 832.432 L33.8944 832.432 Q30.6797 830.332 29.0883 827.499 Q27.4968 824.634 27.4968 820.91 Q27.4968 814.767 31.3163 811.616 Q35.1038 808.465 42.4881 808.465 Z" fill="#000000" fill-rule="evenodd" fill-opacity="1" /><path clip-path="url(#clip750)" d="M 0 0 M14.479 784.276 L19.3487 784.276 L19.3487 789.877 Q19.3487 793.028 20.6219 794.27 Q21.895 795.479 25.2052 795.479 L28.3562 795.479 L28.3562 785.835 L32.9077 785.835 L32.9077 795.479 L64.0042 795.479 L64.0042 801.368 L32.9077 801.368 L32.9077 806.969 L28.3562 806.969 L28.3562 801.368 L25.8736 801.368 Q19.9216 801.368 17.2162 798.598 Q14.479 795.829 14.479 789.814 L14.479 784.276 Z" fill="#000000" fill-rule="evenodd" fill-opacity="1" /><path clip-path="url(#clip750)" d="M 0 0 M44.7161 747.641 L47.5806 747.641 L47.5806 774.568 Q53.6281 774.186 56.8109 770.939 Q59.9619 767.661 59.9619 761.837 Q59.9619 758.463 59.1344 755.312 Q58.3069 752.129 56.6518 749.01 L62.1899 749.01 Q63.5267 752.161 64.227 755.471 Q64.9272 758.781 64.9272 762.187 Q64.9272 770.717 59.9619 775.714 Q54.9967 780.679 46.5303 780.679 Q37.7774 780.679 32.6531 775.968 Q27.4968 771.226 27.4968 763.205 Q27.4968 756.012 32.1438 751.842 Q36.7589 747.641 44.7161 747.641 M42.9973 753.497 Q38.1912 753.561 35.3266 756.203 Q32.4621 758.813 32.4621 763.142 Q32.4621 768.043 35.2312 771.003 Q38.0002 773.931 43.0292 774.377 L42.9973 753.497 Z" fill="#000000" fill-rule="evenodd" fill-opacity="1" /><path clip-path="url(#clip750)" d="M 0 0 M29.7248 715.844 L35.1993 715.844 Q33.8307 718.327 33.1623 720.841 Q32.4621 723.324 32.4621 725.87 Q32.4621 731.568 36.0905 734.719 Q39.6872 737.87 46.212 737.87 Q52.7369 737.87 56.3653 734.719 Q59.9619 731.568 59.9619 725.87 Q59.9619 723.324 59.2935 720.841 Q58.5933 718.327 57.2247 715.844 L62.6355 715.844 Q63.7814 718.295 64.3543 720.937 Q64.9272 723.547 64.9272 726.507 Q64.9272 734.559 59.8664 739.302 Q54.8057 744.044 46.212 744.044 Q37.491 744.044 32.4939 739.27 Q27.4968 734.464 27.4968 726.125 Q27.4968 723.419 28.0697 720.841 Q28.6108 718.263 29.7248 715.844 Z" fill="#000000" fill-rule="evenodd" fill-opacity="1" /><path clip-path="url(#clip750)" d="M 0 0 M18.2347 703.909 L28.3562 703.909 L28.3562 691.846 L32.9077 691.846 L32.9077 703.909 L52.2594 703.909 Q56.6199 703.909 57.8613 702.731 Q59.1026 701.521 59.1026 697.861 L59.1026 691.846 L64.0042 691.846 L64.0042 697.861 Q64.0042 704.641 61.4897 707.219 Q58.9434 709.797 52.2594 709.797 L32.9077 709.797 L32.9077 714.094 L28.3562 714.094 L28.3562 709.797 L18.2347 709.797 L18.2347 703.909 Z" fill="#000000" fill-rule="evenodd" fill-opacity="1" /><path clip-path="url(#clip750)" d="M 0 0 M44.7161 655.211 L47.5806 655.211 L47.5806 682.138 Q53.6281 681.756 56.8109 678.509 Q59.9619 675.231 59.9619 669.406 Q59.9619 666.033 59.1344 662.882 Q58.3069 659.699 56.6518 656.58 L62.1899 656.58 Q63.5267 659.731 64.227 663.041 Q64.9272 666.351 64.9272 669.757 Q64.9272 678.287 59.9619 683.284 Q54.9967 688.249 46.5303 688.249 Q37.7774 688.249 32.6531 683.538 Q27.4968 678.796 27.4968 670.775 Q27.4968 663.582 32.1438 659.412 Q36.7589 655.211 44.7161 655.211 M42.9973 661.067 Q38.1912 661.131 35.3266 663.773 Q32.4621 666.383 32.4621 670.711 Q32.4621 675.613 35.2312 678.573 Q38.0002 681.501 43.0292 681.947 L42.9973 661.067 Z" fill="#000000" fill-rule="evenodd" fill-opacity="1" /><path clip-path="url(#clip750)" d="M 0 0 M33.7671 625.61 L14.479 625.61 L14.479 619.754 L64.0042 619.754 L64.0042 625.61 L58.657 625.61 Q61.8398 627.456 63.3994 630.289 Q64.9272 633.09 64.9272 637.037 Q64.9272 643.498 59.771 647.572 Q54.6147 651.614 46.212 651.614 Q37.8093 651.614 32.6531 647.572 Q27.4968 643.498 27.4968 637.037 Q27.4968 633.09 29.0564 630.289 Q30.5842 627.456 33.7671 625.61 M46.212 645.567 Q52.6732 645.567 56.3653 642.925 Q60.0256 640.252 60.0256 635.605 Q60.0256 630.958 56.3653 628.284 Q52.6732 625.61 46.212 625.61 Q39.7508 625.61 36.0905 628.284 Q32.3984 630.958 32.3984 635.605 Q32.3984 640.252 36.0905 642.925 Q39.7508 645.567 46.212 645.567 Z" fill="#000000" fill-rule="evenodd" fill-opacity="1" /><polyline clip-path="url(#clip752)" style="stroke:#000000; stroke-width:4; stroke-opacity:0.8; fill:none" points="
  287.204,1384.24 287.204,1340.68 
  "/>
<polyline clip-path="url(#clip752)" style="stroke:#000000; stroke-width:4; stroke-opacity:0.8; fill:none" points="
  441.465,1362.46 441.465,1318.9 
  "/>
<polyline clip-path="url(#clip752)" style="stroke:#000000; stroke-width:4; stroke-opacity:0.8; fill:none" points="
  595.725,1275.34 595.725,1231.78 
  "/>
<polyline clip-path="url(#clip752)" style="stroke:#000000; stroke-width:4; stroke-opacity:0.8; fill:none" points="
  749.986,1070.61 749.986,1027.06 
  "/>
<polyline clip-path="url(#clip752)" style="stroke:#000000; stroke-width:4; stroke-opacity:0.8; fill:none" points="
  904.247,434.656 904.247,391.097 
  "/>
<polyline clip-path="url(#clip752)" style="stroke:#000000; stroke-width:4; stroke-opacity:0.8; fill:none" points="
  1058.51,129.744 1058.51,86.1857 
  "/>
<polyline clip-path="url(#clip752)" style="stroke:#000000; stroke-width:4; stroke-opacity:0.8; fill:none" points="
  1212.77,286.556 1212.77,242.997 
  "/>
<polyline clip-path="url(#clip752)" style="stroke:#000000; stroke-width:4; stroke-opacity:0.8; fill:none" points="
  1367.03,373.674 1367.03,330.115 
  "/>
<polyline clip-path="url(#clip752)" style="stroke:#000000; stroke-width:4; stroke-opacity:0.8; fill:none" points="
  1521.29,569.688 1521.29,526.13 
  "/>
<polyline clip-path="url(#clip752)" style="stroke:#000000; stroke-width:4; stroke-opacity:0.8; fill:none" points="
  1675.55,848.465 1675.55,804.906 
  "/>
<polyline clip-path="url(#clip752)" style="stroke:#000000; stroke-width:4; stroke-opacity:0.8; fill:none" points="
  1829.81,1092.39 1829.81,1048.84 
  "/>
<polyline clip-path="url(#clip752)" style="stroke:#000000; stroke-width:4; stroke-opacity:0.8; fill:none" points="
  1984.07,1275.34 1984.07,1231.78 
  "/>
<polyline clip-path="url(#clip752)" style="stroke:#000000; stroke-width:4; stroke-opacity:0.8; fill:none" points="
  2138.33,1345.04 2138.33,1301.48 
  "/>
<polyline clip-path="url(#clip752)" style="stroke:#000000; stroke-width:4; stroke-opacity:0.8; fill:none" points="
  2292.59,1375.53 2292.59,1331.97 
  "/>
<line clip-path="url(#clip752)" x1="303.204" y1="1384.24" x2="271.204" y2="1384.24" style="stroke:#000000; stroke-width:3.2; stroke-opacity:1"/>
<line clip-path="url(#clip752)" x1="303.204" y1="1340.68" x2="271.204" y2="1340.68" style="stroke:#000000; stroke-width:3.2; stroke-opacity:1"/>
<line clip-path="url(#clip752)" x1="457.465" y1="1362.46" x2="425.465" y2="1362.46" style="stroke:#000000; stroke-width:3.2; stroke-opacity:1"/>
<line clip-path="url(#clip752)" x1="457.465" y1="1318.9" x2="425.465" y2="1318.9" style="stroke:#000000; stroke-width:3.2; stroke-opacity:1"/>
<line clip-path="url(#clip752)" x1="611.725" y1="1275.34" x2="579.725" y2="1275.34" style="stroke:#000000; stroke-width:3.2; stroke-opacity:1"/>
<line clip-path="url(#clip752)" x1="611.725" y1="1231.78" x2="579.725" y2="1231.78" style="stroke:#000000; stroke-width:3.2; stroke-opacity:1"/>
<line clip-path="url(#clip752)" x1="765.986" y1="1070.61" x2="733.986" y2="1070.61" style="stroke:#000000; stroke-width:3.2; stroke-opacity:1"/>
<line clip-path="url(#clip752)" x1="765.986" y1="1027.06" x2="733.986" y2="1027.06" style="stroke:#000000; stroke-width:3.2; stroke-opacity:1"/>
<line clip-path="url(#clip752)" x1="920.247" y1="434.656" x2="888.247" y2="434.656" style="stroke:#000000; stroke-width:3.2; stroke-opacity:1"/>
<line clip-path="url(#clip752)" x1="920.247" y1="391.097" x2="888.247" y2="391.097" style="stroke:#000000; stroke-width:3.2; stroke-opacity:1"/>
<line clip-path="url(#clip752)" x1="1074.51" y1="129.744" x2="1042.51" y2="129.744" style="stroke:#000000; stroke-width:3.2; stroke-opacity:1"/>
<line clip-path="url(#clip752)" x1="1074.51" y1="86.1857" x2="1042.51" y2="86.1857" style="stroke:#000000; stroke-width:3.2; stroke-opacity:1"/>
<line clip-path="url(#clip752)" x1="1228.77" y1="286.556" x2="1196.77" y2="286.556" style="stroke:#000000; stroke-width:3.2; stroke-opacity:1"/>
<line clip-path="url(#clip752)" x1="1228.77" y1="242.997" x2="1196.77" y2="242.997" style="stroke:#000000; stroke-width:3.2; stroke-opacity:1"/>
<line clip-path="url(#clip752)" x1="1383.03" y1="373.674" x2="1351.03" y2="373.674" style="stroke:#000000; stroke-width:3.2; stroke-opacity:1"/>
<line clip-path="url(#clip752)" x1="1383.03" y1="330.115" x2="1351.03" y2="330.115" style="stroke:#000000; stroke-width:3.2; stroke-opacity:1"/>
<line clip-path="url(#clip752)" x1="1537.29" y1="569.688" x2="1505.29" y2="569.688" style="stroke:#000000; stroke-width:3.2; stroke-opacity:1"/>
<line clip-path="url(#clip752)" x1="1537.29" y1="526.13" x2="1505.29" y2="526.13" style="stroke:#000000; stroke-width:3.2; stroke-opacity:1"/>
<line clip-path="url(#clip752)" x1="1691.55" y1="848.465" x2="1659.55" y2="848.465" style="stroke:#000000; stroke-width:3.2; stroke-opacity:1"/>
<line clip-path="url(#clip752)" x1="1691.55" y1="804.906" x2="1659.55" y2="804.906" style="stroke:#000000; stroke-width:3.2; stroke-opacity:1"/>
<line clip-path="url(#clip752)" x1="1845.81" y1="1092.39" x2="1813.81" y2="1092.39" style="stroke:#000000; stroke-width:3.2; stroke-opacity:1"/>
<line clip-path="url(#clip752)" x1="1845.81" y1="1048.84" x2="1813.81" y2="1048.84" style="stroke:#000000; stroke-width:3.2; stroke-opacity:1"/>
<line clip-path="url(#clip752)" x1="2000.07" y1="1275.34" x2="1968.07" y2="1275.34" style="stroke:#000000; stroke-width:3.2; stroke-opacity:1"/>
<line clip-path="url(#clip752)" x1="2000.07" y1="1231.78" x2="1968.07" y2="1231.78" style="stroke:#000000; stroke-width:3.2; stroke-opacity:1"/>
<line clip-path="url(#clip752)" x1="2154.33" y1="1345.04" x2="2122.33" y2="1345.04" style="stroke:#000000; stroke-width:3.2; stroke-opacity:1"/>
<line clip-path="url(#clip752)" x1="2154.33" y1="1301.48" x2="2122.33" y2="1301.48" style="stroke:#000000; stroke-width:3.2; stroke-opacity:1"/>
<line clip-path="url(#clip752)" x1="2308.59" y1="1375.53" x2="2276.59" y2="1375.53" style="stroke:#000000; stroke-width:3.2; stroke-opacity:1"/>
<line clip-path="url(#clip752)" x1="2308.59" y1="1331.97" x2="2276.59" y2="1331.97" style="stroke:#000000; stroke-width:3.2; stroke-opacity:1"/>
<circle clip-path="url(#clip752)" cx="287.204" cy="1362.46" r="14" fill="#009af9" fill-rule="evenodd" fill-opacity="1" stroke="#000000" stroke-opacity="1" stroke-width="3.2"/>
<circle clip-path="url(#clip752)" cx="441.465" cy="1340.68" r="14" fill="#009af9" fill-rule="evenodd" fill-opacity="1" stroke="#000000" stroke-opacity="1" stroke-width="3.2"/>
<circle clip-path="url(#clip752)" cx="595.725" cy="1253.56" r="14" fill="#009af9" fill-rule="evenodd" fill-opacity="1" stroke="#000000" stroke-opacity="1" stroke-width="3.2"/>
<circle clip-path="url(#clip752)" cx="749.986" cy="1048.84" r="14" fill="#009af9" fill-rule="evenodd" fill-opacity="1" stroke="#000000" stroke-opacity="1" stroke-width="3.2"/>
<circle clip-path="url(#clip752)" cx="904.247" cy="412.877" r="14" fill="#009af9" fill-rule="evenodd" fill-opacity="1" stroke="#000000" stroke-opacity="1" stroke-width="3.2"/>
<circle clip-path="url(#clip752)" cx="1058.51" cy="107.965" r="14" fill="#009af9" fill-rule="evenodd" fill-opacity="1" stroke="#000000" stroke-opacity="1" stroke-width="3.2"/>
<circle clip-path="url(#clip752)" cx="1212.77" cy="264.777" r="14" fill="#009af9" fill-rule="evenodd" fill-opacity="1" stroke="#000000" stroke-opacity="1" stroke-width="3.2"/>
<circle clip-path="url(#clip752)" cx="1367.03" cy="351.894" r="14" fill="#009af9" fill-rule="evenodd" fill-opacity="1" stroke="#000000" stroke-opacity="1" stroke-width="3.2"/>
<circle clip-path="url(#clip752)" cx="1521.29" cy="547.909" r="14" fill="#009af9" fill-rule="evenodd" fill-opacity="1" stroke="#000000" stroke-opacity="1" stroke-width="3.2"/>
<circle clip-path="url(#clip752)" cx="1675.55" cy="826.685" r="14" fill="#009af9" fill-rule="evenodd" fill-opacity="1" stroke="#000000" stroke-opacity="1" stroke-width="3.2"/>
<circle clip-path="url(#clip752)" cx="1829.81" cy="1070.61" r="14" fill="#009af9" fill-rule="evenodd" fill-opacity="1" stroke="#000000" stroke-opacity="1" stroke-width="3.2"/>
<circle clip-path="url(#clip752)" cx="1984.07" cy="1253.56" r="14" fill="#009af9" fill-rule="evenodd" fill-opacity="1" stroke="#000000" stroke-opacity="1" stroke-width="3.2"/>
<circle clip-path="url(#clip752)" cx="2138.33" cy="1323.26" r="14" fill="#009af9" fill-rule="evenodd" fill-opacity="1" stroke="#000000" stroke-opacity="1" stroke-width="3.2"/>
<circle clip-path="url(#clip752)" cx="2292.59" cy="1353.75" r="14" fill="#009af9" fill-rule="evenodd" fill-opacity="1" stroke="#000000" stroke-opacity="1" stroke-width="3.2"/>
<polyline clip-path="url(#clip752)" style="stroke:#ff0000; stroke-width:8; stroke-opacity:1; fill:none" points="
  287.204,1360.89 291.223,1360.42 295.242,1359.93 299.26,1359.44 303.279,1358.92 307.298,1358.39 311.317,1357.85 315.336,1357.28 319.354,1356.7 323.373,1356.1 
  327.392,1355.48 331.411,1354.84 335.43,1354.18 339.449,1353.5 343.467,1352.8 347.486,1352.08 351.505,1351.33 355.524,1350.56 359.543,1349.77 363.561,1348.95 
  367.58,1348.11 371.599,1347.24 375.618,1346.34 379.637,1345.42 383.656,1344.46 387.674,1343.48 391.693,1342.46 395.712,1341.42 399.731,1340.34 403.75,1339.23 
  407.768,1338.08 411.787,1336.9 415.806,1335.68 419.825,1334.43 423.844,1333.14 427.863,1331.8 431.881,1330.43 435.9,1329.01 439.919,1327.55 443.938,1326.05 
  447.957,1324.5 451.975,1322.91 455.994,1321.26 460.013,1319.57 464.032,1317.82 468.051,1316.02 472.07,1314.17 476.088,1312.26 480.107,1310.3 484.126,1308.27 
  488.145,1306.19 492.164,1304.05 496.182,1301.84 500.201,1299.56 504.22,1297.22 508.239,1294.81 512.258,1292.33 516.277,1289.78 520.295,1287.15 524.314,1284.45 
  528.333,1281.67 532.352,1278.81 536.371,1275.87 540.389,1272.84 544.408,1269.73 548.427,1266.53 552.446,1263.24 556.465,1259.86 560.484,1256.38 564.502,1252.8 
  568.521,1249.13 572.54,1245.36 576.559,1241.48 580.578,1237.5 584.596,1233.41 588.615,1229.2 592.634,1224.89 596.653,1220.46 600.672,1215.92 604.691,1211.25 
  608.709,1206.47 612.728,1201.56 616.747,1196.52 620.766,1191.35 624.785,1186.06 628.803,1180.63 632.822,1175.06 636.841,1169.36 640.86,1163.52 644.879,1157.54 
  648.898,1151.41 652.916,1145.14 656.935,1138.72 660.954,1132.15 664.973,1125.43 668.992,1118.55 673.01,1111.52 677.029,1104.34 681.048,1097 685.067,1089.5 
  689.086,1081.83 693.105,1074.01 697.123,1066.03 701.142,1057.88 705.161,1049.57 709.18,1041.09 713.199,1032.45 717.217,1023.64 721.236,1014.67 725.255,1005.54 
  729.274,996.237 733.293,986.773 737.312,977.147 741.33,967.359 745.349,957.41 749.368,947.301 753.387,937.036 757.406,926.614 761.424,916.04 765.443,905.314 
  769.462,894.44 773.481,883.422 777.5,872.261 781.519,860.962 785.537,849.528 789.556,837.964 793.575,826.274 797.594,814.463 801.613,802.536 805.631,790.497 
  809.65,778.353 813.669,766.109 817.688,753.772 821.707,741.347 825.726,728.841 829.744,716.262 833.763,703.615 837.782,690.91 841.801,678.153 845.82,665.351 
  849.838,652.514 853.857,639.649 857.876,626.765 861.895,613.87 865.914,600.973 869.933,588.084 873.951,575.209 877.97,562.36 881.989,549.546 886.008,536.774 
  890.027,524.056 894.045,511.399 898.064,498.814 902.083,486.31 906.102,473.896 910.121,461.582 914.14,449.376 918.158,437.289 922.177,425.328 926.196,413.503 
  930.215,401.823 934.234,390.296 938.252,378.931 942.271,367.736 946.29,356.719 950.309,345.888 954.328,335.25 958.347,324.813 962.365,314.585 966.384,304.571 
  970.403,294.778 974.422,285.212 978.441,275.88 982.459,266.787 986.478,257.938 990.497,249.337 994.516,240.991 998.535,232.902 1002.55,225.075 1006.57,217.514 
  1010.59,210.22 1014.61,203.199 1018.63,196.451 1022.65,189.979 1026.67,183.785 1030.69,177.87 1034.7,172.236 1038.72,166.883 1042.74,161.812 1046.76,157.023 
  1050.78,152.516 1054.8,148.291 1058.82,144.346 1062.84,140.682 1066.85,137.296 1070.87,134.187 1074.89,131.353 1078.91,128.792 1082.93,126.503 1086.95,124.483 
  1090.97,122.728 1094.99,121.236 1099.01,120.005 1103.02,119.03 1107.04,118.309 1111.06,117.837 1115.08,117.612 1119.1,117.629 1123.12,117.884 1127.14,118.374 
  1131.16,119.093 1135.17,120.039 1139.19,121.206 1143.21,122.59 1147.23,124.187 1151.25,125.992 1155.27,128 1159.29,130.207 1163.31,132.608 1167.33,135.199 
  1171.34,137.974 1175.36,140.929 1179.38,144.06 1183.4,147.361 1187.42,150.827 1191.44,154.455 1195.46,158.24 1199.48,162.176 1203.49,166.259 1207.51,170.485 
  1211.53,174.849 1215.55,179.346 1219.57,183.973 1223.59,188.723 1227.61,193.594 1231.63,198.581 1235.64,203.68 1239.66,208.886 1243.68,214.195 1247.7,219.603 
  1251.72,225.106 1255.74,230.701 1259.76,236.383 1263.78,242.148 1267.8,247.994 1271.81,253.915 1275.83,259.908 1279.85,265.971 1283.87,272.099 1287.89,278.289 
  1291.91,284.538 1295.93,290.843 1299.95,297.2 1303.96,303.606 1307.98,310.058 1312,316.554 1316.02,323.09 1320.04,329.664 1324.06,336.272 1328.08,342.913 
  1332.1,349.583 1336.12,356.281 1340.13,363.003 1344.15,369.747 1348.17,376.511 1352.19,383.292 1356.21,390.089 1360.23,396.899 1364.25,403.72 1368.27,410.55 
  1372.28,417.388 1376.3,424.231 1380.32,431.077 1384.34,437.925 1388.36,444.772 1392.38,451.618 1396.4,458.461 1400.42,465.298 1404.44,472.129 1408.45,478.952 
  1412.47,485.766 1416.49,492.569 1420.51,499.36 1424.53,506.137 1428.55,512.9 1432.57,519.647 1436.59,526.378 1440.6,533.09 1444.62,539.783 1448.64,546.456 
  1452.66,553.108 1456.68,559.738 1460.7,566.345 1464.72,572.928 1468.74,579.487 1472.76,586.02 1476.77,592.526 1480.79,599.006 1484.81,605.459 1488.83,611.882 
  1492.85,618.277 1496.87,624.643 1500.89,630.978 1504.91,637.282 1508.92,643.555 1512.94,649.797 1516.96,656.006 1520.98,662.182 1525,668.325 1529.02,674.435 
  1533.04,680.511 1537.06,686.552 1541.08,692.559 1545.09,698.531 1549.11,704.468 1553.13,710.369 1557.15,716.234 1561.17,722.063 1565.19,727.856 1569.21,733.612 
  1573.23,739.332 1577.24,745.015 1581.26,750.661 1585.28,756.269 1589.3,761.84 1593.32,767.374 1597.34,772.871 1601.36,778.329 1605.38,783.75 1609.4,789.134 
  1613.41,794.479 1617.43,799.787 1621.45,805.056 1625.47,810.288 1629.49,815.482 1633.51,820.638 1637.53,825.755 1641.55,830.835 1645.56,835.878 1649.58,840.882 
  1653.6,845.848 1657.62,850.777 1661.64,855.668 1665.66,860.522 1669.68,865.338 1673.7,870.116 1677.71,874.857 1681.73,879.561 1685.75,884.228 1689.77,888.857 
  1693.79,893.45 1697.81,898.006 1701.83,902.525 1705.85,907.007 1709.87,911.453 1713.88,915.863 1717.9,920.237 1721.92,924.574 1725.94,928.876 1729.96,933.142 
  1733.98,937.372 1738,941.567 1742.02,945.727 1746.03,949.852 1750.05,953.942 1754.07,957.997 1758.09,962.018 1762.11,966.004 1766.13,969.956 1770.15,973.874 
  1774.17,977.758 1778.19,981.609 1782.2,985.426 1786.22,989.21 1790.24,992.961 1794.26,996.679 1798.28,1000.36 1802.3,1004.02 1806.32,1007.64 1810.34,1011.23 
  1814.35,1014.78 1818.37,1018.31 1822.39,1021.8 1826.41,1025.27 1830.43,1028.7 1834.45,1032.1 1838.47,1035.47 1842.49,1038.81 1846.51,1042.12 1850.52,1045.4 
  1854.54,1048.65 1858.56,1051.87 1862.58,1055.06 1866.6,1058.22 1870.62,1061.35 1874.64,1064.46 1878.66,1067.53 1882.67,1070.58 1886.69,1073.6 1890.71,1076.59 
  1894.73,1079.55 1898.75,1082.49 1902.77,1085.4 1906.79,1088.28 1910.81,1091.14 1914.83,1093.96 1918.84,1096.77 1922.86,1099.54 1926.88,1102.29 1930.9,1105.02 
  1934.92,1107.71 1938.94,1110.39 1942.96,1113.03 1946.98,1115.66 1950.99,1118.25 1955.01,1120.83 1959.03,1123.38 1963.05,1125.9 1967.07,1128.4 1971.09,1130.88 
  1975.11,1133.33 1979.13,1135.76 1983.15,1138.17 1987.16,1140.55 1991.18,1142.91 1995.2,1145.25 1999.22,1147.57 2003.24,1149.86 2007.26,1152.13 2011.28,1154.38 
  2015.3,1156.61 2019.31,1158.82 2023.33,1161 2027.35,1163.16 2031.37,1165.31 2035.39,1167.43 2039.41,1169.53 2043.43,1171.61 2047.45,1173.67 2051.47,1175.71 
  2055.48,1177.73 2059.5,1179.74 2063.52,1181.72 2067.54,1183.68 2071.56,1185.62 2075.58,1187.55 2079.6,1189.45 2083.62,1191.34 2087.63,1193.21 2091.65,1195.06 
  2095.67,1196.89 2099.69,1198.7 2103.71,1200.5 2107.73,1202.28 2111.75,1204.04 2115.77,1205.78 2119.79,1207.51 2123.8,1209.22 2127.82,1210.91 2131.84,1212.59 
  2135.86,1214.25 2139.88,1215.89 2143.9,1217.52 2147.92,1219.13 2151.94,1220.72 2155.95,1222.3 2159.97,1223.86 2163.99,1225.41 2168.01,1226.94 2172.03,1228.46 
  2176.05,1229.96 2180.07,1231.45 2184.09,1232.92 2188.1,1234.37 2192.12,1235.82 2196.14,1237.25 2200.16,1238.66 2204.18,1240.06 2208.2,1241.45 2212.22,1242.82 
  2216.24,1244.18 2220.26,1245.52 2224.27,1246.85 2228.29,1248.17 2232.31,1249.47 2236.33,1250.77 2240.35,1252.04 2244.37,1253.31 2248.39,1254.56 2252.41,1255.8 
  2256.42,1257.03 2260.44,1258.25 2264.46,1259.45 2268.48,1260.64 2272.5,1261.82 2276.52,1262.99 2280.54,1264.14 2284.56,1265.29 2288.58,1266.42 2292.59,1267.54 
  
  "/>
<polyline clip-path="url(#clip752)" style="stroke:#ffa500; stroke-width:4; stroke-opacity:1; fill:none" points="
  287.204,1360.64 293.911,1359.83 300.618,1358.97 307.325,1358.07 314.032,1357.12 320.739,1356.11 327.446,1355.05 334.153,1353.94 340.86,1352.76 347.567,1351.52 
  354.274,1350.22 360.981,1348.85 367.688,1347.4 374.395,1345.87 381.102,1344.26 387.809,1342.57 394.516,1340.79 401.223,1338.91 407.93,1336.94 414.637,1334.86 
  421.344,1332.67 428.051,1330.37 434.758,1327.94 441.465,1325.39 448.172,1322.71 454.879,1319.89 461.586,1316.92 468.293,1313.8 475,1310.52 481.707,1307.07 
  488.414,1303.45 495.121,1299.64 501.828,1295.65 508.535,1291.45 515.242,1287.04 521.949,1282.42 528.656,1277.57 535.363,1272.48 542.07,1267.14 548.777,1261.54 
  555.484,1255.68 562.19,1249.54 568.897,1243.11 575.604,1236.38 582.311,1229.34 589.018,1221.97 595.725,1214.28 602.432,1206.23 609.139,1197.83 615.846,1189.07 
  622.553,1179.92 629.26,1170.38 635.967,1160.45 642.674,1150.1 649.381,1139.34 656.088,1128.14 662.795,1116.5 669.502,1104.42 676.209,1091.89 682.916,1078.89 
  689.623,1065.43 696.33,1051.49 703.037,1037.08 709.744,1022.2 716.451,1006.84 723.158,990.999 729.865,974.687 736.572,957.907 743.279,940.663 749.986,922.965 
  756.693,904.82 763.4,886.241 770.107,867.244 776.814,847.846 783.521,828.065 790.228,807.923 796.935,787.444 803.642,766.654 810.349,745.58 817.056,724.255 
  823.763,702.709 830.47,680.976 837.177,659.09 843.884,637.094 850.591,615.028 857.298,592.935 864.005,570.856 870.712,548.835 877.419,526.916 884.126,505.135 
  890.833,483.549 897.54,462.201 904.247,441.138 910.954,420.405 917.661,400.029 924.368,380.067 931.075,360.564 937.782,341.557 944.489,323.07 951.196,305.149 
  957.903,287.835 964.61,271.151 971.317,255.114 978.024,239.771 984.731,225.137 991.438,211.219 998.145,198.059 1004.85,185.65 1011.56,174.012 1018.27,163.165 
  1024.97,153.085 1031.68,143.813 1038.39,135.312 1045.09,127.615 1051.8,120.689 1058.51,114.55 1065.21,109.172 1071.92,104.559 1078.63,100.686 1085.34,97.5491 
  1092.04,95.1308 1098.75,93.406 1105.46,92.3861 1112.16,91.9963 1118.87,92.2913 1125.58,93.1863 1132.28,94.6855 1138.99,96.811 1145.7,99.508 1152.41,102.668 
  1159.11,106.393 1165.82,110.661 1172.53,115.448 1179.23,120.734 1185.94,126.494 1192.65,132.708 1199.35,139.119 1206.06,145.846 1212.77,152.971 1219.48,160.474 
  1226.18,168.334 1232.89,176.531 1239.6,185.044 1246.3,193.854 1253.01,202.942 1259.72,212.274 1266.42,221.779 1273.13,231.511 1279.84,241.454 1286.55,251.59 
  1293.25,261.905 1299.96,272.383 1306.67,282.992 1313.37,293.711 1320.08,304.553 1326.79,315.503 1333.49,326.549 1340.2,337.68 1346.91,348.883 1353.62,360.125 
  1360.32,371.419 1367.03,382.754 1373.74,394.122 1380.44,405.514 1387.15,416.92 1393.86,428.332 1400.56,439.743 1407.27,451.145 1413.98,462.524 1420.69,473.875 
  1427.39,485.199 1434.1,496.488 1440.81,507.737 1447.51,518.94 1454.22,530.094 1460.93,541.192 1467.63,552.231 1474.34,563.206 1481.05,574.114 1487.76,584.951 
  1494.46,595.713 1501.17,606.398 1507.88,617.003 1514.58,627.524 1521.29,637.96 1528,648.309 1534.7,658.567 1541.41,668.733 1548.12,678.806 1554.83,688.784 
  1561.53,698.666 1568.24,708.45 1574.95,718.134 1581.65,727.719 1588.36,737.203 1595.07,746.586 1601.77,755.866 1608.48,765.044 1615.19,774.118 1621.9,783.089 
  1628.6,791.956 1635.31,800.719 1642.02,809.379 1648.72,817.934 1655.43,826.385 1662.14,834.733 1668.84,842.977 1675.55,851.117 1682.26,859.155 1688.96,867.089 
  1695.67,874.922 1702.38,882.652 1709.09,890.282 1715.79,897.81 1722.5,905.239 1729.21,912.568 1735.91,919.798 1742.62,926.929 1749.33,933.964 1756.03,940.901 
  1762.74,947.742 1769.45,954.489 1776.16,961.14 1782.86,967.698 1789.57,974.164 1796.28,980.537 1802.98,986.819 1809.69,993.012 1816.4,999.114 1823.1,1005.13 
  1829.81,1011.06 1836.52,1016.9 1843.23,1022.65 1849.93,1028.32 1856.64,1033.91 1863.35,1039.41 1870.05,1044.83 1876.76,1050.17 1883.47,1055.43 1890.17,1060.62 
  1896.88,1065.72 1903.59,1070.75 1910.3,1075.7 1917,1080.57 1923.71,1085.37 1930.42,1090.1 1937.12,1094.76 1943.83,1099.34 1950.54,1103.85 1957.24,1108.29 
  1963.95,1112.67 1970.66,1116.98 1977.37,1121.22 1984.07,1125.39 1990.78,1129.5 1997.49,1133.54 2004.19,1137.52 2010.9,1141.44 2017.61,1145.3 2024.31,1149.09 
  2031.02,1152.83 2037.73,1156.5 2044.44,1160.12 2051.14,1163.68 2057.85,1167.18 2064.56,1170.63 2071.26,1174.02 2077.97,1177.36 2084.68,1180.65 2091.38,1183.88 
  2098.09,1187.06 2104.8,1190.19 2111.51,1193.27 2118.21,1196.3 2124.92,1199.28 2131.63,1202.22 2138.33,1205.1 2145.04,1207.94 2151.75,1210.73 2158.45,1213.48 
  2165.16,1216.19 2171.87,1218.84 2178.58,1221.46 2185.28,1224.03 2191.99,1226.57 2198.7,1229.06 2205.4,1231.51 2212.11,1233.92 2218.82,1236.29 2225.52,1238.62 
  2232.23,1240.91 2238.94,1243.17 2245.65,1245.39 2252.35,1247.57 2259.06,1249.72 2265.77,1251.83 2272.47,1253.9 2279.18,1255.95 2285.89,1257.96 2292.59,1259.93 
  
  "/>
<polyline clip-path="url(#clip752)" style="stroke:#ffa500; stroke-width:4; stroke-opacity:1; fill:none" points="
  287.204,1361.12 293.911,1360.36 300.618,1359.55 307.325,1358.7 314.032,1357.81 320.739,1356.87 327.446,1355.88 334.153,1354.84 340.86,1353.74 347.567,1352.59 
  354.274,1351.37 360.981,1350.09 367.688,1348.75 374.395,1347.34 381.102,1345.85 387.809,1344.29 394.516,1342.64 401.223,1340.91 407.93,1339.1 414.637,1337.19 
  421.344,1335.18 428.051,1333.06 434.758,1330.84 441.465,1328.51 448.172,1326.06 454.879,1323.49 461.586,1320.78 468.293,1317.94 475,1314.96 481.707,1311.83 
  488.414,1308.54 495.121,1305.09 501.828,1301.48 508.535,1297.68 515.242,1293.7 521.949,1289.53 528.656,1285.15 535.363,1280.57 542.07,1275.77 548.777,1270.74 
  555.484,1265.47 562.19,1259.96 568.897,1254.19 575.604,1248.16 582.311,1241.85 589.018,1235.26 595.725,1228.37 602.432,1221.18 609.139,1213.67 615.846,1205.84 
  622.553,1197.67 629.26,1189.15 635.967,1180.28 642.674,1171.05 649.381,1161.44 656.088,1151.44 662.795,1141.06 669.502,1130.27 676.209,1119.07 682.916,1107.46 
  689.623,1095.43 696.33,1082.96 703.037,1070.07 709.744,1056.74 716.451,1042.96 723.158,1028.75 729.865,1014.09 736.572,998.996 743.279,983.463 749.986,967.496 
  756.693,951.101 763.4,934.284 770.107,917.056 776.814,899.427 783.521,881.41 790.228,863.02 796.935,844.274 803.642,825.191 810.349,805.793 817.056,786.102 
  823.763,766.145 830.47,745.953 837.177,725.551 843.884,704.97 850.591,684.242 857.298,663.403 864.005,642.488 870.712,621.535 877.419,600.582 884.126,579.679 
  890.833,558.856 897.54,538.156 904.247,517.618 910.954,497.285 917.661,477.203 924.368,457.419 931.075,437.963 937.782,418.875 944.489,400.193 951.196,381.973 
  957.903,364.237 964.61,347.016 971.317,330.349 978.024,314.279 984.731,298.816 991.438,283.992 998.145,269.849 1004.85,256.386 1011.56,243.636 1018.27,231.62 
  1024.97,220.333 1031.68,209.822 1038.39,200.061 1045.09,191.088 1051.8,182.883 1058.51,175.472 1065.21,168.833 1071.92,162.991 1078.63,157.911 1085.34,153.625 
  1092.04,150.08 1098.75,147.322 1105.46,145.281 1112.16,144.002 1118.87,143.407 1125.58,143.557 1132.28,144.351 1138.99,145.846 1145.7,147.978 1152.41,150.693 
  1159.11,153.972 1165.82,157.793 1172.53,162.134 1179.23,167.091 1185.94,172.74 1192.65,178.835 1199.35,185.356 1206.06,192.281 1212.77,199.588 1219.48,207.257 
  1226.18,215.268 1232.89,223.751 1239.6,232.532 1246.3,241.59 1253.01,250.906 1259.72,260.462 1266.42,270.239 1273.13,280.23 1279.84,290.456 1286.55,300.852 
  1293.25,311.402 1299.96,322.092 1306.67,332.91 1313.37,343.87 1320.08,354.928 1326.79,366.071 1333.49,377.285 1340.2,388.562 1346.91,399.893 1353.62,411.279 
  1360.32,422.694 1367.03,434.129 1373.74,445.574 1380.44,457.022 1387.15,468.463 1393.86,479.891 1400.56,491.298 1407.27,502.678 1413.98,514.024 1420.69,525.339 
  1427.39,536.608 1434.1,547.826 1440.81,558.987 1447.51,570.087 1454.22,581.122 1460.93,592.087 1467.63,602.979 1474.34,613.794 1481.05,624.528 1487.76,635.18 
  1494.46,645.746 1501.17,656.224 1507.88,666.61 1514.58,676.904 1521.29,687.102 1528,697.204 1534.7,707.207 1541.41,717.111 1548.12,726.913 1554.83,736.613 
  1561.53,746.209 1568.24,755.702 1574.95,765.089 1581.65,774.37 1588.36,783.546 1595.07,792.615 1601.77,801.577 1608.48,810.431 1615.19,819.179 1621.9,827.819 
  1628.6,836.352 1635.31,844.777 1642.02,853.096 1648.72,861.308 1655.43,869.413 1662.14,877.412 1668.84,885.306 1675.55,893.094 1682.26,900.778 1688.96,908.358 
  1695.67,915.834 1702.38,923.207 1709.09,930.478 1715.79,937.647 1722.5,944.716 1729.21,951.685 1735.91,958.554 1742.62,965.326 1749.33,972 1756.03,978.577 
  1762.74,985.058 1769.45,991.445 1776.16,997.738 1782.86,1003.94 1789.57,1010.05 1796.28,1016.06 1802.98,1021.99 1809.69,1027.83 1816.4,1033.58 1823.1,1039.24 
  1829.81,1044.81 1836.52,1050.3 1843.23,1055.71 1849.93,1061.04 1856.64,1066.28 1863.35,1071.44 1870.05,1076.52 1876.76,1081.52 1883.47,1086.44 1890.17,1091.29 
  1896.88,1096.06 1903.59,1100.75 1910.3,1105.37 1917,1109.92 1923.71,1114.39 1930.42,1118.8 1937.12,1123.13 1943.83,1127.39 1950.54,1131.59 1957.24,1135.72 
  1963.95,1139.78 1970.66,1143.78 1977.37,1147.71 1984.07,1151.58 1990.78,1155.39 1997.49,1159.14 2004.19,1162.82 2010.9,1166.44 2017.61,1170.01 2024.31,1173.51 
  2031.02,1176.96 2037.73,1180.35 2044.44,1183.69 2051.14,1186.97 2057.85,1190.2 2064.56,1193.37 2071.26,1196.49 2077.97,1199.56 2084.68,1202.58 2091.38,1205.55 
  2098.09,1208.47 2104.8,1211.34 2111.51,1214.16 2118.21,1216.93 2124.92,1219.66 2131.63,1222.35 2138.33,1224.98 2145.04,1227.58 2151.75,1230.13 2158.45,1232.64 
  2165.16,1235.1 2171.87,1237.53 2178.58,1239.91 2185.28,1242.25 2191.99,1244.56 2198.7,1246.82 2205.4,1249.05 2212.11,1251.23 2218.82,1253.39 2225.52,1255.5 
  2232.23,1257.58 2238.94,1259.62 2245.65,1261.63 2252.35,1263.61 2259.06,1265.55 2265.77,1267.46 2272.47,1269.33 2279.18,1271.18 2285.89,1272.99 2292.59,1274.77 
  
  "/>
<path clip-path="url(#clip750)" d="
M1674.67 300.469 L2281.9 300.469 L2281.9 93.1086 L1674.67 93.1086  Z
  " fill="#ffffff" fill-rule="evenodd" fill-opacity="1"/>
<polyline clip-path="url(#clip750)" style="stroke:#000000; stroke-width:4; stroke-opacity:1; fill:none" points="
  1674.67,300.469 2281.9,300.469 2281.9,93.1086 1674.67,93.1086 1674.67,300.469 
  "/>
<circle clip-path="url(#clip750)" cx="1769.14" cy="144.949" r="23" fill="#009af9" fill-rule="evenodd" fill-opacity="1" stroke="#000000" stroke-opacity="1" stroke-width="5.12"/>
<path clip-path="url(#clip750)" d="M 0 0 M1868.3 131.511 L1868.3 158.386 L1873.95 158.386 Q1881.1 158.386 1884.41 155.145 Q1887.74 151.905 1887.74 144.914 Q1887.74 137.969 1884.41 134.752 Q1881.1 131.511 1873.95 131.511 L1868.3 131.511 M1863.62 127.669 L1873.23 127.669 Q1883.27 127.669 1887.97 131.858 Q1892.67 136.025 1892.67 144.914 Q1892.67 153.849 1887.95 158.039 Q1883.23 162.229 1873.23 162.229 L1863.62 162.229 L1863.62 127.669 Z" fill="#000000" fill-rule="evenodd" fill-opacity="1" /><path clip-path="url(#clip750)" d="M 0 0 M1908.92 149.196 Q1903.76 149.196 1901.77 150.377 Q1899.78 151.557 1899.78 154.405 Q1899.78 156.673 1901.26 158.016 Q1902.76 159.335 1905.33 159.335 Q1908.88 159.335 1911.01 156.835 Q1913.16 154.312 1913.16 150.145 L1913.16 149.196 L1908.92 149.196 M1917.42 147.437 L1917.42 162.229 L1913.16 162.229 L1913.16 158.293 Q1911.7 160.655 1909.52 161.789 Q1907.35 162.9 1904.2 162.9 Q1900.22 162.9 1897.86 160.678 Q1895.52 158.432 1895.52 154.682 Q1895.52 150.307 1898.44 148.085 Q1901.38 145.863 1907.19 145.863 L1913.16 145.863 L1913.16 145.446 Q1913.16 142.507 1911.21 140.909 Q1909.29 139.289 1905.8 139.289 Q1903.57 139.289 1901.47 139.821 Q1899.36 140.354 1897.42 141.419 L1897.42 137.483 Q1899.76 136.581 1901.95 136.141 Q1904.15 135.678 1906.24 135.678 Q1911.86 135.678 1914.64 138.594 Q1917.42 141.511 1917.42 147.437 Z" fill="#000000" fill-rule="evenodd" fill-opacity="1" /><path clip-path="url(#clip750)" d="M 0 0 M1926.1 128.942 L1926.1 136.303 L1934.87 136.303 L1934.87 139.613 L1926.1 139.613 L1926.1 153.687 Q1926.1 156.858 1926.95 157.761 Q1927.83 158.664 1930.5 158.664 L1934.87 158.664 L1934.87 162.229 L1930.5 162.229 Q1925.57 162.229 1923.69 160.4 Q1921.82 158.548 1921.82 153.687 L1921.82 139.613 L1918.69 139.613 L1918.69 136.303 L1921.82 136.303 L1921.82 128.942 L1926.1 128.942 Z" fill="#000000" fill-rule="evenodd" fill-opacity="1" /><path clip-path="url(#clip750)" d="M 0 0 M1951.12 149.196 Q1945.96 149.196 1943.97 150.377 Q1941.98 151.557 1941.98 154.405 Q1941.98 156.673 1943.46 158.016 Q1944.96 159.335 1947.53 159.335 Q1951.07 159.335 1953.2 156.835 Q1955.36 154.312 1955.36 150.145 L1955.36 149.196 L1951.12 149.196 M1959.62 147.437 L1959.62 162.229 L1955.36 162.229 L1955.36 158.293 Q1953.9 160.655 1951.72 161.789 Q1949.55 162.9 1946.4 162.9 Q1942.42 162.9 1940.06 160.678 Q1937.72 158.432 1937.72 154.682 Q1937.72 150.307 1940.63 148.085 Q1943.57 145.863 1949.38 145.863 L1955.36 145.863 L1955.36 145.446 Q1955.36 142.507 1953.41 140.909 Q1951.49 139.289 1948 139.289 Q1945.77 139.289 1943.67 139.821 Q1941.56 140.354 1939.62 141.419 L1939.62 137.483 Q1941.95 136.581 1944.15 136.141 Q1946.35 135.678 1948.44 135.678 Q1954.06 135.678 1956.84 138.594 Q1959.62 141.511 1959.62 147.437 Z" fill="#000000" fill-rule="evenodd" fill-opacity="1" /><polyline clip-path="url(#clip750)" style="stroke:#ff0000; stroke-width:4; stroke-opacity:1; fill:none" points="
  1698.29,196.789 1840,196.789 
  "/>
<path clip-path="url(#clip750)" d="M 0 0 M1863.62 179.509 L1883.48 179.509 L1883.48 183.444 L1868.3 183.444 L1868.3 193.629 L1882 193.629 L1882 197.564 L1868.3 197.564 L1868.3 214.069 L1863.62 214.069 L1863.62 179.509 Z" fill="#000000" fill-rule="evenodd" fill-opacity="1" /><path clip-path="url(#clip750)" d="M 0 0 M1884.5 188.143 L1888.76 188.143 L1888.76 214.069 L1884.5 214.069 L1884.5 188.143 M1884.5 178.05 L1888.76 178.05 L1888.76 183.444 L1884.5 183.444 L1884.5 178.05 Z" fill="#000000" fill-rule="evenodd" fill-opacity="1" /><path clip-path="url(#clip750)" d="M 0 0 M1897.44 180.782 L1897.44 188.143 L1906.21 188.143 L1906.21 191.453 L1897.44 191.453 L1897.44 205.527 Q1897.44 208.698 1898.3 209.601 Q1899.18 210.504 1901.84 210.504 L1906.21 210.504 L1906.21 214.069 L1901.84 214.069 Q1896.91 214.069 1895.03 212.24 Q1893.16 210.388 1893.16 205.527 L1893.16 191.453 L1890.03 191.453 L1890.03 188.143 L1893.16 188.143 L1893.16 180.782 L1897.44 180.782 Z" fill="#000000" fill-rule="evenodd" fill-opacity="1" /><path clip-path="url(#clip750)" d="M 0 0 M1923.27 188.143 L1927.53 188.143 L1932.86 208.374 L1938.16 188.143 L1943.18 188.143 L1948.5 208.374 L1953.81 188.143 L1958.06 188.143 L1951.28 214.069 L1946.26 214.069 L1940.68 192.819 L1935.08 214.069 L1930.06 214.069 L1923.27 188.143 Z" fill="#000000" fill-rule="evenodd" fill-opacity="1" /><path clip-path="url(#clip750)" d="M 0 0 M1962.53 188.143 L1966.79 188.143 L1966.79 214.069 L1962.53 214.069 L1962.53 188.143 M1962.53 178.05 L1966.79 178.05 L1966.79 183.444 L1962.53 183.444 L1962.53 178.05 Z" fill="#000000" fill-rule="evenodd" fill-opacity="1" /><path clip-path="url(#clip750)" d="M 0 0 M1975.47 180.782 L1975.47 188.143 L1984.25 188.143 L1984.25 191.453 L1975.47 191.453 L1975.47 205.527 Q1975.47 208.698 1976.33 209.601 Q1977.21 210.504 1979.87 210.504 L1984.25 210.504 L1984.25 214.069 L1979.87 214.069 Q1974.94 214.069 1973.06 212.24 Q1971.19 210.388 1971.19 205.527 L1971.19 191.453 L1968.06 191.453 L1968.06 188.143 L1971.19 188.143 L1971.19 180.782 L1975.47 180.782 Z" fill="#000000" fill-rule="evenodd" fill-opacity="1" /><path clip-path="url(#clip750)" d="M 0 0 M2010.26 198.421 L2010.26 214.069 L2006 214.069 L2006 198.559 Q2006 194.879 2004.57 193.05 Q2003.13 191.222 2000.26 191.222 Q1996.81 191.222 1994.82 193.421 Q1992.83 195.62 1992.83 199.416 L1992.83 214.069 L1988.55 214.069 L1988.55 178.05 L1992.83 178.05 L1992.83 192.171 Q1994.36 189.833 1996.42 188.675 Q1998.5 187.518 2001.21 187.518 Q2005.68 187.518 2007.97 190.296 Q2010.26 193.05 2010.26 198.421 Z" fill="#000000" fill-rule="evenodd" fill-opacity="1" /><path clip-path="url(#clip750)" d="M 0 0 M2046.37 197.865 Q2047.88 198.374 2049.29 200.041 Q2050.73 201.708 2052.16 204.624 L2056.91 214.069 L2051.88 214.069 L2047.46 205.203 Q2045.75 201.731 2044.13 200.596 Q2042.53 199.462 2039.75 199.462 L2034.66 199.462 L2034.66 214.069 L2029.99 214.069 L2029.99 179.509 L2040.54 179.509 Q2046.47 179.509 2049.38 181.985 Q2052.3 184.462 2052.3 189.462 Q2052.3 192.726 2050.77 194.879 Q2049.27 197.032 2046.37 197.865 M2034.66 183.351 L2034.66 195.62 L2040.54 195.62 Q2043.92 195.62 2045.63 194.069 Q2047.37 192.495 2047.37 189.462 Q2047.37 186.43 2045.63 184.902 Q2043.92 183.351 2040.54 183.351 L2034.66 183.351 Z" fill="#000000" fill-rule="evenodd" fill-opacity="1" /><path clip-path="url(#clip750)" d="M 0 0 M2082.28 180.643 L2082.28 185.203 Q2079.62 183.93 2077.25 183.305 Q2074.89 182.68 2072.69 182.68 Q2068.87 182.68 2066.79 184.161 Q2064.73 185.643 2064.73 188.374 Q2064.73 190.666 2066.1 191.847 Q2067.49 193.004 2071.33 193.722 L2074.15 194.3 Q2079.38 195.296 2081.86 197.819 Q2084.36 200.319 2084.36 204.532 Q2084.36 209.555 2080.98 212.147 Q2077.62 214.74 2071.12 214.74 Q2068.67 214.74 2065.89 214.184 Q2063.13 213.629 2060.17 212.541 L2060.17 207.726 Q2063.02 209.323 2065.75 210.133 Q2068.48 210.944 2071.12 210.944 Q2075.12 210.944 2077.3 209.37 Q2079.48 207.796 2079.48 204.879 Q2079.48 202.333 2077.9 200.897 Q2076.35 199.462 2072.79 198.745 L2069.94 198.189 Q2064.71 197.147 2062.37 194.925 Q2060.03 192.703 2060.03 188.745 Q2060.03 184.161 2063.25 181.522 Q2066.49 178.884 2072.16 178.884 Q2074.59 178.884 2077.12 179.323 Q2079.64 179.763 2082.28 180.643 Z" fill="#000000" fill-rule="evenodd" fill-opacity="1" /><path clip-path="url(#clip750)" d="M 0 0 M2089.01 179.509 L2110.87 179.509 L2110.87 183.444 L2093.69 183.444 L2093.69 193.675 L2110.15 193.675 L2110.15 197.61 L2093.69 197.61 L2093.69 210.133 L2111.28 210.133 L2111.28 214.069 L2089.01 214.069 L2089.01 179.509 Z" fill="#000000" fill-rule="evenodd" fill-opacity="1" /><path clip-path="url(#clip750)" d="M 0 0 M2145.98 199.647 L2145.98 203.791 Q2143.55 205.596 2141.47 206.407 Q2139.41 207.194 2137.16 207.194 Q2134.61 207.194 2131.24 205.828 Q2131 205.735 2130.84 205.666 Q2130.7 205.62 2130.36 205.481 Q2126.77 204.069 2124.59 204.069 Q2122.55 204.069 2120.56 204.948 Q2118.57 205.828 2116.3 207.772 L2116.3 203.629 Q2118.74 201.823 2120.8 201.036 Q2122.88 200.226 2125.12 200.226 Q2127.67 200.226 2131.07 201.592 Q2131.33 201.708 2131.44 201.754 Q2131.58 201.8 2131.93 201.939 Q2135.52 203.351 2137.69 203.351 Q2139.68 203.351 2141.63 202.495 Q2143.6 201.615 2145.98 199.647 M2145.98 190.643 L2145.98 194.763 Q2143.55 196.592 2141.47 197.402 Q2139.41 198.189 2137.16 198.189 Q2134.61 198.189 2131.24 196.823 Q2131 196.731 2130.84 196.661 Q2130.7 196.615 2130.36 196.476 Q2126.77 195.064 2124.59 195.064 Q2122.55 195.064 2120.56 195.944 Q2118.57 196.823 2116.3 198.745 L2116.3 194.624 Q2118.74 192.819 2120.8 192.032 Q2122.88 191.222 2125.12 191.222 Q2127.67 191.222 2131.07 192.587 Q2131.3 192.68 2131.42 192.726 Q2131.58 192.796 2131.93 192.934 Q2135.52 194.347 2137.69 194.347 Q2139.68 194.347 2141.63 193.49 Q2143.6 192.61 2145.98 190.643 Z" fill="#000000" fill-rule="evenodd" fill-opacity="1" /><path clip-path="url(#clip750)" d="M 0 0 M2151.86 210.133 L2159.5 210.133 L2159.5 183.768 L2151.19 185.435 L2151.19 181.175 L2159.45 179.509 L2164.13 179.509 L2164.13 210.133 L2171.77 210.133 L2171.77 214.069 L2151.86 214.069 L2151.86 210.133 Z" fill="#000000" fill-rule="evenodd" fill-opacity="1" /><path clip-path="url(#clip750)" d="M 0 0 M2186.84 197.657 Q2183.5 197.657 2181.58 199.439 Q2179.68 201.221 2179.68 204.346 Q2179.68 207.471 2181.58 209.254 Q2183.5 211.036 2186.84 211.036 Q2190.17 211.036 2192.09 209.254 Q2194.01 207.448 2194.01 204.346 Q2194.01 201.221 2192.09 199.439 Q2190.19 197.657 2186.84 197.657 M2182.16 195.666 Q2179.15 194.925 2177.46 192.865 Q2175.8 190.805 2175.8 187.842 Q2175.8 183.698 2178.74 181.291 Q2181.7 178.884 2186.84 178.884 Q2192 178.884 2194.94 181.291 Q2197.88 183.698 2197.88 187.842 Q2197.88 190.805 2196.19 192.865 Q2194.52 194.925 2191.54 195.666 Q2194.92 196.453 2196.79 198.745 Q2198.69 201.036 2198.69 204.346 Q2198.69 209.37 2195.61 212.055 Q2192.55 214.74 2186.84 214.74 Q2181.12 214.74 2178.04 212.055 Q2174.99 209.37 2174.99 204.346 Q2174.99 201.036 2176.88 198.745 Q2178.78 196.453 2182.16 195.666 M2180.45 188.282 Q2180.45 190.967 2182.11 192.472 Q2183.8 193.976 2186.84 193.976 Q2189.85 193.976 2191.54 192.472 Q2193.25 190.967 2193.25 188.282 Q2193.25 185.597 2191.54 184.092 Q2189.85 182.587 2186.84 182.587 Q2183.8 182.587 2182.11 184.092 Q2180.45 185.597 2180.45 188.282 Z" fill="#000000" fill-rule="evenodd" fill-opacity="1" /><path clip-path="url(#clip750)" d="M 0 0 M2203.76 208.189 L2208.64 208.189 L2208.64 214.069 L2203.76 214.069 L2203.76 208.189 Z" fill="#000000" fill-rule="evenodd" fill-opacity="1" /><path clip-path="url(#clip750)" d="M 0 0 M2213.76 179.509 L2232.11 179.509 L2232.11 183.444 L2218.04 183.444 L2218.04 191.916 Q2219.06 191.569 2220.08 191.407 Q2221.1 191.222 2222.11 191.222 Q2227.9 191.222 2231.28 194.393 Q2234.66 197.564 2234.66 202.981 Q2234.66 208.559 2231.19 211.661 Q2227.72 214.74 2221.4 214.74 Q2219.22 214.74 2216.95 214.37 Q2214.71 213.999 2212.3 213.258 L2212.3 208.559 Q2214.38 209.694 2216.61 210.249 Q2218.83 210.805 2221.3 210.805 Q2225.31 210.805 2227.65 208.698 Q2229.98 206.592 2229.98 202.981 Q2229.98 199.37 2227.65 197.263 Q2225.31 195.157 2221.3 195.157 Q2219.43 195.157 2217.55 195.573 Q2215.7 195.99 2213.76 196.87 L2213.76 179.509 Z" fill="#000000" fill-rule="evenodd" fill-opacity="1" /><polyline clip-path="url(#clip750)" style="stroke:#ffa500; stroke-width:4; stroke-opacity:1; fill:none" points="
  1698.29,248.629 1840,248.629 
  "/>
<path clip-path="url(#clip750)" d="M 0 0 M1869.25 261.973 L1885.57 261.973 L1885.57 265.909 L1863.62 265.909 L1863.62 261.973 Q1866.28 259.219 1870.87 254.589 Q1875.47 249.936 1876.65 248.594 Q1878.9 246.071 1879.78 244.335 Q1880.68 242.575 1880.68 240.886 Q1880.68 238.131 1878.74 236.395 Q1876.82 234.659 1873.71 234.659 Q1871.51 234.659 1869.06 235.423 Q1866.63 236.187 1863.85 237.737 L1863.85 233.015 Q1866.68 231.881 1869.13 231.302 Q1871.58 230.724 1873.62 230.724 Q1878.99 230.724 1882.19 233.409 Q1885.38 236.094 1885.38 240.585 Q1885.38 242.714 1884.57 244.636 Q1883.78 246.534 1881.68 249.126 Q1881.1 249.798 1878 253.015 Q1874.89 256.21 1869.25 261.973 Z" fill="#000000" fill-rule="evenodd" fill-opacity="1" /><path clip-path="url(#clip750)" d="M 0 0 M1900.08 243.362 Q1896.56 243.362 1894.66 245.909 Q1892.67 248.571 1892.67 252.969 Q1892.67 257.622 1894.64 260.307 Q1896.63 262.969 1900.08 262.969 Q1903.48 262.969 1905.47 260.284 Q1907.46 257.598 1907.46 252.969 Q1907.46 248.733 1905.47 245.909 Q1903.64 243.362 1900.08 243.362 M1900.08 239.983 L1914.22 239.983 L1914.22 244.242 L1909.45 244.242 Q1911.98 247.853 1911.98 252.969 Q1911.98 259.335 1908.81 262.946 Q1905.63 266.58 1900.08 266.58 Q1894.5 266.58 1891.35 262.946 Q1888.18 259.335 1888.18 252.969 Q1888.18 246.557 1891.35 242.969 Q1893.97 239.983 1900.08 239.983 Z" fill="#000000" fill-rule="evenodd" fill-opacity="1" /><path clip-path="url(#clip750)" d="M 0 0 M1959.82 234.011 L1959.82 238.941 Q1957.46 236.742 1954.78 235.654 Q1952.12 234.566 1949.11 234.566 Q1943.18 234.566 1940.03 238.2 Q1936.88 241.812 1936.88 248.663 Q1936.88 255.492 1940.03 259.126 Q1943.18 262.737 1949.11 262.737 Q1952.12 262.737 1954.78 261.649 Q1957.46 260.561 1959.82 258.362 L1959.82 263.247 Q1957.37 264.913 1954.62 265.747 Q1951.88 266.58 1948.83 266.58 Q1940.98 266.58 1936.47 261.788 Q1931.95 256.973 1931.95 248.663 Q1931.95 240.33 1936.47 235.538 Q1940.98 230.724 1948.83 230.724 Q1951.93 230.724 1954.66 231.557 Q1957.42 232.367 1959.82 234.011 Z" fill="#000000" fill-rule="evenodd" fill-opacity="1" /><path clip-path="url(#clip750)" d="M 0 0 M1974.34 242.969 Q1970.91 242.969 1968.92 245.654 Q1966.93 248.316 1966.93 252.969 Q1966.93 257.622 1968.9 260.307 Q1970.89 262.969 1974.34 262.969 Q1977.74 262.969 1979.73 260.284 Q1981.72 257.598 1981.72 252.969 Q1981.72 248.362 1979.73 245.677 Q1977.74 242.969 1974.34 242.969 M1974.34 239.358 Q1979.89 239.358 1983.06 242.969 Q1986.24 246.58 1986.24 252.969 Q1986.24 259.335 1983.06 262.969 Q1979.89 266.58 1974.34 266.58 Q1968.76 266.58 1965.59 262.969 Q1962.44 259.335 1962.44 252.969 Q1962.44 246.58 1965.59 242.969 Q1968.76 239.358 1974.34 239.358 Z" fill="#000000" fill-rule="evenodd" fill-opacity="1" /><path clip-path="url(#clip750)" d="M 0 0 M2012.25 250.261 L2012.25 265.909 L2008 265.909 L2008 250.399 Q2008 246.719 2006.56 244.89 Q2005.12 243.062 2002.25 243.062 Q1998.81 243.062 1996.81 245.261 Q1994.82 247.46 1994.82 251.256 L1994.82 265.909 L1990.54 265.909 L1990.54 239.983 L1994.82 239.983 L1994.82 244.011 Q1996.35 241.673 1998.41 240.515 Q2000.5 239.358 2003.2 239.358 Q2007.67 239.358 2009.96 242.136 Q2012.25 244.89 2012.25 250.261 Z" fill="#000000" fill-rule="evenodd" fill-opacity="1" /><path clip-path="url(#clip750)" d="M 0 0 M2029.85 229.89 L2029.85 233.432 L2025.77 233.432 Q2023.48 233.432 2022.58 234.358 Q2021.7 235.284 2021.7 237.691 L2021.7 239.983 L2028.71 239.983 L2028.71 243.293 L2021.7 243.293 L2021.7 265.909 L2017.42 265.909 L2017.42 243.293 L2013.34 243.293 L2013.34 239.983 L2017.42 239.983 L2017.42 238.177 Q2017.42 233.849 2019.43 231.881 Q2021.44 229.89 2025.82 229.89 L2029.85 229.89 Z" fill="#000000" fill-rule="evenodd" fill-opacity="1" /><path clip-path="url(#clip750)" d="M 0 0 M2031.47 260.029 L2036.35 260.029 L2036.35 265.909 L2031.47 265.909 L2031.47 260.029 Z" fill="#000000" fill-rule="evenodd" fill-opacity="1" /><path clip-path="url(#clip750)" d="M 0 0 M2060.75 249.404 L2060.75 262.066 L2068.25 262.066 Q2072.02 262.066 2073.83 260.515 Q2075.66 258.941 2075.66 255.723 Q2075.66 252.483 2073.83 250.955 Q2072.02 249.404 2068.25 249.404 L2060.75 249.404 M2060.75 235.191 L2060.75 245.608 L2067.67 245.608 Q2071.1 245.608 2072.76 244.335 Q2074.45 243.038 2074.45 240.399 Q2074.45 237.784 2072.76 236.487 Q2071.1 235.191 2067.67 235.191 L2060.75 235.191 M2056.07 231.349 L2068.02 231.349 Q2073.37 231.349 2076.26 233.571 Q2079.15 235.793 2079.15 239.89 Q2079.15 243.062 2077.67 244.937 Q2076.19 246.811 2073.32 247.274 Q2076.77 248.015 2078.67 250.376 Q2080.59 252.714 2080.59 256.233 Q2080.59 260.862 2077.44 263.385 Q2074.29 265.909 2068.48 265.909 L2056.07 265.909 L2056.07 231.349 Z" fill="#000000" fill-rule="evenodd" fill-opacity="1" /><path clip-path="url(#clip750)" d="M 0 0 M2096.84 252.876 Q2091.68 252.876 2089.68 254.057 Q2087.69 255.237 2087.69 258.085 Q2087.69 260.353 2089.18 261.696 Q2090.68 263.015 2093.25 263.015 Q2096.79 263.015 2098.92 260.515 Q2101.07 257.992 2101.07 253.825 L2101.07 252.876 L2096.84 252.876 M2105.33 251.117 L2105.33 265.909 L2101.07 265.909 L2101.07 261.973 Q2099.62 264.335 2097.44 265.469 Q2095.26 266.58 2092.12 266.58 Q2088.13 266.58 2085.77 264.358 Q2083.43 262.112 2083.43 258.362 Q2083.43 253.987 2086.35 251.765 Q2089.29 249.543 2095.1 249.543 L2101.07 249.543 L2101.07 249.126 Q2101.07 246.187 2099.13 244.589 Q2097.21 242.969 2093.71 242.969 Q2091.49 242.969 2089.38 243.501 Q2087.28 244.034 2085.33 245.099 L2085.33 241.163 Q2087.67 240.261 2089.87 239.821 Q2092.07 239.358 2094.15 239.358 Q2099.78 239.358 2102.55 242.274 Q2105.33 245.191 2105.33 251.117 Z" fill="#000000" fill-rule="evenodd" fill-opacity="1" /><path clip-path="url(#clip750)" d="M 0 0 M2131.35 250.261 L2131.35 265.909 L2127.09 265.909 L2127.09 250.399 Q2127.09 246.719 2125.66 244.89 Q2124.22 243.062 2121.35 243.062 Q2117.9 243.062 2115.91 245.261 Q2113.92 247.46 2113.92 251.256 L2113.92 265.909 L2109.64 265.909 L2109.64 239.983 L2113.92 239.983 L2113.92 244.011 Q2115.45 241.673 2117.51 240.515 Q2119.59 239.358 2122.3 239.358 Q2126.77 239.358 2129.06 242.136 Q2131.35 244.89 2131.35 250.261 Z" fill="#000000" fill-rule="evenodd" fill-opacity="1" /><path clip-path="url(#clip750)" d="M 0 0 M2152.88 243.918 L2152.88 229.89 L2157.14 229.89 L2157.14 265.909 L2152.88 265.909 L2152.88 262.02 Q2151.54 264.335 2149.48 265.469 Q2147.44 266.58 2144.57 266.58 Q2139.87 266.58 2136.91 262.83 Q2133.97 259.08 2133.97 252.969 Q2133.97 246.858 2136.91 243.108 Q2139.87 239.358 2144.57 239.358 Q2147.44 239.358 2149.48 240.492 Q2151.54 241.603 2152.88 243.918 M2138.36 252.969 Q2138.36 257.668 2140.29 260.353 Q2142.23 263.015 2145.61 263.015 Q2148.99 263.015 2150.93 260.353 Q2152.88 257.668 2152.88 252.969 Q2152.88 248.27 2150.93 245.608 Q2148.99 242.923 2145.61 242.923 Q2142.23 242.923 2140.29 245.608 Q2138.36 248.27 2138.36 252.969 Z" fill="#000000" fill-rule="evenodd" fill-opacity="1" /></svg>
