<?xml version="1.0" encoding="utf-8"?>
<svg xmlns="http://www.w3.org/2000/svg" xmlns:xlink="http://www.w3.org/1999/xlink" width="600" height="400" viewBox="0 0 2400 1600">
<defs>
  <clipPath id="clip910">
    <rect x="0" y="0" width="2400" height="1600"/>
  </clipPath>
</defs>
<path clip-path="url(#clip910)" d="
M0 1600 L2400 1600 L2400 0 L0 0  Z
  " fill="#ffffff" fill-rule="evenodd" fill-opacity="1"/>
<defs>
  <clipPath id="clip911">
    <rect x="480" y="0" width="1681" height="1600"/>
  </clipPath>
</defs>
<path clip-path="url(#clip910)" d="
M227.042 1423.18 L2352.76 1423.18 L2352.76 47.2441 L227.042 47.2441  Z
  " fill="#ffffff" fill-rule="evenodd" fill-opacity="1"/>
<defs>
  <clipPath id="clip912">
    <rect x="227" y="47" width="2127" height="1377"/>
  </clipPath>
</defs>
<polyline clip-path="url(#clip912)" style="stroke:#000000; stroke-width:2; stroke-opacity:0.1; fill:none" points="
  518.595,1423.18 518.595,47.2441 
  "/>
<polyline clip-path="url(#clip912)" style="stroke:#000000; stroke-width:2; stroke-opacity:0.1; fill:none" points="
  904.247,1423.18 904.247,47.2441 
  "/>
<polyline clip-path="url(#clip912)" style="stroke:#000000; stroke-width:2; stroke-opacity:0.1; fill:none" points="
  1289.9,1423.18 1289.9,47.2441 
  "/>
<polyline clip-path="url(#clip912)" style="stroke:#000000; stroke-width:2; stroke-opacity:0.1; fill:none" points="
  1675.55,1423.18 1675.55,47.2441 
  "/>
<polyline clip-path="url(#clip912)" style="stroke:#000000; stroke-width:2; stroke-opacity:0.1; fill:none" points="
  2061.2,1423.18 2061.2,47.2441 
  "/>
<polyline clip-path="url(#clip910)" style="stroke:#000000; stroke-width:4; stroke-opacity:1; fill:none" points="
  227.042,1423.18 2352.76,1423.18 
  "/>
<polyline clip-path="url(#clip910)" style="stroke:#000000; stroke-width:4; stroke-opacity:1; fill:none" points="
  518.595,1423.18 518.595,1406.67 
  "/>
<polyline clip-path="url(#clip910)" style="stroke:#000000; stroke-width:4; stroke-opacity:1; fill:none" points="
  904.247,1423.18 904.247,1406.67 
  "/>
<polyline clip-path="url(#clip910)" style="stroke:#000000; stroke-width:4; stroke-opacity:1; fill:none" points="
  1289.9,1423.18 1289.9,1406.67 
  "/>
<polyline clip-path="url(#clip910)" style="stroke:#000000; stroke-width:4; stroke-opacity:1; fill:none" points="
  1675.55,1423.18 1675.55,1406.67 
  "/>
<polyline clip-path="url(#clip910)" style="stroke:#000000; stroke-width:4; stroke-opacity:1; fill:none" points="
  2061.2,1423.18 2061.2,1406.67 
  "/>
<path clip-path="url(#clip910)" d="M 0 0 M495.262 1479.92 L511.581 1479.92 L511.581 1483.85 L489.637 1483.85 L489.637 1479.92 Q492.299 1477.16 496.882 1472.53 Q501.489 1467.88 502.669 1466.54 Q504.915 1464.01 505.794 1462.28 Q506.697 1460.52 506.697 1458.83 Q506.697 1456.07 504.753 1454.34 Q502.831 1452.6 499.729 1452.6 Q497.53 1452.6 495.077 1453.37 Q492.646 1454.13 489.868 1455.68 L489.868 1450.96 Q492.692 1449.82 495.146 1449.25 Q497.6 1448.67 499.637 1448.67 Q505.007 1448.67 508.202 1451.35 Q511.396 1454.04 511.396 1458.53 Q511.396 1460.66 510.586 1462.58 Q509.799 1464.48 507.692 1467.07 Q507.114 1467.74 504.012 1470.96 Q500.91 1474.15 495.262 1479.92 Z" fill="#000000" fill-rule="evenodd" fill-opacity="1" /><path clip-path="url(#clip910)" d="M 0 0 M516.651 1477.97 L521.535 1477.97 L521.535 1483.85 L516.651 1483.85 L516.651 1477.97 Z" fill="#000000" fill-rule="evenodd" fill-opacity="1" /><path clip-path="url(#clip910)" d="M 0 0 M526.651 1449.29 L545.007 1449.29 L545.007 1453.23 L530.933 1453.23 L530.933 1461.7 Q531.951 1461.35 532.97 1461.19 Q533.988 1461 535.007 1461 Q540.794 1461 544.174 1464.18 Q547.553 1467.35 547.553 1472.76 Q547.553 1478.34 544.081 1481.44 Q540.609 1484.52 534.289 1484.52 Q532.114 1484.52 529.845 1484.15 Q527.6 1483.78 525.192 1483.04 L525.192 1478.34 Q527.276 1479.48 529.498 1480.03 Q531.72 1480.59 534.197 1480.59 Q538.201 1480.59 540.539 1478.48 Q542.877 1476.38 542.877 1472.76 Q542.877 1469.15 540.539 1467.05 Q538.201 1464.94 534.197 1464.94 Q532.322 1464.94 530.447 1465.36 Q528.595 1465.77 526.651 1466.65 L526.651 1449.29 Z" fill="#000000" fill-rule="evenodd" fill-opacity="1" /><path clip-path="url(#clip910)" d="M 0 0 M876.041 1449.29 L894.398 1449.29 L894.398 1453.23 L880.324 1453.23 L880.324 1461.7 Q881.342 1461.35 882.361 1461.19 Q883.379 1461 884.398 1461 Q890.185 1461 893.564 1464.18 Q896.944 1467.35 896.944 1472.76 Q896.944 1478.34 893.472 1481.44 Q889.999 1484.52 883.68 1484.52 Q881.504 1484.52 879.236 1484.15 Q876.99 1483.78 874.583 1483.04 L874.583 1478.34 Q876.666 1479.48 878.888 1480.03 Q881.111 1480.59 883.587 1480.59 Q887.592 1480.59 889.93 1478.48 Q892.268 1476.38 892.268 1472.76 Q892.268 1469.15 889.93 1467.05 Q887.592 1464.94 883.587 1464.94 Q881.712 1464.94 879.837 1465.36 Q877.986 1465.77 876.041 1466.65 L876.041 1449.29 Z" fill="#000000" fill-rule="evenodd" fill-opacity="1" /><path clip-path="url(#clip910)" d="M 0 0 M902.013 1477.97 L906.897 1477.97 L906.897 1483.85 L902.013 1483.85 L902.013 1477.97 Z" fill="#000000" fill-rule="evenodd" fill-opacity="1" /><path clip-path="url(#clip910)" d="M 0 0 M921.967 1452.37 Q918.356 1452.37 916.527 1455.94 Q914.722 1459.48 914.722 1466.61 Q914.722 1473.71 916.527 1477.28 Q918.356 1480.82 921.967 1480.82 Q925.601 1480.82 927.407 1477.28 Q929.235 1473.71 929.235 1466.61 Q929.235 1459.48 927.407 1455.94 Q925.601 1452.37 921.967 1452.37 M921.967 1448.67 Q927.777 1448.67 930.833 1453.27 Q933.911 1457.86 933.911 1466.61 Q933.911 1475.33 930.833 1479.94 Q927.777 1484.52 921.967 1484.52 Q916.157 1484.52 913.078 1479.94 Q910.022 1475.33 910.022 1466.61 Q910.022 1457.86 913.078 1453.27 Q916.157 1448.67 921.967 1448.67 Z" fill="#000000" fill-rule="evenodd" fill-opacity="1" /><path clip-path="url(#clip910)" d="M 0 0 M1260.8 1449.29 L1283.02 1449.29 L1283.02 1451.28 L1270.48 1483.85 L1265.59 1483.85 L1277.4 1453.23 L1260.8 1453.23 L1260.8 1449.29 Z" fill="#000000" fill-rule="evenodd" fill-opacity="1" /><path clip-path="url(#clip910)" d="M 0 0 M1288.09 1477.97 L1292.98 1477.97 L1292.98 1483.85 L1288.09 1483.85 L1288.09 1477.97 Z" fill="#000000" fill-rule="evenodd" fill-opacity="1" /><path clip-path="url(#clip910)" d="M 0 0 M1298.09 1449.29 L1316.45 1449.29 L1316.45 1453.23 L1302.38 1453.23 L1302.38 1461.7 Q1303.39 1461.35 1304.41 1461.19 Q1305.43 1461 1306.45 1461 Q1312.24 1461 1315.62 1464.18 Q1319 1467.35 1319 1472.76 Q1319 1478.34 1315.52 1481.44 Q1312.05 1484.52 1305.73 1484.52 Q1303.56 1484.52 1301.29 1484.15 Q1299.04 1483.78 1296.64 1483.04 L1296.64 1478.34 Q1298.72 1479.48 1300.94 1480.03 Q1303.16 1480.59 1305.64 1480.59 Q1309.64 1480.59 1311.98 1478.48 Q1314.32 1476.38 1314.32 1472.76 Q1314.32 1469.15 1311.98 1467.05 Q1309.64 1464.94 1305.64 1464.94 Q1303.76 1464.94 1301.89 1465.36 Q1300.04 1465.77 1298.09 1466.65 L1298.09 1449.29 Z" fill="#000000" fill-rule="evenodd" fill-opacity="1" /><path clip-path="url(#clip910)" d="M 0 0 M1633.94 1479.92 L1641.58 1479.92 L1641.58 1453.55 L1633.27 1455.22 L1633.27 1450.96 L1641.53 1449.29 L1646.21 1449.29 L1646.21 1479.92 L1653.85 1479.92 L1653.85 1483.85 L1633.94 1483.85 L1633.94 1479.92 Z" fill="#000000" fill-rule="evenodd" fill-opacity="1" /><path clip-path="url(#clip910)" d="M 0 0 M1668.92 1452.37 Q1665.31 1452.37 1663.48 1455.94 Q1661.67 1459.48 1661.67 1466.61 Q1661.67 1473.71 1663.48 1477.28 Q1665.31 1480.82 1668.92 1480.82 Q1672.55 1480.82 1674.36 1477.28 Q1676.19 1473.71 1676.19 1466.61 Q1676.19 1459.48 1674.36 1455.94 Q1672.55 1452.37 1668.92 1452.37 M1668.92 1448.67 Q1674.73 1448.67 1677.78 1453.27 Q1680.86 1457.86 1680.86 1466.61 Q1680.86 1475.33 1677.78 1479.94 Q1674.73 1484.52 1668.92 1484.52 Q1663.11 1484.52 1660.03 1479.94 Q1656.97 1475.33 1656.97 1466.61 Q1656.97 1457.86 1660.03 1453.27 Q1663.11 1448.67 1668.92 1448.67 Z" fill="#000000" fill-rule="evenodd" fill-opacity="1" /><path clip-path="url(#clip910)" d="M 0 0 M1685.93 1477.97 L1690.82 1477.97 L1690.82 1483.85 L1685.93 1483.85 L1685.93 1477.97 Z" fill="#000000" fill-rule="evenodd" fill-opacity="1" /><path clip-path="url(#clip910)" d="M 0 0 M1705.89 1452.37 Q1702.28 1452.37 1700.45 1455.94 Q1698.64 1459.48 1698.64 1466.61 Q1698.64 1473.71 1700.45 1477.28 Q1702.28 1480.82 1705.89 1480.82 Q1709.52 1480.82 1711.33 1477.28 Q1713.15 1473.71 1713.15 1466.61 Q1713.15 1459.48 1711.33 1455.94 Q1709.52 1452.37 1705.89 1452.37 M1705.89 1448.67 Q1711.7 1448.67 1714.75 1453.27 Q1717.83 1457.86 1717.83 1466.61 Q1717.83 1475.33 1714.75 1479.94 Q1711.7 1484.52 1705.89 1484.52 Q1700.08 1484.52 1697 1479.94 Q1693.94 1475.33 1693.94 1466.61 Q1693.94 1457.86 1697 1453.27 Q1700.08 1448.67 1705.89 1448.67 Z" fill="#000000" fill-rule="evenodd" fill-opacity="1" /><path clip-path="url(#clip910)" d="M 0 0 M2020.89 1479.92 L2028.53 1479.92 L2028.53 1453.55 L2020.22 1455.22 L2020.22 1450.96 L2028.48 1449.29 L2033.16 1449.29 L2033.16 1479.92 L2040.8 1479.92 L2040.8 1483.85 L2020.89 1483.85 L2020.89 1479.92 Z" fill="#000000" fill-rule="evenodd" fill-opacity="1" /><path clip-path="url(#clip910)" d="M 0 0 M2049.9 1479.92 L2066.21 1479.92 L2066.21 1483.85 L2044.27 1483.85 L2044.27 1479.92 Q2046.93 1477.16 2051.52 1472.53 Q2056.12 1467.88 2057.3 1466.54 Q2059.55 1464.01 2060.43 1462.28 Q2061.33 1460.52 2061.33 1458.83 Q2061.33 1456.07 2059.39 1454.34 Q2057.46 1452.6 2054.36 1452.6 Q2052.16 1452.6 2049.71 1453.37 Q2047.28 1454.13 2044.5 1455.68 L2044.5 1450.96 Q2047.33 1449.82 2049.78 1449.25 Q2052.23 1448.67 2054.27 1448.67 Q2059.64 1448.67 2062.83 1451.35 Q2066.03 1454.04 2066.03 1458.53 Q2066.03 1460.66 2065.22 1462.58 Q2064.43 1464.48 2062.33 1467.07 Q2061.75 1467.74 2058.65 1470.96 Q2055.54 1474.15 2049.9 1479.92 Z" fill="#000000" fill-rule="evenodd" fill-opacity="1" /><path clip-path="url(#clip910)" d="M 0 0 M2071.28 1477.97 L2076.17 1477.97 L2076.17 1483.85 L2071.28 1483.85 L2071.28 1477.97 Z" fill="#000000" fill-rule="evenodd" fill-opacity="1" /><path clip-path="url(#clip910)" d="M 0 0 M2081.28 1449.29 L2099.64 1449.29 L2099.64 1453.23 L2085.57 1453.23 L2085.57 1461.7 Q2086.58 1461.35 2087.6 1461.19 Q2088.62 1461 2089.64 1461 Q2095.43 1461 2098.81 1464.18 Q2102.19 1467.35 2102.19 1472.76 Q2102.19 1478.34 2098.71 1481.44 Q2095.24 1484.52 2088.92 1484.52 Q2086.75 1484.52 2084.48 1484.15 Q2082.23 1483.78 2079.83 1483.04 L2079.83 1478.34 Q2081.91 1479.48 2084.13 1480.03 Q2086.35 1480.59 2088.83 1480.59 Q2092.83 1480.59 2095.17 1478.48 Q2097.51 1476.38 2097.51 1472.76 Q2097.51 1469.15 2095.17 1467.05 Q2092.83 1464.94 2088.83 1464.94 Q2086.96 1464.94 2085.08 1465.36 Q2083.23 1465.77 2081.28 1466.65 L2081.28 1449.29 Z" fill="#000000" fill-rule="evenodd" fill-opacity="1" /><path clip-path="url(#clip910)" d="M 0 0 M1225.64 1525.81 L1225.64 1562.76 L1233.4 1562.76 Q1243.24 1562.76 1247.79 1558.3 Q1252.37 1553.85 1252.37 1544.24 Q1252.37 1534.69 1247.79 1530.26 Q1243.24 1525.81 1233.4 1525.81 L1225.64 1525.81 M1219.21 1520.52 L1232.42 1520.52 Q1246.23 1520.52 1252.69 1526.28 Q1259.15 1532.01 1259.15 1544.24 Q1259.15 1556.52 1252.66 1562.28 Q1246.17 1568.04 1232.42 1568.04 L1219.21 1568.04 L1219.21 1520.52 Z" fill="#000000" fill-rule="evenodd" fill-opacity="1" /><path clip-path="url(#clip910)" d="M 0 0 M1281.5 1550.12 Q1274.4 1550.12 1271.66 1551.75 Q1268.92 1553.37 1268.92 1557.29 Q1268.92 1560.4 1270.96 1562.25 Q1273.03 1564.07 1276.56 1564.07 Q1281.43 1564.07 1284.36 1560.63 Q1287.32 1557.16 1287.32 1551.43 L1287.32 1550.12 L1281.5 1550.12 M1293.18 1547.71 L1293.18 1568.04 L1287.32 1568.04 L1287.32 1562.63 Q1285.32 1565.88 1282.32 1567.44 Q1279.33 1568.97 1275 1568.97 Q1269.53 1568.97 1266.28 1565.91 Q1263.07 1562.82 1263.07 1557.67 Q1263.07 1551.65 1267.08 1548.6 Q1271.12 1545.54 1279.11 1545.54 L1287.32 1545.54 L1287.32 1544.97 Q1287.32 1540.93 1284.65 1538.73 Q1282.01 1536.5 1277.2 1536.5 Q1274.14 1536.5 1271.25 1537.23 Q1268.35 1537.97 1265.68 1539.43 L1265.68 1534.02 Q1268.89 1532.78 1271.92 1532.17 Q1274.94 1531.54 1277.8 1531.54 Q1285.54 1531.54 1289.36 1535.55 Q1293.18 1539.56 1293.18 1547.71 Z" fill="#000000" fill-rule="evenodd" fill-opacity="1" /><path clip-path="url(#clip910)" d="M 0 0 M1314.15 1571.35 Q1311.67 1577.72 1309.31 1579.66 Q1306.96 1581.6 1303.01 1581.6 L1298.33 1581.6 L1298.33 1576.7 L1301.77 1576.7 Q1304.19 1576.7 1305.53 1575.56 Q1306.86 1574.41 1308.49 1570.14 L1309.54 1567.47 L1295.12 1532.4 L1301.33 1532.4 L1312.47 1560.28 L1323.61 1532.4 L1329.81 1532.4 L1314.15 1571.35 Z" fill="#000000" fill-rule="evenodd" fill-opacity="1" /><path clip-path="url(#clip910)" d="M 0 0 M1358.68 1533.45 L1358.68 1538.98 Q1356.2 1537.71 1353.52 1537.07 Q1350.85 1536.44 1347.99 1536.44 Q1343.63 1536.44 1341.43 1537.77 Q1339.27 1539.11 1339.27 1541.79 Q1339.27 1543.82 1340.82 1545 Q1342.38 1546.15 1347.09 1547.2 L1349.1 1547.64 Q1355.34 1548.98 1357.95 1551.43 Q1360.59 1553.85 1360.59 1558.21 Q1360.59 1563.17 1356.64 1566.07 Q1352.73 1568.97 1345.85 1568.97 Q1342.99 1568.97 1339.87 1568.39 Q1336.78 1567.85 1333.34 1566.74 L1333.34 1560.69 Q1336.59 1562.38 1339.74 1563.24 Q1342.89 1564.07 1345.98 1564.07 Q1350.12 1564.07 1352.35 1562.66 Q1354.57 1561.23 1354.57 1558.65 Q1354.57 1556.27 1352.95 1554.99 Q1351.36 1553.72 1345.92 1552.54 L1343.88 1552.07 Q1338.44 1550.92 1336.02 1548.56 Q1333.6 1546.18 1333.6 1542.04 Q1333.6 1537.01 1337.16 1534.27 Q1340.73 1531.54 1347.29 1531.54 Q1350.53 1531.54 1353.4 1532.01 Q1356.26 1532.49 1358.68 1533.45 Z" fill="#000000" fill-rule="evenodd" fill-opacity="1" /><polyline clip-path="url(#clip912)" style="stroke:#000000; stroke-width:2; stroke-opacity:0.1; fill:none" points="
  227.042,1375.53 2352.76,1375.53 
  "/>
<polyline clip-path="url(#clip912)" style="stroke:#000000; stroke-width:2; stroke-opacity:0.1; fill:none" points="
  227.042,939.938 2352.76,939.938 
  "/>
<polyline clip-path="url(#clip912)" style="stroke:#000000; stroke-width:2; stroke-opacity:0.1; fill:none" points="
  227.042,504.35 2352.76,504.35 
  "/>
<polyline clip-path="url(#clip912)" style="stroke:#000000; stroke-width:2; stroke-opacity:0.1; fill:none" points="
  227.042,68.7621 2352.76,68.7621 
  "/>
<polyline clip-path="url(#clip910)" style="stroke:#000000; stroke-width:4; stroke-opacity:1; fill:none" points="
  227.042,1423.18 227.042,47.2441 
  "/>
<polyline clip-path="url(#clip910)" style="stroke:#000000; stroke-width:4; stroke-opacity:1; fill:none" points="
  227.042,1375.53 252.551,1375.53 
  "/>
<polyline clip-path="url(#clip910)" style="stroke:#000000; stroke-width:4; stroke-opacity:1; fill:none" points="
  227.042,939.938 252.551,939.938 
  "/>
<polyline clip-path="url(#clip910)" style="stroke:#000000; stroke-width:4; stroke-opacity:1; fill:none" points="
  227.042,504.35 252.551,504.35 
  "/>
<polyline clip-path="url(#clip910)" style="stroke:#000000; stroke-width:4; stroke-opacity:1; fill:none" points="
  227.042,68.7621 252.551,68.7621 
  "/>
<path clip-path="url(#clip910)" d="M 0 0 M179.098 1361.33 Q175.487 1361.33 173.658 1364.89 Q171.852 1368.43 171.852 1375.56 Q171.852 1382.67 173.658 1386.23 Q175.487 1389.77 179.098 1389.77 Q182.732 1389.77 184.538 1386.23 Q186.366 1382.67 186.366 1375.56 Q186.366 1368.43 184.538 1364.89 Q182.732 1361.33 179.098 1361.33 M179.098 1357.62 Q184.908 1357.62 187.963 1362.23 Q191.042 1366.81 191.042 1375.56 Q191.042 1384.29 187.963 1388.89 Q184.908 1393.48 179.098 1393.48 Q173.288 1393.48 170.209 1388.89 Q167.153 1384.29 167.153 1375.56 Q167.153 1366.81 170.209 1362.23 Q173.288 1357.62 179.098 1357.62 Z" fill="#000000" fill-rule="evenodd" fill-opacity="1" /><path clip-path="url(#clip910)" d="M 0 0 M117.107 953.283 L124.746 953.283 L124.746 926.918 L116.436 928.584 L116.436 924.325 L124.7 922.658 L129.376 922.658 L129.376 953.283 L137.015 953.283 L137.015 957.218 L117.107 957.218 L117.107 953.283 Z" fill="#000000" fill-rule="evenodd" fill-opacity="1" /><path clip-path="url(#clip910)" d="M 0 0 M152.084 925.737 Q148.473 925.737 146.644 929.302 Q144.839 932.844 144.839 939.973 Q144.839 947.08 146.644 950.644 Q148.473 954.186 152.084 954.186 Q155.718 954.186 157.524 950.644 Q159.353 947.08 159.353 939.973 Q159.353 932.844 157.524 929.302 Q155.718 925.737 152.084 925.737 M152.084 922.033 Q157.894 922.033 160.95 926.64 Q164.028 931.223 164.028 939.973 Q164.028 948.7 160.95 953.306 Q157.894 957.89 152.084 957.89 Q146.274 957.89 143.195 953.306 Q140.14 948.7 140.14 939.973 Q140.14 931.223 143.195 926.64 Q146.274 922.033 152.084 922.033 Z" fill="#000000" fill-rule="evenodd" fill-opacity="1" /><path clip-path="url(#clip910)" d="M 0 0 M179.098 925.737 Q175.487 925.737 173.658 929.302 Q171.852 932.844 171.852 939.973 Q171.852 947.08 173.658 950.644 Q175.487 954.186 179.098 954.186 Q182.732 954.186 184.538 950.644 Q186.366 947.08 186.366 939.973 Q186.366 932.844 184.538 929.302 Q182.732 925.737 179.098 925.737 M179.098 922.033 Q184.908 922.033 187.963 926.64 Q191.042 931.223 191.042 939.973 Q191.042 948.7 187.963 953.306 Q184.908 957.89 179.098 957.89 Q173.288 957.89 170.209 953.306 Q167.153 948.7 167.153 939.973 Q167.153 931.223 170.209 926.64 Q173.288 922.033 179.098 922.033 Z" fill="#000000" fill-rule="evenodd" fill-opacity="1" /><path clip-path="url(#clip910)" d="M 0 0 M120.695 517.695 L137.015 517.695 L137.015 521.63 L115.07 521.63 L115.07 517.695 Q117.732 514.94 122.316 510.311 Q126.922 505.658 128.103 504.316 Q130.348 501.792 131.228 500.056 Q132.13 498.297 132.13 496.607 Q132.13 493.853 130.186 492.117 Q128.265 490.38 125.163 490.38 Q122.964 490.38 120.51 491.144 Q118.08 491.908 115.302 493.459 L115.302 488.737 Q118.126 487.603 120.58 487.024 Q123.033 486.445 125.07 486.445 Q130.441 486.445 133.635 489.13 Q136.829 491.816 136.829 496.306 Q136.829 498.436 136.019 500.357 Q135.232 502.255 133.126 504.848 Q132.547 505.519 129.445 508.737 Q126.343 511.931 120.695 517.695 Z" fill="#000000" fill-rule="evenodd" fill-opacity="1" /><path clip-path="url(#clip910)" d="M 0 0 M152.084 490.149 Q148.473 490.149 146.644 493.714 Q144.839 497.255 144.839 504.385 Q144.839 511.491 146.644 515.056 Q148.473 518.598 152.084 518.598 Q155.718 518.598 157.524 515.056 Q159.353 511.491 159.353 504.385 Q159.353 497.255 157.524 493.714 Q155.718 490.149 152.084 490.149 M152.084 486.445 Q157.894 486.445 160.95 491.052 Q164.028 495.635 164.028 504.385 Q164.028 513.112 160.95 517.718 Q157.894 522.302 152.084 522.302 Q146.274 522.302 143.195 517.718 Q140.14 513.112 140.14 504.385 Q140.14 495.635 143.195 491.052 Q146.274 486.445 152.084 486.445 Z" fill="#000000" fill-rule="evenodd" fill-opacity="1" /><path clip-path="url(#clip910)" d="M 0 0 M179.098 490.149 Q175.487 490.149 173.658 493.714 Q171.852 497.255 171.852 504.385 Q171.852 511.491 173.658 515.056 Q175.487 518.598 179.098 518.598 Q182.732 518.598 184.538 515.056 Q186.366 511.491 186.366 504.385 Q186.366 497.255 184.538 493.714 Q182.732 490.149 179.098 490.149 M179.098 486.445 Q184.908 486.445 187.963 491.052 Q191.042 495.635 191.042 504.385 Q191.042 513.112 187.963 517.718 Q184.908 522.302 179.098 522.302 Q173.288 522.302 170.209 517.718 Q167.153 513.112 167.153 504.385 Q167.153 495.635 170.209 491.052 Q173.288 486.445 179.098 486.445 Z" fill="#000000" fill-rule="evenodd" fill-opacity="1" /><path clip-path="url(#clip910)" d="M 0 0 M129.885 67.408 Q133.242 68.1256 135.117 70.3941 Q137.015 72.6626 137.015 75.9959 Q137.015 81.1116 133.496 83.9125 Q129.978 86.7134 123.496 86.7134 Q121.32 86.7134 119.006 86.2736 Q116.714 85.857 114.26 85.0005 L114.26 80.4866 Q116.205 81.6209 118.519 82.1996 Q120.834 82.7783 123.357 82.7783 Q127.755 82.7783 130.047 81.0422 Q132.362 79.3061 132.362 75.9959 Q132.362 72.9404 130.209 71.2274 Q128.08 69.4913 124.26 69.4913 L120.232 69.4913 L120.232 65.6487 L124.445 65.6487 Q127.894 65.6487 129.723 64.283 Q131.552 62.8941 131.552 60.3015 Q131.552 57.6395 129.654 56.2275 Q127.779 54.7923 124.26 54.7923 Q122.339 54.7923 120.14 55.209 Q117.941 55.6256 115.302 56.5053 L115.302 52.3386 Q117.964 51.5979 120.279 51.2275 Q122.617 50.8572 124.677 50.8572 Q130.001 50.8572 133.103 53.2877 Q136.204 55.6951 136.204 59.8154 Q136.204 62.6858 134.561 64.6765 Q132.917 66.6441 129.885 67.408 Z" fill="#000000" fill-rule="evenodd" fill-opacity="1" /><path clip-path="url(#clip910)" d="M 0 0 M152.084 54.5608 Q148.473 54.5608 146.644 58.1256 Q144.839 61.6673 144.839 68.7969 Q144.839 75.9033 146.644 79.4681 Q148.473 83.0098 152.084 83.0098 Q155.718 83.0098 157.524 79.4681 Q159.353 75.9033 159.353 68.7969 Q159.353 61.6673 157.524 58.1256 Q155.718 54.5608 152.084 54.5608 M152.084 50.8572 Q157.894 50.8572 160.95 55.4636 Q164.028 60.0469 164.028 68.7969 Q164.028 77.5237 160.95 82.1301 Q157.894 86.7134 152.084 86.7134 Q146.274 86.7134 143.195 82.1301 Q140.14 77.5237 140.14 68.7969 Q140.14 60.0469 143.195 55.4636 Q146.274 50.8572 152.084 50.8572 Z" fill="#000000" fill-rule="evenodd" fill-opacity="1" /><path clip-path="url(#clip910)" d="M 0 0 M179.098 54.5608 Q175.487 54.5608 173.658 58.1256 Q171.852 61.6673 171.852 68.7969 Q171.852 75.9033 173.658 79.4681 Q175.487 83.0098 179.098 83.0098 Q182.732 83.0098 184.538 79.4681 Q186.366 75.9033 186.366 68.7969 Q186.366 61.6673 184.538 58.1256 Q182.732 54.5608 179.098 54.5608 M179.098 50.8572 Q184.908 50.8572 187.963 55.4636 Q191.042 60.0469 191.042 68.7969 Q191.042 77.5237 187.963 82.1301 Q184.908 86.7134 179.098 86.7134 Q173.288 86.7134 170.209 82.1301 Q167.153 77.5237 167.153 68.7969 Q167.153 60.0469 170.209 55.4636 Q173.288 50.8572 179.098 50.8572 Z" fill="#000000" fill-rule="evenodd" fill-opacity="1" /><path clip-path="url(#clip910)" d="M 0 0 M16.4842 850.67 L16.4842 844.241 L64.0042 844.241 L64.0042 850.67 L16.4842 850.67 Z" fill="#000000" fill-rule="evenodd" fill-opacity="1" /><path clip-path="url(#clip910)" d="M 0 0 M42.4881 808.465 L64.0042 808.465 L64.0042 814.322 L42.679 814.322 Q37.6183 814.322 35.1038 816.295 Q32.5894 818.269 32.5894 822.215 Q32.5894 826.958 35.6131 829.695 Q38.6368 832.432 43.8567 832.432 L64.0042 832.432 L64.0042 838.321 L28.3562 838.321 L28.3562 832.432 L33.8944 832.432 Q30.6797 830.332 29.0883 827.499 Q27.4968 824.634 27.4968 820.91 Q27.4968 814.767 31.3163 811.616 Q35.1038 808.465 42.4881 808.465 Z" fill="#000000" fill-rule="evenodd" fill-opacity="1" /><path clip-path="url(#clip910)" d="M 0 0 M14.479 784.276 L19.3487 784.276 L19.3487 789.877 Q19.3487 793.028 20.6219 794.27 Q21.895 795.479 25.2052 795.479 L28.3562 795.479 L28.3562 785.835 L32.9077 785.835 L32.9077 795.479 L64.0042 795.479 L64.0042 801.368 L32.9077 801.368 L32.9077 806.969 L28.3562 806.969 L28.3562 801.368 L25.8736 801.368 Q19.9216 801.368 17.2162 798.598 Q14.479 795.829 14.479 789.814 L14.479 784.276 Z" fill="#000000" fill-rule="evenodd" fill-opacity="1" /><path clip-path="url(#clip910)" d="M 0 0 M44.7161 747.641 L47.5806 747.641 L47.5806 774.568 Q53.6281 774.186 56.8109 770.939 Q59.9619 767.661 59.9619 761.837 Q59.9619 758.463 59.1344 755.312 Q58.3069 752.129 56.6518 749.01 L62.1899 749.01 Q63.5267 752.161 64.227 755.471 Q64.9272 758.781 64.9272 762.187 Q64.9272 770.717 59.9619 775.714 Q54.9967 780.679 46.5303 780.679 Q37.7774 780.679 32.6531 775.968 Q27.4968 771.226 27.4968 763.205 Q27.4968 756.012 32.1438 751.842 Q36.7589 747.641 44.7161 747.641 M42.9973 753.497 Q38.1912 753.561 35.3266 756.203 Q32.4621 758.813 32.4621 763.142 Q32.4621 768.043 35.2312 771.003 Q38.0002 773.931 43.0292 774.377 L42.9973 753.497 Z" fill="#000000" fill-rule="evenodd" fill-opacity="1" /><path clip-path="url(#clip910)" d="M 0 0 M29.7248 715.844 L35.1993 715.844 Q33.8307 718.327 33.1623 720.841 Q32.4621 723.324 32.4621 725.87 Q32.4621 731.568 36.0905 734.719 Q39.6872 737.87 46.212 737.87 Q52.7369 737.87 56.3653 734.719 Q59.9619 731.568 59.9619 725.87 Q59.9619 723.324 59.2935 720.841 Q58.5933 718.327 57.2247 715.844 L62.6355 715.844 Q63.7814 718.295 64.3543 720.937 Q64.9272 723.547 64.9272 726.507 Q64.9272 734.559 59.8664 739.302 Q54.8057 744.044 46.212 744.044 Q37.491 744.044 32.4939 739.27 Q27.4968 734.464 27.4968 726.125 Q27.4968 723.419 28.0697 720.841 Q28.6108 718.263 29.7248 715.844 Z" fill="#000000" fill-rule="evenodd" fill-opacity="1" /><path clip-path="url(#clip910)" d="M 0 0 M18.2347 703.909 L28.3562 703.909 L28.3562 691.846 L32.9077 691.846 L32.9077 703.909 L52.2594 703.909 Q56.6199 703.909 57.8613 702.731 Q59.1026 701.521 59.1026 697.861 L59.1026 691.846 L64.0042 691.846 L64.0042 697.861 Q64.0042 704.641 61.4897 707.219 Q58.9434 709.797 52.2594 709.797 L32.9077 709.797 L32.9077 714.094 L28.3562 714.094 L28.3562 709.797 L18.2347 709.797 L18.2347 703.909 Z" fill="#000000" fill-rule="evenodd" fill-opacity="1" /><path clip-path="url(#clip910)" d="M 0 0 M44.7161 655.211 L47.5806 655.211 L47.5806 682.138 Q53.6281 681.756 56.8109 678.509 Q59.9619 675.231 59.9619 669.406 Q59.9619 666.033 59.1344 662.882 Q58.3069 659.699 56.6518 656.58 L62.1899 656.58 Q63.5267 659.731 64.227 663.041 Q64.9272 666.351 64.9272 669.757 Q64.9272 678.287 59.9619 683.284 Q54.9967 688.249 46.5303 688.249 Q37.7774 688.249 32.6531 683.538 Q27.4968 678.796 27.4968 670.775 Q27.4968 663.582 32.1438 659.412 Q36.7589 655.211 44.7161 655.211 M42.9973 661.067 Q38.1912 661.131 35.3266 663.773 Q32.4621 666.383 32.4621 670.711 Q32.4621 675.613 35.2312 678.573 Q38.0002 681.501 43.0292 681.947 L42.9973 661.067 Z" fill="#000000" fill-rule="evenodd" fill-opacity="1" /><path clip-path="url(#clip910)" d="M 0 0 M33.7671 625.61 L14.479 625.61 L14.479 619.754 L64.0042 619.754 L64.0042 625.61 L58.657 625.61 Q61.8398 627.456 63.3994 630.289 Q64.9272 633.09 64.9272 637.037 Q64.9272 643.498 59.771 647.572 Q54.6147 651.614 46.212 651.614 Q37.8093 651.614 32.6531 647.572 Q27.4968 643.498 27.4968 637.037 Q27.4968 633.09 29.0564 630.289 Q30.5842 627.456 33.7671 625.61 M46.212 645.567 Q52.6732 645.567 56.3653 642.925 Q60.0256 640.252 60.0256 635.605 Q60.0256 630.958 56.3653 628.284 Q52.6732 625.61 46.212 625.61 Q39.7508 625.61 36.0905 628.284 Q32.3984 630.958 32.3984 635.605 Q32.3984 640.252 36.0905 642.925 Q39.7508 645.567 46.212 645.567 Z" fill="#000000" fill-rule="evenodd" fill-opacity="1" /><polyline clip-path="url(#clip912)" style="stroke:#0000ff; stroke-width:4; stroke-opacity:1; fill:none" points="
  287.204,1384.24 287.204,1340.68 
  "/>
<polyline clip-path="url(#clip912)" style="stroke:#0000ff; stroke-width:4; stroke-opacity:1; fill:none" points="
  441.465,1362.46 441.465,1318.9 
  "/>
<polyline clip-path="url(#clip912)" style="stroke:#0000ff; stroke-width:4; stroke-opacity:1; fill:none" points="
  595.725,1275.34 595.725,1231.78 
  "/>
<polyline clip-path="url(#clip912)" style="stroke:#0000ff; stroke-width:4; stroke-opacity:1; fill:none" points="
  749.986,1070.61 749.986,1027.06 
  "/>
<polyline clip-path="url(#clip912)" style="stroke:#0000ff; stroke-width:4; stroke-opacity:1; fill:none" points="
  904.247,434.656 904.247,391.097 
  "/>
<polyline clip-path="url(#clip912)" style="stroke:#0000ff; stroke-width:4; stroke-opacity:1; fill:none" points="
  1058.51,129.744 1058.51,86.1857 
  "/>
<polyline clip-path="url(#clip912)" style="stroke:#0000ff; stroke-width:4; stroke-opacity:1; fill:none" points="
  1212.77,286.556 1212.77,242.997 
  "/>
<polyline clip-path="url(#clip912)" style="stroke:#0000ff; stroke-width:4; stroke-opacity:1; fill:none" points="
  1367.03,373.674 1367.03,330.115 
  "/>
<polyline clip-path="url(#clip912)" style="stroke:#0000ff; stroke-width:4; stroke-opacity:1; fill:none" points="
  1521.29,569.688 1521.29,526.13 
  "/>
<polyline clip-path="url(#clip912)" style="stroke:#0000ff; stroke-width:4; stroke-opacity:1; fill:none" points="
  1675.55,848.465 1675.55,804.906 
  "/>
<polyline clip-path="url(#clip912)" style="stroke:#0000ff; stroke-width:4; stroke-opacity:1; fill:none" points="
  1829.81,1092.39 1829.81,1048.84 
  "/>
<polyline clip-path="url(#clip912)" style="stroke:#0000ff; stroke-width:4; stroke-opacity:1; fill:none" points="
  1984.07,1275.34 1984.07,1231.78 
  "/>
<polyline clip-path="url(#clip912)" style="stroke:#0000ff; stroke-width:4; stroke-opacity:1; fill:none" points="
  2138.33,1345.04 2138.33,1301.48 
  "/>
<polyline clip-path="url(#clip912)" style="stroke:#0000ff; stroke-width:4; stroke-opacity:1; fill:none" points="
  2292.59,1375.53 2292.59,1331.97 
  "/>
<line clip-path="url(#clip912)" x1="303.204" y1="1384.24" x2="271.204" y2="1384.24" style="stroke:#0000ff; stroke-width:3.2; stroke-opacity:1"/>
<line clip-path="url(#clip912)" x1="303.204" y1="1340.68" x2="271.204" y2="1340.68" style="stroke:#0000ff; stroke-width:3.2; stroke-opacity:1"/>
<line clip-path="url(#clip912)" x1="457.465" y1="1362.46" x2="425.465" y2="1362.46" style="stroke:#0000ff; stroke-width:3.2; stroke-opacity:1"/>
<line clip-path="url(#clip912)" x1="457.465" y1="1318.9" x2="425.465" y2="1318.9" style="stroke:#0000ff; stroke-width:3.2; stroke-opacity:1"/>
<line clip-path="url(#clip912)" x1="611.725" y1="1275.34" x2="579.725" y2="1275.34" style="stroke:#0000ff; stroke-width:3.2; stroke-opacity:1"/>
<line clip-path="url(#clip912)" x1="611.725" y1="1231.78" x2="579.725" y2="1231.78" style="stroke:#0000ff; stroke-width:3.2; stroke-opacity:1"/>
<line clip-path="url(#clip912)" x1="765.986" y1="1070.61" x2="733.986" y2="1070.61" style="stroke:#0000ff; stroke-width:3.2; stroke-opacity:1"/>
<line clip-path="url(#clip912)" x1="765.986" y1="1027.06" x2="733.986" y2="1027.06" style="stroke:#0000ff; stroke-width:3.2; stroke-opacity:1"/>
<line clip-path="url(#clip912)" x1="920.247" y1="434.656" x2="888.247" y2="434.656" style="stroke:#0000ff; stroke-width:3.2; stroke-opacity:1"/>
<line clip-path="url(#clip912)" x1="920.247" y1="391.097" x2="888.247" y2="391.097" style="stroke:#0000ff; stroke-width:3.2; stroke-opacity:1"/>
<line clip-path="url(#clip912)" x1="1074.51" y1="129.744" x2="1042.51" y2="129.744" style="stroke:#0000ff; stroke-width:3.2; stroke-opacity:1"/>
<line clip-path="url(#clip912)" x1="1074.51" y1="86.1857" x2="1042.51" y2="86.1857" style="stroke:#0000ff; stroke-width:3.2; stroke-opacity:1"/>
<line clip-path="url(#clip912)" x1="1228.77" y1="286.556" x2="1196.77" y2="286.556" style="stroke:#0000ff; stroke-width:3.2; stroke-opacity:1"/>
<line clip-path="url(#clip912)" x1="1228.77" y1="242.997" x2="1196.77" y2="242.997" style="stroke:#0000ff; stroke-width:3.2; stroke-opacity:1"/>
<line clip-path="url(#clip912)" x1="1383.03" y1="373.674" x2="1351.03" y2="373.674" style="stroke:#0000ff; stroke-width:3.2; stroke-opacity:1"/>
<line clip-path="url(#clip912)" x1="1383.03" y1="330.115" x2="1351.03" y2="330.115" style="stroke:#0000ff; stroke-width:3.2; stroke-opacity:1"/>
<line clip-path="url(#clip912)" x1="1537.29" y1="569.688" x2="1505.29" y2="569.688" style="stroke:#0000ff; stroke-width:3.2; stroke-opacity:1"/>
<line clip-path="url(#clip912)" x1="1537.29" y1="526.13" x2="1505.29" y2="526.13" style="stroke:#0000ff; stroke-width:3.2; stroke-opacity:1"/>
<line clip-path="url(#clip912)" x1="1691.55" y1="848.465" x2="1659.55" y2="848.465" style="stroke:#0000ff; stroke-width:3.2; stroke-opacity:1"/>
<line clip-path="url(#clip912)" x1="1691.55" y1="804.906" x2="1659.55" y2="804.906" style="stroke:#0000ff; stroke-width:3.2; stroke-opacity:1"/>
<line clip-path="url(#clip912)" x1="1845.81" y1="1092.39" x2="1813.81" y2="1092.39" style="stroke:#0000ff; stroke-width:3.2; stroke-opacity:1"/>
<line clip-path="url(#clip912)" x1="1845.81" y1="1048.84" x2="1813.81" y2="1048.84" style="stroke:#0000ff; stroke-width:3.2; stroke-opacity:1"/>
<line clip-path="url(#clip912)" x1="2000.07" y1="1275.34" x2="1968.07" y2="1275.34" style="stroke:#0000ff; stroke-width:3.2; stroke-opacity:1"/>
<line clip-path="url(#clip912)" x1="2000.07" y1="1231.78" x2="1968.07" y2="1231.78" style="stroke:#0000ff; stroke-width:3.2; stroke-opacity:1"/>
<line clip-path="url(#clip912)" x1="2154.33" y1="1345.04" x2="2122.33" y2="1345.04" style="stroke:#0000ff; stroke-width:3.2; stroke-opacity:1"/>
<line clip-path="url(#clip912)" x1="2154.33" y1="1301.48" x2="2122.33" y2="1301.48" style="stroke:#0000ff; stroke-width:3.2; stroke-opacity:1"/>
<line clip-path="url(#clip912)" x1="2308.59" y1="1375.53" x2="2276.59" y2="1375.53" style="stroke:#0000ff; stroke-width:3.2; stroke-opacity:1"/>
<line clip-path="url(#clip912)" x1="2308.59" y1="1331.97" x2="2276.59" y2="1331.97" style="stroke:#0000ff; stroke-width:3.2; stroke-opacity:1"/>
<circle clip-path="url(#clip912)" cx="287.204" cy="1362.46" r="14" fill="#0000ff" fill-rule="evenodd" fill-opacity="1" stroke="none"/>
<circle clip-path="url(#clip912)" cx="441.465" cy="1340.68" r="14" fill="#0000ff" fill-rule="evenodd" fill-opacity="1" stroke="none"/>
<circle clip-path="url(#clip912)" cx="595.725" cy="1253.56" r="14" fill="#0000ff" fill-rule="evenodd" fill-opacity="1" stroke="none"/>
<circle clip-path="url(#clip912)" cx="749.986" cy="1048.84" r="14" fill="#0000ff" fill-rule="evenodd" fill-opacity="1" stroke="none"/>
<circle clip-path="url(#clip912)" cx="904.247" cy="412.877" r="14" fill="#0000ff" fill-rule="evenodd" fill-opacity="1" stroke="none"/>
<circle clip-path="url(#clip912)" cx="1058.51" cy="107.965" r="14" fill="#0000ff" fill-rule="evenodd" fill-opacity="1" stroke="none"/>
<circle clip-path="url(#clip912)" cx="1212.77" cy="264.777" r="14" fill="#0000ff" fill-rule="evenodd" fill-opacity="1" stroke="none"/>
<circle clip-path="url(#clip912)" cx="1367.03" cy="351.894" r="14" fill="#0000ff" fill-rule="evenodd" fill-opacity="1" stroke="none"/>
<circle clip-path="url(#clip912)" cx="1521.29" cy="547.909" r="14" fill="#0000ff" fill-rule="evenodd" fill-opacity="1" stroke="none"/>
<circle clip-path="url(#clip912)" cx="1675.55" cy="826.685" r="14" fill="#0000ff" fill-rule="evenodd" fill-opacity="1" stroke="none"/>
<circle clip-path="url(#clip912)" cx="1829.81" cy="1070.61" r="14" fill="#0000ff" fill-rule="evenodd" fill-opacity="1" stroke="none"/>
<circle clip-path="url(#clip912)" cx="1984.07" cy="1253.56" r="14" fill="#0000ff" fill-rule="evenodd" fill-opacity="1" stroke="none"/>
<circle clip-path="url(#clip912)" cx="2138.33" cy="1323.26" r="14" fill="#0000ff" fill-rule="evenodd" fill-opacity="1" stroke="none"/>
<circle clip-path="url(#clip912)" cx="2292.59" cy="1353.75" r="14" fill="#0000ff" fill-rule="evenodd" fill-opacity="1" stroke="none"/>
<polyline clip-path="url(#clip912)" style="stroke:#ff0000; stroke-width:8; stroke-opacity:1; fill:none" points="
  287.204,1360.89 291.223,1360.42 295.242,1359.93 299.26,1359.44 303.279,1358.92 307.298,1358.39 311.317,1357.85 315.336,1357.28 319.354,1356.7 323.373,1356.1 
  327.392,1355.48 331.411,1354.84 335.43,1354.18 339.449,1353.5 343.467,1352.8 347.486,1352.08 351.505,1351.33 355.524,1350.56 359.543,1349.77 363.561,1348.95 
  367.58,1348.11 371.599,1347.24 375.618,1346.34 379.637,1345.42 383.656,1344.46 387.674,1343.48 391.693,1342.46 395.712,1341.42 399.731,1340.34 403.75,1339.23 
  407.768,1338.08 411.787,1336.9 415.806,1335.68 419.825,1334.43 423.844,1333.14 427.863,1331.8 431.881,1330.43 435.9,1329.01 439.919,1327.55 443.938,1326.05 
  447.957,1324.5 451.975,1322.91 455.994,1321.26 460.013,1319.57 464.032,1317.82 468.051,1316.02 472.07,1314.17 476.088,1312.26 480.107,1310.3 484.126,1308.27 
  488.145,1306.19 492.164,1304.05 496.182,1301.84 500.201,1299.56 504.22,1297.22 508.239,1294.81 512.258,1292.33 516.277,1289.78 520.295,1287.15 524.314,1284.45 
  528.333,1281.67 532.352,1278.81 536.371,1275.87 540.389,1272.84 544.408,1269.73 548.427,1266.53 552.446,1263.24 556.465,1259.86 560.484,1256.38 564.502,1252.8 
  568.521,1249.13 572.54,1245.36 576.559,1241.48 580.578,1237.5 584.596,1233.41 588.615,1229.2 592.634,1224.89 596.653,1220.46 600.672,1215.92 604.691,1211.25 
  608.709,1206.47 612.728,1201.56 616.747,1196.52 620.766,1191.35 624.785,1186.06 628.803,1180.63 632.822,1175.06 636.841,1169.36 640.86,1163.52 644.879,1157.54 
  648.898,1151.41 652.916,1145.14 656.935,1138.72 660.954,1132.15 664.973,1125.43 668.992,1118.55 673.01,1111.52 677.029,1104.34 681.048,1097 685.067,1089.5 
  689.086,1081.83 693.105,1074.01 697.123,1066.03 701.142,1057.88 705.161,1049.57 709.18,1041.09 713.199,1032.45 717.217,1023.64 721.236,1014.67 725.255,1005.54 
  729.274,996.237 733.293,986.773 737.312,977.147 741.33,967.359 745.349,957.41 749.368,947.301 753.387,937.036 757.406,926.614 761.424,916.04 765.443,905.314 
  769.462,894.44 773.481,883.422 777.5,872.261 781.519,860.962 785.537,849.528 789.556,837.964 793.575,826.274 797.594,814.463 801.613,802.536 805.631,790.497 
  809.65,778.353 813.669,766.109 817.688,753.772 821.707,741.347 825.726,728.841 829.744,716.262 833.763,703.615 837.782,690.91 841.801,678.153 845.82,665.351 
  849.838,652.514 853.857,639.649 857.876,626.765 861.895,613.87 865.914,600.973 869.933,588.084 873.951,575.209 877.97,562.36 881.989,549.546 886.008,536.774 
  890.027,524.056 894.045,511.399 898.064,498.814 902.083,486.31 906.102,473.896 910.121,461.582 914.14,449.376 918.158,437.289 922.177,425.328 926.196,413.503 
  930.215,401.823 934.234,390.296 938.252,378.931 942.271,367.736 946.29,356.719 950.309,345.888 954.328,335.25 958.347,324.813 962.365,314.585 966.384,304.571 
  970.403,294.778 974.422,285.212 978.441,275.88 982.459,266.787 986.478,257.938 990.497,249.337 994.516,240.991 998.535,232.902 1002.55,225.075 1006.57,217.514 
  1010.59,210.22 1014.61,203.199 1018.63,196.451 1022.65,189.979 1026.67,183.785 1030.69,177.87 1034.7,172.236 1038.72,166.883 1042.74,161.812 1046.76,157.023 
  1050.78,152.516 1054.8,148.291 1058.82,144.346 1062.84,140.682 1066.85,137.296 1070.87,134.187 1074.89,131.353 1078.91,128.793 1082.93,126.503 1086.95,124.483 
  1090.97,122.728 1094.99,121.236 1099.01,120.005 1103.02,119.03 1107.04,118.309 1111.06,117.837 1115.08,117.612 1119.1,117.629 1123.12,117.884 1127.14,118.374 
  1131.16,119.093 1135.17,120.039 1139.19,121.206 1143.21,122.59 1147.23,124.187 1151.25,125.992 1155.27,128 1159.29,130.207 1163.31,132.608 1167.33,135.199 
  1171.34,137.974 1175.36,140.929 1179.38,144.06 1183.4,147.361 1187.42,150.828 1191.44,154.455 1195.46,158.24 1199.48,162.176 1203.49,166.259 1207.51,170.485 
  1211.53,174.849 1215.55,179.346 1219.57,183.973 1223.59,188.723 1227.61,193.594 1231.63,198.581 1235.64,203.68 1239.66,208.886 1243.68,214.195 1247.7,219.603 
  1251.72,225.106 1255.74,230.701 1259.76,236.383 1263.78,242.148 1267.8,247.994 1271.81,253.915 1275.83,259.908 1279.85,265.971 1283.87,272.099 1287.89,278.289 
  1291.91,284.538 1295.93,290.843 1299.95,297.2 1303.96,303.606 1307.98,310.058 1312,316.554 1316.02,323.09 1320.04,329.664 1324.06,336.272 1328.08,342.913 
  1332.1,349.583 1336.12,356.281 1340.13,363.003 1344.15,369.747 1348.17,376.511 1352.19,383.292 1356.21,390.089 1360.23,396.899 1364.25,403.72 1368.27,410.55 
  1372.28,417.388 1376.3,424.231 1380.32,431.077 1384.34,437.925 1388.36,444.772 1392.38,451.618 1396.4,458.461 1400.42,465.298 1404.44,472.129 1408.45,478.952 
  1412.47,485.766 1416.49,492.569 1420.51,499.36 1424.53,506.137 1428.55,512.9 1432.57,519.647 1436.59,526.378 1440.6,533.09 1444.62,539.783 1448.64,546.456 
  1452.66,553.108 1456.68,559.738 1460.7,566.345 1464.72,572.928 1468.74,579.487 1472.76,586.02 1476.77,592.526 1480.79,599.006 1484.81,605.459 1488.83,611.882 
  1492.85,618.277 1496.87,624.643 1500.89,630.978 1504.91,637.282 1508.92,643.555 1512.94,649.797 1516.96,656.006 1520.98,662.182 1525,668.325 1529.02,674.435 
  1533.04,680.511 1537.06,686.552 1541.08,692.559 1545.09,698.531 1549.11,704.468 1553.13,710.369 1557.15,716.234 1561.17,722.063 1565.19,727.856 1569.21,733.612 
  1573.23,739.332 1577.24,745.015 1581.26,750.66 1585.28,756.269 1589.3,761.84 1593.32,767.374 1597.34,772.871 1601.36,778.329 1605.38,783.75 1609.4,789.134 
  1613.41,794.479 1617.43,799.787 1621.45,805.056 1625.47,810.288 1629.49,815.482 1633.51,820.638 1637.53,825.755 1641.55,830.835 1645.56,835.878 1649.58,840.882 
  1653.6,845.848 1657.62,850.777 1661.64,855.668 1665.66,860.522 1669.68,865.338 1673.7,870.116 1677.71,874.857 1681.73,879.561 1685.75,884.228 1689.77,888.857 
  1693.79,893.45 1697.81,898.006 1701.83,902.525 1705.85,907.007 1709.87,911.453 1713.88,915.863 1717.9,920.237 1721.92,924.574 1725.94,928.876 1729.96,933.142 
  1733.98,937.372 1738,941.567 1742.02,945.727 1746.03,949.852 1750.05,953.942 1754.07,957.997 1758.09,962.018 1762.11,966.004 1766.13,969.956 1770.15,973.874 
  1774.17,977.758 1778.19,981.609 1782.2,985.426 1786.22,989.21 1790.24,992.961 1794.26,996.679 1798.28,1000.36 1802.3,1004.02 1806.32,1007.64 1810.34,1011.23 
  1814.35,1014.78 1818.37,1018.31 1822.39,1021.8 1826.41,1025.27 1830.43,1028.7 1834.45,1032.1 1838.47,1035.47 1842.49,1038.81 1846.51,1042.12 1850.52,1045.4 
  1854.54,1048.65 1858.56,1051.87 1862.58,1055.06 1866.6,1058.22 1870.62,1061.35 1874.64,1064.46 1878.66,1067.53 1882.67,1070.58 1886.69,1073.6 1890.71,1076.59 
  1894.73,1079.55 1898.75,1082.49 1902.77,1085.4 1906.79,1088.28 1910.81,1091.14 1914.83,1093.96 1918.84,1096.77 1922.86,1099.54 1926.88,1102.29 1930.9,1105.02 
  1934.92,1107.71 1938.94,1110.39 1942.96,1113.03 1946.98,1115.66 1950.99,1118.25 1955.01,1120.83 1959.03,1123.38 1963.05,1125.9 1967.07,1128.4 1971.09,1130.88 
  1975.11,1133.33 1979.13,1135.76 1983.15,1138.17 1987.16,1140.55 1991.18,1142.91 1995.2,1145.25 1999.22,1147.57 2003.24,1149.86 2007.26,1152.13 2011.28,1154.38 
  2015.3,1156.61 2019.31,1158.82 2023.33,1161 2027.35,1163.16 2031.37,1165.31 2035.39,1167.43 2039.41,1169.53 2043.43,1171.61 2047.45,1173.67 2051.47,1175.71 
  2055.48,1177.73 2059.5,1179.74 2063.52,1181.72 2067.54,1183.68 2071.56,1185.62 2075.58,1187.55 2079.6,1189.45 2083.62,1191.34 2087.63,1193.21 2091.65,1195.06 
  2095.67,1196.89 2099.69,1198.7 2103.71,1200.5 2107.73,1202.28 2111.75,1204.04 2115.77,1205.78 2119.79,1207.51 2123.8,1209.22 2127.82,1210.91 2131.84,1212.59 
  2135.86,1214.25 2139.88,1215.89 2143.9,1217.52 2147.92,1219.13 2151.94,1220.72 2155.95,1222.3 2159.97,1223.86 2163.99,1225.41 2168.01,1226.94 2172.03,1228.46 
  2176.05,1229.96 2180.07,1231.45 2184.09,1232.92 2188.1,1234.37 2192.12,1235.82 2196.14,1237.25 2200.16,1238.66 2204.18,1240.06 2208.2,1241.45 2212.22,1242.82 
  2216.24,1244.18 2220.26,1245.52 2224.27,1246.85 2228.29,1248.17 2232.31,1249.47 2236.33,1250.77 2240.35,1252.04 2244.37,1253.31 2248.39,1254.56 2252.41,1255.8 
  2256.42,1257.03 2260.44,1258.25 2264.46,1259.45 2268.48,1260.64 2272.5,1261.82 2276.52,1262.99 2280.54,1264.14 2284.56,1265.29 2288.58,1266.42 2292.59,1267.54 
  
  "/>
<polyline clip-path="url(#clip912)" style="stroke:#ffa500; stroke-width:4; stroke-opacity:1; fill:none" points="
  287.204,1360.65 293.911,1359.83 300.618,1358.98 307.325,1358.07 314.032,1357.12 320.739,1356.12 327.446,1355.06 334.153,1353.94 340.86,1352.77 347.567,1351.53 
  354.274,1350.23 360.981,1348.85 367.688,1347.41 374.395,1345.88 381.102,1344.27 387.809,1342.58 394.516,1340.8 401.223,1338.93 407.93,1336.95 414.637,1334.87 
  421.344,1332.69 428.051,1330.38 434.758,1327.96 441.465,1325.41 448.172,1322.73 454.879,1319.91 461.586,1316.94 468.293,1313.83 475,1310.55 481.707,1307.1 
  488.414,1303.48 495.121,1299.68 501.828,1295.68 508.535,1291.49 515.242,1287.08 521.949,1282.46 528.656,1277.61 535.363,1272.53 542.07,1267.19 548.777,1261.6 
  555.484,1255.74 562.19,1249.61 568.897,1243.18 575.604,1236.45 582.311,1229.42 589.018,1222.06 595.725,1214.37 602.432,1206.33 609.139,1197.93 615.846,1189.17 
  622.553,1180.03 629.26,1170.5 635.967,1160.57 642.674,1150.24 649.381,1139.48 656.088,1128.29 662.795,1116.66 669.502,1104.59 676.209,1092.06 682.916,1079.07 
  689.623,1065.62 696.33,1051.69 703.037,1037.29 709.744,1022.42 716.451,1007.07 723.158,991.239 729.865,974.938 736.572,958.167 743.279,940.933 749.986,923.244 
  756.693,905.11 763.4,886.544 770.107,867.559 776.814,848.173 783.521,828.403 790.228,808.272 796.935,787.803 803.642,767.023 810.349,745.96 817.056,724.642 
  823.763,703.102 830.47,681.378 837.177,659.504 843.884,637.519 850.591,615.461 857.298,593.374 864.005,571.302 870.712,549.283 877.419,527.365 884.126,505.596 
  890.833,484.014 897.54,462.67 904.247,441.608 910.954,420.868 917.661,400.5 924.368,380.541 931.075,361.036 937.782,342.021 944.489,323.537 951.196,305.616 
  957.903,288.296 964.61,271.602 971.317,255.568 978.024,240.219 984.731,225.573 991.438,211.656 998.145,198.485 1004.85,186.072 1011.56,174.428 1018.27,163.564 
  1024.97,153.486 1031.68,144.197 1038.39,135.697 1045.09,127.986 1051.8,121.058 1058.51,114.908 1065.21,109.526 1071.92,104.903 1078.63,101.027 1085.34,97.8827 
  1092.04,95.4545 1098.75,93.7273 1105.46,92.6839 1112.16,92.307 1118.87,92.5795 1125.58,93.4856 1132.28,94.9835 1138.99,97.0809 1145.7,99.7422 1152.41,102.957 
  1159.11,106.681 1165.82,110.947 1172.53,115.733 1179.23,121.018 1185.94,126.611 1192.65,132.601 1199.35,139.03 1206.06,145.875 1212.77,153.115 1219.48,160.729 
  1226.18,168.634 1232.89,176.83 1239.6,185.343 1246.3,194.153 1253.01,203.223 1259.72,212.522 1266.42,222.064 1273.13,231.826 1279.84,241.771 1286.55,251.909 
  1293.25,262.214 1299.96,272.669 1306.67,283.273 1313.37,294.005 1320.08,304.846 1326.79,315.796 1333.49,326.843 1340.2,337.966 1346.91,349.156 1353.62,360.408 
  1360.32,371.712 1367.03,383.058 1373.74,394.427 1380.44,405.818 1387.15,417.224 1393.86,428.637 1400.56,440.047 1407.27,451.449 1413.98,462.828 1420.69,474.185 
  1427.39,485.513 1434.1,496.806 1440.81,508.059 1447.51,519.266 1454.22,530.422 1460.93,541.523 1467.63,552.562 1474.34,563.537 1481.05,574.444 1487.76,585.279 
  1494.46,596.041 1501.17,606.724 1507.88,617.328 1514.58,627.848 1521.29,638.282 1528,648.629 1534.7,658.886 1541.41,669.051 1548.12,679.122 1554.83,689.098 
  1561.53,698.978 1568.24,708.76 1574.95,718.443 1581.65,728.026 1588.36,737.508 1595.07,746.888 1601.77,756.167 1608.48,765.342 1615.19,774.415 1621.9,783.384 
  1628.6,792.249 1635.31,801.01 1642.02,809.667 1648.72,818.22 1655.43,826.669 1662.14,835.015 1668.84,843.256 1675.55,851.395 1682.26,859.43 1688.96,867.362 
  1695.67,875.193 1702.38,882.921 1709.09,890.548 1715.79,898.074 1722.5,905.501 1729.21,912.827 1735.91,920.055 1742.62,927.184 1749.33,934.216 1756.03,941.151 
  1762.74,947.99 1769.45,954.734 1776.16,961.384 1782.86,967.939 1789.57,974.402 1796.28,980.773 1802.98,987.054 1809.69,993.243 1816.4,999.344 1823.1,1005.36 
  1829.81,1011.28 1836.52,1017.12 1843.23,1022.87 1849.93,1028.54 1856.64,1034.12 1863.35,1039.62 1870.05,1045.04 1876.76,1050.38 1883.47,1055.64 1890.17,1060.82 
  1896.88,1065.92 1903.59,1070.94 1910.3,1075.89 1917,1080.76 1923.71,1085.56 1930.42,1090.28 1937.12,1094.94 1943.83,1099.52 1950.54,1104.03 1957.24,1108.47 
  1963.95,1112.84 1970.66,1117.14 1977.37,1121.38 1984.07,1125.55 1990.78,1129.66 1997.49,1133.7 2004.19,1137.68 2010.9,1141.59 2017.61,1145.45 2024.31,1149.24 
  2031.02,1152.97 2037.73,1156.65 2044.44,1160.26 2051.14,1163.82 2057.85,1167.32 2064.56,1170.77 2071.26,1174.16 2077.97,1177.5 2084.68,1180.78 2091.38,1184.01 
  2098.09,1187.19 2104.8,1190.32 2111.51,1193.4 2118.21,1196.43 2124.92,1199.41 2131.63,1202.34 2138.33,1205.22 2145.04,1208.06 2151.75,1210.85 2158.45,1213.6 
  2165.16,1216.3 2171.87,1218.96 2178.58,1221.58 2185.28,1224.15 2191.99,1226.68 2198.7,1229.17 2205.4,1231.62 2212.11,1234.02 2218.82,1236.39 2225.52,1238.72 
  2232.23,1241.02 2238.94,1243.27 2245.65,1245.49 2252.35,1247.67 2259.06,1249.81 2265.77,1251.92 2272.47,1254 2279.18,1256.04 2285.89,1258.05 2292.59,1260.02 
  
  "/>
<polyline clip-path="url(#clip912)" style="stroke:#ffa500; stroke-width:4; stroke-opacity:1; fill:none" points="
  287.204,1361.12 293.911,1360.35 300.618,1359.55 307.325,1358.7 314.032,1357.8 320.739,1356.86 327.446,1355.87 334.153,1354.83 340.86,1353.73 347.567,1352.58 
  354.274,1351.36 360.981,1350.09 367.688,1348.74 374.395,1347.33 381.102,1345.84 387.809,1344.28 394.516,1342.63 401.223,1340.9 407.93,1339.08 414.637,1337.17 
  421.344,1335.16 428.051,1333.05 434.758,1330.83 441.465,1328.49 448.172,1326.04 454.879,1323.46 461.586,1320.76 468.293,1317.92 475,1314.93 481.707,1311.8 
  488.414,1308.51 495.121,1305.06 501.828,1301.44 508.535,1297.64 515.242,1293.66 521.949,1289.48 528.656,1285.11 535.363,1280.52 542.07,1275.71 548.777,1270.68 
  555.484,1265.41 562.19,1259.89 568.897,1254.12 575.604,1248.09 582.311,1241.77 589.018,1235.18 595.725,1228.28 602.432,1221.09 609.139,1213.57 615.846,1205.73 
  622.553,1197.56 629.26,1189.04 635.967,1180.16 642.674,1170.92 649.381,1161.3 656.088,1151.3 662.795,1140.91 669.502,1130.11 676.209,1118.91 682.916,1107.29 
  689.623,1095.24 696.33,1082.77 703.037,1069.87 709.744,1056.53 716.451,1042.74 723.158,1028.52 729.865,1013.86 736.572,998.749 743.279,983.205 749.986,967.226 
  756.693,950.819 763.4,933.99 770.107,916.75 776.814,899.11 783.521,881.082 790.228,862.681 796.935,843.924 803.642,824.831 810.349,805.423 817.056,785.724 
  823.763,765.759 830.47,745.554 837.177,725.14 843.884,704.548 850.591,683.812 857.298,662.964 864.005,642.041 870.712,621.083 877.419,600.128 884.126,579.214 
  890.833,558.382 897.54,537.677 904.247,517.135 910.954,496.802 917.661,476.72 924.368,456.926 931.075,437.469 937.782,418.381 944.489,399.708 951.196,381.482 
  957.903,363.746 964.61,346.529 971.317,329.871 978.024,313.797 984.731,298.34 991.438,283.528 998.145,269.383 1004.85,255.927 1011.56,243.186 1018.27,231.173 
  1024.97,219.903 1031.68,209.39 1038.39,199.644 1045.09,190.672 1051.8,182.481 1058.51,175.073 1065.21,168.449 1071.92,162.608 1078.63,157.546 1085.34,153.258 
  1092.04,149.735 1098.75,146.97 1105.46,144.95 1112.16,143.663 1118.87,143.095 1125.58,143.229 1132.28,144.046 1138.99,145.525 1145.7,147.665 1152.41,150.423 
  1159.11,153.779 1165.82,157.713 1172.53,162.23 1179.23,167.242 1185.94,172.728 1192.65,178.666 1199.35,185.167 1206.06,192.164 1212.77,199.542 1219.48,207.279 
  1226.18,215.355 1232.89,223.754 1239.6,232.511 1246.3,241.545 1253.01,250.84 1259.72,260.413 1266.42,270.207 1273.13,280.21 1279.84,290.423 1286.55,300.806 
  1293.25,311.352 1299.96,322.051 1306.67,332.875 1313.37,343.821 1320.08,354.871 1326.79,366.005 1333.49,377.216 1340.2,388.497 1346.91,399.828 1353.62,411.199 
  1360.32,422.603 1367.03,434.032 1373.74,445.473 1380.44,456.915 1387.15,468.352 1393.86,479.781 1400.56,491.19 1407.27,502.572 1413.98,513.92 1420.69,525.228 
  1427.39,536.49 1434.1,547.703 1440.81,558.862 1447.51,569.96 1454.22,580.993 1460.93,591.957 1467.63,602.847 1474.34,613.661 1481.05,624.395 1487.76,635.046 
  1494.46,645.611 1501.17,656.088 1507.88,666.474 1514.58,676.768 1521.29,686.967 1528,697.07 1534.7,707.074 1541.41,716.978 1548.12,726.782 1554.83,736.482 
  1561.53,746.08 1568.24,755.573 1574.95,764.961 1581.65,774.244 1588.36,783.42 1595.07,792.49 1601.77,801.453 1608.48,810.308 1615.19,819.057 1621.9,827.698 
  1628.6,836.231 1635.31,844.658 1642.02,852.977 1648.72,861.19 1655.43,869.296 1662.14,877.296 1668.84,885.191 1675.55,892.98 1682.26,900.665 1688.96,908.245 
  1695.67,915.722 1702.38,923.097 1709.09,930.369 1715.79,937.54 1722.5,944.61 1729.21,951.58 1735.91,958.452 1742.62,965.224 1749.33,971.9 1756.03,978.478 
  1762.74,984.961 1769.45,991.35 1776.16,997.644 1782.86,1003.85 1789.57,1009.95 1796.28,1015.97 1802.98,1021.9 1809.69,1027.74 1816.4,1033.49 1823.1,1039.15 
  1829.81,1044.73 1836.52,1050.22 1843.23,1055.63 1849.93,1060.96 1856.64,1066.2 1863.35,1071.36 1870.05,1076.44 1876.76,1081.45 1883.47,1086.37 1890.17,1091.22 
  1896.88,1095.99 1903.59,1100.69 1910.3,1105.31 1917,1109.86 1923.71,1114.33 1930.42,1118.74 1937.12,1123.07 1943.83,1127.34 1950.54,1131.54 1957.24,1135.67 
  1963.95,1139.73 1970.66,1143.73 1977.37,1147.66 1984.07,1151.53 1990.78,1155.34 1997.49,1159.08 2004.19,1162.77 2010.9,1166.39 2017.61,1169.96 2024.31,1173.46 
  2031.02,1176.91 2037.73,1180.3 2044.44,1183.64 2051.14,1186.92 2057.85,1190.15 2064.56,1193.32 2071.26,1196.45 2077.97,1199.52 2084.68,1202.53 2091.38,1205.5 
  2098.09,1208.42 2104.8,1211.3 2111.51,1214.12 2118.21,1216.89 2124.92,1219.62 2131.63,1222.31 2138.33,1224.95 2145.04,1227.54 2151.75,1230.09 2158.45,1232.6 
  2165.16,1235.07 2171.87,1237.49 2178.58,1239.88 2185.28,1242.22 2191.99,1244.52 2198.7,1246.79 2205.4,1249.02 2212.11,1251.21 2218.82,1253.36 2225.52,1255.47 
  2232.23,1257.55 2238.94,1259.6 2245.65,1261.61 2252.35,1263.58 2259.06,1265.53 2265.77,1267.43 2272.47,1269.31 2279.18,1271.16 2285.89,1272.97 2292.59,1274.75 
  
  "/>
<path clip-path="url(#clip910)" d="
M1674.67 335.029 L2281.9 335.029 L2281.9 93.1086 L1674.67 93.1086  Z
  " fill="#ffffff" fill-rule="evenodd" fill-opacity="1"/>
<polyline clip-path="url(#clip910)" style="stroke:#000000; stroke-width:4; stroke-opacity:1; fill:none" points="
  1674.67,335.029 2281.9,335.029 2281.9,93.1086 1674.67,93.1086 1674.67,335.029 
  "/>
<circle clip-path="url(#clip910)" cx="1769.14" cy="153.589" r="23" fill="#0000ff" fill-rule="evenodd" fill-opacity="1" stroke="none"/>
<path clip-path="url(#clip910)" d="M 0 0 M1868.3 140.151 L1868.3 167.026 L1873.95 167.026 Q1881.1 167.026 1884.41 163.785 Q1887.74 160.545 1887.74 153.554 Q1887.74 146.609 1884.41 143.392 Q1881.1 140.151 1873.95 140.151 L1868.3 140.151 M1863.62 136.309 L1873.23 136.309 Q1883.27 136.309 1887.97 140.498 Q1892.67 144.665 1892.67 153.554 Q1892.67 162.489 1887.95 166.679 Q1883.23 170.869 1873.23 170.869 L1863.62 170.869 L1863.62 136.309 Z" fill="#000000" fill-rule="evenodd" fill-opacity="1" /><path clip-path="url(#clip910)" d="M 0 0 M1908.92 157.836 Q1903.76 157.836 1901.77 159.017 Q1899.78 160.197 1899.78 163.045 Q1899.78 165.313 1901.26 166.656 Q1902.76 167.975 1905.33 167.975 Q1908.88 167.975 1911.01 165.475 Q1913.16 162.952 1913.16 158.785 L1913.16 157.836 L1908.92 157.836 M1917.42 156.077 L1917.42 170.869 L1913.16 170.869 L1913.16 166.933 Q1911.7 169.295 1909.52 170.429 Q1907.35 171.54 1904.2 171.54 Q1900.22 171.54 1897.86 169.318 Q1895.52 167.072 1895.52 163.322 Q1895.52 158.947 1898.44 156.725 Q1901.38 154.503 1907.19 154.503 L1913.16 154.503 L1913.16 154.086 Q1913.16 151.147 1911.21 149.549 Q1909.29 147.929 1905.8 147.929 Q1903.57 147.929 1901.47 148.461 Q1899.36 148.994 1897.42 150.059 L1897.42 146.123 Q1899.76 145.221 1901.95 144.781 Q1904.15 144.318 1906.24 144.318 Q1911.86 144.318 1914.64 147.234 Q1917.42 150.151 1917.42 156.077 Z" fill="#000000" fill-rule="evenodd" fill-opacity="1" /><path clip-path="url(#clip910)" d="M 0 0 M1926.1 137.582 L1926.1 144.943 L1934.87 144.943 L1934.87 148.253 L1926.1 148.253 L1926.1 162.327 Q1926.1 165.498 1926.95 166.401 Q1927.83 167.304 1930.5 167.304 L1934.87 167.304 L1934.87 170.869 L1930.5 170.869 Q1925.57 170.869 1923.69 169.04 Q1921.82 167.188 1921.82 162.327 L1921.82 148.253 L1918.69 148.253 L1918.69 144.943 L1921.82 144.943 L1921.82 137.582 L1926.1 137.582 Z" fill="#000000" fill-rule="evenodd" fill-opacity="1" /><path clip-path="url(#clip910)" d="M 0 0 M1951.12 157.836 Q1945.96 157.836 1943.97 159.017 Q1941.98 160.197 1941.98 163.045 Q1941.98 165.313 1943.46 166.656 Q1944.96 167.975 1947.53 167.975 Q1951.07 167.975 1953.2 165.475 Q1955.36 162.952 1955.36 158.785 L1955.36 157.836 L1951.12 157.836 M1959.62 156.077 L1959.62 170.869 L1955.36 170.869 L1955.36 166.933 Q1953.9 169.295 1951.72 170.429 Q1949.55 171.54 1946.4 171.54 Q1942.42 171.54 1940.06 169.318 Q1937.72 167.072 1937.72 163.322 Q1937.72 158.947 1940.63 156.725 Q1943.57 154.503 1949.38 154.503 L1955.36 154.503 L1955.36 154.086 Q1955.36 151.147 1953.41 149.549 Q1951.49 147.929 1948 147.929 Q1945.77 147.929 1943.67 148.461 Q1941.56 148.994 1939.62 150.059 L1939.62 146.123 Q1941.95 145.221 1944.15 144.781 Q1946.35 144.318 1948.44 144.318 Q1954.06 144.318 1956.84 147.234 Q1959.62 150.151 1959.62 156.077 Z" fill="#000000" fill-rule="evenodd" fill-opacity="1" /><polyline clip-path="url(#clip910)" style="stroke:#ff0000; stroke-width:4; stroke-opacity:1; fill:none" points="
  1698.29,214.069 1840,214.069 
  "/>
<path clip-path="url(#clip910)" d="M 0 0 M1863.62 196.789 L1883.48 196.789 L1883.48 200.724 L1868.3 200.724 L1868.3 210.909 L1882 210.909 L1882 214.844 L1868.3 214.844 L1868.3 231.349 L1863.62 231.349 L1863.62 196.789 Z" fill="#000000" fill-rule="evenodd" fill-opacity="1" /><path clip-path="url(#clip910)" d="M 0 0 M1884.5 205.423 L1888.76 205.423 L1888.76 231.349 L1884.5 231.349 L1884.5 205.423 M1884.5 195.33 L1888.76 195.33 L1888.76 200.724 L1884.5 200.724 L1884.5 195.33 Z" fill="#000000" fill-rule="evenodd" fill-opacity="1" /><path clip-path="url(#clip910)" d="M 0 0 M1897.44 198.062 L1897.44 205.423 L1906.21 205.423 L1906.21 208.733 L1897.44 208.733 L1897.44 222.807 Q1897.44 225.978 1898.3 226.881 Q1899.18 227.784 1901.84 227.784 L1906.21 227.784 L1906.21 231.349 L1901.84 231.349 Q1896.91 231.349 1895.03 229.52 Q1893.16 227.668 1893.16 222.807 L1893.16 208.733 L1890.03 208.733 L1890.03 205.423 L1893.16 205.423 L1893.16 198.062 L1897.44 198.062 Z" fill="#000000" fill-rule="evenodd" fill-opacity="1" /><path clip-path="url(#clip910)" d="M 0 0 M1923.27 205.423 L1927.53 205.423 L1932.86 225.654 L1938.16 205.423 L1943.18 205.423 L1948.5 225.654 L1953.81 205.423 L1958.06 205.423 L1951.28 231.349 L1946.26 231.349 L1940.68 210.099 L1935.08 231.349 L1930.06 231.349 L1923.27 205.423 Z" fill="#000000" fill-rule="evenodd" fill-opacity="1" /><path clip-path="url(#clip910)" d="M 0 0 M1962.53 205.423 L1966.79 205.423 L1966.79 231.349 L1962.53 231.349 L1962.53 205.423 M1962.53 195.33 L1966.79 195.33 L1966.79 200.724 L1962.53 200.724 L1962.53 195.33 Z" fill="#000000" fill-rule="evenodd" fill-opacity="1" /><path clip-path="url(#clip910)" d="M 0 0 M1975.47 198.062 L1975.47 205.423 L1984.25 205.423 L1984.25 208.733 L1975.47 208.733 L1975.47 222.807 Q1975.47 225.978 1976.33 226.881 Q1977.21 227.784 1979.87 227.784 L1984.25 227.784 L1984.25 231.349 L1979.87 231.349 Q1974.94 231.349 1973.06 229.52 Q1971.19 227.668 1971.19 222.807 L1971.19 208.733 L1968.06 208.733 L1968.06 205.423 L1971.19 205.423 L1971.19 198.062 L1975.47 198.062 Z" fill="#000000" fill-rule="evenodd" fill-opacity="1" /><path clip-path="url(#clip910)" d="M 0 0 M2010.26 215.701 L2010.26 231.349 L2006 231.349 L2006 215.839 Q2006 212.159 2004.57 210.33 Q2003.13 208.502 2000.26 208.502 Q1996.81 208.502 1994.82 210.701 Q1992.83 212.9 1992.83 216.696 L1992.83 231.349 L1988.55 231.349 L1988.55 195.33 L1992.83 195.33 L1992.83 209.451 Q1994.36 207.113 1996.42 205.955 Q1998.5 204.798 2001.21 204.798 Q2005.68 204.798 2007.97 207.576 Q2010.26 210.33 2010.26 215.701 Z" fill="#000000" fill-rule="evenodd" fill-opacity="1" /><path clip-path="url(#clip910)" d="M 0 0 M2046.37 215.145 Q2047.88 215.654 2049.29 217.321 Q2050.73 218.988 2052.16 221.904 L2056.91 231.349 L2051.88 231.349 L2047.46 222.483 Q2045.75 219.011 2044.13 217.876 Q2042.53 216.742 2039.75 216.742 L2034.66 216.742 L2034.66 231.349 L2029.99 231.349 L2029.99 196.789 L2040.54 196.789 Q2046.47 196.789 2049.38 199.265 Q2052.3 201.742 2052.3 206.742 Q2052.3 210.006 2050.77 212.159 Q2049.27 214.312 2046.37 215.145 M2034.66 200.631 L2034.66 212.9 L2040.54 212.9 Q2043.92 212.9 2045.63 211.349 Q2047.37 209.775 2047.37 206.742 Q2047.37 203.71 2045.63 202.182 Q2043.92 200.631 2040.54 200.631 L2034.66 200.631 Z" fill="#000000" fill-rule="evenodd" fill-opacity="1" /><path clip-path="url(#clip910)" d="M 0 0 M2082.28 197.923 L2082.28 202.483 Q2079.62 201.21 2077.25 200.585 Q2074.89 199.96 2072.69 199.96 Q2068.87 199.96 2066.79 201.441 Q2064.73 202.923 2064.73 205.654 Q2064.73 207.946 2066.1 209.127 Q2067.49 210.284 2071.33 211.002 L2074.15 211.58 Q2079.38 212.576 2081.86 215.099 Q2084.36 217.599 2084.36 221.812 Q2084.36 226.835 2080.98 229.427 Q2077.62 232.02 2071.12 232.02 Q2068.67 232.02 2065.89 231.464 Q2063.13 230.909 2060.17 229.821 L2060.17 225.006 Q2063.02 226.603 2065.75 227.413 Q2068.48 228.224 2071.12 228.224 Q2075.12 228.224 2077.3 226.65 Q2079.48 225.076 2079.48 222.159 Q2079.48 219.613 2077.9 218.177 Q2076.35 216.742 2072.79 216.025 L2069.94 215.469 Q2064.71 214.427 2062.37 212.205 Q2060.03 209.983 2060.03 206.025 Q2060.03 201.441 2063.25 198.802 Q2066.49 196.164 2072.16 196.164 Q2074.59 196.164 2077.12 196.603 Q2079.64 197.043 2082.28 197.923 Z" fill="#000000" fill-rule="evenodd" fill-opacity="1" /><path clip-path="url(#clip910)" d="M 0 0 M2089.01 196.789 L2110.87 196.789 L2110.87 200.724 L2093.69 200.724 L2093.69 210.955 L2110.15 210.955 L2110.15 214.89 L2093.69 214.89 L2093.69 227.413 L2111.28 227.413 L2111.28 231.349 L2089.01 231.349 L2089.01 196.789 Z" fill="#000000" fill-rule="evenodd" fill-opacity="1" /><path clip-path="url(#clip910)" d="M 0 0 M2145.98 216.927 L2145.98 221.071 Q2143.55 222.876 2141.47 223.687 Q2139.41 224.474 2137.16 224.474 Q2134.61 224.474 2131.24 223.108 Q2131 223.015 2130.84 222.946 Q2130.7 222.9 2130.36 222.761 Q2126.77 221.349 2124.59 221.349 Q2122.55 221.349 2120.56 222.228 Q2118.57 223.108 2116.3 225.052 L2116.3 220.909 Q2118.74 219.103 2120.8 218.316 Q2122.88 217.506 2125.12 217.506 Q2127.67 217.506 2131.07 218.872 Q2131.33 218.988 2131.44 219.034 Q2131.58 219.08 2131.93 219.219 Q2135.52 220.631 2137.69 220.631 Q2139.68 220.631 2141.63 219.775 Q2143.6 218.895 2145.98 216.927 M2145.98 207.923 L2145.98 212.043 Q2143.55 213.872 2141.47 214.682 Q2139.41 215.469 2137.16 215.469 Q2134.61 215.469 2131.24 214.103 Q2131 214.011 2130.84 213.941 Q2130.7 213.895 2130.36 213.756 Q2126.77 212.344 2124.59 212.344 Q2122.55 212.344 2120.56 213.224 Q2118.57 214.103 2116.3 216.025 L2116.3 211.904 Q2118.74 210.099 2120.8 209.312 Q2122.88 208.502 2125.12 208.502 Q2127.67 208.502 2131.07 209.867 Q2131.3 209.96 2131.42 210.006 Q2131.58 210.076 2131.93 210.214 Q2135.52 211.627 2137.69 211.627 Q2139.68 211.627 2141.63 210.77 Q2143.6 209.89 2145.98 207.923 Z" fill="#000000" fill-rule="evenodd" fill-opacity="1" /><path clip-path="url(#clip910)" d="M 0 0 M2151.86 227.413 L2159.5 227.413 L2159.5 201.048 L2151.19 202.715 L2151.19 198.455 L2159.45 196.789 L2164.13 196.789 L2164.13 227.413 L2171.77 227.413 L2171.77 231.349 L2151.86 231.349 L2151.86 227.413 Z" fill="#000000" fill-rule="evenodd" fill-opacity="1" /><path clip-path="url(#clip910)" d="M 0 0 M2186.84 214.937 Q2183.5 214.937 2181.58 216.719 Q2179.68 218.501 2179.68 221.626 Q2179.68 224.751 2181.58 226.534 Q2183.5 228.316 2186.84 228.316 Q2190.17 228.316 2192.09 226.534 Q2194.01 224.728 2194.01 221.626 Q2194.01 218.501 2192.09 216.719 Q2190.19 214.937 2186.84 214.937 M2182.16 212.946 Q2179.15 212.205 2177.46 210.145 Q2175.8 208.085 2175.8 205.122 Q2175.8 200.978 2178.74 198.571 Q2181.7 196.164 2186.84 196.164 Q2192 196.164 2194.94 198.571 Q2197.88 200.978 2197.88 205.122 Q2197.88 208.085 2196.19 210.145 Q2194.52 212.205 2191.54 212.946 Q2194.92 213.733 2196.79 216.025 Q2198.69 218.316 2198.69 221.626 Q2198.69 226.65 2195.61 229.335 Q2192.55 232.02 2186.84 232.02 Q2181.12 232.02 2178.04 229.335 Q2174.99 226.65 2174.99 221.626 Q2174.99 218.316 2176.88 216.025 Q2178.78 213.733 2182.16 212.946 M2180.45 205.562 Q2180.45 208.247 2182.11 209.752 Q2183.8 211.256 2186.84 211.256 Q2189.85 211.256 2191.54 209.752 Q2193.25 208.247 2193.25 205.562 Q2193.25 202.877 2191.54 201.372 Q2189.85 199.867 2186.84 199.867 Q2183.8 199.867 2182.11 201.372 Q2180.45 202.877 2180.45 205.562 Z" fill="#000000" fill-rule="evenodd" fill-opacity="1" /><path clip-path="url(#clip910)" d="M 0 0 M2203.76 225.469 L2208.64 225.469 L2208.64 231.349 L2203.76 231.349 L2203.76 225.469 Z" fill="#000000" fill-rule="evenodd" fill-opacity="1" /><path clip-path="url(#clip910)" d="M 0 0 M2213.76 196.789 L2232.11 196.789 L2232.11 200.724 L2218.04 200.724 L2218.04 209.196 Q2219.06 208.849 2220.08 208.687 Q2221.1 208.502 2222.11 208.502 Q2227.9 208.502 2231.28 211.673 Q2234.66 214.844 2234.66 220.261 Q2234.66 225.839 2231.19 228.941 Q2227.72 232.02 2221.4 232.02 Q2219.22 232.02 2216.95 231.65 Q2214.71 231.279 2212.3 230.538 L2212.3 225.839 Q2214.38 226.974 2216.61 227.529 Q2218.83 228.085 2221.3 228.085 Q2225.31 228.085 2227.65 225.978 Q2229.98 223.872 2229.98 220.261 Q2229.98 216.65 2227.65 214.543 Q2225.31 212.437 2221.3 212.437 Q2219.43 212.437 2217.55 212.853 Q2215.7 213.27 2213.76 214.15 L2213.76 196.789 Z" fill="#000000" fill-rule="evenodd" fill-opacity="1" /><polyline clip-path="url(#clip910)" style="stroke:#ffa500; stroke-width:4; stroke-opacity:1; fill:none" points="
  1698.29,274.549 1840,274.549 
  "/>
<path clip-path="url(#clip910)" d="M 0 0 M1869.25 287.893 L1885.57 287.893 L1885.57 291.829 L1863.62 291.829 L1863.62 287.893 Q1866.28 285.139 1870.87 280.509 Q1875.47 275.856 1876.65 274.514 Q1878.9 271.991 1879.78 270.255 Q1880.68 268.495 1880.68 266.806 Q1880.68 264.051 1878.74 262.315 Q1876.82 260.579 1873.71 260.579 Q1871.51 260.579 1869.06 261.343 Q1866.63 262.107 1863.85 263.657 L1863.85 258.935 Q1866.68 257.801 1869.13 257.222 Q1871.58 256.644 1873.62 256.644 Q1878.99 256.644 1882.19 259.329 Q1885.38 262.014 1885.38 266.505 Q1885.38 268.634 1884.57 270.556 Q1883.78 272.454 1881.68 275.046 Q1881.1 275.718 1878 278.935 Q1874.89 282.13 1869.25 287.893 Z" fill="#000000" fill-rule="evenodd" fill-opacity="1" /><path clip-path="url(#clip910)" d="M 0 0 M1900.08 269.282 Q1896.56 269.282 1894.66 271.829 Q1892.67 274.491 1892.67 278.889 Q1892.67 283.542 1894.64 286.227 Q1896.63 288.889 1900.08 288.889 Q1903.48 288.889 1905.47 286.204 Q1907.46 283.518 1907.46 278.889 Q1907.46 274.653 1905.47 271.829 Q1903.64 269.282 1900.08 269.282 M1900.08 265.903 L1914.22 265.903 L1914.22 270.162 L1909.45 270.162 Q1911.98 273.773 1911.98 278.889 Q1911.98 285.255 1908.81 288.866 Q1905.63 292.5 1900.08 292.5 Q1894.5 292.5 1891.35 288.866 Q1888.18 285.255 1888.18 278.889 Q1888.18 272.477 1891.35 268.889 Q1893.97 265.903 1900.08 265.903 Z" fill="#000000" fill-rule="evenodd" fill-opacity="1" /><path clip-path="url(#clip910)" d="M 0 0 M1959.82 259.931 L1959.82 264.861 Q1957.46 262.662 1954.78 261.574 Q1952.12 260.486 1949.11 260.486 Q1943.18 260.486 1940.03 264.12 Q1936.88 267.732 1936.88 274.583 Q1936.88 281.412 1940.03 285.046 Q1943.18 288.657 1949.11 288.657 Q1952.12 288.657 1954.78 287.569 Q1957.46 286.481 1959.82 284.282 L1959.82 289.167 Q1957.37 290.833 1954.62 291.667 Q1951.88 292.5 1948.83 292.5 Q1940.98 292.5 1936.47 287.708 Q1931.95 282.893 1931.95 274.583 Q1931.95 266.25 1936.47 261.458 Q1940.98 256.644 1948.83 256.644 Q1951.93 256.644 1954.66 257.477 Q1957.42 258.287 1959.82 259.931 Z" fill="#000000" fill-rule="evenodd" fill-opacity="1" /><path clip-path="url(#clip910)" d="M 0 0 M1974.34 268.889 Q1970.91 268.889 1968.92 271.574 Q1966.93 274.236 1966.93 278.889 Q1966.93 283.542 1968.9 286.227 Q1970.89 288.889 1974.34 288.889 Q1977.74 288.889 1979.73 286.204 Q1981.72 283.518 1981.72 278.889 Q1981.72 274.282 1979.73 271.597 Q1977.74 268.889 1974.34 268.889 M1974.34 265.278 Q1979.89 265.278 1983.06 268.889 Q1986.24 272.5 1986.24 278.889 Q1986.24 285.255 1983.06 288.889 Q1979.89 292.5 1974.34 292.5 Q1968.76 292.5 1965.59 288.889 Q1962.44 285.255 1962.44 278.889 Q1962.44 272.5 1965.59 268.889 Q1968.76 265.278 1974.34 265.278 Z" fill="#000000" fill-rule="evenodd" fill-opacity="1" /><path clip-path="url(#clip910)" d="M 0 0 M2012.25 276.181 L2012.25 291.829 L2008 291.829 L2008 276.319 Q2008 272.639 2006.56 270.81 Q2005.12 268.982 2002.25 268.982 Q1998.81 268.982 1996.81 271.181 Q1994.82 273.38 1994.82 277.176 L1994.82 291.829 L1990.54 291.829 L1990.54 265.903 L1994.82 265.903 L1994.82 269.931 Q1996.35 267.593 1998.41 266.435 Q2000.5 265.278 2003.2 265.278 Q2007.67 265.278 2009.96 268.056 Q2012.25 270.81 2012.25 276.181 Z" fill="#000000" fill-rule="evenodd" fill-opacity="1" /><path clip-path="url(#clip910)" d="M 0 0 M2029.85 255.81 L2029.85 259.352 L2025.77 259.352 Q2023.48 259.352 2022.58 260.278 Q2021.7 261.204 2021.7 263.611 L2021.7 265.903 L2028.71 265.903 L2028.71 269.213 L2021.7 269.213 L2021.7 291.829 L2017.42 291.829 L2017.42 269.213 L2013.34 269.213 L2013.34 265.903 L2017.42 265.903 L2017.42 264.097 Q2017.42 259.769 2019.43 257.801 Q2021.44 255.81 2025.82 255.81 L2029.85 255.81 Z" fill="#000000" fill-rule="evenodd" fill-opacity="1" /><path clip-path="url(#clip910)" d="M 0 0 M2031.47 285.949 L2036.35 285.949 L2036.35 291.829 L2031.47 291.829 L2031.47 285.949 Z" fill="#000000" fill-rule="evenodd" fill-opacity="1" /><path clip-path="url(#clip910)" d="M 0 0 M2060.75 275.324 L2060.75 287.986 L2068.25 287.986 Q2072.02 287.986 2073.83 286.435 Q2075.66 284.861 2075.66 281.643 Q2075.66 278.403 2073.83 276.875 Q2072.02 275.324 2068.25 275.324 L2060.75 275.324 M2060.75 261.111 L2060.75 271.528 L2067.67 271.528 Q2071.1 271.528 2072.76 270.255 Q2074.45 268.958 2074.45 266.319 Q2074.45 263.704 2072.76 262.407 Q2071.1 261.111 2067.67 261.111 L2060.75 261.111 M2056.07 257.269 L2068.02 257.269 Q2073.37 257.269 2076.26 259.491 Q2079.15 261.713 2079.15 265.81 Q2079.15 268.982 2077.67 270.857 Q2076.19 272.731 2073.32 273.194 Q2076.77 273.935 2078.67 276.296 Q2080.59 278.634 2080.59 282.153 Q2080.59 286.782 2077.44 289.305 Q2074.29 291.829 2068.48 291.829 L2056.07 291.829 L2056.07 257.269 Z" fill="#000000" fill-rule="evenodd" fill-opacity="1" /><path clip-path="url(#clip910)" d="M 0 0 M2096.84 278.796 Q2091.68 278.796 2089.68 279.977 Q2087.69 281.157 2087.69 284.005 Q2087.69 286.273 2089.18 287.616 Q2090.68 288.935 2093.25 288.935 Q2096.79 288.935 2098.92 286.435 Q2101.07 283.912 2101.07 279.745 L2101.07 278.796 L2096.84 278.796 M2105.33 277.037 L2105.33 291.829 L2101.07 291.829 L2101.07 287.893 Q2099.62 290.255 2097.44 291.389 Q2095.26 292.5 2092.12 292.5 Q2088.13 292.5 2085.77 290.278 Q2083.43 288.032 2083.43 284.282 Q2083.43 279.907 2086.35 277.685 Q2089.29 275.463 2095.1 275.463 L2101.07 275.463 L2101.07 275.046 Q2101.07 272.107 2099.13 270.509 Q2097.21 268.889 2093.71 268.889 Q2091.49 268.889 2089.38 269.421 Q2087.28 269.954 2085.33 271.019 L2085.33 267.083 Q2087.67 266.181 2089.87 265.741 Q2092.07 265.278 2094.15 265.278 Q2099.78 265.278 2102.55 268.194 Q2105.33 271.111 2105.33 277.037 Z" fill="#000000" fill-rule="evenodd" fill-opacity="1" /><path clip-path="url(#clip910)" d="M 0 0 M2131.35 276.181 L2131.35 291.829 L2127.09 291.829 L2127.09 276.319 Q2127.09 272.639 2125.66 270.81 Q2124.22 268.982 2121.35 268.982 Q2117.9 268.982 2115.91 271.181 Q2113.92 273.38 2113.92 277.176 L2113.92 291.829 L2109.64 291.829 L2109.64 265.903 L2113.92 265.903 L2113.92 269.931 Q2115.45 267.593 2117.51 266.435 Q2119.59 265.278 2122.3 265.278 Q2126.77 265.278 2129.06 268.056 Q2131.35 270.81 2131.35 276.181 Z" fill="#000000" fill-rule="evenodd" fill-opacity="1" /><path clip-path="url(#clip910)" d="M 0 0 M2152.88 269.838 L2152.88 255.81 L2157.14 255.81 L2157.14 291.829 L2152.88 291.829 L2152.88 287.94 Q2151.54 290.255 2149.48 291.389 Q2147.44 292.5 2144.57 292.5 Q2139.87 292.5 2136.91 288.75 Q2133.97 285 2133.97 278.889 Q2133.97 272.778 2136.91 269.028 Q2139.87 265.278 2144.57 265.278 Q2147.44 265.278 2149.48 266.412 Q2151.54 267.523 2152.88 269.838 M2138.36 278.889 Q2138.36 283.588 2140.29 286.273 Q2142.23 288.935 2145.61 288.935 Q2148.99 288.935 2150.93 286.273 Q2152.88 283.588 2152.88 278.889 Q2152.88 274.19 2150.93 271.528 Q2148.99 268.843 2145.61 268.843 Q2142.23 268.843 2140.29 271.528 Q2138.36 274.19 2138.36 278.889 Z" fill="#000000" fill-rule="evenodd" fill-opacity="1" /></svg>
