<?xml version="1.0" encoding="utf-8"?>
<svg xmlns="http://www.w3.org/2000/svg" xmlns:xlink="http://www.w3.org/1999/xlink" width="600" height="400" viewBox="0 0 2400 1600">
<defs>
  <clipPath id="clip230">
    <rect x="0" y="0" width="2400" height="1600"/>
  </clipPath>
</defs>
<path clip-path="url(#clip230)" d="
M0 1600 L2400 1600 L2400 0 L0 0  Z
  " fill="#ffffff" fill-rule="evenodd" fill-opacity="1"/>
<defs>
  <clipPath id="clip231">
    <rect x="480" y="0" width="1681" height="1600"/>
  </clipPath>
</defs>
<path clip-path="url(#clip230)" d="
M266.116 1423.18 L2352.76 1423.18 L2352.76 47.2441 L266.116 47.2441  Z
  " fill="#ffffff" fill-rule="evenodd" fill-opacity="1"/>
<defs>
  <clipPath id="clip232">
    <rect x="266" y="47" width="2088" height="1377"/>
  </clipPath>
</defs>
<polyline clip-path="url(#clip232)" style="stroke:#000000; stroke-width:2; stroke-opacity:0.1; fill:none" points="
  510.367,1423.18 510.367,47.2441 
  "/>
<polyline clip-path="url(#clip232)" style="stroke:#000000; stroke-width:2; stroke-opacity:0.1; fill:none" points="
  944.385,1423.18 944.385,47.2441 
  "/>
<polyline clip-path="url(#clip232)" style="stroke:#000000; stroke-width:2; stroke-opacity:0.1; fill:none" points="
  1378.4,1423.18 1378.4,47.2441 
  "/>
<polyline clip-path="url(#clip232)" style="stroke:#000000; stroke-width:2; stroke-opacity:0.1; fill:none" points="
  1812.42,1423.18 1812.42,47.2441 
  "/>
<polyline clip-path="url(#clip232)" style="stroke:#000000; stroke-width:2; stroke-opacity:0.1; fill:none" points="
  2246.44,1423.18 2246.44,47.2441 
  "/>
<polyline clip-path="url(#clip230)" style="stroke:#000000; stroke-width:4; stroke-opacity:1; fill:none" points="
  266.116,1423.18 2352.76,1423.18 
  "/>
<polyline clip-path="url(#clip230)" style="stroke:#000000; stroke-width:4; stroke-opacity:1; fill:none" points="
  510.367,1423.18 510.367,1406.67 
  "/>
<polyline clip-path="url(#clip230)" style="stroke:#000000; stroke-width:4; stroke-opacity:1; fill:none" points="
  944.385,1423.18 944.385,1406.67 
  "/>
<polyline clip-path="url(#clip230)" style="stroke:#000000; stroke-width:4; stroke-opacity:1; fill:none" points="
  1378.4,1423.18 1378.4,1406.67 
  "/>
<polyline clip-path="url(#clip230)" style="stroke:#000000; stroke-width:4; stroke-opacity:1; fill:none" points="
  1812.42,1423.18 1812.42,1406.67 
  "/>
<polyline clip-path="url(#clip230)" style="stroke:#000000; stroke-width:4; stroke-opacity:1; fill:none" points="
  2246.44,1423.18 2246.44,1406.67 
  "/>
<path clip-path="url(#clip230)" d="M 0 0 M452.161 1452.37 Q448.55 1452.37 446.721 1455.94 Q444.916 1459.48 444.916 1466.61 Q444.916 1473.71 446.721 1477.28 Q448.55 1480.82 452.161 1480.82 Q455.795 1480.82 457.601 1477.28 Q459.429 1473.71 459.429 1466.61 Q459.429 1459.48 457.601 1455.94 Q455.795 1452.37 452.161 1452.37 M452.161 1448.67 Q457.971 1448.67 461.027 1453.27 Q464.105 1457.86 464.105 1466.61 Q464.105 1475.33 461.027 1479.94 Q457.971 1484.52 452.161 1484.52 Q446.351 1484.52 443.272 1479.94 Q440.217 1475.33 440.217 1466.61 Q440.217 1457.86 443.272 1453.27 Q446.351 1448.67 452.161 1448.67 Z" fill="#000000" fill-rule="evenodd" fill-opacity="1" /><path clip-path="url(#clip230)" d="M 0 0 M469.175 1477.97 L474.059 1477.97 L474.059 1483.85 L469.175 1483.85 L469.175 1477.97 Z" fill="#000000" fill-rule="evenodd" fill-opacity="1" /><path clip-path="url(#clip230)" d="M 0 0 M489.128 1452.37 Q485.517 1452.37 483.689 1455.94 Q481.883 1459.48 481.883 1466.61 Q481.883 1473.71 483.689 1477.28 Q485.517 1480.82 489.128 1480.82 Q492.763 1480.82 494.568 1477.28 Q496.397 1473.71 496.397 1466.61 Q496.397 1459.48 494.568 1455.94 Q492.763 1452.37 489.128 1452.37 M489.128 1448.67 Q494.938 1448.67 497.994 1453.27 Q501.073 1457.86 501.073 1466.61 Q501.073 1475.33 497.994 1479.94 Q494.938 1484.52 489.128 1484.52 Q483.318 1484.52 480.239 1479.94 Q477.184 1475.33 477.184 1466.61 Q477.184 1457.86 480.239 1453.27 Q483.318 1448.67 489.128 1448.67 Z" fill="#000000" fill-rule="evenodd" fill-opacity="1" /><path clip-path="url(#clip230)" d="M 0 0 M516.142 1452.37 Q512.531 1452.37 510.702 1455.94 Q508.897 1459.48 508.897 1466.61 Q508.897 1473.71 510.702 1477.28 Q512.531 1480.82 516.142 1480.82 Q519.776 1480.82 521.582 1477.28 Q523.411 1473.71 523.411 1466.61 Q523.411 1459.48 521.582 1455.94 Q519.776 1452.37 516.142 1452.37 M516.142 1448.67 Q521.952 1448.67 525.008 1453.27 Q528.086 1457.86 528.086 1466.61 Q528.086 1475.33 525.008 1479.94 Q521.952 1484.52 516.142 1484.52 Q510.332 1484.52 507.253 1479.94 Q504.198 1475.33 504.198 1466.61 Q504.198 1457.86 507.253 1453.27 Q510.332 1448.67 516.142 1448.67 Z" fill="#000000" fill-rule="evenodd" fill-opacity="1" /><path clip-path="url(#clip230)" d="M 0 0 M537.184 1479.92 L553.503 1479.92 L553.503 1483.85 L531.559 1483.85 L531.559 1479.92 Q534.221 1477.16 538.804 1472.53 Q543.41 1467.88 544.591 1466.54 Q546.836 1464.01 547.716 1462.28 Q548.619 1460.52 548.619 1458.83 Q548.619 1456.07 546.674 1454.34 Q544.753 1452.6 541.651 1452.6 Q539.452 1452.6 536.998 1453.37 Q534.568 1454.13 531.79 1455.68 L531.79 1450.96 Q534.614 1449.82 537.068 1449.25 Q539.522 1448.67 541.559 1448.67 Q546.929 1448.67 550.123 1451.35 Q553.318 1454.04 553.318 1458.53 Q553.318 1460.66 552.508 1462.58 Q551.721 1464.48 549.614 1467.07 Q549.035 1467.74 545.934 1470.96 Q542.832 1474.15 537.184 1479.92 Z" fill="#000000" fill-rule="evenodd" fill-opacity="1" /><path clip-path="url(#clip230)" d="M 0 0 M568.572 1452.37 Q564.961 1452.37 563.133 1455.94 Q561.327 1459.48 561.327 1466.61 Q561.327 1473.71 563.133 1477.28 Q564.961 1480.82 568.572 1480.82 Q572.207 1480.82 574.012 1477.28 Q575.841 1473.71 575.841 1466.61 Q575.841 1459.48 574.012 1455.94 Q572.207 1452.37 568.572 1452.37 M568.572 1448.67 Q574.382 1448.67 577.438 1453.27 Q580.517 1457.86 580.517 1466.61 Q580.517 1475.33 577.438 1479.94 Q574.382 1484.52 568.572 1484.52 Q562.762 1484.52 559.683 1479.94 Q556.628 1475.33 556.628 1466.61 Q556.628 1457.86 559.683 1453.27 Q562.762 1448.67 568.572 1448.67 Z" fill="#000000" fill-rule="evenodd" fill-opacity="1" /><path clip-path="url(#clip230)" d="M 0 0 M886.793 1452.37 Q883.182 1452.37 881.353 1455.94 Q879.548 1459.48 879.548 1466.61 Q879.548 1473.71 881.353 1477.28 Q883.182 1480.82 886.793 1480.82 Q890.427 1480.82 892.233 1477.28 Q894.062 1473.71 894.062 1466.61 Q894.062 1459.48 892.233 1455.94 Q890.427 1452.37 886.793 1452.37 M886.793 1448.67 Q892.603 1448.67 895.659 1453.27 Q898.738 1457.86 898.738 1466.61 Q898.738 1475.33 895.659 1479.94 Q892.603 1484.52 886.793 1484.52 Q880.983 1484.52 877.904 1479.94 Q874.849 1475.33 874.849 1466.61 Q874.849 1457.86 877.904 1453.27 Q880.983 1448.67 886.793 1448.67 Z" fill="#000000" fill-rule="evenodd" fill-opacity="1" /><path clip-path="url(#clip230)" d="M 0 0 M903.807 1477.97 L908.691 1477.97 L908.691 1483.85 L903.807 1483.85 L903.807 1477.97 Z" fill="#000000" fill-rule="evenodd" fill-opacity="1" /><path clip-path="url(#clip230)" d="M 0 0 M923.761 1452.37 Q920.149 1452.37 918.321 1455.94 Q916.515 1459.48 916.515 1466.61 Q916.515 1473.71 918.321 1477.28 Q920.149 1480.82 923.761 1480.82 Q927.395 1480.82 929.2 1477.28 Q931.029 1473.71 931.029 1466.61 Q931.029 1459.48 929.2 1455.94 Q927.395 1452.37 923.761 1452.37 M923.761 1448.67 Q929.571 1448.67 932.626 1453.27 Q935.705 1457.86 935.705 1466.61 Q935.705 1475.33 932.626 1479.94 Q929.571 1484.52 923.761 1484.52 Q917.95 1484.52 914.872 1479.94 Q911.816 1475.33 911.816 1466.61 Q911.816 1457.86 914.872 1453.27 Q917.95 1448.67 923.761 1448.67 Z" fill="#000000" fill-rule="evenodd" fill-opacity="1" /><path clip-path="url(#clip230)" d="M 0 0 M950.774 1452.37 Q947.163 1452.37 945.335 1455.94 Q943.529 1459.48 943.529 1466.61 Q943.529 1473.71 945.335 1477.28 Q947.163 1480.82 950.774 1480.82 Q954.409 1480.82 956.214 1477.28 Q958.043 1473.71 958.043 1466.61 Q958.043 1459.48 956.214 1455.94 Q954.409 1452.37 950.774 1452.37 M950.774 1448.67 Q956.584 1448.67 959.64 1453.27 Q962.719 1457.86 962.719 1466.61 Q962.719 1475.33 959.64 1479.94 Q956.584 1484.52 950.774 1484.52 Q944.964 1484.52 941.885 1479.94 Q938.83 1475.33 938.83 1466.61 Q938.83 1457.86 941.885 1453.27 Q944.964 1448.67 950.774 1448.67 Z" fill="#000000" fill-rule="evenodd" fill-opacity="1" /><path clip-path="url(#clip230)" d="M 0 0 M971.816 1479.92 L988.135 1479.92 L988.135 1483.85 L966.191 1483.85 L966.191 1479.92 Q968.853 1477.16 973.436 1472.53 Q978.043 1467.88 979.223 1466.54 Q981.469 1464.01 982.348 1462.28 Q983.251 1460.52 983.251 1458.83 Q983.251 1456.07 981.307 1454.34 Q979.385 1452.6 976.283 1452.6 Q974.084 1452.6 971.631 1453.37 Q969.2 1454.13 966.422 1455.68 L966.422 1450.96 Q969.246 1449.82 971.7 1449.25 Q974.154 1448.67 976.191 1448.67 Q981.561 1448.67 984.756 1451.35 Q987.95 1454.04 987.95 1458.53 Q987.95 1460.66 987.14 1462.58 Q986.353 1464.48 984.246 1467.07 Q983.668 1467.74 980.566 1470.96 Q977.464 1474.15 971.816 1479.92 Z" fill="#000000" fill-rule="evenodd" fill-opacity="1" /><path clip-path="url(#clip230)" d="M 0 0 M994.015 1479.92 L1001.65 1479.92 L1001.65 1453.55 L993.344 1455.22 L993.344 1450.96 L1001.61 1449.29 L1006.28 1449.29 L1006.28 1479.92 L1013.92 1479.92 L1013.92 1483.85 L994.015 1483.85 L994.015 1479.92 Z" fill="#000000" fill-rule="evenodd" fill-opacity="1" /><path clip-path="url(#clip230)" d="M 0 0 M1321 1452.37 Q1317.39 1452.37 1315.56 1455.94 Q1313.75 1459.48 1313.75 1466.61 Q1313.75 1473.71 1315.56 1477.28 Q1317.39 1480.82 1321 1480.82 Q1324.63 1480.82 1326.44 1477.28 Q1328.27 1473.71 1328.27 1466.61 Q1328.27 1459.48 1326.44 1455.94 Q1324.63 1452.37 1321 1452.37 M1321 1448.67 Q1326.81 1448.67 1329.86 1453.27 Q1332.94 1457.86 1332.94 1466.61 Q1332.94 1475.33 1329.86 1479.94 Q1326.81 1484.52 1321 1484.52 Q1315.19 1484.52 1312.11 1479.94 Q1309.05 1475.33 1309.05 1466.61 Q1309.05 1457.86 1312.11 1453.27 Q1315.19 1448.67 1321 1448.67 Z" fill="#000000" fill-rule="evenodd" fill-opacity="1" /><path clip-path="url(#clip230)" d="M 0 0 M1338.01 1477.97 L1342.9 1477.97 L1342.9 1483.85 L1338.01 1483.85 L1338.01 1477.97 Z" fill="#000000" fill-rule="evenodd" fill-opacity="1" /><path clip-path="url(#clip230)" d="M 0 0 M1357.96 1452.37 Q1354.35 1452.37 1352.52 1455.94 Q1350.72 1459.48 1350.72 1466.61 Q1350.72 1473.71 1352.52 1477.28 Q1354.35 1480.82 1357.96 1480.82 Q1361.6 1480.82 1363.4 1477.28 Q1365.23 1473.71 1365.23 1466.61 Q1365.23 1459.48 1363.4 1455.94 Q1361.6 1452.37 1357.96 1452.37 M1357.96 1448.67 Q1363.77 1448.67 1366.83 1453.27 Q1369.91 1457.86 1369.91 1466.61 Q1369.91 1475.33 1366.83 1479.94 Q1363.77 1484.52 1357.96 1484.52 Q1352.15 1484.52 1349.08 1479.94 Q1346.02 1475.33 1346.02 1466.61 Q1346.02 1457.86 1349.08 1453.27 Q1352.15 1448.67 1357.96 1448.67 Z" fill="#000000" fill-rule="evenodd" fill-opacity="1" /><path clip-path="url(#clip230)" d="M 0 0 M1384.98 1452.37 Q1381.37 1452.37 1379.54 1455.94 Q1377.73 1459.48 1377.73 1466.61 Q1377.73 1473.71 1379.54 1477.28 Q1381.37 1480.82 1384.98 1480.82 Q1388.61 1480.82 1390.42 1477.28 Q1392.25 1473.71 1392.25 1466.61 Q1392.25 1459.48 1390.42 1455.94 Q1388.61 1452.37 1384.98 1452.37 M1384.98 1448.67 Q1390.79 1448.67 1393.84 1453.27 Q1396.92 1457.86 1396.92 1466.61 Q1396.92 1475.33 1393.84 1479.94 Q1390.79 1484.52 1384.98 1484.52 Q1379.17 1484.52 1376.09 1479.94 Q1373.03 1475.33 1373.03 1466.61 Q1373.03 1457.86 1376.09 1453.27 Q1379.17 1448.67 1384.98 1448.67 Z" fill="#000000" fill-rule="evenodd" fill-opacity="1" /><path clip-path="url(#clip230)" d="M 0 0 M1406.02 1479.92 L1422.34 1479.92 L1422.34 1483.85 L1400.39 1483.85 L1400.39 1479.92 Q1403.06 1477.16 1407.64 1472.53 Q1412.25 1467.88 1413.43 1466.54 Q1415.67 1464.01 1416.55 1462.28 Q1417.46 1460.52 1417.46 1458.83 Q1417.46 1456.07 1415.51 1454.34 Q1413.59 1452.6 1410.49 1452.6 Q1408.29 1452.6 1405.83 1453.37 Q1403.4 1454.13 1400.63 1455.68 L1400.63 1450.96 Q1403.45 1449.82 1405.9 1449.25 Q1408.36 1448.67 1410.39 1448.67 Q1415.77 1448.67 1418.96 1451.35 Q1422.15 1454.04 1422.15 1458.53 Q1422.15 1460.66 1421.34 1462.58 Q1420.56 1464.48 1418.45 1467.07 Q1417.87 1467.74 1414.77 1470.96 Q1411.67 1474.15 1406.02 1479.92 Z" fill="#000000" fill-rule="evenodd" fill-opacity="1" /><path clip-path="url(#clip230)" d="M 0 0 M1431.44 1479.92 L1447.76 1479.92 L1447.76 1483.85 L1425.81 1483.85 L1425.81 1479.92 Q1428.47 1477.16 1433.06 1472.53 Q1437.66 1467.88 1438.84 1466.54 Q1441.09 1464.01 1441.97 1462.28 Q1442.87 1460.52 1442.87 1458.83 Q1442.87 1456.07 1440.93 1454.34 Q1439.01 1452.6 1435.9 1452.6 Q1433.7 1452.6 1431.25 1453.37 Q1428.82 1454.13 1426.04 1455.68 L1426.04 1450.96 Q1428.87 1449.82 1431.32 1449.25 Q1433.77 1448.67 1435.81 1448.67 Q1441.18 1448.67 1444.38 1451.35 Q1447.57 1454.04 1447.57 1458.53 Q1447.57 1460.66 1446.76 1462.58 Q1445.97 1464.48 1443.87 1467.07 Q1443.29 1467.74 1440.19 1470.96 Q1437.08 1474.15 1431.44 1479.92 Z" fill="#000000" fill-rule="evenodd" fill-opacity="1" /><path clip-path="url(#clip230)" d="M 0 0 M1754.54 1452.37 Q1750.93 1452.37 1749.1 1455.94 Q1747.3 1459.48 1747.3 1466.61 Q1747.3 1473.71 1749.1 1477.28 Q1750.93 1480.82 1754.54 1480.82 Q1758.18 1480.82 1759.98 1477.28 Q1761.81 1473.71 1761.81 1466.61 Q1761.81 1459.48 1759.98 1455.94 Q1758.18 1452.37 1754.54 1452.37 M1754.54 1448.67 Q1760.35 1448.67 1763.41 1453.27 Q1766.49 1457.86 1766.49 1466.61 Q1766.49 1475.33 1763.41 1479.94 Q1760.35 1484.52 1754.54 1484.52 Q1748.73 1484.52 1745.65 1479.94 Q1742.6 1475.33 1742.6 1466.61 Q1742.6 1457.86 1745.65 1453.27 Q1748.73 1448.67 1754.54 1448.67 Z" fill="#000000" fill-rule="evenodd" fill-opacity="1" /><path clip-path="url(#clip230)" d="M 0 0 M1771.56 1477.97 L1776.44 1477.97 L1776.44 1483.85 L1771.56 1483.85 L1771.56 1477.97 Z" fill="#000000" fill-rule="evenodd" fill-opacity="1" /><path clip-path="url(#clip230)" d="M 0 0 M1791.51 1452.37 Q1787.9 1452.37 1786.07 1455.94 Q1784.26 1459.48 1784.26 1466.61 Q1784.26 1473.71 1786.07 1477.28 Q1787.9 1480.82 1791.51 1480.82 Q1795.14 1480.82 1796.95 1477.28 Q1798.78 1473.71 1798.78 1466.61 Q1798.78 1459.48 1796.95 1455.94 Q1795.14 1452.37 1791.51 1452.37 M1791.51 1448.67 Q1797.32 1448.67 1800.37 1453.27 Q1803.45 1457.86 1803.45 1466.61 Q1803.45 1475.33 1800.37 1479.94 Q1797.32 1484.52 1791.51 1484.52 Q1785.7 1484.52 1782.62 1479.94 Q1779.56 1475.33 1779.56 1466.61 Q1779.56 1457.86 1782.62 1453.27 Q1785.7 1448.67 1791.51 1448.67 Z" fill="#000000" fill-rule="evenodd" fill-opacity="1" /><path clip-path="url(#clip230)" d="M 0 0 M1818.52 1452.37 Q1814.91 1452.37 1813.08 1455.94 Q1811.28 1459.48 1811.28 1466.61 Q1811.28 1473.71 1813.08 1477.28 Q1814.91 1480.82 1818.52 1480.82 Q1822.16 1480.82 1823.96 1477.28 Q1825.79 1473.71 1825.79 1466.61 Q1825.79 1459.48 1823.96 1455.94 Q1822.16 1452.37 1818.52 1452.37 M1818.52 1448.67 Q1824.33 1448.67 1827.39 1453.27 Q1830.47 1457.86 1830.47 1466.61 Q1830.47 1475.33 1827.39 1479.94 Q1824.33 1484.52 1818.52 1484.52 Q1812.71 1484.52 1809.63 1479.94 Q1806.58 1475.33 1806.58 1466.61 Q1806.58 1457.86 1809.63 1453.27 Q1812.71 1448.67 1818.52 1448.67 Z" fill="#000000" fill-rule="evenodd" fill-opacity="1" /><path clip-path="url(#clip230)" d="M 0 0 M1839.56 1479.92 L1855.88 1479.92 L1855.88 1483.85 L1833.94 1483.85 L1833.94 1479.92 Q1836.6 1477.16 1841.18 1472.53 Q1845.79 1467.88 1846.97 1466.54 Q1849.22 1464.01 1850.1 1462.28 Q1851 1460.52 1851 1458.83 Q1851 1456.07 1849.05 1454.34 Q1847.13 1452.6 1844.03 1452.6 Q1841.83 1452.6 1839.38 1453.37 Q1836.95 1454.13 1834.17 1455.68 L1834.17 1450.96 Q1836.99 1449.82 1839.45 1449.25 Q1841.9 1448.67 1843.94 1448.67 Q1849.31 1448.67 1852.5 1451.35 Q1855.7 1454.04 1855.7 1458.53 Q1855.7 1460.66 1854.89 1462.58 Q1854.1 1464.48 1851.99 1467.07 Q1851.42 1467.74 1848.31 1470.96 Q1845.21 1474.15 1839.56 1479.92 Z" fill="#000000" fill-rule="evenodd" fill-opacity="1" /><path clip-path="url(#clip230)" d="M 0 0 M1875.12 1465.22 Q1878.48 1465.94 1880.35 1468.2 Q1882.25 1470.47 1882.25 1473.81 Q1882.25 1478.92 1878.73 1481.72 Q1875.21 1484.52 1868.73 1484.52 Q1866.55 1484.52 1864.24 1484.08 Q1861.95 1483.67 1859.49 1482.81 L1859.49 1478.3 Q1861.44 1479.43 1863.75 1480.01 Q1866.07 1480.59 1868.59 1480.59 Q1872.99 1480.59 1875.28 1478.85 Q1877.6 1477.12 1877.6 1473.81 Q1877.6 1470.75 1875.44 1469.04 Q1873.31 1467.3 1869.49 1467.3 L1865.47 1467.3 L1865.47 1463.46 L1869.68 1463.46 Q1873.13 1463.46 1874.96 1462.09 Q1876.79 1460.7 1876.79 1458.11 Q1876.79 1455.45 1874.89 1454.04 Q1873.01 1452.6 1869.49 1452.6 Q1867.57 1452.6 1865.37 1453.02 Q1863.18 1453.44 1860.54 1454.31 L1860.54 1450.15 Q1863.2 1449.41 1865.51 1449.04 Q1867.85 1448.67 1869.91 1448.67 Q1875.24 1448.67 1878.34 1451.1 Q1881.44 1453.5 1881.44 1457.63 Q1881.44 1460.5 1879.8 1462.49 Q1878.15 1464.45 1875.12 1465.22 Z" fill="#000000" fill-rule="evenodd" fill-opacity="1" /><path clip-path="url(#clip230)" d="M 0 0 M2187.99 1452.37 Q2184.38 1452.37 2182.55 1455.94 Q2180.75 1459.48 2180.75 1466.61 Q2180.75 1473.71 2182.55 1477.28 Q2184.38 1480.82 2187.99 1480.82 Q2191.63 1480.82 2193.43 1477.28 Q2195.26 1473.71 2195.26 1466.61 Q2195.26 1459.48 2193.43 1455.94 Q2191.63 1452.37 2187.99 1452.37 M2187.99 1448.67 Q2193.8 1448.67 2196.86 1453.27 Q2199.94 1457.86 2199.94 1466.61 Q2199.94 1475.33 2196.86 1479.94 Q2193.8 1484.52 2187.99 1484.52 Q2182.18 1484.52 2179.1 1479.94 Q2176.05 1475.33 2176.05 1466.61 Q2176.05 1457.86 2179.1 1453.27 Q2182.18 1448.67 2187.99 1448.67 Z" fill="#000000" fill-rule="evenodd" fill-opacity="1" /><path clip-path="url(#clip230)" d="M 0 0 M2205.01 1477.97 L2209.89 1477.97 L2209.89 1483.85 L2205.01 1483.85 L2205.01 1477.97 Z" fill="#000000" fill-rule="evenodd" fill-opacity="1" /><path clip-path="url(#clip230)" d="M 0 0 M2224.96 1452.37 Q2221.35 1452.37 2219.52 1455.94 Q2217.72 1459.48 2217.72 1466.61 Q2217.72 1473.71 2219.52 1477.28 Q2221.35 1480.82 2224.96 1480.82 Q2228.59 1480.82 2230.4 1477.28 Q2232.23 1473.71 2232.23 1466.61 Q2232.23 1459.48 2230.4 1455.94 Q2228.59 1452.37 2224.96 1452.37 M2224.96 1448.67 Q2230.77 1448.67 2233.83 1453.27 Q2236.91 1457.86 2236.91 1466.61 Q2236.91 1475.33 2233.83 1479.94 Q2230.77 1484.52 2224.96 1484.52 Q2219.15 1484.52 2216.07 1479.94 Q2213.02 1475.33 2213.02 1466.61 Q2213.02 1457.86 2216.07 1453.27 Q2219.15 1448.67 2224.96 1448.67 Z" fill="#000000" fill-rule="evenodd" fill-opacity="1" /><path clip-path="url(#clip230)" d="M 0 0 M2251.97 1452.37 Q2248.36 1452.37 2246.53 1455.94 Q2244.73 1459.48 2244.73 1466.61 Q2244.73 1473.71 2246.53 1477.28 Q2248.36 1480.82 2251.97 1480.82 Q2255.61 1480.82 2257.41 1477.28 Q2259.24 1473.71 2259.24 1466.61 Q2259.24 1459.48 2257.41 1455.94 Q2255.61 1452.37 2251.97 1452.37 M2251.97 1448.67 Q2257.78 1448.67 2260.84 1453.27 Q2263.92 1457.86 2263.92 1466.61 Q2263.92 1475.33 2260.84 1479.94 Q2257.78 1484.52 2251.97 1484.52 Q2246.16 1484.52 2243.09 1479.94 Q2240.03 1475.33 2240.03 1466.61 Q2240.03 1457.86 2243.09 1453.27 Q2246.16 1448.67 2251.97 1448.67 Z" fill="#000000" fill-rule="evenodd" fill-opacity="1" /><path clip-path="url(#clip230)" d="M 0 0 M2273.02 1479.92 L2289.34 1479.92 L2289.34 1483.85 L2267.39 1483.85 L2267.39 1479.92 Q2270.05 1477.16 2274.64 1472.53 Q2279.24 1467.88 2280.42 1466.54 Q2282.67 1464.01 2283.55 1462.28 Q2284.45 1460.52 2284.45 1458.83 Q2284.45 1456.07 2282.51 1454.34 Q2280.59 1452.6 2277.48 1452.6 Q2275.28 1452.6 2272.83 1453.37 Q2270.4 1454.13 2267.62 1455.68 L2267.62 1450.96 Q2270.45 1449.82 2272.9 1449.25 Q2275.35 1448.67 2277.39 1448.67 Q2282.76 1448.67 2285.96 1451.35 Q2289.15 1454.04 2289.15 1458.53 Q2289.15 1460.66 2288.34 1462.58 Q2287.55 1464.48 2285.45 1467.07 Q2284.87 1467.74 2281.77 1470.96 Q2278.66 1474.15 2273.02 1479.92 Z" fill="#000000" fill-rule="evenodd" fill-opacity="1" /><path clip-path="url(#clip230)" d="M 0 0 M2307.25 1453.37 L2295.45 1471.81 L2307.25 1471.81 L2307.25 1453.37 M2306.03 1449.29 L2311.9 1449.29 L2311.9 1471.81 L2316.84 1471.81 L2316.84 1475.7 L2311.9 1475.7 L2311.9 1483.85 L2307.25 1483.85 L2307.25 1475.7 L2291.65 1475.7 L2291.65 1471.19 L2306.03 1449.29 Z" fill="#000000" fill-rule="evenodd" fill-opacity="1" /><path clip-path="url(#clip230)" d="M 0 0 M1299.92 1565.85 L1299.92 1581.6 L1294.03 1581.6 L1294.03 1532.62 Q1294.03 1518.1 1307.59 1518.1 Q1321.4 1518.1 1321.4 1530.36 Q1321.4 1539.08 1315.93 1542.26 Q1324.84 1545.13 1324.84 1553.63 Q1324.84 1568.71 1309.5 1568.71 Q1302.75 1568.71 1299.92 1565.85 M1299.92 1558.21 Q1303.45 1563.72 1309.72 1563.72 Q1318.89 1563.72 1318.89 1553.72 Q1318.89 1544.75 1304.12 1545.45 L1304.12 1540.03 Q1315.67 1540.03 1315.67 1529.85 Q1315.67 1522.88 1308.23 1522.88 Q1299.92 1522.88 1299.92 1532.81 L1299.92 1558.21 Z" fill="#000000" fill-rule="evenodd" fill-opacity="1" /><polyline clip-path="url(#clip232)" style="stroke:#000000; stroke-width:2; stroke-opacity:0.1; fill:none" points="
  266.116,1204.04 2352.76,1204.04 
  "/>
<polyline clip-path="url(#clip232)" style="stroke:#000000; stroke-width:2; stroke-opacity:0.1; fill:none" points="
  266.116,893.158 2352.76,893.158 
  "/>
<polyline clip-path="url(#clip232)" style="stroke:#000000; stroke-width:2; stroke-opacity:0.1; fill:none" points="
  266.116,582.272 2352.76,582.272 
  "/>
<polyline clip-path="url(#clip232)" style="stroke:#000000; stroke-width:2; stroke-opacity:0.1; fill:none" points="
  266.116,271.387 2352.76,271.387 
  "/>
<polyline clip-path="url(#clip230)" style="stroke:#000000; stroke-width:4; stroke-opacity:1; fill:none" points="
  266.116,1423.18 266.116,47.2441 
  "/>
<polyline clip-path="url(#clip230)" style="stroke:#000000; stroke-width:4; stroke-opacity:1; fill:none" points="
  266.116,1204.04 291.156,1204.04 
  "/>
<polyline clip-path="url(#clip230)" style="stroke:#000000; stroke-width:4; stroke-opacity:1; fill:none" points="
  266.116,893.158 291.156,893.158 
  "/>
<polyline clip-path="url(#clip230)" style="stroke:#000000; stroke-width:4; stroke-opacity:1; fill:none" points="
  266.116,582.272 291.156,582.272 
  "/>
<polyline clip-path="url(#clip230)" style="stroke:#000000; stroke-width:4; stroke-opacity:1; fill:none" points="
  266.116,271.387 291.156,271.387 
  "/>
<path clip-path="url(#clip230)" d="M 0 0 M126.205 1189.84 Q122.593 1189.84 120.765 1193.41 Q118.959 1196.95 118.959 1204.08 Q118.959 1211.18 120.765 1214.75 Q122.593 1218.29 126.205 1218.29 Q129.839 1218.29 131.644 1214.75 Q133.473 1211.18 133.473 1204.08 Q133.473 1196.95 131.644 1193.41 Q129.839 1189.84 126.205 1189.84 M126.205 1186.14 Q132.015 1186.14 135.07 1190.74 Q138.149 1195.33 138.149 1204.08 Q138.149 1212.8 135.07 1217.41 Q132.015 1221.99 126.205 1221.99 Q120.394 1221.99 117.316 1217.41 Q114.26 1212.8 114.26 1204.08 Q114.26 1195.33 117.316 1190.74 Q120.394 1186.14 126.205 1186.14 Z" fill="#000000" fill-rule="evenodd" fill-opacity="1" /><path clip-path="url(#clip230)" d="M 0 0 M143.218 1215.44 L148.103 1215.44 L148.103 1221.32 L143.218 1221.32 L143.218 1215.44 Z" fill="#000000" fill-rule="evenodd" fill-opacity="1" /><path clip-path="url(#clip230)" d="M 0 0 M166.019 1190.84 L154.214 1209.29 L166.019 1209.29 L166.019 1190.84 M164.792 1186.76 L170.672 1186.76 L170.672 1209.29 L175.602 1209.29 L175.602 1213.17 L170.672 1213.17 L170.672 1221.32 L166.019 1221.32 L166.019 1213.17 L150.417 1213.17 L150.417 1208.66 L164.792 1186.76 Z" fill="#000000" fill-rule="evenodd" fill-opacity="1" /><path clip-path="url(#clip230)" d="M 0 0 M193.519 1190.84 L181.713 1209.29 L193.519 1209.29 L193.519 1190.84 M192.292 1186.76 L198.172 1186.76 L198.172 1209.29 L203.102 1209.29 L203.102 1213.17 L198.172 1213.17 L198.172 1221.32 L193.519 1221.32 L193.519 1213.17 L177.917 1213.17 L177.917 1208.66 L192.292 1186.76 Z" fill="#000000" fill-rule="evenodd" fill-opacity="1" /><path clip-path="url(#clip230)" d="M 0 0 M218.172 1189.84 Q214.561 1189.84 212.732 1193.41 Q210.926 1196.95 210.926 1204.08 Q210.926 1211.18 212.732 1214.75 Q214.561 1218.29 218.172 1218.29 Q221.806 1218.29 223.611 1214.75 Q225.44 1211.18 225.44 1204.08 Q225.44 1196.95 223.611 1193.41 Q221.806 1189.84 218.172 1189.84 M218.172 1186.14 Q223.982 1186.14 227.037 1190.74 Q230.116 1195.33 230.116 1204.08 Q230.116 1212.8 227.037 1217.41 Q223.982 1221.99 218.172 1221.99 Q212.361 1221.99 209.283 1217.41 Q206.227 1212.8 206.227 1204.08 Q206.227 1195.33 209.283 1190.74 Q212.361 1186.14 218.172 1186.14 Z" fill="#000000" fill-rule="evenodd" fill-opacity="1" /><path clip-path="url(#clip230)" d="M 0 0 M127.2 878.956 Q123.589 878.956 121.76 882.521 Q119.955 886.063 119.955 893.192 Q119.955 900.299 121.76 903.864 Q123.589 907.405 127.2 907.405 Q130.834 907.405 132.64 903.864 Q134.468 900.299 134.468 893.192 Q134.468 886.063 132.64 882.521 Q130.834 878.956 127.2 878.956 M127.2 875.253 Q133.01 875.253 136.066 879.859 Q139.144 884.443 139.144 893.192 Q139.144 901.919 136.066 906.526 Q133.01 911.109 127.2 911.109 Q121.39 911.109 118.311 906.526 Q115.256 901.919 115.256 893.192 Q115.256 884.443 118.311 879.859 Q121.39 875.253 127.2 875.253 Z" fill="#000000" fill-rule="evenodd" fill-opacity="1" /><path clip-path="url(#clip230)" d="M 0 0 M144.214 904.558 L149.098 904.558 L149.098 910.438 L144.214 910.438 L144.214 904.558 Z" fill="#000000" fill-rule="evenodd" fill-opacity="1" /><path clip-path="url(#clip230)" d="M 0 0 M167.015 879.952 L155.209 898.401 L167.015 898.401 L167.015 879.952 M165.788 875.878 L171.667 875.878 L171.667 898.401 L176.598 898.401 L176.598 902.29 L171.667 902.29 L171.667 910.438 L167.015 910.438 L167.015 902.29 L151.413 902.29 L151.413 897.776 L165.788 875.878 Z" fill="#000000" fill-rule="evenodd" fill-opacity="1" /><path clip-path="url(#clip230)" d="M 0 0 M194.514 879.952 L182.709 898.401 L194.514 898.401 L194.514 879.952 M193.288 875.878 L199.167 875.878 L199.167 898.401 L204.098 898.401 L204.098 902.29 L199.167 902.29 L199.167 910.438 L194.514 910.438 L194.514 902.29 L178.913 902.29 L178.913 897.776 L193.288 875.878 Z" fill="#000000" fill-rule="evenodd" fill-opacity="1" /><path clip-path="url(#clip230)" d="M 0 0 M209.213 875.878 L227.57 875.878 L227.57 879.813 L213.496 879.813 L213.496 888.285 Q214.514 887.938 215.533 887.776 Q216.551 887.591 217.57 887.591 Q223.357 887.591 226.736 890.762 Q230.116 893.933 230.116 899.35 Q230.116 904.929 226.644 908.03 Q223.172 911.109 216.852 911.109 Q214.676 911.109 212.408 910.739 Q210.162 910.368 207.755 909.628 L207.755 904.929 Q209.838 906.063 212.061 906.618 Q214.283 907.174 216.76 907.174 Q220.764 907.174 223.102 905.067 Q225.44 902.961 225.44 899.35 Q225.44 895.739 223.102 893.632 Q220.764 891.526 216.76 891.526 Q214.885 891.526 213.01 891.942 Q211.158 892.359 209.213 893.239 L209.213 875.878 Z" fill="#000000" fill-rule="evenodd" fill-opacity="1" /><path clip-path="url(#clip230)" d="M 0 0 M127.686 568.071 Q124.075 568.071 122.246 571.636 Q120.441 575.178 120.441 582.307 Q120.441 589.414 122.246 592.978 Q124.075 596.52 127.686 596.52 Q131.32 596.52 133.126 592.978 Q134.954 589.414 134.954 582.307 Q134.954 575.178 133.126 571.636 Q131.32 568.071 127.686 568.071 M127.686 564.367 Q133.496 564.367 136.552 568.974 Q139.63 573.557 139.63 582.307 Q139.63 591.034 136.552 595.64 Q133.496 600.224 127.686 600.224 Q121.876 600.224 118.797 595.64 Q115.742 591.034 115.742 582.307 Q115.742 573.557 118.797 568.974 Q121.876 564.367 127.686 564.367 Z" fill="#000000" fill-rule="evenodd" fill-opacity="1" /><path clip-path="url(#clip230)" d="M 0 0 M144.7 593.673 L149.584 593.673 L149.584 599.552 L144.7 599.552 L144.7 593.673 Z" fill="#000000" fill-rule="evenodd" fill-opacity="1" /><path clip-path="url(#clip230)" d="M 0 0 M167.501 569.067 L155.695 587.515 L167.501 587.515 L167.501 569.067 M166.274 564.992 L172.153 564.992 L172.153 587.515 L177.084 587.515 L177.084 591.404 L172.153 591.404 L172.153 599.552 L167.501 599.552 L167.501 591.404 L151.899 591.404 L151.899 586.89 L166.274 564.992 Z" fill="#000000" fill-rule="evenodd" fill-opacity="1" /><path clip-path="url(#clip230)" d="M 0 0 M182.2 564.992 L200.556 564.992 L200.556 568.928 L186.482 568.928 L186.482 577.4 Q187.501 577.053 188.519 576.891 Q189.538 576.705 190.556 576.705 Q196.343 576.705 199.723 579.877 Q203.102 583.048 203.102 588.465 Q203.102 594.043 199.63 597.145 Q196.158 600.224 189.838 600.224 Q187.663 600.224 185.394 599.853 Q183.149 599.483 180.741 598.742 L180.741 594.043 Q182.825 595.177 185.047 595.733 Q187.269 596.289 189.746 596.289 Q193.75 596.289 196.088 594.182 Q198.426 592.076 198.426 588.465 Q198.426 584.853 196.088 582.747 Q193.75 580.641 189.746 580.641 Q187.871 580.641 185.996 581.057 Q184.144 581.474 182.2 582.353 L182.2 564.992 Z" fill="#000000" fill-rule="evenodd" fill-opacity="1" /><path clip-path="url(#clip230)" d="M 0 0 M218.172 568.071 Q214.561 568.071 212.732 571.636 Q210.926 575.178 210.926 582.307 Q210.926 589.414 212.732 592.978 Q214.561 596.52 218.172 596.52 Q221.806 596.52 223.611 592.978 Q225.44 589.414 225.44 582.307 Q225.44 575.178 223.611 571.636 Q221.806 568.071 218.172 568.071 M218.172 564.367 Q223.982 564.367 227.037 568.974 Q230.116 573.557 230.116 582.307 Q230.116 591.034 227.037 595.64 Q223.982 600.224 218.172 600.224 Q212.361 600.224 209.283 595.64 Q206.227 591.034 206.227 582.307 Q206.227 573.557 209.283 568.974 Q212.361 564.367 218.172 564.367 Z" fill="#000000" fill-rule="evenodd" fill-opacity="1" /><path clip-path="url(#clip230)" d="M 0 0 M128.681 257.186 Q125.07 257.186 123.242 260.751 Q121.436 264.292 121.436 271.422 Q121.436 278.528 123.242 282.093 Q125.07 285.635 128.681 285.635 Q132.316 285.635 134.121 282.093 Q135.95 278.528 135.95 271.422 Q135.95 264.292 134.121 260.751 Q132.316 257.186 128.681 257.186 M128.681 253.482 Q134.492 253.482 137.547 258.089 Q140.626 262.672 140.626 271.422 Q140.626 280.149 137.547 284.755 Q134.492 289.338 128.681 289.338 Q122.871 289.338 119.793 284.755 Q116.737 280.149 116.737 271.422 Q116.737 262.672 119.793 258.089 Q122.871 253.482 128.681 253.482 Z" fill="#000000" fill-rule="evenodd" fill-opacity="1" /><path clip-path="url(#clip230)" d="M 0 0 M145.695 282.788 L150.579 282.788 L150.579 288.667 L145.695 288.667 L145.695 282.788 Z" fill="#000000" fill-rule="evenodd" fill-opacity="1" /><path clip-path="url(#clip230)" d="M 0 0 M168.496 258.181 L156.69 276.63 L168.496 276.63 L168.496 258.181 M167.269 254.107 L173.149 254.107 L173.149 276.63 L178.079 276.63 L178.079 280.519 L173.149 280.519 L173.149 288.667 L168.496 288.667 L168.496 280.519 L152.894 280.519 L152.894 276.005 L167.269 254.107 Z" fill="#000000" fill-rule="evenodd" fill-opacity="1" /><path clip-path="url(#clip230)" d="M 0 0 M183.195 254.107 L201.551 254.107 L201.551 258.042 L187.477 258.042 L187.477 266.515 Q188.496 266.167 189.514 266.005 Q190.533 265.82 191.551 265.82 Q197.338 265.82 200.718 268.991 Q204.098 272.163 204.098 277.579 Q204.098 283.158 200.625 286.26 Q197.153 289.338 190.834 289.338 Q188.658 289.338 186.389 288.968 Q184.144 288.598 181.737 287.857 L181.737 283.158 Q183.82 284.292 186.042 284.848 Q188.264 285.403 190.741 285.403 Q194.746 285.403 197.084 283.297 Q199.422 281.19 199.422 277.579 Q199.422 273.968 197.084 271.862 Q194.746 269.755 190.741 269.755 Q188.866 269.755 186.991 270.172 Q185.139 270.589 183.195 271.468 L183.195 254.107 Z" fill="#000000" fill-rule="evenodd" fill-opacity="1" /><path clip-path="url(#clip230)" d="M 0 0 M209.213 254.107 L227.57 254.107 L227.57 258.042 L213.496 258.042 L213.496 266.515 Q214.514 266.167 215.533 266.005 Q216.551 265.82 217.57 265.82 Q223.357 265.82 226.736 268.991 Q230.116 272.163 230.116 277.579 Q230.116 283.158 226.644 286.26 Q223.172 289.338 216.852 289.338 Q214.676 289.338 212.408 288.968 Q210.162 288.598 207.755 287.857 L207.755 283.158 Q209.838 284.292 212.061 284.848 Q214.283 285.403 216.76 285.403 Q220.764 285.403 223.102 283.297 Q225.44 281.19 225.44 277.579 Q225.44 273.968 223.102 271.862 Q220.764 269.755 216.76 269.755 Q214.885 269.755 213.01 270.172 Q211.158 270.589 209.213 271.468 L209.213 254.107 Z" fill="#000000" fill-rule="evenodd" fill-opacity="1" /><path clip-path="url(#clip230)" d="M 0 0 M33.958 742.548 L55.9834 734.75 L28.3562 723.61 L28.3562 717.404 L64.0042 731.822 L77.5631 731.822 L77.5631 737.679 L64.0042 737.679 L37.3955 747.036 Q33.3851 748.437 33.3851 751.46 L33.3851 753.02 L28.3562 753.02 L28.3562 750.792 Q28.3562 744.522 33.958 742.548 Z" fill="#000000" fill-rule="evenodd" fill-opacity="1" /><path clip-path="url(#clip232)" d="M1299.14 754.118 L1292.91 750.518 L1292.91 743.318 L1299.14 739.718 L1305.38 743.318 L1305.38 750.518 Z" fill="#009af9" fill-rule="evenodd" fill-opacity="1" stroke="#000000" stroke-opacity="1" stroke-width="1.6"/>
<polyline clip-path="url(#clip232)" style="stroke:#e26f46; stroke-width:4; stroke-opacity:1; fill:none" points="
  1353.64,746.918 1353.73,745.333 1353.82,743.748 1353.91,742.163 1354,740.578 1354.08,738.993 1354.17,737.408 1354.25,735.823 1354.33,734.238 1354.42,732.653 
  1354.5,731.068 1354.58,729.483 1354.66,727.897 1354.74,726.312 1354.81,724.727 1354.89,723.142 1354.97,721.557 1355.04,719.972 1355.12,718.387 1355.19,716.802 
  1355.26,715.217 1355.34,713.632 1355.41,712.047 1355.48,710.461 1355.55,708.876 1355.61,707.291 1355.68,705.706 1355.75,704.121 1355.81,702.536 1355.88,700.951 
  1355.94,699.366 1356.01,697.781 1356.07,696.196 1356.13,694.611 1356.19,693.026 1356.25,691.44 1356.31,689.855 1356.36,688.27 1356.42,686.685 1356.48,685.1 
  1356.53,683.515 1356.59,681.93 1356.64,680.345 1356.69,678.76 1356.74,677.175 1356.79,675.59 1356.84,674.005 1356.89,672.419 1356.94,670.834 1356.99,669.249 
  1357.03,667.664 1357.08,666.079 1357.12,664.494 1357.16,662.909 1357.21,661.324 1357.25,659.739 1357.29,658.154 1357.33,656.569 1357.37,654.984 1357.4,653.398 
  1357.44,651.813 1357.48,650.228 1357.51,648.643 1357.54,647.058 1357.58,645.473 1357.61,643.888 1357.64,642.303 1357.67,640.718 1357.7,639.133 1357.73,637.548 
  1357.75,635.962 1357.78,634.377 1357.81,632.792 1357.83,631.207 1357.85,629.622 1357.88,628.037 1357.9,626.452 1357.92,624.867 1357.94,623.282 1357.95,621.697 
  1357.97,620.112 1357.99,618.527 1358,616.941 1358.02,615.356 1358.03,613.771 1358.04,612.186 1358.05,610.601 1358.06,609.016 1358.07,607.431 1358.08,605.846 
  1358.09,604.261 1358.09,602.676 1358.1,601.091 1358.1,599.506 1358.11,597.92 1358.11,596.335 1358.11,594.75 1358.11,593.165 1358.11,591.58 1358.1,589.995 
  1358.1,588.41 1358.1,586.825 1358.09,585.24 1358.08,583.655 1358.07,582.07 1358.07,580.485 1358.05,578.899 1358.04,577.314 1358.03,575.729 1358.02,574.144 
  1358,572.559 1357.99,570.974 1357.97,569.389 1357.95,567.804 1357.93,566.219 1357.91,564.634 1357.89,563.049 1357.86,561.463 1357.84,559.878 1357.81,558.293 
  1357.78,556.708 1357.76,555.123 1357.73,553.538 1357.69,551.953 1357.66,550.368 1357.63,548.783 1357.59,547.198 1357.56,545.613 1357.52,544.028 1357.48,542.442 
  1357.44,540.857 1357.4,539.272 1357.36,537.687 1357.31,536.102 1357.27,534.517 1357.22,532.932 1357.17,531.347 1357.12,529.762 1357.07,528.177 1357.02,526.592 
  1356.96,525.007 1356.91,523.421 1356.85,521.836 1356.79,520.251 1356.73,518.666 1356.67,517.081 1356.61,515.496 1356.54,513.911 1356.47,512.326 1356.41,510.741 
  1356.34,509.156 1356.27,507.571 1356.19,505.986 1356.12,504.4 1356.04,502.815 1355.96,501.23 1355.88,499.645 1355.8,498.06 1355.72,496.475 1355.63,494.89 
  1355.55,493.305 1355.46,491.72 1355.37,490.135 1355.28,488.55 1355.18,486.964 1355.09,485.379 1354.99,483.794 1354.89,482.209 1354.78,480.624 1354.68,479.039 
  1354.57,477.454 1354.46,475.869 1354.35,474.284 1354.24,472.699 1354.13,471.114 1354.01,469.529 1353.89,467.943 1353.77,466.358 1353.64,464.773 1353.52,463.188 
  1353.39,461.603 1353.25,460.018 1353.12,458.433 1352.98,456.848 1352.84,455.263 1352.7,453.678 1352.56,452.093 1352.41,450.508 1352.26,448.922 1352.11,447.337 
  1351.95,445.752 1351.79,444.167 1351.63,442.582 1351.46,440.997 1351.29,439.412 1351.12,437.827 1350.95,436.242 1350.77,434.657 1350.59,433.072 1350.4,431.487 
  1350.21,429.901 1350.02,428.316 1349.82,426.731 1349.62,425.146 1349.42,423.561 1349.21,421.976 1349,420.391 1348.78,418.806 1348.56,417.221 1348.34,415.636 
  1348.11,414.051 1347.87,412.466 1347.63,410.88 1347.39,409.295 1347.13,407.71 1346.88,406.125 1346.61,404.54 1346.34,402.955 1346.07,401.37 1345.78,399.785 
  1345.49,398.2 1345.19,396.615 1344.89,395.03 1344.58,393.445 1344.25,391.86 1343.92,390.274 1343.58,388.689 1343.23,387.104 1342.88,385.519 1342.51,383.934 
  1342.13,382.349 1341.73,380.764 1341.33,379.179 1340.91,377.594 1340.47,376.009 1340.02,374.424 1339.55,372.839 1339.06,371.254 1338.56,369.668 1338.02,368.083 
  1337.47,366.498 1336.88,364.913 1336.26,363.328 1335.61,361.743 1334.9,360.158 1334.12,358.573 1333.29,356.988 1332.42,355.403 1331.48,353.818 1330.41,352.233 
  1329.08,350.648 1327.37,349.063 1324.78,347.478 1318.01,347.809 1315.57,349.393 1313.81,350.978 1312.36,352.563 1311.1,354.148 1309.95,355.733 1308.9,357.318 
  1307.93,358.903 1307.01,360.488 1306.14,362.073 1305.32,363.658 1304.53,365.243 1303.77,366.828 1303.04,368.413 1302.34,369.998 1301.65,371.583 1300.99,373.168 
  1300.35,374.754 1299.72,376.339 1299.11,377.924 1298.52,379.509 1297.94,381.094 1297.37,382.679 1296.81,384.264 1296.27,385.849 1295.73,387.434 1295.21,389.019 
  1294.69,390.604 1294.19,392.189 1293.69,393.774 1293.2,395.359 1292.72,396.944 1292.25,398.53 1291.78,400.115 1291.32,401.7 1290.87,403.285 1290.42,404.87 
  1289.98,406.455 1289.54,408.04 1289.11,409.625 1288.69,411.21 1288.27,412.795 1287.86,414.38 1287.45,415.965 1287.04,417.55 1286.65,419.135 1286.25,420.721 
  1285.86,422.306 1285.47,423.891 1285.09,425.476 1284.72,427.061 1284.34,428.646 1283.97,430.231 1283.6,431.816 1283.24,433.401 1282.88,434.986 1282.53,436.571 
  1282.17,438.156 1281.83,439.741 1281.48,441.327 1281.14,442.912 1280.8,444.497 1280.46,446.082 1280.13,447.667 1279.8,449.252 1279.47,450.837 1279.14,452.422 
  1278.82,454.007 1278.5,455.592 1278.19,457.177 1277.87,458.762 1277.56,460.347 1277.25,461.933 1276.94,463.518 1276.64,465.103 1276.34,466.688 1276.04,468.273 
  1275.74,469.858 1275.44,471.443 1275.15,473.028 1274.86,474.613 1274.57,476.198 1274.29,477.783 1274,479.368 1273.72,480.954 1273.44,482.539 1273.16,484.124 
  1272.88,485.709 1272.61,487.294 1272.34,488.879 1272.07,490.464 1271.8,492.049 1271.53,493.634 1271.27,495.219 1271,496.804 1270.74,498.389 1270.48,499.974 
  1270.23,501.56 1269.97,503.145 1269.72,504.73 1269.46,506.315 1269.21,507.9 1268.96,509.485 1268.71,511.07 1268.47,512.655 1268.22,514.24 1267.98,515.825 
  1267.74,517.41 1267.5,518.995 1267.26,520.581 1267.03,522.166 1266.79,523.751 1266.56,525.336 1266.32,526.921 1266.09,528.506 1265.86,530.091 1265.64,531.676 
  1265.41,533.261 1265.18,534.846 1264.96,536.431 1264.74,538.016 1264.52,539.602 1264.3,541.187 1264.08,542.772 1263.86,544.357 1263.65,545.942 1263.43,547.527 
  1263.22,549.112 1263.01,550.697 1262.8,552.282 1262.59,553.867 1262.38,555.452 1262.18,557.037 1261.97,558.623 1261.77,560.208 1261.56,561.793 1261.36,563.378 
  1261.16,564.963 1260.96,566.548 1260.76,568.133 1260.57,569.718 1260.37,571.303 1260.18,572.888 1259.98,574.473 1259.79,576.058 1259.6,577.644 1259.41,579.229 
  1259.22,580.814 1259.04,582.399 1258.85,583.984 1258.66,585.569 1258.48,587.154 1258.3,588.739 1258.12,590.324 1257.93,591.909 1257.76,593.494 1257.58,595.079 
  1257.4,596.665 1257.22,598.25 1257.05,599.835 1256.87,601.42 1256.7,603.005 1256.53,604.59 1256.36,606.175 1256.19,607.76 1256.02,609.345 1255.85,610.93 
  1255.68,612.515 1255.52,614.1 1255.35,615.686 1255.19,617.271 1255.02,618.856 1254.86,620.441 1254.7,622.026 1254.54,623.611 1254.38,625.196 1254.23,626.781 
  1254.07,628.366 1253.91,629.951 1253.76,631.536 1253.6,633.121 1253.45,634.707 1253.3,636.292 1253.15,637.877 1253,639.462 1252.85,641.047 1252.7,642.632 
  1252.55,644.217 1252.41,645.802 1252.26,647.387 1252.12,648.972 1251.97,650.557 1251.83,652.142 1251.69,653.728 1251.55,655.313 1251.41,656.898 1251.27,658.483 
  1251.13,660.068 1251,661.653 1250.86,663.238 1250.73,664.823 1250.59,666.408 1250.46,667.993 1250.33,669.578 1250.19,671.163 1250.06,672.749 1249.94,674.334 
  1249.81,675.919 1249.68,677.504 1249.55,679.089 1249.43,680.674 1249.3,682.259 1249.18,683.844 1249.05,685.429 1248.93,687.014 1248.81,688.599 1248.69,690.184 
  1248.57,691.77 1248.45,693.355 1248.33,694.94 1248.22,696.525 1248.1,698.11 1247.99,699.695 1247.87,701.28 1247.76,702.865 1247.64,704.45 1247.53,706.035 
  1247.42,707.62 1247.31,709.205 1247.2,710.791 1247.1,712.376 1246.99,713.961 1246.88,715.546 1246.78,717.131 1246.67,718.716 1246.57,720.301 1246.46,721.886 
  1246.36,723.471 1246.26,725.056 1246.16,726.641 1246.06,728.226 1245.96,729.812 1245.87,731.397 1245.77,732.982 1245.67,734.567 1245.58,736.152 1245.48,737.737 
  1245.39,739.322 1245.3,740.907 1245.21,742.492 1245.12,744.077 1245.03,745.662 1244.94,747.247 1244.85,748.833 1244.76,750.418 1244.68,752.003 1244.59,753.588 
  1244.51,755.173 1244.42,756.758 1244.34,758.343 1244.26,759.928 1244.18,761.513 1244.1,763.098 1244.02,764.683 1243.94,766.269 1243.86,767.854 1243.78,769.439 
  1243.71,771.024 1243.63,772.609 1243.56,774.194 1243.49,775.779 1243.41,777.364 1243.34,778.949 1243.27,780.534 1243.2,782.119 1243.13,783.704 1243.06,785.29 
  1243,786.875 1242.93,788.46 1242.87,790.045 1242.8,791.63 1242.74,793.215 1242.68,794.8 1242.61,796.385 1242.55,797.97 1242.49,799.555 1242.43,801.14 
  1242.38,802.725 1242.32,804.311 1242.26,805.896 1242.21,807.481 1242.15,809.066 1242.1,810.651 1242.05,812.236 1242,813.821 1241.95,815.406 1241.9,816.991 
  1241.85,818.576 1241.8,820.161 1241.75,821.746 1241.71,823.332 1241.66,824.917 1241.62,826.502 1241.57,828.087 1241.53,829.672 1241.49,831.257 1241.45,832.842 
  1241.41,834.427 1241.37,836.012 1241.33,837.597 1241.3,839.182 1241.26,840.767 1241.23,842.353 1241.19,843.938 1241.16,845.523 1241.13,847.108 1241.1,848.693 
  1241.07,850.278 1241.04,851.863 1241.01,853.448 1240.98,855.033 1240.96,856.618 1240.93,858.203 1240.91,859.789 1240.89,861.374 1240.86,862.959 1240.84,864.544 
  1240.82,866.129 1240.8,867.714 1240.79,869.299 1240.77,870.884 1240.75,872.469 1240.74,874.054 1240.73,875.639 1240.71,877.224 1240.7,878.81 1240.69,880.395 
  1240.68,881.98 1240.67,883.565 1240.67,885.15 1240.66,886.735 1240.65,888.32 1240.65,889.905 1240.65,891.49 1240.64,893.075 1240.64,894.66 1240.64,896.245 
  1240.65,897.831 1240.65,899.416 1240.65,901.001 1240.66,902.586 1240.66,904.171 1240.67,905.756 1240.68,907.341 1240.69,908.926 1240.7,910.511 1240.71,912.096 
  1240.72,913.681 1240.74,915.266 1240.75,916.852 1240.77,918.437 1240.79,920.022 1240.81,921.607 1240.83,923.192 1240.85,924.777 1240.87,926.362 1240.89,927.947 
  1240.92,929.532 1240.95,931.117 1240.98,932.702 1241,934.288 1241.04,935.873 1241.07,937.458 1241.1,939.043 1241.14,940.628 1241.17,942.213 1241.21,943.798 
  1241.25,945.383 1241.29,946.968 1241.33,948.553 1241.37,950.138 1241.42,951.723 1241.46,953.309 1241.51,954.894 1241.56,956.479 1241.61,958.064 1241.66,959.649 
  1241.71,961.234 1241.77,962.819 1241.83,964.404 1241.88,965.989 1241.94,967.574 1242,969.159 1242.07,970.744 1242.13,972.33 1242.2,973.915 1242.27,975.5 
  1242.34,977.085 1242.41,978.67 1242.48,980.255 1242.56,981.84 1242.63,983.425 1242.71,985.01 1242.79,986.595 1242.88,988.18 1242.96,989.765 1243.05,991.351 
  1243.13,992.936 1243.22,994.521 1243.31,996.106 1243.41,997.691 1243.5,999.276 1243.6,1000.86 1243.7,1002.45 1243.8,1004.03 1243.9,1005.62 1244.01,1007.2 
  1244.11,1008.79 1244.22,1010.37 1244.33,1011.96 1244.44,1013.54 1244.56,1015.13 1244.68,1016.71 1244.79,1018.3 1244.92,1019.88 1245.04,1021.47 1245.17,1023.05 
  1245.29,1024.64 1245.42,1026.22 1245.56,1027.81 1245.69,1029.39 1245.83,1030.98 1245.97,1032.56 1246.12,1034.15 1246.27,1035.73 1246.42,1037.32 1246.57,1038.9 
  1246.73,1040.49 1246.89,1042.07 1247.05,1043.66 1247.21,1045.24 1247.38,1046.83 1247.56,1048.41 1247.73,1050 1247.91,1051.58 1248.1,1053.17 1248.28,1054.75 
  1248.48,1056.34 1248.67,1057.92 1248.87,1059.51 1249.08,1061.09 1249.29,1062.68 1249.5,1064.26 1249.72,1065.85 1249.94,1067.43 1250.17,1069.02 1250.4,1070.6 
  1250.64,1072.19 1250.88,1073.77 1251.13,1075.36 1251.38,1076.95 1251.64,1078.53 1251.91,1080.12 1252.18,1081.7 1252.46,1083.29 1252.74,1084.87 1253.03,1086.46 
  1253.33,1088.04 1253.63,1089.63 1253.95,1091.21 1254.27,1092.8 1254.6,1094.38 1254.94,1095.97 1255.28,1097.55 1255.64,1099.14 1256.01,1100.72 1256.39,1102.31 
  1256.78,1103.89 1257.19,1105.48 1257.61,1107.06 1258.04,1108.65 1258.49,1110.23 1258.96,1111.82 1259.44,1113.4 1259.95,1114.99 1260.48,1116.57 1261.03,1118.16 
  1261.61,1119.74 1262.23,1121.33 1262.88,1122.91 1263.56,1124.5 1264.29,1126.08 1265.07,1127.67 1265.93,1129.25 1266.88,1130.84 1267.96,1132.42 1269.19,1134.01 
  1270.68,1135.59 1272.7,1137.18 1278.83,1138.43 1282.49,1136.85 1284.53,1135.26 1286.14,1133.68 1287.5,1132.09 1288.72,1130.51 1289.83,1128.92 1290.86,1127.34 
  1291.81,1125.75 1292.72,1124.17 1293.57,1122.58 1294.39,1121 1295.17,1119.41 1295.93,1117.83 1296.65,1116.24 1297.35,1114.66 1298.03,1113.07 1298.69,1111.49 
  1299.34,1109.9 1299.96,1108.32 1300.57,1106.73 1301.16,1105.15 1301.74,1103.56 1302.31,1101.98 1302.87,1100.39 1303.41,1098.81 1303.95,1097.22 1304.47,1095.64 
  1304.99,1094.05 1305.5,1092.47 1305.99,1090.88 1306.48,1089.3 1306.96,1087.71 1307.44,1086.13 1307.9,1084.54 1308.36,1082.96 1308.82,1081.37 1309.27,1079.79 
  1309.71,1078.2 1310.14,1076.62 1310.57,1075.03 1311,1073.45 1311.41,1071.86 1311.83,1070.28 1312.24,1068.69 1312.64,1067.11 1313.04,1065.52 1313.43,1063.93 
  1313.82,1062.35 1314.21,1060.76 1314.59,1059.18 1314.97,1057.59 1315.34,1056.01 1315.71,1054.42 1316.08,1052.84 1316.44,1051.25 1316.8,1049.67 1317.16,1048.08 
  1317.51,1046.5 1317.86,1044.91 1318.2,1043.33 1318.54,1041.74 1318.88,1040.16 1319.22,1038.57 1319.55,1036.99 1319.88,1035.4 1320.21,1033.82 1320.53,1032.23 
  1320.85,1030.65 1321.17,1029.06 1321.49,1027.48 1321.8,1025.89 1322.11,1024.31 1322.42,1022.72 1322.73,1021.14 1323.03,1019.55 1323.33,1017.97 1323.63,1016.38 
  1323.92,1014.8 1324.22,1013.21 1324.51,1011.63 1324.8,1010.04 1325.09,1008.46 1325.37,1006.87 1325.65,1005.29 1325.94,1003.7 1326.21,1002.12 1326.49,1000.53 
  1326.76,998.947 1327.04,997.362 1327.31,995.776 1327.58,994.191 1327.84,992.606 1328.11,991.021 1328.37,989.436 1328.63,987.851 1328.89,986.266 1329.15,984.681 
  1329.41,983.096 1329.66,981.511 1329.91,979.926 1330.16,978.341 1330.41,976.756 1330.66,975.17 1330.9,973.585 1331.15,972 1331.39,970.415 1331.63,968.83 
  1331.87,967.245 1332.11,965.66 1332.34,964.075 1332.58,962.49 1332.81,960.905 1333.04,959.32 1333.27,957.735 1333.5,956.149 1333.73,954.564 1333.95,952.979 
  1334.18,951.394 1334.4,949.809 1334.62,948.224 1334.84,946.639 1335.06,945.054 1335.28,943.469 1335.49,941.884 1335.71,940.299 1335.92,938.714 1336.13,937.128 
  1336.34,935.543 1336.55,933.958 1336.76,932.373 1336.96,930.788 1337.17,929.203 1337.37,927.618 1337.57,926.033 1337.77,924.448 1337.97,922.863 1338.17,921.278 
  1338.37,919.693 1338.57,918.107 1338.76,916.522 1338.96,914.937 1339.15,913.352 1339.34,911.767 1339.53,910.182 1339.72,908.597 1339.91,907.012 1340.09,905.427 
  1340.28,903.842 1340.46,902.257 1340.65,900.672 1340.83,899.086 1341.01,897.501 1341.19,895.916 1341.37,894.331 1341.54,892.746 1341.72,891.161 1341.9,889.576 
  1342.07,887.991 1342.24,886.406 1342.41,884.821 1342.59,883.236 1342.76,881.651 1342.92,880.065 1343.09,878.48 1343.26,876.895 1343.42,875.31 1343.59,873.725 
  1343.75,872.14 1343.92,870.555 1344.08,868.97 1344.24,867.385 1344.4,865.8 1344.55,864.215 1344.71,862.63 1344.87,861.044 1345.02,859.459 1345.18,857.874 
  1345.33,856.289 1345.48,854.704 1345.63,853.119 1345.79,851.534 1345.93,849.949 1346.08,848.364 1346.23,846.779 1346.38,845.194 1346.52,843.609 1346.67,842.023 
  1346.81,840.438 1346.95,838.853 1347.09,837.268 1347.23,835.683 1347.37,834.098 1347.51,832.513 1347.65,830.928 1347.79,829.343 1347.92,827.758 1348.06,826.173 
  1348.19,824.588 1348.33,823.002 1348.46,821.417 1348.59,819.832 1348.72,818.247 1348.85,816.662 1348.98,815.077 1349.1,813.492 1349.23,811.907 1349.36,810.322 
  1349.48,808.737 1349.6,807.152 1349.73,805.567 1349.85,803.981 1349.97,802.396 1350.09,800.811 1350.21,799.226 1350.33,797.641 1350.45,796.056 1350.56,794.471 
  1350.68,792.886 1350.79,791.301 1350.91,789.716 1351.02,788.131 1351.13,786.546 1351.24,784.96 1351.35,783.375 1351.46,781.79 1351.57,780.205 1351.68,778.62 
  1351.79,777.035 1351.89,775.45 1352,773.865 1352.1,772.28 1352.2,770.695 1352.31,769.11 1352.41,767.525 1352.51,765.939 1352.61,764.354 1352.71,762.769 
  1352.81,761.184 1352.9,759.599 1353,758.014 1353.09,756.429 1353.19,754.844 1353.28,753.259 1353.38,751.674 1353.47,750.089 1353.56,748.504 1353.65,746.918 
  
  "/>
<polyline clip-path="url(#clip232)" style="stroke:#3da44d; stroke-width:4; stroke-opacity:1; fill:none" points="
  1388.73,746.918 1388.88,744.317 1389.03,741.716 1389.17,739.114 1389.31,736.513 1389.45,733.912 1389.59,731.31 1389.73,728.709 1389.87,726.108 1390,723.507 
  1390.14,720.905 1390.27,718.304 1390.4,715.703 1390.53,713.101 1390.66,710.5 1390.79,707.899 1390.91,705.297 1391.04,702.696 1391.16,700.095 1391.28,697.493 
  1391.4,694.892 1391.52,692.291 1391.64,689.689 1391.75,687.088 1391.87,684.487 1391.98,681.885 1392.09,679.284 1392.2,676.683 1392.31,674.081 1392.42,671.48 
  1392.52,668.879 1392.63,666.277 1392.73,663.676 1392.83,661.075 1392.93,658.473 1393.03,655.872 1393.12,653.271 1393.22,650.669 1393.31,648.068 1393.4,645.467 
  1393.5,642.866 1393.58,640.264 1393.67,637.663 1393.76,635.062 1393.84,632.46 1393.93,629.859 1394.01,627.258 1394.09,624.656 1394.17,622.055 1394.25,619.454 
  1394.32,616.852 1394.4,614.251 1394.47,611.65 1394.54,609.048 1394.61,606.447 1394.68,603.846 1394.75,601.244 1394.81,598.643 1394.88,596.042 1394.94,593.44 
  1395,590.839 1395.06,588.238 1395.12,585.636 1395.18,583.035 1395.23,580.434 1395.28,577.832 1395.34,575.231 1395.39,572.63 1395.43,570.028 1395.48,567.427 
  1395.53,564.826 1395.57,562.224 1395.61,559.623 1395.65,557.022 1395.69,554.421 1395.73,551.819 1395.77,549.218 1395.8,546.617 1395.83,544.015 1395.87,541.414 
  1395.89,538.813 1395.92,536.211 1395.95,533.61 1395.97,531.009 1396,528.407 1396.02,525.806 1396.04,523.205 1396.06,520.603 1396.07,518.002 1396.09,515.401 
  1396.1,512.799 1396.11,510.198 1396.12,507.597 1396.13,504.995 1396.13,502.394 1396.14,499.793 1396.14,497.191 1396.14,494.59 1396.14,491.989 1396.14,489.387 
  1396.13,486.786 1396.13,484.185 1396.12,481.583 1396.11,478.982 1396.1,476.381 1396.08,473.779 1396.07,471.178 1396.05,468.577 1396.03,465.976 1396.01,463.374 
  1395.99,460.773 1395.96,458.172 1395.94,455.57 1395.91,452.969 1395.88,450.368 1395.84,447.766 1395.81,445.165 1395.77,442.564 1395.73,439.962 1395.69,437.361 
  1395.65,434.76 1395.61,432.158 1395.56,429.557 1395.51,426.956 1395.46,424.354 1395.41,421.753 1395.36,419.152 1395.3,416.55 1395.24,413.949 1395.18,411.348 
  1395.12,408.746 1395.05,406.145 1394.98,403.544 1394.91,400.942 1394.84,398.341 1394.77,395.74 1394.69,393.138 1394.61,390.537 1394.53,387.936 1394.45,385.334 
  1394.36,382.733 1394.27,380.132 1394.18,377.531 1394.09,374.929 1393.99,372.328 1393.9,369.727 1393.79,367.125 1393.69,364.524 1393.59,361.923 1393.48,359.321 
  1393.37,356.72 1393.25,354.119 1393.14,351.517 1393.02,348.916 1392.9,346.315 1392.77,343.713 1392.65,341.112 1392.52,338.511 1392.39,335.909 1392.25,333.308 
  1392.11,330.707 1391.97,328.105 1391.82,325.504 1391.68,322.903 1391.53,320.301 1391.37,317.7 1391.21,315.099 1391.05,312.497 1390.89,309.896 1390.72,307.295 
  1390.55,304.693 1390.38,302.092 1390.21,299.491 1390.03,296.89 1389.84,294.288 1389.66,291.687 1389.47,289.086 1389.27,286.484 1389.08,283.883 1388.88,281.282 
  1388.67,278.68 1388.46,276.079 1388.25,273.478 1388.03,270.876 1387.81,268.275 1387.59,265.674 1387.36,263.072 1387.13,260.471 1386.89,257.87 1386.65,255.268 
  1386.4,252.667 1386.15,250.066 1385.9,247.464 1385.64,244.863 1385.37,242.262 1385.1,239.66 1384.82,237.059 1384.54,234.458 1384.25,231.856 1383.96,229.255 
  1383.66,226.654 1383.35,224.053 1383.04,221.451 1382.73,218.85 1382.4,216.249 1382.07,213.647 1381.73,211.046 1381.39,208.445 1381.04,205.843 1380.68,203.242 
  1380.31,200.641 1379.94,198.039 1379.56,195.438 1379.17,192.837 1378.77,190.235 1378.36,187.634 1377.95,185.033 1377.52,182.431 1377.09,179.83 1376.64,177.229 
  1376.19,174.627 1375.72,172.026 1375.24,169.425 1374.75,166.824 1374.25,164.222 1373.74,161.621 1373.21,159.02 1372.66,156.418 1372.1,153.817 1371.52,151.216 
  1370.93,148.614 1370.32,146.013 1369.69,143.412 1369.04,140.81 1368.38,138.209 1367.69,135.608 1366.98,133.007 1366.24,130.405 1365.47,127.804 1364.67,125.203 
  1363.83,122.601 1362.95,120 1362.03,117.399 1361.05,114.797 1360.01,112.196 1358.91,109.595 1357.75,106.994 1356.49,104.392 1355.13,101.791 1353.64,99.1899 
  1351.96,96.5887 1350.04,93.9875 1347.74,91.3864 1344.73,88.7854 1338.85,86.1857 1329.04,88.3975 1325.56,90.9983 1322.89,93.5994 1320.63,96.2005 1318.63,98.8016 
  1316.82,101.403 1315.15,104.004 1313.59,106.605 1312.12,109.207 1310.72,111.808 1309.39,114.409 1308.12,117.01 1306.9,119.612 1305.72,122.213 1304.58,124.814 
  1303.47,127.415 1302.4,130.017 1301.36,132.618 1300.35,135.219 1299.36,137.82 1298.39,140.422 1297.45,143.023 1296.52,145.624 1295.62,148.226 1294.73,150.827 
  1293.86,153.428 1293.01,156.03 1292.17,158.631 1291.35,161.232 1290.54,163.833 1289.74,166.435 1288.96,169.036 1288.19,171.637 1287.43,174.239 1286.68,176.84 
  1285.94,179.441 1285.21,182.043 1284.49,184.644 1283.78,187.245 1283.08,189.846 1282.39,192.448 1281.71,195.049 1281.04,197.65 1280.37,200.252 1279.71,202.853 
  1279.06,205.454 1278.42,208.056 1277.78,210.657 1277.15,213.258 1276.52,215.859 1275.91,218.461 1275.3,221.062 1274.69,223.663 1274.09,226.265 1273.5,228.866 
  1272.91,231.467 1272.33,234.069 1271.76,236.67 1271.19,239.271 1270.62,241.873 1270.06,244.474 1269.51,247.075 1268.96,249.677 1268.41,252.278 1267.87,254.879 
  1267.33,257.48 1266.8,260.082 1266.28,262.683 1265.75,265.284 1265.23,267.886 1264.72,270.487 1264.21,273.088 1263.7,275.69 1263.2,278.291 1262.7,280.892 
  1262.21,283.494 1261.72,286.095 1261.23,288.696 1260.75,291.298 1260.27,293.899 1259.79,296.5 1259.32,299.101 1258.85,301.703 1258.39,304.304 1257.92,306.905 
  1257.46,309.507 1257.01,312.108 1256.56,314.709 1256.11,317.311 1255.66,319.912 1255.22,322.513 1254.78,325.115 1254.34,327.716 1253.91,330.317 1253.47,332.919 
  1253.05,335.52 1252.62,338.121 1252.2,340.723 1251.78,343.324 1251.36,345.925 1250.95,348.526 1250.54,351.128 1250.13,353.729 1249.72,356.33 1249.32,358.932 
  1248.92,361.533 1248.52,364.134 1248.12,366.736 1247.73,369.337 1247.34,371.938 1246.95,374.54 1246.56,377.141 1246.18,379.742 1245.8,382.344 1245.42,384.945 
  1245.04,387.546 1244.67,390.148 1244.3,392.749 1243.93,395.35 1243.56,397.952 1243.2,400.553 1242.83,403.154 1242.47,405.755 1242.11,408.357 1241.76,410.958 
  1241.4,413.559 1241.05,416.161 1240.7,418.762 1240.35,421.363 1240.01,423.965 1239.67,426.566 1239.32,429.167 1238.98,431.769 1238.65,434.37 1238.31,436.971 
  1237.98,439.573 1237.65,442.174 1237.32,444.775 1236.99,447.377 1236.67,449.978 1236.34,452.579 1236.02,455.181 1235.7,457.782 1235.38,460.383 1235.07,462.984 
  1234.75,465.586 1234.44,468.187 1234.13,470.788 1233.82,473.39 1233.52,475.991 1233.21,478.592 1232.91,481.194 1232.61,483.795 1232.31,486.396 1232.01,488.998 
  1231.72,491.599 1231.42,494.2 1231.13,496.802 1230.84,499.403 1230.55,502.004 1230.26,504.606 1229.98,507.207 1229.7,509.808 1229.41,512.41 1229.13,515.011 
  1228.86,517.612 1228.58,520.214 1228.3,522.815 1228.03,525.416 1227.76,528.017 1227.49,530.619 1227.22,533.22 1226.96,535.821 1226.69,538.423 1226.43,541.024 
  1226.16,543.625 1225.9,546.227 1225.65,548.828 1225.39,551.429 1225.13,554.031 1224.88,556.632 1224.63,559.233 1224.38,561.835 1224.13,564.436 1223.88,567.037 
  1223.64,569.639 1223.39,572.24 1223.15,574.841 1222.91,577.443 1222.67,580.044 1222.43,582.645 1222.19,585.247 1221.96,587.848 1221.73,590.449 1221.49,593.051 
  1221.26,595.652 1221.03,598.253 1220.81,600.854 1220.58,603.456 1220.36,606.057 1220.13,608.658 1219.91,611.26 1219.69,613.861 1219.47,616.462 1219.26,619.064 
  1219.04,621.665 1218.83,624.266 1218.62,626.868 1218.41,629.469 1218.2,632.07 1217.99,634.672 1217.78,637.273 1217.58,639.874 1217.37,642.476 1217.17,645.077 
  1216.97,647.678 1216.77,650.28 1216.57,652.881 1216.38,655.482 1216.18,658.084 1215.99,660.685 1215.8,663.286 1215.61,665.888 1215.42,668.489 1215.23,671.09 
  1215.04,673.691 1214.86,676.293 1214.68,678.894 1214.5,681.495 1214.31,684.097 1214.14,686.698 1213.96,689.299 1213.78,691.901 1213.61,694.502 1213.43,697.103 
  1213.26,699.705 1213.09,702.306 1212.92,704.907 1212.76,707.509 1212.59,710.11 1212.43,712.711 1212.26,715.313 1212.1,717.914 1211.94,720.515 1211.78,723.117 
  1211.63,725.718 1211.47,728.319 1211.31,730.921 1211.16,733.522 1211.01,736.123 1210.86,738.725 1210.71,741.326 1210.56,743.927 1210.42,746.529 1210.27,749.13 
  1210.13,751.731 1209.99,754.332 1209.85,756.934 1209.71,759.535 1209.57,762.136 1209.44,764.738 1209.3,767.339 1209.17,769.94 1209.04,772.542 1208.91,775.143 
  1208.78,777.744 1208.65,780.346 1208.52,782.947 1208.4,785.548 1208.28,788.15 1208.16,790.751 1208.04,793.352 1207.92,795.954 1207.8,798.555 1207.68,801.156 
  1207.57,803.758 1207.46,806.359 1207.35,808.96 1207.24,811.562 1207.13,814.163 1207.02,816.764 1206.91,819.366 1206.81,821.967 1206.71,824.568 1206.61,827.17 
  1206.51,829.771 1206.41,832.372 1206.31,834.974 1206.22,837.575 1206.12,840.176 1206.03,842.777 1205.94,845.379 1205.85,847.98 1205.76,850.581 1205.68,853.183 
  1205.59,855.784 1205.51,858.385 1205.43,860.987 1205.35,863.588 1205.27,866.189 1205.19,868.791 1205.12,871.392 1205.04,873.993 1204.97,876.595 1204.9,879.196 
  1204.83,881.797 1204.76,884.399 1204.7,887 1204.63,889.601 1204.57,892.203 1204.51,894.804 1204.45,897.405 1204.39,900.007 1204.33,902.608 1204.28,905.209 
  1204.23,907.811 1204.17,910.412 1204.12,913.013 1204.07,915.615 1204.03,918.216 1203.98,920.817 1203.94,923.418 1203.9,926.02 1203.86,928.621 1203.82,931.222 
  1203.78,933.824 1203.74,936.425 1203.71,939.026 1203.68,941.628 1203.65,944.229 1203.62,946.83 1203.59,949.432 1203.57,952.033 1203.54,954.634 1203.52,957.236 
  1203.5,959.837 1203.48,962.438 1203.47,965.04 1203.45,967.641 1203.44,970.242 1203.43,972.844 1203.42,975.445 1203.41,978.046 1203.41,980.648 1203.4,983.249 
  1203.4,985.85 1203.4,988.452 1203.4,991.053 1203.41,993.654 1203.41,996.256 1203.42,998.857 1203.43,1001.46 1203.44,1004.06 1203.45,1006.66 1203.47,1009.26 
  1203.49,1011.86 1203.5,1014.46 1203.53,1017.07 1203.55,1019.67 1203.57,1022.27 1203.6,1024.87 1203.63,1027.47 1203.66,1030.07 1203.69,1032.67 1203.73,1035.28 
  1203.76,1037.88 1203.8,1040.48 1203.84,1043.08 1203.89,1045.68 1203.93,1048.28 1203.98,1050.88 1204.03,1053.48 1204.08,1056.09 1204.13,1058.69 1204.19,1061.29 
  1204.25,1063.89 1204.31,1066.49 1204.37,1069.09 1204.44,1071.69 1204.5,1074.3 1204.57,1076.9 1204.65,1079.5 1204.72,1082.1 1204.8,1084.7 1204.88,1087.3 
  1204.96,1089.9 1205.04,1092.5 1205.13,1095.11 1205.22,1097.71 1205.31,1100.31 1205.41,1102.91 1205.5,1105.51 1205.6,1108.11 1205.7,1110.71 1205.81,1113.32 
  1205.92,1115.92 1206.03,1118.52 1206.14,1121.12 1206.26,1123.72 1206.38,1126.32 1206.5,1128.92 1206.62,1131.52 1206.75,1134.13 1206.88,1136.73 1207.02,1139.33 
  1207.15,1141.93 1207.29,1144.53 1207.44,1147.13 1207.58,1149.73 1207.73,1152.33 1207.89,1154.94 1208.04,1157.54 1208.2,1160.14 1208.36,1162.74 1208.53,1165.34 
  1208.7,1167.94 1208.87,1170.54 1209.05,1173.15 1209.23,1175.75 1209.41,1178.35 1209.6,1180.95 1209.79,1183.55 1209.99,1186.15 1210.19,1188.75 1210.4,1191.35 
  1210.61,1193.96 1210.83,1196.56 1211.06,1199.16 1211.29,1201.76 1211.52,1204.36 1211.76,1206.96 1212.01,1209.56 1212.25,1212.17 1212.5,1214.77 1212.76,1217.37 
  1213.02,1219.97 1213.28,1222.57 1213.55,1225.17 1213.82,1227.77 1214.09,1230.37 1214.37,1232.98 1214.65,1235.58 1214.94,1238.18 1215.23,1240.78 1215.53,1243.38 
  1215.82,1245.98 1216.13,1248.58 1216.44,1251.19 1216.75,1253.79 1217.07,1256.39 1217.4,1258.99 1217.73,1261.59 1218.06,1264.19 1218.41,1266.79 1218.76,1269.39 
  1219.12,1272 1219.48,1274.6 1219.86,1277.2 1220.24,1279.8 1220.63,1282.4 1221.03,1285 1221.45,1287.6 1221.87,1290.2 1222.3,1292.81 1222.75,1295.41 
  1223.21,1298.01 1223.68,1300.61 1224.17,1303.21 1224.67,1305.81 1225.18,1308.41 1225.72,1311.02 1226.27,1313.62 1226.83,1316.22 1227.42,1318.82 1228.02,1321.42 
  1228.65,1324.02 1229.3,1326.62 1229.96,1329.22 1230.65,1331.83 1231.37,1334.43 1232.11,1337.03 1232.88,1339.63 1233.67,1342.23 1234.49,1344.83 1235.34,1347.43 
  1236.22,1350.04 1237.15,1352.64 1238.12,1355.24 1239.15,1357.84 1240.24,1360.44 1241.42,1363.04 1242.66,1365.64 1243.99,1368.24 1245.43,1370.85 1247.03,1373.45 
  1248.87,1376.05 1251.04,1378.65 1253.72,1381.25 1257.57,1383.85 1268.93,1384.24 1273.45,1381.64 1276.52,1379.04 1279.02,1376.44 1281.19,1373.83 1283.13,1371.23 
  1284.91,1368.63 1286.56,1366.03 1288.11,1363.43 1289.57,1360.83 1290.96,1358.23 1292.29,1355.63 1293.57,1353.02 1294.79,1350.42 1295.97,1347.82 1297.12,1345.22 
  1298.23,1342.62 1299.3,1340.02 1300.35,1337.42 1301.37,1334.82 1302.37,1332.21 1303.34,1329.61 1304.29,1327.01 1305.22,1324.41 1306.13,1321.81 1307.02,1319.21 
  1307.89,1316.61 1308.75,1314.01 1309.6,1311.4 1310.42,1308.8 1311.24,1306.2 1312.04,1303.6 1312.83,1301 1313.6,1298.4 1314.37,1295.8 1315.12,1293.2 
  1315.87,1290.59 1316.6,1287.99 1317.32,1285.39 1318.03,1282.79 1318.74,1280.19 1319.43,1277.59 1320.12,1274.99 1320.79,1272.38 1321.46,1269.78 1322.12,1267.18 
  1322.78,1264.58 1323.42,1261.98 1324.06,1259.38 1324.7,1256.78 1325.32,1254.18 1325.94,1251.57 1326.55,1248.97 1327.16,1246.37 1327.76,1243.77 1328.35,1241.17 
  1328.94,1238.57 1329.52,1235.97 1330.1,1233.37 1330.67,1230.76 1331.23,1228.16 1331.79,1225.56 1332.35,1222.96 1332.9,1220.36 1333.44,1217.76 1333.98,1215.16 
  1334.52,1212.55 1335.05,1209.95 1335.57,1207.35 1336.1,1204.75 1336.61,1202.15 1337.13,1199.55 1337.63,1196.95 1338.14,1194.35 1338.64,1191.74 1339.14,1189.14 
  1339.63,1186.54 1340.12,1183.94 1340.6,1181.34 1341.08,1178.74 1341.56,1176.14 1342.03,1173.53 1342.5,1170.93 1342.97,1168.33 1343.43,1165.73 1343.89,1163.13 
  1344.35,1160.53 1344.8,1157.93 1345.25,1155.33 1345.7,1152.72 1346.14,1150.12 1346.58,1147.52 1347.01,1144.92 1347.45,1142.32 1347.88,1139.72 1348.3,1137.12 
  1348.73,1134.52 1349.15,1131.91 1349.57,1129.31 1349.98,1126.71 1350.4,1124.11 1350.81,1121.51 1351.21,1118.91 1351.62,1116.31 1352.02,1113.7 1352.42,1111.1 
  1352.81,1108.5 1353.21,1105.9 1353.6,1103.3 1353.99,1100.7 1354.37,1098.1 1354.75,1095.5 1355.13,1092.89 1355.51,1090.29 1355.89,1087.69 1356.26,1085.09 
  1356.63,1082.49 1357,1079.89 1357.37,1077.29 1357.73,1074.68 1358.09,1072.08 1358.45,1069.48 1358.81,1066.88 1359.16,1064.28 1359.51,1061.68 1359.86,1059.08 
  1360.21,1056.48 1360.55,1053.87 1360.9,1051.27 1361.24,1048.67 1361.58,1046.07 1361.91,1043.47 1362.25,1040.87 1362.58,1038.27 1362.91,1035.67 1363.24,1033.06 
  1363.57,1030.46 1363.89,1027.86 1364.21,1025.26 1364.53,1022.66 1364.85,1020.06 1365.16,1017.46 1365.48,1014.85 1365.79,1012.25 1366.1,1009.65 1366.41,1007.05 
  1366.72,1004.45 1367.02,1001.85 1367.32,999.247 1367.62,996.645 1367.92,994.044 1368.22,991.443 1368.51,988.841 1368.81,986.24 1369.1,983.639 1369.39,981.037 
  1369.67,978.436 1369.96,975.835 1370.24,973.233 1370.52,970.632 1370.8,968.031 1371.08,965.429 1371.36,962.828 1371.63,960.227 1371.91,957.625 1372.18,955.024 
  1372.45,952.423 1372.72,949.822 1372.98,947.22 1373.25,944.619 1373.51,942.018 1373.77,939.416 1374.03,936.815 1374.29,934.214 1374.54,931.612 1374.8,929.011 
  1375.05,926.41 1375.3,923.808 1375.55,921.207 1375.8,918.606 1376.05,916.004 1376.29,913.403 1376.53,910.802 1376.77,908.2 1377.01,905.599 1377.25,902.998 
  1377.49,900.396 1377.72,897.795 1377.96,895.194 1378.19,892.592 1378.42,889.991 1378.65,887.39 1378.87,884.789 1379.1,882.187 1379.32,879.586 1379.55,876.985 
  1379.77,874.383 1379.99,871.782 1380.2,869.181 1380.42,866.579 1380.63,863.978 1380.85,861.377 1381.06,858.775 1381.27,856.174 1381.48,853.573 1381.68,850.971 
  1381.89,848.37 1382.09,845.769 1382.3,843.167 1382.5,840.566 1382.7,837.965 1382.89,835.363 1383.09,832.762 1383.28,830.161 1383.48,827.559 1383.67,824.958 
  1383.86,822.357 1384.05,819.755 1384.24,817.154 1384.42,814.553 1384.61,811.951 1384.79,809.35 1384.97,806.749 1385.15,804.148 1385.33,801.546 1385.51,798.945 
  1385.68,796.344 1385.86,793.742 1386.03,791.141 1386.2,788.54 1386.37,785.938 1386.54,783.337 1386.71,780.736 1386.88,778.134 1387.04,775.533 1387.2,772.932 
  1387.36,770.33 1387.52,767.729 1387.68,765.128 1387.84,762.526 1387.99,759.925 1388.15,757.324 1388.3,754.722 1388.45,752.121 1388.6,749.52 1388.75,746.918 
  
  "/>
</svg>
