<?xml version="1.0" encoding="utf-8"?>
<svg xmlns="http://www.w3.org/2000/svg" xmlns:xlink="http://www.w3.org/1999/xlink" width="600" height="400" viewBox="0 0 2400 1600">
<defs>
  <clipPath id="clip020">
    <rect x="0" y="0" width="2400" height="1600"/>
  </clipPath>
</defs>
<path clip-path="url(#clip020)" d="
M0 1600 L2400 1600 L2400 0 L0 0  Z
  " fill="#ffffff" fill-rule="evenodd" fill-opacity="1"/>
<defs>
  <clipPath id="clip021">
    <rect x="480" y="0" width="1681" height="1600"/>
  </clipPath>
</defs>
<path clip-path="url(#clip020)" d="
M175.445 1423.18 L2352.76 1423.18 L2352.76 123.472 L175.445 123.472  Z
  " fill="#ffffff" fill-rule="evenodd" fill-opacity="1"/>
<defs>
  <clipPath id="clip022">
    <rect x="175" y="123" width="2178" height="1301"/>
  </clipPath>
</defs>
<polyline clip-path="url(#clip022)" style="stroke:#000000; stroke-width:2; stroke-opacity:0.1; fill:none" points="
  435.833,1423.18 435.833,123.472 
  "/>
<polyline clip-path="url(#clip022)" style="stroke:#000000; stroke-width:2; stroke-opacity:0.1; fill:none" points="
  936.572,1423.18 936.572,123.472 
  "/>
<polyline clip-path="url(#clip022)" style="stroke:#000000; stroke-width:2; stroke-opacity:0.1; fill:none" points="
  1437.31,1423.18 1437.31,123.472 
  "/>
<polyline clip-path="url(#clip022)" style="stroke:#000000; stroke-width:2; stroke-opacity:0.1; fill:none" points="
  1938.05,1423.18 1938.05,123.472 
  "/>
<polyline clip-path="url(#clip020)" style="stroke:#000000; stroke-width:4; stroke-opacity:1; fill:none" points="
  175.445,1423.18 2352.76,1423.18 
  "/>
<polyline clip-path="url(#clip020)" style="stroke:#000000; stroke-width:4; stroke-opacity:1; fill:none" points="
  435.833,1423.18 435.833,1407.58 
  "/>
<polyline clip-path="url(#clip020)" style="stroke:#000000; stroke-width:4; stroke-opacity:1; fill:none" points="
  936.572,1423.18 936.572,1407.58 
  "/>
<polyline clip-path="url(#clip020)" style="stroke:#000000; stroke-width:4; stroke-opacity:1; fill:none" points="
  1437.31,1423.18 1437.31,1407.58 
  "/>
<polyline clip-path="url(#clip020)" style="stroke:#000000; stroke-width:4; stroke-opacity:1; fill:none" points="
  1938.05,1423.18 1938.05,1407.58 
  "/>
<path clip-path="url(#clip020)" d="M 0 0 M417.847 1452.37 Q414.236 1452.37 412.408 1455.94 Q410.602 1459.48 410.602 1466.61 Q410.602 1473.71 412.408 1477.28 Q414.236 1480.82 417.847 1480.82 Q421.482 1480.82 423.287 1477.28 Q425.116 1473.71 425.116 1466.61 Q425.116 1459.48 423.287 1455.94 Q421.482 1452.37 417.847 1452.37 M417.847 1448.67 Q423.657 1448.67 426.713 1453.27 Q429.792 1457.86 429.792 1466.61 Q429.792 1475.33 426.713 1479.94 Q423.657 1484.52 417.847 1484.52 Q412.037 1484.52 408.958 1479.94 Q405.903 1475.33 405.903 1466.61 Q405.903 1457.86 408.958 1453.27 Q412.037 1448.67 417.847 1448.67 Z" fill="#000000" fill-rule="evenodd" fill-opacity="1" /><path clip-path="url(#clip020)" d="M 0 0 M434.861 1477.97 L439.745 1477.97 L439.745 1483.85 L434.861 1483.85 L434.861 1477.97 Z" fill="#000000" fill-rule="evenodd" fill-opacity="1" /><path clip-path="url(#clip020)" d="M 0 0 M444.861 1449.29 L463.217 1449.29 L463.217 1453.23 L449.143 1453.23 L449.143 1461.7 Q450.162 1461.35 451.18 1461.19 Q452.199 1461 453.218 1461 Q459.005 1461 462.384 1464.18 Q465.764 1467.35 465.764 1472.76 Q465.764 1478.34 462.292 1481.44 Q458.819 1484.52 452.5 1484.52 Q450.324 1484.52 448.056 1484.15 Q445.81 1483.78 443.403 1483.04 L443.403 1478.34 Q445.486 1479.48 447.708 1480.03 Q449.931 1480.59 452.407 1480.59 Q456.412 1480.59 458.75 1478.48 Q461.088 1476.38 461.088 1472.76 Q461.088 1469.15 458.75 1467.05 Q456.412 1464.94 452.407 1464.94 Q450.532 1464.94 448.657 1465.36 Q446.806 1465.77 444.861 1466.65 L444.861 1449.29 Z" fill="#000000" fill-rule="evenodd" fill-opacity="1" /><path clip-path="url(#clip020)" d="M 0 0 M908.47 1479.92 L916.109 1479.92 L916.109 1453.55 L907.799 1455.22 L907.799 1450.96 L916.063 1449.29 L920.739 1449.29 L920.739 1479.92 L928.378 1479.92 L928.378 1483.85 L908.47 1483.85 L908.47 1479.92 Z" fill="#000000" fill-rule="evenodd" fill-opacity="1" /><path clip-path="url(#clip020)" d="M 0 0 M933.447 1477.97 L938.331 1477.97 L938.331 1483.85 L933.447 1483.85 L933.447 1477.97 Z" fill="#000000" fill-rule="evenodd" fill-opacity="1" /><path clip-path="url(#clip020)" d="M 0 0 M953.401 1452.37 Q949.79 1452.37 947.961 1455.94 Q946.155 1459.48 946.155 1466.61 Q946.155 1473.71 947.961 1477.28 Q949.79 1480.82 953.401 1480.82 Q957.035 1480.82 958.84 1477.28 Q960.669 1473.71 960.669 1466.61 Q960.669 1459.48 958.84 1455.94 Q957.035 1452.37 953.401 1452.37 M953.401 1448.67 Q959.211 1448.67 962.266 1453.27 Q965.345 1457.86 965.345 1466.61 Q965.345 1475.33 962.266 1479.94 Q959.211 1484.52 953.401 1484.52 Q947.59 1484.52 944.512 1479.94 Q941.456 1475.33 941.456 1466.61 Q941.456 1457.86 944.512 1453.27 Q947.59 1448.67 953.401 1448.67 Z" fill="#000000" fill-rule="evenodd" fill-opacity="1" /><path clip-path="url(#clip020)" d="M 0 0 M1409.71 1479.92 L1417.35 1479.92 L1417.35 1453.55 L1409.04 1455.22 L1409.04 1450.96 L1417.3 1449.29 L1421.98 1449.29 L1421.98 1479.92 L1429.61 1479.92 L1429.61 1483.85 L1409.71 1483.85 L1409.71 1479.92 Z" fill="#000000" fill-rule="evenodd" fill-opacity="1" /><path clip-path="url(#clip020)" d="M 0 0 M1434.68 1477.97 L1439.57 1477.97 L1439.57 1483.85 L1434.68 1483.85 L1434.68 1477.97 Z" fill="#000000" fill-rule="evenodd" fill-opacity="1" /><path clip-path="url(#clip020)" d="M 0 0 M1444.68 1449.29 L1463.04 1449.29 L1463.04 1453.23 L1448.97 1453.23 L1448.97 1461.7 Q1449.98 1461.35 1451 1461.19 Q1452.02 1461 1453.04 1461 Q1458.83 1461 1462.21 1464.18 Q1465.59 1467.35 1465.59 1472.76 Q1465.59 1478.34 1462.11 1481.44 Q1458.64 1484.52 1452.32 1484.52 Q1450.15 1484.52 1447.88 1484.15 Q1445.63 1483.78 1443.23 1483.04 L1443.23 1478.34 Q1445.31 1479.48 1447.53 1480.03 Q1449.75 1480.59 1452.23 1480.59 Q1456.23 1480.59 1458.57 1478.48 Q1460.91 1476.38 1460.91 1472.76 Q1460.91 1469.15 1458.57 1467.05 Q1456.23 1464.94 1452.23 1464.94 Q1450.35 1464.94 1448.48 1465.36 Q1446.63 1465.77 1444.68 1466.65 L1444.68 1449.29 Z" fill="#000000" fill-rule="evenodd" fill-opacity="1" /><path clip-path="url(#clip020)" d="M 0 0 M1914.22 1479.92 L1930.54 1479.92 L1930.54 1483.85 L1908.59 1483.85 L1908.59 1479.92 Q1911.26 1477.16 1915.84 1472.53 Q1920.45 1467.88 1921.63 1466.54 Q1923.87 1464.01 1924.75 1462.28 Q1925.65 1460.52 1925.65 1458.83 Q1925.65 1456.07 1923.71 1454.34 Q1921.79 1452.6 1918.69 1452.6 Q1916.49 1452.6 1914.03 1453.37 Q1911.6 1454.13 1908.83 1455.68 L1908.83 1450.96 Q1911.65 1449.82 1914.1 1449.25 Q1916.56 1448.67 1918.59 1448.67 Q1923.96 1448.67 1927.16 1451.35 Q1930.35 1454.04 1930.35 1458.53 Q1930.35 1460.66 1929.54 1462.58 Q1928.76 1464.48 1926.65 1467.07 Q1926.07 1467.74 1922.97 1470.96 Q1919.87 1474.15 1914.22 1479.92 Z" fill="#000000" fill-rule="evenodd" fill-opacity="1" /><path clip-path="url(#clip020)" d="M 0 0 M1935.61 1477.97 L1940.49 1477.97 L1940.49 1483.85 L1935.61 1483.85 L1935.61 1477.97 Z" fill="#000000" fill-rule="evenodd" fill-opacity="1" /><path clip-path="url(#clip020)" d="M 0 0 M1955.56 1452.37 Q1951.95 1452.37 1950.12 1455.94 Q1948.32 1459.48 1948.32 1466.61 Q1948.32 1473.71 1950.12 1477.28 Q1951.95 1480.82 1955.56 1480.82 Q1959.2 1480.82 1961 1477.28 Q1962.83 1473.71 1962.83 1466.61 Q1962.83 1459.48 1961 1455.94 Q1959.2 1452.37 1955.56 1452.37 M1955.56 1448.67 Q1961.37 1448.67 1964.43 1453.27 Q1967.51 1457.86 1967.51 1466.61 Q1967.51 1475.33 1964.43 1479.94 Q1961.37 1484.52 1955.56 1484.52 Q1949.75 1484.52 1946.67 1479.94 Q1943.62 1475.33 1943.62 1466.61 Q1943.62 1457.86 1946.67 1453.27 Q1949.75 1448.67 1955.56 1448.67 Z" fill="#000000" fill-rule="evenodd" fill-opacity="1" /><path clip-path="url(#clip020)" d="M 0 0 M1237.03 1533.45 L1216.76 1533.45 Q1217.23 1542.96 1219.43 1547 Q1222.17 1551.97 1226.91 1551.97 Q1231.68 1551.97 1234.32 1546.97 Q1236.65 1542.58 1237.03 1533.45 M1236.93 1528.03 Q1236.04 1519 1234.32 1515.81 Q1231.59 1510.78 1226.91 1510.78 Q1222.04 1510.78 1219.46 1515.75 Q1217.42 1519.76 1216.82 1528.03 L1236.93 1528.03 M1226.91 1506.01 Q1234.55 1506.01 1238.91 1512.76 Q1243.27 1519.47 1243.27 1531.38 Q1243.27 1543.25 1238.91 1550 Q1234.55 1556.78 1226.91 1556.78 Q1219.24 1556.78 1214.91 1550 Q1210.55 1543.25 1210.55 1531.38 Q1210.55 1519.47 1214.91 1512.76 Q1219.24 1506.01 1226.91 1506.01 Z" fill="#000000" fill-rule="evenodd" fill-opacity="1" /><path clip-path="url(#clip020)" d="M 0 0 M1248.87 1506.52 L1262.37 1506.52 L1262.37 1511.07 L1254.73 1511.07 L1254.73 1560.09 L1262.37 1560.09 L1262.37 1564.64 L1248.87 1564.64 L1248.87 1506.52 Z" fill="#000000" fill-rule="evenodd" fill-opacity="1" /><path clip-path="url(#clip020)" d="M 0 0 M1270.45 1550.63 L1280.95 1550.63 L1280.95 1514.38 L1269.53 1516.67 L1269.53 1510.82 L1280.89 1508.52 L1287.32 1508.52 L1287.32 1550.63 L1297.82 1550.63 L1297.82 1556.04 L1270.45 1556.04 L1270.45 1550.63 Z" fill="#000000" fill-rule="evenodd" fill-opacity="1" /><path clip-path="url(#clip020)" d="M 0 0 M1317.65 1506.52 L1317.65 1564.64 L1304.16 1564.64 L1304.16 1560.09 L1311.76 1560.09 L1311.76 1511.07 L1304.16 1511.07 L1304.16 1506.52 L1317.65 1506.52 Z" fill="#000000" fill-rule="evenodd" fill-opacity="1" /><polyline clip-path="url(#clip022)" style="stroke:#000000; stroke-width:2; stroke-opacity:0.1; fill:none" points="
  175.445,1297.5 2352.76,1297.5 
  "/>
<polyline clip-path="url(#clip022)" style="stroke:#000000; stroke-width:2; stroke-opacity:0.1; fill:none" points="
  175.445,985.739 2352.76,985.739 
  "/>
<polyline clip-path="url(#clip022)" style="stroke:#000000; stroke-width:2; stroke-opacity:0.1; fill:none" points="
  175.445,673.976 2352.76,673.976 
  "/>
<polyline clip-path="url(#clip022)" style="stroke:#000000; stroke-width:2; stroke-opacity:0.1; fill:none" points="
  175.445,362.213 2352.76,362.213 
  "/>
<polyline clip-path="url(#clip020)" style="stroke:#000000; stroke-width:4; stroke-opacity:1; fill:none" points="
  175.445,1423.18 175.445,123.472 
  "/>
<polyline clip-path="url(#clip020)" style="stroke:#000000; stroke-width:4; stroke-opacity:1; fill:none" points="
  175.445,1297.5 201.573,1297.5 
  "/>
<polyline clip-path="url(#clip020)" style="stroke:#000000; stroke-width:4; stroke-opacity:1; fill:none" points="
  175.445,985.739 201.573,985.739 
  "/>
<polyline clip-path="url(#clip020)" style="stroke:#000000; stroke-width:4; stroke-opacity:1; fill:none" points="
  175.445,673.976 201.573,673.976 
  "/>
<polyline clip-path="url(#clip020)" style="stroke:#000000; stroke-width:4; stroke-opacity:1; fill:none" points="
  175.445,362.213 201.573,362.213 
  "/>
<path clip-path="url(#clip020)" d="M 0 0 M119.538 1310.85 L127.177 1310.85 L127.177 1284.48 L118.867 1286.15 L118.867 1281.89 L127.13 1280.22 L131.806 1280.22 L131.806 1310.85 L139.445 1310.85 L139.445 1314.78 L119.538 1314.78 L119.538 1310.85 Z" fill="#000000" fill-rule="evenodd" fill-opacity="1" /><path clip-path="url(#clip020)" d="M 0 0 M123.126 999.084 L139.445 999.084 L139.445 1003.02 L117.501 1003.02 L117.501 999.084 Q120.163 996.33 124.746 991.7 Q129.353 987.047 130.533 985.705 Q132.779 983.182 133.658 981.445 Q134.561 979.686 134.561 977.996 Q134.561 975.242 132.617 973.506 Q130.695 971.77 127.593 971.77 Q125.394 971.77 122.941 972.533 Q120.51 973.297 117.732 974.848 L117.732 970.126 Q120.556 968.992 123.01 968.413 Q125.464 967.834 127.501 967.834 Q132.871 967.834 136.066 970.52 Q139.26 973.205 139.26 977.695 Q139.26 979.825 138.45 981.746 Q137.663 983.645 135.556 986.237 Q134.978 986.908 131.876 990.126 Q128.774 993.32 123.126 999.084 Z" fill="#000000" fill-rule="evenodd" fill-opacity="1" /><path clip-path="url(#clip020)" d="M 0 0 M132.316 672.622 Q135.672 673.34 137.547 675.608 Q139.445 677.877 139.445 681.21 Q139.445 686.326 135.927 689.127 Q132.408 691.928 125.927 691.928 Q123.751 691.928 121.436 691.488 Q119.144 691.071 116.691 690.215 L116.691 685.701 Q118.635 686.835 120.95 687.414 Q123.265 687.992 125.788 687.992 Q130.186 687.992 132.478 686.256 Q134.792 684.52 134.792 681.21 Q134.792 678.155 132.64 676.442 Q130.51 674.706 126.691 674.706 L122.663 674.706 L122.663 670.863 L126.876 670.863 Q130.325 670.863 132.154 669.497 Q133.982 668.108 133.982 665.516 Q133.982 662.854 132.084 661.442 Q130.209 660.007 126.691 660.007 Q124.769 660.007 122.57 660.423 Q120.371 660.84 117.732 661.719 L117.732 657.553 Q120.394 656.812 122.709 656.442 Q125.047 656.071 127.107 656.071 Q132.431 656.071 135.533 658.502 Q138.635 660.909 138.635 665.03 Q138.635 667.9 136.992 669.891 Q135.348 671.858 132.316 672.622 Z" fill="#000000" fill-rule="evenodd" fill-opacity="1" /><path clip-path="url(#clip020)" d="M 0 0 M129.862 349.007 L118.056 367.456 L129.862 367.456 L129.862 349.007 M128.635 344.933 L134.515 344.933 L134.515 367.456 L139.445 367.456 L139.445 371.345 L134.515 371.345 L134.515 379.493 L129.862 379.493 L129.862 371.345 L114.26 371.345 L114.26 366.831 L128.635 344.933 Z" fill="#000000" fill-rule="evenodd" fill-opacity="1" /><path clip-path="url(#clip020)" d="M 0 0 M65.4059 800.142 L65.4059 820.416 Q74.9226 819.939 78.9649 817.743 Q83.9301 815.005 83.9301 810.263 Q83.9301 805.489 78.933 802.847 Q74.5407 800.523 65.4059 800.142 M59.995 800.237 Q50.9557 801.128 47.7729 802.847 Q42.744 805.584 42.744 810.263 Q42.744 815.133 47.7092 817.711 Q51.7196 819.748 59.995 820.353 L59.995 800.237 M37.9697 810.263 Q37.9697 802.624 44.7174 798.264 Q51.4332 793.903 63.337 793.903 Q75.2091 793.903 81.9567 798.264 Q88.7362 802.624 88.7362 810.263 Q88.7362 817.934 81.9567 822.262 Q75.2091 826.623 63.337 826.623 Q51.4332 826.623 44.7174 822.262 Q37.9697 817.934 37.9697 810.263 Z" fill="#000000" fill-rule="evenodd" fill-opacity="1" /><path clip-path="url(#clip020)" d="M 0 0 M38.479 788.301 L38.479 774.806 L43.0304 774.806 L43.0304 782.445 L92.0464 782.445 L92.0464 774.806 L96.5979 774.806 L96.5979 788.301 L38.479 788.301 Z" fill="#000000" fill-rule="evenodd" fill-opacity="1" /><path clip-path="url(#clip020)" d="M 0 0 M82.5933 762.297 L82.5933 739.858 L88.0042 739.858 L88.0042 770.032 L82.5933 770.032 Q78.8057 766.371 72.44 760.069 Q66.0425 753.736 64.1964 752.112 Q60.7271 749.025 58.34 747.815 Q55.921 746.574 53.5975 746.574 Q49.8099 746.574 47.4228 749.248 Q45.0356 751.889 45.0356 756.154 Q45.0356 759.178 46.086 762.552 Q47.1363 765.894 49.2688 769.713 L42.7758 769.713 Q41.2162 765.83 40.4205 762.457 Q39.6248 759.083 39.6248 756.282 Q39.6248 748.898 43.3169 744.505 Q47.009 740.113 53.1837 740.113 Q56.112 740.113 58.7537 741.227 Q61.3637 742.309 64.9285 745.205 Q65.8515 746.001 70.2757 750.266 Q74.668 754.531 82.5933 762.297 Z" fill="#000000" fill-rule="evenodd" fill-opacity="1" /><path clip-path="url(#clip020)" d="M 0 0 M38.479 720.029 L96.5979 720.029 L96.5979 733.524 L92.0464 733.524 L92.0464 725.917 L43.0304 725.917 L43.0304 733.524 L38.479 733.524 L38.479 720.029 Z" fill="#000000" fill-rule="evenodd" fill-opacity="1" /><path clip-path="url(#clip020)" d="M 0 0 M346.206 16.7545 L346.206 25.383 Q342.074 21.5346 337.375 19.6307 Q332.717 17.7268 327.45 17.7268 Q317.08 17.7268 311.571 24.0867 Q306.062 30.4061 306.062 42.3968 Q306.062 54.3469 311.571 60.7069 Q317.08 67.0263 327.45 67.0263 Q332.717 67.0263 337.375 65.1223 Q342.074 63.2184 346.206 59.3701 L346.206 67.9175 Q341.912 70.8341 337.092 72.2924 Q332.312 73.7508 326.964 73.7508 Q313.232 73.7508 305.333 65.3654 Q297.433 56.9395 297.433 42.3968 Q297.433 27.8135 305.333 19.4281 Q313.232 11.0023 326.964 11.0023 Q332.393 11.0023 337.173 12.4606 Q341.993 13.8784 346.206 16.7545 Z" fill="#000000" fill-rule="evenodd" fill-opacity="1" /><path clip-path="url(#clip020)" d="M 0 0 M371.605 32.4315 Q365.61 32.4315 362.126 37.1306 Q358.642 41.7891 358.642 49.9314 Q358.642 58.0738 362.086 62.7728 Q365.569 67.4314 371.605 67.4314 Q377.56 67.4314 381.044 62.7323 Q384.528 58.0333 384.528 49.9314 Q384.528 41.8701 381.044 37.1711 Q377.56 32.4315 371.605 32.4315 M371.605 26.1121 Q381.328 26.1121 386.877 32.4315 Q392.427 38.7509 392.427 49.9314 Q392.427 61.0714 386.877 67.4314 Q381.328 73.7508 371.605 73.7508 Q361.843 73.7508 356.293 67.4314 Q350.784 61.0714 350.784 49.9314 Q350.784 38.7509 356.293 32.4315 Q361.843 26.1121 371.605 26.1121 Z" fill="#000000" fill-rule="evenodd" fill-opacity="1" /><path clip-path="url(#clip020)" d="M 0 0 M437.959 45.1919 L437.959 72.576 L430.505 72.576 L430.505 45.4349 Q430.505 38.994 427.994 35.7938 Q425.482 32.5936 420.459 32.5936 Q414.423 32.5936 410.94 36.4419 Q407.456 40.2903 407.456 46.9338 L407.456 72.576 L399.962 72.576 L399.962 27.2059 L407.456 27.2059 L407.456 34.2544 Q410.129 30.163 413.735 28.1376 Q417.381 26.1121 422.12 26.1121 Q429.938 26.1121 433.949 30.9732 Q437.959 35.7938 437.959 45.1919 Z" fill="#000000" fill-rule="evenodd" fill-opacity="1" /><path clip-path="url(#clip020)" d="M 0 0 M468.746 9.54393 L468.746 15.7418 L461.616 15.7418 Q457.606 15.7418 456.026 17.3622 Q454.487 18.9825 454.487 23.1955 L454.487 27.2059 L466.761 27.2059 L466.761 32.9987 L454.487 32.9987 L454.487 72.576 L446.993 72.576 L446.993 32.9987 L439.863 32.9987 L439.863 27.2059 L446.993 27.2059 L446.993 24.0462 Q446.993 16.471 450.517 13.0277 Q454.041 9.54393 461.697 9.54393 L468.746 9.54393 Z" fill="#000000" fill-rule="evenodd" fill-opacity="1" /><path clip-path="url(#clip020)" d="M 0 0 M476.564 27.2059 L484.018 27.2059 L484.018 72.576 L476.564 72.576 L476.564 27.2059 M476.564 9.54393 L484.018 9.54393 L484.018 18.9825 L476.564 18.9825 L476.564 9.54393 Z" fill="#000000" fill-rule="evenodd" fill-opacity="1" /><path clip-path="url(#clip020)" d="M 0 0 M521.691 34.0924 L521.691 9.54393 L529.145 9.54393 L529.145 72.576 L521.691 72.576 L521.691 65.7705 Q519.342 69.8214 515.737 71.8063 Q512.172 73.7508 507.149 73.7508 Q498.925 73.7508 493.74 67.1883 Q488.595 60.6258 488.595 49.9314 Q488.595 39.2371 493.74 32.6746 Q498.925 26.1121 507.149 26.1121 Q512.172 26.1121 515.737 28.0971 Q519.342 30.0415 521.691 34.0924 M496.292 49.9314 Q496.292 58.1548 499.654 62.8538 Q503.057 67.5124 508.972 67.5124 Q514.886 67.5124 518.289 62.8538 Q521.691 58.1548 521.691 49.9314 Q521.691 41.7081 518.289 37.0496 Q514.886 32.3505 508.972 32.3505 Q503.057 32.3505 499.654 37.0496 Q496.292 41.7081 496.292 49.9314 Z" fill="#000000" fill-rule="evenodd" fill-opacity="1" /><path clip-path="url(#clip020)" d="M 0 0 M575.771 48.0275 L575.771 51.6733 L541.5 51.6733 Q541.986 59.3701 546.118 63.421 Q550.291 67.4314 557.704 67.4314 Q561.998 67.4314 566.008 66.3781 Q570.059 65.3249 574.029 63.2184 L574.029 70.267 Q570.019 71.9684 565.806 72.8596 Q561.593 73.7508 557.258 73.7508 Q546.402 73.7508 540.042 67.4314 Q533.723 61.1119 533.723 50.3365 Q533.723 39.1965 539.718 32.6746 Q545.754 26.1121 555.962 26.1121 Q565.117 26.1121 570.424 32.0264 Q575.771 37.9003 575.771 48.0275 M568.317 45.84 Q568.236 39.7232 564.874 36.0774 Q561.552 32.4315 556.043 32.4315 Q549.805 32.4315 546.037 35.9558 Q542.31 39.4801 541.743 45.8805 L568.317 45.84 Z" fill="#000000" fill-rule="evenodd" fill-opacity="1" /><path clip-path="url(#clip020)" d="M 0 0 M621.303 45.1919 L621.303 72.576 L613.849 72.576 L613.849 45.4349 Q613.849 38.994 611.338 35.7938 Q608.826 32.5936 603.803 32.5936 Q597.767 32.5936 594.284 36.4419 Q590.8 40.2903 590.8 46.9338 L590.8 72.576 L583.306 72.576 L583.306 27.2059 L590.8 27.2059 L590.8 34.2544 Q593.473 30.163 597.079 28.1376 Q600.724 26.1121 605.464 26.1121 Q613.282 26.1121 617.293 30.9732 Q621.303 35.7938 621.303 45.1919 Z" fill="#000000" fill-rule="evenodd" fill-opacity="1" /><path clip-path="url(#clip020)" d="M 0 0 M661.772 28.9478 L661.772 35.9153 Q658.612 34.1734 655.412 33.3227 Q652.252 32.4315 649.011 32.4315 Q641.76 32.4315 637.75 37.0496 Q633.739 41.6271 633.739 49.9314 Q633.739 58.2358 637.75 62.8538 Q641.76 67.4314 649.011 67.4314 Q652.252 67.4314 655.412 66.5807 Q658.612 65.6895 661.772 63.9476 L661.772 70.8341 Q658.652 72.2924 655.29 73.0216 Q651.968 73.7508 648.201 73.7508 Q637.952 73.7508 631.916 67.3098 Q625.881 60.8689 625.881 49.9314 Q625.881 38.832 631.957 32.472 Q638.074 26.1121 648.687 26.1121 Q652.13 26.1121 655.412 26.8413 Q658.693 27.5299 661.772 28.9478 Z" fill="#000000" fill-rule="evenodd" fill-opacity="1" /><path clip-path="url(#clip020)" d="M 0 0 M708.398 48.0275 L708.398 51.6733 L674.127 51.6733 Q674.613 59.3701 678.745 63.421 Q682.917 67.4314 690.33 67.4314 Q694.624 67.4314 698.635 66.3781 Q702.686 65.3249 706.656 63.2184 L706.656 70.267 Q702.645 71.9684 698.432 72.8596 Q694.219 73.7508 689.885 73.7508 Q679.028 73.7508 672.669 67.4314 Q666.349 61.1119 666.349 50.3365 Q666.349 39.1965 672.344 32.6746 Q678.38 26.1121 688.589 26.1121 Q697.744 26.1121 703.05 32.0264 Q708.398 37.9003 708.398 48.0275 M700.944 45.84 Q700.863 39.7232 697.501 36.0774 Q694.179 32.4315 688.67 32.4315 Q682.431 32.4315 678.664 35.9558 Q674.937 39.4801 674.37 45.8805 L700.944 45.84 Z" fill="#000000" fill-rule="evenodd" fill-opacity="1" /><path clip-path="url(#clip020)" d="M 0 0 M771.592 44.2197 Q774.225 45.1109 776.696 48.0275 Q779.207 50.9442 781.719 56.0483 L790.023 72.576 L781.233 72.576 L773.496 57.061 Q770.498 50.9847 767.662 48.9997 Q764.867 47.0148 760.006 47.0148 L751.094 47.0148 L751.094 72.576 L742.911 72.576 L742.911 12.096 L761.383 12.096 Q771.754 12.096 776.858 16.4305 Q781.962 20.7649 781.962 29.5149 Q781.962 35.2267 779.288 38.994 Q776.655 42.7613 771.592 44.2197 M751.094 18.8205 L751.094 40.2903 L761.383 40.2903 Q767.298 40.2903 770.295 37.5762 Q773.334 34.8216 773.334 29.5149 Q773.334 24.2082 770.295 21.5346 Q767.298 18.8205 761.383 18.8205 L751.094 18.8205 Z" fill="#000000" fill-rule="evenodd" fill-opacity="1" /><path clip-path="url(#clip020)" d="M 0 0 M832.922 48.0275 L832.922 51.6733 L798.652 51.6733 Q799.138 59.3701 803.27 63.421 Q807.442 67.4314 814.855 67.4314 Q819.149 67.4314 823.16 66.3781 Q827.211 65.3249 831.18 63.2184 L831.18 70.267 Q827.17 71.9684 822.957 72.8596 Q818.744 73.7508 814.41 73.7508 Q803.553 73.7508 797.193 67.4314 Q790.874 61.1119 790.874 50.3365 Q790.874 39.1965 796.869 32.6746 Q802.905 26.1121 813.113 26.1121 Q822.268 26.1121 827.575 32.0264 Q832.922 37.9003 832.922 48.0275 M825.469 45.84 Q825.388 39.7232 822.025 36.0774 Q818.704 32.4315 813.194 32.4315 Q806.956 32.4315 803.189 35.9558 Q799.462 39.4801 798.895 45.8805 L825.469 45.84 Z" fill="#000000" fill-rule="evenodd" fill-opacity="1" /><path clip-path="url(#clip020)" d="M 0 0 M870.596 49.3643 Q870.596 41.2625 867.233 36.8065 Q863.912 32.3505 857.876 32.3505 Q851.881 32.3505 848.518 36.8065 Q845.197 41.2625 845.197 49.3643 Q845.197 57.4256 848.518 61.8816 Q851.881 66.3376 857.876 66.3376 Q863.912 66.3376 867.233 61.8816 Q870.596 57.4256 870.596 49.3643 M878.049 66.9452 Q878.049 78.5308 872.905 84.1616 Q867.76 89.8329 857.147 89.8329 Q853.217 89.8329 849.734 89.2252 Q846.25 88.6581 842.969 87.4428 L842.969 80.1917 Q846.25 81.9741 849.45 82.8248 Q852.65 83.6755 855.972 83.6755 Q863.304 83.6755 866.95 79.8271 Q870.596 76.0193 870.596 68.282 L870.596 64.5957 Q868.287 68.6061 864.681 70.5911 Q861.076 72.576 856.053 72.576 Q847.708 72.576 842.604 66.2161 Q837.5 59.8562 837.5 49.3643 Q837.5 38.832 842.604 32.472 Q847.708 26.1121 856.053 26.1121 Q861.076 26.1121 864.681 28.0971 Q868.287 30.082 870.596 34.0924 L870.596 27.2059 L878.049 27.2059 L878.049 66.9452 Z" fill="#000000" fill-rule="evenodd" fill-opacity="1" /><path clip-path="url(#clip020)" d="M 0 0 M885.868 27.2059 L893.321 27.2059 L893.321 72.576 L885.868 72.576 L885.868 27.2059 M885.868 9.54393 L893.321 9.54393 L893.321 18.9825 L885.868 18.9825 L885.868 9.54393 Z" fill="#000000" fill-rule="evenodd" fill-opacity="1" /><path clip-path="url(#clip020)" d="M 0 0 M918.72 32.4315 Q912.725 32.4315 909.241 37.1306 Q905.758 41.7891 905.758 49.9314 Q905.758 58.0738 909.201 62.7728 Q912.685 67.4314 918.72 67.4314 Q924.675 67.4314 928.159 62.7323 Q931.643 58.0333 931.643 49.9314 Q931.643 41.8701 928.159 37.1711 Q924.675 32.4315 918.72 32.4315 M918.72 26.1121 Q928.443 26.1121 933.992 32.4315 Q939.542 38.7509 939.542 49.9314 Q939.542 61.0714 933.992 67.4314 Q928.443 73.7508 918.72 73.7508 Q908.958 73.7508 903.408 67.4314 Q897.899 61.0714 897.899 49.9314 Q897.899 38.7509 903.408 32.4315 Q908.958 26.1121 918.72 26.1121 Z" fill="#000000" fill-rule="evenodd" fill-opacity="1" /><path clip-path="url(#clip020)" d="M 0 0 M985.074 45.1919 L985.074 72.576 L977.621 72.576 L977.621 45.4349 Q977.621 38.994 975.109 35.7938 Q972.597 32.5936 967.574 32.5936 Q961.539 32.5936 958.055 36.4419 Q954.571 40.2903 954.571 46.9338 L954.571 72.576 L947.077 72.576 L947.077 27.2059 L954.571 27.2059 L954.571 34.2544 Q957.245 30.163 960.85 28.1376 Q964.496 26.1121 969.235 26.1121 Q977.053 26.1121 981.064 30.9732 Q985.074 35.7938 985.074 45.1919 Z" fill="#000000" fill-rule="evenodd" fill-opacity="1" /><path clip-path="url(#clip020)" d="M 0 0 M1021.82 28.5427 L1021.82 35.5912 Q1018.66 33.9709 1015.25 33.1607 Q1011.85 32.3505 1008.2 32.3505 Q1002.66 32.3505 999.86 34.0519 Q997.105 35.7533 997.105 39.156 Q997.105 41.7486 999.09 43.2475 Q1001.08 44.7058 1007.07 46.0426 L1009.62 46.6097 Q1017.56 48.3111 1020.88 51.4303 Q1024.25 54.509 1024.25 60.0587 Q1024.25 66.3781 1019.22 70.0644 Q1014.24 73.7508 1005.49 73.7508 Q1001.85 73.7508 997.875 73.0216 Q993.946 72.3329 989.571 70.9151 L989.571 63.2184 Q993.703 65.3654 997.713 66.4591 Q1001.72 67.5124 1005.65 67.5124 Q1010.92 67.5124 1013.75 65.73 Q1016.59 63.9071 1016.59 60.6258 Q1016.59 57.5877 1014.52 55.9673 Q1012.5 54.3469 1005.57 52.8481 L1002.98 52.2405 Q996.052 50.7821 992.974 47.7845 Q989.895 44.7463 989.895 39.4801 Q989.895 33.0797 994.432 29.5959 Q998.969 26.1121 1007.31 26.1121 Q1011.45 26.1121 1015.09 26.7198 Q1018.74 27.3274 1021.82 28.5427 Z" fill="#000000" fill-rule="evenodd" fill-opacity="1" /><path clip-path="url(#clip020)" d="M 0 0 M1081.4 9.54393 L1081.4 15.7418 L1074.28 15.7418 Q1070.26 15.7418 1068.68 17.3622 Q1067.15 18.9825 1067.15 23.1955 L1067.15 27.2059 L1079.42 27.2059 L1079.42 32.9987 L1067.15 32.9987 L1067.15 72.576 L1059.65 72.576 L1059.65 32.9987 L1052.52 32.9987 L1052.52 27.2059 L1059.65 27.2059 L1059.65 24.0462 Q1059.65 16.471 1063.18 13.0277 Q1066.7 9.54393 1074.36 9.54393 L1081.4 9.54393 Z" fill="#000000" fill-rule="evenodd" fill-opacity="1" /><path clip-path="url(#clip020)" d="M 0 0 M1106.8 32.4315 Q1100.81 32.4315 1097.32 37.1306 Q1093.84 41.7891 1093.84 49.9314 Q1093.84 58.0738 1097.28 62.7728 Q1100.77 67.4314 1106.8 67.4314 Q1112.76 67.4314 1116.24 62.7323 Q1119.73 58.0333 1119.73 49.9314 Q1119.73 41.8701 1116.24 37.1711 Q1112.76 32.4315 1106.8 32.4315 M1106.8 26.1121 Q1116.53 26.1121 1122.08 32.4315 Q1127.63 38.7509 1127.63 49.9314 Q1127.63 61.0714 1122.08 67.4314 Q1116.53 73.7508 1106.8 73.7508 Q1097.04 73.7508 1091.49 67.4314 Q1085.98 61.0714 1085.98 49.9314 Q1085.98 38.7509 1091.49 32.4315 Q1097.04 26.1121 1106.8 26.1121 Z" fill="#000000" fill-rule="evenodd" fill-opacity="1" /><path clip-path="url(#clip020)" d="M 0 0 M1161.73 34.1734 Q1160.48 33.4443 1158.98 33.1202 Q1157.52 32.7556 1155.74 32.7556 Q1149.42 32.7556 1146.02 36.8875 Q1142.65 40.9789 1142.65 48.6757 L1142.65 72.576 L1135.16 72.576 L1135.16 27.2059 L1142.65 27.2059 L1142.65 34.2544 Q1145 30.1225 1148.77 28.1376 Q1152.54 26.1121 1157.93 26.1121 Q1158.7 26.1121 1159.63 26.2337 Q1160.56 26.3147 1161.69 26.5172 L1161.73 34.1734 Z" fill="#000000" fill-rule="evenodd" fill-opacity="1" /><path clip-path="url(#clip020)" d="M 0 0 M1195.92 9.54393 L1203.38 9.54393 L1203.38 72.576 L1195.92 72.576 L1195.92 9.54393 Z" fill="#000000" fill-rule="evenodd" fill-opacity="1" /><path clip-path="url(#clip020)" d="M 0 0 M1211.2 27.2059 L1218.65 27.2059 L1218.65 72.576 L1211.2 72.576 L1211.2 27.2059 M1211.2 9.54393 L1218.65 9.54393 L1218.65 18.9825 L1211.2 18.9825 L1211.2 9.54393 Z" fill="#000000" fill-rule="evenodd" fill-opacity="1" /><path clip-path="url(#clip020)" d="M 0 0 M1264.18 45.1919 L1264.18 72.576 L1256.73 72.576 L1256.73 45.4349 Q1256.73 38.994 1254.22 35.7938 Q1251.7 32.5936 1246.68 32.5936 Q1240.65 32.5936 1237.16 36.4419 Q1233.68 40.2903 1233.68 46.9338 L1233.68 72.576 L1226.18 72.576 L1226.18 27.2059 L1233.68 27.2059 L1233.68 34.2544 Q1236.35 30.163 1239.96 28.1376 Q1243.6 26.1121 1248.34 26.1121 Q1256.16 26.1121 1260.17 30.9732 Q1264.18 35.7938 1264.18 45.1919 Z" fill="#000000" fill-rule="evenodd" fill-opacity="1" /><path clip-path="url(#clip020)" d="M 0 0 M1310.81 48.0275 L1310.81 51.6733 L1276.54 51.6733 Q1277.02 59.3701 1281.15 63.421 Q1285.33 67.4314 1292.74 67.4314 Q1297.03 67.4314 1301.04 66.3781 Q1305.1 65.3249 1309.07 63.2184 L1309.07 70.267 Q1305.06 71.9684 1300.84 72.8596 Q1296.63 73.7508 1292.29 73.7508 Q1281.44 73.7508 1275.08 67.4314 Q1268.76 61.1119 1268.76 50.3365 Q1268.76 39.1965 1274.75 32.6746 Q1280.79 26.1121 1291 26.1121 Q1300.15 26.1121 1305.46 32.0264 Q1310.81 37.9003 1310.81 48.0275 M1303.35 45.84 Q1303.27 39.7232 1299.91 36.0774 Q1296.59 32.4315 1291.08 32.4315 Q1284.84 32.4315 1281.07 35.9558 Q1277.35 39.4801 1276.78 45.8805 L1303.35 45.84 Z" fill="#000000" fill-rule="evenodd" fill-opacity="1" /><path clip-path="url(#clip020)" d="M 0 0 M1339.24 49.7694 Q1330.21 49.7694 1326.73 51.8354 Q1323.24 53.9013 1323.24 58.8839 Q1323.24 62.8538 1325.84 65.2034 Q1328.47 67.5124 1332.97 67.5124 Q1339.16 67.5124 1342.89 63.1374 Q1346.66 58.7219 1346.66 51.4303 L1346.66 49.7694 L1339.24 49.7694 M1354.11 46.6907 L1354.11 72.576 L1346.66 72.576 L1346.66 65.6895 Q1344.11 69.8214 1340.3 71.8063 Q1336.49 73.7508 1330.98 73.7508 Q1324.01 73.7508 1319.88 69.8619 Q1315.79 65.9325 1315.79 59.3701 Q1315.79 51.7138 1320.89 47.825 Q1326.04 43.9361 1336.21 43.9361 L1346.66 43.9361 L1346.66 43.2069 Q1346.66 38.0623 1343.26 35.2672 Q1339.89 32.4315 1333.78 32.4315 Q1329.89 32.4315 1326.2 33.3632 Q1322.51 34.295 1319.11 36.1584 L1319.11 29.2718 Q1323.2 27.692 1327.05 26.9223 Q1330.9 26.1121 1334.55 26.1121 Q1344.39 26.1121 1349.25 31.2163 Q1354.11 36.3204 1354.11 46.6907 Z" fill="#000000" fill-rule="evenodd" fill-opacity="1" /><path clip-path="url(#clip020)" d="M 0 0 M1388.22 34.1734 Q1386.96 33.4443 1385.47 33.1202 Q1384.01 32.7556 1382.22 32.7556 Q1375.91 32.7556 1372.5 36.8875 Q1369.14 40.9789 1369.14 48.6757 L1369.14 72.576 L1361.65 72.576 L1361.65 27.2059 L1369.14 27.2059 L1369.14 34.2544 Q1371.49 30.1225 1375.26 28.1376 Q1379.02 26.1121 1384.41 26.1121 Q1385.18 26.1121 1386.11 26.2337 Q1387.05 26.3147 1388.18 26.5172 L1388.22 34.1734 Z" fill="#000000" fill-rule="evenodd" fill-opacity="1" /><path clip-path="url(#clip020)" d="M 0 0 M1396.04 9.54393 L1403.49 9.54393 L1403.49 72.576 L1396.04 72.576 L1396.04 9.54393 Z" fill="#000000" fill-rule="evenodd" fill-opacity="1" /><path clip-path="url(#clip020)" d="M 0 0 M1430.19 76.7889 Q1427.03 84.8907 1424.03 87.3618 Q1421.03 89.8329 1416.01 89.8329 L1410.05 89.8329 L1410.05 83.5945 L1414.43 83.5945 Q1417.51 83.5945 1419.21 82.1361 Q1420.91 80.6778 1422.98 75.2496 L1424.31 71.8468 L1405.96 27.2059 L1413.86 27.2059 L1428.04 62.6918 L1442.22 27.2059 L1450.12 27.2059 L1430.19 76.7889 Z" fill="#000000" fill-rule="evenodd" fill-opacity="1" /><path clip-path="url(#clip020)" d="M 0 0 M1491.52 65.7705 L1491.52 89.8329 L1484.02 89.8329 L1484.02 27.2059 L1491.52 27.2059 L1491.52 34.0924 Q1493.87 30.0415 1497.43 28.0971 Q1501.04 26.1121 1506.02 26.1121 Q1514.28 26.1121 1519.43 32.6746 Q1524.61 39.2371 1524.61 49.9314 Q1524.61 60.6258 1519.43 67.1883 Q1514.28 73.7508 1506.02 73.7508 Q1501.04 73.7508 1497.43 71.8063 Q1493.87 69.8214 1491.52 65.7705 M1516.88 49.9314 Q1516.88 41.7081 1513.47 37.0496 Q1510.11 32.3505 1504.2 32.3505 Q1498.28 32.3505 1494.88 37.0496 Q1491.52 41.7081 1491.52 49.9314 Q1491.52 58.1548 1494.88 62.8538 Q1498.28 67.5124 1504.2 67.5124 Q1510.11 67.5124 1513.47 62.8538 Q1516.88 58.1548 1516.88 49.9314 Z" fill="#000000" fill-rule="evenodd" fill-opacity="1" /><path clip-path="url(#clip020)" d="M 0 0 M1553.05 49.7694 Q1544.02 49.7694 1540.53 51.8354 Q1537.05 53.9013 1537.05 58.8839 Q1537.05 62.8538 1539.64 65.2034 Q1542.28 67.5124 1546.77 67.5124 Q1552.97 67.5124 1556.7 63.1374 Q1560.46 58.7219 1560.46 51.4303 L1560.46 49.7694 L1553.05 49.7694 M1567.92 46.6907 L1567.92 72.576 L1560.46 72.576 L1560.46 65.6895 Q1557.91 69.8214 1554.1 71.8063 Q1550.3 73.7508 1544.79 73.7508 Q1537.82 73.7508 1533.69 69.8619 Q1529.6 65.9325 1529.6 59.3701 Q1529.6 51.7138 1534.7 47.825 Q1539.85 43.9361 1550.01 43.9361 L1560.46 43.9361 L1560.46 43.2069 Q1560.46 38.0623 1557.06 35.2672 Q1553.7 32.4315 1547.58 32.4315 Q1543.69 32.4315 1540.01 33.3632 Q1536.32 34.295 1532.92 36.1584 L1532.92 29.2718 Q1537.01 27.692 1540.86 26.9223 Q1544.71 26.1121 1548.35 26.1121 Q1558.2 26.1121 1563.06 31.2163 Q1567.92 36.3204 1567.92 46.6907 Z" fill="#000000" fill-rule="evenodd" fill-opacity="1" /><path clip-path="url(#clip020)" d="M 0 0 M1602.03 34.1734 Q1600.77 33.4443 1599.27 33.1202 Q1597.81 32.7556 1596.03 32.7556 Q1589.71 32.7556 1586.31 36.8875 Q1582.95 40.9789 1582.95 48.6757 L1582.95 72.576 L1575.45 72.576 L1575.45 27.2059 L1582.95 27.2059 L1582.95 34.2544 Q1585.3 30.1225 1589.06 28.1376 Q1592.83 26.1121 1598.22 26.1121 Q1598.99 26.1121 1599.92 26.2337 Q1600.85 26.3147 1601.99 26.5172 L1602.03 34.1734 Z" fill="#000000" fill-rule="evenodd" fill-opacity="1" /><path clip-path="url(#clip020)" d="M 0 0 M1630.46 49.7694 Q1621.43 49.7694 1617.95 51.8354 Q1614.46 53.9013 1614.46 58.8839 Q1614.46 62.8538 1617.06 65.2034 Q1619.69 67.5124 1624.19 67.5124 Q1630.38 67.5124 1634.11 63.1374 Q1637.88 58.7219 1637.88 51.4303 L1637.88 49.7694 L1630.46 49.7694 M1645.33 46.6907 L1645.33 72.576 L1637.88 72.576 L1637.88 65.6895 Q1635.33 69.8214 1631.52 71.8063 Q1627.71 73.7508 1622.2 73.7508 Q1615.23 73.7508 1611.1 69.8619 Q1607.01 65.9325 1607.01 59.3701 Q1607.01 51.7138 1612.11 47.825 Q1617.26 43.9361 1627.43 43.9361 L1637.88 43.9361 L1637.88 43.2069 Q1637.88 38.0623 1634.47 35.2672 Q1631.11 32.4315 1625 32.4315 Q1621.11 32.4315 1617.42 33.3632 Q1613.73 34.295 1610.33 36.1584 L1610.33 29.2718 Q1614.42 27.692 1618.27 26.9223 Q1622.12 26.1121 1625.77 26.1121 Q1635.61 26.1121 1640.47 31.2163 Q1645.33 36.3204 1645.33 46.6907 Z" fill="#000000" fill-rule="evenodd" fill-opacity="1" /><path clip-path="url(#clip020)" d="M 0 0 M1688.47 35.9153 Q1691.27 30.8922 1695.16 28.5022 Q1699.05 26.1121 1704.31 26.1121 Q1711.4 26.1121 1715.25 31.0947 Q1719.1 36.0368 1719.1 45.1919 L1719.1 72.576 L1711.6 72.576 L1711.6 45.4349 Q1711.6 38.913 1709.29 35.7533 Q1706.99 32.5936 1702.25 32.5936 Q1696.45 32.5936 1693.09 36.4419 Q1689.73 40.2903 1689.73 46.9338 L1689.73 72.576 L1682.23 72.576 L1682.23 45.4349 Q1682.23 38.8725 1679.93 35.7533 Q1677.62 32.5936 1672.8 32.5936 Q1667.08 32.5936 1663.72 36.4824 Q1660.36 40.3308 1660.36 46.9338 L1660.36 72.576 L1652.87 72.576 L1652.87 27.2059 L1660.36 27.2059 L1660.36 34.2544 Q1662.91 30.082 1666.48 28.0971 Q1670.04 26.1121 1674.94 26.1121 Q1679.89 26.1121 1683.33 28.6237 Q1686.81 31.1352 1688.47 35.9153 Z" fill="#000000" fill-rule="evenodd" fill-opacity="1" /><path clip-path="url(#clip020)" d="M 0 0 M1765.72 48.0275 L1765.72 51.6733 L1731.45 51.6733 Q1731.94 59.3701 1736.07 63.421 Q1740.24 67.4314 1747.66 67.4314 Q1751.95 67.4314 1755.96 66.3781 Q1760.01 65.3249 1763.98 63.2184 L1763.98 70.267 Q1759.97 71.9684 1755.76 72.8596 Q1751.55 73.7508 1747.21 73.7508 Q1736.35 73.7508 1730 67.4314 Q1723.68 61.1119 1723.68 50.3365 Q1723.68 39.1965 1729.67 32.6746 Q1735.71 26.1121 1745.92 26.1121 Q1755.07 26.1121 1760.38 32.0264 Q1765.72 37.9003 1765.72 48.0275 M1758.27 45.84 Q1758.19 39.7232 1754.83 36.0774 Q1751.51 32.4315 1746 32.4315 Q1739.76 32.4315 1735.99 35.9558 Q1732.26 39.4801 1731.7 45.8805 L1758.27 45.84 Z" fill="#000000" fill-rule="evenodd" fill-opacity="1" /><path clip-path="url(#clip020)" d="M 0 0 M1780.91 14.324 L1780.91 27.2059 L1796.27 27.2059 L1796.27 32.9987 L1780.91 32.9987 L1780.91 57.6282 Q1780.91 63.1779 1782.41 64.7578 Q1783.95 66.3376 1788.61 66.3376 L1796.27 66.3376 L1796.27 72.576 L1788.61 72.576 Q1779.98 72.576 1776.7 69.3758 Q1773.42 66.1351 1773.42 57.6282 L1773.42 32.9987 L1767.95 32.9987 L1767.95 27.2059 L1773.42 27.2059 L1773.42 14.324 L1780.91 14.324 Z" fill="#000000" fill-rule="evenodd" fill-opacity="1" /><path clip-path="url(#clip020)" d="M 0 0 M1830.38 34.1734 Q1829.12 33.4443 1827.62 33.1202 Q1826.16 32.7556 1824.38 32.7556 Q1818.06 32.7556 1814.66 36.8875 Q1811.3 40.9789 1811.3 48.6757 L1811.3 72.576 L1803.8 72.576 L1803.8 27.2059 L1811.3 27.2059 L1811.3 34.2544 Q1813.65 30.1225 1817.41 28.1376 Q1821.18 26.1121 1826.57 26.1121 Q1827.34 26.1121 1828.27 26.2337 Q1829.2 26.3147 1830.34 26.5172 L1830.38 34.1734 Z" fill="#000000" fill-rule="evenodd" fill-opacity="1" /><path clip-path="url(#clip020)" d="M 0 0 M1838.19 27.2059 L1845.65 27.2059 L1845.65 72.576 L1838.19 72.576 L1838.19 27.2059 M1838.19 9.54393 L1845.65 9.54393 L1845.65 18.9825 L1838.19 18.9825 L1838.19 9.54393 Z" fill="#000000" fill-rule="evenodd" fill-opacity="1" /><path clip-path="url(#clip020)" d="M 0 0 M1850.23 27.2059 L1885.63 27.2059 L1885.63 34.0114 L1857.6 66.6212 L1885.63 66.6212 L1885.63 72.576 L1849.21 72.576 L1849.21 65.7705 L1877.25 33.1607 L1850.23 33.1607 L1850.23 27.2059 Z" fill="#000000" fill-rule="evenodd" fill-opacity="1" /><path clip-path="url(#clip020)" d="M 0 0 M1932.26 48.0275 L1932.26 51.6733 L1897.99 51.6733 Q1898.47 59.3701 1902.6 63.421 Q1906.78 67.4314 1914.19 67.4314 Q1918.48 67.4314 1922.49 66.3781 Q1926.54 65.3249 1930.51 63.2184 L1930.51 70.267 Q1926.5 71.9684 1922.29 72.8596 Q1918.08 73.7508 1913.74 73.7508 Q1902.89 73.7508 1896.53 67.4314 Q1890.21 61.1119 1890.21 50.3365 Q1890.21 39.1965 1896.2 32.6746 Q1902.24 26.1121 1912.45 26.1121 Q1921.6 26.1121 1926.91 32.0264 Q1932.26 37.9003 1932.26 48.0275 M1924.8 45.84 Q1924.72 39.7232 1921.36 36.0774 Q1918.04 32.4315 1912.53 32.4315 Q1906.29 32.4315 1902.52 35.9558 Q1898.8 39.4801 1898.23 45.8805 L1924.8 45.84 Z" fill="#000000" fill-rule="evenodd" fill-opacity="1" /><path clip-path="url(#clip020)" d="M 0 0 M1969.93 34.0924 L1969.93 9.54393 L1977.38 9.54393 L1977.38 72.576 L1969.93 72.576 L1969.93 65.7705 Q1967.58 69.8214 1963.98 71.8063 Q1960.41 73.7508 1955.39 73.7508 Q1947.16 73.7508 1941.98 67.1883 Q1936.83 60.6258 1936.83 49.9314 Q1936.83 39.2371 1941.98 32.6746 Q1947.16 26.1121 1955.39 26.1121 Q1960.41 26.1121 1963.98 28.0971 Q1967.58 30.0415 1969.93 34.0924 M1944.53 49.9314 Q1944.53 58.1548 1947.89 62.8538 Q1951.3 67.5124 1957.21 67.5124 Q1963.12 67.5124 1966.53 62.8538 Q1969.93 58.1548 1969.93 49.9314 Q1969.93 41.7081 1966.53 37.0496 Q1963.12 32.3505 1957.21 32.3505 Q1951.3 32.3505 1947.89 37.0496 Q1944.53 41.7081 1944.53 49.9314 Z" fill="#000000" fill-rule="evenodd" fill-opacity="1" /><path clip-path="url(#clip020)" d="M 0 0 M2046.9 35.9153 Q2049.69 30.8922 2053.58 28.5022 Q2057.47 26.1121 2062.74 26.1121 Q2069.83 26.1121 2073.67 31.0947 Q2077.52 36.0368 2077.52 45.1919 L2077.52 72.576 L2070.03 72.576 L2070.03 45.4349 Q2070.03 38.913 2067.72 35.7533 Q2065.41 32.5936 2060.67 32.5936 Q2054.88 32.5936 2051.52 36.4419 Q2048.15 40.2903 2048.15 46.9338 L2048.15 72.576 L2040.66 72.576 L2040.66 45.4349 Q2040.66 38.8725 2038.35 35.7533 Q2036.04 32.5936 2031.22 32.5936 Q2025.51 32.5936 2022.15 36.4824 Q2018.78 40.3308 2018.78 46.9338 L2018.78 72.576 L2011.29 72.576 L2011.29 27.2059 L2018.78 27.2059 L2018.78 34.2544 Q2021.34 30.082 2024.9 28.0971 Q2028.47 26.1121 2033.37 26.1121 Q2038.31 26.1121 2041.75 28.6237 Q2045.24 31.1352 2046.9 35.9153 Z" fill="#000000" fill-rule="evenodd" fill-opacity="1" /><path clip-path="url(#clip020)" d="M 0 0 M2102.92 32.4315 Q2096.93 32.4315 2093.44 37.1306 Q2089.96 41.7891 2089.96 49.9314 Q2089.96 58.0738 2093.4 62.7728 Q2096.89 67.4314 2102.92 67.4314 Q2108.88 67.4314 2112.36 62.7323 Q2115.84 58.0333 2115.84 49.9314 Q2115.84 41.8701 2112.36 37.1711 Q2108.88 32.4315 2102.92 32.4315 M2102.92 26.1121 Q2112.64 26.1121 2118.19 32.4315 Q2123.74 38.7509 2123.74 49.9314 Q2123.74 61.0714 2118.19 67.4314 Q2112.64 73.7508 2102.92 73.7508 Q2093.16 73.7508 2087.61 67.4314 Q2082.1 61.0714 2082.1 49.9314 Q2082.1 38.7509 2087.61 32.4315 Q2093.16 26.1121 2102.92 26.1121 Z" fill="#000000" fill-rule="evenodd" fill-opacity="1" /><path clip-path="url(#clip020)" d="M 0 0 M2161.42 34.0924 L2161.42 9.54393 L2168.87 9.54393 L2168.87 72.576 L2161.42 72.576 L2161.42 65.7705 Q2159.07 69.8214 2155.46 71.8063 Q2151.9 73.7508 2146.87 73.7508 Q2138.65 73.7508 2133.47 67.1883 Q2128.32 60.6258 2128.32 49.9314 Q2128.32 39.2371 2133.47 32.6746 Q2138.65 26.1121 2146.87 26.1121 Q2151.9 26.1121 2155.46 28.0971 Q2159.07 30.0415 2161.42 34.0924 M2136.02 49.9314 Q2136.02 58.1548 2139.38 62.8538 Q2142.78 67.5124 2148.7 67.5124 Q2154.61 67.5124 2158.01 62.8538 Q2161.42 58.1548 2161.42 49.9314 Q2161.42 41.7081 2158.01 37.0496 Q2154.61 32.3505 2148.7 32.3505 Q2142.78 32.3505 2139.38 37.0496 Q2136.02 41.7081 2136.02 49.9314 Z" fill="#000000" fill-rule="evenodd" fill-opacity="1" /><path clip-path="url(#clip020)" d="M 0 0 M2215.5 48.0275 L2215.5 51.6733 L2181.23 51.6733 Q2181.71 59.3701 2185.84 63.421 Q2190.02 67.4314 2197.43 67.4314 Q2201.72 67.4314 2205.73 66.3781 Q2209.78 65.3249 2213.75 63.2184 L2213.75 70.267 Q2209.74 71.9684 2205.53 72.8596 Q2201.32 73.7508 2196.98 73.7508 Q2186.13 73.7508 2179.77 67.4314 Q2173.45 61.1119 2173.45 50.3365 Q2173.45 39.1965 2179.44 32.6746 Q2185.48 26.1121 2195.69 26.1121 Q2204.84 26.1121 2210.15 32.0264 Q2215.5 37.9003 2215.5 48.0275 M2208.04 45.84 Q2207.96 39.7232 2204.6 36.0774 Q2201.28 32.4315 2195.77 32.4315 Q2189.53 32.4315 2185.76 35.9558 Q2182.04 39.4801 2181.47 45.8805 L2208.04 45.84 Z" fill="#000000" fill-rule="evenodd" fill-opacity="1" /><path clip-path="url(#clip020)" d="M 0 0 M2223.31 9.54393 L2230.77 9.54393 L2230.77 72.576 L2223.31 72.576 L2223.31 9.54393 Z" fill="#000000" fill-rule="evenodd" fill-opacity="1" /><polyline clip-path="url(#clip022)" style="stroke:#009af9; stroke-width:4; stroke-opacity:1; fill:none" points="
  1384.87,773.323 1384.3,772.936 1378.63,769.069 1361.34,757.382 1336.27,740.68 1303.37,719.2 1262.58,693.213 1222.07,668.087 1177.82,641.4 1132.88,615.097 
  1087.01,589.09 1041.55,564.162 996.93,540.561 953.873,518.643 912.793,498.585 874.077,480.522 837.96,464.499 808.4,452.063 782.059,441.57 756.581,432.032 
  735.743,424.753 717.108,418.71 698.998,413.337 684.289,409.404 671.336,406.324 660.228,404.025 650.75,402.36 642.634,401.194 634.773,400.337 627.784,399.845 
  621.342,399.664 615.377,399.784 610.009,400.185 605.842,400.736 602.08,401.459 598.69,402.338 595.374,403.466 592.274,404.833 589.684,406.29 587.351,407.946 
  585.423,409.667 583.785,411.507 582.421,413.452 581.297,415.531 580.407,417.752 579.747,420.137 579.32,422.701 579.138,425.465 579.215,428.448 579.571,431.673 
  580.231,435.163 581.223,438.941 582.58,443.034 584.338,447.47 586.538,452.279 589.226,457.492 592.453,463.142 596.274,469.266 600.749,475.902 605.945,483.089 
  611.933,490.872 618.793,499.296 626.609,508.408 635.474,518.261 645.488,528.907 656.76,540.404 669.407,552.811 683.554,566.19 699.341,580.608 716.913,596.132 
  736.434,612.835 758.077,630.792 782.036,650.083 808.528,670.795 837.798,693.028 870.145,716.898 905.95,742.564 945.768,770.273 990.581,800.507 1042.9,834.641 
  1110.7,877.137 1164.28,909.402 1221.43,942.549 1274.32,972.046 1325.88,999.675 1374.15,1024.47 1419.51,1046.73 1456.98,1064.28 1494.17,1080.86 1523.64,1093.33 
  1549.82,1103.83 1575.06,1113.36 1595.31,1120.52 1613.2,1126.43 1630.52,1131.71 1644.3,1135.56 1656.5,1138.64 1668.33,1141.31 1677.83,1143.17 1686.32,1144.59 
  1694.56,1145.71 1702.12,1146.46 1709.18,1146.88 1715.74,1146.98 1722.06,1146.73 1727.38,1146.19 1731.51,1145.5 1735.25,1144.64 1738.54,1143.62 1741.71,1142.35 
  1744.64,1140.83 1746.88,1139.36 1748.88,1137.74 1750.56,1136.03 1752.02,1134.19 1753.24,1132.21 1754.26,1130.06 1755.04,1127.73 1755.6,1125.19 1755.91,1122.43 
  1755.94,1119.41 1755.68,1116.12 1755.08,1112.52 1754.12,1108.58 1752.75,1104.27 1750.92,1099.56 1748.58,1094.41 1745.66,1088.78 1742.11,1082.63 1737.86,1075.91 
  1732.82,1068.58 1726.9,1060.59 1720.03,1051.88 1712.1,1042.39 1702.99,1032.08 1692.59,1020.87 1680.78,1008.7 1667.42,995.51 1652.36,981.223 1635.45,965.771 
  1616.53,949.079 1595.4,931.073 1571.89,911.675 1545.77,890.806 1516.82,868.379 1484.77,844.295 1449.29,818.433 1409.93,790.61 1384.87,773.323 
  
  "/>
<polyline clip-path="url(#clip022)" style="stroke:#e26f46; stroke-width:4; stroke-opacity:1; fill:none" points="
  1524.11,773.323 1523.54,772.935 1517.85,769.053 1494.95,753.522 1459.2,729.591 1414.64,700.255 1351.67,659.706 1291.89,622.16 1225.13,581.283 1157.54,541.001 
  1087.9,500.666 1018.59,461.7 950.049,424.364 883.438,389.26 819.335,356.646 758.346,326.758 700.838,299.692 647.077,275.472 597.189,254.049 556.465,237.409 
  515.83,221.674 479.356,208.4 449.609,198.263 422.861,189.761 396.863,182.146 372.702,175.742 353.003,171.091 336.078,167.58 321.806,165.029 309.606,163.197 
  297.826,161.784 287.337,160.872 277.673,160.372 268.834,160.256 260.348,160.512 252.65,161.122 247.193,161.818 241.803,162.764 237.038,163.857 232.326,165.226 
  227.431,167.026 223.371,168.892 219.556,171.048 216.093,173.46 213.158,175.971 210.646,178.605 208.504,181.372 206.69,184.293 205.184,187.385 203.975,190.669 
  203.062,194.164 202.45,197.892 202.151,201.875 202.182,206.138 202.564,210.704 203.324,215.6 204.493,220.855 206.106,226.496 208.202,232.556 210.825,239.065 
  214.022,246.06 217.847,253.577 222.358,261.655 227.617,270.334 233.693,279.658 240.66,289.674 248.598,300.431 257.595,311.98 267.744,324.377 279.148,337.679 
  291.916,351.947 306.165,367.246 322.025,383.645 339.632,401.214 359.135,420.031 380.694,440.173 404.482,461.725 430.686,484.775 459.509,509.415 491.172,535.743 
  525.919,563.865 564.02,593.893 605.782,625.956 651.563,660.201 701.807,696.813 757.098,736.051 818.32,778.329 887.097,824.486 967.916,877.05 1064.36,937.559 
  1145.51,986.686 1230.09,1036.19 1309.54,1081.09 1386.92,1123.29 1459.97,1161.68 1529,1196.59 1593.32,1227.8 1652.87,1255.47 1700.87,1276.8 1743.69,1295.01 
  1784.87,1311.71 1822.47,1326.17 1852.82,1337.22 1879.79,1346.5 1905.81,1354.9 1929.57,1362.04 1948.72,1367.37 1965.82,1371.75 1982.36,1375.61 1997.54,1378.78 
  2010.08,1381.08 2022.62,1383.05 2033.96,1384.5 2044.7,1385.55 2054.68,1386.17 2064.2,1386.4 2073.49,1386.2 2082.19,1385.55 2089.16,1384.63 2095.13,1383.49 
  2100.32,1382.17 2105.05,1380.63 2109.66,1378.75 2113.88,1376.59 2117.16,1374.53 2120.13,1372.28 2122.69,1369.94 2124.96,1367.43 2126.94,1364.76 2128.66,1361.88 
  2130.11,1358.78 2131.29,1355.43 2132.17,1351.79 2132.74,1347.84 2132.97,1343.54 2132.81,1338.85 2132.23,1333.74 2131.17,1328.16 2129.58,1322.08 2127.39,1315.44 
  2124.54,1308.21 2120.94,1300.32 2116.52,1291.72 2111.18,1282.36 2104.83,1272.17 2097.35,1261.09 2088.64,1249.06 2078.57,1236.01 2067,1221.85 2053.79,1206.52 
  2038.79,1189.93 2021.84,1172 2002.75,1152.64 1981.35,1131.76 1957.43,1109.27 1930.78,1085.07 1901.18,1059.08 1868.38,1031.18 1832.14,1001.28 1792.16,969.275 
  1748.15,935.052 1699.76,898.486 1646.57,859.423 1588.04,817.645 1524.11,773.323 
  "/>
<circle clip-path="url(#clip022)" cx="1167.55" cy="773.323" r="14" fill="#3da44d" fill-rule="evenodd" fill-opacity="1" stroke="#000000" stroke-opacity="1" stroke-width="3.2"/>
<path clip-path="url(#clip020)" d="
M1910.48 408.716 L2280.18 408.716 L2280.18 166.796 L1910.48 166.796  Z
  " fill="#ffffff" fill-rule="evenodd" fill-opacity="1"/>
<polyline clip-path="url(#clip020)" style="stroke:#000000; stroke-width:4; stroke-opacity:1; fill:none" points="
  1910.48,408.716 2280.18,408.716 2280.18,166.796 1910.48,166.796 1910.48,408.716 
  "/>
<polyline clip-path="url(#clip020)" style="stroke:#009af9; stroke-width:4; stroke-opacity:1; fill:none" points="
  1934.67,227.276 2079.82,227.276 
  "/>
<path clip-path="url(#clip020)" d="M 0 0 M2104.69 240.621 L2112.33 240.621 L2112.33 214.255 L2104.02 215.922 L2104.02 211.662 L2112.28 209.996 L2116.96 209.996 L2116.96 240.621 L2124.6 240.621 L2124.6 244.556 L2104.69 244.556 L2104.69 240.621 Z" fill="#000000" fill-rule="evenodd" fill-opacity="1" /><path clip-path="url(#clip020)" d="M 0 0 M2139.11 222.01 Q2135.59 222.01 2133.69 224.556 Q2131.7 227.218 2131.7 231.616 Q2131.7 236.269 2133.67 238.954 Q2135.66 241.616 2139.11 241.616 Q2142.51 241.616 2144.5 238.931 Q2146.49 236.246 2146.49 231.616 Q2146.49 227.38 2144.5 224.556 Q2142.67 222.01 2139.11 222.01 M2139.11 218.63 L2153.25 218.63 L2153.25 222.889 L2148.48 222.889 Q2151.01 226.5 2151.01 231.616 Q2151.01 237.982 2147.84 241.593 Q2144.67 245.227 2139.11 245.227 Q2133.53 245.227 2130.38 241.593 Q2127.21 237.982 2127.21 231.616 Q2127.21 225.204 2130.38 221.616 Q2133 218.63 2139.11 218.63 Z" fill="#000000" fill-rule="evenodd" fill-opacity="1" /><path clip-path="url(#clip020)" d="M 0 0 M2198.85 212.658 L2198.85 217.588 Q2196.49 215.389 2193.81 214.301 Q2191.15 213.213 2188.14 213.213 Q2182.21 213.213 2179.06 216.848 Q2175.91 220.459 2175.91 227.31 Q2175.91 234.139 2179.06 237.773 Q2182.21 241.384 2188.14 241.384 Q2191.15 241.384 2193.81 240.296 Q2196.49 239.209 2198.85 237.009 L2198.85 241.894 Q2196.4 243.56 2193.65 244.394 Q2190.91 245.227 2187.86 245.227 Q2180.01 245.227 2175.5 240.435 Q2170.98 235.621 2170.98 227.31 Q2170.98 218.977 2175.5 214.186 Q2180.01 209.371 2187.86 209.371 Q2190.96 209.371 2193.69 210.204 Q2196.45 211.014 2198.85 212.658 Z" fill="#000000" fill-rule="evenodd" fill-opacity="1" /><path clip-path="url(#clip020)" d="M 0 0 M2219.9 228.352 Q2221.4 228.861 2222.81 230.528 Q2224.25 232.195 2225.68 235.111 L2230.43 244.556 L2225.41 244.556 L2220.98 235.69 Q2219.27 232.218 2217.65 231.084 Q2216.05 229.949 2213.28 229.949 L2208.18 229.949 L2208.18 244.556 L2203.51 244.556 L2203.51 209.996 L2214.06 209.996 Q2219.99 209.996 2222.91 212.473 Q2225.82 214.949 2225.82 219.949 Q2225.82 223.213 2224.29 225.366 Q2222.79 227.519 2219.9 228.352 M2208.18 213.838 L2208.18 226.107 L2214.06 226.107 Q2217.44 226.107 2219.16 224.556 Q2220.89 222.982 2220.89 219.949 Q2220.89 216.917 2219.16 215.389 Q2217.44 213.838 2214.06 213.838 L2208.18 213.838 Z" fill="#000000" fill-rule="evenodd" fill-opacity="1" /><polyline clip-path="url(#clip020)" style="stroke:#e26f46; stroke-width:4; stroke-opacity:1; fill:none" points="
  1934.67,287.756 2079.82,287.756 
  "/>
<path clip-path="url(#clip020)" d="M 0 0 M2109.64 301.101 L2125.96 301.101 L2125.96 305.036 L2104.02 305.036 L2104.02 301.101 Q2106.68 298.346 2111.26 293.716 Q2115.87 289.064 2117.05 287.721 Q2119.29 285.198 2120.17 283.462 Q2121.08 281.703 2121.08 280.013 Q2121.08 277.258 2119.13 275.522 Q2117.21 273.786 2114.11 273.786 Q2111.91 273.786 2109.46 274.55 Q2107.03 275.314 2104.25 276.865 L2104.25 272.142 Q2107.07 271.008 2109.53 270.429 Q2111.98 269.851 2114.02 269.851 Q2119.39 269.851 2122.58 272.536 Q2125.78 275.221 2125.78 279.712 Q2125.78 281.841 2124.97 283.763 Q2124.18 285.661 2122.07 288.253 Q2121.49 288.925 2118.39 292.142 Q2115.29 295.337 2109.64 301.101 Z" fill="#000000" fill-rule="evenodd" fill-opacity="1" /><path clip-path="url(#clip020)" d="M 0 0 M2140.48 282.49 Q2136.96 282.49 2135.06 285.036 Q2133.07 287.698 2133.07 292.096 Q2133.07 296.749 2135.04 299.434 Q2137.03 302.096 2140.48 302.096 Q2143.88 302.096 2145.87 299.411 Q2147.86 296.726 2147.86 292.096 Q2147.86 287.86 2145.87 285.036 Q2144.04 282.49 2140.48 282.49 M2140.48 279.11 L2154.62 279.11 L2154.62 283.369 L2149.85 283.369 Q2152.37 286.98 2152.37 292.096 Q2152.37 298.462 2149.2 302.073 Q2146.03 305.707 2140.48 305.707 Q2134.9 305.707 2131.75 302.073 Q2128.58 298.462 2128.58 292.096 Q2128.58 285.684 2131.75 282.096 Q2134.36 279.11 2140.48 279.11 Z" fill="#000000" fill-rule="evenodd" fill-opacity="1" /><path clip-path="url(#clip020)" d="M 0 0 M2200.22 273.138 L2200.22 278.068 Q2197.86 275.869 2195.17 274.781 Q2192.51 273.693 2189.5 273.693 Q2183.58 273.693 2180.43 277.328 Q2177.28 280.939 2177.28 287.79 Q2177.28 294.619 2180.43 298.253 Q2183.58 301.864 2189.5 301.864 Q2192.51 301.864 2195.17 300.776 Q2197.86 299.689 2200.22 297.489 L2200.22 302.374 Q2197.77 304.04 2195.01 304.874 Q2192.28 305.707 2189.22 305.707 Q2181.38 305.707 2176.86 300.915 Q2172.35 296.101 2172.35 287.79 Q2172.35 279.457 2176.86 274.666 Q2181.38 269.851 2189.22 269.851 Q2192.33 269.851 2195.06 270.684 Q2197.81 271.494 2200.22 273.138 Z" fill="#000000" fill-rule="evenodd" fill-opacity="1" /><path clip-path="url(#clip020)" d="M 0 0 M2221.26 288.832 Q2222.77 289.341 2224.18 291.008 Q2225.61 292.675 2227.05 295.591 L2231.79 305.036 L2226.77 305.036 L2222.35 296.17 Q2220.64 292.698 2219.02 291.564 Q2217.42 290.429 2214.64 290.429 L2209.55 290.429 L2209.55 305.036 L2204.87 305.036 L2204.87 270.476 L2215.43 270.476 Q2221.35 270.476 2224.27 272.953 Q2227.19 275.429 2227.19 280.429 Q2227.19 283.693 2225.66 285.846 Q2224.16 287.999 2221.26 288.832 M2209.55 274.318 L2209.55 286.587 L2215.43 286.587 Q2218.81 286.587 2220.52 285.036 Q2222.26 283.462 2222.26 280.429 Q2222.26 277.397 2220.52 275.869 Q2218.81 274.318 2215.43 274.318 L2209.55 274.318 Z" fill="#000000" fill-rule="evenodd" fill-opacity="1" /><circle clip-path="url(#clip020)" cx="2007.25" cy="348.236" r="23" fill="#3da44d" fill-rule="evenodd" fill-opacity="1" stroke="#000000" stroke-opacity="1" stroke-width="5.12"/>
<path clip-path="url(#clip020)" d="M 0 0 M2104.02 330.956 L2110.98 330.956 L2119.8 354.474 L2128.67 330.956 L2135.64 330.956 L2135.64 365.516 L2131.08 365.516 L2131.08 335.169 L2122.17 358.872 L2117.47 358.872 L2108.55 335.169 L2108.55 365.516 L2104.02 365.516 L2104.02 330.956 Z" fill="#000000" fill-rule="evenodd" fill-opacity="1" /><path clip-path="url(#clip020)" d="M 0 0 M2140.29 330.956 L2144.97 330.956 L2144.97 361.581 L2161.79 361.581 L2161.79 365.516 L2140.29 365.516 L2140.29 330.956 Z" fill="#000000" fill-rule="evenodd" fill-opacity="1" /><path clip-path="url(#clip020)" d="M 0 0 M2166.45 330.956 L2188.3 330.956 L2188.3 334.891 L2171.12 334.891 L2171.12 345.122 L2187.58 345.122 L2187.58 349.057 L2171.12 349.057 L2171.12 361.581 L2188.72 361.581 L2188.72 365.516 L2166.45 365.516 L2166.45 330.956 Z" fill="#000000" fill-rule="evenodd" fill-opacity="1" /></svg>
