<?xml version="1.0" encoding="utf-8"?>
<svg xmlns="http://www.w3.org/2000/svg" xmlns:xlink="http://www.w3.org/1999/xlink" width="600" height="400" viewBox="0 0 2400 1600">
<defs>
  <clipPath id="clip560">
    <rect x="0" y="0" width="2400" height="1600"/>
  </clipPath>
</defs>
<path clip-path="url(#clip560)" d="
M0 1600 L2400 1600 L2400 0 L0 0  Z
  " fill="#ffffff" fill-rule="evenodd" fill-opacity="1"/>
<defs>
  <clipPath id="clip561">
    <rect x="480" y="0" width="1681" height="1600"/>
  </clipPath>
</defs>
<path clip-path="url(#clip560)" d="
M175.445 1423.18 L2352.76 1423.18 L2352.76 123.472 L175.445 123.472  Z
  " fill="#ffffff" fill-rule="evenodd" fill-opacity="1"/>
<defs>
  <clipPath id="clip562">
    <rect x="175" y="123" width="2178" height="1301"/>
  </clipPath>
</defs>
<polyline clip-path="url(#clip562)" style="stroke:#000000; stroke-width:2; stroke-opacity:0.1; fill:none" points="
  435.855,1423.18 435.855,123.472 
  "/>
<polyline clip-path="url(#clip562)" style="stroke:#000000; stroke-width:2; stroke-opacity:0.1; fill:none" points="
  936.588,1423.18 936.588,123.472 
  "/>
<polyline clip-path="url(#clip562)" style="stroke:#000000; stroke-width:2; stroke-opacity:0.1; fill:none" points="
  1437.32,1423.18 1437.32,123.472 
  "/>
<polyline clip-path="url(#clip562)" style="stroke:#000000; stroke-width:2; stroke-opacity:0.1; fill:none" points="
  1938.05,1423.18 1938.05,123.472 
  "/>
<polyline clip-path="url(#clip560)" style="stroke:#000000; stroke-width:4; stroke-opacity:1; fill:none" points="
  175.445,1423.18 2352.76,1423.18 
  "/>
<polyline clip-path="url(#clip560)" style="stroke:#000000; stroke-width:4; stroke-opacity:1; fill:none" points="
  435.855,1423.18 435.855,1407.58 
  "/>
<polyline clip-path="url(#clip560)" style="stroke:#000000; stroke-width:4; stroke-opacity:1; fill:none" points="
  936.588,1423.18 936.588,1407.58 
  "/>
<polyline clip-path="url(#clip560)" style="stroke:#000000; stroke-width:4; stroke-opacity:1; fill:none" points="
  1437.32,1423.18 1437.32,1407.58 
  "/>
<polyline clip-path="url(#clip560)" style="stroke:#000000; stroke-width:4; stroke-opacity:1; fill:none" points="
  1938.05,1423.18 1938.05,1407.58 
  "/>
<path clip-path="url(#clip560)" d="M 0 0 M417.869 1452.37 Q414.258 1452.37 412.43 1455.94 Q410.624 1459.48 410.624 1466.61 Q410.624 1473.71 412.43 1477.28 Q414.258 1480.82 417.869 1480.82 Q421.504 1480.82 423.309 1477.28 Q425.138 1473.71 425.138 1466.61 Q425.138 1459.48 423.309 1455.94 Q421.504 1452.37 417.869 1452.37 M417.869 1448.67 Q423.68 1448.67 426.735 1453.27 Q429.814 1457.86 429.814 1466.61 Q429.814 1475.33 426.735 1479.94 Q423.68 1484.52 417.869 1484.52 Q412.059 1484.52 408.981 1479.94 Q405.925 1475.33 405.925 1466.61 Q405.925 1457.86 408.981 1453.27 Q412.059 1448.67 417.869 1448.67 Z" fill="#000000" fill-rule="evenodd" fill-opacity="1" /><path clip-path="url(#clip560)" d="M 0 0 M434.883 1477.97 L439.767 1477.97 L439.767 1483.85 L434.883 1483.85 L434.883 1477.97 Z" fill="#000000" fill-rule="evenodd" fill-opacity="1" /><path clip-path="url(#clip560)" d="M 0 0 M444.883 1449.29 L463.24 1449.29 L463.24 1453.23 L449.166 1453.23 L449.166 1461.7 Q450.184 1461.35 451.203 1461.19 Q452.221 1461 453.24 1461 Q459.027 1461 462.406 1464.18 Q465.786 1467.35 465.786 1472.76 Q465.786 1478.34 462.314 1481.44 Q458.841 1484.52 452.522 1484.52 Q450.346 1484.52 448.078 1484.15 Q445.832 1483.78 443.425 1483.04 L443.425 1478.34 Q445.508 1479.48 447.73 1480.03 Q449.953 1480.59 452.429 1480.59 Q456.434 1480.59 458.772 1478.48 Q461.11 1476.38 461.11 1472.76 Q461.11 1469.15 458.772 1467.05 Q456.434 1464.94 452.429 1464.94 Q450.554 1464.94 448.679 1465.36 Q446.828 1465.77 444.883 1466.65 L444.883 1449.29 Z" fill="#000000" fill-rule="evenodd" fill-opacity="1" /><path clip-path="url(#clip560)" d="M 0 0 M908.486 1479.92 L916.125 1479.92 L916.125 1453.55 L907.815 1455.22 L907.815 1450.96 L916.079 1449.29 L920.755 1449.29 L920.755 1479.92 L928.393 1479.92 L928.393 1483.85 L908.486 1483.85 L908.486 1479.92 Z" fill="#000000" fill-rule="evenodd" fill-opacity="1" /><path clip-path="url(#clip560)" d="M 0 0 M933.463 1477.97 L938.347 1477.97 L938.347 1483.85 L933.463 1483.85 L933.463 1477.97 Z" fill="#000000" fill-rule="evenodd" fill-opacity="1" /><path clip-path="url(#clip560)" d="M 0 0 M953.417 1452.37 Q949.805 1452.37 947.977 1455.94 Q946.171 1459.48 946.171 1466.61 Q946.171 1473.71 947.977 1477.28 Q949.805 1480.82 953.417 1480.82 Q957.051 1480.82 958.856 1477.28 Q960.685 1473.71 960.685 1466.61 Q960.685 1459.48 958.856 1455.94 Q957.051 1452.37 953.417 1452.37 M953.417 1448.67 Q959.227 1448.67 962.282 1453.27 Q965.361 1457.86 965.361 1466.61 Q965.361 1475.33 962.282 1479.94 Q959.227 1484.52 953.417 1484.52 Q947.606 1484.52 944.528 1479.94 Q941.472 1475.33 941.472 1466.61 Q941.472 1457.86 944.528 1453.27 Q947.606 1448.67 953.417 1448.67 Z" fill="#000000" fill-rule="evenodd" fill-opacity="1" /><path clip-path="url(#clip560)" d="M 0 0 M1409.72 1479.92 L1417.36 1479.92 L1417.36 1453.55 L1409.05 1455.22 L1409.05 1450.96 L1417.31 1449.29 L1421.98 1449.29 L1421.98 1479.92 L1429.62 1479.92 L1429.62 1483.85 L1409.72 1483.85 L1409.72 1479.92 Z" fill="#000000" fill-rule="evenodd" fill-opacity="1" /><path clip-path="url(#clip560)" d="M 0 0 M1434.69 1477.97 L1439.58 1477.97 L1439.58 1483.85 L1434.69 1483.85 L1434.69 1477.97 Z" fill="#000000" fill-rule="evenodd" fill-opacity="1" /><path clip-path="url(#clip560)" d="M 0 0 M1444.69 1449.29 L1463.05 1449.29 L1463.05 1453.23 L1448.98 1453.23 L1448.98 1461.7 Q1449.99 1461.35 1451.01 1461.19 Q1452.03 1461 1453.05 1461 Q1458.84 1461 1462.22 1464.18 Q1465.6 1467.35 1465.6 1472.76 Q1465.6 1478.34 1462.12 1481.44 Q1458.65 1484.52 1452.33 1484.52 Q1450.16 1484.52 1447.89 1484.15 Q1445.64 1483.78 1443.23 1483.04 L1443.23 1478.34 Q1445.32 1479.48 1447.54 1480.03 Q1449.76 1480.59 1452.24 1480.59 Q1456.24 1480.59 1458.58 1478.48 Q1460.92 1476.38 1460.92 1472.76 Q1460.92 1469.15 1458.58 1467.05 Q1456.24 1464.94 1452.24 1464.94 Q1450.36 1464.94 1448.49 1465.36 Q1446.64 1465.77 1444.69 1466.65 L1444.69 1449.29 Z" fill="#000000" fill-rule="evenodd" fill-opacity="1" /><path clip-path="url(#clip560)" d="M 0 0 M1914.22 1479.92 L1930.54 1479.92 L1930.54 1483.85 L1908.6 1483.85 L1908.6 1479.92 Q1911.26 1477.16 1915.84 1472.53 Q1920.45 1467.88 1921.63 1466.54 Q1923.87 1464.01 1924.75 1462.28 Q1925.66 1460.52 1925.66 1458.83 Q1925.66 1456.07 1923.71 1454.34 Q1921.79 1452.6 1918.69 1452.6 Q1916.49 1452.6 1914.04 1453.37 Q1911.61 1454.13 1908.83 1455.68 L1908.83 1450.96 Q1911.65 1449.82 1914.11 1449.25 Q1916.56 1448.67 1918.6 1448.67 Q1923.97 1448.67 1927.16 1451.35 Q1930.36 1454.04 1930.36 1458.53 Q1930.36 1460.66 1929.55 1462.58 Q1928.76 1464.48 1926.65 1467.07 Q1926.07 1467.74 1922.97 1470.96 Q1919.87 1474.15 1914.22 1479.92 Z" fill="#000000" fill-rule="evenodd" fill-opacity="1" /><path clip-path="url(#clip560)" d="M 0 0 M1935.61 1477.97 L1940.5 1477.97 L1940.5 1483.85 L1935.61 1483.85 L1935.61 1477.97 Z" fill="#000000" fill-rule="evenodd" fill-opacity="1" /><path clip-path="url(#clip560)" d="M 0 0 M1955.56 1452.37 Q1951.95 1452.37 1950.12 1455.94 Q1948.32 1459.48 1948.32 1466.61 Q1948.32 1473.71 1950.12 1477.28 Q1951.95 1480.82 1955.56 1480.82 Q1959.2 1480.82 1961 1477.28 Q1962.83 1473.71 1962.83 1466.61 Q1962.83 1459.48 1961 1455.94 Q1959.2 1452.37 1955.56 1452.37 M1955.56 1448.67 Q1961.37 1448.67 1964.43 1453.27 Q1967.51 1457.86 1967.51 1466.61 Q1967.51 1475.33 1964.43 1479.94 Q1961.37 1484.52 1955.56 1484.52 Q1949.75 1484.52 1946.68 1479.94 Q1943.62 1475.33 1943.62 1466.61 Q1943.62 1457.86 1946.68 1453.27 Q1949.75 1448.67 1955.56 1448.67 Z" fill="#000000" fill-rule="evenodd" fill-opacity="1" /><path clip-path="url(#clip560)" d="M 0 0 M1237.03 1533.45 L1216.76 1533.45 Q1217.23 1542.96 1219.43 1547 Q1222.17 1551.97 1226.91 1551.97 Q1231.68 1551.97 1234.32 1546.97 Q1236.65 1542.58 1237.03 1533.45 M1236.93 1528.03 Q1236.04 1519 1234.32 1515.81 Q1231.59 1510.78 1226.91 1510.78 Q1222.04 1510.78 1219.46 1515.75 Q1217.42 1519.76 1216.82 1528.03 L1236.93 1528.03 M1226.91 1506.01 Q1234.55 1506.01 1238.91 1512.76 Q1243.27 1519.47 1243.27 1531.38 Q1243.27 1543.25 1238.91 1550 Q1234.55 1556.78 1226.91 1556.78 Q1219.24 1556.78 1214.91 1550 Q1210.55 1543.25 1210.55 1531.38 Q1210.55 1519.47 1214.91 1512.76 Q1219.24 1506.01 1226.91 1506.01 Z" fill="#000000" fill-rule="evenodd" fill-opacity="1" /><path clip-path="url(#clip560)" d="M 0 0 M1248.87 1506.52 L1262.37 1506.52 L1262.37 1511.07 L1254.73 1511.07 L1254.73 1560.09 L1262.37 1560.09 L1262.37 1564.64 L1248.87 1564.64 L1248.87 1506.52 Z" fill="#000000" fill-rule="evenodd" fill-opacity="1" /><path clip-path="url(#clip560)" d="M 0 0 M1270.45 1550.63 L1280.95 1550.63 L1280.95 1514.38 L1269.53 1516.67 L1269.53 1510.82 L1280.89 1508.52 L1287.32 1508.52 L1287.32 1550.63 L1297.82 1550.63 L1297.82 1556.04 L1270.45 1556.04 L1270.45 1550.63 Z" fill="#000000" fill-rule="evenodd" fill-opacity="1" /><path clip-path="url(#clip560)" d="M 0 0 M1317.65 1506.52 L1317.65 1564.64 L1304.16 1564.64 L1304.16 1560.09 L1311.76 1560.09 L1311.76 1511.07 L1304.16 1511.07 L1304.16 1506.52 L1317.65 1506.52 Z" fill="#000000" fill-rule="evenodd" fill-opacity="1" /><polyline clip-path="url(#clip562)" style="stroke:#000000; stroke-width:2; stroke-opacity:0.1; fill:none" points="
  175.445,1297.5 2352.76,1297.5 
  "/>
<polyline clip-path="url(#clip562)" style="stroke:#000000; stroke-width:2; stroke-opacity:0.1; fill:none" points="
  175.445,985.741 2352.76,985.741 
  "/>
<polyline clip-path="url(#clip562)" style="stroke:#000000; stroke-width:2; stroke-opacity:0.1; fill:none" points="
  175.445,673.979 2352.76,673.979 
  "/>
<polyline clip-path="url(#clip562)" style="stroke:#000000; stroke-width:2; stroke-opacity:0.1; fill:none" points="
  175.445,362.218 2352.76,362.218 
  "/>
<polyline clip-path="url(#clip560)" style="stroke:#000000; stroke-width:4; stroke-opacity:1; fill:none" points="
  175.445,1423.18 175.445,123.472 
  "/>
<polyline clip-path="url(#clip560)" style="stroke:#000000; stroke-width:4; stroke-opacity:1; fill:none" points="
  175.445,1297.5 201.573,1297.5 
  "/>
<polyline clip-path="url(#clip560)" style="stroke:#000000; stroke-width:4; stroke-opacity:1; fill:none" points="
  175.445,985.741 201.573,985.741 
  "/>
<polyline clip-path="url(#clip560)" style="stroke:#000000; stroke-width:4; stroke-opacity:1; fill:none" points="
  175.445,673.979 201.573,673.979 
  "/>
<polyline clip-path="url(#clip560)" style="stroke:#000000; stroke-width:4; stroke-opacity:1; fill:none" points="
  175.445,362.218 201.573,362.218 
  "/>
<path clip-path="url(#clip560)" d="M 0 0 M119.538 1310.85 L127.177 1310.85 L127.177 1284.48 L118.867 1286.15 L118.867 1281.89 L127.13 1280.22 L131.806 1280.22 L131.806 1310.85 L139.445 1310.85 L139.445 1314.78 L119.538 1314.78 L119.538 1310.85 Z" fill="#000000" fill-rule="evenodd" fill-opacity="1" /><path clip-path="url(#clip560)" d="M 0 0 M123.126 999.086 L139.445 999.086 L139.445 1003.02 L117.501 1003.02 L117.501 999.086 Q120.163 996.331 124.746 991.702 Q129.353 987.049 130.533 985.706 Q132.779 983.183 133.658 981.447 Q134.561 979.688 134.561 977.998 Q134.561 975.243 132.617 973.507 Q130.695 971.771 127.593 971.771 Q125.394 971.771 122.941 972.535 Q120.51 973.299 117.732 974.85 L117.732 970.128 Q120.556 968.993 123.01 968.415 Q125.464 967.836 127.501 967.836 Q132.871 967.836 136.066 970.521 Q139.26 973.206 139.26 977.697 Q139.26 979.827 138.45 981.748 Q137.663 983.646 135.556 986.239 Q134.978 986.91 131.876 990.127 Q128.774 993.322 123.126 999.086 Z" fill="#000000" fill-rule="evenodd" fill-opacity="1" /><path clip-path="url(#clip560)" d="M 0 0 M132.316 672.625 Q135.672 673.343 137.547 675.611 Q139.445 677.88 139.445 681.213 Q139.445 686.329 135.927 689.13 Q132.408 691.931 125.927 691.931 Q123.751 691.931 121.436 691.491 Q119.144 691.074 116.691 690.218 L116.691 685.704 Q118.635 686.838 120.95 687.417 Q123.265 687.996 125.788 687.996 Q130.186 687.996 132.478 686.259 Q134.792 684.523 134.792 681.213 Q134.792 678.158 132.64 676.445 Q130.51 674.709 126.691 674.709 L122.663 674.709 L122.663 670.866 L126.876 670.866 Q130.325 670.866 132.154 669.5 Q133.982 668.111 133.982 665.519 Q133.982 662.857 132.084 661.445 Q130.209 660.01 126.691 660.01 Q124.769 660.01 122.57 660.426 Q120.371 660.843 117.732 661.723 L117.732 657.556 Q120.394 656.815 122.709 656.445 Q125.047 656.074 127.107 656.074 Q132.431 656.074 135.533 658.505 Q138.635 660.912 138.635 665.033 Q138.635 667.903 136.992 669.894 Q135.348 671.861 132.316 672.625 Z" fill="#000000" fill-rule="evenodd" fill-opacity="1" /><path clip-path="url(#clip560)" d="M 0 0 M129.862 349.012 L118.056 367.461 L129.862 367.461 L129.862 349.012 M128.635 344.938 L134.515 344.938 L134.515 367.461 L139.445 367.461 L139.445 371.35 L134.515 371.35 L134.515 379.498 L129.862 379.498 L129.862 371.35 L114.26 371.35 L114.26 366.836 L128.635 344.938 Z" fill="#000000" fill-rule="evenodd" fill-opacity="1" /><path clip-path="url(#clip560)" d="M 0 0 M65.4059 800.142 L65.4059 820.416 Q74.9226 819.939 78.9649 817.743 Q83.9301 815.005 83.9301 810.263 Q83.9301 805.489 78.933 802.847 Q74.5407 800.523 65.4059 800.142 M59.995 800.237 Q50.9557 801.128 47.7729 802.847 Q42.744 805.584 42.744 810.263 Q42.744 815.133 47.7092 817.711 Q51.7196 819.748 59.995 820.353 L59.995 800.237 M37.9697 810.263 Q37.9697 802.624 44.7174 798.264 Q51.4332 793.903 63.337 793.903 Q75.2091 793.903 81.9567 798.264 Q88.7362 802.624 88.7362 810.263 Q88.7362 817.934 81.9567 822.262 Q75.2091 826.623 63.337 826.623 Q51.4332 826.623 44.7174 822.262 Q37.9697 817.934 37.9697 810.263 Z" fill="#000000" fill-rule="evenodd" fill-opacity="1" /><path clip-path="url(#clip560)" d="M 0 0 M38.479 788.301 L38.479 774.806 L43.0304 774.806 L43.0304 782.445 L92.0464 782.445 L92.0464 774.806 L96.5979 774.806 L96.5979 788.301 L38.479 788.301 Z" fill="#000000" fill-rule="evenodd" fill-opacity="1" /><path clip-path="url(#clip560)" d="M 0 0 M82.5933 762.297 L82.5933 739.858 L88.0042 739.858 L88.0042 770.032 L82.5933 770.032 Q78.8057 766.371 72.44 760.069 Q66.0425 753.736 64.1964 752.112 Q60.7271 749.025 58.34 747.815 Q55.921 746.574 53.5975 746.574 Q49.8099 746.574 47.4228 749.248 Q45.0356 751.889 45.0356 756.154 Q45.0356 759.178 46.086 762.552 Q47.1363 765.894 49.2688 769.713 L42.7758 769.713 Q41.2162 765.83 40.4205 762.457 Q39.6248 759.083 39.6248 756.282 Q39.6248 748.898 43.3169 744.505 Q47.009 740.113 53.1837 740.113 Q56.112 740.113 58.7537 741.227 Q61.3637 742.309 64.9285 745.205 Q65.8515 746.001 70.2757 750.266 Q74.668 754.531 82.5933 762.297 Z" fill="#000000" fill-rule="evenodd" fill-opacity="1" /><path clip-path="url(#clip560)" d="M 0 0 M38.479 720.029 L96.5979 720.029 L96.5979 733.524 L92.0464 733.524 L92.0464 725.917 L43.0304 725.917 L43.0304 733.524 L38.479 733.524 L38.479 720.029 Z" fill="#000000" fill-rule="evenodd" fill-opacity="1" /><path clip-path="url(#clip560)" d="M 0 0 M346.206 16.7545 L346.206 25.383 Q342.074 21.5346 337.375 19.6307 Q332.717 17.7268 327.45 17.7268 Q317.08 17.7268 311.571 24.0867 Q306.062 30.4061 306.062 42.3968 Q306.062 54.3469 311.571 60.7069 Q317.08 67.0263 327.45 67.0263 Q332.717 67.0263 337.375 65.1223 Q342.074 63.2184 346.206 59.3701 L346.206 67.9175 Q341.912 70.8341 337.092 72.2924 Q332.312 73.7508 326.964 73.7508 Q313.232 73.7508 305.333 65.3654 Q297.433 56.9395 297.433 42.3968 Q297.433 27.8135 305.333 19.4281 Q313.232 11.0023 326.964 11.0023 Q332.393 11.0023 337.173 12.4606 Q341.993 13.8784 346.206 16.7545 Z" fill="#000000" fill-rule="evenodd" fill-opacity="1" /><path clip-path="url(#clip560)" d="M 0 0 M371.605 32.4315 Q365.61 32.4315 362.126 37.1306 Q358.642 41.7891 358.642 49.9314 Q358.642 58.0738 362.086 62.7728 Q365.569 67.4314 371.605 67.4314 Q377.56 67.4314 381.044 62.7323 Q384.528 58.0333 384.528 49.9314 Q384.528 41.8701 381.044 37.1711 Q377.56 32.4315 371.605 32.4315 M371.605 26.1121 Q381.328 26.1121 386.877 32.4315 Q392.427 38.7509 392.427 49.9314 Q392.427 61.0714 386.877 67.4314 Q381.328 73.7508 371.605 73.7508 Q361.843 73.7508 356.293 67.4314 Q350.784 61.0714 350.784 49.9314 Q350.784 38.7509 356.293 32.4315 Q361.843 26.1121 371.605 26.1121 Z" fill="#000000" fill-rule="evenodd" fill-opacity="1" /><path clip-path="url(#clip560)" d="M 0 0 M437.959 45.1919 L437.959 72.576 L430.505 72.576 L430.505 45.4349 Q430.505 38.994 427.994 35.7938 Q425.482 32.5936 420.459 32.5936 Q414.423 32.5936 410.94 36.4419 Q407.456 40.2903 407.456 46.9338 L407.456 72.576 L399.962 72.576 L399.962 27.2059 L407.456 27.2059 L407.456 34.2544 Q410.129 30.163 413.735 28.1376 Q417.381 26.1121 422.12 26.1121 Q429.938 26.1121 433.949 30.9732 Q437.959 35.7938 437.959 45.1919 Z" fill="#000000" fill-rule="evenodd" fill-opacity="1" /><path clip-path="url(#clip560)" d="M 0 0 M468.746 9.54393 L468.746 15.7418 L461.616 15.7418 Q457.606 15.7418 456.026 17.3622 Q454.487 18.9825 454.487 23.1955 L454.487 27.2059 L466.761 27.2059 L466.761 32.9987 L454.487 32.9987 L454.487 72.576 L446.993 72.576 L446.993 32.9987 L439.863 32.9987 L439.863 27.2059 L446.993 27.2059 L446.993 24.0462 Q446.993 16.471 450.517 13.0277 Q454.041 9.54393 461.697 9.54393 L468.746 9.54393 Z" fill="#000000" fill-rule="evenodd" fill-opacity="1" /><path clip-path="url(#clip560)" d="M 0 0 M476.564 27.2059 L484.018 27.2059 L484.018 72.576 L476.564 72.576 L476.564 27.2059 M476.564 9.54393 L484.018 9.54393 L484.018 18.9825 L476.564 18.9825 L476.564 9.54393 Z" fill="#000000" fill-rule="evenodd" fill-opacity="1" /><path clip-path="url(#clip560)" d="M 0 0 M521.691 34.0924 L521.691 9.54393 L529.145 9.54393 L529.145 72.576 L521.691 72.576 L521.691 65.7705 Q519.342 69.8214 515.737 71.8063 Q512.172 73.7508 507.149 73.7508 Q498.925 73.7508 493.74 67.1883 Q488.595 60.6258 488.595 49.9314 Q488.595 39.2371 493.74 32.6746 Q498.925 26.1121 507.149 26.1121 Q512.172 26.1121 515.737 28.0971 Q519.342 30.0415 521.691 34.0924 M496.292 49.9314 Q496.292 58.1548 499.654 62.8538 Q503.057 67.5124 508.972 67.5124 Q514.886 67.5124 518.289 62.8538 Q521.691 58.1548 521.691 49.9314 Q521.691 41.7081 518.289 37.0496 Q514.886 32.3505 508.972 32.3505 Q503.057 32.3505 499.654 37.0496 Q496.292 41.7081 496.292 49.9314 Z" fill="#000000" fill-rule="evenodd" fill-opacity="1" /><path clip-path="url(#clip560)" d="M 0 0 M575.771 48.0275 L575.771 51.6733 L541.5 51.6733 Q541.986 59.3701 546.118 63.421 Q550.291 67.4314 557.704 67.4314 Q561.998 67.4314 566.008 66.3781 Q570.059 65.3249 574.029 63.2184 L574.029 70.267 Q570.019 71.9684 565.806 72.8596 Q561.593 73.7508 557.258 73.7508 Q546.402 73.7508 540.042 67.4314 Q533.723 61.1119 533.723 50.3365 Q533.723 39.1965 539.718 32.6746 Q545.754 26.1121 555.962 26.1121 Q565.117 26.1121 570.424 32.0264 Q575.771 37.9003 575.771 48.0275 M568.317 45.84 Q568.236 39.7232 564.874 36.0774 Q561.552 32.4315 556.043 32.4315 Q549.805 32.4315 546.037 35.9558 Q542.31 39.4801 541.743 45.8805 L568.317 45.84 Z" fill="#000000" fill-rule="evenodd" fill-opacity="1" /><path clip-path="url(#clip560)" d="M 0 0 M621.303 45.1919 L621.303 72.576 L613.849 72.576 L613.849 45.4349 Q613.849 38.994 611.338 35.7938 Q608.826 32.5936 603.803 32.5936 Q597.767 32.5936 594.284 36.4419 Q590.8 40.2903 590.8 46.9338 L590.8 72.576 L583.306 72.576 L583.306 27.2059 L590.8 27.2059 L590.8 34.2544 Q593.473 30.163 597.079 28.1376 Q600.724 26.1121 605.464 26.1121 Q613.282 26.1121 617.293 30.9732 Q621.303 35.7938 621.303 45.1919 Z" fill="#000000" fill-rule="evenodd" fill-opacity="1" /><path clip-path="url(#clip560)" d="M 0 0 M661.772 28.9478 L661.772 35.9153 Q658.612 34.1734 655.412 33.3227 Q652.252 32.4315 649.011 32.4315 Q641.76 32.4315 637.75 37.0496 Q633.739 41.6271 633.739 49.9314 Q633.739 58.2358 637.75 62.8538 Q641.76 67.4314 649.011 67.4314 Q652.252 67.4314 655.412 66.5807 Q658.612 65.6895 661.772 63.9476 L661.772 70.8341 Q658.652 72.2924 655.29 73.0216 Q651.968 73.7508 648.201 73.7508 Q637.952 73.7508 631.916 67.3098 Q625.881 60.8689 625.881 49.9314 Q625.881 38.832 631.957 32.472 Q638.074 26.1121 648.687 26.1121 Q652.13 26.1121 655.412 26.8413 Q658.693 27.5299 661.772 28.9478 Z" fill="#000000" fill-rule="evenodd" fill-opacity="1" /><path clip-path="url(#clip560)" d="M 0 0 M708.398 48.0275 L708.398 51.6733 L674.127 51.6733 Q674.613 59.3701 678.745 63.421 Q682.917 67.4314 690.33 67.4314 Q694.624 67.4314 698.635 66.3781 Q702.686 65.3249 706.656 63.2184 L706.656 70.267 Q702.645 71.9684 698.432 72.8596 Q694.219 73.7508 689.885 73.7508 Q679.028 73.7508 672.669 67.4314 Q666.349 61.1119 666.349 50.3365 Q666.349 39.1965 672.344 32.6746 Q678.38 26.1121 688.589 26.1121 Q697.744 26.1121 703.05 32.0264 Q708.398 37.9003 708.398 48.0275 M700.944 45.84 Q700.863 39.7232 697.501 36.0774 Q694.179 32.4315 688.67 32.4315 Q682.431 32.4315 678.664 35.9558 Q674.937 39.4801 674.37 45.8805 L700.944 45.84 Z" fill="#000000" fill-rule="evenodd" fill-opacity="1" /><path clip-path="url(#clip560)" d="M 0 0 M771.592 44.2197 Q774.225 45.1109 776.696 48.0275 Q779.207 50.9442 781.719 56.0483 L790.023 72.576 L781.233 72.576 L773.496 57.061 Q770.498 50.9847 767.662 48.9997 Q764.867 47.0148 760.006 47.0148 L751.094 47.0148 L751.094 72.576 L742.911 72.576 L742.911 12.096 L761.383 12.096 Q771.754 12.096 776.858 16.4305 Q781.962 20.7649 781.962 29.5149 Q781.962 35.2267 779.288 38.994 Q776.655 42.7613 771.592 44.2197 M751.094 18.8205 L751.094 40.2903 L761.383 40.2903 Q767.298 40.2903 770.295 37.5762 Q773.334 34.8216 773.334 29.5149 Q773.334 24.2082 770.295 21.5346 Q767.298 18.8205 761.383 18.8205 L751.094 18.8205 Z" fill="#000000" fill-rule="evenodd" fill-opacity="1" /><path clip-path="url(#clip560)" d="M 0 0 M832.922 48.0275 L832.922 51.6733 L798.652 51.6733 Q799.138 59.3701 803.27 63.421 Q807.442 67.4314 814.855 67.4314 Q819.149 67.4314 823.16 66.3781 Q827.211 65.3249 831.18 63.2184 L831.18 70.267 Q827.17 71.9684 822.957 72.8596 Q818.744 73.7508 814.41 73.7508 Q803.553 73.7508 797.193 67.4314 Q790.874 61.1119 790.874 50.3365 Q790.874 39.1965 796.869 32.6746 Q802.905 26.1121 813.113 26.1121 Q822.268 26.1121 827.575 32.0264 Q832.922 37.9003 832.922 48.0275 M825.469 45.84 Q825.388 39.7232 822.025 36.0774 Q818.704 32.4315 813.194 32.4315 Q806.956 32.4315 803.189 35.9558 Q799.462 39.4801 798.895 45.8805 L825.469 45.84 Z" fill="#000000" fill-rule="evenodd" fill-opacity="1" /><path clip-path="url(#clip560)" d="M 0 0 M870.596 49.3643 Q870.596 41.2625 867.233 36.8065 Q863.912 32.3505 857.876 32.3505 Q851.881 32.3505 848.518 36.8065 Q845.197 41.2625 845.197 49.3643 Q845.197 57.4256 848.518 61.8816 Q851.881 66.3376 857.876 66.3376 Q863.912 66.3376 867.233 61.8816 Q870.596 57.4256 870.596 49.3643 M878.049 66.9452 Q878.049 78.5308 872.905 84.1616 Q867.76 89.8329 857.147 89.8329 Q853.217 89.8329 849.734 89.2252 Q846.25 88.6581 842.969 87.4428 L842.969 80.1917 Q846.25 81.9741 849.45 82.8248 Q852.65 83.6755 855.972 83.6755 Q863.304 83.6755 866.95 79.8271 Q870.596 76.0193 870.596 68.282 L870.596 64.5957 Q868.287 68.6061 864.681 70.5911 Q861.076 72.576 856.053 72.576 Q847.708 72.576 842.604 66.2161 Q837.5 59.8562 837.5 49.3643 Q837.5 38.832 842.604 32.472 Q847.708 26.1121 856.053 26.1121 Q861.076 26.1121 864.681 28.0971 Q868.287 30.082 870.596 34.0924 L870.596 27.2059 L878.049 27.2059 L878.049 66.9452 Z" fill="#000000" fill-rule="evenodd" fill-opacity="1" /><path clip-path="url(#clip560)" d="M 0 0 M885.868 27.2059 L893.321 27.2059 L893.321 72.576 L885.868 72.576 L885.868 27.2059 M885.868 9.54393 L893.321 9.54393 L893.321 18.9825 L885.868 18.9825 L885.868 9.54393 Z" fill="#000000" fill-rule="evenodd" fill-opacity="1" /><path clip-path="url(#clip560)" d="M 0 0 M918.72 32.4315 Q912.725 32.4315 909.241 37.1306 Q905.758 41.7891 905.758 49.9314 Q905.758 58.0738 909.201 62.7728 Q912.685 67.4314 918.72 67.4314 Q924.675 67.4314 928.159 62.7323 Q931.643 58.0333 931.643 49.9314 Q931.643 41.8701 928.159 37.1711 Q924.675 32.4315 918.72 32.4315 M918.72 26.1121 Q928.443 26.1121 933.992 32.4315 Q939.542 38.7509 939.542 49.9314 Q939.542 61.0714 933.992 67.4314 Q928.443 73.7508 918.72 73.7508 Q908.958 73.7508 903.408 67.4314 Q897.899 61.0714 897.899 49.9314 Q897.899 38.7509 903.408 32.4315 Q908.958 26.1121 918.72 26.1121 Z" fill="#000000" fill-rule="evenodd" fill-opacity="1" /><path clip-path="url(#clip560)" d="M 0 0 M985.074 45.1919 L985.074 72.576 L977.621 72.576 L977.621 45.4349 Q977.621 38.994 975.109 35.7938 Q972.597 32.5936 967.574 32.5936 Q961.539 32.5936 958.055 36.4419 Q954.571 40.2903 954.571 46.9338 L954.571 72.576 L947.077 72.576 L947.077 27.2059 L954.571 27.2059 L954.571 34.2544 Q957.245 30.163 960.85 28.1376 Q964.496 26.1121 969.235 26.1121 Q977.053 26.1121 981.064 30.9732 Q985.074 35.7938 985.074 45.1919 Z" fill="#000000" fill-rule="evenodd" fill-opacity="1" /><path clip-path="url(#clip560)" d="M 0 0 M1021.82 28.5427 L1021.82 35.5912 Q1018.66 33.9709 1015.25 33.1607 Q1011.85 32.3505 1008.2 32.3505 Q1002.66 32.3505 999.86 34.0519 Q997.105 35.7533 997.105 39.156 Q997.105 41.7486 999.09 43.2475 Q1001.08 44.7058 1007.07 46.0426 L1009.62 46.6097 Q1017.56 48.3111 1020.88 51.4303 Q1024.25 54.509 1024.25 60.0587 Q1024.25 66.3781 1019.22 70.0644 Q1014.24 73.7508 1005.49 73.7508 Q1001.85 73.7508 997.875 73.0216 Q993.946 72.3329 989.571 70.9151 L989.571 63.2184 Q993.703 65.3654 997.713 66.4591 Q1001.72 67.5124 1005.65 67.5124 Q1010.92 67.5124 1013.75 65.73 Q1016.59 63.9071 1016.59 60.6258 Q1016.59 57.5877 1014.52 55.9673 Q1012.5 54.3469 1005.57 52.8481 L1002.98 52.2405 Q996.052 50.7821 992.974 47.7845 Q989.895 44.7463 989.895 39.4801 Q989.895 33.0797 994.432 29.5959 Q998.969 26.1121 1007.31 26.1121 Q1011.45 26.1121 1015.09 26.7198 Q1018.74 27.3274 1021.82 28.5427 Z" fill="#000000" fill-rule="evenodd" fill-opacity="1" /><path clip-path="url(#clip560)" d="M 0 0 M1081.4 9.54393 L1081.4 15.7418 L1074.28 15.7418 Q1070.26 15.7418 1068.68 17.3622 Q1067.15 18.9825 1067.15 23.1955 L1067.15 27.2059 L1079.42 27.2059 L1079.42 32.9987 L1067.15 32.9987 L1067.15 72.576 L1059.65 72.576 L1059.65 32.9987 L1052.52 32.9987 L1052.52 27.2059 L1059.65 27.2059 L1059.65 24.0462 Q1059.65 16.471 1063.18 13.0277 Q1066.7 9.54393 1074.36 9.54393 L1081.4 9.54393 Z" fill="#000000" fill-rule="evenodd" fill-opacity="1" /><path clip-path="url(#clip560)" d="M 0 0 M1106.8 32.4315 Q1100.81 32.4315 1097.32 37.1306 Q1093.84 41.7891 1093.84 49.9314 Q1093.84 58.0738 1097.28 62.7728 Q1100.77 67.4314 1106.8 67.4314 Q1112.76 67.4314 1116.24 62.7323 Q1119.73 58.0333 1119.73 49.9314 Q1119.73 41.8701 1116.24 37.1711 Q1112.76 32.4315 1106.8 32.4315 M1106.8 26.1121 Q1116.53 26.1121 1122.08 32.4315 Q1127.63 38.7509 1127.63 49.9314 Q1127.63 61.0714 1122.08 67.4314 Q1116.53 73.7508 1106.8 73.7508 Q1097.04 73.7508 1091.49 67.4314 Q1085.98 61.0714 1085.98 49.9314 Q1085.98 38.7509 1091.49 32.4315 Q1097.04 26.1121 1106.8 26.1121 Z" fill="#000000" fill-rule="evenodd" fill-opacity="1" /><path clip-path="url(#clip560)" d="M 0 0 M1161.73 34.1734 Q1160.48 33.4443 1158.98 33.1202 Q1157.52 32.7556 1155.74 32.7556 Q1149.42 32.7556 1146.02 36.8875 Q1142.65 40.9789 1142.65 48.6757 L1142.65 72.576 L1135.16 72.576 L1135.16 27.2059 L1142.65 27.2059 L1142.65 34.2544 Q1145 30.1225 1148.77 28.1376 Q1152.54 26.1121 1157.93 26.1121 Q1158.7 26.1121 1159.63 26.2337 Q1160.56 26.3147 1161.69 26.5172 L1161.73 34.1734 Z" fill="#000000" fill-rule="evenodd" fill-opacity="1" /><path clip-path="url(#clip560)" d="M 0 0 M1195.92 9.54393 L1203.38 9.54393 L1203.38 72.576 L1195.92 72.576 L1195.92 9.54393 Z" fill="#000000" fill-rule="evenodd" fill-opacity="1" /><path clip-path="url(#clip560)" d="M 0 0 M1211.2 27.2059 L1218.65 27.2059 L1218.65 72.576 L1211.2 72.576 L1211.2 27.2059 M1211.2 9.54393 L1218.65 9.54393 L1218.65 18.9825 L1211.2 18.9825 L1211.2 9.54393 Z" fill="#000000" fill-rule="evenodd" fill-opacity="1" /><path clip-path="url(#clip560)" d="M 0 0 M1264.18 45.1919 L1264.18 72.576 L1256.73 72.576 L1256.73 45.4349 Q1256.73 38.994 1254.22 35.7938 Q1251.7 32.5936 1246.68 32.5936 Q1240.65 32.5936 1237.16 36.4419 Q1233.68 40.2903 1233.68 46.9338 L1233.68 72.576 L1226.18 72.576 L1226.18 27.2059 L1233.68 27.2059 L1233.68 34.2544 Q1236.35 30.163 1239.96 28.1376 Q1243.6 26.1121 1248.34 26.1121 Q1256.16 26.1121 1260.17 30.9732 Q1264.18 35.7938 1264.18 45.1919 Z" fill="#000000" fill-rule="evenodd" fill-opacity="1" /><path clip-path="url(#clip560)" d="M 0 0 M1310.81 48.0275 L1310.81 51.6733 L1276.54 51.6733 Q1277.02 59.3701 1281.15 63.421 Q1285.33 67.4314 1292.74 67.4314 Q1297.03 67.4314 1301.04 66.3781 Q1305.1 65.3249 1309.07 63.2184 L1309.07 70.267 Q1305.06 71.9684 1300.84 72.8596 Q1296.63 73.7508 1292.29 73.7508 Q1281.44 73.7508 1275.08 67.4314 Q1268.76 61.1119 1268.76 50.3365 Q1268.76 39.1965 1274.75 32.6746 Q1280.79 26.1121 1291 26.1121 Q1300.15 26.1121 1305.46 32.0264 Q1310.81 37.9003 1310.81 48.0275 M1303.35 45.84 Q1303.27 39.7232 1299.91 36.0774 Q1296.59 32.4315 1291.08 32.4315 Q1284.84 32.4315 1281.07 35.9558 Q1277.35 39.4801 1276.78 45.8805 L1303.35 45.84 Z" fill="#000000" fill-rule="evenodd" fill-opacity="1" /><path clip-path="url(#clip560)" d="M 0 0 M1339.24 49.7694 Q1330.21 49.7694 1326.73 51.8354 Q1323.24 53.9013 1323.24 58.8839 Q1323.24 62.8538 1325.84 65.2034 Q1328.47 67.5124 1332.97 67.5124 Q1339.16 67.5124 1342.89 63.1374 Q1346.66 58.7219 1346.66 51.4303 L1346.66 49.7694 L1339.24 49.7694 M1354.11 46.6907 L1354.11 72.576 L1346.66 72.576 L1346.66 65.6895 Q1344.11 69.8214 1340.3 71.8063 Q1336.49 73.7508 1330.98 73.7508 Q1324.01 73.7508 1319.88 69.8619 Q1315.79 65.9325 1315.79 59.3701 Q1315.79 51.7138 1320.89 47.825 Q1326.04 43.9361 1336.21 43.9361 L1346.66 43.9361 L1346.66 43.2069 Q1346.66 38.0623 1343.26 35.2672 Q1339.89 32.4315 1333.78 32.4315 Q1329.89 32.4315 1326.2 33.3632 Q1322.51 34.295 1319.11 36.1584 L1319.11 29.2718 Q1323.2 27.692 1327.05 26.9223 Q1330.9 26.1121 1334.55 26.1121 Q1344.39 26.1121 1349.25 31.2163 Q1354.11 36.3204 1354.11 46.6907 Z" fill="#000000" fill-rule="evenodd" fill-opacity="1" /><path clip-path="url(#clip560)" d="M 0 0 M1388.22 34.1734 Q1386.96 33.4443 1385.47 33.1202 Q1384.01 32.7556 1382.22 32.7556 Q1375.91 32.7556 1372.5 36.8875 Q1369.14 40.9789 1369.14 48.6757 L1369.14 72.576 L1361.65 72.576 L1361.65 27.2059 L1369.14 27.2059 L1369.14 34.2544 Q1371.49 30.1225 1375.26 28.1376 Q1379.02 26.1121 1384.41 26.1121 Q1385.18 26.1121 1386.11 26.2337 Q1387.05 26.3147 1388.18 26.5172 L1388.22 34.1734 Z" fill="#000000" fill-rule="evenodd" fill-opacity="1" /><path clip-path="url(#clip560)" d="M 0 0 M1396.04 9.54393 L1403.49 9.54393 L1403.49 72.576 L1396.04 72.576 L1396.04 9.54393 Z" fill="#000000" fill-rule="evenodd" fill-opacity="1" /><path clip-path="url(#clip560)" d="M 0 0 M1430.19 76.7889 Q1427.03 84.8907 1424.03 87.3618 Q1421.03 89.8329 1416.01 89.8329 L1410.05 89.8329 L1410.05 83.5945 L1414.43 83.5945 Q1417.51 83.5945 1419.21 82.1361 Q1420.91 80.6778 1422.98 75.2496 L1424.31 71.8468 L1405.96 27.2059 L1413.86 27.2059 L1428.04 62.6918 L1442.22 27.2059 L1450.12 27.2059 L1430.19 76.7889 Z" fill="#000000" fill-rule="evenodd" fill-opacity="1" /><path clip-path="url(#clip560)" d="M 0 0 M1491.52 65.7705 L1491.52 89.8329 L1484.02 89.8329 L1484.02 27.2059 L1491.52 27.2059 L1491.52 34.0924 Q1493.87 30.0415 1497.43 28.0971 Q1501.04 26.1121 1506.02 26.1121 Q1514.28 26.1121 1519.43 32.6746 Q1524.61 39.2371 1524.61 49.9314 Q1524.61 60.6258 1519.43 67.1883 Q1514.28 73.7508 1506.02 73.7508 Q1501.04 73.7508 1497.43 71.8063 Q1493.87 69.8214 1491.52 65.7705 M1516.88 49.9314 Q1516.88 41.7081 1513.47 37.0496 Q1510.11 32.3505 1504.2 32.3505 Q1498.28 32.3505 1494.88 37.0496 Q1491.52 41.7081 1491.52 49.9314 Q1491.52 58.1548 1494.88 62.8538 Q1498.28 67.5124 1504.2 67.5124 Q1510.11 67.5124 1513.47 62.8538 Q1516.88 58.1548 1516.88 49.9314 Z" fill="#000000" fill-rule="evenodd" fill-opacity="1" /><path clip-path="url(#clip560)" d="M 0 0 M1553.05 49.7694 Q1544.02 49.7694 1540.53 51.8354 Q1537.05 53.9013 1537.05 58.8839 Q1537.05 62.8538 1539.64 65.2034 Q1542.28 67.5124 1546.77 67.5124 Q1552.97 67.5124 1556.7 63.1374 Q1560.46 58.7219 1560.46 51.4303 L1560.46 49.7694 L1553.05 49.7694 M1567.92 46.6907 L1567.92 72.576 L1560.46 72.576 L1560.46 65.6895 Q1557.91 69.8214 1554.1 71.8063 Q1550.3 73.7508 1544.79 73.7508 Q1537.82 73.7508 1533.69 69.8619 Q1529.6 65.9325 1529.6 59.3701 Q1529.6 51.7138 1534.7 47.825 Q1539.85 43.9361 1550.01 43.9361 L1560.46 43.9361 L1560.46 43.2069 Q1560.46 38.0623 1557.06 35.2672 Q1553.7 32.4315 1547.58 32.4315 Q1543.69 32.4315 1540.01 33.3632 Q1536.32 34.295 1532.92 36.1584 L1532.92 29.2718 Q1537.01 27.692 1540.86 26.9223 Q1544.71 26.1121 1548.35 26.1121 Q1558.2 26.1121 1563.06 31.2163 Q1567.92 36.3204 1567.92 46.6907 Z" fill="#000000" fill-rule="evenodd" fill-opacity="1" /><path clip-path="url(#clip560)" d="M 0 0 M1602.03 34.1734 Q1600.77 33.4443 1599.27 33.1202 Q1597.81 32.7556 1596.03 32.7556 Q1589.71 32.7556 1586.31 36.8875 Q1582.95 40.9789 1582.95 48.6757 L1582.95 72.576 L1575.45 72.576 L1575.45 27.2059 L1582.95 27.2059 L1582.95 34.2544 Q1585.3 30.1225 1589.06 28.1376 Q1592.83 26.1121 1598.22 26.1121 Q1598.99 26.1121 1599.92 26.2337 Q1600.85 26.3147 1601.99 26.5172 L1602.03 34.1734 Z" fill="#000000" fill-rule="evenodd" fill-opacity="1" /><path clip-path="url(#clip560)" d="M 0 0 M1630.46 49.7694 Q1621.43 49.7694 1617.95 51.8354 Q1614.46 53.9013 1614.46 58.8839 Q1614.46 62.8538 1617.06 65.2034 Q1619.69 67.5124 1624.19 67.5124 Q1630.38 67.5124 1634.11 63.1374 Q1637.88 58.7219 1637.88 51.4303 L1637.88 49.7694 L1630.46 49.7694 M1645.33 46.6907 L1645.33 72.576 L1637.88 72.576 L1637.88 65.6895 Q1635.33 69.8214 1631.52 71.8063 Q1627.71 73.7508 1622.2 73.7508 Q1615.23 73.7508 1611.1 69.8619 Q1607.01 65.9325 1607.01 59.3701 Q1607.01 51.7138 1612.11 47.825 Q1617.26 43.9361 1627.43 43.9361 L1637.88 43.9361 L1637.88 43.2069 Q1637.88 38.0623 1634.47 35.2672 Q1631.11 32.4315 1625 32.4315 Q1621.11 32.4315 1617.42 33.3632 Q1613.73 34.295 1610.33 36.1584 L1610.33 29.2718 Q1614.42 27.692 1618.27 26.9223 Q1622.12 26.1121 1625.77 26.1121 Q1635.61 26.1121 1640.47 31.2163 Q1645.33 36.3204 1645.33 46.6907 Z" fill="#000000" fill-rule="evenodd" fill-opacity="1" /><path clip-path="url(#clip560)" d="M 0 0 M1688.47 35.9153 Q1691.27 30.8922 1695.16 28.5022 Q1699.05 26.1121 1704.31 26.1121 Q1711.4 26.1121 1715.25 31.0947 Q1719.1 36.0368 1719.1 45.1919 L1719.1 72.576 L1711.6 72.576 L1711.6 45.4349 Q1711.6 38.913 1709.29 35.7533 Q1706.99 32.5936 1702.25 32.5936 Q1696.45 32.5936 1693.09 36.4419 Q1689.73 40.2903 1689.73 46.9338 L1689.73 72.576 L1682.23 72.576 L1682.23 45.4349 Q1682.23 38.8725 1679.93 35.7533 Q1677.62 32.5936 1672.8 32.5936 Q1667.08 32.5936 1663.72 36.4824 Q1660.36 40.3308 1660.36 46.9338 L1660.36 72.576 L1652.87 72.576 L1652.87 27.2059 L1660.36 27.2059 L1660.36 34.2544 Q1662.91 30.082 1666.48 28.0971 Q1670.04 26.1121 1674.94 26.1121 Q1679.89 26.1121 1683.33 28.6237 Q1686.81 31.1352 1688.47 35.9153 Z" fill="#000000" fill-rule="evenodd" fill-opacity="1" /><path clip-path="url(#clip560)" d="M 0 0 M1765.72 48.0275 L1765.72 51.6733 L1731.45 51.6733 Q1731.94 59.3701 1736.07 63.421 Q1740.24 67.4314 1747.66 67.4314 Q1751.95 67.4314 1755.96 66.3781 Q1760.01 65.3249 1763.98 63.2184 L1763.98 70.267 Q1759.97 71.9684 1755.76 72.8596 Q1751.55 73.7508 1747.21 73.7508 Q1736.35 73.7508 1730 67.4314 Q1723.68 61.1119 1723.68 50.3365 Q1723.68 39.1965 1729.67 32.6746 Q1735.71 26.1121 1745.92 26.1121 Q1755.07 26.1121 1760.38 32.0264 Q1765.72 37.9003 1765.72 48.0275 M1758.27 45.84 Q1758.19 39.7232 1754.83 36.0774 Q1751.51 32.4315 1746 32.4315 Q1739.76 32.4315 1735.99 35.9558 Q1732.26 39.4801 1731.7 45.8805 L1758.27 45.84 Z" fill="#000000" fill-rule="evenodd" fill-opacity="1" /><path clip-path="url(#clip560)" d="M 0 0 M1780.91 14.324 L1780.91 27.2059 L1796.27 27.2059 L1796.27 32.9987 L1780.91 32.9987 L1780.91 57.6282 Q1780.91 63.1779 1782.41 64.7578 Q1783.95 66.3376 1788.61 66.3376 L1796.27 66.3376 L1796.27 72.576 L1788.61 72.576 Q1779.98 72.576 1776.7 69.3758 Q1773.42 66.1351 1773.42 57.6282 L1773.42 32.9987 L1767.95 32.9987 L1767.95 27.2059 L1773.42 27.2059 L1773.42 14.324 L1780.91 14.324 Z" fill="#000000" fill-rule="evenodd" fill-opacity="1" /><path clip-path="url(#clip560)" d="M 0 0 M1830.38 34.1734 Q1829.12 33.4443 1827.62 33.1202 Q1826.16 32.7556 1824.38 32.7556 Q1818.06 32.7556 1814.66 36.8875 Q1811.3 40.9789 1811.3 48.6757 L1811.3 72.576 L1803.8 72.576 L1803.8 27.2059 L1811.3 27.2059 L1811.3 34.2544 Q1813.65 30.1225 1817.41 28.1376 Q1821.18 26.1121 1826.57 26.1121 Q1827.34 26.1121 1828.27 26.2337 Q1829.2 26.3147 1830.34 26.5172 L1830.38 34.1734 Z" fill="#000000" fill-rule="evenodd" fill-opacity="1" /><path clip-path="url(#clip560)" d="M 0 0 M1838.19 27.2059 L1845.65 27.2059 L1845.65 72.576 L1838.19 72.576 L1838.19 27.2059 M1838.19 9.54393 L1845.65 9.54393 L1845.65 18.9825 L1838.19 18.9825 L1838.19 9.54393 Z" fill="#000000" fill-rule="evenodd" fill-opacity="1" /><path clip-path="url(#clip560)" d="M 0 0 M1850.23 27.2059 L1885.63 27.2059 L1885.63 34.0114 L1857.6 66.6212 L1885.63 66.6212 L1885.63 72.576 L1849.21 72.576 L1849.21 65.7705 L1877.25 33.1607 L1850.23 33.1607 L1850.23 27.2059 Z" fill="#000000" fill-rule="evenodd" fill-opacity="1" /><path clip-path="url(#clip560)" d="M 0 0 M1932.26 48.0275 L1932.26 51.6733 L1897.99 51.6733 Q1898.47 59.3701 1902.6 63.421 Q1906.78 67.4314 1914.19 67.4314 Q1918.48 67.4314 1922.49 66.3781 Q1926.54 65.3249 1930.51 63.2184 L1930.51 70.267 Q1926.5 71.9684 1922.29 72.8596 Q1918.08 73.7508 1913.74 73.7508 Q1902.89 73.7508 1896.53 67.4314 Q1890.21 61.1119 1890.21 50.3365 Q1890.21 39.1965 1896.2 32.6746 Q1902.24 26.1121 1912.45 26.1121 Q1921.6 26.1121 1926.91 32.0264 Q1932.26 37.9003 1932.26 48.0275 M1924.8 45.84 Q1924.72 39.7232 1921.36 36.0774 Q1918.04 32.4315 1912.53 32.4315 Q1906.29 32.4315 1902.52 35.9558 Q1898.8 39.4801 1898.23 45.8805 L1924.8 45.84 Z" fill="#000000" fill-rule="evenodd" fill-opacity="1" /><path clip-path="url(#clip560)" d="M 0 0 M1969.93 34.0924 L1969.93 9.54393 L1977.38 9.54393 L1977.38 72.576 L1969.93 72.576 L1969.93 65.7705 Q1967.58 69.8214 1963.98 71.8063 Q1960.41 73.7508 1955.39 73.7508 Q1947.16 73.7508 1941.98 67.1883 Q1936.83 60.6258 1936.83 49.9314 Q1936.83 39.2371 1941.98 32.6746 Q1947.16 26.1121 1955.39 26.1121 Q1960.41 26.1121 1963.98 28.0971 Q1967.58 30.0415 1969.93 34.0924 M1944.53 49.9314 Q1944.53 58.1548 1947.89 62.8538 Q1951.3 67.5124 1957.21 67.5124 Q1963.12 67.5124 1966.53 62.8538 Q1969.93 58.1548 1969.93 49.9314 Q1969.93 41.7081 1966.53 37.0496 Q1963.12 32.3505 1957.21 32.3505 Q1951.3 32.3505 1947.89 37.0496 Q1944.53 41.7081 1944.53 49.9314 Z" fill="#000000" fill-rule="evenodd" fill-opacity="1" /><path clip-path="url(#clip560)" d="M 0 0 M2046.9 35.9153 Q2049.69 30.8922 2053.58 28.5022 Q2057.47 26.1121 2062.74 26.1121 Q2069.83 26.1121 2073.67 31.0947 Q2077.52 36.0368 2077.52 45.1919 L2077.52 72.576 L2070.03 72.576 L2070.03 45.4349 Q2070.03 38.913 2067.72 35.7533 Q2065.41 32.5936 2060.67 32.5936 Q2054.88 32.5936 2051.52 36.4419 Q2048.15 40.2903 2048.15 46.9338 L2048.15 72.576 L2040.66 72.576 L2040.66 45.4349 Q2040.66 38.8725 2038.35 35.7533 Q2036.04 32.5936 2031.22 32.5936 Q2025.51 32.5936 2022.15 36.4824 Q2018.78 40.3308 2018.78 46.9338 L2018.78 72.576 L2011.29 72.576 L2011.29 27.2059 L2018.78 27.2059 L2018.78 34.2544 Q2021.34 30.082 2024.9 28.0971 Q2028.47 26.1121 2033.37 26.1121 Q2038.31 26.1121 2041.75 28.6237 Q2045.24 31.1352 2046.9 35.9153 Z" fill="#000000" fill-rule="evenodd" fill-opacity="1" /><path clip-path="url(#clip560)" d="M 0 0 M2102.92 32.4315 Q2096.93 32.4315 2093.44 37.1306 Q2089.96 41.7891 2089.96 49.9314 Q2089.96 58.0738 2093.4 62.7728 Q2096.89 67.4314 2102.92 67.4314 Q2108.88 67.4314 2112.36 62.7323 Q2115.84 58.0333 2115.84 49.9314 Q2115.84 41.8701 2112.36 37.1711 Q2108.88 32.4315 2102.92 32.4315 M2102.92 26.1121 Q2112.64 26.1121 2118.19 32.4315 Q2123.74 38.7509 2123.74 49.9314 Q2123.74 61.0714 2118.19 67.4314 Q2112.64 73.7508 2102.92 73.7508 Q2093.16 73.7508 2087.61 67.4314 Q2082.1 61.0714 2082.1 49.9314 Q2082.1 38.7509 2087.61 32.4315 Q2093.16 26.1121 2102.92 26.1121 Z" fill="#000000" fill-rule="evenodd" fill-opacity="1" /><path clip-path="url(#clip560)" d="M 0 0 M2161.42 34.0924 L2161.42 9.54393 L2168.87 9.54393 L2168.87 72.576 L2161.42 72.576 L2161.42 65.7705 Q2159.07 69.8214 2155.46 71.8063 Q2151.9 73.7508 2146.87 73.7508 Q2138.65 73.7508 2133.47 67.1883 Q2128.32 60.6258 2128.32 49.9314 Q2128.32 39.2371 2133.47 32.6746 Q2138.65 26.1121 2146.87 26.1121 Q2151.9 26.1121 2155.46 28.0971 Q2159.07 30.0415 2161.42 34.0924 M2136.02 49.9314 Q2136.02 58.1548 2139.38 62.8538 Q2142.78 67.5124 2148.7 67.5124 Q2154.61 67.5124 2158.01 62.8538 Q2161.42 58.1548 2161.42 49.9314 Q2161.42 41.7081 2158.01 37.0496 Q2154.61 32.3505 2148.7 32.3505 Q2142.78 32.3505 2139.38 37.0496 Q2136.02 41.7081 2136.02 49.9314 Z" fill="#000000" fill-rule="evenodd" fill-opacity="1" /><path clip-path="url(#clip560)" d="M 0 0 M2215.5 48.0275 L2215.5 51.6733 L2181.23 51.6733 Q2181.71 59.3701 2185.84 63.421 Q2190.02 67.4314 2197.43 67.4314 Q2201.72 67.4314 2205.73 66.3781 Q2209.78 65.3249 2213.75 63.2184 L2213.75 70.267 Q2209.74 71.9684 2205.53 72.8596 Q2201.32 73.7508 2196.98 73.7508 Q2186.13 73.7508 2179.77 67.4314 Q2173.45 61.1119 2173.45 50.3365 Q2173.45 39.1965 2179.44 32.6746 Q2185.48 26.1121 2195.69 26.1121 Q2204.84 26.1121 2210.15 32.0264 Q2215.5 37.9003 2215.5 48.0275 M2208.04 45.84 Q2207.96 39.7232 2204.6 36.0774 Q2201.28 32.4315 2195.77 32.4315 Q2189.53 32.4315 2185.76 35.9558 Q2182.04 39.4801 2181.47 45.8805 L2208.04 45.84 Z" fill="#000000" fill-rule="evenodd" fill-opacity="1" /><path clip-path="url(#clip560)" d="M 0 0 M2223.31 9.54393 L2230.77 9.54393 L2230.77 72.576 L2223.31 72.576 L2223.31 9.54393 Z" fill="#000000" fill-rule="evenodd" fill-opacity="1" /><polyline clip-path="url(#clip562)" style="stroke:#009af9; stroke-width:4; stroke-opacity:1; fill:none" points="
  1384.88,773.326 1384.82,773.287 1384.62,773.146 1383.99,772.722 1382.38,771.621 1380.01,770.007 1377.26,768.135 1373.86,765.829 1369.99,763.209 1365.58,760.228 
  1360.68,756.933 1355.28,753.313 1349.38,749.371 1342.92,745.079 1335.87,740.412 1328.39,735.486 1320.92,730.595 1313.51,725.767 1306.22,721.035 1299.04,716.402 
  1291.99,711.876 1285.08,707.455 1278.3,703.138 1271.64,698.921 1265.11,694.799 1258.69,690.766 1252.38,686.818 1246.17,682.95 1240.06,679.157 1234.04,675.435 
  1228.1,671.779 1222.24,668.187 1216.46,664.653 1210.74,661.177 1205.1,657.754 1199.51,654.382 1193.99,651.059 1188.53,647.784 1183.12,644.553 1177.77,641.366 
  1172.47,638.221 1167.21,635.117 1162.01,632.052 1156.85,629.026 1151.74,626.036 1146.68,623.084 1141.65,620.166 1136.67,617.284 1131.73,614.435 1126.84,611.62 
  1121.98,608.837 1117.16,606.086 1112.38,603.367 1107.64,600.679 1102.94,598.021 1098.27,595.393 1093.65,592.795 1089.05,590.226 1084.5,587.686 1079.98,585.174 
  1075.49,582.69 1071.05,580.234 1066.63,577.805 1062.25,575.404 1057.91,573.029 1053.6,570.68 1049.32,568.358 1045.07,566.061 1040.86,563.79 1036.68,561.544 
  1032.54,559.323 1028.43,557.127 1024.35,554.956 1020.3,552.809 1016.28,550.686 1012.3,548.587 1008.34,546.511 1004.42,544.459 1000.53,542.429 996.673,540.423 
  992.844,538.44 989.046,536.479 985.279,534.54 981.542,532.623 977.835,530.729 974.157,528.855 970.51,527.004 966.892,525.173 963.303,523.364 959.744,521.576 
  956.213,519.808 952.712,518.061 949.239,516.334 945.795,514.627 942.379,512.94 938.992,511.273 935.632,509.625 932.3,507.997 928.996,506.388 925.72,504.798 
  922.47,503.227 919.249,501.675 916.054,500.141 912.885,498.625 909.744,497.128 906.629,495.648 903.541,494.187 900.478,492.743 897.442,491.316 894.431,489.907 
  891.447,488.515 888.487,487.14 885.553,485.782 882.644,484.44 879.761,483.115 876.902,481.807 874.067,480.514 871.257,479.237 868.472,477.977 865.71,476.732 
  862.973,475.503 860.26,474.289 857.57,473.09 854.903,471.906 852.26,470.738 849.64,469.584 847.043,468.444 844.469,467.32 841.917,466.209 839.388,465.113 
  836.881,464.031 834.396,462.963 831.934,461.909 829.493,460.868 827.074,459.841 824.676,458.827 822.299,457.826 819.944,456.838 817.61,455.864 815.296,454.902 
  813.003,453.953 810.731,453.016 808.479,452.092 806.247,451.18 804.035,450.281 801.843,449.393 799.671,448.517 797.518,447.653 795.384,446.801 793.27,445.96 
  791.175,445.13 789.099,444.312 787.041,443.505 785.002,442.709 782.981,441.924 780.979,441.15 778.995,440.386 777.028,439.633 775.08,438.891 773.149,438.159 
  771.235,437.437 769.339,436.725 767.46,436.023 765.598,435.331 763.753,434.648 761.925,433.976 760.113,433.313 758.318,432.659 756.539,432.015 754.776,431.38 
  753.029,430.754 751.298,430.137 749.583,429.529 747.883,428.93 746.198,428.339 744.529,427.758 742.875,427.184 741.236,426.62 739.611,426.063 738.002,425.515 
  736.406,424.975 734.826,424.443 733.259,423.919 731.707,423.402 730.169,422.894 728.644,422.393 727.134,421.9 725.637,421.415 724.153,420.936 722.683,420.466 
  721.225,420.002 719.781,419.546 718.35,419.096 716.932,418.654 715.527,418.219 714.134,417.79 712.753,417.368 711.385,416.953 710.029,416.545 708.685,416.143 
  707.353,415.748 706.033,415.359 704.725,414.976 703.428,414.6 702.143,414.229 700.869,413.865 699.607,413.507 698.355,413.155 697.115,412.809 695.886,412.469 
  694.668,412.135 693.461,411.806 692.264,411.483 691.079,411.166 689.903,410.854 688.739,410.548 687.585,410.247 686.441,409.952 685.308,409.662 684.184,409.377 
  683.072,409.098 681.969,408.824 680.877,408.555 679.795,408.291 678.723,408.032 677.661,407.779 676.609,407.53 675.567,407.287 674.536,407.048 673.514,406.814 
  672.503,406.585 671.502,406.361 670.512,406.142 669.531,405.928 668.561,405.718 667.601,405.513 666.652,405.313 665.713,405.118 664.785,404.927 663.867,404.74 
  662.959,404.558 662.062,404.381 661.176,404.208 660.3,404.039 659.434,403.875 658.58,403.715 657.735,403.559 656.902,403.408 656.078,403.26 655.265,403.117 
  654.463,402.978 653.671,402.842 652.888,402.711 652.116,402.583 651.354,402.459 650.602,402.338 649.859,402.221 649.126,402.108 648.402,401.998 647.688,401.892 
  646.983,401.789 646.287,401.689 645.599,401.592 644.92,401.498 644.25,401.407 643.587,401.32 642.933,401.235 642.287,401.153 641.648,401.073 641.017,400.997 
  640.393,400.923 639.777,400.852 639.167,400.783 638.564,400.716 637.967,400.652 637.377,400.591 636.793,400.532 636.215,400.475 635.643,400.42 635.077,400.367 
  634.516,400.317 633.96,400.269 633.409,400.222 632.862,400.178 632.321,400.136 631.783,400.095 631.25,400.057 630.721,400.021 630.196,399.986 629.674,399.953 
  629.155,399.922 628.64,399.893 628.127,399.866 627.617,399.84 627.109,399.816 626.603,399.794 626.098,399.774 625.594,399.755 625.092,399.738 624.59,399.723 
  624.087,399.709 623.584,399.698 623.079,399.688 622.572,399.68 622.062,399.674 621.547,399.67 621.026,399.667 620.496,399.667 619.954,399.67 619.394,399.675 
  618.808,399.683 618.176,399.694 617.534,399.71 616.942,399.727 616.371,399.747 615.828,399.769 615.307,399.793 614.807,399.818 614.325,399.844 613.86,399.872 
  613.41,399.901 612.974,399.931 612.55,399.962 612.136,399.995 611.733,400.028 611.338,400.063 610.951,400.098 610.572,400.135 610.199,400.172 609.831,400.211 
  609.469,400.251 609.112,400.291 608.76,400.333 608.411,400.376 608.066,400.42 607.724,400.465 607.386,400.512 607.05,400.56 606.716,400.609 606.384,400.659 
  606.054,400.71 605.726,400.763 605.399,400.817 605.074,400.873 604.749,400.93 604.424,400.989 604.101,401.05 603.777,401.112 603.453,401.176 603.129,401.242 
  602.804,401.31 602.478,401.38 602.151,401.452 601.822,401.527 601.491,401.604 601.158,401.684 600.822,401.767 600.482,401.853 600.137,401.943 599.788,402.036 
  599.432,402.135 599.069,402.238 598.697,402.347 598.314,402.462 597.92,402.585 597.519,402.713 597.118,402.847 596.722,402.982 596.334,403.119 595.954,403.258 
  595.584,403.397 595.221,403.537 594.867,403.679 594.519,403.821 594.179,403.964 593.845,404.109 593.516,404.256 593.193,404.404 592.875,404.554 592.561,404.705 
  592.251,404.859 591.946,405.014 591.644,405.172 591.347,405.332 591.053,405.494 590.762,405.658 590.476,405.824 590.194,405.993 589.915,406.163 589.641,406.335 
  589.37,406.509 589.104,406.685 588.842,406.862 588.585,407.041 588.332,407.221 588.083,407.403 587.838,407.587 587.598,407.772 587.362,407.958 587.13,408.145 
  586.903,408.334 586.679,408.525 586.459,408.717 586.243,408.91 586.032,409.104 585.823,409.301 585.619,409.498 585.418,409.697 585.221,409.898 585.027,410.1 
  584.837,410.304 584.65,410.509 584.466,410.716 584.286,410.925 584.109,411.136 583.935,411.348 583.764,411.562 583.597,411.778 583.432,411.996 583.271,412.216 
  583.113,412.438 582.957,412.662 582.805,412.888 582.656,413.116 582.509,413.346 582.366,413.579 582.225,413.813 582.088,414.05 581.953,414.289 581.822,414.531 
  581.693,414.774 581.567,415.02 581.444,415.269 581.325,415.52 581.208,415.773 581.094,416.029 580.983,416.288 580.875,416.549 580.771,416.813 580.669,417.079 
  580.57,417.348 580.474,417.62 580.382,417.895 580.292,418.172 580.206,418.452 580.123,418.736 580.043,419.022 579.966,419.311 579.892,419.603 579.822,419.898 
  579.755,420.196 579.691,420.497 579.631,420.802 579.574,421.109 579.521,421.42 579.471,421.734 579.424,422.052 579.381,422.373 579.342,422.697 579.306,423.024 
  579.273,423.355 579.245,423.69 579.22,424.028 579.199,424.37 579.182,424.715 579.169,425.064 579.159,425.416 579.154,425.773 579.152,426.133 579.155,426.497 
  579.161,426.865 579.172,427.237 579.187,427.612 579.206,427.992 579.23,428.376 579.258,428.764 579.29,429.156 579.327,429.552 579.368,429.953 579.414,430.358 
  579.465,430.767 579.52,431.18 579.58,431.598 579.644,432.021 579.714,432.447 579.789,432.879 579.868,433.315 579.953,433.756 580.043,434.201 580.138,434.651 
  580.238,435.106 580.343,435.566 580.454,436.031 580.571,436.5 580.693,436.975 580.82,437.455 580.954,437.94 581.093,438.43 581.237,438.925 581.388,439.425 
  581.545,439.931 581.708,440.443 581.877,440.959 582.052,441.481 582.233,442.009 582.421,442.542 582.616,443.081 582.817,443.626 583.024,444.177 583.238,444.733 
  583.459,445.295 583.687,445.864 583.922,446.438 584.164,447.018 584.413,447.604 584.67,448.197 584.933,448.796 585.205,449.401 585.483,450.013 585.77,450.631 
  586.064,451.255 586.366,451.886 586.676,452.524 586.993,453.169 587.319,453.82 587.654,454.478 587.996,455.143 588.347,455.815 588.707,456.494 589.075,457.18 
  589.452,457.873 589.838,458.573 590.233,459.281 590.637,459.996 591.05,460.719 591.472,461.449 591.904,462.187 592.345,462.932 592.796,463.685 593.257,464.446 
  593.728,465.215 594.209,465.991 594.7,466.776 595.201,467.569 595.713,468.37 596.235,469.179 596.768,469.997 597.311,470.823 597.866,471.658 598.432,472.501 
  599.008,473.353 599.597,474.213 600.196,475.083 600.807,475.961 601.43,476.848 602.065,477.744 602.712,478.65 603.371,479.564 604.042,480.488 604.726,481.422 
  605.422,482.364 606.131,483.317 606.853,484.279 607.588,485.25 608.336,486.232 609.098,487.223 609.873,488.225 610.662,489.236 611.464,490.258 612.281,491.29 
  613.112,492.332 613.957,493.385 614.816,494.448 615.69,495.522 616.579,496.607 617.483,497.702 618.402,498.808 619.337,499.926 620.287,501.054 621.252,502.194 
  622.234,503.345 623.232,504.507 624.245,505.681 625.275,506.866 626.322,508.063 627.386,509.272 628.466,510.492 629.564,511.725 630.679,512.97 631.811,514.227 
  632.962,515.496 634.13,516.777 635.316,518.072 636.521,519.378 637.744,520.698 638.986,522.03 640.247,523.375 641.527,524.733 642.827,526.104 644.146,527.489 
  645.485,528.887 646.844,530.298 648.223,531.723 649.622,533.161 651.042,534.613 652.483,536.079 653.946,537.559 655.429,539.054 656.934,540.562 658.461,542.085 
  660.01,543.622 661.581,545.174 663.175,546.741 664.792,548.322 666.431,549.918 668.094,551.529 669.78,553.156 671.49,554.797 673.225,556.454 674.983,558.127 
  676.766,559.815 678.573,561.519 680.406,563.239 682.264,564.975 684.147,566.727 686.057,568.495 687.992,570.279 689.954,572.08 691.942,573.898 693.958,575.733 
  696,577.584 698.071,579.452 700.169,581.338 702.295,583.24 704.449,585.161 706.632,587.098 708.844,589.053 711.086,591.027 713.357,593.018 715.658,595.027 
  717.989,597.054 720.351,599.1 722.744,601.164 725.168,603.247 727.624,605.349 730.111,607.469 732.631,609.609 735.183,611.768 737.768,613.946 740.387,616.144 
  743.039,618.362 745.725,620.599 748.446,622.857 751.202,625.134 753.992,627.432 756.819,629.751 759.681,632.09 762.58,634.45 765.515,636.831 768.488,639.233 
  771.499,641.657 774.548,644.103 777.635,646.57 780.762,649.06 783.928,651.571 787.134,654.105 790.381,656.662 793.669,659.242 796.999,661.845 800.371,664.471 
  803.786,667.121 807.244,669.795 810.747,672.493 814.294,675.216 817.886,677.964 821.525,680.737 825.21,683.535 828.943,686.359 832.725,689.21 836.556,692.087 
  840.437,694.991 844.369,697.924 848.354,700.884 852.391,703.873 856.483,706.891 860.631,709.939 864.835,713.017 869.098,716.127 873.421,719.269 877.805,722.443 
  882.252,725.652 886.764,728.896 891.344,732.175 895.994,735.493 900.715,738.849 905.512,742.246 910.388,745.685 915.346,749.17 920.39,752.701 925.526,756.282 
  930.758,759.917 936.095,763.609 941.543,767.364 947.113,771.186 952.817,775.084 958.669,779.068 964.689,783.148 970.905,787.342 977.352,791.673 984.087,796.177 
  991.195,800.907 998.799,805.941 1006.83,811.23 1014.66,816.361 1022.31,821.343 1029.75,826.166 1037,830.843 1044.07,835.379 1050.96,839.786 1057.7,844.072 
  1064.29,848.246 1070.75,852.317 1077.08,856.294 1083.3,860.183 1089.41,863.991 1095.43,867.724 1101.36,871.387 1107.21,874.986 1112.98,878.524 1118.67,882.004 
  1124.3,885.431 1129.87,888.807 1135.38,892.134 1140.83,895.415 1146.23,898.652 1151.57,901.846 1156.87,904.999 1162.12,908.113 1167.32,911.189 1172.48,914.228 
  1177.59,917.231 1182.66,920.198 1187.69,923.131 1192.68,926.031 1197.63,928.898 1202.55,931.734 1207.42,934.537 1212.26,937.31 1217.06,940.052 1221.82,942.764 
  1226.55,945.447 1231.24,948.101 1235.9,950.726 1240.52,953.322 1245.11,955.891 1249.66,958.432 1254.18,960.946 1258.67,963.433 1263.12,965.892 1267.54,968.326 
  1271.93,970.733 1276.28,973.114 1280.6,975.47 1284.89,977.8 1289.15,980.105 1293.37,982.385 1297.56,984.64 1301.72,986.871 1305.85,989.077 1309.95,991.259 
  1314.02,993.417 1318.05,995.551 1322.06,997.662 1326.03,999.749 1329.97,1001.81 1333.88,1003.86 1337.76,1005.87 1341.61,1007.87 1345.43,1009.84 1349.22,1011.79 
  1352.98,1013.72 1356.71,1015.63 1360.41,1017.52 1364.08,1019.38 1367.72,1021.22 1371.33,1023.04 1374.91,1024.85 1378.47,1026.62 1381.99,1028.38 1385.49,1030.12 
  1388.95,1031.84 1392.39,1033.54 1395.8,1035.22 1399.18,1036.87 1402.53,1038.51 1405.85,1040.13 1409.15,1041.73 1412.42,1043.31 1415.66,1044.87 1418.87,1046.42 
  1422.05,1047.94 1425.21,1049.45 1428.34,1050.93 1431.44,1052.4 1434.52,1053.85 1437.57,1055.29 1440.59,1056.7 1443.59,1058.1 1446.56,1059.48 1449.51,1060.84 
  1452.42,1062.19 1455.32,1063.52 1458.18,1064.83 1461.03,1066.13 1463.84,1067.41 1466.63,1068.67 1469.4,1069.91 1472.14,1071.15 1474.85,1072.36 1477.55,1073.56 
  1480.21,1074.74 1482.86,1075.91 1485.47,1077.07 1488.07,1078.2 1490.64,1079.33 1493.19,1080.44 1495.71,1081.53 1498.21,1082.61 1500.69,1083.67 1503.14,1084.72 
  1505.57,1085.76 1507.98,1086.78 1510.37,1087.79 1512.73,1088.79 1515.07,1089.77 1517.39,1090.74 1519.69,1091.7 1521.97,1092.64 1524.22,1093.57 1526.45,1094.48 
  1528.67,1095.39 1530.86,1096.28 1533.03,1097.16 1535.18,1098.03 1537.31,1098.88 1539.41,1099.72 1541.5,1100.55 1543.57,1101.37 1545.62,1102.18 1547.65,1102.98 
  1549.65,1103.76 1551.64,1104.54 1553.61,1105.3 1555.56,1106.05 1557.5,1106.79 1559.41,1107.52 1561.3,1108.24 1563.18,1108.95 1565.04,1109.65 1566.88,1110.34 
  1568.7,1111.02 1570.5,1111.68 1572.29,1112.34 1574.06,1112.99 1575.81,1113.63 1577.54,1114.26 1579.26,1114.88 1580.96,1115.49 1582.64,1116.1 1584.31,1116.69 
  1585.96,1117.27 1587.59,1117.85 1589.21,1118.41 1590.81,1118.97 1592.4,1119.52 1593.97,1120.06 1595.52,1120.59 1597.06,1121.12 1598.58,1121.63 1600.09,1122.14 
  1601.58,1122.64 1603.06,1123.13 1604.52,1123.62 1605.97,1124.09 1607.41,1124.56 1608.83,1125.03 1610.23,1125.48 1611.63,1125.93 1613,1126.37 1614.37,1126.8 
  1615.72,1127.23 1617.06,1127.65 1618.38,1128.06 1619.69,1128.46 1620.99,1128.86 1622.27,1129.26 1623.55,1129.64 1624.8,1130.02 1626.05,1130.39 1627.29,1130.76 
  1628.51,1131.12 1629.72,1131.48 1630.91,1131.83 1632.1,1132.17 1633.27,1132.51 1634.44,1132.84 1635.59,1133.17 1636.73,1133.49 1637.85,1133.8 1638.97,1134.11 
  1640.08,1134.41 1641.17,1134.71 1642.25,1135.01 1643.33,1135.3 1644.39,1135.58 1645.44,1135.86 1646.48,1136.13 1647.51,1136.4 1648.53,1136.66 1649.55,1136.92 
  1650.55,1137.18 1651.54,1137.43 1652.52,1137.67 1653.49,1137.91 1654.45,1138.15 1655.41,1138.38 1656.35,1138.61 1657.29,1138.83 1658.21,1139.05 1659.13,1139.27 
  1660.04,1139.48 1660.94,1139.68 1661.83,1139.89 1662.71,1140.09 1663.58,1140.28 1664.45,1140.47 1665.3,1140.66 1666.15,1140.85 1666.99,1141.03 1667.83,1141.2 
  1668.65,1141.38 1669.47,1141.55 1670.28,1141.71 1671.08,1141.88 1671.88,1142.04 1672.66,1142.19 1673.44,1142.35 1674.22,1142.5 1674.98,1142.64 1675.74,1142.79 
  1676.5,1142.93 1677.24,1143.07 1677.98,1143.2 1678.71,1143.33 1679.44,1143.46 1680.16,1143.59 1680.87,1143.71 1681.58,1143.83 1682.28,1143.95 1682.97,1144.06 
  1683.66,1144.18 1684.35,1144.29 1685.02,1144.39 1685.7,1144.5 1686.36,1144.6 1687.02,1144.7 1687.68,1144.8 1688.33,1144.89 1688.97,1144.98 1689.61,1145.07 
  1690.25,1145.16 1690.88,1145.25 1691.5,1145.33 1692.12,1145.41 1692.74,1145.49 1693.35,1145.56 1693.96,1145.64 1694.56,1145.71 1695.16,1145.78 1695.76,1145.85 
  1696.35,1145.91 1696.93,1145.98 1697.52,1146.04 1698.1,1146.1 1698.67,1146.15 1699.24,1146.21 1699.81,1146.26 1700.38,1146.32 1700.94,1146.36 1701.5,1146.41 
  1702.06,1146.46 1702.62,1146.5 1703.17,1146.54 1703.72,1146.58 1704.27,1146.62 1704.81,1146.66 1705.36,1146.69 1705.9,1146.73 1706.44,1146.76 1706.98,1146.79 
  1707.52,1146.81 1708.06,1146.84 1708.6,1146.86 1709.14,1146.88 1709.68,1146.9 1710.22,1146.92 1710.77,1146.94 1711.31,1146.95 1711.86,1146.96 1712.41,1146.97 
  1712.97,1146.98 1713.53,1146.98 1714.1,1146.98 1714.68,1146.98 1715.28,1146.98 1715.88,1146.98 1716.5,1146.97 1717.12,1146.95 1717.73,1146.94 1718.33,1146.92 
  1718.91,1146.9 1719.47,1146.88 1720.01,1146.85 1720.53,1146.82 1721.04,1146.79 1721.54,1146.76 1722.02,1146.73 1722.49,1146.7 1722.94,1146.66 1723.39,1146.62 
  1723.82,1146.59 1724.25,1146.55 1724.67,1146.51 1725.08,1146.46 1725.48,1146.42 1725.88,1146.38 1726.27,1146.33 1726.66,1146.28 1727.04,1146.23 1727.42,1146.18 
  1727.79,1146.13 1728.15,1146.08 1728.52,1146.03 1728.88,1145.97 1729.24,1145.91 1729.59,1145.86 1729.94,1145.8 1730.29,1145.74 1730.64,1145.67 1730.98,1145.61 
  1731.32,1145.54 1731.66,1145.48 1732,1145.41 1732.34,1145.34 1732.68,1145.26 1733.02,1145.19 1733.35,1145.11 1733.69,1145.03 1734.03,1144.95 1734.36,1144.87 
  1734.7,1144.78 1735.04,1144.69 1735.38,1144.6 1735.72,1144.51 1736.07,1144.41 1736.42,1144.31 1736.77,1144.2 1737.13,1144.09 1737.49,1143.97 1737.86,1143.85 
  1738.24,1143.72 1738.63,1143.59 1739.03,1143.44 1739.42,1143.3 1739.8,1143.15 1740.17,1143.01 1740.53,1142.86 1740.87,1142.72 1741.21,1142.57 1741.54,1142.43 
  1741.86,1142.28 1742.16,1142.14 1742.47,1141.99 1742.76,1141.85 1743.05,1141.7 1743.33,1141.56 1743.61,1141.41 1743.88,1141.26 1744.14,1141.12 1744.4,1140.97 
  1744.66,1140.82 1744.91,1140.67 1745.16,1140.52 1745.4,1140.37 1745.64,1140.21 1745.88,1140.06 1746.11,1139.9 1746.34,1139.75 1746.57,1139.59 1746.79,1139.43 
  1747.02,1139.26 1747.23,1139.1 1747.45,1138.94 1747.66,1138.77 1747.87,1138.6 1748.08,1138.43 1748.29,1138.26 1748.49,1138.08 1748.69,1137.91 1748.89,1137.73 
  1749.08,1137.55 1749.28,1137.37 1749.47,1137.18 1749.66,1137 1749.84,1136.81 1750.03,1136.62 1750.21,1136.43 1750.39,1136.23 1750.57,1136.03 1750.74,1135.84 
  1750.91,1135.63 1751.08,1135.43 1751.25,1135.22 1751.41,1135.01 1751.58,1134.8 1751.74,1134.59 1751.89,1134.37 1752.05,1134.15 1752.2,1133.93 1752.35,1133.7 
  1752.5,1133.48 1752.65,1133.25 1752.79,1133.01 1752.93,1132.78 1753.07,1132.54 1753.2,1132.3 1753.33,1132.05 1753.46,1131.8 1753.59,1131.55 1753.72,1131.3 
  1753.84,1131.04 1753.96,1130.78 1754.07,1130.52 1754.18,1130.25 1754.29,1129.98 1754.4,1129.71 1754.5,1129.43 1754.6,1129.15 1754.7,1128.86 1754.8,1128.58 
  1754.89,1128.29 1754.97,1127.99 1755.06,1127.69 1755.14,1127.39 1755.22,1127.08 1755.29,1126.77 1755.36,1126.46 1755.43,1126.14 1755.49,1125.82 1755.55,1125.5 
  1755.61,1125.17 1755.66,1124.83 1755.71,1124.49 1755.75,1124.15 1755.79,1123.81 1755.83,1123.45 1755.86,1123.1 1755.89,1122.74 1755.91,1122.38 1755.93,1122.01 
  1755.95,1121.63 1755.96,1121.26 1755.97,1120.87 1755.97,1120.49 1755.96,1120.09 1755.96,1119.7 1755.94,1119.3 1755.92,1118.89 1755.9,1118.48 1755.87,1118.06 
  1755.84,1117.64 1755.8,1117.21 1755.76,1116.78 1755.71,1116.34 1755.66,1115.9 1755.6,1115.45 1755.53,1114.99 1755.46,1114.53 1755.38,1114.07 1755.3,1113.6 
  1755.21,1113.12 1755.11,1112.64 1755.01,1112.15 1754.91,1111.65 1754.79,1111.15 1754.67,1110.64 1754.54,1110.13 1754.41,1109.61 1754.27,1109.08 1754.12,1108.55 
  1753.97,1108.01 1753.8,1107.47 1753.64,1106.92 1753.46,1106.36 1753.28,1105.79 1753.08,1105.22 1752.89,1104.64 1752.68,1104.06 1752.46,1103.46 1752.24,1102.86 
  1752.01,1102.26 1751.77,1101.64 1751.52,1101.02 1751.27,1100.39 1751,1099.75 1750.73,1099.11 1750.45,1098.46 1750.16,1097.8 1749.86,1097.13 1749.55,1096.45 
  1749.23,1095.77 1748.9,1095.08 1748.57,1094.38 1748.22,1093.67 1747.86,1092.95 1747.49,1092.23 1747.11,1091.49 1746.73,1090.75 1746.33,1090 1745.92,1089.24 
  1745.5,1088.47 1745.07,1087.7 1744.63,1086.91 1744.17,1086.11 1743.71,1085.31 1743.23,1084.5 1742.75,1083.67 1742.25,1082.84 1741.73,1082 1741.21,1081.15 
  1740.67,1080.28 1740.13,1079.41 1739.57,1078.53 1738.99,1077.64 1738.4,1076.74 1737.8,1075.82 1737.19,1074.9 1736.56,1073.97 1735.92,1073.02 1735.27,1072.07 
  1734.6,1071.11 1733.92,1070.13 1733.22,1069.14 1732.51,1068.14 1731.78,1067.14 1731.04,1066.12 1730.29,1065.08 1729.51,1064.04 1728.73,1062.99 1727.92,1061.92 
  1727.1,1060.84 1726.27,1059.75 1725.42,1058.65 1724.55,1057.53 1723.66,1056.41 1722.76,1055.27 1721.84,1054.12 1720.91,1052.95 1719.96,1051.78 1718.98,1050.59 
  1717.99,1049.38 1716.99,1048.17 1715.96,1046.94 1714.92,1045.7 1713.85,1044.44 1712.77,1043.17 1711.67,1041.89 1710.55,1040.6 1709.41,1039.29 1708.25,1037.96 
  1707.07,1036.63 1705.86,1035.27 1704.64,1033.91 1703.4,1032.53 1702.13,1031.13 1700.85,1029.72 1699.54,1028.3 1698.21,1026.86 1696.86,1025.4 1695.49,1023.93 
  1694.09,1022.45 1692.67,1020.95 1691.23,1019.43 1689.77,1017.9 1688.28,1016.35 1686.76,1014.79 1685.23,1013.21 1683.66,1011.62 1682.08,1010.01 1680.47,1008.38 
  1678.83,1006.74 1677.17,1005.07 1675.48,1003.4 1673.77,1001.7 1672.03,999.992 1670.26,998.264 1668.47,996.519 1666.65,994.756 1664.8,992.976 1662.92,991.178 
  1661.02,989.362 1659.09,987.529 1657.12,985.677 1655.13,983.808 1653.12,981.92 1651.07,980.014 1648.99,978.089 1646.88,976.146 1644.74,974.184 1642.57,972.203 
  1640.37,970.203 1638.14,968.184 1635.88,966.146 1633.58,964.088 1631.25,962.01 1628.89,959.913 1626.5,957.797 1624.07,955.66 1621.61,953.503 1619.12,951.326 
  1616.59,949.129 1614.03,946.911 1611.43,944.673 1608.79,942.413 1606.12,940.133 1603.42,937.832 1600.68,935.51 1597.9,933.166 1595.08,930.801 1592.23,928.414 
  1589.34,926.006 1586.41,923.575 1583.44,921.123 1580.43,918.648 1577.38,916.151 1574.3,913.631 1571.17,911.089 1568,908.523 1564.79,905.935 1561.54,903.323 
  1558.24,900.688 1554.91,898.029 1551.53,895.347 1548.1,892.64 1544.64,889.909 1541.12,887.154 1537.56,884.374 1533.96,881.568 1530.31,878.738 1526.61,875.882 
  1522.87,873.001 1519.07,870.093 1515.23,867.159 1511.34,864.199 1507.39,861.211 1503.4,858.196 1499.35,855.153 1495.25,852.082 1491.09,848.982 1486.88,845.853 
  1482.61,842.694 1478.29,839.504 1473.9,836.284 1469.46,833.032 1464.95,829.747 1460.38,826.429 1455.75,823.077 1451.05,819.69 1446.28,816.265 1441.43,812.803 
  1436.52,809.302 1431.52,805.76 1426.45,802.175 1421.29,798.545 1416.04,794.867 1410.7,791.138 1405.26,787.356 1399.71,783.515 1394.04,779.61 1388.25,775.636 
  1384.88,773.326 
  "/>
<polyline clip-path="url(#clip562)" style="stroke:#e26f46; stroke-width:4; stroke-opacity:1; fill:none" points="
  1524.12,773.326 1524.06,773.287 1523.82,773.124 1523.02,772.577 1520.64,770.954 1517.15,768.572 1513.05,765.783 1508.01,762.354 1502.25,758.453 1495.69,754.017 
  1488.42,749.123 1480.44,743.76 1471.75,737.947 1462.32,731.661 1452.09,724.87 1441.05,717.572 1429.63,710.059 1418.28,702.63 1407.06,695.314 1396.02,688.15 
  1385.17,681.144 1374.53,674.302 1364.09,667.621 1353.86,661.097 1343.82,654.722 1333.96,648.489 1324.28,642.389 1314.76,636.415 1305.39,630.558 1296.17,624.813 
  1287.08,619.171 1278.11,613.628 1269.26,608.177 1260.52,602.813 1251.89,597.532 1243.36,592.33 1234.92,587.203 1226.57,582.147 1218.31,577.16 1210.13,572.239 
  1202.02,567.381 1194,562.584 1186.04,557.847 1178.16,553.167 1170.34,548.542 1162.59,543.972 1154.91,539.454 1147.29,534.988 1139.73,530.572 1132.24,526.205 
  1124.8,521.885 1117.42,517.613 1110.09,513.387 1102.83,509.207 1095.61,505.071 1088.46,500.978 1081.35,496.929 1074.3,492.922 1067.3,488.958 1060.36,485.034 
  1053.46,481.151 1046.61,477.308 1039.82,473.505 1033.07,469.741 1026.38,466.016 1019.73,462.329 1013.13,458.68 1006.58,455.068 1000.07,451.493 993.616,447.954 
  987.206,444.452 980.842,440.985 974.524,437.554 968.252,434.158 962.025,430.797 955.844,427.47 949.707,424.177 943.616,420.918 937.568,417.692 931.564,414.499 
  925.604,411.339 919.688,408.211 913.814,405.116 907.984,402.052 902.196,399.02 896.451,396.019 890.748,393.05 885.087,390.111 879.467,387.202 873.889,384.324 
  868.353,381.475 862.857,378.657 857.402,375.867 851.987,373.107 846.613,370.376 841.279,367.673 835.985,364.998 830.73,362.352 825.514,359.734 820.338,357.143 
  815.2,354.579 810.102,352.043 805.041,349.534 800.019,347.051 795.035,344.595 790.088,342.165 785.179,339.761 780.308,337.383 775.474,335.03 770.676,332.702 
  765.915,330.4 761.19,328.122 756.502,325.87 751.85,323.641 747.233,321.437 742.652,319.257 738.106,317.1 733.596,314.967 729.12,312.857 724.679,310.771 
  720.272,308.707 715.9,306.666 711.561,304.648 707.257,302.652 702.985,300.678 698.747,298.726 694.543,296.796 690.371,294.887 686.232,292.999 682.125,291.133 
  678.051,289.288 674.008,287.463 669.998,285.659 666.018,283.875 662.071,282.111 658.154,280.367 654.269,278.644 650.414,276.939 646.589,275.254 642.795,273.589 
  639.031,271.942 635.297,270.314 631.593,268.705 627.918,267.114 624.272,265.542 620.655,263.988 617.067,262.452 613.508,260.934 609.977,259.433 606.474,257.95 
  602.999,256.484 599.552,255.036 596.133,253.604 592.741,252.189 589.376,250.791 586.038,249.409 582.727,248.044 579.442,246.694 576.184,245.361 572.952,244.044 
  569.745,242.742 566.565,241.456 563.41,240.185 560.28,238.93 557.175,237.689 554.096,236.464 551.041,235.253 548.01,234.057 545.004,232.876 542.022,231.708 
  539.065,230.555 536.13,229.416 533.22,228.291 530.332,227.18 527.468,226.083 524.627,224.998 521.809,223.928 519.013,222.87 516.24,221.826 513.489,220.794 
  510.759,219.775 508.052,218.77 505.367,217.776 502.702,216.795 500.06,215.826 497.438,214.87 494.837,213.925 492.257,212.993 489.697,212.072 487.158,211.163 
  484.639,210.266 482.139,209.38 479.66,208.505 477.201,207.641 474.76,206.789 472.339,205.947 469.938,205.117 467.555,204.297 465.19,203.488 462.845,202.689 
  460.518,201.9 458.208,201.122 455.917,200.354 453.644,199.597 451.389,198.849 449.151,198.111 446.93,197.382 444.727,196.664 442.54,195.955 440.371,195.255 
  438.218,194.565 436.081,193.884 433.961,193.212 431.857,192.549 429.769,191.895 427.697,191.25 425.641,190.614 423.599,189.986 421.574,189.367 419.563,188.757 
  417.567,188.155 415.586,187.561 413.62,186.975 411.669,186.398 409.731,185.828 407.808,185.267 405.899,184.713 404.004,184.167 402.123,183.629 400.255,183.099 
  398.401,182.576 396.559,182.06 394.732,181.553 392.917,181.052 391.115,180.559 389.325,180.073 387.549,179.594 385.785,179.122 384.033,178.657 382.294,178.199 
  380.567,177.748 378.852,177.304 377.15,176.867 375.459,176.436 373.78,176.013 372.114,175.596 370.459,175.185 368.817,174.782 367.186,174.385 365.568,173.994 
  363.962,173.61 362.368,173.233 360.787,172.862 359.218,172.498 357.662,172.141 356.119,171.79 354.589,171.445 353.073,171.108 351.571,170.776 350.082,170.452 
  348.608,170.134 347.148,169.823 345.704,169.518 344.275,169.221 342.861,168.929 341.463,168.645 340.081,168.367 338.716,168.096 337.367,167.831 336.034,167.573 
  334.718,167.321 333.419,167.076 332.137,166.837 330.872,166.604 329.624,166.378 328.392,166.157 327.177,165.943 325.978,165.734 324.796,165.531 323.63,165.334 
  322.479,165.142 321.344,164.955 320.225,164.774 319.121,164.598 318.032,164.427 316.957,164.261 315.896,164.1 314.849,163.944 313.816,163.792 312.797,163.644 
  311.79,163.501 310.796,163.362 309.814,163.227 308.845,163.097 307.887,162.97 306.941,162.847 306.005,162.728 305.081,162.612 304.167,162.5 303.264,162.392 
  302.371,162.287 301.487,162.185 300.613,162.086 299.748,161.991 298.891,161.899 298.044,161.81 297.205,161.723 296.374,161.64 295.551,161.56 294.735,161.482 
  293.927,161.407 293.126,161.335 292.332,161.265 291.544,161.198 290.763,161.134 289.988,161.072 289.218,161.013 288.455,160.956 287.697,160.901 286.944,160.849 
  286.195,160.799 285.452,160.751 284.713,160.706 283.978,160.662 283.246,160.622 282.518,160.583 281.794,160.546 281.072,160.512 280.352,160.479 279.635,160.449 
  278.92,160.421 278.205,160.395 277.492,160.372 276.779,160.35 276.066,160.331 275.352,160.313 274.636,160.298 273.918,160.285 273.197,160.275 272.47,160.266 
  271.738,160.26 270.997,160.257 270.245,160.256 269.479,160.258 268.693,160.263 267.877,160.272 267.013,160.285 266.061,160.303 265.137,160.326 264.279,160.351 
  263.453,160.379 262.668,160.409 261.913,160.441 261.188,160.476 260.489,160.512 259.814,160.549 259.161,160.588 258.526,160.628 257.909,160.67 257.307,160.713 
  256.719,160.758 256.144,160.803 255.58,160.85 255.026,160.899 254.482,160.948 253.947,160.999 253.419,161.051 252.898,161.104 252.384,161.159 251.876,161.215 
  251.374,161.272 250.876,161.331 250.384,161.391 249.895,161.452 249.411,161.515 248.93,161.579 248.452,161.645 247.977,161.712 247.505,161.781 247.035,161.851 
  246.567,161.923 246.101,161.997 245.637,162.073 245.174,162.15 244.712,162.229 244.25,162.31 243.79,162.393 243.329,162.478 242.869,162.565 242.408,162.654 
  241.947,162.746 241.485,162.84 241.022,162.937 240.557,163.036 240.09,163.138 239.621,163.243 239.148,163.352 238.673,163.464 238.193,163.579 237.709,163.699 
  237.219,163.823 236.722,163.952 236.218,164.086 235.704,164.226 235.179,164.373 234.639,164.528 234.082,164.692 233.505,164.867 232.907,165.054 232.302,165.248 
  231.707,165.445 231.126,165.643 230.558,165.842 230.005,166.041 229.465,166.24 228.937,166.441 228.421,166.642 227.915,166.844 227.418,167.047 226.93,167.252 
  226.449,167.459 225.974,167.668 225.505,167.88 225.042,168.094 224.583,168.311 224.128,168.532 223.676,168.756 223.228,168.983 222.782,169.215 222.34,169.45 
  221.9,169.69 221.464,169.934 221.03,170.181 220.6,170.433 220.174,170.689 219.752,170.947 219.335,171.209 218.924,171.474 218.519,171.741 218.12,172.01 
  217.728,172.281 217.343,172.554 216.965,172.828 216.594,173.103 216.229,173.38 215.872,173.657 215.522,173.936 215.178,174.216 214.84,174.496 214.509,174.778 
  214.184,175.061 213.866,175.346 213.553,175.631 213.245,175.918 212.943,176.206 212.647,176.495 212.355,176.786 212.069,177.079 211.788,177.373 211.511,177.668 
  211.239,177.966 210.972,178.265 210.709,178.566 210.451,178.869 210.197,179.174 209.947,179.481 209.702,179.79 209.46,180.101 209.223,180.414 208.99,180.729 
  208.761,181.047 208.535,181.367 208.314,181.69 208.097,182.015 207.883,182.342 207.673,182.672 207.467,183.004 207.265,183.339 207.066,183.677 206.872,184.017 
  206.681,184.36 206.493,184.706 206.31,185.055 206.13,185.406 205.954,185.761 205.782,186.118 205.613,186.478 205.448,186.842 205.287,187.208 205.13,187.578 
  204.976,187.95 204.826,188.326 204.68,188.705 204.538,189.088 204.4,189.474 204.265,189.863 204.134,190.255 204.007,190.651 203.884,191.05 203.765,191.453 
  203.65,191.859 203.539,192.269 203.432,192.683 203.329,193.1 203.23,193.521 203.135,193.946 203.044,194.374 202.957,194.807 202.875,195.243 202.796,195.683 
  202.722,196.127 202.653,196.575 202.587,197.027 202.526,197.484 202.469,197.944 202.417,198.408 202.369,198.877 202.326,199.35 202.287,199.827 202.253,200.309 
  202.224,200.795 202.199,201.285 202.179,201.78 202.164,202.28 202.154,202.784 202.148,203.292 202.148,203.806 202.152,204.323 202.162,204.846 202.176,205.374 
  202.196,205.906 202.221,206.443 202.251,206.985 202.287,207.532 202.328,208.084 202.374,208.642 202.426,209.204 202.483,209.771 202.546,210.344 202.615,210.922 
  202.689,211.505 202.769,212.094 202.855,212.688 202.947,213.288 203.045,213.893 203.149,214.503 203.259,215.12 203.375,215.742 203.497,216.369 203.626,217.003 
  203.761,217.642 203.903,218.287 204.051,218.938 204.206,219.596 204.367,220.259 204.535,220.928 204.71,221.603 204.892,222.285 205.081,222.973 205.277,223.667 
  205.48,224.368 205.691,225.075 205.908,225.789 206.133,226.509 206.366,227.236 206.606,227.969 206.853,228.709 207.109,229.456 207.372,230.21 207.643,230.971 
  207.922,231.739 208.209,232.514 208.504,233.296 208.808,234.085 209.12,234.881 209.44,235.685 209.769,236.496 210.106,237.314 210.453,238.14 210.807,238.973 
  211.171,239.814 211.544,240.663 211.926,241.52 212.318,242.384 212.718,243.256 213.128,244.136 213.548,245.024 213.977,245.921 214.416,246.825 214.865,247.738 
  215.323,248.659 215.792,249.588 216.271,250.526 216.76,251.473 217.26,252.428 217.77,253.391 218.291,254.364 218.822,255.345 219.365,256.335 219.918,257.334 
  220.482,258.342 221.058,259.359 221.645,260.386 222.244,261.421 222.854,262.466 223.476,263.521 224.109,264.585 224.755,265.658 225.413,266.741 226.083,267.834 
  226.765,268.937 227.46,270.05 228.167,271.173 228.888,272.306 229.621,273.448 230.367,274.602 231.127,275.765 231.899,276.939 232.685,278.124 233.485,279.319 
  234.299,280.524 235.126,281.741 235.968,282.968 236.824,284.206 237.694,285.456 238.578,286.716 239.477,287.988 240.392,289.271 241.321,290.565 242.265,291.871 
  243.224,293.189 244.199,294.518 245.189,295.859 246.196,297.211 247.218,298.576 248.256,299.953 249.311,301.342 250.382,302.743 251.469,304.156 252.574,305.582 
  253.695,307.021 254.833,308.472 255.989,309.936 257.162,311.413 258.353,312.903 259.562,314.405 260.789,315.921 262.034,317.451 263.297,318.993 264.579,320.549 
  265.88,322.119 267.2,323.702 268.539,325.299 269.897,326.911 271.275,328.536 272.673,330.175 274.09,331.828 275.528,333.496 276.986,335.178 278.465,336.875 
  279.964,338.586 281.485,340.313 283.026,342.054 284.59,343.81 286.174,345.582 287.781,347.368 289.41,349.17 291.061,350.988 292.734,352.821 294.431,354.67 
  296.15,356.535 297.892,358.416 299.658,360.312 301.448,362.225 303.261,364.155 305.099,366.101 306.961,368.063 308.847,370.042 310.759,372.038 312.696,374.051 
  314.657,376.082 316.645,378.129 318.659,380.194 320.698,382.276 322.764,384.376 324.857,386.493 326.976,388.629 329.123,390.782 331.297,392.954 333.499,395.144 
  335.729,397.352 337.987,399.579 340.273,401.825 342.589,404.089 344.933,406.373 347.307,408.676 349.711,410.997 352.144,413.339 354.608,415.699 357.102,418.08 
  359.627,420.48 362.183,422.901 364.771,425.341 367.391,427.802 370.042,430.283 372.726,432.785 375.443,435.308 378.193,437.851 380.976,440.416 383.792,443.001 
  386.643,445.609 389.528,448.237 392.448,450.887 395.403,453.559 398.393,456.253 401.418,458.969 404.48,461.708 407.578,464.469 410.713,467.252 413.885,470.059 
  417.095,472.888 420.342,475.741 423.628,478.616 426.952,481.516 430.316,484.439 433.718,487.385 437.161,490.356 440.643,493.351 444.167,496.371 447.731,499.415 
  451.337,502.484 454.984,505.577 458.673,508.696 462.406,511.84 466.181,515.009 470,518.205 473.863,521.426 477.771,524.673 481.723,527.947 485.721,531.247 
  489.765,534.574 493.855,537.928 497.992,541.309 502.177,544.718 506.409,548.154 510.69,551.618 515.02,555.111 519.399,558.631 523.829,562.181 528.309,565.759 
  532.84,569.366 537.423,573.003 542.059,576.669 546.748,580.366 551.491,584.093 556.288,587.85 561.14,591.638 566.048,595.458 571.012,599.309 576.034,603.192 
  581.114,607.107 586.253,611.055 591.451,615.036 596.71,619.05 602.03,623.098 607.413,627.181 612.859,631.298 618.37,635.45 623.946,639.639 629.588,643.864 
  635.299,648.125 641.078,652.425 646.927,656.762 652.848,661.138 658.842,665.554 664.91,670.011 671.055,674.508 677.277,679.048 683.58,683.631 689.964,688.259 
  696.432,692.931 702.986,697.651 709.629,702.419 716.363,707.236 723.192,712.104 730.119,717.026 737.148,722.004 744.282,727.038 751.526,732.134 758.885,737.292 
  766.366,742.517 773.974,747.813 781.716,753.183 789.603,758.634 797.645,764.172 805.853,769.804 814.243,775.54 822.834,781.392 831.65,787.373 840.721,793.504 
  850.091,799.811 859.816,806.331 869.985,813.119 880.732,820.262 892.218,827.86 904.155,835.718 915.764,843.323 927.119,850.726 938.169,857.897 948.947,864.861 
  959.458,871.622 969.722,878.197 979.756,884.598 989.579,890.84 999.208,896.934 1008.66,902.892 1017.94,908.725 1027.08,914.442 1036.08,920.053 1044.95,925.564 
  1053.7,930.982 1062.35,936.314 1070.89,941.565 1079.33,946.739 1087.69,951.841 1095.96,956.874 1104.15,961.842 1112.26,966.748 1120.3,971.593 1128.27,976.38 
  1136.18,981.113 1144.01,985.791 1151.79,990.418 1159.51,994.994 1167.16,999.52 1174.76,1004 1182.31,1008.43 1189.8,1012.82 1197.23,1017.16 1204.62,1021.46 
  1211.95,1025.71 1219.23,1029.92 1226.46,1034.09 1233.64,1038.22 1240.77,1042.31 1247.85,1046.35 1254.89,1050.36 1261.87,1054.33 1268.81,1058.26 1275.71,1062.15 
  1282.56,1066 1289.36,1069.82 1296.11,1073.6 1302.82,1077.34 1309.49,1081.05 1316.11,1084.72 1322.68,1088.35 1329.21,1091.95 1335.7,1095.52 1342.14,1099.04 
  1348.53,1102.54 1354.89,1106 1361.2,1109.42 1367.46,1112.82 1373.69,1116.18 1379.87,1119.5 1386,1122.79 1392.1,1126.05 1398.15,1129.28 1404.16,1132.47 
  1410.12,1135.64 1416.05,1138.77 1421.93,1141.86 1427.77,1144.93 1433.57,1147.97 1439.32,1150.97 1445.04,1153.95 1450.71,1156.89 1456.34,1159.8 1461.93,1162.69 
  1467.48,1165.54 1472.99,1168.37 1478.45,1171.16 1483.88,1173.92 1489.26,1176.66 1494.61,1179.37 1499.91,1182.05 1505.18,1184.7 1510.4,1187.32 1515.59,1189.91 
  1520.74,1192.48 1525.84,1195.02 1530.91,1197.53 1535.94,1200.01 1540.92,1202.47 1545.87,1204.9 1550.79,1207.3 1555.66,1209.68 1560.49,1212.03 1565.29,1214.36 
  1570.05,1216.66 1574.77,1218.93 1579.45,1221.18 1584.1,1223.41 1588.71,1225.61 1593.28,1227.78 1597.82,1229.93 1602.31,1232.06 1606.78,1234.16 1611.2,1236.24 
  1615.59,1238.29 1619.95,1240.32 1624.26,1242.33 1628.55,1244.32 1632.79,1246.28 1637.01,1248.22 1641.19,1250.14 1645.33,1252.03 1649.44,1253.9 1653.51,1255.75 
  1657.55,1257.58 1661.56,1259.39 1665.53,1261.18 1669.47,1262.94 1673.38,1264.69 1677.25,1266.41 1681.09,1268.12 1684.9,1269.8 1688.68,1271.46 1692.42,1273.11 
  1696.14,1274.73 1699.82,1276.34 1703.47,1277.92 1707.08,1279.49 1710.67,1281.03 1714.23,1282.56 1717.75,1284.07 1721.25,1285.56 1724.71,1287.04 1728.15,1288.49 
  1731.55,1289.93 1734.93,1291.35 1738.28,1292.75 1741.59,1294.14 1744.88,1295.5 1748.14,1296.86 1751.37,1298.19 1754.58,1299.51 1757.75,1300.81 1760.9,1302.09 
  1764.02,1303.36 1767.12,1304.61 1770.18,1305.85 1773.22,1307.07 1776.23,1308.28 1779.22,1309.47 1782.18,1310.65 1785.11,1311.81 1788.02,1312.95 1790.9,1314.08 
  1793.76,1315.2 1796.59,1316.3 1799.39,1317.39 1802.17,1318.47 1804.93,1319.53 1807.66,1320.57 1810.37,1321.61 1813.06,1322.63 1815.72,1323.63 1818.35,1324.63 
  1820.97,1325.61 1823.56,1326.58 1826.12,1327.53 1828.67,1328.47 1831.19,1329.41 1833.69,1330.32 1836.16,1331.23 1838.62,1332.12 1841.05,1333.01 1843.46,1333.88 
  1845.85,1334.73 1848.22,1335.58 1850.57,1336.42 1852.9,1337.24 1855.2,1338.06 1857.49,1338.86 1859.75,1339.65 1862,1340.43 1864.22,1341.2 1866.43,1341.96 
  1868.61,1342.71 1870.78,1343.45 1872.93,1344.18 1875.05,1344.9 1877.16,1345.61 1879.25,1346.31 1881.32,1347 1883.38,1347.69 1885.41,1348.36 1887.43,1349.02 
  1889.43,1349.67 1891.41,1350.32 1893.37,1350.95 1895.32,1351.58 1897.24,1352.2 1899.16,1352.81 1901.05,1353.41 1902.93,1354 1904.79,1354.58 1906.64,1355.16 
  1908.46,1355.72 1910.28,1356.28 1912.07,1356.84 1913.85,1357.38 1915.62,1357.91 1917.37,1358.44 1919.1,1358.96 1920.82,1359.48 1922.53,1359.98 1924.21,1360.48 
  1925.89,1360.97 1927.55,1361.45 1929.19,1361.93 1930.82,1362.4 1932.44,1362.86 1934.04,1363.32 1935.63,1363.77 1937.21,1364.21 1938.77,1364.65 1940.32,1365.08 
  1941.85,1365.5 1943.37,1365.92 1944.88,1366.33 1946.37,1366.74 1947.86,1367.14 1949.33,1367.53 1950.78,1367.92 1952.23,1368.3 1953.66,1368.67 1955.08,1369.04 
  1956.49,1369.4 1957.88,1369.76 1959.27,1370.12 1960.64,1370.46 1962,1370.81 1963.35,1371.14 1964.69,1371.47 1966.02,1371.8 1967.33,1372.12 1968.64,1372.44 
  1969.93,1372.75 1971.22,1373.06 1972.49,1373.36 1973.75,1373.65 1975,1373.95 1976.24,1374.23 1977.48,1374.52 1978.7,1374.79 1979.91,1375.07 1981.11,1375.34 
  1982.3,1375.6 1983.48,1375.86 1984.66,1376.12 1985.82,1376.37 1986.98,1376.62 1988.12,1376.86 1989.26,1377.1 1990.38,1377.34 1991.5,1377.57 1992.61,1377.8 
  1993.71,1378.02 1994.81,1378.24 1995.89,1378.45 1996.97,1378.67 1998.03,1378.88 1999.09,1379.08 2000.14,1379.28 2001.19,1379.48 2002.22,1379.67 2003.25,1379.87 
  2004.27,1380.05 2005.29,1380.24 2006.29,1380.42 2007.29,1380.59 2008.28,1380.77 2009.27,1380.94 2010.24,1381.11 2011.21,1381.27 2012.18,1381.43 2013.13,1381.59 
  2014.08,1381.75 2015.03,1381.9 2015.96,1382.05 2016.9,1382.19 2017.82,1382.34 2018.74,1382.48 2019.65,1382.62 2020.56,1382.75 2021.46,1382.88 2022.36,1383.01 
  2023.25,1383.14 2024.13,1383.26 2025.01,1383.38 2025.89,1383.5 2026.75,1383.62 2027.62,1383.73 2028.48,1383.84 2029.33,1383.95 2030.18,1384.06 2031.03,1384.16 
  2031.87,1384.26 2032.7,1384.36 2033.54,1384.46 2034.36,1384.55 2035.19,1384.64 2036.01,1384.73 2036.82,1384.82 2037.64,1384.9 2038.45,1384.98 2039.25,1385.06 
  2040.06,1385.14 2040.86,1385.21 2041.66,1385.29 2042.45,1385.36 2043.24,1385.43 2044.03,1385.49 2044.82,1385.56 2045.61,1385.62 2046.39,1385.68 2047.18,1385.73 
  2047.96,1385.79 2048.74,1385.84 2049.52,1385.89 2050.3,1385.94 2051.08,1385.99 2051.86,1386.03 2052.65,1386.07 2053.43,1386.11 2054.21,1386.15 2055,1386.18 
  2055.79,1386.21 2056.58,1386.24 2057.37,1386.27 2058.17,1386.3 2058.98,1386.32 2059.79,1386.34 2060.61,1386.36 2061.43,1386.37 2062.27,1386.38 2063.12,1386.39 
  2063.98,1386.39 2064.85,1386.4 2065.74,1386.39 2066.64,1386.39 2067.54,1386.38 2068.43,1386.36 2069.32,1386.34 2070.18,1386.32 2071.04,1386.29 2071.87,1386.27 
  2072.68,1386.23 2073.48,1386.2 2074.26,1386.16 2075.02,1386.12 2075.76,1386.08 2076.49,1386.03 2077.2,1385.98 2077.9,1385.93 2078.59,1385.88 2079.26,1385.83 
  2079.92,1385.77 2080.57,1385.71 2081.2,1385.65 2081.83,1385.59 2082.44,1385.52 2083.05,1385.46 2083.65,1385.39 2084.24,1385.32 2084.81,1385.25 2085.39,1385.18 
  2085.95,1385.11 2086.51,1385.03 2087.05,1384.95 2087.6,1384.87 2088.13,1384.79 2088.66,1384.71 2089.19,1384.63 2089.71,1384.54 2090.22,1384.45 2090.73,1384.37 
  2091.24,1384.28 2091.74,1384.18 2092.24,1384.09 2092.73,1383.99 2093.22,1383.9 2093.71,1383.8 2094.2,1383.69 2094.68,1383.59 2095.16,1383.48 2095.64,1383.38 
  2096.12,1383.26 2096.6,1383.15 2097.08,1383.04 2097.55,1382.92 2098.03,1382.8 2098.51,1382.67 2098.99,1382.54 2099.47,1382.41 2099.95,1382.28 2100.43,1382.14 
  2100.92,1381.99 2101.42,1381.85 2101.92,1381.69 2102.42,1381.53 2102.94,1381.36 2103.47,1381.19 2104.02,1381 2104.58,1380.8 2105.17,1380.59 2105.75,1380.38 
  2106.31,1380.16 2106.85,1379.95 2107.37,1379.74 2107.88,1379.53 2108.37,1379.32 2108.84,1379.12 2109.3,1378.91 2109.75,1378.71 2110.19,1378.51 2110.61,1378.3 
  2111.03,1378.1 2111.43,1377.9 2111.83,1377.7 2112.22,1377.5 2112.6,1377.3 2112.98,1377.09 2113.35,1376.89 2113.71,1376.69 2114.07,1376.48 2114.42,1376.28 
  2114.77,1376.07 2115.12,1375.86 2115.46,1375.65 2115.79,1375.44 2116.12,1375.23 2116.45,1375.01 2116.77,1374.8 2117.09,1374.58 2117.41,1374.36 2117.72,1374.14 
  2118.03,1373.91 2118.34,1373.69 2118.64,1373.46 2118.94,1373.23 2119.24,1373 2119.53,1372.77 2119.82,1372.53 2120.11,1372.29 2120.4,1372.05 2120.68,1371.81 
  2120.96,1371.57 2121.24,1371.32 2121.51,1371.07 2121.79,1370.82 2122.05,1370.56 2122.32,1370.31 2122.59,1370.05 2122.85,1369.78 2123.11,1369.52 2123.36,1369.25 
  2123.61,1368.98 2123.86,1368.7 2124.11,1368.43 2124.36,1368.15 2124.6,1367.86 2124.84,1367.58 2125.08,1367.29 2125.31,1367 2125.54,1366.7 2125.77,1366.4 
  2126,1366.1 2126.22,1365.79 2126.44,1365.48 2126.66,1365.17 2126.88,1364.86 2127.09,1364.54 2127.3,1364.21 2127.51,1363.89 2127.71,1363.56 2127.91,1363.22 
  2128.11,1362.88 2128.3,1362.54 2128.49,1362.2 2128.68,1361.85 2128.86,1361.49 2129.05,1361.13 2129.22,1360.77 2129.4,1360.4 2129.57,1360.03 2129.74,1359.66 
  2129.9,1359.28 2130.06,1358.9 2130.22,1358.51 2130.37,1358.12 2130.52,1357.72 2130.67,1357.32 2130.81,1356.91 2130.95,1356.5 2131.09,1356.08 2131.22,1355.66 
  2131.34,1355.23 2131.47,1354.8 2131.58,1354.37 2131.7,1353.92 2131.81,1353.48 2131.91,1353.03 2132.01,1352.57 2132.11,1352.1 2132.2,1351.64 2132.29,1351.16 
  2132.37,1350.68 2132.45,1350.2 2132.52,1349.71 2132.59,1349.21 2132.65,1348.71 2132.71,1348.2 2132.76,1347.68 2132.8,1347.16 2132.85,1346.63 2132.88,1346.1 
  2132.91,1345.56 2132.93,1345.01 2132.95,1344.46 2132.96,1343.9 2132.97,1343.33 2132.97,1342.76 2132.96,1342.18 2132.95,1341.6 2132.93,1341 2132.91,1340.4 
  2132.88,1339.79 2132.84,1339.18 2132.79,1338.55 2132.74,1337.93 2132.68,1337.29 2132.61,1336.64 2132.54,1335.99 2132.45,1335.33 2132.36,1334.66 2132.27,1333.99 
  2132.16,1333.3 2132.05,1332.61 2131.93,1331.91 2131.8,1331.2 2131.66,1330.48 2131.52,1329.76 2131.36,1329.02 2131.2,1328.28 2131.03,1327.53 2130.84,1326.77 
  2130.65,1326 2130.45,1325.22 2130.25,1324.44 2130.03,1323.64 2129.8,1322.83 2129.56,1322.02 2129.31,1321.2 2129.05,1320.36 2128.79,1319.52 2128.51,1318.66 
  2128.22,1317.8 2127.92,1316.93 2127.61,1316.04 2127.28,1315.15 2126.95,1314.25 2126.61,1313.33 2126.25,1312.41 2125.88,1311.47 2125.5,1310.53 2125.11,1309.57 
  2124.71,1308.6 2124.29,1307.63 2123.86,1306.64 2123.42,1305.64 2122.96,1304.62 2122.5,1303.6 2122.01,1302.57 2121.52,1301.52 2121.01,1300.46 2120.49,1299.39 
  2119.95,1298.31 2119.4,1297.22 2118.84,1296.11 2118.26,1294.99 2117.67,1293.86 2117.06,1292.72 2116.43,1291.56 2115.79,1290.39 2115.14,1289.21 2114.47,1288.01 
  2113.78,1286.81 2113.08,1285.58 2112.36,1284.35 2111.63,1283.1 2110.87,1281.84 2110.11,1280.57 2109.32,1279.28 2108.51,1277.97 2107.69,1276.66 2106.85,1275.33 
  2106,1273.98 2105.12,1272.62 2104.23,1271.25 2103.32,1269.86 2102.38,1268.45 2101.43,1267.03 2100.46,1265.6 2099.47,1264.15 2098.46,1262.69 2097.43,1261.21 
  2096.38,1259.71 2095.31,1258.2 2094.22,1256.67 2093.11,1255.13 2091.97,1253.57 2090.82,1252 2089.64,1250.4 2088.44,1248.8 2087.22,1247.17 2085.98,1245.53 
  2084.71,1243.87 2083.42,1242.2 2082.11,1240.5 2080.77,1238.79 2079.41,1237.07 2078.02,1235.32 2076.61,1233.56 2075.18,1231.78 2073.72,1229.98 2072.24,1228.16 
  2070.73,1226.33 2069.19,1224.47 2067.63,1222.6 2066.04,1220.71 2064.43,1218.8 2062.79,1216.87 2061.12,1214.93 2059.42,1212.96 2057.7,1210.97 2055.95,1208.97 
  2054.17,1206.94 2052.36,1204.9 2050.52,1202.83 2048.65,1200.74 2046.76,1198.64 2044.83,1196.51 2042.87,1194.36 2040.88,1192.2 2038.87,1190.01 2036.82,1187.8 
  2034.74,1185.57 2032.63,1183.31 2030.48,1181.04 2028.3,1178.74 2026.09,1176.42 2023.85,1174.08 2021.58,1171.72 2019.27,1169.34 2016.92,1166.93 2014.55,1164.5 
  2012.13,1162.05 2009.68,1159.58 2007.2,1157.08 2004.68,1154.56 2002.13,1152.01 1999.54,1149.44 1996.91,1146.85 1994.24,1144.24 1991.54,1141.6 1988.8,1138.93 
  1986.02,1136.24 1983.2,1133.53 1980.35,1130.79 1977.45,1128.03 1974.52,1125.25 1971.54,1122.43 1968.52,1119.6 1965.47,1116.73 1962.37,1113.84 1959.23,1110.93 
  1956.05,1107.99 1952.82,1105.02 1949.56,1102.03 1946.25,1099.01 1942.9,1095.97 1939.5,1092.9 1936.06,1089.8 1932.57,1086.67 1929.04,1083.52 1925.46,1080.34 
  1921.84,1077.13 1918.17,1073.89 1914.46,1070.63 1910.69,1067.34 1906.88,1064.02 1903.02,1060.67 1899.12,1057.29 1895.16,1053.89 1891.15,1050.45 1887.1,1046.99 
  1882.99,1043.5 1878.84,1039.98 1874.63,1036.42 1870.37,1032.84 1866.06,1029.23 1861.69,1025.59 1857.28,1021.92 1852.8,1018.22 1848.28,1014.48 1843.7,1010.72 
  1839.06,1006.92 1834.37,1003.1 1829.63,999.241 1824.82,995.351 1819.96,991.43 1815.04,987.476 1810.06,983.491 1805.03,979.472 1799.93,975.421 1794.77,971.336 
  1789.56,967.219 1784.28,963.067 1778.93,958.882 1773.53,954.662 1768.06,950.408 1762.53,946.119 1756.93,941.795 1751.26,937.436 1745.53,933.04 1739.73,928.609 
  1733.86,924.14 1727.92,919.635 1721.91,915.092 1715.83,910.51 1709.68,905.891 1703.45,901.232 1697.14,896.533 1690.76,891.794 1684.3,887.014 1677.76,882.192 
  1671.14,877.327 1664.44,872.419 1657.65,867.466 1650.78,862.467 1643.81,857.422 1636.76,852.329 1629.61,847.186 1622.36,841.992 1615.01,836.745 1607.56,831.444 
  1600,826.085 1592.33,820.667 1584.54,815.186 1576.63,809.64 1568.59,804.024 1560.42,798.335 1552.1,792.566 1543.62,786.712 1534.98,780.765 1526.15,774.715 
  1524.12,773.326 
  "/>
<circle clip-path="url(#clip562)" cx="1167.56" cy="773.326" r="14" fill="#3da44d" fill-rule="evenodd" fill-opacity="1" stroke="#000000" stroke-opacity="1" stroke-width="3.2"/>
<path clip-path="url(#clip560)" d="
M1910.48 408.716 L2280.18 408.716 L2280.18 166.796 L1910.48 166.796  Z
  " fill="#ffffff" fill-rule="evenodd" fill-opacity="1"/>
<polyline clip-path="url(#clip560)" style="stroke:#000000; stroke-width:4; stroke-opacity:1; fill:none" points="
  1910.48,408.716 2280.18,408.716 2280.18,166.796 1910.48,166.796 1910.48,408.716 
  "/>
<polyline clip-path="url(#clip560)" style="stroke:#009af9; stroke-width:4; stroke-opacity:1; fill:none" points="
  1934.67,227.276 2079.82,227.276 
  "/>
<path clip-path="url(#clip560)" d="M 0 0 M2104.69 240.621 L2112.33 240.621 L2112.33 214.255 L2104.02 215.922 L2104.02 211.662 L2112.28 209.996 L2116.96 209.996 L2116.96 240.621 L2124.6 240.621 L2124.6 244.556 L2104.69 244.556 L2104.69 240.621 Z" fill="#000000" fill-rule="evenodd" fill-opacity="1" /><path clip-path="url(#clip560)" d="M 0 0 M2139.11 222.01 Q2135.59 222.01 2133.69 224.556 Q2131.7 227.218 2131.7 231.616 Q2131.7 236.269 2133.67 238.954 Q2135.66 241.616 2139.11 241.616 Q2142.51 241.616 2144.5 238.931 Q2146.49 236.246 2146.49 231.616 Q2146.49 227.38 2144.5 224.556 Q2142.67 222.01 2139.11 222.01 M2139.11 218.63 L2153.25 218.63 L2153.25 222.889 L2148.48 222.889 Q2151.01 226.5 2151.01 231.616 Q2151.01 237.982 2147.84 241.593 Q2144.67 245.227 2139.11 245.227 Q2133.53 245.227 2130.38 241.593 Q2127.21 237.982 2127.21 231.616 Q2127.21 225.204 2130.38 221.616 Q2133 218.63 2139.11 218.63 Z" fill="#000000" fill-rule="evenodd" fill-opacity="1" /><path clip-path="url(#clip560)" d="M 0 0 M2198.85 212.658 L2198.85 217.588 Q2196.49 215.389 2193.81 214.301 Q2191.15 213.213 2188.14 213.213 Q2182.21 213.213 2179.06 216.848 Q2175.91 220.459 2175.91 227.31 Q2175.91 234.139 2179.06 237.773 Q2182.21 241.384 2188.14 241.384 Q2191.15 241.384 2193.81 240.296 Q2196.49 239.209 2198.85 237.009 L2198.85 241.894 Q2196.4 243.56 2193.65 244.394 Q2190.91 245.227 2187.86 245.227 Q2180.01 245.227 2175.5 240.435 Q2170.98 235.621 2170.98 227.31 Q2170.98 218.977 2175.5 214.186 Q2180.01 209.371 2187.86 209.371 Q2190.96 209.371 2193.69 210.204 Q2196.45 211.014 2198.85 212.658 Z" fill="#000000" fill-rule="evenodd" fill-opacity="1" /><path clip-path="url(#clip560)" d="M 0 0 M2219.9 228.352 Q2221.4 228.861 2222.81 230.528 Q2224.25 232.195 2225.68 235.111 L2230.43 244.556 L2225.41 244.556 L2220.98 235.69 Q2219.27 232.218 2217.65 231.084 Q2216.05 229.949 2213.28 229.949 L2208.18 229.949 L2208.18 244.556 L2203.51 244.556 L2203.51 209.996 L2214.06 209.996 Q2219.99 209.996 2222.91 212.473 Q2225.82 214.949 2225.82 219.949 Q2225.82 223.213 2224.29 225.366 Q2222.79 227.519 2219.9 228.352 M2208.18 213.838 L2208.18 226.107 L2214.06 226.107 Q2217.44 226.107 2219.16 224.556 Q2220.89 222.982 2220.89 219.949 Q2220.89 216.917 2219.16 215.389 Q2217.44 213.838 2214.06 213.838 L2208.18 213.838 Z" fill="#000000" fill-rule="evenodd" fill-opacity="1" /><polyline clip-path="url(#clip560)" style="stroke:#e26f46; stroke-width:4; stroke-opacity:1; fill:none" points="
  1934.67,287.756 2079.82,287.756 
  "/>
<path clip-path="url(#clip560)" d="M 0 0 M2109.64 301.101 L2125.96 301.101 L2125.96 305.036 L2104.02 305.036 L2104.02 301.101 Q2106.68 298.346 2111.26 293.716 Q2115.87 289.064 2117.05 287.721 Q2119.29 285.198 2120.17 283.462 Q2121.08 281.703 2121.08 280.013 Q2121.08 277.258 2119.13 275.522 Q2117.21 273.786 2114.11 273.786 Q2111.91 273.786 2109.46 274.55 Q2107.03 275.314 2104.25 276.865 L2104.25 272.142 Q2107.07 271.008 2109.53 270.429 Q2111.98 269.851 2114.02 269.851 Q2119.39 269.851 2122.58 272.536 Q2125.78 275.221 2125.78 279.712 Q2125.78 281.841 2124.97 283.763 Q2124.18 285.661 2122.07 288.253 Q2121.49 288.925 2118.39 292.142 Q2115.29 295.337 2109.64 301.101 Z" fill="#000000" fill-rule="evenodd" fill-opacity="1" /><path clip-path="url(#clip560)" d="M 0 0 M2140.48 282.49 Q2136.96 282.49 2135.06 285.036 Q2133.07 287.698 2133.07 292.096 Q2133.07 296.749 2135.04 299.434 Q2137.03 302.096 2140.48 302.096 Q2143.88 302.096 2145.87 299.411 Q2147.86 296.726 2147.86 292.096 Q2147.86 287.86 2145.87 285.036 Q2144.04 282.49 2140.48 282.49 M2140.48 279.11 L2154.62 279.11 L2154.62 283.369 L2149.85 283.369 Q2152.37 286.98 2152.37 292.096 Q2152.37 298.462 2149.2 302.073 Q2146.03 305.707 2140.48 305.707 Q2134.9 305.707 2131.75 302.073 Q2128.58 298.462 2128.58 292.096 Q2128.58 285.684 2131.75 282.096 Q2134.36 279.11 2140.48 279.11 Z" fill="#000000" fill-rule="evenodd" fill-opacity="1" /><path clip-path="url(#clip560)" d="M 0 0 M2200.22 273.138 L2200.22 278.068 Q2197.86 275.869 2195.17 274.781 Q2192.51 273.693 2189.5 273.693 Q2183.58 273.693 2180.43 277.328 Q2177.28 280.939 2177.28 287.79 Q2177.28 294.619 2180.43 298.253 Q2183.58 301.864 2189.5 301.864 Q2192.51 301.864 2195.17 300.776 Q2197.86 299.689 2200.22 297.489 L2200.22 302.374 Q2197.77 304.04 2195.01 304.874 Q2192.28 305.707 2189.22 305.707 Q2181.38 305.707 2176.86 300.915 Q2172.35 296.101 2172.35 287.79 Q2172.35 279.457 2176.86 274.666 Q2181.38 269.851 2189.22 269.851 Q2192.33 269.851 2195.06 270.684 Q2197.81 271.494 2200.22 273.138 Z" fill="#000000" fill-rule="evenodd" fill-opacity="1" /><path clip-path="url(#clip560)" d="M 0 0 M2221.26 288.832 Q2222.77 289.341 2224.18 291.008 Q2225.61 292.675 2227.05 295.591 L2231.79 305.036 L2226.77 305.036 L2222.35 296.17 Q2220.64 292.698 2219.02 291.564 Q2217.42 290.429 2214.64 290.429 L2209.55 290.429 L2209.55 305.036 L2204.87 305.036 L2204.87 270.476 L2215.43 270.476 Q2221.35 270.476 2224.27 272.953 Q2227.19 275.429 2227.19 280.429 Q2227.19 283.693 2225.66 285.846 Q2224.16 287.999 2221.26 288.832 M2209.55 274.318 L2209.55 286.587 L2215.43 286.587 Q2218.81 286.587 2220.52 285.036 Q2222.26 283.462 2222.26 280.429 Q2222.26 277.397 2220.52 275.869 Q2218.81 274.318 2215.43 274.318 L2209.55 274.318 Z" fill="#000000" fill-rule="evenodd" fill-opacity="1" /><circle clip-path="url(#clip560)" cx="2007.25" cy="348.236" r="23" fill="#3da44d" fill-rule="evenodd" fill-opacity="1" stroke="#000000" stroke-opacity="1" stroke-width="5.12"/>
<path clip-path="url(#clip560)" d="M 0 0 M2104.02 330.956 L2110.98 330.956 L2119.8 354.474 L2128.67 330.956 L2135.64 330.956 L2135.64 365.516 L2131.08 365.516 L2131.08 335.169 L2122.17 358.872 L2117.47 358.872 L2108.55 335.169 L2108.55 365.516 L2104.02 365.516 L2104.02 330.956 Z" fill="#000000" fill-rule="evenodd" fill-opacity="1" /><path clip-path="url(#clip560)" d="M 0 0 M2140.29 330.956 L2144.97 330.956 L2144.97 361.581 L2161.79 361.581 L2161.79 365.516 L2140.29 365.516 L2140.29 330.956 Z" fill="#000000" fill-rule="evenodd" fill-opacity="1" /><path clip-path="url(#clip560)" d="M 0 0 M2166.45 330.956 L2188.3 330.956 L2188.3 334.891 L2171.12 334.891 L2171.12 345.122 L2187.58 345.122 L2187.58 349.057 L2171.12 349.057 L2171.12 361.581 L2188.72 361.581 L2188.72 365.516 L2166.45 365.516 L2166.45 330.956 Z" fill="#000000" fill-rule="evenodd" fill-opacity="1" /></svg>
