<?xml version="1.0" encoding="utf-8"?>
<svg xmlns="http://www.w3.org/2000/svg" xmlns:xlink="http://www.w3.org/1999/xlink" width="600" height="400" viewBox="0 0 2400 1600">
<defs>
  <clipPath id="clip060">
    <rect x="0" y="0" width="2400" height="1600"/>
  </clipPath>
</defs>
<path clip-path="url(#clip060)" d="
M0 1600 L2400 1600 L2400 0 L0 0  Z
  " fill="#ffffff" fill-rule="evenodd" fill-opacity="1"/>
<defs>
  <clipPath id="clip061">
    <rect x="480" y="0" width="1681" height="1600"/>
  </clipPath>
</defs>
<path clip-path="url(#clip060)" d="
M242.922 1423.18 L2352.76 1423.18 L2352.76 123.472 L242.922 123.472  Z
  " fill="#ffffff" fill-rule="evenodd" fill-opacity="1"/>
<defs>
  <clipPath id="clip062">
    <rect x="242" y="123" width="2111" height="1301"/>
  </clipPath>
</defs>
<polyline clip-path="url(#clip062)" style="stroke:#000000; stroke-width:2; stroke-opacity:0.1; fill:none" points="
  294.364,1423.18 294.364,123.472 
  "/>
<polyline clip-path="url(#clip062)" style="stroke:#000000; stroke-width:2; stroke-opacity:0.1; fill:none" points="
  790.675,1423.18 790.675,123.472 
  "/>
<polyline clip-path="url(#clip062)" style="stroke:#000000; stroke-width:2; stroke-opacity:0.1; fill:none" points="
  1286.99,1423.18 1286.99,123.472 
  "/>
<polyline clip-path="url(#clip062)" style="stroke:#000000; stroke-width:2; stroke-opacity:0.1; fill:none" points="
  1783.3,1423.18 1783.3,123.472 
  "/>
<polyline clip-path="url(#clip062)" style="stroke:#000000; stroke-width:2; stroke-opacity:0.1; fill:none" points="
  2279.61,1423.18 2279.61,123.472 
  "/>
<polyline clip-path="url(#clip060)" style="stroke:#000000; stroke-width:4; stroke-opacity:1; fill:none" points="
  242.922,1423.18 2352.76,1423.18 
  "/>
<polyline clip-path="url(#clip060)" style="stroke:#000000; stroke-width:4; stroke-opacity:1; fill:none" points="
  294.364,1423.18 294.364,1407.58 
  "/>
<polyline clip-path="url(#clip060)" style="stroke:#000000; stroke-width:4; stroke-opacity:1; fill:none" points="
  790.675,1423.18 790.675,1407.58 
  "/>
<polyline clip-path="url(#clip060)" style="stroke:#000000; stroke-width:4; stroke-opacity:1; fill:none" points="
  1286.99,1423.18 1286.99,1407.58 
  "/>
<polyline clip-path="url(#clip060)" style="stroke:#000000; stroke-width:4; stroke-opacity:1; fill:none" points="
  1783.3,1423.18 1783.3,1407.58 
  "/>
<polyline clip-path="url(#clip060)" style="stroke:#000000; stroke-width:4; stroke-opacity:1; fill:none" points="
  2279.61,1423.18 2279.61,1407.58 
  "/>
<path clip-path="url(#clip060)" d="M 0 0 M275.799 1452.37 Q272.188 1452.37 270.36 1455.94 Q268.554 1459.48 268.554 1466.61 Q268.554 1473.71 270.36 1477.28 Q272.188 1480.82 275.799 1480.82 Q279.434 1480.82 281.239 1477.28 Q283.068 1473.71 283.068 1466.61 Q283.068 1459.48 281.239 1455.94 Q279.434 1452.37 275.799 1452.37 M275.799 1448.67 Q281.61 1448.67 284.665 1453.27 Q287.744 1457.86 287.744 1466.61 Q287.744 1475.33 284.665 1479.94 Q281.61 1484.52 275.799 1484.52 Q269.989 1484.52 266.911 1479.94 Q263.855 1475.33 263.855 1466.61 Q263.855 1457.86 266.911 1453.27 Q269.989 1448.67 275.799 1448.67 Z" fill="#000000" fill-rule="evenodd" fill-opacity="1" /><path clip-path="url(#clip060)" d="M 0 0 M292.813 1477.97 L297.697 1477.97 L297.697 1483.85 L292.813 1483.85 L292.813 1477.97 Z" fill="#000000" fill-rule="evenodd" fill-opacity="1" /><path clip-path="url(#clip060)" d="M 0 0 M313.346 1464.71 Q310.197 1464.71 308.346 1466.86 Q306.517 1469.01 306.517 1472.76 Q306.517 1476.49 308.346 1478.67 Q310.197 1480.82 313.346 1480.82 Q316.494 1480.82 318.322 1478.67 Q320.174 1476.49 320.174 1472.76 Q320.174 1469.01 318.322 1466.86 Q316.494 1464.71 313.346 1464.71 M322.628 1450.06 L322.628 1454.31 Q320.869 1453.48 319.063 1453.04 Q317.281 1452.6 315.521 1452.6 Q310.892 1452.6 308.438 1455.73 Q306.008 1458.85 305.66 1465.17 Q307.026 1463.16 309.086 1462.09 Q311.146 1461 313.623 1461 Q318.832 1461 321.841 1464.18 Q324.873 1467.32 324.873 1472.76 Q324.873 1478.09 321.725 1481.31 Q318.577 1484.52 313.346 1484.52 Q307.35 1484.52 304.179 1479.94 Q301.008 1475.33 301.008 1466.61 Q301.008 1458.41 304.896 1453.55 Q308.785 1448.67 315.336 1448.67 Q317.095 1448.67 318.878 1449.01 Q320.683 1449.36 322.628 1450.06 Z" fill="#000000" fill-rule="evenodd" fill-opacity="1" /><path clip-path="url(#clip060)" d="M 0 0 M772.238 1452.37 Q768.626 1452.37 766.798 1455.94 Q764.992 1459.48 764.992 1466.61 Q764.992 1473.71 766.798 1477.28 Q768.626 1480.82 772.238 1480.82 Q775.872 1480.82 777.677 1477.28 Q779.506 1473.71 779.506 1466.61 Q779.506 1459.48 777.677 1455.94 Q775.872 1452.37 772.238 1452.37 M772.238 1448.67 Q778.048 1448.67 781.103 1453.27 Q784.182 1457.86 784.182 1466.61 Q784.182 1475.33 781.103 1479.94 Q778.048 1484.52 772.238 1484.52 Q766.427 1484.52 763.349 1479.94 Q760.293 1475.33 760.293 1466.61 Q760.293 1457.86 763.349 1453.27 Q766.427 1448.67 772.238 1448.67 Z" fill="#000000" fill-rule="evenodd" fill-opacity="1" /><path clip-path="url(#clip060)" d="M 0 0 M789.251 1477.97 L794.136 1477.97 L794.136 1483.85 L789.251 1483.85 L789.251 1477.97 Z" fill="#000000" fill-rule="evenodd" fill-opacity="1" /><path clip-path="url(#clip060)" d="M 0 0 M809.205 1467.44 Q805.872 1467.44 803.95 1469.22 Q802.052 1471 802.052 1474.13 Q802.052 1477.25 803.95 1479.04 Q805.872 1480.82 809.205 1480.82 Q812.538 1480.82 814.46 1479.04 Q816.381 1477.23 816.381 1474.13 Q816.381 1471 814.46 1469.22 Q812.561 1467.44 809.205 1467.44 M804.529 1465.45 Q801.52 1464.71 799.83 1462.65 Q798.163 1460.59 798.163 1457.63 Q798.163 1453.48 801.103 1451.07 Q804.066 1448.67 809.205 1448.67 Q814.367 1448.67 817.307 1451.07 Q820.247 1453.48 820.247 1457.63 Q820.247 1460.59 818.557 1462.65 Q816.89 1464.71 813.904 1465.45 Q817.284 1466.24 819.159 1468.53 Q821.057 1470.82 821.057 1474.13 Q821.057 1479.15 817.978 1481.84 Q814.922 1484.52 809.205 1484.52 Q803.487 1484.52 800.409 1481.84 Q797.353 1479.15 797.353 1474.13 Q797.353 1470.82 799.251 1468.53 Q801.149 1466.24 804.529 1465.45 M802.816 1458.06 Q802.816 1460.75 804.483 1462.25 Q806.173 1463.76 809.205 1463.76 Q812.214 1463.76 813.904 1462.25 Q815.617 1460.75 815.617 1458.06 Q815.617 1455.38 813.904 1453.88 Q812.214 1452.37 809.205 1452.37 Q806.173 1452.37 804.483 1453.88 Q802.816 1455.38 802.816 1458.06 Z" fill="#000000" fill-rule="evenodd" fill-opacity="1" /><path clip-path="url(#clip060)" d="M 0 0 M1258.88 1479.92 L1266.52 1479.92 L1266.52 1453.55 L1258.21 1455.22 L1258.21 1450.96 L1266.48 1449.29 L1271.15 1449.29 L1271.15 1479.92 L1278.79 1479.92 L1278.79 1483.85 L1258.88 1483.85 L1258.88 1479.92 Z" fill="#000000" fill-rule="evenodd" fill-opacity="1" /><path clip-path="url(#clip060)" d="M 0 0 M1283.86 1477.97 L1288.74 1477.97 L1288.74 1483.85 L1283.86 1483.85 L1283.86 1477.97 Z" fill="#000000" fill-rule="evenodd" fill-opacity="1" /><path clip-path="url(#clip060)" d="M 0 0 M1303.81 1452.37 Q1300.2 1452.37 1298.37 1455.94 Q1296.57 1459.48 1296.57 1466.61 Q1296.57 1473.71 1298.37 1477.28 Q1300.2 1480.82 1303.81 1480.82 Q1307.45 1480.82 1309.25 1477.28 Q1311.08 1473.71 1311.08 1466.61 Q1311.08 1459.48 1309.25 1455.94 Q1307.45 1452.37 1303.81 1452.37 M1303.81 1448.67 Q1309.62 1448.67 1312.68 1453.27 Q1315.76 1457.86 1315.76 1466.61 Q1315.76 1475.33 1312.68 1479.94 Q1309.62 1484.52 1303.81 1484.52 Q1298 1484.52 1294.93 1479.94 Q1291.87 1475.33 1291.87 1466.61 Q1291.87 1457.86 1294.93 1453.27 Q1298 1448.67 1303.81 1448.67 Z" fill="#000000" fill-rule="evenodd" fill-opacity="1" /><path clip-path="url(#clip060)" d="M 0 0 M1755.99 1479.92 L1763.63 1479.92 L1763.63 1453.55 L1755.32 1455.22 L1755.32 1450.96 L1763.59 1449.29 L1768.26 1449.29 L1768.26 1479.92 L1775.9 1479.92 L1775.9 1483.85 L1755.99 1483.85 L1755.99 1479.92 Z" fill="#000000" fill-rule="evenodd" fill-opacity="1" /><path clip-path="url(#clip060)" d="M 0 0 M1780.97 1477.97 L1785.85 1477.97 L1785.85 1483.85 L1780.97 1483.85 L1780.97 1477.97 Z" fill="#000000" fill-rule="evenodd" fill-opacity="1" /><path clip-path="url(#clip060)" d="M 0 0 M1794.95 1479.92 L1811.27 1479.92 L1811.27 1483.85 L1789.33 1483.85 L1789.33 1479.92 Q1791.99 1477.16 1796.57 1472.53 Q1801.18 1467.88 1802.36 1466.54 Q1804.6 1464.01 1805.48 1462.28 Q1806.39 1460.52 1806.39 1458.83 Q1806.39 1456.07 1804.44 1454.34 Q1802.52 1452.6 1799.42 1452.6 Q1797.22 1452.6 1794.77 1453.37 Q1792.34 1454.13 1789.56 1455.68 L1789.56 1450.96 Q1792.38 1449.82 1794.84 1449.25 Q1797.29 1448.67 1799.33 1448.67 Q1804.7 1448.67 1807.89 1451.35 Q1811.09 1454.04 1811.09 1458.53 Q1811.09 1460.66 1810.28 1462.58 Q1809.49 1464.48 1807.38 1467.07 Q1806.8 1467.74 1803.7 1470.96 Q1800.6 1474.15 1794.95 1479.92 Z" fill="#000000" fill-rule="evenodd" fill-opacity="1" /><path clip-path="url(#clip060)" d="M 0 0 M2251.26 1479.92 L2258.9 1479.92 L2258.9 1453.55 L2250.59 1455.22 L2250.59 1450.96 L2258.86 1449.29 L2263.53 1449.29 L2263.53 1479.92 L2271.17 1479.92 L2271.17 1483.85 L2251.26 1483.85 L2251.26 1479.92 Z" fill="#000000" fill-rule="evenodd" fill-opacity="1" /><path clip-path="url(#clip060)" d="M 0 0 M2276.24 1477.97 L2281.12 1477.97 L2281.12 1483.85 L2276.24 1483.85 L2276.24 1477.97 Z" fill="#000000" fill-rule="evenodd" fill-opacity="1" /><path clip-path="url(#clip060)" d="M 0 0 M2299.04 1453.37 L2287.23 1471.81 L2299.04 1471.81 L2299.04 1453.37 M2297.81 1449.29 L2303.69 1449.29 L2303.69 1471.81 L2308.62 1471.81 L2308.62 1475.7 L2303.69 1475.7 L2303.69 1483.85 L2299.04 1483.85 L2299.04 1475.7 L2283.44 1475.7 L2283.44 1471.19 L2297.81 1449.29 Z" fill="#000000" fill-rule="evenodd" fill-opacity="1" /><path clip-path="url(#clip060)" d="M 0 0 M1270.77 1533.45 L1250.49 1533.45 Q1250.97 1542.96 1253.17 1547 Q1255.9 1551.97 1260.65 1551.97 Q1265.42 1551.97 1268.06 1546.97 Q1270.39 1542.58 1270.77 1533.45 M1270.67 1528.03 Q1269.78 1519 1268.06 1515.81 Q1265.33 1510.78 1260.65 1510.78 Q1255.78 1510.78 1253.2 1515.75 Q1251.16 1519.76 1250.56 1528.03 L1270.67 1528.03 M1260.65 1506.01 Q1268.29 1506.01 1272.65 1512.76 Q1277.01 1519.47 1277.01 1531.38 Q1277.01 1543.25 1272.65 1550 Q1268.29 1556.78 1260.65 1556.78 Q1252.98 1556.78 1248.65 1550 Q1244.29 1543.25 1244.29 1531.38 Q1244.29 1519.47 1248.65 1512.76 Q1252.98 1506.01 1260.65 1506.01 Z" fill="#000000" fill-rule="evenodd" fill-opacity="1" /><path clip-path="url(#clip060)" d="M 0 0 M1282.61 1506.52 L1296.1 1506.52 L1296.1 1511.07 L1288.47 1511.07 L1288.47 1560.09 L1296.1 1560.09 L1296.1 1564.64 L1282.61 1564.64 L1282.61 1506.52 Z" fill="#000000" fill-rule="evenodd" fill-opacity="1" /><path clip-path="url(#clip060)" d="M 0 0 M1304.19 1550.63 L1314.69 1550.63 L1314.69 1514.38 L1303.27 1516.67 L1303.27 1510.82 L1314.63 1508.52 L1321.06 1508.52 L1321.06 1550.63 L1331.56 1550.63 L1331.56 1556.04 L1304.19 1556.04 L1304.19 1550.63 Z" fill="#000000" fill-rule="evenodd" fill-opacity="1" /><path clip-path="url(#clip060)" d="M 0 0 M1351.39 1506.52 L1351.39 1564.64 L1337.9 1564.64 L1337.9 1560.09 L1345.5 1560.09 L1345.5 1511.07 L1337.9 1511.07 L1337.9 1506.52 L1351.39 1506.52 Z" fill="#000000" fill-rule="evenodd" fill-opacity="1" /><polyline clip-path="url(#clip062)" style="stroke:#000000; stroke-width:2; stroke-opacity:0.1; fill:none" points="
  242.922,1326.23 2352.76,1326.23 
  "/>
<polyline clip-path="url(#clip062)" style="stroke:#000000; stroke-width:2; stroke-opacity:0.1; fill:none" points="
  242.922,1080.58 2352.76,1080.58 
  "/>
<polyline clip-path="url(#clip062)" style="stroke:#000000; stroke-width:2; stroke-opacity:0.1; fill:none" points="
  242.922,834.928 2352.76,834.928 
  "/>
<polyline clip-path="url(#clip062)" style="stroke:#000000; stroke-width:2; stroke-opacity:0.1; fill:none" points="
  242.922,589.279 2352.76,589.279 
  "/>
<polyline clip-path="url(#clip062)" style="stroke:#000000; stroke-width:2; stroke-opacity:0.1; fill:none" points="
  242.922,343.629 2352.76,343.629 
  "/>
<polyline clip-path="url(#clip060)" style="stroke:#000000; stroke-width:4; stroke-opacity:1; fill:none" points="
  242.922,1423.18 242.922,123.472 
  "/>
<polyline clip-path="url(#clip060)" style="stroke:#000000; stroke-width:4; stroke-opacity:1; fill:none" points="
  242.922,1326.23 268.24,1326.23 
  "/>
<polyline clip-path="url(#clip060)" style="stroke:#000000; stroke-width:4; stroke-opacity:1; fill:none" points="
  242.922,1080.58 268.24,1080.58 
  "/>
<polyline clip-path="url(#clip060)" style="stroke:#000000; stroke-width:4; stroke-opacity:1; fill:none" points="
  242.922,834.928 268.24,834.928 
  "/>
<polyline clip-path="url(#clip060)" style="stroke:#000000; stroke-width:4; stroke-opacity:1; fill:none" points="
  242.922,589.279 268.24,589.279 
  "/>
<polyline clip-path="url(#clip060)" style="stroke:#000000; stroke-width:4; stroke-opacity:1; fill:none" points="
  242.922,343.629 268.24,343.629 
  "/>
<path clip-path="url(#clip060)" d="M 0 0 M115.487 1326.68 L145.163 1326.68 L145.163 1330.61 L115.487 1330.61 L115.487 1326.68 Z" fill="#000000" fill-rule="evenodd" fill-opacity="1" /><path clip-path="url(#clip060)" d="M 0 0 M151.042 1339.57 L158.681 1339.57 L158.681 1313.21 L150.371 1314.87 L150.371 1310.61 L158.635 1308.95 L163.311 1308.95 L163.311 1339.57 L170.95 1339.57 L170.95 1343.51 L151.042 1343.51 L151.042 1339.57 Z" fill="#000000" fill-rule="evenodd" fill-opacity="1" /><path clip-path="url(#clip060)" d="M 0 0 M176.019 1337.63 L180.903 1337.63 L180.903 1343.51 L176.019 1343.51 L176.019 1337.63 Z" fill="#000000" fill-rule="evenodd" fill-opacity="1" /><path clip-path="url(#clip060)" d="M 0 0 M186.019 1308.95 L204.375 1308.95 L204.375 1312.88 L190.301 1312.88 L190.301 1321.36 Q191.32 1321.01 192.338 1320.85 Q193.357 1320.66 194.375 1320.66 Q200.162 1320.66 203.542 1323.83 Q206.922 1327 206.922 1332.42 Q206.922 1338 203.449 1341.1 Q199.977 1344.18 193.658 1344.18 Q191.482 1344.18 189.213 1343.81 Q186.968 1343.44 184.561 1342.7 L184.561 1338 Q186.644 1339.13 188.866 1339.69 Q191.088 1340.24 193.565 1340.24 Q197.57 1340.24 199.908 1338.14 Q202.246 1336.03 202.246 1332.42 Q202.246 1328.81 199.908 1326.7 Q197.57 1324.6 193.565 1324.6 Q191.69 1324.6 189.815 1325.01 Q187.963 1325.43 186.019 1326.31 L186.019 1308.95 Z" fill="#000000" fill-rule="evenodd" fill-opacity="1" /><path clip-path="url(#clip060)" d="M 0 0 M114.492 1081.03 L144.167 1081.03 L144.167 1084.96 L114.492 1084.96 L114.492 1081.03 Z" fill="#000000" fill-rule="evenodd" fill-opacity="1" /><path clip-path="url(#clip060)" d="M 0 0 M150.047 1093.92 L157.686 1093.92 L157.686 1067.56 L149.376 1069.22 L149.376 1064.96 L157.64 1063.3 L162.315 1063.3 L162.315 1093.92 L169.954 1093.92 L169.954 1097.86 L150.047 1097.86 L150.047 1093.92 Z" fill="#000000" fill-rule="evenodd" fill-opacity="1" /><path clip-path="url(#clip060)" d="M 0 0 M175.024 1091.98 L179.908 1091.98 L179.908 1097.86 L175.024 1097.86 L175.024 1091.98 Z" fill="#000000" fill-rule="evenodd" fill-opacity="1" /><path clip-path="url(#clip060)" d="M 0 0 M194.977 1066.38 Q191.366 1066.38 189.538 1069.94 Q187.732 1073.48 187.732 1080.61 Q187.732 1087.72 189.538 1091.28 Q191.366 1094.83 194.977 1094.83 Q198.612 1094.83 200.417 1091.28 Q202.246 1087.72 202.246 1080.61 Q202.246 1073.48 200.417 1069.94 Q198.612 1066.38 194.977 1066.38 M194.977 1062.67 Q200.787 1062.67 203.843 1067.28 Q206.922 1071.86 206.922 1080.61 Q206.922 1089.34 203.843 1093.95 Q200.787 1098.53 194.977 1098.53 Q189.167 1098.53 186.088 1093.95 Q183.033 1089.34 183.033 1080.61 Q183.033 1071.86 186.088 1067.28 Q189.167 1062.67 194.977 1062.67 Z" fill="#000000" fill-rule="evenodd" fill-opacity="1" /><path clip-path="url(#clip060)" d="M 0 0 M114.26 835.38 L143.936 835.38 L143.936 839.315 L114.26 839.315 L114.26 835.38 Z" fill="#000000" fill-rule="evenodd" fill-opacity="1" /><path clip-path="url(#clip060)" d="M 0 0 M159.005 820.727 Q155.394 820.727 153.566 824.292 Q151.76 827.834 151.76 834.963 Q151.76 842.07 153.566 845.634 Q155.394 849.176 159.005 849.176 Q162.64 849.176 164.445 845.634 Q166.274 842.07 166.274 834.963 Q166.274 827.834 164.445 824.292 Q162.64 820.727 159.005 820.727 M159.005 817.023 Q164.815 817.023 167.871 821.63 Q170.95 826.213 170.95 834.963 Q170.95 843.69 167.871 848.296 Q164.815 852.88 159.005 852.88 Q153.195 852.88 150.116 848.296 Q147.061 843.69 147.061 834.963 Q147.061 826.213 150.116 821.63 Q153.195 817.023 159.005 817.023 Z" fill="#000000" fill-rule="evenodd" fill-opacity="1" /><path clip-path="url(#clip060)" d="M 0 0 M176.019 846.329 L180.903 846.329 L180.903 852.208 L176.019 852.208 L176.019 846.329 Z" fill="#000000" fill-rule="evenodd" fill-opacity="1" /><path clip-path="url(#clip060)" d="M 0 0 M186.019 817.648 L204.375 817.648 L204.375 821.584 L190.301 821.584 L190.301 830.056 Q191.32 829.709 192.338 829.547 Q193.357 829.361 194.375 829.361 Q200.162 829.361 203.542 832.533 Q206.922 835.704 206.922 841.121 Q206.922 846.699 203.449 849.801 Q199.977 852.88 193.658 852.88 Q191.482 852.88 189.213 852.509 Q186.968 852.139 184.561 851.398 L184.561 846.699 Q186.644 847.833 188.866 848.389 Q191.088 848.945 193.565 848.945 Q197.57 848.945 199.908 846.838 Q202.246 844.732 202.246 841.121 Q202.246 837.509 199.908 835.403 Q197.57 833.297 193.565 833.297 Q191.69 833.297 189.815 833.713 Q187.963 834.13 186.019 835.009 L186.019 817.648 Z" fill="#000000" fill-rule="evenodd" fill-opacity="1" /><path clip-path="url(#clip060)" d="M 0 0 M158.01 575.077 Q154.399 575.077 152.57 578.642 Q150.765 582.184 150.765 589.313 Q150.765 596.42 152.57 599.985 Q154.399 603.526 158.01 603.526 Q161.644 603.526 163.45 599.985 Q165.278 596.42 165.278 589.313 Q165.278 582.184 163.45 578.642 Q161.644 575.077 158.01 575.077 M158.01 571.374 Q163.82 571.374 166.876 575.98 Q169.954 580.563 169.954 589.313 Q169.954 598.04 166.876 602.647 Q163.82 607.23 158.01 607.23 Q152.2 607.23 149.121 602.647 Q146.066 598.04 146.066 589.313 Q146.066 580.563 149.121 575.98 Q152.2 571.374 158.01 571.374 Z" fill="#000000" fill-rule="evenodd" fill-opacity="1" /><path clip-path="url(#clip060)" d="M 0 0 M175.024 600.679 L179.908 600.679 L179.908 606.559 L175.024 606.559 L175.024 600.679 Z" fill="#000000" fill-rule="evenodd" fill-opacity="1" /><path clip-path="url(#clip060)" d="M 0 0 M194.977 575.077 Q191.366 575.077 189.538 578.642 Q187.732 582.184 187.732 589.313 Q187.732 596.42 189.538 599.985 Q191.366 603.526 194.977 603.526 Q198.612 603.526 200.417 599.985 Q202.246 596.42 202.246 589.313 Q202.246 582.184 200.417 578.642 Q198.612 575.077 194.977 575.077 M194.977 571.374 Q200.787 571.374 203.843 575.98 Q206.922 580.563 206.922 589.313 Q206.922 598.04 203.843 602.647 Q200.787 607.23 194.977 607.23 Q189.167 607.23 186.088 602.647 Q183.033 598.04 183.033 589.313 Q183.033 580.563 186.088 575.98 Q189.167 571.374 194.977 571.374 Z" fill="#000000" fill-rule="evenodd" fill-opacity="1" /><path clip-path="url(#clip060)" d="M 0 0 M159.005 329.428 Q155.394 329.428 153.566 332.992 Q151.76 336.534 151.76 343.664 Q151.76 350.77 153.566 354.335 Q155.394 357.877 159.005 357.877 Q162.64 357.877 164.445 354.335 Q166.274 350.77 166.274 343.664 Q166.274 336.534 164.445 332.992 Q162.64 329.428 159.005 329.428 M159.005 325.724 Q164.815 325.724 167.871 330.33 Q170.95 334.914 170.95 343.664 Q170.95 352.39 167.871 356.997 Q164.815 361.58 159.005 361.58 Q153.195 361.58 150.116 356.997 Q147.061 352.39 147.061 343.664 Q147.061 334.914 150.116 330.33 Q153.195 325.724 159.005 325.724 Z" fill="#000000" fill-rule="evenodd" fill-opacity="1" /><path clip-path="url(#clip060)" d="M 0 0 M176.019 355.029 L180.903 355.029 L180.903 360.909 L176.019 360.909 L176.019 355.029 Z" fill="#000000" fill-rule="evenodd" fill-opacity="1" /><path clip-path="url(#clip060)" d="M 0 0 M186.019 326.349 L204.375 326.349 L204.375 330.284 L190.301 330.284 L190.301 338.756 Q191.32 338.409 192.338 338.247 Q193.357 338.062 194.375 338.062 Q200.162 338.062 203.542 341.233 Q206.922 344.404 206.922 349.821 Q206.922 355.4 203.449 358.502 Q199.977 361.58 193.658 361.58 Q191.482 361.58 189.213 361.21 Q186.968 360.84 184.561 360.099 L184.561 355.4 Q186.644 356.534 188.866 357.09 Q191.088 357.645 193.565 357.645 Q197.57 357.645 199.908 355.539 Q202.246 353.432 202.246 349.821 Q202.246 346.21 199.908 344.103 Q197.57 341.997 193.565 341.997 Q191.69 341.997 189.815 342.414 Q187.963 342.83 186.019 343.71 L186.019 326.349 Z" fill="#000000" fill-rule="evenodd" fill-opacity="1" /><path clip-path="url(#clip060)" d="M 0 0 M65.4059 800.142 L65.4059 820.416 Q74.9226 819.939 78.9649 817.743 Q83.9301 815.005 83.9301 810.263 Q83.9301 805.489 78.933 802.847 Q74.5407 800.523 65.4059 800.142 M59.995 800.237 Q50.9557 801.128 47.7729 802.847 Q42.744 805.584 42.744 810.263 Q42.744 815.133 47.7092 817.711 Q51.7196 819.748 59.995 820.353 L59.995 800.237 M37.9697 810.263 Q37.9697 802.624 44.7174 798.264 Q51.4332 793.903 63.337 793.903 Q75.2091 793.903 81.9567 798.264 Q88.7362 802.624 88.7362 810.263 Q88.7362 817.934 81.9567 822.262 Q75.2091 826.623 63.337 826.623 Q51.4332 826.623 44.7174 822.262 Q37.9697 817.934 37.9697 810.263 Z" fill="#000000" fill-rule="evenodd" fill-opacity="1" /><path clip-path="url(#clip060)" d="M 0 0 M38.479 788.301 L38.479 774.806 L43.0304 774.806 L43.0304 782.445 L92.0464 782.445 L92.0464 774.806 L96.5979 774.806 L96.5979 788.301 L38.479 788.301 Z" fill="#000000" fill-rule="evenodd" fill-opacity="1" /><path clip-path="url(#clip060)" d="M 0 0 M82.5933 762.297 L82.5933 739.858 L88.0042 739.858 L88.0042 770.032 L82.5933 770.032 Q78.8057 766.371 72.44 760.069 Q66.0425 753.736 64.1964 752.112 Q60.7271 749.025 58.34 747.815 Q55.921 746.574 53.5975 746.574 Q49.8099 746.574 47.4228 749.248 Q45.0356 751.889 45.0356 756.154 Q45.0356 759.178 46.086 762.552 Q47.1363 765.894 49.2688 769.713 L42.7758 769.713 Q41.2162 765.83 40.4205 762.457 Q39.6248 759.083 39.6248 756.282 Q39.6248 748.898 43.3169 744.505 Q47.009 740.113 53.1837 740.113 Q56.112 740.113 58.7537 741.227 Q61.3637 742.309 64.9285 745.205 Q65.8515 746.001 70.2757 750.266 Q74.668 754.531 82.5933 762.297 Z" fill="#000000" fill-rule="evenodd" fill-opacity="1" /><path clip-path="url(#clip060)" d="M 0 0 M38.479 720.029 L96.5979 720.029 L96.5979 733.524 L92.0464 733.524 L92.0464 725.917 L43.0304 725.917 L43.0304 733.524 L38.479 733.524 L38.479 720.029 Z" fill="#000000" fill-rule="evenodd" fill-opacity="1" /><path clip-path="url(#clip060)" d="M 0 0 M298.359 16.7545 L298.359 25.383 Q294.227 21.5346 289.528 19.6307 Q284.87 17.7268 279.604 17.7268 Q269.233 17.7268 263.724 24.0867 Q258.215 30.4061 258.215 42.3968 Q258.215 54.3469 263.724 60.7069 Q269.233 67.0263 279.604 67.0263 Q284.87 67.0263 289.528 65.1223 Q294.227 63.2184 298.359 59.3701 L298.359 67.9175 Q294.065 70.8341 289.245 72.2924 Q284.465 73.7508 279.117 73.7508 Q265.385 73.7508 257.486 65.3654 Q249.586 56.9395 249.586 42.3968 Q249.586 27.8135 257.486 19.4281 Q265.385 11.0023 279.117 11.0023 Q284.546 11.0023 289.326 12.4606 Q294.146 13.8784 298.359 16.7545 Z" fill="#000000" fill-rule="evenodd" fill-opacity="1" /><path clip-path="url(#clip060)" d="M 0 0 M323.758 32.4315 Q317.763 32.4315 314.279 37.1306 Q310.795 41.7891 310.795 49.9314 Q310.795 58.0738 314.239 62.7728 Q317.723 67.4314 323.758 67.4314 Q329.713 67.4314 333.197 62.7323 Q336.681 58.0333 336.681 49.9314 Q336.681 41.8701 333.197 37.1711 Q329.713 32.4315 323.758 32.4315 M323.758 26.1121 Q333.481 26.1121 339.03 32.4315 Q344.58 38.7509 344.58 49.9314 Q344.58 61.0714 339.03 67.4314 Q333.481 73.7508 323.758 73.7508 Q313.996 73.7508 308.446 67.4314 Q302.937 61.0714 302.937 49.9314 Q302.937 38.7509 308.446 32.4315 Q313.996 26.1121 323.758 26.1121 Z" fill="#000000" fill-rule="evenodd" fill-opacity="1" /><path clip-path="url(#clip060)" d="M 0 0 M390.112 45.1919 L390.112 72.576 L382.659 72.576 L382.659 45.4349 Q382.659 38.994 380.147 35.7938 Q377.635 32.5936 372.612 32.5936 Q366.576 32.5936 363.093 36.4419 Q359.609 40.2903 359.609 46.9338 L359.609 72.576 L352.115 72.576 L352.115 27.2059 L359.609 27.2059 L359.609 34.2544 Q362.282 30.163 365.888 28.1376 Q369.534 26.1121 374.273 26.1121 Q382.091 26.1121 386.102 30.9732 Q390.112 35.7938 390.112 45.1919 Z" fill="#000000" fill-rule="evenodd" fill-opacity="1" /><path clip-path="url(#clip060)" d="M 0 0 M420.899 9.54393 L420.899 15.7418 L413.769 15.7418 Q409.759 15.7418 408.179 17.3622 Q406.64 18.9825 406.64 23.1955 L406.64 27.2059 L418.914 27.2059 L418.914 32.9987 L406.64 32.9987 L406.64 72.576 L399.146 72.576 L399.146 32.9987 L392.016 32.9987 L392.016 27.2059 L399.146 27.2059 L399.146 24.0462 Q399.146 16.471 402.67 13.0277 Q406.194 9.54393 413.85 9.54393 L420.899 9.54393 Z" fill="#000000" fill-rule="evenodd" fill-opacity="1" /><path clip-path="url(#clip060)" d="M 0 0 M428.717 27.2059 L436.171 27.2059 L436.171 72.576 L428.717 72.576 L428.717 27.2059 M428.717 9.54393 L436.171 9.54393 L436.171 18.9825 L428.717 18.9825 L428.717 9.54393 Z" fill="#000000" fill-rule="evenodd" fill-opacity="1" /><path clip-path="url(#clip060)" d="M 0 0 M473.844 34.0924 L473.844 9.54393 L481.298 9.54393 L481.298 72.576 L473.844 72.576 L473.844 65.7705 Q471.495 69.8214 467.89 71.8063 Q464.325 73.7508 459.302 73.7508 Q451.078 73.7508 445.893 67.1883 Q440.748 60.6258 440.748 49.9314 Q440.748 39.2371 445.893 32.6746 Q451.078 26.1121 459.302 26.1121 Q464.325 26.1121 467.89 28.0971 Q471.495 30.0415 473.844 34.0924 M448.445 49.9314 Q448.445 58.1548 451.807 62.8538 Q455.21 67.5124 461.125 67.5124 Q467.039 67.5124 470.442 62.8538 Q473.844 58.1548 473.844 49.9314 Q473.844 41.7081 470.442 37.0496 Q467.039 32.3505 461.125 32.3505 Q455.21 32.3505 451.807 37.0496 Q448.445 41.7081 448.445 49.9314 Z" fill="#000000" fill-rule="evenodd" fill-opacity="1" /><path clip-path="url(#clip060)" d="M 0 0 M527.924 48.0275 L527.924 51.6733 L493.653 51.6733 Q494.139 59.3701 498.271 63.421 Q502.444 67.4314 509.857 67.4314 Q514.151 67.4314 518.161 66.3781 Q522.212 65.3249 526.182 63.2184 L526.182 70.267 Q522.172 71.9684 517.959 72.8596 Q513.746 73.7508 509.411 73.7508 Q498.555 73.7508 492.195 67.4314 Q485.876 61.1119 485.876 50.3365 Q485.876 39.1965 491.871 32.6746 Q497.907 26.1121 508.115 26.1121 Q517.27 26.1121 522.577 32.0264 Q527.924 37.9003 527.924 48.0275 M520.47 45.84 Q520.389 39.7232 517.027 36.0774 Q513.705 32.4315 508.196 32.4315 Q501.958 32.4315 498.19 35.9558 Q494.463 39.4801 493.896 45.8805 L520.47 45.84 Z" fill="#000000" fill-rule="evenodd" fill-opacity="1" /><path clip-path="url(#clip060)" d="M 0 0 M573.456 45.1919 L573.456 72.576 L566.002 72.576 L566.002 45.4349 Q566.002 38.994 563.491 35.7938 Q560.979 32.5936 555.956 32.5936 Q549.92 32.5936 546.437 36.4419 Q542.953 40.2903 542.953 46.9338 L542.953 72.576 L535.459 72.576 L535.459 27.2059 L542.953 27.2059 L542.953 34.2544 Q545.626 30.163 549.232 28.1376 Q552.878 26.1121 557.617 26.1121 Q565.435 26.1121 569.446 30.9732 Q573.456 35.7938 573.456 45.1919 Z" fill="#000000" fill-rule="evenodd" fill-opacity="1" /><path clip-path="url(#clip060)" d="M 0 0 M613.925 28.9478 L613.925 35.9153 Q610.765 34.1734 607.565 33.3227 Q604.405 32.4315 601.164 32.4315 Q593.913 32.4315 589.903 37.0496 Q585.892 41.6271 585.892 49.9314 Q585.892 58.2358 589.903 62.8538 Q593.913 67.4314 601.164 67.4314 Q604.405 67.4314 607.565 66.5807 Q610.765 65.6895 613.925 63.9476 L613.925 70.8341 Q610.805 72.2924 607.443 73.0216 Q604.121 73.7508 600.354 73.7508 Q590.105 73.7508 584.069 67.3098 Q578.034 60.8689 578.034 49.9314 Q578.034 38.832 584.11 32.472 Q590.227 26.1121 600.84 26.1121 Q604.283 26.1121 607.565 26.8413 Q610.846 27.5299 613.925 28.9478 Z" fill="#000000" fill-rule="evenodd" fill-opacity="1" /><path clip-path="url(#clip060)" d="M 0 0 M660.551 48.0275 L660.551 51.6733 L626.28 51.6733 Q626.766 59.3701 630.898 63.421 Q635.07 67.4314 642.484 67.4314 Q646.777 67.4314 650.788 66.3781 Q654.839 65.3249 658.809 63.2184 L658.809 70.267 Q654.798 71.9684 650.585 72.8596 Q646.372 73.7508 642.038 73.7508 Q631.181 73.7508 624.822 67.4314 Q618.502 61.1119 618.502 50.3365 Q618.502 39.1965 624.498 32.6746 Q630.533 26.1121 640.742 26.1121 Q649.897 26.1121 655.203 32.0264 Q660.551 37.9003 660.551 48.0275 M653.097 45.84 Q653.016 39.7232 649.654 36.0774 Q646.332 32.4315 640.823 32.4315 Q634.584 32.4315 630.817 35.9558 Q627.09 39.4801 626.523 45.8805 L653.097 45.84 Z" fill="#000000" fill-rule="evenodd" fill-opacity="1" /><path clip-path="url(#clip060)" d="M 0 0 M723.745 44.2197 Q726.378 45.1109 728.849 48.0275 Q731.36 50.9442 733.872 56.0483 L742.176 72.576 L733.386 72.576 L725.649 57.061 Q722.651 50.9847 719.815 48.9997 Q717.02 47.0148 712.159 47.0148 L703.247 47.0148 L703.247 72.576 L695.064 72.576 L695.064 12.096 L713.536 12.096 Q723.907 12.096 729.011 16.4305 Q734.115 20.7649 734.115 29.5149 Q734.115 35.2267 731.441 38.994 Q728.808 42.7613 723.745 44.2197 M703.247 18.8205 L703.247 40.2903 L713.536 40.2903 Q719.451 40.2903 722.448 37.5762 Q725.487 34.8216 725.487 29.5149 Q725.487 24.2082 722.448 21.5346 Q719.451 18.8205 713.536 18.8205 L703.247 18.8205 Z" fill="#000000" fill-rule="evenodd" fill-opacity="1" /><path clip-path="url(#clip060)" d="M 0 0 M785.075 48.0275 L785.075 51.6733 L750.805 51.6733 Q751.291 59.3701 755.423 63.421 Q759.595 67.4314 767.008 67.4314 Q771.302 67.4314 775.313 66.3781 Q779.364 65.3249 783.333 63.2184 L783.333 70.267 Q779.323 71.9684 775.11 72.8596 Q770.897 73.7508 766.563 73.7508 Q755.706 73.7508 749.346 67.4314 Q743.027 61.1119 743.027 50.3365 Q743.027 39.1965 749.022 32.6746 Q755.058 26.1121 765.266 26.1121 Q774.421 26.1121 779.728 32.0264 Q785.075 37.9003 785.075 48.0275 M777.622 45.84 Q777.541 39.7232 774.178 36.0774 Q770.857 32.4315 765.347 32.4315 Q759.109 32.4315 755.342 35.9558 Q751.615 39.4801 751.048 45.8805 L777.622 45.84 Z" fill="#000000" fill-rule="evenodd" fill-opacity="1" /><path clip-path="url(#clip060)" d="M 0 0 M822.749 49.3643 Q822.749 41.2625 819.387 36.8065 Q816.065 32.3505 810.029 32.3505 Q804.034 32.3505 800.671 36.8065 Q797.35 41.2625 797.35 49.3643 Q797.35 57.4256 800.671 61.8816 Q804.034 66.3376 810.029 66.3376 Q816.065 66.3376 819.387 61.8816 Q822.749 57.4256 822.749 49.3643 M830.202 66.9452 Q830.202 78.5308 825.058 84.1616 Q819.913 89.8329 809.3 89.8329 Q805.37 89.8329 801.887 89.2252 Q798.403 88.6581 795.122 87.4428 L795.122 80.1917 Q798.403 81.9741 801.603 82.8248 Q804.803 83.6755 808.125 83.6755 Q815.457 83.6755 819.103 79.8271 Q822.749 76.0193 822.749 68.282 L822.749 64.5957 Q820.44 68.6061 816.834 70.5911 Q813.229 72.576 808.206 72.576 Q799.861 72.576 794.757 66.2161 Q789.653 59.8562 789.653 49.3643 Q789.653 38.832 794.757 32.472 Q799.861 26.1121 808.206 26.1121 Q813.229 26.1121 816.834 28.0971 Q820.44 30.082 822.749 34.0924 L822.749 27.2059 L830.202 27.2059 L830.202 66.9452 Z" fill="#000000" fill-rule="evenodd" fill-opacity="1" /><path clip-path="url(#clip060)" d="M 0 0 M838.021 27.2059 L845.474 27.2059 L845.474 72.576 L838.021 72.576 L838.021 27.2059 M838.021 9.54393 L845.474 9.54393 L845.474 18.9825 L838.021 18.9825 L838.021 9.54393 Z" fill="#000000" fill-rule="evenodd" fill-opacity="1" /><path clip-path="url(#clip060)" d="M 0 0 M870.873 32.4315 Q864.878 32.4315 861.394 37.1306 Q857.911 41.7891 857.911 49.9314 Q857.911 58.0738 861.354 62.7728 Q864.838 67.4314 870.873 67.4314 Q876.828 67.4314 880.312 62.7323 Q883.796 58.0333 883.796 49.9314 Q883.796 41.8701 880.312 37.1711 Q876.828 32.4315 870.873 32.4315 M870.873 26.1121 Q880.596 26.1121 886.145 32.4315 Q891.695 38.7509 891.695 49.9314 Q891.695 61.0714 886.145 67.4314 Q880.596 73.7508 870.873 73.7508 Q861.111 73.7508 855.561 67.4314 Q850.052 61.0714 850.052 49.9314 Q850.052 38.7509 855.561 32.4315 Q861.111 26.1121 870.873 26.1121 Z" fill="#000000" fill-rule="evenodd" fill-opacity="1" /><path clip-path="url(#clip060)" d="M 0 0 M937.227 45.1919 L937.227 72.576 L929.774 72.576 L929.774 45.4349 Q929.774 38.994 927.262 35.7938 Q924.751 32.5936 919.727 32.5936 Q913.692 32.5936 910.208 36.4419 Q906.724 40.2903 906.724 46.9338 L906.724 72.576 L899.23 72.576 L899.23 27.2059 L906.724 27.2059 L906.724 34.2544 Q909.398 30.163 913.003 28.1376 Q916.649 26.1121 921.388 26.1121 Q929.207 26.1121 933.217 30.9732 Q937.227 35.7938 937.227 45.1919 Z" fill="#000000" fill-rule="evenodd" fill-opacity="1" /><path clip-path="url(#clip060)" d="M 0 0 M973.969 28.5427 L973.969 35.5912 Q970.809 33.9709 967.407 33.1607 Q964.004 32.3505 960.358 32.3505 Q954.808 32.3505 952.013 34.0519 Q949.258 35.7533 949.258 39.156 Q949.258 41.7486 951.243 43.2475 Q953.228 44.7058 959.224 46.0426 L961.776 46.6097 Q969.716 48.3111 973.037 51.4303 Q976.4 54.509 976.4 60.0587 Q976.4 66.3781 971.376 70.0644 Q966.394 73.7508 957.644 73.7508 Q953.998 73.7508 950.028 73.0216 Q946.099 72.3329 941.724 70.9151 L941.724 63.2184 Q945.856 65.3654 949.866 66.4591 Q953.877 67.5124 957.806 67.5124 Q963.072 67.5124 965.908 65.73 Q968.743 63.9071 968.743 60.6258 Q968.743 57.5877 966.677 55.9673 Q964.652 54.3469 957.725 52.8481 L955.132 52.2405 Q948.205 50.7821 945.127 47.7845 Q942.048 44.7463 942.048 39.4801 Q942.048 33.0797 946.585 29.5959 Q951.122 26.1121 959.467 26.1121 Q963.599 26.1121 967.245 26.7198 Q970.89 27.3274 973.969 28.5427 Z" fill="#000000" fill-rule="evenodd" fill-opacity="1" /><path clip-path="url(#clip060)" d="M 0 0 M1033.56 9.54393 L1033.56 15.7418 L1026.43 15.7418 Q1022.42 15.7418 1020.84 17.3622 Q1019.3 18.9825 1019.3 23.1955 L1019.3 27.2059 L1031.57 27.2059 L1031.57 32.9987 L1019.3 32.9987 L1019.3 72.576 L1011.8 72.576 L1011.8 32.9987 L1004.67 32.9987 L1004.67 27.2059 L1011.8 27.2059 L1011.8 24.0462 Q1011.8 16.471 1015.33 13.0277 Q1018.85 9.54393 1026.51 9.54393 L1033.56 9.54393 Z" fill="#000000" fill-rule="evenodd" fill-opacity="1" /><path clip-path="url(#clip060)" d="M 0 0 M1058.96 32.4315 Q1052.96 32.4315 1049.48 37.1306 Q1045.99 41.7891 1045.99 49.9314 Q1045.99 58.0738 1049.44 62.7728 Q1052.92 67.4314 1058.96 67.4314 Q1064.91 67.4314 1068.4 62.7323 Q1071.88 58.0333 1071.88 49.9314 Q1071.88 41.8701 1068.4 37.1711 Q1064.91 32.4315 1058.96 32.4315 M1058.96 26.1121 Q1068.68 26.1121 1074.23 32.4315 Q1079.78 38.7509 1079.78 49.9314 Q1079.78 61.0714 1074.23 67.4314 Q1068.68 73.7508 1058.96 73.7508 Q1049.19 73.7508 1043.64 67.4314 Q1038.14 61.0714 1038.14 49.9314 Q1038.14 38.7509 1043.64 32.4315 Q1049.19 26.1121 1058.96 26.1121 Z" fill="#000000" fill-rule="evenodd" fill-opacity="1" /><path clip-path="url(#clip060)" d="M 0 0 M1113.89 34.1734 Q1112.63 33.4443 1111.13 33.1202 Q1109.67 32.7556 1107.89 32.7556 Q1101.57 32.7556 1098.17 36.8875 Q1094.81 40.9789 1094.81 48.6757 L1094.81 72.576 L1087.31 72.576 L1087.31 27.2059 L1094.81 27.2059 L1094.81 34.2544 Q1097.16 30.1225 1100.92 28.1376 Q1104.69 26.1121 1110.08 26.1121 Q1110.85 26.1121 1111.78 26.2337 Q1112.71 26.3147 1113.85 26.5172 L1113.89 34.1734 Z" fill="#000000" fill-rule="evenodd" fill-opacity="1" /><path clip-path="url(#clip060)" d="M 0 0 M1185.79 45.1919 L1185.79 72.576 L1178.34 72.576 L1178.34 45.4349 Q1178.34 38.994 1175.83 35.7938 Q1173.31 32.5936 1168.29 32.5936 Q1162.26 32.5936 1158.77 36.4419 Q1155.29 40.2903 1155.29 46.9338 L1155.29 72.576 L1147.79 72.576 L1147.79 27.2059 L1155.29 27.2059 L1155.29 34.2544 Q1157.96 30.163 1161.57 28.1376 Q1165.21 26.1121 1169.95 26.1121 Q1177.77 26.1121 1181.78 30.9732 Q1185.79 35.7938 1185.79 45.1919 Z" fill="#000000" fill-rule="evenodd" fill-opacity="1" /><path clip-path="url(#clip060)" d="M 0 0 M1211.19 32.4315 Q1205.19 32.4315 1201.71 37.1306 Q1198.23 41.7891 1198.23 49.9314 Q1198.23 58.0738 1201.67 62.7728 Q1205.15 67.4314 1211.19 67.4314 Q1217.14 67.4314 1220.63 62.7323 Q1224.11 58.0333 1224.11 49.9314 Q1224.11 41.8701 1220.63 37.1711 Q1217.14 32.4315 1211.19 32.4315 M1211.19 26.1121 Q1220.91 26.1121 1226.46 32.4315 Q1232.01 38.7509 1232.01 49.9314 Q1232.01 61.0714 1226.46 67.4314 Q1220.91 73.7508 1211.19 73.7508 Q1201.43 73.7508 1195.88 67.4314 Q1190.37 61.0714 1190.37 49.9314 Q1190.37 38.7509 1195.88 32.4315 Q1201.43 26.1121 1211.19 26.1121 Z" fill="#000000" fill-rule="evenodd" fill-opacity="1" /><path clip-path="url(#clip060)" d="M 0 0 M1277.54 45.1919 L1277.54 72.576 L1270.09 72.576 L1270.09 45.4349 Q1270.09 38.994 1267.58 35.7938 Q1265.07 32.5936 1260.04 32.5936 Q1254.01 32.5936 1250.52 36.4419 Q1247.04 40.2903 1247.04 46.9338 L1247.04 72.576 L1239.55 72.576 L1239.55 27.2059 L1247.04 27.2059 L1247.04 34.2544 Q1249.71 30.163 1253.32 28.1376 Q1256.97 26.1121 1261.7 26.1121 Q1269.52 26.1121 1273.53 30.9732 Q1277.54 35.7938 1277.54 45.1919 Z" fill="#000000" fill-rule="evenodd" fill-opacity="1" /><path clip-path="url(#clip060)" d="M 0 0 M1281.59 46.5287 L1303.43 46.5287 L1303.43 53.1722 L1281.59 53.1722 L1281.59 46.5287 Z" fill="#000000" fill-rule="evenodd" fill-opacity="1" /><path clip-path="url(#clip060)" d="M 0 0 M1311.25 9.54393 L1318.7 9.54393 L1318.7 72.576 L1311.25 72.576 L1311.25 9.54393 Z" fill="#000000" fill-rule="evenodd" fill-opacity="1" /><path clip-path="url(#clip060)" d="M 0 0 M1326.52 27.2059 L1333.97 27.2059 L1333.97 72.576 L1326.52 72.576 L1326.52 27.2059 M1326.52 9.54393 L1333.97 9.54393 L1333.97 18.9825 L1326.52 18.9825 L1326.52 9.54393 Z" fill="#000000" fill-rule="evenodd" fill-opacity="1" /><path clip-path="url(#clip060)" d="M 0 0 M1379.51 45.1919 L1379.51 72.576 L1372.05 72.576 L1372.05 45.4349 Q1372.05 38.994 1369.54 35.7938 Q1367.03 32.5936 1362.01 32.5936 Q1355.97 32.5936 1352.49 36.4419 Q1349 40.2903 1349 46.9338 L1349 72.576 L1341.51 72.576 L1341.51 27.2059 L1349 27.2059 L1349 34.2544 Q1351.68 30.163 1355.28 28.1376 Q1358.93 26.1121 1363.67 26.1121 Q1371.48 26.1121 1375.49 30.9732 Q1379.51 35.7938 1379.51 45.1919 Z" fill="#000000" fill-rule="evenodd" fill-opacity="1" /><path clip-path="url(#clip060)" d="M 0 0 M1426.13 48.0275 L1426.13 51.6733 L1391.86 51.6733 Q1392.35 59.3701 1396.48 63.421 Q1400.65 67.4314 1408.06 67.4314 Q1412.36 67.4314 1416.37 66.3781 Q1420.42 65.3249 1424.39 63.2184 L1424.39 70.267 Q1420.38 71.9684 1416.17 72.8596 Q1411.95 73.7508 1407.62 73.7508 Q1396.76 73.7508 1390.4 67.4314 Q1384.08 61.1119 1384.08 50.3365 Q1384.08 39.1965 1390.08 32.6746 Q1396.11 26.1121 1406.32 26.1121 Q1415.48 26.1121 1420.78 32.0264 Q1426.13 37.9003 1426.13 48.0275 M1418.68 45.84 Q1418.6 39.7232 1415.23 36.0774 Q1411.91 32.4315 1406.4 32.4315 Q1400.16 32.4315 1396.4 35.9558 Q1392.67 39.4801 1392.1 45.8805 L1418.68 45.84 Z" fill="#000000" fill-rule="evenodd" fill-opacity="1" /><path clip-path="url(#clip060)" d="M 0 0 M1454.57 49.7694 Q1445.53 49.7694 1442.05 51.8354 Q1438.57 53.9013 1438.57 58.8839 Q1438.57 62.8538 1441.16 65.2034 Q1443.79 67.5124 1448.29 67.5124 Q1454.49 67.5124 1458.21 63.1374 Q1461.98 58.7219 1461.98 51.4303 L1461.98 49.7694 L1454.57 49.7694 M1469.44 46.6907 L1469.44 72.576 L1461.98 72.576 L1461.98 65.6895 Q1459.43 69.8214 1455.62 71.8063 Q1451.81 73.7508 1446.3 73.7508 Q1439.34 73.7508 1435.2 69.8619 Q1431.11 65.9325 1431.11 59.3701 Q1431.11 51.7138 1436.22 47.825 Q1441.36 43.9361 1451.53 43.9361 L1461.98 43.9361 L1461.98 43.2069 Q1461.98 38.0623 1458.58 35.2672 Q1455.22 32.4315 1449.1 32.4315 Q1445.21 32.4315 1441.52 33.3632 Q1437.84 34.295 1434.44 36.1584 L1434.44 29.2718 Q1438.53 27.692 1442.38 26.9223 Q1446.22 26.1121 1449.87 26.1121 Q1459.71 26.1121 1464.57 31.2163 Q1469.44 36.3204 1469.44 46.6907 Z" fill="#000000" fill-rule="evenodd" fill-opacity="1" /><path clip-path="url(#clip060)" d="M 0 0 M1503.54 34.1734 Q1502.29 33.4443 1500.79 33.1202 Q1499.33 32.7556 1497.55 32.7556 Q1491.23 32.7556 1487.83 36.8875 Q1484.46 40.9789 1484.46 48.6757 L1484.46 72.576 L1476.97 72.576 L1476.97 27.2059 L1484.46 27.2059 L1484.46 34.2544 Q1486.81 30.1225 1490.58 28.1376 Q1494.35 26.1121 1499.74 26.1121 Q1500.51 26.1121 1501.44 26.2337 Q1502.37 26.3147 1503.5 26.5172 L1503.54 34.1734 Z" fill="#000000" fill-rule="evenodd" fill-opacity="1" /><path clip-path="url(#clip060)" d="M 0 0 M1511.36 9.54393 L1518.82 9.54393 L1518.82 72.576 L1511.36 72.576 L1511.36 9.54393 Z" fill="#000000" fill-rule="evenodd" fill-opacity="1" /><path clip-path="url(#clip060)" d="M 0 0 M1545.51 76.7889 Q1542.35 84.8907 1539.35 87.3618 Q1536.36 89.8329 1531.33 89.8329 L1525.38 89.8329 L1525.38 83.5945 L1529.75 83.5945 Q1532.83 83.5945 1534.53 82.1361 Q1536.23 80.6778 1538.3 75.2496 L1539.64 71.8468 L1521.29 27.2059 L1529.19 27.2059 L1543.36 62.6918 L1557.54 27.2059 L1565.44 27.2059 L1545.51 76.7889 Z" fill="#000000" fill-rule="evenodd" fill-opacity="1" /><path clip-path="url(#clip060)" d="M 0 0 M1606.84 65.7705 L1606.84 89.8329 L1599.35 89.8329 L1599.35 27.2059 L1606.84 27.2059 L1606.84 34.0924 Q1609.19 30.0415 1612.76 28.0971 Q1616.36 26.1121 1621.34 26.1121 Q1629.61 26.1121 1634.75 32.6746 Q1639.94 39.2371 1639.94 49.9314 Q1639.94 60.6258 1634.75 67.1883 Q1629.61 73.7508 1621.34 73.7508 Q1616.36 73.7508 1612.76 71.8063 Q1609.19 69.8214 1606.84 65.7705 M1632.2 49.9314 Q1632.2 41.7081 1628.8 37.0496 Q1625.44 32.3505 1619.52 32.3505 Q1613.61 32.3505 1610.2 37.0496 Q1606.84 41.7081 1606.84 49.9314 Q1606.84 58.1548 1610.2 62.8538 Q1613.61 67.5124 1619.52 67.5124 Q1625.44 67.5124 1628.8 62.8538 Q1632.2 58.1548 1632.2 49.9314 Z" fill="#000000" fill-rule="evenodd" fill-opacity="1" /><path clip-path="url(#clip060)" d="M 0 0 M1668.38 49.7694 Q1659.34 49.7694 1655.86 51.8354 Q1652.37 53.9013 1652.37 58.8839 Q1652.37 62.8538 1654.97 65.2034 Q1657.6 67.5124 1662.1 67.5124 Q1668.29 67.5124 1672.02 63.1374 Q1675.79 58.7219 1675.79 51.4303 L1675.79 49.7694 L1668.38 49.7694 M1683.24 46.6907 L1683.24 72.576 L1675.79 72.576 L1675.79 65.6895 Q1673.24 69.8214 1669.43 71.8063 Q1665.62 73.7508 1660.11 73.7508 Q1653.14 73.7508 1649.01 69.8619 Q1644.92 65.9325 1644.92 59.3701 Q1644.92 51.7138 1650.02 47.825 Q1655.17 43.9361 1665.34 43.9361 L1675.79 43.9361 L1675.79 43.2069 Q1675.79 38.0623 1672.39 35.2672 Q1669.02 32.4315 1662.91 32.4315 Q1659.02 32.4315 1655.33 33.3632 Q1651.64 34.295 1648.24 36.1584 L1648.24 29.2718 Q1652.33 27.692 1656.18 26.9223 Q1660.03 26.1121 1663.68 26.1121 Q1673.52 26.1121 1678.38 31.2163 Q1683.24 36.3204 1683.24 46.6907 Z" fill="#000000" fill-rule="evenodd" fill-opacity="1" /><path clip-path="url(#clip060)" d="M 0 0 M1717.35 34.1734 Q1716.09 33.4443 1714.6 33.1202 Q1713.14 32.7556 1711.36 32.7556 Q1705.04 32.7556 1701.63 36.8875 Q1698.27 40.9789 1698.27 48.6757 L1698.27 72.576 L1690.78 72.576 L1690.78 27.2059 L1698.27 27.2059 L1698.27 34.2544 Q1700.62 30.1225 1704.39 28.1376 Q1708.15 26.1121 1713.54 26.1121 Q1714.31 26.1121 1715.24 26.2337 Q1716.18 26.3147 1717.31 26.5172 L1717.35 34.1734 Z" fill="#000000" fill-rule="evenodd" fill-opacity="1" /><path clip-path="url(#clip060)" d="M 0 0 M1745.79 49.7694 Q1736.75 49.7694 1733.27 51.8354 Q1729.79 53.9013 1729.79 58.8839 Q1729.79 62.8538 1732.38 65.2034 Q1735.01 67.5124 1739.51 67.5124 Q1745.71 67.5124 1749.43 63.1374 Q1753.2 58.7219 1753.2 51.4303 L1753.2 49.7694 L1745.79 49.7694 M1760.65 46.6907 L1760.65 72.576 L1753.2 72.576 L1753.2 65.6895 Q1750.65 69.8214 1746.84 71.8063 Q1743.03 73.7508 1737.52 73.7508 Q1730.56 73.7508 1726.42 69.8619 Q1722.33 65.9325 1722.33 59.3701 Q1722.33 51.7138 1727.44 47.825 Q1732.58 43.9361 1742.75 43.9361 L1753.2 43.9361 L1753.2 43.2069 Q1753.2 38.0623 1749.8 35.2672 Q1746.44 32.4315 1740.32 32.4315 Q1736.43 32.4315 1732.74 33.3632 Q1729.06 34.295 1725.65 36.1584 L1725.65 29.2718 Q1729.75 27.692 1733.59 26.9223 Q1737.44 26.1121 1741.09 26.1121 Q1750.93 26.1121 1755.79 31.2163 Q1760.65 36.3204 1760.65 46.6907 Z" fill="#000000" fill-rule="evenodd" fill-opacity="1" /><path clip-path="url(#clip060)" d="M 0 0 M1803.8 35.9153 Q1806.59 30.8922 1810.48 28.5022 Q1814.37 26.1121 1819.64 26.1121 Q1826.72 26.1121 1830.57 31.0947 Q1834.42 36.0368 1834.42 45.1919 L1834.42 72.576 L1826.93 72.576 L1826.93 45.4349 Q1826.93 38.913 1824.62 35.7533 Q1822.31 32.5936 1817.57 32.5936 Q1811.78 32.5936 1808.41 36.4419 Q1805.05 40.2903 1805.05 46.9338 L1805.05 72.576 L1797.56 72.576 L1797.56 45.4349 Q1797.56 38.8725 1795.25 35.7533 Q1792.94 32.5936 1788.12 32.5936 Q1782.41 32.5936 1779.05 36.4824 Q1775.68 40.3308 1775.68 46.9338 L1775.68 72.576 L1768.19 72.576 L1768.19 27.2059 L1775.68 27.2059 L1775.68 34.2544 Q1778.24 30.082 1781.8 28.0971 Q1785.37 26.1121 1790.27 26.1121 Q1795.21 26.1121 1798.65 28.6237 Q1802.14 31.1352 1803.8 35.9153 Z" fill="#000000" fill-rule="evenodd" fill-opacity="1" /><path clip-path="url(#clip060)" d="M 0 0 M1881.05 48.0275 L1881.05 51.6733 L1846.78 51.6733 Q1847.26 59.3701 1851.39 63.421 Q1855.57 67.4314 1862.98 67.4314 Q1867.27 67.4314 1871.28 66.3781 Q1875.34 65.3249 1879.31 63.2184 L1879.31 70.267 Q1875.3 71.9684 1871.08 72.8596 Q1866.87 73.7508 1862.53 73.7508 Q1851.68 73.7508 1845.32 67.4314 Q1839 61.1119 1839 50.3365 Q1839 39.1965 1844.99 32.6746 Q1851.03 26.1121 1861.24 26.1121 Q1870.39 26.1121 1875.7 32.0264 Q1881.05 37.9003 1881.05 48.0275 M1873.59 45.84 Q1873.51 39.7232 1870.15 36.0774 Q1866.83 32.4315 1861.32 32.4315 Q1855.08 32.4315 1851.31 35.9558 Q1847.59 39.4801 1847.02 45.8805 L1873.59 45.84 Z" fill="#000000" fill-rule="evenodd" fill-opacity="1" /><path clip-path="url(#clip060)" d="M 0 0 M1896.24 14.324 L1896.24 27.2059 L1911.59 27.2059 L1911.59 32.9987 L1896.24 32.9987 L1896.24 57.6282 Q1896.24 63.1779 1897.74 64.7578 Q1899.28 66.3376 1903.94 66.3376 L1911.59 66.3376 L1911.59 72.576 L1903.94 72.576 Q1895.31 72.576 1892.03 69.3758 Q1888.74 66.1351 1888.74 57.6282 L1888.74 32.9987 L1883.28 32.9987 L1883.28 27.2059 L1888.74 27.2059 L1888.74 14.324 L1896.24 14.324 Z" fill="#000000" fill-rule="evenodd" fill-opacity="1" /><path clip-path="url(#clip060)" d="M 0 0 M1945.7 34.1734 Q1944.44 33.4443 1942.95 33.1202 Q1941.49 32.7556 1939.7 32.7556 Q1933.39 32.7556 1929.98 36.8875 Q1926.62 40.9789 1926.62 48.6757 L1926.62 72.576 L1919.13 72.576 L1919.13 27.2059 L1926.62 27.2059 L1926.62 34.2544 Q1928.97 30.1225 1932.74 28.1376 Q1936.5 26.1121 1941.89 26.1121 Q1942.66 26.1121 1943.59 26.2337 Q1944.53 26.3147 1945.66 26.5172 L1945.7 34.1734 Z" fill="#000000" fill-rule="evenodd" fill-opacity="1" /><path clip-path="url(#clip060)" d="M 0 0 M1953.52 27.2059 L1960.97 27.2059 L1960.97 72.576 L1953.52 72.576 L1953.52 27.2059 M1953.52 9.54393 L1960.97 9.54393 L1960.97 18.9825 L1953.52 18.9825 L1953.52 9.54393 Z" fill="#000000" fill-rule="evenodd" fill-opacity="1" /><path clip-path="url(#clip060)" d="M 0 0 M1965.55 27.2059 L2000.95 27.2059 L2000.95 34.0114 L1972.92 66.6212 L2000.95 66.6212 L2000.95 72.576 L1964.54 72.576 L1964.54 65.7705 L1992.57 33.1607 L1965.55 33.1607 L1965.55 27.2059 Z" fill="#000000" fill-rule="evenodd" fill-opacity="1" /><path clip-path="url(#clip060)" d="M 0 0 M2047.58 48.0275 L2047.58 51.6733 L2013.31 51.6733 Q2013.8 59.3701 2017.93 63.421 Q2022.1 67.4314 2029.51 67.4314 Q2033.81 67.4314 2037.82 66.3781 Q2041.87 65.3249 2045.84 63.2184 L2045.84 70.267 Q2041.83 71.9684 2037.61 72.8596 Q2033.4 73.7508 2029.07 73.7508 Q2018.21 73.7508 2011.85 67.4314 Q2005.53 61.1119 2005.53 50.3365 Q2005.53 39.1965 2011.53 32.6746 Q2017.56 26.1121 2027.77 26.1121 Q2036.93 26.1121 2042.23 32.0264 Q2047.58 37.9003 2047.58 48.0275 M2040.13 45.84 Q2040.05 39.7232 2036.68 36.0774 Q2033.36 32.4315 2027.85 32.4315 Q2021.61 32.4315 2017.85 35.9558 Q2014.12 39.4801 2013.55 45.8805 L2040.13 45.84 Z" fill="#000000" fill-rule="evenodd" fill-opacity="1" /><path clip-path="url(#clip060)" d="M 0 0 M2085.25 34.0924 L2085.25 9.54393 L2092.71 9.54393 L2092.71 72.576 L2085.25 72.576 L2085.25 65.7705 Q2082.9 69.8214 2079.3 71.8063 Q2075.73 73.7508 2070.71 73.7508 Q2062.49 73.7508 2057.3 67.1883 Q2052.16 60.6258 2052.16 49.9314 Q2052.16 39.2371 2057.3 32.6746 Q2062.49 26.1121 2070.71 26.1121 Q2075.73 26.1121 2079.3 28.0971 Q2082.9 30.0415 2085.25 34.0924 M2059.85 49.9314 Q2059.85 58.1548 2063.22 62.8538 Q2066.62 67.5124 2072.53 67.5124 Q2078.45 67.5124 2081.85 62.8538 Q2085.25 58.1548 2085.25 49.9314 Q2085.25 41.7081 2081.85 37.0496 Q2078.45 32.3505 2072.53 32.3505 Q2066.62 32.3505 2063.22 37.0496 Q2059.85 41.7081 2059.85 49.9314 Z" fill="#000000" fill-rule="evenodd" fill-opacity="1" /><path clip-path="url(#clip060)" d="M 0 0 M2162.22 35.9153 Q2165.02 30.8922 2168.9 28.5022 Q2172.79 26.1121 2178.06 26.1121 Q2185.15 26.1121 2189 31.0947 Q2192.85 36.0368 2192.85 45.1919 L2192.85 72.576 L2185.35 72.576 L2185.35 45.4349 Q2185.35 38.913 2183.04 35.7533 Q2180.73 32.5936 2175.99 32.5936 Q2170.2 32.5936 2166.84 36.4419 Q2163.48 40.2903 2163.48 46.9338 L2163.48 72.576 L2155.98 72.576 L2155.98 45.4349 Q2155.98 38.8725 2153.67 35.7533 Q2151.36 32.5936 2146.54 32.5936 Q2140.83 32.5936 2137.47 36.4824 Q2134.11 40.3308 2134.11 46.9338 L2134.11 72.576 L2126.61 72.576 L2126.61 27.2059 L2134.11 27.2059 L2134.11 34.2544 Q2136.66 30.082 2140.22 28.0971 Q2143.79 26.1121 2148.69 26.1121 Q2153.63 26.1121 2157.08 28.6237 Q2160.56 31.1352 2162.22 35.9153 Z" fill="#000000" fill-rule="evenodd" fill-opacity="1" /><path clip-path="url(#clip060)" d="M 0 0 M2218.24 32.4315 Q2212.25 32.4315 2208.77 37.1306 Q2205.28 41.7891 2205.28 49.9314 Q2205.28 58.0738 2208.73 62.7728 Q2212.21 67.4314 2218.24 67.4314 Q2224.2 67.4314 2227.68 62.7323 Q2231.17 58.0333 2231.17 49.9314 Q2231.17 41.8701 2227.68 37.1711 Q2224.2 32.4315 2218.24 32.4315 M2218.24 26.1121 Q2227.97 26.1121 2233.52 32.4315 Q2239.07 38.7509 2239.07 49.9314 Q2239.07 61.0714 2233.52 67.4314 Q2227.97 73.7508 2218.24 73.7508 Q2208.48 73.7508 2202.93 67.4314 Q2197.42 61.0714 2197.42 49.9314 Q2197.42 38.7509 2202.93 32.4315 Q2208.48 26.1121 2218.24 26.1121 Z" fill="#000000" fill-rule="evenodd" fill-opacity="1" /><path clip-path="url(#clip060)" d="M 0 0 M2276.74 34.0924 L2276.74 9.54393 L2284.19 9.54393 L2284.19 72.576 L2276.74 72.576 L2276.74 65.7705 Q2274.39 69.8214 2270.78 71.8063 Q2267.22 73.7508 2262.2 73.7508 Q2253.97 73.7508 2248.79 67.1883 Q2243.64 60.6258 2243.64 49.9314 Q2243.64 39.2371 2248.79 32.6746 Q2253.97 26.1121 2262.2 26.1121 Q2267.22 26.1121 2270.78 28.0971 Q2274.39 30.0415 2276.74 34.0924 M2251.34 49.9314 Q2251.34 58.1548 2254.7 62.8538 Q2258.11 67.5124 2264.02 67.5124 Q2269.93 67.5124 2273.34 62.8538 Q2276.74 58.1548 2276.74 49.9314 Q2276.74 41.7081 2273.34 37.0496 Q2269.93 32.3505 2264.02 32.3505 Q2258.11 32.3505 2254.7 37.0496 Q2251.34 41.7081 2251.34 49.9314 Z" fill="#000000" fill-rule="evenodd" fill-opacity="1" /><path clip-path="url(#clip060)" d="M 0 0 M2330.82 48.0275 L2330.82 51.6733 L2296.55 51.6733 Q2297.03 59.3701 2301.17 63.421 Q2305.34 67.4314 2312.75 67.4314 Q2317.05 67.4314 2321.06 66.3781 Q2325.11 65.3249 2329.08 63.2184 L2329.08 70.267 Q2325.07 71.9684 2320.85 72.8596 Q2316.64 73.7508 2312.31 73.7508 Q2301.45 73.7508 2295.09 67.4314 Q2288.77 61.1119 2288.77 50.3365 Q2288.77 39.1965 2294.77 32.6746 Q2300.8 26.1121 2311.01 26.1121 Q2320.17 26.1121 2325.47 32.0264 Q2330.82 37.9003 2330.82 48.0275 M2323.37 45.84 Q2323.28 39.7232 2319.92 36.0774 Q2316.6 32.4315 2311.09 32.4315 Q2304.85 32.4315 2301.09 35.9558 Q2297.36 39.4801 2296.79 45.8805 L2323.37 45.84 Z" fill="#000000" fill-rule="evenodd" fill-opacity="1" /><path clip-path="url(#clip060)" d="M 0 0 M2338.64 9.54393 L2346.09 9.54393 L2346.09 72.576 L2338.64 72.576 L2338.64 9.54393 Z" fill="#000000" fill-rule="evenodd" fill-opacity="1" /><polyline clip-path="url(#clip062)" style="stroke:#009af9; stroke-width:4; stroke-opacity:1; fill:none" points="
  1575.41,631.191 1574.72,630.671 1567.77,625.471 1553.13,614.76 1534.75,601.752 1512.18,586.404 1485.94,569.344 1456.17,550.923 1423.42,531.705 1388.21,512.152 
  1351.2,492.725 1313.04,473.81 1274.44,455.746 1236.08,438.806 1198.66,423.209 1162.79,409.117 1129.06,396.639 1102.32,387.31 1079.12,379.66 1059.3,373.487 
  1042.35,368.51 1027.93,364.537 1015.72,361.396 1005.42,358.938 996.759,357.037 989.474,355.585 983.343,354.491 978.169,353.681 973.778,353.094 970.014,352.684 
  966.736,352.414 963.532,352.249 960.636,352.209 957.892,352.301 955.755,352.493 954.142,352.737 952.713,353.051 951.379,353.466 950.39,353.886 949.571,354.347 
  948.904,354.847 948.359,355.398 947.934,356.006 947.629,356.681 947.449,357.433 947.406,358.274 947.518,359.214 947.803,360.269 948.286,361.452 948.995,362.78 
  949.963,364.271 951.227,365.947 952.828,367.828 954.815,369.94 957.238,372.31 960.157,374.969 963.636,377.951 967.745,381.292 972.562,385.034 978.174,389.224 
  984.672,393.912 992.158,399.155 1000.74,405.015 1010.54,411.563 1021.68,418.874 1034.3,427.036 1048.53,436.144 1064.54,446.305 1082.48,457.639 1102.51,470.277 
  1124.82,484.372 1149.56,500.093 1176.94,517.631 1207.13,537.207 1240.32,559.073 1276.71,583.522 1316.5,610.891 1359.96,641.641 1407.68,676.51 1460.73,716.739 
  1521.77,765.002 1572.27,806.487 1619.06,845.986 1659.42,880.558 1688.61,905.525 1711.91,925.164 1730.59,940.487 1745.8,952.504 1758.28,961.896 1768.56,969.205 
  1777.07,974.86 1784.14,979.203 1790.02,982.513 1794.92,985.014 1799.01,986.884 1802.44,988.269 1805.33,989.283 1807.76,990.016 1809.84,990.54 1811.65,990.907 
  1813.25,991.159 1814.93,991.337 1816.52,991.415 1817.97,991.398 1819.16,991.315 1820.23,991.18 1821.35,990.97 1822.21,990.754 1823.05,990.496 1823.82,990.21 
  1824.57,989.88 1825.31,989.506 1826.04,989.077 1826.76,988.587 1827.49,988.025 1828.21,987.381 1828.92,986.641 1829.63,985.793 1830.32,984.821 1831,983.708 
  1831.65,982.433 1832.26,980.974 1832.81,979.307 1833.31,977.405 1833.71,975.236 1834.02,972.766 1834.19,969.956 1834.21,966.765 1834.03,963.146 1833.63,959.046 
  1832.95,954.409 1831.94,949.173 1830.55,943.27 1828.69,936.626 1826.3,929.163 1823.27,920.795 1819.5,911.433 1814.86,900.983 1809.21,889.347 1802.37,876.424 
  1794.16,862.115 1784.35,846.318 1772.68,828.934 1758.86,809.867 1742.53,789.021 1723.27,766.294 1700.56,741.554 1673.68,714.596 1641.48,684.968 1601.22,651.222 
  1575.41,631.191 1575.41,631.191 
  "/>
<polyline clip-path="url(#clip062)" style="stroke:#e26f46; stroke-width:4; stroke-opacity:1; fill:none" points="
  1642.42,631.191 1641.74,630.67 1634.9,625.466 1617.48,612.504 1594.09,595.72 1565.46,576.054 1531.01,553.563 1491.18,528.985 1446.15,502.834 1396.47,475.758 
  1342.65,448.274 1285.33,420.866 1225.16,393.919 1162.83,367.755 1099.05,342.631 1034.55,318.752 970.086,296.285 906.425,275.37 844.357,256.121 784.673,238.633 
  728.14,222.98 675.465,209.205 633.828,198.9 597.72,190.418 566.884,183.552 540.522,178.001 518.139,173.562 499.229,170.051 483.327,167.309 470.001,165.198 
  458.862,163.599 449.565,162.413 441.806,161.558 435.317,160.964 429.863,160.576 425.23,160.351 420.81,160.256 416.953,160.305 413.445,160.502 410.624,160.82 
  408.672,161.167 406.957,161.608 405.537,162.133 404.394,162.747 403.627,163.356 403.083,164.027 402.762,164.74 402.643,165.519 402.729,166.366 403.03,167.295 
  403.562,168.317 404.347,169.445 405.414,170.692 406.795,172.074 408.53,173.607 410.662,175.31 413.243,177.202 416.329,179.307 419.983,181.65 424.275,184.257 
  429.283,187.16 435.094,190.393 441.801,193.993 449.511,198.003 458.337,202.471 468.406,207.449 479.857,212.998 492.84,219.184 507.522,226.084 524.083,233.784 
  542.722,242.383 563.659,251.994 587.136,262.752 613.425,274.813 642.84,288.367 675.753,303.653 712.635,320.982 754.146,340.796 801.375,363.811 856.77,391.543 
  926.964,428.005 987.844,460.996 1053.01,497.913 1116.8,535.856 1181.83,576.626 1246.63,619.625 1311.9,665.645 1377.46,715.01 1443.59,768.45 1510.68,826.985 
  1579.98,892.733 1656.35,972.462 1728.36,1055.64 1794.15,1138.99 1839.37,1200.07 1870.9,1243.87 1894.81,1277.16 1913.47,1302.68 1928.41,1322.44 1940.57,1337.78 
  1950.6,1349.68 1958.93,1358.89 1965.9,1365.98 1971.76,1371.4 1976.71,1375.51 1980.89,1378.6 1984.44,1380.91 1987.45,1382.61 1990.01,1383.84 1992.2,1384.73 
  1994.08,1385.35 1995.7,1385.78 1997.12,1386.07 1998.41,1386.26 1999.78,1386.37 2001.13,1386.4 2002.32,1386.33 2003.34,1386.22 2004.42,1386.03 2005.26,1385.83 
  2006.09,1385.59 2006.88,1385.32 2007.66,1385 2008.45,1384.64 2009.24,1384.22 2010.06,1383.74 2010.89,1383.18 2011.75,1382.54 2012.64,1381.8 2013.55,1380.95 
  2014.5,1379.97 2015.47,1378.84 2016.48,1377.53 2017.51,1376.04 2018.56,1374.32 2019.63,1372.36 2020.72,1370.11 2021.81,1367.53 2022.91,1364.59 2024,1361.24 
  2025.06,1357.42 2026.09,1353.07 2027.07,1348.13 2027.97,1342.53 2028.77,1336.17 2029.44,1328.98 2029.94,1320.84 2030.24,1311.66 2030.27,1301.31 2029.98,1289.67 
  2029.29,1276.58 2028.11,1261.91 2026.34,1245.49 2023.82,1227.14 2020.41,1206.71 2015.91,1184 2010.08,1158.84 2002.62,1131.04 1993.19,1100.46 1981.35,1066.93 
  1966.58,1030.33 1948.25,990.562 1925.59,947.565 1897.66,901.269 1863.21,851.526 1820.39,797.873 1766.14,739.249 1703.17,680.639 1642.42,631.191 
  1642.42,631.191 
  "/>
<circle clip-path="url(#clip062)" cx="1464.73" cy="631.191" r="14" fill="#3da44d" fill-rule="evenodd" fill-opacity="1" stroke="#000000" stroke-opacity="1" stroke-width="3.2"/>
<path clip-path="url(#clip060)" d="
M1920.22 408.716 L2282.43 408.716 L2282.43 166.796 L1920.22 166.796  Z
  " fill="#ffffff" fill-rule="evenodd" fill-opacity="1"/>
<polyline clip-path="url(#clip060)" style="stroke:#000000; stroke-width:4; stroke-opacity:1; fill:none" points="
  1920.22,408.716 2282.43,408.716 2282.43,166.796 1920.22,166.796 1920.22,408.716 
  "/>
<polyline clip-path="url(#clip060)" style="stroke:#009af9; stroke-width:4; stroke-opacity:1; fill:none" points="
  1943.67,227.276 2084.32,227.276 
  "/>
<path clip-path="url(#clip060)" d="M 0 0 M2108.44 240.621 L2116.08 240.621 L2116.08 214.255 L2107.77 215.922 L2107.77 211.662 L2116.03 209.996 L2120.71 209.996 L2120.71 240.621 L2128.34 240.621 L2128.34 244.556 L2108.44 244.556 L2108.44 240.621 Z" fill="#000000" fill-rule="evenodd" fill-opacity="1" /><path clip-path="url(#clip060)" d="M 0 0 M2142.86 222.01 Q2139.34 222.01 2137.44 224.556 Q2135.45 227.218 2135.45 231.616 Q2135.45 236.269 2137.42 238.954 Q2139.41 241.616 2142.86 241.616 Q2146.26 241.616 2148.25 238.931 Q2150.24 236.246 2150.24 231.616 Q2150.24 227.38 2148.25 224.556 Q2146.42 222.01 2142.86 222.01 M2142.86 218.63 L2157 218.63 L2157 222.889 L2152.23 222.889 Q2154.76 226.5 2154.76 231.616 Q2154.76 237.982 2151.59 241.593 Q2148.41 245.227 2142.86 245.227 Q2137.28 245.227 2134.13 241.593 Q2130.96 237.982 2130.96 231.616 Q2130.96 225.204 2134.13 221.616 Q2136.75 218.63 2142.86 218.63 Z" fill="#000000" fill-rule="evenodd" fill-opacity="1" /><path clip-path="url(#clip060)" d="M 0 0 M2202.6 212.658 L2202.6 217.588 Q2200.24 215.389 2197.56 214.301 Q2194.89 213.213 2191.89 213.213 Q2185.96 213.213 2182.81 216.848 Q2179.66 220.459 2179.66 227.31 Q2179.66 234.139 2182.81 237.773 Q2185.96 241.384 2191.89 241.384 Q2194.89 241.384 2197.56 240.296 Q2200.24 239.209 2202.6 237.009 L2202.6 241.894 Q2200.15 243.56 2197.39 244.394 Q2194.66 245.227 2191.61 245.227 Q2183.76 245.227 2179.25 240.435 Q2174.73 235.621 2174.73 227.31 Q2174.73 218.977 2179.25 214.186 Q2183.76 209.371 2191.61 209.371 Q2194.71 209.371 2197.44 210.204 Q2200.2 211.014 2202.6 212.658 Z" fill="#000000" fill-rule="evenodd" fill-opacity="1" /><path clip-path="url(#clip060)" d="M 0 0 M2223.64 228.352 Q2225.15 228.861 2226.56 230.528 Q2228 232.195 2229.43 235.111 L2234.18 244.556 L2229.15 244.556 L2224.73 235.69 Q2223.02 232.218 2221.4 231.084 Q2219.8 229.949 2217.02 229.949 L2211.93 229.949 L2211.93 244.556 L2207.26 244.556 L2207.26 209.996 L2217.81 209.996 Q2223.74 209.996 2226.65 212.473 Q2229.57 214.949 2229.57 219.949 Q2229.57 223.213 2228.04 225.366 Q2226.54 227.519 2223.64 228.352 M2211.93 213.838 L2211.93 226.107 L2217.81 226.107 Q2221.19 226.107 2222.9 224.556 Q2224.64 222.982 2224.64 219.949 Q2224.64 216.917 2222.9 215.389 Q2221.19 213.838 2217.81 213.838 L2211.93 213.838 Z" fill="#000000" fill-rule="evenodd" fill-opacity="1" /><polyline clip-path="url(#clip060)" style="stroke:#e26f46; stroke-width:4; stroke-opacity:1; fill:none" points="
  1943.67,287.756 2084.32,287.756 
  "/>
<path clip-path="url(#clip060)" d="M 0 0 M2113.39 301.101 L2129.71 301.101 L2129.71 305.036 L2107.77 305.036 L2107.77 301.101 Q2110.43 298.346 2115.01 293.716 Q2119.62 289.064 2120.8 287.721 Q2123.04 285.198 2123.92 283.462 Q2124.83 281.703 2124.83 280.013 Q2124.83 277.258 2122.88 275.522 Q2120.96 273.786 2117.86 273.786 Q2115.66 273.786 2113.21 274.55 Q2110.78 275.314 2108 276.865 L2108 272.142 Q2110.82 271.008 2113.28 270.429 Q2115.73 269.851 2117.77 269.851 Q2123.14 269.851 2126.33 272.536 Q2129.52 275.221 2129.52 279.712 Q2129.52 281.841 2128.71 283.763 Q2127.93 285.661 2125.82 288.253 Q2125.24 288.925 2122.14 292.142 Q2119.04 295.337 2113.39 301.101 Z" fill="#000000" fill-rule="evenodd" fill-opacity="1" /><path clip-path="url(#clip060)" d="M 0 0 M2144.22 282.49 Q2140.71 282.49 2138.81 285.036 Q2136.82 287.698 2136.82 292.096 Q2136.82 296.749 2138.78 299.434 Q2140.77 302.096 2144.22 302.096 Q2147.63 302.096 2149.62 299.411 Q2151.61 296.726 2151.61 292.096 Q2151.61 287.86 2149.62 285.036 Q2147.79 282.49 2144.22 282.49 M2144.22 279.11 L2158.37 279.11 L2158.37 283.369 L2153.6 283.369 Q2156.12 286.98 2156.12 292.096 Q2156.12 298.462 2152.95 302.073 Q2149.78 305.707 2144.22 305.707 Q2138.65 305.707 2135.5 302.073 Q2132.33 298.462 2132.33 292.096 Q2132.33 285.684 2135.5 282.096 Q2138.11 279.11 2144.22 279.11 Z" fill="#000000" fill-rule="evenodd" fill-opacity="1" /><path clip-path="url(#clip060)" d="M 0 0 M2203.97 273.138 L2203.97 278.068 Q2201.61 275.869 2198.92 274.781 Q2196.26 273.693 2193.25 273.693 Q2187.33 273.693 2184.18 277.328 Q2181.03 280.939 2181.03 287.79 Q2181.03 294.619 2184.18 298.253 Q2187.33 301.864 2193.25 301.864 Q2196.26 301.864 2198.92 300.776 Q2201.61 299.689 2203.97 297.489 L2203.97 302.374 Q2201.52 304.04 2198.76 304.874 Q2196.03 305.707 2192.97 305.707 Q2185.13 305.707 2180.61 300.915 Q2176.1 296.101 2176.1 287.79 Q2176.1 279.457 2180.61 274.666 Q2185.13 269.851 2192.97 269.851 Q2196.08 269.851 2198.81 270.684 Q2201.56 271.494 2203.97 273.138 Z" fill="#000000" fill-rule="evenodd" fill-opacity="1" /><path clip-path="url(#clip060)" d="M 0 0 M2225.01 288.832 Q2226.52 289.341 2227.93 291.008 Q2229.36 292.675 2230.8 295.591 L2235.54 305.036 L2230.52 305.036 L2226.1 296.17 Q2224.39 292.698 2222.77 291.564 Q2221.17 290.429 2218.39 290.429 L2213.3 290.429 L2213.3 305.036 L2208.62 305.036 L2208.62 270.476 L2219.18 270.476 Q2225.1 270.476 2228.02 272.953 Q2230.94 275.429 2230.94 280.429 Q2230.94 283.693 2229.41 285.846 Q2227.9 287.999 2225.01 288.832 M2213.3 274.318 L2213.3 286.587 L2219.18 286.587 Q2222.56 286.587 2224.27 285.036 Q2226.01 283.462 2226.01 280.429 Q2226.01 277.397 2224.27 275.869 Q2222.56 274.318 2219.18 274.318 L2213.3 274.318 Z" fill="#000000" fill-rule="evenodd" fill-opacity="1" /><circle clip-path="url(#clip060)" cx="2014" cy="348.236" r="23" fill="#3da44d" fill-rule="evenodd" fill-opacity="1" stroke="#000000" stroke-opacity="1" stroke-width="5.12"/>
<path clip-path="url(#clip060)" d="M 0 0 M2107.77 330.956 L2114.73 330.956 L2123.55 354.474 L2132.42 330.956 L2139.39 330.956 L2139.39 365.516 L2134.83 365.516 L2134.83 335.169 L2125.91 358.872 L2121.21 358.872 L2112.3 335.169 L2112.3 365.516 L2107.77 365.516 L2107.77 330.956 Z" fill="#000000" fill-rule="evenodd" fill-opacity="1" /><path clip-path="url(#clip060)" d="M 0 0 M2144.04 330.956 L2148.71 330.956 L2148.71 361.581 L2165.54 361.581 L2165.54 365.516 L2144.04 365.516 L2144.04 330.956 Z" fill="#000000" fill-rule="evenodd" fill-opacity="1" /><path clip-path="url(#clip060)" d="M 0 0 M2170.2 330.956 L2192.05 330.956 L2192.05 334.891 L2174.87 334.891 L2174.87 345.122 L2191.33 345.122 L2191.33 349.057 L2174.87 349.057 L2174.87 361.581 L2192.46 361.581 L2192.46 365.516 L2170.2 365.516 L2170.2 330.956 Z" fill="#000000" fill-rule="evenodd" fill-opacity="1" /></svg>
