<?xml version="1.0" encoding="utf-8"?>
<svg xmlns="http://www.w3.org/2000/svg" xmlns:xlink="http://www.w3.org/1999/xlink" width="500" height="500" viewBox="0 0 2000 2000">
<defs>
  <clipPath id="clip290">
    <rect x="0" y="0" width="2000" height="2000"/>
  </clipPath>
</defs>
<path clip-path="url(#clip290)" d="M0 2000 L2000 2000 L2000 0 L0 0  Z" fill="#ffffff" fill-rule="evenodd" fill-opacity="1"/>
<defs>
  <clipPath id="clip291">
    <rect x="1254" y="47" width="699" height="1732"/>
  </clipPath>
</defs>
<path clip-path="url(#clip290)" d="M232.219 1778.14 L930.14 1778.14 L930.14 47.2441 L232.219 47.2441  Z" fill="#ffffff" fill-rule="evenodd" fill-opacity="1"/>
<defs>
  <clipPath id="clip292">
    <rect x="232" y="47" width="699" height="1732"/>
  </clipPath>
</defs>
<polyline clip-path="url(#clip292)" style="stroke:#000000; stroke-linecap:round; stroke-linejoin:round; stroke-width:2; stroke-opacity:0.1; fill:none" points="314.823,1778.14 314.823,47.2441 "/>
<polyline clip-path="url(#clip292)" style="stroke:#000000; stroke-linecap:round; stroke-linejoin:round; stroke-width:2; stroke-opacity:0.1; fill:none" points="419.31,1778.14 419.31,47.2441 "/>
<polyline clip-path="url(#clip292)" style="stroke:#000000; stroke-linecap:round; stroke-linejoin:round; stroke-width:2; stroke-opacity:0.1; fill:none" points="523.798,1778.14 523.798,47.2441 "/>
<polyline clip-path="url(#clip292)" style="stroke:#000000; stroke-linecap:round; stroke-linejoin:round; stroke-width:2; stroke-opacity:0.1; fill:none" points="628.285,1778.14 628.285,47.2441 "/>
<polyline clip-path="url(#clip292)" style="stroke:#000000; stroke-linecap:round; stroke-linejoin:round; stroke-width:2; stroke-opacity:0.1; fill:none" points="732.772,1778.14 732.772,47.2441 "/>
<polyline clip-path="url(#clip292)" style="stroke:#000000; stroke-linecap:round; stroke-linejoin:round; stroke-width:2; stroke-opacity:0.1; fill:none" points="837.26,1778.14 837.26,47.2441 "/>
<polyline clip-path="url(#clip292)" style="stroke:#000000; stroke-linecap:round; stroke-linejoin:round; stroke-width:2; stroke-opacity:0.1; fill:none" points="232.219,1548.7 930.14,1548.7 "/>
<polyline clip-path="url(#clip292)" style="stroke:#000000; stroke-linecap:round; stroke-linejoin:round; stroke-width:2; stroke-opacity:0.1; fill:none" points="232.219,1262.93 930.14,1262.93 "/>
<polyline clip-path="url(#clip292)" style="stroke:#000000; stroke-linecap:round; stroke-linejoin:round; stroke-width:2; stroke-opacity:0.1; fill:none" points="232.219,977.166 930.14,977.166 "/>
<polyline clip-path="url(#clip292)" style="stroke:#000000; stroke-linecap:round; stroke-linejoin:round; stroke-width:2; stroke-opacity:0.1; fill:none" points="232.219,691.4 930.14,691.4 "/>
<polyline clip-path="url(#clip292)" style="stroke:#000000; stroke-linecap:round; stroke-linejoin:round; stroke-width:2; stroke-opacity:0.1; fill:none" points="232.219,405.635 930.14,405.635 "/>
<polyline clip-path="url(#clip292)" style="stroke:#000000; stroke-linecap:round; stroke-linejoin:round; stroke-width:2; stroke-opacity:0.1; fill:none" points="232.219,119.869 930.14,119.869 "/>
<polyline clip-path="url(#clip290)" style="stroke:#000000; stroke-linecap:round; stroke-linejoin:round; stroke-width:4; stroke-opacity:1; fill:none" points="232.219,1778.14 930.14,1778.14 "/>
<polyline clip-path="url(#clip290)" style="stroke:#000000; stroke-linecap:round; stroke-linejoin:round; stroke-width:4; stroke-opacity:1; fill:none" points="314.823,1778.14 314.823,1759.24 "/>
<polyline clip-path="url(#clip290)" style="stroke:#000000; stroke-linecap:round; stroke-linejoin:round; stroke-width:4; stroke-opacity:1; fill:none" points="419.31,1778.14 419.31,1759.24 "/>
<polyline clip-path="url(#clip290)" style="stroke:#000000; stroke-linecap:round; stroke-linejoin:round; stroke-width:4; stroke-opacity:1; fill:none" points="523.798,1778.14 523.798,1759.24 "/>
<polyline clip-path="url(#clip290)" style="stroke:#000000; stroke-linecap:round; stroke-linejoin:round; stroke-width:4; stroke-opacity:1; fill:none" points="628.285,1778.14 628.285,1759.24 "/>
<polyline clip-path="url(#clip290)" style="stroke:#000000; stroke-linecap:round; stroke-linejoin:round; stroke-width:4; stroke-opacity:1; fill:none" points="732.772,1778.14 732.772,1759.24 "/>
<polyline clip-path="url(#clip290)" style="stroke:#000000; stroke-linecap:round; stroke-linejoin:round; stroke-width:4; stroke-opacity:1; fill:none" points="837.26,1778.14 837.26,1759.24 "/>
<path clip-path="url(#clip290)" d="M292.254 1805.86 Q288.643 1805.86 286.814 1809.42 Q285.008 1812.96 285.008 1820.09 Q285.008 1827.2 286.814 1830.77 Q288.643 1834.31 292.254 1834.31 Q295.888 1834.31 297.694 1830.77 Q299.522 1827.2 299.522 1820.09 Q299.522 1812.96 297.694 1809.42 Q295.888 1805.86 292.254 1805.86 M292.254 1802.15 Q298.064 1802.15 301.119 1806.76 Q304.198 1811.34 304.198 1820.09 Q304.198 1828.82 301.119 1833.43 Q298.064 1838.01 292.254 1838.01 Q286.444 1838.01 283.365 1833.43 Q280.309 1828.82 280.309 1820.09 Q280.309 1811.34 283.365 1806.76 Q286.444 1802.15 292.254 1802.15 Z" fill="#000000" fill-rule="nonzero" fill-opacity="1" /><path clip-path="url(#clip290)" d="M312.416 1831.46 L317.3 1831.46 L317.3 1837.34 L312.416 1837.34 L312.416 1831.46 Z" fill="#000000" fill-rule="nonzero" fill-opacity="1" /><path clip-path="url(#clip290)" d="M337.485 1820.93 Q334.152 1820.93 332.23 1822.71 Q330.332 1824.49 330.332 1827.62 Q330.332 1830.74 332.23 1832.53 Q334.152 1834.31 337.485 1834.31 Q340.818 1834.31 342.74 1832.53 Q344.661 1830.72 344.661 1827.62 Q344.661 1824.49 342.74 1822.71 Q340.842 1820.93 337.485 1820.93 M332.809 1818.94 Q329.8 1818.2 328.11 1816.14 Q326.443 1814.08 326.443 1811.11 Q326.443 1806.97 329.383 1804.56 Q332.346 1802.15 337.485 1802.15 Q342.647 1802.15 345.587 1804.56 Q348.527 1806.97 348.527 1811.11 Q348.527 1814.08 346.837 1816.14 Q345.17 1818.2 342.184 1818.94 Q345.564 1819.72 347.439 1822.02 Q349.337 1824.31 349.337 1827.62 Q349.337 1832.64 346.258 1835.33 Q343.203 1838.01 337.485 1838.01 Q331.767 1838.01 328.689 1835.33 Q325.633 1832.64 325.633 1827.62 Q325.633 1824.31 327.531 1822.02 Q329.43 1819.72 332.809 1818.94 M331.096 1811.55 Q331.096 1814.24 332.763 1815.74 Q334.453 1817.25 337.485 1817.25 Q340.494 1817.25 342.184 1815.74 Q343.897 1814.24 343.897 1811.55 Q343.897 1808.87 342.184 1807.36 Q340.494 1805.86 337.485 1805.86 Q334.453 1805.86 332.763 1807.36 Q331.096 1808.87 331.096 1811.55 Z" fill="#000000" fill-rule="nonzero" fill-opacity="1" /><path clip-path="url(#clip290)" d="M396.787 1805.86 Q393.176 1805.86 391.348 1809.42 Q389.542 1812.96 389.542 1820.09 Q389.542 1827.2 391.348 1830.77 Q393.176 1834.31 396.787 1834.31 Q400.422 1834.31 402.227 1830.77 Q404.056 1827.2 404.056 1820.09 Q404.056 1812.96 402.227 1809.42 Q400.422 1805.86 396.787 1805.86 M396.787 1802.15 Q402.598 1802.15 405.653 1806.76 Q408.732 1811.34 408.732 1820.09 Q408.732 1828.82 405.653 1833.43 Q402.598 1838.01 396.787 1838.01 Q390.977 1838.01 387.899 1833.43 Q384.843 1828.82 384.843 1820.09 Q384.843 1811.34 387.899 1806.76 Q390.977 1802.15 396.787 1802.15 Z" fill="#000000" fill-rule="nonzero" fill-opacity="1" /><path clip-path="url(#clip290)" d="M416.949 1831.46 L421.834 1831.46 L421.834 1837.34 L416.949 1837.34 L416.949 1831.46 Z" fill="#000000" fill-rule="nonzero" fill-opacity="1" /><path clip-path="url(#clip290)" d="M432.158 1836.62 L432.158 1832.36 Q433.917 1833.2 435.722 1833.64 Q437.528 1834.08 439.264 1834.08 Q443.894 1834.08 446.324 1830.97 Q448.778 1827.85 449.125 1821.51 Q447.783 1823.5 445.722 1824.56 Q443.662 1825.63 441.162 1825.63 Q435.977 1825.63 432.945 1822.5 Q429.935 1819.35 429.935 1813.91 Q429.935 1808.59 433.084 1805.37 Q436.232 1802.15 441.463 1802.15 Q447.458 1802.15 450.607 1806.76 Q453.778 1811.34 453.778 1820.09 Q453.778 1828.27 449.889 1833.15 Q446.023 1838.01 439.472 1838.01 Q437.713 1838.01 435.908 1837.66 Q434.102 1837.32 432.158 1836.62 M441.463 1821.97 Q444.611 1821.97 446.44 1819.82 Q448.292 1817.66 448.292 1813.91 Q448.292 1810.19 446.44 1808.03 Q444.611 1805.86 441.463 1805.86 Q438.315 1805.86 436.463 1808.03 Q434.634 1810.19 434.634 1813.91 Q434.634 1817.66 436.463 1819.82 Q438.315 1821.97 441.463 1821.97 Z" fill="#000000" fill-rule="nonzero" fill-opacity="1" /><path clip-path="url(#clip290)" d="M490.951 1833.4 L498.59 1833.4 L498.59 1807.04 L490.279 1808.71 L490.279 1804.45 L498.543 1802.78 L503.219 1802.78 L503.219 1833.4 L510.858 1833.4 L510.858 1837.34 L490.951 1837.34 L490.951 1833.4 Z" fill="#000000" fill-rule="nonzero" fill-opacity="1" /><path clip-path="url(#clip290)" d="M520.302 1831.46 L525.187 1831.46 L525.187 1837.34 L520.302 1837.34 L520.302 1831.46 Z" fill="#000000" fill-rule="nonzero" fill-opacity="1" /><path clip-path="url(#clip290)" d="M545.372 1805.86 Q541.761 1805.86 539.932 1809.42 Q538.126 1812.96 538.126 1820.09 Q538.126 1827.2 539.932 1830.77 Q541.761 1834.31 545.372 1834.31 Q549.006 1834.31 550.812 1830.77 Q552.64 1827.2 552.64 1820.09 Q552.64 1812.96 550.812 1809.42 Q549.006 1805.86 545.372 1805.86 M545.372 1802.15 Q551.182 1802.15 554.237 1806.76 Q557.316 1811.34 557.316 1820.09 Q557.316 1828.82 554.237 1833.43 Q551.182 1838.01 545.372 1838.01 Q539.562 1838.01 536.483 1833.43 Q533.427 1828.82 533.427 1820.09 Q533.427 1811.34 536.483 1806.76 Q539.562 1802.15 545.372 1802.15 Z" fill="#000000" fill-rule="nonzero" fill-opacity="1" /><path clip-path="url(#clip290)" d="M596.051 1833.4 L603.69 1833.4 L603.69 1807.04 L595.38 1808.71 L595.38 1804.45 L603.644 1802.78 L608.32 1802.78 L608.32 1833.4 L615.959 1833.4 L615.959 1837.34 L596.051 1837.34 L596.051 1833.4 Z" fill="#000000" fill-rule="nonzero" fill-opacity="1" /><path clip-path="url(#clip290)" d="M625.403 1831.46 L630.287 1831.46 L630.287 1837.34 L625.403 1837.34 L625.403 1831.46 Z" fill="#000000" fill-rule="nonzero" fill-opacity="1" /><path clip-path="url(#clip290)" d="M641.283 1833.4 L648.922 1833.4 L648.922 1807.04 L640.611 1808.71 L640.611 1804.45 L648.875 1802.78 L653.551 1802.78 L653.551 1833.4 L661.19 1833.4 L661.19 1837.34 L641.283 1837.34 L641.283 1833.4 Z" fill="#000000" fill-rule="nonzero" fill-opacity="1" /><path clip-path="url(#clip290)" d="M700.724 1833.4 L708.363 1833.4 L708.363 1807.04 L700.053 1808.71 L700.053 1804.45 L708.317 1802.78 L712.992 1802.78 L712.992 1833.4 L720.631 1833.4 L720.631 1837.34 L700.724 1837.34 L700.724 1833.4 Z" fill="#000000" fill-rule="nonzero" fill-opacity="1" /><path clip-path="url(#clip290)" d="M730.076 1831.46 L734.96 1831.46 L734.96 1837.34 L730.076 1837.34 L730.076 1831.46 Z" fill="#000000" fill-rule="nonzero" fill-opacity="1" /><path clip-path="url(#clip290)" d="M749.173 1833.4 L765.492 1833.4 L765.492 1837.34 L743.548 1837.34 L743.548 1833.4 Q746.21 1830.65 750.793 1826.02 Q755.4 1821.37 756.58 1820.03 Q758.826 1817.5 759.705 1815.77 Q760.608 1814.01 760.608 1812.32 Q760.608 1809.56 758.664 1807.83 Q756.742 1806.09 753.64 1806.09 Q751.441 1806.09 748.988 1806.85 Q746.557 1807.62 743.779 1809.17 L743.779 1804.45 Q746.603 1803.31 749.057 1802.73 Q751.511 1802.15 753.548 1802.15 Q758.918 1802.15 762.113 1804.84 Q765.307 1807.53 765.307 1812.02 Q765.307 1814.15 764.497 1816.07 Q763.71 1817.96 761.603 1820.56 Q761.025 1821.23 757.923 1824.45 Q754.821 1827.64 749.173 1833.4 Z" fill="#000000" fill-rule="nonzero" fill-opacity="1" /><path clip-path="url(#clip290)" d="M804.737 1833.4 L812.376 1833.4 L812.376 1807.04 L804.066 1808.71 L804.066 1804.45 L812.329 1802.78 L817.005 1802.78 L817.005 1833.4 L824.644 1833.4 L824.644 1837.34 L804.737 1837.34 L804.737 1833.4 Z" fill="#000000" fill-rule="nonzero" fill-opacity="1" /><path clip-path="url(#clip290)" d="M834.089 1831.46 L838.973 1831.46 L838.973 1837.34 L834.089 1837.34 L834.089 1831.46 Z" fill="#000000" fill-rule="nonzero" fill-opacity="1" /><path clip-path="url(#clip290)" d="M863.324 1818.71 Q866.681 1819.42 868.556 1821.69 Q870.454 1823.96 870.454 1827.29 Q870.454 1832.41 866.936 1835.21 Q863.417 1838.01 856.936 1838.01 Q854.76 1838.01 852.445 1837.57 Q850.153 1837.15 847.7 1836.3 L847.7 1831.78 Q849.644 1832.92 851.959 1833.5 Q854.274 1834.08 856.797 1834.08 Q861.195 1834.08 863.486 1832.34 Q865.801 1830.6 865.801 1827.29 Q865.801 1824.24 863.649 1822.53 Q861.519 1820.79 857.699 1820.79 L853.672 1820.79 L853.672 1816.95 L857.885 1816.95 Q861.334 1816.95 863.162 1815.58 Q864.991 1814.19 864.991 1811.6 Q864.991 1808.94 863.093 1807.53 Q861.218 1806.09 857.699 1806.09 Q855.778 1806.09 853.579 1806.51 Q851.38 1806.92 848.741 1807.8 L848.741 1803.64 Q851.403 1802.9 853.718 1802.53 Q856.056 1802.15 858.116 1802.15 Q863.44 1802.15 866.542 1804.59 Q869.644 1806.99 869.644 1811.11 Q869.644 1813.98 868 1815.97 Q866.357 1817.94 863.324 1818.71 Z" fill="#000000" fill-rule="nonzero" fill-opacity="1" /><path clip-path="url(#clip290)" d="M578.235 1894.41 L557.961 1894.41 Q558.438 1903.92 560.634 1907.96 Q563.372 1912.93 568.114 1912.93 Q572.888 1912.93 575.53 1907.93 Q577.854 1903.54 578.235 1894.41 M578.14 1888.99 Q577.249 1879.96 575.53 1876.77 Q572.793 1871.74 568.114 1871.74 Q563.244 1871.74 560.666 1876.71 Q558.629 1880.72 558.024 1888.99 L578.14 1888.99 M568.114 1866.97 Q575.753 1866.97 580.113 1873.72 Q584.474 1880.43 584.474 1892.34 Q584.474 1904.21 580.113 1910.96 Q575.753 1917.74 568.114 1917.74 Q560.443 1917.74 556.115 1910.96 Q551.754 1904.21 551.754 1892.34 Q551.754 1880.43 556.115 1873.72 Q560.443 1866.97 568.114 1866.97 Z" fill="#000000" fill-rule="nonzero" fill-opacity="1" /><path clip-path="url(#clip290)" d="M593.004 1913.5 L599.497 1913.5 L599.497 1894.06 L592.399 1895.36 L592.399 1891.67 L599.72 1890.43 L604.08 1890.43 L604.08 1913.5 L610.605 1913.5 L610.605 1917 L593.004 1917 L593.004 1913.5 Z" fill="#000000" fill-rule="nonzero" fill-opacity="1" /><polyline clip-path="url(#clip290)" style="stroke:#000000; stroke-linecap:round; stroke-linejoin:round; stroke-width:4; stroke-opacity:1; fill:none" points="232.219,1778.14 232.219,47.2441 "/>
<polyline clip-path="url(#clip290)" style="stroke:#000000; stroke-linecap:round; stroke-linejoin:round; stroke-width:4; stroke-opacity:1; fill:none" points="232.219,1548.7 251.117,1548.7 "/>
<polyline clip-path="url(#clip290)" style="stroke:#000000; stroke-linecap:round; stroke-linejoin:round; stroke-width:4; stroke-opacity:1; fill:none" points="232.219,1262.93 251.117,1262.93 "/>
<polyline clip-path="url(#clip290)" style="stroke:#000000; stroke-linecap:round; stroke-linejoin:round; stroke-width:4; stroke-opacity:1; fill:none" points="232.219,977.166 251.117,977.166 "/>
<polyline clip-path="url(#clip290)" style="stroke:#000000; stroke-linecap:round; stroke-linejoin:round; stroke-width:4; stroke-opacity:1; fill:none" points="232.219,691.4 251.117,691.4 "/>
<polyline clip-path="url(#clip290)" style="stroke:#000000; stroke-linecap:round; stroke-linejoin:round; stroke-width:4; stroke-opacity:1; fill:none" points="232.219,405.635 251.117,405.635 "/>
<polyline clip-path="url(#clip290)" style="stroke:#000000; stroke-linecap:round; stroke-linejoin:round; stroke-width:4; stroke-opacity:1; fill:none" points="232.219,119.869 251.117,119.869 "/>
<path clip-path="url(#clip290)" d="M140.02 1549.15 L169.696 1549.15 L169.696 1553.08 L140.02 1553.08 L140.02 1549.15 Z" fill="#000000" fill-rule="nonzero" fill-opacity="1" /><path clip-path="url(#clip290)" d="M192.636 1535.49 L180.83 1553.94 L192.636 1553.94 L192.636 1535.49 M191.409 1531.42 L197.288 1531.42 L197.288 1553.94 L202.219 1553.94 L202.219 1557.83 L197.288 1557.83 L197.288 1565.98 L192.636 1565.98 L192.636 1557.83 L177.034 1557.83 L177.034 1553.32 L191.409 1531.42 Z" fill="#000000" fill-rule="nonzero" fill-opacity="1" /><path clip-path="url(#clip290)" d="M141.154 1263.38 L170.83 1263.38 L170.83 1267.32 L141.154 1267.32 L141.154 1263.38 Z" fill="#000000" fill-rule="nonzero" fill-opacity="1" /><path clip-path="url(#clip290)" d="M195.089 1261.58 Q198.446 1262.3 200.321 1264.56 Q202.219 1266.83 202.219 1270.17 Q202.219 1275.28 198.7 1278.08 Q195.182 1280.88 188.7 1280.88 Q186.525 1280.88 184.21 1280.44 Q181.918 1280.03 179.464 1279.17 L179.464 1274.66 Q181.409 1275.79 183.724 1276.37 Q186.038 1276.95 188.562 1276.95 Q192.96 1276.95 195.251 1275.21 Q197.566 1273.48 197.566 1270.17 Q197.566 1267.11 195.413 1265.4 Q193.284 1263.66 189.464 1263.66 L185.437 1263.66 L185.437 1259.82 L189.65 1259.82 Q193.099 1259.82 194.927 1258.45 Q196.756 1257.06 196.756 1254.47 Q196.756 1251.81 194.858 1250.4 Q192.983 1248.96 189.464 1248.96 Q187.543 1248.96 185.344 1249.38 Q183.145 1249.8 180.506 1250.67 L180.506 1246.51 Q183.168 1245.77 185.483 1245.4 Q187.821 1245.03 189.881 1245.03 Q195.205 1245.03 198.307 1247.46 Q201.409 1249.86 201.409 1253.99 Q201.409 1256.86 199.765 1258.85 Q198.122 1260.81 195.089 1261.58 Z" fill="#000000" fill-rule="nonzero" fill-opacity="1" /><path clip-path="url(#clip290)" d="M142.103 977.617 L171.779 977.617 L171.779 981.553 L142.103 981.553 L142.103 977.617 Z" fill="#000000" fill-rule="nonzero" fill-opacity="1" /><path clip-path="url(#clip290)" d="M185.9 990.511 L202.219 990.511 L202.219 994.446 L180.275 994.446 L180.275 990.511 Q182.937 987.756 187.52 983.127 Q192.126 978.474 193.307 977.131 Q195.552 974.608 196.432 972.872 Q197.335 971.113 197.335 969.423 Q197.335 966.668 195.39 964.932 Q193.469 963.196 190.367 963.196 Q188.168 963.196 185.714 963.96 Q183.284 964.724 180.506 966.275 L180.506 961.553 Q183.33 960.418 185.784 959.84 Q188.237 959.261 190.275 959.261 Q195.645 959.261 198.839 961.946 Q202.034 964.631 202.034 969.122 Q202.034 971.252 201.224 973.173 Q200.437 975.071 198.33 977.664 Q197.751 978.335 194.649 981.553 Q191.548 984.747 185.9 990.511 Z" fill="#000000" fill-rule="nonzero" fill-opacity="1" /><path clip-path="url(#clip290)" d="M141.733 691.852 L171.409 691.852 L171.409 695.787 L141.733 695.787 L141.733 691.852 Z" fill="#000000" fill-rule="nonzero" fill-opacity="1" /><path clip-path="url(#clip290)" d="M182.312 704.745 L189.95 704.745 L189.95 678.38 L181.64 680.046 L181.64 675.787 L189.904 674.12 L194.58 674.12 L194.58 704.745 L202.219 704.745 L202.219 708.68 L182.312 708.68 L182.312 704.745 Z" fill="#000000" fill-rule="nonzero" fill-opacity="1" /><path clip-path="url(#clip290)" d="M190.275 391.433 Q186.663 391.433 184.835 394.998 Q183.029 398.54 183.029 405.669 Q183.029 412.776 184.835 416.341 Q186.663 419.882 190.275 419.882 Q193.909 419.882 195.714 416.341 Q197.543 412.776 197.543 405.669 Q197.543 398.54 195.714 394.998 Q193.909 391.433 190.275 391.433 M190.275 387.73 Q196.085 387.73 199.14 392.336 Q202.219 396.919 202.219 405.669 Q202.219 414.396 199.14 419.003 Q196.085 423.586 190.275 423.586 Q184.464 423.586 181.386 419.003 Q178.33 414.396 178.33 405.669 Q178.33 396.919 181.386 392.336 Q184.464 387.73 190.275 387.73 Z" fill="#000000" fill-rule="nonzero" fill-opacity="1" /><path clip-path="url(#clip290)" d="M182.312 133.214 L189.95 133.214 L189.95 106.848 L181.64 108.515 L181.64 104.255 L189.904 102.589 L194.58 102.589 L194.58 133.214 L202.219 133.214 L202.219 137.149 L182.312 137.149 L182.312 133.214 Z" fill="#000000" fill-rule="nonzero" fill-opacity="1" /><path clip-path="url(#clip290)" d="M90.417 1020.78 L109.323 1020.78 L109.323 1026.67 L60.1162 1026.67 L60.1162 1020.78 L65.5271 1020.78 Q62.3442 1018.94 60.8164 1016.13 Q59.2568 1013.3 59.2568 1009.39 Q59.2568 1002.89 64.4131 998.852 Q69.5693 994.778 77.972 994.778 Q86.3747 994.778 91.531 998.852 Q96.6872 1002.89 96.6872 1009.39 Q96.6872 1013.3 95.1594 1016.13 Q93.5998 1018.94 90.417 1020.78 M77.972 1000.86 Q71.5108 1000.86 67.8505 1003.53 Q64.1584 1006.17 64.1584 1010.82 Q64.1584 1015.47 67.8505 1018.14 Q71.5108 1020.78 77.972 1020.78 Q84.4332 1020.78 88.1253 1018.14 Q91.7856 1015.47 91.7856 1010.82 Q91.7856 1006.17 88.1253 1003.53 Q84.4332 1000.86 77.972 1000.86 Z" fill="#000000" fill-rule="nonzero" fill-opacity="1" /><path clip-path="url(#clip290)" d="M75.8077 987.33 L75.8077 983.638 L95.7642 983.638 L95.7642 987.33 L75.8077 987.33 M68.0415 987.33 L68.0415 983.638 L72.1792 983.638 L72.1792 987.33 L68.0415 987.33 Z" fill="#000000" fill-rule="nonzero" fill-opacity="1" /><path clip-path="url(#clip290)" d="M75.2984 955.66 L75.2984 938.505 L80.5183 938.505 L80.5183 955.66 L75.2984 955.66 Z" fill="#000000" fill-rule="nonzero" fill-opacity="1" /><path clip-path="url(#clip290)" d="M90.417 902.793 L109.323 902.793 L109.323 908.682 L60.1162 908.682 L60.1162 902.793 L65.5271 902.793 Q62.3442 900.947 60.8164 898.146 Q59.2568 895.314 59.2568 891.399 Q59.2568 884.906 64.4131 880.863 Q69.5693 876.789 77.972 876.789 Q86.3747 876.789 91.531 880.863 Q96.6872 884.906 96.6872 891.399 Q96.6872 895.314 95.1594 898.146 Q93.5998 900.947 90.417 902.793 M77.972 882.869 Q71.5108 882.869 67.8505 885.542 Q64.1584 888.184 64.1584 892.831 Q64.1584 897.478 67.8505 900.152 Q71.5108 902.793 77.972 902.793 Q84.4332 902.793 88.1253 900.152 Q91.7856 897.478 91.7856 892.831 Q91.7856 888.184 88.1253 885.542 Q84.4332 882.869 77.972 882.869 Z" fill="#000000" fill-rule="nonzero" fill-opacity="1" /><path clip-path="url(#clip290)" d="M84.4969 851.263 L95.7642 851.263 L95.7642 854.955 L83.8285 854.955 Q80.9321 854.955 79.5634 856.101 Q78.163 857.247 78.163 859.634 Q78.163 862.467 79.8817 864.122 Q81.5686 865.777 84.4969 865.777 L95.7642 865.777 L95.7642 869.501 L75.8077 869.501 L75.8077 865.777 L78.895 865.777 Q77.0808 864.535 76.2214 862.785 Q75.3302 861.002 75.3302 858.552 Q75.3302 856.133 76.4442 854.414 Q77.5264 852.695 79.6271 851.868 Q77.4309 850.499 76.3806 848.589 Q75.3302 846.648 75.3302 844.038 Q75.3302 840.505 77.5264 838.627 Q79.6907 836.717 83.7011 836.717 L95.7642 836.717 L95.7642 840.409 L83.8285 840.409 Q80.9639 840.409 79.5634 841.555 Q78.163 842.701 78.163 845.056 Q78.163 847.921 79.8817 849.608 Q81.5686 851.263 84.4969 851.263 Z" fill="#000000" fill-rule="nonzero" fill-opacity="1" /><path clip-path="url(#clip290)" d="M68.0415 828.728 L68.0415 825.036 L95.7642 825.036 L95.7642 828.728 L68.0415 828.728 Z" fill="#000000" fill-rule="nonzero" fill-opacity="1" /><path clip-path="url(#clip290)" d="M84.9743 798.714 L86.5657 798.714 L86.5657 815.679 Q89.9395 815.424 91.7219 813.387 Q93.5043 811.318 93.5043 807.658 Q93.5043 805.525 93.0269 803.52 Q92.5813 801.547 91.6583 799.573 L94.7456 799.573 Q95.5095 801.547 95.8915 803.647 Q96.2734 805.716 96.2734 807.881 Q96.2734 813.26 93.5043 816.379 Q90.7352 819.53 85.9928 819.53 Q81.0912 819.53 78.1948 816.538 Q75.3302 813.578 75.3302 808.517 Q75.3302 803.998 77.9084 801.356 Q80.5183 798.714 84.9743 798.714 M83.9876 802.406 Q81.314 802.438 79.6907 804.093 Q78.0993 805.748 78.0993 808.485 Q78.0993 811.573 79.6589 813.419 Q81.1867 815.265 83.9876 815.551 L83.9876 802.406 Z" fill="#000000" fill-rule="nonzero" fill-opacity="1" /><polyline clip-path="url(#clip292)" style="stroke:#ac8d18; stroke-linecap:round; stroke-linejoin:round; stroke-width:6; stroke-opacity:1; fill:none" points="251.971,96.2317 303.285,121.784 346.39,144.867 378.838,163.365 406.488,179.985 431.171,195.564 453.764,210.5 474.776,225.029 494.533,239.306 513.264,253.444 531.133,267.53 548.267,281.637 564.764,295.827 580.703,310.157 596.148,324.681 611.152,339.452 625.759,354.519 639.989,369.92 653.722,385.527 665.833,399.961 670.443,405.635 675.054,411.413 687.164,427.117 700.497,445.372 713.658,464.504 726.276,484.024 738.382,503.988 750.023,524.49 761.242,545.638 772.076,567.55 782.556,590.364 792.711,614.239 802.563,639.361 812.135,665.959 821.445,694.315 830.509,724.782 839.344,757.824 847.962,794.052 856.376,834.315 864.597,879.83 872.636,932.437 880.5,995.13 888.2,1073.27 895.744,1178.01 903.137,1339.8 910.388,1729.15 "/>
<path clip-path="url(#clip292)" d="M670.443 415.635 L661.783 410.635 L661.783 400.635 L670.443 395.635 L679.103 400.635 L679.103 410.635 Z" fill="#ff0000" fill-rule="evenodd" fill-opacity="1" stroke="none"/>
<path clip-path="url(#clip290)" d="M794.677 208.621 L906.876 208.621 L906.876 104.941 L794.677 104.941  Z" fill="#ffffff" fill-rule="evenodd" fill-opacity="1"/>
<polyline clip-path="url(#clip290)" style="stroke:#000000; stroke-linecap:round; stroke-linejoin:round; stroke-width:4; stroke-opacity:1; fill:none" points="794.677,208.621 906.876,208.621 906.876,104.941 794.677,104.941 794.677,208.621 "/>
<polyline clip-path="url(#clip290)" style="stroke:#ac8d18; stroke-linecap:round; stroke-linejoin:round; stroke-width:6; stroke-opacity:1; fill:none" points="802.432,156.781 848.96,156.781 "/>
<path clip-path="url(#clip290)" d="M875.974 157.626 L861.228 157.626 Q861.575 164.547 863.173 167.487 Q865.163 171.098 868.612 171.098 Q872.085 171.098 874.006 167.463 Q875.696 164.269 875.974 157.626 M875.904 153.69 Q875.256 147.116 874.006 144.802 Q872.015 141.144 868.612 141.144 Q865.071 141.144 863.196 144.755 Q861.714 147.672 861.275 153.69 L875.904 153.69 M868.612 137.672 Q874.168 137.672 877.339 142.579 Q880.511 147.464 880.511 156.121 Q880.511 164.755 877.339 169.662 Q874.168 174.593 868.612 174.593 Q863.034 174.593 859.886 169.662 Q856.714 164.755 856.714 156.121 Q856.714 147.464 859.886 142.579 Q863.034 137.672 868.612 137.672 Z" fill="#000000" fill-rule="nonzero" fill-opacity="1" /><path clip-path="url(#clip290)" d="M889.307 171.422 L899.122 171.422 L899.122 174.061 L885.279 174.061 L885.279 171.514 Q886.066 170.797 887.524 169.5 Q895.487 162.44 895.487 160.264 Q895.487 158.737 894.284 157.811 Q893.08 156.862 891.112 156.862 Q889.909 156.862 888.497 157.278 Q887.085 157.672 885.418 158.482 L885.418 155.635 Q887.2 154.987 888.728 154.663 Q890.279 154.339 891.598 154.339 Q894.955 154.339 896.969 155.866 Q898.983 157.394 898.983 159.894 Q898.983 163.112 891.321 169.686 Q890.024 170.797 889.307 171.422 Z" fill="#000000" fill-rule="nonzero" fill-opacity="1" /><path clip-path="url(#clip290)" d="M1254.83 1778.14 L1952.76 1778.14 L1952.76 47.2441 L1254.83 47.2441  Z" fill="#ffffff" fill-rule="evenodd" fill-opacity="1"/>
<polyline clip-path="url(#clip291)" style="stroke:#000000; stroke-linecap:round; stroke-linejoin:round; stroke-width:2; stroke-opacity:0.1; fill:none" points="1259.94,1778.14 1259.94,47.2441 "/>
<polyline clip-path="url(#clip291)" style="stroke:#000000; stroke-linecap:round; stroke-linejoin:round; stroke-width:2; stroke-opacity:0.1; fill:none" points="1390.4,1778.14 1390.4,47.2441 "/>
<polyline clip-path="url(#clip291)" style="stroke:#000000; stroke-linecap:round; stroke-linejoin:round; stroke-width:2; stroke-opacity:0.1; fill:none" points="1520.87,1778.14 1520.87,47.2441 "/>
<polyline clip-path="url(#clip291)" style="stroke:#000000; stroke-linecap:round; stroke-linejoin:round; stroke-width:2; stroke-opacity:0.1; fill:none" points="1651.34,1778.14 1651.34,47.2441 "/>
<polyline clip-path="url(#clip291)" style="stroke:#000000; stroke-linecap:round; stroke-linejoin:round; stroke-width:2; stroke-opacity:0.1; fill:none" points="1781.8,1778.14 1781.8,47.2441 "/>
<polyline clip-path="url(#clip291)" style="stroke:#000000; stroke-linecap:round; stroke-linejoin:round; stroke-width:2; stroke-opacity:0.1; fill:none" points="1912.27,1778.14 1912.27,47.2441 "/>
<polyline clip-path="url(#clip291)" style="stroke:#000000; stroke-linecap:round; stroke-linejoin:round; stroke-width:2; stroke-opacity:0.1; fill:none" points="1254.83,1741.35 1952.76,1741.35 "/>
<polyline clip-path="url(#clip291)" style="stroke:#000000; stroke-linecap:round; stroke-linejoin:round; stroke-width:2; stroke-opacity:0.1; fill:none" points="1254.83,1466.67 1952.76,1466.67 "/>
<polyline clip-path="url(#clip291)" style="stroke:#000000; stroke-linecap:round; stroke-linejoin:round; stroke-width:2; stroke-opacity:0.1; fill:none" points="1254.83,1192 1952.76,1192 "/>
<polyline clip-path="url(#clip291)" style="stroke:#000000; stroke-linecap:round; stroke-linejoin:round; stroke-width:2; stroke-opacity:0.1; fill:none" points="1254.83,917.317 1952.76,917.317 "/>
<polyline clip-path="url(#clip291)" style="stroke:#000000; stroke-linecap:round; stroke-linejoin:round; stroke-width:2; stroke-opacity:0.1; fill:none" points="1254.83,642.639 1952.76,642.639 "/>
<polyline clip-path="url(#clip291)" style="stroke:#000000; stroke-linecap:round; stroke-linejoin:round; stroke-width:2; stroke-opacity:0.1; fill:none" points="1254.83,367.96 1952.76,367.96 "/>
<polyline clip-path="url(#clip291)" style="stroke:#000000; stroke-linecap:round; stroke-linejoin:round; stroke-width:2; stroke-opacity:0.1; fill:none" points="1254.83,93.2817 1952.76,93.2817 "/>
<polyline clip-path="url(#clip290)" style="stroke:#000000; stroke-linecap:round; stroke-linejoin:round; stroke-width:4; stroke-opacity:1; fill:none" points="1254.83,1778.14 1952.76,1778.14 "/>
<polyline clip-path="url(#clip290)" style="stroke:#000000; stroke-linecap:round; stroke-linejoin:round; stroke-width:4; stroke-opacity:1; fill:none" points="1259.94,1778.14 1259.94,1759.24 "/>
<polyline clip-path="url(#clip290)" style="stroke:#000000; stroke-linecap:round; stroke-linejoin:round; stroke-width:4; stroke-opacity:1; fill:none" points="1390.4,1778.14 1390.4,1759.24 "/>
<polyline clip-path="url(#clip290)" style="stroke:#000000; stroke-linecap:round; stroke-linejoin:round; stroke-width:4; stroke-opacity:1; fill:none" points="1520.87,1778.14 1520.87,1759.24 "/>
<polyline clip-path="url(#clip290)" style="stroke:#000000; stroke-linecap:round; stroke-linejoin:round; stroke-width:4; stroke-opacity:1; fill:none" points="1651.34,1778.14 1651.34,1759.24 "/>
<polyline clip-path="url(#clip290)" style="stroke:#000000; stroke-linecap:round; stroke-linejoin:round; stroke-width:4; stroke-opacity:1; fill:none" points="1781.8,1778.14 1781.8,1759.24 "/>
<polyline clip-path="url(#clip290)" style="stroke:#000000; stroke-linecap:round; stroke-linejoin:round; stroke-width:4; stroke-opacity:1; fill:none" points="1912.27,1778.14 1912.27,1759.24 "/>
<path clip-path="url(#clip290)" d="M1214.5 1820.51 L1244.17 1820.51 L1244.17 1824.45 L1214.5 1824.45 L1214.5 1820.51 Z" fill="#000000" fill-rule="nonzero" fill-opacity="1" /><path clip-path="url(#clip290)" d="M1258.3 1833.4 L1274.61 1833.4 L1274.61 1837.34 L1252.67 1837.34 L1252.67 1833.4 Q1255.33 1830.65 1259.92 1826.02 Q1264.52 1821.37 1265.7 1820.03 Q1267.95 1817.5 1268.83 1815.77 Q1269.73 1814.01 1269.73 1812.32 Q1269.73 1809.56 1267.79 1807.83 Q1265.86 1806.09 1262.76 1806.09 Q1260.56 1806.09 1258.11 1806.85 Q1255.68 1807.62 1252.9 1809.17 L1252.9 1804.45 Q1255.73 1803.31 1258.18 1802.73 Q1260.63 1802.15 1262.67 1802.15 Q1268.04 1802.15 1271.23 1804.84 Q1274.43 1807.53 1274.43 1812.02 Q1274.43 1814.15 1273.62 1816.07 Q1272.83 1817.96 1270.73 1820.56 Q1270.15 1821.23 1267.05 1824.45 Q1263.94 1827.64 1258.3 1833.4 Z" fill="#000000" fill-rule="nonzero" fill-opacity="1" /><path clip-path="url(#clip290)" d="M1284.48 1802.78 L1302.83 1802.78 L1302.83 1806.72 L1288.76 1806.72 L1288.76 1815.19 Q1289.78 1814.84 1290.79 1814.68 Q1291.81 1814.49 1292.83 1814.49 Q1298.62 1814.49 1302 1817.66 Q1305.38 1820.84 1305.38 1826.25 Q1305.38 1831.83 1301.91 1834.93 Q1298.43 1838.01 1292.11 1838.01 Q1289.94 1838.01 1287.67 1837.64 Q1285.42 1837.27 1283.02 1836.53 L1283.02 1831.83 Q1285.1 1832.96 1287.32 1833.52 Q1289.54 1834.08 1292.02 1834.08 Q1296.03 1834.08 1298.36 1831.97 Q1300.7 1829.86 1300.7 1826.25 Q1300.7 1822.64 1298.36 1820.53 Q1296.03 1818.43 1292.02 1818.43 Q1290.15 1818.43 1288.27 1818.84 Q1286.42 1819.26 1284.48 1820.14 L1284.48 1802.78 Z" fill="#000000" fill-rule="nonzero" fill-opacity="1" /><path clip-path="url(#clip290)" d="M1344.47 1820.51 L1374.14 1820.51 L1374.14 1824.45 L1344.47 1824.45 L1344.47 1820.51 Z" fill="#000000" fill-rule="nonzero" fill-opacity="1" /><path clip-path="url(#clip290)" d="M1388.26 1833.4 L1404.58 1833.4 L1404.58 1837.34 L1382.64 1837.34 L1382.64 1833.4 Q1385.3 1830.65 1389.88 1826.02 Q1394.49 1821.37 1395.67 1820.03 Q1397.92 1817.5 1398.8 1815.77 Q1399.7 1814.01 1399.7 1812.32 Q1399.7 1809.56 1397.75 1807.83 Q1395.83 1806.09 1392.73 1806.09 Q1390.53 1806.09 1388.08 1806.85 Q1385.65 1807.62 1382.87 1809.17 L1382.87 1804.45 Q1385.69 1803.31 1388.15 1802.73 Q1390.6 1802.15 1392.64 1802.15 Q1398.01 1802.15 1401.2 1804.84 Q1404.4 1807.53 1404.4 1812.02 Q1404.4 1814.15 1403.59 1816.07 Q1402.8 1817.96 1400.69 1820.56 Q1400.12 1821.23 1397.01 1824.45 Q1393.91 1827.64 1388.26 1833.4 Z" fill="#000000" fill-rule="nonzero" fill-opacity="1" /><path clip-path="url(#clip290)" d="M1424.4 1805.86 Q1420.79 1805.86 1418.96 1809.42 Q1417.15 1812.96 1417.15 1820.09 Q1417.15 1827.2 1418.96 1830.77 Q1420.79 1834.31 1424.4 1834.31 Q1428.03 1834.31 1429.84 1830.77 Q1431.67 1827.2 1431.67 1820.09 Q1431.67 1812.96 1429.84 1809.42 Q1428.03 1805.86 1424.4 1805.86 M1424.4 1802.15 Q1430.21 1802.15 1433.26 1806.76 Q1436.34 1811.34 1436.34 1820.09 Q1436.34 1828.82 1433.26 1833.43 Q1430.21 1838.01 1424.4 1838.01 Q1418.59 1838.01 1415.51 1833.43 Q1412.45 1828.82 1412.45 1820.09 Q1412.45 1811.34 1415.51 1806.76 Q1418.59 1802.15 1424.4 1802.15 Z" fill="#000000" fill-rule="nonzero" fill-opacity="1" /><path clip-path="url(#clip290)" d="M1475.43 1820.51 L1505.11 1820.51 L1505.11 1824.45 L1475.43 1824.45 L1475.43 1820.51 Z" fill="#000000" fill-rule="nonzero" fill-opacity="1" /><path clip-path="url(#clip290)" d="M1516.01 1833.4 L1523.65 1833.4 L1523.65 1807.04 L1515.34 1808.71 L1515.34 1804.45 L1523.6 1802.78 L1528.28 1802.78 L1528.28 1833.4 L1535.92 1833.4 L1535.92 1837.34 L1516.01 1837.34 L1516.01 1833.4 Z" fill="#000000" fill-rule="nonzero" fill-opacity="1" /><path clip-path="url(#clip290)" d="M1545.41 1802.78 L1563.76 1802.78 L1563.76 1806.72 L1549.69 1806.72 L1549.69 1815.19 Q1550.71 1814.84 1551.73 1814.68 Q1552.75 1814.49 1553.76 1814.49 Q1559.55 1814.49 1562.93 1817.66 Q1566.31 1820.84 1566.31 1826.25 Q1566.31 1831.83 1562.84 1834.93 Q1559.37 1838.01 1553.05 1838.01 Q1550.87 1838.01 1548.6 1837.64 Q1546.36 1837.27 1543.95 1836.53 L1543.95 1831.83 Q1546.03 1832.96 1548.26 1833.52 Q1550.48 1834.08 1552.95 1834.08 Q1556.96 1834.08 1559.3 1831.97 Q1561.63 1829.86 1561.63 1826.25 Q1561.63 1822.64 1559.3 1820.53 Q1556.96 1818.43 1552.95 1818.43 Q1551.08 1818.43 1549.2 1818.84 Q1547.35 1819.26 1545.41 1820.14 L1545.41 1802.78 Z" fill="#000000" fill-rule="nonzero" fill-opacity="1" /><path clip-path="url(#clip290)" d="M1605.4 1820.51 L1635.08 1820.51 L1635.08 1824.45 L1605.4 1824.45 L1605.4 1820.51 Z" fill="#000000" fill-rule="nonzero" fill-opacity="1" /><path clip-path="url(#clip290)" d="M1645.98 1833.4 L1653.62 1833.4 L1653.62 1807.04 L1645.31 1808.71 L1645.31 1804.45 L1653.57 1802.78 L1658.25 1802.78 L1658.25 1833.4 L1665.89 1833.4 L1665.89 1837.34 L1645.98 1837.34 L1645.98 1833.4 Z" fill="#000000" fill-rule="nonzero" fill-opacity="1" /><path clip-path="url(#clip290)" d="M1685.33 1805.86 Q1681.72 1805.86 1679.89 1809.42 Q1678.08 1812.96 1678.08 1820.09 Q1678.08 1827.2 1679.89 1830.77 Q1681.72 1834.31 1685.33 1834.31 Q1688.96 1834.31 1690.77 1830.77 Q1692.6 1827.2 1692.6 1820.09 Q1692.6 1812.96 1690.77 1809.42 Q1688.96 1805.86 1685.33 1805.86 M1685.33 1802.15 Q1691.14 1802.15 1694.2 1806.76 Q1697.27 1811.34 1697.27 1820.09 Q1697.27 1828.82 1694.2 1833.43 Q1691.14 1838.01 1685.33 1838.01 Q1679.52 1838.01 1676.44 1833.43 Q1673.39 1828.82 1673.39 1820.09 Q1673.39 1811.34 1676.44 1806.76 Q1679.52 1802.15 1685.33 1802.15 Z" fill="#000000" fill-rule="nonzero" fill-opacity="1" /><path clip-path="url(#clip290)" d="M1751.44 1820.51 L1781.12 1820.51 L1781.12 1824.45 L1751.44 1824.45 L1751.44 1820.51 Z" fill="#000000" fill-rule="nonzero" fill-opacity="1" /><path clip-path="url(#clip290)" d="M1791.26 1802.78 L1809.62 1802.78 L1809.62 1806.72 L1795.54 1806.72 L1795.54 1815.19 Q1796.56 1814.84 1797.58 1814.68 Q1798.6 1814.49 1799.62 1814.49 Q1805.4 1814.49 1808.78 1817.66 Q1812.16 1820.84 1812.16 1826.25 Q1812.16 1831.83 1808.69 1834.93 Q1805.22 1838.01 1798.9 1838.01 Q1796.72 1838.01 1794.45 1837.64 Q1792.21 1837.27 1789.8 1836.53 L1789.8 1831.83 Q1791.88 1832.96 1794.11 1833.52 Q1796.33 1834.08 1798.81 1834.08 Q1802.81 1834.08 1805.15 1831.97 Q1807.49 1829.86 1807.49 1826.25 Q1807.49 1822.64 1805.15 1820.53 Q1802.81 1818.43 1798.81 1818.43 Q1796.93 1818.43 1795.06 1818.84 Q1793.2 1819.26 1791.26 1820.14 L1791.26 1802.78 Z" fill="#000000" fill-rule="nonzero" fill-opacity="1" /><path clip-path="url(#clip290)" d="M1912.27 1805.86 Q1908.66 1805.86 1906.83 1809.42 Q1905.02 1812.96 1905.02 1820.09 Q1905.02 1827.2 1906.83 1830.77 Q1908.66 1834.31 1912.27 1834.31 Q1915.9 1834.31 1917.71 1830.77 Q1919.54 1827.2 1919.54 1820.09 Q1919.54 1812.96 1917.71 1809.42 Q1915.9 1805.86 1912.27 1805.86 M1912.27 1802.15 Q1918.08 1802.15 1921.14 1806.76 Q1924.21 1811.34 1924.21 1820.09 Q1924.21 1828.82 1921.14 1833.43 Q1918.08 1838.01 1912.27 1838.01 Q1906.46 1838.01 1903.38 1833.43 Q1900.33 1828.82 1900.33 1820.09 Q1900.33 1811.34 1903.38 1806.76 Q1906.46 1802.15 1912.27 1802.15 Z" fill="#000000" fill-rule="nonzero" fill-opacity="1" /><path clip-path="url(#clip290)" d="M1601.12 1894.41 L1580.85 1894.41 Q1581.32 1903.92 1583.52 1907.96 Q1586.26 1912.93 1591 1912.93 Q1595.77 1912.93 1598.42 1907.93 Q1600.74 1903.54 1601.12 1894.41 M1601.03 1888.99 Q1600.13 1879.96 1598.42 1876.77 Q1595.68 1871.74 1591 1871.74 Q1586.13 1871.74 1583.55 1876.71 Q1581.52 1880.72 1580.91 1888.99 L1601.03 1888.99 M1591 1866.97 Q1598.64 1866.97 1603 1873.72 Q1607.36 1880.43 1607.36 1892.34 Q1607.36 1904.21 1603 1910.96 Q1598.64 1917.74 1591 1917.74 Q1583.33 1917.74 1579 1910.96 Q1574.64 1904.21 1574.64 1892.34 Q1574.64 1880.43 1579 1873.72 Q1583.33 1866.97 1591 1866.97 Z" fill="#000000" fill-rule="nonzero" fill-opacity="1" /><path clip-path="url(#clip290)" d="M1619.45 1913.38 L1632.95 1913.38 L1632.95 1917 L1613.92 1917 L1613.92 1913.5 Q1615 1912.52 1617 1910.73 Q1627.95 1901.03 1627.95 1898.03 Q1627.95 1895.93 1626.3 1894.66 Q1624.64 1893.36 1621.94 1893.36 Q1620.28 1893.36 1618.34 1893.93 Q1616.4 1894.47 1614.11 1895.58 L1614.11 1891.67 Q1616.56 1890.78 1618.66 1890.33 Q1620.79 1889.89 1622.61 1889.89 Q1627.22 1889.89 1629.99 1891.99 Q1632.76 1894.09 1632.76 1897.52 Q1632.76 1901.95 1622.22 1910.99 Q1620.44 1912.52 1619.45 1913.38 Z" fill="#000000" fill-rule="nonzero" fill-opacity="1" /><polyline clip-path="url(#clip290)" style="stroke:#000000; stroke-linecap:round; stroke-linejoin:round; stroke-width:4; stroke-opacity:1; fill:none" points="1254.83,1778.14 1254.83,47.2441 "/>
<polyline clip-path="url(#clip290)" style="stroke:#000000; stroke-linecap:round; stroke-linejoin:round; stroke-width:4; stroke-opacity:1; fill:none" points="1254.83,1741.35 1273.73,1741.35 "/>
<polyline clip-path="url(#clip290)" style="stroke:#000000; stroke-linecap:round; stroke-linejoin:round; stroke-width:4; stroke-opacity:1; fill:none" points="1254.83,1466.67 1273.73,1466.67 "/>
<polyline clip-path="url(#clip290)" style="stroke:#000000; stroke-linecap:round; stroke-linejoin:round; stroke-width:4; stroke-opacity:1; fill:none" points="1254.83,1192 1273.73,1192 "/>
<polyline clip-path="url(#clip290)" style="stroke:#000000; stroke-linecap:round; stroke-linejoin:round; stroke-width:4; stroke-opacity:1; fill:none" points="1254.83,917.317 1273.73,917.317 "/>
<polyline clip-path="url(#clip290)" style="stroke:#000000; stroke-linecap:round; stroke-linejoin:round; stroke-width:4; stroke-opacity:1; fill:none" points="1254.83,642.639 1273.73,642.639 "/>
<polyline clip-path="url(#clip290)" style="stroke:#000000; stroke-linecap:round; stroke-linejoin:round; stroke-width:4; stroke-opacity:1; fill:none" points="1254.83,367.96 1273.73,367.96 "/>
<polyline clip-path="url(#clip290)" style="stroke:#000000; stroke-linecap:round; stroke-linejoin:round; stroke-width:4; stroke-opacity:1; fill:none" points="1254.83,93.2817 1273.73,93.2817 "/>
<path clip-path="url(#clip290)" d="M1117.4 1741.8 L1147.08 1741.8 L1147.08 1745.74 L1117.4 1745.74 L1117.4 1741.8 Z" fill="#000000" fill-rule="nonzero" fill-opacity="1" /><path clip-path="url(#clip290)" d="M1167.17 1727.15 Q1163.56 1727.15 1161.73 1730.72 Q1159.93 1734.26 1159.93 1741.39 Q1159.93 1748.49 1161.73 1752.06 Q1163.56 1755.6 1167.17 1755.6 Q1170.81 1755.6 1172.61 1752.06 Q1174.44 1748.49 1174.44 1741.39 Q1174.44 1734.26 1172.61 1730.72 Q1170.81 1727.15 1167.17 1727.15 M1167.17 1723.45 Q1172.98 1723.45 1176.04 1728.05 Q1179.12 1732.64 1179.12 1741.39 Q1179.12 1750.11 1176.04 1754.72 Q1172.98 1759.3 1167.17 1759.3 Q1161.36 1759.3 1158.28 1754.72 Q1155.23 1750.11 1155.23 1741.39 Q1155.23 1732.64 1158.28 1728.05 Q1161.36 1723.45 1167.17 1723.45 Z" fill="#000000" fill-rule="nonzero" fill-opacity="1" /><path clip-path="url(#clip290)" d="M1187.33 1752.75 L1192.22 1752.75 L1192.22 1758.63 L1187.33 1758.63 L1187.33 1752.75 Z" fill="#000000" fill-rule="nonzero" fill-opacity="1" /><path clip-path="url(#clip290)" d="M1215.25 1728.15 L1203.45 1746.6 L1215.25 1746.6 L1215.25 1728.15 M1214.02 1724.07 L1219.9 1724.07 L1219.9 1746.6 L1224.83 1746.6 L1224.83 1750.49 L1219.9 1750.49 L1219.9 1758.63 L1215.25 1758.63 L1215.25 1750.49 L1199.65 1750.49 L1199.65 1745.97 L1214.02 1724.07 Z" fill="#000000" fill-rule="nonzero" fill-opacity="1" /><path clip-path="url(#clip290)" d="M1118.54 1467.13 L1148.21 1467.13 L1148.21 1471.06 L1118.54 1471.06 L1118.54 1467.13 Z" fill="#000000" fill-rule="nonzero" fill-opacity="1" /><path clip-path="url(#clip290)" d="M1168.31 1452.47 Q1164.7 1452.47 1162.87 1456.04 Q1161.06 1459.58 1161.06 1466.71 Q1161.06 1473.82 1162.87 1477.38 Q1164.7 1480.92 1168.31 1480.92 Q1171.94 1480.92 1173.75 1477.38 Q1175.58 1473.82 1175.58 1466.71 Q1175.58 1459.58 1173.75 1456.04 Q1171.94 1452.47 1168.31 1452.47 M1168.31 1448.77 Q1174.12 1448.77 1177.17 1453.38 Q1180.25 1457.96 1180.25 1466.71 Q1180.25 1475.44 1177.17 1480.04 Q1174.12 1484.63 1168.31 1484.63 Q1162.5 1484.63 1159.42 1480.04 Q1156.36 1475.44 1156.36 1466.71 Q1156.36 1457.96 1159.42 1453.38 Q1162.5 1448.77 1168.31 1448.77 Z" fill="#000000" fill-rule="nonzero" fill-opacity="1" /><path clip-path="url(#clip290)" d="M1188.47 1478.08 L1193.35 1478.08 L1193.35 1483.95 L1188.47 1483.95 L1188.47 1478.08 Z" fill="#000000" fill-rule="nonzero" fill-opacity="1" /><path clip-path="url(#clip290)" d="M1217.7 1465.32 Q1221.06 1466.04 1222.94 1468.31 Q1224.83 1470.58 1224.83 1473.91 Q1224.83 1479.02 1221.32 1481.83 Q1217.8 1484.63 1211.32 1484.63 Q1209.14 1484.63 1206.83 1484.19 Q1204.53 1483.77 1202.08 1482.91 L1202.08 1478.4 Q1204.02 1479.53 1206.34 1480.11 Q1208.65 1480.69 1211.18 1480.69 Q1215.58 1480.69 1217.87 1478.95 Q1220.18 1477.22 1220.18 1473.91 Q1220.18 1470.85 1218.03 1469.14 Q1215.9 1467.4 1212.08 1467.4 L1208.05 1467.4 L1208.05 1463.56 L1212.27 1463.56 Q1215.71 1463.56 1217.54 1462.2 Q1219.37 1460.81 1219.37 1458.21 Q1219.37 1455.55 1217.47 1454.14 Q1215.6 1452.7 1212.08 1452.7 Q1210.16 1452.7 1207.96 1453.12 Q1205.76 1453.54 1203.12 1454.42 L1203.12 1450.25 Q1205.78 1449.51 1208.1 1449.14 Q1210.44 1448.77 1212.5 1448.77 Q1217.82 1448.77 1220.92 1451.2 Q1224.02 1453.61 1224.02 1457.73 Q1224.02 1460.6 1222.38 1462.59 Q1220.74 1464.56 1217.7 1465.32 Z" fill="#000000" fill-rule="nonzero" fill-opacity="1" /><path clip-path="url(#clip290)" d="M1119.49 1192.45 L1149.16 1192.45 L1149.16 1196.38 L1119.49 1196.38 L1119.49 1192.45 Z" fill="#000000" fill-rule="nonzero" fill-opacity="1" /><path clip-path="url(#clip290)" d="M1169.26 1177.79 Q1165.65 1177.79 1163.82 1181.36 Q1162.01 1184.9 1162.01 1192.03 Q1162.01 1199.14 1163.82 1202.7 Q1165.65 1206.24 1169.26 1206.24 Q1172.89 1206.24 1174.7 1202.7 Q1176.52 1199.14 1176.52 1192.03 Q1176.52 1184.9 1174.7 1181.36 Q1172.89 1177.79 1169.26 1177.79 M1169.26 1174.09 Q1175.07 1174.09 1178.12 1178.7 Q1181.2 1183.28 1181.2 1192.03 Q1181.2 1200.76 1178.12 1205.36 Q1175.07 1209.95 1169.26 1209.95 Q1163.45 1209.95 1160.37 1205.36 Q1157.31 1200.76 1157.31 1192.03 Q1157.31 1183.28 1160.37 1178.7 Q1163.45 1174.09 1169.26 1174.09 Z" fill="#000000" fill-rule="nonzero" fill-opacity="1" /><path clip-path="url(#clip290)" d="M1189.42 1203.4 L1194.3 1203.4 L1194.3 1209.28 L1189.42 1209.28 L1189.42 1203.4 Z" fill="#000000" fill-rule="nonzero" fill-opacity="1" /><path clip-path="url(#clip290)" d="M1208.52 1205.34 L1224.83 1205.34 L1224.83 1209.28 L1202.89 1209.28 L1202.89 1205.34 Q1205.55 1202.59 1210.14 1197.96 Q1214.74 1193.3 1215.92 1191.96 Q1218.17 1189.44 1219.05 1187.7 Q1219.95 1185.94 1219.95 1184.25 Q1219.95 1181.5 1218.01 1179.76 Q1216.08 1178.03 1212.98 1178.03 Q1210.78 1178.03 1208.33 1178.79 Q1205.9 1179.55 1203.12 1181.1 L1203.12 1176.38 Q1205.95 1175.25 1208.4 1174.67 Q1210.85 1174.09 1212.89 1174.09 Q1218.26 1174.09 1221.45 1176.78 Q1224.65 1179.46 1224.65 1183.95 Q1224.65 1186.08 1223.84 1188 Q1223.05 1189.9 1220.95 1192.49 Q1220.37 1193.17 1217.27 1196.38 Q1214.16 1199.58 1208.52 1205.34 Z" fill="#000000" fill-rule="nonzero" fill-opacity="1" /><path clip-path="url(#clip290)" d="M1119.12 917.769 L1148.79 917.769 L1148.79 921.704 L1119.12 921.704 L1119.12 917.769 Z" fill="#000000" fill-rule="nonzero" fill-opacity="1" /><path clip-path="url(#clip290)" d="M1168.89 903.116 Q1165.27 903.116 1163.45 906.681 Q1161.64 910.223 1161.64 917.352 Q1161.64 924.459 1163.45 928.023 Q1165.27 931.565 1168.89 931.565 Q1172.52 931.565 1174.33 928.023 Q1176.15 924.459 1176.15 917.352 Q1176.15 910.223 1174.33 906.681 Q1172.52 903.116 1168.89 903.116 M1168.89 899.412 Q1174.7 899.412 1177.75 904.019 Q1180.83 908.602 1180.83 917.352 Q1180.83 926.079 1177.75 930.685 Q1174.7 935.269 1168.89 935.269 Q1163.08 935.269 1160 930.685 Q1156.94 926.079 1156.94 917.352 Q1156.94 908.602 1160 904.019 Q1163.08 899.412 1168.89 899.412 Z" fill="#000000" fill-rule="nonzero" fill-opacity="1" /><path clip-path="url(#clip290)" d="M1189.05 928.718 L1193.93 928.718 L1193.93 934.597 L1189.05 934.597 L1189.05 928.718 Z" fill="#000000" fill-rule="nonzero" fill-opacity="1" /><path clip-path="url(#clip290)" d="M1204.93 930.662 L1212.57 930.662 L1212.57 904.297 L1204.26 905.963 L1204.26 901.704 L1212.52 900.037 L1217.2 900.037 L1217.2 930.662 L1224.83 930.662 L1224.83 934.597 L1204.93 934.597 L1204.93 930.662 Z" fill="#000000" fill-rule="nonzero" fill-opacity="1" /><path clip-path="url(#clip290)" d="M1167.66 628.438 Q1164.05 628.438 1162.22 632.002 Q1160.41 635.544 1160.41 642.674 Q1160.41 649.78 1162.22 653.345 Q1164.05 656.886 1167.66 656.886 Q1171.29 656.886 1173.1 653.345 Q1174.93 649.78 1174.93 642.674 Q1174.93 635.544 1173.1 632.002 Q1171.29 628.438 1167.66 628.438 M1167.66 624.734 Q1173.47 624.734 1176.52 629.34 Q1179.6 633.924 1179.6 642.674 Q1179.6 651.4 1176.52 656.007 Q1173.47 660.59 1167.66 660.59 Q1161.85 660.59 1158.77 656.007 Q1155.71 651.4 1155.71 642.674 Q1155.71 633.924 1158.77 629.34 Q1161.85 624.734 1167.66 624.734 Z" fill="#000000" fill-rule="nonzero" fill-opacity="1" /><path clip-path="url(#clip290)" d="M1187.82 654.039 L1192.71 654.039 L1192.71 659.919 L1187.82 659.919 L1187.82 654.039 Z" fill="#000000" fill-rule="nonzero" fill-opacity="1" /><path clip-path="url(#clip290)" d="M1212.89 628.438 Q1209.28 628.438 1207.45 632.002 Q1205.64 635.544 1205.64 642.674 Q1205.64 649.78 1207.45 653.345 Q1209.28 656.886 1212.89 656.886 Q1216.52 656.886 1218.33 653.345 Q1220.16 649.78 1220.16 642.674 Q1220.16 635.544 1218.33 632.002 Q1216.52 628.438 1212.89 628.438 M1212.89 624.734 Q1218.7 624.734 1221.76 629.34 Q1224.83 633.924 1224.83 642.674 Q1224.83 651.4 1221.76 656.007 Q1218.7 660.59 1212.89 660.59 Q1207.08 660.59 1204 656.007 Q1200.95 651.4 1200.95 642.674 Q1200.95 633.924 1204 629.34 Q1207.08 624.734 1212.89 624.734 Z" fill="#000000" fill-rule="nonzero" fill-opacity="1" /><path clip-path="url(#clip290)" d="M1168.89 353.759 Q1165.27 353.759 1163.45 357.324 Q1161.64 360.865 1161.64 367.995 Q1161.64 375.101 1163.45 378.666 Q1165.27 382.208 1168.89 382.208 Q1172.52 382.208 1174.33 378.666 Q1176.15 375.101 1176.15 367.995 Q1176.15 360.865 1174.33 357.324 Q1172.52 353.759 1168.89 353.759 M1168.89 350.055 Q1174.7 350.055 1177.75 354.662 Q1180.83 359.245 1180.83 367.995 Q1180.83 376.722 1177.75 381.328 Q1174.7 385.912 1168.89 385.912 Q1163.08 385.912 1160 381.328 Q1156.94 376.722 1156.94 367.995 Q1156.94 359.245 1160 354.662 Q1163.08 350.055 1168.89 350.055 Z" fill="#000000" fill-rule="nonzero" fill-opacity="1" /><path clip-path="url(#clip290)" d="M1189.05 379.361 L1193.93 379.361 L1193.93 385.24 L1189.05 385.24 L1189.05 379.361 Z" fill="#000000" fill-rule="nonzero" fill-opacity="1" /><path clip-path="url(#clip290)" d="M1204.93 381.305 L1212.57 381.305 L1212.57 354.94 L1204.26 356.606 L1204.26 352.347 L1212.52 350.68 L1217.2 350.68 L1217.2 381.305 L1224.83 381.305 L1224.83 385.24 L1204.93 385.24 L1204.93 381.305 Z" fill="#000000" fill-rule="nonzero" fill-opacity="1" /><path clip-path="url(#clip290)" d="M1169.26 79.0804 Q1165.65 79.0804 1163.82 82.6452 Q1162.01 86.1868 1162.01 93.3164 Q1162.01 100.423 1163.82 103.988 Q1165.65 107.529 1169.26 107.529 Q1172.89 107.529 1174.7 103.988 Q1176.52 100.423 1176.52 93.3164 Q1176.52 86.1868 1174.7 82.6452 Q1172.89 79.0804 1169.26 79.0804 M1169.26 75.3767 Q1175.07 75.3767 1178.12 79.9831 Q1181.2 84.5664 1181.2 93.3164 Q1181.2 102.043 1178.12 106.65 Q1175.07 111.233 1169.26 111.233 Q1163.45 111.233 1160.37 106.65 Q1157.31 102.043 1157.31 93.3164 Q1157.31 84.5664 1160.37 79.9831 Q1163.45 75.3767 1169.26 75.3767 Z" fill="#000000" fill-rule="nonzero" fill-opacity="1" /><path clip-path="url(#clip290)" d="M1189.42 104.682 L1194.3 104.682 L1194.3 110.562 L1189.42 110.562 L1189.42 104.682 Z" fill="#000000" fill-rule="nonzero" fill-opacity="1" /><path clip-path="url(#clip290)" d="M1208.52 106.627 L1224.83 106.627 L1224.83 110.562 L1202.89 110.562 L1202.89 106.627 Q1205.55 103.872 1210.14 99.2423 Q1214.74 94.5895 1215.92 93.247 Q1218.17 90.7238 1219.05 88.9877 Q1219.95 87.2285 1219.95 85.5387 Q1219.95 82.784 1218.01 81.0479 Q1216.08 79.3118 1212.98 79.3118 Q1210.78 79.3118 1208.33 80.0757 Q1205.9 80.8396 1203.12 82.3905 L1203.12 77.6683 Q1205.95 76.5341 1208.4 75.9554 Q1210.85 75.3767 1212.89 75.3767 Q1218.26 75.3767 1221.45 78.0618 Q1224.65 80.747 1224.65 85.2377 Q1224.65 87.3674 1223.84 89.2886 Q1223.05 91.1868 1220.95 93.7794 Q1220.37 94.4506 1217.27 97.6682 Q1214.16 100.863 1208.52 106.627 Z" fill="#000000" fill-rule="nonzero" fill-opacity="1" /><path clip-path="url(#clip290)" d="M1067.8 1020.78 L1086.71 1020.78 L1086.71 1026.67 L1037.5 1026.67 L1037.5 1020.78 L1042.91 1020.78 Q1039.73 1018.94 1038.2 1016.13 Q1036.64 1013.3 1036.64 1009.39 Q1036.64 1002.89 1041.8 998.852 Q1046.95 994.778 1055.36 994.778 Q1063.76 994.778 1068.92 998.852 Q1074.07 1002.89 1074.07 1009.39 Q1074.07 1013.3 1072.54 1016.13 Q1070.98 1018.94 1067.8 1020.78 M1055.36 1000.86 Q1048.9 1000.86 1045.23 1003.53 Q1041.54 1006.17 1041.54 1010.82 Q1041.54 1015.47 1045.23 1018.14 Q1048.9 1020.78 1055.36 1020.78 Q1061.82 1020.78 1065.51 1018.14 Q1069.17 1015.47 1069.17 1010.82 Q1069.17 1006.17 1065.51 1003.53 Q1061.82 1000.86 1055.36 1000.86 Z" fill="#000000" fill-rule="nonzero" fill-opacity="1" /><path clip-path="url(#clip290)" d="M1053.19 987.33 L1053.19 983.638 L1073.15 983.638 L1073.15 987.33 L1053.19 987.33 M1045.43 987.33 L1045.43 983.638 L1049.56 983.638 L1049.56 987.33 L1045.43 987.33 Z" fill="#000000" fill-rule="nonzero" fill-opacity="1" /><path clip-path="url(#clip290)" d="M1052.68 955.66 L1052.68 938.505 L1057.9 938.505 L1057.9 955.66 L1052.68 955.66 Z" fill="#000000" fill-rule="nonzero" fill-opacity="1" /><path clip-path="url(#clip290)" d="M1067.8 902.793 L1086.71 902.793 L1086.71 908.682 L1037.5 908.682 L1037.5 902.793 L1042.91 902.793 Q1039.73 900.947 1038.2 898.146 Q1036.64 895.314 1036.64 891.399 Q1036.64 884.906 1041.8 880.863 Q1046.95 876.789 1055.36 876.789 Q1063.76 876.789 1068.92 880.863 Q1074.07 884.906 1074.07 891.399 Q1074.07 895.314 1072.54 898.146 Q1070.98 900.947 1067.8 902.793 M1055.36 882.869 Q1048.9 882.869 1045.23 885.542 Q1041.54 888.184 1041.54 892.831 Q1041.54 897.478 1045.23 900.152 Q1048.9 902.793 1055.36 902.793 Q1061.82 902.793 1065.51 900.152 Q1069.17 897.478 1069.17 892.831 Q1069.17 888.184 1065.51 885.542 Q1061.82 882.869 1055.36 882.869 Z" fill="#000000" fill-rule="nonzero" fill-opacity="1" /><path clip-path="url(#clip290)" d="M1061.88 851.263 L1073.15 851.263 L1073.15 854.955 L1061.21 854.955 Q1058.32 854.955 1056.95 856.101 Q1055.55 857.247 1055.55 859.634 Q1055.55 862.467 1057.27 864.122 Q1058.95 865.777 1061.88 865.777 L1073.15 865.777 L1073.15 869.501 L1053.19 869.501 L1053.19 865.777 L1056.28 865.777 Q1054.47 864.535 1053.61 862.785 Q1052.71 861.002 1052.71 858.552 Q1052.71 856.133 1053.83 854.414 Q1054.91 852.695 1057.01 851.868 Q1054.82 850.499 1053.76 848.589 Q1052.71 846.648 1052.71 844.038 Q1052.71 840.505 1054.91 838.627 Q1057.08 836.717 1061.09 836.717 L1073.15 836.717 L1073.15 840.409 L1061.21 840.409 Q1058.35 840.409 1056.95 841.555 Q1055.55 842.701 1055.55 845.056 Q1055.55 847.921 1057.27 849.608 Q1058.95 851.263 1061.88 851.263 Z" fill="#000000" fill-rule="nonzero" fill-opacity="1" /><path clip-path="url(#clip290)" d="M1045.43 828.728 L1045.43 825.036 L1073.15 825.036 L1073.15 828.728 L1045.43 828.728 Z" fill="#000000" fill-rule="nonzero" fill-opacity="1" /><path clip-path="url(#clip290)" d="M1062.36 798.714 L1063.95 798.714 L1063.95 815.679 Q1067.32 815.424 1069.11 813.387 Q1070.89 811.318 1070.89 807.658 Q1070.89 805.525 1070.41 803.52 Q1069.97 801.547 1069.04 799.573 L1072.13 799.573 Q1072.89 801.547 1073.28 803.647 Q1073.66 805.716 1073.66 807.881 Q1073.66 813.26 1070.89 816.379 Q1068.12 819.53 1063.38 819.53 Q1058.48 819.53 1055.58 816.538 Q1052.71 813.578 1052.71 808.517 Q1052.71 803.998 1055.29 801.356 Q1057.9 798.714 1062.36 798.714 M1061.37 802.406 Q1058.7 802.438 1057.08 804.093 Q1055.48 805.748 1055.48 808.485 Q1055.48 811.573 1057.04 813.419 Q1058.57 815.265 1061.37 815.551 L1061.37 802.406 Z" fill="#000000" fill-rule="nonzero" fill-opacity="1" /><polyline clip-path="url(#clip291)" style="stroke:#c271d2; stroke-linecap:round; stroke-linejoin:round; stroke-width:6; stroke-opacity:1; fill:none" points="1274.59,96.2317 1374.55,96.2317 1466.2,96.2317 1543.39,96.2323 1603.32,96.2372 1648.05,96.2622 1681.5,96.3416 1707.12,96.525 1727.32,96.8679 1743.7,97.4235 1757.32,98.2398 1768.87,99.3586 1778.86,100.817 1787.62,102.646 1795.41,104.877 1802.42,107.538 1808.78,110.658 1814.6,114.265 1819.98,118.393 1824.99,123.075 1829.67,128.354 1834.09,134.276 1838.28,140.901 1842.29,148.299 1846.14,156.564 1849.86,165.816 1853.51,176.223 1857.11,188.028 1860.71,201.594 1864.54,218.229 1869.22,242.094 1877.91,299.445 1882.08,334.531 1885.33,365.944 1888.1,395.87 1890.54,425.135 1892.77,454.17 1894.82,483.244 1896.75,512.548 1898.56,542.236 1900.29,572.435 1901.93,603.016 1903.37,631.355 1903.92,642.639 1904.47,654.158 1905.91,685.322 1907.47,721.325 1909,758.498 1910.45,795.756 1911.83,833.154 1913.15,870.822 1914.43,908.895 1915.66,947.501 1916.86,986.763 1918.03,1026.81 1919.17,1067.77 1920.3,1109.8 1921.41,1153.06 1922.51,1197.73 1923.61,1244.04 1924.7,1292.27 1925.8,1342.69 1926.91,1395.71 1928.04,1451.85 1929.2,1511.86 1930.39,1576.79 1931.65,1648.28 1933,1729.15 "/>
<path clip-path="url(#clip291)" d="M1903.92 652.639 L1895.26 647.639 L1895.26 637.639 L1903.92 632.639 L1912.58 637.639 L1912.58 647.639 Z" fill="#ff0000" fill-rule="evenodd" fill-opacity="1" stroke="none"/>
<path clip-path="url(#clip290)" d="M1278.1 1720.44 L1390.69 1720.44 L1390.69 1616.76 L1278.1 1616.76  Z" fill="#ffffff" fill-rule="evenodd" fill-opacity="1"/>
<polyline clip-path="url(#clip290)" style="stroke:#000000; stroke-linecap:round; stroke-linejoin:round; stroke-width:4; stroke-opacity:1; fill:none" points="1278.1,1720.44 1390.69,1720.44 1390.69,1616.76 1278.1,1616.76 1278.1,1720.44 "/>
<polyline clip-path="url(#clip290)" style="stroke:#c271d2; stroke-linecap:round; stroke-linejoin:round; stroke-width:6; stroke-opacity:1; fill:none" points="1285.85,1668.6 1332.38,1668.6 "/>
<path clip-path="url(#clip290)" d="M1359.4 1669.45 L1344.65 1669.45 Q1345 1676.37 1346.59 1679.31 Q1348.59 1682.92 1352.03 1682.92 Q1355.51 1682.92 1357.43 1679.29 Q1359.12 1676.09 1359.4 1669.45 M1359.33 1665.51 Q1358.68 1658.94 1357.43 1656.62 Q1355.44 1652.97 1352.03 1652.97 Q1348.49 1652.97 1346.62 1656.58 Q1345.14 1659.49 1344.7 1665.51 L1359.33 1665.51 M1352.03 1649.49 Q1357.59 1649.49 1360.76 1654.4 Q1363.93 1659.29 1363.93 1667.94 Q1363.93 1676.58 1360.76 1681.49 Q1357.59 1686.42 1352.03 1686.42 Q1346.46 1686.42 1343.31 1681.49 Q1340.14 1676.58 1340.14 1667.94 Q1340.14 1659.29 1343.31 1654.4 Q1346.46 1649.49 1352.03 1649.49 Z" fill="#000000" fill-rule="nonzero" fill-opacity="1" /><path clip-path="url(#clip290)" d="M1370.14 1683.34 L1374.86 1683.34 L1374.86 1669.19 L1369.7 1670.14 L1369.7 1667.46 L1375.02 1666.55 L1378.19 1666.55 L1378.19 1683.34 L1382.94 1683.34 L1382.94 1685.88 L1370.14 1685.88 L1370.14 1683.34 Z" fill="#000000" fill-rule="nonzero" fill-opacity="1" /></svg>
