<?xml version="1.0" encoding="utf-8"?>
<svg xmlns="http://www.w3.org/2000/svg" xmlns:xlink="http://www.w3.org/1999/xlink" width="600" height="400" viewBox="0 0 2400 1600">
<defs>
  <clipPath id="clip930">
    <rect x="0" y="0" width="2400" height="1600"/>
  </clipPath>
</defs>
<path clip-path="url(#clip930)" d="M0 1600 L2400 1600 L2400 0 L0 0  Z" fill="#ffffff" fill-rule="evenodd" fill-opacity="1"/>
<defs>
  <clipPath id="clip931">
    <rect x="480" y="0" width="1681" height="1600"/>
  </clipPath>
</defs>
<path clip-path="url(#clip930)" d="M219.542 1423.18 L2352.76 1423.18 L2352.76 123.472 L219.542 123.472  Z" fill="#ffffff" fill-rule="evenodd" fill-opacity="1"/>
<defs>
  <clipPath id="clip932">
    <rect x="219" y="123" width="2134" height="1301"/>
  </clipPath>
</defs>
<polyline clip-path="url(#clip932)" style="stroke:#000000; stroke-linecap:round; stroke-linejoin:round; stroke-width:2; stroke-opacity:0.1; fill:none" points="265.643,1423.18 265.643,123.472 "/>
<polyline clip-path="url(#clip932)" style="stroke:#000000; stroke-linecap:round; stroke-linejoin:round; stroke-width:2; stroke-opacity:0.1; fill:none" points="622.464,1423.18 622.464,123.472 "/>
<polyline clip-path="url(#clip932)" style="stroke:#000000; stroke-linecap:round; stroke-linejoin:round; stroke-width:2; stroke-opacity:0.1; fill:none" points="979.284,1423.18 979.284,123.472 "/>
<polyline clip-path="url(#clip932)" style="stroke:#000000; stroke-linecap:round; stroke-linejoin:round; stroke-width:2; stroke-opacity:0.1; fill:none" points="1336.1,1423.18 1336.1,123.472 "/>
<polyline clip-path="url(#clip932)" style="stroke:#000000; stroke-linecap:round; stroke-linejoin:round; stroke-width:2; stroke-opacity:0.1; fill:none" points="1692.92,1423.18 1692.92,123.472 "/>
<polyline clip-path="url(#clip932)" style="stroke:#000000; stroke-linecap:round; stroke-linejoin:round; stroke-width:2; stroke-opacity:0.1; fill:none" points="2049.74,1423.18 2049.74,123.472 "/>
<polyline clip-path="url(#clip932)" style="stroke:#000000; stroke-linecap:round; stroke-linejoin:round; stroke-width:2; stroke-opacity:0.1; fill:none" points="219.542,1373.33 2352.76,1373.33 "/>
<polyline clip-path="url(#clip932)" style="stroke:#000000; stroke-linecap:round; stroke-linejoin:round; stroke-width:2; stroke-opacity:0.1; fill:none" points="219.542,1122.9 2352.76,1122.9 "/>
<polyline clip-path="url(#clip932)" style="stroke:#000000; stroke-linecap:round; stroke-linejoin:round; stroke-width:2; stroke-opacity:0.1; fill:none" points="219.542,872.469 2352.76,872.469 "/>
<polyline clip-path="url(#clip932)" style="stroke:#000000; stroke-linecap:round; stroke-linejoin:round; stroke-width:2; stroke-opacity:0.1; fill:none" points="219.542,622.041 2352.76,622.041 "/>
<polyline clip-path="url(#clip932)" style="stroke:#000000; stroke-linecap:round; stroke-linejoin:round; stroke-width:2; stroke-opacity:0.1; fill:none" points="219.542,371.612 2352.76,371.612 "/>
<polyline clip-path="url(#clip930)" style="stroke:#000000; stroke-linecap:round; stroke-linejoin:round; stroke-width:4; stroke-opacity:1; fill:none" points="219.542,1423.18 2352.76,1423.18 "/>
<polyline clip-path="url(#clip930)" style="stroke:#000000; stroke-linecap:round; stroke-linejoin:round; stroke-width:4; stroke-opacity:1; fill:none" points="265.643,1423.18 265.643,1404.28 "/>
<polyline clip-path="url(#clip930)" style="stroke:#000000; stroke-linecap:round; stroke-linejoin:round; stroke-width:4; stroke-opacity:1; fill:none" points="622.464,1423.18 622.464,1404.28 "/>
<polyline clip-path="url(#clip930)" style="stroke:#000000; stroke-linecap:round; stroke-linejoin:round; stroke-width:4; stroke-opacity:1; fill:none" points="979.284,1423.18 979.284,1404.28 "/>
<polyline clip-path="url(#clip930)" style="stroke:#000000; stroke-linecap:round; stroke-linejoin:round; stroke-width:4; stroke-opacity:1; fill:none" points="1336.1,1423.18 1336.1,1404.28 "/>
<polyline clip-path="url(#clip930)" style="stroke:#000000; stroke-linecap:round; stroke-linejoin:round; stroke-width:4; stroke-opacity:1; fill:none" points="1692.92,1423.18 1692.92,1404.28 "/>
<polyline clip-path="url(#clip930)" style="stroke:#000000; stroke-linecap:round; stroke-linejoin:round; stroke-width:4; stroke-opacity:1; fill:none" points="2049.74,1423.18 2049.74,1404.28 "/>
<path clip-path="url(#clip930)" d="M265.643 1454.1 Q262.032 1454.1 260.204 1457.66 Q258.398 1461.2 258.398 1468.33 Q258.398 1475.44 260.204 1479.01 Q262.032 1482.55 265.643 1482.55 Q269.278 1482.55 271.083 1479.01 Q272.912 1475.44 272.912 1468.33 Q272.912 1461.2 271.083 1457.66 Q269.278 1454.1 265.643 1454.1 M265.643 1450.39 Q271.454 1450.39 274.509 1455 Q277.588 1459.58 277.588 1468.33 Q277.588 1477.06 274.509 1481.67 Q271.454 1486.25 265.643 1486.25 Q259.833 1486.25 256.755 1481.67 Q253.699 1477.06 253.699 1468.33 Q253.699 1459.58 256.755 1455 Q259.833 1450.39 265.643 1450.39 Z" fill="#000000" fill-rule="nonzero" fill-opacity="1" /><path clip-path="url(#clip930)" d="M601.734 1481.64 L618.054 1481.64 L618.054 1485.58 L596.11 1485.58 L596.11 1481.64 Q598.772 1478.89 603.355 1474.26 Q607.961 1469.61 609.142 1468.27 Q611.387 1465.74 612.267 1464.01 Q613.17 1462.25 613.17 1460.56 Q613.17 1457.8 611.225 1456.07 Q609.304 1454.33 606.202 1454.33 Q604.003 1454.33 601.549 1455.09 Q599.119 1455.86 596.341 1457.41 L596.341 1452.69 Q599.165 1451.55 601.619 1450.97 Q604.072 1450.39 606.109 1450.39 Q611.48 1450.39 614.674 1453.08 Q617.869 1455.77 617.869 1460.26 Q617.869 1462.39 617.058 1464.31 Q616.271 1466.2 614.165 1468.8 Q613.586 1469.47 610.484 1472.69 Q607.383 1475.88 601.734 1481.64 Z" fill="#000000" fill-rule="nonzero" fill-opacity="1" /><path clip-path="url(#clip930)" d="M627.915 1451.02 L646.271 1451.02 L646.271 1454.96 L632.197 1454.96 L632.197 1463.43 Q633.216 1463.08 634.234 1462.92 Q635.253 1462.73 636.271 1462.73 Q642.058 1462.73 645.438 1465.9 Q648.818 1469.08 648.818 1474.49 Q648.818 1480.07 645.345 1483.17 Q641.873 1486.25 635.554 1486.25 Q633.378 1486.25 631.109 1485.88 Q628.864 1485.51 626.457 1484.77 L626.457 1480.07 Q628.54 1481.2 630.762 1481.76 Q632.984 1482.32 635.461 1482.32 Q639.466 1482.32 641.804 1480.21 Q644.142 1478.1 644.142 1474.49 Q644.142 1470.88 641.804 1468.77 Q639.466 1466.67 635.461 1466.67 Q633.586 1466.67 631.711 1467.08 Q629.859 1467.5 627.915 1468.38 L627.915 1451.02 Z" fill="#000000" fill-rule="nonzero" fill-opacity="1" /><path clip-path="url(#clip930)" d="M953.983 1451.02 L972.339 1451.02 L972.339 1454.96 L958.265 1454.96 L958.265 1463.43 Q959.284 1463.08 960.302 1462.92 Q961.321 1462.73 962.339 1462.73 Q968.126 1462.73 971.506 1465.9 Q974.886 1469.08 974.886 1474.49 Q974.886 1480.07 971.413 1483.17 Q967.941 1486.25 961.622 1486.25 Q959.446 1486.25 957.177 1485.88 Q954.932 1485.51 952.525 1484.77 L952.525 1480.07 Q954.608 1481.2 956.83 1481.76 Q959.052 1482.32 961.529 1482.32 Q965.534 1482.32 967.872 1480.21 Q970.21 1478.1 970.21 1474.49 Q970.21 1470.88 967.872 1468.77 Q965.534 1466.67 961.529 1466.67 Q959.654 1466.67 957.779 1467.08 Q955.927 1467.5 953.983 1468.38 L953.983 1451.02 Z" fill="#000000" fill-rule="nonzero" fill-opacity="1" /><path clip-path="url(#clip930)" d="M994.098 1454.1 Q990.487 1454.1 988.659 1457.66 Q986.853 1461.2 986.853 1468.33 Q986.853 1475.44 988.659 1479.01 Q990.487 1482.55 994.098 1482.55 Q997.733 1482.55 999.538 1479.01 Q1001.37 1475.44 1001.37 1468.33 Q1001.37 1461.2 999.538 1457.66 Q997.733 1454.1 994.098 1454.1 M994.098 1450.39 Q999.909 1450.39 1002.96 1455 Q1006.04 1459.58 1006.04 1468.33 Q1006.04 1477.06 1002.96 1481.67 Q999.909 1486.25 994.098 1486.25 Q988.288 1486.25 985.21 1481.67 Q982.154 1477.06 982.154 1468.33 Q982.154 1459.58 985.21 1455 Q988.288 1450.39 994.098 1450.39 Z" fill="#000000" fill-rule="nonzero" fill-opacity="1" /><path clip-path="url(#clip930)" d="M1309.96 1451.02 L1332.18 1451.02 L1332.18 1453.01 L1319.63 1485.58 L1314.75 1485.58 L1326.56 1454.96 L1309.96 1454.96 L1309.96 1451.02 Z" fill="#000000" fill-rule="nonzero" fill-opacity="1" /><path clip-path="url(#clip930)" d="M1341.35 1451.02 L1359.7 1451.02 L1359.7 1454.96 L1345.63 1454.96 L1345.63 1463.43 Q1346.65 1463.08 1347.67 1462.92 Q1348.68 1462.73 1349.7 1462.73 Q1355.49 1462.73 1358.87 1465.9 Q1362.25 1469.08 1362.25 1474.49 Q1362.25 1480.07 1358.78 1483.17 Q1355.31 1486.25 1348.99 1486.25 Q1346.81 1486.25 1344.54 1485.88 Q1342.3 1485.51 1339.89 1484.77 L1339.89 1480.07 Q1341.97 1481.2 1344.19 1481.76 Q1346.42 1482.32 1348.89 1482.32 Q1352.9 1482.32 1355.24 1480.21 Q1357.57 1478.1 1357.57 1474.49 Q1357.57 1470.88 1355.24 1468.77 Q1352.9 1466.67 1348.89 1466.67 Q1347.02 1466.67 1345.14 1467.08 Q1343.29 1467.5 1341.35 1468.38 L1341.35 1451.02 Z" fill="#000000" fill-rule="nonzero" fill-opacity="1" /><path clip-path="url(#clip930)" d="M1652.53 1481.64 L1660.17 1481.64 L1660.17 1455.28 L1651.86 1456.95 L1651.86 1452.69 L1660.12 1451.02 L1664.8 1451.02 L1664.8 1481.64 L1672.44 1481.64 L1672.44 1485.58 L1652.53 1485.58 L1652.53 1481.64 Z" fill="#000000" fill-rule="nonzero" fill-opacity="1" /><path clip-path="url(#clip930)" d="M1691.88 1454.1 Q1688.27 1454.1 1686.44 1457.66 Q1684.64 1461.2 1684.64 1468.33 Q1684.64 1475.44 1686.44 1479.01 Q1688.27 1482.55 1691.88 1482.55 Q1695.52 1482.55 1697.32 1479.01 Q1699.15 1475.44 1699.15 1468.33 Q1699.15 1461.2 1697.32 1457.66 Q1695.52 1454.1 1691.88 1454.1 M1691.88 1450.39 Q1697.69 1450.39 1700.75 1455 Q1703.83 1459.58 1703.83 1468.33 Q1703.83 1477.06 1700.75 1481.67 Q1697.69 1486.25 1691.88 1486.25 Q1686.07 1486.25 1682.99 1481.67 Q1679.94 1477.06 1679.94 1468.33 Q1679.94 1459.58 1682.99 1455 Q1686.07 1450.39 1691.88 1450.39 Z" fill="#000000" fill-rule="nonzero" fill-opacity="1" /><path clip-path="url(#clip930)" d="M1722.04 1454.1 Q1718.43 1454.1 1716.6 1457.66 Q1714.8 1461.2 1714.8 1468.33 Q1714.8 1475.44 1716.6 1479.01 Q1718.43 1482.55 1722.04 1482.55 Q1725.68 1482.55 1727.48 1479.01 Q1729.31 1475.44 1729.31 1468.33 Q1729.31 1461.2 1727.48 1457.66 Q1725.68 1454.1 1722.04 1454.1 M1722.04 1450.39 Q1727.85 1450.39 1730.91 1455 Q1733.99 1459.58 1733.99 1468.33 Q1733.99 1477.06 1730.91 1481.67 Q1727.85 1486.25 1722.04 1486.25 Q1716.23 1486.25 1713.16 1481.67 Q1710.1 1477.06 1710.1 1468.33 Q1710.1 1459.58 1713.16 1455 Q1716.23 1450.39 1722.04 1450.39 Z" fill="#000000" fill-rule="nonzero" fill-opacity="1" /><path clip-path="url(#clip930)" d="M2009.85 1481.64 L2017.49 1481.64 L2017.49 1455.28 L2009.18 1456.95 L2009.18 1452.69 L2017.44 1451.02 L2022.12 1451.02 L2022.12 1481.64 L2029.76 1481.64 L2029.76 1485.58 L2009.85 1485.58 L2009.85 1481.64 Z" fill="#000000" fill-rule="nonzero" fill-opacity="1" /><path clip-path="url(#clip930)" d="M2043.23 1481.64 L2059.55 1481.64 L2059.55 1485.58 L2037.6 1485.58 L2037.6 1481.64 Q2040.27 1478.89 2044.85 1474.26 Q2049.45 1469.61 2050.64 1468.27 Q2052.88 1465.74 2053.76 1464.01 Q2054.66 1462.25 2054.66 1460.56 Q2054.66 1457.8 2052.72 1456.07 Q2050.8 1454.33 2047.7 1454.33 Q2045.5 1454.33 2043.04 1455.09 Q2040.61 1455.86 2037.83 1457.41 L2037.83 1452.69 Q2040.66 1451.55 2043.11 1450.97 Q2045.57 1450.39 2047.6 1450.39 Q2052.97 1450.39 2056.17 1453.08 Q2059.36 1455.77 2059.36 1460.26 Q2059.36 1462.39 2058.55 1464.31 Q2057.77 1466.2 2055.66 1468.8 Q2055.08 1469.47 2051.98 1472.69 Q2048.88 1475.88 2043.23 1481.64 Z" fill="#000000" fill-rule="nonzero" fill-opacity="1" /><path clip-path="url(#clip930)" d="M2069.41 1451.02 L2087.76 1451.02 L2087.76 1454.96 L2073.69 1454.96 L2073.69 1463.43 Q2074.71 1463.08 2075.73 1462.92 Q2076.75 1462.73 2077.76 1462.73 Q2083.55 1462.73 2086.93 1465.9 Q2090.31 1469.08 2090.31 1474.49 Q2090.31 1480.07 2086.84 1483.17 Q2083.37 1486.25 2077.05 1486.25 Q2074.87 1486.25 2072.6 1485.88 Q2070.36 1485.51 2067.95 1484.77 L2067.95 1480.07 Q2070.03 1481.2 2072.26 1481.76 Q2074.48 1482.32 2076.95 1482.32 Q2080.96 1482.32 2083.3 1480.21 Q2085.64 1478.1 2085.64 1474.49 Q2085.64 1470.88 2083.3 1468.77 Q2080.96 1466.67 2076.95 1466.67 Q2075.08 1466.67 2073.2 1467.08 Q2071.35 1467.5 2069.41 1468.38 L2069.41 1451.02 Z" fill="#000000" fill-rule="nonzero" fill-opacity="1" /><path clip-path="url(#clip930)" d="M738.173 1545.76 Q740.242 1546.46 742.184 1548.76 Q744.157 1551.05 746.13 1555.06 L752.655 1568.04 L745.748 1568.04 L739.669 1555.85 Q737.314 1551.08 735.086 1549.52 Q732.89 1547.96 729.07 1547.96 L722.068 1547.96 L722.068 1568.04 L715.639 1568.04 L715.639 1520.52 L730.152 1520.52 Q738.3 1520.52 742.311 1523.93 Q746.321 1527.34 746.321 1534.21 Q746.321 1538.7 744.221 1541.66 Q742.152 1544.62 738.173 1545.76 M722.068 1525.81 L722.068 1542.68 L730.152 1542.68 Q734.799 1542.68 737.155 1540.54 Q739.542 1538.38 739.542 1534.21 Q739.542 1530.04 737.155 1527.94 Q734.799 1525.81 730.152 1525.81 L722.068 1525.81 Z" fill="#000000" fill-rule="nonzero" fill-opacity="1" /><path clip-path="url(#clip930)" d="M757.143 1553.98 L757.143 1532.4 L762.999 1532.4 L762.999 1553.75 Q762.999 1558.81 764.973 1561.36 Q766.946 1563.87 770.893 1563.87 Q775.635 1563.87 778.373 1560.85 Q781.142 1557.83 781.142 1552.61 L781.142 1532.4 L786.998 1532.4 L786.998 1568.04 L781.142 1568.04 L781.142 1562.57 Q779.009 1565.82 776.176 1567.41 Q773.375 1568.97 769.652 1568.97 Q763.509 1568.97 760.326 1565.15 Q757.143 1561.33 757.143 1553.98 M771.88 1531.54 L771.88 1531.54 Z" fill="#000000" fill-rule="nonzero" fill-opacity="1" /><path clip-path="url(#clip930)" d="M828.693 1546.53 L828.693 1568.04 L822.837 1568.04 L822.837 1546.72 Q822.837 1541.66 820.864 1539.14 Q818.89 1536.63 814.944 1536.63 Q810.201 1536.63 807.464 1539.65 Q804.727 1542.68 804.727 1547.9 L804.727 1568.04 L798.838 1568.04 L798.838 1532.4 L804.727 1532.4 L804.727 1537.93 Q806.827 1534.72 809.66 1533.13 Q812.525 1531.54 816.249 1531.54 Q822.391 1531.54 825.542 1535.36 Q828.693 1539.14 828.693 1546.53 Z" fill="#000000" fill-rule="nonzero" fill-opacity="1" /><path clip-path="url(#clip930)" d="M875.163 1518.58 Q870.898 1525.9 868.829 1533.06 Q866.76 1540.23 866.76 1547.58 Q866.76 1554.93 868.829 1562.16 Q870.93 1569.35 875.163 1576.64 L870.071 1576.64 Q865.296 1569.16 862.909 1561.93 Q860.554 1554.71 860.554 1547.58 Q860.554 1540.48 862.909 1533.29 Q865.264 1526.09 870.071 1518.58 L875.163 1518.58 Z" fill="#000000" fill-rule="nonzero" fill-opacity="1" /><path clip-path="url(#clip930)" d="M909.251 1533.45 L909.251 1538.98 Q906.769 1537.71 904.095 1537.07 Q901.422 1536.44 898.557 1536.44 Q894.197 1536.44 892 1537.77 Q889.836 1539.11 889.836 1541.79 Q889.836 1543.82 891.396 1545 Q892.955 1546.15 897.666 1547.2 L899.671 1547.64 Q905.909 1548.98 908.519 1551.43 Q911.161 1553.85 911.161 1558.21 Q911.161 1563.17 907.214 1566.07 Q903.3 1568.97 896.425 1568.97 Q893.56 1568.97 890.441 1568.39 Q887.353 1567.85 883.916 1566.74 L883.916 1560.69 Q887.162 1562.38 890.313 1563.24 Q893.465 1564.07 896.552 1564.07 Q900.69 1564.07 902.918 1562.66 Q905.146 1561.23 905.146 1558.65 Q905.146 1556.27 903.522 1554.99 Q901.931 1553.72 896.488 1552.54 L894.451 1552.07 Q889.009 1550.92 886.59 1548.56 Q884.171 1546.18 884.171 1542.04 Q884.171 1537.01 887.735 1534.27 Q891.3 1531.54 897.857 1531.54 Q901.103 1531.54 903.968 1532.01 Q906.833 1532.49 909.251 1533.45 Z" fill="#000000" fill-rule="nonzero" fill-opacity="1" /><path clip-path="url(#clip930)" d="M934.301 1536.5 Q929.59 1536.5 926.853 1540.19 Q924.115 1543.85 924.115 1550.25 Q924.115 1556.65 926.821 1560.34 Q929.558 1564 934.301 1564 Q938.979 1564 941.717 1560.31 Q944.454 1556.62 944.454 1550.25 Q944.454 1543.92 941.717 1540.23 Q938.979 1536.5 934.301 1536.5 M934.301 1531.54 Q941.939 1531.54 946.3 1536.5 Q950.66 1541.47 950.66 1550.25 Q950.66 1559 946.3 1564 Q941.939 1568.97 934.301 1568.97 Q926.63 1568.97 922.269 1564 Q917.941 1559 917.941 1550.25 Q917.941 1541.47 922.269 1536.5 Q926.63 1531.54 934.301 1531.54 Z" fill="#000000" fill-rule="nonzero" fill-opacity="1" /><path clip-path="url(#clip930)" d="M981.025 1537.87 Q980.038 1537.3 978.86 1537.04 Q977.715 1536.76 976.314 1536.76 Q971.349 1536.76 968.675 1540 Q966.034 1543.22 966.034 1549.27 L966.034 1568.04 L960.145 1568.04 L960.145 1532.4 L966.034 1532.4 L966.034 1537.93 Q967.88 1534.69 970.84 1533.13 Q973.8 1531.54 978.033 1531.54 Q978.638 1531.54 979.37 1531.63 Q980.102 1531.7 980.993 1531.85 L981.025 1537.87 Z" fill="#000000" fill-rule="nonzero" fill-opacity="1" /><path clip-path="url(#clip930)" d="M992.961 1522.27 L992.961 1532.4 L1005.02 1532.4 L1005.02 1536.95 L992.961 1536.95 L992.961 1556.3 Q992.961 1560.66 994.138 1561.9 Q995.348 1563.14 999.008 1563.14 L1005.02 1563.14 L1005.02 1568.04 L999.008 1568.04 Q992.228 1568.04 989.65 1565.53 Q987.072 1562.98 987.072 1556.3 L987.072 1536.95 L982.775 1536.95 L982.775 1532.4 L987.072 1532.4 L987.072 1522.27 L992.961 1522.27 Z" fill="#000000" fill-rule="nonzero" fill-opacity="1" /><path clip-path="url(#clip930)" d="M1043.22 1548.76 L1043.22 1551.62 L1016.29 1551.62 Q1016.67 1557.67 1019.92 1560.85 Q1023.2 1564 1029.02 1564 Q1032.4 1564 1035.55 1563.17 Q1038.73 1562.35 1041.85 1560.69 L1041.85 1566.23 Q1038.7 1567.57 1035.39 1568.27 Q1032.08 1568.97 1028.67 1568.97 Q1020.14 1568.97 1015.15 1564 Q1010.18 1559.04 1010.18 1550.57 Q1010.18 1541.82 1014.89 1536.69 Q1019.63 1531.54 1027.65 1531.54 Q1034.85 1531.54 1039.02 1536.18 Q1043.22 1540.8 1043.22 1548.76 M1037.36 1547.04 Q1037.3 1542.23 1034.66 1539.37 Q1032.05 1536.5 1027.72 1536.5 Q1022.82 1536.5 1019.86 1539.27 Q1016.93 1542.04 1016.48 1547.07 L1037.36 1547.04 Z" fill="#000000" fill-rule="nonzero" fill-opacity="1" /><path clip-path="url(#clip930)" d="M1076.29 1537.81 L1076.29 1518.52 L1082.14 1518.52 L1082.14 1568.04 L1076.29 1568.04 L1076.29 1562.7 Q1074.44 1565.88 1071.61 1567.44 Q1068.81 1568.97 1064.86 1568.97 Q1058.4 1568.97 1054.33 1563.81 Q1050.28 1558.65 1050.28 1550.25 Q1050.28 1541.85 1054.33 1536.69 Q1058.4 1531.54 1064.86 1531.54 Q1068.81 1531.54 1071.61 1533.1 Q1074.44 1534.62 1076.29 1537.81 M1056.33 1550.25 Q1056.33 1556.71 1058.97 1560.4 Q1061.65 1564.07 1066.29 1564.07 Q1070.94 1564.07 1073.61 1560.4 Q1076.29 1556.71 1076.29 1550.25 Q1076.29 1543.79 1073.61 1540.13 Q1070.94 1536.44 1066.29 1536.44 Q1061.65 1536.44 1058.97 1540.13 Q1056.33 1543.79 1056.33 1550.25 Z" fill="#000000" fill-rule="nonzero" fill-opacity="1" /><path clip-path="url(#clip930)" d="M1140.52 1550.25 Q1140.52 1543.79 1137.84 1540.13 Q1135.2 1536.44 1130.56 1536.44 Q1125.91 1536.44 1123.23 1540.13 Q1120.59 1543.79 1120.59 1550.25 Q1120.59 1556.71 1123.23 1560.4 Q1125.91 1564.07 1130.56 1564.07 Q1135.2 1564.07 1137.84 1560.4 Q1140.52 1556.71 1140.52 1550.25 M1120.59 1537.81 Q1122.44 1534.62 1125.24 1533.1 Q1128.07 1531.54 1131.99 1531.54 Q1138.48 1531.54 1142.52 1536.69 Q1146.6 1541.85 1146.6 1550.25 Q1146.6 1558.65 1142.52 1563.81 Q1138.48 1568.97 1131.99 1568.97 Q1128.07 1568.97 1125.24 1567.44 Q1122.44 1565.88 1120.59 1562.7 L1120.59 1568.04 L1114.7 1568.04 L1114.7 1518.52 L1120.59 1518.52 L1120.59 1537.81 Z" fill="#000000" fill-rule="nonzero" fill-opacity="1" /><path clip-path="url(#clip930)" d="M1171.14 1571.35 Q1168.65 1577.72 1166.3 1579.66 Q1163.94 1581.6 1160 1581.6 L1155.32 1581.6 L1155.32 1576.7 L1158.76 1576.7 Q1161.17 1576.7 1162.51 1575.56 Q1163.85 1574.41 1165.47 1570.14 L1166.52 1567.47 L1152.1 1532.4 L1158.31 1532.4 L1169.45 1560.28 L1180.59 1532.4 L1186.8 1532.4 L1171.14 1571.35 Z" fill="#000000" fill-rule="nonzero" fill-opacity="1" /><path clip-path="url(#clip930)" d="M1241.25 1533.76 L1241.25 1539.24 Q1238.77 1537.87 1236.26 1537.2 Q1233.78 1536.5 1231.23 1536.5 Q1225.53 1536.5 1222.38 1540.13 Q1219.23 1543.73 1219.23 1550.25 Q1219.23 1556.78 1222.38 1560.4 Q1225.53 1564 1231.23 1564 Q1233.78 1564 1236.26 1563.33 Q1238.77 1562.63 1241.25 1561.26 L1241.25 1566.68 Q1238.8 1567.82 1236.16 1568.39 Q1233.55 1568.97 1230.59 1568.97 Q1222.54 1568.97 1217.8 1563.91 Q1213.05 1558.85 1213.05 1550.25 Q1213.05 1541.53 1217.83 1536.53 Q1222.64 1531.54 1230.97 1531.54 Q1233.68 1531.54 1236.26 1532.11 Q1238.84 1532.65 1241.25 1533.76 Z" fill="#000000" fill-rule="nonzero" fill-opacity="1" /><path clip-path="url(#clip930)" d="M1265.25 1536.5 Q1260.54 1536.5 1257.81 1540.19 Q1255.07 1543.85 1255.07 1550.25 Q1255.07 1556.65 1257.77 1560.34 Q1260.51 1564 1265.25 1564 Q1269.93 1564 1272.67 1560.31 Q1275.41 1556.62 1275.41 1550.25 Q1275.41 1543.92 1272.67 1540.23 Q1269.93 1536.5 1265.25 1536.5 M1265.25 1531.54 Q1272.89 1531.54 1277.25 1536.5 Q1281.61 1541.47 1281.61 1550.25 Q1281.61 1559 1277.25 1564 Q1272.89 1568.97 1265.25 1568.97 Q1257.58 1568.97 1253.22 1564 Q1248.89 1559 1248.89 1550.25 Q1248.89 1541.47 1253.22 1536.5 Q1257.58 1531.54 1265.25 1531.54 Z" fill="#000000" fill-rule="nonzero" fill-opacity="1" /><path clip-path="url(#clip930)" d="M1314.05 1533.45 L1314.05 1538.98 Q1311.56 1537.71 1308.89 1537.07 Q1306.22 1536.44 1303.35 1536.44 Q1298.99 1536.44 1296.8 1537.77 Q1294.63 1539.11 1294.63 1541.79 Q1294.63 1543.82 1296.19 1545 Q1297.75 1546.15 1302.46 1547.2 L1304.47 1547.64 Q1310.7 1548.98 1313.31 1551.43 Q1315.96 1553.85 1315.96 1558.21 Q1315.96 1563.17 1312.01 1566.07 Q1308.09 1568.97 1301.22 1568.97 Q1298.36 1568.97 1295.24 1568.39 Q1292.15 1567.85 1288.71 1566.74 L1288.71 1560.69 Q1291.96 1562.38 1295.11 1563.24 Q1298.26 1564.07 1301.35 1564.07 Q1305.48 1564.07 1307.71 1562.66 Q1309.94 1561.23 1309.94 1558.65 Q1309.94 1556.27 1308.32 1554.99 Q1306.73 1553.72 1301.28 1552.54 L1299.25 1552.07 Q1293.8 1550.92 1291.38 1548.56 Q1288.97 1546.18 1288.97 1542.04 Q1288.97 1537.01 1292.53 1534.27 Q1296.1 1531.54 1302.65 1531.54 Q1305.9 1531.54 1308.76 1532.01 Q1311.63 1532.49 1314.05 1533.45 Z" fill="#000000" fill-rule="nonzero" fill-opacity="1" /><path clip-path="url(#clip930)" d="M1331.08 1522.27 L1331.08 1532.4 L1343.14 1532.4 L1343.14 1536.95 L1331.08 1536.95 L1331.08 1556.3 Q1331.08 1560.66 1332.25 1561.9 Q1333.46 1563.14 1337.12 1563.14 L1343.14 1563.14 L1343.14 1568.04 L1337.12 1568.04 Q1330.34 1568.04 1327.76 1565.53 Q1325.19 1562.98 1325.19 1556.3 L1325.19 1536.95 L1320.89 1536.95 L1320.89 1532.4 L1325.19 1532.4 L1325.19 1522.27 L1331.08 1522.27 Z" fill="#000000" fill-rule="nonzero" fill-opacity="1" /><path clip-path="url(#clip930)" d="M1389.61 1518.52 L1389.61 1523.39 L1384.01 1523.39 Q1380.85 1523.39 1379.61 1524.66 Q1378.4 1525.93 1378.4 1529.24 L1378.4 1532.4 L1388.05 1532.4 L1388.05 1536.95 L1378.4 1536.95 L1378.4 1568.04 L1372.52 1568.04 L1372.52 1536.95 L1366.91 1536.95 L1366.91 1532.4 L1372.52 1532.4 L1372.52 1529.91 Q1372.52 1523.96 1375.28 1521.26 Q1378.05 1518.52 1384.07 1518.52 L1389.61 1518.52 Z" fill="#000000" fill-rule="nonzero" fill-opacity="1" /><path clip-path="url(#clip930)" d="M1393.9 1553.98 L1393.9 1532.4 L1399.76 1532.4 L1399.76 1553.75 Q1399.76 1558.81 1401.73 1561.36 Q1403.71 1563.87 1407.65 1563.87 Q1412.4 1563.87 1415.13 1560.85 Q1417.9 1557.83 1417.9 1552.61 L1417.9 1532.4 L1423.76 1532.4 L1423.76 1568.04 L1417.9 1568.04 L1417.9 1562.57 Q1415.77 1565.82 1412.94 1567.41 Q1410.14 1568.97 1406.41 1568.97 Q1400.27 1568.97 1397.09 1565.15 Q1393.9 1561.33 1393.9 1553.98 M1408.64 1531.54 L1408.64 1531.54 Z" fill="#000000" fill-rule="nonzero" fill-opacity="1" /><path clip-path="url(#clip930)" d="M1465.46 1546.53 L1465.46 1568.04 L1459.6 1568.04 L1459.6 1546.72 Q1459.6 1541.66 1457.63 1539.14 Q1455.65 1536.63 1451.71 1536.63 Q1446.96 1536.63 1444.23 1539.65 Q1441.49 1542.68 1441.49 1547.9 L1441.49 1568.04 L1435.6 1568.04 L1435.6 1532.4 L1441.49 1532.4 L1441.49 1537.93 Q1443.59 1534.72 1446.42 1533.13 Q1449.29 1531.54 1453.01 1531.54 Q1459.15 1531.54 1462.3 1535.36 Q1465.46 1539.14 1465.46 1546.53 Z" fill="#000000" fill-rule="nonzero" fill-opacity="1" /><path clip-path="url(#clip930)" d="M1502.79 1533.76 L1502.79 1539.24 Q1500.31 1537.87 1497.79 1537.2 Q1495.31 1536.5 1492.76 1536.5 Q1487.07 1536.5 1483.92 1540.13 Q1480.76 1543.73 1480.76 1550.25 Q1480.76 1556.78 1483.92 1560.4 Q1487.07 1564 1492.76 1564 Q1495.31 1564 1497.79 1563.33 Q1500.31 1562.63 1502.79 1561.26 L1502.79 1566.68 Q1500.34 1567.82 1497.7 1568.39 Q1495.09 1568.97 1492.13 1568.97 Q1484.07 1568.97 1479.33 1563.91 Q1474.59 1558.85 1474.59 1550.25 Q1474.59 1541.53 1479.36 1536.53 Q1484.17 1531.54 1492.51 1531.54 Q1495.21 1531.54 1497.79 1532.11 Q1500.37 1532.65 1502.79 1533.76 Z" fill="#000000" fill-rule="nonzero" fill-opacity="1" /><path clip-path="url(#clip930)" d="M1518.77 1522.27 L1518.77 1532.4 L1530.83 1532.4 L1530.83 1536.95 L1518.77 1536.95 L1518.77 1556.3 Q1518.77 1560.66 1519.95 1561.9 Q1521.16 1563.14 1524.82 1563.14 L1530.83 1563.14 L1530.83 1568.04 L1524.82 1568.04 Q1518.04 1568.04 1515.46 1565.53 Q1512.88 1562.98 1512.88 1556.3 L1512.88 1536.95 L1508.58 1536.95 L1508.58 1532.4 L1512.88 1532.4 L1512.88 1522.27 L1518.77 1522.27 Z" fill="#000000" fill-rule="nonzero" fill-opacity="1" /><path clip-path="url(#clip930)" d="M1538.53 1532.4 L1544.39 1532.4 L1544.39 1568.04 L1538.53 1568.04 L1538.53 1532.4 M1538.53 1518.52 L1544.39 1518.52 L1544.39 1525.93 L1538.53 1525.93 L1538.53 1518.52 Z" fill="#000000" fill-rule="nonzero" fill-opacity="1" /><path clip-path="url(#clip930)" d="M1570.46 1536.5 Q1565.75 1536.5 1563.01 1540.19 Q1560.27 1543.85 1560.27 1550.25 Q1560.27 1556.65 1562.98 1560.34 Q1565.71 1564 1570.46 1564 Q1575.14 1564 1577.87 1560.31 Q1580.61 1556.62 1580.61 1550.25 Q1580.61 1543.92 1577.87 1540.23 Q1575.14 1536.5 1570.46 1536.5 M1570.46 1531.54 Q1578.1 1531.54 1582.46 1536.5 Q1586.82 1541.47 1586.82 1550.25 Q1586.82 1559 1582.46 1564 Q1578.1 1568.97 1570.46 1568.97 Q1562.79 1568.97 1558.43 1564 Q1554.1 1559 1554.1 1550.25 Q1554.1 1541.47 1558.43 1536.5 Q1562.79 1531.54 1570.46 1531.54 Z" fill="#000000" fill-rule="nonzero" fill-opacity="1" /><path clip-path="url(#clip930)" d="M1626.16 1546.53 L1626.16 1568.04 L1620.3 1568.04 L1620.3 1546.72 Q1620.3 1541.66 1618.33 1539.14 Q1616.35 1536.63 1612.41 1536.63 Q1607.66 1536.63 1604.93 1539.65 Q1602.19 1542.68 1602.19 1547.9 L1602.19 1568.04 L1596.3 1568.04 L1596.3 1532.4 L1602.19 1532.4 L1602.19 1537.93 Q1604.29 1534.72 1607.12 1533.13 Q1609.99 1531.54 1613.71 1531.54 Q1619.86 1531.54 1623.01 1535.36 Q1626.16 1539.14 1626.16 1546.53 Z" fill="#000000" fill-rule="nonzero" fill-opacity="1" /><path clip-path="url(#clip930)" d="M1679.22 1537.87 Q1678.23 1537.3 1677.05 1537.04 Q1675.91 1536.76 1674.5 1536.76 Q1669.54 1536.76 1666.87 1540 Q1664.22 1543.22 1664.22 1549.27 L1664.22 1568.04 L1658.34 1568.04 L1658.34 1532.4 L1664.22 1532.4 L1664.22 1537.93 Q1666.07 1534.69 1669.03 1533.13 Q1671.99 1531.54 1676.22 1531.54 Q1676.83 1531.54 1677.56 1531.63 Q1678.29 1531.7 1679.18 1531.85 L1679.22 1537.87 Z" fill="#000000" fill-rule="nonzero" fill-opacity="1" /><path clip-path="url(#clip930)" d="M1714.42 1548.76 L1714.42 1551.62 L1687.49 1551.62 Q1687.87 1557.67 1691.12 1560.85 Q1694.4 1564 1700.22 1564 Q1703.6 1564 1706.75 1563.17 Q1709.93 1562.35 1713.05 1560.69 L1713.05 1566.23 Q1709.9 1567.57 1706.59 1568.27 Q1703.28 1568.97 1699.87 1568.97 Q1691.34 1568.97 1686.35 1564 Q1681.38 1559.04 1681.38 1550.57 Q1681.38 1541.82 1686.09 1536.69 Q1690.83 1531.54 1698.85 1531.54 Q1706.05 1531.54 1710.22 1536.18 Q1714.42 1540.8 1714.42 1548.76 M1708.56 1547.04 Q1708.5 1542.23 1705.86 1539.37 Q1703.25 1536.5 1698.92 1536.5 Q1694.02 1536.5 1691.06 1539.27 Q1688.13 1542.04 1687.68 1547.07 L1708.56 1547.04 Z" fill="#000000" fill-rule="nonzero" fill-opacity="1" /><path clip-path="url(#clip930)" d="M1746.76 1533.45 L1746.76 1538.98 Q1744.27 1537.71 1741.6 1537.07 Q1738.93 1536.44 1736.06 1536.44 Q1731.7 1536.44 1729.5 1537.77 Q1727.34 1539.11 1727.34 1541.79 Q1727.34 1543.82 1728.9 1545 Q1730.46 1546.15 1735.17 1547.2 L1737.18 1547.64 Q1743.41 1548.98 1746.02 1551.43 Q1748.67 1553.85 1748.67 1558.21 Q1748.67 1563.17 1744.72 1566.07 Q1740.8 1568.97 1733.93 1568.97 Q1731.06 1568.97 1727.95 1568.39 Q1724.86 1567.85 1721.42 1566.74 L1721.42 1560.69 Q1724.67 1562.38 1727.82 1563.24 Q1730.97 1564.07 1734.06 1564.07 Q1738.19 1564.07 1740.42 1562.66 Q1742.65 1561.23 1742.65 1558.65 Q1742.65 1556.27 1741.03 1554.99 Q1739.44 1553.72 1733.99 1552.54 L1731.96 1552.07 Q1726.51 1550.92 1724.09 1548.56 Q1721.67 1546.18 1721.67 1542.04 Q1721.67 1537.01 1725.24 1534.27 Q1728.8 1531.54 1735.36 1531.54 Q1738.61 1531.54 1741.47 1532.01 Q1744.34 1532.49 1746.76 1533.45 Z" fill="#000000" fill-rule="nonzero" fill-opacity="1" /><path clip-path="url(#clip930)" d="M1757.39 1553.98 L1757.39 1532.4 L1763.24 1532.4 L1763.24 1553.75 Q1763.24 1558.81 1765.22 1561.36 Q1767.19 1563.87 1771.14 1563.87 Q1775.88 1563.87 1778.62 1560.85 Q1781.39 1557.83 1781.39 1552.61 L1781.39 1532.4 L1787.24 1532.4 L1787.24 1568.04 L1781.39 1568.04 L1781.39 1562.57 Q1779.25 1565.82 1776.42 1567.41 Q1773.62 1568.97 1769.9 1568.97 Q1763.75 1568.97 1760.57 1565.15 Q1757.39 1561.33 1757.39 1553.98 M1772.12 1531.54 L1772.12 1531.54 Z" fill="#000000" fill-rule="nonzero" fill-opacity="1" /><path clip-path="url(#clip930)" d="M1799.3 1518.52 L1805.16 1518.52 L1805.16 1568.04 L1799.3 1568.04 L1799.3 1518.52 Z" fill="#000000" fill-rule="nonzero" fill-opacity="1" /><path clip-path="url(#clip930)" d="M1823.21 1522.27 L1823.21 1532.4 L1835.27 1532.4 L1835.27 1536.95 L1823.21 1536.95 L1823.21 1556.3 Q1823.21 1560.66 1824.39 1561.9 Q1825.59 1563.14 1829.26 1563.14 L1835.27 1563.14 L1835.27 1568.04 L1829.26 1568.04 Q1822.48 1568.04 1819.9 1565.53 Q1817.32 1562.98 1817.32 1556.3 L1817.32 1536.95 L1813.02 1536.95 L1813.02 1532.4 L1817.32 1532.4 L1817.32 1522.27 L1823.21 1522.27 Z" fill="#000000" fill-rule="nonzero" fill-opacity="1" /><path clip-path="url(#clip930)" d="M1842.05 1518.58 L1847.14 1518.58 Q1851.92 1526.09 1854.27 1533.29 Q1856.66 1540.48 1856.66 1547.58 Q1856.66 1554.71 1854.27 1561.93 Q1851.92 1569.16 1847.14 1576.64 L1842.05 1576.64 Q1846.28 1569.35 1848.35 1562.16 Q1850.45 1554.93 1850.45 1547.58 Q1850.45 1540.23 1848.35 1533.06 Q1846.28 1525.9 1842.05 1518.58 Z" fill="#000000" fill-rule="nonzero" fill-opacity="1" /><polyline clip-path="url(#clip930)" style="stroke:#000000; stroke-linecap:round; stroke-linejoin:round; stroke-width:4; stroke-opacity:1; fill:none" points="219.542,1423.18 219.542,123.472 "/>
<polyline clip-path="url(#clip930)" style="stroke:#000000; stroke-linecap:round; stroke-linejoin:round; stroke-width:4; stroke-opacity:1; fill:none" points="219.542,1373.33 238.44,1373.33 "/>
<polyline clip-path="url(#clip930)" style="stroke:#000000; stroke-linecap:round; stroke-linejoin:round; stroke-width:4; stroke-opacity:1; fill:none" points="219.542,1122.9 238.44,1122.9 "/>
<polyline clip-path="url(#clip930)" style="stroke:#000000; stroke-linecap:round; stroke-linejoin:round; stroke-width:4; stroke-opacity:1; fill:none" points="219.542,872.469 238.44,872.469 "/>
<polyline clip-path="url(#clip930)" style="stroke:#000000; stroke-linecap:round; stroke-linejoin:round; stroke-width:4; stroke-opacity:1; fill:none" points="219.542,622.041 238.44,622.041 "/>
<polyline clip-path="url(#clip930)" style="stroke:#000000; stroke-linecap:round; stroke-linejoin:round; stroke-width:4; stroke-opacity:1; fill:none" points="219.542,371.612 238.44,371.612 "/>
<path clip-path="url(#clip930)" d="M126.205 1359.12 Q122.593 1359.12 120.765 1362.69 Q118.959 1366.23 118.959 1373.36 Q118.959 1380.47 120.765 1384.03 Q122.593 1387.57 126.205 1387.57 Q129.839 1387.57 131.644 1384.03 Q133.473 1380.47 133.473 1373.36 Q133.473 1366.23 131.644 1362.69 Q129.839 1359.12 126.205 1359.12 M126.205 1355.42 Q132.015 1355.42 135.07 1360.03 Q138.149 1364.61 138.149 1373.36 Q138.149 1382.09 135.07 1386.69 Q132.015 1391.28 126.205 1391.28 Q120.394 1391.28 117.316 1386.69 Q114.26 1382.09 114.26 1373.36 Q114.26 1364.61 117.316 1360.03 Q120.394 1355.42 126.205 1355.42 Z" fill="#000000" fill-rule="nonzero" fill-opacity="1" /><path clip-path="url(#clip930)" d="M146.366 1384.73 L151.251 1384.73 L151.251 1390.61 L146.366 1390.61 L146.366 1384.73 Z" fill="#000000" fill-rule="nonzero" fill-opacity="1" /><path clip-path="url(#clip930)" d="M172.014 1371.46 Q168.866 1371.46 167.015 1373.61 Q165.186 1375.77 165.186 1379.52 Q165.186 1383.24 167.015 1385.42 Q168.866 1387.57 172.014 1387.57 Q175.163 1387.57 176.991 1385.42 Q178.843 1383.24 178.843 1379.52 Q178.843 1375.77 176.991 1373.61 Q175.163 1371.46 172.014 1371.46 M181.297 1356.81 L181.297 1361.07 Q179.538 1360.24 177.732 1359.8 Q175.95 1359.36 174.19 1359.36 Q169.561 1359.36 167.107 1362.48 Q164.677 1365.61 164.329 1371.93 Q165.695 1369.91 167.755 1368.85 Q169.815 1367.76 172.292 1367.76 Q177.501 1367.76 180.51 1370.93 Q183.542 1374.08 183.542 1379.52 Q183.542 1384.84 180.394 1388.06 Q177.246 1391.28 172.014 1391.28 Q166.019 1391.28 162.848 1386.69 Q159.677 1382.09 159.677 1373.36 Q159.677 1365.17 163.565 1360.3 Q167.454 1355.42 174.005 1355.42 Q175.764 1355.42 177.547 1355.77 Q179.352 1356.12 181.297 1356.81 Z" fill="#000000" fill-rule="nonzero" fill-opacity="1" /><path clip-path="url(#clip930)" d="M126.552 1108.7 Q122.941 1108.7 121.112 1112.26 Q119.306 1115.8 119.306 1122.93 Q119.306 1130.04 121.112 1133.6 Q122.941 1137.14 126.552 1137.14 Q130.186 1137.14 131.992 1133.6 Q133.82 1130.04 133.82 1122.93 Q133.82 1115.8 131.992 1112.26 Q130.186 1108.7 126.552 1108.7 M126.552 1104.99 Q132.362 1104.99 135.417 1109.6 Q138.496 1114.18 138.496 1122.93 Q138.496 1131.66 135.417 1136.27 Q132.362 1140.85 126.552 1140.85 Q120.742 1140.85 117.663 1136.27 Q114.607 1131.66 114.607 1122.93 Q114.607 1114.18 117.663 1109.6 Q120.742 1104.99 126.552 1104.99 Z" fill="#000000" fill-rule="nonzero" fill-opacity="1" /><path clip-path="url(#clip930)" d="M146.714 1134.3 L151.598 1134.3 L151.598 1140.18 L146.714 1140.18 L146.714 1134.3 Z" fill="#000000" fill-rule="nonzero" fill-opacity="1" /><path clip-path="url(#clip930)" d="M161.922 1139.46 L161.922 1135.2 Q163.681 1136.03 165.487 1136.47 Q167.292 1136.91 169.028 1136.91 Q173.658 1136.91 176.089 1133.81 Q178.542 1130.69 178.889 1124.34 Q177.547 1126.33 175.487 1127.4 Q173.427 1128.46 170.927 1128.46 Q165.741 1128.46 162.709 1125.34 Q159.7 1122.19 159.7 1116.75 Q159.7 1111.43 162.848 1108.21 Q165.996 1104.99 171.227 1104.99 Q177.223 1104.99 180.371 1109.6 Q183.542 1114.18 183.542 1122.93 Q183.542 1131.1 179.653 1135.99 Q175.788 1140.85 169.237 1140.85 Q167.477 1140.85 165.672 1140.5 Q163.866 1140.15 161.922 1139.46 M171.227 1124.81 Q174.376 1124.81 176.204 1122.65 Q178.056 1120.5 178.056 1116.75 Q178.056 1113.02 176.204 1110.87 Q174.376 1108.7 171.227 1108.7 Q168.079 1108.7 166.227 1110.87 Q164.399 1113.02 164.399 1116.75 Q164.399 1120.5 166.227 1122.65 Q168.079 1124.81 171.227 1124.81 Z" fill="#000000" fill-rule="nonzero" fill-opacity="1" /><path clip-path="url(#clip930)" d="M118.774 885.814 L126.413 885.814 L126.413 859.448 L118.103 861.115 L118.103 856.856 L126.367 855.189 L131.042 855.189 L131.042 885.814 L138.681 885.814 L138.681 889.749 L118.774 889.749 L118.774 885.814 Z" fill="#000000" fill-rule="nonzero" fill-opacity="1" /><path clip-path="url(#clip930)" d="M148.126 883.869 L153.01 883.869 L153.01 889.749 L148.126 889.749 L148.126 883.869 Z" fill="#000000" fill-rule="nonzero" fill-opacity="1" /><path clip-path="url(#clip930)" d="M167.223 885.814 L183.542 885.814 L183.542 889.749 L161.598 889.749 L161.598 885.814 Q164.26 883.059 168.843 878.43 Q173.45 873.777 174.63 872.434 Q176.876 869.911 177.755 868.175 Q178.658 866.416 178.658 864.726 Q178.658 861.971 176.714 860.235 Q174.792 858.499 171.69 858.499 Q169.491 858.499 167.038 859.263 Q164.607 860.027 161.829 861.578 L161.829 856.856 Q164.653 855.721 167.107 855.143 Q169.561 854.564 171.598 854.564 Q176.968 854.564 180.163 857.249 Q183.357 859.934 183.357 864.425 Q183.357 866.555 182.547 868.476 Q181.76 870.374 179.653 872.967 Q179.075 873.638 175.973 876.856 Q172.871 880.05 167.223 885.814 Z" fill="#000000" fill-rule="nonzero" fill-opacity="1" /><path clip-path="url(#clip930)" d="M118.172 635.386 L125.811 635.386 L125.811 609.02 L117.501 610.687 L117.501 606.427 L125.765 604.761 L130.441 604.761 L130.441 635.386 L138.079 635.386 L138.079 639.321 L118.172 639.321 L118.172 635.386 Z" fill="#000000" fill-rule="nonzero" fill-opacity="1" /><path clip-path="url(#clip930)" d="M147.524 633.441 L152.408 633.441 L152.408 639.321 L147.524 639.321 L147.524 633.441 Z" fill="#000000" fill-rule="nonzero" fill-opacity="1" /><path clip-path="url(#clip930)" d="M162.64 604.761 L180.996 604.761 L180.996 608.696 L166.922 608.696 L166.922 617.168 Q167.94 616.821 168.959 616.659 Q169.977 616.474 170.996 616.474 Q176.783 616.474 180.163 619.645 Q183.542 622.816 183.542 628.233 Q183.542 633.812 180.07 636.913 Q176.598 639.992 170.278 639.992 Q168.102 639.992 165.834 639.622 Q163.589 639.251 161.181 638.511 L161.181 633.812 Q163.265 634.946 165.487 635.501 Q167.709 636.057 170.186 636.057 Q174.19 636.057 176.528 633.95 Q178.866 631.844 178.866 628.233 Q178.866 624.622 176.528 622.515 Q174.19 620.409 170.186 620.409 Q168.311 620.409 166.436 620.825 Q164.584 621.242 162.64 622.122 L162.64 604.761 Z" fill="#000000" fill-rule="nonzero" fill-opacity="1" /><path clip-path="url(#clip930)" d="M117.269 384.957 L124.908 384.957 L124.908 358.592 L116.598 360.258 L116.598 355.999 L124.862 354.332 L129.538 354.332 L129.538 384.957 L137.177 384.957 L137.177 388.892 L117.269 388.892 L117.269 384.957 Z" fill="#000000" fill-rule="nonzero" fill-opacity="1" /><path clip-path="url(#clip930)" d="M146.621 383.013 L151.505 383.013 L151.505 388.892 L146.621 388.892 L146.621 383.013 Z" fill="#000000" fill-rule="nonzero" fill-opacity="1" /><path clip-path="url(#clip930)" d="M171.69 372.481 Q168.357 372.481 166.436 374.263 Q164.538 376.045 164.538 379.17 Q164.538 382.295 166.436 384.078 Q168.357 385.86 171.69 385.86 Q175.024 385.86 176.945 384.078 Q178.866 382.272 178.866 379.17 Q178.866 376.045 176.945 374.263 Q175.047 372.481 171.69 372.481 M167.015 370.49 Q164.005 369.749 162.315 367.689 Q160.649 365.629 160.649 362.666 Q160.649 358.522 163.589 356.115 Q166.552 353.707 171.69 353.707 Q176.852 353.707 179.792 356.115 Q182.732 358.522 182.732 362.666 Q182.732 365.629 181.042 367.689 Q179.376 369.749 176.389 370.49 Q179.769 371.277 181.644 373.568 Q183.542 375.86 183.542 379.17 Q183.542 384.193 180.464 386.879 Q177.408 389.564 171.69 389.564 Q165.973 389.564 162.894 386.879 Q159.839 384.193 159.839 379.17 Q159.839 375.86 161.737 373.568 Q163.635 371.277 167.015 370.49 M165.302 363.106 Q165.302 365.791 166.968 367.295 Q168.658 368.8 171.69 368.8 Q174.7 368.8 176.389 367.295 Q178.102 365.791 178.102 363.106 Q178.102 360.42 176.389 358.916 Q174.7 357.411 171.69 357.411 Q168.658 357.411 166.968 358.916 Q165.302 360.42 165.302 363.106 Z" fill="#000000" fill-rule="nonzero" fill-opacity="1" /><path clip-path="url(#clip930)" d="M41.3104 1133.75 L58.7206 1133.75 L58.7206 1123.44 Q58.7206 1118.25 56.5881 1115.77 Q54.4238 1113.25 49.9996 1113.25 Q45.5436 1113.25 43.4429 1115.77 Q41.3104 1118.25 41.3104 1123.44 L41.3104 1133.75 M21.7677 1133.75 L36.0905 1133.75 L36.0905 1124.24 Q36.0905 1119.52 34.34 1117.23 Q32.5576 1114.91 28.9291 1114.91 Q25.3325 1114.91 23.5501 1117.23 Q21.7677 1119.52 21.7677 1124.24 L21.7677 1133.75 M16.4842 1140.18 L16.4842 1123.76 Q16.4842 1116.41 19.5397 1112.43 Q22.5952 1108.45 28.2289 1108.45 Q32.5894 1108.45 35.1675 1110.49 Q37.7456 1112.52 38.3822 1116.47 Q39.4007 1111.73 42.6472 1109.12 Q45.8619 1106.48 50.6998 1106.48 Q57.0655 1106.48 60.5348 1110.8 Q64.0042 1115.13 64.0042 1123.12 L64.0042 1140.18 L16.4842 1140.18 Z" fill="#000000" fill-rule="nonzero" fill-opacity="1" /><path clip-path="url(#clip930)" d="M28.3562 1095.72 L28.3562 1089.86 L64.0042 1089.86 L64.0042 1095.72 L28.3562 1095.72 M14.479 1095.72 L14.479 1089.86 L21.895 1089.86 L21.895 1095.72 L14.479 1095.72 Z" fill="#000000" fill-rule="nonzero" fill-opacity="1" /><path clip-path="url(#clip930)" d="M16.4842 1077.35 L16.4842 1070.92 L58.5933 1070.92 L58.5933 1047.78 L64.0042 1047.78 L64.0042 1077.35 L16.4842 1077.35 Z" fill="#000000" fill-rule="nonzero" fill-opacity="1" /><path clip-path="url(#clip930)" d="M32.4621 1028.62 Q32.4621 1033.33 36.1542 1036.07 Q39.8145 1038.81 46.212 1038.81 Q52.6095 1038.81 56.3017 1036.1 Q59.9619 1033.37 59.9619 1028.62 Q59.9619 1023.94 56.2698 1021.21 Q52.5777 1018.47 46.212 1018.47 Q39.8781 1018.47 36.186 1021.21 Q32.4621 1023.94 32.4621 1028.62 M27.4968 1028.62 Q27.4968 1020.98 32.4621 1016.62 Q37.4273 1012.26 46.212 1012.26 Q54.9649 1012.26 59.9619 1016.62 Q64.9272 1020.98 64.9272 1028.62 Q64.9272 1036.29 59.9619 1040.65 Q54.9649 1044.98 46.212 1044.98 Q37.4273 1044.98 32.4621 1040.65 Q27.4968 1036.29 27.4968 1028.62 Z" fill="#000000" fill-rule="nonzero" fill-opacity="1" /><path clip-path="url(#clip930)" d="M45.7664 979.097 Q39.4007 979.097 35.8996 981.739 Q32.3984 984.349 32.3984 989.092 Q32.3984 993.802 35.8996 996.444 Q39.4007 999.054 45.7664 999.054 Q52.1003 999.054 55.6014 996.444 Q59.1026 993.802 59.1026 989.092 Q59.1026 984.349 55.6014 981.739 Q52.1003 979.097 45.7664 979.097 M59.58 973.241 Q68.683 973.241 73.1071 977.283 Q77.5631 981.325 77.5631 989.665 Q77.5631 992.752 77.0857 995.489 Q76.6401 998.226 75.6852 1000.8 L69.9879 1000.8 Q71.3884 998.226 72.0568 995.712 Q72.7252 993.197 72.7252 990.588 Q72.7252 984.827 69.7015 981.962 Q66.7096 979.097 60.6303 979.097 L57.7339 979.097 Q60.885 980.912 62.4446 983.744 Q64.0042 986.577 64.0042 990.524 Q64.0042 997.081 59.0071 1001.09 Q54.01 1005.1 45.7664 1005.1 Q37.491 1005.1 32.4939 1001.09 Q27.4968 997.081 27.4968 990.524 Q27.4968 986.577 29.0564 983.744 Q30.616 980.912 33.7671 979.097 L28.3562 979.097 L28.3562 973.241 L59.58 973.241 Z" fill="#000000" fill-rule="nonzero" fill-opacity="1" /><path clip-path="url(#clip930)" d="M14.5426 947.11 Q21.8632 951.375 29.0246 953.444 Q36.186 955.513 43.5384 955.513 Q50.8908 955.513 58.1159 953.444 Q65.3091 951.343 72.5979 947.11 L72.5979 952.202 Q65.1182 956.977 57.8931 959.364 Q50.668 961.719 43.5384 961.719 Q36.4406 961.719 29.2474 959.364 Q22.0542 957.008 14.5426 952.202 L14.5426 947.11 Z" fill="#000000" fill-rule="nonzero" fill-opacity="1" /><path clip-path="url(#clip930)" d="M16.4842 935.492 L16.4842 908.183 L21.895 908.183 L21.895 929.063 L35.8996 929.063 L35.8996 910.221 L41.3104 910.221 L41.3104 929.063 L64.0042 929.063 L64.0042 935.492 L16.4842 935.492 Z" fill="#000000" fill-rule="nonzero" fill-opacity="1" /><path clip-path="url(#clip930)" d="M28.3562 902.995 L28.3562 897.139 L64.0042 897.139 L64.0042 902.995 L28.3562 902.995 M14.479 902.995 L14.479 897.139 L21.895 897.139 L21.895 902.995 L14.479 902.995 Z" fill="#000000" fill-rule="nonzero" fill-opacity="1" /><path clip-path="url(#clip930)" d="M42.4881 855.253 L64.0042 855.253 L64.0042 861.109 L42.679 861.109 Q37.6183 861.109 35.1038 863.082 Q32.5894 865.056 32.5894 869.003 Q32.5894 873.745 35.6131 876.482 Q38.6368 879.22 43.8567 879.22 L64.0042 879.22 L64.0042 885.108 L28.3562 885.108 L28.3562 879.22 L33.8944 879.22 Q30.6797 877.119 29.0883 874.286 Q27.4968 871.422 27.4968 867.698 Q27.4968 861.555 31.3163 858.404 Q35.1038 855.253 42.4881 855.253 Z" fill="#000000" fill-rule="nonzero" fill-opacity="1" /><path clip-path="url(#clip930)" d="M46.0847 827.371 Q46.0847 834.469 47.7079 837.206 Q49.3312 839.943 53.2461 839.943 Q56.3653 839.943 58.2114 837.906 Q60.0256 835.837 60.0256 832.304 Q60.0256 827.434 56.5881 824.506 Q53.1188 821.546 47.3897 821.546 L46.0847 821.546 L46.0847 827.371 M43.6657 815.69 L64.0042 815.69 L64.0042 821.546 L58.5933 821.546 Q61.8398 823.551 63.3994 826.543 Q64.9272 829.535 64.9272 833.864 Q64.9272 839.338 61.8716 842.585 Q58.7843 845.8 53.6281 845.8 Q47.6125 845.8 44.5569 841.789 Q41.5014 837.747 41.5014 829.758 L41.5014 821.546 L40.9285 821.546 Q36.8862 821.546 34.6901 824.22 Q32.4621 826.862 32.4621 831.668 Q32.4621 834.723 33.1941 837.62 Q33.9262 840.516 35.3903 843.19 L29.9795 843.19 Q28.7381 839.975 28.1334 836.951 Q27.4968 833.928 27.4968 831.063 Q27.4968 823.329 31.5072 819.509 Q35.5176 815.69 43.6657 815.69 Z" fill="#000000" fill-rule="nonzero" fill-opacity="1" /><path clip-path="url(#clip930)" d="M14.479 803.627 L14.479 797.77 L64.0042 797.77 L64.0042 803.627 L14.479 803.627 Z" fill="#000000" fill-rule="nonzero" fill-opacity="1" /><path clip-path="url(#clip930)" d="M20.1444 728.957 L26.9239 728.957 Q23.9002 732.204 22.4043 735.896 Q20.9083 739.556 20.9083 743.694 Q20.9083 751.842 25.9054 756.17 Q30.8707 760.499 40.2919 760.499 Q49.6813 760.499 54.6784 756.17 Q59.6436 751.842 59.6436 743.694 Q59.6436 739.556 58.1477 735.896 Q56.6518 732.204 53.6281 728.957 L60.3439 728.957 Q62.6355 732.331 63.7814 736.118 Q64.9272 739.874 64.9272 744.076 Q64.9272 754.865 58.3387 761.072 Q51.7183 767.279 40.2919 767.279 Q28.8336 767.279 22.2451 761.072 Q15.6248 754.865 15.6248 744.076 Q15.6248 739.811 16.7706 736.055 Q17.8846 732.267 20.1444 728.957 Z" fill="#000000" fill-rule="nonzero" fill-opacity="1" /><path clip-path="url(#clip930)" d="M32.4621 705.468 Q32.4621 710.178 36.1542 712.915 Q39.8145 715.653 46.212 715.653 Q52.6095 715.653 56.3017 712.947 Q59.9619 710.21 59.9619 705.468 Q59.9619 700.789 56.2698 698.052 Q52.5777 695.314 46.212 695.314 Q39.8781 695.314 36.186 698.052 Q32.4621 700.789 32.4621 705.468 M27.4968 705.468 Q27.4968 697.829 32.4621 693.468 Q37.4273 689.108 46.212 689.108 Q54.9649 689.108 59.9619 693.468 Q64.9272 697.829 64.9272 705.468 Q64.9272 713.138 59.9619 717.499 Q54.9649 721.827 46.212 721.827 Q37.4273 721.827 32.4621 717.499 Q27.4968 713.138 27.4968 705.468 Z" fill="#000000" fill-rule="nonzero" fill-opacity="1" /><path clip-path="url(#clip930)" d="M29.4065 656.674 L34.9447 656.674 Q33.6716 659.157 33.035 661.831 Q32.3984 664.504 32.3984 667.369 Q32.3984 671.729 33.7352 673.925 Q35.072 676.09 37.7456 676.09 Q39.7826 676.09 40.9603 674.53 Q42.1061 672.971 43.1565 668.26 L43.6021 666.255 Q44.9389 660.016 47.3897 657.406 Q49.8086 654.765 54.1691 654.765 Q59.1344 654.765 62.0308 658.711 Q64.9272 662.626 64.9272 669.501 Q64.9272 672.366 64.3543 675.485 Q63.8132 678.572 62.6992 682.01 L56.6518 682.01 Q58.3387 678.763 59.198 675.612 Q60.0256 672.461 60.0256 669.374 Q60.0256 665.236 58.6251 663.008 Q57.1929 660.78 54.6147 660.78 Q52.2276 660.78 50.9545 662.404 Q49.6813 663.995 48.5037 669.438 L48.0262 671.475 Q46.8804 676.917 44.5251 679.336 Q42.138 681.755 38.0002 681.755 Q32.9713 681.755 30.2341 678.19 Q27.4968 674.626 27.4968 668.069 Q27.4968 664.823 27.9743 661.958 Q28.4517 659.093 29.4065 656.674 Z" fill="#000000" fill-rule="nonzero" fill-opacity="1" /><path clip-path="url(#clip930)" d="M18.2347 639.646 L28.3562 639.646 L28.3562 627.583 L32.9077 627.583 L32.9077 639.646 L52.2594 639.646 Q56.6199 639.646 57.8613 638.468 Q59.1026 637.259 59.1026 633.599 L59.1026 627.583 L64.0042 627.583 L64.0042 633.599 Q64.0042 640.378 61.4897 642.956 Q58.9434 645.534 52.2594 645.534 L32.9077 645.534 L32.9077 649.831 L28.3562 649.831 L28.3562 645.534 L18.2347 645.534 L18.2347 639.646 Z" fill="#000000" fill-rule="nonzero" fill-opacity="1" /><path clip-path="url(#clip930)" d="M64.0042 586.652 L16.4842 604.794 L16.4842 598.078 L56.4926 583.023 L16.4842 567.936 L16.4842 561.252 L64.0042 579.363 L64.0042 586.652 Z" fill="#000000" fill-rule="nonzero" fill-opacity="1" /><path clip-path="url(#clip930)" d="M46.0847 543.428 Q46.0847 550.526 47.7079 553.264 Q49.3312 556.001 53.2461 556.001 Q56.3653 556.001 58.2114 553.964 Q60.0256 551.895 60.0256 548.362 Q60.0256 543.492 56.5881 540.564 Q53.1188 537.604 47.3897 537.604 L46.0847 537.604 L46.0847 543.428 M43.6657 531.747 L64.0042 531.747 L64.0042 537.604 L58.5933 537.604 Q61.8398 539.609 63.3994 542.601 Q64.9272 545.593 64.9272 549.922 Q64.9272 555.396 61.8716 558.643 Q58.7843 561.857 53.6281 561.857 Q47.6125 561.857 44.5569 557.847 Q41.5014 553.805 41.5014 545.816 L41.5014 537.604 L40.9285 537.604 Q36.8862 537.604 34.6901 540.277 Q32.4621 542.919 32.4621 547.725 Q32.4621 550.781 33.1941 553.677 Q33.9262 556.574 35.3903 559.247 L29.9795 559.247 Q28.7381 556.033 28.1334 553.009 Q27.4968 549.985 27.4968 547.121 Q27.4968 539.386 31.5072 535.567 Q35.5176 531.747 43.6657 531.747 Z" fill="#000000" fill-rule="nonzero" fill-opacity="1" /><path clip-path="url(#clip930)" d="M14.479 519.684 L14.479 513.828 L64.0042 513.828 L64.0042 519.684 L14.479 519.684 Z" fill="#000000" fill-rule="nonzero" fill-opacity="1" /><path clip-path="url(#clip930)" d="M49.9359 502.179 L28.3562 502.179 L28.3562 496.322 L49.7131 496.322 Q54.7739 496.322 57.3202 494.349 Q59.8346 492.376 59.8346 488.429 Q59.8346 483.686 56.8109 480.949 Q53.7872 478.18 48.5673 478.18 L28.3562 478.18 L28.3562 472.324 L64.0042 472.324 L64.0042 478.18 L58.5296 478.18 Q61.7762 480.313 63.3676 483.145 Q64.9272 485.946 64.9272 489.67 Q64.9272 495.813 61.1078 498.996 Q57.2883 502.179 49.9359 502.179 M27.4968 487.442 L27.4968 487.442 Z" fill="#000000" fill-rule="nonzero" fill-opacity="1" /><path clip-path="url(#clip930)" d="M44.7161 429.769 L47.5806 429.769 L47.5806 456.696 Q53.6281 456.314 56.8109 453.067 Q59.9619 449.789 59.9619 443.964 Q59.9619 440.59 59.1344 437.439 Q58.3069 434.257 56.6518 431.137 L62.1899 431.137 Q63.5267 434.288 64.227 437.599 Q64.9272 440.909 64.9272 444.314 Q64.9272 452.844 59.9619 457.842 Q54.9967 462.807 46.5303 462.807 Q37.7774 462.807 32.6531 458.096 Q27.4968 453.354 27.4968 445.333 Q27.4968 438.14 32.1438 433.97 Q36.7589 429.769 44.7161 429.769 M42.9973 435.625 Q38.1912 435.689 35.3266 438.331 Q32.4621 440.941 32.4621 445.269 Q32.4621 450.171 35.2312 453.131 Q38.0002 456.059 43.0292 456.505 L42.9973 435.625 Z" fill="#000000" fill-rule="nonzero" fill-opacity="1" /><path clip-path="url(#clip930)" d="M14.5426 421.08 L14.5426 415.987 Q22.0542 411.213 29.2474 408.857 Q36.4406 406.47 43.5384 406.47 Q50.668 406.47 57.8931 408.857 Q65.1182 411.213 72.5979 415.987 L72.5979 421.08 Q65.3091 416.846 58.1159 414.778 Q50.8908 412.677 43.5384 412.677 Q36.186 412.677 29.0246 414.778 Q21.8632 416.846 14.5426 421.08 Z" fill="#000000" fill-rule="nonzero" fill-opacity="1" /><path clip-path="url(#clip930)" d="M827.263 12.096 L835.526 12.096 L848.246 63.2184 L860.926 12.096 L870.121 12.096 L882.841 63.2184 L895.52 12.096 L903.825 12.096 L888.634 72.576 L878.345 72.576 L865.584 20.0763 L852.702 72.576 L842.413 72.576 L827.263 12.096 Z" fill="#000000" fill-rule="nonzero" fill-opacity="1" /><path clip-path="url(#clip930)" d="M929.669 49.7694 Q920.636 49.7694 917.152 51.8354 Q913.668 53.9013 913.668 58.8839 Q913.668 62.8538 916.261 65.2034 Q918.894 67.5124 923.391 67.5124 Q929.588 67.5124 933.315 63.1374 Q937.083 58.7219 937.083 51.4303 L937.083 49.7694 L929.669 49.7694 M944.536 46.6907 L944.536 72.576 L937.083 72.576 L937.083 65.6895 Q934.531 69.8214 930.723 71.8063 Q926.915 73.7508 921.406 73.7508 Q914.438 73.7508 910.306 69.8619 Q906.215 65.9325 906.215 59.3701 Q906.215 51.7138 911.319 47.825 Q916.464 43.9361 926.631 43.9361 L937.083 43.9361 L937.083 43.2069 Q937.083 38.0623 933.68 35.2672 Q930.318 32.4315 924.201 32.4315 Q920.312 32.4315 916.626 33.3632 Q912.939 34.295 909.536 36.1584 L909.536 29.2718 Q913.628 27.692 917.476 26.9223 Q921.325 26.1121 924.97 26.1121 Q934.814 26.1121 939.675 31.2163 Q944.536 36.3204 944.536 46.6907 Z" fill="#000000" fill-rule="nonzero" fill-opacity="1" /><path clip-path="url(#clip930)" d="M967.262 14.324 L967.262 27.2059 L982.615 27.2059 L982.615 32.9987 L967.262 32.9987 L967.262 57.6282 Q967.262 63.1779 968.761 64.7578 Q970.3 66.3376 974.959 66.3376 L982.615 66.3376 L982.615 72.576 L974.959 72.576 Q966.33 72.576 963.049 69.3758 Q959.768 66.1351 959.768 57.6282 L959.768 32.9987 L954.299 32.9987 L954.299 27.2059 L959.768 27.2059 L959.768 14.324 L967.262 14.324 Z" fill="#000000" fill-rule="nonzero" fill-opacity="1" /><path clip-path="url(#clip930)" d="M1031.23 48.0275 L1031.23 51.6733 L996.955 51.6733 Q997.441 59.3701 1001.57 63.421 Q1005.75 67.4314 1013.16 67.4314 Q1017.45 67.4314 1021.46 66.3781 Q1025.51 65.3249 1029.48 63.2184 L1029.48 70.267 Q1025.47 71.9684 1021.26 72.8596 Q1017.05 73.7508 1012.71 73.7508 Q1001.86 73.7508 995.497 67.4314 Q989.177 61.1119 989.177 50.3365 Q989.177 39.1965 995.173 32.6746 Q1001.21 26.1121 1011.42 26.1121 Q1020.57 26.1121 1025.88 32.0264 Q1031.23 37.9003 1031.23 48.0275 M1023.77 45.84 Q1023.69 39.7232 1020.33 36.0774 Q1017.01 32.4315 1011.5 32.4315 Q1005.26 32.4315 1001.49 35.9558 Q997.765 39.4801 997.198 45.8805 L1023.77 45.84 Z" fill="#000000" fill-rule="nonzero" fill-opacity="1" /><path clip-path="url(#clip930)" d="M1069.75 34.1734 Q1068.49 33.4443 1067 33.1202 Q1065.54 32.7556 1063.75 32.7556 Q1057.43 32.7556 1054.03 36.8875 Q1050.67 40.9789 1050.67 48.6757 L1050.67 72.576 L1043.18 72.576 L1043.18 27.2059 L1050.67 27.2059 L1050.67 34.2544 Q1053.02 30.1225 1056.79 28.1376 Q1060.55 26.1121 1065.94 26.1121 Q1066.71 26.1121 1067.64 26.2337 Q1068.57 26.3147 1069.71 26.5172 L1069.75 34.1734 Z" fill="#000000" fill-rule="nonzero" fill-opacity="1" /><path clip-path="url(#clip930)" d="M1100.54 9.54393 L1100.54 15.7418 L1093.41 15.7418 Q1089.4 15.7418 1087.82 17.3622 Q1086.28 18.9825 1086.28 23.1955 L1086.28 27.2059 L1098.55 27.2059 L1098.55 32.9987 L1086.28 32.9987 L1086.28 72.576 L1078.78 72.576 L1078.78 32.9987 L1071.65 32.9987 L1071.65 27.2059 L1078.78 27.2059 L1078.78 24.0462 Q1078.78 16.471 1082.31 13.0277 Q1085.83 9.54393 1093.49 9.54393 L1100.54 9.54393 Z" fill="#000000" fill-rule="nonzero" fill-opacity="1" /><path clip-path="url(#clip930)" d="M1127.39 49.7694 Q1118.36 49.7694 1114.88 51.8354 Q1111.39 53.9013 1111.39 58.8839 Q1111.39 62.8538 1113.99 65.2034 Q1116.62 67.5124 1121.12 67.5124 Q1127.31 67.5124 1131.04 63.1374 Q1134.81 58.7219 1134.81 51.4303 L1134.81 49.7694 L1127.39 49.7694 M1142.26 46.6907 L1142.26 72.576 L1134.81 72.576 L1134.81 65.6895 Q1132.26 69.8214 1128.45 71.8063 Q1124.64 73.7508 1119.13 73.7508 Q1112.16 73.7508 1108.03 69.8619 Q1103.94 65.9325 1103.94 59.3701 Q1103.94 51.7138 1109.04 47.825 Q1114.19 43.9361 1124.36 43.9361 L1134.81 43.9361 L1134.81 43.2069 Q1134.81 38.0623 1131.4 35.2672 Q1128.04 32.4315 1121.93 32.4315 Q1118.04 32.4315 1114.35 33.3632 Q1110.66 34.295 1107.26 36.1584 L1107.26 29.2718 Q1111.35 27.692 1115.2 26.9223 Q1119.05 26.1121 1122.7 26.1121 Q1132.54 26.1121 1137.4 31.2163 Q1142.26 36.3204 1142.26 46.6907 Z" fill="#000000" fill-rule="nonzero" fill-opacity="1" /><path clip-path="url(#clip930)" d="M1157.61 9.54393 L1165.07 9.54393 L1165.07 72.576 L1157.61 72.576 L1157.61 9.54393 Z" fill="#000000" fill-rule="nonzero" fill-opacity="1" /><path clip-path="url(#clip930)" d="M1180.66 9.54393 L1188.12 9.54393 L1188.12 72.576 L1180.66 72.576 L1180.66 9.54393 Z" fill="#000000" fill-rule="nonzero" fill-opacity="1" /><path clip-path="url(#clip930)" d="M1237.3 65.7705 L1237.3 89.8329 L1229.8 89.8329 L1229.8 27.2059 L1237.3 27.2059 L1237.3 34.0924 Q1239.64 30.0415 1243.21 28.0971 Q1246.81 26.1121 1251.8 26.1121 Q1260.06 26.1121 1265.21 32.6746 Q1270.39 39.2371 1270.39 49.9314 Q1270.39 60.6258 1265.21 67.1883 Q1260.06 73.7508 1251.8 73.7508 Q1246.81 73.7508 1243.21 71.8063 Q1239.64 69.8214 1237.3 65.7705 M1262.65 49.9314 Q1262.65 41.7081 1259.25 37.0496 Q1255.89 32.3505 1249.97 32.3505 Q1244.06 32.3505 1240.66 37.0496 Q1237.3 41.7081 1237.3 49.9314 Q1237.3 58.1548 1240.66 62.8538 Q1244.06 67.5124 1249.97 67.5124 Q1255.89 67.5124 1259.25 62.8538 Q1262.65 58.1548 1262.65 49.9314 Z" fill="#000000" fill-rule="nonzero" fill-opacity="1" /><path clip-path="url(#clip930)" d="M1282.75 9.54393 L1290.2 9.54393 L1290.2 72.576 L1282.75 72.576 L1282.75 9.54393 Z" fill="#000000" fill-rule="nonzero" fill-opacity="1" /><path clip-path="url(#clip930)" d="M1323.38 32.4315 Q1317.38 32.4315 1313.9 37.1306 Q1310.41 41.7891 1310.41 49.9314 Q1310.41 58.0738 1313.86 62.7728 Q1317.34 67.4314 1323.38 67.4314 Q1329.33 67.4314 1332.82 62.7323 Q1336.3 58.0333 1336.3 49.9314 Q1336.3 41.8701 1332.82 37.1711 Q1329.33 32.4315 1323.38 32.4315 M1323.38 26.1121 Q1333.1 26.1121 1338.65 32.4315 Q1344.2 38.7509 1344.2 49.9314 Q1344.2 61.0714 1338.65 67.4314 Q1333.1 73.7508 1323.38 73.7508 Q1313.61 73.7508 1308.06 67.4314 Q1302.56 61.0714 1302.56 49.9314 Q1302.56 38.7509 1308.06 32.4315 Q1313.61 26.1121 1323.38 26.1121 Z" fill="#000000" fill-rule="nonzero" fill-opacity="1" /><path clip-path="url(#clip930)" d="M1363.93 14.324 L1363.93 27.2059 L1379.28 27.2059 L1379.28 32.9987 L1363.93 32.9987 L1363.93 57.6282 Q1363.93 63.1779 1365.43 64.7578 Q1366.96 66.3376 1371.62 66.3376 L1379.28 66.3376 L1379.28 72.576 L1371.62 72.576 Q1362.99 72.576 1359.71 69.3758 Q1356.43 66.1351 1356.43 57.6282 L1356.43 32.9987 L1350.96 32.9987 L1350.96 27.2059 L1356.43 27.2059 L1356.43 14.324 L1363.93 14.324 Z" fill="#000000" fill-rule="nonzero" fill-opacity="1" /><path clip-path="url(#clip930)" d="M1417.92 65.6895 L1431.29 65.6895 L1431.29 19.5497 L1416.75 22.4663 L1416.75 15.0127 L1431.21 12.096 L1439.39 12.096 L1439.39 65.6895 L1452.76 65.6895 L1452.76 72.576 L1417.92 72.576 L1417.92 65.6895 Z" fill="#000000" fill-rule="nonzero" fill-opacity="1" /><path clip-path="url(#clip930)" d="M1491.77 19.2256 L1471.11 51.5113 L1491.77 51.5113 L1491.77 19.2256 M1489.63 12.096 L1499.92 12.096 L1499.92 51.5113 L1508.54 51.5113 L1508.54 58.3168 L1499.92 58.3168 L1499.92 72.576 L1491.77 72.576 L1491.77 58.3168 L1464.47 58.3168 L1464.47 50.4176 L1489.63 12.096 Z" fill="#000000" fill-rule="nonzero" fill-opacity="1" /><path clip-path="url(#clip930)" d="M1529.12 65.6895 L1557.68 65.6895 L1557.68 72.576 L1519.28 72.576 L1519.28 65.6895 Q1523.94 60.8689 1531.96 52.7671 Q1540.02 44.6248 1542.09 42.2752 Q1546.01 37.8598 1547.55 34.8216 Q1549.13 31.7429 1549.13 28.7857 Q1549.13 23.9651 1545.73 20.927 Q1542.37 17.8888 1536.94 17.8888 Q1533.09 17.8888 1528.8 19.2256 Q1524.54 20.5624 1519.68 23.2765 L1519.68 15.0127 Q1524.63 13.0277 1528.92 12.015 Q1533.21 11.0023 1536.78 11.0023 Q1546.18 11.0023 1551.77 15.7013 Q1557.36 20.4004 1557.36 28.2591 Q1557.36 31.9859 1555.94 35.3482 Q1554.56 38.6699 1550.88 43.2069 Q1549.86 44.3817 1544.43 50.0125 Q1539.01 55.6027 1529.12 65.6895 Z" fill="#000000" fill-rule="nonzero" fill-opacity="1" /><path clip-path="url(#clip930)" d="M1587.05 12.096 L1593.94 12.096 L1572.87 80.2727 L1565.99 80.2727 L1587.05 12.096 Z" fill="#000000" fill-rule="nonzero" fill-opacity="1" /><path clip-path="url(#clip930)" d="M1609.86 65.6895 L1638.42 65.6895 L1638.42 72.576 L1600.01 72.576 L1600.01 65.6895 Q1604.67 60.8689 1612.69 52.7671 Q1620.75 44.6248 1622.82 42.2752 Q1626.75 37.8598 1628.29 34.8216 Q1629.87 31.7429 1629.87 28.7857 Q1629.87 23.9651 1626.47 20.927 Q1623.1 17.8888 1617.68 17.8888 Q1613.83 17.8888 1609.53 19.2256 Q1605.28 20.5624 1600.42 23.2765 L1600.42 15.0127 Q1605.36 13.0277 1609.65 12.015 Q1613.95 11.0023 1617.51 11.0023 Q1626.91 11.0023 1632.5 15.7013 Q1638.09 20.4004 1638.09 28.2591 Q1638.09 31.9859 1636.67 35.3482 Q1635.3 38.6699 1631.61 43.2069 Q1630.6 44.3817 1625.17 50.0125 Q1619.74 55.6027 1609.86 65.6895 Z" fill="#000000" fill-rule="nonzero" fill-opacity="1" /><path clip-path="url(#clip930)" d="M1655.67 12.096 L1687.8 12.096 L1687.8 18.9825 L1663.17 18.9825 L1663.17 33.8088 Q1664.95 33.2012 1666.73 32.9176 Q1668.51 32.5936 1670.3 32.5936 Q1680.42 32.5936 1686.34 38.1433 Q1692.25 43.6931 1692.25 53.1722 Q1692.25 62.9348 1686.18 68.3631 Q1680.1 73.7508 1669.04 73.7508 Q1665.23 73.7508 1661.26 73.1026 Q1657.33 72.4545 1653.12 71.1582 L1653.12 62.9348 Q1656.77 64.9198 1660.66 65.892 Q1664.54 66.8642 1668.88 66.8642 Q1675.89 66.8642 1679.98 63.1779 Q1684.07 59.4916 1684.07 53.1722 Q1684.07 46.8528 1679.98 43.1664 Q1675.89 39.4801 1668.88 39.4801 Q1665.6 39.4801 1662.32 40.2093 Q1659.08 40.9384 1655.67 42.4778 L1655.67 12.096 Z" fill="#000000" fill-rule="nonzero" fill-opacity="1" /><path clip-path="url(#clip930)" d="M1708.46 12.096 L1740.58 12.096 L1740.58 18.9825 L1715.95 18.9825 L1715.95 33.8088 Q1717.73 33.2012 1719.51 32.9176 Q1721.3 32.5936 1723.08 32.5936 Q1733.21 32.5936 1739.12 38.1433 Q1745.04 43.6931 1745.04 53.1722 Q1745.04 62.9348 1738.96 68.3631 Q1732.88 73.7508 1721.82 73.7508 Q1718.02 73.7508 1714.05 73.1026 Q1710.12 72.4545 1705.9 71.1582 L1705.9 62.9348 Q1709.55 64.9198 1713.44 65.892 Q1717.33 66.8642 1721.66 66.8642 Q1728.67 66.8642 1732.76 63.1779 Q1736.85 59.4916 1736.85 53.1722 Q1736.85 46.8528 1732.76 43.1664 Q1728.67 39.4801 1721.66 39.4801 Q1718.38 39.4801 1715.1 40.2093 Q1711.86 40.9384 1708.46 42.4778 L1708.46 12.096 Z" fill="#000000" fill-rule="nonzero" fill-opacity="1" /><circle clip-path="url(#clip932)" cx="279.916" cy="1364.1" r="6.04211" fill="#eff822" fill-rule="evenodd" fill-opacity="1" stroke="none"/>
<circle clip-path="url(#clip932)" cx="294.189" cy="1364.1" r="6.04211" fill="#eff822" fill-rule="evenodd" fill-opacity="1" stroke="none"/>
<circle clip-path="url(#clip932)" cx="308.462" cy="1364.1" r="6.04211" fill="#eff722" fill-rule="evenodd" fill-opacity="1" stroke="none"/>
<circle clip-path="url(#clip932)" cx="322.735" cy="1364.1" r="6.04211" fill="#eff722" fill-rule="evenodd" fill-opacity="1" stroke="none"/>
<circle clip-path="url(#clip932)" cx="337.007" cy="1364.1" r="6.04211" fill="#eff822" fill-rule="evenodd" fill-opacity="1" stroke="none"/>
<circle clip-path="url(#clip932)" cx="351.28" cy="1364.1" r="6.04211" fill="#eff822" fill-rule="evenodd" fill-opacity="1" stroke="none"/>
<circle clip-path="url(#clip932)" cx="365.553" cy="1364.1" r="6.04211" fill="#eff722" fill-rule="evenodd" fill-opacity="1" stroke="none"/>
<circle clip-path="url(#clip932)" cx="379.826" cy="1364.1" r="6.04211" fill="#f0f723" fill-rule="evenodd" fill-opacity="1" stroke="none"/>
<circle clip-path="url(#clip932)" cx="394.099" cy="1364.1" r="6.04211" fill="#f0f723" fill-rule="evenodd" fill-opacity="1" stroke="none"/>
<circle clip-path="url(#clip932)" cx="408.371" cy="1364.1" r="6.04211" fill="#eff722" fill-rule="evenodd" fill-opacity="1" stroke="none"/>
<circle clip-path="url(#clip932)" cx="422.644" cy="1364.1" r="6.04211" fill="#eff722" fill-rule="evenodd" fill-opacity="1" stroke="none"/>
<circle clip-path="url(#clip932)" cx="436.917" cy="1364.1" r="6.04211" fill="#eff822" fill-rule="evenodd" fill-opacity="1" stroke="none"/>
<circle clip-path="url(#clip932)" cx="451.19" cy="1364.1" r="6.04211" fill="#eff822" fill-rule="evenodd" fill-opacity="1" stroke="none"/>
<circle clip-path="url(#clip932)" cx="465.463" cy="1364.1" r="6.04211" fill="#eff722" fill-rule="evenodd" fill-opacity="1" stroke="none"/>
<circle clip-path="url(#clip932)" cx="479.735" cy="1364.1" r="6.04211" fill="#f0f723" fill-rule="evenodd" fill-opacity="1" stroke="none"/>
<circle clip-path="url(#clip932)" cx="494.008" cy="1364.1" r="6.04211" fill="#eff822" fill-rule="evenodd" fill-opacity="1" stroke="none"/>
<circle clip-path="url(#clip932)" cx="508.281" cy="1364.1" r="6.04211" fill="#eff722" fill-rule="evenodd" fill-opacity="1" stroke="none"/>
<circle clip-path="url(#clip932)" cx="522.554" cy="1364.1" r="6.04211" fill="#eff722" fill-rule="evenodd" fill-opacity="1" stroke="none"/>
<circle clip-path="url(#clip932)" cx="536.827" cy="1364.1" r="6.04211" fill="#eff722" fill-rule="evenodd" fill-opacity="1" stroke="none"/>
<circle clip-path="url(#clip932)" cx="551.099" cy="1364.1" r="6.04211" fill="#eff722" fill-rule="evenodd" fill-opacity="1" stroke="none"/>
<circle clip-path="url(#clip932)" cx="565.372" cy="182.55" r="6.04211" fill="#eff821" fill-rule="evenodd" fill-opacity="1" stroke="none"/>
<circle clip-path="url(#clip932)" cx="579.645" cy="182.55" r="6.04211" fill="#eff821" fill-rule="evenodd" fill-opacity="1" stroke="none"/>
<circle clip-path="url(#clip932)" cx="593.918" cy="182.55" r="6.04211" fill="#eff821" fill-rule="evenodd" fill-opacity="1" stroke="none"/>
<circle clip-path="url(#clip932)" cx="608.191" cy="182.55" r="6.04211" fill="#eff821" fill-rule="evenodd" fill-opacity="1" stroke="none"/>
<circle clip-path="url(#clip932)" cx="622.464" cy="182.55" r="6.04211" fill="#eff821" fill-rule="evenodd" fill-opacity="1" stroke="none"/>
<circle clip-path="url(#clip932)" cx="636.736" cy="182.55" r="6.04211" fill="#eff821" fill-rule="evenodd" fill-opacity="1" stroke="none"/>
<circle clip-path="url(#clip932)" cx="651.009" cy="182.55" r="6.04211" fill="#eff821" fill-rule="evenodd" fill-opacity="1" stroke="none"/>
<circle clip-path="url(#clip932)" cx="665.282" cy="182.55" r="6.04211" fill="#eff821" fill-rule="evenodd" fill-opacity="1" stroke="none"/>
<circle clip-path="url(#clip932)" cx="679.555" cy="182.55" r="6.04211" fill="#eff821" fill-rule="evenodd" fill-opacity="1" stroke="none"/>
<circle clip-path="url(#clip932)" cx="693.828" cy="182.55" r="6.04211" fill="#eff821" fill-rule="evenodd" fill-opacity="1" stroke="none"/>
<circle clip-path="url(#clip932)" cx="708.1" cy="182.55" r="6.04211" fill="#eff821" fill-rule="evenodd" fill-opacity="1" stroke="none"/>
<circle clip-path="url(#clip932)" cx="722.373" cy="182.55" r="6.04211" fill="#eff821" fill-rule="evenodd" fill-opacity="1" stroke="none"/>
<circle clip-path="url(#clip932)" cx="736.646" cy="182.55" r="6.04211" fill="#eff821" fill-rule="evenodd" fill-opacity="1" stroke="none"/>
<circle clip-path="url(#clip932)" cx="750.919" cy="182.55" r="6.04211" fill="#eff821" fill-rule="evenodd" fill-opacity="1" stroke="none"/>
<circle clip-path="url(#clip932)" cx="765.192" cy="182.55" r="6.04211" fill="#eff821" fill-rule="evenodd" fill-opacity="1" stroke="none"/>
<circle clip-path="url(#clip932)" cx="779.464" cy="182.55" r="6.04211" fill="#eff821" fill-rule="evenodd" fill-opacity="1" stroke="none"/>
<circle clip-path="url(#clip932)" cx="793.737" cy="182.55" r="6.04211" fill="#eff821" fill-rule="evenodd" fill-opacity="1" stroke="none"/>
<circle clip-path="url(#clip932)" cx="808.01" cy="182.55" r="6.04211" fill="#eff821" fill-rule="evenodd" fill-opacity="1" stroke="none"/>
<circle clip-path="url(#clip932)" cx="822.283" cy="182.55" r="6.04211" fill="#eff821" fill-rule="evenodd" fill-opacity="1" stroke="none"/>
<circle clip-path="url(#clip932)" cx="836.556" cy="182.55" r="6.04211" fill="#eff821" fill-rule="evenodd" fill-opacity="1" stroke="none"/>
<circle clip-path="url(#clip932)" cx="850.828" cy="182.55" r="6.04211" fill="#eff821" fill-rule="evenodd" fill-opacity="1" stroke="none"/>
<circle clip-path="url(#clip932)" cx="865.101" cy="182.55" r="6.04211" fill="#eff821" fill-rule="evenodd" fill-opacity="1" stroke="none"/>
<circle clip-path="url(#clip932)" cx="879.374" cy="182.55" r="6.04211" fill="#eff821" fill-rule="evenodd" fill-opacity="1" stroke="none"/>
<circle clip-path="url(#clip932)" cx="893.647" cy="182.55" r="6.04211" fill="#eff821" fill-rule="evenodd" fill-opacity="1" stroke="none"/>
<circle clip-path="url(#clip932)" cx="907.92" cy="182.55" r="6.04211" fill="#eff821" fill-rule="evenodd" fill-opacity="1" stroke="none"/>
<circle clip-path="url(#clip932)" cx="922.192" cy="182.55" r="6.04211" fill="#eff821" fill-rule="evenodd" fill-opacity="1" stroke="none"/>
<circle clip-path="url(#clip932)" cx="936.465" cy="182.55" r="6.04211" fill="#eff821" fill-rule="evenodd" fill-opacity="1" stroke="none"/>
<circle clip-path="url(#clip932)" cx="950.738" cy="182.55" r="6.04211" fill="#eff821" fill-rule="evenodd" fill-opacity="1" stroke="none"/>
<circle clip-path="url(#clip932)" cx="965.011" cy="182.55" r="6.04211" fill="#eff821" fill-rule="evenodd" fill-opacity="1" stroke="none"/>
<circle clip-path="url(#clip932)" cx="979.284" cy="182.55" r="6.04211" fill="#eff821" fill-rule="evenodd" fill-opacity="1" stroke="none"/>
<circle clip-path="url(#clip932)" cx="993.557" cy="182.55" r="6.04211" fill="#eff821" fill-rule="evenodd" fill-opacity="1" stroke="none"/>
<circle clip-path="url(#clip932)" cx="1007.83" cy="182.55" r="6.04211" fill="#eff821" fill-rule="evenodd" fill-opacity="1" stroke="none"/>
<circle clip-path="url(#clip932)" cx="1022.1" cy="182.55" r="6.04211" fill="#eff821" fill-rule="evenodd" fill-opacity="1" stroke="none"/>
<circle clip-path="url(#clip932)" cx="1036.37" cy="182.55" r="6.04211" fill="#eff821" fill-rule="evenodd" fill-opacity="1" stroke="none"/>
<circle clip-path="url(#clip932)" cx="1050.65" cy="182.55" r="6.04211" fill="#eff821" fill-rule="evenodd" fill-opacity="1" stroke="none"/>
<circle clip-path="url(#clip932)" cx="1064.92" cy="182.55" r="6.04211" fill="#eff821" fill-rule="evenodd" fill-opacity="1" stroke="none"/>
<circle clip-path="url(#clip932)" cx="1079.19" cy="182.55" r="6.04211" fill="#eff821" fill-rule="evenodd" fill-opacity="1" stroke="none"/>
<circle clip-path="url(#clip932)" cx="1093.47" cy="182.55" r="6.04211" fill="#eff821" fill-rule="evenodd" fill-opacity="1" stroke="none"/>
<circle clip-path="url(#clip932)" cx="1107.74" cy="182.55" r="6.04211" fill="#eff821" fill-rule="evenodd" fill-opacity="1" stroke="none"/>
<circle clip-path="url(#clip932)" cx="1122.01" cy="182.55" r="6.04211" fill="#eff821" fill-rule="evenodd" fill-opacity="1" stroke="none"/>
<circle clip-path="url(#clip932)" cx="1136.28" cy="182.55" r="6.04211" fill="#eff821" fill-rule="evenodd" fill-opacity="1" stroke="none"/>
<circle clip-path="url(#clip932)" cx="1150.56" cy="182.55" r="6.04211" fill="#eff821" fill-rule="evenodd" fill-opacity="1" stroke="none"/>
<circle clip-path="url(#clip932)" cx="1164.83" cy="182.55" r="6.04211" fill="#eff821" fill-rule="evenodd" fill-opacity="1" stroke="none"/>
<circle clip-path="url(#clip932)" cx="1179.1" cy="182.55" r="6.04211" fill="#eff821" fill-rule="evenodd" fill-opacity="1" stroke="none"/>
<circle clip-path="url(#clip932)" cx="1193.38" cy="182.55" r="6.04211" fill="#eff821" fill-rule="evenodd" fill-opacity="1" stroke="none"/>
<circle clip-path="url(#clip932)" cx="1207.65" cy="182.55" r="6.04211" fill="#eff821" fill-rule="evenodd" fill-opacity="1" stroke="none"/>
<circle clip-path="url(#clip932)" cx="1221.92" cy="182.55" r="6.04211" fill="#eff821" fill-rule="evenodd" fill-opacity="1" stroke="none"/>
<circle clip-path="url(#clip932)" cx="1236.19" cy="182.55" r="6.04211" fill="#eff821" fill-rule="evenodd" fill-opacity="1" stroke="none"/>
<circle clip-path="url(#clip932)" cx="1250.47" cy="182.55" r="6.04211" fill="#eff821" fill-rule="evenodd" fill-opacity="1" stroke="none"/>
<circle clip-path="url(#clip932)" cx="1264.74" cy="182.55" r="6.04211" fill="#eff821" fill-rule="evenodd" fill-opacity="1" stroke="none"/>
<circle clip-path="url(#clip932)" cx="1279.01" cy="182.55" r="6.04211" fill="#eff821" fill-rule="evenodd" fill-opacity="1" stroke="none"/>
<circle clip-path="url(#clip932)" cx="1293.29" cy="182.55" r="6.04211" fill="#eff821" fill-rule="evenodd" fill-opacity="1" stroke="none"/>
<circle clip-path="url(#clip932)" cx="1307.56" cy="182.55" r="6.04211" fill="#eff821" fill-rule="evenodd" fill-opacity="1" stroke="none"/>
<circle clip-path="url(#clip932)" cx="1321.83" cy="182.55" r="6.04211" fill="#eff821" fill-rule="evenodd" fill-opacity="1" stroke="none"/>
<circle clip-path="url(#clip932)" cx="1336.1" cy="182.55" r="6.04211" fill="#eff821" fill-rule="evenodd" fill-opacity="1" stroke="none"/>
<circle clip-path="url(#clip932)" cx="1350.38" cy="182.55" r="6.04211" fill="#eff821" fill-rule="evenodd" fill-opacity="1" stroke="none"/>
<circle clip-path="url(#clip932)" cx="1364.65" cy="182.55" r="6.04211" fill="#eff821" fill-rule="evenodd" fill-opacity="1" stroke="none"/>
<circle clip-path="url(#clip932)" cx="1378.92" cy="182.55" r="6.04211" fill="#eff821" fill-rule="evenodd" fill-opacity="1" stroke="none"/>
<circle clip-path="url(#clip932)" cx="1393.2" cy="182.55" r="6.04211" fill="#eff821" fill-rule="evenodd" fill-opacity="1" stroke="none"/>
<circle clip-path="url(#clip932)" cx="1407.47" cy="182.55" r="6.04211" fill="#eff821" fill-rule="evenodd" fill-opacity="1" stroke="none"/>
<circle clip-path="url(#clip932)" cx="1421.74" cy="182.55" r="6.04211" fill="#eff821" fill-rule="evenodd" fill-opacity="1" stroke="none"/>
<circle clip-path="url(#clip932)" cx="1436.01" cy="182.55" r="6.04211" fill="#eff821" fill-rule="evenodd" fill-opacity="1" stroke="none"/>
<circle clip-path="url(#clip932)" cx="1450.29" cy="182.55" r="6.04211" fill="#eff821" fill-rule="evenodd" fill-opacity="1" stroke="none"/>
<circle clip-path="url(#clip932)" cx="1464.56" cy="182.55" r="6.04211" fill="#eff821" fill-rule="evenodd" fill-opacity="1" stroke="none"/>
<circle clip-path="url(#clip932)" cx="1478.83" cy="182.55" r="6.04211" fill="#eff821" fill-rule="evenodd" fill-opacity="1" stroke="none"/>
<circle clip-path="url(#clip932)" cx="1493.1" cy="182.55" r="6.04211" fill="#eff821" fill-rule="evenodd" fill-opacity="1" stroke="none"/>
<circle clip-path="url(#clip932)" cx="1507.38" cy="182.55" r="6.04211" fill="#eff821" fill-rule="evenodd" fill-opacity="1" stroke="none"/>
<circle clip-path="url(#clip932)" cx="1521.65" cy="182.55" r="6.04211" fill="#eff821" fill-rule="evenodd" fill-opacity="1" stroke="none"/>
<circle clip-path="url(#clip932)" cx="1535.92" cy="182.55" r="6.04211" fill="#eff821" fill-rule="evenodd" fill-opacity="1" stroke="none"/>
<circle clip-path="url(#clip932)" cx="1550.2" cy="182.55" r="6.04211" fill="#eff821" fill-rule="evenodd" fill-opacity="1" stroke="none"/>
<circle clip-path="url(#clip932)" cx="1564.47" cy="182.55" r="6.04211" fill="#eff821" fill-rule="evenodd" fill-opacity="1" stroke="none"/>
<circle clip-path="url(#clip932)" cx="1578.74" cy="182.55" r="6.04211" fill="#eff821" fill-rule="evenodd" fill-opacity="1" stroke="none"/>
<circle clip-path="url(#clip932)" cx="1593.01" cy="182.55" r="6.04211" fill="#eff821" fill-rule="evenodd" fill-opacity="1" stroke="none"/>
<circle clip-path="url(#clip932)" cx="1607.29" cy="182.55" r="6.04211" fill="#eff821" fill-rule="evenodd" fill-opacity="1" stroke="none"/>
<circle clip-path="url(#clip932)" cx="1621.56" cy="182.55" r="6.04211" fill="#eff821" fill-rule="evenodd" fill-opacity="1" stroke="none"/>
<circle clip-path="url(#clip932)" cx="1635.83" cy="182.55" r="6.04211" fill="#eff821" fill-rule="evenodd" fill-opacity="1" stroke="none"/>
<circle clip-path="url(#clip932)" cx="1650.11" cy="182.55" r="6.04211" fill="#eff821" fill-rule="evenodd" fill-opacity="1" stroke="none"/>
<circle clip-path="url(#clip932)" cx="1664.38" cy="182.55" r="6.04211" fill="#eff821" fill-rule="evenodd" fill-opacity="1" stroke="none"/>
<circle clip-path="url(#clip932)" cx="1678.65" cy="182.55" r="6.04211" fill="#eff821" fill-rule="evenodd" fill-opacity="1" stroke="none"/>
<circle clip-path="url(#clip932)" cx="1692.92" cy="182.55" r="6.04211" fill="#eff821" fill-rule="evenodd" fill-opacity="1" stroke="none"/>
<circle clip-path="url(#clip932)" cx="1707.2" cy="182.55" r="6.04211" fill="#eff821" fill-rule="evenodd" fill-opacity="1" stroke="none"/>
<circle clip-path="url(#clip932)" cx="1721.47" cy="182.55" r="6.04211" fill="#eff821" fill-rule="evenodd" fill-opacity="1" stroke="none"/>
<circle clip-path="url(#clip932)" cx="1735.74" cy="182.55" r="6.04211" fill="#eff821" fill-rule="evenodd" fill-opacity="1" stroke="none"/>
<circle clip-path="url(#clip932)" cx="1750.02" cy="182.55" r="6.04211" fill="#eff821" fill-rule="evenodd" fill-opacity="1" stroke="none"/>
<circle clip-path="url(#clip932)" cx="1764.29" cy="182.55" r="6.04211" fill="#eff821" fill-rule="evenodd" fill-opacity="1" stroke="none"/>
<circle clip-path="url(#clip932)" cx="1778.56" cy="182.55" r="6.04211" fill="#eff821" fill-rule="evenodd" fill-opacity="1" stroke="none"/>
<circle clip-path="url(#clip932)" cx="1792.83" cy="182.55" r="6.04211" fill="#eff821" fill-rule="evenodd" fill-opacity="1" stroke="none"/>
<circle clip-path="url(#clip932)" cx="1807.11" cy="182.55" r="6.04211" fill="#eff821" fill-rule="evenodd" fill-opacity="1" stroke="none"/>
<circle clip-path="url(#clip932)" cx="1821.38" cy="182.55" r="6.04211" fill="#eff821" fill-rule="evenodd" fill-opacity="1" stroke="none"/>
<circle clip-path="url(#clip932)" cx="1835.65" cy="182.55" r="6.04211" fill="#eff821" fill-rule="evenodd" fill-opacity="1" stroke="none"/>
<circle clip-path="url(#clip932)" cx="1849.92" cy="182.55" r="6.04211" fill="#eff821" fill-rule="evenodd" fill-opacity="1" stroke="none"/>
<circle clip-path="url(#clip932)" cx="1864.2" cy="182.55" r="6.04211" fill="#eff821" fill-rule="evenodd" fill-opacity="1" stroke="none"/>
<circle clip-path="url(#clip932)" cx="1878.47" cy="182.55" r="6.04211" fill="#eff821" fill-rule="evenodd" fill-opacity="1" stroke="none"/>
<circle clip-path="url(#clip932)" cx="1892.74" cy="182.55" r="6.04211" fill="#eff821" fill-rule="evenodd" fill-opacity="1" stroke="none"/>
<circle clip-path="url(#clip932)" cx="1907.02" cy="182.55" r="6.04211" fill="#eff821" fill-rule="evenodd" fill-opacity="1" stroke="none"/>
<circle clip-path="url(#clip932)" cx="1921.29" cy="182.55" r="6.04211" fill="#eff821" fill-rule="evenodd" fill-opacity="1" stroke="none"/>
<circle clip-path="url(#clip932)" cx="1935.56" cy="182.55" r="6.04211" fill="#eff821" fill-rule="evenodd" fill-opacity="1" stroke="none"/>
<circle clip-path="url(#clip932)" cx="1949.83" cy="182.55" r="6.04211" fill="#eff821" fill-rule="evenodd" fill-opacity="1" stroke="none"/>
<circle clip-path="url(#clip932)" cx="1964.11" cy="182.55" r="6.04211" fill="#eff821" fill-rule="evenodd" fill-opacity="1" stroke="none"/>
<circle clip-path="url(#clip932)" cx="1978.38" cy="182.55" r="6.04211" fill="#eff821" fill-rule="evenodd" fill-opacity="1" stroke="none"/>
<circle clip-path="url(#clip932)" cx="1992.65" cy="182.55" r="6.04211" fill="#eff821" fill-rule="evenodd" fill-opacity="1" stroke="none"/>
<circle clip-path="url(#clip932)" cx="2006.93" cy="182.55" r="6.04211" fill="#eff821" fill-rule="evenodd" fill-opacity="1" stroke="none"/>
<circle clip-path="url(#clip932)" cx="2021.2" cy="182.55" r="6.04211" fill="#eff821" fill-rule="evenodd" fill-opacity="1" stroke="none"/>
<circle clip-path="url(#clip932)" cx="2035.47" cy="182.55" r="6.04211" fill="#eff821" fill-rule="evenodd" fill-opacity="1" stroke="none"/>
<circle clip-path="url(#clip932)" cx="2049.74" cy="182.55" r="6.04211" fill="#eff821" fill-rule="evenodd" fill-opacity="1" stroke="none"/>
<circle clip-path="url(#clip932)" cx="2064.02" cy="182.55" r="6.04211" fill="#eff821" fill-rule="evenodd" fill-opacity="1" stroke="none"/>
<circle clip-path="url(#clip932)" cx="2078.29" cy="182.55" r="6.04211" fill="#eff821" fill-rule="evenodd" fill-opacity="1" stroke="none"/>
<circle clip-path="url(#clip932)" cx="2092.56" cy="182.55" r="6.04211" fill="#eff821" fill-rule="evenodd" fill-opacity="1" stroke="none"/>
<circle clip-path="url(#clip932)" cx="2106.84" cy="182.55" r="6.04211" fill="#eff821" fill-rule="evenodd" fill-opacity="1" stroke="none"/>
<circle clip-path="url(#clip932)" cx="2121.11" cy="182.55" r="6.04211" fill="#eff821" fill-rule="evenodd" fill-opacity="1" stroke="none"/>
<circle clip-path="url(#clip932)" cx="2135.38" cy="182.55" r="6.04211" fill="#eff821" fill-rule="evenodd" fill-opacity="1" stroke="none"/>
<circle clip-path="url(#clip932)" cx="2149.65" cy="182.55" r="6.04211" fill="#eff821" fill-rule="evenodd" fill-opacity="1" stroke="none"/>
<circle clip-path="url(#clip932)" cx="2163.93" cy="182.55" r="6.04211" fill="#eff821" fill-rule="evenodd" fill-opacity="1" stroke="none"/>
<circle clip-path="url(#clip932)" cx="2178.2" cy="182.55" r="6.04211" fill="#eff821" fill-rule="evenodd" fill-opacity="1" stroke="none"/>
<circle clip-path="url(#clip932)" cx="2192.47" cy="182.55" r="6.04211" fill="#eff821" fill-rule="evenodd" fill-opacity="1" stroke="none"/>
<circle clip-path="url(#clip932)" cx="2206.75" cy="182.55" r="6.04211" fill="#eff821" fill-rule="evenodd" fill-opacity="1" stroke="none"/>
<circle clip-path="url(#clip932)" cx="2221.02" cy="182.55" r="6.04211" fill="#eff821" fill-rule="evenodd" fill-opacity="1" stroke="none"/>
<path clip-path="url(#clip932)" d="M2235.29 175.836 L2228.58 189.263 L2242 189.263 L2235.29 175.836 Z" fill="#0c0786" fill-rule="evenodd" fill-opacity="1" stroke="none"/>
<circle clip-path="url(#clip932)" cx="2249.56" cy="182.55" r="6.04211" fill="#eff821" fill-rule="evenodd" fill-opacity="1" stroke="none"/>
<circle clip-path="url(#clip932)" cx="2263.84" cy="182.55" r="6.04211" fill="#eff821" fill-rule="evenodd" fill-opacity="1" stroke="none"/>
<circle clip-path="url(#clip932)" cx="2278.11" cy="182.55" r="6.04211" fill="#eff821" fill-rule="evenodd" fill-opacity="1" stroke="none"/>
<circle clip-path="url(#clip932)" cx="2292.38" cy="182.55" r="6.04211" fill="#eff821" fill-rule="evenodd" fill-opacity="1" stroke="none"/>
<polyline clip-path="url(#clip932)" style="stroke:#808080; stroke-linecap:round; stroke-linejoin:round; stroke-width:4; stroke-opacity:1; fill:none" stroke-dasharray="16, 10" points="558.236,2722.89 558.236,-1176.24 "/>
</svg>
